<?xml version="1.0" encoding="UTF-8" standalone="no"?>
<!-- Created with Inkscape (http://www.inkscape.org/) -->

<svg
   width="214.37569mm"
   height="36.963654mm"
   viewBox="0 0 214.37569 36.963654"
   version="1.1"
   id="svg5"
   inkscape:version="1.2.2 (b0a8486541, 2022-12-01)"
   sodipodi:docname="glikoliz.svg"
   xmlns:inkscape="http://www.inkscape.org/namespaces/inkscape"
   xmlns:sodipodi="http://sodipodi.sourceforge.net/DTD/sodipodi-0.dtd"
   xmlns="http://www.w3.org/2000/svg"
   xmlns:svg="http://www.w3.org/2000/svg">
  <sodipodi:namedview
     id="namedview7"
     pagecolor="#ffffff"
     bordercolor="#000000"
     borderopacity="0.25"
     inkscape:showpageshadow="2"
     inkscape:pageopacity="0.0"
     inkscape:pagecheckerboard="0"
     inkscape:deskcolor="#d1d1d1"
     inkscape:document-units="mm"
     showgrid="true"
     inkscape:zoom="2.4570201"
     inkscape:cx="219.98192"
     inkscape:cy="-12.61691"
     inkscape:window-width="1916"
     inkscape:window-height="1026"
     inkscape:window-x="0"
     inkscape:window-y="0"
     inkscape:window-maximized="1"
     inkscape:current-layer="layer1">
    <inkscape:grid
       type="xygrid"
       id="grid1412"
       units="mm"
       spacingx="5"
       spacingy="5"
       empspacing="1"
       originx="-32.037011"
       originy="-8.9121309" />
  </sodipodi:namedview>
  <defs
     id="defs2" />
  <g
     inkscape:label="Layer 1"
     inkscape:groupmode="layer"
     id="layer1"
     transform="translate(-32.03701,-8.9121316)">
    <path
       style="fill:#000000;fill-opacity:0;stroke:#000000;stroke-width:1;stroke-linecap:round;stroke-linejoin:round"
       d="m 36.713074,12.232651 c -0.01,-0.635122 0.08822,-1.513256 -0.468735,-1.990294 -0.689671,-0.5907067 -1.571112,0.836271 -1.756842,1.170465 -1.09752,1.974853 -2.437833,5.041868 -1.756841,7.375717 0.1275,0.436967 0.402871,0.828385 0.702643,1.170923 1.071825,1.224727 2.276208,0.651952 3.279775,-0.351094 0.501209,-0.500946 0.613244,-1.019841 0.81983,-1.6392"
       id="path4275" />
    <path
       style="fill:#000000;fill-opacity:0;stroke:#000000;stroke-width:1;stroke-linecap:round;stroke-linejoin:round"
       d="m 35.190143,16.798245 c 1.712421,-0.475136 2.100744,-1.308605 2.693855,0.351551 0.181129,0.506994 -0.416935,2.528183 0.703104,2.341388 0.364226,-0.06074 0.345678,-0.11178 0.58546,-0.351093"
       id="path4277" />
    <path
       style="fill:#000000;fill-opacity:0;stroke:#000000;stroke-width:1;stroke-linecap:round;stroke-linejoin:round"
       d="m 39.289746,11.64719 c 0.156093,0.351246 0.367122,0.682921 0.468278,1.053739 0.264697,0.970319 0.241617,2.055163 0.351552,3.043576 0.562102,5.053802 0.0267,-1.23834 0.234367,2.927308 0.0176,0.352805 0.06681,0.703582 0.116727,1.053281 0.02812,0.197028 0.08444,0.389149 0.117184,0.585462 0.0064,0.03853 -0.03494,0.134652 0,0.117184 0.588033,-0.294018 1.008126,-1.109555 1.405749,-1.639201"
       id="path4279" />
    <path
       style="fill:#000000;fill-opacity:0;stroke:#000000;stroke-width:1;stroke-linecap:round;stroke-linejoin:round"
       d="m 42.569063,16.447151 c -0.119893,1.265381 -0.235908,2.689251 0.351552,3.863405 0.03908,0.07811 0.04449,0.282795 0.117184,0.234368 0.123637,-0.08237 0.295875,-0.654176 0.351094,-0.81983"
       id="path4281" />
    <path
       style="fill:#000000;fill-opacity:0;stroke:#000000;stroke-width:1;stroke-linecap:round;stroke-linejoin:round"
       d="m 42.217511,14.57404 c 0.312338,-0.156093 0.624676,-0.312185 0.937014,-0.468278"
       id="path4283" />
    <path
       style="fill:#000000;fill-opacity:0;stroke:#000000;stroke-width:1;stroke-linecap:round;stroke-linejoin:round"
       d="m 45.145734,11.764374 c 0.195154,2.458572 0.380582,4.917936 0.585462,7.375717 0.02935,0.352039 0.09366,0.700805 0.117184,1.053281 0.01561,0.233695 -0.04597,0.472986 0,0.702645 0.01085,0.05417 0.07812,-0.07812 0.117184,-0.117183"
       id="path4285" />
    <path
       style="fill:#000000;fill-opacity:0;stroke:#000000;stroke-width:1;stroke-linecap:round;stroke-linejoin:round"
       d="m 48.602463,15.165696 c -0.74186,1.092648 -1.782951,2.033631 -2.22558,3.277944 -1.351076,3.798132 3.706371,1.053739 4.802251,1.053739 2.116194,0.379078 1.134289,-3.894863 -0.351552,-3.746221 -1.698642,0.169931 -2.064784,4.856497 0,5.151055 2.45915,0.350816 1.746712,-3.634557 1.054197,-3.980589 -0.110367,-0.05515 -0.234062,0.07812 -0.351094,0.117183"
       id="path4287" />
    <path
       style="fill:#000000;fill-opacity:0;stroke:#000000;stroke-width:1;stroke-linecap:round;stroke-linejoin:round"
       d="m 54.575635,16.921623 c 0.546553,-0.468277 1.003517,-1.06819 1.639658,-1.404833 0.339785,-0.179812 0.496146,0.670288 0.468735,1.05374 -0.08552,1.19622 -1.288565,2.486199 -1.288565,3.395127 0,0.82953 2.197089,-0.0586 2.459487,-0.585461"
       id="path4289" />
    <path
       style="fill:#000000;fill-opacity:0;stroke:#000000;stroke-width:1;stroke-linecap:round;stroke-linejoin:round"
       d="m 54.107357,18.20973 c 1.405443,-0.351246 2.810886,-0.702493 4.216329,-1.053739"
       id="path4291" />
    <path
       style="fill:#000000;fill-opacity:0;stroke:#000000;stroke-width:1;stroke-linecap:round;stroke-linejoin:round"
       d="m 63.711396,14.463051 c 0.227915,1.239555 0.234368,2.231499 0.234368,3.395128"
       id="path4293" />
    <path
       style="fill:#000000;fill-opacity:0;stroke:#000000;stroke-width:1;stroke-linecap:round;stroke-linejoin:round"
       d="m 62.657201,16.57053 c 1.635805,-0.408686 0.929031,-0.271718 2.108393,-0.468278"
       id="path4295" />
    <path
       style="fill:#000000;fill-opacity:0;stroke:#000000;stroke-width:1;stroke-linecap:round;stroke-linejoin:round"
       d="m 69.333019,15.048513 c -1.941152,0.481439 -0.316164,-4.896852 1.288563,-4.682777 0.356637,0.04758 0.607931,0.472265 0.702646,0.819371 0.268883,0.985397 0.401365,2.023827 0.351552,3.044034 -0.07968,1.631933 -2.275747,5.068801 -3.513685,6.08761 -0.385964,0.317643 -1.111779,0.585461 -1.63966,0.585461 -0.161052,0 -0.310809,-0.0856 -0.468733,-0.117184 -0.0383,-0.0077 -0.149707,0.02164 -0.117184,0 0.465399,-0.309661 1.013137,-0.472845 1.522931,-0.702187 1.283433,-0.577381 2.652874,-1.288107 4.099147,-1.288107 0.276053,0 0.543775,0.117184 0.819828,0.117184"
       id="path4297" />
    <path
       style="fill:#000000;fill-opacity:0;stroke:#000000;stroke-width:1;stroke-linecap:round;stroke-linejoin:round"
       d="m 73.666532,19.731747 c 0.708435,-1.478616 1.071483,-2.939419 1.288565,-4.566051 0.06811,-0.510352 0.222467,-2.957353 0.234368,-3.278401 0.0016,-0.04347 -0.08499,-1.535984 0.117184,-1.873111 0.108633,-0.1811485 0.458148,0.0917 0.702644,0.702646 0.211082,0.527443 0.312134,1.092509 0.468278,1.638743 0.472128,1.651638 1.205973,5.423461 2.342761,6.673529 0.141428,0.15552 0.390308,0.156245 0.585462,0.234367"
       id="path4303" />
    <path
       style="fill:#000000;fill-opacity:0;stroke:#000000;stroke-width:1;stroke-linecap:round;stroke-linejoin:round"
       d="m 74.486819,17.507085 c 1.235491,-0.740908 0.362784,-0.304231 2.810582,-0.819372"
       id="path4305" />
    <path
       style="fill:#000000;fill-opacity:0;stroke:#000000;stroke-width:1;stroke-linecap:round;stroke-linejoin:round"
       d="m 79.405794,10.599646 c 2.259486,-0.9027344 0.3761,-0.215695 5.973172,-0.7026454"
       id="path4307" />
    <path
       style="fill:#000000;fill-opacity:0;stroke:#000000;stroke-width:1;stroke-linecap:round;stroke-linejoin:round"
       d="m 82.099649,10.131368 c 0.594045,2.629819 0.23486,5.323267 -0.117184,7.961178 -0.256461,1.921702 -0.234368,1.051052 -0.234368,2.107479"
       id="path4311" />
    <path
       style="fill:#000000;fill-opacity:0;stroke:#000000;stroke-width:1;stroke-linecap:round;stroke-linejoin:round"
       d="m 88.072821,10.834013 c 0.328711,3.236558 -0.04031,6.485912 -0.234367,9.717106"
       id="path4313" />
    <path
       style="fill:#000000;fill-opacity:0;stroke:#000000;stroke-width:1;stroke-linecap:round;stroke-linejoin:round"
       d="m 89.127019,11.536201 c 0.195154,-0.234062 0.28734,-0.765392 0.585462,-0.702188 1.178836,0.249926 2.271713,0.860612 3.279318,1.52156 0.531592,0.348704 0.810053,1.571669 0.234365,1.990294 -1.032518,0.750824 -2.961587,1.05374 -4.216329,1.05374"
       id="path4315" />
    <path
       style="fill:#000000;fill-opacity:0;stroke:#000000;stroke-width:1;stroke-linecap:round;stroke-linejoin:round"
       d="m 147.06929,11.185107 c 1.86884,2.910966 2.00647,6.848314 1.17139,10.185383"
       id="path4336" />
    <path
       style="fill:#000000;fill-opacity:0;stroke:#000000;stroke-width:1;stroke-linecap:round;stroke-linejoin:round"
       d="m 148.12349,12.238847 c 0.58331,-1.748797 0.1478,-1.220052 3.74805,0.116726 0.10712,0.03977 0.89478,0.988036 0.81983,1.288107 -0.0473,0.189278 -0.29648,0.258637 -0.46828,0.351093 -1.3698,0.737207 -2.94027,0.821227 -4.45069,1.05374"
       id="path4338" />
    <path
       style="fill:#000000;fill-opacity:0;stroke:#000000;stroke-width:1;stroke-linecap:round;stroke-linejoin:round"
       d="m 153.15965,16.102252 c 0.15625,1.092648 0.308,2.185947 0.46874,3.277944 0.05,0.339584 0.17823,0.805073 0.11718,1.170923 -0.0144,0.08602 -0.03,0.23391 -0.11718,0.23391 -0.078,0 0,-0.155941 0,-0.23391"
       id="path4340" />
    <path
       style="fill:#000000;fill-opacity:0;stroke:#000000;stroke-width:1;stroke-linecap:round;stroke-linejoin:round"
       d="m 153.5112,14.814145 c 0.19516,-0.03891 0.39031,-0.07782 0.58546,-0.116726"
       id="path4342" />
    <path
       style="fill:#000000;fill-opacity:0;stroke:#000000;stroke-width:1;stroke-linecap:round;stroke-linejoin:round"
       d="m 155.73678,16.102252 c 0.23421,1.131709 0.45842,2.265537 0.70265,3.395127 0.068,0.314508 0.17075,0.621039 0.23391,0.936556 0.0242,0.120931 -0.0947,-0.22975 -0.11673,-0.351094 -0.0562,-0.309553 -0.10146,-0.622329 -0.11718,-0.936555 -0.0336,-0.67049 -0.2125,-2.566205 0.23391,-3.161218 0.51525,-0.686783 1.41631,-0.23391 2.10839,-0.23391"
       id="path4344" />
    <path
       style="fill:#000000;fill-opacity:0;stroke:#000000;stroke-width:1;stroke-linecap:round;stroke-linejoin:round"
       d="m 160.18702,16.687713 c 0.0391,0.234063 0.11718,0.464889 0.11718,0.702188 0,1.295825 -0.39468,0.850426 0.23437,2.107478 0.62784,1.254618 1.93173,0.558014 2.34231,-0.468277 0.13365,-0.334088 0.14701,-0.704674 0.23436,-1.053739 0.069,-0.27558 0.19416,-0.538155 0.23437,-0.819372 0.007,-0.0476 -0.0896,-0.964955 0.11718,-1.170923 0.0554,-0.05513 0,0.156245 0,0.234368 0,0.724191 -0.0331,0.770108 0.11719,1.522016 0.29219,1.461718 0.44534,2.246346 1.75684,0.936556"
       id="path4346" />
    <path
       style="fill:#000000;fill-opacity:0;stroke:#000000;stroke-width:1;stroke-linecap:round;stroke-linejoin:round"
       d="m 159.71874,15.399606 c 1.05405,-0.546247 2.10809,-1.092495 3.16214,-1.638743"
       id="path4348" />
    <path
       style="fill:#000000;fill-opacity:0;stroke:#000000;stroke-width:1;stroke-linecap:round;stroke-linejoin:round"
       d="m 165.10645,15.165696 c 0.42937,1.13171 0.9301,2.238861 1.28811,3.395128 0.15182,0.490352 0.15423,1.014993 0.23437,1.522017 0.0443,0.280594 0.10722,1.073408 0.23436,0.819372 0.14285,-0.285409 0.65554,-3.253441 0.70265,-3.512312 0.11138,-0.612033 0.0177,-1.070923 0.46874,-1.522017"
       id="path4350" />
    <path
       style="fill:#000000;fill-opacity:0;stroke:#000000;stroke-width:1;stroke-linecap:round;stroke-linejoin:round"
       d="m 169.32278,16.921623 c 0.35763,2.263094 0.35155,1.473907 0.35155,2.341389"
       id="path4352" />
    <path
       style="fill:#000000;fill-opacity:0;stroke:#000000;stroke-width:1;stroke-linecap:round;stroke-linejoin:round"
       d="m 169.2056,14.580235 c 0.15624,-0.195154 0.31249,-0.390308 0.46873,-0.585462"
       id="path4354" />
    <path
       style="fill:#000000;fill-opacity:0;stroke:#000000;stroke-width:1;stroke-linecap:round;stroke-linejoin:round"
       d="m 171.19681,11.185107 c 0.0391,-0.273276 0.0718,-1.092124 0.11718,-0.819829 0.27783,1.666418 0.45588,3.349887 0.58547,5.034328 0.55696,7.239675 -0.3574,-0.404128 0.11718,3.863406 0.0305,0.274362 0.0867,0.545466 0.11718,0.819829 0.009,0.07749 -0.078,0.23391 0,0.23391 0.078,0 0,-0.15594 0,-0.23391"
       id="path4356" />
    <path
       style="fill:#000000;fill-opacity:0;stroke:#000000;stroke-width:1;stroke-linecap:round;stroke-linejoin:round"
       d="m 173.89066,15.165696 c -1.6279,0.812364 -2.04815,0.879535 -1.75684,4.566051 0.0883,1.117676 2.36006,-0.260376 2.57667,-0.351551 0.42109,-0.177235 0.87407,-0.275172 1.28811,-0.468278 0.17692,-0.08251 0.31249,-0.234063 0.46874,-0.351094"
       id="path4358" />
    <path
       style="fill:#000000;fill-opacity:0;stroke:#000000;stroke-width:1;stroke-linecap:round;stroke-linejoin:round"
       d="m 141.68204,14.229141 c -0.14334,-0.773556 1.18482,-4.142007 2.10794,-3.746679 0.36478,0.156218 0.68638,1.436635 0.70264,1.522017 0.51466,2.702068 -0.20491,5.691074 -2.69385,7.141807 -0.12641,0.07368 -1.01405,0.585461 -1.28811,0.585461 -0.0391,0 -0.0391,-0.117184 0,-0.117184 0.0873,0 0.14702,0.117184 0.23437,0.117184 2.00547,0 -1.01439,-0.309183 1.28811,-0.117184 0.71631,0.05973 1.50074,0.249019 2.22557,0.117184 0.35572,-0.0647 1.10873,-0.585461 1.40529,-0.585461"
       id="path4370" />
    <circle
       id="path4480"
       style="fill:#000000;stroke:#000000;stroke-width:0.264583"
       cx="99.68821"
       cy="14.697419"
       r="0.014748557" />
    <path
       style="fill:#000000;fill-opacity:0;stroke:#000000;stroke-width:1;stroke-linecap:round;stroke-linejoin:round"
       d="M 99.571489,15.400064 134.2396,15.28288"
       id="path4482" />
    <path
       style="fill:#000000;fill-opacity:0;stroke:#000000;stroke-width:1;stroke-linecap:round;stroke-linejoin:round"
       d="m 131.66293,13.292586 2.81104,1.990294 -2.45949,1.873111"
       id="path4484" />
    <path
       style="fill:#000000;fill-opacity:0;stroke:#000000;stroke-width:1;stroke-linecap:round;stroke-linejoin:round"
       d="m 186.51184,17.155991 c -0.19516,-0.234062 -0.35768,-0.499737 -0.58546,-0.702188 -0.29201,-0.259537 -0.57658,-0.274433 -0.93702,-0.234367 -0.1978,0.02199 -0.41985,0.0068 -0.58546,0.117183 -1.25525,0.836655 -1.65895,4.097773 0.35109,4.097773 1.64178,0 1.50854,-2.119111 1.75685,-3.278401 0.0296,-0.138129 0.30646,-1.017284 0.35155,-1.287649 0.0193,-0.115437 0,-0.468125 0,-0.351094 0,0.273124 0.0663,0.554418 0,0.819371 -0.0722,0.288312 -0.40325,0.526701 -0.35155,0.819372 0.0792,0.448327 0.50815,0.75951 0.7031,1.170923 0.19947,0.420941 0.70264,2.416862 0.70264,1.639201"
       id="path4486" />
    <path
       style="fill:#000000;fill-opacity:0;stroke:#000000;stroke-width:1;stroke-linecap:round;stroke-linejoin:round"
       d="m 191.43127,15.868342 c -0.54655,0.468277 -1.33517,0.752687 -1.63966,1.404833 -0.18308,0.392129 3.12367,0.594254 2.45949,1.755927 -0.73622,1.287675 -2.94526,1.197291 -4.21633,1.288107 -0.23685,0.01692 -0.87055,-0.05072 -0.70264,0.117183 0.0151,0.01505 1.13724,0 1.2881,0"
       id="path4488" />
    <path
       style="fill:#000000;fill-opacity:0;stroke:#000000;stroke-width:1;stroke-linecap:round;stroke-linejoin:round"
       d="m 194.82777,16.336619 c 0.41284,2.062038 0.35155,1.159003 0.35155,2.692483 0,0.02026 0,-0.564744 0,-0.585004"
       id="path4490" />
    <path
       style="fill:#000000;fill-opacity:0;stroke:#000000;stroke-width:1;stroke-linecap:round;stroke-linejoin:round"
       d="m 194.24231,14.580235 c 0.54655,-0.351094 1.09311,-0.702188 1.63966,-1.053282"
       id="path4492" />
    <path
       style="fill:#000000;fill-opacity:0;stroke:#000000;stroke-width:1;stroke-linecap:round;stroke-linejoin:round"
       d="m 198.45864,10.834013 c 0.11703,2.107326 0.35109,4.211405 0.35109,6.321978 0,0.673675 -0.24039,1.325778 -0.35109,1.990295 -0.006,0.03853 -0.0385,0.123609 0,0.117183 1.17025,-0.195168 2.03975,-1.112748 3.04495,-1.6392 0.44966,-0.235501 0.94572,-0.370911 1.40575,-0.585462 0.12744,-0.05944 0.22529,-0.171069 0.35109,-0.23391 0.0349,-0.01745 0.14475,0.02767 0.11718,0 -0.0615,-0.06179 -0.15594,-0.07812 -0.23391,-0.117184"
       id="path4494" />
    <path
       style="fill:#000000;fill-opacity:0;stroke:#000000;stroke-width:1;stroke-linecap:round;stroke-linejoin:round"
       d="m 197.40444,16.336619 c 3.24615,-0.519118 1.96929,-0.228426 3.86524,-0.702645"
       id="path4496" />
    <path
       style="fill:#000000;fill-opacity:0;stroke:#000000;stroke-width:1;stroke-linecap:round;stroke-linejoin:round"
       d="m 211.92792,13.175402 c 0.11703,0.234215 0.27917,0.45089 0.35109,0.702645 0.0864,0.302517 0.0554,0.628058 0.11718,0.936556 0.0558,0.278549 0.1748,0.54161 0.23437,0.819371 0.0166,0.07725 0.0828,0.944171 0.23391,1.170923 0.0217,0.03251 0.11719,0.03906 0.11719,0 0,-0.08734 -0.0781,-0.156245 -0.11719,-0.234367"
       id="path4504" />
    <path
       style="fill:#000000;fill-opacity:0;stroke:#000000;stroke-width:1;stroke-linecap:round;stroke-linejoin:round"
       d="m 211.22482,15.400064 c 0.70279,-0.156092 1.40559,-0.312185 2.10839,-0.468278"
       id="path4506" />
    <path
       style="fill:#000000;fill-opacity:0;stroke:#000000;stroke-width:1;stroke-linecap:round;stroke-linejoin:round"
       d="m 221.88305,11.536659 c -1.21208,5.654529 -0.007,1.587824 -1.28811,4.331683 -0.0164,0.03508 -0.30844,0.800835 -0.23436,0.819371 0.58275,0.145831 2.58086,-1.015771 3.3965,-1.287649"
       id="path4508" />
    <path
       style="fill:#000000;fill-opacity:0;stroke:#000000;stroke-width:1;stroke-linecap:round;stroke-linejoin:round"
       d="m 223.52271,14.814603 c 0.34844,1.740825 0.36994,1.649213 0.11718,4.683234 -0.0102,0.122904 -0.22776,0.116726 -0.35109,0.116726 -0.0389,0 0,-0.07782 0,-0.116726"
       id="path4510" />
    <path
       style="fill:#000000;fill-opacity:0;stroke:#000000;stroke-width:1;stroke-linecap:round;stroke-linejoin:round"
       d="m 227.27076,20.082841 c 5.02465,-18.8358115 1.70193,-4.392418 2.45949,-10.068199 0.0278,-0.208362 0.0594,-0.701907 0.23437,-0.5854615 0.3085,0.2052664 0.43927,1.1600535 0.46828,1.2876495 0.4063,1.78754 0.48763,3.58926 0.82028,5.385422 0.24965,1.347986 0.81983,2.989084 0.81983,2.575756"
       id="path4512" />
    <path
       style="fill:#000000;fill-opacity:0;stroke:#000000;stroke-width:1;stroke-linecap:round;stroke-linejoin:round"
       d="m 227.97341,17.507542 c 1.25197,-0.938981 0.28961,-0.273721 3.16259,-1.522016"
       id="path4514" />
    <path
       style="fill:#000000;fill-opacity:0;stroke:#000000;stroke-width:1;stroke-linecap:round;stroke-linejoin:round"
       d="m 233.36112,11.185107 c 0.0957,-1.236293 1.06702,-0.857898 1.99121,-0.819371 1.67814,0.06996 2.17785,-0.0018 3.86478,-0.234368 0.17011,-0.02345 1.64037,-0.117435 1.99121,-0.4682776"
       id="path4520" />
    <path
       style="fill:#000000;fill-opacity:0;stroke:#000000;stroke-width:1;stroke-linecap:round;stroke-linejoin:round"
       d="m 236.05497,10.951197 c 1.9836,2.0825 1.17139,5.407646 1.17139,8.195089"
       id="path4522" />
    <path
       style="fill:#000000;fill-opacity:0;stroke:#000000;stroke-width:1;stroke-linecap:round;stroke-linejoin:round"
       d="m 241.67705,11.068381 c 1.17922,4.126693 0.40081,0.711608 0,9.131644 -0.0135,0.283714 0.18733,-0.539181 0.23391,-0.819372"
       id="path4524" />
    <path
       style="fill:#000000;fill-opacity:0;stroke:#000000;stroke-width:1;stroke-linecap:round;stroke-linejoin:round"
       d="m 241.91096,12.004937 c 2.62293,-0.291563 3.34869,-1.373636 3.98242,1.287649 0.0658,0.276349 -0.0996,0.569269 -0.23436,0.819371 -0.63071,1.170897 -1.75153,1.298281 -2.92823,1.405291"
       id="path4526" />
    <path
       style="fill:#000000;fill-opacity:0;stroke:#000000;stroke-width:1;stroke-linecap:round;stroke-linejoin:round"
       d="m 95.126282,32.380279 c 0,-0.546248 -0.155696,-1.115155 0,-1.638741 0.283623,-0.953776 0.790207,-1.83142 1.288108,-2.692943 3.78217,-6.544316 11.72286,-11.419258 19.44245,-10.302565 4.13344,0.597932 8.9782,3.100191 12.18071,5.736516 0.8739,0.719394 1.60551,1.599298 2.3423,2.458572 1.09992,1.282752 1.71846,2.784948 2.57713,4.214958"
       id="path4540" />
    <path
       style="fill:#000000;fill-opacity:0;stroke:#000000;stroke-width:1;stroke-linecap:round;stroke-linejoin:round"
       d="m 134.47946,28.868425 c 0,0.585309 -0.0293,1.17135 0,1.755929 0.002,0.03223 0.26447,0.687395 0,0.819369 -0.53794,0.268446 -2.24886,-0.508034 -3.16259,-0.116726 -0.10758,0.04607 0,0.234064 0,0.351094"
       id="path4542" />
    <path
       style="fill:#000000;fill-opacity:0;stroke:#000000;stroke-width:1;stroke-linecap:round;stroke-linejoin:round"
       d="m 82.646177,38.351163 c 0,-0.702339 -0.13774,-1.41832 0,-2.10702 0.05269,-0.263443 0.7908,-0.270938 0.937014,-0.234368 0.833051,0.208365 1.054195,0.999702 1.054195,1.756384 0,2.327045 -1.170969,4.257561 -2.928223,5.736516 -0.870593,0.732716 -0.906489,0.722542 -1.874026,0.819372 -0.116451,0.01164 -0.257458,0.0702 -0.351094,0 -0.557286,-0.41783 0.887193,-1.202574 1.170924,-1.28765 0.589114,-0.176642 0.816539,-0.135835 1.405748,0 1.496922,0.345098 3.091579,0.885991 4.333515,-0.351095"
       id="path4544" />
    <path
       style="fill:#000000;fill-opacity:0;stroke:#000000;stroke-width:1;stroke-linecap:round;stroke-linejoin:round"
       d="m 87.096873,44.088137 c 0.273278,-2.107327 0.581798,-4.210381 0.81983,-6.321978 0.07445,-0.660397 0.09256,-1.326171 0.117184,-1.990294 0.01445,-0.390041 0,-0.780616 0,-1.170924 0,-0.234214 0,-0.468429 0,-0.702646 0,-0.03891 -0.02159,-0.149098 0,-0.116724 0.290489,0.435732 0.478679,1.227051 0.585462,1.638742 0.528862,2.038967 0.712901,4.214035 1.405747,6.205252 0.262514,0.754449 0.751687,1.121884 0.81983,1.053737 0.167886,-0.167883 0.08538,-0.467296 0.116726,-0.702643 0.174874,-1.313101 0.168064,-1.702046 0.117184,-3.277944 -0.02122,-0.657058 -0.482026,-2.627246 0.351552,-3.044034"
       id="path4546" />
    <path
       style="fill:#000000;fill-opacity:0;stroke:#000000;stroke-width:1;stroke-linecap:round;stroke-linejoin:round"
       d="m 93.538781,43.970953 c 0.03891,-0.390308 0.05496,-0.783574 0.116727,-1.170924 0.367731,-2.306217 0.756692,-4.609198 1.171381,-6.907438 0.01548,-0.08582 0.02998,-0.23391 0.117184,-0.23391 0.110374,0 0.171045,0.143505 0.234368,0.23391 0.211214,0.301551 0.427861,0.60383 0.58546,0.936554 1.260049,2.660227 1.401916,5.72348 2.108395,8.546642"
       id="path4548" />
    <path
       style="fill:#000000;fill-opacity:0;stroke:#000000;stroke-width:1;stroke-linecap:round;stroke-linejoin:round"
       d="m 93.070045,41.746291 c 2.106171,-0.901972 1.045097,-0.702188 3.162134,-0.702188"
       id="path4550" />
    <path
       style="fill:#000000;fill-opacity:0;stroke:#000000;stroke-width:1;stroke-linecap:round;stroke-linejoin:round"
       d="m 99.746313,37.531791 c 0.0585,2.358845 -0.316187,4.704654 -0.703097,7.024624"
       id="path4560" />
    <path
       style="fill:#000000;fill-opacity:0;stroke:#000000;stroke-width:1;stroke-linecap:round;stroke-linejoin:round"
       d="m 98.809309,36.478053 c 0.195147,-0.117033 0.369567,-0.279164 0.585457,-0.351094 0.148087,-0.04934 0.312187,0 0.468277,0 0.234367,0 0.475717,-0.05682 0.703097,0 1.85348,0.463143 5.13942,2.750712 5.03616,4.917144 -0.023,0.482169 -0.12661,0.977728 -0.35155,1.404834 -0.69416,1.318064 -3.96601,2.69294 -5.270527,2.69294"
       id="path4570" />
    <path
       style="fill:#000000;fill-opacity:0;stroke:#000000;stroke-width:1;stroke-linecap:round;stroke-linejoin:round"
       d="m 105.6023,34.370573 c 0.22442,1.121235 0.11719,0.386437 0.11719,2.224664"
       id="path4572" />
    <path
       style="fill:#000000;fill-opacity:0;stroke:#000000;stroke-width:1;stroke-linecap:round;stroke-linejoin:round"
       d="m 104.78247,35.190403 c 1.45978,-0.243454 1.06949,0.101439 1.52248,-0.351552"
       id="path4574" />
    <path
       style="fill:#000000;fill-opacity:0;stroke:#000000;stroke-width:1;stroke-linecap:round;stroke-linejoin:round"
       d="m 121.36173,36.946329 c -0.16362,-0.542391 -0.20367,-1.755926 0.70265,-1.755926 0.57676,0 1.32294,1.527286 1.40529,1.87311 0.35967,1.510392 -0.0616,3.082004 -0.93701,4.331684 -0.78199,1.116349 -1.67351,1.665071 -2.92777,2.107478 -0.268,0.09453 -0.54115,0.17826 -0.81983,0.23391 -0.29074,0.05806 -0.5037,-0.01749 -0.23437,0.117184 0.67475,0.33737 0.0848,-0.201483 0.23437,-0.351094 0.0276,-0.02762 0.0796,0.01074 0.11719,0 0.23739,-0.06786 0.46206,-0.178888 0.70264,-0.234368 1.10371,-0.254521 2.27385,-0.23391 3.3965,-0.23391 0.0212,0 1.94882,-0.154046 1.17138,0.23391"
       id="path4578" />
    <path
       style="fill:#000000;fill-opacity:0;stroke:#000000;stroke-width:1;stroke-linecap:round;stroke-linejoin:round"
       d="m 126.86617,43.502675 c 0.31325,-4.381558 0.40149,-5.229828 0.58592,-8.54664 0.002,-0.039 -0.0217,-0.149672 0,-0.117184 0.91061,1.364128 0.77315,4.181226 1.28811,5.854158 0.14926,0.48492 0.34843,0.956468 0.58592,1.404834 0.29557,0.558035 0.63999,0.752446 0.70264,0.585459 0.50382,-1.342847 -0.11718,-5.349962 -0.11718,-6.907437 0,-0.135422 0.19053,-2.59007 0.70264,-1.05374"
       id="path4580" />
    <path
       style="fill:#000000;fill-opacity:0;stroke:#000000;stroke-width:1;stroke-linecap:round;stroke-linejoin:round"
       d="m 132.1367,44.556415 c 1.07819,-3.232462 -0.11737,0.471739 1.52293,-8.312272 0.0748,-0.400552 0.10663,-0.844923 0.35109,-1.170924 0.0845,-0.112609 0.25885,0.128003 0.35156,0.23391 0.63678,0.727446 0.62288,1.220021 0.93701,2.224662 0.58721,1.877973 1.03924,3.90262 1.75684,5.736516 0.22649,0.578823 0.75948,1.23127 0.81983,1.170924 0.12343,-0.123426 -0.15624,-0.312185 -0.23437,-0.468278"
       id="path4582" />
    <path
       style="fill:#000000;fill-opacity:0;stroke:#000000;stroke-width:1;stroke-linecap:round;stroke-linejoin:round"
       d="m 132.72262,42.215027 c 3.3848,-1.253379 2.05345,-0.986025 3.86477,-1.288108"
       id="path4584" />
    <path
       style="fill:#000000;fill-opacity:0;stroke:#000000;stroke-width:1;stroke-linecap:round;stroke-linejoin:round"
       d="m 138.22751,43.970953 c 0.2583,0.51762 0.25885,0.648456 1.28811,0.702646 0.74101,0.03901 2.7519,-1.395143 2.92822,-1.522018 2.29159,-1.648926 2.21671,-3.521239 0.3511,-5.502606 -0.2845,-0.302149 -0.58609,-0.598273 -0.93702,-0.81983 -0.86401,-0.545492 -1.70296,-0.748176 -2.69385,-0.702186 0.3514,0.5464 0.86032,1.019163 1.0542,1.639201 0.27774,0.888269 0.19599,5.146787 0,6.321977"
       id="path4590" />
    <path
       style="fill:#000000;fill-opacity:0;stroke:#000000;stroke-width:1;stroke-linecap:round;stroke-linejoin:round"
       d="m 146.54299,34.722125 c 0.15624,0.390155 0.383,0.759026 0.46873,1.170466 0.15554,0.74643 0.11673,2.525578 0.11673,3.278402 0,1.976353 0.13758,1.717897 -0.23391,3.277944 -0.0726,0.304866 -0.37648,1.898039 -0.7031,2.224662"
       id="path4594" />
    <path
       style="fill:#000000;fill-opacity:0;stroke:#000000;stroke-width:1;stroke-linecap:round;stroke-linejoin:round"
       d="m 146.89454,40.458641 c 2.07932,-1.13424 0.82201,-0.554429 3.86478,-1.522016"
       id="path4596" />
    <path
       style="fill:#000000;fill-opacity:0;stroke:#000000;stroke-width:1;stroke-linecap:round;stroke-linejoin:round"
       d="m 150.29104,34.722125 c 0.0391,-0.234214 0.0759,-0.936479 0.11719,-0.702646 1.2163,6.890575 0.2975,2.33095 0.46827,7.96118 0.0164,0.541346 0.1504,0.543475 0.46874,0.702643"
       id="path4598" />
  </g>
</svg>
