<?xml version="1.0" encoding="UTF-8" standalone="no"?>
<!-- Created with Inkscape (http://www.inkscape.org/) -->

<svg
   width="182.36336mm"
   height="127.67354mm"
   viewBox="0 0 182.36336 127.67354"
   version="1.1"
   id="svg4551"
   sodipodi:docname="kemosentez.svg"
   inkscape:version="1.2.2 (b0a8486541, 2022-12-01)"
   xmlns:inkscape="http://www.inkscape.org/namespaces/inkscape"
   xmlns:sodipodi="http://sodipodi.sourceforge.net/DTD/sodipodi-0.dtd"
   xmlns="http://www.w3.org/2000/svg"
   xmlns:svg="http://www.w3.org/2000/svg">
  <sodipodi:namedview
     id="namedview4553"
     pagecolor="#ffffff"
     bordercolor="#000000"
     borderopacity="0.25"
     inkscape:showpageshadow="2"
     inkscape:pageopacity="0.0"
     inkscape:pagecheckerboard="0"
     inkscape:deskcolor="#d1d1d1"
     inkscape:document-units="mm"
     showgrid="true"
     showguides="true"
     inkscape:zoom="1.6994595"
     inkscape:cx="571.06391"
     inkscape:cy="83.555976"
     inkscape:window-width="1920"
     inkscape:window-height="1080"
     inkscape:window-x="0"
     inkscape:window-y="0"
     inkscape:window-maximized="1"
     inkscape:current-layer="layer1">
    <inkscape:grid
       type="xygrid"
       id="grid6124"
       spacingx="5"
       spacingy="5"
       units="mm"
       empspacing="1"
       originx="-3.7006799"
       originy="8.5117167" />
    <sodipodi:guide
       position="87.825185,86.723544"
       orientation="0,-1"
       id="guide9126"
       inkscape:locked="false" />
  </sodipodi:namedview>
  <defs
     id="defs4548" />
  <g
     inkscape:label="Layer 1"
     inkscape:groupmode="layer"
     id="layer1"
     transform="translate(-3.7006797,8.5117165)">
    <rect
       style="fill:#000000;fill-opacity:0;stroke:#000000;stroke-width:0.7;stroke-linecap:round;stroke-linejoin:round;stroke-opacity:1"
       id="rect7993"
       width="181.66336"
       height="90.83168"
       x="4.0506797"
       y="13.375368"
       ry="3.6870229" />
    <path
       style="fill:#000000;fill-opacity:0;stroke:#000000;stroke-width:0.7;stroke-linecap:round;stroke-linejoin:round;stroke-opacity:1"
       d="m 19.438284,25.94414 c 0.223654,-0.335045 0.408731,-0.69934 0.670963,-1.005135 0.08126,-0.09476 0.231003,-0.09843 0.334827,-0.167741 0.332689,0.01729 0.0793,-0.24673 0.167741,-0.334826 0.03961,-0.03946 0.128204,0.03954 0.167741,0 0.05591,-0.05591 0.111827,-0.447309 0.16774,-0.503223 0.06588,-0.06588 0.688013,-0.259661 0.83805,-0.334826 0.222322,-0.111379 0.600825,0.0794 0.838704,0 0.15871,-0.05297 0.457736,-0.274028 0.670308,-0.167742 0.280405,0.140203 0.543929,0.404566 0.838705,0.502568 0.319137,0.106102 0.643212,0.114311 0.838049,0.503223 0.114957,0.229466 0.381213,0.427125 0.502567,0.670308 0.111173,0.222782 -0.111609,0.111609 0,0.334826 0.161063,0.322126 0.509901,0.515924 0.670963,0.83805 0.05072,0.101442 0.09746,0.432558 0.167741,0.502566 0.345713,0.344361 -0.01166,-0.526536 0.335482,0.167741 0.025,0.05001 -0.03946,0.128127 0,0.16774 0.09676,0.09714 0.573468,0.237988 0.670308,0.334828 0.347062,0.347062 -0.530357,-0.01357 0.167741,0.335481 0.228409,0.114205 0.740338,0.268724 1.00579,0.334828 0.217027,0.05404 0.454001,-0.0543 0.670964,0 0.121097,0.0303 0.212424,0.14324 0.334825,0.16774 0.425625,0.08519 0.920594,-0.105169 1.341274,0 1.086448,0.271613 1.455462,0.746218 2.34706,1.340617 0.153231,0.102153 0.407072,0.14318 0.503224,0.335481 0.11034,0.220681 0.08673,0.427268 0.167741,0.670309 0.025,0.07502 0.167741,0.08867 0.167741,0.167741 0,0.12483 -0.12822,0.216416 -0.167741,0.334827 -0.06711,0.201049 0.06703,0.469225 0,0.670306 -0.09489,0.284668 -0.216993,0.601073 -0.335484,0.838049 -0.07073,0.141452 -0.264644,0.194088 -0.335481,0.335484 -0.05095,0.101703 -0.09754,0.432091 -0.16774,0.502566 -0.03931,0.03946 -0.11729,-0.02495 -0.167085,0 -0.702283,0.351829 0.18102,-0.01326 -0.167743,0.334827 -0.08849,0.08832 -0.231452,0.09839 -0.335481,0.167741 -0.553908,0.369273 -1.518632,1.714539 -1.676752,2.346407 -0.17698,0.707218 -0.524042,2.592453 -0.334827,3.35154 0.160816,0.64516 0.39815,1.818489 0.167084,2.513492 -0.202375,0.608713 -0.775959,0.775962 -1.17353,1.173532 -0.0882,0.0882 -0.07889,0.246626 -0.167085,0.334825 -0.316791,0.316791 -0.316637,0.07916 -0.670964,0.167741 -0.121293,0.03032 -0.210455,0.167743 -0.335482,0.167743 -0.12483,0 -0.21373,-0.137438 -0.334827,-0.167743 -0.75877,-0.189878 -1.236866,-0.29482 -1.509012,-0.838049 -0.100631,-0.200867 -0.402653,-0.301429 -0.503222,-0.502566 -0.115688,-0.231375 0.203143,-0.15004 -0.167741,-0.335483 -0.217409,-0.108705 -0.443925,-0.221634 -0.670308,-0.334825 -0.100022,-0.05001 -0.235461,0.05001 -0.335482,0 -0.493321,-0.246661 0.259482,-0.167741 -0.502567,-0.167741 -0.467969,0 -1.446249,-0.199123 -1.844495,0 -0.07073,0.03536 -0.09273,0.142735 -0.167741,0.167741 -0.21197,0.07066 -0.458366,-0.07074 -0.670308,0 -0.494065,0.164901 -0.910673,0.550608 -1.341272,0.838049 -0.09301,0.06209 -0.229393,-0.03536 -0.335481,0 -0.936218,0.312071 -2.162294,0.758521 -3.185111,0.502568 -0.784508,-0.196321 -1.171207,-1.171715 -1.844495,-1.508358 -0.05001,-0.025 -0.128204,0.03954 -0.16774,0 -0.157994,-0.157993 -0.07066,-0.458338 0,-0.670309 0.114026,-0.342079 0.390277,-0.666742 0.503222,-1.005136 0.137049,-0.410612 0,-1.07233 0,-1.508355 0,-0.348969 -0.06809,-1.209418 -0.167741,-1.508358 -0.292578,-0.877736 -1.172902,-1.674048 -0.838049,-2.681234 0.151399,-0.455383 0.634437,-0.934186 0.838049,-1.340615 0.129497,-0.25849 0.580142,-0.400817 0.670309,-0.670965 0.03533,-0.105867 -0.03534,-0.228957 0,-0.334825 0.05007,-0.150013 0.285412,-0.18547 0.335481,-0.335483 0.189369,-0.567368 -0.248332,-1.850057 0,-2.345751 0.503879,-1.00579 1.470113,-1.134631 2.179321,-1.843839 0.801121,-0.801121 -0.05233,-0.671544 1.341272,-1.508357 z"
       id="path8956" />
    <path
       style="fill:#000000;fill-opacity:0;stroke:#000000;stroke-width:0.7;stroke-linecap:round;stroke-linejoin:round;stroke-opacity:1"
       d="m 22.288568,24.771264 c 1.740867,-1.115877 2.168508,-1.684598 3.688334,-0.167741 0.308193,0.307592 0.717206,0.353258 0.83805,0.838049 0.09432,0.378396 0.07338,0.796463 0.16774,1.173532 0.01916,0.07656 0.142753,0.09223 0.167741,0.167084 0.0354,0.106074 -0.02715,0.227 0,0.335481 0.04237,0.169313 0.692002,1.435193 0.838049,1.508358 0.132265,0.06626 0.361847,-0.04694 0.503222,0 0.805214,0.267356 1.117502,0.02873 1.844495,-0.335481 0.231296,-0.115874 0.591727,-0.08595 0.838049,-0.16774 0.266671,-0.08854 0.588383,-0.377735 0.838049,-0.502569 0.298207,-0.149103 0.09319,0.09319 0.16774,0.167741 0.0444,0.0444 0.434153,0 0.503222,0 0.06876,0 0.458362,-0.04421 0.502568,0 0.03954,0.03954 -0.02506,0.11775 0,0.167741 0.128016,0.255531 0.377992,0.420338 0.503224,0.670308 0.252863,0.504741 -0.138959,1.617877 -0.335483,2.010926 -0.04991,0.09983 0.04999,0.23504 0,0.334825 -0.08338,0.166436 -0.277469,0.329409 -0.335481,0.503224 -0.03534,0.105868 0.03521,0.228918 0,0.334825 -0.0249,0.07489 -0.11139,0.111829 -0.167085,0.167743 -0.05591,0.111607 -0.137438,0.213728 -0.167743,0.334825 -0.02715,0.108482 0.05001,0.235461 0,0.335481 -0.025,0.05001 -0.142735,-0.05001 -0.16774,0 -0.04556,0.09113 -0.03267,0.907907 0,1.00579 0.02498,0.07486 0.142755,0.09223 0.16774,0.167087 0.05975,0.179025 0.101354,1.742488 0,1.843839 -0.03954,0.03954 -0.128124,-0.03946 -0.16774,0 -0.03946,0.03931 0.02495,0.11729 0,0.167087 -0.0052,0.01048 -0.980835,1.148575 -1.00579,1.17353 -0.03954,0.03954 -0.128164,-0.0395 -0.167741,0 -0.08835,0.08818 -0.09843,0.231003 -0.16774,0.334825 -0.165434,0.24783 -0.538184,0.405265 -0.670965,0.670309 -0.163637,0.326639 -0.344458,0.689573 -0.502566,1.00579 -0.03424,0.06847 -0.04688,0.791167 0,0.838049 0.03954,0.03954 0.142696,-0.04999 0.167741,0 0.149543,0.13222 -0.07492,0.352732 0,0.502568 0.115853,0.231709 0.334825,0.389765 0.334825,0.670308 0,0.358863 0.242779,0.560303 0.335484,0.83805 0.09715,0.291078 0.144375,1.554996 0,1.843182 -0.08113,0.161939 -0.508056,0.5895 -0.670309,0.670309 -0.09931,0.04946 -0.390226,0 -0.503224,0 -1.023924,0 -1.029925,-0.431234 -1.843839,-0.837393 -0.143605,-0.07167 -0.359699,-0.09598 -0.503222,-0.167741 -0.456295,-0.228147 -0.651174,-0.663932 -1.173531,-0.838049 -1.34045,-0.446817 -2.563063,1.748137 -4.191556,1.340615 -0.491318,-0.122949 -1.256505,-0.501105 -1.509012,-1.005134 -0.115752,-0.231052 0.202837,-0.150159 -0.167086,-0.335481 -0.101585,-0.05089 -0.432937,-0.09746 -0.503222,-0.16774 -0.03954,-0.03954 0.03954,-0.128204 0,-0.167743 -0.07907,-0.07907 -0.256254,0.07892 -0.335482,0 -0.03946,-0.0393 0.03946,-0.127778 0,-0.167085 -0.199557,-0.198776 -1.331779,0.246036 -1.509013,0.334828 -0.229307,0.114877 -0.348295,-0.09061 -0.502567,-0.167743 -0.150032,-0.07502 -0.344028,0.05286 -0.503223,0 -0.0749,-0.02487 -0.09712,-0.131848 -0.167741,-0.167085 -0.163565,-0.08162 -0.317106,0.0089 -0.670308,-0.16774 -0.221666,-0.110834 -0.545944,0.06218 -1.00579,-0.167741 -0.05001,-0.025 -0.128204,0.03954 -0.167741,0 -0.181209,-0.18121 0.277967,-2.005671 0.335482,-2.178666 0.0498,-0.149778 0.284914,-0.185087 0.334827,-0.334828 0.127205,-0.381616 0.0012,-0.337902 0.16774,-0.670306 0.187459,-0.374184 -0.103849,-1.779294 -0.335481,-2.010926 -0.08827,-0.08827 -0.246644,-0.07938 -0.334827,-0.16774 -0.05597,-0.05608 -0.11175,-0.447234 -0.167741,-0.503222 -0.03954,-0.03954 -0.128126,0.03946 -0.167741,0 -0.05586,-0.05564 -0.11209,-0.446918 -0.16774,-0.502568 -0.08411,-0.08411 -0.251144,-0.08373 -0.335482,-0.167741 -0.144069,-0.143507 0,-1.131575 0,-1.340617 0,-0.337621 0.160426,-0.833736 0.503222,-1.005133 0.05001,-0.025 0.128204,0.03954 0.167741,0 0.03954,-0.03954 -0.03954,-0.128207 0,-0.167744 0.03954,-0.03954 0.128204,0.03954 0.167741,0 0.02759,-0.02759 0.594134,-1.096997 0.670308,-1.172874 0.03961,-0.03946 0.128204,0.03954 0.167741,0 0.03954,-0.03954 -0.03954,-0.128204 0,-0.16774 0.08841,-0.08841 0.247017,-0.07939 0.335482,-0.167741 0.0012,-0.0013 0.334788,-0.669266 0.335482,-0.670308 0.08743,-0.131411 0.264128,-0.193707 0.334826,-0.334828 0.0044,-0.0089 0.184794,-0.95463 0.167741,-1.00579 -0.07166,-0.214971 -0.577341,-2.104546 -0.335482,-2.346407 0.182306,-0.182306 2.075624,-0.283085 2.514803,-0.502566 0.249961,-0.12492 0.438388,-0.347669 0.670963,-0.502568 0.146991,-0.0979 0.377932,-0.04262 0.502568,-0.167741 0.03946,-0.03961 -0.03954,-0.128204 0,-0.167741 0.02625,-0.02625 0.804578,-0.653245 0.838704,-0.670308 0.545993,-0.272996 2.179321,0.464432 2.179321,-0.838049"
       id="path8958" />
    <path
       style="fill:#000000;fill-opacity:0;stroke:#000000;stroke-width:0.7;stroke-linecap:round;stroke-linejoin:round;stroke-opacity:1"
       d="M 24.803371,21.754549 C 26.755402,15.97155 27.903479,9.8124083 31.341988,4.6613616"
       id="path8966" />
    <path
       style="fill:#000000;fill-opacity:0;stroke:#000000;stroke-width:0.7;stroke-linecap:round;stroke-linejoin:round;stroke-opacity:1"
       d="m 29.497493,7.0071127 c 0.646359,-1.5064859 0.317154,-0.8018414 1.00579,-2.1786656 0.167611,-0.3351104 0.310282,-0.6839411 0.503224,-1.0051346 0.14387,-0.2395035 0.288576,-0.4914588 0.503222,-0.6703084 0.135681,-0.1130525 0.344635,-0.088698 0.502568,-0.1677408 0.111805,-0.055957 0.335481,-0.2927676 0.335481,-0.1677408 0,0.079074 -0.148545,0.091032 -0.167741,0.1677408 -0.109328,0.436885 -0.13317,0.8915889 -0.16774,1.3406165 -0.108011,1.4028819 0.04117,2.798755 0.16774,4.1895902 0.05463,0.6002795 0.109067,0.4480348 -0.335481,0.6703084"
       id="path8974" />
    <path
       style="fill:#000000;fill-opacity:0;stroke:#000000;stroke-width:0.7;stroke-linecap:round;stroke-linejoin:round;stroke-opacity:1"
       d="m 34.694841,3.6555717 c 0,-1.5923621 -0.403138,-3.04549384 -1.00579,-4.52507221 0.503004,-0.39095859 0.908986,-0.95879589 1.509012,-1.17287569 0.605294,-0.2159591 3.836537,2.36528919 3.185111,3.01671478 C 37.791852,1.5656604 36.85628,1.8025941 36.203853,2.3149551 35.674688,2.730517 35.197845,3.2086995 34.694841,3.6555717 Z"
       id="path8982" />
    <path
       style="fill:#000000;fill-opacity:0;stroke:#000000;stroke-width:0.7;stroke-linecap:round;stroke-linejoin:round;stroke-opacity:1"
       d="m 39.892186,2.1472142 c 0.753439,-3.264078 1.187062,-3.6520103 1.00579,-6.368256 -0.01177,-0.1762151 -0.124867,-0.331243 -0.16774,-0.5025673 -0.01357,-0.054241 -0.02503,-0.2177418 0,-0.1677408 0.816549,1.6315057 1.098346,3.5138644 2.179976,5.02763936 0.127471,0.1784013 0.67541,0.65502232 0.838049,0.16774086 0.324599,-0.97253225 -1.027761,-5.17410592 -0.670965,-5.53020672 0.07915,-0.078997 0.223655,0 0.335484,0"
       id="path8984" />
    <path
       style="fill:#000000;fill-opacity:0;stroke:#000000;stroke-width:0.7;stroke-linecap:round;stroke-linejoin:round;stroke-opacity:1"
       d="m 45.927581,0.30403032 c 0.391178,-1.17309403 0.863102,-2.32228462 1.17353,-3.51928212 0.140253,-0.5408086 0,-1.1173987 0,-1.6760981 0,-0.1766073 0.06171,-0.6438035 0.167743,-0.5025676 0.469194,0.6249832 1.947207,4.85989873 2.514801,4.85989873 0.146019,0 -0.232867,-0.36798171 -0.502568,-0.50256743"
       id="path8986" />
    <path
       style="fill:#000000;fill-opacity:0;stroke:#000000;stroke-width:0.7;stroke-linecap:round;stroke-linejoin:round;stroke-opacity:1"
       d="m 46.430805,-1.7068944 c -0.9609,-0.9468814 2.514801,0.079129 2.514801,-0.8380491"
       id="path8988" />
    <path
       style="fill:#000000;fill-opacity:0;stroke:#000000;stroke-width:0.7;stroke-linecap:round;stroke-linejoin:round;stroke-opacity:1"
       d="M 75.005758,4.1261118 C 75.197849,9.432059 75.173499,14.739661 75.173499,20.04708"
       id="path8990" />
    <path
       style="fill:#000000;fill-opacity:0;stroke:#000000;stroke-width:0.7;stroke-linecap:round;stroke-linejoin:round;stroke-opacity:1"
       d="m 74.08712,17.06684 c 0.02827,0.08881 0.05777,0.177241 0.0848,0.266436 0.163502,0.539387 0.176623,0.576758 0.302895,1.150497 0.11307,0.513738 0.163486,0.88018 0.387652,1.356325 0.0055,0.01173 0.182121,0.44143 0.315016,0.363313 0.118673,-0.06976 0.257,-0.38151 0.290771,-0.448068 0.08742,-0.172281 0.169606,-0.347167 0.25441,-0.52075 0.0848,-0.173583 0.172871,-0.345608 0.254408,-0.520749 0.253018,-0.543488 0.341294,-0.800933 0.617863,-1.320008 0.106082,-0.199097 0.259575,-0.445831 0.387696,-0.653944"
       id="path8996" />
    <path
       style="fill:#000000;fill-opacity:0;stroke:#000000;stroke-width:0.7;stroke-linecap:round;stroke-linejoin:round;stroke-opacity:1"
       d="m 70.295683,-6.9422724 c -0.142746,2.6180669 -0.758831,5.1774256 -0.996,7.78397979"
       id="path9014" />
    <path
       style="fill:#000000;fill-opacity:0;stroke:#000000;stroke-width:0.7;stroke-linecap:round;stroke-linejoin:round;stroke-opacity:1"
       d="m 68.846891,-6.08234 c 0.0302,-0.1659115 0.03054,-0.3401539 0.0906,-0.4977344 0.46949,-1.2318688 1.887797,-0.7880488 2.897582,-0.8146357 1.135176,-0.029888 0.807397,0.00254 1.629802,-0.2716041"
       id="path9018" />
    <path
       style="fill:#000000;fill-opacity:0;stroke:#000000;stroke-width:0.7;stroke-linecap:round;stroke-linejoin:round;stroke-opacity:1"
       d="m 69.797771,-3.3217096 c 0.730891,-0.036626 1.3461,-0.1575715 2.082594,-0.090594"
       id="path9024" />
    <path
       style="fill:#000000;fill-opacity:0;stroke:#000000;stroke-width:0.7;stroke-linecap:round;stroke-linejoin:round;stroke-opacity:1"
       d="m 72.649879,-1.2400011 c 0.0755,-0.015099 0.149963,-0.05377 0.226486,-0.045297 0.167653,0.018564 0.287684,0.1909452 0.452615,0.2263073 0.205113,0.043978 0.64031,-0.03238 0.814988,-0.090594 0.537525,-0.1791356 1.010661,-0.6527273 1.086593,-1.2217762 0.02753,-0.2063356 0.05248,-0.4005948 -0.181186,-0.4979115 -0.673391,-0.2804517 -1.603997,0.6370089 -1.992001,1.0860627 -0.147989,0.1712754 -0.340902,0.3268712 -0.407495,0.5432083 -0.06982,0.2268291 0.0639,0.87351903 0.226486,1.0860626 0.435364,0.56914213 1.197835,0.52217116 1.810811,0.40731773 0.375679,-0.0703908 1.018749,-0.18117446 1.222483,-0.58832818 0.03443,-0.0687993 0.0302,-0.1508715 0.0453,-0.22630728"
       id="path9028" />
    <path
       style="fill:#000000;fill-opacity:0;stroke:#000000;stroke-width:0.7;stroke-linecap:round;stroke-linejoin:round;stroke-opacity:1"
       d="m 77.630057,-1.918923 c -0.392396,0.6034271 -0.860253,1.16402279 -1.177187,1.81028135 -0.07336,0.14957794 -0.0026,0.33816766 0.0453,0.49773448 0.135035,0.44997565 0.481838,0.66355027 0.905404,0.76933857 0.08905,0.022241 0.20683,0.1103257 0.271605,0.045297 0.09036,-0.090712 -0.169177,-0.1947829 -0.271605,-0.27160417"
       id="path9030" />
    <path
       style="fill:#000000;fill-opacity:0;stroke:#000000;stroke-width:0.7;stroke-linecap:round;stroke-linejoin:round;stroke-opacity:1"
       d="m 79.169265,-1.602022 c -0.135832,0.965389 -0.271663,1.93077801 -0.407495,2.896167 0.01511,0.075436 -0.03164,0.2263073 0.0453,0.2263073 0.07544,0 -0.01987,-0.153535 0,-0.2263073 0.02665,-0.097609 0.09059,-0.1809514 0.13589,-0.2714272"
       id="path9032" />
    <path
       style="fill:#000000;fill-opacity:0;stroke:#000000;stroke-width:0.7;stroke-linecap:round;stroke-linejoin:round;stroke-opacity:1"
       d="m 80.618055,-0.47066252 c -0.08988,-0.44904316 -0.01553,-0.46659257 -0.860285,0.0451199 -0.264803,0.16040587 -0.449495,0.42594210056 -0.679101,0.63362501 -0.220824,0.19974208 -0.479533,0.33496051 -0.407315,0.40731773 0.09864,0.0988334 0.413861,0.0472352 0.452614,0.0452969 0.524854,-0.026253 0.845175,-0.0830104 1.358197,0.0451199 0.201837,0.05041 0.137189,0.001299 0.226483,0.0905937"
       id="path9034" />
    <path
       style="fill:#000000;fill-opacity:0;stroke:#000000;stroke-width:0.7;stroke-linecap:round;stroke-linejoin:round;stroke-opacity:1"
       d="m 81.206559,-2.0093397 c 0.546865,1.15381366 0.70198,1.774679 0.498089,2.89616701 C 81.616005,1.3744061 81.661786,1.22021 81.523461,1.5657492"
       id="path9036" />
    <path
       style="fill:#000000;fill-opacity:0;stroke:#000000;stroke-width:0.7;stroke-linecap:round;stroke-linejoin:round;stroke-opacity:1"
       d="M 104.34286,4.1261118 C 104.53495,9.432059 104.5106,14.739661 104.5106,20.04708"
       id="path9092" />
    <path
       style="fill:#000000;fill-opacity:0;stroke:#000000;stroke-width:0.7;stroke-linecap:round;stroke-linejoin:round;stroke-opacity:1"
       d="m 103.42422,17.06684 c 0.0283,0.08881 0.0578,0.177241 0.0848,0.266436 0.1635,0.539387 0.17662,0.576758 0.3029,1.150497 0.11307,0.513738 0.16348,0.88018 0.38765,1.356325 0.006,0.01173 0.18212,0.44143 0.31501,0.363313 0.11868,-0.06976 0.257,-0.38151 0.29077,-0.448068 0.0874,-0.172281 0.16961,-0.347167 0.25441,-0.52075 0.0848,-0.173583 0.17288,-0.345608 0.25441,-0.520749 0.25302,-0.543488 0.3413,-0.800933 0.61787,-1.320008 0.10608,-0.199097 0.25957,-0.445831 0.38769,-0.653944"
       id="path9094" />
    <path
       style="fill:#000000;fill-opacity:0;stroke:#000000;stroke-width:0.7;stroke-linecap:round;stroke-linejoin:round;stroke-opacity:1"
       d="m 105.11865,-3.6839075 c 0.0755,-0.2262484 0.17698,-0.4454287 0.22649,-0.6787449 0.21369,-1.0069877 0.0902,-2.6566793 -1.13189,-2.9867608 -0.30594,-0.082632 -0.64871,-0.096035 -0.9507,0 -1.6304,0.5184606 -2.64404,2.7327492 -2.7164,4.2991307 -0.0272,0.5884721 0.003,1.182403 0.0904,1.7649845 0.14866,0.99101146 0.75059,1.92468867 1.76569,2.17212531 2.57537,0.62776249 4.26888,-2.59404481 4.52739,-4.66115161 0.1076,-0.8604798 0.0275,-1.8754995 -0.3622,-2.6700366 -0.3579,-0.7297804 -0.97094,-1.3765437 -1.7657,-1.6292708 -1.46744,-0.4666414 -3.46321,1.05416 -3.75769,2.4890261 -0.0519,0.2529459 0.0604,0.5128924 0.0906,0.7693387"
       id="path9100" />
    <path
       style="fill:#000000;fill-opacity:0;stroke:#000000;stroke-width:0.7;stroke-linecap:round;stroke-linejoin:round;stroke-opacity:1"
       d="m 107.02024,0.20808238 c 0.0255,-0.27179646 0.234,-0.96356521 0.54321,-1.04094273 0.18319,-0.0458442 0.26665,0.15113018 0.3169,0.27160412 0.23874,0.57241894 0.0125,1.29393957 -0.27161,1.81028133 -0.30551,0.5553236 -0.83985,0.995469 -1.49409,0.995469 -0.0302,0 0.0606,0.00299 0.0906,0 0.21076,-0.021002 0.42329,-0.02172 0.6338,-0.04512 0.60437,-0.067181 1.22073,-0.2203619 1.81099,-0.3620209 0.51998,-0.1247926 0.3885,-0.081256 0.76969,-0.2716041"
       id="path9104" />
    <path
       style="fill:#000000;fill-opacity:0;stroke:#000000;stroke-width:0.7;stroke-linecap:round;stroke-linejoin:round;stroke-opacity:1"
       d="m 71.142307,27.61153 c -0.05937,-0.503597 0.184745,-1.905413 0.798092,-2.094064 0.904581,-0.278228 2.211901,-0.0104 3.092553,0.19923 0.670846,0.15969 1.008406,0.398851 1.695992,0.398851"
       id="path9128" />
    <path
       style="fill:#000000;fill-opacity:0;stroke:#000000;stroke-width:0.7;stroke-linecap:round;stroke-linejoin:round;stroke-opacity:1"
       d="m 72.140019,25.916317 c 0.02972,2.013134 -0.726493,3.810874 -1.296752,5.683717 -0.08927,0.29319 -0.102645,0.606777 -0.19962,0.897511 -0.0526,0.157705 -0.133184,0.398852 -0.299432,0.398852 -0.03314,0 0,-0.06628 0,-0.09942"
       id="path9130" />
    <path
       style="fill:#000000;fill-opacity:0;stroke:#000000;stroke-width:0.7;stroke-linecap:round;stroke-linejoin:round;stroke-opacity:1"
       d="m 70.943076,30.303673 c 3.155741,-0.630655 1.975437,-0.598082 3.491404,-0.598082"
       id="path9132" />
    <path
       style="fill:#000000;fill-opacity:0;stroke:#000000;stroke-width:0.7;stroke-linecap:round;stroke-linejoin:round;stroke-opacity:1"
       d="m 75.631421,31.001954 c -0.823495,-1.527948 2.342793,0.127198 2.892936,-0.698281 0.387109,-0.580855 -0.04774,-0.946017 -0.498661,-1.196551 -0.12991,-0.07218 -0.250237,-0.199232 -0.398851,-0.199232 -0.719953,0 -1.018519,0.77878 -1.297141,1.196552 -0.210317,0.315352 -0.521705,0.562099 -0.698283,0.897512 -0.187304,0.35579 -0.494575,1.318477 -0.199229,1.495591 0.247193,0.148239 0.764247,0.09981 0.997321,0.09981 1.060558,0 2.349299,-0.03215 2.992744,-0.99732"
       id="path9134" />
    <path
       style="fill:#000000;fill-opacity:0;stroke:#000000;stroke-width:0.7;stroke-linecap:round;stroke-linejoin:round;stroke-opacity:1"
       d="m 81.018438,30.603102 c -0.05901,0.227838 -0.946129,2.567128 0,2.094064"
       id="path9136" />
    <path
       style="fill:#000000;fill-opacity:0;stroke:#000000;stroke-width:0.7;stroke-linecap:round;stroke-linejoin:round;stroke-opacity:1"
       d="m 82.414999,30.902142 c 0.465214,-0.08271 -0.643475,2.692535 -0.49866,2.692535 0.102163,0 -0.213598,-0.391864 0.19962,-0.598471"
       id="path9138" />
    <path
       style="fill:#000000;fill-opacity:0;stroke:#000000;stroke-width:0.7;stroke-linecap:round;stroke-linejoin:round;stroke-opacity:1"
       d="m 83.711751,31.300994 c -0.265898,0.13295 -0.542788,0.245882 -0.7977,0.398851 -0.944804,0.566955 0.436104,0.626846 0.69828,0.698281 0.30425,0.0829 0.607634,0.1749 0.897512,0.29904 0.294452,0.1261 0.555971,0.284837 0.59886,0.199231 0.02975,-0.05938 0,-0.132821 0,-0.199231"
       id="path9140" />
    <path
       style="fill:#000000;fill-opacity:0;stroke:#000000;stroke-width:0.7;stroke-linecap:round;stroke-linejoin:round;stroke-opacity:1"
       d="m 85.707175,30.503294 c 1.07864,1.660448 0.960808,1.631912 0,2.592723"
       id="path9142" />
    <path
       style="fill:#000000;fill-opacity:0;stroke:#000000;stroke-width:0.7;stroke-linecap:round;stroke-linejoin:round;stroke-opacity:1"
       d="m 90.395909,27.91057 c -0.231563,0.88414 -0.01069,1.802061 -0.09981,2.692532 -0.01045,0.104564 -0.09981,0.193956 -0.09981,0.29904 0,0.255405 0.167187,0.03243 0.19962,0"
       id="path9146" />
    <path
       style="fill:#000000;fill-opacity:0;stroke:#000000;stroke-width:0.7;stroke-linecap:round;stroke-linejoin:round;stroke-opacity:1"
       d="m 89.198579,29.50597 c 0.849059,-0.2341 1.709926,-0.498271 2.593893,-0.498271"
       id="path9148" />
    <path
       style="fill:#000000;fill-opacity:0;stroke:#000000;stroke-width:0.7;stroke-linecap:round;stroke-linejoin:round;stroke-opacity:1"
       d="m 96.480801,27.711339 c 0.659217,-1.265606 0.881464,-1.966318 1.895601,-1.097132 0.107097,0.0918 0.243507,0.169759 0.299037,0.299432 0.305437,0.713213 -0.739707,1.266975 -1.196934,1.495591 -0.10729,0.05365 -0.399297,0.13317 -0.299427,0.19962 0.399607,0.265891 0.995364,0.330449 1.396941,0.59808 0.791497,0.527498 1.094954,1.474246 0.498657,2.293684 -0.11404,0.156715 -0.331227,0.201414 -0.498657,0.29904 -1.353301,0.789062 -2.406125,1.077113 -3.990436,0.7977 -0.1621,-0.02859 -0.848847,-0.251701 -0.897897,-0.398849 -0.0355,-0.106534 2.195508,-0.872752 2.294458,-0.897511"
       id="path9150" />
    <path
       style="fill:#000000;fill-opacity:0;stroke:#000000;stroke-width:0.7;stroke-linecap:round;stroke-linejoin:round;stroke-opacity:1"
       d="m 104.66092,26.514398 c -0.99687,-2.54353 -2.87064,1.783186 -3.59122,2.991572 -0.36937,0.619419 -0.30225,2.42207 0.0998,3.091384 0.17753,0.295537 0.70181,0.423431 0.99771,0.398852 1.48302,-0.123182 2.96172,-2.264556 3.19237,-3.589655 0.0684,-0.393071 0.0684,-0.803871 0,-1.196941 -0.0667,-0.383286 -0.251,-0.737044 -0.39924,-1.096743 -0.085,-0.206235 -0.0915,-0.517668 -0.29943,-0.598469 -0.46594,-0.181077 -1.00329,-0.181655 -1.49637,-0.09942 -0.33759,0.0563 -0.63023,0.284913 -0.89752,0.498662 -1.20667,0.964961 -1.49733,1.699619 -1.7958,3.190803"
       id="path9152" />
    <path
       style="fill:#000000;fill-opacity:0;stroke:#000000;stroke-width:0.7;stroke-linecap:round;stroke-linejoin:round;stroke-opacity:1"
       d="m 106.05787,32.298314 c 0,-0.166219 -0.0583,-0.343016 0,-0.49866 0.0495,-0.131998 0.19936,-0.199361 0.29904,-0.29904 0.33907,-0.339072 0.4595,-0.42332 0.79809,0 0.40928,0.511701 -0.25873,1.878147 -0.79809,2.094063 -0.0925,0.03705 -0.19936,0 -0.29904,0 -0.69828,0 0.18077,-0.367818 0.39885,-0.398851 0.70899,-0.100888 1.40189,0.09942 2.09484,0.09942"
       id="path9156" />
    <path
       style="fill:#000000;fill-opacity:0;stroke:#000000;stroke-width:0.7;stroke-linecap:round;stroke-linejoin:round;stroke-opacity:1"
       d="m 68.648614,26.115547 c -1.261488,0.802603 -1.132543,0.539326 -1.995424,1.894832 -0.120258,0.188918 -0.947729,1.920549 -0.99732,2.094063 -0.192736,0.674383 -0.04949,2.483935 0.798092,2.791955 0.746516,0.27129 2.793418,-0.59553 2.693313,-1.595403 -0.06268,-0.626039 -0.635969,-1.475232 -1.396561,-1.296363 -0.794197,0.186774 -1.175025,0.95396 -1.496372,1.595403"
       id="path9158" />
    <path
       style="fill:#000000;fill-opacity:0;stroke:#000000;stroke-width:0.7;stroke-linecap:round;stroke-linejoin:round;stroke-opacity:1"
       d="m 111.24526,29.007699 19.25322,-0.09981"
       id="path9164" />
    <path
       style="fill:#000000;fill-opacity:0;stroke:#000000;stroke-width:0.7;stroke-linecap:round;stroke-linejoin:round;stroke-opacity:1"
       d="m 128.1042,27.41191 c 0.91201,0.0016 1.83501,1.005168 2.79313,1.19694 0.0652,0.01307 0.15248,-0.04696 0.19962,0 0.0333,0.03314 -0.0666,0.06621 -0.0998,0.09942 -0.0998,0.09975 -0.18888,0.21132 -0.29904,0.299429 -0.54323,0.434504 -1.0995,0.800259 -1.59618,1.295974"
       id="path9166" />
    <path
       style="fill:#000000;fill-opacity:0;stroke:#000000;stroke-width:0.7;stroke-linecap:round;stroke-linejoin:round;stroke-opacity:1"
       d="m 148.86626,23.024553 c 2.86529,-5.826293 4.81264,-13.2766541 11.57213,-15.45653 0.85534,-0.2758389 1.81441,-0.2229323 2.69331,-0.3988506"
       id="path9192" />
    <path
       style="fill:#000000;fill-opacity:0;stroke:#000000;stroke-width:0.7;stroke-linecap:round;stroke-linejoin:round;stroke-opacity:1"
       d="m 162.63304,6.1722409 c 0.75889,-0.2210218 1.84934,-0.4212812 2.19465,0.4986608 0.0308,0.08214 0.16758,0.5624845 0.0998,0.6978909 -0.0878,0.1755161 -1.20211,0.5771859 -1.49637,0.797701 -0.43042,0.3225506 -0.41515,0.2990405 -0.19962,0.2990405"
       id="path9194" />
    <path
       style="fill:#000000;fill-opacity:0;stroke:#000000;stroke-width:0.7;stroke-linecap:round;stroke-linejoin:round;stroke-opacity:1"
       d="m 151.38023,10.753759 c 0.16712,-1.0514423 0.28646,-2.162152 -0.0998,-3.1911943 -0.0784,-0.2087293 -0.29943,-0.3751313 -0.29943,-0.5980808 0,-0.046959 0.0622,0.071268 0.0998,0.09942 1.06409,0.7970271 -0.73871,-0.6581048 0.69828,0.5984708 0.49216,0.4303678 0.87169,0.9000453 1.29714,1.3961715 0.27465,0.3202686 0.59848,0.5610016 0.59848,0.4986608 0,-0.03327 -0.0701,0.01488 -0.0998,0 -0.24667,-0.1233355 0.0345,-0.09981 -0.19962,-0.09981"
       id="path9200" />
    <path
       style="fill:#000000;fill-opacity:0;stroke:#000000;stroke-width:0.7;stroke-linecap:round;stroke-linejoin:round;stroke-opacity:1"
       d="m 151.48004,9.5572071 c 1.20312,-0.8978688 1.19694,-0.5111586 1.19694,-1.1969414"
       id="path9202" />
    <path
       style="fill:#000000;fill-opacity:0;stroke:#000000;stroke-width:0.7;stroke-linecap:round;stroke-linejoin:round;stroke-opacity:1"
       d="m 153.07622,5.7679322 c -0.0892,1.2417253 2.29447,3.933191 2.29447,1.595402"
       id="path9204" />
    <path
       style="fill:#000000;fill-opacity:0;stroke:#000000;stroke-width:0.7;stroke-linecap:round;stroke-linejoin:round;stroke-opacity:1"
       d="m 153.6747,7.861995 c 0.12825,-0.8332999 0.72609,-0.9390605 1.09713,-1.495982"
       id="path9206" />
    <path
       style="fill:#000000;fill-opacity:0;stroke:#000000;stroke-width:0.7;stroke-linecap:round;stroke-linejoin:round;stroke-opacity:1"
       d="m 155.96916,5.7679322 c -0.20156,0.2580735 1.27147,1.9451651 0.8979,1.1965517"
       id="path9208" />
    <path
       style="fill:#000000;fill-opacity:0;stroke:#000000;stroke-width:0.7;stroke-linecap:round;stroke-linejoin:round;stroke-opacity:1"
       d="m 156.76725,3.3744392 c 0.95682,-1.9630788 0.3239,2.2936829 1.19694,2.2936829"
       id="path9210" />
    <path
       style="fill:#000000;fill-opacity:0;stroke:#000000;stroke-width:0.7;stroke-linecap:round;stroke-linejoin:round;stroke-opacity:1"
       d="m 158.46285,3.97291 c -0.16622,0.2991702 -0.35701,0.5859573 -0.49866,0.8975111 -0.0275,0.060455 0.021,0.1362363 0,0.1992302 -0.0149,0.044631 -0.0788,0.057726 -0.0998,0.09981 -0.31912,0.638234 1.54521,-0.1996202 1.59618,-0.1996202"
       id="path9212" />
    <path
       style="fill:#000000;fill-opacity:0;stroke:#000000;stroke-width:0.7;stroke-linecap:round;stroke-linejoin:round;stroke-opacity:1"
       d="m 144.63933,34.871889 c -0.36571,1.894702 -0.73143,3.789404 -1.09714,5.684107 -0.0333,0.06641 -0.0473,0.251753 -0.0998,0.199231 -0.0705,-0.07048 0,-0.199361 0,-0.29904"
       id="path9214" />
    <path
       style="fill:#000000;fill-opacity:0;stroke:#000000;stroke-width:0.7;stroke-linecap:round;stroke-linejoin:round;stroke-opacity:1"
       d="m 143.84123,36.367872 c 0.69829,-0.465392 1.3387,-1.032272 2.09485,-1.396172 0.42365,-0.203888 1.72928,0.520364 1.29714,1.09674 -0.31688,0.422648 -2.02704,0.442952 -2.49408,0.598472 -0.1839,0.06123 -0.33244,0.199361 -0.49867,0.29904"
       id="path9216" />
    <path
       style="fill:#000000;fill-opacity:0;stroke:#000000;stroke-width:0.7;stroke-linecap:round;stroke-linejoin:round;stroke-opacity:1"
       d="m 149.52768,35.17132 c -0.15142,-0.493728 -0.99824,-1.239874 -1.39695,-0.49866 -0.12984,0.241363 -0.10459,0.540491 -0.19923,0.7977 -0.0979,0.266121 -0.48789,0.70943 -0.19962,0.997321 0.28456,0.284186 1.05484,0.261284 1.39656,0.199231 1.155,-0.209741 0.30515,-0.199231 0.69828,-0.199231"
       id="path9218" />
    <path
       style="fill:#000000;fill-opacity:0;stroke:#000000;stroke-width:0.7;stroke-linecap:round;stroke-linejoin:round;stroke-opacity:1"
       d="m 150.22596,35.17132 c 0.14227,0.03427 -0.43031,1.8479 -0.19962,2.193483 0.0864,0.129509 0.27928,0.09981 0.39885,0.09981"
       id="path9220" />
    <path
       style="fill:#000000;fill-opacity:0;stroke:#000000;stroke-width:0.7;stroke-linecap:round;stroke-linejoin:round;stroke-opacity:1"
       d="m 153.21871,35.570169 c -0.8367,-0.477912 -0.56621,-0.621157 -1.19734,0.09942 -0.25491,0.291045 -0.19962,0.25536 -0.19962,0.598469 0,0.859042 1.55923,-0.0058 1.19734,0.897512 -0.29855,0.745207 -1.6989,0.504074 -1.79581,0.697892 -0.0617,0.123335 0.18358,0.09981 0.19962,0.09981"
       id="path9222" />
    <path
       style="fill:#000000;fill-opacity:0;stroke:#000000;stroke-width:0.7;stroke-linecap:round;stroke-linejoin:round;stroke-opacity:1"
       d="m 142.64429,38.561744 c 0.59847,0 1.19697,-0.0053 1.79542,0 3.12587,0.02782 6.2521,0.03637 9.37747,0.09942 0.16948,0.0034 0.37879,-0.02006 0.49866,0.09981 0.0743,0.07431 -0.19581,0.08015 -0.29904,0.09981 -0.59614,0.113501 -1.20981,0.141335 -1.79581,0.29904 -2.67424,0.719712 -5.18231,1.680689 -7.38204,3.390426"
       id="path9224" />
    <path
       style="fill:#000000;fill-opacity:0;stroke:#000000;stroke-width:0.7;stroke-linecap:round;stroke-linejoin:round;stroke-opacity:1"
       d="m 134.10568,26.202491 c 0.0665,-0.23263 0.0697,-0.493789 0.19962,-0.697891 0.23672,-0.371806 1.21953,-1.03827 1.69599,-0.698281 0.91646,0.653955 0.1556,1.938431 -0.39924,2.492913 -0.0723,0.07229 -0.25741,0.299431 -0.39885,0.299431 -0.0333,0 -0.0235,-0.07624 0,-0.09981 0.0967,-0.0971 0.26286,0.0828 0.39885,0.09981 0.16493,0.02064 0.3374,-0.04029 0.49866,0 0.69239,0.172985 1.94533,0.986772 1.59618,1.894441 -0.39755,1.033499 -1.69464,1.933202 -2.79312,1.994254 -0.3337,0.01855 -0.66578,-0.06043 -0.99771,-0.09942 -0.23352,-0.02743 -0.4646,-0.07382 -0.69828,-0.09981 -0.066,-0.0073 -0.26224,-0.02101 -0.19924,0 0.37772,0.125905 0.52625,0.09981 0.89752,0.09981"
       id="path9226" />
    <path
       style="fill:#000000;fill-opacity:0;stroke:#000000;stroke-width:0.7;stroke-linecap:round;stroke-linejoin:round;stroke-opacity:1"
       d="m 137.99632,28.296555 c 0.001,-0.586063 -0.12508,-3.000897 0.59847,-3.091385 0.52835,-0.06608 0.59125,0.254869 0.99771,0.49866 0.78007,0.467875 1.40834,0.698281 2.29447,0.698281"
       id="path9228" />
    <path
       style="fill:#000000;fill-opacity:0;stroke:#000000;stroke-width:0.7;stroke-linecap:round;stroke-linejoin:round;stroke-opacity:1"
       d="m 138.99403,26.402111 c -0.005,1.495656 0.0356,2.991869 0,4.487165 -0.008,0.330599 -0.0272,0.299042 -0.19962,0.299042"
       id="path9230" />
    <path
       style="fill:#000000;fill-opacity:0;stroke:#000000;stroke-width:0.7;stroke-linecap:round;stroke-linejoin:round;stroke-opacity:1"
       d="m 138.49498,30.191387 c 0.79809,-0.132951 1.59618,-0.265901 2.39427,-0.398852"
       id="path9232" />
    <path
       style="fill:#000000;fill-opacity:0;stroke:#000000;stroke-width:0.7;stroke-linecap:round;stroke-linejoin:round;stroke-opacity:1"
       d="m 141.88697,31.487358 c 0.0345,-0.130871 1.34671,1.7e-4 1.59618,-0.498271 0.0298,-0.05951 0,-0.13308 0,-0.19962 0,-0.132951 0.0595,-0.279966 0,-0.398852 -0.1107,-0.221107 -0.77222,-0.49866 -0.99771,-0.49866 -0.95634,0 -1.57029,1.884032 -1.09753,2.592724 0.42832,0.642056 2.69371,0.414356 2.69371,-0.49866"
       id="path9234" />
    <path
       style="fill:#000000;fill-opacity:0;stroke:#000000;stroke-width:0.7;stroke-linecap:round;stroke-linejoin:round;stroke-opacity:1"
       d="m 145.77722,31.986019 c -0.42914,0.768535 0.37804,-1.942431 0.8979,-1.595404 0.45933,0.306621 -0.48521,2.689852 -0.99732,2.791955 -0.19845,0.03957 -0.74223,0.04338 -0.59886,-0.09942 0.0236,-0.02347 0.0689,0.01236 0.0998,0 0.52928,-0.211711 0.89631,-0.385201 1.49637,-0.299431 0.7784,0.111262 0.3436,0.284578 1.19733,0"
       id="path9236" />
    <path
       style="fill:#000000;fill-opacity:0;stroke:#000000;stroke-width:0.7;stroke-linecap:round;stroke-linejoin:round;stroke-opacity:1"
       d="m 150.46596,27.498852 c -0.57992,-0.347768 -0.78088,-0.65886 -1.49638,0.199231 -0.14906,0.178769 0.0155,0.466037 0,0.698281 -0.0519,0.778346 -0.30386,3.006367 0,3.689463 0.17386,0.390848 0.30951,0.455446 0.69828,0.498663 1.5279,0.169839 2.93815,-1.395248 3.19237,-2.791955 0.16949,-0.931201 0.12933,-1.676143 -0.0998,-2.592723 -0.3579,-1.431599 -2.06815,-1.585492 -3.09256,-0.69828 -0.73762,0.638841 -0.6398,1.64716 -0.49866,2.492912"
       id="path9238" />
    <path
       style="fill:#000000;fill-opacity:0;stroke:#000000;stroke-width:0.7;stroke-linecap:round;stroke-linejoin:round;stroke-opacity:1"
       d="m 153.4587,31.986019 c 0.26603,-0.332312 0.46856,-0.727459 0.79809,-0.996932 0.35872,-0.293351 0.73171,0.88101 -0.0998,1.29636 -0.0664,0.03317 -0.12501,0.09942 -0.19923,0.09942 -0.11303,0 0.12381,-0.219816 0.39885,0 0.34982,0.27958 0.64153,0.643559 0.69828,1.097129 0.0446,0.35628 -0.15813,0.74667 -0.59847,0.697892 -0.32238,-0.03571 -0.64598,-0.197512 -0.8979,-0.398849 -0.0734,-0.05869 -0.13321,-0.265772 -0.19962,-0.199231 -0.0669,0.06701 0.5539,0.353893 0.59886,0.398851"
       id="path9240" />
    <path
       style="fill:#000000;fill-opacity:0;stroke:#000000;stroke-width:0.7;stroke-linecap:round;stroke-linejoin:round;stroke-opacity:1"
       d="m 156.85068,31.587167 c -0.23276,0.299172 -0.57202,0.540107 -0.69828,0.897512 -0.0892,0.252656 0.0554,0.533381 0.0994,0.7977 0.11883,0.713692 0.20409,0.698283 0.79809,0.698283"
       id="path9242" />
    <path
       style="fill:#000000;fill-opacity:0;stroke:#000000;stroke-width:0.7;stroke-linecap:round;stroke-linejoin:round;stroke-opacity:1"
       d="m 158.44687,31.986019 c 0,0.56507 0,1.130141 0,1.695211"
       id="path9244" />
    <path
       style="fill:#000000;fill-opacity:0;stroke:#000000;stroke-width:0.7;stroke-linecap:round;stroke-linejoin:round;stroke-opacity:1"
       d="m 160.04266,31.986019 c 2.04376,1.113311 -1.09713,0.264781 -1.09713,0.69828 0,0.03327 0.07,-0.01484 0.0998,0 0.042,0.02093 0.0607,0.07338 0.0998,0.09942 5.3e-4,5.29e-4 0.39832,0.199517 0.39885,0.19962 0.0979,0.01958 0.20156,-0.01958 0.29943,0 0.2995,0.05995 0.41236,0.49866 0.69828,0.49866"
       id="path9246" />
    <path
       style="fill:#000000;fill-opacity:0;stroke:#000000;stroke-width:0.7;stroke-linecap:round;stroke-linejoin:round;stroke-opacity:1"
       d="m 161.43961,31.487358 c 0.19949,0.199491 0.46337,0.350801 0.59847,0.598469 0.25335,0.464445 -0.19786,1.094981 -0.49905,1.396172"
       id="path9248" />
    <path
       style="fill:#000000;fill-opacity:0;stroke:#000000;stroke-width:0.7;stroke-linecap:round;stroke-linejoin:round;stroke-opacity:1"
       d="m 164.33254,28.196743 c 0.11949,0.555117 -0.0998,1.053566 -0.0998,1.595792 0,0.118005 0.0998,0.317233 0.0998,0.199232 0,-0.04705 -0.0665,-0.06654 -0.0998,-0.09981"
       id="path9250" />
    <path
       style="fill:#000000;fill-opacity:0;stroke:#000000;stroke-width:0.7;stroke-linecap:round;stroke-linejoin:round;stroke-opacity:1"
       d="m 163.53445,29.194064 c 0.17174,-0.278191 1.24658,-1.346536 1.79541,-0.7977"
       id="path9252" />
    <path
       style="fill:#000000;fill-opacity:0;stroke:#000000;stroke-width:0.7;stroke-linecap:round;stroke-linejoin:round;stroke-opacity:1"
       d="m 166.72642,29.991767 c 0.7059,0.178845 1.38614,0.136067 1.99543,-0.299043 0.36139,-0.258083 0.60252,-0.89508 0.0998,-1.196549 -0.0856,-0.05133 -0.20259,-0.02418 -0.29943,0 -0.49587,0.123783 -0.85139,0.454813 -1.09713,0.89712 -0.087,0.156509 -0.0636,0.382185 -0.19962,0.49866 -0.12884,0.110363 -0.44105,-0.05961 -0.49906,0.09981 -0.11424,0.31396 0.072,0.664376 0.0998,0.99732 0.10128,1.214165 2.48635,0.966502 3.29218,0.697891"
       id="path9254" />
    <path
       style="fill:#000000;fill-opacity:0;stroke:#000000;stroke-width:0.7;stroke-linecap:round;stroke-linejoin:round;stroke-opacity:1"
       d="m 170.41784,28.895024 c -0.19962,0.897382 -0.38218,1.79873 -0.59886,2.692143 -0.0527,0.312883 -0.22249,0.591606 -0.29904,0.897512 -0.008,0.03227 0,0.13308 0,0.09981 0,-0.147042 0.11455,-0.513792 0.19923,-0.598471 0.0235,-0.02352 0.0762,0.02347 0.0998,0 0.0801,-0.07977 0.16449,-0.70411 0.19962,-0.797701 0.22581,-0.601585 0.61491,-1.28479 0.99771,-1.795023 0.0846,-0.112763 0.19936,-0.199361 0.29904,-0.29904 0.0333,-0.03327 0.0528,-0.09981 0.0998,-0.09981 0.35556,0 0.53374,0.351734 0.69828,0.598471 0.1853,0.277863 0.34951,0.447569 0.29943,0.7977 -0.0744,0.520515 -1.13504,1.92907 0.19962,1.595404"
       id="path9256" />
    <path
       style="fill:#000000;fill-opacity:0;stroke:#000000;stroke-width:0.7;stroke-linecap:round;stroke-linejoin:round;stroke-opacity:1"
       d="m 173.11115,29.692724 c 0.36571,0.03327 0.73073,0.124251 1.09713,0.09981 1.14379,-0.07629 0.90713,-2.06698 -0.0994,-1.396171 -0.14211,0.09471 -0.98015,1.208521 -0.99771,1.29636 -0.0655,0.327491 0.0525,0.666324 0.0998,0.996931 0.0241,0.168725 0.0706,0.522264 0.29904,0.598472 0.31966,0.106622 0.6835,-0.09981 0.99771,-0.09981"
       id="path9258" />
    <path
       style="fill:#000000;fill-opacity:0;stroke:#000000;stroke-width:0.7;stroke-linecap:round;stroke-linejoin:round;stroke-opacity:1"
       d="m 176.1039,28.795215 c 0.0571,3.065153 -0.87631,3.484853 -0.39924,1.89444 0.12416,-0.413927 0.43788,-0.768749 0.49905,-1.196551 0.0333,-0.23263 -0.23809,-0.507876 -0.0998,-0.697889 0.19269,-0.264808 0.59558,-0.272904 0.8979,-0.398851 0.66099,-0.275379 0.83887,0.409493 1.59618,0.59808"
       id="path9260" />
    <path
       style="fill:#000000;fill-opacity:0;stroke:#000000;stroke-width:0.7;stroke-linecap:round;stroke-linejoin:round;stroke-opacity:1"
       d="m 180.4932,29.194064 c -0.16622,0.56507 -0.3449,1.126625 -0.49866,1.695212 -0.19053,0.704559 -0.7267,3.445237 -1.59618,3.988506 -0.77479,0.484098 -2.30466,-0.563348 -1.7958,-1.495592 0.62581,-1.146516 2.18319,-1.451327 3.29217,-1.894832 0.34088,-0.136326 0.66861,-0.334364 0.99771,-0.498271"
       id="path9262" />
    <path
       style="fill:#000000;fill-opacity:0;stroke:#000000;stroke-width:0.7;stroke-linecap:round;stroke-linejoin:round;stroke-opacity:1"
       d="m 180.69282,27.797892 c 0.0313,1.176017 0.16451,-1.319506 0.49866,-1.09674 0.11403,0.07602 0.0998,0.2618 0.0998,0.398851 0,0.03327 -0.0665,0 -0.0998,0"
       id="path9264" />
    <path
       style="fill:#000000;fill-opacity:0;stroke:#000000;stroke-width:0.7;stroke-linecap:round;stroke-linejoin:round;stroke-opacity:1"
       d="m 182.18919,28.795215 c -0.0947,0.07875 -1.02828,2.620452 -0.19962,1.795021"
       id="path9266" />
    <path
       style="fill:#000000;fill-opacity:0;stroke:#000000;stroke-width:0.7;stroke-linecap:round;stroke-linejoin:round;stroke-opacity:1"
       d="M 182.68785,27.100003 182.289,27.997512"
       id="path9268" />
    <path
       style="fill:#000000;fill-opacity:0;stroke:#000000;stroke-width:0.7;stroke-linecap:round;stroke-linejoin:round;stroke-opacity:1"
       d="m 172.40324,36.785481 c -0.15978,2.685777 -0.92208,5.198686 -2.99275,7.080279 -4.05603,3.685667 -11.72549,4.162835 -16.85894,4.586975 -5.8483,0.483203 -11.71671,0.697561 -17.55761,1.296363 -7.55775,0.774811 -14.8875,2.141622 -20.15111,8.17663 -1.04694,1.20037 -1.40208,2.604725 -2.09485,3.988896"
       id="path9328" />
    <path
       style="fill:#000000;fill-opacity:0;stroke:#000000;stroke-width:0.7;stroke-linecap:round;stroke-linejoin:round;stroke-opacity:1"
       d="m 112.24894,59.720749 c 0.89713,1.493483 0.66214,0.608288 0.29942,2.692143 -0.0968,0.556311 -0.17508,0.841799 0,0.798092 0.96377,-0.240588 1.58723,-1.469157 2.09485,-2.193872"
       id="path9330" />
    <path
       style="fill:#000000;fill-opacity:0;stroke:#000000;stroke-width:0.7;stroke-linecap:round;stroke-linejoin:round;stroke-opacity:1"
       d="m 106.96212,67.310216 c 2.42644,-0.116163 4.85307,-0.151916 7.28224,0 0.95006,0.05942 1.84529,0.29904 2.79312,0.29904"
       id="path9354" />
    <path
       style="fill:#000000;fill-opacity:0;stroke:#000000;stroke-width:0.7;stroke-linecap:round;stroke-linejoin:round;stroke-opacity:1"
       d="m 115.24168,65.914044 c 0.43238,0.09968 0.86866,0.183756 1.29714,0.29904 1.96975,0.529966 1.87827,0.510765 0.49866,1.495984 -0.25528,0.1823 -0.5494,0.307469 -0.79809,0.49866 -0.67871,0.521787 -0.24152,0.498271 -0.59847,0.498271"
       id="path9356" />
    <path
       style="fill:#000000;fill-opacity:0;stroke:#000000;stroke-width:0.7;stroke-linecap:round;stroke-linejoin:round;stroke-opacity:1"
       d="m 80.008784,70.306469 c 0.445074,-0.755806 0.90411,-1.508265 1.296752,-2.293292 0.548817,-1.097275 1.022188,-2.265593 1.19694,-3.490235 0.02347,-0.164552 -0.04035,-0.337413 0,-0.49866 0.01143,-0.04564 0.09139,0.05352 0.09981,0.09981 0.05981,0.328706 0.07511,0.664136 0.09981,0.997323 0.04185,0.5645 0.0097,1.136389 0.09981,1.695212 0.193318,1.198293 0.714957,2.21768 1.396561,3.190804 0.06876,0.09816 0.09994,0.36558 0.19962,0.29904 0.177115,-0.118229 -0.297027,-0.33151 -0.499049,-0.398852"
       id="path9362" />
    <path
       style="fill:#000000;fill-opacity:0;stroke:#000000;stroke-width:0.7;stroke-linecap:round;stroke-linejoin:round;stroke-opacity:1"
       d="m 80.806875,68.312217 c 2.093741,-0.313836 1.322592,-0.29904 2.294462,-0.29904"
       id="path9364" />
    <path
       style="fill:#000000;fill-opacity:0;stroke:#000000;stroke-width:0.7;stroke-linecap:round;stroke-linejoin:round;stroke-opacity:1"
       d="m 85.196181,64.722562 c 0.09918,4.062447 0.397592,2.832354 -0.09981,4.985827 -0.0013,0.0057 -0.269176,1.005713 0,0.199228"
       id="path9366" />
    <path
       style="fill:#000000;fill-opacity:0;stroke:#000000;stroke-width:0.7;stroke-linecap:round;stroke-linejoin:round;stroke-opacity:1"
       d="m 85.096369,67.015854 c 0,-0.931971 -0.152297,-0.946954 1.596184,-1.196552 0.210711,-0.03008 0.348152,0.248343 0.49866,0.398852 0.87407,0.874069 1.882174,2.568194 0.49866,3.490235 -0.465793,0.310428 -1.132866,-0.192709 -1.595792,-0.299432 -0.492167,-0.113461 -0.592756,-0.09942 -0.997712,-0.09942"
       id="path9368" />
    <path
       style="fill:#000000;fill-opacity:0;stroke:#000000;stroke-width:0.7;stroke-linecap:round;stroke-linejoin:round;stroke-opacity:1"
       d="m 88.987015,69.309537 c -0.311854,0.310637 0.199231,0.387652 0.199231,0.59808 0,0.03314 -0.08897,0.03145 -0.09942,0 -0.03145,-0.09459 -0.0052,-0.19949 0,-0.29904 0.07731,-1.473125 0.182186,-2.670415 0.29904,-4.188124 0.886003,-1.26533 2.198828,0.292 1.695992,1.296362 -0.475149,0.949062 -2.043065,-0.542559 -1.695992,0.498661"
       id="path9370" />
    <path
       style="fill:#000000;fill-opacity:0;stroke:#000000;stroke-width:0.7;stroke-linecap:round;stroke-linejoin:round;stroke-opacity:1"
       d="m 93.276511,67.015854 c 0.365228,0.728215 -0.09981,3.18543 -0.09981,1.894832"
       id="path9372" />
    <path
       style="fill:#000000;fill-opacity:0;stroke:#000000;stroke-width:0.7;stroke-linecap:round;stroke-linejoin:round;stroke-opacity:1"
       d="m 92.57823,68.013177 c 0.634479,-0.30915 1.019699,-0.476673 1.49637,0"
       id="path9374" />
    <path
       style="fill:#000000;fill-opacity:0;stroke:#000000;stroke-width:0.7;stroke-linecap:round;stroke-linejoin:round;stroke-opacity:1"
       d="m 95.171732,69.508769 c 0,0.216302 0.263636,0.516556 0.499051,0.398848 0.118915,-0.05946 0,-0.265898 0,-0.398848 0,-1.799283 -0.02106,-0.466217 0.29904,-3.988507 0.183612,-2.210044 3.959553,-0.316268 3.092555,0.897123 -0.278597,0.389905 -1.32218,0.330591 -1.695992,0.29943 -0.168931,-0.01408 -0.330182,-0.118546 -0.498661,-0.09981 -0.246907,0.02746 -0.354774,0.155717 -0.49866,0.299041"
       id="path9376" />
    <path
       style="fill:#000000;fill-opacity:0;stroke:#000000;stroke-width:0.7;stroke-linecap:round;stroke-linejoin:round;stroke-opacity:1"
       d="m 99.361808,68.711066 c 1.356842,-1.82675 0.01405,-0.05268 0,0 -0.304255,1.141171 0.109305,1.698574 0.897902,0.797703 0.17133,-0.195726 0.35075,-0.476311 0.49866,-0.697892"
       id="path9378" />
    <path
       style="fill:#000000;fill-opacity:0;stroke:#000000;stroke-width:0.7;stroke-linecap:round;stroke-linejoin:round;stroke-opacity:1"
       d="m 100.25971,66.916045 c 0.0331,-0.166222 0.26564,-0.465521 0.0994,-0.49866 -0.16622,-0.03314 -0.0663,0.332438 -0.0994,0.49866 z"
       id="path9382" />
    <path
       style="fill:#000000;fill-opacity:0;stroke:#000000;stroke-width:0.7;stroke-linecap:round;stroke-linejoin:round;stroke-opacity:1"
       d="m 121.85894,70.057194 c 0.0677,-0.202715 0.10163,-0.419997 0.20298,-0.608144 0.29877,-0.554673 1.12808,-1.387468 1.42006,-1.825229 0.62935,-0.943562 0.78197,-1.38789 1.0145,-2.433372 0.11583,-0.52079 0.10149,-0.593715 0.10149,-1.014103 0,-0.03383 0,-0.135322 0,-0.101492 0,0.616664 -0.0147,-0.333179 0.20258,1.115595 0.17737,1.18283 0.23155,2.377069 0.50745,3.54857 0.049,0.208137 0.12795,0.408302 0.20298,0.608542 0.0375,0.10002 0.17647,0.379746 0.10109,0.304072 -0.10852,-0.108945 -0.18404,-0.285528 -0.30407,-0.405564"
       id="path9384" />
    <path
       style="fill:#000000;fill-opacity:0;stroke:#000000;stroke-width:0.7;stroke-linecap:round;stroke-linejoin:round;stroke-opacity:1"
       d="m 122.77195,68.536435 c 0.57484,0 1.14968,0 1.72453,0"
       id="path9386" />
    <path
       style="fill:#000000;fill-opacity:0;stroke:#000000;stroke-width:0.7;stroke-linecap:round;stroke-linejoin:round;stroke-opacity:1"
       d="m 126.93104,66.914188 c 0.0338,-0.507053 -0.0592,-1.039056 0.10149,-1.521156 0.0428,-0.128251 0.27105,-0.01347 0.40556,0 0.82115,0.08218 2.32182,1.022935 3.04311,0.304469"
       id="path9388" />
    <path
       style="fill:#000000;fill-opacity:0;stroke:#000000;stroke-width:0.7;stroke-linecap:round;stroke-linejoin:round;stroke-opacity:1"
       d="m 128.3511,64.987468 c -0.177,2.077919 -0.7452,3.511513 -0.30447,5.272704 0.008,0.03282 0,-0.06766 0,-0.101489 0,-0.135186 0,-0.270375 0,-0.405561"
       id="path9390" />
    <path
       style="fill:#000000;fill-opacity:0;stroke:#000000;stroke-width:0.7;stroke-linecap:round;stroke-linejoin:round;stroke-opacity:1"
       d="m 130.88676,69.347561 c 0.59291,-1.185818 0.37296,-2.570716 0.40596,-3.85304 0.67429,-0.437956 1.09904,-0.726633 1.72453,-0.101489 0.29257,0.292406 0.34149,0.426939 0.40556,0.811124 0.0195,0.116758 0.009,0.323045 -0.10149,0.405562 -0.44989,0.337307 -1.24623,-0.17383 -1.62304,0.20298"
       id="path9392" />
    <path
       style="fill:#000000;fill-opacity:0;stroke:#000000;stroke-width:0.7;stroke-linecap:round;stroke-linejoin:round;stroke-opacity:1"
       d="m 135.5529,67.116769 c 0.0149,0.0628 -0.14408,1.868215 0.30447,1.419666"
       id="path9394" />
    <path
       style="fill:#000000;fill-opacity:0;stroke:#000000;stroke-width:0.7;stroke-linecap:round;stroke-linejoin:round;stroke-opacity:1"
       d="m 134.23433,68.130874 c 0.5768,-0.06688 1.14258,-0.20298 1.72453,-0.20298"
       id="path9396" />
    <path
       style="fill:#000000;fill-opacity:0;stroke:#000000;stroke-width:0.7;stroke-linecap:round;stroke-linejoin:round;stroke-opacity:1"
       d="m 139.61051,65.900082 c 0.024,0.01109 -0.22745,-1.241054 -0.20298,-1.216686 0.0635,0.06324 0.38912,1.927476 0.40596,2.1293 0.0421,0.505167 0.0211,1.01428 0,1.520759 -0.009,0.210696 -0.1437,1.538399 0,1.825228 0.0214,0.04278 0.0677,-0.06766 0.10149,-0.101489"
       id="path9402" />
    <path
       style="fill:#000000;fill-opacity:0;stroke:#000000;stroke-width:0.7;stroke-linecap:round;stroke-linejoin:round;stroke-opacity:1"
       d="m 139.50902,67.623821 c 0.63453,-0.214458 1.19753,-0.202583 1.82602,-0.202583"
       id="path9404" />
    <path
       style="fill:#000000;fill-opacity:0;stroke:#000000;stroke-width:0.7;stroke-linecap:round;stroke-linejoin:round;stroke-opacity:1"
       d="m 141.63911,64.987468 c 0.0683,0.341048 0.21716,1.020802 0.20298,1.318178 -0.0423,0.888111 -0.32515,1.750872 -0.40556,2.636351 -0.0275,0.302958 0,0.608409 0,0.912614 0,0.172344 -0.0712,0.507053 0.10109,0.507053 0.2597,0 0.033,-0.17 0,-0.202981"
       id="path9408" />
    <path
       style="fill:#000000;fill-opacity:0;stroke:#000000;stroke-width:0.7;stroke-linecap:round;stroke-linejoin:round;stroke-opacity:1"
       d="m 142.65361,69.246069 c 0.0338,0.169019 -0.0675,0.540883 0.10149,0.507053 0.16902,-0.03383 -0.25568,-0.429996 -0.10149,-0.507053 0.54948,-0.274606 1.19905,0.129252 1.11599,0.710031 -0.0803,0.561782 -1.04776,0.934691 -1.52155,1.013708 -0.10011,0.0167 -0.20601,-0.02461 -0.30447,0 -0.0797,0.01992 -0.31672,0.131236 -0.10149,0.202978 0.22682,0.0756 0.47241,-0.07507 0.71003,-0.101489 0.13449,-0.01495 0.27064,0 0.40596,0 0.80965,0 -0.29806,-0.02458 0.71003,0.101489 0.53638,0.06708 1.09647,-0.01373 1.62304,-0.101489"
       id="path9414" />
    <path
       style="fill:#000000;fill-opacity:0;stroke:#000000;stroke-width:0.7;stroke-linecap:round;stroke-linejoin:round;stroke-opacity:1"
       d="m 147.01529,65.798593 c -1.86113,-0.605028 -1.42286,-0.195527 -2.0286,1.216687 -0.39524,0.921435 -0.30447,0.264131 -0.30447,1.217083 0,0.135186 -0.0475,0.278998 0,0.405561 0.0594,0.158264 0.20614,0.268058 0.30447,0.405562 0.86748,1.213119 2.00354,0.734877 2.53605,-0.507051 0.27787,-0.648065 0.44645,-1.089919 0.40556,-1.825228 -0.0155,-0.278283 -0.0851,-0.558583 -0.20298,-0.811125 -1.00951,-2.162183 -2.53566,1.138621 -2.53566,2.129301"
       id="path9416" />
    <path
       style="fill:#000000;fill-opacity:0;stroke:#000000;stroke-width:0.7;stroke-linecap:round;stroke-linejoin:round;stroke-opacity:1"
       d="m 111.59976,79.50247 c 0,-0.236543 -0.0748,-0.485227 0,-0.709634 0.1889,-0.56669 1.57966,-1.627558 2.0286,-1.926717 0.59064,-0.393578 1.72562,-1.031771 2.43457,-1.216686 0.96186,-0.250886 1.87661,0.0051 2.84012,0.101489 1.56535,0.156617 3.19804,0.473138 4.76764,0.202583 1.67992,-0.289573 2.47219,-0.955664 3.14459,-2.433373 0.18008,-0.395763 0.29129,-0.418346 0,-0.709636"
       id="path9432" />
    <path
       style="fill:#000000;fill-opacity:0;stroke:#000000;stroke-width:0.7;stroke-linecap:round;stroke-linejoin:round;stroke-opacity:1"
       d="m 110.48377,77.57615 c 0.41969,1.257832 0.36025,0.86891 0.50745,1.824831 0.0111,0.07191 0.0524,1.318175 0.40556,1.318175 0.43369,0 1.25885,-2.172911 1.72453,-2.534861 0.14371,-0.111694 0.33804,-0.135054 0.50705,-0.202584"
       id="path9436" />
    <path
       style="fill:#000000;fill-opacity:0;stroke:#000000;stroke-width:0.7;stroke-linecap:round;stroke-linejoin:round;stroke-opacity:1"
       d="m 106.83213,84.906002 c 3.65446,0.04768 7.30166,-0.101491 10.95533,-0.101491"
       id="path9442" />
    <path
       style="fill:#000000;fill-opacity:0;stroke:#000000;stroke-width:0.7;stroke-linecap:round;stroke-linejoin:round;stroke-opacity:1"
       d="m 116.77296,83.689316 c 0.84359,0.223277 1.38714,0.602128 2.0286,1.115195 0.0374,0.02988 0.10149,0.05365 0.10149,0.101491 0,0.03383 -0.0681,-0.0056 -0.10149,0 -0.17002,0.02836 -0.3385,0.0654 -0.50705,0.101489 -0.98455,0.210818 -1.81809,0.61948 -2.73863,1.013706"
       id="path9444" />
    <path
       style="fill:#000000;fill-opacity:0;stroke:#000000;stroke-width:0.7;stroke-linecap:round;stroke-linejoin:round;stroke-opacity:1"
       d="m 68.567755,82.280355 c 0.184833,0.250814 0.202846,-0.608542 0,-0.608542 -0.04775,0 -0.06136,0.07501 -0.101094,0.101489 -0.846762,0.564324 -0.230143,-0.01418 -1.0145,0.912614 -0.201303,0.23786 -0.431115,0.453469 -0.608542,0.709634 -0.602763,0.870251 -0.983652,2.454163 -0.202978,3.345987 0.549143,0.627329 1.867485,0.321781 2.231583,-0.405562 1.10058,-2.198581 -3.18185,-1.896821 -2.231583,0"
       id="path9450" />
    <path
       style="fill:#000000;fill-opacity:0;stroke:#000000;stroke-width:0.7;stroke-linecap:round;stroke-linejoin:round;stroke-opacity:1"
       d="m 73.13241,83.39555 c 0.553453,-1.365655 -0.30699,-1.080006 -1.115594,-0.608542 -0.648724,0.378248 -0.636035,0.365368 -1.0145,1.014106 -0.666925,1.143193 -0.830831,2.880084 0.811522,3.244495 0.682691,0.151479 1.145024,-0.359526 1.52155,-0.811123 0.226925,-0.272166 0.20298,-0.09082 0.20298,-0.304072"
       id="path9454" />
    <path
       style="fill:#000000;fill-opacity:0;stroke:#000000;stroke-width:0.7;stroke-linecap:round;stroke-linejoin:round;stroke-opacity:1"
       d="m 75.972932,84.510747 c 0.654053,-0.817089 0.831591,-0.781084 0.101489,-2.331884 -0.147841,-0.314026 -0.645734,0.205962 -1.0145,0.608145 -0.888106,0.968584 -1.312892,1.903307 -1.0145,3.244895 0.03025,0.136033 0.03229,0.284602 0.101489,0.405561 1.149305,2.009042 3.83282,-2.38329 2.333072,-3.548965 -0.992097,-0.771104 -2.414683,0.226817 -2.536052,1.318176 -0.0154,0.138501 0.06766,0.270375 0.101491,0.405561"
       id="path9456" />
    <path
       style="fill:#000000;fill-opacity:0;stroke:#000000;stroke-width:0.7;stroke-linecap:round;stroke-linejoin:round;stroke-opacity:1"
       d="m 77.291504,86.437464 c 0.302615,-0.680955 0.116623,-1.011515 0.710031,-0.912614 0.105523,0.0176 0.228822,0.02585 0.304469,0.101492 0.342876,0.342876 0.304575,1.332653 -0.101492,1.622247 -0.32707,0.233257 -0.926581,0.360104 -1.318572,0.304073 -0.105902,-0.01513 -0.304469,-0.208468 -0.304469,-0.101489 0,0.182057 0.328536,0.167248 0.507053,0.202978 0.201649,0.04036 0.402891,0.101491 0.608541,0.101491 0.20578,0 0.404006,-0.08285 0.608939,-0.101491 0.214857,-0.01953 1.318572,0.07492 1.318572,-0.304073"
       id="path9458" />
    <path
       style="fill:#000000;fill-opacity:0;stroke:#000000;stroke-width:0.7;stroke-linecap:round;stroke-linejoin:round;stroke-opacity:1"
       d="m 82.464701,84.206675 c 0.03383,-0.202848 0.304337,-0.574712 0.101489,-0.608542 -0.202848,-0.03383 -0.07019,0.405289 -0.101489,0.608542 -0.03637,0.236167 -0.07983,0.471667 -0.101492,0.709633 -0.01839,0.202015 0,0.405697 0,0.608542 0,0.03383 -0.01513,0.131749 0,0.101492 0.06841,-0.136816 0.202981,-0.445246 0.202981,-0.608542"
       id="path9460" />
    <path
       style="fill:#000000;fill-opacity:0;stroke:#000000;stroke-width:0.7;stroke-linecap:round;stroke-linejoin:round;stroke-opacity:1"
       d="m 81.349106,84.916308 c 0.523195,0.07922 1.225767,0.249675 1.724137,0"
       id="path9462" />
    <path
       style="fill:#000000;fill-opacity:0;stroke:#000000;stroke-width:0.7;stroke-linecap:round;stroke-linejoin:round;stroke-opacity:1"
       d="m 86.116345,85.321872 c 0.135319,-0.202715 0.32884,-0.376936 0.405958,-0.608144 2.115489,-6.342333 0.739048,-3.047498 0.507053,-2.027812 -0.306864,1.348761 -0.392335,2.789214 -0.608542,4.157112 -0.05304,0.335558 -0.0191,0.684522 -0.101489,1.014103 -0.03669,0.146775 -0.166338,-0.259173 -0.20298,-0.405958 -0.07291,-0.292066 -0.09459,-0.500155 -0.304072,-0.709636"
       id="path9464" />
    <path
       style="fill:#000000;fill-opacity:0;stroke:#000000;stroke-width:0.7;stroke-linecap:round;stroke-linejoin:round;stroke-opacity:1"
       d="m 88.449417,85.0178 c -0.129609,-0.024 0.646994,-2.753847 1.521553,-2.129301 0.93872,0.670365 0.214275,2.953404 -0.405562,3.650457 -0.28549,0.321053 -0.58593,0.405561 -1.014499,0.405561 -0.22836,0 -0.935271,-0.236326 -0.710034,0.101092 0.407366,0.610251 3.246083,0.185753 3.246083,-0.101092"
       id="path9466" />
    <path
       style="fill:#000000;fill-opacity:0;stroke:#000000;stroke-width:0.7;stroke-linecap:round;stroke-linejoin:round;stroke-opacity:1"
       d="m 92.811491,83.294061 c -0.428556,4.281376 0.05698,-0.18093 -0.507449,3.954528 -0.01828,0.133946 0,0.270375 0,0.405562 0,0.03383 0,0.135321 0,0.101491 0,-0.232053 0.101491,-0.395391 0.101491,-0.608542"
       id="path9468" />
    <path
       style="fill:#000000;fill-opacity:0;stroke:#000000;stroke-width:0.7;stroke-linecap:round;stroke-linejoin:round;stroke-opacity:1"
       d="m 91.796991,86.031903 c 0.716352,-0.398992 1.281399,-0.20298 2.028603,-0.20298"
       id="path9470" />
    <path
       style="fill:#000000;fill-opacity:0;stroke:#000000;stroke-width:0.7;stroke-linecap:round;stroke-linejoin:round;stroke-opacity:1"
       d="m 95.043074,82.685916 c 0.597398,0.469321 -0.980006,4.090117 -0.608938,4.461184 0.05341,0.05341 0.101489,-0.127055 0.101489,-0.202583 0,-0.276976 -0.50705,-0.303445 -0.50705,-0.101489"
       id="path9472" />
    <path
       style="fill:#000000;fill-opacity:0;stroke:#000000;stroke-width:0.7;stroke-linecap:round;stroke-linejoin:round;stroke-opacity:1"
       d="m 96.463135,87.045609 c -0.03383,-0.405561 -0.163443,-0.814459 -0.101488,-1.216686 0.03603,-0.233919 0.513082,-0.131255 0.71003,0 0.615426,0.410151 -0.01831,1.524068 -0.405561,1.825228 -0.157483,0.12247 -0.811236,0.304072 -1.0145,0.304072 -0.172344,0 -0.629155,-0.222718 -0.507053,-0.101092 0.3521,0.350724 2.249874,0.488365 2.637145,0.101092"
       id="path9474" />
    <path
       style="fill:#000000;fill-opacity:0;stroke:#000000;stroke-width:0.7;stroke-linecap:round;stroke-linejoin:round;stroke-opacity:1"
       d="m 101.43335,83.699622 c 0.13244,-0.444733 0.3137,-2.19079 -0.71003,-1.622248 -0.39823,0.221163 -0.724081,0.604867 -0.913007,1.014103 -0.264618,0.573191 -0.362328,1.210323 -0.507053,1.824831 -0.182099,0.773219 -0.28775,2.43377 0.91301,2.43377 0.61874,0 1.09623,-0.42464 1.52155,-0.811122 0.90354,-0.821016 1.26554,-2.060104 0.50705,-3.143406 -0.35445,-0.506246 -0.37426,-0.387276 -0.91301,-0.507051 -0.13603,-0.03024 -0.26952,-0.131746 -0.40556,-0.101491 -0.56693,0.126095 -1.020851,0.912757 -1.115987,1.419667 -0.135292,0.720841 -0.0011,0.90915 0.202977,1.521156"
       id="path9478" />
    <path
       style="fill:#000000;fill-opacity:0;stroke:#000000;stroke-width:0.7;stroke-linecap:round;stroke-linejoin:round;stroke-opacity:1"
       d="m 125.50662,82.685519 c -0.28023,-0.05337 -0.42642,-0.443912 -0.71043,-0.507052 -1.55243,-0.345136 -3.03768,2.800712 -2.53565,4.056017 0.39939,0.998681 3.85462,1.222156 3.85462,-0.101489"
       id="path9484" />
    <path
       style="fill:#000000;fill-opacity:0;stroke:#000000;stroke-width:0.7;stroke-linecap:round;stroke-linejoin:round;stroke-opacity:1"
       d="m 128.54972,85.727434 c -0.74399,0.405561 -1.56134,0.698757 -2.23198,1.216686 -0.44136,0.340861 0.42325,1.216687 0.91301,1.216687 0.19529,0 0.78216,-0.238681 0.91301,-0.304072 0.23962,-0.119751 0.42881,-0.196451 0.30447,-0.507053 -0.27292,-0.681757 -1.92751,-0.03955 -1.92751,0.608541"
       id="path9486" />
    <path
       style="fill:#000000;fill-opacity:0;stroke:#000000;stroke-width:0.7;stroke-linecap:round;stroke-linejoin:round;stroke-opacity:1"
       d="m 130.7813,82.685519 c -0.34885,4.87987 -0.005,1.153399 -0.40595,4.15711 -0.009,0.06707 -0.0478,0.155138 0,0.20298 0.15759,0.157597 0,-0.47734 0,-0.811125"
       id="path9488" />
    <path
       style="fill:#000000;fill-opacity:0;stroke:#000000;stroke-width:0.7;stroke-linecap:round;stroke-linejoin:round;stroke-opacity:1"
       d="m 130.27386,85.524851 c 0.69308,-0.678958 1.65747,-0.01741 2.43456,-0.405959"
       id="path9490" />
    <path
       style="fill:#000000;fill-opacity:0;stroke:#000000;stroke-width:0.7;stroke-linecap:round;stroke-linejoin:round;stroke-opacity:1"
       d="m 133.21547,82.482936 c -0.0675,1.013971 -0.12263,2.028846 -0.20258,3.041915 -0.0412,0.522226 -0.15555,1.013706 -0.10149,1.013706 0.0698,0 0.20298,-0.437267 0.20298,-0.507051"
       id="path9492" />
    <path
       style="fill:#000000;fill-opacity:0;stroke:#000000;stroke-width:0.7;stroke-linecap:round;stroke-linejoin:round;stroke-opacity:1"
       d="m 135.14298,85.828923 c -0.14282,0.08571 -0.0866,1.404612 -0.20298,1.520759 -0.23681,0.236347 -0.20298,-0.185833 -0.20298,0.101489"
       id="path9498" />
    <path
       style="fill:#000000;fill-opacity:0;stroke:#000000;stroke-width:0.7;stroke-linecap:round;stroke-linejoin:round;stroke-opacity:1"
       d="m 136.86751,86.741537 c -0.80235,-0.777383 0.58209,-1.117129 0.81152,-0.811125 0.0641,0.08546 0.0614,0.204896 0.1011,0.304072 0.17387,0.434864 0.12471,0.463921 -0.20259,0.709636 -0.27647,0.207558 -0.3984,0.249595 -0.71003,0.405562 -0.0598,0.02993 -0.51905,0.292684 -0.40596,0.405561 0.20939,0.208981 0.93887,-0.04554 1.21748,-0.101092 0.0994,-0.01982 0.30408,0.101357 0.30408,0 0,-0.03383 -0.0677,0 -0.1015,0"
       id="path9500" />
    <path
       style="fill:#000000;fill-opacity:0;stroke:#000000;stroke-width:0.7;stroke-linecap:round;stroke-linejoin:round;stroke-opacity:1"
       d="m 141.93922,83.294061 c -0.16902,-0.236678 -0.30135,-0.504433 -0.50705,-0.710033 -0.34179,-0.341619 -1.09382,0.04726 -1.31897,0.304469 -0.46682,0.533284 -0.5606,1.35712 -0.60854,2.027812 -0.0287,0.401598 0.005,0.932997 0.10149,1.318175 0.72928,2.914288 3.69572,0.0114 2.94161,-1.926717 -0.14291,-0.367289 -0.27529,-0.803307 -0.60854,-1.013706 -1.24772,-0.787749 -2.15585,0.1969 -2.33307,1.318175 -0.0528,0.333759 0,0.675804 0,1.013707"
       id="path9504" />
    <path
       style="fill:#000000;fill-opacity:0;stroke:#000000;stroke-width:0.7;stroke-linecap:round;stroke-linejoin:round;stroke-opacity:1"
       d="m 144.88083,85.727434 c -0.37186,0.371732 -0.80458,0.691235 -1.11559,1.115195 -0.08,0.109003 0,0.270375 0,0.405564 0,0.323329 -0.0806,0.812847 0.10109,1.115592 0.37373,0.62272 0.83412,0.149084 1.11599,-0.202978 0.0598,-0.07462 0.16743,-0.113848 0.20298,-0.202584 0.0377,-0.09409 0,-0.202715 0,-0.304072 0,-0.135318 0.0533,-0.281591 0,-0.405958 -0.34007,-0.793062 -1.56085,-0.07093 -1.82602,0.405958 -0.0837,0.150535 -0.0677,0.33777 -0.10149,0.506656"
       id="path9506" />
    <path
       style="fill:#000000;fill-opacity:0;stroke:#000000;stroke-width:0.7;stroke-linecap:round;stroke-linejoin:round;stroke-opacity:1"
       d="m 147.51837,83.902206 c 0.6987,-2.141178 -0.14286,1.926717 0.50706,1.926717 0.12541,0 0.10149,-0.142325 0.10149,-0.20298"
       id="path9508" />
    <path
       style="fill:#000000;fill-opacity:0;stroke:#000000;stroke-width:0.7;stroke-linecap:round;stroke-linejoin:round;stroke-opacity:1"
       d="m 146.90944,85.220381 c 0.74386,0 1.48772,0 2.23158,0"
       id="path9510" />
    <path
       style="fill:#000000;fill-opacity:0;stroke:#000000;stroke-width:0.7;stroke-linecap:round;stroke-linejoin:round;stroke-opacity:1"
       d="m 152.79306,82.584028 c -0.16584,-0.827926 -0.0471,-1.046292 -1.31897,0.304469 -0.2282,0.242364 -0.26242,0.612069 -0.40556,0.912614 -0.19498,0.409403 -0.42428,0.802349 -0.60854,1.216687 -0.22674,0.509862 -0.25965,0.751916 -0.20298,1.318178 0.15354,1.534176 3.19359,0.793665 3.0431,-0.710033 -0.0151,-0.150421 -0.0836,-0.312788 -0.20298,-0.405562 -0.86432,-0.671798 -2.51208,-0.221038 -2.73863,0.912614 -0.0273,0.136655 0.0677,0.270375 0.10149,0.405562"
       id="path9512" />
    <path
       style="fill:#000000;fill-opacity:0;stroke:#000000;stroke-width:0.7;stroke-linecap:round;stroke-linejoin:round;stroke-opacity:1"
       d="m 156.74878,83.801111 c -1.62728,-3.769627 -3.57852,2.277735 -2.94161,3.041518 0.51712,0.620149 2.15469,0.178591 2.63754,-0.304072 0.36769,-0.367546 0.609,-0.81343 0.71003,-1.318176 0.0601,-0.300127 0.18566,-0.618336 0.10149,-0.912614 -0.0657,-0.229809 -0.36167,-0.317233 -0.50745,-0.506656 -0.19454,-0.252772 -0.21744,-0.67786 -0.50705,-0.811519 -0.25318,-0.116845 -0.56212,0.07828 -0.81152,0.202978 -0.96209,0.481044 -1.21709,1.22841 -1.21709,2.230792"
       id="path9514" />
    <path
       style="fill:#000000;fill-opacity:0;stroke:#000000;stroke-width:0.7;stroke-linecap:round;stroke-linejoin:round;stroke-opacity:1"
       d="m 158.16924,87.045609 c -1.02172,-1.475589 0.91261,-1.324226 0.91261,-0.507052 0,0.06745 -0.13795,0.688858 -0.30407,0.709636 -0.21214,0.02653 -0.56658,-0.412218 -0.60854,-0.202584 -0.25731,1.285553 2.06899,0.670682 2.43416,0.304073"
       id="path9516" />
    <path
       style="fill:#000000;fill-opacity:0;stroke:#000000;stroke-width:0.7;stroke-linecap:round;stroke-linejoin:round;stroke-opacity:1"
       d="m 162.12495,84.105184 c -2.35189,4.164541 -0.10109,2.169996 -0.10109,1.62225 0,-0.07553 -0.0677,-0.135057 -0.10149,-0.202583"
       id="path9518" />
    <path
       style="fill:#000000;fill-opacity:0;stroke:#000000;stroke-width:0.7;stroke-linecap:round;stroke-linejoin:round;stroke-opacity:1"
       d="m 161.21234,85.017798 c 0.53646,-0.775145 1.56517,0.281358 2.13009,0"
       id="path9520" />
    <path
       style="fill:#000000;fill-opacity:0;stroke:#000000;stroke-width:0.7;stroke-linecap:round;stroke-linejoin:round;stroke-opacity:1"
       d="m 167.90709,81.975883 c -0.67633,0.811125 -1.42495,1.567074 -2.029,2.433373 -0.1834,0.26302 -0.2263,0.601543 -0.30407,0.912614 -0.058,0.231817 -0.11983,0.47139 -0.10149,0.709636 0.17897,2.324479 3.55653,0.224587 2.43456,-1.216686 -0.13301,-0.170868 -0.30201,-0.337129 -0.50745,-0.405564 -0.82596,-0.27514 -2.54816,0.996355 -1.92711,1.92672 0.0677,0.101385 0.20298,0.135054 0.30447,0.202581"
       id="path9522" />
    <path
       style="fill:#000000;fill-opacity:0;stroke:#000000;stroke-width:0.7;stroke-linecap:round;stroke-linejoin:round;stroke-opacity:1"
       d="m 170.03718,81.772905 c 0.25442,1.49978 -0.20298,2.972848 -0.20298,4.461579 0,0.07553 0.0481,0.25599 0.10149,0.202584 0.0717,-0.07167 -0.0143,-0.203735 0,-0.304073 0.1261,-0.881681 0.10149,0.0086 0.10149,-0.709633"
       id="path9524" />
    <path
       style="fill:#000000;fill-opacity:0;stroke:#000000;stroke-width:0.7;stroke-linecap:round;stroke-linejoin:round;stroke-opacity:1"
       d="m 169.73271,84.612236 c 0.26504,-0.428066 1.8415,0.09355 2.43457,-0.20298"
       id="path9526" />
    <path
       style="fill:#000000;fill-opacity:0;stroke:#000000;stroke-width:0.7;stroke-linecap:round;stroke-linejoin:round;stroke-opacity:1"
       d="m 172.87731,81.570322 c -0.67153,3.164544 -0.67275,2.445943 -0.81152,4.664162 -0.006,0.101161 -0.0454,0.213453 0,0.304073 0.15313,0.305678 0.20298,-0.621075 0.20298,-1.013706"
       id="path9528" />
    <path
       style="fill:#000000;fill-opacity:0;stroke:#000000;stroke-width:0.7;stroke-linecap:round;stroke-linejoin:round;stroke-opacity:1"
       d="m 173.58734,86.437068 c -0.63489,-0.21172 0.5422,-1.452838 1.0145,-1.216687 0.30606,0.15303 -0.1567,1.364446 -0.40556,1.419667 -0.20888,0.04635 -0.78013,-0.33133 -0.60894,-0.20298 0.84821,0.635952 0.83212,0.549137 1.62304,0.405561 0.54235,-0.09845 0.38903,0.01778 0.60854,-0.202581"
       id="path9530" />
    <path
       style="fill:#000000;fill-opacity:0;stroke:#000000;stroke-width:0.7;stroke-linecap:round;stroke-linejoin:round;stroke-opacity:1"
       d="m 178.55795,83.699622 c -0.30927,-0.927227 -0.23633,-1.360511 -2.029,-0.507052 -0.32896,0.156614 -1.01527,3.852891 -0.20258,3.954528 0.39198,0.04902 0.91001,-0.216662 1.21708,-0.405561 0.66023,-0.406141 1.38087,-1.05043 1.62304,-1.825228 0.51794,-1.657072 -0.36144,-3.791371 -2.33307,-2.027812 -0.30749,0.275037 -0.51914,0.647981 -0.71003,1.013709 -0.21783,0.417351 -0.33803,0.878784 -0.50705,1.318175"
       id="path9532" />
    <path
       style="fill:#000000;fill-opacity:0;stroke:#000000;stroke-width:0.7;stroke-linecap:round;stroke-linejoin:round;stroke-opacity:1"
       d="m 40.852754,111.07051 c 0.06766,-0.40556 0.02689,-0.84513 0.20298,-1.21669 0.885026,-1.86747 3.663818,-5.42764 4.666147,-6.69237 1.013486,-1.27881 2.038712,-2.55174 3.144591,-3.751548 4.830493,-5.240763 9.029996,-9.32145 15.51959,-12.26875"
       id="path9536" />
    <path
       style="fill:#000000;fill-opacity:0;stroke:#000000;stroke-width:0.7;stroke-linecap:round;stroke-linejoin:round;stroke-opacity:1"
       d="m 62.255971,86.634102 c 0.669086,-0.0077 1.372534,0.02983 2.028602,-0.101492 0.07418,-0.01484 0.140039,-0.143449 0.202981,-0.101488 0.429416,0.286279 -1.159571,2.607532 -1.420064,3.041914"
       id="path9538" />
    <path
       style="fill:#000000;fill-opacity:0;stroke:#000000;stroke-width:0.7;stroke-linecap:round;stroke-linejoin:round;stroke-opacity:1"
       d="m 41.867256,114.11242 c -0.135321,-0.10149 -0.245496,-0.25096 -0.405961,-0.30447 -0.415665,-0.13861 -0.782923,0.1104 -1.115592,0.30447 -1.004215,0.58585 -1.861878,1.64445 -1.318969,2.83894 0.08157,0.17948 0.14881,0.38607 0.30447,0.50705 0.416946,0.32407 1.460254,0.39718 1.92751,0.20258 0.185682,-0.0773 0.769776,-0.64795 0.912614,-0.81112 0.191051,-0.21825 0.547828,-0.60815 0.101489,-0.60815"
       id="path9542" />
    <path
       style="fill:#000000;fill-opacity:0;stroke:#000000;stroke-width:0.7;stroke-linecap:round;stroke-linejoin:round;stroke-opacity:1"
       d="m 46.127442,115.32911 c -0.338167,-0.64224 -0.501137,-1.4136 -1.0145,-1.92672 -0.202597,-0.2025 -1.100809,0.79081 -1.115594,0.81113 -0.559314,0.76861 -0.863037,2.04741 -0.202978,2.83933 1.15321,1.38358 3.919659,-1.4289 2.637541,-2.83933 -0.812191,-0.89348 -2.484972,-0.23077 -2.637541,0.91261 -0.03256,0.244 0.135318,0.47335 0.202978,0.71003"
       id="path9544" />
    <path
       style="fill:#000000;fill-opacity:0;stroke:#000000;stroke-width:0.7;stroke-linecap:round;stroke-linejoin:round;stroke-opacity:1"
       d="m 48.562003,117.66099 c -0.230987,-1.15358 -0.446725,-0.77038 0.101491,-1.31817 0.06762,-0.0676 0.107387,-0.20259 0.202978,-0.20259 0.508402,0 0.455483,0.89903 0.304072,1.1152 -0.139848,0.19966 -0.459864,0.21238 -0.608541,0.40556 -0.203065,0.26385 -0.20151,0.64984 -0.405958,0.91262 -0.167077,0.21474 -0.605364,-0.20259 -0.710031,-0.20259 -0.257992,0 0.579673,0.39108 0.710031,0.40557 0.408082,0.0454 0.935315,0.063 1.318969,-0.10149 0.198294,-0.085 0.473564,-0.30408 0.71003,-0.30408"
       id="path9546" />
    <path
       style="fill:#000000;fill-opacity:0;stroke:#ff0085;stroke-width:0.7;stroke-linecap:round;stroke-linejoin:round;stroke-opacity:1"
       d="m 149.93076,89.972313 c 2.9367,-0.185283 5.95793,-0.331282 8.86331,0.249796"
       id="path10708" />
    <path
       style="fill:#000000;fill-opacity:0;stroke:#ff0085;stroke-width:0.7;stroke-linecap:round;stroke-linejoin:round;stroke-opacity:1"
       d="m 154.79931,89.59811 c -0.33289,0.0831 -0.68139,0.11874 -0.99869,0.249306 -1.46268,0.601885 -2.93348,1.698329 -4.36896,2.371095 -1.93401,0.906413 -2.85471,1.005182 -5.11834,1.622201 -1.20767,0.329181 -2.40235,0.708408 -3.62007,0.998201 -6.28805,1.49643 -12.79058,2.000964 -19.22392,2.370606 -7.30046,0.419465 -5.10925,0.428133 -12.60827,0.499589 -2.89249,0.02756 -10.188882,0.01537 -13.107374,-0.124897 C 87.638333,97.194149 79.645324,96.02168 71.661218,94.589117 65.156426,93.421985 69.507305,94.30146 62.423703,92.717611 57.965186,91.720716 57.948446,91.878128 53.685294,90.346516 50.37655,89.157793 47.442725,87.620852 44.572679,85.604815 c -2.272483,-1.596282 -4.625946,-3.350419 -4.993447,-6.363412 -0.211794,-1.7364 0.584684,-4.035875 1.372891,-5.490599 1.851187,-3.416564 4.953542,-6.36647 7.739724,-8.984303 3.310451,-3.110423 7.141239,-5.480031 10.985095,-7.861202 1.492351,-0.924472 2.958518,-1.895014 4.494347,-2.745298 2.832669,-1.568257 5.859905,-2.759212 8.737923,-4.242601 0.977098,-0.503616 1.906053,-1.095989 2.871171,-1.6222 1.323716,-0.721728 2.692292,-1.361898 3.994759,-2.1213 0.697857,-0.406884 1.319045,-0.933749 1.997379,-1.372407 2.432473,-1.572998 4.928312,-3.050828 7.365031,-4.616804 0.542272,-0.348496 2.372069,-1.51206 2.372069,-2.1213"
       id="path10716" />
    <path
       style="fill:#000000;fill-opacity:0;stroke:#ff0085;stroke-width:0.7;stroke-linecap:round;stroke-linejoin:round;stroke-opacity:1"
       d="m 90.760239,37.439391 c 0.499425,-0.166368 1.022969,-0.272857 1.498277,-0.4991 1.482715,-0.705765 1.397334,-1.458217 0.873792,-0.499102 -0.4279,0.783908 -0.848947,1.571871 -1.248484,2.370608 -0.183269,0.366388 -0.369551,0.734452 -0.499099,1.123098 -0.336193,1.008582 0.100959,0.523037 -0.249796,0.873792"
       id="path10718" />
  </g>
</svg>
