<?xml version="1.0" encoding="UTF-8" standalone="no"?>
<!-- Created with Inkscape (http://www.inkscape.org/) -->

<svg
   width="198.68112mm"
   height="125.56583mm"
   viewBox="0 0 198.68112 125.56583"
   version="1.1"
   id="svg15531"
   inkscape:version="1.2.2 (b0a8486541, 2022-12-01)"
   sodipodi:docname="kloroplastta-fotosentez.svg"
   xmlns:inkscape="http://www.inkscape.org/namespaces/inkscape"
   xmlns:sodipodi="http://sodipodi.sourceforge.net/DTD/sodipodi-0.dtd"
   xmlns="http://www.w3.org/2000/svg"
   xmlns:svg="http://www.w3.org/2000/svg">
  <sodipodi:namedview
     id="namedview15533"
     pagecolor="#ffffff"
     bordercolor="#000000"
     borderopacity="0.25"
     inkscape:showpageshadow="2"
     inkscape:pageopacity="0.0"
     inkscape:pagecheckerboard="0"
     inkscape:deskcolor="#d1d1d1"
     inkscape:document-units="mm"
     showgrid="true"
     inkscape:zoom="3.013013"
     inkscape:cx="513.93737"
     inkscape:cy="20.909302"
     inkscape:window-width="1916"
     inkscape:window-height="1026"
     inkscape:window-x="0"
     inkscape:window-y="0"
     inkscape:window-maximized="1"
     inkscape:current-layer="layer1">
    <inkscape:grid
       type="xygrid"
       id="grid18247"
       units="mm"
       spacingx="5"
       spacingy="5"
       empspacing="1"
       originx="-36.895183"
       originy="-17.892058" />
  </sodipodi:namedview>
  <defs
     id="defs15528">
    <rect
       x="199.21918"
       y="66.877159"
       width="133.04045"
       height="67.603554"
       id="rect2614" />
  </defs>
  <g
     inkscape:label="Layer 1"
     inkscape:groupmode="layer"
     id="layer1"
     transform="translate(-36.895182,-17.892058)">
    <rect
       style="fill:#00e567;fill-opacity:0.570707;stroke:#000000;stroke-width:0.804927;stroke-linecap:round;stroke-linejoin:round;stroke-opacity:0"
       id="rect19663"
       width="98.927017"
       height="120.68953"
       x="37.297646"
       y="22.365898"
       ry="0" />
    <rect
       style="fill:#ff6e00;fill-opacity:0.491811;stroke:#000000;stroke-width:0.804927;stroke-linecap:round;stroke-linejoin:round;stroke-opacity:0"
       id="rect19665"
       width="98.927017"
       height="120.68953"
       x="136.24683"
       y="22.365898"
       ry="0" />
    <path
       style="fill:#00e567;fill-opacity:0;stroke:#ff8100;stroke-width:0.7;stroke-linecap:round;stroke-linejoin:round;stroke-opacity:1"
       d="m 44.531176,18.834323 5.502773,16.808224"
       id="path20494" />
    <path
       style="fill:#00e567;fill-opacity:0;stroke:#ff8100;stroke-width:0.7;stroke-linecap:round;stroke-linejoin:round;stroke-opacity:1"
       d="m 47.782699,33.057102 c -0.02574,-0.04292 -0.127278,-0.128775 -0.07722,-0.128775 0.08841,0 0.161703,0.075 0.231876,0.128775 0.188481,0.144457 0.36898,0.299815 0.540977,0.463553 0.585767,0.557638 0.691679,0.757637 1.210829,1.467776 0.07692,0.105211 0.476398,0.724164 0.669753,0.772551 0.01664,0.0042 0.0064,-0.03552 0,-0.05145 -0.02852,-0.07131 -0.06685,-0.138337 -0.103,-0.206099 -0.135141,-0.253315 -0.244491,-0.429247 -0.283427,-0.721001 -0.12565,-0.94153 -0.141774,-1.911379 -0.07722,-2.858431 0.01058,-0.155072 0.03294,-0.309123 0.05145,-0.463449 0.0097,-0.08086 -0.0041,-0.231775 0.07733,-0.231775 0.03433,0 0,0.06867 0,0.102999"
       id="path20500" />
    <path
       style="fill:#00e567;fill-opacity:0;stroke:#ff8100;stroke-width:0.7;stroke-linecap:round;stroke-linejoin:round;stroke-opacity:1"
       d="m 42.45044,21.45274 5.502773,16.808224"
       id="path20494-7" />
    <path
       style="fill:#00e567;fill-opacity:0;stroke:#ff8100;stroke-width:0.7;stroke-linecap:round;stroke-linejoin:round;stroke-opacity:1"
       d="m 45.701963,35.675519 c -0.02574,-0.04292 -0.127278,-0.128775 -0.07722,-0.128775 0.08841,0 0.161703,0.075 0.231876,0.128775 0.188481,0.144457 0.36898,0.299815 0.540977,0.463553 0.585767,0.557638 0.691679,0.757637 1.210829,1.467776 0.07692,0.105211 0.476398,0.724164 0.669753,0.772551 0.01664,0.0042 0.0064,-0.03552 0,-0.05145 -0.02852,-0.07131 -0.06685,-0.138337 -0.103,-0.206099 -0.135141,-0.253315 -0.244491,-0.429247 -0.283427,-0.721001 -0.12565,-0.94153 -0.141774,-1.911379 -0.07722,-2.858431 0.01058,-0.155072 0.03294,-0.309123 0.05145,-0.463449 0.0097,-0.08086 -0.0041,-0.231775 0.07733,-0.231775 0.03433,0 0,0.06867 0,0.102999"
       id="path20500-5" />
    <path
       style="fill:#00e567;fill-opacity:0;stroke:#ff8100;stroke-width:0.7;stroke-linecap:round;stroke-linejoin:round;stroke-opacity:1"
       d="m 50.270023,21.281047 c 0.06358,-0.127131 0.129072,-0.253326 0.190749,-0.381392 0.160605,-0.333473 0.186994,-0.372156 0.272544,-0.735412 0.0062,-0.02654 0.0122,-0.106177 0,-0.08179 -0.04758,0.09507 -0.07007,0.2008 -0.109061,0.299703 -0.276743,0.702051 -0.274576,0.587694 -0.490453,1.389242 -0.05558,0.206353 -0.142779,0.412849 -0.136324,0.626458 0.01191,0.394021 0.37728,0.299249 0.599512,0.190643 0.479674,-0.234421 1.017153,-0.647037 1.335352,-1.089539 0.06043,-0.08404 0.05446,-0.199731 0.08169,-0.299597"
       id="path20597" />
    <path
       style="fill:#00e567;fill-opacity:0;stroke:#ff8100;stroke-width:0.7;stroke-linecap:round;stroke-linejoin:round;stroke-opacity:1"
       d="m 54.820949,20.327621 c -0.260271,-0.585104 -0.420682,-1.164726 -1.498833,0.544769 -0.298624,0.473491 1.486953,0.437091 1.199026,0.980692 -0.132797,0.250713 -0.323911,0.366215 -0.572249,0.490345 -0.408334,0.204104 -0.992664,0.547884 -1.47157,0.326862 -0.04234,-0.01954 0.0033,-0.14649 0.13622,-0.190749 0.175417,-0.05841 0.423085,-0.03422 0.572352,0.08179 0.312905,0.243202 0.258226,0.655896 0.163486,0.980585 -0.03756,0.12871 -0.15826,0.224045 -0.190751,0.354127 -0.007,0.02785 0.01659,0.05504 0.02726,0.08169 0.06276,0.156776 0.444866,-1.81e-4 0.517719,-0.02716 0.428315,-0.158603 0.346657,-0.116282 0.599514,-0.326968"
       id="path20599" />
    <path
       style="fill:#00e567;fill-opacity:0;stroke:#ff8100;stroke-width:0.7;stroke-linecap:round;stroke-linejoin:round;stroke-opacity:1"
       d="m 55.638477,22.425116 c 0.190749,-0.535716 0.403876,-1.063985 0.572249,-1.60715 0.03237,-0.10443 0.06569,-0.42922 0.02726,-0.326861 -0.06508,0.17338 -0.06933,0.363887 -0.109058,0.544769 -0.04205,0.191447 -0.0992,0.379553 -0.136221,0.572035 -0.04666,0.242617 -0.208402,0.91256 -0.109058,1.253023 0.02752,0.09431 0.0699,0.215594 0.163589,0.245173 0.298074,0.0941 0.993878,-0.509675 1.144495,-0.735519 0.04645,-0.06965 0.03635,-0.163449 0.05453,-0.245173"
       id="path20601" />
    <path
       style="fill:#00e567;fill-opacity:0;stroke:#ff8100;stroke-width:0.7;stroke-linecap:round;stroke-linejoin:round;stroke-opacity:1"
       d="m 58.200011,21.172093 c 0.299242,-0.916693 0.4463,-1.936728 0.490559,-2.887438 0.01003,-0.215579 -0.111876,0.416907 -0.163483,0.626459 -0.09374,0.380655 -0.177419,0.763757 -0.272545,1.144069 -0.173154,0.69226 -0.387358,1.374269 -0.544983,2.07023 -0.03858,0.170363 -0.06665,0.343591 -0.08179,0.517611 -0.0033,0.0373 -0.0039,0.129716 0.02726,0.108954 0.210558,-0.140325 0.701426,-0.898967 0.762997,-0.980585 0.25712,-0.340832 0.528098,-0.670991 0.790263,-1.007957 0.119338,-0.153387 0.235702,-0.309068 0.354232,-0.463081 0.06317,-0.08207 0.114195,-0.175537 0.190858,-0.245172 0.0277,-0.02517 0.103677,-0.06421 0.108952,-0.02716 0.02654,0.186367 -0.409773,0.598215 -0.490558,0.680989 -0.547291,0.560767 -0.841174,0.744631 -1.335244,1.361976 -0.0915,0.11433 -0.244208,0.237318 -0.218014,0.381392 0.02342,0.128864 0.198102,0.194497 0.326967,0.217908 0.188563,0.03426 0.383619,-0.02124 0.572354,-0.05453 0.502595,-0.06273 0.974646,-0.26646 1.471465,-0.354127 0.797584,-0.140739 -0.276977,0.735157 0.354338,0.980691 0.155196,0.06036 0.790262,0.0092 0.790262,-0.245172 0,-0.04061 -0.03635,-0.07264 -0.05453,-0.108954"
       id="path20603" />
    <path
       style="fill:#00e567;fill-opacity:0;stroke:#000000;stroke-width:0.7;stroke-linecap:round;stroke-linejoin:round;stroke-opacity:1"
       d="m 52.756789,35.488827 c 0.322212,1.397047 0.06598,2.805027 -0.205317,4.187885 -0.153575,0.782828 -0.722881,3.089466 -0.944713,3.941472 -0.103738,0.398436 -0.217874,0.794096 -0.328602,1.190646 -0.0536,0.191955 -0.04851,0.412702 -0.164383,0.574855 -0.04776,0.06683 -0.164274,0 -0.246412,0"
       id="path20800" />
    <path
       style="fill:#00e567;fill-opacity:0;stroke:#000000;stroke-width:0.7;stroke-linecap:round;stroke-linejoin:round;stroke-opacity:1"
       d="m 52.962108,37.295423 c -0.09584,-0.150577 -0.244218,-0.278572 -0.287509,-0.451729 -0.106987,-0.427953 0.601181,-1.063715 0.944716,-1.149551 0.199686,-0.04989 0.423375,-0.03114 0.616108,0.0411 1.074468,0.402731 1.774246,1.899743 1.232223,2.956145 -0.160038,0.311917 -0.401868,0.580887 -0.657206,0.821108 -0.647044,0.60874 -1.40792,0.773583 -2.21787,0.410633 -0.180221,-0.08076 -0.38054,-0.166253 -0.492988,-0.328602 -0.04543,-0.06559 0.05109,-0.171201 0.123288,-0.205158 0.177388,-0.08343 0.383345,-0.08219 0.575017,-0.123285"
       id="path20804" />
    <path
       style="fill:#00e567;fill-opacity:0;stroke:#000000;stroke-width:0.7;stroke-linecap:round;stroke-linejoin:round;stroke-opacity:1"
       d="m 57.76787,40.744232 c -0.06844,-0.109482 -0.09868,-0.401233 -0.205319,-0.328443 -2.00895,1.37128 -1.842564,1.183886 -0.698302,2.217068 0.158705,0.143298 0.345332,0.25582 0.492826,0.410633 0.335587,0.352245 0.632783,0.92777 0.205476,1.354868 -0.543534,0.543269 -2.731397,0.627168 -3.12165,-0.08219 -0.300577,-0.546356 0.512049,-0.814805 0.862524,-0.697981"
       id="path20806" />
    <path
       style="fill:#00e567;fill-opacity:0;stroke:#000000;stroke-width:0.7;stroke-linecap:round;stroke-linejoin:round;stroke-opacity:1"
       d="m 59.616202,43.823503 0.04109,2.217068"
       id="path20812" />
    <path
       style="fill:#00e567;fill-opacity:0;stroke:#000000;stroke-width:0.7;stroke-linecap:round;stroke-linejoin:round;stroke-opacity:1"
       d="m 58.876805,46.122761 c 0.414716,-0.124317 0.866921,-0.328443 1.314413,-0.328443 0.183129,0 0.723281,0.08203 0.492823,0.08203"
       id="path20814" />
    <path
       style="fill:#00e567;fill-opacity:0;stroke:#000000;stroke-width:0.7;stroke-linecap:round;stroke-linejoin:round;stroke-opacity:1"
       d="m 59.123217,43.905693 c 0.08219,-0.06844 0.147838,-0.164197 0.246573,-0.205316 0.129315,-0.05386 0.95668,0.01196 1.06784,0.123126"
       id="path20816" />
    <path
       style="fill:#00e567;fill-opacity:0;stroke:#000000;stroke-width:0.7;stroke-linecap:round;stroke-linejoin:round;stroke-opacity:1"
       d="m 60.520462,42.190921 c 5.979131,3.715194 10.988876,9.981665 8.625555,20.487536 M 65.58837,55.97203"
       id="path20822"
       sodipodi:nodetypes="cc" />
    <path
       style="fill:#00e567;fill-opacity:0;stroke:#000000;stroke-width:0.7;stroke-linecap:round;stroke-linejoin:round;stroke-opacity:1"
       d="M 57.412763,67.111628 C 51.433632,63.396434 46.423887,57.129963 48.787208,46.624092 m 3.557647,6.706427"
       id="path20822-3"
       sodipodi:nodetypes="cc" />
    <path
       style="fill:#00e567;fill-opacity:0;stroke:#000000;stroke-width:0.7;stroke-linecap:round;stroke-linejoin:round;stroke-opacity:1"
       d="m 68.4609,59.341022 c 0.106296,0.569687 0.245118,1.13276 0.356137,1.701477 0.379746,1.945288 -0.01032,-0.04619 0.237633,1.503606 0.0024,0.01495 0.09494,0.466892 0.11866,0.4748 0.02138,0.0071 0.13032,-0.147077 0.198027,-0.237323 0.118729,-0.158253 0.239112,-0.315281 0.356137,-0.474798 0.786413,-1.071978 0.250458,-0.335769 0.950061,-1.384945 0.08934,-0.13398 0.181827,-0.265904 0.277082,-0.395746 0.146079,-0.199112 0.226965,-0.248197 0.03961,-0.435192"
       id="path21016" />
    <path
       style="fill:#00e567;fill-opacity:0;stroke:#000000;stroke-width:0.7;stroke-linecap:round;stroke-linejoin:round;stroke-opacity:1"
       d="m 47.322689,47.866178 c 0.540962,-0.408895 1.086228,-0.812152 1.622885,-1.22668 0.30928,-0.238898 -0.08662,-0.380595 -0.11866,0.197871 -0.0067,0.120314 0.117192,1.059611 0.11866,1.068414 0.08963,0.537626 0.167365,0.72059 0.356294,1.266129 0.06012,0.173601 0.115752,0.350063 0.197871,0.514403 0.0083,0.01669 0.03961,0.02093 0.03961,0.03961 0,0.0132 -0.0264,0 -0.03961,0 -0.03956,0 -0.08575,0.02193 -0.118663,0 -0.03957,-0.02638 -0.04552,-0.0851 -0.07921,-0.118661"
       id="path21018" />
    <path
       style="fill:#00e567;fill-opacity:0;stroke:#000000;stroke-width:0.7;stroke-linecap:round;stroke-linejoin:round;stroke-opacity:1"
       d="m 61.646748,63.535587 c 0.322212,1.397047 0.06598,2.805027 -0.205317,4.187885 -0.153575,0.782828 -0.722881,3.089466 -0.944713,3.941472 -0.103738,0.398436 -0.217874,0.794096 -0.328602,1.190646 -0.0536,0.191955 -0.04851,0.412702 -0.164383,0.574855 -0.04776,0.06683 -0.164274,0 -0.246412,0"
       id="path20800-0" />
    <path
       style="fill:#00e567;fill-opacity:0;stroke:#000000;stroke-width:0.7;stroke-linecap:round;stroke-linejoin:round;stroke-opacity:1"
       d="m 61.852067,65.342183 c -0.09584,-0.150577 -0.244218,-0.278572 -0.287509,-0.451729 -0.106987,-0.427953 0.601181,-1.063715 0.944716,-1.149551 0.199686,-0.04989 0.423375,-0.03114 0.616108,0.0411 1.074468,0.402731 1.774246,1.899743 1.232223,2.956145 -0.160038,0.311917 -0.401868,0.580887 -0.657206,0.821108 -0.647044,0.60874 -1.40792,0.773583 -2.21787,0.410633 -0.180221,-0.08076 -0.38054,-0.166253 -0.492988,-0.328602 -0.04543,-0.06559 0.05109,-0.171201 0.123288,-0.205158 0.177388,-0.08343 0.383345,-0.08219 0.575017,-0.123285"
       id="path20804-9" />
    <path
       style="fill:#00e567;fill-opacity:0;stroke:#000000;stroke-width:0.7;stroke-linecap:round;stroke-linejoin:round;stroke-opacity:1"
       d="m 66.657829,68.790992 c -0.06844,-0.109482 -0.09868,-0.401233 -0.205319,-0.328443 -2.00895,1.37128 -1.842564,1.183886 -0.698302,2.217068 0.158705,0.143298 0.345332,0.25582 0.492826,0.410633 0.335587,0.352245 0.632783,0.92777 0.205476,1.354868 -0.543534,0.543269 -2.731397,0.627168 -3.12165,-0.08219 -0.300577,-0.546356 0.512049,-0.814805 0.862524,-0.697981"
       id="path20806-3" />
    <path
       style="fill:#00e567;fill-opacity:0;stroke:#000000;stroke-width:0.7;stroke-linecap:round;stroke-linejoin:round;stroke-opacity:1"
       d="m 68.506161,71.870263 0.04109,2.217068"
       id="path20812-6" />
    <path
       style="fill:#00e567;fill-opacity:0;stroke:#000000;stroke-width:0.7;stroke-linecap:round;stroke-linejoin:round;stroke-opacity:1"
       d="m 67.766764,74.169521 c 0.414716,-0.124317 0.866921,-0.328443 1.314413,-0.328443 0.183129,0 0.723281,0.08203 0.492823,0.08203"
       id="path20814-0" />
    <path
       style="fill:#00e567;fill-opacity:0;stroke:#000000;stroke-width:0.7;stroke-linecap:round;stroke-linejoin:round;stroke-opacity:1"
       d="m 68.013176,71.952453 c 0.08219,-0.06844 0.147838,-0.164197 0.246573,-0.205316 0.129315,-0.05386 0.95668,0.01196 1.06784,0.123126"
       id="path20816-6" />
    <path
       style="fill:#00e567;fill-opacity:0;stroke:#000000;stroke-width:0.7;stroke-linecap:round;stroke-linejoin:round;stroke-opacity:1"
       d="m 66.422023,63.379648 c -0.17182,0.807445 -0.343638,1.61489 -0.515458,2.422335 -0.0172,0.03439 -0.05159,0.141621 -0.05159,0.103171 0,-0.05438 0.03439,-0.103171 0.05159,-0.15476"
       id="path21124" />
    <path
       style="fill:#00e567;fill-opacity:0;stroke:#000000;stroke-width:0.7;stroke-linecap:round;stroke-linejoin:round;stroke-opacity:1"
       d="m 65.081588,64.307394 c 0.108554,0.720844 1.772084,-0.442974 2.320169,0.10297"
       id="path21126" />
    <path
       style="fill:#00e567;fill-opacity:0;stroke:#000000;stroke-width:0.7;stroke-linecap:round;stroke-linejoin:round;stroke-opacity:1"
       d="m 68.070377,46.854792 c 0,-0.170648 -0.0502,-0.34885 0,-0.511948 0.262054,-0.851326 1.278827,-2.537198 1.664708,-3.071942 1.027523,-1.423908 2.634023,-3.088542 4.033282,-4.095586 1.013629,-0.729506 4.803992,-2.502273 5.697993,-2.880023 0.895032,-0.378185 3.531205,-1.32387 4.73765,-1.663957 0.531143,-0.149725 0.912945,-0.04739 0.768421,-0.191918"
       id="path21132" />
    <path
       style="fill:#00e567;fill-opacity:0;stroke:#000000;stroke-width:0.7;stroke-linecap:round;stroke-linejoin:round;stroke-opacity:1"
       d="m 72.42394,36.423406 c -1.032267,0 0.169571,0.02545 1.79257,-0.640061 0.893945,-0.366572 1.017498,-1.980941 -0.512199,-1.279872 -0.945959,0.433541 -1.956183,2.567213 -0.640058,3.263861 0.173826,0.09201 0.379531,0.136797 0.576003,0.12786 0.719074,-0.0327 2.944667,-0.895948 1.920682,-1.919931"
       id="path21134" />
    <path
       style="fill:#00e567;fill-opacity:0;stroke:#000000;stroke-width:0.7;stroke-linecap:round;stroke-linejoin:round;stroke-opacity:1"
       d="m 72.10391,33.799356 c 1.269744,-0.507799 0.430369,-0.162007 2.496688,-1.087953"
       id="path21136" />
    <path
       style="fill:#00e567;fill-opacity:0;stroke:#000000;stroke-width:0.7;stroke-linecap:round;stroke-linejoin:round;stroke-opacity:1"
       d="m 82.923638,33.543382 c 0.713365,-0.118506 0.04378,-0.04471 0.896284,0 0.234469,0.0123 0.469845,-0.01116 0.704369,0 0.214175,0.01021 0.426058,0.05068 0.640058,0.06406 0.170403,0.01066 0.359553,-0.07647 0.512199,0 0.05394,0.02702 -0.08244,0.0884 -0.127859,0.128114 -0.136301,0.119187 -0.260218,0.252013 -0.38434,0.383836 -0.820827,0.871752 -0.586102,0.600464 -1.280369,1.728013 -0.130423,0.211814 -0.253679,0.427987 -0.384087,0.63981 -0.04036,0.06556 -0.128111,0.115183 -0.128111,0.192169 0,0.307052 0.377383,-0.432525 0.576254,-0.896035"
       id="path21140" />
    <rect
       style="fill:#00e567;fill-opacity:0;stroke:#000000;stroke-width:0.7;stroke-linecap:round;stroke-linejoin:round;stroke-dasharray:none;stroke-opacity:1"
       id="rect21194"
       width="41.336185"
       height="53.58469"
       x="89.455643"
       y="27.768356" />
    <path
       style="fill:#00e567;fill-opacity:0;stroke:#000000;stroke-width:0.7;stroke-linecap:round;stroke-linejoin:round;stroke-opacity:1"
       d="m 105.53996,20.872034 c 0.14825,1.333036 0.19488,1.004016 0,2.367824 -0.005,0.0357 -0.4688,2.134581 -0.44814,2.175906 0.0623,0.124617 0.3179,0.117096 0.38409,0.128112 0.74444,0.123913 1.51904,0.167374 2.24096,0.383836 7.9e-4,2.65e-4 0.27108,0.113007 0.32003,0.06406 0.01,-0.0099 -0.24847,-0.312275 -0.25622,-0.32003"
       id="path21248" />
    <path
       style="fill:#00e567;fill-opacity:0;stroke:#000000;stroke-width:0.7;stroke-linecap:round;stroke-linejoin:round;stroke-opacity:1"
       d="m 105.60402,23.303914 c 0.64565,-0.02159 1.68323,0.23854 2.24071,-0.32003"
       id="path21250" />
    <path
       style="fill:#00e567;fill-opacity:0;stroke:#000000;stroke-width:0.7;stroke-linecap:round;stroke-linejoin:round;stroke-opacity:1"
       d="m 105.53996,20.552003 c 0.68391,-0.847371 1.87199,0.0591 2.62505,-0.191918"
       id="path21252" />
    <path
       style="fill:#00e567;fill-opacity:0;stroke:#000000;stroke-width:0.7;stroke-linecap:round;stroke-linejoin:round;stroke-opacity:1"
       d="m 110.08569,22.663853 c -0.70382,0.06753 -0.83573,-1.920223 -0.0641,-1.791819 0.3869,0.06438 0.66739,0.314035 1.0244,0.447892 0.16621,0.06232 0.68658,0.171013 0.89629,0.191918 0.35107,0.035 0.51415,-0.189726 0.25598,-0.447892"
       id="path21254" />
    <path
       style="fill:#00e567;fill-opacity:0;stroke:#000000;stroke-width:0.7;stroke-linecap:round;stroke-linejoin:round;stroke-opacity:1"
       d="m 110.59789,21.639956 c 0.064,1.130574 0.12795,2.261147 0.19192,3.391721 -0.0213,0.192002 -0.0641,0.38282 -0.0641,0.576005 0,0.03104 0.16446,-0.0181 0.25623,-0.06381"
       id="path21256" />
    <path
       style="fill:#00e567;fill-opacity:0;stroke:#000000;stroke-width:0.7;stroke-linecap:round;stroke-linejoin:round;stroke-opacity:1"
       d="m 116.23183,21.383982 c -0.36281,-0.08533 -0.71603,-0.270878 -1.08845,-0.255974 -0.23163,0.0093 -0.96034,0.591154 -0.96034,0.896035 0,0.02681 0.31376,0.443714 0.32003,0.447892 0.11237,0.07485 0.25744,0.08175 0.38434,0.127862 0.34027,0.123659 1.38115,0.389599 1.6004,0.640061 0.58305,0.666063 -0.4768,1.44422 -0.96034,1.663957 -0.31426,0.142808 -1.34624,0.436914 -1.66446,0.447892 -0.32275,0.01114 -0.64618,-0.05308 -0.96034,-0.127862 -0.13927,-0.03315 -0.25978,-0.121163 -0.38409,-0.192168 -0.0262,-0.01495 -0.0942,-0.06381 -0.0641,-0.06381 0.0674,0 0.12502,0.05547 0.19192,0.06381 0.16943,0.02111 0.34147,0 0.5122,0"
       id="path21258" />
  </g>
</svg>
