<?xml version="1.0" encoding="UTF-8" standalone="no"?>
<!-- Created with Inkscape (http://www.inkscape.org/) -->

<svg
   width="116.86458mm"
   height="138.39015mm"
   viewBox="0 0 116.86458 138.39015"
   version="1.1"
   id="svg1246"
   inkscape:version="1.2.2 (b0a8486541, 2022-12-01)"
   sodipodi:docname="üç-tabakalı-canlılar.svg"
   xmlns:inkscape="http://www.inkscape.org/namespaces/inkscape"
   xmlns:sodipodi="http://sodipodi.sourceforge.net/DTD/sodipodi-0.dtd"
   xmlns="http://www.w3.org/2000/svg"
   xmlns:svg="http://www.w3.org/2000/svg">
  <sodipodi:namedview
     id="namedview1248"
     pagecolor="#ffffff"
     bordercolor="#000000"
     borderopacity="0.25"
     inkscape:showpageshadow="2"
     inkscape:pageopacity="0.0"
     inkscape:pagecheckerboard="0"
     inkscape:deskcolor="#d1d1d1"
     inkscape:document-units="mm"
     showgrid="false"
     inkscape:zoom="0.88865008"
     inkscape:cx="111.40493"
     inkscape:cy="258.81953"
     inkscape:window-width="1916"
     inkscape:window-height="1026"
     inkscape:window-x="0"
     inkscape:window-y="0"
     inkscape:window-maximized="1"
     inkscape:current-layer="layer1" />
  <defs
     id="defs1243" />
  <g
     inkscape:label="Layer 1"
     inkscape:groupmode="layer"
     id="layer1"
     transform="translate(-31.604434,-2.3957278)">
    <path
       style="fill:#0000ff;stroke-width:0.264583"
       id="path1325"
       d="M 62.363405,14.060059 C 62.083447,13.744802 61.838969,13.39404 61.523527,13.11429 60.953983,12.609188 60.364464,12.118095 59.718855,11.714738 56.460794,9.6792033 52.589189,8.5030539 48.749574,8.3346069 47.324552,8.2720901 45.901482,8.498197 44.477437,8.5799921 c -3.331213,1.1823874 -4.571841,1.1930348 -7.12729,3.7898879 -3.234926,3.287339 -4.976101,8.313098 -5.549448,12.788336 -0.216583,1.690528 -0.130842,3.406176 -0.196265,5.109265 0.253026,1.624071 0.321556,3.28785 0.759076,4.872212 0.413584,1.49769 0.975058,2.978322 1.776428,4.309465 1.473796,2.448094 3.896067,4.672316 6.574036,5.744191 3.623533,1.450343 5.952784,1.027657 9.754315,0.972907 1.784789,-0.397571 3.60654,-0.655471 5.354372,-1.19271 4.81534,-1.480113 9.699461,-4.096445 12.691748,-8.297791 2.576274,-3.617243 2.302544,-4.900612 3.043454,-9.161827 -0.175926,-1.655067 -0.04676,-3.371835 -0.527783,-4.965203 -1.037304,-3.436067 -3.426491,-6.625054 -6.306034,-8.729877 -2.883812,-2.107944 -6.65467,-3.400994 -10.182669,-3.795566 -1.481204,-0.165658 -2.980005,0.07209 -4.470006,0.108137 -0.706837,0.01958 -0.679143,1.019198 0.02769,0.999616 v 0 c 1.40688,-0.04421 2.820871,-0.28068 4.220639,-0.132632 3.333908,0.352616 6.956094,1.561592 9.69704,3.527355 2.68918,1.928639 5.025498,4.946592 6.019352,8.132471 0.46848,1.501757 0.357185,3.125926 0.535776,4.68889 -0.655484,3.992022 -0.393017,5.237588 -2.78276,8.640199 -2.866263,4.081102 -7.541718,6.565651 -12.185724,8.010564 -1.681475,0.523166 -3.434733,0.779013 -5.152102,1.168519 -3.520511,0.06946 -5.847934,0.475851 -9.210825,-0.823235 -2.488679,-0.961377 -4.797052,-3.021798 -6.177143,-5.277898 -0.76985,-1.258511 -1.313259,-2.660991 -1.71202,-4.08138 -0.426964,-1.520841 -0.498362,-3.119721 -0.747541,-4.67958 0.05792,-1.644031 -0.02954,-3.299655 0.173776,-4.932096 0.524232,-4.209105 2.166448,-9.07683 5.174051,-12.203412 2.348114,-2.441001 3.496699,-2.45855 6.585559,-3.5905921 1.357008,-0.08455 2.712476,-0.308179 4.071019,-0.2536503 1.389885,0.055787 2.775164,0.2769489 4.132104,0.5829044 2.922611,0.658975 5.766416,1.897241 8.038181,3.873802 0.282512,0.245802 0.502023,0.555789 0.753034,0.833683 0.392364,0.58826 1.22429,0.03337 0.831924,-0.554888 z" />
    <path
       style="fill:#0000ff;stroke-width:0.264583"
       id="path1329"
       d="m 55.990291,18.305157 c -0.206584,-0.155635 -0.397878,-0.333976 -0.619755,-0.466905 -2.066393,-1.237993 -4.562245,-1.442279 -6.865339,-0.763207 -0.767771,0.226379 -1.475253,0.621686 -2.21288,0.932528 -0.651896,0.487485 -1.371579,0.895513 -1.955692,1.462455 -2.515441,2.441494 -3.589226,6.023504 -3.70568,9.444294 -0.02777,0.815772 0.06873,1.631038 0.103095,2.446558 0.160703,0.725458 0.242496,1.473025 0.482108,2.176375 0.476343,1.398246 1.085493,2.328703 2.337012,3.159966 1.273146,0.845624 2.854309,1.172739 4.338291,1.328092 0.927793,0.09713 1.86464,0.06364 2.796958,0.09546 2.451523,-0.171714 3.519421,-0.128061 5.905701,-0.765458 1.725565,-0.460915 3.220389,-1.00539 4.462756,-2.356429 0.517348,-0.562605 0.968949,-1.227029 1.194231,-1.957388 0.264173,-0.856435 0.157139,-1.785604 0.235709,-2.678403 -0.194728,-0.987473 -0.288975,-2.000195 -0.584184,-2.962415 -1.161573,-3.786098 -3.931666,-8.250013 -8.017102,-9.342651 -0.845886,-0.22623 -1.747732,-0.110647 -2.621595,-0.16597 -0.706244,-0.03493 -0.755642,0.96385 -0.0494,0.998779 v 0 c 0.750576,0.02502 1.522355,-0.10384 2.251731,0.07506 3.810143,0.934528 6.352284,5.165368 7.456424,8.634087 0.278437,0.874723 0.37763,1.79668 0.566444,2.69502 -0.03331,0.746474 0.09214,1.517314 -0.09993,2.239422 -0.164219,0.6174 -0.518581,1.190091 -0.939991,1.670262 -1.110877,1.265782 -2.458114,1.740419 -4.043608,2.168559 -2.2937,0.619379 -3.324701,0.578454 -5.685004,0.748046 -2.172383,-0.06553 -4.553469,0.03033 -6.494254,-1.163553 -1.813345,-1.115496 -2.107382,-2.698861 -2.493282,-4.641201 -0.03584,-0.76617 -0.129913,-1.531829 -0.107503,-2.29851 0.09183,-3.141734 1.031452,-6.476393 3.314774,-8.750793 0.519737,-0.517707 1.163669,-0.893565 1.745506,-1.340347 0.663316,-0.288834 1.298575,-0.65339 1.98995,-0.866503 2.033257,-0.626744 4.249095,-0.487054 6.098548,0.580698 0.181893,0.105011 0.339349,0.247567 0.509024,0.371351 0.500123,0.499878 1.207058,-0.207402 0.706935,-0.70728 z" />
    <path
       style="fill:#0000ff;stroke-width:0.264583"
       id="path1331"
       d="m 53.250919,23.499465 c -0.337761,-0.06239 -0.671279,-0.155418 -1.013285,-0.187173 -1.502738,-0.139529 -3.516323,-0.02981 -4.49562,1.323944 -0.233855,0.323277 -0.330229,0.726454 -0.495345,1.089681 -0.05247,0.413128 -0.155498,0.822943 -0.157398,1.239387 -0.0082,1.799185 0.80768,3.812706 2.226768,4.954082 0.386485,0.310851 0.851895,0.508201 1.277839,0.762301 0.503,0.103786 0.995453,0.304327 1.508998,0.311357 2.225302,0.03046 4.446215,-1.672799 4.731893,-3.940972 0.07626,-0.605448 -0.09804,-1.216519 -0.147068,-1.82478 -0.269129,-0.557009 -0.439079,-1.173997 -0.807387,-1.671027 -1.134517,-1.531025 -3.018054,-2.295561 -4.895151,-1.989758 -0.489339,0.07972 -0.927746,0.350023 -1.391619,0.525036 -0.655664,0.264775 -0.281215,1.192022 0.374449,0.927247 v 0 c 0.342892,-0.150783 0.661832,-0.376628 1.028682,-0.45235 1.497817,-0.309167 3.031434,0.247477 3.990983,1.440564 0.31365,0.389987 0.470381,0.883518 0.705569,1.325277 0.06452,0.467172 0.228706,0.931225 0.193546,1.401516 -0.13394,1.791515 -1.855798,3.222699 -3.600016,3.276299 -0.402366,0.01236 -0.794666,-0.129284 -1.191999,-0.193924 -0.352268,-0.196257 -0.735957,-0.344503 -1.056806,-0.588769 -1.244362,-0.947341 -1.912774,-2.618571 -1.9548,-4.151636 -0.0089,-0.324101 0.05868,-0.645784 0.08802,-0.968676 0.08755,-0.249591 0.125137,-0.522829 0.262652,-0.748773 0.682252,-1.120988 2.487467,-1.154315 3.627109,-1.061762 0.294656,0.02393 0.582546,0.101075 0.873821,0.151613 0.670835,0.223563 0.986999,-0.725141 0.316165,-0.948704 z" />
    <path
       style="fill:#0000ff;stroke-width:0.264583"
       id="path1333"
       d="m 66.159551,15.648121 c 2.875778,-0.925048 5.770295,-1.789939 8.651901,-2.696501 0.674513,-0.212208 0.374404,-1.166114 -0.300108,-0.953906 v 0 c -2.879556,0.905954 -5.772058,1.770138 -8.645777,2.694597 -0.675859,0.207879 -0.381875,1.163689 0.293984,0.95581 z" />
    <path
       style="fill:#0000ff;stroke-width:0.264583"
       id="path1335"
       d="m 72.376339,10.464392 c 1.308626,-0.102028 2.828136,0.08711 4.018311,0.663625 0.804458,0.389676 0.752086,0.256804 0.553088,0.740234 -0.21064,0.103557 -0.425551,0.198841 -0.63192,0.310669 -0.443987,0.240588 -0.870109,0.513777 -1.31843,0.746191 -1.131948,0.586816 -1.455806,0.688392 -2.569329,1.133226 -0.656436,0.262851 -0.284707,1.191193 0.371729,0.928341 v 0 c 1.081765,-0.434128 1.622841,-0.621824 2.698623,-1.196133 0.516449,-0.275706 1.067819,-0.511933 1.512502,-0.892707 0.381984,-0.327085 0.615579,-0.795389 0.923369,-1.193083 -0.106648,-0.317315 -0.111747,-0.68981 -0.31995,-0.951944 C 77.395945,10.477853 77.044631,10.334856 76.727126,10.184905 75.61772,9.6609542 74.255843,9.4442969 73.038136,9.42528 72.7623,9.4209726 72.487514,9.4603963 72.212202,9.4779546 71.514683,9.594018 71.678823,10.580455 72.376339,10.464392 Z" />
    <path
       style="fill:#0000ff;stroke-width:0.264583"
       id="path1337"
       d="m 81.531075,10.322249 c 0.871988,0.115674 1.747213,0.01891 2.530838,-0.4103939 C 84.492117,9.6761717 84.980652,9.2859465 85.069245,8.7532024 85.113084,8.4895768 84.992516,8.2242468 84.954151,7.9597688 84.737815,7.7653506 84.569828,7.4971012 84.305142,7.3765142 82.917328,6.7442465 81.46203,8.1133359 81.045639,9.3314887 80.91925,9.7012386 80.923497,10.103394 80.862426,10.489347 c 0.145944,0.857512 0.09279,1.280296 0.688279,1.967849 0.220887,0.255035 0.534995,0.411234 0.802494,0.616851 0.577945,0.407403 1.154102,-0.409938 0.576154,-0.81734 v 0 c -0.174487,-0.105944 -0.377616,-0.175009 -0.523462,-0.317832 -0.443018,-0.433839 -0.418436,-0.73792 -0.55191,-1.319837 0.02513,-0.273215 2.64e-4,-0.555742 0.07543,-0.819644 0.07632,-0.2683262 0.215657,-0.5184754 0.37106,-0.750152 0.387456,-0.5776275 0.9936,-0.9812147 1.696365,-0.8004103 0.05199,0.034739 0.141132,0.043475 0.155956,0.1042162 0.120031,0.4918548 -0.806865,0.8180239 -1.091501,0.9028684 -0.224102,0.0668 -0.457838,0.1024006 -0.690872,0.1218469 -0.18768,0.015661 -0.376489,-0.01138 -0.564735,-0.017068 -0.679921,-0.194182 -0.954537,0.7673718 -0.274614,0.9615538 z" />
    <path
       style="fill:#0000ff;stroke-width:0.264583"
       id="path1339"
       d="m 88.59114,2.9123809 c -0.145783,0.333661 -0.306128,0.6613313 -0.437351,1.0009833 -0.487542,1.261936 -0.784706,2.2575012 -1.144995,3.5840384 -0.330927,1.2184332 -0.6268,2.4457501 -0.852889,3.6882494 -0.07015,0.385524 -0.11371,0.775415 -0.170564,1.163122 0.02469,0.177422 -0.09802,0.482423 0.07403,0.532265 1.258816,0.36466 1.335201,-0.440494 1.770409,-1.264551 0.233365,-0.441872 0.456999,-0.88883 0.689457,-1.33118 0.395372,-0.752364 0.799467,-1.5001117 1.197586,-2.2510251 0.04663,-0.092334 0.658302,-1.0180865 0.161406,-1.1828886 -0.810503,-0.2688137 -1.410904,0.4769504 -1.862965,0.9256594 -0.951844,0.944786 -0.900499,0.9403415 -1.741326,1.9840426 -0.196266,0.3395817 -0.436693,0.6572207 -0.588796,1.0187447 -0.403842,0.959855 -0.388163,1.938443 0.598051,2.533247 0.653301,0.394019 1.254717,0.302861 1.970214,0.310942 0.326948,-0.05804 0.653897,-0.116091 0.980845,-0.174136 0.695222,-0.129109 0.512633,-1.112299 -0.182586,-0.983189 v 0 c -0.268029,0.05245 -0.536054,0.104895 -0.804082,0.157342 -0.597601,0.01726 -0.779058,0.07491 -1.328817,-0.083 -0.122185,-0.0351 -0.261562,-0.06482 -0.346438,-0.159466 C 86.067171,11.8183 86.804282,10.824489 87.053524,10.387386 87.865496,9.3736343 87.771455,9.4343762 88.697325,8.5083475 88.919083,8.286551 89.272442,8.157967 89.38367,7.8647105 89.44182,7.7113786 89.142706,7.6246421 89.091599,7.468819 89.045219,7.3273867 89.246804,6.9702154 89.107479,7.0225674 88.91759,7.0939144 88.92471,7.3847659 88.833326,7.5658652 88.201474,8.7576403 87.570954,9.9494983 86.94754,11.145709 c -0.166672,0.319808 -0.525275,0.597665 -0.503428,0.957635 0.01331,0.219103 0.844566,0.959043 0.530759,0.3898 0.05348,-0.368511 0.09398,-0.739139 0.160433,-1.105532 0.221634,-1.221987 0.508648,-2.4110657 0.833631,-3.6106744 0.401404,-1.4817023 0.841489,-2.9632285 1.4859,-4.3605301 C 89.811234,2.8056906 88.94755,2.301662 88.591145,2.9123809 Z" />
    <path
       style="fill:#0000ff;stroke-width:0.264583"
       id="path1341"
       d="m 95.181334,3.8655632 c 0.0098,-0.051359 0.163756,-0.7555251 0.09954,-0.8226689 C 95.06097,2.8129616 94.747828,2.5152829 94.439226,2.5927 c -0.376561,0.094467 -0.561137,0.542835 -0.786832,0.8587234 -0.600823,0.8409337 -1.21436,2.2351251 -1.641162,3.1205241 -0.55231,1.5481027 -0.944539,2.3173134 -1.084633,3.9557995 -0.04548,0.531915 -0.06066,1.081055 0.06332,1.600315 0.214974,0.90038 0.749792,1.547462 1.709041,1.682845 0.419815,0.05925 0.837145,-0.134947 1.255718,-0.202421 1.24687,-0.771121 0.717114,-0.322229 1.622745,-1.306145 0.469398,-0.528835 -0.27849,-1.192662 -0.747887,-0.663827 v 0 c -0.619418,0.733786 -0.259659,0.395872 -1.096682,0.994885 -0.336714,0.117391 -0.8954,0.434181 -1.282586,0.14379 C 91.824753,12.308052 91.859348,11.357933 91.909862,10.70994 92.029231,9.1787204 92.398074,8.4596405 92.912371,7.0054763 93.187064,6.433309 93.44303,5.851766 93.736453,5.2889742 93.956895,4.866165 94.225268,4.469825 94.452849,4.0508168 94.53769,3.8946182 94.701584,3.7404444 94.672805,3.5650379 94.636007,3.3407606 94.46239,3.1442914 94.281531,3.006653 c -0.171442,-0.1304719 0.263917,0.9591715 -0.07634,0.6418 -0.153521,0.6902403 0.822627,0.9073505 0.976146,0.2171102 z" />
    <path
       style="fill:#0000ff;stroke-width:0.264583"
       id="path1343"
       d="m 90.546728,9.5119887 c 1.302788,-0.3901699 2.649588,-0.5605777 3.994709,-0.7246204 0.701881,-0.085795 0.580548,-1.078407 -0.121333,-0.9926119 v 0 c -1.411168,0.1728814 -2.824117,0.3550722 -4.189727,0.7685902 -0.670793,0.2236944 -0.354441,1.1723365 0.316351,0.9486421 z" />
    <path
       style="fill:#0000ff;stroke-width:0.264583"
       id="path1345"
       d="m 95.403444,10.28377 c 0.208156,0.486466 0.243665,0.791653 0.821042,1.035001 0.780018,0.328756 1.900041,-0.0017 2.49619,-0.559681 0.200165,-0.187341 0.314862,-0.448899 0.472294,-0.673348 -0.01767,-0.3020558 0.08059,-0.634685 -0.053,-0.9061673 -0.6512,-1.3233405 -3.054884,-1.2962858 -4.117091,-0.6064885 -0.320291,0.2079982 -0.530892,0.5491403 -0.79634,0.8237104 -0.07926,0.3750825 -0.256889,0.7423594 -0.237771,1.1252474 0.06367,1.275145 1.21016,2.107538 2.427211,2.060512 1.089184,-0.04209 1.354315,-0.434191 2.157815,-1.044351 0.392517,-0.743684 0.889735,-1.226155 0.39093,-2.1356233 -0.462611,-0.84347 -1.422305,-1.125877 -2.298497,-1.1494365 -1.143248,-0.03074 -1.280236,0.224206 -2.135923,0.7812799 -0.32957,1.3560469 -0.452577,0.7179625 0.536798,1.8741389 0.542647,0.453358 1.18379,-0.314064 0.641143,-0.76742 v 0 c -0.50396,-0.108409 -0.320947,0.01643 -0.596458,-0.2931598 0.161168,-0.1337699 0.291719,-0.3171114 0.4835,-0.4013097 0.282958,-0.1242277 0.595048,-0.189275 0.903525,-0.2076429 0.496504,-0.029564 1.727243,0.076737 1.69871,0.8717884 -0.0083,0.23212 -0.168143,0.433042 -0.252211,0.649563 -0.52913,0.467215 -0.654849,0.710657 -1.389957,0.831933 -0.703464,0.116056 -1.397979,-0.210361 -1.575941,-0.933814 -0.04809,-0.195516 2.65e-4,-0.402689 5.3e-4,-0.604034 0.133627,-0.1825338 0.218831,-0.4133192 0.400883,-0.5476021 0.695748,-0.5131856 2.035342,-0.5425311 2.781797,-0.1161037 0.07151,0.040849 0.119645,0.1131895 0.179467,0.1697845 -0.055,0.119749 -0.07526,0.2627423 -0.164986,0.3592467 -0.239752,0.2578566 -1.286248,0.8179156 -1.635569,0.4824246 -0.08055,-0.07735 -0.102762,-0.198304 -0.154141,-0.297457 -0.12658,-0.6956849 -1.110428,-0.5166763 -0.983848,0.179009 z" />
    <path
       style="fill:#0000ff;stroke-width:0.264583"
       id="path1347"
       d="m 100.1719,11.638635 c 0.16246,0.112141 0.29907,0.277235 0.48739,0.336424 1.15904,0.364273 2.48459,-0.482431 2.88212,-1.582212 0.10705,-0.296136 0.0868,-0.6237656 0.13021,-0.9356482 -0.1193,-0.3035377 -0.15728,-0.6534668 -0.35788,-0.910613 -0.7058,-0.9047276 -2.00732,-0.9207886 -2.93813,-0.4036854 -0.891376,0.4951929 -0.924875,0.8485582 -1.371814,1.692819 -0.07124,0.6750256 -0.288944,1.2903076 0.240673,1.8844226 0.546227,0.61275 1.336781,0.664986 2.064061,0.406608 1.04883,-0.372609 1.68098,-1.136506 2.46202,-1.872682 1.27541,-1.4169581 2.15209,-3.0956192 2.92147,-4.8237624 0.17041,-0.3827782 0.83119,-1.9388269 0.93943,-2.5056107 0.0332,-0.1735942 -0.024,-0.3526447 -0.0361,-0.5289671 -0.41761,0.051604 -0.90827,-0.08672 -1.25284,0.1548111 -0.43771,0.3068235 -0.60244,0.8837488 -0.88025,1.3404262 -0.36845,0.6056699 -0.72092,1.2213151 -1.05764,1.8451819 -0.67478,1.250234 -1.45565,2.8143991 -1.97095,4.1486349 -0.21147,0.5475661 -0.36122,1.1170151 -0.54184,1.6755231 -0.0336,0.398756 -0.39372,1.659256 0.45734,1.853538 0.98453,0.224752 1.58443,-0.641779 2.14498,-1.182827 0.50016,-0.499844 -0.20673,-1.207171 -0.70689,-0.707327 v 0 c -0.22062,0.230726 -0.47521,0.433203 -0.66187,0.692177 -0.0872,0.12103 -0.0651,0.296792 -0.14277,0.424193 -0.13631,0.223676 -1.41098,0.414627 -0.13886,-0.77344 0.16868,-0.526984 0.30719,-1.064596 0.50604,-1.580952 0.50309,-1.3063853 1.26319,-2.8288568 1.92258,-4.0525388 0.32762,-0.6079728 0.67432,-1.2056904 1.02903,-1.7982652 0.24113,-0.4028395 0.68077,-0.7240294 0.75799,-1.1871317 0.0443,-0.2657692 -0.29859,-0.4485923 -0.44788,-0.6728884 0.34838,0.2204459 0.11866,0.044318 -0.23941,1.0020695 -0.79707,2.1319592 -1.80697,4.2122576 -3.29212,5.9538252 -0.72693,0.7040694 -1.46948,1.6147034 -2.53891,1.7865024 -0.12826,0.0206 -0.28057,0.05359 -0.38931,-0.01747 -0.36895,-0.241132 -0.252454,-0.684476 -0.249279,-1.025575 0.09426,-0.220572 0.147659,-0.4635215 0.282769,-0.6617177 0.14036,-0.2058919 0.32304,-0.3877762 0.52864,-0.5285507 0.44919,-0.307549 1.22463,-0.4903978 1.69737,-0.1064662 0.12234,0.099358 0.1761,0.2614358 0.26414,0.392154 8e-4,0.1730537 0.0458,0.351668 0.002,0.5191609 -0.14887,0.5728907 -0.65789,0.9566087 -1.17588,1.1670757 -0.0963,0.03914 -0.19893,0.09146 -0.30201,0.07792 -0.10429,-0.0137 -0.18369,-0.102526 -0.27553,-0.153789 -0.46574,-0.532055 -1.218181,0.126606 -0.75244,0.658661 z" />
    <path
       style="fill:#0000ff;stroke-width:0.264583"
       id="path1349"
       d="m 106.68861,9.4268598 c 1.17574,0.6906642 2.82569,1.4959552 4.22883,1.1662042 0.29152,-0.06851 0.55102,-0.234681 0.82654,-0.352021 0.19151,-0.20606 0.44198,-0.3700533 0.57454,-0.6181814 0.45199,-0.8460542 0.029,-1.8760435 -0.89291,-2.1679702 -0.83424,-0.2641544 -1.28285,0.046803 -2.03418,0.324126 -0.30292,0.2457905 -0.63883,0.4557421 -0.90875,0.7373715 -0.73446,0.7663291 -1.43826,2.0060101 -1.46789,3.0955751 -0.008,0.302006 0.002,0.634365 0.15982,0.892152 0.171,0.279815 0.50941,0.413107 0.76412,0.61966 0.3959,-0.02551 0.80226,0.0174 1.1877,-0.07653 0.42029,-0.102423 0.81056,-0.307487 1.19578,-0.504311 1.21208,-0.619298 2.25852,-1.510505 3.31696,-2.352372 0.0477,-0.01574 0.18972,-0.02856 0.14309,-0.04722 -0.21076,-0.08434 -0.43661,-0.1884966 -0.66186,-0.1603847 -0.0948,0.01183 -0.089,0.1695137 -0.12386,0.2584407 -0.2169,0.55275 -0.39896,1.119015 -0.61686,1.671871 -0.18345,0.322418 -0.46728,0.730901 0.90801,0.245225 0.19293,-0.06813 0.16375,-0.375444 0.25915,-0.556457 0.38339,-0.727436 0.6777,-1.214073 1.19741,-1.8699084 0.22648,-0.2858119 0.4852,-0.5445296 0.72781,-0.8167944 0.37548,-0.2706031 0.69268,-0.6212025 1.19195,-0.6245801 0.17984,-0.00122 0.60205,0.3206591 0.70312,0.3900135 0.80031,0.5491425 0.25736,0.1957253 1.0968,0.7240484 0.59871,0.3762288 1.13078,-0.470473 0.53207,-0.8467018 v 0 c -0.17702,-0.1110554 -0.35658,-0.2181564 -0.53106,-0.3331665 -0.3244,-0.2138344 -0.90826,-0.6645084 -1.27836,-0.7820639 -1.04894,-0.3331776 -1.68971,0.1729346 -2.46297,0.8092509 -0.26538,0.3010172 -0.54829,0.5874459 -0.79615,0.9030512 -0.5178,0.6593351 -0.91792,1.2948361 -1.29366,2.0389821 -0.12161,0.240838 -0.4259,0.494201 -0.32129,0.742893 0.5695,1.353925 0.81006,0.70286 0.99765,0.342559 0.22092,-0.56165 0.48687,-1.188634 0.64835,-1.765043 0.0642,-0.229147 0.24669,-0.481939 0.14787,-0.6984244 -0.12988,-0.2845694 -0.44078,-0.4753432 -0.73371,-0.5850792 -0.12408,-0.046482 -0.23733,0.1179071 -0.35599,0.1768608 -1.4125,1.1234818 -2.82623,2.3123918 -4.58693,2.8446928 -0.35598,0.03985 -0.4222,0.139969 -0.43174,-0.458252 -0.0142,-0.887984 0.56712,-1.8728224 1.13147,-2.5153252 0.18822,-0.2142972 0.42391,-0.381717 0.63587,-0.5725755 0.40375,-0.1838889 0.71377,-0.3935926 1.16913,-0.3805026 0.32207,0.00926 0.727,0.2803046 0.61414,0.6587241 -0.0399,0.1336694 -0.15231,0.2337303 -0.22846,0.3505952 -0.16122,0.087017 -0.30763,0.2103151 -0.48367,0.2610514 -1.13408,0.326844 -2.68075,-0.462356 -3.63348,-1.0270387 -0.60638,-0.3637338 -1.12078,0.4938183 -0.5144,0.8575521 z" />
    <path
       style="fill:#0000ff;stroke-width:0.264583"
       id="path1351"
       d="m 118.37107,7.9539395 c -0.25076,1.133765 -0.53231,2.2606345 -0.77013,3.3972965 -0.0574,0.274298 -0.14056,0.545838 -0.15957,0.82543 -0.0109,0.160725 -0.0846,0.436222 0.071,0.478047 0.37958,0.102052 0.78021,-0.09622 1.17032,-0.144326 0.67592,-1.020128 1.24429,-2.107464 1.93142,-3.1204871 0.16977,-0.2502929 0.34181,-0.5009041 0.54173,-0.7278404 0.34483,-0.3914225 0.25391,-0.3934889 0.49977,-0.2778432 0.002,0.17682 -0.025,0.1730103 0.3154,0.2180892 0.22192,0.029386 0.45235,0.046157 0.67158,8.731e-4 0.70631,-0.1459333 1.44349,-0.6937486 2.05544,-1.0618663 0.12827,-0.057291 0.27029,-0.090512 0.38481,-0.1718723 0.074,-0.052587 -0.17011,0.098795 -0.2595,0.082851 -0.13705,-0.024445 -0.24643,-0.2604394 -0.36931,-0.1950119 -0.17979,0.095727 -0.19475,0.3580204 -0.28227,0.5419447 -0.46166,0.9702909 -0.35824,0.7730445 -0.68334,1.8250707 -0.0164,0.3066693 -0.1061,0.6182075 -0.0493,0.9200075 0.1429,0.75859 0.55033,1.115509 1.36014,1.149488 0.59434,0.02494 1.56348,-0.458703 2.04741,-0.755738 0.25339,-0.155529 0.47523,-0.357397 0.71285,-0.536095 0.15109,-0.17269 0.30218,-0.34538 0.45327,-0.5180692 0.45659,-0.5399323 -0.30699,-1.1856461 -0.76358,-0.6457138 v 0 c -0.0991,0.1232009 -0.19825,0.246402 -0.29738,0.3696031 -0.18914,0.1478436 -0.36513,0.3142633 -0.56742,0.4435309 -0.60994,0.389758 -0.78354,0.410932 -1.4087,0.658172 -0.10079,0.03986 -0.19461,0.151038 -0.29996,0.125535 -0.39085,-0.09462 -0.23243,-0.754129 -0.23083,-0.919129 0.29575,-0.9855653 0.17876,-0.7264929 0.61867,-1.6643863 0.10948,-0.2334065 0.30954,-0.4372608 0.34387,-0.6927721 0.10839,-0.8068169 0.0514,-1.1825184 -0.73948,-1.0991926 -0.17738,0.01869 -0.32369,0.1499375 -0.48553,0.2249061 -0.17283,0.1040008 -1.00333,0.6060893 -1.18372,0.705349 -0.14219,0.078243 -0.28783,0.1505098 -0.43607,0.2165834 -0.0676,0.030147 -0.13671,0.079579 -0.21032,0.071528 -0.30558,-0.033424 -0.52851,-0.3957537 -0.87968,-0.2768039 -0.19629,0.060577 -0.41224,0.076838 -0.58886,0.1817312 -0.42133,0.2502193 -0.86973,0.9109225 -1.11501,1.2727429 -0.65788,0.9704734 -1.21377,2.0054423 -1.8388,2.9964133 0.18427,0.187188 0.371,0.371987 0.55281,0.561564 0.0175,0.0183 -0.0624,-0.02208 -0.0596,-0.04727 0.0301,-0.269729 0.0986,-0.533829 0.1542,-0.799487 0.2391,-1.14309 0.52281,-2.2761911 0.77418,-3.4165387 0.1388,-0.6933493 -0.84174,-0.8896498 -0.98055,-0.1963004 z" />
    <path
       style="fill:#0000ff;stroke-width:0.264583"
       id="path1353"
       d="m 61.019269,27.396278 c 4.354639,0.774176 8.726495,1.446062 13.089403,2.171414 0.01008,-2.218525 1.814152,1.119204 2.238896,0.484654 0.127259,-0.190122 -0.234209,-0.393079 -0.351314,-0.589616 -0.300731,0.639968 0.604322,1.065268 0.905052,0.425299 v 0 c -0.08562,-0.263533 -0.06308,-0.592535 -0.256865,-0.790599 -0.565828,-0.578342 -1.993945,0.233495 -2.371765,-0.516197 -4.352279,-0.723577 -8.713414,-1.394169 -13.057587,-2.165594 -0.693417,-0.138466 -0.889238,0.842172 -0.19582,0.980639 z" />
    <path
       style="fill:#0000ff;stroke-width:0.264583"
       id="path1355"
       d="m 76.111943,25.91384 c 0.565891,0.720317 1.161624,1.431228 1.652262,2.206976 0.12033,0.190256 0.703255,1.00394 0.466831,1.399839 -0.09904,0.165851 -0.345363,0.173178 -0.518046,0.259768 -1.29694,0.629094 -2.701129,0.93423 -4.09982,1.23227 -0.691417,0.148135 -0.481922,1.125945 0.209492,0.97781 v 0 c 1.585159,-0.341357 3.175072,-0.678288 4.597821,-1.50336 0.268552,-0.355126 0.66634,-0.642501 0.805651,-1.065379 0.191362,-0.580874 -0.384032,-1.465445 -0.646589,-1.879931 -0.498975,-0.787698 -1.103498,-1.510218 -1.678342,-2.242052 -0.434205,-0.558091 -1.223465,0.05597 -0.78926,0.614059 z" />
    <path
       style="fill:#0000ff;stroke-width:0.264583"
       id="path1357"
       d="m 82.725095,30.349848 c 0.356626,-1.191569 0.704416,-2.387946 0.991277,-3.598624 0.0294,-0.124087 0.203285,-0.348882 0.07835,-0.37446 -0.347205,-0.07109 -0.699058,0.117211 -1.048586,0.175814 -0.168262,1.129657 -0.216911,1.242435 -0.241887,2.497851 -0.0092,0.460838 -0.02074,0.924243 0.02895,1.382485 0.03934,0.362876 0.08352,0.737849 0.236842,1.069086 0.115115,0.248688 0.270648,0.591693 0.543534,0.616802 0.441962,0.04067 0.835059,-0.301027 1.252587,-0.451538 0.289703,-0.39928 0.598908,-0.785114 0.869109,-1.19784 0.616556,-0.941787 0.936249,-1.654 1.518846,-2.600838 0.166677,-0.270883 0.330523,-0.546632 0.536083,-0.789334 0.431556,-0.509535 0.336833,-0.265258 0.291674,-0.07912 0.106018,0.222866 0.110532,0.297929 0.43992,0.413644 0.224996,0.07904 0.468614,0.14528 0.705567,0.118377 0.841959,-0.09559 1.605867,-0.822285 2.223812,-1.335014 0.128328,-0.08419 0.428255,-0.105312 0.384982,-0.252563 -0.05407,-0.184001 -0.632746,0.230142 -0.655889,0.301337 -0.100359,0.308711 -0.106185,0.640657 -0.146648,0.96274 -0.154876,1.232881 -0.118419,0.978167 -0.105587,2.173531 0.07113,0.251232 0.05109,0.549155 0.213389,0.753694 1.349113,1.700234 2.755651,-1.884013 3.123734,-2.712648 0.183346,0.09436 0.160703,-0.64819 0.423686,-0.668237 0.04707,-0.0036 -0.04647,0.110609 -0.01053,0.141221 0.08493,0.07236 0.208606,0.07929 0.313619,0.116991 0.787376,0.282699 0.666647,0.234923 1.550982,0.519687 1.315638,0.328758 2.837233,0.549859 4.033309,-0.281488 0.24414,-0.169693 0.48144,-0.374512 0.62851,-0.63291 0.14492,-0.254619 0.14436,-0.56788 0.21654,-0.851819 -0.1081,-0.272301 -0.12142,-0.605544 -0.3243,-0.816902 -0.895028,-0.932419 -2.417303,-0.447433 -3.334856,0.115599 -0.39972,0.245278 -0.768869,0.548038 -1.089152,0.890613 -0.30647,0.327802 -0.515732,0.734529 -0.773597,1.101792 -0.110014,0.390776 -0.31364,0.766693 -0.330044,1.172326 -0.03149,0.77874 0.319474,1.470112 1.072346,1.776521 0.86429,0.351758 1.601134,0.04895 2.43202,-0.140854 0.686697,-0.168656 0.448183,-1.139793 -0.238513,-0.971139 v 0 c -0.430475,0.115398 -1.639518,0.562649 -2.066965,0.114001 -0.423595,-0.444606 -0.153591,-0.880147 -0.04254,-1.387626 0.196768,-0.29972 0.353181,-0.630232 0.590303,-0.89916 0.66683,-0.756274 1.503321,-1.222688 2.502758,-1.319621 0.131773,-0.01278 0.271671,-0.02392 0.396692,0.01965 0.09174,0.03197 0.144828,0.129531 0.217238,0.194296 0.0469,0.404121 0.12528,0.402368 -0.304336,0.741151 -0.93408,0.736586 -2.230408,0.469584 -3.279077,0.223651 -0.286879,-0.09226 -0.574836,-0.181244 -0.860641,-0.276782 -0.664885,-0.222254 -1.345208,-0.61855 -2.038848,-0.222804 -0.258895,0.14771 -0.491294,0.721672 -0.598776,0.936535 -0.253889,0.573789 -0.441494,1.028261 -0.749556,1.585415 -0.129435,0.234093 -0.311275,0.438883 -0.423082,0.681884 -0.04567,0.09925 -0.02426,0.21721 -0.04033,0.325276 -0.01135,0.07634 0.0087,0.286039 -0.04192,0.227724 -0.109003,-0.125716 -0.112104,-0.313335 -0.168156,-0.470003 -0.01929,-1.094941 -0.05151,-0.845161 0.09446,-2.010169 0.05465,-0.436173 0.349853,-1.633466 0.02641,-2.072828 -0.42092,-0.571765 -0.932744,-0.06144 -1.238115,0.14395 -0.523756,0.439324 -0.5861,0.517569 -1.150826,0.890636 -0.05527,0.03651 -0.470525,0.303068 -0.564545,0.274787 -0.335168,-0.100817 -0.485759,-0.583489 -0.87232,-0.584449 -0.242012,0.01812 -0.50096,-0.03642 -0.726038,0.05435 -0.448892,0.181023 -0.912484,0.985291 -1.10998,1.306027 -0.718084,1.166177 -1.305634,2.415752 -2.138482,3.510306 0.01347,0.166825 0.117213,0.351769 0.04042,0.500478 -0.04072,0.07885 -0.206934,-0.02463 -0.244671,-0.104963 -0.126283,-0.268785 -0.178398,-0.570354 -0.211289,-0.865499 -0.04811,-0.431769 -0.03781,-0.868593 -0.03036,-1.30297 0.02053,-1.196041 0.06615,-1.290063 0.227224,-2.37539 -0.304699,-0.186523 -0.565652,-0.48072 -0.914101,-0.559569 -0.111863,-0.02531 -0.04336,0.22532 -0.06978,0.336928 -0.06654,0.281136 -0.135453,0.56175 -0.209063,0.841118 -0.04209,0.159721 -0.507868,1.841754 -0.5637,2.035165 -0.06254,0.216646 -0.131125,0.431503 -0.196689,0.647255 -0.223782,0.670761 0.724821,0.987237 0.948603,0.316476 z" />
    <path
       style="fill:#0000ff;stroke-width:0.264583"
       id="path1359"
       d="m 103.29268,24.208442 c 0.66386,-0.07456 1.45461,-0.222789 2.06971,0.149046 0.1032,0.06239 0.19957,0.175807 0.20786,0.296119 0.007,0.09869 -0.11751,0.159352 -0.17074,0.242732 -0.10588,0.165843 -0.20422,0.336373 -0.30634,0.504559 -0.56332,0.904799 -1.66007,2.172654 -1.1284,3.33292 0.34714,0.75759 0.82892,0.825879 1.51181,1.13464 0.659,0.0688 1.01622,0.192426 1.64471,-0.04283 0.19861,-0.07434 0.35806,-0.227311 0.53709,-0.340968 0.56903,-0.419765 -0.0246,-1.224497 -0.59363,-0.804733 v 0 c -0.0509,0.05594 -0.0842,0.135554 -0.15263,0.167822 -0.38025,0.17943 -0.64395,0.11075 -1.05811,0.09467 -0.16295,-0.05503 -0.7559,-0.208627 -0.90837,-0.403222 -0.55667,-0.710494 0.73416,-2.110836 1.03936,-2.685922 0.31491,-0.696451 0.68734,-1.099681 0.2949,-1.904234 -0.12246,-0.251042 -0.38499,-0.419953 -0.63219,-0.549989 -0.80337,-0.422607 -1.78152,-0.271178 -2.62964,-0.152169 -0.67992,0.194182 -0.40531,1.155736 0.27461,0.961554 z" />
    <path
       style="fill:#0000ff;stroke-width:0.264583"
       id="path1361"
       d="m 102.42833,26.8323 c 1.48616,-0.235931 2.97919,-0.410097 4.47588,-0.5627 0.70345,-0.07178 0.60194,-1.066612 -0.10151,-0.994835 v 0 c -1.51763,0.154962 -3.03159,0.33178 -4.53856,0.571106 -0.69751,0.1161 -0.53332,1.102529 0.16419,0.986429 z" />
    <path
       style="fill:#0000ff;stroke-width:0.264583"
       id="path1363"
       d="m 109.66708,26.924309 c 1.06045,0.108157 2.16429,0.01111 3.0851,-0.584733 0.25461,-0.164753 0.51025,-0.349609 0.68794,-0.595359 0.17449,-0.241312 0.22661,-0.550775 0.33991,-0.826163 -0.0666,-0.296366 -0.0272,-0.639105 -0.19976,-0.889096 -0.93678,-1.357269 -3.22432,-0.643578 -4.15133,0.311632 -0.27892,0.287401 -0.43744,0.670985 -0.65616,1.006477 -0.0614,0.376826 -0.21278,0.749755 -0.18418,1.130477 0.10689,1.422959 1.21631,1.999256 2.53032,1.652837 1.06016,-0.279493 1.41441,-0.818637 2.14993,-1.544765 0.34229,-0.672767 0.87831,-1.246882 0.37309,-2.060332 -0.43549,-0.701177 -1.32632,-0.868174 -2.05786,-0.715834 -0.89944,0.187304 -1.04478,0.54767 -1.57161,1.168316 -0.0727,0.236828 -0.14545,0.473655 -0.21817,0.710483 -0.16813,0.686829 0.80319,0.924593 0.97132,0.237763 v 0 c 0.0127,-0.112299 0.0255,-0.224597 0.0382,-0.336896 0.25822,-0.398076 0.30369,-0.591536 0.80686,-0.78002 0.22244,-0.08333 1.33771,-0.273954 1.27411,0.326707 -0.0288,0.271653 -0.22019,0.500008 -0.33029,0.750012 -0.23586,0.251333 -0.43947,0.53739 -0.70758,0.753996 -0.28917,0.233627 -1.04007,0.672002 -1.49062,0.673221 -0.43808,0.0011 -0.6988,-0.301138 -0.77527,-0.712816 -0.0448,-0.240936 0.0308,-0.489143 0.0463,-0.733715 0.13101,-0.239836 0.21438,-0.512697 0.39302,-0.719511 0.55216,-0.639242 1.40246,-0.907673 2.22117,-0.872305 0.13389,0.0058 0.27703,0.01536 0.39374,0.08121 0.0921,0.05198 0.1297,0.167139 0.19455,0.250708 -0.0202,0.132072 0.009,0.282437 -0.0607,0.396216 -0.10976,0.178285 -0.2798,0.316958 -0.45182,0.436298 -0.75876,0.526394 -1.68167,0.581515 -2.56705,0.488647 -0.70467,-0.05876 -0.78777,0.937782 -0.0831,0.99654 z" />
    <path
       style="fill:#0000ff;stroke-width:0.264583"
       id="path1371"
       d="m 120.25853,23.796381 c -0.25963,-0.107484 -0.50918,-0.243653 -0.77891,-0.322451 -1.37656,-0.402144 -2.99749,-0.367897 -4.23665,0.432165 -0.28838,0.186193 -0.51531,0.453623 -0.77297,0.680435 -0.16367,0.284052 -0.37641,0.545008 -0.49101,0.852154 -0.33667,0.902292 -0.21647,2.074612 0.45743,2.805414 0.67282,0.729626 1.14559,0.728674 2.04995,0.987584 0.41949,-0.02653 0.85045,0.02138 1.25846,-0.07961 1.52691,-0.377925 2.44583,-1.446861 3.46294,-2.53756 0.48039,-0.518871 -0.2534,-1.198244 -0.73379,-0.679373 v 0 c -0.81113,0.883163 -1.61658,1.854935 -2.81529,2.22065 -0.2949,0.08997 -0.61236,0.07242 -0.91854,0.108627 -0.54407,-0.125098 -1.0138,-0.151146 -1.44948,-0.540186 -0.48572,-0.433724 -0.60883,-1.211184 -0.43169,-1.810558 0.0621,-0.210238 0.19206,-0.394152 0.28809,-0.591227 0.17451,-0.170803 0.32281,-0.373359 0.52355,-0.512409 0.99475,-0.689059 2.31061,-0.703524 3.43837,-0.407333 0.20517,0.05389 0.39665,0.150538 0.59497,0.225807 0.58841,0.392144 1.14298,-0.43999 0.55457,-0.832134 z" />
    <path
       style="fill:#0000ff;stroke-width:0.264583"
       id="path1373"
       d="m 121.85076,16.201654 c -0.0944,0.265968 -0.2045,0.52687 -0.28318,0.797905 -0.28412,0.978839 -0.47336,2.012357 -0.66475,3.008743 -0.3404,1.772184 -0.62972,3.549141 -0.89528,5.333783 -0.0721,0.564846 -0.19883,1.371539 -0.20538,1.974882 -0.002,0.14324 -0.0473,0.314486 0.0403,0.427852 0.15912,0.206002 0.42534,0.300186 0.63801,0.450279 0.70647,0.02988 0.74873,-0.969227 0.0423,-0.999109 v 0 c 0.10447,0.145515 0.1651,0.336084 0.31341,0.436549 0.0694,0.04699 -0.0372,-0.16497 -0.0362,-0.248756 0.007,-0.596096 0.1248,-1.330325 0.19672,-1.894556 0.26303,-1.768682 0.55032,-3.529478 0.88697,-5.285912 0.20483,-1.068656 0.34695,-1.856397 0.62934,-2.877819 0.0597,-0.216041 0.14129,-0.425444 0.21193,-0.638166 0.34342,-0.61811 -0.53071,-1.103785 -0.87414,-0.485675 z" />
    <path
       style="fill:#0000ff;stroke-width:0.264583"
       id="path1375"
       d="m 124.36072,24.765551 c 0.93756,0.389808 2.12358,0.85949 3.14162,0.456856 0.23312,-0.0922 0.47377,-0.220273 0.62244,-0.422129 0.15904,-0.215942 0.16757,-0.509529 0.25136,-0.764294 -0.13426,-0.276989 -0.19322,-0.605512 -0.40279,-0.830967 -0.22276,-0.239645 -0.53032,-0.403046 -0.84065,-0.506723 -0.77829,-0.260021 -1.48156,-0.129654 -2.18278,0.292102 -0.94621,0.569101 -1.08492,1.067021 -1.62045,1.976832 -0.10079,0.403738 -0.26453,0.79681 -0.30239,1.211214 -0.0622,0.680568 0.0539,1.495405 0.65252,1.952629 0.75459,0.576334 1.23747,0.306594 2.04414,0.153556 0.68718,-0.166719 0.4514,-1.138526 -0.23577,-0.971806 v 0 c -0.19092,0.06454 -0.75383,0.31673 -1.01619,0.207954 -0.79256,-0.328596 -0.39376,-1.517532 -0.27175,-2.061486 0.15795,-0.294926 0.27631,-0.61476 0.47384,-0.884778 0.18291,-0.250022 0.40674,-0.474152 0.65542,-0.658873 0.71273,-0.52941 1.34079,-0.426405 2.05775,-0.02688 0.13286,0.140936 0.25469,0.186307 -0.0832,0.353535 -0.76648,0.379402 -1.78141,-0.09015 -2.49594,-0.371174 -0.63246,-0.316227 -1.07967,0.5782 -0.44722,0.894428 z" />
    <path
       style="fill:#0000ff;stroke-width:0.264583"
       id="path1377"
       d="m 128.81705,24.064091 c -0.0588,0.703308 -0.15934,1.402576 -0.26461,2.100187 -0.0245,0.16215 -0.0521,0.323813 -0.0781,0.485711 -0.008,0.05115 -0.076,0.145587 -0.0248,0.15344 0.34205,0.05244 0.69208,0.0013 1.03812,0.0019 0.2995,-0.915774 0.65463,-1.813764 1.09218,-2.673249 0.30483,-0.598776 0.6651,-1.351015 1.25809,-1.750905 0.19463,-0.131256 0.44804,-0.140354 0.67206,-0.21053 1.13253,0.14375 0.55736,0.03159 1.72277,0.350224 0.68383,0.179961 0.93833,-0.787111 0.25451,-0.967072 v 0 c -1.49071,-0.379666 -0.71146,-0.264842 -2.34203,-0.314258 -0.34622,0.153208 -0.7327,0.236625 -1.03866,0.459625 -0.65971,0.480837 -1.08214,1.318462 -1.43516,2.014852 -0.45766,0.90282 -0.82966,1.845739 -1.14259,2.807341 0.30263,0.147212 0.58627,0.342577 0.9079,0.441635 0.0498,0.01535 0.0167,-0.102878 0.0249,-0.154329 0.0269,-0.167354 0.0554,-0.334473 0.0806,-0.502085 0.10875,-0.721164 0.21202,-1.4441 0.27224,-2.171192 0.0504,-0.705306 -0.94701,-0.776632 -0.99745,-0.07133 z" />
    <path
       style="fill:#0000ff;stroke-width:0.264583"
       id="path1379"
       d="m 136.3748,22.250239 c -0.42295,1.008711 -0.65773,2.08942 -0.83405,3.165451 -0.0152,0.09285 -0.25142,1.515901 -0.10612,1.778613 0.13428,0.242769 0.43582,0.343406 0.65373,0.51511 0.33107,-0.253461 0.71301,-0.451623 0.99322,-0.760381 0.32373,-0.356703 0.53625,-0.800521 0.79319,-1.207981 0.18095,-0.28696 1.39807,-2.317766 1.62797,-2.65324 0.57211,-0.834863 0.39085,-0.67254 1.0209,-0.997276 0.0795,0.218326 0.0638,0.262553 0.33452,0.406818 0.21113,0.112522 0.42936,0.235676 0.6667,0.265776 0.95315,0.120876 1.69973,-0.391347 2.45262,-0.875375 0.0992,-0.04898 0.39139,-0.08809 0.29768,-0.146934 -0.85316,-0.535743 -0.84351,0.01079 -1.07086,0.639149 -0.33151,0.916208 -0.68418,1.951582 -0.76339,2.93009 -0.0388,0.479786 0.0435,0.961729 0.0652,1.442594 0.22755,0.363559 0.33033,0.846095 0.68265,1.090676 0.40054,0.278048 0.92867,0.375915 1.41616,0.366286 0.98787,-0.01953 2.01421,-0.668784 2.75636,-1.238885 0.33563,-0.25782 0.61772,-0.578702 0.92658,-0.868053 0.51316,-0.486485 -0.17484,-1.212201 -0.688,-0.725715 v 0 c -0.26361,0.253361 -0.50608,0.530726 -0.79082,0.760085 -0.66798,0.538064 -1.22059,0.88306 -2.05614,1.083577 -0.24345,0.05842 -0.51903,0.139031 -0.7499,0.04218 -0.23179,-0.09725 -0.33229,-0.377257 -0.49844,-0.565886 -0.0944,-1.375699 -0.18311,-1.179462 0.19386,-2.635286 0.11651,-0.449949 0.2876,-0.884023 0.43945,-1.323307 0.12266,-0.354825 0.44542,-0.688433 0.384,-1.058801 -0.20646,-1.2449 -0.61406,-0.874185 -1.09037,-0.62957 -0.35409,0.234551 -1.1091,0.788293 -1.55879,0.775633 -0.69194,-0.01948 -1.07247,-0.973931 -1.86964,-0.588872 -0.22026,0.146685 -0.47185,0.254758 -0.66079,0.440054 -0.51375,0.503855 -1.1298,1.589042 -1.47269,2.148021 -0.27941,0.455509 -0.54919,0.916938 -0.83248,1.370049 -0.79539,1.272201 -0.66946,0.648285 -0.75232,1.534065 0.0495,0.137961 0.0519,0.524118 0.1485,0.41389 0.11944,-0.136266 -0.0463,-0.361514 -0.0359,-0.542409 0.0193,-0.333319 0.0714,-0.664249 0.12492,-0.993816 0.16328,-1.006075 0.37676,-2.018708 0.77145,-2.962127 0.27875,-0.649849 -0.64028,-1.044047 -0.91902,-0.394198 z" />
    <path
       style="fill:#0000ff;stroke-width:0.264583"
       id="path1381"
       d="m 53.835355,31.25829 c 0.629465,0.744477 1.15588,1.569715 1.775796,2.321224 1.228709,1.489535 2.633189,3.042774 4.158993,4.228375 2.545144,1.977662 3.577246,2.296094 6.44883,3.693477 3.097472,1.012484 3.047159,1.121106 6.079598,1.671717 1.213673,0.220372 2.292803,0.307343 3.498678,0.424842 0.703792,0.06838 0.800502,-0.926928 0.09671,-0.995313 v 0 C 74.73328,42.490159 73.672666,42.404709 72.50783,42.195223 69.58805,41.670126 69.635659,41.566599 66.655459,40.601656 63.917577,39.277594 62.872594,38.947889 60.447998,37.072694 58.97234,35.931414 57.596207,34.416031 56.4093,32.977055 55.770014,32.202001 55.228906,31.349481 54.575068,30.58537 c -0.475827,-0.523058 -1.215541,0.149865 -0.739713,0.67292 z" />
    <path
       style="fill:#0000ff;stroke-width:0.264583"
       id="path1383"
       d="m 73.937899,38.227349 c 0.927312,0.937284 1.729605,1.995175 2.467687,3.085449 0.260064,0.384159 0.524219,0.76754 0.744878,1.17561 0.482055,0.891476 0.56297,0.682733 0.115496,1.080299 -0.589962,-0.03575 -1.180817,0.03277 -1.770541,0.0094 -0.413308,-0.0164 -0.823749,-0.07625 -1.235623,-0.114369 -0.704284,-0.06312 -0.793549,0.932887 -0.08926,0.996008 v 0 c 0.778642,0.0677 2.051434,0.237649 2.822747,0.05356 0.431313,-0.102939 0.80056,-0.381595 1.200841,-0.572391 0.07855,-0.325835 0.269081,-0.644007 0.235656,-0.977506 -0.05385,-0.537316 -0.991888,-1.909474 -1.212188,-2.234242 -0.776979,-1.145427 -1.623053,-2.254989 -2.601545,-3.236722 -0.519676,-0.479521 -1.197819,0.25541 -0.678143,0.73493 z" />
    <path
       style="fill:#0000ff;stroke-width:0.264583"
       id="path1385"
       d="m 81.148408,43.947058 c 1.281124,0.219501 3.647573,0.394502 3.994404,-1.349383 0.0659,-0.331348 -0.06118,-0.672901 -0.09177,-1.009353 -0.43121,-0.655042 -0.617297,-1.227106 -1.490999,-1.410849 -0.880165,-0.185099 -1.590228,0.212837 -2.14435,0.867651 -0.779968,0.921695 -0.79525,1.632254 -1.058542,2.767388 0.03084,0.504349 -0.01696,1.019763 0.09253,1.513049 0.173365,0.781103 0.664953,1.756048 1.403789,2.178582 0.385045,0.220205 0.856919,0.229547 1.28538,0.344321 0.692367,0.143621 0.89548,-0.835536 0.20311,-0.979157 v 0 c -0.265705,-0.02922 -0.553601,0.02257 -0.797115,-0.08766 -0.569162,-0.257669 -0.955464,-0.976151 -1.097971,-1.530945 -0.101933,-0.396835 -0.07529,-0.815967 -0.112943,-1.223952 0.08543,-0.418523 0.122447,-0.849931 0.256305,-1.255569 0.170698,-0.517271 0.771927,-1.726952 1.515202,-1.70301 0.497182,0.01601 0.678609,0.365281 0.959604,0.686925 0.07136,0.208272 0.282779,0.596426 0.09727,0.840716 -0.52836,0.695759 -2.089,0.499099 -2.817935,0.370639 -0.693396,-0.13857 -0.889365,0.842039 -0.195969,0.980609 z" />
    <path
       style="fill:#0000ff;stroke-width:0.264583"
       id="path1387"
       d="m 86.923162,42.874342 c -0.02082,0.852157 -0.08284,1.703319 -0.101613,2.555489 -0.0047,0.212384 -0.04673,0.430474 0.0019,0.637299 0.04002,0.170701 0.0813,0.479978 0.255466,0.459782 0.402309,-0.04665 0.700071,-0.407453 1.050104,-0.611176 0.575734,-1.218222 1.001324,-2.501284 1.602134,-3.708432 0.147828,-0.297019 0.297702,-0.59639 0.492673,-0.86483 0.07549,-0.103931 0.433131,-0.251326 0.305784,-0.234506 -0.149428,0.01974 -0.25364,0.162912 -0.380457,0.244369 0.06824,0.899083 0.125814,1.802691 0.226443,2.698925 0.03805,0.338902 0.06408,0.681236 0.142605,1.013103 0.06152,0.259982 0.183484,0.501827 0.275225,0.752742 0.25331,0.660178 1.186942,0.301945 0.933633,-0.358233 v 0 c -0.07291,-0.178194 -0.174199,-0.347265 -0.218715,-0.534577 -0.33963,-1.429073 -0.0432,-2.973218 -0.704832,-4.328142 -0.312235,-0.07899 -0.619437,-0.292404 -0.936707,-0.236982 -0.390522,0.06822 -0.987298,1.316596 -1.047932,1.438561 -0.591347,1.189493 -1.015196,2.451359 -1.575859,3.654325 0.179864,0.121446 0.390184,0.206925 0.539586,0.364339 0.0575,0.06058 0.03167,0.330237 0.04084,0.247218 0.02172,-0.196709 -0.0069,-0.395856 -0.0026,-0.593717 0.01916,-0.865526 0.08263,-1.729994 0.102417,-2.595557 0,-0.707107 -1,-0.707107 -1,0 z" />
    <path
       style="fill:#0000ff;stroke-width:0.264583"
       id="path1389"
       d="m 93.486273,44.699652 c 0.42785,0.27024 0.761794,0.527013 1.278067,0.638234 0.960782,0.206978 2.115788,0.03975 2.822258,-0.710621 0.263826,-0.280226 0.397531,-0.659164 0.596296,-0.988745 0.05815,-0.402559 0.182878,-0.801029 0.174446,-1.207678 -0.02199,-1.060095 -0.557411,-2.412857 -1.795167,-2.541357 -1.032023,-0.10714 -1.336386,0.433679 -2.015884,1.040183 -0.194791,0.370171 -0.440767,0.717643 -0.584372,1.110512 -0.257019,0.703141 -0.372639,1.675106 -0.249743,2.420842 0.114999,0.697799 0.391163,1.352574 1.173501,1.545812 0.379455,0.09373 0.779243,-0.06213 1.168866,-0.0932 1.102233,-0.501393 2.038797,-1.260761 2.804041,-2.195803 0.19344,-0.236363 0.347715,-0.502235 0.521573,-0.753354 0.39887,-0.583869 -0.426847,-1.147955 -0.825717,-0.564086 v 0 c -0.142364,0.211772 -0.266962,0.436642 -0.427095,0.635317 -0.618419,0.767271 -1.383578,1.410169 -2.241344,1.892231 -0.125405,0.04674 -0.697219,0.359442 -0.905957,0.135287 -0.155842,-0.167349 -0.224586,-0.406929 -0.268293,-0.631388 -0.117306,-0.602438 -0.03705,-1.367198 0.145113,-1.945479 0.09293,-0.295023 0.25949,-0.561575 0.389237,-0.842362 0.253031,-0.28807 0.533445,-0.742598 0.972579,-0.815356 0.810191,-0.134233 1.094595,0.915678 1.14508,1.489089 0.02468,0.28035 -0.03928,0.561496 -0.05892,0.842242 -0.09944,0.217578 -0.152673,0.462958 -0.298318,0.652733 -0.416922,0.54325 -1.238361,0.707948 -1.879359,0.593323 -0.38468,-0.06879 -0.660633,-0.266856 -0.982406,-0.458973 -0.532169,-0.465614 -1.190646,0.286986 -0.658479,0.752599 z" />
    <path
       style="fill:#0000ff;stroke-width:0.264583"
       id="path1391"
       d="m 99.744915,35.220873 c -0.824066,2.333217 -1.566669,4.795697 -1.819016,7.265474 -0.03712,0.363267 -0.03539,0.729459 -0.05309,1.094189 0.220559,0.931834 -0.008,0.549524 0.64348,1.171149 0.601075,0.372438 1.127781,-0.47761 0.526706,-0.850048 v 0 c -0.07029,0.276805 -0.01992,0.181399 -0.171268,-0.27464 0.01479,-0.333629 0.01109,-0.668591 0.04435,-1.000884 0.238556,-2.382443 0.956895,-4.738026 1.739153,-6.991342 0.29267,-0.643694 -0.61765,-1.057595 -0.910322,-0.413898 z" />
    <path
       style="fill:#0000ff;stroke-width:0.264583"
       id="path1393"
       d="m 105.16656,43.860518 c 0.1658,-0.135633 0.35249,-0.249145 0.49739,-0.406902 0.65079,-0.708494 0.75538,-1.563886 0.32119,-2.437027 -0.38709,-0.778441 -0.82371,-0.995963 -1.481,-1.499523 -0.56331,-0.211172 -1.07643,-0.5651 -1.69665,-0.168225 -0.67066,0.429151 -0.76167,1.142804 -0.69849,1.854414 0.0848,0.955201 0.34718,1.154697 0.84709,1.926291 0.67841,0.477607 0.91845,0.844508 1.83489,0.696733 0.99853,-0.161013 1.94338,-1.127927 2.14362,-2.106748 0.0623,-0.304363 -0.022,-0.620948 -0.033,-0.93142 -0.19247,-0.260493 -0.3224,-0.581795 -0.57741,-0.781474 -0.8841,-0.692287 -2.63745,-0.519549 -3.3459,0.365816 -0.16567,0.207036 -0.2186,0.483169 -0.3279,0.724754 0.0164,0.24121 0.0328,0.48242 0.0492,0.723628 0.10332,0.699519 1.09259,0.553394 0.98926,-0.146124 v 0 c -0.0314,-0.08269 -0.0629,-0.16537 -0.0943,-0.248055 0.008,-0.09567 -0.0231,-0.203943 0.0251,-0.286999 0.34232,-0.589804 1.39338,-0.680619 1.96474,-0.460147 0.11912,0.04597 0.2147,0.138271 0.32206,0.207407 0.0347,0.150016 0.12077,0.296965 0.10417,0.450051 -0.0706,0.650798 -0.93392,1.722037 -1.68335,1.535882 -0.2026,-0.05032 -0.36372,-0.204991 -0.54559,-0.307488 -0.14718,-0.199962 -0.33011,-0.378008 -0.44154,-0.59989 -0.22455,-0.447135 -0.26149,-0.850395 -0.27782,-1.330889 -0.006,-0.185734 -0.0504,-0.491328 0.27322,-0.487971 0.19952,0.0021 0.38189,0.115766 0.57283,0.173646 0.21468,0.152482 0.44751,0.282192 0.64404,0.457447 0.40178,0.358288 0.86668,0.947253 0.69051,1.538417 -0.0779,0.261395 -0.30045,0.44787 -0.48237,0.630504 -0.64622,0.287052 -0.24027,1.200947 0.40595,0.913892 z" />
    <path
       style="fill:#0000ff;stroke-width:0.264583"
       id="path1395"
       d="m 111.06921,43.444752 c 0.19103,-0.0277 0.39024,-0.02125 0.57309,-0.08309 0.76901,-0.26009 1.33737,-0.905398 1.30959,-1.758092 -0.0287,-0.879706 -0.38803,-1.110303 -0.90141,-1.756797 -0.27802,-0.185637 -0.52687,-0.425016 -0.83405,-0.556908 -0.98084,-0.421148 -1.91324,-0.189243 -2.54625,0.678643 -0.48742,0.668277 -0.4682,1.145421 -0.59406,1.927286 0.0499,0.32907 0.0298,0.676772 0.14985,0.987208 0.3781,0.977733 1.40395,1.524124 2.43044,1.387287 0.90073,-0.120073 1.24304,-0.496221 1.94901,-1.000035 0.26228,-0.316381 0.56715,-0.601821 0.78681,-0.94914 1.21519,-1.921391 1.29347,-4.481811 1.31053,-6.684989 -0.021,-0.228607 0.0959,-0.520194 -0.0631,-0.685823 -0.21668,-0.225756 -0.60836,-0.445659 -0.88784,-0.30493 -0.32485,0.163573 -0.34759,0.642721 -0.46599,0.986621 -0.14313,0.415755 -0.22426,0.85072 -0.31471,1.28102 -0.29077,1.383241 -0.29672,1.682075 -0.46461,3.071611 -0.0242,0.728723 -0.12233,1.445882 0.0902,2.159791 0.0625,0.210066 0.20653,0.386654 0.30979,0.579983 0.36904,0.603168 1.22205,0.08127 0.85301,-0.521896 v 0 c -0.0582,-0.07063 -0.147,-0.124646 -0.1747,-0.211897 -0.19929,-0.627851 -0.10496,-1.237377 -0.0855,-1.886593 0.16206,-1.354386 0.16305,-1.604777 0.44322,-2.953798 0.0835,-0.402275 0.21485,-0.794014 0.29054,-1.19784 0.027,-0.144142 0.0963,-0.316664 0.0164,-0.43965 -0.13882,-0.213725 -0.35604,-0.520097 -0.6053,-0.467056 -0.19117,0.04067 0.039,0.388932 0.0585,0.583398 -0.0124,1.952057 -0.0657,4.339985 -1.08876,6.064031 -0.16675,0.281 -0.40194,0.515278 -0.60291,0.772919 -0.43046,0.332888 -0.7645,0.674521 -1.31085,0.805236 -0.51875,0.124113 -1.23805,-0.0359 -1.4897,-0.563073 -0.0985,-0.206394 -0.0964,-0.447144 -0.14453,-0.670717 0.0767,-0.643966 0.0343,-0.811021 0.32885,-1.379897 0.0758,-0.146322 0.16413,-0.294603 0.2913,-0.399372 0.53809,-0.443273 1.13631,-0.07972 1.60422,0.238429 0.1527,0.159208 0.33198,0.296624 0.45809,0.477618 0.48486,0.695891 0.22694,1.304149 -0.56881,1.476634 -0.70278,-0.07812 -0.81326,0.915757 -0.11048,0.993878 z" />
    <path
       style="fill:#0000ff;stroke-width:0.264583"
       id="path1397"
       d="m 116.17305,40.089423 c 0.98342,0.6673 2.43211,1.582004 3.57348,0.66131 0.22892,-0.184658 0.36032,-0.46495 0.54049,-0.697423 0.0834,-0.263901 0.21423,-0.517287 0.25034,-0.7917 0.12315,-0.935913 -0.32079,-1.714867 -1.36876,-1.699003 -0.82235,0.01246 -1.2213,0.490024 -1.8164,0.953503 -0.22833,0.310369 -0.49138,0.597969 -0.68498,0.931103 -0.59807,1.029097 -1.18045,2.925977 0.007,3.815104 0.26232,0.196344 0.61248,0.233074 0.91872,0.349609 0.96889,0.02495 1.83558,-0.278728 2.6609,-0.764823 0.20622,-0.121457 0.393,-0.273243 0.5895,-0.409866 0.57792,-0.407439 0.002,-1.224743 -0.57621,-0.817303 v 0 c -0.15748,0.112935 -0.3068,0.238212 -0.47244,0.33881 -0.59148,0.359224 -1.2355,0.615471 -1.92628,0.691872 -0.14467,-0.01267 -0.29963,0.01704 -0.43402,-0.03802 -0.36514,-0.149591 -0.46031,-0.50404 -0.46066,-0.87103 -7.9e-4,-0.920909 0.48287,-1.743265 1.01321,-2.453121 0.60557,-0.538369 0.40119,-0.447334 1.04591,-0.735034 0.0859,-0.03833 0.17044,-0.101285 0.26446,-0.09846 0.27477,0.0083 0.28514,0.358394 0.27737,0.534344 -0.008,0.172019 -0.0774,0.335553 -0.11617,0.503331 -0.13246,0.266644 -0.17459,0.495032 -0.49109,0.603594 -0.77021,0.264183 -1.65572,-0.479386 -2.25825,-0.850646 -0.59669,-0.379424 -1.13328,0.464423 -0.53659,0.843846 z" />
    <path
       style="fill:#0000ff;stroke-width:0.264583"
       id="path1399"
       d="m 122.00731,40.51678 c -0.13842,0.727446 -0.22203,1.469184 -0.24237,2.209819 -0.005,0.169233 -0.0131,0.340143 0.0105,0.507778 0.0165,0.117067 -0.009,0.33524 0.10879,0.337592 0.3716,0.0074 0.71323,-0.209418 1.06985,-0.314126 0.32787,-1.076246 0.55098,-2.179027 1.02273,-3.208306 0.28972,-0.632106 0.64379,-1.292625 1.21578,-1.724975 0.16895,-0.127712 0.38951,-0.166452 0.58427,-0.249677 0.59991,-0.06001 1.06102,0.187751 1.56207,0.470697 0.62288,0.3347 1.09622,-0.54618 0.47334,-0.88088 v 0 c -0.22279,-0.115422 -0.43315,-0.25894 -0.66838,-0.346268 -0.87239,-0.323877 -0.8797,-0.21834 -1.80885,-0.140656 -0.29332,0.157155 -0.62129,0.262126 -0.87997,0.471459 -1.44648,1.170524 -1.92673,3.453929 -2.39543,5.161409 0.24563,0.117272 0.49922,0.219149 0.73689,0.351817 0.0152,0.0085 -0.0198,0.06489 -0.0214,0.04757 -0.074,-0.827445 0.0897,-1.669944 0.20995,-2.483763 0.14813,-0.691414 -0.82968,-0.900906 -0.97781,-0.209492 z" />
    <path
       style="fill:#0000ff;stroke-width:0.264583"
       id="path1401"
       d="m 130.0779,38.088924 c -0.33918,0.998667 -0.66993,2.0051 -0.85622,3.046039 -0.0308,0.17199 -0.2634,1.335006 0.0278,1.602902 0.22874,0.210418 0.58951,0.197146 0.88427,0.295719 0.25277,-0.260622 0.5439,-0.48887 0.7583,-0.781865 0.26001,-0.355306 0.9704,-1.817542 1.16457,-2.195814 0.32045,-0.624337 0.41274,-0.887124 0.81672,-1.373682 0.0526,-0.06335 -0.0857,0.140616 -0.12858,0.210926 -0.0774,0.04589 -0.22745,0.0478 -0.23228,0.137671 -0.0103,0.191338 0.11065,0.368823 0.19585,0.540451 0.43783,0.88193 0.91476,1.275651 1.95801,0.929502 0.31047,-0.103015 0.55994,-0.338357 0.83991,-0.507537 0.46115,-0.318791 0.8297,-0.756523 1.28461,-1.083355 0.0906,-0.06511 0.40809,-0.112604 0.30148,-0.14555 -0.51067,-0.157811 -0.549,0.161296 -0.60242,0.501735 -0.0488,0.311354 -0.0663,0.62683 -0.0995,0.940244 -0.0668,1.017765 -0.26079,2.53042 0.88759,3.072879 0.22672,0.107093 0.72088,0.12428 0.99683,0.142603 0.13398,0.08616 0.14044,0.06954 -0.0168,0.0508 0.39192,0.588557 1.22427,0.0343 0.83235,-0.554258 v 0 c -0.4473,-0.463872 -0.19022,-0.310271 -0.75015,-0.4944 -0.11558,-0.0075 -0.23096,-0.02561 -0.34674,-0.02241 -0.10101,0.0028 -0.2572,0.09809 -0.35777,-7.4e-5 -0.52172,-0.509246 -0.23969,-1.485101 -0.25079,-2.090698 0.028,-0.268695 0.22747,-1.719352 0.0632,-1.993352 -0.60481,-1.008933 -1.40131,-0.09302 -1.87717,0.312774 -0.20244,0.172638 -0.403,0.34747 -0.60451,0.521203 -0.18122,0.126495 -0.36758,0.245928 -0.54366,0.379479 -0.0821,0.0623 -0.12911,0.184581 -0.22971,0.207084 -0.0923,0.02066 -0.19818,-0.03119 -0.2672,-0.09594 -0.53304,-0.500128 -0.34396,-1.461389 -1.17244,-1.748827 -0.23087,0.06866 -0.49666,0.06592 -0.69261,0.205976 -0.25238,0.180387 -0.82873,1.373023 -0.8974,1.506887 -0.1859,0.362344 -0.3606,0.730408 -0.5493,1.091303 -0.64654,1.236572 -0.36552,0.544131 -0.66876,1.354121 0.0888,0.138068 0.15079,0.297556 0.26626,0.414205 0.0665,0.06713 -0.11208,-0.165264 -0.11333,-0.259709 -0.004,-0.285425 0.0491,-0.569545 0.0987,-0.850646 0.1781,-1.008745 0.50124,-1.982864 0.82948,-2.950171 0.22361,-0.670821 -0.72507,-0.987049 -0.94868,-0.316227 z" />
    <path
       style="fill:#0000ff;stroke-width:0.264583"
       id="path1405"
       d="m 72.047459,64.65173 c 0,0.652675 0.0127,1.30547 0,1.958023 -0.114954,5.904759 -0.46863,11.80642 -0.762069,17.703768 -0.578255,11.621436 -0.264581,5.139166 -0.807029,16.603169 -0.353245,7.83116 -0.686086,15.66985 -0.635527,23.51099 0.0062,0.95833 0.05525,3.07496 0.08064,4.22612 7.94e-4,0.74798 -0.271171,1.31844 0.965343,0.58943 0.09159,-0.054 -0.01865,-0.21183 -0.028,-0.31775 -0.06343,-0.70426 -1.059394,-0.61456 -0.995971,0.0897 v 0 c 0.01122,0.12235 -0.07903,0.31813 0.03367,0.36703 1.129766,0.49019 1.013389,0.37995 1.016667,-0.0395 0.0019,-0.23699 0.0054,-0.47397 0.008,-0.71095 -0.02511,-1.13819 -0.07428,-3.2601 -0.0804,-4.20319 -0.05077,-7.82567 0.282059,-15.6489 0.63441,-23.46461 0.542544,-11.466072 0.228465,-4.975216 0.806918,-16.600851 0.294257,-5.913927 0.648166,-11.831998 0.7633,-17.753346 0.0127,-0.652553 0,-1.305348 0,-1.958023 0,-0.707106 -1.000001,-0.707106 -1.000001,0 z" />
    <path
       style="fill:#0000ff;stroke-width:0.264583"
       id="path1407"
       d="m 72.450287,63.958025 c 1.186347,0.878644 2.631316,1.310949 4.105577,1.27028 0.254272,-0.007 0.506121,-0.05153 0.759182,-0.07729 0.713893,-0.196125 0.394594,-0.05967 0.969163,-0.381929 0.602835,-0.369581 0.08017,-1.222118 -0.522668,-0.852535 v 0 c -0.269243,0.200837 -0.0957,0.09901 -0.553765,0.240234 -0.207899,0.02397 -0.414581,0.06369 -0.623695,0.07192 -1.241258,0.04882 -2.464403,-0.298654 -3.475315,-1.023279 -0.532167,-0.465613 -1.190646,0.286986 -0.658479,0.7526 z" />
    <path
       style="fill:#0000ff;stroke-width:0.264583"
       id="path1409"
       d="m 73.460646,63.100759 c 0.995513,-0.597977 2.168943,-0.888119 3.329117,-0.891112 0.193421,-5.29e-4 0.386027,0.02511 0.579041,0.03766 0.119581,0.04516 0.253693,0.06266 0.35874,0.13549 0.250571,0.173723 0.313651,1.000284 0.341334,1.207887 0.015,0.112554 0.16015,1.432742 0.17285,1.547757 0.0218,0.21137 0.04359,0.42274 0.06538,0.634111 0.07254,0.703376 1.067261,0.600794 0.994725,-0.102582 v 0 c -0.02204,-0.213765 -0.0441,-0.427527 -0.06615,-0.641292 -0.09493,-0.859583 -0.146677,-2.453052 -0.659249,-3.144255 -0.361391,-0.487333 -0.621054,-0.476957 -1.148995,-0.635394 -0.233267,-0.01249 -0.466215,-0.03992 -0.699805,-0.03745 -1.350838,0.01426 -2.705571,0.367657 -3.854921,1.08027 -0.571986,0.415732 0.01596,1.224643 0.587931,0.808911 z" />
    <path
       style="fill:#0000ff;stroke-width:0.264583"
       id="path1411"
       d="m 70.271271,129.63777 c 0.862269,0.59849 1.856441,1.00288 2.900649,1.13899 0.512169,0.0668 0.699857,0.0333 1.18338,2.5e-4 0.130895,-0.0211 0.26238,-0.0388 0.392687,-0.0633 0.09634,-0.0181 0.190233,-0.0484 0.286956,-0.0643 0.179687,-0.0296 0.362075,0.0265 0.541309,-0.0161 0.100317,-0.0238 0.193363,-0.0717 0.290044,-0.10752 0.6219,-0.33652 0.145994,-1.21601 -0.475903,-0.8795 v 0 c 0.03667,-0.003 0.146581,-0.0145 0.110019,-0.0101 -0.257813,0.031 0.0075,-0.0101 -0.39705,0.009 -0.28216,0.0131 -0.544817,0.0959 -0.823259,0.13498 -0.366718,0.031 -0.530961,0.0606 -0.920512,0.0147 -0.883978,-0.10413 -1.729213,-0.44109 -2.463699,-0.93769 -0.552199,-0.44168 -1.176819,0.33925 -0.624621,0.78093 z" />
    <path
       style="fill:#0000ff;stroke-width:0.264583"
       id="path1421"
       d="m 75.422434,128.61554 c -0.0029,-0.82145 -0.01516,-1.64292 -0.0087,-2.46435 0.04328,-5.50443 0.188788,-11.00608 0.194958,-16.51127 0.0028,-2.48539 -0.02653,-4.97071 -0.0342,-7.45609 -0.0077,-2.491612 -0.0079,-4.983241 -0.01191,-7.474859 0.03255,-5.695699 0.198972,-11.393958 0.684707,-17.070567 0.146103,-1.707465 0.344858,-3.486314 0.616644,-5.188151 0.06996,-0.438045 0.164581,-0.871792 0.246872,-1.30769 0.136141,-0.645658 0.252386,-1.297758 0.409397,-1.939068 0.0623,-0.254458 0.134922,-0.494289 0.178644,-0.753822 -0.0016,-0.112424 0.0026,-0.225097 -0.0051,-0.337267 0.0059,-0.16856 -0.06418,-0.327109 -0.07648,-0.492932 -0.02998,-0.404423 0.07263,-0.844618 0.130701,-1.239012 0.08207,-0.500668 0.159936,-0.999672 0.198927,-1.505429 0.05184,-0.705204 -0.945467,-0.778517 -0.997307,-0.07332 v 0 c -0.03332,0.482291 -0.117811,0.956575 -0.19113,1.434288 -0.09943,0.686451 -0.204663,1.369076 -0.04684,2.054331 -0.03668,0.242842 -0.110278,0.463682 -0.168892,0.702098 -0.159726,0.649706 -0.276209,1.310865 -0.414641,1.96501 -0.08478,0.45102 -0.182116,0.899862 -0.254344,1.353061 -0.274545,1.722644 -0.476166,3.527782 -0.623837,5.255583 -0.487281,5.70122 -0.654794,11.424115 -0.687324,17.144476 0.004,2.492618 0.0042,4.985247 0.01191,7.47786 0.0077,2.48142 0.03699,4.96279 0.03422,7.44422 -0.0061,5.5088 -0.152231,11.01409 -0.194979,16.52215 -0.0064,0.83004 0.0061,1.66011 0.0091,2.49017 0.0208,0.7068 1.020373,0.67738 0.999566,-0.0294 z" />
    <path
       style="fill:#0000ff;stroke-width:0.264583"
       id="path1431"
       d="m 72.944923,64.001522 c -0.361654,-0.249639 -0.647531,-0.4944 -1.109678,-0.572704 -1.161794,-0.196847 -2.304024,0.349975 -3.244213,0.968857 -0.398132,0.262067 -0.754882,0.582155 -1.132321,0.873233 -0.366972,0.350618 -0.7527,0.682599 -1.100916,1.051851 -1.54742,1.640904 -2.928709,3.699452 -3.803763,5.77822 -0.237231,0.563562 -0.414245,1.150617 -0.621369,1.725927 -0.932508,3.054898 -0.887997,6.246741 -0.818576,9.403003 0.127876,2.838535 0.04502,5.678361 -0.0048,8.517427 -0.09838,2.416821 -0.17272,4.833914 -0.191638,7.252692 -0.04613,1.706912 0.07622,3.409972 0.138507,5.114552 0.08032,1.4949 -0.03791,2.98776 -0.100425,4.48063 0.0078,0.65639 -0.07707,1.30888 -0.102267,1.96366 -0.02371,0.61611 -0.02281,1.23461 -0.04205,1.85115 -0.03844,1.0203 0.07211,2.03849 0.109196,3.05778 -0.01667,0.87517 0.07878,1.74422 0.140663,2.61559 0.02847,0.75803 0.01572,1.51294 0.09107,2.26848 0.0035,0.41097 0.154868,0.80411 0.190494,1.21033 0.0072,0.0824 -0.01603,0.2707 -0.02408,0.3497 -0.05139,0.54066 0.0305,1.08799 0.04982,1.63103 0.05486,0.79444 -0.0066,1.58127 -0.08643,2.37062 -0.01445,0.52778 0.0701,1.05004 0.09496,1.57655 0.05883,0.61117 0.236715,0.96618 0.686356,1.38087 0.468169,0.31046 0.917268,0.64437 1.423958,0.88915 0.592871,0.20228 1.166535,0.44204 1.768647,0.61651 0.709846,0.19975 1.432857,0.37012 2.164437,0.46707 1.050005,0.20215 2.115651,0.1544 3.173169,0.0536 0.822312,-0.0493 1.626645,-0.23538 2.442806,-0.32929 0.140972,0.0164 0.174212,-0.002 0.110643,0.0247 0.673627,0.21501 0.977699,-0.73764 0.304075,-0.95265 v 0 c -0.322794,-0.0794 -0.146587,-0.0523 -0.530836,-0.0653 -0.809352,0.0959 -1.607428,0.27514 -2.422782,0.32715 -0.983146,0.0963 -1.972781,0.14091 -2.948752,-0.05 -0.681603,-0.0856 -1.353841,-0.2538 -2.01514,-0.43602 -0.114591,-0.033 -0.47525,-0.13358 -0.605364,-0.18232 -0.33587,-0.1258 -0.659567,-0.28803 -1.009627,-0.37573 -0.427572,-0.20155 -0.7934,-0.49521 -1.197144,-0.73986 -0.230531,-0.1768 -0.317794,-0.38543 -0.345585,-0.67565 -0.02305,-0.47731 -0.08968,-0.95065 -0.0989,-1.42817 0.08445,-0.83457 0.146423,-1.66741 0.09087,-2.50714 -0.0118,-0.32617 -0.0137,-0.4659 -0.03626,-0.7817 -0.01101,-0.15417 -0.05722,-0.34365 -0.04665,-0.50126 0.005,-0.0749 0.01984,-0.14881 0.02976,-0.22321 0.02048,-0.25203 0.0376,-0.34272 0.01389,-0.60636 -0.03453,-0.38383 -0.177085,-0.75439 -0.181343,-1.14257 -0.07543,-0.7457 -0.05482,-1.49141 -0.08858,-2.23957 -0.06132,-0.85994 -0.156061,-1.71737 -0.138805,-2.5811 -0.03655,-0.99677 -0.144103,-1.99248 -0.109017,-2.99011 0.01886,-0.60502 0.01704,-1.21209 0.04038,-1.81665 0.02558,-0.66272 0.11054,-1.32321 0.10355,-1.98752 0.06353,-1.51897 0.182554,-3.03797 0.100634,-4.55899 -0.06186,-1.68982 -0.183584,-3.37808 -0.137872,-5.070202 0.01881,-2.41554 0.09368,-4.829365 0.191514,-7.242963 0.05002,-2.852251 0.132799,-5.705279 0.0047,-8.556998 -0.06701,-3.033779 -0.122201,-6.10367 0.760222,-9.043681 0.193405,-0.542615 0.358349,-1.096232 0.580218,-1.627846 0.823589,-1.973392 2.13415,-3.930896 3.595589,-5.491766 0.323377,-0.345376 0.681808,-0.656179 1.022713,-0.984268 0.335219,-0.26312 0.652925,-0.55023 1.005663,-0.789358 0.596212,-0.404185 1.622528,-0.986076 2.40117,-0.907582 0.333129,0.03358 0.546227,0.216776 0.806842,0.390591 0.532055,0.465744 1.190717,-0.286697 0.658661,-0.75244 z" />
    <path
       style="fill:#0000ff;stroke-width:0.264583"
       id="path1443"
       d="m 78.635282,66.288231 c 0.450345,-0.372213 0.901182,-0.746482 1.389158,-1.069464 0.294629,-0.195011 0.605639,-0.396648 0.95721,-0.477322 0.107053,-0.02455 0.219548,-0.0073 0.329324,-0.01098 0.395097,0.09597 0.757261,0.285057 1.120026,0.462283 0.228521,0.111643 0.631494,0.300585 0.847368,0.448524 0.134077,0.09189 0.253246,0.203825 0.379867,0.305737 0.839947,0.845854 1.66465,1.857549 2.238934,2.904453 0.105968,0.193175 0.189063,0.398041 0.283593,0.597064 0.113996,0.33751 0.219602,0.570719 0.246552,0.923665 0.02891,0.378654 -0.04066,0.720953 -0.109109,1.093695 -0.04617,0.251447 -0.316182,1.550662 -0.356774,1.747155 -0.408411,2.036048 -0.549463,4.103566 -0.583341,6.175274 -0.07107,1.463252 0.201737,2.903607 0.387583,4.346962 0.246404,1.423813 0.349652,2.864437 0.52568,4.297039 0.14021,1.173626 0.245541,2.352898 0.237421,3.535294 -0.01797,1.133271 0.159097,2.2484 0.364866,3.358375 0.205533,0.954405 0.477403,1.89503 0.611637,2.863249 0.09149,0.81575 0.100864,1.636665 0.08507,2.456636 -0.04869,1.00946 -0.06435,2.01981 -0.0701,3.03027 -0.0038,0.92362 -0.02522,1.8522 -0.127527,2.77113 -0.04878,0.43813 -0.120565,0.87339 -0.180028,1.3102 -0.248869,1.1185 -0.220151,2.27231 -0.431728,3.39388 -0.210323,0.76836 -0.516623,1.50601 -0.743924,2.26904 -0.129839,0.43586 -0.194381,0.74002 -0.297667,1.18075 -0.178517,0.92759 -0.238138,1.871 -0.412593,2.79919 -0.232053,0.77003 -0.332307,1.56558 -0.446395,2.35868 -0.132932,0.63638 -0.471101,1.19943 -0.730985,1.78768 -0.442095,1.053 -0.719709,2.16191 -1.054548,3.25074 -0.347305,1.02505 -1.261999,1.66326 -2.05923,2.33107 -0.907191,0.78339 -1.833367,1.54818 -2.819416,2.23069 -0.64692,0.40154 -1.325804,0.8078 -2.075331,0.98525 -0.141544,0.0335 -0.286589,0.05 -0.429882,0.075 -0.403913,0.0594 -0.831122,0.13567 -1.242131,0.0849 -0.178734,-0.0221 -0.341612,-0.11668 -0.517613,-0.15486 -0.157202,-0.0341 -0.317597,-0.0513 -0.476398,-0.0769 -0.578654,-0.0115 -1.123394,0.16928 -1.673418,0.31894 -0.682273,0.18575 -0.419576,1.15063 0.262694,0.96488 v 0 c 0.416584,-0.1135 0.830332,-0.25142 1.262023,-0.29494 0.111744,0.015 0.22511,0.0209 0.335235,0.0451 0.45592,0.10018 0.285314,0.14063 0.792409,0.19768 0.476467,0.0536 0.968078,-0.0321 1.436822,-0.101 0.181502,-0.0343 0.365244,-0.0584 0.544507,-0.10296 0.8474,-0.21068 1.619544,-0.65825 2.351128,-1.11937 1.009459,-0.70189 1.962639,-1.48091 2.89157,-2.28577 0.948888,-0.7951 1.982068,-1.57443 2.372923,-2.80388 0.32311,-1.05236 0.591201,-2.12386 1.014482,-3.14289 0.292081,-0.67215 0.679386,-1.31337 0.804973,-2.04688 0.112112,-0.77955 0.211204,-1.56037 0.439555,-2.31731 0.169977,-0.91389 0.238022,-1.84065 0.403342,-2.75518 0.09008,-0.38597 0.161562,-0.71826 0.274685,-1.09852 0.239628,-0.80548 0.568894,-1.58249 0.776639,-2.39787 0.03598,-0.19939 0.0806,-0.39742 0.10794,-0.59818 0.04057,-0.29791 0.0585,-0.77832 0.08523,-1.08001 0.05237,-0.59126 0.146899,-1.17705 0.245962,-1.76195 0.06169,-0.45316 0.135363,-0.90483 0.185491,-1.35941 0.10427,-0.94557 0.127119,-1.9008 0.131189,-2.85113 0.0057,-1.00651 0.02172,-2.01288 0.06997,-3.01839 0.014,-0.872385 0.0065,-1.745859 -0.09468,-2.613597 -0.140102,-0.982168 -0.40254,-1.939126 -0.61867,-2.906366 -0.194778,-1.047739 -0.365493,-2.099582 -0.348086,-3.169613 0.0069,-1.225312 -0.09827,-2.447538 -0.244896,-3.663714 -0.176911,-1.43442 -0.279497,-2.877146 -0.526409,-4.302826 -0.180406,-1.395495 -0.447278,-2.788013 -0.379492,-4.202811 0.0322,-2.009233 0.167351,-4.014322 0.562795,-5.989159 0.201451,-0.97523 0.568145,-2.241552 0.468127,-3.234274 -0.04552,-0.45175 -0.17627,-0.736481 -0.326644,-1.165376 -0.111384,-0.229841 -0.210497,-0.466045 -0.334147,-0.689526 -0.283144,-0.511741 -0.598514,-0.947345 -0.946333,-1.416256 -0.461716,-0.622469 -0.946052,-1.230191 -1.525466,-1.749036 -0.167928,-0.129662 -0.327937,-0.270282 -0.503782,-0.388985 -0.231275,-0.156117 -0.657445,-0.358632 -0.907733,-0.480163 -0.286898,-0.139306 -0.721042,-0.358352 -1.027107,-0.443744 -0.202237,-0.05642 -0.413083,-0.07546 -0.619628,-0.113191 -0.20072,0.02532 -0.406632,0.024 -0.602162,0.07595 -0.986541,0.262112 -1.839494,1.112192 -2.631107,1.717995 -0.537046,0.459981 0.113467,1.219478 0.65051,0.759495 z" />
    <path
       style="fill:#0000ff;stroke-width:0.264583"
       id="path1445"
       d="m 73.757554,63.828048 c -1.297837,-1.336672 -2.983027,-2.237163 -4.780566,-2.707224 -0.540803,-0.141423 -1.096116,-0.220001 -1.644174,-0.330002 -2.323129,-0.30907 -4.719008,-0.226843 -6.935303,0.607856 -1.520545,0.572667 -1.764422,0.861116 -3.090045,1.777069 -0.422222,0.397327 -0.869206,0.769882 -1.266666,1.191977 -0.744609,0.79076 -1.3794,1.701266 -1.993858,2.59243 -0.816459,1.184129 -1.556544,2.40579 -2.277819,3.649107 -0.781235,1.458589 -1.536742,2.955835 -1.995591,4.553103 -0.292798,1.019246 -0.297232,1.302906 -0.445116,2.340869 -0.03445,0.352579 -0.07719,0.704443 -0.103338,1.057733 -0.02816,0.38045 -0.08311,1.765612 -0.103291,2.150086 -0.05923,1.128464 -0.128569,2.256684 -0.202742,3.384251 -0.171879,2.16548 -0.206637,4.337712 -0.328023,6.505893 -0.214468,1.962427 -0.248589,3.935531 -0.332586,5.905587 -0.01312,0.292494 -0.02302,0.58515 -0.03934,0.877485 -0.03311,0.593302 -0.09251,1.18505 -0.119796,1.778648 -0.04019,0.874294 -0.01418,1.750464 0.0024,2.624904 0.02053,1.51281 0.157099,3.01997 0.202737,4.5319 0.03194,0.67011 0.06469,1.34781 0.252727,1.99677 0.05728,0.19769 0.144674,0.38541 0.213537,0.57937 0.222015,0.62536 0.160534,0.44577 0.317421,1.09854 0.164608,0.75165 0.147465,1.52261 0.199152,2.28567 0.03582,0.52892 0.08158,1.05713 0.120562,1.58582 0.166945,1.24969 0.195858,2.51089 0.301541,3.76503 0.08145,0.57271 -0.01307,1.15089 -0.03617,1.72572 0.0061,0.17881 0.0011,0.35832 0.01815,0.53641 0.04232,0.44273 0.145889,0.91272 0.237162,1.34586 0.172689,0.81952 0.385824,1.61968 0.618133,2.42413 0.455049,1.53377 0.972688,3.04885 1.524236,4.55041 0.222747,0.68728 0.452887,1.37528 0.805156,2.00935 0.251378,0.45247 0.346106,0.56209 0.643953,0.98282 0.558541,0.76207 1.189577,1.35083 1.978599,1.86188 0.107495,0.0709 0.213106,0.14467 0.322488,0.21258 0.391586,0.24312 0.362405,0.2016 0.761288,0.44168 0.421079,0.25344 0.817401,0.54458 1.217639,0.82897 0.772824,0.5492 1.581407,0.97025 2.493539,1.22636 0.709533,0.16379 1.433883,0.0791 2.142075,-0.0417 1.258186,-0.31448 2.365118,-1.01713 3.406605,-1.76609 0.784164,-0.56375 1.385073,-1.32035 2.014046,-2.04194 0.258937,-0.32872 0.537718,-0.64275 0.792771,-0.97458 0.139784,-0.18186 0.237159,-0.3361 0.415837,-0.47749 0.760939,-0.59783 1.436548,-1.28791 2.085869,-2.00249 0.475441,-0.52341 -0.264773,-1.19578 -0.740211,-0.67237 v 0 c -0.621419,0.68436 -1.267709,1.34511 -1.997281,1.91632 -0.506836,0.4533 -0.853896,1.05125 -1.310826,1.55355 -0.578641,0.66389 -1.126635,1.36525 -1.844997,1.88781 -0.916988,0.66288 -1.88994,1.29142 -2.992308,1.59192 -0.561967,0.0988 -1.139701,0.17807 -1.706039,0.063 -0.795319,-0.21352 -1.507402,-0.60483 -2.179923,-1.07748 -0.427067,-0.30334 -0.850643,-0.61107 -1.299808,-0.88151 -0.205449,-0.1237 -0.500645,-0.28009 -0.707972,-0.40888 -0.112384,-0.0698 -0.220948,-0.1456 -0.331422,-0.2184 -0.668274,-0.42728 -1.235557,-0.95662 -1.705042,-1.60066 -0.259516,-0.363 -0.347739,-0.46558 -0.566726,-0.85499 -0.33659,-0.59855 -0.545413,-1.25311 -0.758643,-1.90244 -0.543533,-1.47942 -1.053629,-2.97218 -1.502238,-4.4833 -0.225457,-0.77909 -0.43098,-1.55354 -0.599146,-2.34712 -0.06758,-0.31891 -0.182576,-0.84347 -0.21748,-1.18167 -0.01577,-0.15273 -0.01217,-0.30684 -0.01826,-0.46026 0.0241,-0.61637 0.1231,-1.23597 0.03332,-1.85052 -0.108511,-1.24985 -0.13154,-2.50791 -0.300614,-3.7534 -0.03851,-0.5222 -0.08382,-1.0439 -0.119314,-1.56631 -0.05602,-0.82456 -0.04038,-1.65761 -0.226187,-2.46866 -0.168577,-0.68219 -0.124018,-0.58244 -0.353481,-1.215 -0.05409,-0.14911 -0.127097,-0.29148 -0.172907,-0.44334 -0.176956,-0.58662 -0.197978,-1.20285 -0.229259,-1.80961 -0.04586,-1.50815 -0.180703,-3.01156 -0.202459,-4.52052 -0.01601,-0.84516 -0.04332,-1.69281 -0.0044,-2.537858 0.02767,-0.60139 0.08759,-1.200919 0.121118,-1.80201 0.01635,-0.293087 0.0263,-0.5865 0.03944,-0.879748 0.0835,-1.965664 0.118189,-3.934259 0.331933,-5.892316 0.120753,-2.164948 0.156133,-4.333835 0.327424,-6.496073 0.07456,-1.134388 0.14428,-2.26943 0.20388,-3.40472 0.01548,-0.295097 0.07724,-1.792329 0.09961,-2.098423 0.02479,-0.33909 0.06552,-0.676828 0.09828,-1.015241 0.131715,-0.949589 0.137266,-1.22854 0.402638,-2.16122 0.436467,-1.533996 1.165381,-2.969847 1.912892,-4.370408 0.70567,-1.217425 1.430734,-2.412326 2.228591,-3.572481 0.570026,-0.828868 1.17824,-1.705589 1.865659,-2.444655 0.360989,-0.388109 0.767093,-0.731665 1.150638,-1.097499 1.194623,-0.839772 1.421686,-1.109324 2.798202,-1.637525 2.061067,-0.790877 4.295701,-0.867884 6.460916,-0.587042 0.508738,0.09967 1.023972,0.170566 1.526217,0.299019 1.612773,0.412472 3.130936,1.20246 4.312354,2.382136 0.441804,0.552093 1.222584,-0.07271 0.78078,-0.624808 z" />
    <path
       style="fill:#0000ff;stroke-width:0.264583"
       id="path1449"
       d="m 72.364247,128.08219 c 0.31242,0.22805 0.863068,0.43313 1.123114,0.71839 0.06848,0.0751 0.192355,0.37435 0.219303,0.43389 0.426471,0.97169 1.023165,1.84332 1.714889,2.6424 0.722444,0.74785 1.48936,1.48304 2.380786,2.0297 0.197176,0.12092 0.405977,0.22177 0.608968,0.33265 1.078656,0.48815 2.229996,0.82451 3.42455,0.68063 0.248928,-0.03 0.492305,-0.0953 0.738455,-0.14303 0.83589,-0.26621 1.670224,-0.57739 2.451065,-0.9819 0.478594,-0.24793 0.640882,-0.37469 1.091676,-0.67564 1.164331,-0.75438 2.254771,-1.61068 3.288715,-2.53373 0.770647,-0.76194 1.540622,-1.55025 2.096397,-2.48912 0.394566,-0.66654 0.47293,-0.93832 0.768477,-1.66361 0.619382,-1.86106 1.215218,-3.73066 1.679856,-5.63675 0.07466,-0.32513 0.152069,-0.64963 0.22397,-0.97538 0.176784,-0.80092 0.255505,-1.16594 0.373009,-1.97736 0.157517,-1.0877 0.23358,-2.18229 0.32085,-3.27712 0.106198,-2.13864 0.204565,-4.28175 0.208081,-6.42346 -0.01056,-2.07094 -0.108714,-4.13872 -0.19722,-6.20723 -0.08285,-1.9489 -0.170966,-3.896358 -0.199014,-5.847128 0.03288,-2.383396 -0.225944,-4.755319 -0.473657,-7.121856 -0.135179,-2.006502 -0.42235,-3.999851 -0.573599,-6.004721 -0.07512,-0.995762 -0.0698,-1.36993 -0.08854,-2.339319 0.01164,-0.318828 0.02037,-0.637775 0.03494,-0.956484 0.02426,-0.531083 0.09715,-1.677602 0.113152,-2.189451 0.03746,-1.198224 0.0387,-2.399414 0.06055,-3.598119 0.07558,-1.902288 0.0058,-3.801743 -0.06808,-5.7023 -0.08459,-1.160669 -0.115536,-2.348997 -0.428546,-3.478493 -0.170815,-0.616384 -0.313663,-0.886534 -0.567936,-1.465419 -0.429342,-0.884811 -0.920327,-1.746874 -1.522846,-2.526937 -0.337513,-0.436965 -0.537776,-0.629343 -0.910961,-1.02293 -0.114371,-0.120459 -0.22874,-0.240916 -0.343111,-0.361375 -0.486873,-0.512789 -1.21207,0.175754 -0.725194,0.688546 v 0 c 0.114514,0.120608 0.229026,0.241215 0.34354,0.361826 0.316267,0.331731 0.536094,0.545994 0.81947,0.911624 0.563052,0.726485 1.022721,1.529083 1.424467,2.35353 0.212778,0.478009 0.362614,0.768527 0.505579,1.274405 0.302765,1.071316 0.322363,2.202646 0.406294,3.304087 0.07319,1.881553 0.142938,3.761931 0.06749,5.645214 -0.02164,1.188286 -0.02241,2.37908 -0.05949,3.566885 -0.0164,0.525819 -0.08961,1.663046 -0.113739,2.203201 -0.01505,0.337132 -0.0236,0.674526 -0.03538,1.011791 0.02005,1.009554 0.01434,1.375177 0.09273,2.413264 0.151648,2.008391 0.439092,4.005268 0.574651,6.015291 0.244652,2.336726 0.50156,4.678723 0.468323,7.032144 0.02829,1.960221 0.116528,3.917134 0.199827,5.875474 0.0879,2.05382 0.185618,4.1069 0.196307,6.16313 -0.0021,2.11564 -0.101864,4.2327 -0.204922,6.34537 -0.08501,1.0669 -0.158202,2.13375 -0.310682,3.19384 -0.11353,0.78931 -0.188174,1.13303 -0.360984,1.91632 -0.07092,0.32146 -0.147288,0.64169 -0.220932,0.96254 -0.452277,1.85922 -1.035839,3.68154 -1.635186,5.49814 -0.257728,0.64144 -0.33215,0.89758 -0.674611,1.48565 -0.506159,0.86918 -1.22347,1.59103 -1.929641,2.29662 -0.998603,0.8932 -2.05374,1.71953 -3.179156,2.44873 -0.371504,0.2501 -0.563158,0.39508 -0.957207,0.59985 -0.710287,0.36911 -1.469081,0.65258 -2.225678,0.90794 -0.198572,0.0416 -0.394658,0.0977 -0.595714,0.12492 -1.030497,0.13947 -1.95955,-0.15669 -2.894301,-0.56149 -0.173908,-0.0932 -0.353039,-0.17718 -0.521729,-0.27949 -0.820836,-0.49785 -1.522857,-1.17609 -2.189073,-1.85914 -0.637048,-0.73098 -1.181042,-1.5323 -1.570731,-2.42427 -0.186946,-0.36794 -0.2131,-0.49034 -0.507465,-0.78796 -0.333026,-0.3367 -0.822947,-0.5066 -1.204264,-0.77485 -0.599676,-0.37469 -1.129562,0.47338 -0.529887,0.84807 z" />
    <path
       style="fill:#0000ff;stroke-width:0.264583"
       id="path1453"
       d="m 78.454313,64.569506 c 1.198123,-0.799497 2.39537,-1.602227 3.65221,-2.308029 0.831276,-0.466818 1.031367,-0.548886 1.867064,-0.953707 0.682641,-0.289478 1.35064,-0.623805 2.060607,-0.844952 0.35796,-0.111501 0.735859,-0.168569 1.102672,-0.242594 0.312552,-0.02172 0.65201,-0.164642 0.967303,-0.08789 0.105085,0.02558 0.244605,0.09354 0.337884,0.134617 0.647089,0.307729 1.039352,0.335627 1.704223,0.06984 0.279641,-0.202986 0.171755,-0.1 0.342477,-0.287962 0.445566,-0.549064 -0.330925,-1.17919 -0.776491,-0.630127 v 0 c 0.03145,-0.02175 0.01887,-0.02553 0.03943,-7.93e-4 -0.35701,0.178212 -0.564385,0.104383 -0.923099,-0.07325 -0.250137,-0.101521 -0.366483,-0.165172 -0.636172,-0.208444 -0.418727,-0.06719 -0.841513,0.04594 -1.253382,0.103748 -0.414591,0.08367 -0.835684,0.15348 -1.239991,0.280665 -0.744225,0.234114 -1.446358,0.581453 -2.161786,0.887328 -0.868775,0.421701 -1.073525,0.505666 -1.936813,0.991007 -1.289214,0.724794 -2.518312,1.547741 -3.746056,2.370458 -0.565732,0.424206 0.03419,1.224267 0.599917,0.800063 z" />
    <path
       style="fill:#0000ff;stroke-width:0.264583"
       id="path1455"
       d="m 75.572878,62.803992 c 0.170506,-0.196395 0.330497,-0.402437 0.511517,-0.589185 0.752879,-0.776698 1.435041,-1.356553 2.275041,-2.065012 1.162052,-0.98008 2.349992,-1.929379 3.55393,-2.857183 0.560041,-0.431686 -0.05046,-1.223703 -0.610496,-0.792017 v 0 c -1.218769,0.939655 -2.422192,1.900211 -3.598122,2.893301 -0.765789,0.646718 -1.690412,1.43243 -2.38679,2.17859 -0.230124,0.246578 -0.426297,0.522785 -0.639448,0.784177 -0.316309,0.632413 0.578059,1.079744 0.894368,0.447329 z" />
    <path
       style="fill:#0000ff;stroke-width:0.264583"
       id="path1457"
       d="m 79.350771,55.366036 c 1.020257,0.273195 2.063861,0.42391 3.10324,0.598246 0.571976,0.09594 0.577834,-0.07783 0.545129,0.159854 -0.09107,-0.179454 -0.08682,-0.462463 -0.273201,-0.538356 -0.145934,-0.05942 -0.262361,0.174823 -0.388866,0.268761 -0.606457,0.450342 -0.478803,0.36081 -1.00783,0.886717 -0.498514,0.50148 0.210688,1.206486 0.709203,0.705006 v 0 c 0.476197,-0.486079 0.29447,-0.334341 0.880827,-0.778677 0.172558,-0.130765 0.427582,-0.190413 0.523467,-0.384532 0.144441,-0.292423 0.09632,-0.645152 0.144473,-0.967727 -0.130648,-0.07548 -0.24933,-0.177178 -0.391948,-0.226433 -0.187164,-0.06464 -1.301946,-0.218652 -1.398368,-0.234733 -0.756441,-0.126172 -1.504175,-0.290991 -2.249937,-0.468691 -0.693365,-0.138729 -0.889556,0.841838 -0.196189,0.980565 z" />
    <path
       style="fill:#0000ff;stroke-width:0.264583"
       id="path1459"
       d="m 88.420772,56.123831 c 0.72906,-0.562935 1.445842,-1.368644 1.360887,-2.368907 -0.02101,-0.247271 -0.08384,-0.504515 -0.222131,-0.71057 -0.147317,-0.219498 -0.401058,-0.344498 -0.601585,-0.516747 -0.289153,-0.03297 -0.578832,-0.136194 -0.867461,-0.09891 -1.142277,0.147558 -2.103088,1.408258 -1.773732,2.548744 0.0746,0.258326 0.275548,0.461804 0.413319,0.692706 0.247573,0.134577 0.471252,0.328173 0.742717,0.40373 0.547547,0.152392 1.135782,0.02119 1.620308,-0.244425 0.678747,-0.372078 1.112949,-1.011915 1.573406,-1.605412 0.161076,0.241668 -0.201152,-0.318839 -0.668599,-0.04379 -0.137076,0.08066 -0.0031,0.31827 0.0049,0.477118 0.03797,0.755938 0.02106,0.549018 0.217887,1.252736 0.202663,0.677442 1.160711,0.390834 0.958048,-0.286607 v 0 c -0.17635,-0.535924 -0.136649,-0.313836 -0.17626,-0.991648 -0.01259,-0.215485 0.09474,-0.466749 -0.02384,-0.647115 -0.586544,-0.89222 -0.642591,-0.703012 -1.102479,-0.373317 -0.508669,0.656934 -1.053071,1.568903 -2.001306,1.546828 -0.111995,-0.0026 -0.219559,-0.04466 -0.32934,-0.06699 -0.07811,-0.07319 -0.181477,-0.126487 -0.234333,-0.21957 -0.3321,-0.584856 0.252558,-1.226457 0.759193,-1.443198 0.101885,-0.04359 0.215937,-0.04994 0.323903,-0.07491 0.07773,0.01765 0.171484,0.0024 0.233182,0.05295 0.07992,0.06537 0.134385,0.166048 0.157583,0.26665 0.15167,0.657773 -0.431429,1.218364 -0.878382,1.592943 -0.606486,0.363561 -0.09234,1.221261 0.514149,0.857699 z" />
    <path
       style="fill:#0000ff;stroke-width:0.264583"
       id="path1461"
       d="m 94.659311,55.51825 c 0.398307,-0.662593 1.002604,-1.754819 0.671309,-2.553779 -0.09481,-0.228653 -0.2423,-0.464709 -0.459579,-0.583293 -0.242535,-0.132371 -0.547221,-0.07702 -0.820832,-0.11553 -0.235736,0.122113 -0.501399,0.198631 -0.707205,0.36634 -0.533625,0.434842 -0.910683,1.399024 -0.310044,1.971153 0.56202,0.535342 0.939064,0.29623 1.579668,0.171273 0.323104,-0.303551 0.804759,-0.392123 1.14178,-0.679466 0.07317,-0.06239 -0.169971,0.09408 -0.262921,0.118708 -0.102487,0.02715 -0.266896,-0.05917 -0.316167,0.03471 -0.141351,0.269332 -0.107077,0.599003 -0.172336,0.896091 -0.08548,0.389136 -0.186505,0.774692 -0.27976,1.162036 -0.324826,1.051198 -0.496755,2.219111 -1.141902,3.1447 -0.214103,0.307174 -0.409474,0.538242 -0.790443,0.444162 -0.110865,-0.02738 -0.195709,-0.117729 -0.293565,-0.176594 -0.09576,-0.09501 -0.221697,-0.16715 -0.287269,-0.285036 -0.04965,-0.08926 -0.05358,-0.202501 -0.04023,-0.303765 0.08527,-0.646819 1.24256,-1.041265 1.712777,-1.245428 0.721749,-0.25994 1.483646,-0.353846 2.234716,-0.48627 0.696362,-0.122793 0.522708,-1.107599 -0.173657,-0.984806 v 0 c -0.831331,0.146609 -1.673542,0.255472 -2.468118,0.557673 -0.619897,0.282149 -1.191786,0.47217 -1.68453,0.972577 -0.631894,0.641723 -0.816007,1.516999 -0.219411,2.259677 0.162068,0.20175 0.413231,0.311634 0.61985,0.467449 0.284374,0.06394 0.562186,0.209529 0.853122,0.19181 0.664895,-0.04049 1.075246,-0.434192 1.423953,-0.950047 0.677455,-1.002181 0.887632,-2.239068 1.227066,-3.372586 0.09685,-0.404233 0.204235,-0.806087 0.290547,-1.212701 0.12305,-0.579687 0.407496,-1.476891 -0.09253,-2.029243 -0.431827,-0.47702 -1.235612,0.340785 -1.551419,0.513614 -0.0288,0.01476 -0.528227,0.341971 -0.607825,0.229243 -0.206504,-0.292455 0.186172,-0.608571 0.363189,-0.776396 0.02822,-0.05281 0.03401,-0.126497 0.08466,-0.158438 0.234334,-0.14777 0.242517,0.300188 0.241705,0.349494 -0.0092,0.560945 -0.338032,1.061696 -0.608219,1.525733 -0.379669,0.596532 0.463955,1.133467 0.843624,0.536934 z" />
    <path
       style="fill:#0000ff;stroke-width:0.264583"
       id="path1463"
       d="m 98.567104,53.016012 c -0.155353,0.860692 -0.22596,1.738407 -0.243001,2.612511 -0.0093,0.474499 -0.01963,0.892863 0.114411,1.347865 0.03724,0.126418 0.11217,0.238516 0.168254,0.357775 0.336814,0.621736 1.216083,0.145409 0.879268,-0.476327 v 0 c -0.230941,-0.262573 -0.168087,-0.911141 -0.163065,-1.181793 0.01521,-0.819608 0.07876,-1.643116 0.221953,-2.450595 0.148096,-0.691425 -0.829728,-0.900859 -0.97782,-0.209436 z" />
    <path
       style="fill:#0000ff;stroke-width:0.264583"
       id="path1465"
       d="m 102.89595,53.361568 c 0.0964,-0.08158 0.18089,-0.179887 0.28927,-0.244745 0.30465,-0.182306 0.65847,-0.205454 0.97508,-0.04121 0.0604,0.03134 0.19988,0.07891 0.1564,0.131273 -0.0455,0.05484 -0.13175,-0.05441 -0.19762,-0.08162 -0.0625,0.03632 -0.1373,0.05698 -0.18756,0.108948 -0.53035,0.548343 -1.32856,1.725559 -1.2837,2.517767 0.0124,0.219498 0.12323,0.422079 0.18485,0.633118 0.17448,0.157623 0.31937,0.356061 0.52345,0.472869 0.37529,0.214818 0.83054,0.216061 1.2379,0.135109 0.17371,-0.03452 0.33351,-0.11935 0.50026,-0.179025 0.65797,-0.258984 0.29171,-1.189497 -0.36626,-0.930513 v 0 c -0.31978,0.148736 -0.61189,0.225013 -0.96417,0.136994 -0.0409,-0.05087 -0.10947,-0.08869 -0.12277,-0.152601 -0.0715,-0.343602 0.11458,-0.631185 0.27759,-0.91498 0.38336,-0.66738 0.99381,-1.163161 1.19484,-1.933056 -0.0862,-0.21858 -0.11398,-0.470466 -0.25846,-0.655736 -0.1074,-0.137726 -0.29082,-0.200451 -0.45521,-0.259439 -0.86014,-0.308637 -1.68935,0.0055 -2.29315,0.642781 -0.4342,0.558091 0.35506,1.172149 0.78926,0.614058 z" />
    <path
       style="fill:#0000ff;stroke-width:0.264583"
       id="path1467"
       d="m 102.34014,54.164441 c 0.8644,0.144672 1.73381,0.251293 2.60512,0.343331 0.7032,0.07417 0.80809,-0.920318 0.10489,-0.994484 v 0 c -0.84087,-0.08855 -1.67976,-0.191661 -2.51419,-0.329488 -0.69341,-0.138467 -0.88923,0.842174 -0.19582,0.980641 z" />
    <path
       style="fill:#0000ff;stroke-width:0.264583"
       id="path1469"
       d="m 94.833037,50.811718 c 1.056428,0.121274 2.119021,0.187838 3.175367,0.308763 0.70257,0.07997 0.815661,-0.913619 0.113089,-0.993584 v 0 c -1.093968,-0.123881 -2.193666,-0.198991 -3.288456,-0.31518 -0.707107,0 -0.707107,1.000001 0,1.000001 z" />
    <path
       style="fill:#0000ff;stroke-width:0.264583"
       id="path1475"
       d="m 73.951755,127.44076 c -0.200993,1.93306 -0.171625,3.91004 0.08017,5.83831 0.0841,0.64401 0.169669,1.29207 0.342847,1.91803 0.158332,0.5723 0.431318,1.10651 0.646975,1.65976 0.451823,0.42334 0.821301,0.95693 1.355471,1.27002 1.289267,0.75567 2.884254,0.81916 4.315592,0.84341 0.792893,0.0134 1.585621,-0.0447 2.377281,-0.0909 1.024684,-0.0598 2.406745,-0.20341 3.466391,-0.30751 0.703718,-0.0692 0.605901,-1.06437 -0.09782,-0.99521 v 0 c -1.88319,0.18518 -3.78461,0.41014 -5.67972,0.39581 -1.160468,-0.009 -2.629358,-0.0443 -3.719576,-0.59497 -0.418026,-0.21114 -0.725289,-0.59267 -1.087935,-0.889 -0.197487,-0.4895 -0.450014,-0.96024 -0.592465,-1.46849 -0.166825,-0.5952 -0.249807,-1.21187 -0.330558,-1.82472 -0.241884,-1.8357 -0.271057,-3.7164 -0.09611,-5.55828 0.138779,-0.69335 -0.841772,-0.88962 -0.980551,-0.19626 z" />
    <path
       style="fill:#0000ff;stroke-width:0.264583"
       id="path1479"
       d="m 85.581092,136.86109 c 0.818113,0.30948 1.679358,0.47657 2.515584,0.72473 0.204113,0.0606 0.414989,0.1094 0.604359,0.20671 0.02778,0.0143 -0.03202,0.0948 -0.05614,0.075 -0.104934,-0.0863 -0.164643,-0.21609 -0.246965,-0.32414 -0.570265,0.26024 -1.113743,0.56978 -1.651881,0.8896 -0.607465,0.36191 -0.09564,1.221 0.511828,0.85908 v 0 c 0.621374,-0.3712 1.270876,-0.68673 1.881222,-1.07736 0.103669,-0.31339 0.338913,-0.61126 0.31101,-0.94017 -0.03386,-0.39908 -0.889034,-0.59351 -1.096312,-0.65511 -0.783129,-0.23273 -1.588759,-0.39165 -2.359051,-0.66878 -0.643771,-0.2925 -1.057429,0.61793 -0.413655,0.91043 z" />
    <path
       style="fill:#0000ff;stroke-width:0.264583"
       id="path1481"
       d="m 95.585639,137.83654 c -0.08027,-0.82323 -0.422513,-1.56573 -0.906622,-2.22998 -0.212669,-0.29181 -0.692975,-0.86664 -1.090321,-0.96387 -0.291312,-0.0713 -0.599665,0.0132 -0.899499,0.0198 -0.30122,0.2049 -0.635127,0.36852 -0.903663,0.61471 -0.542359,0.49723 -1.184799,1.43452 -1.50636,2.08701 -0.259326,0.5262 -0.592818,1.41435 -0.495509,2.04794 0.04471,0.29113 0.233947,0.54064 0.350922,0.81095 0.243454,0.16037 0.451358,0.39658 0.730361,0.48111 1.396672,0.42318 2.936542,-0.8894 3.764076,-1.84091 0.251183,-0.28881 0.458285,-0.61318 0.687425,-0.91978 0.488463,-0.89386 0.421124,-0.7031 0.754951,-1.52441 0.03527,-0.0868 0.177925,-0.2212 0.09486,-0.26449 -0.302456,-0.15765 -0.680278,-0.32201 -1.001816,-0.20822 -0.207499,0.0734 -0.142639,0.41718 -0.193685,0.63128 -0.06961,0.29197 -0.111829,0.58979 -0.167743,0.88468 -0.06973,0.84047 -0.457171,2.48571 0.739542,2.80086 0.218633,0.0576 0.449283,-0.0511 0.673928,-0.0766 0.682479,-0.18499 0.420873,-1.15016 -0.261609,-0.96518 v 0 c -0.0117,0.0385 -0.02376,0.077 -0.03512,0.11562 -0.01474,0.0501 -0.0024,0.18302 -0.0432,0.15047 -0.386101,-0.30793 -0.08717,-1.47563 -0.09047,-1.842 0.04757,-0.26041 0.08469,-0.52295 0.142706,-0.78124 0.03834,-0.17069 0.243877,-0.35911 0.146018,-0.50413 -0.792115,-1.17381 -0.766437,-0.72606 -0.924692,-0.32999 -0.07531,0.18848 -0.14636,0.37911 -0.234702,0.56184 -0.124312,0.25713 -0.268393,0.50422 -0.40259,0.75633 -0.198424,0.27074 -0.378158,0.55622 -0.595273,0.81221 -0.592777,0.69892 -1.587804,1.64484 -2.585907,1.65922 -0.108326,0.002 -0.211355,-0.0477 -0.317029,-0.0716 -0.07769,-0.0904 -0.206928,-0.15492 -0.233064,-0.27123 -0.110665,-0.49245 0.164097,-1.20088 0.353658,-1.59586 0.407757,-0.84963 1.00167,-1.60868 1.705554,-2.23018 0.0764,-0.0511 0.137475,-0.15894 0.229217,-0.15329 0.281231,0.0173 0.650261,0.49258 0.76322,0.64241 0.379682,0.50361 0.669544,1.06663 0.752427,1.69648 0,0.70711 1.000001,0.70711 1.000001,0 z" />
    <path
       style="fill:#0000ff;stroke-width:0.264583"
       id="path1483"
       d="m 97.794552,136.22927 c -0.171691,0.70177 -0.31328,1.41959 -0.321511,2.14509 -0.0016,0.14662 -0.02753,0.30492 0.03251,0.4387 0.07909,0.17624 0.17372,0.46775 0.366014,0.44931 0.339799,-0.0326 0.568875,-0.37746 0.853313,-0.56619 0.109344,-0.22608 0.216064,-0.45346 0.328028,-0.67827 0.388982,-0.78099 0.777245,-1.63219 1.378594,-2.27998 0.36854,-0.397 0.33968,-0.36335 0.33534,-0.14625 -0.11402,0.006 -0.26256,-0.0626 -0.34207,0.0194 -0.0962,0.0992 -0.0477,0.27217 -0.0725,0.4081 -0.0461,0.25274 -0.0917,0.50557 -0.14005,0.75789 -0.0967,0.50443 -0.263921,1.19986 -0.269887,1.71968 -0.0029,0.25229 0.054,0.50171 0.08099,0.75256 0.12063,0.19854 0.17423,0.45866 0.36188,0.59561 1.0446,0.76234 2.22487,-0.50798 2.77956,-1.26989 0.16258,-0.22332 0.29539,-0.46685 0.44308,-0.70028 0.34402,-0.58913 0.64204,-1.20546 0.89774,-1.83786 0.11124,-0.27511 0.22614,-0.5626 0.28324,-0.85524 -0.3445,-0.009 -0.70972,-0.14603 -1.03348,-0.028 -0.15028,0.0548 -0.1034,0.30302 -0.14461,0.45758 -0.18257,0.68467 -0.38337,1.59191 -0.18307,2.29404 0.0675,0.23652 0.22838,0.43567 0.34257,0.65351 0.2682,0.11405 0.51384,0.32232 0.80462,0.34214 0.30235,0.0206 0.60584,-0.0988 0.8803,-0.22727 0.75245,-0.35233 1.44403,-1.16976 1.89653,-1.84922 0.11507,-0.17279 0.20601,-0.36048 0.30901,-0.54072 0.0519,-0.1036 0.24229,-0.23385 0.15566,-0.31081 -0.0839,-0.0745 -0.12855,0.23701 -0.24073,0.23524 -0.23599,-0.004 -0.43358,-0.30628 -0.66266,-0.24946 -0.13425,0.0333 -0.008,0.27665 -0.004,0.41493 0.0151,0.60508 0.003,0.42141 0.1746,1.01259 0.1651,0.14357 0.2847,0.37134 0.49527,0.43072 0.9533,0.26883 1.89068,-0.82833 2.45256,-1.42803 0.48206,-0.51731 -0.24953,-1.19905 -0.7316,-0.68174 v 0 c -0.31446,0.33957 -0.44772,0.50429 -0.8057,0.8051 -0.11694,0.0983 -0.26144,0.16346 -0.36844,0.27246 -0.0269,0.0274 -0.0789,0.24785 -0.0906,0.29368 -0.14162,-0.3627 -0.11366,-0.21319 -0.1261,-0.69423 -0.003,-0.133 0.0704,-0.28372 0.004,-0.39913 -0.53114,-0.92569 -0.76527,-0.93823 -1.12315,-0.19218 -0.53491,0.96656 -1.18045,1.71652 -2.16722,2.24241 -0.0665,-0.0762 -0.16792,-0.13253 -0.19946,-0.22863 -0.18649,-0.56828 -0.006,-1.33898 0.14148,-1.89411 0.0403,-0.15155 0.24628,-0.33171 0.14172,-0.44857 -0.22158,-0.24763 -0.60607,-0.27267 -0.9091,-0.40901 0.0406,-0.10322 0.0579,-0.1488 -0.0671,0.19831 -0.18104,0.50286 -0.39008,0.99636 -0.63279,1.47293 -0.10642,0.20896 -0.22442,0.41182 -0.33663,0.61773 -0.27587,0.44577 -0.42489,0.73826 -0.78397,1.1208 -0.13801,0.14703 -0.30046,0.26908 -0.4528,0.40121 -0.0872,0.0756 -0.18979,0.13514 -0.26578,0.22204 -0.0385,0.044 -0.0115,0.15275 -0.0694,0.16124 -0.0705,0.0103 -0.11535,-0.0838 -0.17303,-0.12568 -0.0265,-0.17117 -0.0805,-0.34029 -0.0795,-0.51349 0.003,-0.50201 0.1707,-1.17591 0.26044,-1.65541 0.054,-0.28876 0.29035,-1.38055 0.16176,-1.70267 -0.11054,-0.27693 -0.40236,-0.44015 -0.60354,-0.66022 -0.20477,0.0383 -0.4269,0.024 -0.61431,0.11494 -0.387544,0.18813 -0.825839,0.81812 -1.031457,1.13075 -0.495983,0.75412 -0.871038,1.57814 -1.26554,2.38687 0.157954,0.0476 0.315908,0.0952 0.473859,0.14279 0.06157,0.11969 0.06272,0.30217 0.184695,0.35908 0.08728,0.0407 -0.03138,-0.19097 -0.03081,-0.28728 0.0039,-0.65436 0.131601,-1.30176 0.285107,-1.93487 0.194283,-0.67989 -0.767231,-0.95465 -0.961512,-0.27476 z" />
    <path
       style="fill:#0000ff;stroke-width:0.264583"
       id="path1485"
       d="m 104.50723,133.4564 c 0.78788,0 1.57576,0 2.36364,0 0.7071,0 0.7071,-1 0,-1 v 0 c -0.78788,0 -1.57576,0 -2.36364,0 -0.7071,0 -0.7071,1 0,1 z" />
    <path
       style="fill:#0000ff;stroke-width:0.264583"
       id="path1487"
       d="m 112.82654,134.25927 c -0.67934,0.1189 -2.68483,0.27759 -2.33948,1.45622 0.0732,0.24998 0.35367,0.38253 0.53051,0.5738 0.46644,0.32147 1.69368,0.82041 1.77887,1.47043 0.0191,0.14559 -0.23494,0.41718 -0.29637,0.49489 -0.3976,0.24507 -0.81619,0.25051 -1.25958,0.12636 -0.14424,-0.0404 -0.28113,-0.10452 -0.41654,-0.16855 -0.30008,-0.14189 -0.35322,-0.0943 -0.25737,-0.16766 -0.45795,0.94661 -0.69622,0.70038 -0.22228,1.00362 0.60122,0.3722 1.1276,-0.47805 0.52638,-0.85026 v 0 c -0.59719,-0.36156 -0.22466,-0.27241 -1.00171,0.56311 0.7529,0.6399 1.95228,0.92322 2.87485,0.47548 0.23905,-0.11601 0.41841,-0.32765 0.62762,-0.49147 0.10907,-0.22786 0.27795,-0.43581 0.32722,-0.68357 0.26588,-1.33684 -1.11437,-2.01404 -2.06065,-2.55664 -0.26215,0.0313 -0.17302,-0.0154 -0.40967,0.26822 -0.044,0.0528 0.0894,-0.1097 0.15085,-0.1406 0.44641,-0.22472 0.9664,-0.271 1.44735,-0.37338 0.70711,0 0.70711,-1 0,-1 z" />
  </g>
</svg>
