<?xml version="1.0" encoding="UTF-8" standalone="no"?>
<!-- Created with Inkscape (http://www.inkscape.org/) -->

<svg
   width="88.198883mm"
   height="118.58488mm"
   viewBox="0 0 88.198883 118.58488"
   version="1.1"
   id="svg5"
   inkscape:version="1.1.2 (0a00cf5339, 2022-02-04)"
   sodipodi:docname="kırınım.svg"
   xmlns:inkscape="http://www.inkscape.org/namespaces/inkscape"
   xmlns:sodipodi="http://sodipodi.sourceforge.net/DTD/sodipodi-0.dtd"
   xmlns="http://www.w3.org/2000/svg"
   xmlns:svg="http://www.w3.org/2000/svg">
  <sodipodi:namedview
     id="namedview7"
     pagecolor="#ffffff"
     bordercolor="#999999"
     borderopacity="1"
     inkscape:pageshadow="0"
     inkscape:pageopacity="0"
     inkscape:pagecheckerboard="0"
     inkscape:document-units="mm"
     showgrid="true"
     inkscape:zoom="1.9075752"
     inkscape:cx="130.79432"
     inkscape:cy="233.54256"
     inkscape:window-width="1920"
     inkscape:window-height="1057"
     inkscape:window-x="0"
     inkscape:window-y="23"
     inkscape:window-maximized="1"
     inkscape:current-layer="layer1">
    <inkscape:grid
       type="xygrid"
       id="grid824"
       originx="-44.687014"
       originy="-61.799434" />
  </sodipodi:namedview>
  <defs
     id="defs2" />
  <g
     inkscape:label="Layer 1"
     inkscape:groupmode="layer"
     id="layer1"
     transform="translate(-44.687012,-61.799434)">
    <path
       style="fill:#ff3f00;fill-opacity:0;stroke:#000000;stroke-width:0.7;stroke-linecap:round;stroke-linejoin:round;stroke-opacity:1"
       d="M 45.037012,114.88002 V 64.799434"
       id="path861" />
    <path
       style="fill:#ff3f00;fill-opacity:0;stroke:#000000;stroke-width:0.7;stroke-linecap:round;stroke-linejoin:round;stroke-opacity:1"
       d="M 55.149113,114.88002 V 64.799434"
       id="path1094" />
    <path
       style="fill:#ff3f00;fill-opacity:0;stroke:#000000;stroke-width:0.7;stroke-linecap:round;stroke-linejoin:round;stroke-opacity:1"
       d="M 64.801569,114.88002 V 64.799434"
       id="path1176" />
    <path
       style="fill:#ff3f00;fill-opacity:0;stroke:#ff0078;stroke-width:6;stroke-linecap:square;stroke-linejoin:round;stroke-miterlimit:4;stroke-dasharray:none;stroke-opacity:1"
       d="M 75.220093,114.88002 V 103.20959"
       id="path1178"
       sodipodi:nodetypes="cc" />
    <path
       style="fill:#ff3f00;fill-opacity:0;stroke:#ff0078;stroke-width:6;stroke-linecap:square;stroke-linejoin:round;stroke-miterlimit:4;stroke-dasharray:none;stroke-opacity:1"
       d="M 75.220093,77.010851 V 64.799434"
       id="path1841"
       sodipodi:nodetypes="cc" />
    <path
       style="fill:#ff3f00;fill-opacity:0;stroke:#000000;stroke-width:0.7;stroke-linecap:round;stroke-linejoin:round;stroke-opacity:1"
       d="M 75.136082,99.891275 V 80.006988"
       id="path2360"
       sodipodi:nodetypes="cc" />
    <path
       style="fill:#ff3f00;fill-opacity:0;stroke:#000000;stroke-width:0.7;stroke-linecap:round;stroke-linejoin:round;stroke-opacity:1"
       d="M 85.248183,99.891275 V 80.006988"
       id="path2362"
       sodipodi:nodetypes="cc" />
    <path
       style="fill:#ff3f00;fill-opacity:0;stroke:#000000;stroke-width:0.7;stroke-linecap:round;stroke-linejoin:round;stroke-opacity:1"
       d="M 94.900639,99.891275 V 80.006988"
       id="path2364"
       sodipodi:nodetypes="cc" />
    <path
       style="fill:#ff3f00;fill-opacity:0;stroke:#000000;stroke-width:0.7;stroke-linecap:round;stroke-linejoin:round;stroke-opacity:1"
       d="M 105.1257,99.891275 V 80.006988"
       id="path2366"
       sodipodi:nodetypes="cc" />
    <path
       style="fill:#ff3f00;fill-opacity:0;stroke:#000000;stroke-width:0.7;stroke-linecap:round;stroke-linejoin:round;stroke-opacity:1"
       d="M 115.2378,99.891275 V 80.006988"
       id="path2368"
       sodipodi:nodetypes="cc" />
    <path
       style="fill:#ff3f00;fill-opacity:0;stroke:#000000;stroke-width:0.7;stroke-linecap:round;stroke-linejoin:round;stroke-opacity:1"
       d="M 124.89026,99.891275 V 80.006988"
       id="path2370"
       sodipodi:nodetypes="cc" />
    <path
       style="fill:#ff3f00;fill-opacity:0;stroke:#000000;stroke-width:0.7;stroke-linecap:round;stroke-linejoin:round;stroke-opacity:1"
       d="M 45.037012,175.18898 V 125.10839"
       id="path3878" />
    <path
       style="fill:#ff3f00;fill-opacity:0;stroke:#000000;stroke-width:0.7;stroke-linecap:round;stroke-linejoin:round;stroke-opacity:1"
       d="M 64.801569,175.18898 V 125.10839"
       id="path3882" />
    <path
       style="fill:#ff3f00;fill-opacity:0;stroke:#ff0078;stroke-width:6;stroke-linecap:square;stroke-linejoin:round;stroke-miterlimit:4;stroke-dasharray:none;stroke-opacity:1"
       d="M 75.220093,175.18898 V 163.51855"
       id="path3884"
       sodipodi:nodetypes="cc" />
    <path
       style="fill:#ff3f00;fill-opacity:0;stroke:#ff0078;stroke-width:6;stroke-linecap:square;stroke-linejoin:round;stroke-miterlimit:4;stroke-dasharray:none;stroke-opacity:1"
       d="M 75.220093,137.31981 V 125.10839"
       id="path3886"
       sodipodi:nodetypes="cc" />
    <path
       style="fill:#ff3f00;fill-opacity:0;stroke:#000000;stroke-width:0.7;stroke-linecap:round;stroke-linejoin:round;stroke-opacity:1"
       d="m 85.248183,160.20023 c 2.844729,-6.77027 2.814302,-13.39684 0,-19.88428"
       id="path3890"
       sodipodi:nodetypes="cc" />
    <path
       style="fill:#ff3f00;fill-opacity:0;stroke:#000000;stroke-width:0.7;stroke-linecap:round;stroke-linejoin:round;stroke-opacity:1"
       d="m 105.1257,169.74605 c 6.38375,-13.13339 6.34914,-26.26679 0,-39.40018"
       id="path3894"
       sodipodi:nodetypes="cc" />
    <path
       style="fill:#ff3f00;fill-opacity:0;stroke:#000000;stroke-width:0.7;stroke-linecap:round;stroke-linejoin:round;stroke-opacity:1"
       d="m 124.89026,180.03432 c 12.33476,-21.96105 7.81823,-43.45421 0,-64.85569"
       id="path3898"
       sodipodi:nodetypes="cc" />
    <path
       style="fill:#000000;fill-opacity:0;stroke:#ff0078;stroke-width:0.7;stroke-linecap:round;stroke-linejoin:round;stroke-miterlimit:4;stroke-dasharray:none;stroke-opacity:1"
       d="m 78.750565,112.52372 c 0.773682,0.33529 1.709412,0.19088 2.515717,0.13593 1.58773,-0.10821 1.278652,-0.0816 2.515716,-0.27186"
       id="path7568" />
    <path
       style="fill:#000000;fill-opacity:0;stroke:#ff0078;stroke-width:0.7;stroke-linecap:round;stroke-linejoin:round;stroke-miterlimit:4;stroke-dasharray:none;stroke-opacity:1"
       d="m 83.374045,111.23239 c -0.113321,0 -0.33996,-0.11332 -0.33996,0 0,0.11332 0.231415,-0.0326 0.33996,0 0.3507,0.10517 0.67705,0.27928 1.019884,0.40779 0.201324,0.0755 0.419614,0.10777 0.611931,0.20389 0.213799,0.10686 -0.06072,0.27564 -0.203978,0.33983 -1.191818,0.53405 -1.886135,0.62722 -2.923669,1.35929 -0.04139,0.0292 0.04533,0.0906 0.06799,0.13593"
       id="path7570" />
    <path
       style="fill:#000000;fill-opacity:0;stroke:#ff0078;stroke-width:0.7;stroke-linecap:round;stroke-linejoin:round;stroke-miterlimit:4;stroke-dasharray:none;stroke-opacity:1"
       d="m 85.549801,112.31983 c 0.697,0.17418 1.082466,0.35904 1.835793,0.13593 0.313346,-0.0928 1.521963,-0.7459 1.019884,-1.3593 -0.604086,-0.73803 -1.833914,0.14868 -2.243746,0.54372 -0.296024,0.28534 -1.781463,1.96074 -0.951894,2.58266 0.662334,0.49655 1.949619,-0.29476 2.583709,-0.61168"
       id="path7572" />
    <path
       style="fill:#000000;fill-opacity:0;stroke:#ff0078;stroke-width:0.7;stroke-linecap:round;stroke-linejoin:round;stroke-miterlimit:4;stroke-dasharray:none;stroke-opacity:1"
       d="m 88.949419,111.70814 c -0.04533,0.31717 -0.116596,0.63171 -0.135988,0.95151 -0.02606,0.42966 0,0.86089 0,1.29133 0,0.2039 0,0.40779 0,0.61169 0,0.0226 0.0044,0.0902 0,0.068 -0.02703,-0.13513 -0.08106,-0.2706 -0.06799,-0.40779 0.04876,-0.51174 0.688535,-2.85237 1.495832,-2.65063 0.262895,0.0657 0.400571,1.20434 0.407953,1.3593 0.0077,0.16197 -0.198548,1.49794 -0.06799,1.56319 0.06411,0.032 0.135986,-0.0453 0.203978,-0.068"
       id="path7574" />
    <path
       style="fill:#000000;fill-opacity:0;stroke:#ff0078;stroke-width:0.7;stroke-linecap:round;stroke-linejoin:round;stroke-miterlimit:4;stroke-dasharray:none;stroke-opacity:1"
       d="m 92.892976,112.65965 c 0.135985,0.0906 0.303313,0.14634 0.407953,0.27186 0.214209,0.25695 0.197567,0.69804 0.475943,0.88354 0.147269,0.0981 0.327353,-0.23127 0.339965,-0.40779 0.03306,-0.46269 -0.176355,-1.36184 -0.679926,-1.56319 -0.48569,-0.19419 -2.320393,1.60088 -2.175756,2.10691 0.260101,0.91 2.515717,-0.33297 2.515717,-1.49522 0,-0.31008 -0.271595,0.33796 -0.339961,0.67965 -0.07167,0.3582 -0.07424,0.72739 -0.135982,1.08743 -0.07435,0.43356 -0.181314,0.86089 -0.271971,1.29133 -0.298635,1.41795 -0.57382,3.25792 -2.379734,3.46621 -1.589466,0.18333 -1.619295,-1.8039 -0.611931,-2.5147 1.175033,-0.82909 2.668111,-0.99369 3.943559,-1.63116"
       id="path7576" />
    <path
       style="fill:#000000;fill-opacity:0;stroke:#ff0078;stroke-width:0.7;stroke-linecap:round;stroke-linejoin:round;stroke-miterlimit:4;stroke-dasharray:none;stroke-opacity:1"
       d="m 94.864754,112.72762 c 0.59323,0.0782 1.230312,0.43667 1.835793,0.20389 0.488608,-0.18785 0.788929,-1.09102 0.679923,-1.56319 -0.02883,-0.1249 -0.1515,-0.22807 -0.27197,-0.27186 -0.507463,-0.18446 -0.883256,0.24835 -1.155867,0.61168 -0.303276,0.40421 -0.864722,2.05812 -0.407958,2.5147 0.38658,0.38643 1.084315,-0.10016 1.427842,-0.27186"
       id="path7578" />
    <path
       style="fill:#000000;fill-opacity:0;stroke:#ff0078;stroke-width:0.7;stroke-linecap:round;stroke-linejoin:round;stroke-miterlimit:4;stroke-dasharray:none;stroke-opacity:1"
       d="m 99.352251,111.70814 c -0.150072,-0.11951 0.740879,-1.29835 0.543936,-1.49522 -0.03583,-0.0358 -0.0498,0.0886 -0.06799,0.13593 -0.09523,0.24749 -0.201425,0.49199 -0.27197,0.74761 -0.260406,0.94358 -0.312,1.41962 -0.407953,2.37877 -0.0294,0.29392 -0.06799,0.58816 -0.06799,0.88354 0,0.0165 0.135982,0.41606 0.135982,0.40779 0,-0.13992 -0.06799,-0.26786 -0.06799,-0.40779"
       id="path7580" />
    <path
       style="fill:#000000;fill-opacity:0;stroke:#ff0078;stroke-width:0.7;stroke-linecap:round;stroke-linejoin:round;stroke-miterlimit:4;stroke-dasharray:none;stroke-opacity:1"
       d="m 77.865643,82.728127 c 0.200273,-1.201175 -0.05401,0.296898 0.135982,-0.747613 0.0241,-0.13246 0.105624,-1.334218 0.271971,-1.223366 0.405598,0.270286 0.505465,0.835598 0.747918,1.223366 0.134705,0.21544 0.184796,0.252688 0.339961,0.407789 0.03583,0.03582 0.113308,0.158578 0.06799,0.135929 -0.08599,-0.04298 -0.135986,-0.135931 -0.203981,-0.203894"
       id="path7922" />
    <path
       style="fill:#000000;fill-opacity:0;stroke:#ff0078;stroke-width:0.7;stroke-linecap:round;stroke-linejoin:round;stroke-miterlimit:4;stroke-dasharray:none;stroke-opacity:1"
       d="m 78.545566,97.544462 c 0,0.203893 -0.01693,0.408493 0,0.611682 0.02848,0.341649 0.09163,0.679522 0.135985,1.019474 0.184172,1.411402 0.336222,0.249142 0.679924,-0.339825 0.08133,-0.139362 0.605496,-0.592387 0.611931,-0.611683 0.02268,-0.06796 0.0016,-0.221263 -0.06799,-0.203895 -0.594252,0.148497 -0.01926,0.135929 -0.271971,0.135929"
       id="path7924" />
    <path
       style="fill:#000000;fill-opacity:0;stroke:#ff0078;stroke-width:0.69999998;stroke-linecap:round;stroke-linejoin:round;stroke-miterlimit:4;stroke-dasharray:0.69999998,1.39999996;stroke-opacity:1;stroke-dashoffset:0"
       d="M 78.817537,99.447483 C 79.698392,93.234712 79.577307,89.24951 78.409579,81.164936"
       id="path7926"
       sodipodi:nodetypes="cc" />
    <path
       style="fill:#000000;fill-opacity:0;stroke:#ff0078;stroke-width:0.7;stroke-linecap:round;stroke-linejoin:round;stroke-miterlimit:4;stroke-dasharray:none;stroke-opacity:1"
       d="m 81.197268,89.728504 c -0.09013,-0.225219 -0.21377,-0.514909 -0.271968,-0.747612 -0.01101,-0.04395 0.04531,-0.13593 0,-0.13593 -0.06671,0 -0.16387,0.564991 -0.20398,0.815578 -0.09598,0.599657 -0.454962,1.981473 0.339963,2.378771 1.077867,0.53871 1.267346,-1.36244 1.223862,-1.970982 -0.0082,-0.115226 -0.04533,-0.226549 -0.06799,-0.339825 -0.02267,-0.113274 -0.04899,-0.225878 -0.06799,-0.339823 -0.0037,-0.02236 0.02265,-0.06796 0,-0.06796 -0.02278,0 0.04241,0.283938 0.06799,0.475756 0.02712,0.203348 0.02098,0.411988 0.06799,0.611682 0.09607,0.408128 0.494397,1.642671 1.155872,1.359297 0.557858,-0.238985 0.06799,-2.146901 0.06799,-2.650628 0,-0.02265 0.0084,0.04693 0,0.06796 -0.03764,0.09407 -0.09065,0.181239 -0.135983,0.271859"
       id="path8512" />
    <path
       style="fill:#000000;fill-opacity:0;stroke:#000000;stroke-width:0.7;stroke-linecap:round;stroke-linejoin:round;stroke-miterlimit:4;stroke-dasharray:none;stroke-opacity:1"
       d="m 48.270033,106.92075 c 0.750049,1.87433 -0.415567,-1.11228 0.669917,2.14287 0.196713,0.58991 0.473202,1.15118 0.669916,1.74108 0.405373,1.21563 0.695087,2.48825 1.339834,3.6161 0.06268,0.10964 0.211469,0.1549 0.267971,0.26785 0.0565,0.11296 -0.211469,-0.1549 -0.267971,-0.26785"
       id="path8709" />
    <path
       style="fill:#000000;fill-opacity:0;stroke:#000000;stroke-width:0.7;stroke-linecap:round;stroke-linejoin:round;stroke-miterlimit:4;stroke-dasharray:none;stroke-opacity:1"
       d="m 49.073931,110.67078 c -0.52571,1.21504 -1.018264,2.4375 -1.205852,3.75002"
       id="path8713" />
    <path
       style="fill:#000000;fill-opacity:0;stroke:#000000;stroke-width:0.7;stroke-linecap:round;stroke-linejoin:round;stroke-miterlimit:4;stroke-dasharray:none;stroke-opacity:1"
       d="m 52.289542,114.55473 c 0,-0.58037 0,-1.16072 0,-1.74108 0,-0.13393 0,-0.53573 0,-0.4018 0,0.71429 -0.101055,1.43577 0,2.14288 0.240847,1.68527 0.636833,0.73577 0.267963,1.47322"
       id="path8715" />
    <path
       style="fill:#000000;fill-opacity:0;stroke:#000000;stroke-width:0.7;stroke-linecap:round;stroke-linejoin:round;stroke-miterlimit:4;stroke-dasharray:none;stroke-opacity:1"
       d="m 51.626385,164.96988 c 0.178645,0.35715 0.35729,0.71429 0.535935,1.07143 0.984232,1.96766 1.934302,3.93939 2.947639,5.8929 0.303541,0.58516 0.471659,1.27504 0.937888,1.74108 0.07061,0.0706 -0.08932,-0.17858 -0.133982,-0.26786"
       id="path8717" />
    <path
       style="fill:#000000;fill-opacity:0;stroke:#000000;stroke-width:0.7;stroke-linecap:round;stroke-linejoin:round;stroke-miterlimit:4;stroke-dasharray:none;stroke-opacity:1"
       d="m 53.636143,169.6574 c -0.95371,1.38225 -1.259234,3.05322 -2.009758,4.5536"
       id="path8725" />
    <path
       style="fill:#000000;fill-opacity:0;stroke:#000000;stroke-width:0.7;stroke-linecap:round;stroke-linejoin:round;stroke-miterlimit:4;stroke-dasharray:none;stroke-opacity:1"
       d="m 57.789634,173.94314 c -0.413504,-0.21978 -0.7591,-1.87501 0,-1.87501 0.990826,0 0.584148,2.63039 0.133982,3.08038 -0.467404,0.46721 -1.164232,0.15083 -0.937889,0 0.383474,-0.25555 1.169842,-0.39294 1.607806,-0.26786 0.130623,0.0373 0.803898,0.78772 0.803898,0.40179"
       id="path8727" />
  </g>
</svg>
