<?xml version="1.0" encoding="UTF-8" standalone="no"?>
<!-- Created with Inkscape (http://www.inkscape.org/) -->

<svg
   width="79.973068mm"
   height="58.388668mm"
   viewBox="0 0 79.973068 58.388668"
   version="1.1"
   id="svg606"
   inkscape:version="1.2.2 (b0a8486541, 2022-12-01)"
   sodipodi:docname="hibritleşme.svg"
   xmlns:inkscape="http://www.inkscape.org/namespaces/inkscape"
   xmlns:sodipodi="http://sodipodi.sourceforge.net/DTD/sodipodi-0.dtd"
   xmlns="http://www.w3.org/2000/svg"
   xmlns:svg="http://www.w3.org/2000/svg">
  <sodipodi:namedview
     id="namedview608"
     pagecolor="#ffffff"
     bordercolor="#000000"
     borderopacity="0.25"
     inkscape:showpageshadow="2"
     inkscape:pageopacity="0.0"
     inkscape:pagecheckerboard="0"
     inkscape:deskcolor="#d1d1d1"
     inkscape:document-units="mm"
     showgrid="true"
     showguides="true"
     inkscape:zoom="1.6910378"
     inkscape:cx="61.20502"
     inkscape:cy="158.77824"
     inkscape:window-width="1916"
     inkscape:window-height="1029"
     inkscape:window-x="0"
     inkscape:window-y="49"
     inkscape:window-maximized="1"
     inkscape:current-layer="layer1">
    <inkscape:grid
       type="xygrid"
       id="grid727"
       units="mm"
       spacingx="5"
       spacingy="5"
       empspacing="1"
       originx="-36.152179"
       originy="-61.342462" />
    <sodipodi:guide
       position="77.686493,44.63159"
       orientation="0,-1"
       id="guide729"
       inkscape:locked="false" />
  </sodipodi:namedview>
  <defs
     id="defs603">
    <rect
       x="127.90198"
       y="205.54053"
       width="273.74878"
       height="80.439507"
       id="rect785" />
  </defs>
  <g
     inkscape:label="Layer 1"
     inkscape:groupmode="layer"
     id="layer1"
     transform="translate(-36.152178,-61.342462)">
    <path
       style="fill:#ff0075;fill-opacity:0;stroke:#030303;stroke-width:0.7;stroke-linecap:round;stroke-linejoin:round"
       d="m 39.068573,72.910165 c -0.93912,0.134106 -0.607362,-0.06077 -1.330725,0.85512 -0.634036,0.802788 -0.788461,0.931436 -1.045569,1.805249 -0.08242,0.280125 -0.190101,0.563121 -0.190101,0.855118 0,0.422695 0.558311,1.199504 0.950516,1.330184 0.509585,0.169794 1.917155,-0.05004 1.996085,-0.760105 0.107204,-0.964436 -2.091134,-1.728208 -2.091134,-0.38005"
       id="path789" />
    <path
       style="fill:#ff0075;fill-opacity:0;stroke:#030303;stroke-width:0.7;stroke-linecap:round;stroke-linejoin:round"
       d="m 47.338067,63.883915 c -0.752076,0.250587 -1.442345,0.426315 -2.091137,0.950129 -1.946733,1.571726 -3.803513,4.841327 -2.946601,7.41103 0.705913,2.116881 1.789887,3.040472 4.087222,2.565355 1.076169,-0.222565 1.452822,-0.5191 2.281238,-1.140159 0.07169,-0.05375 0.25347,-0.126682 0.190103,-0.190024 -0.02773,-0.02772 -0.958887,0.43174 -1.235673,0.57008"
       id="path791" />
    <path
       style="fill:#ff0075;fill-opacity:0;stroke:#030303;stroke-width:0.7;stroke-linecap:round;stroke-linejoin:round"
       d="m 61.97602,67.304387 c 0.905487,-1.764239 1.887503,-3.637883 2.281238,-5.605777 0.01389,-0.06945 -0.07147,0.123243 -0.09505,0.190026 -0.16673,0.472213 -0.328864,0.946288 -0.475258,1.425197 -0.202207,0.661511 -0.421404,1.319766 -0.570306,1.995276 -0.26343,1.195078 -0.570257,2.390439 -0.665364,3.610504 -0.09603,1.231839 0.01632,2.472447 0.09505,3.705513 0.01664,0.260641 0.121362,0.508141 0.190109,0.760103 0.02635,0.09663 0.126732,0.190029 0.09505,0.285041 -0.09463,0.283766 -0.502652,-0.339812 -0.570306,-0.475064"
       id="path797" />
    <path
       style="fill:#ff0075;fill-opacity:0;stroke:#030303;stroke-width:0.7;stroke-linecap:round;stroke-linejoin:round"
       d="m 68.724689,70.059771 c 0.04533,-0.304575 0.175374,-0.723976 0.09505,-1.045146 -0.121393,-0.485381 -1.747692,1.416262 -1.710928,1.710237 0.133985,1.071409 3.904353,0.986851 3.136702,2.850396 -0.137557,0.333936 -0.380233,0.633442 -0.665359,0.855118 -1.059923,0.82405 -3.01571,0.987581 -4.087222,0.09501 -0.230868,-0.192309 -0.369967,-0.566867 -0.285152,-0.85512 0.101163,-0.343815 0.506939,-0.506738 0.76041,-0.760105"
       id="path799" />
    <path
       style="fill:#ff0075;fill-opacity:0;stroke:#030303;stroke-width:0.7;stroke-linecap:round;stroke-linejoin:round"
       d="m 70.62572,66.639296 c -0.385037,-0.205054 0.625581,-1.274937 0.855464,-1.045146 0.512448,0.512244 -0.554595,2.025115 -0.950515,2.470343 -0.122754,0.138041 -0.344609,0.415634 -0.475258,0.285038 -0.237096,-0.237 1.064638,-0.596135 1.425773,-0.190026 0.0343,0.03857 0.299665,1.011057 0.665364,0.950134 0.286284,-0.04769 0.453001,-0.285041 0.760415,-0.285041"
       id="path801" />
    <path
       style="fill:#ff0075;fill-opacity:0;stroke:#030303;stroke-width:0.7;stroke-linecap:round;stroke-linejoin:round"
       d="m 80.225939,67.494414 c 0.211349,-1.483524 1.162224,-3.571407 2.376289,-4.465619 0.161337,-0.118833 0.465259,0.01939 0.570309,0.190026 0.310351,0.504116 0.174768,2.323944 0.09505,2.66037 -0.622977,2.629289 -2.079733,4.238019 -3.992173,5.985827 -0.5114,0.467379 -1.580483,1.404287 -2.376287,1.71024 -0.104132,0.04003 -0.549851,0.106728 -0.380209,-0.190029 0.597988,-1.046056 3.75216,-1.950148 4.657532,-1.045144 0.261247,0.261142 0.253529,0.760143 0.57031,0.950132 0.352575,0.211461 1.615879,-1.021402 1.615879,-1.330182"
       id="path803" />
    <path
       style="fill:#ff0075;fill-opacity:0;stroke:#030303;stroke-width:0.7;stroke-linecap:round;stroke-linejoin:round"
       d="m 88.495432,69.204651 c -1.13416,-0.103063 -1.019608,-0.346988 -1.805979,0.570079 -0.16623,0.193855 -0.306803,0.420505 -0.380209,0.665094 -0.08354,0.278344 0.508476,0.625761 0.570309,0.665091 0.179319,0.114067 0.390988,0.170971 0.570307,0.285038 1.004549,0.639001 1.193136,1.722758 0.380209,2.660373 -1.049848,1.210871 -3.773429,1.453824 -4.942684,0.285035 -0.143462,-0.143401 0.296262,-0.284625 0.475258,-0.380053 0.301109,-0.160525 0.633677,-0.253367 0.950515,-0.38005"
       id="path805" />
    <path
       style="fill:#ff0075;fill-opacity:0;stroke:#030303;stroke-width:0.7;stroke-linecap:round;stroke-linejoin:round"
       d="m 90.396461,67.304387 c -0.385323,-0.938659 1.142593,-2.212427 1.996088,-1.615225 1.106228,0.774043 -0.830934,2.184865 -1.330722,2.470343 -0.209838,0.119859 -0.619413,0.09501 -0.855466,0.09501 -0.03168,0 -0.123392,-0.01416 -0.09505,0 0.396554,0.1982 1.111908,0.285041 1.520822,0.285041 0.188309,0 1.279488,-0.215635 1.52083,-0.09501 0.04007,0.02003 -0.05026,0.09501 -0.09506,0.09501 -0.07084,0 -0.126732,-0.06334 -0.1901,-0.09501"
       id="path807" />
    <path
       style="fill:#ff0075;fill-opacity:0;stroke:#030303;stroke-width:0.7;stroke-linecap:round;stroke-linejoin:round"
       d="m 102.08782,66.544282 c -0.21503,-0.845783 1.36517,-3.794149 1.90103,-3.325461 0.91147,0.797211 0.13395,3.615849 0.0951,3.800528 -0.47018,2.232456 -1.7766,4.383709 -3.13671,6.175857 -0.87152,1.148357 -0.7508,1.156618 -1.996088,1.615223 -0.245171,0.09029 -0.49915,0.190029 -0.760415,0.190029 -0.0896,0 -0.260075,-0.134073 -0.1901,-0.190029 0.258333,-0.206584 0.636698,-0.180475 0.950515,-0.285039 0.475258,-0.158355 0.950516,-0.316711 1.425778,-0.475064 0.0951,0 0.19262,0.02175 0.28515,0 1.10763,-0.260517 1.30971,-0.629037 2.37629,-0.190029 0.89839,0.369773 0.34255,0.393205 0.76042,0.950132 0.0951,0.126698 0.22181,0.28504 0.3802,0.28504 0.13944,0 0.72706,-0.865441 0.85547,-1.045143"
       id="path809" />
    <path
       style="fill:#ff0075;fill-opacity:0;stroke:#030303;stroke-width:0.7;stroke-linecap:round;stroke-linejoin:round"
       d="m 107.50577,70.059771 c 0.23717,0.829771 0.28467,0.765387 0.1901,1.805247 -0.15838,1.74139 -0.51702,3.112357 -0.95052,4.845674 -0.14356,0.574001 -0.3317,1.136235 -0.47526,1.710238 -0.0784,0.313335 -0.11745,0.635421 -0.19011,0.950132 -0.0225,0.09759 -0.0242,0.355846 -0.095,0.285041 -0.11422,-0.114173 -0.0634,-0.316712 -0.0951,-0.475067"
       id="path811" />
    <path
       style="fill:#ff0075;fill-opacity:0;stroke:#030303;stroke-width:0.7;stroke-linecap:round;stroke-linejoin:round"
       d="m 107.12555,71.960035 c 0.34917,-0.58171 0.43565,-0.792236 1.04557,-1.330187 2.94294,-2.595666 3.77298,3.190213 1.33072,3.800528 -0.76012,0.189952 -2.33954,-0.324676 -3.04164,-0.475068"
       id="path813" />
    <path
       style="fill:#ff0075;fill-opacity:0;stroke:#030303;stroke-width:0.7;stroke-linecap:round;stroke-linejoin:round"
       d="m 111.02267,66.069217 c 0.11527,-0.420854 0.35028,-0.773567 0.57031,-1.140158 0.2503,-0.416997 1.23954,-2.088571 2.09113,-1.710238 0.16377,0.07275 0.32353,0.210058 0.38022,0.380053 0.278,0.833662 -0.36374,2.206003 -1.04557,2.660367 -0.18869,0.125738 -0.55467,0.09501 -0.76042,0.09501 -0.23065,0 0.43918,0.144809 0.66536,0.190027 0.33373,0.06672 2.09114,0.159181 2.09114,-0.285041"
       id="path815" />
    <circle
       style="fill:#ff0075;fill-opacity:0;stroke:#030303;stroke-width:0.7;stroke-linecap:round;stroke-linejoin:round"
       id="path869"
       cx="60.074989"
       cy="90.305176"
       r="4.7525821" />
    <circle
       style="fill:#ff0075;fill-opacity:0;stroke:#030303;stroke-width:0.7;stroke-linecap:round;stroke-linejoin:round"
       id="circle871"
       cx="60.074989"
       cy="90.305176"
       r="4.7525821" />
    <path
       style="fill:#ff0075;fill-opacity:0;stroke:#030303;stroke-width:0.7;stroke-linecap:round;stroke-linejoin:round"
       d="m 55.417457,85.269482 9.029907,9.121261"
       id="path883" />
    <path
       style="fill:#ff0075;fill-opacity:0;stroke:#030303;stroke-width:0.7;stroke-linecap:round;stroke-linejoin:round"
       d="m 65.017666,85.079454 -9.695265,9.88137"
       id="path887" />
    <circle
       style="fill:#ff0075;fill-opacity:0;stroke:#030303;stroke-width:0.7;stroke-linecap:round;stroke-linejoin:round"
       id="circle889"
       cx="74.903053"
       cy="90.305176"
       r="4.7525821" />
    <circle
       style="fill:#ff0075;fill-opacity:0;stroke:#030303;stroke-width:0.7;stroke-linecap:round;stroke-linejoin:round"
       id="circle891"
       cx="74.903053"
       cy="90.305176"
       r="4.7525821" />
    <path
       style="fill:#ff0075;fill-opacity:0;stroke:#030303;stroke-width:0.7;stroke-linecap:round;stroke-linejoin:round"
       d="m 70.245517,85.269482 9.029907,9.121261"
       id="path893" />
    <path
       style="fill:#ff0075;fill-opacity:0;stroke:#030303;stroke-width:0.7;stroke-linecap:round;stroke-linejoin:round"
       d="m 79.845726,85.079454 -9.695265,9.88137"
       id="path895" />
    <circle
       style="fill:#ff0075;fill-opacity:0;stroke:#030303;stroke-width:0.7;stroke-linecap:round;stroke-linejoin:round"
       id="circle897"
       cx="90.206367"
       cy="90.305176"
       r="4.7525821" />
    <circle
       style="fill:#ff0075;fill-opacity:0;stroke:#030303;stroke-width:0.7;stroke-linecap:round;stroke-linejoin:round"
       id="circle899"
       cx="90.206367"
       cy="90.305176"
       r="4.7525821" />
    <path
       style="fill:#ff0075;fill-opacity:0;stroke:#030303;stroke-width:0.7;stroke-linecap:round;stroke-linejoin:round"
       d="m 85.548829,85.269482 9.029907,9.121261"
       id="path901" />
    <circle
       style="fill:#ff0075;fill-opacity:0;stroke:#030303;stroke-width:0.7;stroke-linecap:round;stroke-linejoin:round"
       id="circle905"
       cx="100.56699"
       cy="90.305176"
       r="4.7525821" />
    <circle
       style="fill:#ff0075;fill-opacity:0;stroke:#030303;stroke-width:0.7;stroke-linecap:round;stroke-linejoin:round"
       id="circle907"
       cx="100.56699"
       cy="90.305176"
       r="4.7525821" />
    <path
       style="fill:#ff0075;fill-opacity:0;stroke:#030303;stroke-width:0.7;stroke-linecap:round;stroke-linejoin:round"
       d="m 95.909458,85.269482 9.029912,9.121261"
       id="path909" />
    <circle
       style="fill:#ff0075;fill-opacity:0;stroke:#030303;stroke-width:0.7;stroke-linecap:round;stroke-linejoin:round"
       id="circle913"
       cx="111.02267"
       cy="90.305176"
       r="4.7525821" />
    <circle
       style="fill:#ff0075;fill-opacity:0;stroke:#030303;stroke-width:0.7;stroke-linecap:round;stroke-linejoin:round"
       id="circle915"
       cx="111.02267"
       cy="90.305176"
       r="4.7525821" />
    <path
       style="fill:#ff0075;fill-opacity:0;stroke:#030303;stroke-width:0.7;stroke-linecap:round;stroke-linejoin:round"
       d="m 77.754595,96.195998 c 0.03168,0.221697 0.0024,0.46123 0.09505,0.665091 0.74866,1.646383 2.347765,3.202651 3.611962,4.275591 4.352293,3.69385 10.693271,1.76575 15.588475,0.38005 3.823778,-1.0824 7.606308,-2.264451 11.406198,-3.420468"
       id="path927" />
    <path
       style="fill:#ff0075;fill-opacity:0;stroke:#030303;stroke-width:0.7;stroke-linecap:round;stroke-linejoin:round"
       d="m 105.88988,96.291007 c 0.64453,0.05857 1.76888,0.167542 2.37629,0.190032 0.41161,0.01524 0.82378,0 1.23567,0 0.19011,0 0.38996,-0.06009 0.57032,0 0.15007,0.05 -0.25255,0.675127 -0.47526,0.950127 -0.13998,0.172847 -2.48816,2.414415 -1.42578,2.945414"
       id="path929" />
    <circle
       style="fill:#ff0075;fill-opacity:0;stroke:#030303;stroke-width:0.7;stroke-linecap:round;stroke-linejoin:round"
       id="circle931"
       cx="60.074989"
       cy="114.62855"
       r="4.7525821" />
    <circle
       style="fill:#ff0075;fill-opacity:0;stroke:#030303;stroke-width:0.7;stroke-linecap:round;stroke-linejoin:round"
       id="circle933"
       cx="60.074989"
       cy="114.62855"
       r="4.7525821" />
    <path
       style="fill:#ff0075;fill-opacity:0;stroke:#030303;stroke-width:0.7;stroke-linecap:round;stroke-linejoin:round"
       d="m 55.417457,109.59286 9.029907,9.12126"
       id="path935" />
    <path
       style="fill:#ff0075;fill-opacity:0;stroke:#030303;stroke-width:0.7;stroke-linecap:round;stroke-linejoin:round"
       d="m 65.017666,109.40283 -9.695265,9.88137"
       id="path937" />
    <circle
       style="fill:#ff0075;fill-opacity:0;stroke:#030303;stroke-width:0.7;stroke-linecap:round;stroke-linejoin:round"
       id="circle939"
       cx="74.903053"
       cy="114.62855"
       r="4.7525821" />
    <circle
       style="fill:#ff0075;fill-opacity:0;stroke:#030303;stroke-width:0.7;stroke-linecap:round;stroke-linejoin:round"
       id="circle941"
       cx="74.903053"
       cy="114.62855"
       r="4.7525821" />
    <path
       style="fill:#ff0075;fill-opacity:0;stroke:#030303;stroke-width:0.7;stroke-linecap:round;stroke-linejoin:round"
       d="m 70.245517,109.59286 9.029907,9.12126"
       id="path943" />
    <circle
       style="fill:#ff0075;fill-opacity:0;stroke:#030303;stroke-width:0.7;stroke-linecap:round;stroke-linejoin:round"
       id="circle947"
       cx="90.206367"
       cy="114.62855"
       r="4.7525821" />
    <circle
       style="fill:#ff0075;fill-opacity:0;stroke:#030303;stroke-width:0.7;stroke-linecap:round;stroke-linejoin:round"
       id="circle949"
       cx="90.206367"
       cy="114.62855"
       r="4.7525821" />
    <path
       style="fill:#ff0075;fill-opacity:0;stroke:#030303;stroke-width:0.7;stroke-linecap:round;stroke-linejoin:round"
       d="m 85.548829,109.59286 9.029907,9.12126"
       id="path951" />
    <circle
       style="fill:#ff0075;fill-opacity:0;stroke:#030303;stroke-width:0.7;stroke-linecap:round;stroke-linejoin:round"
       id="circle953"
       cx="100.56699"
       cy="114.62855"
       r="4.7525821" />
    <circle
       style="fill:#ff0075;fill-opacity:0;stroke:#030303;stroke-width:0.7;stroke-linecap:round;stroke-linejoin:round"
       id="circle955"
       cx="100.56699"
       cy="114.62855"
       r="4.7525821" />
    <path
       style="fill:#ff0075;fill-opacity:0;stroke:#030303;stroke-width:0.7;stroke-linecap:round;stroke-linejoin:round"
       d="m 95.909458,109.59286 9.029912,9.12126"
       id="path957" />
    <circle
       style="fill:#ff0075;fill-opacity:0;stroke:#030303;stroke-width:0.7;stroke-linecap:round;stroke-linejoin:round"
       id="circle959"
       cx="111.02267"
       cy="114.62855"
       r="4.7525821" />
    <circle
       style="fill:#ff0075;fill-opacity:0;stroke:#030303;stroke-width:0.7;stroke-linecap:round;stroke-linejoin:round"
       id="circle961"
       cx="111.02267"
       cy="114.62855"
       r="4.7525821" />
    <path
       style="fill:#ff0075;fill-opacity:0;stroke:#030303;stroke-width:0.7;stroke-linecap:round;stroke-linejoin:round"
       d="m 106.36514,109.59286 9.02991,9.12126"
       id="path963" />
  </g>
</svg>
