<?xml version="1.0" encoding="UTF-8" standalone="no"?>
<!-- Created with Inkscape (http://www.inkscape.org/) -->

<svg
   width="143.46324mm"
   height="56.472286mm"
   viewBox="0 0 143.46324 56.472286"
   version="1.1"
   id="svg11844"
   inkscape:version="1.1.2 (0a00cf5339, 2022-02-04)"
   sodipodi:docname="basit-ve-bileşik-yaprak.svg"
   xmlns:inkscape="http://www.inkscape.org/namespaces/inkscape"
   xmlns:sodipodi="http://sodipodi.sourceforge.net/DTD/sodipodi-0.dtd"
   xmlns="http://www.w3.org/2000/svg"
   xmlns:svg="http://www.w3.org/2000/svg">
  <sodipodi:namedview
     id="namedview11846"
     pagecolor="#ffffff"
     bordercolor="#999999"
     borderopacity="1"
     inkscape:pageshadow="0"
     inkscape:pageopacity="0"
     inkscape:pagecheckerboard="0"
     inkscape:document-units="mm"
     showgrid="true"
     inkscape:zoom="0.72207186"
     inkscape:cx="159.95638"
     inkscape:cy="320.60521"
     inkscape:window-width="1916"
     inkscape:window-height="1033"
     inkscape:window-x="0"
     inkscape:window-y="23"
     inkscape:window-maximized="1"
     inkscape:current-layer="layer1">
    <inkscape:grid
       type="xygrid"
       id="grid11905"
       originx="-29.057752"
       originy="-66.713333" />
  </sodipodi:namedview>
  <defs
     id="defs11841" />
  <g
     inkscape:label="Layer 1"
     inkscape:groupmode="layer"
     id="layer1"
     transform="translate(-29.057752,-66.713335)">
    <path
       style="fill:#000000;fill-opacity:0;stroke:#000000;stroke-width:0.7;stroke-linecap:round;stroke-linejoin:round"
       d="M 29.407752,89.585378 42.115956,86.28945 C 40.797717,77.395446 67.301354,76.441657 69.181005,67.063192 74.003199,91.106404 47.651721,93.477961 42.459425,86.495445"
       id="path11946"
       sodipodi:nodetypes="cccc" />
    <path
       style="fill:#000000;fill-opacity:0;stroke:#000000;stroke-width:0.7;stroke-linecap:round;stroke-linejoin:round"
       d="M 29.753647,115.06935 45.759118,110.8121"
       id="path12918" />
    <path
       id="path12944"
       style="fill-opacity:0;stroke:#000000;stroke-width:0.7;stroke-linecap:round;stroke-linejoin:round;stroke-miterlimit:4;stroke-dasharray:none"
       inkscape:transform-center-x="-0.9734674"
       inkscape:transform-center-y="0.56423394"
       d="m 88.127719,108.25209 c -0.44079,4.50995 -11.106615,0.01 -14.318997,1.97463 -3.212382,1.965 -1.651029,6.1285 -4.662253,6.67231 -3.011224,0.54381 -4.414456,-4.55182 -8.414107,-5.80064 -3.999651,-1.24882 -13.770628,4.08337 -14.920638,-0.0255 -1.15001,-4.10887 8.458947,-2.50095 9.118799,-5.55962 0.659852,-3.05867 -6.567331,-3.55236 -4.559203,-6.688067 2.008128,-3.135711 9.559577,2.725667 14.049828,2.364597 4.490251,-0.36107 9.479288,-6.113895 12.102893,-4.107947 2.623605,2.00595 -2.26443,4.280457 -0.435521,7.021017 1.828909,2.74056 12.479989,-0.36073 12.039199,4.14922 z"
       sodipodi:nodetypes="zzzzzzzzzzz" />
    <path
       style="fill:#000000;fill-opacity:0;stroke:#000000;stroke-width:0.7;stroke-linecap:round;stroke-linejoin:round"
       d="m 77.916137,70.018642 c -0.233344,2.121659 -1.232697,3.56304 -2.129483,5.355884"
       id="path13875" />
    <path
       style="fill:#000000;fill-opacity:0;stroke:#000000;stroke-width:0.7;stroke-linecap:round;stroke-linejoin:round"
       d="m 77.160516,73.039908 c 0.268687,-0.191841 0.585869,-0.499438 0.961702,-0.480655 2.16485,0.108199 2.642934,2.078704 0.412155,2.883937 -0.868439,0.313479 -1.726655,0.125902 -2.541641,-0.205994 -0.593714,-0.241787 -0.760349,-0.536813 -0.618236,-0.617987 0.369457,-0.211032 1.345613,-0.07877 1.854711,-0.205994"
       id="path13877" />
    <path
       style="fill:#000000;fill-opacity:0;stroke:#000000;stroke-width:0.7;stroke-linecap:round;stroke-linejoin:round"
       d="m 81.007322,74.756541 c 0.767014,0.463809 1.614898,0.307165 1.923404,-0.617987 0.282866,-0.84827 -2.101503,-1.508919 -2.404252,0.205994 -0.121238,0.686734 0.460787,1.234154 1.099084,0.823984 0.242377,-0.15575 1.007803,-0.927304 1.167784,-1.098643 0.12202,-0.130686 0.236161,-0.268978 0.343463,-0.411993 0.03072,-0.04094 0.09941,-0.178271 0.06869,-0.13733 -0.135424,0.180488 -0.766196,1.278226 -0.274773,1.441969 0.447961,0.149259 1.309304,-0.444373 1.648635,-0.686652"
       id="path13879" />
    <path
       style="fill:#000000;fill-opacity:0;stroke:#000000;stroke-width:0.7;stroke-linecap:round;stroke-linejoin:round"
       d="m 85.541063,73.177238 c -0.114488,-0.04578 -0.22067,-0.148487 -0.343466,-0.13733 -0.152958,0.01389 -0.286316,0.117941 -0.41216,0.205994 -0.348379,0.243766 -0.389721,0.325819 0,0.61799 0.329089,0.246716 0.9593,0.398069 1.305166,0.549323 0.122317,0.05349 0.277214,0.09009 0.343469,0.205994 0.342836,0.599715 -2.112444,0.823981 -2.404256,0.823981 -0.02289,0 0.04697,0.0072 0.06869,0 0.116978,-0.03898 0.2364,-0.07617 0.343466,-0.137329 0.215038,-0.12283 0.412158,-0.274661 0.618236,-0.411991"
       id="path13881" />
    <path
       style="fill:#000000;fill-opacity:0;stroke:#000000;stroke-width:0.7;stroke-linecap:round;stroke-linejoin:round"
       d="m 87.464465,73.383234 c 0.859237,0.218493 -0.06644,1.581563 0.137385,1.785298 0.165092,0.165015 0.108426,-0.455036 0.137387,-0.686652"
       id="path13883" />
    <path
       style="fill:#000000;fill-opacity:0;stroke:#000000;stroke-width:0.7;stroke-linecap:round;stroke-linejoin:round"
       d="m 87.670546,72.353256 c 0.373978,-0.364397 0.541782,-0.277249 0.961702,-0.137329"
       id="path13885" />
    <path
       style="fill:#000000;fill-opacity:0;stroke:#000000;stroke-width:0.7;stroke-linecap:round;stroke-linejoin:round"
       d="m 90.486959,71.254614 c 0.114488,-0.09155 0.204388,-0.321001 0.343464,-0.274661 0.132088,0.04401 0.08751,0.274042 0.06869,0.41199 -0.125857,0.922576 -1.085884,2.562852 -0.75562,3.364598 0.280894,0.6819 1.786014,-0.03716 1.786014,-0.480658"
       id="path13887" />
    <path
       style="fill:#000000;fill-opacity:0;stroke:#000000;stroke-width:0.7;stroke-linecap:round;stroke-linejoin:round"
       d="m 89.800027,73.31457 c 0.816237,0.236706 -0.835457,0.205996 -0.618239,0.205996 0.673642,0 1.998303,-0.116506 2.679031,-0.343328"
       id="path13889" />
    <path
       style="fill:#000000;fill-opacity:0;stroke:#000000;stroke-width:0.7;stroke-linecap:round;stroke-linejoin:round"
       d="m 85.953218,95.699428 c 0.321416,-1.008494 0.366429,-0.36681 0.274772,0.480655 -0.0122,0.11279 -0.282159,2.212057 -0.480851,2.609279 -0.04222,0.0844 -0.117263,-0.193747 -0.06869,-0.274662 0.746099,-1.242996 2.532489,-0.21745 2.198177,0.61799 -0.271179,0.677672 -2.364957,0.539515 -2.953797,0.480656 -0.18369,-0.01836 -0.401839,0.04207 -0.549545,-0.06867 -0.10431,-0.0782 0.25155,-0.12669 0.893011,-0.274658 0.389649,-0.08988 0.77852,-0.18311 1.167781,-0.274664"
       id="path13891" />
    <path
       style="fill:#000000;fill-opacity:0;stroke:#000000;stroke-width:0.7;stroke-linecap:round;stroke-linejoin:round"
       d="m 89.937414,99.064023 c 0.712716,0.724903 1.249072,-0.308795 0.893009,-0.961313 -0.57363,-1.051235 -1.875724,1.176186 -1.167781,1.647965 0.569246,0.379345 1.283578,-0.769922 1.511247,-1.098645 0.09399,-0.135702 0.274772,-0.577059 0.274772,-0.411991 0,0.428572 -0.536956,1.4073 -0.206081,1.785291 0.389506,0.44498 1.586241,-0.554039 1.854711,-0.75531"
       id="path13893" />
    <path
       style="fill:#000000;fill-opacity:0;stroke:#000000;stroke-width:0.7;stroke-linecap:round;stroke-linejoin:round"
       d="m 93.78422,98.65203 c -0.0499,0.04987 -0.446413,0.343855 -0.412157,0.549322 0.0653,0.391626 0.686557,0.203759 0.755624,0.61799 0.143912,0.863138 -2.335562,0.672628 -2.335562,0.343328 0,-0.0687 0.137808,0.008 0.206081,0 0.138428,-0.0154 0.276191,-0.0385 0.412158,-0.0687 0.276481,-0.0614 0.549542,-0.137331 0.824312,-0.205996"
       id="path13895" />
    <path
       style="fill:#000000;fill-opacity:0;stroke:#000000;stroke-width:0.7;stroke-linecap:round;stroke-linejoin:round"
       d="m 95.982397,98.789362 c -0.197485,0.493519 -0.183684,0.335764 -0.137385,1.02998 0.01511,0.226318 0.111109,0.493788 0.137385,0.480658 0.169775,-0.0849 0.04105,-0.26126 0,-0.343328"
       id="path13897" />
    <path
       style="fill:#000000;fill-opacity:0;stroke:#000000;stroke-width:0.7;stroke-linecap:round;stroke-linejoin:round"
       d="m 95.638934,97.48472 c -0.02368,-0.72826 0.09728,-0.274659 0.480851,-0.274659 0.144811,0 0.274772,-0.09155 0.412157,-0.137329"
       id="path13899" />
    <path
       style="fill:#000000;fill-opacity:0;stroke:#000000;stroke-width:0.7;stroke-linecap:round;stroke-linejoin:round"
       d="m 98.11188,95.150105 c 0.523478,1.426509 -0.08251,2.903749 -0.274772,4.325911 -0.03373,0.249502 -0.07237,0.514168 0,0.755314 0.03723,0.12404 0.233807,-0.15181 0.274772,-0.274658"
       id="path13901" />
    <path
       style="fill:#000000;fill-opacity:0;stroke:#000000;stroke-width:0.7;stroke-linecap:round;stroke-linejoin:round"
       d="m 96.944099,98.377371 c 0.84136,-0.155183 1.792087,-0.07069 2.610337,-0.343329 0.139076,-0.04634 0.228976,-0.183104 0.343464,-0.274658"
       id="path13903" />
    <path
       style="fill:#000000;fill-opacity:0;stroke:#000000;stroke-width:0.7;stroke-linecap:round;stroke-linejoin:round"
       d="m 106.8359,97.690717 c -0.0916,-0.114441 -0.16034,-0.434917 -0.27478,-0.343326 -0.11444,0.09159 0.22134,0.206832 0.27478,0.343326 0.15587,0.398182 0.23611,0.822068 0.34346,1.235977 0.053,0.204263 0.0562,0.423203 0.13738,0.617984 0.31655,0.759392 1.01866,-1.251452 1.23648,-1.441968 0.0975,-0.08532 0.3578,-0.06867 0.48085,-0.06867"
       id="path13905" />
    <path
       style="fill:#000000;fill-opacity:0;stroke:#000000;stroke-width:0.7;stroke-linecap:round;stroke-linejoin:round"
       d="m 109.58361,98.377371 c 0.0716,0.398135 0.0893,0.549323 0.61824,0.549323 0.18882,0 0.39682,-0.0263 0.54954,-0.137332 0.30317,-0.220398 0.39107,-0.994291 0.0687,-1.235975 -0.61925,-0.464251 -2.446,3.006163 -0.27477,2.403285 0.19732,-0.05479 0.36636,-0.183111 0.54955,-0.274664"
       id="path13907" />
    <path
       style="fill:#000000;fill-opacity:0;stroke:#000000;stroke-width:0.7;stroke-linecap:round;stroke-linejoin:round"
       d="m 91.088947,103.67078 c 0.39884,0.9531 0.124,1.92082 -0.0687,2.88394 -0.0458,0.22888 -0.0849,0.45921 -0.13738,0.68665 -0.0163,0.0705 -0.002,0.23287 -0.0687,0.206 -0.1361,-0.0544 -0.18318,-0.22889 -0.27477,-0.34333"
       id="path13915" />
    <path
       style="fill:#000000;fill-opacity:0;stroke:#000000;stroke-width:0.7;stroke-linecap:round;stroke-linejoin:round"
       d="m 90.745487,103.60212 c 0.22438,-0.39252 0.31205,-0.67096 0.75561,-0.89265 0.41471,-0.20727 0.84385,-0.43454 1.30517,-0.48066 0.55497,-0.0555 0.97996,0.27946 0.82432,0.82398 -0.0929,0.32497 -0.25471,0.64149 -0.48085,0.89266 -0.27474,0.30513 -2.74772,1.64967 -2.74772,0.68665"
       id="path13917" />
    <path
       style="fill:#000000;fill-opacity:0;stroke:#000000;stroke-width:0.7;stroke-linecap:round;stroke-linejoin:round"
       d="m 94.386207,104.56343 c 0.97147,0.35302 0.7733,-1.28698 0.41216,-1.64796 -0.51146,-0.51125 -1.26857,1.40989 -0.82432,1.85396 0.25771,0.2576 0.25267,-0.1149 0.41216,-0.206 1.04927,-0.59934 0.48061,0.0775 1.09909,-0.61798 0.0761,-0.0855 0.13456,-0.1853 0.20608,-0.27467 0.0202,-0.0253 0.0832,-0.0976 0.0687,-0.0687 -0.26123,0.52222 -0.60382,1.17802 -0.34347,1.7853 0.18541,0.43246 0.85014,-0.59482 0.89302,-0.68665 0.0919,-0.19676 0.13738,-0.41199 0.20608,-0.61799 -0.0458,0.25178 -0.12236,0.49986 -0.1374,0.75532 -0.0291,0.49452 0.1232,0.67473 0.13739,0.61799 0.0222,-0.0888 -0.0222,-0.18584 0,-0.27466 0.11131,-0.44506 0.6644,-1.93576 0.96169,-2.26595 0.35442,-0.39364 0.99702,0.074 1.30518,0.20599 0.30503,0.13068 0.44583,0.14407 0.75562,0.206"
       id="path13919" />
    <path
       style="fill:#000000;fill-opacity:0;stroke:#000000;stroke-width:0.7;stroke-linecap:round;stroke-linejoin:round"
       d="m 100.77466,103.32746 c 0.0687,-0.11444 0.1694,-0.21499 0.20608,-0.34333 0.0141,-0.0492 -0.0216,-0.11717 -0.0687,-0.13733 -0.50262,-0.21531 -1.073343,0.167 -1.373863,0.54932 -0.39403,0.50129 -0.47595,1.824 0.41215,1.92263 0.308283,0.0342 0.399333,-0.23392 0.618243,-0.34333 0.1044,-0.0522 -0.0434,0.2294 -0.0687,0.34333 -0.0145,0.0651 -0.10851,0.42991 -0.0687,0.54932 0.108,0.32387 0.57769,0.26059 0.82431,0.13733"
       id="path13921" />
    <path
       style="fill:#000000;fill-opacity:0;stroke:#000000;stroke-width:0.7;stroke-linecap:round;stroke-linejoin:round"
       d="m 102.69807,104.76943 c 0.7006,0.0621 0.7145,-0.17876 0.96169,-0.75532 0.0202,-0.047 0.0687,-0.0862 0.0687,-0.13733 0,-0.57346 -0.58207,-1.1348 -1.09909,-0.61799 -0.23787,0.23777 -0.24803,0.66733 -0.27477,0.96131 -0.006,0.0684 -0.0364,0.14778 0,0.206 0.56215,0.89907 0.98807,-0.36969 1.37386,-0.75532 0.0162,-0.0162 0.009,0.0476 0,0.0687 -0.0605,0.14113 -0.15751,0.26633 -0.20608,0.412 -0.0562,0.16865 -0.21645,1.09031 0.20608,1.02998 0.31222,-0.0446 0.9928,-1.02349 1.09909,-1.23598 0.0971,-0.19421 0.13739,-0.41199 0.20608,-0.61799"
       id="path13923" />
    <path
       style="fill:#000000;fill-opacity:0;stroke:#000000;stroke-width:0.7;stroke-linecap:round;stroke-linejoin:round"
       d="m 105.58318,100.71818 c -0.42061,1.27205 -0.65852,2.58798 -0.82433,3.91392 -0.0475,0.3801 -0.12944,0.72944 0,0.75532 0.28597,0.0572 0.60429,-0.66434 0.61825,-0.68666"
       id="path13925" />
    <path
       style="fill:#000000;fill-opacity:0;stroke:#000000;stroke-width:0.7;stroke-linecap:round;stroke-linejoin:round"
       d="m 106.33879,103.67078 c -0.0114,0.99235 -0.15533,1.73458 0.96171,0.61799"
       id="path13927" />
    <path
       style="fill:#000000;fill-opacity:0;stroke:#000000;stroke-width:0.7;stroke-linecap:round;stroke-linejoin:round"
       d="m 77.777281,115.2178 c -0.228979,0.20599 -0.509633,0.36613 -0.686935,0.61798 -0.348507,0.49505 -1.841299,3.74118 -0.755621,4.05125 0.754245,0.21541 1.189381,-0.11379 1.786019,-0.41199"
       id="path13929" />
    <path
       style="fill:#000000;fill-opacity:0;stroke:#000000;stroke-width:0.7;stroke-linecap:round;stroke-linejoin:round"
       d="m 77.639891,119.47504 c 0,-0.11444 0.114442,-0.34333 0,-0.34333 -0.114441,0 0.0362,0.23476 0,0.34333 -0.103675,0.3109 -0.327679,0.57599 -0.412155,0.89265 -0.01669,0.0626 0.09159,0.0915 0.137382,0.13733"
       id="path13931" />
    <path
       style="fill:#000000;fill-opacity:0;stroke:#000000;stroke-width:0.7;stroke-linecap:round;stroke-linejoin:round"
       d="m 79.769376,118.23906 c -0.149815,0.75305 -0.206081,1.50104 -0.206081,2.26596"
       id="path13933" />
    <path
       style="fill:#000000;fill-opacity:0;stroke:#000000;stroke-width:0.7;stroke-linecap:round;stroke-linejoin:round"
       d="m 80.937157,118.78838 c 0.382633,0.30599 0.443487,0.25857 0.549545,0.82399 0.03376,0.17997 0,0.36621 0,0.54932 0,0.0916 0.02896,0.18781 0,0.27466 -0.01024,0.0307 -0.0687,-0.0363 -0.0687,-0.0687 0,-0.18454 0.03066,-0.36875 0.0687,-0.54932 0.119235,-0.56614 0.213736,-0.90337 0.549542,-1.37331 0.114504,-0.16024 0.35474,-0.4946 0.480851,-0.34333 0.462643,0.55495 -0.07707,2.46436 0.961703,2.40329 0.246176,-0.0145 0.457954,-0.18311 0.686929,-0.27466"
       id="path13935" />
    <path
       style="fill:#000000;fill-opacity:0;stroke:#000000;stroke-width:0.7;stroke-linecap:round;stroke-linejoin:round"
       d="m 84.921354,119.33771 c 0.114487,0.0687 0.210991,0.18944 0.343463,0.20599 0.476533,0.0596 0.822992,-1.51085 0,-1.64796 -0.180692,-0.0301 -0.378563,-0.0657 -0.549545,0 -0.611211,0.23498 -1.243139,1.95362 -0.480854,2.33462 0.427086,0.21345 1.39731,-1.14532 1.579941,-1.44198 0.06462,-0.10496 0.08224,-0.23308 0.137388,-0.34332 0.01447,-0.0289 0.06869,-0.10104 0.06869,-0.0687 0,0.0512 -0.05865,0.0871 -0.06869,0.13733 -0.08464,0.42305 -0.299305,1.19463 0,1.57929 0.342265,0.43988 0.899779,-0.007 1.167781,-0.27465 0.167404,-0.16734 0.06432,-0.30681 0.274772,-0.412 0.08542,-0.0427 0.38595,1.6817 0,1.16731 -0.346099,-0.46127 0.09655,-2.62015 0.68693,-2.74661 0.768659,-0.16464 0.73593,0.52963 1.099087,0.89265"
       id="path13937" />
    <path
       style="fill:#000000;fill-opacity:0;stroke:#000000;stroke-width:0.7;stroke-linecap:round;stroke-linejoin:round"
       d="m 89.661168,120.29902 c -0.478957,0.80994 -1.221309,1.44587 -1.923402,2.05996"
       id="path13939" />
    <path
       style="fill:#000000;fill-opacity:0;stroke:#000000;stroke-width:0.7;stroke-linecap:round;stroke-linejoin:round"
       d="m 92.614966,118.78838 c 0.0556,-0.22232 0.149794,-0.76771 0.343466,-0.96131 0.0362,-0.0362 0.06193,0.0866 0.0687,0.13733 0.03946,0.29581 0.08017,0.59444 0.06869,0.89265 -0.0083,0.21575 -0.253302,1.00638 -0.06869,1.09864 0.0574,0.0287 0.870874,-2.689 1.167776,-2.54061 0.09193,0.0459 -0.09064,1.36071 0.206081,1.71663 0.328986,0.39463 0.837592,-0.52123 0.961702,-0.68665 0.06869,-0.0915 0.139534,0.18154 0.206082,0.27466 0.204592,0.28631 0.203107,0.32675 0.549545,0.48066 1.261652,0.5605 2.013066,-1.33645 1.648629,-1.5793 -0.03811,-0.0254 -0.09205,-0.006 -0.137388,0 -0.308737,0.0441 -0.476369,0.0627 -0.686929,0.34332 -0.408755,0.54479 -0.753592,1.87532 -0.137385,2.40329 0.88529,0.75851 2.690143,-0.14846 3.365955,-0.82399"
       id="path13941" />
    <path
       style="fill:#000000;fill-opacity:0;stroke:#000000;stroke-width:0.7;stroke-linecap:round;stroke-linejoin:round"
       d="m 101.27029,117.89574 c -0.0687,-0.11444 -0.0834,-0.29077 -0.20608,-0.34333 -0.11901,-0.051 -0.54852,0.35769 -0.61824,0.54932 -0.0399,0.10968 0.0366,0.23111 0.0687,0.34333 0.12146,0.42491 0.71115,0.29887 0.96171,0.54932 0.19412,0.19405 -1.41007,1.14922 -1.923408,0.89265 -0.08445,-0.0422 0.181095,-0.0804 0.274773,-0.0687 0.320805,0.0401 0.597535,0.0546 0.686925,0.41199 0.0442,0.17688 -0.1621,1.02503 -0.13738,1.02997 0.40701,0.0814 0.71651,-0.37289 0.9617,-0.61798"
       id="path13943" />
    <path
       style="fill:#000000;fill-opacity:0;stroke:#000000;stroke-width:0.7;stroke-linecap:round;stroke-linejoin:round"
       d="m 102.0946,119.40637 c 0.16029,-0.0458 0.32153,-0.0883 0.48085,-0.13733 0.56406,-0.17348 1.03686,-0.63089 1.30517,-1.16731 0.10526,-0.21043 0.1655,-0.58703 -0.20608,-0.61798 -0.88786,-0.074 -1.1289,0.82982 -1.37386,1.44196 -0.0648,0.16185 -0.22912,0.30787 -0.20608,0.48066 0.17978,1.34783 2.1421,0.3685 1.71733,-0.48066"
       id="path13945" />
    <path
       style="fill:#000000;fill-opacity:0;stroke:#000000;stroke-width:0.7;stroke-linecap:round;stroke-linejoin:round;stroke-miterlimit:4;stroke-dasharray:none"
       d="m 130.1307,99.723262 22.99129,-7.763936"
       id="path14142" />
    <path
       style="fill:#000000;fill-opacity:0;stroke:#000000;stroke-width:0.7;stroke-linecap:round;stroke-linejoin:round;stroke-miterlimit:4;stroke-dasharray:none"
       d="m 139.23539,96.664744 c 0.5222,-1.486746 1.33888,-2.833515 2.03984,-4.234881 -0.75468,-1.329453 1.70786,-4.168976 3.45204,-7.371814 -0.30121,2.211878 1.79947,6.763348 -3.13822,7.450242"
       id="path14144"
       sodipodi:nodetypes="cccc" />
    <path
       style="fill:#000000;fill-opacity:0;stroke:#000000;stroke-width:0.7;stroke-linecap:round;stroke-linejoin:round;stroke-miterlimit:4;stroke-dasharray:none"
       d="m 147.94393,93.29253 c 0.5222,-1.486746 1.33888,-2.833515 2.03984,-4.234881 -1.49415,-1.867031 0.20358,-5.262552 3.45204,-7.371814 -0.69204,2.230481 -1.7263,6.931173 -3.13822,7.450242"
       id="path14469"
       sodipodi:nodetypes="cccc" />
    <path
       style="fill:#000000;fill-opacity:0;stroke:#000000;stroke-width:0.7;stroke-linecap:round;stroke-linejoin:round;stroke-miterlimit:4;stroke-dasharray:none"
       d="m 137.09094,97.501627 c 1.33176,0.842331 2.80769,1.392211 4.22672,2.056691 -0.014,2.391252 3.42375,4.001732 7.28013,3.641432 -1.92628,-1.32038 -5.65314,-4.366172 -7.08261,-3.897592"
       id="path14782"
       sodipodi:nodetypes="cccc" />
    <path
       style="fill:#000000;fill-opacity:0;stroke:#000000;stroke-width:0.7;stroke-linecap:round;stroke-linejoin:round;stroke-miterlimit:4;stroke-dasharray:none"
       d="m 145.2503,94.521533 c 1.33176,0.842331 2.80769,1.392211 4.22672,2.056691 1.72069,3.31604 4.81953,4.745846 7.28013,3.641436 -0.47582,-3.495195 -5.10086,-5.194267 -7.08261,-3.897596"
       id="path15039"
       sodipodi:nodetypes="cccc" />
    <path
       style="fill:#000000;fill-opacity:0;stroke:#000000;stroke-width:0.7;stroke-linecap:round;stroke-linejoin:round;stroke-miterlimit:4;stroke-dasharray:none"
       d="m 153.1789,92.166557 c 1.56265,0.203056 3.13288,0.08014 4.69978,0.08514 2.95729,2.282837 6.37007,2.274451 8.13661,0.236412 -1.90368,-2.969646 -6.8141,-2.562666 -8.06536,-0.551935"
       id="path15136"
       sodipodi:nodetypes="cccc" />
    <path
       style="fill:#000000;fill-opacity:0;stroke:#000000;stroke-width:0.7;stroke-linecap:round;stroke-linejoin:round;stroke-miterlimit:4;stroke-dasharray:none"
       d="m 132.78632,104.84382 c 0.20215,1.01033 0.2402,0.76009 0,1.96059 -0.0796,0.39795 -0.19009,0.78985 -0.31382,1.17636 -0.11919,0.37232 -0.25775,0.80661 -0.54919,1.09793 -5.3e-4,5.3e-4 -0.23536,0.17947 -0.23536,0 0,-0.19915 0.35769,-0.18058 0.54918,-0.23527 0.20736,-0.0592 0.4123,-0.14552 0.62765,-0.15685 0.43382,-0.0228 1.71407,0.0519 2.03984,0.47054 0.38466,0.49437 -0.27886,1.11866 -0.62765,1.3332 -0.6657,0.4095 -1.05265,0.1845 -1.64756,-0.23527 -0.38039,-0.2684 -0.76912,-0.53353 -1.09837,-0.86266 -0.0185,-0.0185 0.0533,-0.007 0.0785,0 0.15904,0.0454 0.3117,0.11143 0.47074,0.15685 0.20735,0.0592 0.41842,0.10456 0.62764,0.15685"
       id="path15327" />
    <path
       style="fill:#000000;fill-opacity:0;stroke:#000000;stroke-width:0.7;stroke-linecap:round;stroke-linejoin:round;stroke-miterlimit:4;stroke-dasharray:none"
       d="m 136.78754,109.00028 c -0.21033,-0.20462 -0.53901,1.12068 -0.23536,1.0195 1e-5,0 0.19613,-0.19605 0.23536,-0.23527"
       id="path15329" />
    <path
       style="fill:#000000;fill-opacity:0;stroke:#000000;stroke-width:0.7;stroke-linecap:round;stroke-linejoin:round;stroke-miterlimit:4;stroke-dasharray:none"
       d="m 136.63063,107.66707 c 0.52048,-0.10405 0.28559,-0.15841 0.7061,0.15685"
       id="path15331" />
    <path
       style="fill:#000000;fill-opacity:0;stroke:#000000;stroke-width:0.7;stroke-linecap:round;stroke-linejoin:round;stroke-miterlimit:4;stroke-dasharray:none"
       d="m 139.37657,105.70648 c -0.166,0.77581 -0.19347,1.57074 -0.31382,2.35271 -0.0367,0.23821 -0.17693,0.46563 -0.15691,0.70581 0.0212,0.25376 0.1793,0.23528 0.31382,0.23528"
       id="path15333" />
    <path
       style="fill:#000000;fill-opacity:0;stroke:#000000;stroke-width:0.7;stroke-linecap:round;stroke-linejoin:round;stroke-miterlimit:4;stroke-dasharray:none"
       d="m 139.76885,107.98077 c 0.40547,-0.025 0.7017,0.43449 1.09837,0.47054 1.27766,0.11611 1.45198,-1.92454 -0.0785,-0.94108 -0.44436,0.28554 -1.04898,0.81691 -0.78456,1.41162 0.0531,0.11945 0.11636,0.25962 0.23537,0.3137 0.44411,0.20178 1.27551,-0.0212 1.64756,-0.0784"
       id="path15335" />
    <path
       style="fill:#000000;fill-opacity:0;stroke:#000000;stroke-width:0.7;stroke-linecap:round;stroke-linejoin:round;stroke-miterlimit:4;stroke-dasharray:none"
       d="m 144.31926,107.66707 c -0.13076,-0.0523 -0.25458,-0.18634 -0.39228,-0.15684 -0.26325,0.0564 -0.51569,0.20178 -0.7061,0.39211 -0.69453,0.69426 1.08474,0.7476 1.17683,0.86266 0.2977,0.37197 -0.82106,0.50669 -1.01992,0.47055 -0.16272,-0.0296 -0.32279,-0.0829 -0.47073,-0.15685 -0.0843,-0.0421 -0.24836,-0.21242 -0.15691,-0.23527 0.13446,-0.0336 0.42174,-0.007 0.54919,0.0784 0.65398,0.43581 -0.36292,1.44351 1.01992,1.09793"
       id="path15337" />
    <path
       style="fill:#000000;fill-opacity:0;stroke:#000000;stroke-width:0.7;stroke-linecap:round;stroke-linejoin:round;stroke-miterlimit:4;stroke-dasharray:none"
       d="m 145.41763,108.60816 c 0.22357,0.89607 0.11549,1.69266 0.54919,0.39212"
       id="path15339" />
    <path
       style="fill:#000000;fill-opacity:0;stroke:#000000;stroke-width:0.7;stroke-linecap:round;stroke-linejoin:round;stroke-miterlimit:4;stroke-dasharray:none"
       d="m 145.88837,107.51023 c -0.44068,-0.72458 -0.1679,-0.34321 0.15691,-0.3137 0.18416,0.0167 0.36612,-0.0523 0.54919,-0.0784"
       id="path15341" />
    <path
       style="fill:#000000;fill-opacity:0;stroke:#000000;stroke-width:0.7;stroke-linecap:round;stroke-linejoin:round;stroke-miterlimit:4;stroke-dasharray:none"
       d="m 147.84975,105.31437 c 0.35351,0.6274 -0.53195,2.68185 -0.47073,3.29379 0.01,0.0949 0.32691,0.0784 0.39228,0.0784"
       id="path15343" />
    <path
       style="fill:#000000;fill-opacity:0;stroke:#000000;stroke-width:0.7;stroke-linecap:round;stroke-linejoin:round;stroke-miterlimit:4;stroke-dasharray:none"
       d="m 149.3404,107.03968 c -0.26152,0.15685 -0.53929,0.28934 -0.78455,0.47055 -0.35813,0.26459 -0.68803,0.56582 -1.01992,0.86266 -0.16537,0.1479 -0.36296,0.27662 -0.47073,0.47054 -0.11363,0.20444 0.39375,0.31369 0.62764,0.31369 0.63205,0 1.72974,-0.31184 2.35366,0 0.33491,0.16739 -0.6506,0.40901 -1.01992,0.47055"
       id="path15345" />
    <path
       style="fill:#000000;fill-opacity:0;stroke:#000000;stroke-width:0.7;stroke-linecap:round;stroke-linejoin:round;stroke-miterlimit:4;stroke-dasharray:none"
       d="m 154.44,108.21604 c 0,-0.18299 0,-0.36598 0,-0.54897 -0.0261,0 -0.0785,-0.0261 -0.0785,0 0,0.18485 0.0643,0.36467 0.0785,0.54897 0.0201,0.26085 -0.14223,0.66023 0.31382,0.70581 0.6815,0.0681 1.11838,-0.82004 1.25529,-1.3332 0.0476,-0.1786 0.2633,-0.54897 0.0785,-0.54897 -0.21078,0 -0.25243,0.34733 -0.31382,0.54897 -0.44097,1.44828 -0.43609,3.03885 -0.94146,4.47015 -0.094,0.26614 -0.19053,0.5471 -0.47074,0.31369 -0.30584,-0.25476 -0.39227,-0.74057 -0.39227,-1.09793 0,-1.47526 1.74992,-1.58925 2.82439,-1.88217"
       id="path15347" />
    <path
       style="fill:#000000;fill-opacity:0;stroke:#000000;stroke-width:0.7;stroke-linecap:round;stroke-linejoin:round;stroke-miterlimit:4;stroke-dasharray:none"
       d="m 157.65667,109.0787 c 0.57728,7.9e-4 1.47644,-0.5416 1.33374,-1.25478 -0.2533,-1.26591 -2.86729,-0.11834 -1.88293,1.56847 0.4666,0.79957 1.29511,-0.0697 1.56911,-0.54896 0.11605,-0.203 0.22385,-0.41156 0.31382,-0.62739 0.0415,-0.0995 0.18624,-0.3137 0.0785,-0.3137 -0.0926,0 -0.66724,1.32755 -0.0785,1.41163 0.2295,0.0328 0.27879,-0.0434 0.39227,-0.15685"
       id="path15349" />
    <path
       style="fill:#000000;fill-opacity:0;stroke:#000000;stroke-width:0.7;stroke-linecap:round;stroke-linejoin:round;stroke-miterlimit:4;stroke-dasharray:none"
       d="m 160.01033,107.82392 c -0.0523,0.20913 -0.15018,0.41192 -0.15691,0.62739 -0.09,2.87757 0.27577,0.86433 0,3.52906 -0.0222,0.21443 -0.0499,0.44024 -0.15691,0.62739 -0.029,0.0508 -0.14152,-0.022 -0.15691,-0.0784 -0.0692,-0.25346 -0.0523,-0.52283 -0.0785,-0.78424"
       id="path15351" />
    <path
       style="fill:#000000;fill-opacity:0;stroke:#000000;stroke-width:0.7;stroke-linecap:round;stroke-linejoin:round;stroke-miterlimit:4;stroke-dasharray:none"
       d="m 160.08878,108.29446 c 0.28768,-0.26141 0.52659,-0.58954 0.86302,-0.78423 0.71659,-0.41471 1.45664,0.4261 0.863,1.0195 -0.56259,0.56237 -1.57746,0.861 -2.35366,0.70582 -0.0939,-0.0188 0.40738,-0.086 0.54919,-0.15685"
       id="path15353" />
    <path
       style="fill:#000000;fill-opacity:0;stroke:#000000;stroke-width:0.7;stroke-linecap:round;stroke-linejoin:round;stroke-miterlimit:4;stroke-dasharray:none"
       d="m 162.44244,108.13761 c -0.0523,0.23528 -0.16895,0.46511 -0.1569,0.70582 0.0149,0.29769 0.14642,0.57817 0.23536,0.86266 0.0818,0.26177 0.23419,0.54955 0.23537,0.54896 0.28583,-0.14286 0.22762,-2.49171 0.70609,-2.90167 0.27401,-0.23477 0.79953,0.41257 1.01992,0.47054 0.68059,0.17903 0.97169,0.15685 1.56911,0.15685"
       id="path15355" />
    <path
       style="fill:#000000;fill-opacity:0;stroke:#000000;stroke-width:0.7;stroke-linecap:round;stroke-linejoin:round;stroke-miterlimit:4;stroke-dasharray:none"
       d="m 166.83594,107.90234 c -0.35576,0.56009 0.13858,0.44549 0.31383,0.23527 0.45728,-0.54851 -0.12772,-1.26207 -0.78456,-1.09793 -1.0345,0.25853 -1.17661,1.33358 -0.7061,2.11744 0.0171,0.0284 0.0864,0.21765 0.15691,0.23527 0.70039,0.17503 1.27697,-1.02724 1.49066,-1.49005 0.059,-0.12781 0.11237,-0.25856 0.1569,-0.39211 0.008,-0.0248 0.0145,-0.10017 0,-0.0784 -0.0649,0.0973 -0.0634,0.24357 -0.1569,0.3137 -0.13234,0.0992 -0.40929,0.003 -0.47074,0.15684 -0.2107,0.52655 0.0907,2.11527 0.7061,1.56848 0.16813,-0.14939 0.26152,-0.36598 0.39228,-0.54897"
       id="path15357" />
    <path
       style="fill:#000000;fill-opacity:0;stroke:#000000;stroke-width:0.7;stroke-linecap:round;stroke-linejoin:round;stroke-miterlimit:4;stroke-dasharray:none"
       d="m 168.56196,105.78491 c 0.76958,0.75043 0.22624,1.62318 0.0785,2.50955 -0.0304,0.18233 -0.0869,0.63161 0.0785,0.54897 0.58338,-0.29157 1.33374,-1.19224 1.33374,-1.88217 0,-0.0419 -0.007,0.12572 -0.31382,0.47054 -0.24883,0.27982 -1.15417,1.16587 -1.01992,1.56848 0.20481,0.61418 1.14823,0 1.56911,0 0.36943,0 0.16521,0.53558 0.39227,0.70581 0.48582,0.36421 1.29253,0.28042 1.49066,-0.3137"
       id="path15359" />
    <path
       style="fill:#000000;fill-opacity:0;stroke:#000000;stroke-width:0.7;stroke-linecap:round;stroke-linejoin:round;stroke-miterlimit:4;stroke-dasharray:none"
       d="m 140.5534,118.80323 c 1.01987,0.11935 1.23757,-1.94238 0.39228,-2.19587 -0.99713,-0.29901 -2.01674,2.89651 -1.25529,3.37222 1.05727,0.66053 1.8369,-1.70857 1.88293,-2.35271 0.01,-0.14042 -0.10461,-0.52282 -0.15691,-0.39212 -0.15391,0.38464 -0.40593,2.2473 0.47073,1.88217 0.20765,-0.0865 0.36613,-0.26141 0.54919,-0.39212"
       id="path15365" />
    <path
       style="fill:#000000;fill-opacity:0;stroke:#000000;stroke-width:0.7;stroke-linecap:round;stroke-linejoin:round;stroke-miterlimit:4;stroke-dasharray:none"
       d="m 143.77007,114.96047 c -0.57496,1.43681 -0.15026,0.16917 -0.47073,2.27428 -0.10804,0.70965 -0.30096,1.40545 -0.39228,2.11744 -0.0399,0.31115 0,0.62739 0,0.94108 0,0.0784 -0.0702,0.27034 0,0.23527 0.40682,-0.20333 0.67144,-0.83167 0.86301,-1.17635"
       id="path15367" />
    <path
       style="fill:#000000;fill-opacity:0;stroke:#000000;stroke-width:0.7;stroke-linecap:round;stroke-linejoin:round;stroke-miterlimit:4;stroke-dasharray:none"
       d="m 145.10381,117.31317 c -0.20921,0.15685 -0.43217,0.29687 -0.62764,0.47055 -0.27642,0.2456 -0.56264,0.48846 -0.78456,0.78424 -0.30237,0.40299 -0.60879,1.25477 -0.0785,1.25477 0.39432,0 1.84604,-0.58584 2.11829,-0.31369"
       id="path15369" />
    <path
       style="fill:#000000;fill-opacity:0;stroke:#000000;stroke-width:0.7;stroke-linecap:round;stroke-linejoin:round;stroke-miterlimit:4;stroke-dasharray:none"
       d="m 146.75137,119.11692 c 0.52627,-0.1648 1.3817,0.27877 1.56911,-0.47054 0.34656,-1.38567 -1.10806,-1.70112 -1.56911,-0.54897 -0.0777,0.19416 0,0.41826 0,0.62739 0,0.13071 -0.0673,0.28005 0,0.39212 0.087,0.14485 0.62038,0.54896 0.86301,0.54896 0.56427,0 0.93953,-1.01372 1.09838,-1.49005 0.0341,-0.10224 -0.0444,0.21145 -0.0785,0.3137 -0.11933,0.35785 -0.26862,0.56091 -0.0785,0.94108 0.26773,0.53525 1.01459,-0.22995 1.17683,-0.39211"
       id="path15371" />
    <path
       style="fill:#000000;fill-opacity:0;stroke:#000000;stroke-width:0.7;stroke-linecap:round;stroke-linejoin:round;stroke-miterlimit:4;stroke-dasharray:none"
       d="m 150.51723,117.70529 c -0.19792,0.12645 -0.96261,0.53082 -0.7061,0.94109 0.40271,0.64406 1.42404,0.0459 1.72602,0.54896 0.0425,0.0709 -0.0494,0.15787 -0.0785,0.23527 -0.0494,0.13181 -0.0633,0.28691 -0.15691,0.39212 -0.27435,0.30852 -0.91414,0.5754 -1.33374,0.47054 -0.2744,-0.0686 -0.79557,-0.20222 -0.7061,-0.47054 0.0139,-0.0417 0.47572,-0.34316 0.54919,-0.39212"
       id="path15373" />
    <path
       style="fill:#000000;fill-opacity:0;stroke:#000000;stroke-width:0.7;stroke-linecap:round;stroke-linejoin:round;stroke-miterlimit:4;stroke-dasharray:none"
       d="m 153.26317,118.09741 c -0.80054,-0.14193 -0.67504,1.55916 0.0785,1.3332 0.72275,-0.21674 1.33373,-1.31262 1.33373,-2.03901 0,-0.17537 -0.18586,0.3023 -0.23536,0.47054 -0.0841,0.28595 -0.22433,0.5648 -0.23537,0.86266 -0.0397,1.07255 0.49216,1.98045 0.23537,3.05852 -0.0103,0.0435 -0.38069,1.27182 -0.78456,1.01951 -0.1568,-0.098 -0.28969,-0.23831 -0.39227,-0.39212 -0.11047,-0.16564 -0.1463,-0.3709 -0.23537,-0.54896 -0.0943,-0.18852 -0.21142,-0.36473 -0.31382,-0.54897 -0.0284,-0.0511 -0.0969,-0.10139 -0.0785,-0.15685 0.0169,-0.0505 0.62653,-0.23483 0.62764,-0.23527 1.16748,-0.46681 2.23117,-1.16565 3.29512,-1.80374 0.27999,-0.16792 0.69268,-0.1079 0.94147,-0.39212 0.32237,-0.36827 0.47655,-0.89922 0.23536,-1.3332 -0.0539,-0.097 -0.12658,-0.21352 -0.23536,-0.23527 -1.03499,-0.20692 -1.50148,1.12498 -1.17684,1.88217 0.44886,1.0469 1.33146,-1.01951 1.64757,-1.01951 0.10456,0 0,0.20913 0,0.31369 0,0.42281 -0.12942,0.64113 0.31382,0.86266 0.32408,0.16198 0.85388,-0.25715 0.94146,-0.54896 0.0451,-0.15023 0,-0.3137 0,-0.47055"
       id="path15375" />
  </g>
</svg>
