<?xml version="1.0" encoding="UTF-8" standalone="no"?>
<!-- Created with Inkscape (http://www.inkscape.org/) -->

<svg
   width="113.34689mm"
   height="131.72923mm"
   viewBox="0 0 113.34688 131.72923"
   version="1.1"
   id="svg5"
   sodipodi:docname="floem.svg"
   inkscape:version="1.1.2 (0a00cf5339, 2022-02-04)"
   xmlns:inkscape="http://www.inkscape.org/namespaces/inkscape"
   xmlns:sodipodi="http://sodipodi.sourceforge.net/DTD/sodipodi-0.dtd"
   xmlns="http://www.w3.org/2000/svg"
   xmlns:svg="http://www.w3.org/2000/svg">
  <sodipodi:namedview
     id="namedview7"
     pagecolor="#ffffff"
     bordercolor="#999999"
     borderopacity="1"
     inkscape:pageshadow="0"
     inkscape:pageopacity="0"
     inkscape:pagecheckerboard="0"
     inkscape:document-units="mm"
     showgrid="true"
     inkscape:zoom="3.46615"
     inkscape:cx="248.25815"
     inkscape:cy="131.70232"
     inkscape:window-width="1916"
     inkscape:window-height="1033"
     inkscape:window-x="0"
     inkscape:window-y="23"
     inkscape:window-maximized="1"
     inkscape:current-layer="layer1">
    <inkscape:grid
       type="xygrid"
       id="grid824"
       originx="-26.74559"
       originy="2.3033631e-07" />
  </sodipodi:namedview>
  <defs
     id="defs2" />
  <g
     inkscape:label="Layer 1"
     inkscape:groupmode="layer"
     id="layer1"
     transform="translate(-26.745594,-44.174546)">
    <path
       style="fill:#000000;fill-opacity:0;stroke:#000000;stroke-width:0.7;stroke-linecap:round;stroke-miterlimit:4;stroke-dasharray:none;stroke-opacity:1"
       d="m 55.0767,54.559429 0.401051,89.436051"
       id="path861"
       sodipodi:nodetypes="cc" />
    <path
       style="fill:#000000;fill-opacity:0;stroke:#000000;stroke-width:0.7;stroke-linecap:round;stroke-miterlimit:4;stroke-dasharray:none;stroke-opacity:1"
       d="m 70.04934,54.559429 0.401051,89.436051"
       id="path1655"
       sodipodi:nodetypes="cc" />
    <path
       style="fill:#000000;fill-opacity:0;stroke:#000000;stroke-width:0.7;stroke-linecap:round;stroke-miterlimit:4;stroke-dasharray:none;stroke-opacity:1"
       d="m 55.424143,70.159051 c 6.032937,1.012767 10.576649,0.65142 14.618206,-0.173268"
       id="path1776"
       sodipodi:nodetypes="cc" />
    <path
       style="fill:#000000;fill-opacity:0;stroke:#000000;stroke-width:0.7;stroke-linecap:round;stroke-miterlimit:4;stroke-dasharray:none;stroke-opacity:1"
       d="m 55.424143,84.944609 c 6.032937,1.012767 10.576649,0.65142 14.618206,-0.173268"
       id="path1835"
       sodipodi:nodetypes="cc" />
    <path
       style="fill:#000000;fill-opacity:0;stroke:#000000;stroke-width:0.7;stroke-linecap:round;stroke-miterlimit:4;stroke-dasharray:none;stroke-opacity:1"
       d="m 69.561154,56.231652 c -4.120491,-1.755456 -3.266849,16.251919 0.269684,13.247756"
       id="path2026"
       sodipodi:nodetypes="cc" />
    <path
       style="fill:#000000;fill-opacity:0;stroke:#000000;stroke-width:0.7;stroke-linecap:round;stroke-miterlimit:4;stroke-dasharray:none;stroke-opacity:1"
       d="m 55.636246,84.263477 c 4.120491,1.755456 3.266849,-16.251919 -0.269684,-13.247756"
       id="path2545"
       sodipodi:nodetypes="cc" />
    <path
       style="fill:#000000;fill-opacity:0;stroke:#000000;stroke-width:0.7;stroke-linecap:round;stroke-miterlimit:4;stroke-dasharray:none;stroke-opacity:1"
       d="m 55.424143,99.256158 c 6.032937,1.012762 10.576649,0.65142 14.618206,-0.173268"
       id="path2547"
       sodipodi:nodetypes="cc" />
    <path
       style="fill:#000000;fill-opacity:0;stroke:#000000;stroke-width:0.7;stroke-linecap:round;stroke-miterlimit:4;stroke-dasharray:none;stroke-opacity:1"
       d="m 55.424143,114.04178 c 6.032937,1.01277 10.576649,0.65142 14.618206,-0.17327"
       id="path2549"
       sodipodi:nodetypes="cc" />
    <path
       style="fill:#000000;fill-opacity:0;stroke:#000000;stroke-width:0.7;stroke-linecap:round;stroke-miterlimit:4;stroke-dasharray:none;stroke-opacity:1"
       d="m 69.561154,85.328759 c -4.120491,-1.755456 -3.266849,16.251921 0.269684,13.247756"
       id="path2551"
       sodipodi:nodetypes="cc" />
    <path
       style="fill:#000000;fill-opacity:0;stroke:#000000;stroke-width:0.7;stroke-linecap:round;stroke-miterlimit:4;stroke-dasharray:none;stroke-opacity:1"
       d="m 55.636246,113.36065 c 4.120491,1.75545 3.266849,-16.251985 -0.269684,-13.24782"
       id="path2553"
       sodipodi:nodetypes="cc" />
    <path
       style="fill:#000000;fill-opacity:0;stroke:#000000;stroke-width:0.7;stroke-linecap:round;stroke-miterlimit:4;stroke-dasharray:none;stroke-opacity:1"
       d="m 55.424143,127.91278 c 6.032937,1.01276 10.576649,0.65142 14.618206,-0.17327"
       id="path2565"
       sodipodi:nodetypes="cc" />
    <path
       style="fill:#000000;fill-opacity:0;stroke:#000000;stroke-width:0.7;stroke-linecap:round;stroke-miterlimit:4;stroke-dasharray:none;stroke-opacity:1"
       d="m 69.561154,113.98538 c -4.120491,-1.75545 -3.266849,16.25192 0.269684,13.24776"
       id="path2569"
       sodipodi:nodetypes="cc" />
    <path
       style="fill:#000000;fill-opacity:0;stroke:#000000;stroke-width:0.7;stroke-linecap:round;stroke-miterlimit:4;stroke-dasharray:none;stroke-opacity:1"
       d="m 55.636246,142.01727 c 4.120491,1.75545 3.266849,-16.25198 -0.269684,-13.24782"
       id="path2571"
       sodipodi:nodetypes="cc" />
    <path
       style="fill:#000000;fill-opacity:0;stroke:#000000;stroke-width:0.7;stroke-linecap:round;stroke-miterlimit:4;stroke-dasharray:none;stroke-opacity:1"
       d="m 68.807274,61.750111 c 0.500409,-1.306401 -0.377683,0.701908 -0.09817,0.981295 0.291177,0.291055 0.645282,-1.118018 0.09817,-0.981295 -0.828792,0.207113 -0.489585,0.881909 -0.294511,0.686906"
       id="path2776" />
    <path
       style="fill:#000000;fill-opacity:0;stroke:#000000;stroke-width:0.7;stroke-linecap:round;stroke-miterlimit:4;stroke-dasharray:none;stroke-opacity:1"
       d="m 56.928784,79.315306 c 0,-0.261678 0.05679,-0.529595 0,-0.785037 -0.02767,-0.124473 -0.467299,-0.121666 -0.490845,-0.09813 -0.06062,0.06059 0.06813,0.749004 0.09817,0.785035 0.08639,0.103629 0.261784,0.06542 0.392676,0.09813 z"
       id="path2778" />
    <path
       style="fill:#000000;fill-opacity:0;stroke:#000000;stroke-width:0.7;stroke-linecap:round;stroke-miterlimit:4;stroke-dasharray:none;stroke-opacity:1"
       d="m 69.00361,90.011434 c 0.966595,0.26887 0.03106,-0.775099 0,-0.58878 -0.03228,0.193588 0.0163,0.393197 0,0.58878 -0.01654,0.198279 -0.09817,0.389808 -0.09817,0.588775 0,0.04642 0.29451,-0.149844 0.29451,-0.19626 0,-0.146294 -0.06187,-0.450123 -0.196342,-0.392515 -0.82369,0.352867 -0.457139,1.715786 -0.09817,1.177555 0.300366,-0.450361 -0.450022,0.155448 -0.490847,0.196257"
       id="path2780" />
    <path
       style="fill:#000000;fill-opacity:0;stroke:#000000;stroke-width:0.7;stroke-linecap:round;stroke-miterlimit:4;stroke-dasharray:none;stroke-opacity:1"
       d="m 56.536108,107.29868 c 0.163613,-0.29439 0.384299,-0.56366 0.490844,-0.88317 0.06672,-0.20006 -0.589013,-0.99999 -0.589013,0.39252 0,0.16679 -0.02738,0.38084 0.09817,0.49065 1.121465,0.98089 0.605803,-0.44675 0.09817,-0.78504 -0.0385,-0.0257 -0.06544,-0.13084 -0.09817,-0.0981 -0.04627,0.0463 0,0.13084 0,0.19626 0,0.22897 0,0.45794 0,0.68691 z"
       id="path2782" />
    <path
       style="fill:#000000;fill-opacity:0;stroke:#000000;stroke-width:0.7;stroke-linecap:round;stroke-miterlimit:4;stroke-dasharray:none;stroke-opacity:1"
       d="m 69.101779,120.05553 c 1.131779,0.006 0.116546,-1.3983 -0.196337,-0.9813 -0.05889,0.0785 -0.01926,0.19817 0,0.29439 0.04672,0.23351 -0.0418,0.68691 0.196337,0.68691 0.818194,0 0.10342,-1.41578 0,-0.58878 -0.02434,0.19474 0,0.39252 0,0.58878 z"
       id="path2784" />
    <path
       style="fill:#000000;fill-opacity:0;stroke:#000000;stroke-width:0.7;stroke-linecap:round;stroke-miterlimit:4;stroke-dasharray:none;stroke-opacity:1"
       d="m 56.928784,135.57496 c 0,0.26168 -0.02371,0.52443 0,0.78504 0.108611,1.19426 0.845418,-0.82314 0.29451,-1.37381 -0.326533,-0.3264 -0.383241,2.24754 0.09817,1.76633 0.488031,-0.48784 -0.03115,-0.88845 -0.392679,-1.17756 z"
       id="path2786" />
    <path
       style="fill:#000000;fill-opacity:0;stroke:#000000;stroke-width:0.7;stroke-linecap:round;stroke-miterlimit:4;stroke-dasharray:none;stroke-opacity:1"
       d="m 84.674892,54.559429 0.401051,89.436051"
       id="path2868"
       sodipodi:nodetypes="cc" />
    <path
       style="fill:#000000;fill-opacity:0;stroke:#000000;stroke-width:0.7;stroke-linecap:round;stroke-miterlimit:4;stroke-dasharray:none;stroke-opacity:1"
       d="m 99.647532,54.559429 0.401048,89.436051"
       id="path2870"
       sodipodi:nodetypes="cc" />
    <path
       style="fill:#000000;fill-opacity:0;stroke:#000000;stroke-width:0.7;stroke-linecap:round;stroke-miterlimit:4;stroke-dasharray:none;stroke-opacity:1"
       d="m 85.022335,70.159051 c 6.032937,1.012767 10.576649,0.65142 14.618206,-0.173268"
       id="path2872"
       sodipodi:nodetypes="cc" />
    <path
       style="fill:#000000;fill-opacity:0;stroke:#000000;stroke-width:0.7;stroke-linecap:round;stroke-miterlimit:4;stroke-dasharray:none;stroke-opacity:1"
       d="m 85.022335,84.944609 c 6.032937,1.012767 10.576649,0.65142 14.618206,-0.173268"
       id="path2874"
       sodipodi:nodetypes="cc" />
    <path
       style="fill:#000000;fill-opacity:0;stroke:#000000;stroke-width:0.7;stroke-linecap:round;stroke-miterlimit:4;stroke-dasharray:none;stroke-opacity:1"
       d="M 99.159346,56.231652 C 95.038855,54.476196 95.892497,72.483571 99.42903,69.479408"
       id="path2876"
       sodipodi:nodetypes="cc" />
    <path
       style="fill:#000000;fill-opacity:0;stroke:#000000;stroke-width:0.7;stroke-linecap:round;stroke-miterlimit:4;stroke-dasharray:none;stroke-opacity:1"
       d="m 85.234438,84.263477 c 4.120491,1.755456 3.266849,-16.251919 -0.269684,-13.247756"
       id="path2878"
       sodipodi:nodetypes="cc" />
    <path
       style="fill:#000000;fill-opacity:0;stroke:#000000;stroke-width:0.7;stroke-linecap:round;stroke-miterlimit:4;stroke-dasharray:none;stroke-opacity:1"
       d="m 85.022335,99.256158 c 6.032937,1.012762 10.576649,0.65142 14.618206,-0.173268"
       id="path2880"
       sodipodi:nodetypes="cc" />
    <path
       style="fill:#000000;fill-opacity:0;stroke:#000000;stroke-width:0.7;stroke-linecap:round;stroke-miterlimit:4;stroke-dasharray:none;stroke-opacity:1"
       d="m 85.022335,114.04178 c 6.032937,1.01277 10.576649,0.65142 14.618206,-0.17327"
       id="path2882"
       sodipodi:nodetypes="cc" />
    <path
       style="fill:#000000;fill-opacity:0;stroke:#000000;stroke-width:0.7;stroke-linecap:round;stroke-miterlimit:4;stroke-dasharray:none;stroke-opacity:1"
       d="M 99.159346,85.328759 C 95.038855,83.573303 95.892497,101.58068 99.42903,98.576515"
       id="path2884"
       sodipodi:nodetypes="cc" />
    <path
       style="fill:#000000;fill-opacity:0;stroke:#000000;stroke-width:0.7;stroke-linecap:round;stroke-miterlimit:4;stroke-dasharray:none;stroke-opacity:1"
       d="m 85.234438,113.36065 c 4.120491,1.75545 3.266849,-16.251985 -0.269684,-13.24782"
       id="path2886"
       sodipodi:nodetypes="cc" />
    <path
       style="fill:#000000;fill-opacity:0;stroke:#000000;stroke-width:0.7;stroke-linecap:round;stroke-miterlimit:4;stroke-dasharray:none;stroke-opacity:1"
       d="m 85.022335,127.91278 c 6.032937,1.01276 10.576649,0.65142 14.618206,-0.17327"
       id="path2888"
       sodipodi:nodetypes="cc" />
    <path
       style="fill:#000000;fill-opacity:0;stroke:#000000;stroke-width:0.7;stroke-linecap:round;stroke-miterlimit:4;stroke-dasharray:none;stroke-opacity:1"
       d="m 99.159346,113.98538 c -4.120491,-1.75545 -3.266849,16.25192 0.269684,13.24776"
       id="path2890"
       sodipodi:nodetypes="cc" />
    <path
       style="fill:#000000;fill-opacity:0;stroke:#000000;stroke-width:0.7;stroke-linecap:round;stroke-miterlimit:4;stroke-dasharray:none;stroke-opacity:1"
       d="m 85.234438,142.01727 c 4.120491,1.75545 3.266849,-16.25198 -0.269684,-13.24782"
       id="path2892"
       sodipodi:nodetypes="cc" />
    <path
       style="fill:#000000;fill-opacity:0;stroke:#000000;stroke-width:0.7;stroke-linecap:round;stroke-miterlimit:4;stroke-dasharray:none;stroke-opacity:1"
       d="m 98.405466,61.750111 c 0.500409,-1.306401 -0.377683,0.701908 -0.09817,0.981295 0.291177,0.291055 0.645282,-1.118018 0.09817,-0.981295 -0.828792,0.207113 -0.489585,0.881909 -0.294511,0.686906"
       id="path2894" />
    <path
       style="fill:#000000;fill-opacity:0;stroke:#000000;stroke-width:0.7;stroke-linecap:round;stroke-miterlimit:4;stroke-dasharray:none;stroke-opacity:1"
       d="m 86.526976,79.315306 c 0,-0.261678 0.05679,-0.529595 0,-0.785037 -0.02767,-0.124473 -0.467299,-0.121666 -0.490845,-0.09813 -0.06062,0.06059 0.06813,0.749004 0.09817,0.785035 0.08639,0.103629 0.261784,0.06542 0.392676,0.09813 z"
       id="path2896" />
    <path
       style="fill:#000000;fill-opacity:0;stroke:#000000;stroke-width:0.7;stroke-linecap:round;stroke-miterlimit:4;stroke-dasharray:none;stroke-opacity:1"
       d="m 98.601802,90.011434 c 0.966595,0.26887 0.03106,-0.775099 0,-0.58878 -0.03228,0.193588 0.0163,0.393197 0,0.58878 -0.01654,0.198279 -0.09817,0.389808 -0.09817,0.588775 0,0.04642 0.29451,-0.149844 0.29451,-0.19626 0,-0.146294 -0.06187,-0.450123 -0.196342,-0.392515 -0.82369,0.352867 -0.457139,1.715786 -0.09817,1.177555 0.300366,-0.450361 -0.450022,0.155448 -0.490847,0.196257"
       id="path2898" />
    <path
       style="fill:#000000;fill-opacity:0;stroke:#000000;stroke-width:0.7;stroke-linecap:round;stroke-miterlimit:4;stroke-dasharray:none;stroke-opacity:1"
       d="m 86.1343,107.29868 c 0.163613,-0.29439 0.384299,-0.56366 0.490844,-0.88317 0.06672,-0.20006 -0.589013,-0.99999 -0.589013,0.39252 0,0.16679 -0.02738,0.38084 0.09817,0.49065 1.121465,0.98089 0.605803,-0.44675 0.09817,-0.78504 -0.0385,-0.0257 -0.06544,-0.13084 -0.09817,-0.0981 -0.04627,0.0463 0,0.13084 0,0.19626 0,0.22897 0,0.45794 0,0.68691 z"
       id="path2900" />
    <path
       style="fill:#000000;fill-opacity:0;stroke:#000000;stroke-width:0.7;stroke-linecap:round;stroke-miterlimit:4;stroke-dasharray:none;stroke-opacity:1"
       d="m 98.699971,120.05553 c 1.131779,0.006 0.116546,-1.3983 -0.196337,-0.9813 -0.05889,0.0785 -0.01926,0.19817 0,0.29439 0.04672,0.23351 -0.0418,0.68691 0.196337,0.68691 0.818194,0 0.10342,-1.41578 0,-0.58878 -0.02434,0.19474 0,0.39252 0,0.58878 z"
       id="path2902" />
    <path
       style="fill:#000000;fill-opacity:0;stroke:#000000;stroke-width:0.7;stroke-linecap:round;stroke-miterlimit:4;stroke-dasharray:none;stroke-opacity:1"
       d="m 86.526976,135.57496 c 0,0.26168 -0.02371,0.52443 0,0.78504 0.108611,1.19426 0.845418,-0.82314 0.29451,-1.37381 -0.326533,-0.3264 -0.383241,2.24754 0.09817,1.76633 0.488031,-0.48784 -0.03115,-0.88845 -0.39268,-1.17756 z"
       id="path2904" />
    <path
       style="fill:#000000;fill-opacity:0;stroke:#000000;stroke-width:0.7;stroke-linecap:round;stroke-miterlimit:4;stroke-dasharray:none;stroke-opacity:1"
       d="m 65.202215,154.52083 c -0.585735,-1.32972 0.781962,-3.94829 2.137627,-4.27352 0.930116,-0.22314 1.622485,-0.0136 2.548707,0.0822 0.997966,0.1032 0.975402,0.0822 1.890977,0.0822"
       id="path2943" />
    <path
       style="fill:#000000;fill-opacity:0;stroke:#000000;stroke-width:0.7;stroke-linecap:round;stroke-miterlimit:4;stroke-dasharray:none;stroke-opacity:1"
       d="m 66.435464,150.82259 c -0.02741,0.57528 -0.09309,1.15001 -0.08222,1.72584 0.04896,2.59384 0.646057,5.21156 0.493299,7.8074 -0.04461,0.75808 -0.493299,0.32441 -0.493299,0"
       id="path2945" />
    <path
       style="fill:#000000;fill-opacity:0;stroke:#000000;stroke-width:0.7;stroke-linecap:round;stroke-miterlimit:4;stroke-dasharray:none;stroke-opacity:1"
       d="m 65.942162,157.39724 c 0.723733,0.18355 3.58594,-0.60687 3.946387,-0.24655"
       id="path2947" />
    <path
       style="fill:#000000;fill-opacity:0;stroke:#000000;stroke-width:0.7;stroke-linecap:round;stroke-miterlimit:4;stroke-dasharray:none;stroke-opacity:1"
       d="m 71.61509,158.38343 c 0,-0.21915 -0.02257,-0.43947 0,-0.65746 0.05982,-0.57804 0.164436,-1.15056 0.246653,-1.72585 0.0274,-0.73965 0.02318,-1.48115 0.08221,-2.21894 0.05069,-0.63339 0.148518,-1.26242 0.246652,-1.89021 0.06833,-0.43714 0.20111,-0.93436 0.24665,-0.90402 0.101955,0.0679 0.151598,0.20689 0.164431,0.32874 0.04303,0.40865 0.01868,0.82225 0,1.23274 -0.100611,2.21256 -0.410851,4.43997 -0.164431,6.65683 0.03171,0.28524 0.137218,1.43555 0.657728,1.64367 0.49263,0.19697 0.895167,-0.89481 1.151032,-1.15056"
       id="path2949" />
    <path
       style="fill:#000000;fill-opacity:0;stroke:#000000;stroke-width:0.7;stroke-linecap:round;stroke-miterlimit:4;stroke-dasharray:none;stroke-opacity:1"
       d="m 75.80813,158.21907 c 0.08221,0.19176 0.08514,0.44319 0.246645,0.57528 0.506126,0.41394 1.782688,0.13216 2.219843,-0.24655 1.562269,-1.35341 -0.980884,-4.03141 -2.466488,-2.87641 -0.30743,0.23902 -0.5592,0.55909 -0.739947,0.90401 -0.547854,1.04548 0.05358,4.00912 1.726541,3.45169 0.281199,-0.0937 0.520115,-0.29428 0.739947,-0.49309 0.359521,-0.32515 0.7097,-0.6705 0.986597,-1.06838 0.168547,-0.24219 0.280339,-0.53079 0.328866,-0.82183 0.286526,-1.71844 -2.713138,-0.95292 -2.713138,-0.41092"
       id="path2951" />
    <path
       style="fill:#000000;fill-opacity:0;stroke:#000000;stroke-width:0.7;stroke-linecap:round;stroke-miterlimit:4;stroke-dasharray:none;stroke-opacity:1"
       d="m 79.836734,156.73977 c 0.658982,0.47052 0.505336,0.55173 1.397675,0.32873 0.578813,-0.14464 1.438703,-0.70374 0.986596,-0.98619 -0.584856,-0.36539 -2.1181,0.25837 -2.384271,0.65746 -0.213342,0.31989 -0.08222,0.76607 -0.08222,1.15057 0,0.30258 -0.02241,0.6201 0.08222,0.90401 0.250224,0.6789 1.092729,1.18502 1.808755,0.9862 0.500153,-0.13888 0.775833,-0.37618 1.151033,-0.65747"
       id="path2953" />
    <path
       style="fill:#000000;fill-opacity:0;stroke:#000000;stroke-width:0.7;stroke-linecap:round;stroke-miterlimit:4;stroke-dasharray:none;stroke-opacity:1"
       d="m 83.865333,156.73977 c -0.05481,0.43831 -0.164431,0.87321 -0.164431,1.31493 0,0.83693 0.134612,1.41969 0.493295,2.13676 0.03467,0.0693 0.09511,0.19902 0.164435,0.16437 0.07953,-0.0397 -0.100216,-0.57232 -0.08221,-0.9862 0.04806,-1.10496 0.55703,-3.04243 1.479894,-3.78042 0.0539,-0.0431 0.164431,0.19512 0.164431,0.65746 0,0.49267 -0.303131,0.84756 0.164431,1.31493 0.608978,0.60873 1.821563,-1.49209 2.055413,-1.72584 0.01937,-0.0194 0.0034,0.055 0,0.0822 -0.02402,0.19221 -0.04854,0.38452 -0.08222,0.57528 -0.142105,0.80494 -0.242501,1.30885 0.16443,2.05458 0.515295,0.94432 1.726015,-0.14316 2.137627,-0.65746"
       id="path2955" />
    <path
       style="fill:#000000;fill-opacity:0;stroke:#ff9900;stroke-width:0.7;stroke-linecap:round;stroke-miterlimit:4;stroke-dasharray:1.4, 1.4;stroke-dashoffset:0;stroke-opacity:1"
       d="m 40.044004,160.49885 0.246648,-10.51944 22.362855,-0.0822 -0.08221,-104.619658"
       id="path2957" />
    <path
       style="fill:#000000;fill-opacity:0;stroke:#ff9900;stroke-width:0.7;stroke-linecap:round;stroke-miterlimit:4;stroke-dasharray:1.4, 1.4;stroke-dashoffset:0;stroke-opacity:1"
       d="m 60.187019,50.619456 2.302058,-5.588455 2.466493,5.095354"
       id="path2959" />
    <path
       style="fill:#000000;fill-opacity:0;stroke:#ff9900;stroke-width:0.7;stroke-linecap:round;stroke-miterlimit:4;stroke-dasharray:none;stroke-dashoffset:0;stroke-opacity:1"
       d="m 28.75829,161.25273 c -0.09292,0.98344 -0.538803,1.85046 -0.914488,2.74236 -0.09188,0.21812 -0.174532,0.44028 -0.249406,0.66481 -0.03613,0.10835 -0.01976,0.23739 -0.08313,0.33241 -0.07687,0.11526 -0.208619,0.18737 -0.332542,0.2493 -0.02479,0.0124 -0.08313,-0.0277 -0.08313,0 0,0.062 0.122449,-0.0393 0.166269,-0.0831"
       id="path4348" />
    <path
       style="fill:#000000;fill-opacity:0;stroke:#ff9900;stroke-width:0.7;stroke-linecap:round;stroke-miterlimit:4;stroke-dasharray:none;stroke-dashoffset:0;stroke-opacity:1"
       d="m 30.254723,161.00343 c -0.542462,0.81837 -1.141437,1.57626 -1.662705,2.40995 -0.08564,0.13697 -0.159777,0.28111 -0.249407,0.4155 -0.02175,0.0326 -0.11574,0.10483 -0.08314,0.0831 0.429903,-0.28649 1.188916,-0.79047 1.74584,-0.58171 0.909632,0.34097 -0.691904,2.60296 0.415679,1.49582 0.138557,-0.1385 0.277114,-0.277 0.415674,-0.4155"
       id="path4350" />
    <path
       style="fill:#000000;fill-opacity:0;stroke:#ff9900;stroke-width:0.7;stroke-linecap:round;stroke-miterlimit:4;stroke-dasharray:none;stroke-dashoffset:0;stroke-opacity:1"
       d="m 31.834293,163.91199 c 0.633937,-0.44813 0.776682,-0.53505 1.330166,-0.16621 0.08313,0.0554 0.149501,0.16621 0.249402,0.16621 0.210547,0 0.350954,-1.02368 0.08314,-1.32963 -0.474396,-0.54194 -1.071311,0.24837 -1.163894,0.66481 -0.0425,0.19119 0.01617,0.65251 0.08314,0.83102 0.485772,1.29486 1.580948,0.25485 1.330161,-0.74791 -0.120918,-0.48349 -1.003517,-0.0342 -1.163892,0.1662 -0.241393,0.30161 0.155644,0.18744 0.249407,0"
       id="path4352" />
    <path
       style="fill:#000000;fill-opacity:0;stroke:#ff9900;stroke-width:0.7;stroke-linecap:round;stroke-miterlimit:4;stroke-dasharray:none;stroke-dashoffset:0;stroke-opacity:1"
       d="m 32.665643,162.66546 c 0.221695,-0.2216 0.443389,-0.44321 0.665083,-0.66481"
       id="path4354" />
    <path
       style="fill:#000000;fill-opacity:0;stroke:#ff9900;stroke-width:0.7;stroke-linecap:round;stroke-miterlimit:4;stroke-dasharray:none;stroke-dashoffset:0;stroke-opacity:1"
       d="m 35.40911,161.66824 c 0.675474,-0.41383 -0.165015,-1.16593 0.08313,-1.66203 0.05109,-0.10215 0.06208,0.22015 0.08314,0.33241 0.23128,1.23302 0.184369,2.32934 0,3.57337 -0.04142,0.27944 -0.09773,0.55696 -0.16627,0.83101 -0.04509,0.18029 -0.166272,0.66482 -0.249407,0.49861 -0.181527,-0.36291 1.165437,-2.15519 1.413301,-2.49305 0.25622,-0.34924 0.338559,-0.42152 0.581944,-0.66481 0.02771,-0.0277 0.06561,-0.11814 0.08313,-0.0831 0.14718,0.29425 -0.326403,1.19601 -0.415676,1.41273 -0.103918,0.25227 -0.223147,0.49797 -0.332542,0.74791 -0.972872,2.22282 0.638429,-0.41551 1.579573,-0.41551 0.619652,0 0.168053,1.13335 0.831353,0.24931"
       id="path4356" />
    <path
       style="fill:#000000;fill-opacity:0;stroke:#ff9900;stroke-width:0.7;stroke-linecap:round;stroke-miterlimit:4;stroke-dasharray:none;stroke-dashoffset:0;stroke-opacity:1"
       d="m 40.064682,161.08653 c 0.544496,0.0341 0.475847,3.15786 0.665083,3.15786 0.405918,0 0.965464,-0.7828 1.163894,-1.08032"
       id="path4358" />
    <path
       style="fill:#000000;fill-opacity:0;stroke:#ff9900;stroke-width:0.7;stroke-linecap:round;stroke-miterlimit:4;stroke-dasharray:none;stroke-dashoffset:0;stroke-opacity:1"
       d="m 38.983925,162.99787 c 0.605647,-0.22587 1.516388,-0.83102 2.161516,-0.83102"
       id="path4360" />
    <path
       style="fill:#000000;fill-opacity:0;stroke:#ff9900;stroke-width:0.7;stroke-linecap:round;stroke-miterlimit:4;stroke-dasharray:none;stroke-dashoffset:0;stroke-opacity:1"
       d="m 42.641877,162.49926 c 0.441981,-0.27063 1.004403,0.32699 1.413301,0 0.362876,-0.29018 -0.205814,-1.2257 -0.914493,-0.58171 -0.189037,0.17178 -0.426709,0.33667 -0.498808,0.58171 -0.07858,0.26707 0.05238,0.55433 0.08313,0.83102 0.109429,0.98449 0.223714,1.35206 1.163892,0.74791 0.607978,-0.39069 0.472858,-0.25194 0.748218,-0.66481"
       id="path4362" />
    <path
       style="fill:#000000;fill-opacity:0;stroke:#ff9900;stroke-width:0.7;stroke-linecap:round;stroke-miterlimit:4;stroke-dasharray:none;stroke-dashoffset:0;stroke-opacity:1"
       d="m 45.468471,162.16685 c 0.04489,0.44872 0.109347,1.1237 0.166274,1.57893 0.02432,0.19436 0.0615,0.38704 0.08313,0.58171 0.0061,0.0551 -0.03918,0.12704 0,0.16621 0.161555,0.16149 0.126553,-0.43986 0.166267,-0.66482 0.122716,-0.6951 0.227883,-1.3912 0.748218,-1.91133 0.197061,-0.19698 0.301752,-0.24623 0.498813,0 0.559451,0.69903 -0.425341,2.25843 0.748218,2.49305 0.671113,0.13416 0.843918,-0.33241 1.163894,-0.33241"
       id="path4364" />
    <path
       style="fill:#000000;fill-opacity:0;stroke:#ff9900;stroke-width:0.7;stroke-linecap:round;stroke-miterlimit:4;stroke-dasharray:none;stroke-dashoffset:0;stroke-opacity:1"
       d="m 31.668024,168.73188 c 0.501422,0.047 0.394557,-1.87271 0.08313,-1.82824 -0.680021,0.0971 -1.365736,1.56735 -1.247031,2.16065 0.02717,0.13583 0.13667,0.25191 0.249407,0.3324 0.701995,0.50122 1.13969,-1.20077 1.247026,-1.49583 0.0095,-0.026 0.01958,-0.10268 0,-0.0831 -0.675926,0.67566 -0.519972,4.12338 -0.665078,5.2354 -0.05791,0.44378 -0.09849,1.44661 -0.498813,1.24652 -0.621972,-0.31085 -1.941217,-1.62753 -1.163892,-2.32684 0.467257,-0.42036 1.261271,-0.52966 1.828975,-0.74792 0.210214,-0.0808 1.103892,-0.39236 0.748217,-0.74791"
       id="path4366" />
    <path
       style="fill:#000000;fill-opacity:0;stroke:#ff9900;stroke-width:0.7;stroke-linecap:round;stroke-miterlimit:4;stroke-dasharray:none;stroke-dashoffset:0;stroke-opacity:1"
       d="m 32.665643,168.64878 c 0.282199,0.41928 -0.1095,1.88095 0.332542,0.99722"
       id="path4368" />
    <path
       style="fill:#000000;fill-opacity:0;stroke:#ff9900;stroke-width:0.7;stroke-linecap:round;stroke-miterlimit:4;stroke-dasharray:none;stroke-dashoffset:0;stroke-opacity:1"
       d="m 32.665643,167.31915 c 0.193985,-0.0554 0.387967,-0.1108 0.581951,-0.1662"
       id="path4370" />
    <path
       style="fill:#000000;fill-opacity:0;stroke:#ff9900;stroke-width:0.7;stroke-linecap:round;stroke-miterlimit:4;stroke-dasharray:none;stroke-dashoffset:0;stroke-opacity:1"
       d="m 34.411486,168.81498 c 0.211875,0.2225 0.717192,0.54327 0.914484,0.0831 0.444138,-1.03589 -0.817784,-1.8662 -1.247026,-0.66481 -0.152479,0.42677 -0.395655,3.05475 0.748218,1.91134 0.141293,-0.14123 0.243171,-0.31994 0.332541,-0.49861 0.455211,-0.91005 0.516142,-1.67267 0.581944,-2.65925 0.01487,-0.22284 0.06722,-0.44205 0.08314,-0.66482 0.01185,-0.16578 0,-0.3324 0,-0.49861 0,-0.0277 0,-0.1108 0,-0.0831 0,0.67602 0.01087,-0.82778 -0.08314,0.58171 -0.07362,1.10374 -0.01479,1.86697 0.332541,2.90856 0.142222,0.42649 0.128302,0.53656 0.498816,0.1662"
       id="path4372" />
    <path
       style="fill:#000000;fill-opacity:0;stroke:#ff9900;stroke-width:0.7;stroke-linecap:round;stroke-miterlimit:4;stroke-dasharray:none;stroke-dashoffset:0;stroke-opacity:1"
       d="m 37.487489,168.73188 c 0.183319,-0.51469 0.907547,0.1541 1.163894,-0.1662 0.241615,-0.30191 -0.339992,-1.41273 -0.581946,-1.41273 -0.35751,0 -0.812702,2.069 -0.748217,2.32684 0.02424,0.0969 0.110844,0.16621 0.166269,0.24931 0.05542,0.0831 0.07446,0.20997 0.166272,0.2493 0.591804,0.25352 1.674831,-0.70059 1.995247,-0.91411"
       id="path4374" />
    <path
       style="fill:#000000;fill-opacity:0;stroke:#ff9900;stroke-width:0.7;stroke-linecap:round;stroke-miterlimit:4;stroke-dasharray:none;stroke-dashoffset:0;stroke-opacity:1"
       d="m 40.314091,167.90086 c -0.05542,0.19391 -0.1519,0.38056 -0.166275,0.58171 -0.01397,0.19538 0.06917,0.38634 0.08313,0.58172 0.03932,0.55023 0.06722,1.02905 0.166272,0.83101 0.13911,-0.2781 -0.06108,-0.9452 0.08314,-1.32962 0.117123,-0.31221 0.435784,-0.60181 0.665083,-0.83102 0.210436,-0.21035 0.408731,-0.33935 0.665083,-0.0831 0.458475,0.45829 0.199626,1.04752 0.332536,1.57893 0.06147,0.24575 0.458296,0.0405 0.581951,-0.0831"
       id="path4376" />
    <path
       style="fill:#000000;fill-opacity:0;stroke:#ff9900;stroke-width:0.7;stroke-linecap:round;stroke-miterlimit:4;stroke-dasharray:none;stroke-dashoffset:0;stroke-opacity:1"
       d="m 33.496996,171.55734 c 0.02771,-0.13851 0.04887,-0.27849 0.08314,-0.41551 0.0067,-0.0269 0.008,0.0566 0,0.0831 -0.07555,0.25172 -0.188516,0.49227 -0.24941,0.74792 -0.0856,0.35937 -0.660207,2.93166 0,2.99166 0.65473,0.0595 2.402541,-1.41273 1.912112,-1.41273"
       id="path4378" />
    <path
       style="fill:#000000;fill-opacity:0;stroke:#ff9900;stroke-width:0.7;stroke-linecap:round;stroke-miterlimit:4;stroke-dasharray:none;stroke-dashoffset:0;stroke-opacity:1"
       d="m 33.330726,173.05316 c -0.138557,-0.0277 -0.387974,-0.22166 -0.415673,-0.0831 -0.0277,0.13856 0.275793,0.10307 0.415673,0.0831 0.307967,-0.044 1.310794,-0.3579 1.662703,-0.49861"
       id="path4380" />
    <path
       style="fill:#000000;fill-opacity:0;stroke:#ff9900;stroke-width:0.7;stroke-linecap:round;stroke-miterlimit:4;stroke-dasharray:none;stroke-dashoffset:0;stroke-opacity:1"
       d="m 36.573004,172.80386 c -0.138559,0.2493 -0.339309,0.4731 -0.415676,0.74791 -0.477811,1.71942 1.347616,1.69144 1.745837,-0.1662 0.04169,-0.19449 0.215369,-0.86504 0,-1.08032 -0.0096,-0.01 0.05466,0.26867 0.08313,0.58171 0.01625,0.17858 -0.01913,1.39361 0.08314,1.49583 0.08314,0.0831 0.16627,-0.16621 0.249405,-0.24931"
       id="path4382" />
    <path
       style="fill:#000000;fill-opacity:0;stroke:#ff9900;stroke-width:0.7;stroke-linecap:round;stroke-miterlimit:4;stroke-dasharray:none;stroke-dashoffset:0;stroke-opacity:1"
       d="m 39.067057,172.55455 c 0.251772,-0.453 0.21508,-0.90018 0.748218,-0.74791 0.34431,0.0983 0.512961,0.50686 0.415676,0.83101 -0.125542,0.41832 -0.61132,0.6201 -0.08313,0.99723 0.13149,0.0939 0.259797,0.2068 0.415677,0.2493 0.212471,0.0579 1.247031,0.0805 1.247031,-0.33241 0,-0.0277 -0.05542,0 -0.08314,0 -0.110847,0 -0.221694,0 -0.332542,0"
       id="path4384" />
    <path
       style="fill:#000000;fill-opacity:0;stroke:#ff9900;stroke-width:0.7;stroke-linecap:round;stroke-miterlimit:4;stroke-dasharray:none;stroke-dashoffset:0;stroke-opacity:1"
       d="m 39.482733,173.38557 c 0.622432,-0.32107 1.254654,-0.22287 1.912109,-0.33241"
       id="path4386" />
    <path
       style="fill:#000000;fill-opacity:0;stroke:#ff9900;stroke-width:0.7;stroke-linecap:round;stroke-miterlimit:4;stroke-dasharray:none;stroke-dashoffset:0;stroke-opacity:1"
       d="m 42.974418,170.14461 c 0.296299,0.24319 -0.118448,4.02415 0.665078,3.24096"
       id="path4388" />
    <path
       style="fill:#000000;fill-opacity:0;stroke:#ff9900;stroke-width:0.7;stroke-linecap:round;stroke-miterlimit:4;stroke-dasharray:none;stroke-dashoffset:0;stroke-opacity:1"
       d="m 45.468471,172.97006 c 0.04991,0.0606 1.432623,0.46059 1.163894,-0.1662 -0.189434,-0.44184 -1.1249,-0.92258 -1.579568,-0.58172 -0.129249,0.0969 -0.167987,0.27599 -0.249404,0.41551 -0.285599,0.48941 -0.490067,0.85141 -0.249407,1.41273 0.421677,0.98353 1.681835,-0.48244 1.828977,-0.99722 0.107194,-0.37502 0.0082,-0.14975 -0.08313,-0.3324 -0.01238,-0.0248 0.01958,-0.10269 0,-0.0831 -0.390449,0.39028 0.04875,2.8111 0.914484,1.08032"
       id="path4390" />
    <path
       style="fill:#000000;fill-opacity:0;stroke:#ff9900;stroke-width:0.7;stroke-linecap:round;stroke-miterlimit:4;stroke-dasharray:none;stroke-dashoffset:0;stroke-opacity:1"
       d="m 48.1288,172.63765 c 0.05542,0.30471 0.115338,0.60863 0.166273,0.91412 0.03221,0.19321 0.08313,0.38584 0.08313,0.58171 0,0.14125 -0.03845,0.28152 -0.08313,0.41551 -0.02463,0.0739 -0.14164,0.14774 -0.166273,0 -0.05012,-0.30056 -0.05453,-0.61433 0,-0.91411 0.03581,-0.19686 0.54805,-1.61524 0.665084,-1.66204 0.205848,-0.0823 0.444296,0.0201 0.665083,0 0.731014,-0.0664 0.682508,-0.11965 1.496433,-0.4155"
       id="path4392" />
    <path
       style="fill:#000000;fill-opacity:0;stroke:#ff9900;stroke-width:0.7;stroke-linecap:round;stroke-miterlimit:4;stroke-dasharray:1.4, 1.4;stroke-dashoffset:0;stroke-opacity:1"
       d="m 115.46637,160.49885 -0.24665,-10.51944 -22.362856,-0.0822 0.08221,-104.619658"
       id="path4474" />
    <path
       style="fill:#000000;fill-opacity:0;stroke:#ff9900;stroke-width:0.7;stroke-linecap:round;stroke-miterlimit:4;stroke-dasharray:1.4, 1.4;stroke-dashoffset:0;stroke-opacity:1"
       d="m 113.11176,155.21652 2.30206,5.58845 2.46649,-5.09535"
       id="path4476" />
    <path
       style="fill:#000000;fill-opacity:0;stroke:#ff9900;stroke-width:0.7;stroke-linecap:round;stroke-miterlimit:4;stroke-dasharray:none;stroke-dashoffset:0;stroke-opacity:1"
       d="m 98.652769,160.62777 c -0.61124,0.78106 -1.03109,1.69206 -1.61819,2.48852 -0.26165,0.35495 -0.6024,0.64594 -0.87133,0.99541 -0.14751,0.19168 -0.21855,0.43635 -0.37343,0.62212 -0.0594,0.0713 -0.18334,0.0588 -0.24895,0.12442 -0.0587,0.0587 0.17267,0.0327 0.24895,0 0.41946,-0.17968 1.01281,-0.57841 1.49371,-0.62212 0.97027,-0.0882 1.29423,0.99214 1.36924,1.74196 0.0165,0.16508 0,0.3318 0,0.4977 0,0.0415 0,0.16591 0,0.12443 0,-0.47221 -0.0308,-0.17184 0.24895,-0.87098"
       id="path4513" />
    <path
       style="fill:#000000;fill-opacity:0;stroke:#ff9900;stroke-width:0.7;stroke-linecap:round;stroke-miterlimit:4;stroke-dasharray:none;stroke-dashoffset:0;stroke-opacity:1"
       d="m 95.789819,161.99646 c 0.15439,-0.25574 0.74686,-1.69589 0.74686,-2.11523 0,-0.0587 -0.11483,0.0666 -0.12448,0.12442 -0.0341,0.20455 0.0619,0.42419 0,0.62212 -0.14954,0.47836 -0.50077,0.88248 -0.62238,1.36869 -0.1312,0.52461 -0.0545,1.08131 -0.12448,1.61754 -0.0547,0.41941 -0.17097,0.82853 -0.24895,1.24424 -0.1322,0.70482 -0.18281,1.18594 -0.37343,0.99541 -0.0963,-0.0962 0.1951,-0.19501 0.24896,-0.24885"
       id="path4511" />
    <path
       style="fill:#000000;fill-opacity:0;stroke:#ff9900;stroke-width:0.7;stroke-linecap:round;stroke-miterlimit:4;stroke-dasharray:none;stroke-dashoffset:0;stroke-opacity:1"
       d="m 100.02201,164.6094 c 0.0926,0.22931 0.6271,0.98911 0.99581,0.4977 0.24487,-0.32636 0.064,-0.6438 0,-0.9954 -0.0451,-0.24822 -0.002,-0.52604 -0.12448,-0.74656 -0.5969,-1.07398 -2.016351,0.26401 -1.493711,0.9954 0.1299,0.18179 0.41195,0.17374 0.622381,0.24886 0.37069,0.13234 0.72803,0.40595 1.12028,0.37328 0.76845,-0.064 0.52425,-2.76373 -0.12447,-2.11524"
       id="path4515" />
    <path
       style="fill:#000000;fill-opacity:0;stroke:#ff9900;stroke-width:0.7;stroke-linecap:round;stroke-miterlimit:4;stroke-dasharray:none;stroke-dashoffset:0;stroke-opacity:1"
       d="m 102.26257,162.74301 c 0,-0.53918 0,-1.07835 0,-1.61753 0,-0.45623 0.0304,-0.91347 0,-1.36868 -0.0114,-0.17063 -0.12447,-0.32669 -0.12447,-0.4977 0,-0.0587 0.10387,0.0695 0.12447,0.12442 0.10607,0.28271 0.20415,0.57237 0.24896,0.87098 0.0999,0.66588 0.38531,4.2186 -0.12448,4.72818 -0.0246,0.0246 -0.10792,-0.15752 0.24895,-0.87098 0.0734,-0.14669 0.8485,-1.74196 1.24476,-1.74196 0.39105,0 -0.8779,2.05108 -0.99581,2.23966 -0.0793,0.12681 -0.38273,0.30641 -0.24895,0.37328 0.55515,0.27746 1.86007,-0.2293 2.48952,-0.12444 0.34078,0.0568 0.35372,0.36343 0.62238,0.49771"
       id="path4519" />
    <path
       style="fill:#000000;fill-opacity:0;stroke:#ff9900;stroke-width:0.7;stroke-linecap:round;stroke-miterlimit:4;stroke-dasharray:none;stroke-dashoffset:0;stroke-opacity:1"
       d="m 100.02201,161.49875 c 0.20746,-0.24885 0.41492,-0.4977 0.62238,-0.74655"
       id="path4517" />
    <path
       style="fill:#000000;fill-opacity:0;stroke:#ff9900;stroke-width:0.7;stroke-linecap:round;stroke-miterlimit:4;stroke-dasharray:none;stroke-dashoffset:0;stroke-opacity:1"
       d="m 106.49476,160.2545 c -0.37298,1.39528 -0.37484,2.98233 0.12448,4.3549 0.0511,0.14057 0.2566,0.34227 0.37343,0.24884 0.18327,-0.14655 0.33193,-0.33179 0.49789,-0.4977"
       id="path4521" />
    <path
       style="fill:#000000;fill-opacity:0;stroke:#ff9900;stroke-width:0.7;stroke-linecap:round;stroke-miterlimit:4;stroke-dasharray:none;stroke-dashoffset:0;stroke-opacity:1"
       d="m 107.73952,162.74301 c 0.80263,0.45847 0.70298,0.52333 1.49371,0.62213 1.16108,0.14507 0.62063,-1.44722 -0.62238,-0.9954 -0.29696,0.10794 -0.69601,0.1104 -0.87133,0.37327 -0.20839,0.31246 -0.0713,0.74804 -0.12447,1.11984 -0.0696,0.48673 -0.46178,1.59969 0.4979,1.4931 0.6154,-0.0683 1.01775,-0.74655 1.61818,-0.74655"
       id="path4523" />
    <path
       style="fill:#000000;fill-opacity:0;stroke:#ff9900;stroke-width:0.7;stroke-linecap:round;stroke-miterlimit:4;stroke-dasharray:none;stroke-dashoffset:0;stroke-opacity:1"
       d="m 111.10037,163.86285 c 0.20087,0.0252 0.0621,2.17674 -0.12447,1.24425 -0.0828,-0.41393 0.14591,-2.10949 0.37342,-2.48851 0.21888,-0.36464 1.06569,0.2163 1.24477,0.24885 0.24494,0.0445 0.4979,0 0.74685,0"
       id="path4525" />
    <path
       style="fill:#000000;fill-opacity:0;stroke:#ff9900;stroke-width:0.7;stroke-linecap:round;stroke-miterlimit:4;stroke-dasharray:none;stroke-dashoffset:0;stroke-opacity:1"
       d="m 122.67413,164.60376 c 0.25123,-0.53705 -0.10301,-2.24273 -0.99581,-2.11523 -0.79913,0.11412 -0.8533,2.15129 -0.62238,2.61293 0.22361,0.44704 1.51072,-0.31354 1.61819,-0.4977 0.26695,-0.45745 0.24895,-0.89869 0.24895,-1.36868 0,-0.0415 -0.007,0.0835 0,0.12442 0.0348,0.20861 0.1094,0.41119 0.12448,0.62213 0.0266,0.37233 0,0.74656 0,1.11983 0,0.49422 -0.043,4.60375 -0.87134,4.60375 -0.73987,0 -1.94936,-1.12675 -1.86714,-1.86639 0.0229,-0.20613 0.22675,-0.35107 0.37343,-0.4977 0.75943,-0.75911 1.69861,-0.83758 2.61399,-1.24425 0.13671,-0.0607 0.2296,-0.20777 0.37344,-0.24885 0.77918,-0.22253 0.30183,0.19599 0.62238,-0.12443"
       id="path4529" />
    <path
       style="fill:#000000;fill-opacity:0;stroke:#ff9900;stroke-width:0.7;stroke-linecap:round;stroke-miterlimit:4;stroke-dasharray:none;stroke-dashoffset:0;stroke-opacity:1"
       d="m 114.71018,163.48957 c 0.49216,0.29518 0.65771,0.58417 1.24476,0.24885 0.54308,-0.31021 0.34442,-1.74196 -0.37343,-1.74196 -0.42834,0 -1.54893,2.96376 -0.37343,3.11064 0.8308,0.10381 1.83523,-0.83908 2.36504,-1.36868 0.40796,-0.4078 0.36079,-0.37328 0.12448,-0.37328"
       id="path4527" />
    <path
       style="fill:#000000;fill-opacity:0;stroke:#ff9900;stroke-width:0.7;stroke-linecap:round;stroke-miterlimit:4;stroke-dasharray:none;stroke-dashoffset:0;stroke-opacity:1"
       d="m 125.16365,163.48393 c -0.33662,0.23359 -0.23156,3.77028 0.24895,1.36868"
       id="path4531" />
    <path
       style="fill:#000000;fill-opacity:0;stroke:#ff9900;stroke-width:0.7;stroke-linecap:round;stroke-miterlimit:4;stroke-dasharray:none;stroke-dashoffset:0;stroke-opacity:1"
       d="m 124.54127,161.74197 c 0.24895,-0.0415 0.4979,-0.0829 0.74686,-0.12442"
       id="path4533" />
    <path
       style="fill:#000000;fill-opacity:0;stroke:#ff9900;stroke-width:0.7;stroke-linecap:round;stroke-miterlimit:4;stroke-dasharray:none;stroke-dashoffset:0;stroke-opacity:1"
       d="m 128.5245,164.10606 c 1.03724,-0.79307 -0.0287,-1.75896 -0.99581,-1.86638 -1.03806,-0.1153 -1.41266,2.62046 -0.4979,2.98621 0.49661,0.19856 1.13112,-0.2413 1.36923,-0.62213 0.0907,-0.145 0.048,-0.34475 0.12448,-0.4977 0.17507,-0.34998 0.44732,-0.64542 0.62238,-0.9954 0.29319,-0.58615 0.56999,-2.16759 0,-2.73737 -0.0293,-0.0293 -0.0131,0.0851 0,0.12442 0.19869,0.59584 0.12448,-0.19913 0.12448,0.74656 0,0.33724 -0.0476,2.98621 0.37343,2.98621 0.50816,0 0.91777,-0.54412 1.24476,-0.87098"
       id="path4535" />
    <path
       style="fill:#000000;fill-opacity:0;stroke:#ff9900;stroke-width:0.7;stroke-linecap:round;stroke-miterlimit:4;stroke-dasharray:none;stroke-dashoffset:0;stroke-opacity:1"
       d="m 131.6364,162.98623 c 0.24895,-0.0829 0.48954,-0.19741 0.74685,-0.24885 0.21565,-0.0431 1.09191,0.15279 1.24477,0 0.30976,-0.30963 -0.42465,-2.43731 -1.49372,-1.36868 -0.14668,0.14663 -0.31241,0.29947 -0.37343,0.4977 -0.11049,0.35895 -0.0779,0.74715 -0.12447,1.11983 -0.0724,0.57934 -0.33578,1.98245 0.74685,1.74196 0.46398,-0.10307 3.17389,-1.55556 2.48953,-2.23966"
       id="path4537" />
    <path
       style="fill:#000000;fill-opacity:0;stroke:#ff9900;stroke-width:0.7;stroke-linecap:round;stroke-miterlimit:4;stroke-dasharray:none;stroke-dashoffset:0;stroke-opacity:1"
       d="m 135.12173,161.74197 c -0.0415,0.29033 -0.083,0.58066 -0.12448,0.87099 -0.0415,0.29032 -0.0979,0.5789 -0.12447,0.87097 -0.0436,0.47957 0.0575,0.74655 0,0.74655 -0.21149,0 -0.17579,-0.41696 -0.12448,-0.62212 0.0565,-0.22593 1.08696,-2.18186 1.49371,-1.36868 0.25605,0.51189 0.92957,2.23965 1.49372,2.23965"
       id="path4539" />
    <path
       style="fill:#000000;fill-opacity:0;stroke:#ff9900;stroke-width:0.7;stroke-linecap:round;stroke-miterlimit:4;stroke-dasharray:none;stroke-dashoffset:0;stroke-opacity:1"
       d="m 101.93425,170.84895 c 0.6247,-0.72051 0.54934,-0.56629 1.0798,-1.54194 0.17055,-0.31368 0.48851,-0.93825 0.5399,-1.3492 0.0394,-0.31535 -0.0767,-0.55546 -0.19282,-0.46259 -0.22492,0.17987 -0.4224,0.96892 -0.46277,1.11791 -0.21068,0.77758 -0.35081,1.43843 -0.46277,2.23582 -0.0803,0.57155 -0.0824,1.13751 -0.23138,1.69614 -0.0707,0.26499 -0.33145,1.00226 -0.73272,1.00226 -0.0643,0 -0.10284,-0.0771 -0.15426,-0.11565"
       id="path4541" />
    <path
       style="fill:#000000;fill-opacity:0;stroke:#ff9900;stroke-width:0.7;stroke-linecap:round;stroke-miterlimit:4;stroke-dasharray:none;stroke-dashoffset:0;stroke-opacity:1"
       d="m 101.12441,171.31153 c 0.64048,-1.13665 2.06432,-1.38472 3.23939,-1.58049"
       id="path4543" />
    <path
       style="fill:#000000;fill-opacity:0;stroke:#ff9900;stroke-width:0.7;stroke-linecap:round;stroke-miterlimit:4;stroke-dasharray:none;stroke-dashoffset:0;stroke-opacity:1"
       d="m 104.86513,169.42265 c 0.48074,0.56927 1.09371,0.46142 1.58114,-0.0771 0.18283,-0.202 0.37926,-0.55148 0.26995,-0.84807 -0.0507,-0.13748 -0.15868,-0.25159 -0.26995,-0.34693 -0.62044,-0.53159 -1.37392,-0.56937 -1.69683,0.26984 -0.59979,1.55882 1.22032,2.62676 2.12103,1.4263 0.0903,-0.12031 0.1356,-0.27479 0.15426,-0.42404 0.0806,-0.64457 -0.39534,-1.28085 -1.0798,-1.15646 -0.14803,0.0269 -0.30588,0.0613 -0.4242,0.1542 -0.33975,0.26684 0.0343,0.39693 0.23138,0.46258"
       id="path4545" />
    <path
       style="fill:#000000;fill-opacity:0;stroke:#ff9900;stroke-width:0.7;stroke-linecap:round;stroke-miterlimit:4;stroke-dasharray:none;stroke-dashoffset:0;stroke-opacity:1"
       d="m 108.72156,169.26846 c -0.002,-1.04747 0.25926,-2.06786 0.61702,-3.04534 0.0632,-0.17278 0.12663,-0.34988 0.23139,-0.50113 0.13885,-0.20049 0.17301,0.24124 0.15426,0.42403 -0.11342,1.10531 -0.46927,2.18241 -0.6556,3.27663 -0.0457,0.26871 -0.1327,0.53747 -0.11569,0.80952 0.01,0.15497 0.0501,0.36289 0.19282,0.42404 0.6031,0.25836 1.9404,-1.12606 2.08247,-1.5805 0.0836,-0.26745 -0.01,-0.26018 -0.15426,-0.30838"
       id="path4547" />
    <path
       style="fill:#000000;fill-opacity:0;stroke:#ff9900;stroke-width:0.7;stroke-linecap:round;stroke-miterlimit:4;stroke-dasharray:none;stroke-dashoffset:0;stroke-opacity:1"
       d="m 108.68299,169.11426 c -0.0643,-0.0514 -0.26049,-0.10736 -0.19282,-0.15419 0.44122,-0.30534 2.21217,-0.33525 2.81519,-0.38549"
       id="path4549" />
    <path
       style="fill:#000000;fill-opacity:0;stroke:#ff9900;stroke-width:0.7;stroke-linecap:round;stroke-miterlimit:4;stroke-dasharray:none;stroke-dashoffset:0;stroke-opacity:1"
       d="m 113.78314,168.92152 c 0,-0.11564 0.04,-0.23843 0,-0.34694 -0.15735,-0.42692 -0.73557,-0.86925 -1.15692,-1.00226 -0.39595,-0.12498 -0.75321,0.2992 -0.88698,0.61678 -0.22364,0.53092 0.0617,1.11401 0.46277,1.46484 0.17127,0.14981 0.45307,0.25838 0.65559,0.34694 0.24374,0.10659 0.36163,0.194 0.65559,0.11565 0.0795,-0.0212 0.13462,-0.096 0.19282,-0.1542 0.29625,-0.29613 0.32801,-0.32926 0.38565,-0.77097 0.0349,-0.26752 10e-4,-0.60177 -0.1157,-0.84807 -0.055,-0.11613 -0.13793,-0.22017 -0.23138,-0.30839 -0.14019,-0.13234 -0.29198,-0.25751 -0.46277,-0.34693 -0.59392,-0.31097 -1.25065,0.22047 -1.42688,0.77097 -0.11392,0.35586 -0.0465,0.47324 0.0386,0.77097"
       id="path4551" />
    <path
       style="fill:#000000;fill-opacity:0;stroke:#ff9900;stroke-width:0.7;stroke-linecap:round;stroke-miterlimit:4;stroke-dasharray:none;stroke-dashoffset:0;stroke-opacity:1"
       d="m 116.71402,167.91926 c 0.10033,-0.39638 -1.26117,-0.17415 -1.04123,0.0771 0.37983,0.43392 1.73037,0.4188 1.69682,1.15646 -0.008,0.1746 -0.0306,0.37757 -0.15425,0.50113 -0.4052,0.40503 -1.15388,0.40056 -1.65827,0.26984 -0.47483,-0.12305 -0.79752,-0.40059 -0.69415,-0.46258 0.13411,-0.0804 0.30796,-0.055 0.46277,-0.0771"
       id="path4553" />
    <path
       style="fill:#000000;fill-opacity:0;stroke:#ff9900;stroke-width:0.7;stroke-linecap:round;stroke-miterlimit:4;stroke-dasharray:none;stroke-dashoffset:0;stroke-opacity:1"
       d="m 117.94808,169.11426 c 0.6339,-0.35151 1.37275,-0.24462 2.0439,-0.50113 0.19432,-0.0743 0.93305,-0.4089 0.65559,-0.80952 -0.31696,-0.45764 -1.05762,-0.22985 -1.38831,0.0771 -0.47937,0.44494 -0.61713,1.3491 -0.1157,1.85033 0.30505,0.30493 0.9329,0.0734 1.23406,-0.0771"
       id="path4555" />
    <path
       style="fill:#000000;fill-opacity:0;stroke:#ff9900;stroke-width:0.7;stroke-linecap:round;stroke-miterlimit:4;stroke-dasharray:none;stroke-dashoffset:0;stroke-opacity:1"
       d="m 120.99464,168.34329 c 0.0101,-0.50764 0.0474,-0.36009 0,0.19274 -0.0242,0.28282 -0.0618,0.56463 -0.0771,0.84807 -0.0104,0.19247 -0.008,0.38567 0,0.57823 0.005,0.1035 0.0182,0.20681 0.0386,0.30839 0.006,0.0282 0.0213,0.10008 0.0386,0.0771 0.0488,-0.065 0.0564,-0.1527 0.0771,-0.23129 0.10966,-0.41653 0.14335,-0.74372 0.30852,-1.15646 0.11921,-0.29791 0.64435,-1.26692 1.04123,-0.69388 0.3692,0.53307 0.24353,1.12717 0.26995,1.73469 0.005,0.11625 -0.006,0.23954 0.0386,0.34694 0.14,0.33587 0.4845,-0.0753 0.57846,-0.19274"
       id="path4557" />
    <path
       style="fill:#000000;fill-opacity:0;stroke:#ff9900;stroke-width:0.7;stroke-linecap:round;stroke-miterlimit:4;stroke-dasharray:none;stroke-dashoffset:0;stroke-opacity:1"
       d="m 124.42686,165.68344 c 0.0129,-0.1285 0.03,-0.51434 0.0386,-0.38549 0.0214,0.32053 -0.005,0.64252 0,0.96372 0.0155,0.92924 -0.0125,2.07801 0.11569,3.00679 0.0319,0.23141 0.0789,0.61721 0.38564,0.69387 0.3833,0.0958 0.84349,-0.44536 1.0798,-0.65532"
       id="path4559" />
    <path
       style="fill:#000000;fill-opacity:0;stroke:#ff9900;stroke-width:0.7;stroke-linecap:round;stroke-miterlimit:4;stroke-dasharray:none;stroke-dashoffset:0;stroke-opacity:1"
       d="m 124.2726,168.22764 c 0.0619,0.0699 -0.5457,-0.0477 -0.46277,-0.19274 0.0545,-0.0953 0.19914,-0.10571 0.30852,-0.11564 0.83726,-0.0761 1.42841,0.0904 2.19816,0.34693"
       id="path4561" />
    <path
       style="fill:#000000;fill-opacity:0;stroke:#ff9900;stroke-width:0.7;stroke-linecap:round;stroke-miterlimit:4;stroke-dasharray:none;stroke-dashoffset:0;stroke-opacity:1"
       d="m 127.47343,168.1891 c 0.22224,-0.42011 0.88536,0.041 1.11837,-0.30839 0.20198,-0.30286 -0.20084,-0.55626 -0.46278,-0.50113 -0.33582,0.0707 -0.61143,0.31378 -0.80985,0.57823 -0.25798,0.34383 -0.60411,1.12844 -0.50133,1.58049 0.12114,0.53279 0.78398,0.552 1.19549,0.46258 0.30886,-0.0671 0.41629,-0.17607 0.65559,-0.34694"
       id="path4563" />
    <path
       style="fill:#000000;fill-opacity:0;stroke:#ff9900;stroke-width:0.7;stroke-linecap:round;stroke-miterlimit:4;stroke-dasharray:none;stroke-dashoffset:0;stroke-opacity:1"
       d="m 129.44021,168.30474 c 0.09,-0.16704 0.13218,-0.37066 0.26994,-0.50113 0.12134,-0.1149 0.30291,-0.14411 0.46278,-0.19274 0.34322,-0.10442 0.7525,-0.11164 0.80984,0.34694 0.10597,0.84744 -0.97766,1.21937 -1.15692,1.96597 -0.17431,0.72598 1.15692,0.93418 1.15692,0.69388"
       id="path4565" />
    <path
       style="fill:#000000;fill-opacity:0;stroke:#ff9900;stroke-width:0.7;stroke-linecap:round;stroke-miterlimit:4;stroke-dasharray:none;stroke-dashoffset:0;stroke-opacity:1"
       d="m 129.71015,169.61539 c 0.33414,-0.42401 0.83849,-0.50609 1.31119,-0.26984"
       id="path4567" />
    <path
       style="fill:#000000;fill-opacity:0;stroke:#ff9900;stroke-width:0.7;stroke-linecap:round;stroke-miterlimit:4;stroke-dasharray:none;stroke-dashoffset:0;stroke-opacity:1"
       d="m 104.36541,173.28644 c 0.0129,-0.0643 0.0386,-0.12722 0.0386,-0.19275 0,-0.0128 -0.0309,-0.0103 -0.0386,0 -0.0728,0.097 -0.14305,0.19784 -0.19282,0.30839 -0.0667,0.14822 -0.11101,0.3059 -0.15425,0.46259 -0.0641,0.23241 -0.40652,1.12285 -0.0386,1.34919 0.0991,0.061 0.23125,0.0501 0.34708,0.0386 0.72123,-0.0721 1.14755,-0.6558 1.46544,-1.23355 0.10527,-0.19134 0.21796,-0.37908 0.30851,-0.57823 0.0654,-0.14372 0.0954,-0.23129 0.0771,-0.23129 -0.1157,0 -0.17149,0.34782 -0.19282,0.53968 -0.0645,0.58049 0.21321,0.98905 0.65559,1.31065 0.19524,0.14193 0.15938,0.22105 0.26995,0"
       id="path4569" />
    <path
       style="fill:#000000;fill-opacity:0;stroke:#ff9900;stroke-width:0.7;stroke-linecap:round;stroke-miterlimit:4;stroke-dasharray:none;stroke-dashoffset:0;stroke-opacity:1"
       d="m 104.75105,172.9395 c 0.0481,-0.28316 0.24358,-0.24752 0.46278,-0.19275"
       id="path4571" />
    <path
       style="fill:#000000;fill-opacity:0;stroke:#ff9900;stroke-width:0.7;stroke-linecap:round;stroke-miterlimit:4;stroke-dasharray:none;stroke-dashoffset:0;stroke-opacity:1"
       d="m 105.48378,172.70821 c 0.0643,-0.0386 0.12854,-0.0771 0.19282,-0.11565"
       id="path4573" />
    <path
       style="fill:#000000;fill-opacity:0;stroke:#ff9900;stroke-width:0.7;stroke-linecap:round;stroke-miterlimit:4;stroke-dasharray:none;stroke-dashoffset:0;stroke-opacity:1"
       d="m 107.68193,172.97805 c 0.0257,0.17989 0.0639,0.35844 0.0771,0.53968 0.0253,0.34625 0.0386,0.69363 0.0386,1.04081 0,0.19317 -0.0386,0.38506 -0.0386,0.57823 0,0.0406 0.0386,0.075 0.0386,0.11564 0,0.0287 -0.0334,-0.0488 -0.0386,-0.0771 -0.0208,-0.11448 -0.0335,-0.23069 -0.0386,-0.34694 -0.024,-0.55152 -0.0122,-1.13485 0.50133,-1.46485 0.29808,-0.19154 0.73448,0.11768 1.00267,0.19275 0.1384,0.0387 0.28281,0.0514 0.42421,0.0771"
       id="path4575" />
    <path
       style="fill:#000000;fill-opacity:0;stroke:#ff9900;stroke-width:0.7;stroke-linecap:round;stroke-miterlimit:4;stroke-dasharray:none;stroke-dashoffset:0;stroke-opacity:1"
       d="m 110.53568,173.28644 c -0.0129,0.14134 -0.0297,0.28238 -0.0386,0.42403 -0.0292,0.46672 -0.0706,0.82517 0,1.27211 0.0611,0.38646 0.18499,0.36094 0.50134,0.15419 0.69565,-0.45467 1.72088,-1.16561 1.81251,-2.08163 0.004,-0.0384 0.0173,-0.0812 0,-0.11564 -0.008,-0.0162 -0.0328,0.0213 -0.0386,0.0386 -0.0335,0.10052 -0.0614,0.2036 -0.0771,0.30839 -0.023,0.15301 -0.0561,0.30885 -0.0386,0.46258 0.0103,0.0905 0.13043,0.97928 0.34707,1.15646 0.43796,0.35818 1.30636,-0.74447 1.50401,-1.04081"
       id="path4577" />
    <path
       style="fill:#000000;fill-opacity:0;stroke:#ff9900;stroke-width:0.7;stroke-linecap:round;stroke-miterlimit:4;stroke-dasharray:none;stroke-dashoffset:0;stroke-opacity:1"
       d="m 111.30697,172.63111 c 0.67819,-0.0753 0.10197,0.003 1.15692,-0.23129 0.24407,-0.0542 0.23139,-0.11452 0.23139,0"
       id="path4579" />
    <path
       style="fill:#000000;fill-opacity:0;stroke:#ff9900;stroke-width:0.7;stroke-linecap:round;stroke-miterlimit:4;stroke-dasharray:none;stroke-dashoffset:0;stroke-opacity:1"
       d="m 115.31765,172.9395 c 0,-0.16704 0,-0.33409 0,-0.50113 0,-0.0385 -0.002,0.0771 0,0.11564 0.0108,0.20571 0.0435,0.41085 0.0386,0.61678 -0.007,0.29093 -0.26062,1.82422 -0.0386,2.12017 0.12836,0.17109 0.27733,-0.33749 0.34707,-0.53968 0.15899,-0.46087 0.44659,-2.39001 1.0798,-2.39001 0.15476,0 0.23928,0.20853 0.30852,0.34694 0.0976,0.19518 0.11569,0.59877 0.11569,0.77097 0,0.30564 -0.0898,0.84893 -0.0386,1.15646 0.0936,0.56145 0.54899,0.52845 0.92555,0.23129 0.11502,-0.0908 0.17996,-0.23129 0.26994,-0.34694"
       id="path4581" />
    <path
       style="fill:#000000;fill-opacity:0;stroke:#ff9900;stroke-width:0.7;stroke-linecap:round;stroke-miterlimit:4;stroke-dasharray:none;stroke-dashoffset:0;stroke-opacity:1"
       d="m 118.86555,170.20255 c 0.0386,-0.1028 0.1157,-0.41818 0.1157,-0.30839 0,0.76732 -0.36562,2.34697 -0.46278,2.92969 -0.0894,0.53637 -0.31614,1.53534 -0.11569,2.15873 0.1787,0.5557 0.53635,0.27338 0.77129,0.0385"
       id="path4583" />
    <path
       style="fill:#000000;fill-opacity:0;stroke:#ff9900;stroke-width:0.7;stroke-linecap:round;stroke-miterlimit:4;stroke-dasharray:none;stroke-dashoffset:0;stroke-opacity:1"
       d="m 120.02248,173.44063 c 0.31194,0.0145 1.12859,0.5798 1.38831,0.42404 0.69711,-0.4181 -0.40038,-1.96613 -1.04123,-0.92517 -0.3569,0.57971 -0.70467,2.09845 0.0386,2.54421 0.50771,0.3045 1.28199,-0.44679 1.6197,-0.73243"
       id="path4585" />
    <path
       style="fill:#000000;fill-opacity:0;stroke:#ff9900;stroke-width:0.7;stroke-linecap:round;stroke-miterlimit:4;stroke-dasharray:none;stroke-dashoffset:0;stroke-opacity:1"
       d="m 122.76054,173.47918 c 0.142,0.60329 0.23414,0.71773 0.11569,1.3492 -0.0352,0.18776 -0.13239,0.35846 -0.19282,0.53968 -0.0168,0.0503 0.006,0.12481 -0.0386,0.15419 -0.0302,0.0202 -0.0735,-0.0409 -0.0771,-0.0771 -0.0103,-0.10308 0.0234,-0.20591 0.0386,-0.30839 0.0362,-0.2445 0.0462,-0.49522 0.11569,-0.73243 0.0639,-0.21834 0.57667,-1.63823 1.00267,-1.65759 0.25784,-0.0117 0.48952,0.34227 0.69416,0.46259 0.13388,0.0787 0.2828,0.1285 0.4242,0.19274"
       id="path4587" />
    <path
       style="fill:#000000;fill-opacity:0;stroke:#ff9900;stroke-width:0.7;stroke-linecap:round;stroke-miterlimit:4;stroke-dasharray:none;stroke-dashoffset:0;stroke-opacity:1"
       d="m 125.9228,173.0166 c -0.0257,0.16704 -0.042,0.3358 -0.0771,0.50113 -0.055,0.25913 -0.13618,0.51219 -0.19282,0.77097 -0.0334,0.15271 -0.0465,0.3093 -0.0771,0.46258 -0.0426,0.21304 -0.0386,0.12934 -0.0386,0.0771"
       id="path4589" />
    <path
       style="fill:#000000;fill-opacity:0;stroke:#ff9900;stroke-width:0.7;stroke-linecap:round;stroke-miterlimit:4;stroke-dasharray:none;stroke-dashoffset:0;stroke-opacity:1"
       d="m 125.80711,171.97578 c 0.0403,-0.13442 0.12355,-0.70925 0.46277,-0.61677 0.1143,0.0312 0.0514,0.23129 0.0771,0.34693"
       id="path4591" />
    <path
       style="fill:#000000;fill-opacity:0;stroke:#000000;stroke-width:0.7;stroke-linecap:round;stroke-opacity:1"
       d="m 97.925804,57.740373 c 3.568906,0.462905 7.186586,-0.318058 10.680966,-0.991401 0.23504,-0.04529 4.19928,-0.765806 4.57755,-1.143926"
       id="path1336" />
    <path
       style="fill:#000000;fill-opacity:0;stroke:#000000;stroke-width:0.7;stroke-linecap:round;stroke-opacity:1"
       d="m 111.88735,54.994954 c 0.52764,-0.384523 2.66616,0.317286 2.44136,0.991401 -0.23371,0.70085 -1.40408,1.07117 -1.9836,1.296448 -0.41305,0.160565 -0.62948,0.152525 -0.38147,0.152525"
       id="path1701" />
    <path
       style="fill:#000000;fill-opacity:0;stroke:#000000;stroke-width:0.7;stroke-linecap:round;stroke-opacity:1"
       d="m 115.70688,58.884157 c 1.55522,-1.003093 1.78976,-3.282794 2.05991,-4.957012 0.0367,-0.227255 0.0534,-0.457305 0.0763,-0.686356 0.003,-0.02529 0,-0.101681 0,-0.07626 0,1.658986 -0.19397,3.489262 0.22888,5.109535 0.0574,0.220018 0.20346,0.406729 0.30518,0.610094 0.0254,0.05084 0.0195,0.152523 0.0763,0.152523 0.0974,0 -0.12014,-0.43976 -0.30516,-0.686356"
       id="path1901" />
    <path
       style="fill:#000000;fill-opacity:0;stroke:#000000;stroke-width:0.7;stroke-linecap:round;stroke-opacity:1"
       d="m 115.78318,57.282661 c 1.00884,0.403818 1.59533,0.332736 2.59395,0"
       id="path1903" />
    <path
       style="fill:#000000;fill-opacity:0;stroke:#000000;stroke-width:0.7;stroke-linecap:round;stroke-opacity:1"
       d="m 120.28444,57.206398 c 0.0509,0.127103 0.12734,0.246754 0.15259,0.381308 0.0518,0.275968 0.0469,0.559643 0.0763,0.838879 0.0215,0.203822 0.0537,0.406401 0.0763,0.610095 0.003,0.02527 0.0203,0.09151 0,0.07626 -0.89351,-0.669874 -0.51922,-1.845224 0.30517,-2.440375 0.54266,-0.391761 1.24964,0.07626 1.83102,0.07626"
       id="path1905" />
    <path
       style="fill:#000000;fill-opacity:0;stroke:#000000;stroke-width:0.7;stroke-linecap:round;stroke-opacity:1"
       d="m 124.25166,53.69836 c -0.1626,1.580273 0.0557,3.145397 -0.0763,4.728225 -0.0129,0.154095 -0.0338,0.308896 -0.0763,0.457572 -0.01,0.03457 -0.0763,0.112218 -0.0763,0.07626 0,-1.102194 1.30531,-3.067191 1.83103,-4.118133 0.0114,-0.02274 0.008,0.05215 0,0.07626 -0.0687,0.206049 -0.12807,0.417703 -0.22889,0.610092 -0.18012,0.343736 -0.39501,0.668549 -0.61034,0.991404 -0.22732,0.340837 -1.44956,1.787543 -1.44956,2.28785 0,0.09167 0.0609,0.228786 0.15258,0.228786 0.21727,0 0.40784,-0.150065 0.61035,-0.228786 0.58538,-0.227559 1.17741,-0.439033 1.75472,-0.686354 1.19396,-0.511489 0.21365,-0.172871 0.83923,-0.381309 0.30517,-0.02542 0.61304,-0.123999 0.91552,-0.07626 0.42477,0.06704 0.79054,0.901341 1.22069,0.686354 0.44948,-0.224651 0.4063,-2.458109 -0.53405,-2.364114 -0.70442,0.07041 -1.18974,2.852349 -0.45776,3.126731 0.52102,0.195304 1.28265,-0.936544 1.44957,-1.220187 0.11016,-0.187196 0.16017,-0.404043 0.22888,-0.610093 0.0585,-0.175566 0.10768,-0.354293 0.15258,-0.533833 0.006,-0.02466 0.0114,-0.099 0,-0.07626 -0.10218,0.204265 -0.29759,2.135327 -0.15258,2.135327 0.2169,0 0.49909,-0.346365 0.61034,-0.45757"
       id="path1907" />
    <path
       style="fill:#000000;fill-opacity:0;stroke:#000000;stroke-width:0.7;stroke-linecap:round;stroke-opacity:1"
       d="m 131.19428,57.969015 c 0.22888,0.101682 0.47423,0.172348 0.68664,0.305048 0.41307,0.258067 0.97042,1.153733 1.29697,0.305047 0.0753,-0.195646 0.1395,-0.400875 0.15258,-0.610095 0.0245,-0.390768 -0.23619,-1.406046 -0.83921,-1.296449 -0.40685,0.07394 -0.71165,0.674308 -0.91552,0.91514 -0.11616,0.137224 -0.34378,0.205516 -0.38146,0.381309 -0.0491,0.229164 0.0882,0.46101 0.15258,0.686356 0.2577,0.901563 1.01499,0.39772 1.44956,-0.152522 0.6286,-0.795905 1.47301,-3.062293 1.29698,-4.118135 -0.0264,-0.158592 -0.12614,0.298981 -0.15259,0.457572 -0.0509,0.305047 -0.10983,0.608852 -0.15258,0.91514 -0.33771,2.419307 -0.30517,1.632538 -0.30517,3.126731 0,0.127102 -0.0472,0.263302 0,0.381307 0.10218,0.255355 0.47777,-0.278617 0.68663,-0.45757"
       id="path1909" />
    <path
       style="fill:#000000;fill-opacity:0;stroke:#000000;stroke-width:0.7;stroke-linecap:round;stroke-opacity:1"
       d="m 135.54296,57.66397 c 0.50496,0.890553 1.52585,0.580447 1.52585,-0.457572 0,-0.18507 -0.0639,-0.371374 -0.15259,-0.533832 -0.5268,-0.965424 -1.53752,0.204314 -1.75473,0.762618 -0.29107,0.748173 -0.38288,2.117574 0.76293,1.067665 0.35668,-0.326823 0.57884,-0.807396 0.91551,-1.143926 0.0917,-0.09164 -0.0531,0.253779 -0.0763,0.381308 -0.0322,0.176851 -0.0614,0.354701 -0.0763,0.533832 -0.0873,1.047271 0.39782,0.48345 0.83923,0.152522"
       id="path1911" />
    <path
       style="fill:#000000;fill-opacity:0;stroke:#000000;stroke-width:0.7;stroke-linecap:round;stroke-opacity:1"
       d="m 138.74725,56.748828 c -0.30132,0.193302 0.32816,-0.475329 0.15258,-0.533832 -0.23215,-0.07735 -0.78542,0.811533 -0.76292,0.991402 0.0993,0.794188 1.38885,7.93e-4 1.60214,0.533833 0.048,0.119808 -0.91811,0.838879 -1.22068,0.838879 -0.0917,0 -0.1372,-0.152525 -0.22888,-0.152525 -0.0254,0 0.004,0.05119 0,0.07626 -0.0213,0.127857 -0.0763,0.251686 -0.0763,0.381308 0,0.819468 0.74647,0.533832 0.30517,0.533832"
       id="path1913" />
    <path
       style="fill:#000000;fill-opacity:0;stroke:#000000;stroke-width:0.7;stroke-linecap:round;stroke-opacity:1"
       d="m 115.93576,60.790698 c 0,-0.330466 0,-0.660934 0,-0.991401 0,-0.05084 0,-0.203366 0,-0.152525 0,1.389113 -0.45615,2.636825 -0.76292,3.96561 -0.12131,0.525436 -0.35973,1.078355 -0.22888,1.601496 0.009,0.03488 0.0591,-0.0447 0.0763,-0.07626 0.13615,-0.249504 0.23682,-0.517939 0.38147,-0.762617 0.1405,-0.237682 1.30057,-2.13244 1.67843,-1.83028 0.51361,0.410711 -0.0545,1.721358 0.15259,2.135327 0.20876,0.417349 1.83102,-1.730682 1.83102,-2.516636 0,-0.02542 0.005,0.05125 0,0.07626 -0.15198,0.835567 -0.38267,1.829065 0.30517,2.516636 0.0569,0.05685 0.15258,0.101681 0.22887,0.07626 0.48879,-0.162864 1.09035,-1.639613 1.29698,-2.135327 0.0527,-0.126363 0.10928,-0.251438 0.15259,-0.381309 0.008,-0.02411 -0.008,-0.100376 0,-0.07626 0.003,0.0091 0.33205,1.803414 0.53404,1.601496 0.0899,-0.08987 0.15596,-0.200919 0.22888,-0.305047 0.33389,-0.476782 0.25415,-0.304552 0.38146,-0.686356"
       id="path1915" />
    <path
       style="fill:#000000;fill-opacity:0;stroke:#000000;stroke-width:0.7;stroke-linecap:round;stroke-opacity:1"
       d="m 119.75039,60.790698 c 0.40049,-0.287788 0.79135,-0.533831 1.29698,-0.533831"
       id="path1917" />
    <path
       style="fill:#000000;fill-opacity:0;stroke:#000000;stroke-width:0.7;stroke-linecap:round;stroke-opacity:1"
       d="m 123.94648,61.553316 c -0.88984,0.06652 -1.60103,0.67967 -1.75473,1.601496 -0.086,0.515914 0.46868,1.178787 0.99181,1.143926 0.54808,-0.03652 0.88023,-0.484898 1.29698,-0.762617"
       id="path1919" />
    <path
       style="fill:#000000;fill-opacity:0;stroke:#000000;stroke-width:0.7;stroke-linecap:round;stroke-opacity:1"
       d="m 124.93829,62.163411 c -0.0254,0.254205 -0.0641,0.507431 -0.0763,0.762615 -0.0133,0.27931 -0.0127,0.559543 0,0.838881 0.0128,0.28049 0.0301,0.561922 0.0763,0.838879 0.006,0.03547 0.0509,0.101682 0.0763,0.07626 0.0569,-0.05683 0.0526,-0.151954 0.0763,-0.228786 0.0781,-0.253663 0.17473,-0.502793 0.22888,-0.762618 0.14108,-0.676907 0.0164,-1.844637 0.61034,-2.364111 0.0789,-0.06903 0.20435,-0.105058 0.30518,-0.07626 0.10372,0.02962 0.15258,0.152525 0.22887,0.228786 0.44844,0.448266 0.87123,0.762617 1.52586,0.762617"
       id="path1921" />
    <path
       style="fill:#000000;fill-opacity:0;stroke:#000000;stroke-width:0.7;stroke-linecap:round;stroke-opacity:1"
       d="m 128.82921,61.782102 c 0.42852,-0.321409 1.40291,-0.567839 1.22068,-1.296451 -0.14883,-0.595087 -0.9175,0.01554 -1.06809,0.228786 -0.3548,0.502427 -1.38104,2.691996 -0.30518,3.05047 0.617,0.205581 1.78788,-0.779179 2.21249,-0.991404"
       id="path1923" />
    <path
       style="fill:#000000;fill-opacity:0;stroke:#000000;stroke-width:0.7;stroke-linecap:round;stroke-opacity:1"
       d="m 132.0335,61.095746 c 0.43829,-1.418273 -0.49058,0.375532 -0.30517,0.838879 0.21172,0.529091 0.84396,0.318655 1.22068,0.533831 0.52834,0.301782 -0.17312,0.9912 -0.38146,1.143926 -0.10424,0.07641 -0.88242,0.533831 -1.14439,0.533831 -0.13694,0 -0.25897,-0.0913 -0.38147,-0.152522 -0.45198,-0.2259 -0.15168,-0.45802 0.15259,-0.610093"
       id="path1925" />
    <path
       style="fill:#000000;fill-opacity:0;stroke:#000000;stroke-width:0.7;stroke-linecap:round;stroke-opacity:1"
       d="m 134.24599,61.477055 c -0.0617,0.733426 -0.38514,1.333205 -0.45776,2.059066 -0.005,0.05059 -0.036,0.188464 0,0.152522 0.10485,-0.104799 0.12403,-0.276505 0.22888,-0.381308"
       id="path1927" />
    <path
       style="fill:#000000;fill-opacity:0;stroke:#000000;stroke-width:0.7;stroke-linecap:round;stroke-opacity:1"
       d="m 133.94081,59.723036 0.45776,1.296449"
       id="path1929" />
    <path
       style="fill:#000000;fill-opacity:0;stroke:#000000;stroke-width:0.7;stroke-linecap:round;stroke-opacity:1"
       d="m 97.396667,78.178372 c 3.105033,0.121301 6.204933,0.01979 9.307693,-0.152527 0.68745,-0.03818 1.37138,-0.152524 2.0599,-0.152524 0.2097,0 0.40063,0.152524 0.61034,0.152524"
       id="path1931" />
    <path
       style="fill:#000000;fill-opacity:0;stroke:#000000;stroke-width:0.7;stroke-linecap:round;stroke-opacity:1"
       d="m 108.3065,76.881919 c 0.25431,-0.02543 0.50735,-0.07626 0.76293,-0.07626 0.12854,0 1.63693,0.291016 1.52585,0.457568 -0.2325,0.348607 -0.97857,0.428223 -1.29697,0.610095 -0.5096,0.291084 -1.14439,0.890656 -1.14439,1.525235"
       id="path1935" />
    <path
       style="fill:#000000;fill-opacity:0;stroke:#000000;stroke-width:0.7;stroke-linecap:round;stroke-opacity:1"
       d="m 112.96035,76.805658 c -0.50374,-0.503539 -0.46808,-0.231838 -0.15259,-0.915138 0.69023,-1.494888 1.94113,-0.686358 3.2043,-0.686358 0.41742,0 0.29153,0.08989 0.45775,-0.07626"
       id="path1937" />
    <path
       style="fill:#000000;fill-opacity:0;stroke:#000000;stroke-width:0.7;stroke-linecap:round;stroke-opacity:1"
       d="m 113.79957,74.212763 c 0.40159,1.284126 0.30653,2.646095 0.22888,3.965609 -0.021,0.35618 -0.054,0.711563 -0.0763,1.067663 -0.003,0.05074 0.036,0.116578 0,0.152521 -0.0112,0.01119 -0.23635,-0.45009 -0.0763,-0.610094"
       id="path1939" />
    <path
       style="fill:#000000;fill-opacity:0;stroke:#000000;stroke-width:0.7;stroke-linecap:round;stroke-opacity:1"
       d="m 113.57069,77.720799 c 0.85874,-0.50238 1.9978,-0.305043 2.97541,-0.305043"
       id="path1941" />
    <path
       style="fill:#000000;fill-opacity:0;stroke:#000000;stroke-width:0.7;stroke-linecap:round;stroke-opacity:1"
       d="m 118.52971,77.644536 c 0.78332,0.954466 1.56063,-0.74861 1.14439,-1.372709 -0.0823,-0.123351 -0.23558,-0.202271 -0.38146,-0.228785 -1.04502,-0.189931 -1.88593,2.227617 -1.29697,2.669162 0.14461,0.108415 0.37713,0.07626 0.53404,0.07626 0.72285,0 1.24362,-0.118674 1.75473,-0.686353 0.10893,-0.120984 0.23903,-0.232553 0.30517,-0.38131 0.26577,-0.597765 -0.91429,-0.687562 -1.14439,-0.457573"
       id="path1943" />
    <path
       style="fill:#000000;fill-opacity:0;stroke:#000000;stroke-width:0.7;stroke-linecap:round;stroke-opacity:1"
       d="m 122.03917,77.720799 c 0.47003,0.166082 0.9367,-0.07709 1.14439,-0.533831 0.17002,-0.373901 0.0388,-1.699281 -0.68663,-1.296448 -0.54369,0.301924 -0.33274,1.038244 -0.38146,1.525236 -0.0104,0.104291 -0.10173,0.203361 -0.0763,0.305043 0.0848,0.339135 0.26363,0.762619 0.68663,0.762619 0.62417,0 1.19618,-0.463028 1.75474,-0.686355"
       id="path1945" />
    <path
       style="fill:#000000;fill-opacity:0;stroke:#000000;stroke-width:0.7;stroke-linecap:round;stroke-opacity:1"
       d="m 125.31975,76.881919 c -0.12715,0.127103 -0.3061,0.21808 -0.38146,0.381307 -0.0859,0.186074 -0.0407,0.408268 -0.0763,0.610095 -0.0407,0.230804 -0.13312,0.452795 -0.15259,0.686356 -0.007,0.08011 0.0568,0.150796 0.0763,0.228785 0.006,0.02466 -0.01,0.09963 0,0.07626 0.0856,-0.199628 0.12664,-0.418459 0.22888,-0.610095 0.11729,-0.219823 0.85944,-1.505026 1.22069,-1.143926 0.20954,0.209466 0.0652,0.828067 0.61033,0.610095 0.19258,-0.077 0.78305,-0.553939 0.91552,-0.686353 0.0899,-0.08987 0.12716,-0.228796 0.22888,-0.305051 0.14237,-0.106738 0.04,0.36045 0,0.533831 -0.10834,0.46926 -0.34491,0.951701 0.0763,1.372714 0.30608,0.305943 1.14439,-0.264776 1.14439,-0.610095 0,-0.07191 -0.10172,-0.101682 -0.15258,-0.152524"
       id="path1947" />
    <path
       style="fill:#000000;fill-opacity:0;stroke:#000000;stroke-width:0.7;stroke-linecap:round;stroke-opacity:1"
       d="m 115.5543,79.322293 c 0.0487,-0.484846 0.0265,-2.531885 0.15258,0.305051 0.0497,1.117537 2e-5,2.516399 -0.0763,3.660558 -0.0356,0.533379 -0.17425,1.50358 -0.45776,1.22019 -0.0917,-0.09164 -0.12183,-0.259945 -0.0763,-0.381307 0.1679,-0.447545 1.91313,-2.861953 2.51766,-2.51664 0.4289,0.244991 0.11576,1.922388 0.15259,2.364116 0.0109,0.131138 -0.006,0.457567 0.22888,0.457567 0.45125,0 1.51982,-1.524981 1.75472,-1.906542 0.13127,-0.213215 0.21215,-0.453895 0.30517,-0.686353 0.009,-0.0236 0.0114,-0.099 0,-0.07626 -0.33412,0.668018 -0.25728,1.688386 0.38147,2.135328 0.1122,0.07851 0.24672,0.177012 0.38146,0.152524 0.75727,-0.137631 1.16233,-1.417529 1.22068,-2.059066 0.009,-0.101264 0,-0.203364 0,-0.305046 0,-0.02543 0.004,-0.101339 0,-0.07626 -0.1065,0.638707 -0.32109,1.810292 0.38146,2.211589 0.59448,0.339566 1.94019,-1.280018 1.14439,-1.677758 -0.13649,-0.06821 -0.30517,0 -0.45775,0"
       id="path1949" />
    <path
       style="fill:#000000;fill-opacity:0;stroke:#000000;stroke-width:0.7;stroke-linecap:round;stroke-opacity:1"
       d="m 120.13186,81.305102 c -0.0893,-0.98292 0.84097,-0.724781 1.52585,-0.838883"
       id="path1951" />
    <path
       style="fill:#000000;fill-opacity:0;stroke:#000000;stroke-width:0.7;stroke-linecap:round;stroke-opacity:1"
       d="m 125.62492,81.457623 c -0.0763,-0.152524 -0.0924,-0.355274 -0.22888,-0.457573 -0.80902,-0.606523 -2.45392,3.758171 -0.22887,2.821684 0.3976,-0.167347 0.72902,-0.432155 1.0681,-0.686353"
       id="path1953" />
    <path
       style="fill:#000000;fill-opacity:0;stroke:#000000;stroke-width:0.7;stroke-linecap:round;stroke-opacity:1"
       d="m 126.54043,82.067718 c 0.10172,0.177943 0.26738,0.332378 0.30517,0.533831 0.0314,0.16755 -0.32353,2.203572 0.22888,0.915141 0.095,-0.221657 0.15692,-0.456171 0.22888,-0.686355 0.0299,-0.09575 0.16435,-1.003168 0.22888,-1.067666 0.049,-0.04901 0.90676,0.457571 1.29697,0.457571"
       id="path1955" />
    <path
       style="fill:#000000;fill-opacity:0;stroke:#000000;stroke-width:0.7;stroke-linecap:round;stroke-opacity:1"
       d="m 130.27877,82.296503 c 0.17802,-0.127103 0.35603,-0.254203 0.53405,-0.381307 0.15258,-0.07626 0.31799,-0.13099 0.45775,-0.228787 0.28463,-0.19916 0.75146,-1.230927 0.15259,-1.067663 -0.47094,0.128386 -0.85292,0.464283 -1.14439,0.838877 -0.26484,0.340376 -1.07852,1.594538 -0.38146,2.059067 0.50242,0.334817 1.37788,-0.327578 1.75473,-0.610095"
       id="path1957" />
    <path
       style="fill:#000000;fill-opacity:0;stroke:#000000;stroke-width:0.7;stroke-linecap:round;stroke-opacity:1"
       d="m 133.0253,81.38136 c -0.48245,0 -0.61034,-0.146712 -0.61034,0.533836 0,0.623533 1.55584,0.520142 1.37327,1.067663 -0.18637,0.558898 -0.98354,1.372711 -1.60215,1.372711 -0.69124,0 -0.46144,-0.606398 -0.15258,-0.915143"
       id="path1959" />
    <path
       style="fill:#000000;fill-opacity:0;stroke:#000000;stroke-width:0.7;stroke-linecap:round;stroke-opacity:1"
       d="m 134.78003,81.610145 c -0.15456,0.601493 -0.38599,1.354643 -0.22888,1.982809 0.0272,0.10881 0.15259,-0.273058 0.15259,-0.38131"
       id="path1961" />
    <path
       style="fill:#000000;fill-opacity:0;stroke:#000000;stroke-width:0.7;stroke-linecap:round;stroke-opacity:1"
       d="m 134.62745,80.008651 -0.0763,0.305046"
       id="path1963" />
  </g>
</svg>
