<?xml version="1.0" encoding="UTF-8" standalone="no"?>
<!-- Created with Inkscape (http://www.inkscape.org/) -->

<svg
   width="94.832527mm"
   height="104.40571mm"
   viewBox="0 0 94.832528 104.40571"
   version="1.1"
   id="svg5"
   inkscape:version="1.2.2 (b0a8486541, 2022-12-01)"
   sodipodi:docname="kollenkima-doku.svg"
   xmlns:inkscape="http://www.inkscape.org/namespaces/inkscape"
   xmlns:sodipodi="http://sodipodi.sourceforge.net/DTD/sodipodi-0.dtd"
   xmlns="http://www.w3.org/2000/svg"
   xmlns:svg="http://www.w3.org/2000/svg">
  <sodipodi:namedview
     id="namedview7"
     pagecolor="#ffffff"
     bordercolor="#000000"
     borderopacity="0.25"
     inkscape:showpageshadow="2"
     inkscape:pageopacity="0.0"
     inkscape:pagecheckerboard="0"
     inkscape:deskcolor="#d1d1d1"
     inkscape:document-units="mm"
     showgrid="true"
     inkscape:zoom="6.1307975"
     inkscape:cx="272.31367"
     inkscape:cy="238.3866"
     inkscape:window-width="1920"
     inkscape:window-height="1031"
     inkscape:window-x="0"
     inkscape:window-y="49"
     inkscape:window-maximized="1"
     inkscape:current-layer="layer1">
    <inkscape:grid
       type="xygrid"
       id="grid132"
       units="mm"
       spacingx="5"
       spacingy="5"
       empspacing="1"
       originx="-84.590455"
       originy="-38.128197" />
  </sodipodi:namedview>
  <defs
     id="defs2" />
  <g
     inkscape:label="Layer 1"
     inkscape:groupmode="layer"
     id="layer1"
     transform="translate(-84.590453,-38.128195)">
    <rect
       style="fill:#000000;fill-opacity:0;stroke:#000000;stroke-width:0.7;stroke-linecap:round;stroke-linejoin:round"
       id="rect186"
       width="19.646381"
       height="19.646381"
       x="84.940453"
       y="45.183796"
       ry="1.4311987" />
    <rect
       style="fill:#000000;fill-opacity:0;stroke:#000000;stroke-width:0.7;stroke-linecap:round;stroke-linejoin:round"
       id="rect393"
       width="19.646381"
       height="19.646381"
       x="106.52663"
       y="45.183796"
       ry="1.4311987" />
    <rect
       style="fill:#000000;fill-opacity:0;stroke:#000000;stroke-width:0.7;stroke-linecap:round;stroke-linejoin:round"
       id="rect395"
       width="19.646381"
       height="19.646381"
       x="128.28078"
       y="45.183796"
       ry="1.4311987" />
    <rect
       style="fill:#000000;fill-opacity:0;stroke:#000000;stroke-width:0.7;stroke-linecap:round;stroke-linejoin:round"
       id="rect397"
       width="19.646381"
       height="19.646381"
       x="84.940453"
       y="66.677277"
       ry="1.4311987" />
    <rect
       style="fill:#000000;fill-opacity:0;stroke:#000000;stroke-width:0.7;stroke-linecap:round;stroke-linejoin:round"
       id="rect399"
       width="19.646381"
       height="19.646381"
       x="106.52663"
       y="66.677277"
       ry="1.4311987" />
    <rect
       style="fill:#000000;fill-opacity:0;stroke:#000000;stroke-width:0.7;stroke-linecap:round;stroke-linejoin:round"
       id="rect401"
       width="19.646381"
       height="19.646381"
       x="128.28078"
       y="66.677277"
       ry="1.4311987" />
    <rect
       style="fill:#ff00ff;fill-opacity:0;stroke:#000000;stroke-width:0.7;stroke-linecap:round;stroke-linejoin:round"
       id="rect403"
       width="19.646381"
       height="19.646381"
       x="84.940453"
       y="101.04404"
       ry="1.4311987" />
    <rect
       style="fill:#ff00ff;fill-opacity:0;stroke:#000000;stroke-width:0.7;stroke-linecap:round;stroke-linejoin:round"
       id="rect405"
       width="19.646381"
       height="19.646381"
       x="106.52663"
       y="101.04404"
       ry="1.4311987" />
    <rect
       style="fill:#ff00ff;fill-opacity:0;stroke:#000000;stroke-width:0.7;stroke-linecap:round;stroke-linejoin:round"
       id="rect407"
       width="19.646381"
       height="19.646381"
       x="128.28078"
       y="101.04404"
       ry="1.4311987" />
    <rect
       style="fill:#ff00ff;fill-opacity:0;stroke:#000000;stroke-width:0.7;stroke-linecap:round;stroke-linejoin:round"
       id="rect409"
       width="19.646381"
       height="19.646381"
       x="84.940453"
       y="122.53752"
       ry="1.4311987" />
    <rect
       style="fill:#ff00ff;fill-opacity:0;stroke:#000000;stroke-width:0.7;stroke-linecap:round;stroke-linejoin:round"
       id="rect411"
       width="19.646381"
       height="19.646381"
       x="106.52663"
       y="122.53752"
       ry="1.4311987" />
    <rect
       style="fill:#ff00ff;fill-opacity:0;stroke:#000000;stroke-width:0.7;stroke-linecap:round;stroke-linejoin:round"
       id="rect413"
       width="19.646381"
       height="19.646381"
       x="128.28078"
       y="122.53752"
       ry="1.4311987" />
    <path
       style="fill:#000000;fill-opacity:0;stroke:#ff00ff;stroke-width:0.7;stroke-linecap:round;stroke-linejoin:round"
       d="m 103.76,46.789525 c 0,-0.139933 -0.10929,-0.332402 0,-0.419796 0.49817,-0.398375 0.56346,0.591142 0.50395,1.007507 -0.0564,0.394356 -0.66847,1.471784 -0.83993,1.763138 -0.10236,0.173953 -0.2805,0.309687 -0.33597,0.503753 -0.11542,0.403815 0.96665,-0.389532 1.51187,-0.587711 0.0789,-0.02869 0.2401,-0.08315 0.25199,0 0.0626,0.438026 -0.98781,2.385928 -1.09191,2.602722 -0.0674,0.140264 -0.62956,1.05019 -0.41997,1.427306 0.42282,0.760759 1.77574,-0.516432 1.84785,-0.08396 0.0172,0.103209 -0.78693,2.285611 -0.83994,2.51877 -0.0764,0.336272 -0.27984,1.119521 0.16799,1.34334 0.23115,0.115525 0.8019,-0.359574 0.75594,-0.08396 -0.0762,0.45698 -0.41248,0.830612 -0.58795,1.259385 -0.33756,0.824807 -0.93782,2.485117 -0.67195,3.358353 0.11326,0.371981 0.3427,0.705774 0.58795,1.00751 0.44063,0.542094 0.97318,0.243028 0.83993,1.175422 -0.0233,0.163097 -0.50731,1.726187 -0.58794,1.847096 -0.0621,0.09313 0,-0.223888 0,-0.335833"
       id="path478" />
    <path
       style="fill:#000000;fill-opacity:0;stroke:#ff00ff;stroke-width:0.7;stroke-linecap:round;stroke-linejoin:round"
       d="m 106.78374,46.537647 c 0.19598,-0.08396 0.37604,-0.228341 0.58795,-0.251876 0.2025,-0.02249 0.20796,0.387922 0.16798,0.587714 -0.15913,0.795332 -0.48594,1.670134 -0.75593,2.434807 -0.0308,0.08725 -0.39131,0.691435 -0.25198,0.923546 0.21005,0.349938 1.99438,-0.575974 2.26781,-0.419795 0.13087,0.07475 0.16799,0.269076 0.16799,0.419795 0,0.775753 -0.87113,2.020494 -1.2599,2.686685 -0.083,0.142145 -0.41996,0.619229 -0.41996,0.839589 0,0.322967 0.67194,-0.122761 0.67194,0.08396 0,0.502039 -0.56592,1.373576 -0.50395,1.931056 0.0498,0.448141 0.52505,0.206383 0.75593,0.167918 0.0829,-0.01381 0.27235,-0.08148 0.25197,0 -0.0304,0.121428 -0.11198,0.22389 -0.16798,0.335836 -0.056,0.195905 -0.13042,0.387455 -0.16799,0.587711 -0.42009,2.239578 0.0931,-0.240374 -0.084,1.175427 -0.011,0.08782 -0.0694,0.164576 -0.084,0.251875 -0.10554,0.633003 0.70447,0.128604 0.58795,0.419794 -0.26825,0.670358 -0.16789,0.02769 -0.50396,1.091467 -0.32399,1.025567 -0.24947,1.773163 0,2.770645 0.0136,0.0543 -0.025,0.117856 0,0.167915 0.0177,0.0354 0.056,0.05597 0.084,0.08396 0.056,0.16792 0.0982,0.341069 0.16799,0.503756 0.18058,0.421166 0.471,0.460189 0.25198,1.007506 -0.052,0.129935 -0.18937,-0.210669 -0.25198,-0.335835"
       id="path545" />
    <path
       style="fill:#000000;fill-opacity:0;stroke:#ff00ff;stroke-width:0.7;stroke-linecap:round;stroke-linejoin:round"
       d="m 125.17818,47.12536 c -0.29534,-0.172199 0.49258,-0.777697 0.33597,-0.503753 -0.10017,0.175225 -0.28193,0.309284 -0.33597,0.503753 -0.15807,0.56882 -0.0442,1.185879 -0.16798,1.763136 -0.0316,0.14737 -0.13142,0.273579 -0.16799,0.419796 -0.12292,0.491474 0.17003,0.146161 0.33597,0.08396 0.24699,-0.09258 0.67194,-0.237955 0.67194,0.167921 0,0.864835 -0.25815,0.864285 -0.50395,1.847093 -0.0387,0.154829 -0.0721,1.01945 0.084,1.175427 0.17319,0.173115 0.28798,0.09594 0.33597,0.335833 0.16281,0.813687 -0.43796,1.727076 -0.50396,2.518768 -0.0211,0.253113 0.26759,0.506735 0.16799,0.755631 -0.0375,0.09369 -0.12822,0.159123 -0.16799,0.251875 -0.1639,0.382286 -0.21511,0.782826 -0.33597,1.175425 -0.12504,0.40622 -0.51164,0.88509 -0.41996,1.343343 0.064,0.320021 0.39205,0.03754 0.50396,0.335835 0.1613,0.429969 0.16016,0.594508 0.25197,1.007507 0.13419,0.603575 0.0233,0.06998 0.25198,0.755629 0.0521,0.15635 -0.054,0.01778 -0.084,0.16792 -0.022,0.109768 -0.0123,0.224576 0,0.335836 0.0289,0.260398 0.12607,0.419304 0.084,0.671669 -0.0559,0.334962 -0.25198,0.658201 -0.25198,1.007506 0,0.144262 0.0919,1.00751 0.25198,1.00751"
       id="path547" />
    <path
       style="fill:#000000;fill-opacity:0;stroke:#ff00ff;stroke-width:0.7;stroke-linecap:round;stroke-linejoin:round"
       d="m 128.95786,46.705564 c 0.13999,-0.02799 0.27915,-0.107418 0.41996,-0.08396 0.21987,0.03663 0.002,0.331364 -0.16798,0.839589 -0.0645,0.193286 -0.0964,0.396944 -0.16799,0.587711 -0.2191,0.584038 -0.5858,1.108601 -0.50395,1.763136 0.0825,0.660214 1.03604,0.613473 1.00791,1.091467 -0.0274,0.466381 -0.83619,2.444144 -0.67194,2.854602 0.1405,0.351121 0.42694,0.21671 0.50395,0.755632 0.0467,0.326715 -0.0438,0.22616 -0.084,0.587711 -0.0475,0.427334 0.0169,0.940572 0.16799,1.343342 0.11108,0.296101 0.45227,0.516658 0.50396,0.671672 0.0764,0.229063 0.0269,0.527589 0.084,0.755628 0.0304,0.121431 0.13359,0.215488 0.16799,0.335836 0.16147,0.56493 -0.23788,0.937001 -0.33597,1.427303 -0.0329,0.164653 0,0.335835 0,0.503753 0,0.251876 -0.0313,0.505698 0,0.755629 0.13019,1.041143 0.0285,-0.248729 0.16798,0.587714 0.0819,0.491162 -0.0988,1.051946 -0.25198,1.51126 -0.0629,0.188733 -0.15197,0.46781 -0.084,0.671671 0.0251,0.07511 0.16799,0.08874 0.16799,0.167918 0,0.05599 -0.084,-0.02797 -0.084,-0.08396"
       id="path549" />
    <path
       style="fill:#000000;fill-opacity:0;stroke:#ff00ff;stroke-width:0.7;stroke-linecap:round;stroke-linejoin:round"
       d="m 103.676,69.458429 c -0.95599,0.150384 0.63654,-1.325565 0.50396,-1.007509 -0.14447,0.346601 -0.39084,0.649446 -0.50396,1.007509 -0.0777,0.246031 -0.0339,1.675773 0,2.015011 0.0162,0.162393 0.13655,0.535173 0.25198,0.419796 0.0443,-0.04424 0.0397,-0.123672 0.084,-0.167918 0.0198,-0.01979 0.005,0.05635 0,0.08396 -0.0235,0.140761 -0.0605,0.279032 -0.084,0.419793 -0.0618,0.370885 -0.24551,0.95585 -0.16798,1.343345 0.0521,0.260353 0.21903,0.49217 0.25197,0.755629 0.0745,0.59555 -0.17092,1.112049 -0.25197,1.679178 -0.13625,0.953328 0.3499,2.042858 0.75593,2.854603 0.0626,0.125166 -0.17995,0.215842 -0.25198,0.335838 -0.28516,0.475083 -0.39687,1.047414 -0.33597,1.595218 0.0138,0.124402 0.13762,0.214405 0.16799,0.335833 0.0931,0.372269 0.11571,0.878845 0.084,1.259385 -0.0706,0.846434 -0.39338,1.197816 -0.16799,2.098971 0.0506,0.202462 -0.76246,1.514536 -0.084,1.175425"
       id="path551" />
    <path
       style="fill:#000000;fill-opacity:0;stroke:#ff00ff;stroke-width:0.7;stroke-linecap:round;stroke-linejoin:round"
       d="m 107.11971,68.618837 c 0.694,0.174485 1.47939,0.493911 1.1759,1.343343 -0.0842,0.235741 -0.23426,0.442926 -0.33597,0.671671 -0.11769,0.264708 -0.51976,1.277125 -0.58795,1.595218 -0.23929,1.116203 1.34421,0.0801 1.25989,1.091467 -0.0406,0.487082 -0.24008,0.948031 -0.33597,1.4273 -0.11146,0.557067 -0.19828,1.128644 -0.33597,1.679181 -0.0429,0.171717 -0.15037,0.32762 -0.16799,0.503751 -0.0573,0.572942 0.55673,0.794766 0.75594,1.259382 0.26414,0.616082 -0.0121,1.319996 -0.084,1.931056 -0.0393,0.334277 0.10379,0.778626 -0.084,1.091467 -2e-5,3.7e-5 -0.33594,0.335801 -0.33597,0.335836 -0.26459,0.352647 -0.0389,0.517771 -0.084,0.923549 -0.15912,1.431541 -0.40058,2.058085 0,3.526274 0.0347,0.127064 0.32133,1.007507 0.33597,1.007507 0.0626,0 0.056,-0.111945 0.084,-0.167918"
       id="path553" />
    <path
       style="fill:#000000;fill-opacity:0;stroke:#ff00ff;stroke-width:0.7;stroke-linecap:round;stroke-linejoin:round"
       d="m 123.66631,68.954673 c 0.25198,-0.167918 0.493,-0.353565 0.75594,-0.503753 0.13091,-0.07478 0.2851,-0.100516 0.41996,-0.167916 0.0354,-0.0177 0.084,-0.123549 0.084,-0.08396 0,0.131133 -0.42941,1.060678 -0.50395,1.259388 -0.022,0.0586 -0.12826,0.123674 -0.084,0.167918 0.0607,0.06065 0.75594,-0.369015 0.75594,-0.251878 0,0.31292 -0.27998,0.559726 -0.41996,0.839589 -0.0648,0.129564 -0.6223,1.32225 -0.67195,1.595218 -0.0554,0.304593 0.2167,0.319603 0.41997,0.251878 0.15486,-0.0516 0.29247,-0.149932 0.41996,-0.251878 0.0219,-0.01749 0.0198,-0.103741 0,-0.08396 -0.27934,0.279231 -0.5481,0.89689 -0.67194,1.175425 -0.23907,0.537694 -0.44896,1.085075 0.084,1.51126 0.25429,0.203348 0.0904,-0.02585 0.41997,0.08396 0.0266,0.0088 -0.0198,0.06417 0,0.08396 0.0911,0.09107 0.50601,0.114612 0.41996,0.587711 -0.0623,0.342749 -0.86146,1.614006 -0.58795,1.763136 0.94677,0.516207 0.94454,-0.251873 1.67986,-0.251873 0.15072,0 -0.112,0.27986 -0.16799,0.419793 -1e-5,1.3e-5 -0.33597,1.007496 -0.33597,1.007507 -0.0594,0.297101 -0.0463,0.621861 -0.084,0.923544 -0.0286,0.229005 -0.16799,0.440886 -0.16799,0.671674 0,0.19091 0.35764,0.02167 0.41996,0.08396 0.028,0.02798 -0.0643,0.04959 -0.084,0.08395 -0.0932,0.163002 -0.16294,0.33846 -0.25198,0.503756 -0.41446,0.769403 -0.48458,0.581181 -0.41996,1.679178 0.0196,0.33251 0.47739,0.415512 0.41996,0.587714 -0.27085,0.812242 -0.84449,1.633556 -0.75593,2.518767 0.0162,0.162393 0.0992,0.477078 0.25198,0.419793 0.18902,-0.07085 0.33856,-0.220104 0.50395,-0.335838 0.11468,-0.08024 0.41993,-0.139883 0.33597,-0.251873 -0.15479,-0.206483 -0.43303,0.339585 -0.50395,0.587711 -0.08,0.279874 0.11064,0.251873 -0.084,0.251873"
       id="path555" />
    <path
       style="fill:#000000;fill-opacity:0;stroke:#ff00ff;stroke-width:0.7;stroke-linecap:round;stroke-linejoin:round"
       d="m 128.87387,68.366962 c 0.028,0.13993 0.0958,0.277582 0.084,0.419793 0,5.8e-5 -0.33596,1.175369 -0.33597,1.175425 -0.0443,0.22125 -0.0497,0.448662 -0.084,0.671671 -0.0301,0.195593 -0.17252,0.410723 -0.084,0.587711 0.0676,0.135062 0.64839,-0.455115 1.00792,0.08396 0.27164,0.407281 -0.75593,2.071859 -0.75593,2.77064 0,0.812072 0.88228,0.170106 0.92392,0.419796 0.0828,0.496892 -0.0502,1.01001 0,1.51126 0.0318,0.317516 0.18937,0.610645 0.25198,0.923547 0.0622,0.310613 0.0243,0.625059 0.084,0.923549 0.0394,0.197128 0.25198,0.553929 0.25198,0.755629 0,0.03959 -0.0715,0.04641 -0.084,0.08396 -0.0266,0.07965 0.0376,0.176789 0,0.251878 -0.2212,0.44224 -0.92392,1.007557 -0.92392,1.511258 0,0.31102 0.67195,-0.01648 0.67195,0.503753 0,0.170238 -0.0699,0.334108 -0.084,0.503756 -0.0418,0.501581 -0.13806,1.192755 -0.084,1.679173 0.0128,0.114689 0.002,0.254262 0.084,0.335841 0.0198,0.01979 0.0642,-0.01979 0.084,0 0.0792,0.07914 -0.0139,0.224753 0,0.335833 0.0479,0.383193 0.15982,0.806998 0.25197,1.175427 0.0152,0.06071 0.084,0.105333 0.084,0.167918 0,0.177006 -0.112,0.335833 -0.16799,0.503751"
       id="path557" />
    <path
       style="fill:#000000;fill-opacity:0;stroke:#ff00ff;stroke-width:0.7;stroke-linecap:round;stroke-linejoin:round"
       d="m 103.42402,118.84673 c 0.35814,-0.9248 -0.34109,-2.05906 -1.00791,-0.50376 -0.1247,0.29085 -0.24507,0.92547 -0.16799,1.25938 0.0926,0.40095 0.56643,1.09864 1.09191,0.92355 0.29427,-0.098 0.42913,-1.01814 0.41997,-1.09146 -0.028,-0.22392 -0.22975,-0.38862 -0.33598,-0.58771 -0.11957,-0.22411 -0.24828,-0.83959 -0.67194,-0.83959 -0.86191,0 -0.37526,1.2637 -0.16798,1.59521 5.2e-4,0.001 0.26449,0.29951 0.33597,0.25188 0.36357,-0.24228 -0.25763,-1.69608 0,-0.92354"
       id="path559" />
    <path
       style="fill:#000000;fill-opacity:0;stroke:#ff00ff;stroke-width:0.7;stroke-linecap:round;stroke-linejoin:round"
       d="m 109.89148,117.75526 c -0.39281,-0.44874 -0.49119,-0.78955 -1.09191,-0.83959 -0.16971,-0.0141 -0.3364,0.0535 -0.50396,0.084 -0.14046,0.0255 -0.29226,0.0201 -0.41996,0.084 -0.88442,0.44203 -0.0477,2.75439 0.83993,2.01501 0.13503,-0.11248 0.0879,-0.73007 0.084,-0.75563 -0.031,-0.20138 -0.0704,-0.40886 -0.16799,-0.58771 -0.23729,-0.43487 -0.86685,-0.60887 -1.09191,-0.084 -0.0594,0.13853 -0.17684,0.26934 -0.16798,0.4198 0.0203,0.34558 0.0971,0.6979 0.25198,1.0075 0.16837,0.33661 0.71471,0.43048 1.00791,0.50375 0.44107,0.11023 0.58795,0.12036 0.58795,-0.33583"
       id="path561" />
    <path
       style="fill:#000000;fill-opacity:0;stroke:#ff00ff;stroke-width:0.7;stroke-linecap:round;stroke-linejoin:round"
       d="m 108.04363,123.72029 c -0.16798,0.2239 -0.38809,0.41688 -0.50396,0.67168 -0.0366,0.0806 0.056,0.16791 0.084,0.25187 0.028,0.084 0.0287,0.18278 0.084,0.25188 0.10411,0.13008 1.00858,0.54341 1.09191,0.25187 0.20273,-0.70927 -0.9902,-1.34794 -1.1759,-0.41979 -0.12271,0.61328 0.19053,1.41665 0.92392,1.34334 0.94417,-0.0944 0.83449,-1.76611 -0.084,-2.26689 -0.66339,-0.3617 -0.56517,0.35863 -0.25197,0.67167"
       id="path563" />
    <path
       style="fill:#000000;fill-opacity:0;stroke:#ff00ff;stroke-width:0.7;stroke-linecap:round;stroke-linejoin:round"
       d="m 102.41611,124.64384 c 0.13998,0.27986 0.24633,0.57925 0.41996,0.83959 0.30157,0.45216 0.75594,0.13661 0.75594,-0.33584 0,-0.47064 -0.45395,-0.96497 -0.83993,-1.17542 -0.007,-0.004 -0.66065,-0.43673 -0.83993,-0.16792 -0.43325,0.6496 0.79987,1.77975 1.1759,1.51126 0.14586,-0.10415 0.2888,-0.24689 0.33597,-0.41979 0.0818,-0.29982 -0.28701,-1.21442 -0.58795,-1.34334 -0.62505,-0.26778 -0.47978,0.92405 -0.41996,1.09146 0.0759,0.2125 0.22398,0.39181 0.33597,0.58771"
       id="path565" />
    <path
       style="fill:#000000;fill-opacity:0;stroke:#ff00ff;stroke-width:0.7;stroke-linecap:round;stroke-linejoin:round"
       d="m 124.25426,123.63633 c -0.09,0.0183 0.14037,-1.0075 -0.16799,-1.0075 -0.45885,0 -0.44708,1.99581 -0.41996,2.26689 0.0121,0.12137 0.11936,0.49403 0.16799,0.50375 0.64341,0.12864 1.19169,-1.23833 0.92392,-1.59522 -0.10627,-0.14163 -0.39979,-0.31109 -0.50396,-0.16792 -0.21657,0.29766 -0.16799,0.72336 -0.16799,1.09147 0,0.14806 0.7775,-0.20023 0.92393,-0.41979 0.52113,-0.7814 0.30278,-0.94827 -0.25198,-1.59522"
       id="path567" />
    <path
       style="fill:#000000;fill-opacity:0;stroke:#ff00ff;stroke-width:0.7;stroke-linecap:round;stroke-linejoin:round"
       d="m 123.24634,118.68276 c 0.0293,0.0126 0.62523,0.35918 0.83993,0.25188 0.35854,-0.1792 -0.0386,-1.42958 -0.41996,-1.17543 -0.73704,0.49116 -0.52252,2.50836 0.58795,2.01502 0.78884,-0.35046 1.10093,-1.24316 0.67194,-2.01502 -0.0577,-0.1038 -0.14077,-0.21019 -0.25197,-0.25187 -0.76952,-0.28846 -1.08423,1.1068 -0.83993,1.59521"
       id="path569" />
    <path
       style="fill:#000000;fill-opacity:0;stroke:#ff00ff;stroke-width:0.7;stroke-linecap:round;stroke-linejoin:round"
       d="m 130.38574,118.01109 c -0.36224,-0.40246 -0.71595,-0.78228 -1.25989,-0.4198 -0.38206,0.25461 -0.77857,0.50401 -1.09191,0.83959 -0.66445,0.71163 1.15941,1.29836 1.59587,1.00751 0.3958,-0.26377 0.10468,-1.21488 -0.084,-1.51126 -0.12788,-0.20087 -0.72508,-0.68195 -0.75593,-0.67167 -0.44757,0.14912 0.0763,2.01501 0.67194,2.01501 0.028,0 0.52853,-0.12832 0.58795,-0.16792 0.20918,-0.13939 -0.29646,-0.88897 -0.41996,-0.83959 -0.31947,0.12774 -0.31634,1.70557 -0.25199,1.8471 0.0591,0.12995 0.27998,0.056 0.41997,0.084"
       id="path571" />
    <path
       style="fill:#000000;fill-opacity:0;stroke:#ff00ff;stroke-width:0.7;stroke-linecap:round;stroke-linejoin:round"
       d="m 130.21776,124.7278 c -0.35646,-0.53448 -0.18581,-0.63954 -0.67195,-0.33583 -0.8211,0.51298 -0.49841,1.77275 -0.084,1.59521 0.14555,-0.0623 0.25448,-0.20007 0.33597,-0.33583 0.50118,-0.83497 0.54948,-0.86204 0.16799,-1.67918 -0.0854,-0.18289 -0.19323,-0.36106 -0.33597,-0.50375 -0.37435,-0.3742 -1.07047,1.51371 -0.16799,1.17542 0.76665,-0.28737 0.68832,-1.37406 0,-1.25938 -0.36396,0.0606 -0.67194,1.3401 -0.67194,1.67917"
       id="path573" />
    <path
       style="fill:#000000;fill-opacity:0;stroke:#000000;stroke-width:0.7;stroke-linecap:round;stroke-linejoin:round;stroke-opacity:1"
       d="m 130.10548,46.023469 c -0.22957,-0.494527 0.17625,-0.952267 0.5176,-1.293476 0.30331,-0.303188 0.62158,-0.603177 0.99206,-0.819202 1.64353,-0.958337 3.6125,-1.166428 5.4348,-1.552169 1.12916,-0.23902 1.82729,-0.353537 2.8468,-0.776086 0.22577,-0.09358 0.43133,-0.229951 0.647,-0.344926"
       id="path1834" />
    <path
       style="fill:#000000;fill-opacity:0;stroke:#000000;stroke-width:0.7;stroke-linecap:round;stroke-linejoin:round;stroke-opacity:1"
       d="m 137.52441,40.332177 c 1.26524,0.114975 2.52751,0.269616 3.79573,0.344926 0.18877,0.01121 0.3724,-0.103345 0.56073,-0.08623 0.0516,0.0047 -0.0443,0.09887 -0.0863,0.129346 -0.27737,0.201644 -0.56286,0.394021 -0.86266,0.560507 -1.20197,0.667491 -1.76494,0.907409 -2.88993,1.422823"
       id="path1836" />
    <path
       style="fill:#000000;fill-opacity:0;stroke:#000000;stroke-width:0.7;stroke-linecap:round;stroke-linejoin:round;stroke-opacity:1"
       d="m 143.218,41.884348 c 0.0575,-0.129348 0.12147,-0.25602 0.17254,-0.388043 0.36595,-0.946056 0.71316,-1.899289 1.07833,-2.845647 0.0231,-0.05997 0.0253,-0.152144 0.0863,-0.172463 0.0431,-0.01437 0.0462,0.084 0.0431,0.129347 -0.0116,0.174457 -0.0489,0.346589 -0.0863,0.517391 -0.21931,1.002146 -0.63383,1.917583 -0.94893,2.888761 -0.0659,0.203226 -0.27809,0.799923 -0.1294,0.948549 0.26975,0.269639 1.10496,-0.398051 1.33713,-0.560506"
       id="path1838" />
    <path
       style="fill:#000000;fill-opacity:0;stroke:#000000;stroke-width:0.7;stroke-linecap:round;stroke-linejoin:round;stroke-opacity:1"
       d="m 144.98647,41.625651 c 0.31195,0.02399 1.24301,0.124408 1.6822,0.08623 0.18987,-0.0165 0.52507,-0.04977 0.647,-0.258695 0.215,-0.368422 0.01,-0.961974 -0.3882,-1.121012 -0.33383,-0.133477 -0.76939,0.215478 -0.94894,0.388041 -0.20726,0.199214 -0.40431,0.425634 -0.51759,0.689854 -0.72738,1.696527 1.46957,1.205725 2.24292,0.819202"
       id="path1840" />
    <path
       style="fill:#000000;fill-opacity:0;stroke:#000000;stroke-width:0.7;stroke-linecap:round;stroke-linejoin:round;stroke-opacity:1"
       d="m 148.7822,41.151377 c 0.0144,-0.229951 0.27308,-0.675477 0.0431,-0.689854 -0.36106,-0.02257 0.0251,0.792867 0.1294,1.293476 0.0295,0.141399 0.005,0.291815 0.0431,0.431159 0.008,0.03101 0.0595,0.06094 0.0863,0.04312 0.0766,-0.05104 0.12374,-0.137539 0.17253,-0.21558 0.0955,-0.152704 0.17824,-0.313203 0.25881,-0.474274 0.18601,-0.371886 0.25901,-0.732969 0.73326,-0.732969"
       id="path1842" />
    <path
       style="fill:#000000;fill-opacity:0;stroke:#000000;stroke-width:0.7;stroke-linecap:round;stroke-linejoin:round;stroke-opacity:1"
       d="m 151.06826,38.478195 c 0.12941,1.006037 0.23301,2.015728 0.38821,3.01811 0.032,0.2068 0.12175,0.400609 0.17253,0.603621 0.0212,0.08481 0.004,0.180509 0.0431,0.258696 0.0144,0.02874 0.0431,-0.05409 0.0431,-0.08623 0,-0.144437 -0.0311,-0.287221 -0.0431,-0.431159 -0.0276,-0.331329 -0.12737,-1.523875 0.3882,-1.638402 0.0716,-0.0159 0.15009,0.01034 0.21567,0.04312 0.38286,0.191354 0.36389,0.632111 0.43133,0.991666 0.0786,0.419249 0.0458,0.232441 0.17254,0.517389 0.002,0.0033 0.11316,0.2964 0.1294,0.301811 0.17921,0.05971 0.42053,-0.0768 0.56072,-0.129347"
       id="path1844" />
    <path
       style="fill:#000000;fill-opacity:0;stroke:#000000;stroke-width:0.7;stroke-linecap:round;stroke-linejoin:round;stroke-opacity:1"
       d="m 154.82086,41.323841 c 0.64425,0.263979 1.07569,0.594891 1.1646,-0.560506 0.013,-0.168771 -0.48518,-0.466365 -0.60386,-0.474274 -0.10925,-0.0073 -0.21781,0.05927 -0.30194,0.129347 -0.32378,0.269709 -0.2218,0.498598 -0.2588,0.905433 -0.0105,0.115395 -0.0504,0.229282 -0.0431,0.344927 0.0566,0.905741 0.6215,0.442059 0.9058,0 0.0575,-0.114976 0.11502,-0.229952 0.17253,-0.344927 0.0144,-0.07186 0.0103,-0.150038 0.0431,-0.21558 0.009,-0.01818 0.0431,0.02279 0.0431,0.04312 0,0.115871 -0.0431,0.229056 -0.0431,0.344928 0,0.285467 0.0599,0.450107 0.34507,0.603621 0.15724,0.08463 0.47608,-0.07092 0.56073,-0.172463 0.0786,-0.09432 0.0863,-0.229952 0.1294,-0.344927"
       id="path1846" />
    <path
       style="fill:#000000;fill-opacity:0;stroke:#000000;stroke-width:0.7;stroke-linecap:round;stroke-linejoin:round;stroke-opacity:1"
       d="m 149.60684,45.894121 c 0.0144,-0.531762 0.0136,-1.06415 0.0431,-1.595287 0.0137,-0.24563 0.0581,-0.488582 0.0863,-0.732969 0.0149,-0.129286 0.0149,-0.261 0.0431,-0.388043 0.003,-0.01403 0.0412,-0.01425 0.0431,0 0.14205,1.065002 -0.10732,1.654952 -0.21567,2.716299 -0.25593,2.50714 0.29072,-0.819428 -0.1294,1.595286 -0.0126,0.0722 0.0179,0.174941 -0.0431,0.21558 -0.0431,0.02874 -0.0805,-0.07784 -0.0863,-0.129349 -0.0238,-0.214259 0,-0.431157 0,-0.646736"
       id="path1848" />
    <path
       style="fill:#000000;fill-opacity:0;stroke:#000000;stroke-width:0.7;stroke-linecap:round;stroke-linejoin:round;stroke-opacity:1"
       d="m 150.98711,44.816224 c -0.97094,0.901219 -1.15347,0.788619 -1.50967,1.76775 -0.0347,0.0955 -0.0652,0.202607 -0.0431,0.301811 0.0479,0.215476 1.0242,-0.04678 1.294,0.04312 0.45282,0.15088 0.22108,0.516778 0.2588,0.8192 0.003,0.02017 0.0288,-0.02874 0.0431,-0.04312 0.0431,-0.04312 0.0863,-0.08623 0.1294,-0.129349"
       id="path1850" />
    <path
       style="fill:#000000;fill-opacity:0;stroke:#000000;stroke-width:0.7;stroke-linecap:round;stroke-linejoin:round;stroke-opacity:1"
       d="m 152.10858,46.756438 c 0.89384,-0.01547 1.47204,0.257932 1.38026,-1.164128 -0.0235,-0.36437 -1.16957,-0.246389 -1.1646,0.04312 0.0128,0.742621 0.62142,1.489835 0.38646,2.194423 -0.15409,0.462083 -0.45009,-0.864166 -0.68839,-1.28899 -0.0379,-0.0675 0.0254,0.167772 0.0863,0.215579 0.15169,0.119137 0.33378,0.200234 0.5176,0.258695 0.13769,0.0438 0.28705,0.0351 0.43133,0.04312 0.39379,0.02187 0.64082,-0.05733 0.69013,-0.51739 0.0411,-0.383473 0.12396,-0.992859 -0.2588,-1.293476 -0.46033,-0.36154 -0.9953,0.530318 -1.07833,0.862317"
       id="path1852" />
    <path
       style="fill:#000000;fill-opacity:0;stroke:#000000;stroke-width:0.7;stroke-linecap:round;stroke-linejoin:round;stroke-opacity:1"
       d="m 154.86911,46.497743 c 0.0719,-0.201207 0.18665,-0.391936 0.21566,-0.603622 0.11554,-0.843107 0.15136,-1.695282 0.21567,-2.543835 0.008,-0.100316 0,-0.402414 0,-0.301811 0,0.804829 0,1.609658 0,2.414487 0,0.09198 -0.0595,1.357872 0.0863,1.625012 0.028,0.05123 0.13233,0.01258 0.17253,-0.02972 0.15653,-0.164769 0.2588,-0.373671 0.3882,-0.560506"
       id="path1854" />
    <path
       style="fill:#000000;fill-opacity:0;stroke:#000000;stroke-width:0.7;stroke-linecap:round;stroke-linejoin:round;stroke-opacity:1"
       d="m 156.98264,45.894121 c 0.17253,-0.962921 0.34506,-1.925842 0.5176,-2.888763 0.0144,-0.05749 0.001,-0.13057 0.0431,-0.172462 0.0305,-0.03048 0.004,0.08643 0,0.129347 -0.0247,0.259115 -0.0663,0.516564 -0.0863,0.776086 -0.0528,0.685476 -0.0705,2.526945 0.30194,3.147456 0.0331,0.05511 0.0707,-0.110105 0.0863,-0.172462"
       id="path1856" />
    <path
       style="fill:#000000;fill-opacity:0;stroke:#000000;stroke-width:0.7;stroke-linecap:round;stroke-linejoin:round;stroke-opacity:1"
       d="m 158.57857,45.549195 c 0.48884,-0.08623 0.9879,-0.127124 1.46653,-0.258697 0.74789,-0.205585 -0.10052,-1.310346 -0.69013,-0.8192 -0.18101,0.150779 -0.35362,0.577312 -0.3882,0.776085 -0.0496,0.285144 -0.0515,1.709062 0.5176,1.595286 0.20815,-0.04161 0.37382,-0.201207 0.56073,-0.30181"
       id="path1858" />
    <path
       style="fill:#000000;fill-opacity:0;stroke:#000000;stroke-width:0.7;stroke-linecap:round;stroke-linejoin:round;stroke-opacity:1"
       d="m 160.86464,45.161152 c 4.49239,-1.067983 0.0442,1.467008 0.51759,1.940212 0.0419,0.04189 0.0328,-0.114106 0.0431,-0.172462 0.0329,-0.186157 0.0437,-0.376316 0.0863,-0.560507 0.12238,-0.530091 0.4908,-1.682986 0.94894,-2.026445 0.16215,-0.121566 0.25241,0.233163 0.2588,0.258695 0.0199,0.07982 0.14176,1.078546 0.17253,1.121012 0.54151,0.747501 0.85099,0.941976 1.5528,0.474274"
       id="path1860" />
    <path
       style="fill:#000000;fill-opacity:0;stroke:#000000;stroke-width:0.7;stroke-linecap:round;stroke-linejoin:round;stroke-opacity:1"
       d="m 165.30737,42.660432 c 0.0863,1.121012 0.17253,2.242025 0.2588,3.363037 0,0.172463 -0.0108,0.345263 0,0.51739 0.004,0.05914 -0.01,0.198956 0.0431,0.172464 0.0656,-0.03276 0.02,-0.146059 0.0431,-0.21558 0.0777,-0.232988 0.15146,-0.468951 0.2588,-0.689853 0.13792,-0.283828 0.31597,-0.546336 0.47447,-0.819202 0.1003,-0.172665 0.19392,-0.349442 0.30193,-0.51739 0.022,-0.0342 0.0637,-0.05241 0.0863,-0.08623 0.008,-0.01196 0.003,-0.05706 0,-0.04312 -0.16686,0.667215 -0.54163,1.251719 -0.7764,1.897098 -0.0622,0.170846 -0.21,0.339494 -0.17253,0.51739 0.14283,0.678159 1.12294,0.08623 1.46653,0.08623 0.11896,0 0.0904,0.123233 0.17253,0.172464 0.14058,0.08432 0.32097,-0.07181 0.47447,-0.129348"
       id="path1862" />
    <path
       style="fill:#000000;fill-opacity:0;stroke:#000000;stroke-width:0.7;stroke-linecap:round;stroke-linejoin:round;stroke-opacity:1"
       d="m 168.11297,44.643762 c 0.0288,-0.07186 0.0767,-0.292381 0.0863,-0.21558 0.0375,0.299479 0.03,0.605121 0,0.905433 -0.0144,0.143858 -0.32606,1.117592 -0.1294,1.379708 0.1053,0.140345 0.23675,-0.268262 0.30194,-0.431159"
       id="path1864" />
    <path
       style="fill:#000000;fill-opacity:0;stroke:#000000;stroke-width:0.7;stroke-linecap:round;stroke-linejoin:round;stroke-opacity:1"
       d="m 168.93251,44.859341 c 0.14853,0.890869 0.006,-0.07813 -0.0431,2.069561 -7.9e-4,0.03213 0.0266,0.113787 0.0431,0.08623 0.0538,-0.08971 0.0562,-0.201594 0.0863,-0.30181 0.20319,-0.677005 0.3246,-1.583891 0.73327,-2.155794 0.10682,-0.149491 0.009,0.821008 0.21566,0.862318 0.49913,0.09979 0.95547,-1.079531 1.12147,-1.121013 0.0441,-0.01102 0.0469,0.08405 0.0431,0.129348 -0.011,0.132047 -0.0645,0.257342 -0.0863,0.388042 -0.0358,0.214527 -0.0527,0.431859 -0.0863,0.646738 -0.0554,0.354348 -0.22263,0.868712 -0.0863,1.250361 0.0216,0.06055 0.12053,0.124037 0.17253,0.08623 0.0307,-0.02229 0.29349,-0.418498 0.3882,-0.560506"
       id="path1866" />
    <path
       style="fill:#000000;fill-opacity:0;stroke:#000000;stroke-width:0.7;stroke-linecap:round;stroke-linejoin:round;stroke-opacity:1"
       d="m 168.3751,43.479633 c -0.84964,-0.06585 0.11703,-0.160135 0.43134,-0.215578"
       id="path1868" />
    <path
       style="fill:#000000;fill-opacity:0;stroke:#000000;stroke-width:0.7;stroke-linecap:round;stroke-linejoin:round;stroke-opacity:1"
       d="m 173.76677,45.937236 c 0.0937,-0.468182 0.16149,-0.634171 -0.25881,-1.250359 -0.0668,-0.09794 -0.23901,0.03323 -0.34506,0.08623 -0.70845,0.354079 -1.13209,1.251396 -0.47447,1.853981 0.80938,0.741628 1.28041,-0.565212 1.38027,-1.164128 0.0214,-0.128372 0.0313,-0.258433 0.0431,-0.388043 0.003,-0.02862 0,-0.114975 0,-0.08623 0,0.04312 0,0.08623 0,0.129348 0,0.322052 -0.0209,1.016691 0.0431,1.379707 0.0112,0.0633 0.0245,0.154811 0.0863,0.172463 0.20065,0.0573 0.3668,-0.280415 0.47447,-0.388042"
       id="path1870" />
    <path
       style="fill:#000000;fill-opacity:0;stroke:#000000;stroke-width:0.7;stroke-linecap:round;stroke-linejoin:round;stroke-opacity:1"
       d="m 175.92343,44.514414 c -0.41511,0.118554 -0.77928,0.114611 -0.17253,0.948548 0.0511,0.07021 0.82316,0.07464 1.0352,0.172464 0.0584,0.02693 0.10021,0.109717 0.0863,0.172464 -0.0839,0.377503 -1.0041,0.585069 -1.25086,0.646736 -0.18347,0.04585 -0.3742,0.05516 -0.56074,0.08623 -0.0723,0.01205 -0.26751,0.09494 -0.21566,0.04312 0.035,-0.03498 0.35314,-0.109809 0.43133,-0.129348"
       id="path1872" />
    <path
       style="fill:#000000;fill-opacity:0;stroke:#000000;stroke-width:0.7;stroke-linecap:round;stroke-linejoin:round;stroke-opacity:1"
       d="m 177.64876,44.514414 c 0.0227,0.404604 -0.57855,2.462768 -0.0863,1.724634"
       id="path1874" />
    <path
       style="fill:#000000;fill-opacity:0;stroke:#000000;stroke-width:0.7;stroke-linecap:round;stroke-linejoin:round;stroke-opacity:1"
       d="m 136.53109,103.717 c -0.0863,0 -0.21748,0.0757 -0.2588,0 -0.28121,-0.51536 0.74173,-2.18724 0.94894,-2.50072 0.29486,-0.4461 0.58584,-0.9009 0.94893,-1.293475 0.3462,-0.374311 0.75438,-0.688859 1.1646,-0.991664 1.22785,-0.906356 2.53826,-1.582772 3.92513,-2.198909"
       id="path1882" />
    <path
       style="fill:#000000;fill-opacity:0;stroke:#000000;stroke-width:0.7;stroke-linecap:round;stroke-linejoin:round;stroke-opacity:1"
       d="m 141.83649,95.697451 c 0.87704,-0.01437 1.75435,-0.01733 2.63113,-0.04312 0.10162,-0.003 0.24553,-0.127696 0.30194,-0.04311 0.0511,0.07658 -0.1462,0.112078 -0.21567,0.172463 -0.5217,0.45347 -1.38138,1.204283 -1.76847,1.724634 -0.36424,0.489646 -0.34973,0.464942 -0.21567,0.732967"
       id="path1884" />
    <path
       style="fill:#000000;fill-opacity:0;stroke:#000000;stroke-width:0.7;stroke-linecap:round;stroke-linejoin:round;stroke-opacity:1"
       d="m 145.76162,97.594551 c 0.13879,-1.526003 0.26159,-2.866067 0.3882,-4.527166 0.012,-0.157634 -0.0175,-0.317151 0,-0.474274 0.004,-0.03194 0.0406,0.0542 0.0431,0.08623 0.0264,0.329814 0.0431,0.660797 0.0431,0.991664 0,0.330869 -0.0137,0.662112 -0.0431,0.991666 -0.13797,1.544704 -0.17275,0.997535 -0.21566,2.112677 -0.006,0.143613 -0.0566,0.299069 0,0.43116 0.024,0.05605 0.0994,-0.07626 0.1294,-0.12935 0.15819,-0.279765 0.29405,-0.571719 0.43133,-0.862316 0.0427,-0.09048 0.73351,-1.508816 0.69013,-1.552171 -0.0273,-0.02726 -0.47719,0.797058 -0.5176,0.862317 -0.24513,0.395817 -1.12393,1.549707 -0.647,2.026444 0.33829,0.338153 1.26553,-0.474274 1.6822,-0.474274"
       id="path1886" />
    <path
       style="fill:#000000;fill-opacity:0;stroke:#000000;stroke-width:0.7;stroke-linecap:round;stroke-linejoin:round;stroke-opacity:1"
       d="m 148.69468,96.602885 c 0.56074,0.186835 1.09231,0.523652 1.6822,0.560506 0.45631,0.02851 0.76556,-1.464482 0,-1.638403 -1.02522,-0.23291 -2.92258,1.251826 -1.94099,2.026444 0.99571,0.785773 2.83871,-0.586132 1.59592,-1.207244"
       id="path1888" />
    <path
       style="fill:#000000;fill-opacity:0;stroke:#000000;stroke-width:0.7;stroke-linecap:round;stroke-linejoin:round;stroke-opacity:1"
       d="m 148.99662,94.317745 c 0.57469,0.05222 0.31566,0.04312 0.7764,0.04312"
       id="path1890" />
    <path
       style="fill:#000000;fill-opacity:0;stroke:#000000;stroke-width:0.7;stroke-linecap:round;stroke-linejoin:round;stroke-opacity:1"
       d="m 150.20435,94.188398 c 0.0719,-0.01437 0.14378,-0.02875 0.21567,-0.04312"
       id="path1892" />
    <path
       style="fill:#000000;fill-opacity:0;stroke:#000000;stroke-width:0.7;stroke-linecap:round;stroke-linejoin:round;stroke-opacity:1"
       d="m 153.48248,94.576438 c 0.0969,-0.980313 -1.57756,0.459108 -1.33713,0.905434 0.20952,0.388966 1.46653,0.443984 1.46653,0.819203 0,0.560583 -1.61365,1.117364 -2.02727,1.207243 -0.0983,0.02138 -0.26454,0.09344 -0.30193,0 -0.0378,-0.09437 0.13628,-0.152098 0.21567,-0.21558 0.13705,-0.109593 0.28755,-0.201208 0.43133,-0.30181"
       id="path1894" />
    <path
       style="fill:#000000;fill-opacity:0;stroke:#000000;stroke-width:0.7;stroke-linecap:round;stroke-linejoin:round;stroke-opacity:1"
       d="m 152.27475,96.990928 c -0.16487,0.988785 -0.33925,0.618765 0.3882,1.164127"
       id="path1896" />
    <path
       style="fill:#000000;fill-opacity:0;stroke:#000000;stroke-width:0.7;stroke-linecap:round;stroke-linejoin:round;stroke-opacity:1"
       d="m 154.04321,96.171725 c 0.10065,0.143719 0.12654,0.426421 0.30194,0.43116 0.45014,0.01217 0.90782,-0.156427 1.294,-0.388043 0.23461,-0.140709 0.41352,-1.132261 0,-1.25036 -0.13115,-0.03746 -0.26868,0.06364 -0.38821,0.129349 -0.17134,0.0942 -0.32858,0.214728 -0.47446,0.344927 -0.25784,0.230118 -0.59021,0.418372 -0.73327,0.732967 -0.18224,0.40077 0.32469,1.599361 0.99207,1.46594 0.50217,-0.100394 0.62922,-0.452506 0.86266,-0.8192"
       id="path1898" />
    <path
       style="fill:#000000;fill-opacity:0;stroke:#000000;stroke-width:0.7;stroke-linecap:round;stroke-linejoin:round;stroke-opacity:1"
       d="m 150.37688,101.51809 c -0.1294,-1.02041 -0.28186,-2.038155 -0.3882,-3.061225 -0.009,-0.08695 -0.005,-0.185962 0.0431,-0.258694 0.0252,-0.03781 0.0399,0.08401 0.0431,0.129347 0.0256,0.358672 0.0358,0.718386 0.0431,1.077897 0.017,0.833405 0.016,1.667305 0,2.500715 -0.002,0.12991 -0.044,1.66316 -0.17254,1.68152 -0.13775,0.0197 -0.285,-0.22175 -0.34507,-0.30181"
       id="path1900" />
    <path
       style="fill:#000000;fill-opacity:0;stroke:#000000;stroke-width:0.7;stroke-linecap:round;stroke-linejoin:round;stroke-opacity:1"
       d="m 151.23955,99.879691 c -0.5176,0.876689 -1.06343,1.737319 -1.5528,2.630069 -0.0976,0.17802 -0.38989,0.87993 0.1294,0.5605 0.37519,-0.23079 0.57215,-0.63415 1.07834,-0.51739 0.0817,0.0188 0.1615,0.0654 0.21566,0.12935 0.14997,0.17716 0.35138,0.57386 0.3882,0.8192 0.0266,0.17703 -0.13965,1.13002 0.43133,0.73297 0.25036,-0.17409 0.43134,-0.43116 0.647,-0.64674"
       id="path1902" />
    <path
       style="fill:#000000;fill-opacity:0;stroke:#000000;stroke-width:0.7;stroke-linecap:round;stroke-linejoin:round;stroke-opacity:1"
       d="m 152.96488,102.29418 c -0.20588,0.9261 -0.3106,0.79298 1.72533,1.07789 0.17142,0.024 0.2776,-0.22864 0.34507,-0.38804 0.23854,-0.56359 0.19669,-0.86255 -0.21567,-1.29348 -0.17099,-0.17869 -0.37164,-0.34604 -0.60386,-0.43115 -0.21641,-0.0793 -0.46384,-0.0869 -0.69013,-0.0431 -0.23365,0.0452 -0.47515,0.13719 -0.647,0.30181 -0.98974,0.94811 0.0255,2.51042 1.29399,1.81087 0.4235,-0.23356 1.11639,-1.28105 0.1294,-1.37971 -0.28268,-0.0283 -1.02034,0.23937 -1.33713,0.34493 z"
       id="path1904" />
    <path
       style="fill:#000000;fill-opacity:0;stroke:#000000;stroke-width:0.7;stroke-linecap:round;stroke-linejoin:round;stroke-opacity:1"
       d="m 155.68785,101.43186 c 0.14111,-0.70504 0.0712,-1.445584 0.1294,-2.155795 0.0367,-0.447722 0.10244,-0.892865 0.17253,-1.33659 0.027,-0.170942 -0.0365,0.344458 -0.0431,0.51739 -0.0518,1.34706 -0.19326,2.844525 0.30194,4.139125 0.0132,0.0346 0.29048,0.79897 0.51759,0.34492 0.045,-0.09 0,-0.2012 0,-0.30181"
       id="path1906" />
    <path
       style="fill:#000000;fill-opacity:0;stroke:#000000;stroke-width:0.7;stroke-linecap:round;stroke-linejoin:round;stroke-opacity:1"
       d="m 157.62885,102.25106 c 0.22513,-1.35032 0.0763,-0.35711 -0.0431,-3.621732 -0.002,-0.05922 -0.0348,-0.231124 -0.0431,-0.172463 -0.0223,0.156501 0.004,0.316235 0,0.474276 -0.008,0.296191 -0.0899,2.371259 -0.0863,2.586949 0.006,0.36116 0.0414,1.37619 0.2588,1.81087 0.0375,0.075 0.14378,0.0862 0.21567,0.12934"
       id="path1908" />
    <path
       style="fill:#000000;fill-opacity:0;stroke:#000000;stroke-width:0.7;stroke-linecap:round;stroke-linejoin:round;stroke-opacity:1"
       d="m 158.14645,101.34563 c 0.018,0.018 0.61243,0.68323 0.7764,0.60362 0.44044,-0.21384 0.83564,-0.55104 1.12147,-0.94855 0.14645,-0.20368 -0.29275,-0.64656 -0.43134,-0.68985 -0.44836,-0.14006 -0.84861,0.38713 -0.99206,0.68985 -0.16156,0.34092 -0.27604,0.70701 -0.34507,1.0779 -0.0982,0.52742 0.0502,1.77346 0.9058,1.59528 0.23219,-0.0483 0.43357,-0.26092 0.60387,-0.43115"
       id="path1910" />
    <path
       style="fill:#000000;fill-opacity:0;stroke:#000000;stroke-width:0.7;stroke-linecap:round;stroke-linejoin:round;stroke-opacity:1"
       d="m 160.47565,102.03548 c 0,0.48433 -0.0168,0.66383 0.2588,1.29348 0.0522,0.11922 0.0431,-0.2579 0.0431,-0.38805 0,-0.17306 -0.0431,-0.34432 -0.0431,-0.51739 0,-0.78615 0.1583,-1.54825 0.43133,-2.28514 0.0635,-0.171252 0.24493,-0.508665 0.3882,-0.301808 0.15338,0.221458 0.26961,1.158848 0.30194,1.336588 0.13183,0.72481 0.13317,0.70118 0.3882,1.46594 0.15519,0.46541 0.22621,0.49981 0.47446,0.0862"
       id="path1912" />
    <path
       style="fill:#000000;fill-opacity:0;stroke:#000000;stroke-width:0.7;stroke-linecap:round;stroke-linejoin:round;stroke-opacity:1"
       d="m 163.75378,97.077158 c 0.0575,0.129347 0.14181,0.24986 0.17253,0.388043 0.40394,1.816971 0.0752,3.431839 0.2588,5.389479 0.01,0.10422 0.23983,-0.002 0.30194,-0.0862 0.12307,-0.16696 0.33743,-0.83942 0.43133,-1.12101"
       id="path1914" />
    <path
       style="fill:#000000;fill-opacity:0;stroke:#000000;stroke-width:0.7;stroke-linecap:round;stroke-linejoin:round;stroke-opacity:1"
       d="m 165.30658,100.31085 c 0,-1.063291 0.0624,-1.176924 -1.33714,1.72463 -0.0558,0.11579 0.086,0.24982 0.17254,0.34493 0.16726,0.18391 0.51429,0.15124 0.73327,0.12935 0.0729,-0.007 0.14423,-0.0596 0.21566,-0.0431 0.1253,0.0289 0.25783,0.078 0.34507,0.17246 0.30137,0.32635 0.15515,0.94855 0.81953,0.94855 0.1416,0 0.27829,-0.0832 0.3882,-0.17246 0.12722,-0.10333 0.20129,-0.2587 0.30194,-0.38804"
       id="path1916" />
    <path
       style="fill:#000000;fill-opacity:0;stroke:#000000;stroke-width:0.7;stroke-linecap:round;stroke-linejoin:round;stroke-opacity:1"
       d="m 166.98878,99.448531 c 0.14494,0.544288 0.41398,3.915059 0.9058,2.931879"
       id="path1918" />
    <path
       style="fill:#000000;fill-opacity:0;stroke:#000000;stroke-width:0.7;stroke-linecap:round;stroke-linejoin:round;stroke-opacity:1"
       d="m 165.99671,97.422085 c 0.10065,0.02874 0.20129,0.05749 0.30193,0.08623"
       id="path1920" />
    <path
       style="fill:#000000;fill-opacity:0;stroke:#000000;stroke-width:0.7;stroke-linecap:round;stroke-linejoin:round;stroke-opacity:1"
       d="m 168.37589,99.836572 c 0.18691,0.517388 0.40664,1.024078 0.56073,1.552168 0.0485,0.16614 0.0323,0.34467 0.0431,0.51739 0.004,0.0574 -0.0407,0.13183 0,0.17247 0.0288,0.0287 0.0722,-0.0481 0.0863,-0.0862 0.24648,-0.66874 0.33552,-1.37509 0.47447,-2.069565 0.0116,-0.05811 -0.01,-0.198956 0.0431,-0.172463 0.41963,0.209732 -0.17783,1.548388 0.647,1.465938 0.46684,-0.0467 0.99489,-0.87998 1.1646,-1.0779 0.0265,-0.0309 0.0734,-0.1248 0.0863,-0.0862 0.14191,0.42556 0.10775,1.31066 0.5176,1.6384 0.0561,0.0449 0.14377,0 0.21566,0"
       id="path1922" />
    <path
       style="fill:#000000;fill-opacity:0;stroke:#000000;stroke-width:0.7;stroke-linecap:round;stroke-linejoin:round;stroke-opacity:1"
       d="m 173.16369,100.69889 c 0.22784,0.91104 0.18987,1.64582 1.50966,-0.38804 0.20668,-0.318502 -0.75476,-0.951999 -1.20773,-0.689855 -0.42559,0.246295 -0.30193,0.699805 -0.30193,1.077895 0,0.35157 -0.12198,0.64971 0.30193,0.8192 0.43209,0.17277 0.6631,-0.46645 0.73326,-0.73297 0.0331,-0.12586 0.0323,-0.25835 0.0431,-0.38804 0.004,-0.043 0,-0.17246 0,-0.12935 0,0.86846 0.12268,1.05886 0.99207,0.73297"
       id="path1924" />
    <path
       style="fill:#000000;fill-opacity:0;stroke:#000000;stroke-width:0.7;stroke-linecap:round;stroke-linejoin:round;stroke-opacity:1"
       d="m 176.48495,99.103605 c -0.17253,0.258693 -0.41585,0.482253 -0.5176,0.776086 -0.18784,0.542419 0.93104,0.499939 1.12146,0.560499 0.46013,0.14635 0.70068,0.42063 0.30194,0.81921 -0.21949,0.2194 -0.62219,0.40939 -0.9058,0.51739 -0.006,0.002 -0.54945,0.15057 -0.647,0.21558 -0.0757,0.0504 0.17747,-0.0456 0.2588,-0.0862"
       id="path1926" />
    <path
       style="fill:#000000;fill-opacity:0;stroke:#000000;stroke-width:0.7;stroke-linecap:round;stroke-linejoin:round;stroke-opacity:1"
       d="m 178.51221,98.931141 c 1.33703,-1.602592 -0.23121,2.588729 0.34507,1.724629"
       id="path1928" />
  </g>
</svg>
