<?xml version="1.0" encoding="UTF-8" standalone="no"?>
<!-- Created with Inkscape (http://www.inkscape.org/) -->

<svg
   width="72.460831mm"
   height="82.057289mm"
   viewBox="0 0 72.460831 82.057289"
   version="1.1"
   id="svg5"
   inkscape:version="1.1.2 (0a00cf5339, 2022-02-04)"
   sodipodi:docname="kök.svg"
   xmlns:inkscape="http://www.inkscape.org/namespaces/inkscape"
   xmlns:sodipodi="http://sodipodi.sourceforge.net/DTD/sodipodi-0.dtd"
   xmlns="http://www.w3.org/2000/svg"
   xmlns:svg="http://www.w3.org/2000/svg">
  <sodipodi:namedview
     id="namedview7"
     pagecolor="#ffffff"
     bordercolor="#999999"
     borderopacity="1"
     inkscape:pageshadow="0"
     inkscape:pageopacity="0"
     inkscape:pagecheckerboard="0"
     inkscape:document-units="mm"
     showgrid="true"
     inkscape:zoom="1.4040823"
     inkscape:cx="-21.010165"
     inkscape:cy="334.38211"
     inkscape:window-width="1916"
     inkscape:window-height="1033"
     inkscape:window-x="0"
     inkscape:window-y="23"
     inkscape:window-maximized="1"
     inkscape:current-layer="layer1">
    <inkscape:grid
       type="xygrid"
       id="grid824"
       originx="-62.520555"
       originy="-59.978509" />
  </sodipodi:namedview>
  <defs
     id="defs2" />
  <g
     inkscape:label="Layer 1"
     inkscape:groupmode="layer"
     id="layer1"
     transform="translate(-62.520555,-59.978509)">
    <path
       style="fill:#000000;fill-opacity:0;stroke:#000000;stroke-width:0.7;stroke-linecap:round;stroke-opacity:1"
       d="m 70.333655,74.371896 c 0,0 -1.464857,44.803834 2.523375,55.649354 3.988232,10.84553 6.906825,9.85035 6.906825,9.85035 0,0 2.369789,1.35988 6.183167,-9.3774 3.813377,-10.73727 2.207949,-55.649359 2.207949,-55.649359"
       id="path1937"
       sodipodi:nodetypes="czczc" />
    <path
       style="fill:#000000;fill-opacity:0;stroke:#000000;stroke-width:0.7;stroke-linecap:round;stroke-opacity:1"
       d="m 88.706043,83.558284 c 0.08558,0.25662 7.145842,-0.763577 6.848166,1.357765 -0.187429,1.335686 -6.987943,1.005452 -6.961359,1.244618"
       id="path2810"
       sodipodi:nodetypes="csc" />
    <path
       style="fill:#000000;fill-opacity:0;stroke:#000000;stroke-width:0.7;stroke-linecap:round;stroke-opacity:1"
       d="m 88.706043,86.386958 c 0.08558,0.25662 7.145842,-0.763577 6.848166,1.357765 -0.187429,1.335686 -6.987943,1.005452 -6.961359,1.244618"
       id="path3059"
       sodipodi:nodetypes="csc" />
    <path
       style="fill:#000000;fill-opacity:0;stroke:#000000;stroke-width:0.7;stroke-linecap:round;stroke-opacity:1"
       d="m 88.706043,89.328782 c 0.08558,0.25662 7.145842,-0.763577 6.848166,1.357765 -0.187429,1.335686 -6.987943,1.005452 -6.961359,1.244618"
       id="path3141"
       sodipodi:nodetypes="csc" />
    <path
       style="fill:#000000;fill-opacity:0;stroke:#000000;stroke-width:0.7;stroke-linecap:round;stroke-opacity:1"
       d="m 88.706043,92.157456 c 0.08558,0.25662 7.145842,-0.763577 6.848166,1.357765 -0.187429,1.335686 -6.987943,1.005452 -6.961359,1.244618"
       id="path3143"
       sodipodi:nodetypes="csc" />
    <path
       style="fill:#000000;fill-opacity:0;stroke:#000000;stroke-width:0.7;stroke-linecap:round;stroke-opacity:1"
       d="m 88.706043,95.042706 c 0.08558,0.25662 7.145842,-0.763577 6.848166,1.357765 -0.187429,1.335686 -6.987943,1.005452 -6.961359,1.244618"
       id="path3145"
       sodipodi:nodetypes="csc" />
    <path
       style="fill:#000000;fill-opacity:0;stroke:#000000;stroke-width:0.7;stroke-linecap:round;stroke-opacity:1"
       d="m 88.706043,97.87138 c 0.08558,0.25662 7.145842,-0.763577 6.848166,1.357765 -0.187429,1.335685 -6.987943,1.005455 -6.961359,1.244615"
       id="path3147"
       sodipodi:nodetypes="csc" />
    <path
       style="fill:#000000;fill-opacity:0;stroke:#000000;stroke-width:0.7;stroke-linecap:round;stroke-opacity:1"
       d="m 88.706043,100.8132 c 0.08558,0.25662 7.145842,-0.76357 6.848166,1.35777 -0.187429,1.33568 -6.987943,1.00545 -6.961359,1.24462"
       id="path3149"
       sodipodi:nodetypes="csc" />
    <path
       style="fill:#000000;fill-opacity:0;stroke:#000000;stroke-width:0.7;stroke-linecap:round;stroke-opacity:1"
       d="m 88.706043,103.64188 c 0.08558,0.25662 7.145842,-0.76358 6.848166,1.35776 -0.187429,1.33569 -6.987943,1.00545 -6.961359,1.24462"
       id="path3151"
       sodipodi:nodetypes="csc" />
    <path
       style="fill:#000000;fill-opacity:0;stroke:#000000;stroke-width:0.7;stroke-linecap:round;stroke-opacity:1"
       d="m 88.94757,106.73549 c 0.08558,0.25662 7.145842,-0.76358 6.848166,1.35777 -0.187429,1.33568 -6.987943,1.00545 -6.961359,1.24461"
       id="path3286"
       sodipodi:nodetypes="csc" />
    <path
       style="fill:#000000;fill-opacity:0;stroke:#000000;stroke-width:0.7;stroke-linecap:round;stroke-opacity:1"
       d="m 69.726535,83.558284 c -0.08558,0.25662 -7.145842,-0.763577 -6.848166,1.357765 0.187429,1.335686 6.987943,1.005452 6.961359,1.244618"
       id="path3789"
       sodipodi:nodetypes="csc" />
    <path
       style="fill:#000000;fill-opacity:0;stroke:#000000;stroke-width:0.7;stroke-linecap:round;stroke-opacity:1"
       d="m 69.726535,86.386958 c -0.08558,0.25662 -7.145842,-0.763577 -6.848166,1.357765 0.187429,1.335686 6.987943,1.005452 6.961359,1.244618"
       id="path3791"
       sodipodi:nodetypes="csc" />
    <path
       style="fill:#000000;fill-opacity:0;stroke:#000000;stroke-width:0.7;stroke-linecap:round;stroke-opacity:1"
       d="m 69.726535,89.328782 c -0.08558,0.25662 -7.145842,-0.763577 -6.848166,1.357765 0.187429,1.335686 6.987943,1.005452 6.961359,1.244618"
       id="path3793"
       sodipodi:nodetypes="csc" />
    <path
       style="fill:#000000;fill-opacity:0;stroke:#000000;stroke-width:0.7;stroke-linecap:round;stroke-opacity:1"
       d="m 69.726535,92.157456 c -0.08558,0.25662 -7.145842,-0.763577 -6.848166,1.357765 0.187429,1.335686 6.987943,1.005452 6.961359,1.244618"
       id="path3795"
       sodipodi:nodetypes="csc" />
    <path
       style="fill:#000000;fill-opacity:0;stroke:#000000;stroke-width:0.7;stroke-linecap:round;stroke-opacity:1"
       d="m 69.726535,95.042706 c -0.08558,0.25662 -7.145842,-0.763577 -6.848166,1.357765 0.187429,1.335686 6.987943,1.005452 6.961359,1.244618"
       id="path3797"
       sodipodi:nodetypes="csc" />
    <path
       style="fill:#000000;fill-opacity:0;stroke:#000000;stroke-width:0.7;stroke-linecap:round;stroke-opacity:1"
       d="m 69.726535,97.87138 c -0.08558,0.25662 -7.145842,-0.763577 -6.848166,1.357765 0.187429,1.335685 6.987943,1.005455 6.961359,1.244615"
       id="path3799"
       sodipodi:nodetypes="csc" />
    <path
       style="fill:#000000;fill-opacity:0;stroke:#000000;stroke-width:0.7;stroke-linecap:round;stroke-opacity:1"
       d="m 69.726535,100.8132 c -0.08558,0.25662 -7.145842,-0.76357 -6.848166,1.35777 0.187429,1.33568 6.987943,1.00545 6.961359,1.24462"
       id="path3801"
       sodipodi:nodetypes="csc" />
    <path
       style="fill:#000000;fill-opacity:0;stroke:#000000;stroke-width:0.7;stroke-linecap:round;stroke-opacity:1"
       d="m 69.726535,103.64188 c -0.08558,0.25662 -7.145842,-0.76358 -6.848166,1.35776 0.187429,1.33569 6.987943,1.00545 6.961359,1.24462"
       id="path3803"
       sodipodi:nodetypes="csc" />
    <path
       style="fill:#000000;fill-opacity:0;stroke:#000000;stroke-width:0.7;stroke-linecap:round;stroke-opacity:1"
       d="m 70.014175,106.73549 c -0.08558,0.25662 -7.145842,-0.76358 -6.848166,1.35777 0.187429,1.33568 6.987943,1.00545 6.961359,1.24461"
       id="path3805"
       sodipodi:nodetypes="csc" />
    <path
       style="fill:#000000;fill-opacity:0;stroke:#000000;stroke-width:0.7;stroke-linecap:round;stroke-opacity:1"
       d="m 95.545282,83.940739 c 1.282149,-0.514519 2.556113,-1.062371 3.864432,-1.508932 2.873456,-0.980784 -0.118448,0.127392 1.509546,-0.482859"
       id="path3866" />
    <path
       style="fill:#000000;fill-opacity:0;stroke:#000000;stroke-width:0.7;stroke-linecap:round;stroke-opacity:1"
       d="m 99.772003,81.285018 c 0.221401,-0.04024 0.440657,-0.1465 0.664207,-0.120716 0.2537,0.02926 1.71087,0.423156 1.75106,0.905359 0.0637,0.764511 -2.445771,1.716529 -3.019083,1.931435"
       id="path3868" />
    <path
       style="fill:#000000;fill-opacity:0;stroke:#000000;stroke-width:0.7;stroke-linecap:round;stroke-opacity:1"
       d="m 103.03262,82.854307 c 0.12076,0.100594 0.21511,0.246618 0.36229,0.301786 0.36105,0.135343 1.16039,0.03674 1.44916,-0.120713 1.35676,-0.739749 0.037,-2.510449 -1.08687,-0.965719 -0.16488,0.22661 -0.2382,0.511741 -0.30191,0.784646 -0.0783,0.33537 -0.13351,0.681924 -0.12076,1.026073 0.0335,0.903096 0.84313,1.293196 1.56993,0.784648 0.53088,-0.37147 0.65433,-0.687734 0.9661,-1.207148"
       id="path3870" />
    <path
       style="fill:#000000;fill-opacity:0;stroke:#000000;stroke-width:0.7;stroke-linecap:round;stroke-opacity:1"
       d="m 106.414,82.311093 c 0.0403,0.160952 0.0823,0.321461 0.12076,0.482854 0.2243,0.941663 0.19972,0.705692 0.24153,1.750365 0.007,0.180927 0,0.362143 0,0.543216 0,0.04024 0.018,0.156699 0,0.120713 -0.27449,-0.548738 0.057,-1.717669 0.18114,-2.172861 0.0738,-0.270359 0.19312,-0.526381 0.30191,-0.784646 0.0672,-0.159523 0.20587,-0.566507 0.30191,-0.4225 0.22611,0.339016 0.17087,2.016083 0.60382,2.052146 0.65984,0.05496 1.01023,-0.971646 1.20763,-1.388219 0.15798,-0.333362 0.21328,-0.587515 0.30191,-0.543213 0.054,0.02698 0,0.120713 0,0.181073 0,0.428561 -0.0361,2.76086 0.54343,2.595361 0.51406,-0.146812 0.72434,-1.657985 0.78497,-2.112502 0.0162,-0.121309 0.0431,-0.240996 0.0604,-0.362146 0.003,-0.01992 0,-0.08048 0,-0.06036 0,1.0512 -0.0125,-0.744882 0.0604,0.784645 0.0235,0.494208 -0.14592,1.269196 0.0604,1.750362 0.19685,0.459134 0.3623,-1.025337 0.3623,-1.086429"
       id="path3872" />
    <path
       style="fill:#000000;fill-opacity:0;stroke:#000000;stroke-width:0.7;stroke-linecap:round;stroke-opacity:1"
       d="m 110.27843,81.224659 c 0.20127,-0.04024 0.40254,-0.08048 0.60381,-0.120714"
       id="path3874" />
    <path
       style="fill:#000000;fill-opacity:0;stroke:#000000;stroke-width:0.7;stroke-linecap:round;stroke-opacity:1"
       d="m 113.78057,81.285018 c -0.10064,0 -0.21817,-0.05581 -0.30191,0 -1.33963,0.892723 -1.73607,3.976061 0.30191,2.957507"
       id="path3876" />
    <path
       style="fill:#000000;fill-opacity:0;stroke:#000000;stroke-width:0.7;stroke-linecap:round;stroke-opacity:1"
       d="m 114.92782,81.948948 c 0.007,0.254976 0.10532,2.810481 0.48306,2.71608 0.17657,-0.04413 0.12076,-0.414454 0.12076,-0.482862"
       id="path3878" />
    <path
       style="fill:#000000;fill-opacity:0;stroke:#000000;stroke-width:0.7;stroke-linecap:round;stroke-opacity:1"
       d="m 114.83457,80.681445 0.0604,0.241427"
       id="path3880" />
    <path
       style="fill:#000000;fill-opacity:0;stroke:#000000;stroke-width:0.7;stroke-linecap:round;stroke-opacity:1"
       d="m 119.78588,79.957154 c 0.0236,-0.331034 0.0695,-1.294905 0.18114,-1.629646 0.0142,-0.04269 0.1046,0.01836 0.12077,0.06036 0.0894,0.232267 0.14509,0.478047 0.18114,0.724289 0.21538,1.471155 0.20985,2.068862 0.18115,3.56108 -0.007,0.375012 -0.11729,1.959271 -0.0604,2.414294 0.16118,1.288904 1.69069,-1.586564 1.69069,-1.750362"
       id="path3882" />
    <path
       style="fill:#000000;fill-opacity:0;stroke:#000000;stroke-width:0.7;stroke-linecap:round;stroke-opacity:1"
       d="m 120.08779,83.156093 c 0.0461,0.102849 -0.48306,-0.241429 -0.3623,-0.362146 0.59026,-0.59001 2.68958,-1.026072 3.50215,-1.026072"
       id="path3884" />
    <path
       style="fill:#000000;fill-opacity:0;stroke:#000000;stroke-width:0.7;stroke-linecap:round;stroke-opacity:1"
       d="m 124.91832,81.466088 c -0.12076,0.321906 -0.27427,0.63336 -0.36229,0.965719 -0.094,0.354909 -0.18114,0.719286 -0.18114,1.086429 0,0.682678 0.55748,0.865325 1.08687,0.543216 0.73422,-0.446738 1.56992,-1.428207 1.56992,-2.353934 0,-0.02846 -0.0548,0.03245 -0.0604,0.06036 -0.0357,0.178646 -0.0346,0.362863 -0.0604,0.543218 -0.0995,0.696132 -0.35445,1.577997 0.18115,2.172862 0.0785,0.08721 0.18645,0.202054 0.30191,0.181073 0.68392,-0.124299 0.68135,-1.443435 0.72458,-1.810721"
       id="path3886" />
    <path
       style="fill:#000000;fill-opacity:0;stroke:#000000;stroke-width:0.7;stroke-linecap:round;stroke-opacity:1"
       d="m 125.28062,81.345372 c -0.0403,-0.120713 -0.12077,-0.234892 -0.12077,-0.36214 0,-0.247068 0.73389,-0.241433 0.84534,-0.241433"
       id="path3888" />
    <path
       style="fill:#000000;fill-opacity:0;stroke:#000000;stroke-width:0.7;stroke-linecap:round;stroke-opacity:1"
       d="m 128.66199,82.190375 c -0.0604,-0.140833 -0.0892,-0.299932 -0.18114,-0.4225 -0.0362,-0.04828 -0.0119,0.121888 0,0.181073 0.0488,0.244028 0.0918,0.492021 0.18114,0.724286 0.0255,0.0662 0.36281,1.014106 0.72458,1.086432 0.74816,0.149574 0.71589,-1.90609 0.6642,-2.293578 -0.011,-0.08223 0.0226,-0.241429 -0.0604,-0.241429 -0.0829,0 -0.0486,0.159308 -0.0604,0.241429 -0.0487,0.340921 -0.11193,0.6818 -0.12077,1.026073 -0.0452,1.761276 0.66032,3.440105 0.60383,5.190728 -0.0245,0.757799 -0.0409,1.008743 -0.60383,1.508935 -0.17544,0.155887 -0.37549,0.307803 -0.60381,0.362143 -0.84492,0.201088 -1.23684,-0.627309 -1.20763,-1.327859 0.0227,-0.544574 0.30991,-1.055092 0.66419,-1.448575 0.58078,-0.645041 2.19467,-1.061747 2.47565,-1.810719 0.0224,-0.05957 -0.0403,-0.120716 -0.0604,-0.181073"
       id="path3890" />
    <path
       style="fill:#000000;fill-opacity:0;stroke:#ff7600;stroke-width:0.7;stroke-linecap:round;stroke-opacity:1"
       d="M 76.468083,108.93211 76.286938,69.268104"
       id="path3892" />
    <path
       style="fill:#000000;fill-opacity:0;stroke:#ff0000;stroke-width:0.7;stroke-linecap:round;stroke-opacity:1"
       d="M 82.627026,108.93211 82.445881,69.268104"
       id="path3894" />
    <path
       style="fill:#000000;fill-opacity:0;stroke:#000000;stroke-width:0.7;stroke-linecap:round;stroke-opacity:1"
       d="m 70.912963,112.51826 16.725743,-0.12071"
       id="path4351" />
    <path
       style="fill:#000000;fill-opacity:0;stroke:#000000;stroke-width:0.7;stroke-linecap:round;stroke-opacity:1"
       d="m 71.758306,124.83115 15.397345,0.0604"
       id="path4551" />
    <path
       style="fill:#000000;fill-opacity:0;stroke:#000000;stroke-width:0.7;stroke-linecap:round;stroke-opacity:1"
       d="M 71.275251,119.27828 87.75947,119.09721"
       id="path4553" />
    <path
       style="fill:#000000;fill-opacity:0;stroke:#000000;stroke-width:0.7;stroke-linecap:round;stroke-opacity:1"
       d="m 72.120598,113.06148 1.328399,11.46789"
       id="path4555" />
    <path
       style="fill:#000000;fill-opacity:0;stroke:#000000;stroke-width:0.7;stroke-linecap:round;stroke-opacity:1"
       d="M 75.381212,124.83115 74.173576,113.00112"
       id="path4557" />
    <path
       style="fill:#000000;fill-opacity:0;stroke:#000000;stroke-width:0.7;stroke-linecap:round;stroke-opacity:1"
       d="M 77.132282,124.71044 76.347319,112.69933"
       id="path4561"
       sodipodi:nodetypes="cc" />
    <path
       style="fill:#000000;fill-opacity:0;stroke:#000000;stroke-width:0.7;stroke-linecap:round;stroke-opacity:1"
       d="m 78.762589,112.94077 0.241528,11.5886"
       id="path4563" />
    <path
       style="fill:#000000;fill-opacity:0;stroke:#000000;stroke-width:0.7;stroke-linecap:round;stroke-opacity:1"
       d="m 80.453277,124.65008 0.603816,-11.95075"
       id="path4567" />
    <path
       style="fill:#000000;fill-opacity:0;stroke:#000000;stroke-width:0.7;stroke-linecap:round;stroke-opacity:1"
       d="m 82.264726,124.83115 0.784963,-12.25253"
       id="path4571"
       sodipodi:nodetypes="cc" />
    <path
       style="fill:#000000;fill-opacity:0;stroke:#000000;stroke-width:0.7;stroke-linecap:round;stroke-opacity:1"
       d="m 84.136565,124.77079 1.086871,-11.89038"
       id="path4573" />
    <path
       style="fill:#000000;fill-opacity:0;stroke:#000000;stroke-width:0.7;stroke-linecap:round;stroke-opacity:1"
       d="m 85.827252,124.58972 1.026491,-11.95074"
       id="path4575" />
    <path
       style="fill:#000000;fill-opacity:0;stroke:#000000;stroke-width:0.7;stroke-linecap:round;stroke-opacity:1"
       d="m 73.022454,130.41453 c 4.196224,-0.88424 8.493721,-0.95864 12.92593,0.0442"
       id="path4901"
       sodipodi:nodetypes="cc" />
    <path
       style="fill:#000000;fill-opacity:0;stroke:#000000;stroke-width:0.7;stroke-linecap:round;stroke-opacity:1"
       d="m 75.368599,135.68016 c 2.60984,-1.09433 5.358573,-1.26309 8.322172,0"
       id="path4903"
       sodipodi:nodetypes="cc" />
    <path
       style="fill:#000000;fill-opacity:0;stroke:#ffae00;stroke-width:0.7;stroke-linecap:round;stroke-opacity:1"
       d="m 75.191532,131.4765 c 0.05902,0.0738 0.13481,0.13677 0.177067,0.22125 0.0626,0.12515 0.08853,0.2655 0.132797,0.39824 0.190534,0.57137 0.337502,1.10431 0.619739,1.63721 0.139694,0.26377 0.254267,0.39931 0.265602,0.35399 0.05368,-0.21463 -0.01765,-0.44319 0,-0.66373 0.05016,-0.62674 0.157204,-1.22423 0.132802,-1.85845 -0.04993,-1.29754 -0.04427,-0.13414 -0.04427,-0.79649 0,-0.0295 0,-0.11799 0,-0.0885 0,0.29031 -0.0087,0.0651 0.08854,0.57523 0.129857,0.68147 0.241482,1.31455 0.619736,1.90271 0.0061,0.01 0.451686,0.65472 0.531201,0.57523 0.0313,-0.0313 0,-0.0885 0,-0.13274 0,-0.13275 -0.0063,-0.26565 0,-0.39824 0.03074,-0.64529 0.05068,-1.40378 0.177067,-2.03546 0.05631,-0.28144 0.134716,-0.39632 0.177067,-0.35399 0.217747,0.21766 0.148014,0.85452 0.17707,1.10622 0.05903,0.51138 0.140483,1.04846 0.2656,1.54872 0.01061,0.0424 0.132434,0.48674 0.265604,0.48674 0.03298,0 0.02951,-0.059 0.04427,-0.0885 0.04427,-0.0885 0.10487,-0.17056 0.132802,-0.26549 0.174533,-0.59318 0.221335,-1.24387 0.221335,-1.85846 0,-0.31174 -0.02506,-0.24423 0.04426,-0.48674 0.01283,-0.0448 0.03295,-0.0875 0.04427,-0.13274 0.0036,-0.0143 -0.01474,-0.0443 0,-0.0443 0.191897,0 0.128849,0.37138 0.132802,0.4425 0.05529,0.99491 0.04426,0.1055 0.04426,0.92922 0,0.55313 0.01262,1.08721 0.265599,1.59297 0.0066,0.0132 -0.0029,-0.0298 0,-0.0442 0.02668,-0.13335 0.0542,-0.26666 0.08854,-0.39824 0.201753,-0.77307 0.15448,-0.41201 0.265599,-1.10623 0.108604,-0.37591 0.07552,-0.76871 0.132803,-1.15047 0.008,-0.0531 0.136998,-0.66373 0.221334,-0.66373 0.01476,0 0.04263,-0.0147 0.04426,0 0.0388,0.34904 -0.03651,0.62246 -0.08853,0.97347 -0.07238,0.48837 -0.112509,0.70791 -0.132803,1.19472 -0.0088,0.21045 -0.0173,0.57078 0.04427,0.79648 0.01736,0.0636 0.06536,0.11524 0.08853,0.177 0.12587,0.33552 0.144319,0.43584 0.354137,-0.0885 0.233264,-0.58292 0.40047,-1.19921 0.664001,-1.76995 0.01117,-0.0242 0.186097,-0.49577 0.221334,-0.53099 0.04172,-0.0417 0.0084,0.11859 0,0.17699 -0.03847,0.26916 -0.09188,0.52378 -0.132802,0.79648 -0.09296,0.61946 -0.125056,1.23781 -0.08853,1.85846 0.0048,0.0813 -0.05313,0.46019 0.08853,0.53099 0.09032,0.0451 0.302635,-0.72692 0.309869,-0.75223 0.143312,-0.50139 0.309904,-1.00016 0.442669,-1.50447 0.09668,-0.36724 0.206669,-0.95882 0.486934,-1.23897 0.09429,-0.0942 0.221337,-0.21775 0.221337,-0.17699 0,0.15042 -0.06987,0.29323 -0.08854,0.44249 -0.06502,0.51995 -0.128926,1.06807 -0.08853,1.59296 0.01611,0.20939 0.05592,0.62122 0.132797,0.48673 0.04504,-0.0788 0.303713,-0.73855 0.30987,-0.75223 0.204978,-0.45532 0.394004,-0.90527 0.575471,-1.37171 0.04133,-0.10623 0.161216,-0.44003 0.221335,-0.57524 0.0268,-0.0603 0.06402,-0.11575 0.08853,-0.177 0.0055,-0.0137 0,-0.059 0,-0.0443 0,0.63488 -0.303451,1.40924 -0.442669,2.03546 -0.07361,0.33111 0.01868,0.69619 -0.08853,1.01772 -0.06872,0.20607 0,0.27529 0,0.177"
       id="path5075" />
    <path
       style="fill:#000000;fill-opacity:0;stroke:#00ff0e;stroke-width:0.7;stroke-linecap:round;stroke-opacity:1"
       d="m 77.18354,135.9899 c 0.02951,0.10325 0.02694,0.22178 0.08853,0.30974 0.384802,0.5495 2.18879,-0.009 2.700282,-0.13274 0.166516,-0.0402 0.757497,-0.26054 0.97387,-0.0443 0.128847,0.12879 -0.180686,0.47328 -0.442669,0.66373 -0.672917,0.4892 -1.538274,0.62123 -2.346142,0.66374 -0.117882,0.006 -0.23609,0 -0.354137,0 -0.04427,0 -0.17707,0 -0.132802,0 0.250846,0 0.502377,0.0185 0.752538,0 0.670359,-0.0496 1.206712,-0.20501 1.859209,0.0885 0.165372,0.0744 0.598186,0.72992 0.265602,0.84074 -0.332656,0.11084 -1.338601,-0.40042 -1.549342,-0.66374 -0.09489,-0.11857 -0.186142,-0.2505 -0.221332,-0.39824 -0.104,-0.43662 0.04966,-0.93642 0.309867,-1.28322 0.02506,-0.0334 0.04681,-0.0885 0.08853,-0.0885 0.446111,0 0.111966,1.1484 0,1.32747 -0.147103,0.23527 -1.062408,0.58632 -1.062408,0.75223 0,0.028 0.501063,0.1384 0.708271,0.22125 0.271793,0.10867 0.659233,0.23226 0.841071,0.48674 0.03286,0.046 0.121576,0.22685 0.04426,0.26549 -0.154262,0.0771 -0.07548,-0.24759 -0.04426,-0.57523 0.03388,-0.35562 0.03411,-1.75982 0.265602,-1.99121 0.02334,-0.0233 0.05618,-0.0507 0.08853,-0.0443 0.05216,0.0104 0.08522,0.0647 0.132802,0.0885 0.194054,0.097 0.485341,0.16703 0.708269,0.13275 0.272502,-0.0419 0.551262,-0.14278 0.796806,-0.2655"
       id="path5312" />
    <path
       style="fill:#000000;fill-opacity:0;stroke:#00ff0e;stroke-width:0.7;stroke-linecap:round;stroke-opacity:1"
       d="m 80.769157,137.89261 c 0.53884,-0.16266 0.778151,-0.53795 1.018138,-1.01773 0.06499,-0.12993 0.116933,-0.266 0.17707,-0.39824 0.01932,-0.0425 0.09091,-0.13275 0.04426,-0.13275 -0.07445,0 -0.549331,1.17039 -0.575469,1.23897 -0.04983,0.13076 -0.08853,0.2655 -0.132802,0.39825 -0.01476,0.0442 -0.03295,0.0875 -0.04427,0.13274 -0.0036,0.0143 0,0.059 0,0.0442 0,-0.26418 0.0759,-0.53134 0.08854,-0.79648 0.01037,-0.21758 0.0094,-0.65702 -0.04427,-0.88498 -0.398905,-1.69466 -2.180596,0.74763 -2.611747,0.57524 -0.07285,-0.0291 -0.322464,-0.25291 -0.221332,-0.354 0.08916,-0.0891 0.239665,-0.0799 0.354134,-0.13274 0.421825,-0.19461 0.757224,-0.48674 1.239472,-0.48674"
       id="path5314" />
    <path
       style="fill:#000000;fill-opacity:0;stroke:#ffae00;stroke-width:0.7;stroke-linecap:round;stroke-opacity:1"
       d="m 82.939894,132.31724 c 0.384768,-0.2883 0.350925,-0.21926 0.752539,-0.177 0.191333,0.0201 0.383908,0.0264 0.575468,0.0443 2.3103,0.21483 4.588698,0.22124 6.905633,0.22124 0.02951,0 -0.0592,-0.003 -0.08853,0 -0.103701,0.0115 -0.206579,0.0295 -0.309869,0.0443"
       id="path5811" />
    <path
       style="fill:#000000;fill-opacity:0;stroke:#ffae00;stroke-width:0.7;stroke-linecap:round;stroke-opacity:1"
       d="m 90.553798,131.6535 c 0.540814,0 0.21748,-0.0462 0.929606,0.30975 0.23609,0.11799 0.476541,0.22764 0.708268,0.35399 0.09341,0.0509 0.218009,0.0818 0.265605,0.17699 0.02379,0.0476 -0.07997,0.0823 -0.132803,0.0885 -0.205165,0.0241 -0.414676,-0.025 -0.619736,0 -0.664771,0.081 -1.654908,0.19402 -2.169078,0.70799"
       id="path5813" />
    <path
       style="fill:#000000;fill-opacity:0;stroke:#ffae00;stroke-width:0.7;stroke-linecap:round;stroke-opacity:1"
       d="m 94.22795,130.59153 c 0.05902,0.0885 0.159086,0.16065 0.177068,0.26549 0.234741,1.36878 0.04716,2.81953 -0.265602,4.1594 -0.01037,0.0444 -0.137645,0.79165 -0.442667,0.48674"
       id="path5815" />
    <path
       style="fill:#000000;fill-opacity:0;stroke:#ffae00;stroke-width:0.7;stroke-linecap:round;stroke-opacity:1"
       d="m 93.696749,132.14024 c 0.05902,-0.13275 0.100431,-0.27482 0.177067,-0.39824 0.189976,-0.30595 0.365033,-0.63038 0.619736,-0.88498 0.614654,-0.6144 1.449518,-0.0329 1.903474,0.44249 0.118806,0.12441 0.257008,0.27068 0.265604,0.44249 0.05091,1.01786 -1.86904,0.53099 -2.346145,0.53099 -0.04665,0 0.01127,0.0998 0.04426,0.13274"
       id="path5817" />
    <path
       style="fill:#000000;fill-opacity:0;stroke:#ffae00;stroke-width:0.7;stroke-linecap:round;stroke-opacity:1"
       d="m 97.636501,131.25526 c -0.07392,-1.35967 0.575961,0.796 0.531204,0.84073 -0.0027,0.003 -0.209698,-0.21118 -0.265602,-0.35399 -0.0708,-0.18087 -0.28796,-0.87476 -0.132803,-1.15047 0.389179,-0.69159 1.596382,0.17699 2.169078,0.17699"
       id="path5819" />
    <path
       style="fill:#000000;fill-opacity:0;stroke:#ffae00;stroke-width:0.7;stroke-linecap:round;stroke-opacity:1"
       d="m 100.73518,130.32603 c 0.0443,0.16225 0.10815,0.32038 0.1328,0.48674 0.0581,0.39181 0.0443,0.97397 0.0443,1.37172 0,0.0295 -0.009,0.11648 0,0.0885 0.0238,-0.0713 0.0295,-0.1475 0.0443,-0.22125"
       id="path5821" />
    <path
       style="fill:#000000;fill-opacity:0;stroke:#ffae00;stroke-width:0.7;stroke-linecap:round;stroke-opacity:1"
       d="m 100.42531,129.21981 c -0.0158,-0.37762 0.19476,-0.19028 0.3984,-0.0885"
       id="path5823" />
    <path
       style="fill:#000000;fill-opacity:0;stroke:#ffae00;stroke-width:0.7;stroke-linecap:round;stroke-opacity:1"
       d="m 102.24026,131.21101 c 0.059,0.118 0.13533,0.22884 0.17706,0.354 0.0533,0.15994 0.13435,1.06275 0.30987,1.15047 0.0396,0.0198 0,-0.0885 0,-0.13275 0,-0.16224 0,-0.32449 0,-0.48674 0,-0.30204 -0.053,-1.36736 0.30987,-1.54871 0.27716,-0.13852 0.44599,1.14826 0.84107,0.88498 0.14031,-0.0935 0.81934,-1.01724 0.9296,-0.88498 0.27874,0.33435 0.0332,1.33031 0.30987,1.81421 0.0469,0.082 0.1496,0.11553 0.22134,0.17699 0.15105,0.12942 0.17148,0.0498 0.30987,-0.0885"
       id="path5825" />
    <path
       style="fill:#000000;fill-opacity:0;stroke:#ffae00;stroke-width:0.7;stroke-linecap:round;stroke-opacity:1"
       d="m 106.53414,130.59153 c 0.49772,-0.1351 0.97716,0.0522 1.46081,0.13274 0.22722,0.0379 0.26439,-0.008 0.22133,-0.30974 -0.11379,-0.79622 -0.9182,-0.70607 -1.23947,-0.0885 -0.19047,0.36615 -0.52614,2.24027 0.35414,1.94696"
       id="path5827" />
    <path
       style="fill:#000000;fill-opacity:0;stroke:#ffae00;stroke-width:0.7;stroke-linecap:round;stroke-opacity:1"
       d="m 108.79175,131.43226 c 0.13735,0.22552 0.33424,0.40578 0.48694,0.61948 0.0384,0.0537 0.0885,0.24297 0.0885,0.177 0,-0.23408 -0.34253,-1.97488 -0.22133,-2.03545 0.17717,-0.0885 0.83717,0.0603 1.06241,0.0885"
       id="path5829" />
    <path
       style="fill:#000000;fill-opacity:0;stroke:#ffae00;stroke-width:0.7;stroke-linecap:round;stroke-opacity:1"
       d="m 112.65512,130.85702 c 0.11792,-0.22681 0.38591,-1.28296 0.48694,-1.10622 0.0604,0.10559 0.0713,0.23358 0.0885,0.35399 0.0419,0.29348 0.0721,0.58897 0.0885,0.88498 0.0131,0.23563 -0.0118,0.47228 0,0.70798 0.003,0.0607 0.0323,0.11736 0.0443,0.177 0.003,0.0145 0,0.059 0,0.0442 0,-0.29881 -0.0145,-0.47446 0.0885,-0.79647 0.0127,-0.0398 0.31493,-1.00707 0.664,-0.70799 0.27832,0.23846 0.28286,1.04848 0.57547,1.19472 0.11039,0.0552 0.25084,-0.20095 0.2656,-0.22124 0.27591,-0.37923 0.46375,-0.63915 0.88534,-0.88498 0.0255,-0.0149 0.0701,-0.023 0.0885,0 0.31704,0.39614 -0.3249,1.54871 0.39841,1.54871"
       id="path5831" />
    <path
       style="fill:#000000;fill-opacity:0;stroke:#ffae00;stroke-width:0.7;stroke-linecap:round;stroke-opacity:1"
       d="m 117.25888,130.14904 c 0.19728,0.32867 0.17261,0.35911 0.664,0.57523 0.16677,0.0734 0.96466,0.34659 1.06241,-0.0442 0.0286,-0.11447 0.0454,-0.24508 0,-0.354 -0.10578,-0.25376 -0.60267,-0.24037 -0.75254,-0.17699 -0.75125,0.3177 -1.07057,1.14269 -1.01814,1.9027 0.0126,0.18214 0.16036,0.59092 0.44267,0.57524 0.18635,-0.0104 0.35413,-0.118 0.5312,-0.177"
       id="path5833" />
    <path
       style="fill:#000000;fill-opacity:0;stroke:#ffae00;stroke-width:0.7;stroke-linecap:round;stroke-opacity:1"
       d="m 119.73783,131.4765 c -0.0601,0.30037 -0.0724,0.32101 -0.0885,0.70799 -0.008,0.19158 0,0.38349 0,0.57524 0,0.0295 0,0.118 0,0.0885 0,-0.23906 -0.48529,-2.66123 0.3984,-2.38944 0.15097,0.0464 0.35296,0.2093 0.48694,0.30974"
       id="path5835" />
    <path
       style="fill:#000000;fill-opacity:0;stroke:#ffae00;stroke-width:0.7;stroke-linecap:round;stroke-opacity:1"
       d="m 122.48237,130.37028 c -0.0306,0.62732 -0.20549,1.28647 0,1.90271 0.009,0.028 0.059,0 0.0885,0"
       id="path5837" />
    <path
       style="fill:#000000;fill-opacity:0;stroke:#ffae00;stroke-width:0.7;stroke-linecap:round;stroke-opacity:1"
       d="m 124.65145,130.19329 c 0,-0.0737 0.0723,-0.20679 0,-0.22125 -0.0926,-0.0185 -0.15658,0.10822 -0.22134,0.177 -0.17221,0.1829 -0.37455,0.35055 -0.48693,0.57523 -0.24914,0.49807 0.34237,0.66605 0.664,0.70799 0.17558,0.0229 0.35535,-0.0207 0.5312,0 0.12251,0.0144 0.38978,0.0993 0.13281,0.26549 -0.40773,0.26372 -1.70261,0.81052 -2.16908,0.75223 -0.2501,-0.0312 -0.17707,-0.36416 -0.17707,-0.48673"
       id="path5839" />
    <path
       style="fill:#000000;fill-opacity:0;stroke:#ffae00;stroke-width:0.7;stroke-linecap:round;stroke-opacity:1"
       d="m 122.5709,129.5738 c -0.67127,-0.11936 0.21176,0.0443 0.44268,0.0443"
       id="path5841" />
    <path
       style="fill:#000000;fill-opacity:0;stroke:#ffae00;stroke-width:0.7;stroke-linecap:round;stroke-opacity:1"
       d="m 126.06799,129.6623 c 0.0946,-0.42543 0.0881,-0.60138 0.44267,-0.97348 0.73676,-0.77328 1.17409,-0.25054 1.23947,0.70799 0.0379,0.55621 -0.49486,1.89972 -0.61974,2.30094 -0.068,0.21864 -0.19135,0.4352 -0.17706,0.66374 0.005,0.0751 0.16958,0.0988 0.22133,0.0442 0.24205,-0.25539 0.38365,-0.58998 0.57547,-0.88497"
       id="path5843" />
    <path
       style="fill:#000000;fill-opacity:0;stroke:#ffae00;stroke-width:0.7;stroke-linecap:round;stroke-opacity:1"
       d="m 126.64346,130.23754 c 0.0738,0.10324 0.10094,0.26962 0.22133,0.30974 0.30776,0.10254 1.24648,-0.0443 1.63788,-0.0443"
       id="path5845" />
    <path
       style="fill:#000000;fill-opacity:0;stroke:#ffae00;stroke-width:0.7;stroke-linecap:round;stroke-opacity:1"
       d="m 129.21094,130.63578 c 0.10329,-0.0738 0.18999,-0.17957 0.30986,-0.22125 0.22688,-0.0789 0.46978,-0.10414 0.70827,-0.13275 0.13186,-0.0158 0.26775,0.0238 0.39841,0 0.27439,-0.0499 -0.0387,-0.36136 -0.17707,-0.39824 -0.48042,-0.12806 -1.08333,0.31868 -1.23947,0.75224 -0.13562,0.37657 0.212,1.30883 0.57547,1.46021 0.24799,0.10329 0.42842,-0.0677 0.61973,-0.177"
       id="path5847" />
    <path
       style="fill:#000000;fill-opacity:0;stroke:#ffae00;stroke-width:0.7;stroke-linecap:round;stroke-opacity:1"
       d="m 131.33575,130.54728 c 0.0905,0.39262 -0.21249,1.51331 0,1.72571 0.0295,0.0295 0.071,-0.0506 0.0885,-0.0885 0.0724,-0.15675 0.11761,-0.32465 0.17707,-0.48674 0.10329,-0.28024 0.20658,-0.56049 0.30987,-0.84073 0.059,-0.20649 0.10609,-0.41679 0.17707,-0.61948 0.0449,-0.12837 0.15937,-0.39469 0.26559,-0.30975 0.255,0.20392 -0.06,0.82556 0.26561,0.97348 0.3322,0.15094 0.85189,-0.35367 1.01813,-0.57524 0.0692,-0.0922 0.11828,-0.317 0.22134,-0.26549 0.0994,0.0497 0.17227,0.42968 0.17707,0.44249 0.16695,0.44503 0.17876,0.38613 0.44267,0.79648 0.12794,0.19895 0.18662,0.22125 0.1328,0.22125"
       id="path5849" />
    <path
       style="fill:#000000;fill-opacity:0;stroke:#00ff0e;stroke-width:0.7;stroke-linecap:round;stroke-opacity:1"
       d="m 81.221759,137.3315 c 0.409204,0.0705 0.824767,0.1109 1.227616,0.21158 0.558575,0.13958 1.095074,0.35775 1.650937,0.50777 2.359313,0.63676 2.839045,0.74578 5.291457,0.97323 0.46387,0.043 0.93118,0.0328 1.396947,0.0423 0.734587,0.015 0.880026,-0.12158 0.465646,0.12694"
       id="path5884" />
    <path
       style="fill:#000000;fill-opacity:0;stroke:#00ff0e;stroke-width:0.7;stroke-linecap:round;stroke-opacity:1"
       d="m 90.788716,137.88159 c 0.155216,0.0141 0.317021,-0.005 0.465646,0.0423 0.181483,0.0573 1.060439,0.6315 0.888965,0.8886 -0.18784,0.28165 -1.284321,0.50569 -1.566269,0.5924 -0.280866,0.0864 -0.570053,0.17496 -0.550312,0.25389 0.01746,0.0698 0.141104,0.0282 0.211658,0.0423"
       id="path8068" />
    <path
       style="fill:#000000;fill-opacity:0;stroke:#00ff0e;stroke-width:0.7;stroke-linecap:round;stroke-opacity:1"
       d="m 95.148875,137.0353 c 0.196665,0.4531 -0.1324,-1.81569 0.169328,-1.43869 0.185293,0.23152 0.06207,0.59272 0.04233,0.8886 -0.02862,0.42919 -0.327734,1.78455 -0.42332,2.15805 -0.08407,0.32852 -0.240548,0.63873 -0.29632,0.97323 -0.0033,0.0197 0.03287,-0.0247 0.04233,-0.0423 0.08975,-0.16661 0.155276,-0.3463 0.253989,-0.50777 0.280808,-0.45932 0.988666,-1.66028 1.481611,-1.98878 0.083,-0.0553 0.0024,0.207 -0.04233,0.2962 -0.01786,0.0357 -0.06177,0.0519 -0.08466,0.0846 -0.07634,0.10901 -0.130797,0.23282 -0.211659,0.33851 -0.435311,0.56903 -1.017198,1.02069 -1.481605,1.56564 -0.124453,0.14604 -0.295492,0.2785 -0.338654,0.46546 -0.01709,0.074 0.135985,0.0915 0.211659,0.0846 0.245414,-0.0223 0.487558,-0.0864 0.719637,-0.16926 0.708404,-0.2529 1.383803,-0.59015 2.074252,-0.8886 0.226187,-0.0978 0.430892,-0.2962 0.677307,-0.2962 0.05816,0 -0.0031,0.13293 0.04233,0.16925 0.182663,0.14607 0.457602,0.15667 0.67731,0.21158"
       id="path8070" />
    <path
       style="fill:#000000;fill-opacity:0;stroke:#00ff0e;stroke-width:0.7;stroke-linecap:round;stroke-opacity:1"
       d="m 100.31334,138.51631 c -0.15521,-0.32441 -0.19624,-0.73501 -0.465648,-0.97323 -0.3009,-0.26608 -1.499862,0.34149 -1.566272,0.38083 -0.104407,0.0618 -0.141105,0.19747 -0.211659,0.2962"
       id="path8072" />
    <path
       style="fill:#000000;fill-opacity:0;stroke:#00ff0e;stroke-width:0.7;stroke-linecap:round;stroke-opacity:1"
       d="m 98.408415,139.48955 c 0.956675,0.12722 1.231865,-0.0982 1.820255,-0.80398"
       id="path8074" />
    <path
       style="fill:#000000;fill-opacity:0;stroke:#00ff0e;stroke-width:0.7;stroke-linecap:round;stroke-opacity:1"
       d="m 100.31334,138.09317 c -0.24782,-0.41288 -0.0825,-0.28076 -0.507981,0.38083"
       id="path8076" />
    <path
       style="fill:#000000;fill-opacity:0;stroke:#00ff0e;stroke-width:0.7;stroke-linecap:round;stroke-opacity:1"
       d="m 100.35567,138.81251 c -0.1635,0.41002 -0.360049,1.12566 0.33865,0.84629"
       id="path8078" />
    <path
       style="fill:#000000;fill-opacity:0;stroke:#00ff0e;stroke-width:0.7;stroke-linecap:round;stroke-opacity:1"
       d="m 102.31192,138.05276 c -0.0237,-0.86328 0.0261,-1.72419 0.12699,-2.58118 0.0249,-0.21199 0.0171,-0.83721 0.0847,-0.63472 0.0937,0.28099 0.0116,0.59263 0,0.8886 -0.0695,1.77154 -0.1489,0.88667 -0.0847,2.87739 0.008,0.245 0.048,1.27855 0.25399,1.60795 0.0473,0.0757 0.1884,0.14515 0.25399,0.0846 0.20236,-0.18671 0.609,-1.49292 0.63498,-1.56564 0.0179,-0.05 0.40736,-0.93643 0.33865,-1.14249 -0.0783,-0.23477 -0.31896,0.14268 -0.33865,0.21157 -0.19365,0.6775 -0.32574,1.42042 -0.127,2.11573 0.32178,1.12577 0.87916,0.49926 0.8043,-0.21157 -0.014,-0.13308 -0.0847,-0.25389 -0.12699,-0.38083"
       id="path8080" />
    <path
       style="fill:#000000;fill-opacity:0;stroke:#00ff0e;stroke-width:0.7;stroke-linecap:round;stroke-opacity:1"
       d="m 103.70886,136.9949 c 0.61908,0.19041 0.36212,0.13163 0.76197,0.21157"
       id="path8082" />
    <path
       style="fill:#000000;fill-opacity:0;stroke:#00ff0e;stroke-width:0.7;stroke-linecap:round;stroke-opacity:1"
       d="m 105.48679,137.84119 c 0.0282,-0.11284 0.017,-0.24388 0.0847,-0.33852 0.026,-0.0363 0.11334,-1.6e-4 0.127,0.0423 0.11943,0.3714 0.23002,0.7531 0.25399,1.14249 0.033,0.53571 -0.0517,1.07224 -0.0847,1.60795 -0.0235,0.38116 -0.0622,0.76128 -0.0847,1.14249 -0.006,0.0986 0,0.39494 0,0.29621 0,-0.15516 0,-0.31031 0,-0.46546"
       id="path8084" />
    <path
       style="fill:#000000;fill-opacity:0;stroke:#00ff0e;stroke-width:0.7;stroke-linecap:round;stroke-opacity:1"
       d="m 105.2328,138.01045 c 0.71752,-0.50624 1.45486,-1.03663 2.37057,-0.67704 0.16818,0.0661 0.33622,0.18023 0.42332,0.33852 0.32674,0.59384 -0.36945,1.28098 -0.84663,1.48101 -0.23995,0.10058 -0.50317,0.1425 -0.76197,0.16926 -0.15503,0.016 -0.31033,-0.0294 -0.46565,-0.0423 -0.0141,-0.001 -0.0523,-0.01 -0.0423,0 0.18067,0.1806 0.20375,0.1661 0.42331,0.25389"
       id="path8086" />
    <path
       style="fill:#000000;fill-opacity:0;stroke:#00ff0e;stroke-width:0.7;stroke-linecap:round;stroke-opacity:1"
       d="m 109.00032,134.28677 c 0.0141,0.18336 0.0423,0.36618 0.0423,0.55009 0,0.57847 -0.0206,1.15683 -0.0423,1.73489 -0.0143,0.38231 -0.16522,2.18889 -0.0423,2.75045 0.0256,0.11694 0.13428,0.25388 0.25399,0.25388 0.24356,0 1.34625,-0.62972 1.10062,-1.01554 -0.0699,-0.10974 -0.25399,-0.0564 -0.38098,-0.0846"
       id="path8088" />
    <path
       style="fill:#000000;fill-opacity:0;stroke:#00ff0e;stroke-width:0.7;stroke-linecap:round;stroke-opacity:1"
       d="m 107.7727,138.01045 c 1.03044,-0.37768 1.02483,-0.54087 1.90493,-0.46546 1.55487,0.13322 0.46241,0.12694 0.97362,0.12694"
       id="path8090" />
    <path
       style="fill:#000000;fill-opacity:0;stroke:#00ff0e;stroke-width:0.7;stroke-linecap:round;stroke-opacity:1"
       d="m 111.2439,138.43359 c 0.13826,0.41461 0.19705,0.60656 0.38098,1.05787 0.0643,0.15783 0.13143,0.31508 0.21166,0.46546 0.0332,0.0622 0.0639,0.13772 0.127,0.16925 0.0496,0.0248 0.0631,-0.23633 0.0423,-0.42314 -0.03,-0.26966 -0.0688,-0.53898 -0.127,-0.80398 -0.069,-0.31416 -0.20431,-0.61313 -0.25399,-0.93092 -0.0219,-0.14005 -0.0519,-0.31721 0.0423,-0.42314 0.0368,-0.0414 1.57739,0.42314 2.24358,0.42314"
       id="path8092" />
    <path
       style="fill:#000000;fill-opacity:0;stroke:#00ff0e;stroke-width:0.7;stroke-linecap:round;stroke-opacity:1"
       d="m 114.12245,138.39128 c 0.26981,0.55621 1.09918,0.41113 1.26995,-0.16926 0.27657,-0.93994 -1.36005,-1.42619 -1.77793,-0.46546 -0.0873,0.2008 -0.16933,0.41575 -0.16933,0.63472 0,0.49901 0.64418,1.36662 1.22762,1.05786 0.21656,-0.1146 0.43432,-0.46832 0.55031,-0.67703 0.0766,-0.13785 0.14952,-0.2782 0.21166,-0.42315 0.0229,-0.0534 0.0423,-0.22741 0.0423,-0.16925 0,0.0719 -0.0372,0.13983 -0.0423,0.21157 -0.0162,0.22709 -0.007,1.62253 0.42332,0.76166"
       id="path8094" />
    <path
       style="fill:#000000;fill-opacity:0;stroke:#008107;stroke-width:0.7;stroke-linecap:round;stroke-opacity:0.396466"
       d="m 75.932388,138.68884 c 0.633146,-1.07488 -0.995087,1.22891 0.04233,1.14249 0.222957,-0.0186 0.789919,-0.5924 0.804302,-0.5924 0.06509,0 0.246552,1.02054 0.465648,1.1848 0.316836,0.23753 0.677746,-0.29635 0.931296,-0.38083 0.01339,-0.004 -0.0045,0.0289 0,0.0423 0.01,0.0299 0.02952,0.0558 0.04233,0.0846 0.08194,0.18428 0.129363,0.40932 0.338654,0.50777 0.450794,0.21206 2.336347,0.41504 2.793889,-0.0423 0.135702,-0.13565 0.271258,-0.28582 0.338653,-0.46546 0.02527,-0.0673 0.01561,-0.1448 0.04233,-0.21158 0.0052,-0.0131 0.02894,-0.004 0.04233,0 0.167994,0.056 0.45652,0.0879 0.507981,-0.16926 0.04756,-0.23771 -0.161888,-0.54451 -0.338653,-0.67703 -0.05644,-0.0423 -0.229823,-0.0907 -0.169328,-0.12694 0.390543,-0.23423 0.989634,-0.14472 1.354616,-0.55009 0.502295,-0.55788 -0.659585,-0.71935 0.550309,-0.71935"
       id="path8096" />
    <ellipse
       style="fill:#000000;fill-opacity:0;stroke:#000000;stroke-width:0.7;stroke-linecap:round;stroke-opacity:0.983906"
       id="path9454"
       cx="74.234802"
       cy="128.48163"
       rx="1.1429551"
       ry="1.0155488" />
    <ellipse
       style="fill:#000000;fill-opacity:0;stroke:#000000;stroke-width:0.7;stroke-linecap:round;stroke-opacity:0.983906"
       id="ellipse9632"
       cx="76.859375"
       cy="128.18542"
       rx="1.1429551"
       ry="1.0155488" />
    <ellipse
       style="fill:#000000;fill-opacity:0;stroke:#000000;stroke-width:0.7;stroke-linecap:round;stroke-opacity:0.983906"
       id="ellipse9714"
       cx="82.023827"
       cy="128.31238"
       rx="1.1429551"
       ry="1.0155488" />
    <ellipse
       style="fill:#000000;fill-opacity:0;stroke:#000000;stroke-width:0.7;stroke-linecap:round;stroke-opacity:0.983906"
       id="ellipse9716"
       cx="84.563736"
       cy="128.52396"
       rx="1.1429551"
       ry="1.0155488" />
    <ellipse
       style="fill:#000000;fill-opacity:0;stroke:#000000;stroke-width:0.7;stroke-linecap:round;stroke-opacity:0.983906"
       id="ellipse9718"
       cx="79.52626"
       cy="128.14311"
       rx="1.1429551"
       ry="1.0155488" />
    <path
       style="fill:#000000;fill-opacity:0;stroke:#000000;stroke-width:0.7;stroke-linecap:round;stroke-opacity:0.983906"
       d="m 89.68995,112.77704 c 1.129238,0.54054 0.696403,5.28849 2.28591,6.26256 -1.740201,0.60882 -1.332609,5.97266 -2.582229,5.62783"
       id="path9757"
       sodipodi:nodetypes="ccc" />
    <path
       style="fill:#000000;fill-opacity:0;stroke:#000000;stroke-width:0.7;stroke-linecap:round;stroke-opacity:0.983906"
       d="m 94.473431,118.44719 c -0.0141,-0.0846 0.0423,-0.268 -0.04233,-0.25388 -0.08463,0.0141 0.04891,0.16834 0.04233,0.25388 -0.09097,1.18214 -0.168931,0.49708 -0.211659,1.65027 -0.01077,0.29038 0.06958,0.44036 0.126995,0.42314 0.650478,-0.19506 1.396947,-1.43785 1.396947,-2.11572 0,-0.02 -0.03815,0.0228 -0.04233,0.0423 -0.03889,0.1814 -0.07095,0.36508 -0.08466,0.55009 -0.02911,0.39277 -0.04194,1.09207 0.29632,1.39638 0.06634,0.0597 0.165195,0.0758 0.253992,0.0846 0.423973,0.0424 0.207716,-0.60029 0.126994,-0.76166"
       id="path11099" />
    <path
       style="fill:#000000;fill-opacity:0;stroke:#000000;stroke-width:0.7;stroke-linecap:round;stroke-opacity:0.983906"
       d="m 97.097992,118.61645 c 0.333605,-0.13339 0.324678,-0.13816 0.804304,-0.25389 2.220404,-0.53574 -0.385882,1.01958 -0.169326,1.77721 0.125402,0.43873 1.321242,0.56801 0.973627,-0.12694"
       id="path11101" />
    <path
       style="fill:#000000;fill-opacity:0;stroke:#000000;stroke-width:0.7;stroke-linecap:round;stroke-opacity:0.983906"
       d="m 97.182658,119.9282 c 0.696725,-0.40275 1.472404,-0.52286 2.24358,-0.67703"
       id="path11103" />
    <path
       style="fill:#000000;fill-opacity:0;stroke:#000000;stroke-width:0.7;stroke-linecap:round;stroke-opacity:0.983906"
       d="m 100.61152,119.3358 c 0.0706,0.0564 0.13086,0.12887 0.21166,0.16926 0.57404,0.2869 1.15448,-0.48378 0.9313,-0.84629 -0.0698,-0.11335 -0.20993,-0.17772 -0.33866,-0.21158 -0.8957,-0.23562 -1.859177,1.19051 -1.05829,1.81953 0.36866,0.28954 0.93472,0.0211 1.18529,-0.29621 0.25777,-0.32637 0.32621,-0.75423 0.42332,-1.14249 0.003,-0.0137 0.002,0.0284 0,0.0423 -0.0118,0.0709 -0.0372,0.13983 -0.0423,0.21157 -0.0188,0.263 -0.0857,0.88494 0.25398,1.01555 0.41983,0.1614 0.94241,-0.55093 1.10062,-0.80398 0.0381,-0.061 0.0282,-0.14104 0.0423,-0.21157"
       id="path11105" />
    <path
       style="fill:#000000;fill-opacity:0;stroke:#000000;stroke-width:0.7;stroke-linecap:round;stroke-opacity:0.983906"
       d="m 103.40541,118.61645 c -0.0438,0.25779 -0.0674,1.37631 0.16933,1.56564 0.0348,0.0279 0.0984,-0.008 0.12699,-0.0423 0.30889,-0.37051 0.36815,-0.63424 0.50799,-1.10017 0.0929,-0.30952 0.16946,-0.93079 0.29632,-0.80398 0.26661,0.26651 0.17041,0.83022 0.76196,0.71935 0.0799,-0.015 1.18529,-0.58789 1.18529,-0.38083 0,0.31415 -0.27904,0.74701 -0.29632,1.05786 -0.0257,0.46315 0.39499,0.5813 0.76197,0.46546 0.31093,-0.0982 0.47829,-0.22674 0.67731,-0.46546 0.0521,-0.0625 0.20222,-0.4059 0.25399,-0.42315 0.1507,-0.0502 0.64208,0.17631 0.88896,0.12695 0.46123,-0.0922 0.87427,-0.83966 0.38099,-1.18481 -0.50858,-0.35586 -1.0754,0.95554 -0.97363,1.39638 0.0218,0.0944 0.17414,0.25229 0.29632,0.21157 0.44802,-0.14928 0.72252,-0.61465 0.97363,-0.97323 0.0422,-0.0603 0.16322,-0.21767 0.16933,-0.21157 0.0211,0.0211 -0.0939,0.40263 0.0847,0.63471 0.0793,0.10308 0.17997,0.19574 0.29632,0.25389 0.11796,0.059 0.84416,0.2065 0.88897,-0.0846 0.0276,-0.17911 -0.14799,-0.59194 -0.21166,-0.76166"
       id="path11107" />
    <path
       style="fill:#000000;fill-opacity:0;stroke:#000000;stroke-width:0.7;stroke-linecap:round;stroke-opacity:0.983906"
       d="m 97.055661,121.79004 c 0.03151,1.19204 0.103381,-0.86522 0.253992,-0.67703 0.178327,0.22281 0.04233,1.45811 0.04233,1.86184 0,0.0185 0.0052,0.72457 0.04233,0.76166 0.114993,0.11495 1.476888,-1.21103 1.862593,-0.55009 0.05732,0.0982 0.05644,0.22568 0.04233,0.33852 -0.09982,0.79826 -1.173673,1.23187 -1.820262,1.43869 -0.137056,0.0438 -0.283712,0.11952 -0.423317,0.0846 -0.284684,-0.0711 0.0583,-0.49241 0.465651,-0.93092 0.23691,-0.25503 0.723334,-0.59124 1.01596,-0.80398"
       id="path11109" />
    <path
       style="fill:#000000;fill-opacity:0;stroke:#000000;stroke-width:0.7;stroke-linecap:round;stroke-opacity:0.983906"
       d="m 100.23054,123.73651 c 0.0988,0.0423 0.20301,0.0737 0.29632,0.12694 0.10539,0.0602 0.20559,0.13096 0.29632,0.21158 0.038,0.0338 0.0353,0.11461 0.0847,0.12694 0.52154,0.13033 0.98103,-1.02167 0.42332,-1.26944 -0.88483,-0.39309 -1.950687,0.75841 -1.14295,1.52333 1.07198,1.01515 2.33562,-0.5832 1.52394,-0.93092 -0.26337,-0.11283 -0.58288,0.0846 -0.84664,0.0846"
       id="path11111" />
    <path
       style="fill:#000000;fill-opacity:0;stroke:#000000;stroke-width:0.7;stroke-linecap:round;stroke-opacity:0.983906"
       d="m 100.3152,122.50939 c 0.0564,-0.0846 0.0865,-0.19478 0.16933,-0.25389 0.20649,-0.14744 0.81705,-0.32373 1.10062,-0.46546"
       id="path11113" />
    <path
       style="fill:#000000;fill-opacity:0;stroke:#000000;stroke-width:0.7;stroke-linecap:round;stroke-opacity:0.983906"
       d="m 101.41582,122.17087 c 0.54687,-0.24847 0.41172,-0.0498 0.55032,-0.46546"
       id="path11115" />
    <path
       style="fill:#000000;fill-opacity:0;stroke:#000000;stroke-width:0.7;stroke-linecap:round;stroke-opacity:0.983906"
       d="m 102.98209,122.67865 c 0.27321,-0.72582 0.33866,-1.51429 0.33866,-2.28499 0,-0.0846 0,0.16926 0,0.25389 0,0.2962 0.005,0.59245 0,0.8886 -0.0148,0.82865 -0.22433,2.59818 0.16932,3.38517 0.50481,1.00919 0.88897,-1.09157 0.88897,-1.18481"
       id="path11117" />
    <path
       style="fill:#000000;fill-opacity:0;stroke:#000000;stroke-width:0.7;stroke-linecap:round;stroke-opacity:0.983906"
       d="m 104.54837,123.48262 c 0.10384,0.21798 0.15032,0.45943 0.25399,0.67703 0.24669,0.51785 0.53953,0.83105 1.10062,0.42315 0.54176,-0.39385 0.8328,-1.16553 0.46565,-1.77721 -0.0726,-0.12097 -0.19815,-0.24112 -0.33865,-0.25389 -0.81612,-0.0742 -1.50327,1.23007 -0.88897,1.60795 0.26249,0.16147 0.58158,0.23195 0.88897,0.25389 0.11346,0.008 0.21587,-0.0888 0.29632,-0.16926 0.31242,-0.31229 0.5982,-0.91979 0.38099,-1.35406 -0.0654,-0.13085 -0.17826,0.14007 -0.254,0.50777 -0.27108,1.31612 -0.12455,2.65779 -0.33865,3.97757 -0.103,0.63488 -0.47128,0.95395 -1.01596,0.38083 -0.32568,-0.34268 -0.93592,-1.63695 -0.42332,-2.0311 0.27358,-0.21035 0.73243,-0.29313 1.0583,-0.38083 0.85154,-0.22917 1.80661,-0.44499 2.32823,-1.22712"
       id="path11119" />
    <path
       style="fill:#000000;fill-opacity:0;stroke:#000000;stroke-width:0.7;stroke-linecap:round;stroke-opacity:0.983906"
       d="m 107.9349,123.35568 c 0.37138,-0.29698 0.13877,-0.17065 0.84664,-0.25389 0.26773,-0.0315 0.53742,-0.0465 0.8043,-0.0846 0.26027,-0.0372 1.27298,-0.36562 0.0423,-0.63471 -0.83144,-0.18181 -1.92651,0.73013 -1.35462,1.56563 0.55358,0.80876 1.75157,0.77212 2.20125,-0.12694"
       id="path11121" />
    <path
       style="fill:#000000;fill-opacity:0;stroke:#000000;stroke-width:0.7;stroke-linecap:round;stroke-opacity:0.983906"
       d="m 111.66009,122.00161 c -0.0847,-0.0423 -0.16118,-0.1455 -0.25399,-0.12694 -0.39323,0.0786 0.0178,0.68874 0.0423,0.71935 0.33257,0.41554 1.11043,0.52702 1.43928,0.8886 0.06,0.066 0.12739,0.17558 0.0847,0.25389 -0.17815,0.32647 -1.5859,0.56783 -1.94726,0.63472 -0.12564,0.0233 -0.25384,0.0296 -0.38098,0.0423 -0.014,0.001 -0.055,0.006 -0.0423,0 0.19671,-0.0983 0.43184,-0.0378 0.63497,-0.0846 0.55314,-0.12759 0.37957,-0.0624 0.8043,-0.38083"
       id="path11123" />
    <path
       style="fill:#000000;fill-opacity:0;stroke:#000000;stroke-width:0.7;stroke-linecap:round;stroke-opacity:0.983906"
       d="m 113.39568,122.38245 c 0.0706,-0.0987 0.0965,-0.25785 0.21166,-0.29621 0.43947,-0.14643 -0.0514,2.02255 -0.0423,2.15804 0.003,0.0422 0.10426,0.0357 0.12699,0 0.15925,-0.25015 0.17265,-0.4887 0.21166,-0.76166"
       id="path11125" />
    <path
       style="fill:#000000;fill-opacity:0;stroke:#000000;stroke-width:0.7;stroke-linecap:round;stroke-opacity:0.983906"
       d="m 113.52268,120.94375 c -0.0625,0.3123 -0.11148,0.23132 0.25399,0.12694"
       id="path11127" />
    <path
       style="fill:#000000;fill-opacity:0;stroke:#000000;stroke-width:0.7;stroke-linecap:round;stroke-opacity:0.983906"
       d="m 76.698141,69.56699 c -0.113837,0.0569 -0.223343,0.123439 -0.341511,0.170686 -0.0249,0.0099 0.03615,-0.03991 0.05692,-0.0569 0.188049,-0.153797 0.369622,-0.316635 0.569187,-0.455166 0.484108,-0.336047 0.981393,-0.652917 1.479889,-0.967226 1.840844,-1.16068 2.775571,-1.783263 4.838096,-2.617206 1.342951,-0.542996 2.126504,-0.716322 3.358208,-1.024123"
       id="path11244" />
    <path
       style="fill:#000000;fill-opacity:0;stroke:#000000;stroke-width:0.7;stroke-linecap:round;stroke-opacity:0.983906"
       d="m 82.674615,70.704905 c 1.019411,-1.479428 2.247609,-2.791836 3.415128,-4.15339 0.254548,-0.296851 0.489548,-0.609975 0.739947,-0.910333 0.03435,-0.04121 0.151781,-0.15172 0.113834,-0.113789 -0.287689,0.287565 -0.131683,0.179604 -0.45535,0.341373"
       id="path11248" />
    <path
       style="fill:#000000;fill-opacity:0;stroke:#000000;stroke-width:0.7;stroke-linecap:round;stroke-opacity:0.983906"
       d="m 85.179042,64.218787 c 0.853263,-0.341167 0.888576,-0.404407 1.821402,-0.568957 0.319823,-0.05642 0.645361,-0.154056 0.967618,-0.113789 1.339311,0.167346 -1.055645,2.630088 -1.195295,2.78789 -0.509,0.57516 -0.455347,0.646319 -0.455347,0.227584"
       id="path11250" />
    <path
       style="fill:#000000;fill-opacity:0;stroke:#000000;stroke-width:0.7;stroke-linecap:round;stroke-opacity:0.983906"
       d="m 89.618708,64.560163 c 0.287779,0.03305 0.481907,-0.383098 0.284594,-0.28448 -0.03794,0.01897 -0.09716,0.127199 -0.05692,0.113792 0.412059,-0.137297 0.807849,-0.642326 1.024538,-0.967226 0.32753,-0.491096 0.581176,-0.950773 0.683027,-1.536184 0.136038,-0.781902 -0.206735,-1.294241 -0.455351,-0.113795 -0.111172,0.527854 -0.208277,1.059074 -0.284593,1.593083 -0.182722,1.278543 -0.212932,2.583624 -0.341511,3.868909 -0.02857,0.285576 0.03386,0.607364 -0.11384,0.853438 -0.06251,0.104145 -0.222081,-0.123439 -0.284594,-0.227584 -0.255243,-0.425228 -0.113837,-0.691317 -0.113837,-1.137915"
       id="path11252" />
    <path
       style="fill:#000000;fill-opacity:0;stroke:#000000;stroke-width:0.7;stroke-linecap:round;stroke-opacity:0.983906"
       d="m 89.504871,66.494619 c 0.133633,-0.767445 0.399526,-0.821708 1.081455,-1.308602 0.145656,-0.103997 0.289174,-0.218035 0.455353,-0.28448 0.355777,-0.142253 0.555509,0.08498 0.853779,-0.113792"
       id="path11254" />
    <path
       style="fill:#000000;fill-opacity:0;stroke:#000000;stroke-width:0.7;stroke-linecap:round;stroke-opacity:0.983906"
       d="m 94.172211,61.829166 c 0.05692,-0.208619 0.128333,-0.413814 0.170756,-0.625853 0.01368,-0.06836 0.0995,-0.782503 0.05692,-0.853438 -0.03088,-0.05144 -0.149685,7.94e-4 -0.170759,0.0569 -0.101902,0.271632 -0.136843,0.565306 -0.170754,0.853435 -0.2705,2.298316 0.162049,-0.08085 -0.170757,2.048248 -0.04481,0.286636 -0.146656,0.564322 -0.170757,0.853434 -0.01905,0.228383 0.0796,0.728311 0.284594,0.625854 0.191968,-0.09595 0.303567,-0.303443 0.45535,-0.455166"
       id="path11256" />
    <path
       style="fill:#000000;fill-opacity:0;stroke:#000000;stroke-width:0.7;stroke-linecap:round;stroke-opacity:0.983906"
       d="m 95.196749,63.422249 c 0.234489,0.308615 0.530757,0.659445 0.967621,0.625853 1.108765,-0.08525 0.419168,-1.38698 -0.455351,-1.081021 -0.215609,0.07543 -0.345249,0.299344 -0.51227,0.455168 -0.11769,0.109799 -0.280205,0.192548 -0.341511,0.341373 -0.193432,0.469572 -0.0087,1.041654 0.512268,1.194811 0.656031,0.192873 1.707562,-0.515792 1.707562,-1.194811 0,-0.917009 -0.667832,-0.955855 -1.366049,-0.682749 -0.1911,0.07475 -0.431411,0.152781 -0.51227,0.341376 -0.210381,0.490693 0.101081,0.455165 0.284594,0.455165"
       id="path11258" />
    <path
       style="fill:#000000;fill-opacity:0;stroke:#000000;stroke-width:0.7;stroke-linecap:round;stroke-opacity:0.983906"
       d="m 97.587339,63.308457 c 0.51536,0.0049 0.880935,0.204663 1.422971,0.0569 0.204637,-0.05579 0.414094,-0.139788 0.569185,-0.28448 0.0013,-0.0011 0.486485,-0.615445 0.227676,-0.796539 -0.842951,-0.58983 -1.878319,0.715743 -1.878319,1.479288 0,0.198012 0.06316,0.402736 0.170754,0.568957 0.611791,0.945113 1.465993,0.02297 1.992164,-0.455165"
       id="path11260" />
    <path
       style="fill:#000000;fill-opacity:0;stroke:#000000;stroke-width:0.7;stroke-linecap:round;stroke-opacity:0.983906"
       d="m 100.88863,62.739499 c 0.13048,0.570934 0.11465,1.07696 0,1.649976 -0.046,0.230034 -0.17076,0.448157 -0.17076,0.68275 0,0.01897 0.0453,0.01497 0.0569,0 0.12599,-0.161925 0.24973,-0.32857 0.34151,-0.512062 0.38771,-0.775107 0.63683,-1.614516 1.02454,-2.389624 0.036,-0.07197 0.0914,-0.157458 0.17076,-0.170685 0.29957,-0.04991 0.45759,0.830366 0.62611,0.967227 0.22477,0.182562 0.45279,0.417729 0.73994,0.455168 0.3787,0.04938 1.25221,-0.838777 1.25221,-1.25171 0,-0.02683 -0.0463,0.03224 -0.0569,0.0569 -0.0473,0.110247 -0.0951,0.22289 -0.11383,0.341373 -0.0833,0.527191 -0.13465,0.753232 0.11383,1.194811 0.19171,0.340667 0.7653,1.127308 1.1953,0.625853 0.18322,-0.213674 0.11699,-0.442555 0.0569,-0.682746"
       id="path11262" />
    <path
       style="fill:#000000;fill-opacity:0;stroke:#000000;stroke-width:0.7;stroke-linecap:round;stroke-opacity:0.983906"
       d="m 110.33715,63.592934 c -0.0198,-0.237437 -0.17019,-0.95822 0.11383,-1.194811 0.0729,-0.0607 0.1578,0.133634 0.17076,0.227584 0.0649,0.470056 0.0313,0.948577 0.0569,1.422395 0.0123,0.228039 0.0406,0.454956 0.0569,0.682749 0.003,0.03783 -0.0228,0.14413 0,0.11379 0.0764,-0.101772 0.10699,-0.231275 0.17076,-0.341374 0.0911,-0.157358 0.77433,-1.269044 0.91069,-1.422394 0.16144,-0.181539 0.39738,-0.283419 0.56919,-0.455166"
       id="path11264" />
    <path
       style="fill:#000000;fill-opacity:0;stroke:#000000;stroke-width:0.7;stroke-linecap:round;stroke-opacity:0.983906"
       d="m 112.89849,62.739499 c 0.13281,0.132758 0.25506,0.277001 0.39843,0.39827 1.23658,1.045914 2.03874,-0.972 1.30914,-1.308603 -0.96249,-0.444042 -2.00211,0.724638 -1.70757,1.649979 0.0656,0.206081 0.24548,0.359164 0.39843,0.512058 0.75297,0.752669 1.73254,0.122794 1.08146,-0.853434"
       id="path11266" />
    <path
       style="fill:#000000;fill-opacity:0;stroke:#000000;stroke-width:0.7;stroke-linecap:round;stroke-opacity:0.983906"
       d="m 94.855238,71.501444 c 0.373359,-1.517502 0.849913,-3.059803 1.309132,-4.551659 0.123512,-0.401251 0.279117,-0.792292 0.39843,-1.194811 0.03279,-0.110606 -0.02468,-0.259821 0.05692,-0.341376 0.06707,-0.06703 0,0.189653 0,0.28448 0,0.09483 0.01254,0.190484 0,0.28448 -0.06349,0.475951 -0.148704,0.948764 -0.227674,1.422392 -0.141671,0.849665 -0.329366,1.66437 -0.569193,2.503414 -0.126928,0.444071 -0.293121,0.876175 -0.455347,1.308602 -0.06561,0.174895 -0.158274,0.338633 -0.227674,0.512062 -0.007,0.01762 -0.01053,0.07267 0,0.0569 0.5897,-0.884198 0.204724,-0.515901 0.967621,-1.763768 0.184033,-0.301025 0.40705,-0.57685 0.626104,-0.853435 0.141812,-0.17906 0.310677,-0.335309 0.455351,-0.512064 0.02686,-0.03282 0.06721,-0.154935 0.05692,-0.113789 -0.214754,0.858684 -0.888447,1.43915 -1.422972,2.162037 -0.0964,0.130368 -0.853778,0.983528 -0.853778,1.251707 0,0.290224 0.574712,0.250388 0.853778,0.170688 0.474666,-0.135565 2.110547,-0.863256 2.50443,-1.194814 0.185835,-0.156429 0.303567,-0.379304 0.45535,-0.568954"
       id="path11268" />
    <path
       style="fill:#000000;fill-opacity:0;stroke:#000000;stroke-width:0.7;stroke-linecap:round;stroke-opacity:0.983906"
       d="m 99.921008,68.485969 c -0.744153,0.06233 -1.241332,1.280051 -0.284593,1.479291 0.379065,0.07894 1.120045,-0.08197 1.536805,0.0569 0.17402,0.05798 0.0284,0.344992 -0.39843,0.682749 -0.69876,0.552961 -1.546045,0.967227 -2.447507,0.967227 -0.115406,0 -0.252841,0.01696 -0.341511,-0.05689 -0.266962,-0.222377 0.236794,-0.314785 0.569185,-0.512064 0.425413,-0.252486 0.843084,-0.518445 1.252214,-0.796541 0.06656,-0.04524 0.11384,-0.113789 0.170757,-0.170685"
       id="path11270" />
    <path
       style="fill:#000000;fill-opacity:0;stroke:#000000;stroke-width:0.7;stroke-linecap:round;stroke-opacity:0.983906"
       d="m 102.76695,69.225614 c -0.013,0.571349 -0.0335,1.12793 0.22767,1.649976 0.0424,0.08482 0.17076,0.322424 0.17076,0.227584 0,-0.05997 -0.0484,-0.111315 -0.0569,-0.170688 -0.0296,-0.20737 -0.0324,-0.417809 -0.0569,-0.625853 -0.0135,-0.11457 -0.038,-0.227581 -0.0569,-0.341373"
       id="path11272" />
    <path
       style="fill:#000000;fill-opacity:0;stroke:#000000;stroke-width:0.7;stroke-linecap:round;stroke-opacity:0.983906"
       d="m 102.48235,67.917012 c 1.13429,-0.809869 -0.2783,0.106428 0.79687,-0.341374 0.11213,-0.0467 0.18973,-0.151722 0.28459,-0.227581"
       id="path11274" />
    <path
       style="fill:#000000;fill-opacity:0;stroke:#000000;stroke-width:0.7;stroke-linecap:round;stroke-opacity:0.983906"
       d="m 105.0437,68.201492 c 0,-0.704991 -0.0202,-0.313677 0.28459,-1.593083 0.0188,-0.07884 0.3256,-1.4438 0.51227,-1.59308 0.0755,-0.0604 0.0611,0.187865 0.0569,0.28448 -0.0149,0.343151 -0.0652,0.684101 -0.11384,1.024122 -0.13823,0.967222 -0.74117,3.427582 -0.51226,4.380974 0.17785,0.74077 0.90161,-0.138039 0.96761,-0.227584 0.11749,-0.159385 0.11384,-0.379304 0.17076,-0.568957"
       id="path11276" />
    <path
       style="fill:#000000;fill-opacity:0;stroke:#000000;stroke-width:0.7;stroke-linecap:round;stroke-opacity:0.983906"
       d="m 106.92202,68.315284 c 0.73626,0.429312 0.75623,0.533825 1.70756,0.625853 0.24623,0.02381 0.50526,0.0213 0.73995,-0.0569 0.18897,-0.06297 0.83605,-0.586682 0.51227,-0.910331 -0.65419,-0.653923 -1.58993,0.148685 -1.87832,0.739643 -0.21059,0.431525 -0.2147,0.942403 -0.22768,1.422395 -0.006,0.234508 0.0484,0.482597 0.17076,0.682749 0.62467,1.021776 1.98586,-0.385686 2.27675,-0.967229"
       id="path11278" />
    <path
       style="fill:#000000;fill-opacity:0;stroke:#000000;stroke-width:0.7;stroke-linecap:round;stroke-opacity:0.983906"
       d="m 110.45098,69.453198 c 0.4391,0.178594 0.3363,1.518052 0.51227,1.649976 0.0547,0.04103 0.132,-0.05743 0.17076,-0.113789 0.5278,-0.767395 0.46582,-0.807379 0.68302,-1.706875 0.0821,-0.339936 0.0978,-0.699444 0.22768,-1.024122 0.0446,-0.111366 0.0728,0.22865 0.11384,0.341376 0.11401,0.313391 0.24838,0.412167 0.62611,0.341373 0.29855,-0.05596 0.68458,-0.412483 0.91069,-0.568957 0.091,-0.06295 0.18565,-0.121235 0.2846,-0.170688 0.017,-0.0085 0.0629,-0.01799 0.0569,0 -0.25002,0.749718 -1.06551,1.946547 0.17075,2.332725 0.32779,0.102391 1.37689,-0.526629 0.85379,-0.853437 -0.13269,-0.08289 -0.31541,-0.04385 -0.45535,-0.11379"
       id="path11280" />
  </g>
</svg>
