<?xml version="1.0" encoding="UTF-8" standalone="no"?>
<!-- Created with Inkscape (http://www.inkscape.org/) -->

<svg
   width="77.930649mm"
   height="48.486847mm"
   viewBox="0 0 77.930649 48.486847"
   version="1.1"
   id="svg5"
   inkscape:version="1.1.2 (0a00cf5339, 2022-02-04)"
   sodipodi:docname="kök-çeşitleri.svg"
   xmlns:inkscape="http://www.inkscape.org/namespaces/inkscape"
   xmlns:sodipodi="http://sodipodi.sourceforge.net/DTD/sodipodi-0.dtd"
   xmlns="http://www.w3.org/2000/svg"
   xmlns:svg="http://www.w3.org/2000/svg">
  <sodipodi:namedview
     id="namedview7"
     pagecolor="#ffffff"
     bordercolor="#999999"
     borderopacity="1"
     inkscape:pageshadow="0"
     inkscape:pageopacity="0"
     inkscape:pagecheckerboard="0"
     inkscape:document-units="mm"
     showgrid="true"
     inkscape:zoom="3.2807824"
     inkscape:cx="194.0086"
     inkscape:cy="97.385306"
     inkscape:window-width="1916"
     inkscape:window-height="1033"
     inkscape:window-x="0"
     inkscape:window-y="23"
     inkscape:window-maximized="1"
     inkscape:current-layer="layer1">
    <inkscape:grid
       type="xygrid"
       id="grid824"
       originx="-33.568666"
       originy="-73.604676" />
  </sodipodi:namedview>
  <defs
     id="defs2" />
  <g
     inkscape:label="Layer 1"
     inkscape:groupmode="layer"
     id="layer1"
     transform="translate(-33.568667,-73.604674)">
    <path
       style="fill:#ff3f00;fill-opacity:0;stroke:#050404;stroke-width:1.18807;stroke-linecap:round"
       d="M 34.162702,106.06175 H 110.90528"
       id="path4974" />
    <path
       style="fill:#ff3f00;fill-opacity:0;stroke:#050404;stroke-width:3.3945;stroke-linecap:square;stroke-miterlimit:4;stroke-dasharray:none"
       d="M 55.568977,87.450258 55.450729,104.47129"
       id="path4976" />
    <path
       style="fill:#ff3f00;fill-opacity:0;stroke:#050404;stroke-width:3.3945;stroke-linecap:square;stroke-miterlimit:4;stroke-dasharray:none"
       d="M 89.534752,87.450258 89.416504,104.47129"
       id="path4978" />
    <path
       style="fill:#ff3f00;fill-opacity:0;stroke:#050404;stroke-width:0.848623;stroke-linecap:round;stroke-miterlimit:4;stroke-dasharray:none"
       d="m 55.127054,106.22241 c -5.317832,3.81536 -10.502843,3.13146 -14.646598,9.133"
       id="path5340"
       sodipodi:nodetypes="cc" />
    <path
       style="fill:#ff3f00;fill-opacity:0;stroke:#050404;stroke-width:0.848623;stroke-linecap:round;stroke-miterlimit:4;stroke-dasharray:none"
       d="m 56.033746,106.1527 c -1.687057,4.02253 -1.572664,9.65616 -3.975503,13.31602"
       id="path5342"
       sodipodi:nodetypes="cc" />
    <path
       style="fill:#ff3f00;fill-opacity:0;stroke:#050404;stroke-width:0.848623;stroke-linecap:round;stroke-miterlimit:4;stroke-dasharray:none"
       d="m 54.987557,105.66468 c -0.958572,5.19149 -8.946579,8.22473 -11.159308,13.10686"
       id="path5344"
       sodipodi:nodetypes="cc" />
    <path
       style="fill:#ff3f00;fill-opacity:0;stroke:#050404;stroke-width:0.848623;stroke-linecap:round;stroke-miterlimit:4;stroke-dasharray:none"
       d="m 56.173238,106.29213 c 0.349552,5.41957 3.2952,7.64429 3.138556,13.24632"
       id="path5346"
       sodipodi:nodetypes="cc" />
    <path
       style="fill:#ff3f00;fill-opacity:0;stroke:#050404;stroke-width:0.848623;stroke-linecap:round;stroke-miterlimit:4;stroke-dasharray:none"
       d="m 56.521963,105.24637 c 0.760795,7.13381 9.256045,2.18619 7.881267,11.92168"
       id="path5348"
       sodipodi:nodetypes="cc" />
    <path
       style="fill:#ff3f00;fill-opacity:0;stroke:#050404;stroke-width:0.848623;stroke-linecap:round;stroke-miterlimit:4;stroke-dasharray:none"
       d="m 56.591706,106.36184 c 5.297377,3.67364 11.67146,2.77396 11.856772,7.18091"
       id="path6278"
       sodipodi:nodetypes="cc" />
    <path
       style="color:#000000;fill:#ff3f00;fill-opacity:0;stroke-width:1.69725;-inkscape-stroke:none"
       d="m 89.461301,105.3858 -0.139496,14.66924"
       id="path7083" />
    <path
       style="color:#000000;fill:#050404;stroke-width:1.69725;-inkscape-stroke:none"
       d="m 88.613424,105.37764 0.883823,16.71388 0.813426,-16.69691 z"
       id="path7085"
       sodipodi:nodetypes="cccc" />
    <path
       style="color:#000000;fill:#050404;stroke-width:0.654262;-inkscape-stroke:none"
       d="m 89.082365,108.34402 -2.000342,6.13401 2.608432,-5.89251 z"
       id="path7334"
       sodipodi:nodetypes="cccc" />
    <path
       style="color:#000000;fill:#050404;stroke-width:0.653441;stroke-miterlimit:4;stroke-dasharray:none"
       d="m 89.868219,113.49018 2.000341,6.13401 -2.608432,-5.89251 z"
       id="path7419"
       sodipodi:nodetypes="cccc" />
    <path
       style="color:#000000;fill:#050404;stroke-width:0.654262;-inkscape-stroke:none"
       d="m 89.148369,111.31297 -2.000341,6.13401 2.608432,-5.89251 z"
       id="path7421"
       sodipodi:nodetypes="cccc" />
    <path
       style="color:#000000;fill:#050404;stroke-width:0.653441;stroke-miterlimit:4;stroke-dasharray:none"
       d="m 89.967224,108.40999 2.000342,6.13401 -2.608432,-5.89251 z"
       id="path7423"
       sodipodi:nodetypes="cccc" />
    <path
       style="color:#000000;fill:#050404;stroke-width:0.654262;-inkscape-stroke:none"
       d="m 88.686348,105.73795 -2.000342,6.13401 2.608432,-5.89251 z"
       id="path7425"
       sodipodi:nodetypes="cccc" />
    <path
       style="fill:#ff3f00;fill-opacity:0;stroke:#050404;stroke-width:0.7;stroke-linecap:round;stroke-miterlimit:4;stroke-dasharray:none;stroke-dashoffset:0"
       d="m 82.101321,76.866397 c 0.218427,-0.655008 0.436851,-1.310015 0.655278,-1.965023 0.0624,-0.249529 0.113281,-0.502224 0.187216,-0.748583 0.02006,-0.0668 0.09361,-0.117393 0.09361,-0.187143 0,-0.04412 -0.0829,0.05077 -0.09361,0.09357 -0.05351,0.213963 -0.07269,0.435446 -0.09361,0.655005 -0.144512,1.516777 -0.261813,2.992837 -0.561662,4.491482 -0.05642,0.281985 -0.11153,0.564724 -0.187225,0.842156 -0.02961,0.108524 -0.266874,0.29877 -0.280831,0.187145 -0.114054,-0.912064 1.144661,-3.368612 2.246654,-3.368612 0.536903,0 -0.186809,1.309412 -0.187225,1.310013 -0.15072,0.21762 -0.359545,0.390488 -0.56166,0.561438 -0.310586,0.262697 -0.759124,0.540546 -1.123328,0.74858 -0.06058,0.0346 -0.187217,0.02381 -0.187217,0.09357 0,0.1427 0.560396,0.373975 0.56166,0.37429 0.657249,0.164245 0.910688,0.05355 1.591379,0.09357 0.510773,0.03003 0.98992,0.187145 1.497769,0.187145"
       id="path7595" />
    <path
       style="fill:#ff3f00;fill-opacity:0;stroke:#050404;stroke-width:0.7;stroke-linecap:round;stroke-miterlimit:4;stroke-dasharray:none;stroke-dashoffset:0"
       d="m 86.781845,79.205708 c 0.941859,0.570323 1.274249,-0.918541 1.029716,-1.590731 -0.67646,-1.85951 -2.551131,0.537795 -1.123325,1.965024 0.484515,0.48432 1.210913,-0.984068 1.310544,-1.216443 0.08948,-0.208706 0.115388,-0.439592 0.187225,-0.655011 0.02207,-0.06617 0.163359,-0.187142 0.09361,-0.187142 -0.413982,0 -0.480126,1.83524 -0.374443,2.152168 2.49e-4,7.94e-4 0.143851,0.56637 0.374443,0.374291 0.153477,-0.127847 0.252622,-0.30956 0.374441,-0.467863 0.574784,-0.746916 0.428535,-0.482428 0.65527,-0.935726"
       id="path7597" />
    <path
       style="fill:#ff3f00;fill-opacity:0;stroke:#050404;stroke-width:0.7;stroke-linecap:round;stroke-miterlimit:4;stroke-dasharray:none;stroke-dashoffset:0"
       d="m 89.777378,77.147112 c 0.410078,-0.27587 1.757553,-0.54148 1.96582,0.187148 0.222708,0.77914 -1.953281,1.5259 -1.404154,1.965023 0.496324,0.396902 2.483625,0.236887 1.965814,-0.280717"
       id="path7599" />
    <path
       style="fill:#ff3f00;fill-opacity:0;stroke:#050404;stroke-width:0.7;stroke-linecap:round;stroke-miterlimit:4;stroke-dasharray:none;stroke-dashoffset:0"
       d="m 89.964603,78.737848 c 0.83435,-0.44631 1.693947,-0.561438 2.621089,-0.561438"
       id="path7601" />
    <path
       style="fill:#ff3f00;fill-opacity:0;stroke:#050404;stroke-width:0.7;stroke-linecap:round;stroke-miterlimit:4;stroke-dasharray:none;stroke-dashoffset:0"
       d="m 94.270681,77.240687 c -0.300326,0.633344 -0.298948,1.29495 -0.187225,1.965021 0.0051,0.03077 -0.02207,0.115628 0,0.09358 0.299553,-0.299426 0.280834,-0.238273 0.280834,-0.467863"
       id="path7603" />
    <path
       style="fill:#ff3f00;fill-opacity:0;stroke:#050404;stroke-width:0.7;stroke-linecap:round;stroke-miterlimit:4;stroke-dasharray:none;stroke-dashoffset:0"
       d="m 96.798163,75.743527 c 0,-0.770179 -0.02207,-0.19785 0.09361,-1.122873 0.0039,-0.03095 0.0044,-0.124447 0,-0.09357 -0.142555,0.997487 -0.2794,2.004277 -0.468053,2.994321 -0.04815,0.252666 -0.136756,0.496366 -0.187217,0.74858 -0.01225,0.06117 -0.02791,0.242935 0,0.187145 0.426715,-0.853101 -0.135768,-0.375531 0.65527,-1.310018 0.1768,-0.208862 1.417214,-1.048869 1.029716,-0.467863 -0.569593,0.854044 -1.660499,1.343105 -2.153044,2.245744 -0.173493,0.317945 0.399391,0.367427 0.468058,0.37429 0.373137,0.0373 2.059424,-0.324474 2.059424,0 0,0.175218 -0.495207,0.467863 -0.65527,0.467863"
       id="path7605" />
    <path
       style="fill:#ff3f00;fill-opacity:0;stroke:#050404;stroke-width:0.7;stroke-linecap:round;stroke-miterlimit:4;stroke-dasharray:none;stroke-dashoffset:0"
       d="m 92.117642,83.322902 c 0.09853,-1.003733 0.83416,-1.829855 1.02971,-2.807176 0.04106,-0.205184 -0.214632,0.362929 -0.280826,0.561435 -0.122052,0.366004 -0.158781,0.756865 -0.280834,1.122871 -0.128278,0.38468 -0.413239,0.721087 -0.46805,1.12287 -0.043,0.315172 0.167367,0.618258 0.187216,0.935728 0.01183,0.189357 -0.09361,0.371706 -0.09361,0.561433 0,0.224949 0.278628,-0.35791 0.374441,-0.561433 0.423291,-0.899128 0.877724,-1.906664 1.591379,-2.620033 0.0312,-0.03119 -0.07091,0.05575 -0.09361,0.09358 -0.07179,0.119605 -0.112302,0.256609 -0.187216,0.374287 -0.453028,0.711613 -1.001483,1.376474 -1.497772,2.058596 -0.09177,0.126125 -0.183367,0.252511 -0.280826,0.37429 -0.02757,0.03445 -0.137729,0.09357 -0.09361,0.09357 0.237622,0 0.427662,-0.212463 0.65527,-0.280718 0.573394,-0.171947 1.371092,-0.306046 1.965822,-0.187145 0.08478,0.01696 0.127858,0.221382 0.187217,0.280718"
       id="path7607" />
    <path
       style="fill:#ff3f00;fill-opacity:0;stroke:#050404;stroke-width:0.7;stroke-linecap:round;stroke-miterlimit:4;stroke-dasharray:none;stroke-dashoffset:0"
       d="m 95.581225,84.071483 c 0.516374,-0.783596 1.074717,0.234532 1.497772,0.09357 0.75189,-0.250528 0.541364,-1.957646 -0.468058,-1.590733 -0.805752,0.292881 -0.707152,1.102297 -0.374436,1.684308 0.05582,0.09764 0.08278,0.238959 0.187217,0.280715 0.315465,0.126135 1.483957,-1.230249 1.029713,-1.684305 -0.199734,-0.199652 -0.614373,0.01363 -0.936104,-0.09357"
       id="path7609" />
    <path
       style="fill:#ff3f00;fill-opacity:0;stroke:#050404;stroke-width:0.7;stroke-linecap:round;stroke-miterlimit:4;stroke-dasharray:none;stroke-dashoffset:0"
       d="m 95.955669,81.451452 c 0.362667,-0.295363 0.400301,-0.280718 0.748885,-0.280718"
       id="path7611" />
    <path
       style="fill:#ff3f00;fill-opacity:0;stroke:#050404;stroke-width:0.7;stroke-linecap:round;stroke-miterlimit:4;stroke-dasharray:none;stroke-dashoffset:0"
       d="m 99.606472,80.141436 c -0.135628,2.440347 0.05828,0.983417 -0.56166,3.462184 -0.100968,0.403712 -0.04992,0.870233 -0.280829,1.216443 -0.02447,0.03671 -0.09361,-0.04945 -0.09361,-0.09357 0,-0.48628 0.184986,-0.774552 0.374444,-1.216445"
       id="path7613" />
    <path
       style="fill:#ff3f00;fill-opacity:0;stroke:#050404;stroke-width:0.7;stroke-linecap:round;stroke-miterlimit:4;stroke-dasharray:none;stroke-dashoffset:0"
       d="m 100.07453,82.106459 c -0.45566,0.393518 -1.153742,0.870186 -1.310547,1.497161 -0.18311,0.732158 1.058259,-0.03252 1.497767,0.187148 0.23936,0.119631 0.16962,1.070245 0.37444,1.029295 0.38826,-0.07762 0.65293,-0.43589 1.02971,-0.561433"
       id="path7615" />
    <path
       style="fill:#ff3f00;fill-opacity:0;stroke:#050404;stroke-width:0.7;stroke-linecap:round;stroke-miterlimit:4;stroke-dasharray:none;stroke-dashoffset:0"
       d="m 50.273775,77.708547 c -0.249629,-0.06238 -0.495078,-0.229428 -0.748885,-0.187142 -0.215886,0.03597 -0.603853,0.519263 -0.374443,0.74858 0.425849,0.425678 0.894281,0.199094 1.216937,0.467863 0.107186,0.08929 0.18722,0.234789 0.18722,0.37429 0,1.546847 -2.696216,0.616847 -2.995533,-0.280718 -0.0099,-0.0296 0.0636,-0.0086 0.09361,0 0.189754,0.0542 0.368152,0.148458 0.561663,0.187146 0.786508,0.157236 0.777729,0.102819 1.497769,0"
       id="path7617" />
    <path
       style="fill:#ff3f00;fill-opacity:0;stroke:#050404;stroke-width:0.7;stroke-linecap:round;stroke-miterlimit:4;stroke-dasharray:none;stroke-dashoffset:0"
       d="m 52.614036,79.112138 c 0.103724,0.581573 1.155604,1.473502 1.497766,0.561435 0.500309,-1.333621 -1.131231,-2.116066 -1.497766,-1.310015 -0.177586,0.390533 -0.02183,1.827339 0.748882,1.49716 0.331901,-0.142187 1.134557,-1.403588 0.655275,-1.403588 -0.457301,0 -0.494075,1.777879 0.09361,1.777879 0.298485,0 1.258581,-1.258073 1.497767,-1.497161"
       id="path7619" />
    <path
       style="fill:#ff3f00;fill-opacity:0;stroke:#050404;stroke-width:0.7;stroke-linecap:round;stroke-miterlimit:4;stroke-dasharray:none;stroke-dashoffset:0"
       d="m 57.668995,78.269985 c -0.187219,-0.155953 -0.335409,-0.377399 -0.56166,-0.467862 -0.651587,-0.26053 -1.616268,1.365715 -1.684988,1.777878 -0.108262,0.649319 1.36231,0.232942 1.591379,0.187145 0.156016,-0.03119 0.31111,-0.06743 0.468053,-0.09357 0.03078,-0.0051 0.09361,0.0312 0.09361,0 0,-0.09867 -0.21105,0.02381 -0.280834,0.09357 -0.223358,0.223271 -0.357227,0.850757 0,1.029298 0.46241,0.231113 0.98161,-0.745977 1.123326,-1.029298"
       id="path7621" />
    <path
       style="fill:#ff3f00;fill-opacity:0;stroke:#050404;stroke-width:0.7;stroke-linecap:round;stroke-miterlimit:4;stroke-dasharray:none;stroke-dashoffset:0"
       d="m 58.885933,79.580001 c 0.67872,0.319048 1.216935,0.162605 1.216935,-0.748581 0,-1.456237 -2.262065,-0.528282 -1.216935,0.748581 0.94461,1.154057 1.722364,-1.141722 1.40416,-1.777878 -0.01394,-0.0279 0.0086,0.06358 0,0.09357 -0.05422,0.18968 -0.154779,0.366845 -0.187225,0.561435 -0.05685,0.340982 -0.01942,1.000199 0.187225,1.310016 0.110844,0.166198 0.343228,-0.218321 0.468053,-0.37429 0.461687,-0.576874 0.4045,-0.651576 0.65527,-1.403588"
       id="path7623" />
    <path
       style="fill:#ff3f00;fill-opacity:0;stroke:#050404;stroke-width:0.7;stroke-linecap:round;stroke-miterlimit:4;stroke-dasharray:none;stroke-dashoffset:0"
       d="m 61.975081,75.275664 c 0.01786,0.999347 -0.07689,2.001745 -0.187224,2.994321 -0.03101,0.279001 -0.251101,0.716651 0,0.842153 0.115863,0.05791 0.368443,-0.920303 0.374443,-0.935728 0.207412,-0.53313 0.51271,-1.261073 0.936104,-1.684303 0.09866,-0.09862 -0.119451,0.252357 -0.187219,0.37429 -0.283742,0.510527 -1.11111,1.676223 -1.029719,2.245741 0.11016,0.770811 1.626426,0.232627 2.05943,0.280718 0.158133,0.01757 0.325733,0.02244 0.468053,0.09357 0.03946,0.01971 0.04949,0.09357 0.09361,0.09357 0.09357,0 0,-0.187145 0,-0.280718"
       id="path7625" />
    <path
       style="fill:#ff3f00;fill-opacity:0;stroke:#050404;stroke-width:0.7;stroke-linecap:round;stroke-miterlimit:4;stroke-dasharray:none;stroke-dashoffset:0"
       d="m 58.137049,81.077161 c 0,-0.155585 0.08372,-0.57132 -0.09361,-0.74858 -0.02207,-0.02204 -0.0039,0.06262 0,0.09357 0.02737,0.21885 0.08359,0.434681 0.09361,0.655007 0.02125,0.467379 0.01463,0.935953 0,1.403589 -0.01659,0.530902 -0.037,1.062595 -0.09361,1.590733 -0.06419,0.598863 -0.266324,1.216445 -0.187219,1.216445 0.146523,0 0.43657,-3.103424 1.123323,-3.275041 0.296756,-0.07416 0.190923,0.423492 0.187224,0.467863 -0.05645,0.677171 -0.21441,1.105783 -0.561663,1.684305 -0.709236,1.181587 0.03158,-0.03158 -0.468055,0.467863 -0.04934,0.04932 0.122441,-0.06767 0.187224,-0.09357 0.404839,-0.161869 0.871471,-0.423973 1.310545,-0.467862 0.141377,-0.01413 0.57681,-0.07843 0.748884,0.09357 0.0534,0.05337 0.243893,0.3571 0.280829,0.467863 0.0099,0.02959 -0.02959,0.103434 0,0.09358 0.412732,-0.13752 0.276093,-0.367183 0.468056,-0.65501 0.13076,-0.196059 1.123323,0.918252 1.123323,-0.467863 0,-0.657452 -0.661535,-1.083334 -1.123323,-0.467863 -0.556937,0.742284 -0.25767,2.102004 0.748879,2.245741 0.411359,0.05874 0.631918,-0.959437 0.655275,-1.122868 0.03089,-0.21614 0.03907,-0.440197 0,-0.65501 -0.06388,-0.351205 -0.21871,-0.467863 -0.56166,-0.467863 -0.809495,0 -0.791035,1.071436 -0.09361,0.374291"
       id="path7627" />
    <path
       style="fill:#ff3f00;fill-opacity:0;stroke:#050404;stroke-width:0.7;stroke-linecap:round;stroke-miterlimit:4;stroke-dasharray:none;stroke-dashoffset:0"
       d="m 61.507025,82.012887 c 0.0045,-0.486151 0.19839,-0.655008 0.655275,-0.655008 0.218425,0.03119 0.436851,0.06238 0.655276,0.09357"
       id="path7629" />
    <path
       style="fill:#ff3f00;fill-opacity:0;stroke:#050404;stroke-width:0.7;stroke-linecap:round;stroke-miterlimit:4;stroke-dasharray:none;stroke-dashoffset:0"
       d="m 64.408949,81.170734 c 0.0312,-0.280718 0.374332,-0.810948 0.09361,-0.842153 -0.130982,-0.01455 -0.08338,1.389706 -0.09361,1.497161 -0.303829,3.188949 -0.05436,-0.707766 -0.468053,2.807176 -0.0052,0.04382 0.07722,0.134535 0.09361,0.09358 0.07049,-0.176149 0.04006,-0.379426 0.09361,-0.561438 0.208034,-0.707022 0.466971,-1.565989 0.936104,-2.152168 0.02757,-0.03445 0.07387,-0.13303 0.09361,-0.09357 0.309722,0.619199 -1.233537,2.322724 -1.123328,2.432886 0.0312,0.03119 0.05265,-0.07719 0.09361,-0.09357 0.119459,-0.04776 0.250738,-0.05824 0.374444,-0.09358 0.325345,-0.09292 0.785174,-0.190148 1.12332,-0.09357 0.665229,0.189989 0.254704,1.059219 0.748885,0.935725 0.06767,-0.01691 0.03557,-0.148463 0.09361,-0.187145 0.139824,-0.09318 0.325549,-0.09812 0.468053,-0.187145 0.484638,-0.302776 0.10563,-0.280718 0.374441,-0.280718"
       id="path7631" />
  </g>
</svg>
