<?xml version="1.0" encoding="UTF-8" standalone="no"?>
<!-- Created with Inkscape (http://www.inkscape.org/) -->

<svg
   width="75.561081mm"
   height="33.105907mm"
   viewBox="0 0 75.561081 33.105907"
   version="1.1"
   id="svg5"
   inkscape:version="1.1.2 (0a00cf5339, 2022-02-04)"
   sodipodi:docname="lentisel.svg"
   xmlns:inkscape="http://www.inkscape.org/namespaces/inkscape"
   xmlns:sodipodi="http://sodipodi.sourceforge.net/DTD/sodipodi-0.dtd"
   xmlns="http://www.w3.org/2000/svg"
   xmlns:svg="http://www.w3.org/2000/svg">
  <sodipodi:namedview
     id="namedview7"
     pagecolor="#ffffff"
     bordercolor="#999999"
     borderopacity="1"
     inkscape:pageshadow="0"
     inkscape:pageopacity="0"
     inkscape:pagecheckerboard="0"
     inkscape:document-units="mm"
     showgrid="true"
     inkscape:zoom="1.1157727"
     inkscape:cx="46.156355"
     inkscape:cy="19.269158"
     inkscape:window-width="1916"
     inkscape:window-height="1033"
     inkscape:window-x="0"
     inkscape:window-y="23"
     inkscape:window-maximized="1"
     inkscape:current-layer="layer1">
    <inkscape:grid
       type="xygrid"
       id="grid824"
       originx="-82.504737"
       originy="-82.46311" />
  </sodipodi:namedview>
  <defs
     id="defs2">
    <marker
       style="overflow:visible"
       id="Arrow2Lend"
       refX="0"
       refY="0"
       orient="auto"
       inkscape:stockid="Arrow2Lend"
       inkscape:isstock="true">
      <path
         transform="matrix(-1.1,0,0,-1.1,-1.1,0)"
         d="M 8.7185878,4.0337352 -2.2072895,0.01601326 8.7185884,-4.0017078 c -1.7454984,2.3720609 -1.7354408,5.6174519 -6e-7,8.035443 z"
         style="fill:context-stroke;fill-rule:evenodd;stroke:context-stroke;stroke-width:0.625;stroke-linejoin:round"
         id="path1904" />
    </marker>
    <marker
       style="overflow:visible"
       id="Arrow1Lstart"
       refX="0"
       refY="0"
       orient="auto"
       inkscape:stockid="Arrow1Lstart"
       inkscape:isstock="true">
      <path
         transform="matrix(0.8,0,0,0.8,10,0)"
         style="fill:context-stroke;fill-rule:evenodd;stroke:context-stroke;stroke-width:1pt"
         d="M 0,0 5,-5 -12.5,0 5,5 Z"
         id="path1883" />
    </marker>
  </defs>
  <g
     inkscape:label="Layer 1"
     inkscape:groupmode="layer"
     id="layer1"
     transform="translate(-82.504729,-82.463103)">
    <path
       style="fill:#000000;fill-opacity:0;stroke:#000000;stroke-width:4;stroke-linecap:square;stroke-miterlimit:4;stroke-dasharray:none;stroke-opacity:1"
       d="M 84.741892,109.62249 C 105.17811,107.01362 113.19624,97.05021 126.01533,85.288915"
       id="path861"
       sodipodi:nodetypes="cc" />
    <path
       style="fill:#000000;fill-opacity:0;stroke:#000000;stroke-width:0.7;stroke-linecap:square;stroke-miterlimit:4;stroke-dasharray:none;stroke-opacity:1"
       d="m 116.69599,95.778684 10.6262,4.255566 -18.35744,1.36179"
       id="path3838" />
    <path
       style="fill:#000000;fill-opacity:0;stroke:#000000;stroke-width:0.7;stroke-linecap:round;stroke-miterlimit:4;stroke-dasharray:none;stroke-opacity:1"
       d="m 123.27553,97.749806 c 2.21994,-1.186037 4.83519,-2.008682 7.32254,-2.349074 1.24461,-0.170323 2.49761,-0.272354 3.74642,-0.408533"
       id="path4152" />
    <path
       style="fill:#000000;fill-opacity:0;stroke:#000000;stroke-width:0.7;stroke-linecap:round;stroke-miterlimit:4;stroke-dasharray:none;stroke-opacity:1"
       d="m 133.66332,94.24322 c 0.11353,-0.01135 0.2271,-0.04578 0.34059,-0.03404 0.21925,0.02267 0.44296,0.05304 0.64711,0.136178 0.11174,0.04551 0.21036,0.134855 0.27246,0.23831 0.34496,0.574694 -1.20712,1.094735 -1.49856,1.361781 -0.0251,0.02299 0,0.06809 0,0.102135"
       id="path4187" />
    <path
       style="fill:#000000;fill-opacity:0;stroke:#000000;stroke-width:0.7;stroke-linecap:round;stroke-miterlimit:4;stroke-dasharray:none;stroke-opacity:1"
       d="m 136.66641,95.230703 c 0.51274,0.06407 0.66063,0.162113 1.15798,-0.136179 0.25078,-0.150405 0.81708,-0.740642 0.30653,-1.021336 -0.31548,-0.17344 -0.75346,-0.03028 -1.02176,0.136178 -0.43887,0.272293 -0.9609,0.940144 -0.78334,1.49796 0.0393,0.123314 0.14167,0.220445 0.23841,0.306403 0.33236,0.295307 0.67296,0.324448 1.08987,0.272354"
       id="path4189" />
    <path
       style="fill:#000000;fill-opacity:0;stroke:#000000;stroke-width:0.7;stroke-linecap:round;stroke-miterlimit:4;stroke-dasharray:none;stroke-opacity:1"
       d="m 138.8802,94.379588 c 0.54639,0.454875 -0.0997,1.065253 0.0341,1.600095 0.006,0.02463 0.0274,-0.04361 0.034,-0.06809 0.0275,-0.100939 0.0388,-0.205963 0.0681,-0.306404 0.089,-0.304974 0.54992,-1.699318 0.91958,-1.73627 0.1445,-0.01445 0.20507,0.389843 0.20435,0.408536 -0.004,0.111516 -0.26054,1.169437 -0.13624,1.29369 0.27365,0.273535 1.03247,-0.474128 1.15798,-0.612801 0.0824,-0.09102 0.13927,-0.202308 0.20436,-0.306401 0.0891,-0.142433 0.14167,-0.303678 0.20435,-0.272357 0.0385,0.01924 -0.0596,0.204272 -0.10218,0.374492 -0.0639,0.255608 -0.21426,1.044175 0.23841,1.089424 0.13493,0.01349 0.35518,-0.126447 0.44276,-0.170222"
       id="path4191" />
    <path
       style="fill:#000000;fill-opacity:0;stroke:#000000;stroke-width:0.7;stroke-linecap:round;stroke-miterlimit:4;stroke-dasharray:none;stroke-opacity:1"
       d="m 143.17155,94.515767 c 0.0908,-0.03404 0.17654,-0.116515 0.27246,-0.102132 0.38591,0.05786 0.6471,0.44744 1.05581,0.476623 0.51724,0.03693 0.27516,-0.695447 0.0681,-0.885158 -0.44646,-0.409088 -1.14681,0.820682 -1.26016,1.05538 -0.0671,0.138997 -0.1144,0.289775 -0.13623,0.44258 -0.10881,0.761375 1.14981,0.168317 1.43045,0"
       id="path4193" />
    <path
       style="fill:#000000;fill-opacity:0;stroke:#000000;stroke-width:0.7;stroke-linecap:round;stroke-miterlimit:4;stroke-dasharray:none;stroke-opacity:1"
       d="m 145.35263,94.75408 c 0.13623,0.07944 0.34012,0.0963 0.4087,0.23831 0.10903,0.225742 0.0762,0.498422 0.0681,0.748982 -0.009,0.287306 -0.14966,0.368266 -0.17029,0.306401 -0.10398,-0.311795 0.26285,-1.554906 0.64711,-1.600094 0.21726,-0.02556 0.68512,0.19004 0.85145,0.23831 0.49054,0.142357 0.49653,0.127937 0.91958,0.170222"
       id="path4195" />
    <path
       style="fill:#000000;fill-opacity:0;stroke:#000000;stroke-width:0.7;stroke-linecap:round;stroke-miterlimit:4;stroke-dasharray:none;stroke-opacity:1"
       d="m 149.03093,95.230703 c 0.12488,0.05674 0.24856,0.116207 0.37464,0.170222 0.0507,0.02172 0.41993,0.195215 0.54494,0.170222 0.24606,-0.04919 0.36097,-0.604197 0.30652,-0.783023 -0.0477,-0.156589 -0.14724,-0.303123 -0.27247,-0.408536 -0.58885,-0.495675 -1.32043,0.28262 -1.26015,0.885159 0.009,0.09104 0.0573,0.191934 0.13623,0.238313 0.43434,0.255391 0.94177,-0.0033 1.26016,-0.306401 0.15156,-0.144291 0.33001,-0.423794 0.37464,-0.646846 0.005,-0.02487 -0.012,-0.08068 -0.0341,-0.06809 -0.0836,0.04777 -0.14498,0.128431 -0.20435,0.204266 -0.14559,0.18596 -0.28715,0.376264 -0.4087,0.578758 -0.32428,0.540255 -0.45724,1.02848 -0.68116,1.63414 -0.14077,0.380736 -0.27806,1.056976 -0.74929,1.191557 -0.22862,0.06529 -0.73801,-0.04938 -0.91957,-0.136179 -0.21683,-0.103655 -0.60338,-0.644718 -0.34059,-0.851111 0.18089,-0.142074 0.68497,-0.305581 0.88552,-0.374492 0.49984,-0.171749 0.98915,-0.371792 1.49856,-0.510667"
       id="path4197" />
    <path
       style="fill:#000000;fill-opacity:0;stroke:#000000;stroke-width:0.7;stroke-linecap:round;stroke-miterlimit:4;stroke-dasharray:none;stroke-opacity:1"
       d="m 150.90414,95.128571 c 0.67117,-0.309645 0.26325,-0.188627 1.15798,-0.238313 0.17041,-0.0095 0.34322,-0.0021 0.51088,-0.03405 0.70457,-0.134146 0.50392,-1.255855 -0.23841,-0.851111 -0.14815,0.08078 -0.27956,0.201046 -0.37464,0.340444 -0.16612,0.243544 -0.36214,1.161992 0.17029,1.191559 0.12924,0.0072 0.24976,-0.06809 0.37464,-0.102134"
       id="path4199" />
    <path
       style="fill:#000000;fill-opacity:0;stroke:#000000;stroke-width:0.7;stroke-linecap:round;stroke-miterlimit:4;stroke-dasharray:none;stroke-opacity:1"
       d="m 153.45851,94.720033 c 0.0681,0.124831 0.16452,0.23798 0.20435,0.374491 0.0414,0.142039 0.0488,0.295352 0.0341,0.442579 -0.0124,0.124119 -0.12583,0.282758 -0.13623,0.272357 -0.12039,-0.12034 -0.0334,-0.343752 0,-0.510667 0.084,-0.419655 0.41875,-1.165016 0.98769,-0.987292 0.29705,0.09279 0.3817,0.513185 0.4087,0.783023 0.0474,0.473419 -0.12297,0.746329 0.54493,0.612802"
       id="path4201" />
    <path
       style="fill:#000000;fill-opacity:0;stroke:#000000;stroke-width:0.7;stroke-linecap:round;stroke-miterlimit:4;stroke-dasharray:none;stroke-opacity:1"
       d="m 157.40928,94.379588 c -0.0795,0.05674 -0.1921,0.08426 -0.23841,0.170225 -0.22663,0.420725 0.54494,0.711796 0.54494,1.055378 0,0.32358 -1.45159,0.646848 -1.73698,0.646848"
       id="path4203" />
    <path
       style="fill:#000000;fill-opacity:0;stroke:#636363;stroke-width:0.7;stroke-linecap:round;stroke-miterlimit:4;stroke-dasharray:none;stroke-opacity:1"
       d="m 95.782399,107.72366 c 0.185314,-0.0927 -0.136321,0.0599 0.109294,-0.0219 0.0069,-0.002 -0.0052,-0.0169 0,-0.0219 0.0052,-0.005 0.02916,0 0.02186,0 -0.215646,0 -0.588653,-0.16285 -0.808773,-0.19665 -0.680596,-0.10467 -1.325705,0.001 -1.967288,0.24035 -0.253683,0.0946 -0.512585,0.18589 -0.743199,0.32775 -0.247115,0.152 -0.45175,0.36416 -0.677622,0.54624 1.795768,0.61876 3.144299,0.31359 4.065728,-0.87389 z"
       id="path4205"
       sodipodi:nodetypes="ccssccscc" />
    <path
       style="fill:#000000;fill-opacity:0;stroke:#636363;stroke-width:0.7;stroke-linecap:round;stroke-miterlimit:4;stroke-dasharray:none;stroke-opacity:1"
       d="m 92.984525,109.1659 c 0.04372,0.10925 0.118155,0.2108 0.131154,0.32775 0.01696,0.1527 -0.0259,0.30624 -0.04372,0.45884 -0.06003,0.5143 -0.304911,1.6267 -0.08744,2.11945 0.125733,0.28487 0.602208,0.39017 0.830636,0.41514 0.754753,0.0825 1.522338,-0.11394 2.229591,-0.34959"
       id="path4852" />
    <path
       style="fill:#000000;fill-opacity:0;stroke:#636363;stroke-width:0.7;stroke-linecap:round;stroke-miterlimit:4;stroke-dasharray:none;stroke-opacity:1"
       d="m 95.38899,111.46026 c 0.692248,0.0865 0.371641,0.003 1.027361,0.2622 0.08491,0.0336 0.628451,0.2264 0.786916,0.3496 0.01286,0.01 -0.02811,0.0172 -0.04372,0.0219 -0.130379,0.0391 -0.264639,0.0653 -0.393457,0.10925 -0.328689,0.11218 -0.691348,0.25195 -0.961787,0.48069 -0.180943,0.15305 -0.145396,0.16056 -0.06558,0.24035"
       id="path4854" />
    <path
       style="fill:#000000;fill-opacity:0;stroke:#636363;stroke-width:0.7;stroke-linecap:round;stroke-miterlimit:4;stroke-dasharray:none;stroke-opacity:1"
       d="m 98.782887,113.60155 c -0.06027,-0.009 -0.323805,-0.0252 -0.327882,-0.13109 -0.01524,-0.39588 0.720535,-1.28468 0.786916,-1.37655 0.255963,-0.35427 0.519192,-0.70333 0.786919,-1.04879 0.13311,-0.17178 0.28102,-0.3317 0.41531,-0.50255 0.0263,-0.0334 0.0917,-0.14278 0.0656,-0.10925 -0.49065,0.63058 -0.873882,1.35216 -1.245952,2.05389 -0.195323,0.36839 -0.388829,0.73799 -0.568325,1.11434 -0.06602,0.13843 -0.444764,0.8722 -0.393459,1.1799 0.01029,0.0618 0.09042,0.11238 0.153011,0.10925 0.335219,-0.0168 0.678527,-0.58341 0.852493,-0.80845 0.02853,-0.0369 0.05829,-0.0728 0.08743,-0.10925"
       id="path4856" />
    <path
       style="fill:#000000;fill-opacity:0;stroke:#636363;stroke-width:0.7;stroke-linecap:round;stroke-miterlimit:4;stroke-dasharray:none;stroke-opacity:1"
       d="m 99.569803,113.68895 c 0.394743,0.21458 0.858897,0.33305 1.311527,0.3059 0.1783,-0.0107 0.35685,-0.0479 0.52461,-0.10925 0.27043,-0.0989 0.79387,-0.47447 0.34974,-0.76474 -0.2599,-0.16987 -0.49997,-0.17201 -0.76506,-0.0219 -0.72531,0.41084 -0.74022,1.92444 0.34974,1.59505 0.20981,-0.0634 0.4125,-0.14969 0.61205,-0.24035 0.5202,-0.23636 1.01047,-0.52865 1.53011,-0.76475"
       id="path4858" />
    <path
       style="fill:#000000;fill-opacity:0;stroke:#636363;stroke-width:0.7;stroke-linecap:round;stroke-miterlimit:4;stroke-dasharray:none;stroke-opacity:1"
       d="m 103.46066,113.31751 c 0.11063,0.091 -0.42689,-0.33109 -0.52461,-0.1748 -0.0961,0.15363 -0.0766,0.85915 -0.0874,1.04879 -0.007,0.12383 -0.0111,0.24789 -0.0219,0.37145 -0.004,0.0441 0.003,0.0942 -0.0218,0.1311 -0.0128,0.0192 -0.0286,-0.0435 -0.0219,-0.0656 0.082,-0.26645 0.15616,-0.53894 0.28417,-0.7866 0.0627,-0.12126 0.62355,-0.83043 0.76506,-0.93954 0.26841,-0.20699 0.77916,-0.31288 1.07107,-0.0874 0.6737,0.52037 -0.21976,1.54106 0.34974,1.98834 0.0405,0.0318 0.10201,0.0146 0.15301,0.0219"
       id="path4860" />
    <path
       style="fill:#000000;fill-opacity:0;stroke:#636363;stroke-width:0.7;stroke-linecap:round;stroke-miterlimit:4;stroke-dasharray:none;stroke-opacity:1"
       d="m 106.04182,112.96791 c -0.0219,-0.0728 -0.0859,-0.14524 -0.0656,-0.2185 0.0567,-0.20401 0.19713,-0.37508 0.28416,-0.5681 0.48282,-1.07081 0.36733,-0.83935 0.69948,-1.92279 0.0425,-0.13875 0.0748,-0.28141 0.13115,-0.41515 0.006,-0.0134 0.0442,-0.0145 0.0437,0 -0.0189,0.60526 -0.14378,1.14997 -0.2623,1.74799 -0.17802,0.89819 -0.4133,1.7851 -0.56833,2.68754 -0.0421,0.24501 -0.0886,0.49537 -0.0656,0.7429 0.008,0.0827 0.0738,0.22154 0.15301,0.19665 0.40557,-0.12742 0.92223,-0.77669 1.18038,-1.0488 0.20919,-0.22052 0.44275,-0.41917 0.6339,-0.6555 0.0881,-0.10893 0.20942,-0.23191 0.19673,-0.37144 -0.008,-0.0877 -0.1603,-0.0728 -0.24045,-0.10925"
       id="path4862" />
    <path
       style="fill:#000000;fill-opacity:0;stroke:#636363;stroke-width:0.7;stroke-linecap:round;stroke-miterlimit:4;stroke-dasharray:none;stroke-opacity:1"
       d="m 105.32048,113.31751 c 0.0656,-0.0437 0.12212,-0.10575 0.19673,-0.13111 0.63765,-0.21671 1.29393,-0.33861 1.96729,-0.37144 0.2406,-0.0117 0.48089,0.0291 0.72134,0.0437"
       id="path4864" />
    <path
       style="fill:#000000;fill-opacity:0;stroke:#636363;stroke-width:0.7;stroke-linecap:round;stroke-miterlimit:4;stroke-dasharray:none;stroke-opacity:1"
       d="m 109.27692,112.96791 c 0.20934,0.43025 0.01,0.89176 0,1.33284 -0.007,0.32478 0.12627,0.41156 0.28416,0.1748"
       id="path4866" />
    <path
       style="fill:#000000;fill-opacity:0;stroke:#636363;stroke-width:0.7;stroke-linecap:round;stroke-miterlimit:4;stroke-dasharray:none;stroke-opacity:1"
       d="m 111.11306,112.39981 c 0.18697,-0.44593 -0.55331,0.2001 -0.4809,0.437 0.12226,0.39993 0.74744,0.47102 1.02737,0.58994 0.10235,0.0435 0.23441,0.0753 0.28416,0.1748 0.0351,0.0702 -0.0331,0.16192 -0.0874,0.2185 -0.47009,0.48948 -1.28731,0.70534 -1.94542,0.67735 -0.17989,-0.008 -0.3752,-0.22307 -0.30603,-0.41515 0.0419,-0.11631 0.16248,-0.18928 0.26231,-0.2622 0.0921,-0.0673 0.20401,-0.10196 0.30602,-0.15295"
       id="path4868" />
    <path
       style="fill:#000000;fill-opacity:0;stroke:#636363;stroke-width:0.7;stroke-linecap:round;stroke-miterlimit:4;stroke-dasharray:none;stroke-opacity:1"
       d="m 111.94369,113.2738 c 0.0802,-0.0291 0.15582,-0.0768 0.24045,-0.0874 0.0943,-0.0118 0.18931,0.0164 0.28416,0.0219 0.45427,0.026 0.5921,0.0636 1.04922,-0.10925 0.75042,-0.28382 -0.0161,-1.1532 -0.56833,-0.76475 -0.49194,0.34605 -0.43443,1.4331 -0.2623,1.9228 0.0369,0.10489 0.0754,0.23434 0.17487,0.28405 0.48485,0.24232 0.91112,-0.17994 1.24595,-0.45885"
       id="path4870" />
    <path
       style="fill:#000000;fill-opacity:0;stroke:#636363;stroke-width:0.7;stroke-linecap:round;stroke-miterlimit:4;stroke-dasharray:none;stroke-opacity:1"
       d="m 115.85641,109.71227 c -0.051,0.0437 -0.12403,0.0705 -0.15301,0.1311 -0.53305,1.11411 -0.59688,2.39197 -0.61205,3.60523 -0.002,0.1319 0.0273,0.26241 0.0437,0.3933 0.0168,0.13454 0.0547,0.16399 0,0.10925"
       id="path4872" />
    <path
       style="fill:#000000;fill-opacity:0;stroke:#636363;stroke-width:0.7;stroke-linecap:round;stroke-miterlimit:4;stroke-dasharray:none;stroke-opacity:1"
       d="m 109.03647,111.67876 c -0.15035,-0.12387 0.27082,-0.15295 0.17487,-0.15295"
       id="path4874" />
  </g>
</svg>
