<?xml version="1.0" encoding="UTF-8" standalone="no"?>
<!-- Created with Inkscape (http://www.inkscape.org/) -->

<svg
   width="166.55797mm"
   height="86.850304mm"
   viewBox="0 0 166.55797 86.850304"
   version="1.1"
   id="svg5283"
   inkscape:version="1.2.2 (b0a8486541, 2022-12-01)"
   sodipodi:docname="meristem-doku.svg"
   xmlns:inkscape="http://www.inkscape.org/namespaces/inkscape"
   xmlns:sodipodi="http://sodipodi.sourceforge.net/DTD/sodipodi-0.dtd"
   xmlns="http://www.w3.org/2000/svg"
   xmlns:svg="http://www.w3.org/2000/svg">
  <sodipodi:namedview
     id="namedview5285"
     pagecolor="#ffffff"
     bordercolor="#000000"
     borderopacity="0.25"
     inkscape:showpageshadow="2"
     inkscape:pageopacity="0.0"
     inkscape:pagecheckerboard="0"
     inkscape:deskcolor="#d1d1d1"
     inkscape:document-units="mm"
     showgrid="true"
     inkscape:zoom="1.3485931"
     inkscape:cx="381.5087"
     inkscape:cy="266.20335"
     inkscape:window-width="1920"
     inkscape:window-height="1080"
     inkscape:window-x="0"
     inkscape:window-y="0"
     inkscape:window-maximized="1"
     inkscape:current-layer="layer1">
    <inkscape:grid
       type="xygrid"
       id="grid7945"
       units="mm"
       spacingx="5"
       spacingy="5"
       empspacing="1"
       originx="-35.972916"
       originy="-14.494294" />
  </sodipodi:namedview>
  <defs
     id="defs5280" />
  <g
     inkscape:label="Layer 1"
     inkscape:groupmode="layer"
     id="layer1"
     transform="translate(-35.972916,-14.494294)">
    <path
       style="fill:#ff0075;fill-opacity:0;stroke:#ff2400;stroke-width:0.7;stroke-linecap:round;stroke-linejoin:round;stroke-dasharray:none"
       d="M 55.364809,100.9946 C 54.235009,80.987895 13.163386,58.31601 55.250466,16.756133 49.435365,27.794572 39.339081,49.594371 51.820102,67.162052 47.824315,49.847898 53.160512,37.599 58.909526,27.957446 c -0.679561,11.496915 -3.65541,21.688185 1.372139,39.433196 -0.300248,-11.156821 5.822662,-10.369561 6.403341,-18.63075"
       id="path11381"
       sodipodi:nodetypes="cccccc" />
    <path
       style="fill:#ff0075;fill-opacity:0;stroke:#ff2400;stroke-width:0.7;stroke-linecap:round;stroke-linejoin:round;stroke-dasharray:none"
       d="m 77.897037,100.78496 c 1.1298,-20.006705 42.201423,-42.67859 0.114339,-84.238466 5.815101,11.038438 15.911385,32.838238 3.430364,50.405919 3.995787,-17.314155 -1.34041,-29.563053 -7.089424,-39.204607 0.679561,11.496915 3.65541,21.688185 -1.372139,39.433196 0.300248,-11.156821 -5.822662,-10.369561 -6.403342,-18.63075"
       id="path11381-6"
       sodipodi:nodetypes="cccccc" />
    <path
       style="fill:#ff0075;fill-opacity:0;stroke:#914700;stroke-width:0.7;stroke-linecap:round;stroke-linejoin:round;stroke-dasharray:none;stroke-opacity:1"
       d="m 139.50161,15.237905 c 2.11892,-0.07565 -4.52457,77.122444 12.19856,77.564949 16.72312,0.442505 12.87624,-77.903657 12.87624,-77.903657 m -26.87279,57.852808"
       id="path11527"
       sodipodi:nodetypes="czc" />
    <path
       style="fill:#ff0075;fill-opacity:0;stroke:#0d00ff;stroke-width:0.7;stroke-linecap:round;stroke-linejoin:round;stroke-dasharray:none;stroke-opacity:1"
       d="m 145.75378,14.964717 c 1.02017,-0.07584 -2.17837,66.770565 5.87304,67.214182 8.05141,0.443617 6.13296,-67.023134 6.13296,-67.023134"
       id="path11574"
       sodipodi:nodetypes="czc" />
    <path
       style="fill:#ff0075;fill-opacity:0;stroke:#914700;stroke-width:0.7;stroke-linecap:round;stroke-linejoin:round;stroke-dasharray:none;stroke-opacity:1"
       d="m 144.02015,84.695756 c 4.66158,-2.762888 9.64302,-3.527567 15.29656,-0.09323"
       id="path11578"
       sodipodi:nodetypes="cc" />
    <path
       style="fill:#ff0075;fill-opacity:0;stroke:#ff008d;stroke-width:0.7;stroke-linecap:round;stroke-linejoin:round;stroke-dasharray:none;stroke-opacity:1"
       d="m 149.56504,14.836878 c 0.36371,-0.07609 -0.77665,67.025892 2.09391,67.470974 2.87057,0.445083 2.1439,-67.281047 2.1439,-67.281047"
       id="path11582"
       sodipodi:nodetypes="czc" />
    <path
       style="fill:#ff0075;fill-opacity:0;stroke:#00f41b;stroke-width:0.7;stroke-linecap:round;stroke-linejoin:round;stroke-dasharray:none;stroke-opacity:1"
       d="m 143.01126,80.361308 c 0,0 2.49591,19.45603 8.73685,19.533347 6.24094,0.07731 9.14938,-19.721704 9.14938,-19.721704"
       id="path11584"
       sodipodi:nodetypes="czc" />
    <path
       style="fill:#ff0075;fill-opacity:0;stroke:#00f41b;stroke-width:0.7;stroke-linecap:round;stroke-linejoin:round;stroke-dasharray:none;stroke-opacity:1"
       d="m 156.47669,93.281774 c 2.09342,-0.232505 0.58858,-0.0098 4.33652,-1.145974 0.88026,-0.266856 1.79009,-0.449842 2.6418,-0.797197 1.23155,-0.50227 2.39256,-1.162582 3.58884,-1.743874"
       id="path16461" />
    <path
       style="fill:#ff0075;fill-opacity:0;stroke:#00f41b;stroke-width:0.7;stroke-linecap:round;stroke-linejoin:round;stroke-dasharray:none;stroke-opacity:1"
       d="m 165.39896,89.096478 c 0.37742,0.07546 0.38017,0.0864 0.89722,0.09965 0.43184,0.01106 0.86398,0 1.29597,0 0.16615,0 0.3323,0 0.49845,0 0.0498,0 0.16805,-0.04628 0.14953,0 -0.0436,0.109056 -0.16189,0.170567 -0.24922,0.249127 -0.45424,0.408654 -2.06116,1.578189 -2.09349,2.192295 -0.008,0.157401 0.29569,0.18769 0.4486,0.149476 0.21922,-0.05478 0.36553,-0.265734 0.5483,-0.3986"
       id="path18384" />
    <path
       style="fill:#ff0075;fill-opacity:0;stroke:#00f41b;stroke-width:0.7;stroke-linecap:round;stroke-linejoin:round;stroke-dasharray:none;stroke-opacity:1"
       d="m 169.24089,91.089479 c 0.99897,-1.664306 0.43609,-0.687427 1.79442,-5.03232 0.0799,-0.255603 0.0856,-0.529767 0.0997,-0.7972 0.003,-0.05245 -0.0354,-0.199974 -0.0498,-0.149473 -0.0459,0.160485 -0.03,0.332525 -0.0498,0.49825 -0.0798,0.664731 -0.17147,1.32802 -0.24923,1.992995 -0.1687,1.44281 -0.27268,2.892822 -0.4486,4.334772 -0.0651,0.533958 -0.16076,1.063802 -0.24923,1.594397 -0.0445,0.266684 -0.0411,0.549513 -0.14953,0.797198 -0.15014,0.343045 -0.54409,-0.785969 -0.5483,-0.797198"
       id="path18386" />
    <path
       style="fill:#ff0075;fill-opacity:0;stroke:#00f41b;stroke-width:0.7;stroke-linecap:round;stroke-linejoin:round;stroke-dasharray:none;stroke-opacity:1"
       d="m 173.82664,85.758209 c -1.17967,1.992996 -2.32568,4.006305 -3.53901,5.978991 -0.16717,0.271791 -0.42475,0.479512 -0.59814,0.747374 -0.0202,0.03118 0.0152,0.11298 0.0498,0.09965 0.21542,-0.08282 0.39683,-0.235892 0.59814,-0.348777 0.41874,-0.234812 2.70539,-1.668272 3.33962,-1.245621 0.52298,0.348512 -0.49666,2.309246 -0.59814,2.740369 -0.0457,0.193998 -0.1347,0.451011 0,0.5979 0.39278,0.42831 1.55085,-0.714825 1.74458,-0.9965 0.048,-0.06978 0.0332,-0.166082 0.0498,-0.249121"
       id="path18388" />
    <path
       style="fill:#ff0075;fill-opacity:0;stroke:#00f41b;stroke-width:0.7;stroke-linecap:round;stroke-linejoin:round;stroke-dasharray:none;stroke-opacity:1"
       d="m 176.26905,92.23545 c 0.31568,0.348774 0.52625,0.836012 0.94705,1.046324 0.16943,0.08468 0.32817,-0.202584 0.44861,-0.348774 0.26226,-0.318331 0.36307,-0.911235 0.14954,-1.29545 -0.89574,-1.611672 -2.80928,0.305297 -2.54211,1.694048 0.20393,1.06 1.55505,0.96584 1.94396,0.149476 0.28001,-0.58778 0.33038,-1.086773 0.29907,-1.743874 -0.002,-0.03711 -0.0851,-0.08397 -0.0997,-0.04982 -0.0528,0.123069 -0.0392,0.265126 -0.0498,0.3986 -0.0532,0.664914 -0.20832,1.584571 0.29907,2.142472 0.0461,0.05068 0.15955,0.0059 0.19938,-0.04982 0.3856,-0.539623 0.35604,-1.046342 0.44861,-1.69405"
       id="path18390" />
    <path
       style="fill:#ff0075;fill-opacity:0;stroke:#00f41b;stroke-width:0.7;stroke-linecap:round;stroke-linejoin:round;stroke-dasharray:none;stroke-opacity:1"
       d="m 180.00743,86.405933 c -0.0601,2.295192 -0.23768,4.578972 -0.19938,6.875841 0.005,0.299371 -0.0119,0.603866 0.0498,0.89685 0.0108,0.05141 0.11845,0.09219 0.14953,0.04982 0.28362,-0.386599 0.48627,-1.042122 0.64799,-1.49475"
       id="path18392" />
    <path
       style="fill:#ff0075;fill-opacity:0;stroke:#00f41b;stroke-width:0.7;stroke-linecap:round;stroke-linejoin:round;stroke-dasharray:none;stroke-opacity:1"
       d="m 181.95138,90.740705 c 0.0498,0.132863 0.12711,0.258472 0.14954,0.398595 0.42354,2.645968 -0.86567,-2.222516 0.34892,3.089148 0.0378,0.165113 0.0665,-0.332166 0.0997,-0.49825"
       id="path18394" />
    <path
       style="fill:#ff0075;fill-opacity:0;stroke:#00f41b;stroke-width:0.7;stroke-linecap:round;stroke-linejoin:round;stroke-dasharray:none;stroke-opacity:1"
       d="m 184.09473,90.142802 c 0.0498,0.166082 0.1412,0.325049 0.14954,0.49825 0.075,1.559732 0.13051,3.122314 0.0997,4.683543 -0.0191,0.966671 -0.1702,1.926225 -0.24922,2.889848 -0.0103,0.126072 -0.0559,0.433843 -0.14954,0.348774 -0.20892,-0.189849 -0.37748,-0.644371 -0.49845,-0.946671"
       id="path18396" />
    <path
       style="fill:#ff0075;fill-opacity:0;stroke:#00f41b;stroke-width:0.7;stroke-linecap:round;stroke-linejoin:round;stroke-dasharray:none;stroke-opacity:1"
       d="m 183.89534,91.986324 c 0.16615,-0.332163 0.27367,-0.700844 0.49846,-0.996495 0.70153,-0.922697 2.43638,0.989039 2.49225,1.046321 0.16401,0.16814 -0.004,0.483235 -0.0997,0.697548 -0.41196,0.918636 -1.37418,1.32861 -2.34272,1.245623 -0.26173,-0.02241 -0.54748,-0.07903 -0.74767,-0.249123 -0.16455,-0.139809 -0.16615,-0.3986 -0.24923,-0.597898"
       id="path18398" />
    <path
       style="fill:#ff0075;fill-opacity:0;stroke:#00f41b;stroke-width:0.7;stroke-linecap:round;stroke-linejoin:round;stroke-dasharray:none;stroke-opacity:1"
       d="m 180.85479,89.245955 c 0.26585,-0.04982 0.53169,-0.09965 0.79753,-0.149477"
       id="path18400" />
    <path
       style="fill:#ff0075;fill-opacity:0;stroke:#00f41b;stroke-width:0.7;stroke-linecap:round;stroke-linejoin:round;stroke-dasharray:none;stroke-opacity:1"
       d="m 189.08044,84.512585 c 0.0332,0.08304 0.087,0.160581 0.0997,0.249127 0.43006,3.009151 -0.021,6.083022 0.14953,9.117962 0.0188,0.333738 0.19701,0.676786 0.44861,0.89685 0.10082,0.08818 0.27998,-0.08446 0.34892,-0.199302 0.40661,-0.677418 0.29335,-1.508088 0,-2.192298"
       id="path18402" />
    <path
       style="fill:#ff0075;fill-opacity:0;stroke:#00f41b;stroke-width:0.7;stroke-linecap:round;stroke-linejoin:round;stroke-dasharray:none;stroke-opacity:1"
       d="m 187.08664,90.441752 c 4.47248,-3.632842 2.52444,-0.805238 4.88482,-1.395097"
       id="path18404" />
    <path
       style="fill:#ff0075;fill-opacity:0;stroke:#00f41b;stroke-width:0.7;stroke-linecap:round;stroke-linejoin:round;stroke-dasharray:none;stroke-opacity:1"
       d="m 193.0352,90.445787 c 0.18276,1.27884 0.37368,2.556542 0.5483,3.836519 0.0248,0.181761 0.0239,0.366475 0.0498,0.548074 0.007,0.05199 0.0207,0.19317 0.0498,0.149474 0.0561,-0.08405 0.0537,-0.197998 0.0499,-0.29895 -0.0128,-0.333576 -0.0448,-0.667218 -0.0997,-0.996495 -0.21414,-1.284322 -0.82558,-2.427743 0.0997,-3.637224 0.30338,-0.396566 0.75975,-0.161891 1.14644,-0.199298 0.43276,-0.04186 0.83356,-0.146026 1.24612,-0.249124"
       id="path18406" />
    <path
       style="fill:#ff0075;fill-opacity:0;stroke:#00f41b;stroke-width:0.7;stroke-linecap:round;stroke-linejoin:round;stroke-dasharray:none;stroke-opacity:1"
       d="m 199.81414,93.485106 c 0.0343,-0.205552 0.15181,-0.856263 0.0997,-0.946674 -0.47953,-0.831797 -1.01042,-1.673198 -1.74458,-2.291945 -0.20681,-0.174305 -0.57125,0.0013 -0.79752,0.149474 -0.5773,0.378079 -0.93738,1.28732 -0.89721,1.943171 0.0521,0.85016 0.59152,2.081824 1.64489,2.042824 1.1452,-0.0424 1.74366,-1.914247 1.94396,-2.790197 0.0639,-0.279493 0.11786,-0.562071 0.14953,-0.847024 0.0183,-0.165066 0.0151,-0.332849 0,-0.498248 -0.002,-0.02339 -0.0411,-0.07164 -0.0498,-0.04983 -0.0704,0.175816 -0.11735,0.36146 -0.14954,0.548074 -0.13414,0.777724 -0.28927,1.554821 -0.34891,2.341771 -0.024,0.316397 0.0319,0.636707 0.0997,0.946677 0.0721,0.329676 0.3097,1.189595 0.89721,0.847024 0.19726,-0.11502 1.9919,-2.117321 1.39566,-2.042825 -0.067,0.0084 -0.62516,0.335741 -0.64798,0.348777"
       id="path18408" />
  </g>
</svg>
