<?xml version="1.0" encoding="UTF-8" standalone="no"?>
<!-- Created with Inkscape (http://www.inkscape.org/) -->

<svg
   width="95.130478mm"
   height="57.774303mm"
   viewBox="0 0 95.130478 57.774303"
   version="1.1"
   id="svg63288"
   inkscape:version="1.1.2 (0a00cf5339, 2022-02-04)"
   sodipodi:docname="oksin-yoğunluğu.svg"
   xmlns:inkscape="http://www.inkscape.org/namespaces/inkscape"
   xmlns:sodipodi="http://sodipodi.sourceforge.net/DTD/sodipodi-0.dtd"
   xmlns="http://www.w3.org/2000/svg"
   xmlns:svg="http://www.w3.org/2000/svg">
  <sodipodi:namedview
     id="namedview63290"
     pagecolor="#ffffff"
     bordercolor="#999999"
     borderopacity="1"
     inkscape:pageshadow="0"
     inkscape:pageopacity="0"
     inkscape:pagecheckerboard="0"
     inkscape:document-units="mm"
     showgrid="true"
     inkscape:zoom="1.3657829"
     inkscape:cx="47.225661"
     inkscape:cy="168.03549"
     inkscape:window-width="1916"
     inkscape:window-height="1033"
     inkscape:window-x="0"
     inkscape:window-y="45"
     inkscape:window-maximized="1"
     inkscape:current-layer="layer1">
    <inkscape:grid
       type="xygrid"
       id="grid63424"
       originx="-37.485167"
       originy="-5.1631685" />
  </sodipodi:namedview>
  <defs
     id="defs63285" />
  <g
     inkscape:label="Layer 1"
     inkscape:groupmode="layer"
     id="layer1"
     transform="translate(-37.485165,-5.1631686)">
    <path
       style="fill:#ff9600;fill-opacity:0;stroke:#000000;stroke-width:0.7;stroke-linecap:round;stroke-linejoin:round;stroke-opacity:0.968627"
       d="m 44.868398,10.336387 0.127876,44.483141"
       id="path63470"
       sodipodi:nodetypes="cc" />
    <path
       style="fill:#ff9600;fill-opacity:0;stroke:#000000;stroke-width:0.7;stroke-linecap:round;stroke-linejoin:round;stroke-opacity:0.968627"
       d="M 112.25337,53.669078 43.595762,53.796954"
       id="path63681"
       sodipodi:nodetypes="cc" />
    <path
       style="fill:#000000;fill-opacity:0;stroke:#000000;stroke-width:0.7;stroke-linecap:round;stroke-linejoin:round;stroke-miterlimit:4;stroke-dasharray:0.7, 2.1;stroke-dashoffset:0;stroke-opacity:0.968627"
       d="M 37.835165,32.673239 117.11882,32.289762"
       id="path64164" />
    <path
       style="fill:#29ff00;fill-opacity:0;stroke:#ff7100;stroke-width:0.7;stroke-linecap:round;stroke-linejoin:round;stroke-miterlimit:4;stroke-dasharray:none;stroke-dashoffset:0;stroke-opacity:0.968627"
       d="m 51.896208,29.702426 c 0,0 11.974611,-15.709099 17.070051,-9.610278 6.795104,8.133179 12.65894,15.315451 15.500397,18.436046"
       id="path64469"
       sodipodi:nodetypes="csc" />
    <path
       style="fill:#29ff00;fill-opacity:0;stroke:#ff004f;stroke-width:0.7;stroke-linecap:round;stroke-linejoin:round;stroke-miterlimit:4;stroke-dasharray:none;stroke-dashoffset:0;stroke-opacity:0.968627"
       d="m 63.374349,29.702426 c 0,0 11.974611,-15.709099 17.070051,-9.610278 6.795104,8.133179 13.541874,15.315454 15.500397,18.436046"
       id="path66029"
       sodipodi:nodetypes="csc" />
    <path
       style="fill:#29ff00;fill-opacity:0;stroke:#ff00fb;stroke-width:0.7;stroke-linecap:round;stroke-linejoin:round;stroke-miterlimit:4;stroke-dasharray:none;stroke-dashoffset:0;stroke-opacity:0.968627"
       d="m 79.26716,29.702426 c 0,0 11.974611,-15.709099 17.070051,-9.610278 6.795109,8.133179 14.032389,14.923191 15.500399,18.436046"
       id="path66579"
       sodipodi:nodetypes="csc" />
    <path
       style="fill:#29ff00;fill-opacity:0;stroke:#ff7100;stroke-width:0.7;stroke-linecap:round;stroke-linejoin:round;stroke-miterlimit:4;stroke-dasharray:none;stroke-dashoffset:0;stroke-opacity:0.968627"
       d="m 58.817811,18.971566 c -0.282943,-1.014777 -0.384112,-2.072951 -0.631121,-3.10174 -0.03772,-0.157101 -0.07627,-0.314189 -0.105183,-0.473147 -0.0063,-0.03448 -0.02479,-0.129921 0,-0.105143 0.05543,0.05541 0.07928,0.136315 0.105183,0.210288 0.09708,0.277261 0.186817,0.557426 0.262969,0.84115 0.208135,0.775458 0.393263,1.622631 0.525931,2.418304 0.04361,0.261577 0.06767,0.526059 0.105185,0.788579 0.01508,0.105523 0.03751,0.209908 0.05259,0.315431 0.0024,0.01735 0.0034,0.06976 0,0.05257 -0.176557,-0.882429 -0.02167,-1.688405 0.105185,-2.576023 0.0052,-0.03675 0.04011,-0.723526 0.210373,-0.893721 0.0899,-0.08986 0.109889,0.700759 0.105188,0.736006 -0.0914,0.685176 -0.264041,1.340202 -0.47334,1.997731 -0.03362,0.105614 -0.06625,0.211658 -0.105185,0.315431 -0.01376,0.03669 -0.08765,0.08762 -0.05259,0.105143 0.179591,0.08976 1.153051,-1.415446 1.367422,-1.629728 0.05347,-0.05345 0.245208,-0.02595 0.262964,-0.05257 0.03075,-0.04611 0.0278,-0.108152 0.05259,-0.157715 0.10981,-0.219527 0.399881,-0.415362 0.631119,-0.473148 0.398801,-0.09966 0.817859,0.112427 1.20964,-0.105143 0.432705,-0.240294 0.194853,-1.056107 -0.157779,-1.261725 -1.040013,-0.606426 -1.934376,2.155447 -0.788897,2.155447 0.161626,0 0.332457,-0.02593 0.473339,-0.105145 0.151244,-0.08504 0.268063,-0.226267 0.368155,-0.368003 0.389612,-0.551726 0.480967,-1.840015 -0.47334,-1.840015 -0.166185,0 -0.681244,0.07331 -0.788897,0.315432 -0.124518,0.28005 -0.0013,0.26286 0.105185,0.26286"
       id="path67301" />
    <path
       style="fill:#29ff00;fill-opacity:0;stroke:#ff7100;stroke-width:0.7;stroke-linecap:round;stroke-linejoin:round;stroke-miterlimit:4;stroke-dasharray:none;stroke-dashoffset:0;stroke-opacity:0.968627"
       d="m 60.763755,15.606967 c 0.122719,-0.140192 0.245436,-0.280384 0.368152,-0.420576"
       id="path67303" />
    <path
       style="fill:#29ff00;fill-opacity:0;stroke:#ff7100;stroke-width:0.7;stroke-linecap:round;stroke-linejoin:round;stroke-miterlimit:4;stroke-dasharray:none;stroke-dashoffset:0;stroke-opacity:0.968627"
       d="m 61.394874,14.608101 0.788897,-0.05257"
       id="path67305" />
    <path
       style="fill:#29ff00;fill-opacity:0;stroke:#ff7100;stroke-width:0.7;stroke-linecap:round;stroke-linejoin:round;stroke-miterlimit:4;stroke-dasharray:none;stroke-dashoffset:0;stroke-opacity:0.968627"
       d="m 62.709702,12.242368 c 0.436002,1.269585 0.831046,2.534257 1.157049,3.837746 0.09696,0.387678 0.09383,0.824119 0.315558,1.156581 0.01945,0.02916 0.0021,-0.07016 0,-0.105145 -0.01535,-0.245481 -0.03658,-0.490566 -0.05259,-0.736005 -0.03506,-0.560766 -0.07012,-1.121533 -0.105185,-1.6823 0,-0.262859 0.01095,-0.525947 0,-0.788578 -0.0066,-0.158549 -0.0368,-0.315248 -0.05259,-0.473147 -0.0019,-0.01744 -0.0056,-0.0692 0,-0.05257 0.164224,0.492479 0.05259,1.170542 0.05259,1.6823 0,0.156331 0.04275,1.195995 0.157776,1.104009 0.340725,-0.272471 0.491197,-1.100151 0.999273,-1.156581 0.355463,-0.03948 0.552895,0.810345 0.89408,0.420575 8e-6,-8e-6 0.163624,-0.32711 0.210373,-0.420575"
       id="path67307" />
    <path
       style="fill:#29ff00;fill-opacity:0;stroke:#ff00fb;stroke-width:0.7;stroke-linecap:round;stroke-linejoin:round;stroke-miterlimit:4;stroke-dasharray:none;stroke-dashoffset:0;stroke-opacity:0.968627"
       d="m 91.698682,16.605831 c 0.207232,-0.321457 0.310409,-0.829755 0.262964,-1.209152 -0.02958,-0.236518 -0.121817,-0.462135 -0.210373,-0.683434 -0.580766,-1.451324 -0.955773,1.083454 -0.262964,1.314296 0.119901,0.03995 0.181943,-0.192287 0.210373,-0.315431 0.08303,-0.359667 0.05259,-0.807783 0.05259,-1.156581 0,-0.140191 -0.07215,-0.540775 0,-0.420574 0.302742,0.50437 0.586497,1.61091 0.736304,2.155445 0.208499,0.757868 0.68177,2.105343 0.105185,2.838881 -0.04002,0.05091 -0.629798,-0.126734 -0.89408,-0.315431 -0.201734,-0.144037 -0.399793,-0.312337 -0.525933,-0.525719 -0.239284,-0.404776 -0.198001,-0.87635 0.05259,-1.261724 0.115062,-0.176944 0.319863,-0.275685 0.47334,-0.420576 0.657254,-0.620488 0.222462,-0.347757 0.89408,-0.683433"
       id="path67309" />
    <path
       style="fill:#29ff00;fill-opacity:0;stroke:#ff00fb;stroke-width:0.7;stroke-linecap:round;stroke-linejoin:round;stroke-miterlimit:4;stroke-dasharray:none;stroke-dashoffset:0;stroke-opacity:0.968627"
       d="m 93.066102,15.186391 c 0.320542,0.01259 0.764693,0.02001 0.894082,-0.368002 0.151307,-0.453733 -0.146436,-1.561864 -0.841491,-1.156581 -0.476335,0.277749 -0.453718,1.32056 -0.315558,1.734871 0.184187,0.552335 1.056465,0.951383 1.420016,0.315431 0.178943,-0.313021 0.08179,-0.73044 0.05259,-1.051438"
       id="path67311" />
    <path
       style="fill:#29ff00;fill-opacity:0;stroke:#ff00fb;stroke-width:0.7;stroke-linecap:round;stroke-linejoin:round;stroke-miterlimit:4;stroke-dasharray:none;stroke-dashoffset:0;stroke-opacity:0.968627"
       d="m 92.329798,12.925801 0.894083,-0.736005"
       id="path67313" />
    <path
       style="fill:#29ff00;fill-opacity:0;stroke:#ff00fb;stroke-width:0.7;stroke-linecap:round;stroke-linejoin:round;stroke-miterlimit:4;stroke-dasharray:none;stroke-dashoffset:0;stroke-opacity:0.968627"
       d="m 94.749082,12.715515 c 0.60556,0.660341 0.547608,0.532409 0.999273,1.261724 0.032,0.05167 0.569005,0.998866 0.578522,0.998866 0.05257,0 0.007,-0.105606 0,-0.157716 -0.02819,-0.211319 -0.09051,-0.418178 -0.105185,-0.630863 -0.01053,-0.152563 -0.04727,-1.95048 0.157779,-2.155446"
       id="path67317" />
    <path
       style="fill:#29ff00;fill-opacity:0;stroke:#ff00fb;stroke-width:0.7;stroke-linecap:round;stroke-linejoin:round;stroke-miterlimit:4;stroke-dasharray:none;stroke-dashoffset:0;stroke-opacity:0.968627"
       d="m 97.589111,13.293805 c 0.338884,0.147423 0.895578,0.626394 1.104458,0 0.301112,-0.902976 -0.970494,-2.987322 -1.472607,-1.314297 -0.135099,0.45014 -0.113234,1.427611 0.105185,1.840014 0.242581,0.458022 0.701583,0.738793 1.104456,0.26286 0.09674,-0.114284 0.105185,-0.280383 0.157779,-0.420574"
       id="path67319" />
    <path
       style="fill:#29ff00;fill-opacity:0;stroke:#ff00fb;stroke-width:0.7;stroke-linecap:round;stroke-linejoin:round;stroke-miterlimit:4;stroke-dasharray:none;stroke-dashoffset:0;stroke-opacity:0.968627"
       d="m 97.273553,9.2457705 c 0.605899,1.2850955 1.000385,2.7071065 1.893356,3.8377465 0.340704,0.431385 0.264983,0.416538 0.420746,0.105143"
       id="path67321" />
    <path
       style="fill:#29ff00;fill-opacity:0;stroke:#ff00fb;stroke-width:0.7;stroke-linecap:round;stroke-linejoin:round;stroke-miterlimit:4;stroke-dasharray:none;stroke-dashoffset:0;stroke-opacity:0.968627"
       d="m 99.482467,12.084651 c 0.341678,0.218562 0.874293,0.205678 1.157053,-0.157715 0.30219,-0.388382 0.4142,-1.249846 0.10518,-1.682299 -0.15906,-0.222592 -0.50067,-0.3117629 -0.68371,-0.05257 -0.211938,0.300124 -0.473335,1.159421 -0.473335,1.524584 0,0.937982 0.683775,1.48511 1.472605,0.893721"
       id="path67323" />
    <path
       style="fill:#29ff00;fill-opacity:0;stroke:#ff004e;stroke-width:0.7;stroke-linecap:round;stroke-linejoin:round;stroke-miterlimit:4;stroke-dasharray:none;stroke-dashoffset:0;stroke-opacity:0.968627"
       d="m 71.696984,14.450386 c -0.05259,-0.08762 -0.07016,-0.315452 -0.157776,-0.26286 -0.08762,0.05259 0.121883,0.167179 0.157776,0.26286 0.07018,0.187078 0.08237,0.393259 0.157782,0.57829 0.118324,0.290317 0.300627,0.551571 0.420745,0.84115 0.04936,0.119003 0.552426,1.662866 0.788895,1.997731 0.482611,0.683423 0.736119,-0.526279 0.631119,-0.84115"
       id="path67325" />
    <path
       style="fill:#29ff00;fill-opacity:0;stroke:#ff004e;stroke-width:0.7;stroke-linecap:round;stroke-linejoin:round;stroke-miterlimit:4;stroke-dasharray:none;stroke-dashoffset:0;stroke-opacity:0.968627"
       d="m 71.486611,17.13155 c 0.146468,-0.540727 0.59449,-0.645211 1.051864,-0.84115"
       id="path67327" />
    <path
       style="fill:#29ff00;fill-opacity:0;stroke:#ff004e;stroke-width:0.7;stroke-linecap:round;stroke-linejoin:round;stroke-miterlimit:4;stroke-dasharray:none;stroke-dashoffset:0;stroke-opacity:0.968627"
       d="m 74.379237,16.185257 c 1.728719,0.498634 0.837353,-1.814459 0,-1.6823 -1.02661,0.16203 -1.083712,2.655986 0.631116,2.313162 0.800526,-0.160039 0.514887,-1.147071 0.262964,-1.629728 -0.238755,-0.45743 -0.774224,-1.401211 -1.157049,-0.368002 -0.130159,0.351286 -0.09186,0.748623 -0.21037,1.104009"
       id="path67329" />
    <path
       style="fill:#29ff00;fill-opacity:0;stroke:#ff004e;stroke-width:0.7;stroke-linecap:round;stroke-linejoin:round;stroke-miterlimit:4;stroke-dasharray:none;stroke-dashoffset:0;stroke-opacity:0.968627"
       d="m 76.329862,14.29267 c 0.233296,0.575782 0.500197,1.183426 0.946676,1.629728 0.08315,0.08311 -0.115154,-0.205867 -0.157779,-0.315431 -0.112286,-0.288619 -0.715788,-1.976572 -0.420743,-2.050302 0.259086,-0.06475 0.466175,0.420574 0.736304,0.420574 0.253286,0 0.111175,-0.572305 0.210373,-0.473148 0.143645,0.143587 0.879401,1.667143 1.104455,1.577157 0.260909,-0.104323 0.04169,-1.021618 0,-1.209152"
       id="path67331" />
    <path
       style="fill:#29ff00;fill-opacity:0;stroke:#ff004e;stroke-width:0.7;stroke-linecap:round;stroke-linejoin:round;stroke-miterlimit:4;stroke-dasharray:none;stroke-dashoffset:0;stroke-opacity:0.968627"
       d="m 78.591369,12.61037 c 0.179753,0.336362 0.861542,1.524003 1.314829,1.41944 0.375854,-0.0867 0.420745,-0.823221 0.420745,-1.104009"
       id="path67333" />
    <path
       style="fill:#29ff00;fill-opacity:0;stroke:#ff004e;stroke-width:0.7;stroke-linecap:round;stroke-linejoin:round;stroke-miterlimit:4;stroke-dasharray:none;stroke-dashoffset:0;stroke-opacity:0.968627"
       d="m 79.695825,11.76922 c 0.175284,0.229288 0.803759,1.209152 1.104455,1.209152 0.233545,0 0.223452,-0.683152 0.262967,-0.841149"
       id="path67335" />
    <path
       style="fill:#29ff00;fill-opacity:0;stroke:#ff004e;stroke-width:0.7;stroke-linecap:round;stroke-linejoin:round;stroke-miterlimit:4;stroke-dasharray:none;stroke-dashoffset:0;stroke-opacity:0.968627"
       d="m 81.852142,12.715515 c -0.709388,-0.63916 -0.945446,-1.361995 -0.525931,-2.260592 0.105579,-0.226149 0.128712,-0.2006 0.315558,-0.262858"
       id="path67337" />
    <path
       style="fill:#29ff00;fill-opacity:0;stroke:#ff004e;stroke-width:0.7;stroke-linecap:round;stroke-linejoin:round;stroke-miterlimit:4;stroke-dasharray:none;stroke-dashoffset:0;stroke-opacity:0.968627"
       d="M 83.324752,9.8766324 C 83.202033,9.8415847 83.076546,9.7278903 82.9566,9.7714894 82.837821,9.8146647 82.794365,9.970064 82.746227,10.08692 c -0.494456,1.200333 0.152421,2.528809 1.367422,1.314297"
       id="path67339" />
    <path
       style="fill:#29ff00;fill-opacity:0;stroke:#ff004e;stroke-width:0.7;stroke-linecap:round;stroke-linejoin:round;stroke-miterlimit:4;stroke-dasharray:none;stroke-dashoffset:0;stroke-opacity:0.968627"
       d="m 84.218835,9.4034868 c 0.01262,0.1099466 0.655814,1.8082792 0.99927,1.3668692 0.178583,-0.229515 0.22048,-0.8190565 0.210373,-1.0514382 -0.0085,-0.1957412 -0.06675,-0.3861718 -0.105185,-0.5782903 -0.01418,-0.070851 -0.103696,-0.2613697 -0.05259,-0.2102879 0.166126,0.1660604 0.224964,0.6859786 0.473339,0.8411498 0.289865,0.1810925 0.420746,-0.063565 0.420746,-0.3154309"
       id="path67341" />
    <path
       style="fill:#29ff00;fill-opacity:0;stroke:#ff004e;stroke-width:0.7;stroke-linecap:round;stroke-linejoin:round;stroke-miterlimit:4;stroke-dasharray:none;stroke-dashoffset:0;stroke-opacity:0.968627"
       d="m 85.375884,5.5131686 c 0.01754,0.08762 0.02003,0.1796513 0.05259,0.2628593 0.125836,0.3214524 0.286739,0.6281595 0.420745,0.9462932 0.258742,0.6142624 0.465281,1.3284887 0.841492,1.8925875"
       id="path67343" />
    <path
       style="fill:#29ff00;fill-opacity:0;stroke:#ff004e;stroke-width:0.7;stroke-linecap:round;stroke-linejoin:round;stroke-miterlimit:4;stroke-dasharray:none;stroke-dashoffset:0;stroke-opacity:0.968627"
       d="m 86.7959,6.1440305 c -0.22851,0.5577367 -0.815835,2.5039791 -0.105185,2.8914521 0.367951,0.2006201 1.285806,-0.969864 1.525204,-1.2091524"
       id="path67345" />
    <path
       style="fill:#29ff00;fill-opacity:0;stroke:#000000;stroke-width:0.7;stroke-linecap:round;stroke-linejoin:round;stroke-miterlimit:4;stroke-dasharray:none;stroke-dashoffset:0;stroke-opacity:0.968627"
       d="m 38.661379,6.0795836 c 0.2081,0.4160268 0.193236,0.3347566 0.315558,0.8937212 0.169021,0.7723558 0.205457,1.4901627 0.315561,2.2605918 0.01021,0.071528 0.05259,0.138032 0.05259,0.2102863 0,0.1539452 -0.157782,-0.056341 -0.157782,-0.2102863 0,-0.2602315 0.292949,-1.082122 0.525936,-1.2091541 0.549291,-0.2994953 1.164878,0.4015272 1.209641,0.8937215 0.05675,0.6240418 -1.191287,0.4161359 -1.420016,0.3680026 -0.108495,-0.022831 -0.211741,-0.066227 -0.315561,-0.105143 -0.0367,-0.013758 -0.14438,-0.052573 -0.105185,-0.052573 0.10827,0 0.154699,0.052573 0.262967,0.052573"
       id="path74033" />
    <path
       style="fill:#29ff00;fill-opacity:0;stroke:#000000;stroke-width:0.7;stroke-linecap:round;stroke-linejoin:round;stroke-miterlimit:4;stroke-dasharray:none;stroke-dashoffset:0;stroke-opacity:0.968627"
       d="m 41.869563,7.70931 c 0.131271,0.3690654 0.301509,1.7158393 0.736304,1.8400159 0.372372,0.106349 0.315558,-1.7044511 0.315558,-1.997729 0,-0.017523 -0.0078,0.036898 0,0.05257 0.06321,0.1263689 0.143859,0.2433402 0.210373,0.3680026 0.687623,1.2887695 -0.206912,-0.3610822 0.368151,0.7885782 0.0392,0.078375 0.157779,0.2979226 0.157779,0.2102895 0,-0.2106885 -0.05259,3.968e-4 -0.05259,-0.2102895"
       id="path74035" />
    <path
       style="fill:#29ff00;fill-opacity:0;stroke:#000000;stroke-width:0.7;stroke-linecap:round;stroke-linejoin:round;stroke-miterlimit:4;stroke-dasharray:none;stroke-dashoffset:0;stroke-opacity:0.968627"
       d="M 41.606599,6.9733048 C 41.673372,6.6395694 41.5725,6.732109 41.869563,6.6578738"
       id="path74037" />
    <path
       style="fill:#29ff00;fill-opacity:0;stroke:#000000;stroke-width:0.7;stroke-linecap:round;stroke-linejoin:round;stroke-miterlimit:4;stroke-dasharray:none;stroke-dashoffset:0;stroke-opacity:0.968627"
       d="M 42.395494,6.5001576 42.81624,6.6053025"
       id="path74039" />
    <path
       style="fill:#29ff00;fill-opacity:0;stroke:#000000;stroke-width:0.7;stroke-linecap:round;stroke-linejoin:round;stroke-miterlimit:4;stroke-dasharray:none;stroke-dashoffset:0;stroke-opacity:0.968627"
       d="m 44.446626,7.8144565 c -0.214797,-1.5316504 0.325437,1.2567848 0.631119,1.1040075 0.290742,-0.1453113 0.157781,-1.0766313 0.157781,-1.314297 0,-0.095183 -0.07921,-0.4465696 -0.10519,-0.4205759 -0.01752,0.017531 0.04389,0.029364 0.0526,0.052573 0.04481,0.1194506 0.06107,0.2482945 0.105185,0.3680026 0.07879,0.2137677 0.190895,0.414737 0.262967,0.6308619 0.103563,0.3105716 0.167262,0.6332111 0.262964,0.9462947 0.221636,0.7250581 0.434017,1.1346007 0.525931,1.8925867 0.01318,0.108722 0.165592,1.738127 -0.473337,1.472013 C 44.725525,12.070647 45.06344,10.643137 45.708867,9.9173282 45.8269,9.784596 45.983539,9.6018989 46.182207,9.6018989"
       id="path74041" />
    <path
       style="fill:#29ff00;fill-opacity:0;stroke:#000000;stroke-width:0.7;stroke-linecap:round;stroke-linejoin:round;stroke-miterlimit:4;stroke-dasharray:none;stroke-dashoffset:0;stroke-opacity:0.968627"
       d="m 46.918506,8.0247425 c 0.007,-0.079932 -0.159739,-1.0378773 0,0 0.0089,0.057677 0.144476,1.9939245 0.841489,1.3668672 0.432816,-0.3893762 0.3957,-1.0038834 0.315561,-1.5245834 -0.01098,-0.071413 -0.03842,-0.139436 -0.05259,-0.2102864 -0.0034,-0.017185 -0.0055,-0.069197 0,-0.052573 0.05967,0.1789451 0.52021,1.6297296 0.578525,1.6297296 0.03243,0 -0.01484,-0.5176851 -0.05259,-0.6308651"
       id="path74043" />
    <path
       style="fill:#29ff00;fill-opacity:0;stroke:#000000;stroke-width:0.7;stroke-linecap:round;stroke-linejoin:round;stroke-miterlimit:4;stroke-dasharray:none;stroke-dashoffset:0;stroke-opacity:0.968627"
       d="M 46.813319,6.8155901 47.549625,6.6578738"
       id="path74045" />
    <path
       style="fill:#29ff00;fill-opacity:0;stroke:#000000;stroke-width:0.7;stroke-linecap:round;stroke-linejoin:round;stroke-miterlimit:4;stroke-dasharray:none;stroke-dashoffset:0;stroke-opacity:0.968627"
       d="m 49.127417,7.8670263 c 0.194112,0.4527404 0.168445,0.3545234 0.315558,0.8937215 0.216652,0.7940717 0.136033,1.1443446 0.105188,0.1577162 -0.0065,-0.2091449 -0.07828,-1.8502077 0.05259,-2.1554469 0.130472,-0.3043049 0.782778,1.8461323 1.157052,1.4720118 0.09579,-0.095751 0.318135,-1.119818 0.420746,-1.0514378 0.188105,0.1253535 0.353549,2.6432161 0.999268,1.9977325"
       id="path74047" />
    <path
       style="fill:#29ff00;fill-opacity:0;stroke:#000000;stroke-width:0.7;stroke-linecap:round;stroke-linejoin:round;stroke-miterlimit:4;stroke-dasharray:none;stroke-dashoffset:0;stroke-opacity:0.968627"
       d="m 52.388193,7.70931 c 0.433599,-0.066054 0.895508,0.3849349 1.314828,0.2102895 0.397081,-0.1653839 0.598083,-0.9984308 0.105188,-1.1040094 -0.546542,-0.1170691 -0.997527,0.3855508 -1.15705,0.8411498 -0.08728,0.2492741 -0.05083,0.9330251 0,1.1565811 0.248097,1.0911877 0.988724,1.330098 1.630389,0.3680026"
       id="path74049" />
    <path
       style="fill:#29ff00;fill-opacity:0;stroke:#000000;stroke-width:0.7;stroke-linecap:round;stroke-linejoin:round;stroke-miterlimit:4;stroke-dasharray:none;stroke-dashoffset:0;stroke-opacity:0.968627"
       d="m 115.22406,55.024265 c 0.40544,0.115213 0.48165,-0.03485 0.36815,-0.420573 -0.0579,-0.196782 -0.11072,-0.399 -0.21037,-0.578292 -0.0785,-0.141243 -0.18848,-0.268195 -0.31556,-0.368004 -1.24354,-0.97667 -1.43581,2.041366 -0.47334,1.945159 0.0941,-0.0094 0.51404,-0.166161 0.57853,-0.262859 0.0591,-0.08868 0.0116,-0.217043 0.0526,-0.315431 0.0486,-0.116654 0.17039,-0.19554 0.21037,-0.315431 0.34847,-1.044985 -1.78586,-1.38336 -1.47261,-0.05257 0.2234,0.949039 0.21038,0.264408 0.21038,0.630862"
       id="path74051" />
    <path
       style="fill:#29ff00;fill-opacity:0;stroke:#000000;stroke-width:0.7;stroke-linecap:round;stroke-linejoin:round;stroke-miterlimit:4;stroke-dasharray:none;stroke-dashoffset:0;stroke-opacity:0.968627"
       d="m 116.85445,52.080241 c -0.15924,0.992124 -0.15101,2.041708 -0.10519,3.049167 0.0175,0.385358 -0.066,0.368004 0.10519,0.368004"
       id="path74053" />
    <path
       style="fill:#29ff00;fill-opacity:0;stroke:#000000;stroke-width:0.7;stroke-linecap:round;stroke-linejoin:round;stroke-miterlimit:4;stroke-dasharray:none;stroke-dashoffset:0;stroke-opacity:0.968627"
       d="m 117.74853,52.868819 c -0.0889,0.212315 -1.2466,2.044144 -0.89408,2.102874 0.0611,0.01019 1.17571,-0.230921 1.36742,-0.262859"
       id="path74055" />
    <path
       style="fill:#29ff00;fill-opacity:0;stroke:#000000;stroke-width:0.7;stroke-linecap:round;stroke-linejoin:round;stroke-miterlimit:4;stroke-dasharray:none;stroke-dashoffset:0;stroke-opacity:0.968627"
       d="m 119.5367,53.079107 c -0.0877,0.01752 -0.19975,-0.01064 -0.26297,0.05257 -0.16055,0.160483 -0.40507,0.779523 -0.42074,0.998866 -0.0441,0.616733 1.15704,-0.09664 1.15704,0.473149 0,0.883367 -1.68876,1.980374 -1.94594,1.209151"
       id="path74057" />
    <path
       style="fill:#29ff00;fill-opacity:0;stroke:#000000;stroke-width:0.7;stroke-linecap:round;stroke-linejoin:round;stroke-miterlimit:4;stroke-dasharray:none;stroke-dashoffset:0;stroke-opacity:0.968627"
       d="m 121.11449,53.709969 c 0.32075,0.443878 0.21038,1.057616 0.21038,1.577155"
       id="path74059" />
    <path
       style="fill:#29ff00;fill-opacity:0;stroke:#000000;stroke-width:0.7;stroke-linecap:round;stroke-linejoin:round;stroke-miterlimit:4;stroke-dasharray:none;stroke-dashoffset:0;stroke-opacity:0.968627"
       d="m 120.90412,52.605958 c 0.0877,0.03505 0.17531,0.0701 0.26297,0.105145"
       id="path74061" />
    <path
       style="fill:#29ff00;fill-opacity:0;stroke:#000000;stroke-width:0.7;stroke-linecap:round;stroke-linejoin:round;stroke-miterlimit:4;stroke-dasharray:none;stroke-dashoffset:0;stroke-opacity:0.968627"
       d="m 122.79747,53.657396 c 0.10092,0.60525 0.0352,0.01508 0,0.683435 -0.0111,0.209997 0,0.420576 0,0.630862 0,0.03505 0,0.140192 0,0.105142 0,-0.846275 0.046,-1.646724 0.26297,-2.470877 0.0112,-0.04274 0.0829,-0.39256 0.26296,-0.315431 0.43002,0.184219 0.84898,2.035275 1.05187,2.102876 0.22211,0.07401 0.24009,-0.223985 0.26296,-0.31543"
       id="path74063" />
    <path
       style="fill:#29ff00;fill-opacity:0;stroke:#000000;stroke-width:0.7;stroke-linecap:round;stroke-linejoin:round;stroke-miterlimit:4;stroke-dasharray:none;stroke-dashoffset:0;stroke-opacity:0.968627"
       d="m 109.70316,58.935223 c 0.30449,-1.607688 -0.36258,-0.04701 0.26297,0.578289 0.59364,0.593405 0.89408,-1.093536 0.89408,-1.366866 0,-0.106596 -0.0375,-0.209908 -0.0526,-0.315431 -0.002,-0.01736 0.004,-0.06957 0,-0.05257 -0.12989,0.519345 0.12632,1.178179 0.21037,1.6823 0.0201,0.120648 0.2036,1.429724 0.21037,1.524585 0.004,0.05643 0.10053,0.722365 -0.10518,0.893723 -0.30255,0.252023 -1.39987,-0.425024 -1.47261,-0.78858 -0.10995,-0.549535 0.71581,-0.849887 1.05186,-1.051439"
       id="path74065" />
    <path
       style="fill:#29ff00;fill-opacity:0;stroke:#000000;stroke-width:0.7;stroke-linecap:round;stroke-linejoin:round;stroke-miterlimit:4;stroke-dasharray:none;stroke-dashoffset:0;stroke-opacity:0.968627"
       d="m 112.12245,59.040368 c 0.29461,-0.378121 0.67439,0.16392 0.99927,-0.05257 0.83701,-0.557787 -0.25832,-1.68927 -0.99927,-0.578289 -0.44377,0.665382 0.4449,1.399677 0.99927,0.946292 0.10937,-0.08945 0.16567,-0.233963 0.21037,-0.368003 0.16555,-0.496446 -0.22255,-1.281462 -0.7889,-0.84115 -0.0692,0.05379 -0.14905,0.123089 -0.15778,0.210288 -0.011,0.110283 0.0701,0.210285 0.10519,0.315431"
       id="path74067" />
    <path
       style="fill:#29ff00;fill-opacity:0;stroke:#000000;stroke-width:0.7;stroke-linecap:round;stroke-linejoin:round;stroke-miterlimit:4;stroke-dasharray:none;stroke-dashoffset:0;stroke-opacity:0.968627"
       d="m 114.8047,58.987796 c 0.79015,0.169505 0.62582,-1.377781 -0.10519,-1.209154 -0.50498,0.116488 -0.73939,1.280279 -0.26296,1.366869 0.47516,0.08636 0.79915,-0.765439 0.84149,-1.104008 0.0152,-0.121722 0,-0.245338 0,-0.368004 0,-0.05257 0.0372,-0.194881 0,-0.157715 -0.0826,0.08259 -0.0592,0.627404 -0.0526,0.683434 0.14191,1.205754 0.44597,2.386627 0.68372,3.574886 0.05,0.250008 0.15515,0.760037 0.10518,0.788578 -0.27735,0.158424 -2.01091,-0.618482 -2.20891,-0.84115 -0.0594,-0.06677 -0.0858,-0.179899 -0.0526,-0.262859 0.0965,-0.241178 0.82138,-0.581313 0.89408,-0.630862 0.3824,-0.260619 0.73015,-0.569036 1.10445,-0.84115"
       id="path74069" />
    <path
       style="fill:#29ff00;fill-opacity:0;stroke:#000000;stroke-width:0.7;stroke-linecap:round;stroke-linejoin:round;stroke-miterlimit:4;stroke-dasharray:none;stroke-dashoffset:0;stroke-opacity:0.968627"
       d="m 117.1188,57.98893 c -0.16857,-0.521912 0,-0.607983 0,0 0,0.399905 -0.32071,1.133496 0.26296,1.366869 0.083,0.03319 0.19428,0.0046 0.26297,-0.05257 0.40113,-0.334145 0.47119,-0.715629 0.57852,-1.209154 0.0126,-0.05783 0.0391,-0.597815 0.10519,-0.630862 0.0279,-0.01397 0.0665,0.142335 0.15778,0.525719 0.1399,0.587335 0.2258,1.157055 0.63111,1.629728 0.12325,0.143735 0.1052,-0.283991 0.1052,-0.788578"
       id="path74071" />
    <path
       style="fill:#29ff00;fill-opacity:0;stroke:#000000;stroke-width:0.7;stroke-linecap:round;stroke-linejoin:round;stroke-miterlimit:4;stroke-dasharray:none;stroke-dashoffset:0;stroke-opacity:0.968627"
       d="m 114.27877,56.674634 c 0.60955,0 0.29052,0.05207 0.94667,-0.210289"
       id="path74073" />
    <path
       style="fill:#29ff00;fill-opacity:0;stroke:#000000;stroke-width:0.7;stroke-linecap:round;stroke-linejoin:round;stroke-miterlimit:4;stroke-dasharray:none;stroke-dashoffset:0;stroke-opacity:0.968627"
       d="m 120.43217,57.831215 c -0.0756,0.223864 -0.15422,1.896152 0,2.050304 0.0124,0.01238 0,-0.03505 0,-0.05257 0,-0.122669 -0.0135,-0.246086 0,-0.368004 0.0398,-0.357817 0.26862,-1.736286 0.68371,-1.840015 0.78878,-0.197112 0.88006,3.30142 1.57779,1.209153"
       id="path74075" />
    <path
       style="fill:#29ff00;fill-opacity:0;stroke:#000000;stroke-width:0.7;stroke-linecap:round;stroke-linejoin:round;stroke-miterlimit:4;stroke-dasharray:none;stroke-dashoffset:0;stroke-opacity:0.968627"
       d="m 123.2722,55.675768 c 0,-0.122669 0,-0.245335 0,-0.368004 -0.0175,-0.01751 -0.0526,-0.07736 -0.0526,-0.05257 0,0.07225 0.0407,0.139017 0.0526,0.210288 0.0583,0.349578 0.12027,0.699026 0.15777,1.051438 0.0502,0.471781 0.055,0.947661 0.10519,1.419439 0.0375,0.352415 0.0863,0.704321 0.15778,1.051439 0.10603,0.5148 0.2177,0.886391 0.31556,0.788577 0.0831,-0.08311 0.10519,-0.210288 0.15778,-0.315431"
       id="path74077" />
    <path
       style="fill:#29ff00;fill-opacity:0;stroke:#000000;stroke-width:0.7;stroke-linecap:round;stroke-linejoin:round;stroke-miterlimit:4;stroke-dasharray:none;stroke-dashoffset:0;stroke-opacity:0.968627"
       d="m 124.95518,57.673499 c 0.0574,0.270246 0.18983,2.012887 0.63111,1.892589 0.3835,-0.104548 0.58511,-0.906865 0.73631,-1.209154"
       id="path74079" />
    <path
       style="fill:#29ff00;fill-opacity:0;stroke:#000000;stroke-width:0.7;stroke-linecap:round;stroke-linejoin:round;stroke-miterlimit:4;stroke-dasharray:none;stroke-dashoffset:0;stroke-opacity:0.968627"
       d="m 126.37519,57.620927 c 0.0351,0.08762 0.0918,0.169433 0.10519,0.26286 0.0272,0.190418 -0.051,2.206435 0.57853,1.577155"
       id="path74081" />
    <path
       style="fill:#29ff00;fill-opacity:0;stroke:#000000;stroke-width:0.7;stroke-linecap:round;stroke-linejoin:round;stroke-miterlimit:4;stroke-dasharray:none;stroke-dashoffset:0;stroke-opacity:0.968627"
       d="m 128.21595,57.98893 c 0.3995,0.164994 0.8453,0.521131 0.89408,-0.210288 0.0106,-0.158335 0.004,-0.325043 -0.0526,-0.473146 -0.11921,-0.309835 -0.64992,-0.409978 -0.89408,-0.210289 -0.46602,0.381133 -0.42629,1.083829 -0.21037,1.577158 0.045,0.102809 0.131,0.183517 0.21037,0.262858 0.46973,0.469551 0.46243,-0.987959 0.63112,-1.156581 0.0277,-0.02771 0.0906,0.01619 0.10519,0.05257 0.24261,0.606308 0.3407,1.794277 0.42074,2.418305 0.033,0.25754 0.33591,1.548754 -0.0526,1.840015 -0.23859,0.178872 -2.26677,-0.964684 -1.78816,-1.682297 0.225,-0.337373 1.14127,-0.610886 1.5252,-0.84115 0.1174,-0.07041 0.20602,-0.180743 0.31556,-0.262861"
       id="path74083" />
    <path
       style="fill:#29ff00;fill-opacity:0;stroke:#000000;stroke-width:0.7;stroke-linecap:round;stroke-linejoin:round;stroke-miterlimit:4;stroke-dasharray:none;stroke-dashoffset:0;stroke-opacity:0.968627"
       d="m 130.21449,57.410638 c 0.13655,0.510583 0.0443,1.066766 0.15778,1.577158 0.0222,0.09976 0.0727,0.319529 0.15778,0.262861 0.0808,-0.05383 0.54886,-1.063393 0.57853,-1.156584 0.27416,-0.251576 0.0366,-0.567026 0.10518,-0.84115 0.006,-0.02405 0.0448,0.02906 0.0526,0.05257 0.0457,0.137088 0.0595,0.283487 0.10519,0.420576 0.05,0.149945 0.21257,0.663726 0.42074,0.788577 0.44612,0.26756 0.42925,-0.261265 0.47335,-0.525719"
       id="path74085" />
    <path
       style="fill:#29ff00;fill-opacity:0;stroke:#000000;stroke-width:0.7;stroke-linecap:round;stroke-linejoin:round;stroke-miterlimit:4;stroke-dasharray:none;stroke-dashoffset:0;stroke-opacity:0.968627"
       d="m 126.95372,56.148915 c 0.50935,-0.234892 1.04657,-0.401289 1.57779,-0.578292"
       id="path74087" />
  </g>
</svg>
