<?xml version="1.0" encoding="UTF-8" standalone="no"?>
<!-- Created with Inkscape (http://www.inkscape.org/) -->

<svg
   width="125.83344mm"
   height="65.549866mm"
   viewBox="0 0 125.83344 65.549866"
   version="1.1"
   id="svg5"
   inkscape:version="1.1.2 (0a00cf5339, 2022-02-04)"
   sodipodi:docname="tek-ve-çok-çenekli-bitkilerde-taşıma.svg"
   xmlns:inkscape="http://www.inkscape.org/namespaces/inkscape"
   xmlns:sodipodi="http://sodipodi.sourceforge.net/DTD/sodipodi-0.dtd"
   xmlns="http://www.w3.org/2000/svg"
   xmlns:svg="http://www.w3.org/2000/svg">
  <sodipodi:namedview
     id="namedview7"
     pagecolor="#ffffff"
     bordercolor="#999999"
     borderopacity="1"
     inkscape:pageshadow="0"
     inkscape:pageopacity="0"
     inkscape:pagecheckerboard="0"
     inkscape:document-units="mm"
     showgrid="true"
     inkscape:zoom="1.5270238"
     inkscape:cx="284.54043"
     inkscape:cy="131.95603"
     inkscape:window-width="1916"
     inkscape:window-height="1033"
     inkscape:window-x="0"
     inkscape:window-y="23"
     inkscape:window-maximized="1"
     inkscape:current-layer="layer1">
    <inkscape:grid
       type="xygrid"
       id="grid824"
       originx="-39.960626"
       originy="-14.999191" />
  </sodipodi:namedview>
  <defs
     id="defs2" />
  <g
     inkscape:label="Layer 1"
     inkscape:groupmode="layer"
     id="layer1"
     transform="translate(-39.960628,-14.999191)">
    <path
       style="fill:#000000;fill-opacity:0;stroke:#000000;stroke-width:0.7;stroke-linecap:round;stroke-linejoin:round"
       d="m 50.585144,24.836935 -0.29356,55.362122"
       id="path859" />
    <path
       style="fill:#000000;fill-opacity:0;stroke:#000000;stroke-width:0.7;stroke-linecap:round;stroke-linejoin:round"
       d="m 52.933603,24.836935 -0.29356,55.362122"
       id="path861" />
    <path
       style="fill:#000000;fill-opacity:0;stroke:#000000;stroke-width:0.7;stroke-linecap:round;stroke-linejoin:round"
       d="M 53.325013,39.802315 C 57.707209,23.090604 72.260279,31.565758 77.592444,16.62065 81.319626,43.321935 62.933686,34.84207 52.933604,42.443267"
       id="path976"
       sodipodi:nodetypes="ccc" />
    <path
       style="fill:#000000;fill-opacity:0;stroke:#ff005f;stroke-width:0.7;stroke-linecap:round;stroke-linejoin:round;stroke-opacity:1"
       d="M 54.499246,39.411059 C 58.883706,25.974554 77.37451,29.206586 77.005325,20.141915"
       id="path2062"
       sodipodi:nodetypes="cc" />
    <path
       style="fill:#000000;fill-opacity:0;stroke:#ff005f;stroke-width:0.7;stroke-linecap:round;stroke-linejoin:round;stroke-opacity:1"
       d="M 55.673472,39.60668 C 59.962927,29.303386 74.892577,28.524738 76.809622,24.73912"
       id="path2888"
       sodipodi:nodetypes="cc" />
    <path
       style="fill:#000000;fill-opacity:0;stroke:#ff005f;stroke-width:0.7;stroke-linecap:round;stroke-linejoin:round;stroke-opacity:1"
       d="m 57.63052,38.824178 c 7.937488,-10.081459 18.4132,-9.42744 19.081245,-11.835362"
       id="path3331"
       sodipodi:nodetypes="cc" />
    <path
       style="fill:#000000;fill-opacity:0;stroke:#ff005f;stroke-width:0.7;stroke-linecap:round;stroke-linejoin:round;stroke-opacity:1"
       d="m 59.881133,38.237297 c 9.462354,-8.393983 11.441268,-6.68021 16.34137,-9.096597"
       id="path3793"
       sodipodi:nodetypes="cc" />
    <path
       style="fill:#000000;fill-opacity:0;stroke:#ff005f;stroke-width:0.7;stroke-linecap:round;stroke-linejoin:round;stroke-opacity:1"
       d="m 62.914564,37.846055 c 6.158473,-5.75849 8.729455,-4.344913 13.014385,-6.357839"
       id="path4613"
       sodipodi:nodetypes="cc" />
    <path
       style="fill:#000000;fill-opacity:0;stroke:#ff005f;stroke-width:0.7;stroke-linecap:round;stroke-linejoin:round;stroke-opacity:1"
       d="m 65.752287,37.552618 c 1.821889,-1.784101 6.657105,-3.43379 8.023912,-3.912519"
       id="path4821"
       sodipodi:nodetypes="cc" />
    <path
       style="fill:#000000;fill-opacity:0;stroke:#ff005f;stroke-width:0.7;stroke-linecap:round;stroke-linejoin:round;stroke-opacity:1"
       d="m 74.069751,32.368532 c 0.16309,0.130418 0.348763,0.236765 0.489263,0.39125 0.188735,0.207523 0.309641,0.469233 0.489262,0.684694 0.743275,0.891569 1.518832,1.605259 2.544167,2.151883 0.03694,0.01969 1.076375,0.63338 1.076375,0.09781"
       id="path5543" />
    <path
       style="fill:#000000;fill-opacity:0;stroke:#ff005f;stroke-width:0.7;stroke-linecap:round;stroke-linejoin:round;stroke-opacity:1"
       d="m 78.864528,34.520417 c 0.438401,0.553837 1.650518,1.37127 0.782822,2.151883 -0.195482,0.175863 -0.429011,0.331052 -0.684971,0.391253 -0.340061,0.07998 -1.270172,-0.01045 -1.663494,-0.09781 -0.07119,-0.01582 -0.268631,-0.09781 -0.195704,-0.09781 0.134482,0 0.256929,0.09781 0.391411,0.09781"
       id="path5545" />
    <path
       style="fill:#000000;fill-opacity:0;stroke:#ff005f;stroke-width:0.7;stroke-linecap:round;stroke-linejoin:round;stroke-opacity:1"
       d="m 81.800101,38.530744 c 0.03262,-0.293436 0.06122,-0.587349 0.09786,-0.880314 0.02861,-0.228767 0.0787,-0.45494 0.09785,-0.684691 0.01355,-0.16246 0,-0.326044 0,-0.489067 0,-0.0326 0.01032,-0.128741 0,-0.09781 -0.07509,0.225182 -0.112331,0.462447 -0.195707,0.684692 -0.1128,0.300675 -0.294666,0.574098 -0.391406,0.880316 -0.18297,0.57917 -0.245846,1.159224 -0.19571,1.760633 0.08625,1.03461 0.454475,0.09057 0.684972,-0.293439"
       id="path5547" />
    <path
       style="fill:#000000;fill-opacity:0;stroke:#ff005f;stroke-width:0.7;stroke-linecap:round;stroke-linejoin:round;stroke-opacity:1"
       d="m 81.800101,35.205106 c 0.228322,0.0326 0.456647,0.06521 0.684969,0.09781"
       id="path5549" />
    <path
       style="fill:#000000;fill-opacity:0;stroke:#ff005f;stroke-width:0.7;stroke-linecap:round;stroke-linejoin:round;stroke-opacity:1"
       d="m 83.365744,39.117624 c 0.256587,-0.64122 0.465666,-1.145998 0.684969,-1.858446 0.11865,-0.385453 0.184772,-0.7854 0.293555,-1.173753 0.119621,-0.427048 0.243755,-0.85339 0.391409,-1.271572 0.0633,-0.179287 0.208502,-0.659111 0.29356,-0.489063 0.04376,0.08748 0.007,0.195873 0,0.293438 -0.02566,0.359212 -0.04093,0.720342 -0.09785,1.075944 -0.207558,1.296707 -0.68497,2.585257 -0.68497,3.912516 0,1.068456 0.468096,0.608031 0.880671,0.195627"
       id="path5551" />
    <path
       style="fill:#000000;fill-opacity:0;stroke:#ff005f;stroke-width:0.7;stroke-linecap:round;stroke-linejoin:round;stroke-opacity:1"
       d="m 86.105613,38.726371 c 0.427701,-0.01024 1.195816,0.72281 1.663493,0.489067 1.135441,-0.567489 0.461182,-2.604162 -0.391408,-1.858447 -0.511218,0.44713 -1.551258,2.509761 -0.489263,2.934388 0.739709,0.295765 1.768578,-0.362667 2.348458,-0.684691"
       id="path5553" />
    <path
       style="fill:#000000;fill-opacity:0;stroke:#ff005f;stroke-width:0.7;stroke-linecap:round;stroke-linejoin:round;stroke-opacity:1"
       d="m 91.096091,36.183236 c 0.06524,-0.228229 0.130471,-0.456459 0.195707,-0.684689 0,-0.06521 0,-0.260836 0,-0.195627 0,0.554273 0.02217,1.108988 0,1.662819 -0.02796,0.698656 -0.232979,1.844479 0,2.543135 0.24271,0.727837 1.947651,-0.691351 2.054899,-1.173755 0.02918,-0.131228 -0.06523,-0.260834 -0.09785,-0.39125"
       id="path5555" />
    <path
       style="fill:#000000;fill-opacity:0;stroke:#ff005f;stroke-width:0.7;stroke-linecap:round;stroke-linejoin:round;stroke-opacity:1"
       d="m 90.508978,37.943869 c 1.327824,0.398187 0.643488,0.35433 2.054899,0.09781"
       id="path5557" />
    <path
       style="fill:#000000;fill-opacity:0;stroke:#ff005f;stroke-width:0.7;stroke-linecap:round;stroke-linejoin:round;stroke-opacity:1"
       d="m 93.738114,37.748244 c 0.274519,0.02349 0.727633,1.74684 0.782823,1.76063 0.114078,0.02851 0.195699,-0.130416 0.293547,-0.195625"
       id="path5559" />
    <path
       style="fill:#000000;fill-opacity:0;stroke:#ff005f;stroke-width:0.7;stroke-linecap:round;stroke-linejoin:round;stroke-opacity:1"
       d="m 96.086569,36.965739 c 0.01624,0.03806 -0.417367,3.240802 0,3.032201 0.513657,-0.256727 0.727887,-2.977298 1.272082,-3.521268 0.121791,-0.12174 0.260424,1.277885 0.489262,1.369383 0.515345,0.206052 0.839878,-1.389771 1.272085,-1.173755 0.53004,0.264917 -0.113371,2.038532 0.293558,2.445324 0.02307,0.02305 0.01032,-0.06688 0,-0.09781 -0.05554,-0.166573 -0.130466,-0.326043 -0.195702,-0.489066"
       id="path5561" />
    <path
       style="fill:#000000;fill-opacity:0;stroke:#ff005f;stroke-width:0.7;stroke-linecap:round;stroke-linejoin:round;stroke-opacity:1"
       d="m 94.618782,36.085425 -0.195701,0.684689"
       id="path5563" />
    <path
       style="fill:#000000;fill-opacity:0;stroke:#ff005f;stroke-width:0.7;stroke-linecap:round;stroke-linejoin:round;stroke-opacity:1"
       d="m 83.267893,41.465134 c -0.06323,1.199052 -0.469516,2.455839 -0.782823,3.619074 -0.187185,0.694976 -0.353152,1.121299 -0.489262,1.075947 -0.09782,-0.03259 -0.06523,-0.195628 -0.09785,-0.293441"
       id="path5565" />
    <path
       style="fill:#000000;fill-opacity:0;stroke:#ff005f;stroke-width:0.7;stroke-linecap:round;stroke-linejoin:round;stroke-opacity:1"
       d="m 82.387219,43.030142 c 0.623126,-0.657828 1.538264,-1.763424 2.642018,-1.369383 0.21717,0.07753 0.374822,0.288875 0.489263,0.489067 0.755761,1.322054 -0.283377,2.792018 -1.467787,3.423449 -0.998974,0.532572 -2.375696,-0.364011 -1.369941,-1.36938"
       id="path5567" />
    <path
       style="fill:#000000;fill-opacity:0;stroke:#ff005f;stroke-width:0.7;stroke-linecap:round;stroke-linejoin:round;stroke-opacity:1"
       d="m 85.909911,44.39952 c 0.260937,-0.06521 0.521877,-0.130416 0.782815,-0.195625 0.26094,-0.06521 0.515932,-0.162277 0.782822,-0.195625 0.321017,-0.04011 1.027407,0.07338 1.369933,-0.09781 1.541759,-0.77057 0.549059,-3.301664 -1.174226,-1.173755 -0.341553,0.421751 -0.669136,0.869598 -0.880671,1.369385 -0.176146,0.416171 -0.574344,1.978374 0.293553,2.151883 0.172233,0.03443 0.334269,-0.113001 0.489262,-0.19563 1.018077,-0.542754 1.681978,-1.157169 2.250615,-2.151883"
       id="path5569" />
    <path
       style="fill:#000000;fill-opacity:0;stroke:#ff005f;stroke-width:0.7;stroke-linecap:round;stroke-linejoin:round;stroke-opacity:1"
       d="m 90.508978,42.834517 c 0.363603,0.04277 0.131397,2.836572 0.195707,2.836572 0.103108,0 0.05818,-0.198269 0.09785,-0.293439 0.426831,-1.023977 0.786138,-2.083914 1.369935,-3.032199 0.173242,-0.281403 0.387559,-0.494829 0.391406,-0.489064 0.207497,0.311121 -0.3362,2.572954 0.391417,2.249699 0.592511,-0.263231 1.066668,-0.986044 1.467787,-1.467194 0.0753,-0.09032 0.293557,-0.313222 0.293557,-0.19563 0,0.496215 -0.872751,1.602888 -0.195701,2.054074 0.961911,0.641017 1.550956,-1.365713 1.957049,-1.467194 0.469757,-0.117393 1.074565,0.487259 1.369927,0.782503 0.08317,0.08313 0.222989,0.289684 0.293561,0.195625 0.27958,-0.372632 0.342302,-2.318129 0,-2.249697 -0.924841,0.184894 -1.307153,1.989452 -1.467787,2.738763 -0.01439,0.06717 -0.265583,0.897395 0.09786,0.97813 0.231802,0.05149 0.469776,-0.09524 0.684967,-0.195625 1.441625,-0.672486 2.21333,-2.197677 2.935567,-3.521268"
       id="path5571" />
    <path
       style="fill:#000000;fill-opacity:0;stroke:#ff005f;stroke-width:0.7;stroke-linecap:round;stroke-linejoin:round;stroke-opacity:1"
       d="m 100.9792,39.900127 c -0.47593,1.648671 -1.076382,3.343775 -1.076382,5.086273 0,0.509381 0.799602,-0.696831 0.978522,-1.173755 0.10559,-0.281451 0.13048,-0.586881 0.19572,-0.880319"
       id="path5573" />
    <path
       style="fill:#000000;fill-opacity:0;stroke:#ff005f;stroke-width:0.7;stroke-linecap:round;stroke-linejoin:round;stroke-opacity:1"
       d="m 99.804973,42.638892 c 0.346797,0.131808 1.065887,-0.489066 1.467787,-0.489066"
       id="path5575" />
    <path
       style="fill:#000000;fill-opacity:0;stroke:#ff005f;stroke-width:0.7;stroke-linecap:round;stroke-linejoin:round;stroke-opacity:1"
       d="m 102.34913,42.052012 c 0.22832,-0.456462 0.4647,-0.908984 0.68498,-1.36938 0.1386,-0.289687 0.28335,-0.577903 0.3914,-0.880317 0.0559,-0.156561 0.0235,-0.340378 0.0979,-0.489066 0.0438,-0.08748 0.0161,0.196959 0,0.293439 -0.0494,0.296508 -0.15163,0.582962 -0.19571,0.880316 -0.0302,0.204057 -0.38102,3.468494 -0.39141,3.619082 -0.0224,0.325268 -0.0683,0.659326 0,0.978122 0.13081,0.610182 0.58712,0.404046 0.58712,0"
       id="path5577" />
    <path
       style="fill:#000000;fill-opacity:0;stroke:#ff005f;stroke-width:0.7;stroke-linecap:round;stroke-linejoin:round;stroke-opacity:1"
       d="m 104.11047,43.323581 c 0.85285,-0.256704 1.20453,0.468527 2.05491,0.39125 0.78836,-0.07164 0.18387,-1.4033 -0.3914,-1.467194 -0.84702,-0.09408 -1.13221,2.505929 -0.48927,2.934388 0.21264,0.141703 0.74738,-0.142328 0.88067,-0.195625"
       id="path5579" />
    <path
       style="fill:#000000;fill-opacity:0;stroke:#ff005f;stroke-width:0.7;stroke-linecap:round;stroke-linejoin:round;stroke-opacity:1"
       d="m 107.04606,44.497336 c -0.14512,0.252211 0.53589,-0.492125 0.68496,-0.293441 0.19576,0.260911 0.19571,0.858522 0.19571,1.173755 0,0.06521 0.009,0.260178 0,0.195625 -0.16902,-1.182696 -0.43718,-3.17032 1.27208,-3.325638 0.40773,-0.03705 0.8041,0.267922 1.17424,0.391255 0.0978,0.293438 0.27638,0.571468 0.29355,0.880314 0.0126,0.226311 -0.60569,1.850588 0.19571,0.782505"
       id="path5581" />
    <path
       style="fill:#000000;fill-opacity:0;stroke:#ff005f;stroke-width:0.7;stroke-linecap:round;stroke-linejoin:round;stroke-opacity:1"
       d="m 110.86231,40.584815 -0.48926,0.09782"
       id="path5583" />
    <path
       style="fill:#000000;fill-opacity:0;stroke:#000000;stroke-width:0.7;stroke-linecap:round;stroke-linejoin:round;stroke-opacity:1"
       d="m 40.310628,24.445683 c 0.3435,-0.866183 0.580215,-1.729588 0.78282,-2.640949 0.101309,-0.455705 0.21354,-0.909458 0.293558,-1.369379 0.108659,-0.624543 0.09785,-0.702014 0.09785,-1.173758 0,-0.06521 0,0.130419 0,0.195628 0,0.326043 -0.01714,0.652538 0,0.97813 0.02416,0.458733 0.158224,3.234069 0.78282,3.130014 0.524603,-0.0874 0.684969,-2.845272 0.684969,-3.325642 0,-0.295246 -0.09786,-0.585069 -0.09786,-0.880314 0,-0.04612 0.07227,-0.136185 0.09786,-0.09782 0.27377,0.410477 0.13448,0.977612 0.195702,1.467195 0.08767,0.701109 0.3219,3.549597 0.782823,4.010331 0.108511,0.108467 0.370218,-1.34009 0.391411,-1.467195"
       id="path5752" />
    <path
       style="fill:#000000;fill-opacity:0;stroke:#000000;stroke-width:0.7;stroke-linecap:round;stroke-linejoin:round;stroke-opacity:1"
       d="m 44.909697,22.685051 c 0.150659,0.239539 0.78925,1.317262 1.272082,1.075942 0.880023,-0.439832 0.793324,-2.248741 -0.293557,-2.347508 -0.197589,-0.01796 -0.426638,-0.01885 -0.587114,0.09781 -0.843877,0.61348 -0.391411,0.532004 -0.391411,1.173754 0,0.327671 -0.138509,0.652992 -0.09785,0.97813 0.05194,0.415324 0.564208,1.106121 1.076376,0.97813 0.448325,-0.112038 0.715473,-1.168637 0.684969,-1.565007 -0.02064,-0.268077 -0.103791,-0.529836 -0.195707,-0.782505 -0.03196,-0.08785 -0.278019,-0.511913 -0.489262,-0.391253 -1.044118,0.596392 -0.677223,2.832733 0.880673,2.054072"
       id="path5754" />
    <path
       style="fill:#000000;fill-opacity:0;stroke:#000000;stroke-width:0.7;stroke-linecap:round;stroke-linejoin:round;stroke-opacity:1"
       d="m 48.138828,22.489426 c 0.364625,1.640118 0.09298,0.117635 0.19571,1.760632 0.01439,0.230099 -0.0053,0.890883 0.09785,0.68469 0.161104,-0.322083 0.04917,-0.71912 0.09785,-1.075942 0.07411,-0.543241 0.143766,-1.90434 0.587118,-2.347509 0.130471,-0.130416 0.32834,0.217891 0.391406,0.391249 0.154874,0.425735 0.287549,2.24569 0.587118,2.445325 0.201385,0.134202 1.36793,-1.661821 1.565638,-1.760632 0.02857,-0.01428 1.031512,1.134027 1.369935,0.880314 0.581671,-0.436074 0.372521,-2.155658 -0.587113,-2.347509 -0.554368,-0.110829 -1.078317,0.856107 -1.174234,1.271567 -0.05196,0.225092 0.02022,1.155918 0.09786,1.369382 0.02817,0.07745 0.473895,0.636189 0.587113,0.68469 1.011161,0.433175 1.359154,-3.151769 0.09785,-2.836574 -0.99082,0.247603 -0.66939,1.519993 0.293561,1.760632"
       id="path5756" />
    <path
       style="fill:#000000;fill-opacity:0;stroke:#000000;stroke-width:0.7;stroke-linecap:round;stroke-linejoin:round;stroke-opacity:1"
       d="m 54.597098,20.63098 c 0.341551,-0.499702 0.211281,-1.12264 0.391412,-1.66282 0.02064,-0.06186 0,0.130417 0,0.195625 0,0.652086 0.01762,1.304411 0,1.956259 -0.0097,0.357424 -0.310362,2.664654 0,3.130014 0.02558,0.03837 0.08072,-0.05499 0.09785,-0.09781 0.11492,-0.287185 0.204642,-0.584048 0.293561,-0.880318 0.04747,-0.158187 0.645451,-2.347509 0.880671,-2.347509 0.130418,0 0.02558,0.263368 0,0.39125 -0.196747,0.983318 -0.962668,1.615257 -1.272082,2.543137 -0.04127,0.12377 0.261948,0.01618 0.391411,0 0.573159,-0.07162 1.018945,-0.404722 1.565637,-0.586878 0.07112,-0.0237 0.490863,-0.243732 0.587119,-0.195624 0.04125,0.02062 0.05173,0.09781 0.09785,0.09781 0.292375,0 0.626184,-0.306456 0.880673,-0.391252 0.492257,-0.164022 1.348944,0.559111 1.467787,-0.391253 0.125431,-1.003071 -1.726475,-1.341283 -2.152759,-0.489065 -0.382383,0.764454 0.02432,2.151887 0.978525,2.151887 0.09785,0 0.209642,0.05033 0.29356,0 0.63872,-0.383074 0.456473,-2.734664 -0.29356,-2.640948 -1.560563,0.194989 -0.971823,3.905793 0.195709,2.738761"
       id="path5758" />
    <path
       style="fill:#000000;fill-opacity:0;stroke:#000000;stroke-width:0.7;stroke-linecap:round;stroke-linejoin:round;stroke-opacity:1"
       d="m 61.642481,19.750662 c 0.03262,-0.163022 0.260874,-0.456448 0.09785,-0.489065 -0.556466,-0.111336 0.07359,0.567383 0.09785,1.173758 0.03631,0.907281 -0.542441,2.931555 0.489262,3.619078 0.610886,0.407092 1.467792,-0.485073 1.467792,-1.075942 0,-0.595211 -0.380492,-0.478147 -0.684969,-0.782505"
       id="path5760" />
    <path
       style="fill:#000000;fill-opacity:0;stroke:#000000;stroke-width:0.7;stroke-linecap:round;stroke-linejoin:round;stroke-opacity:1"
       d="m 61.446772,22.587239 c -2.520466,0.577662 1.510323,-0.391253 1.859203,-0.391253"
       id="path5762" />
    <path
       style="fill:#000000;fill-opacity:0;stroke:#000000;stroke-width:0.7;stroke-linecap:round;stroke-linejoin:round;stroke-opacity:1"
       d="m 64.578055,22.391611 c 0.195704,0.130418 0.420785,0.224989 0.587118,0.391253 0.280011,0.279896 0.489262,0.67114 0.489262,1.075942 0,0.07291 -0.04629,0.247173 -0.09785,0.195627 -0.06918,-0.06915 0.0108,-0.196225 0,-0.29344 -0.02191,-0.197112 -0.06524,-0.391251 -0.09786,-0.586877"
       id="path5764" />
    <path
       style="fill:#000000;fill-opacity:0;stroke:#000000;stroke-width:0.7;stroke-linecap:round;stroke-linejoin:round;stroke-opacity:1"
       d="m 65.165173,20.924419 c 0.543925,-0.869929 0.391948,-0.490678 0.587113,-1.075941"
       id="path5766" />
    <path
       style="fill:#000000;fill-opacity:0;stroke:#000000;stroke-width:0.7;stroke-linecap:round;stroke-linejoin:round;stroke-opacity:1"
       d="m 67.220073,18.479095 c 0.02077,1.722494 -0.938594,5.321819 0.391411,6.651281 0.123751,0.1237 0.307245,-0.880318 0.587118,-0.880318"
       id="path5768" />
    <path
       style="fill:#000000;fill-opacity:0;stroke:#000000;stroke-width:0.7;stroke-linecap:round;stroke-linejoin:round"
       d="M 128.04676,24.836935 127.7532,80.199057"
       id="path5850" />
    <path
       style="fill:#000000;fill-opacity:0;stroke:#000000;stroke-width:0.7;stroke-linecap:round;stroke-linejoin:round"
       d="m 130.39522,24.836935 -0.29356,55.362122"
       id="path5852" />
    <path
       style="fill:#000000;fill-opacity:0;stroke:#000000;stroke-width:0.7;stroke-linecap:round;stroke-linejoin:round"
       d="m 130.3807,43.900148 10.28903,-5.369403 c 4.3822,-16.711711 18.93527,-8.236557 24.26743,-23.181665 3.72718,26.701285 -13.99673,20.533843 -24.65884,25.822617 -3.2409,1.607595 -9.71545,4.664415 -9.70191,4.68471"
       id="path5854"
       sodipodi:nodetypes="cccsc" />
    <path
       style="fill:#000000;fill-opacity:0;stroke:#000000;stroke-width:0.7;stroke-linecap:round;stroke-linejoin:round;stroke-opacity:1"
       d="m 132.05872,20.63098 c 0.34155,-0.499702 0.21128,-1.12264 0.39141,-1.66282 0.0206,-0.06186 0,0.130417 0,0.195625 0,0.652086 0.0176,1.304411 0,1.956259 -0.01,0.357424 -0.31036,2.664654 0,3.130014 0.0256,0.03837 0.0807,-0.05499 0.0978,-0.09781 0.11492,-0.287185 0.20464,-0.584048 0.29356,-0.880318 0.0475,-0.158187 0.64545,-2.347509 0.88067,-2.347509 0.13042,0 0.0256,0.263368 0,0.39125 -0.19675,0.983318 -0.96267,1.615257 -1.27208,2.543137 -0.0413,0.12377 0.26195,0.01618 0.39141,0 0.57316,-0.07162 1.01894,-0.404722 1.56564,-0.586878 0.0711,-0.0237 0.49086,-0.243732 0.58711,-0.195624 0.0412,0.02062 0.0517,0.09781 0.0978,0.09781 0.29238,0 0.62619,-0.306456 0.88068,-0.391252 0.49225,-0.164022 1.34894,0.559111 1.46778,-0.391253 0.12544,-1.003071 -1.72647,-1.341283 -2.15275,-0.489065 -0.38239,0.764454 0.0243,2.151887 0.97852,2.151887 0.0978,0 0.20964,0.05033 0.29356,0 0.63872,-0.383074 0.45647,-2.734664 -0.29356,-2.640948 -1.56056,0.194989 -0.97182,3.905793 0.19571,2.738761"
       id="path5916" />
    <path
       style="fill:#000000;fill-opacity:0;stroke:#000000;stroke-width:0.7;stroke-linecap:round;stroke-linejoin:round;stroke-opacity:1"
       d="m 139.1041,19.750662 c 0.0326,-0.163022 0.26087,-0.456448 0.0979,-0.489065 -0.55647,-0.111336 0.0736,0.567383 0.0978,1.173758 0.0363,0.907281 -0.54244,2.931555 0.48926,3.619078 0.61089,0.407092 1.46779,-0.485073 1.46779,-1.075942 0,-0.595211 -0.38049,-0.478147 -0.68497,-0.782505"
       id="path5918" />
    <path
       style="fill:#000000;fill-opacity:0;stroke:#000000;stroke-width:0.7;stroke-linecap:round;stroke-linejoin:round;stroke-opacity:1"
       d="m 138.90839,22.587239 c -2.52047,0.577662 1.51032,-0.391253 1.8592,-0.391253"
       id="path5920" />
    <path
       style="fill:#000000;fill-opacity:0;stroke:#000000;stroke-width:0.7;stroke-linecap:round;stroke-linejoin:round;stroke-opacity:1"
       d="m 142.03967,22.391611 c 0.19571,0.130418 0.42079,0.224989 0.58712,0.391253 0.28001,0.279896 0.48926,0.67114 0.48926,1.075942 0,0.07291 -0.0463,0.247173 -0.0978,0.195627 -0.0692,-0.06915 0.0108,-0.196225 0,-0.29344 -0.0219,-0.197112 -0.0652,-0.391251 -0.0979,-0.586877"
       id="path5922" />
    <path
       style="fill:#000000;fill-opacity:0;stroke:#000000;stroke-width:0.7;stroke-linecap:round;stroke-linejoin:round;stroke-opacity:1"
       d="m 142.62679,20.924419 c 0.54393,-0.869929 0.39195,-0.490678 0.58711,-1.075941"
       id="path5924" />
    <path
       style="fill:#000000;fill-opacity:0;stroke:#000000;stroke-width:0.7;stroke-linecap:round;stroke-linejoin:round;stroke-opacity:1"
       d="m 144.68169,18.479095 c 0.0208,1.722494 -0.93859,5.321819 0.39141,6.651281 0.12375,0.1237 0.30725,-0.880318 0.58712,-0.880318"
       id="path5926" />
    <path
       style="fill:#000000;fill-opacity:0;stroke:#000000;stroke-width:0.7;stroke-linecap:round;stroke-linejoin:round;stroke-opacity:1"
       d="m 127.82227,23.65287 c 0.63874,-0.421643 0.83884,-1.401276 0,-1.760635 -1.15607,-0.495263 -3.34853,1.896579 -2.0549,2.543137 2.25714,1.128124 3.71839,-4.431183 3.71839,-5.868775 0,-0.09781 0.0161,0.196958 0,0.29344 -0.0986,0.591555 -0.43019,0.957845 -0.68497,1.467191"
       id="path6127" />
    <path
       style="fill:#000000;fill-opacity:0;stroke:#000000;stroke-width:0.7;stroke-linecap:round;stroke-linejoin:round;stroke-opacity:1"
       d="m 130.17073,23.163805 c 0.93606,-1.734274 -0.65876,1.271567 -0.29356,1.271567 0.0729,0 0.15194,-0.03948 0.19571,-0.09781 0.55324,-0.737352 0.47791,-0.540583 0.0978,-1.173754 z"
       id="path6129" />
    <path
       style="fill:#000000;fill-opacity:0;stroke:#000000;stroke-width:0.7;stroke-linecap:round;stroke-linejoin:round;stroke-opacity:1"
       d="m 130.65999,21.500986 c 0.16309,-0.06521 0.32618,-0.130419 0.48927,-0.195628"
       id="path6131" />
    <path
       style="fill:#000000;fill-opacity:0;stroke:#000000;stroke-width:0.7;stroke-linecap:round;stroke-linejoin:round;stroke-opacity:1"
       d="m 130.28285,49.182046 c 3.37241,-0.977682 3.24354,-2.763026 3.32699,-4.499393"
       id="path6584"
       sodipodi:nodetypes="cc" />
    <path
       style="fill:#000000;fill-opacity:0;stroke:#ff005f;stroke-width:0.7;stroke-linecap:round;stroke-linejoin:round;stroke-opacity:1"
       d="m 141.9702,39.145371 c 7.34701,-8.201431 18.6355,-8.837629 22.51263,-19.183333"
       id="path7361"
       sodipodi:nodetypes="cc" />
    <path
       style="fill:#000000;fill-opacity:0;stroke:#ff005f;stroke-width:0.7;stroke-linecap:round;stroke-linejoin:round;stroke-opacity:1"
       d="m 148.27702,33.611224 c -0.0175,-0.157551 -0.0525,-0.314134 -0.0525,-0.472657 0,-0.175932 0.0455,-0.349385 0.0525,-0.525176 0.0203,-0.507265 0,-1.015342 0,-1.523014 0,-0.245083 0,-0.490167 0,-0.73525 0,-0.05252 -0.0525,-0.157549 0,-0.157549 0.0248,0 0.035,0.03501 0.0525,0.05251"
       id="path11214" />
    <path
       style="fill:#000000;fill-opacity:0;stroke:#ff005f;stroke-width:0.7;stroke-linecap:round;stroke-linejoin:round;stroke-opacity:1"
       d="m 146.96354,30.617715 c 0.47602,0.397357 0.90226,0.848373 1.36602,1.260428 0.01,0.0085 0.31523,0.341026 0.31523,0.315105 0,-0.02516 -0.17693,-0.301191 -0.21016,-0.367623 0.14011,-0.05252 0.30535,-0.06179 0.42032,-0.157554 0.16402,-0.136628 0.54451,-0.970585 0.683,-1.207905 0.0832,-0.142655 0.18881,-0.272421 0.2627,-0.420142 0.0175,-0.03502 -0.0659,0.05251 -0.10508,0.05251"
       id="path11216" />
    <path
       style="fill:#000000;fill-opacity:0;stroke:#ff005f;stroke-width:0.7;stroke-linecap:round;stroke-linejoin:round;stroke-opacity:1"
       d="m 153.68853,27.414138 c 0.035,0.08753 0.072,0.174318 0.10508,0.262588 0.21254,0.566542 0.44031,1.126048 0.683,1.680567 0.11954,0.273116 0.41246,0.727398 0.2627,0.577694 -0.0393,-0.03924 0.0525,-0.152942 0.0525,-0.210071"
       id="path11220" />
    <path
       style="fill:#000000;fill-opacity:0;stroke:#ff005f;stroke-width:0.7;stroke-linecap:round;stroke-linejoin:round;stroke-opacity:1"
       d="m 152.74283,27.83428 c 0.32299,-0.04426 2.31043,1.487154 1.26093,0.787765"
       id="path11222" />
    <path
       style="fill:#000000;fill-opacity:0;stroke:#ff005f;stroke-width:0.7;stroke-linecap:round;stroke-linejoin:round;stroke-opacity:1"
       d="m 154.47661,28.569525 c 0.0175,-0.105034 0.0254,-0.212127 0.0525,-0.315102 0.14157,-0.537748 0.37343,-1.043895 0.52539,-1.575533 0.038,-0.132811 0.10508,-0.595969 0.10508,-0.367624"
       id="path11224" />
    <path
       style="fill:#000000;fill-opacity:0;stroke:#ff005f;stroke-width:0.7;stroke-linecap:round;stroke-linejoin:round;stroke-opacity:1"
       d="m 154.68677,29.147222 c 0.68494,-0.310671 1.19775,-0.863036 1.78632,-1.312942 0.11968,-0.09148 0.2544,-0.16342 0.36778,-0.262588 0.0475,-0.04156 0.0604,-0.112927 0.10507,-0.157554"
       id="path11226" />
    <path
       style="fill:#000000;fill-opacity:0;stroke:#ff005f;stroke-width:0.7;stroke-linecap:round;stroke-linejoin:round;stroke-opacity:1"
       d="m 150.64127,32.928499 c 0.17513,0.105034 0.36731,0.185819 0.52539,0.315103 0.23001,0.188118 0.40537,0.436239 0.63046,0.630211 0.70012,0.603308 1.00094,0.759298 1.78633,1.20791 0.0457,0.02611 0.74286,0.472657 0.9457,0.472657 0.0223,0 -0.15762,-0.105796 -0.15762,-0.262589"
       id="path11228" />
    <path
       style="fill:#000000;fill-opacity:0;stroke:#ff005f;stroke-width:0.7;stroke-linecap:round;stroke-linejoin:round;stroke-opacity:1"
       d="m 151.63951,33.97885 c 0.15518,0.855495 0.21015,1.705763 0.21015,2.573369"
       id="path11230" />
    <path
       style="fill:#000000;fill-opacity:0;stroke:#ff005f;stroke-width:0.7;stroke-linecap:round;stroke-linejoin:round;stroke-opacity:1"
       d="m 152.05982,33.821298 c 0.20755,-0.122814 1.24814,-0.892799 1.41855,-0.892799"
       id="path11232" />
    <path
       style="fill:#000000;fill-opacity:0;stroke:#ff005f;stroke-width:0.7;stroke-linecap:round;stroke-linejoin:round;stroke-opacity:1"
       d="m 153.37329,35.344311 c 0.0701,0.175059 0.1713,0.34067 0.21016,0.525177 0.0326,0.154829 -0.0868,1.161666 0.21016,1.050353 0.11593,-0.04346 0.17513,-0.175058 0.26269,-0.262588"
       id="path11234" />
    <path
       style="fill:#000000;fill-opacity:0;stroke:#ff005f;stroke-width:0.7;stroke-linecap:round;stroke-linejoin:round;stroke-opacity:1"
       d="m 154.47661,35.396826 c 0.69106,-0.364702 1.2977,-0.858653 1.99648,-1.207905"
       id="path11236" />
    <path
       style="fill:#000000;fill-opacity:0;stroke:#ff005f;stroke-width:0.7;stroke-linecap:round;stroke-linejoin:round;stroke-opacity:1"
       d="m 157.94418,28.149388 c 1.25773,0.150331 2.50861,-0.210984 3.73027,-0.472662 0.59198,-0.126802 0.35946,-0.02209 0.63047,-0.157554"
       id="path11242" />
    <path
       style="fill:#000000;fill-opacity:0;stroke:#ff005f;stroke-width:0.7;stroke-linecap:round;stroke-linejoin:round;stroke-opacity:1"
       d="m 160.09828,28.359457 c 0.48332,0.143714 2.38033,1.280837 2.73203,0.577694"
       id="path11244" />
    <path
       style="fill:#000000;fill-opacity:0;stroke:#ff005f;stroke-width:0.7;stroke-linecap:round;stroke-linejoin:round;stroke-opacity:1"
       d="m 161.67445,27.8868 c 0.035,-0.105037 0.03,-0.233765 0.10508,-0.315108 0.14501,-0.157033 0.3525,-0.241938 0.52539,-0.367623 0.468,-0.34023 0.87915,-0.677127 1.41855,-0.892803"
       id="path11250" />
    <path
       style="fill:#000000;fill-opacity:0;stroke:#ff005f;stroke-width:0.7;stroke-linecap:round;stroke-linejoin:round;stroke-opacity:1"
       d="m 156.26294,29.88247 c 0.15761,0.210071 0.31523,0.42014 0.47285,0.630211 0.34715,0.462677 0.51717,0.773856 0.99824,1.102873 0.0962,0.0658 1.17407,0.401942 0.9457,0.630211"
       id="path11252" />
    <path
       style="fill:#000000;fill-opacity:0;stroke:#ff005f;stroke-width:0.7;stroke-linecap:round;stroke-linejoin:round;stroke-opacity:1"
       d="m 156.89341,30.775269 c 2e-5,0.84812 0.47285,1.618557 0.47285,2.468333"
       id="path11254" />
    <path
       style="fill:#000000;fill-opacity:0;stroke:#ff005f;stroke-width:0.7;stroke-linecap:round;stroke-linejoin:round;stroke-opacity:1"
       d="m 157.47133,30.827789 c 0.54412,-0.179149 1.15161,-0.11308 1.73379,-0.210074"
       id="path11256" />
    <path
       style="fill:#000000;fill-opacity:0;stroke:#ff005f;stroke-width:0.7;stroke-linecap:round;stroke-linejoin:round;stroke-opacity:1"
       d="m 159.15258,33.611224 c 0,-0.444246 -0.0247,-0.884295 -0.15761,-1.312942 0.10508,-0.08753 0.18898,-0.210007 0.31523,-0.262588 0.13287,-0.05534 1.32094,0.05625 1.41855,0.105038"
       id="path11258" />
    <path
       style="fill:#000000;fill-opacity:0;stroke:#000000;stroke-width:0.7;stroke-linecap:round;stroke-linejoin:round;stroke-opacity:1"
       d="m 132.73586,47.541555 c 0.11554,0.02037 0.23229,0.03477 0.34661,0.06114 0.15101,0.03484 0.29557,0.09755 0.44856,0.122285 0.72647,0.11747 1.16178,0.134549 1.89616,0.06114 0.31122,-0.03111 1.03771,-0.107286 1.36605,-0.326091"
       id="path11676" />
    <path
       style="fill:#000000;fill-opacity:0;stroke:#000000;stroke-width:0.7;stroke-linecap:round;stroke-linejoin:round;stroke-opacity:1"
       d="m 136.36507,46.848617 c 0.16311,0.03397 0.32638,0.06719 0.48933,0.101901 0.25162,0.0536 0.50618,0.09538 0.75439,0.163044 0.12663,0.03452 0.27917,0.04512 0.367,0.142664 0.0591,0.06563 0.0586,0.198847 0,0.264948 -0.17131,0.193337 -0.41532,0.30784 -0.63206,0.448371 -0.28651,0.185775 -0.57846,0.363628 -0.87672,0.529894 -0.0563,0.03139 -0.11902,0.06114 -0.18349,0.06114 -0.0204,0 0,-0.04076 0,-0.06114"
       id="path11678" />
    <path
       style="fill:#000000;fill-opacity:0;stroke:#000000;stroke-width:0.7;stroke-linecap:round;stroke-linejoin:round;stroke-opacity:1"
       d="m 139.2195,46.99128 c 0.15066,-0.271079 0.23191,-0.406842 0.367,-0.754081 0.067,-0.172233 0.10908,-0.353158 0.16311,-0.529894 0.0207,-0.06783 0.11133,-0.153662 0.0612,-0.203806 -0.0473,-0.0473 -0.0558,0.121663 -0.0816,0.183425 -0.14589,0.349993 -0.5241,1.078981 -0.26505,1.4674 0.30307,0.454433 0.93855,0.08444 1.18255,-0.203806 0.25658,-0.303112 0.30727,-0.481721 0.34661,-0.835601 0.008,-0.06752 0.0276,-0.14173 0,-0.203806 -0.0114,-0.02561 -0.0679,-0.0041 -0.0816,0.02037 -0.0932,0.167647 -0.15491,0.351075 -0.22427,0.529894 -0.76151,1.9631 -0.3249,0.852154 -0.85633,2.384525 -0.0367,0.105894 -0.38772,1.065972 -0.44856,1.182071 -0.042,0.08008 -0.24452,0.448488 -0.44855,0.285327 -0.19453,-0.155562 -0.26856,-0.64058 -0.24467,-0.835602 0.0212,-0.172847 0.0928,-0.340468 0.1835,-0.489132 0.36144,-0.592527 1.04596,-0.617747 1.6515,-0.71332 0.34713,-0.05479 0.66072,-0.09202 0.97866,-0.244567 0.0433,-0.0208 0.068,-0.06793 0.10194,-0.101902"
       id="path11680" />
    <path
       style="fill:#000000;fill-opacity:0;stroke:#000000;stroke-width:0.7;stroke-linecap:round;stroke-linejoin:round;stroke-opacity:1"
       d="m 142.70699,48.723626 c 0.23072,-0.434173 0.37207,-0.868661 -0.0815,-1.263594 -0.0885,-0.07704 -0.23178,-0.08517 -0.34661,-0.06114 -0.50447,0.105548 -1.25964,0.766202 -0.93789,1.345118 0.0491,0.0883 0.13069,0.165798 0.22428,0.203806 0.42863,0.174059 0.88322,-0.03618 1.18255,-0.346469 0.089,-0.09222 0.25129,-0.355891 0.28544,-0.509514 0.006,-0.02823 0.0325,-0.256675 -0.0612,-0.163044 -0.0984,0.09834 -0.13582,0.351367 -0.16311,0.448371 -0.0326,0.115885 -0.0987,0.226129 -0.10195,0.346469 -0.003,0.126026 0.10715,0.705255 0.24467,0.815224 0.17703,0.141568 0.45083,-0.194765 0.53011,-0.30571"
       id="path11682" />
    <path
       style="fill:#000000;fill-opacity:0;stroke:#000000;stroke-width:0.7;stroke-linecap:round;stroke-linejoin:round;stroke-opacity:1"
       d="m 144.19537,47.623076 c -0.0988,0.987719 -0.40287,1.93616 -0.42816,2.934801 -0.006,0.224525 0.0474,0.448056 0.0408,0.672557 -5.3e-4,0.02148 -0.0454,0.035 -0.0612,0.02037 -0.0887,-0.0823 -0.14952,-0.19022 -0.22428,-0.285329"
       id="path11684" />
    <path
       style="fill:#000000;fill-opacity:0;stroke:#000000;stroke-width:0.7;stroke-linecap:round;stroke-linejoin:round;stroke-opacity:1"
       d="m 143.58371,48.336398 c 0.0475,-0.06212 0.3512,-0.501949 0.48933,-0.550275 0.5511,-0.19281 0.88328,-0.04683 1.40683,0.224184 0.24432,0.126471 0.48535,0.409913 0.44855,0.713319 -0.0402,0.331319 -0.6879,0.366541 -0.81555,0.387231 -0.38509,0.06242 -1.64013,0.181041 -1.97771,0.163044 -0.15668,-0.0084 -0.29904,-0.09511 -0.44856,-0.142663"
       id="path11686" />
    <path
       style="fill:#000000;fill-opacity:0;stroke:#000000;stroke-width:0.7;stroke-linecap:round;stroke-linejoin:round;stroke-opacity:1"
       d="m 147.02826,48.754175 c -0.48956,-0.470051 -0.72789,-1.525259 0.32308,-1.291807 0.31342,0.06962 0.54487,0.377841 0.86156,0.430599 0.28328,0.04719 0.57437,0 0.86155,0"
       id="path11688" />
    <path
       style="fill:#000000;fill-opacity:0;stroke:#000000;stroke-width:0.7;stroke-linecap:round;stroke-linejoin:round;stroke-opacity:1"
       d="m 149.936,48.538876 c -0.0549,0.478919 0.83375,1.267542 1.07695,0.538252 0.0454,-0.136165 0.0158,-0.287951 0,-0.430607 -0.1637,-1.472713 -1.72311,-0.580384 -1.72311,0.538253 0,1.549095 1.47771,0.715896 1.8308,-0.107646 0.0721,-0.168169 0.29067,-0.538252 0.10769,-0.538252 -0.10765,0 0.0152,0.216378 0,0.322945 -0.0217,0.151595 -0.2791,1.184161 0.21539,1.184161 0.14993,0 0.58438,-0.476494 0.64617,-0.538255"
       id="path11690" />
    <path
       style="fill:#000000;fill-opacity:0;stroke:#000000;stroke-width:0.7;stroke-linecap:round;stroke-linejoin:round;stroke-opacity:1"
       d="m 153.48991,45.309356 c 0.418,1.420534 0.30278,2.530324 0,3.983071 -0.21183,1.016376 -0.29759,1.218161 0.53847,0.2153"
       id="path11692" />
    <path
       style="fill:#000000;fill-opacity:0;stroke:#000000;stroke-width:0.7;stroke-linecap:round;stroke-linejoin:round;stroke-opacity:1"
       d="m 155.10532,47.462368 c -0.23395,0.197369 -1.98366,2.052296 -1.7231,2.260658 0.7719,0.617265 2.32987,0.322956 3.23082,0.322956 0.0718,0 -0.14359,0 -0.21538,0"
       id="path11694" />
    <path
       style="fill:#000000;fill-opacity:0;stroke:#000000;stroke-width:0.7;stroke-linecap:round;stroke-linejoin:round;stroke-opacity:1"
       d="m 142.61279,53.167846 c -0.22085,0.260921 -0.65954,1.937713 0.2154,1.937713 0.67058,0 0.92393,-1.467734 0.96924,-1.83006 0.0312,-0.249243 0,-0.502367 0,-0.753552 0,-0.03589 0.0114,-0.141695 0,-0.107653 -0.34152,1.024141 -0.16048,0.464351 -0.21539,1.507106 -0.0747,1.419376 -0.14033,2.912499 -0.43077,4.306025 -0.0764,0.366768 -0.19703,0.723701 -0.32308,1.076507 -0.054,0.151133 -0.0901,0.330367 -0.2154,0.430599 -0.81007,0.647793 -0.77536,-2.196176 -0.64616,-2.583611 0.18232,-0.54673 0.89334,-1.146223 1.40003,-1.399461 0.72001,-0.359859 0.2438,0.07926 0.53847,-0.215299"
       id="path11696" />
    <path
       style="fill:#000000;fill-opacity:0;stroke:#000000;stroke-width:0.7;stroke-linecap:round;stroke-linejoin:round;stroke-opacity:1"
       d="m 144.87438,55.105559 c 0.56249,-0.164487 1.37555,0.0871 1.7231,-0.538253 0.61521,-1.106921 -0.1577,-3.577653 -0.96924,-2.045359 -0.36184,0.683194 -0.697,1.753847 -0.2154,2.475961 0.0563,0.08445 0.11585,0.195397 0.2154,0.215299 0.59567,0.119089 1.30839,-1.10862 1.50771,-1.507106 0.0662,-0.132324 0.0415,-0.298278 0.1077,-0.430602 0.0161,-0.0321 0.10769,-0.0359 0.10769,0 0,0.113477 -0.0718,0.2153 -0.10769,0.322948 -0.0787,0.235897 -0.52822,1.40458 -0.1077,1.61476 0.25673,0.128312 0.9601,-0.744403 1.18464,-0.968854"
       id="path11698" />
    <path
       style="fill:#000000;fill-opacity:0;stroke:#000000;stroke-width:0.7;stroke-linecap:round;stroke-linejoin:round;stroke-opacity:1"
       d="m 149.72061,52.198994 c 0.0359,0.2153 0.1077,0.427628 0.1077,0.645898 0,0.460209 -0.75386,0.649717 -0.75386,0.968862 0,0.09448 0.68908,-0.265758 0.96925,0.107646 0.1636,0.218051 0.17788,0.647832 0,0.861206 -0.37779,0.453162 -0.42288,0.463856 -0.96925,0.645906 -0.0341,0.01135 -0.72141,0.06488 -0.64617,0.215302 0.15874,0.31733 0.6281,0.116676 0.86156,0"
       id="path11700" />
    <path
       style="fill:#000000;fill-opacity:0;stroke:#000000;stroke-width:0.7;stroke-linecap:round;stroke-linejoin:round;stroke-opacity:1"
       d="m 152.95144,51.660739 c 0.0359,-0.215302 0.10769,-0.42763 0.10769,-0.645906 0,-0.08024 -0.0955,0.135991 -0.10769,0.215299 -0.0603,0.391737 -0.0585,0.790874 -0.1077,1.184162 -0.011,0.08806 -0.41052,2.86286 -0.32308,2.906567 0.36382,0.181829 0.21539,-0.866331 0.21539,-1.076508"
       id="path11702" />
    <path
       style="fill:#000000;fill-opacity:0;stroke:#000000;stroke-width:0.7;stroke-linecap:round;stroke-linejoin:round;stroke-opacity:1"
       d="m 151.55142,53.598447 c 1.57492,-0.363291 0.92109,-0.322948 1.93849,-0.322948"
       id="path11704" />
    <path
       style="fill:#000000;fill-opacity:0;stroke:#000000;stroke-width:0.7;stroke-linecap:round;stroke-linejoin:round;stroke-opacity:1"
       d="m 155.21302,52.737247 c 0.1191,0.659341 -0.0912,1.209294 -0.21539,1.830059 -0.0157,0.0787 0.13512,-0.107654 0.21539,-0.107654"
       id="path11706" />
    <path
       style="fill:#000000;fill-opacity:0;stroke:#000000;stroke-width:0.7;stroke-linecap:round;stroke-linejoin:round;stroke-opacity:1"
       d="m 156.72073,53.598447 c 0.0183,-0.497155 0.72195,1.323721 1.07695,0.968859 1.0446,-1.044186 -0.54282,-3.286802 -1.07695,-1.507111 -0.0516,0.171844 0,0.358833 0,0.538252 0,0.251187 -0.0795,0.515273 0,0.75356 0.18299,0.54874 0.85066,-0.01773 0.96925,-0.215308 0.14065,-0.234325 0.22155,-0.499816 0.32309,-0.753551 0.0667,-0.166577 0.16048,-0.618469 0,-0.538256 -0.28829,0.14409 -0.41168,1.897928 -0.43078,2.260667 -0.0192,0.365172 -0.14237,2.115597 -0.43078,2.47596 -0.16747,0.209246 -0.74271,0.05939 -0.86155,0 -0.29327,-0.146574 -1.05027,-0.893906 -0.53847,-1.291807 0.8854,-0.688369 1.65094,-0.466114 2.58466,-1.399453"
       id="path11708" />
    <path
       style="fill:#000000;fill-opacity:0;stroke:#000000;stroke-width:0.7;stroke-linecap:round;stroke-linejoin:round;stroke-opacity:1"
       d="m 158.98232,53.383148 c 0.15868,0.684979 -0.0672,2.071965 0.64616,0.645906"
       id="path11710" />
    <path
       style="fill:#000000;fill-opacity:0;stroke:#000000;stroke-width:0.7;stroke-linecap:round;stroke-linejoin:round;stroke-opacity:1"
       d="m 156.82843,51.230132 c 0.28719,0 0.57437,0 0.86155,0"
       id="path11712" />
  </g>
</svg>
