<?xml version="1.0" encoding="UTF-8" standalone="no"?>
<!-- Created with Inkscape (http://www.inkscape.org/) -->

<svg
   width="135.57942mm"
   height="162.68835mm"
   viewBox="0 0 135.57943 162.68835"
   version="1.1"
   id="svg5"
   sodipodi:docname="tohum.svg"
   inkscape:version="1.1.2 (0a00cf5339, 2022-02-04)"
   xmlns:inkscape="http://www.inkscape.org/namespaces/inkscape"
   xmlns:sodipodi="http://sodipodi.sourceforge.net/DTD/sodipodi-0.dtd"
   xmlns="http://www.w3.org/2000/svg"
   xmlns:svg="http://www.w3.org/2000/svg">
  <sodipodi:namedview
     id="namedview7"
     pagecolor="#ffffff"
     bordercolor="#999999"
     borderopacity="1"
     inkscape:pageshadow="0"
     inkscape:pageopacity="0"
     inkscape:pagecheckerboard="0"
     inkscape:document-units="mm"
     showgrid="true"
     inkscape:zoom="2.5415177"
     inkscape:cx="240.01407"
     inkscape:cy="480.61833"
     inkscape:window-width="1916"
     inkscape:window-height="1033"
     inkscape:window-x="0"
     inkscape:window-y="23"
     inkscape:window-maximized="1"
     inkscape:current-layer="layer1">
    <inkscape:grid
       type="xygrid"
       id="grid824"
       originx="-4.7796801"
       originy="-99.666214" />
  </sodipodi:namedview>
  <defs
     id="defs2" />
  <g
     inkscape:label="Layer 1"
     inkscape:groupmode="layer"
     id="layer1"
     transform="translate(-4.7796784,-99.666235)">
    <path
       id="path881"
       style="fill-opacity:0;stroke:#000000;stroke-width:0.7;stroke-linecap:round;stroke-opacity:1"
       d="m 31.555874,120.67062 c 2.634946,9.83374 9.371383,17.00661 3.260069,18.64413 -6.111314,1.63752 -13.201556,-5.00683 -15.836498,-14.84057 -2.634942,-9.83375 0.183214,-19.13303 6.294525,-20.77055 6.111313,-1.63753 3.646959,7.13324 6.281904,16.96699 z"
       sodipodi:nodetypes="sssss" />
    <path
       style="fill:#000000;fill-opacity:0;stroke:#000000;stroke-width:0.7;stroke-linecap:round;stroke-opacity:1"
       d="m 30.781211,115.89033 c 2.744212,3.33746 4.249049,6.88369 3.130073,10.87191"
       id="path1642"
       sodipodi:nodetypes="cc" />
    <path
       style="fill:#000000;fill-opacity:0;stroke:#000000;stroke-width:0.7;stroke-linecap:round;stroke-opacity:1"
       d="m 26.264643,110.21452 c 3.749558,-3.01046 7.502911,-5.76373 11.874976,-7.82034"
       id="path2080" />
    <path
       style="fill:#000000;fill-opacity:0;stroke:#000000;stroke-width:0.7;stroke-linecap:round;stroke-opacity:1"
       d="m 36.323445,101.55628 c -0.162989,0.0233 -0.512247,-0.0932 -0.488972,0.0698 0.02328,0.16299 0.325983,-0.0931 0.488972,-0.0698 3.277459,0.46802 -1.808893,0.20948 2.305142,0.20948 0.587333,0 1.007015,0.0383 0.838235,0.27929 -0.141955,0.20271 -0.37528,0.32278 -0.558824,0.48878 -0.543624,0.49165 -1.374296,1.2357 -1.816174,1.81543 -0.388861,0.51018 -0.364477,0.48878 -0.139703,0.48878"
       id="path2082" />
    <path
       style="fill:#000000;fill-opacity:0;stroke:#000000;stroke-width:0.7;stroke-linecap:round;stroke-opacity:1"
       d="m 43.657988,100.78821 c -0.186274,0 -0.397076,-0.0924 -0.558824,0 -0.357632,0.20428 -0.621604,0.54199 -0.908081,0.8379 -0.690333,0.71305 -1.669495,1.60961 -1.746324,2.72315 -0.05383,0.78017 1.104968,0.79303 1.46691,0.76808 0.469279,-0.0323 1.204183,-0.33587 1.606614,-0.62843 0.06789,-0.0494 0.190074,-0.14234 0.139705,-0.20947 -0.180157,-0.24011 -0.666998,0.0608 -0.768379,0.13965 -0.436255,0.33917 -0.138194,1.05643 -0.06985,1.46632 0.0021,0.0124 0.09855,0.75561 0.139706,0.83789 0.06585,0.13165 0.110821,-0.2746 0.139702,-0.41895"
       id="path2084" />
    <path
       style="fill:#000000;fill-opacity:0;stroke:#000000;stroke-width:0.7;stroke-linecap:round;stroke-opacity:1"
       d="m 45.68372,103.16225 c 0.186275,0.0931 0.359032,0.22056 0.558821,0.2793 0.202285,0.0595 0.422844,0.11554 0.628674,0.0698 0.434166,-0.0964 1.294276,-0.75695 0.908087,-0.97754 -0.930418,-0.53146 -2.073357,1.11402 -2.23529,1.81543 -0.392292,1.69924 1.188892,1.74278 1.676472,0.76808"
       id="path2086" />
    <path
       style="fill:#000000;fill-opacity:0;stroke:#000000;stroke-width:0.7;stroke-linecap:round;stroke-opacity:1"
       d="m 49.385916,103.23207 c -0.04657,0.16293 -0.09859,0.32439 -0.139703,0.48877 -0.115901,0.46342 -0.169481,1.25685 0,1.25685 0.111329,0 0.02787,-0.29296 0.139703,-0.76807 0.180715,-0.76773 0.532093,-1.31331 1.25735,-1.67579 0.12669,-0.0633 0.28475,-0.1146 0.419121,-0.0698 1.147257,0.38226 -0.05753,1.92942 0.349263,2.23439 0.07681,0.0576 0.18341,-0.0698 0.279411,-0.0698"
       id="path2088" />
    <path
       style="fill:#000000;fill-opacity:0;stroke:#000000;stroke-width:0.7;stroke-linecap:round;stroke-opacity:1"
       d="m 53.367522,103.09242 c 0.25613,0.0465 0.520136,0.0613 0.768384,0.13965 0.198586,0.0627 0.363829,0.20621 0.558824,0.2793 0.179787,0.0674 0.368747,0.16679 0.558824,0.13965 0.86074,-0.12291 0.827635,-1.8782 -0.628682,-0.90772 -0.151294,0.10082 -0.250918,0.26603 -0.349263,0.41895 -0.112612,0.1751 -0.226404,0.35726 -0.279406,0.55859 -0.433903,1.64817 0.799579,1.99375 1.886019,0.90772"
       id="path2090" />
    <path
       style="fill:#000000;fill-opacity:0;stroke:#000000;stroke-width:0.7;stroke-linecap:round;stroke-opacity:1"
       d="m 58.187373,100.50891 c 0.02328,-0.13965 0.04656,-0.2793 0.06985,-0.41894 -0.02328,-0.0233 -0.06985,-0.102749 -0.06985,-0.0698 0,0.28026 0.06109,0.55776 0.06985,0.83789 0.03367,1.07707 -0.05629,1.43513 0.06985,2.44386 0.05095,0.40744 0.14776,0.79439 0.279408,0.76807 0.245891,-0.0492 1.218137,-1.69538 1.536766,-1.53614 0.117798,0.0589 -0.169828,0.20627 -0.279415,0.27929 -0.588317,0.39206 -1.261565,0.72824 -1.746317,1.25685 -0.14071,0.15344 -0.426651,0.41141 -0.279407,0.55859 0.37756,0.37741 1.309457,0.20441 1.816166,0.34913 0.77865,0.22238 0.525653,1.01069 1.187503,0.34912"
       id="path2092" />
    <path
       style="fill:#000000;fill-opacity:0;stroke:#000000;stroke-width:0.7;stroke-linecap:round;stroke-opacity:1"
       d="m 33.599184,122.59397 c 0.139707,-0.0931 0.254492,-0.24639 0.419121,-0.2793 0.206756,-0.0413 0.418171,0.0578 0.628674,0.0698 0.604853,0.0345 1.210436,0.081 1.816171,0.0698 1.537954,-0.0285 3.110045,-0.22535 4.610285,-0.5586"
       id="path2094" />
    <path
       style="fill:#000000;fill-opacity:0;stroke:#000000;stroke-width:0.7;stroke-linecap:round;stroke-opacity:1"
       d="m 40.444759,120.91818 c -0.348425,0.0871 -1.174838,0.2798 -1.536761,0.41895 -0.07835,0.0301 -0.287496,0.10848 -0.209556,0.13965 0.172961,0.0691 0.372722,0.008 0.558819,0 0.34971,-0.0152 0.697757,-0.0698 1.047795,-0.0698 0.07334,0 1.079995,0.1243 1.187495,0.13965 0.212511,0.0304 0.476853,-0.0121 0.628674,0.13965 0.02609,0.0261 -0.184653,0.13868 -0.419113,0.2793 -0.563944,0.33822 -2.039443,0.94883 -2.23529,1.53614"
       id="path2096" />
    <path
       style="fill:#000000;fill-opacity:0;stroke:#000000;stroke-width:0.7;stroke-linecap:round;stroke-opacity:1"
       d="m 43.16902,122.52415 c 0.339103,0.79093 0.117477,0.69665 1.466905,0.41894 0.518277,-0.10666 2.442594,-0.77333 2.025735,-1.74561 -0.320088,-0.74657 -1.848054,-0.006 -2.165437,0.2793 -1.685954,1.51674 -0.222351,3.04375 1.397053,2.23438"
       id="path2098" />
    <path
       style="fill:#000000;fill-opacity:0;stroke:#000000;stroke-width:0.7;stroke-linecap:round;stroke-opacity:1"
       d="m 47.150628,121.33713 c -0.05862,1.07449 -0.438261,2.09523 -0.628676,3.1421 -0.0042,0.0229 0.05694,0.0194 0.06986,0 0.132975,-0.19938 0.242054,-0.41408 0.349263,-0.62842 0.21517,-0.43016 1.24994,-2.98462 1.676467,-2.8628 0.603342,0.17231 -0.106082,2.20198 1.1875,1.74561 0.568275,-0.20049 1.065863,-0.8042 1.3272,-1.32667 0.05608,-0.1121 0.100052,-0.23021 0.139705,-0.34912 0.0074,-0.0221 0.02082,-0.0802 0,-0.0698 -0.717211,0.35846 -0.570288,3.00821 1.117645,2.16456"
       id="path2100" />
    <path
       style="fill:#000000;fill-opacity:0;stroke:#000000;stroke-width:0.7;stroke-linecap:round;stroke-opacity:1"
       d="m 53.43738,119.10274 c -0.02328,0.41895 -0.03846,0.83843 -0.06986,1.25684 -0.03847,0.51272 -0.09922,1.02358 -0.139703,1.53614 -0.02938,0.37197 -0.05431,0.7444 -0.06985,1.1172 -0.0078,0.18604 -0.05117,0.37956 0,0.55859 0.07294,0.2552 0.337357,-0.41057 0.488966,-0.62842 0.24734,-0.3554 0.476361,-0.72766 0.768384,-1.04737 0.794872,-0.87022 1.893739,-0.98433 1.816174,0.48878 -0.07011,1.33142 -1.150969,1.45799 -2.235293,1.18701 -0.325752,-0.0814 -0.930507,-0.23575 -0.838231,-0.55859 0.06873,-0.24046 0.558808,-0.25603 0.698526,-0.2793"
       id="path2102" />
    <path
       style="fill:#000000;fill-opacity:0;stroke:#000000;stroke-width:0.7;stroke-linecap:round;stroke-opacity:1"
       d="m 56.99987,121.5466 c -0.04657,0.2793 -0.11878,0.55552 -0.139703,0.8379 -0.03625,0.48915 -0.134567,1.19215 0.279408,1.60596 0.141624,0.14157 0.303387,-0.29385 0.349271,-0.48877 0.05962,-0.2533 0.112451,-0.50928 0.139703,-0.76807 0.03596,-0.34149 -0.184401,-1.26942 0.209561,-1.46632 0.320341,-0.1601 0.962445,0.36368 1.25735,0.41895 0.183084,0.0343 0.372544,0 0.558816,0"
       id="path2104" />
    <path
       style="fill:#000000;fill-opacity:0;stroke:#000000;stroke-width:0.7;stroke-linecap:round;stroke-opacity:1"
       d="m 61.330744,121.05783 c -0.203649,0.42783 -0.217498,2.51368 0.349264,2.51368 0.131691,0 0.186277,-0.1862 0.279416,-0.27929"
       id="path2106" />
    <path
       style="fill:#000000;fill-opacity:0;stroke:#000000;stroke-width:0.7;stroke-linecap:round;stroke-opacity:1"
       d="m 61.889568,119.80099 c 0.09314,0.11637 0.186272,0.23275 0.279408,0.34912"
       id="path2108" />
    <path
       style="fill:#000000;fill-opacity:0;stroke:#000000;stroke-width:0.7;stroke-linecap:round;stroke-opacity:1"
       d="m 63.426326,121.8259 c -0.201321,0.46223 -0.458184,1.29273 -0.06985,1.74561 0.450638,0.52555 1.816174,-1.81819 1.816174,-2.23438 0,-0.17727 -0.153482,0.32061 -0.20956,0.48877 -0.10721,0.32149 -0.18926,0.65086 -0.279416,0.97754 -0.340085,1.23231 -0.319273,1.08883 -0.488969,2.51368 -0.04443,0.37307 -0.08637,2.56713 -0.628671,2.86281 -0.143103,0.078 -0.33547,0.0548 -0.488974,0 -0.188613,-0.0673 -0.388596,-0.17582 -0.488968,-0.34912 -0.306256,-0.52878 -0.573199,-1.80283 -0.209561,-2.37403 0.466733,-0.73315 1.453806,-0.47571 2.025735,-1.04737"
       id="path2110" />
    <path
       style="fill:#000000;fill-opacity:0;stroke:#000000;stroke-width:0.7;stroke-linecap:round;stroke-opacity:1"
       d="m 65.731474,123.64134 c 0.455928,-0.89651 0.765405,0.1804 1.397056,0 1.211836,-0.3461 1.184404,-2.06503 -0.209561,-2.16456 -0.707879,-0.0506 -0.726128,1.873 -0.06986,2.16456 0.810948,0.36028 2.460921,-1.61136 1.397061,-2.09474 -0.149897,-0.0681 -0.328703,-0.10752 -0.488974,-0.0698 -0.253391,0.0596 -0.477766,0.2112 -0.698529,0.34912 -0.154202,0.0963 -0.279405,0.23275 -0.419111,0.34912"
       id="path2112" />
    <path
       style="fill:#000000;fill-opacity:0;stroke:#000000;stroke-width:0.7;stroke-linecap:round;stroke-opacity:1"
       d="m 37.021971,138.2294 c 1.43219,0.30181 2.734792,1.111 4.191167,1.32667 0.346265,0.0513 0.698531,0.0466 1.047795,0.0698"
       id="path2118" />
    <path
       style="fill:#000000;fill-opacity:0;stroke:#000000;stroke-width:0.7;stroke-linecap:round;stroke-opacity:1"
       d="m 41.143288,138.5087 c 1.300414,0.38997 0.164018,-0.0536 1.187497,0.62842 1.697347,1.13111 -0.252507,-0.27713 0.908087,0.41895 0.189429,0.11361 -0.421079,0.13401 -0.628676,0.20947 -0.313301,0.11389 -0.612762,0.26432 -0.908084,0.41895 -0.578565,0.30294 -0.558824,0.13569 -0.558824,0.41895"
       id="path2122" />
    <path
       style="fill:#000000;fill-opacity:0;stroke:#000000;stroke-width:0.7;stroke-linecap:round;stroke-opacity:1"
       d="m 45.124899,138.99748 c 0.189669,-0.62824 0.201628,-1.4215 0.628674,-1.95509 0.02056,-0.0257 0.05944,0.0386 0.06985,0.0698 0.06072,0.18208 0.132328,0.3668 0.139707,0.5586 0.03431,0.89165 -0.414207,3.47606 -0.139707,4.18947 0.246115,0.63964 1.901142,-1.34178 1.955876,-1.39649"
       id="path2124" />
    <path
       style="fill:#000000;fill-opacity:0;stroke:#000000;stroke-width:0.7;stroke-linecap:round;stroke-opacity:1"
       d="m 45.055046,140.39396 c 1.511036,-0.25173 0.8342,-0.17101 2.02573,-0.27929"
       id="path2126" />
    <path
       style="fill:#000000;fill-opacity:0;stroke:#000000;stroke-width:0.7;stroke-linecap:round;stroke-opacity:1"
       d="m 49.246213,140.88274 c 1.785935,1.39527 1.185513,-1.39197 0.06985,-1.46632 -0.783778,-0.0522 -2.035424,2.42814 -0.558821,2.58351 0.593577,0.0625 2.20467,-0.45626 1.955882,-1.32667 -0.208161,-0.72826 -1.181153,-0.96817 -1.816174,-0.90772 -1.063858,0.10128 -1.001094,1.14835 -0.349263,1.74562 0.13839,0.12681 0.325977,0.1862 0.488965,0.2793"
       id="path2128" />
    <path
       style="fill:#000000;fill-opacity:0;stroke:#000000;stroke-width:0.7;stroke-linecap:round;stroke-opacity:1"
       d="m 51.621206,136.62344 c 0.271518,1.35715 0.274891,2.74428 0.349268,4.11965 0.01638,0.30302 -0.0038,0.61332 0.06985,0.90772 0.01262,0.0505 0.11919,-0.022 0.139705,-0.0698 0.124751,-0.29097 0.189445,-0.60419 0.279416,-0.90773 0.03174,-0.10707 0.46971,-2.13084 0.838229,-1.88526 0.371327,0.24745 0.102661,2.12415 0.279408,2.58351 0.0418,0.10864 0.164886,0.23029 0.279416,0.20948 0.379783,-0.069 1.322943,-1.11011 1.536758,-1.46632 0.289828,-0.48285 0.279416,-0.3612 0.279416,-0.62842 0,-0.0233 0.02328,-0.0698 0,-0.0698 -0.0931,0 0,0.1862 0,0.2793 0,0.31647 0.09475,1.65297 0.419111,1.74561 0.73375,0.20956 0.880496,-1.35947 0.908087,-1.74561 0.01008,-0.14122 -0.0065,-0.54557 -0.06985,-0.41895 -0.166098,0.33209 -0.02619,2.51369 0.488968,2.51369 0.565243,0 0.825299,-1.09393 0.908084,-1.46632"
       id="path2130" />
    <path
       style="fill:#000000;fill-opacity:0;stroke:#000000;stroke-width:0.7;stroke-linecap:round;stroke-opacity:1"
       d="m 58.885899,140.25431 c 0.07362,0.24093 0.13765,1.88444 0.488969,2.02492 0.07793,0.0312 0.102158,-0.13441 0.139702,-0.20947 0.454441,-0.90852 0.630412,-1.89133 0.908087,-2.86281 0.04657,-0.16293 0.0525,-0.34349 0.139706,-0.48878 0.02679,-0.0446 0.05723,0.0892 0.06985,0.13965 0.117531,0.46992 -0.01442,1.05513 0.279408,1.46632 0.426664,0.59709 0.997733,-1.39707 1.117645,-0.97754 0.18419,0.64441 -0.03088,0.20285 0.06986,0.90771 0.05649,0.3953 0.558567,1.39697 0.908087,0.69825"
       id="path2132" />
    <path
       style="fill:#000000;fill-opacity:0;stroke:#000000;stroke-width:0.7;stroke-linecap:round;stroke-opacity:1"
       d="m 51.077214,146.04975 c 0.243835,-1.41479 0.488972,-2.82054 0.488972,-4.25929 0,-0.0466 0,0.0931 0,0.13964 0,0.48878 0.02035,0.97797 0,1.46632 -0.09305,2.23236 -0.12214,1.308 -0.279411,3.14211 -0.03386,0.3949 -0.05099,0.7911 -0.06985,1.18701 -0.0044,0.093 -0.04165,0.36256 0,0.2793 0.582306,-1.16416 0.657413,-3.17803 1.466906,-4.18947 0.150564,-0.18813 -0.04815,0.42692 -0.279411,0.83789 -0.241099,0.42845 -0.531114,0.86403 -0.908087,1.18702 -0.118605,0.10162 -0.355663,0.0668 -0.419116,0.20947 -0.05981,0.13452 0.0057,0.35806 0.139708,0.41895 0.145116,0.0659 1.483818,-0.25569 1.606614,-0.2793 0.169169,-0.0325 1.454629,-0.13351 1.606613,-0.20947 0.06642,-0.0332 -0.139708,0.01 -0.139708,-0.13965 0,-0.12538 0.248944,0.0644 0.349264,0.13965 0.185314,0.13892 0.792535,1.03888 1.117647,0.76807 0.483621,-0.40286 -0.09627,-2.07724 -0.768384,-1.95509 -1.122992,0.2041 -1.169713,3.22924 -0.209556,2.79298 0.540237,-0.24546 0.895343,-0.93296 1.047793,-1.46631 0.07151,-0.25021 0.107175,-0.85033 -0.139705,-0.76807 -0.131864,0.0439 -0.07757,0.69092 -0.06986,0.76807 0.03376,0.33746 0.28434,1.59035 0.698532,1.74561 0.420153,0.15749 0.589026,-1.02849 0.628674,-1.18702"
       id="path2134" />
    <path
       style="fill:#000000;fill-opacity:0;stroke:#000000;stroke-width:0.7;stroke-linecap:round;stroke-opacity:1"
       d="m 57.433818,142.4887 c 0.229246,1.14575 0.266221,1.22985 0.419119,2.51369 0.05806,0.48753 0.07024,0.98026 0.139705,1.46631 0.02397,0.16774 0.01987,0.36898 0.139703,0.48877 0.08231,0.0823 -0.02963,-0.23658 0,-0.34912 0.08809,-0.33462 0.209865,-0.66085 0.349268,-0.97754 0.199689,-0.45366 0.93209,-2.08041 1.606614,-1.1172 0.576373,0.82306 -0.176366,2.13345 -1.187498,1.95509 -0.163814,-0.0289 -1.244703,-0.45688 -1.117647,-0.83789 0.0084,-0.0252 0.697147,0.0698 1.047794,0.0698"
       id="path2136" />
    <path
       style="fill:#000000;fill-opacity:0;stroke:#000000;stroke-width:0.7;stroke-linecap:round;stroke-opacity:1"
       d="m 61.275722,144.72308 c 0,-0.11637 0.116374,-0.34912 0,-0.34912 -0.116375,0 0.01815,0.23418 0,0.34912 -0.0122,0.0773 -0.593429,2.22126 -0.139706,2.16457 0.386326,-0.0483 1.606614,-1.60827 1.606614,-2.02492 0,-0.052 -0.04934,0.0918 -0.06985,0.13966 -0.150823,0.35177 -0.225962,0.47663 -0.139708,0.90771 0.03478,0.17382 0.124648,0.33317 0.209558,0.48877 0.331129,0.60682 0.508137,0.0822 0.628676,-0.27929"
       id="path2138" />
    <path
       style="fill:#000000;fill-opacity:0;stroke:#000000;stroke-width:0.7;stroke-linecap:round;stroke-opacity:1"
       d="m 64.488954,144.86273 c 0.781188,-0.0857 0.917117,0.95729 1.606613,1.18702 0.07956,0.0265 0.240292,-0.22899 0.209556,-0.62842 -0.05944,-0.77247 -0.896493,-1.46626 -1.536764,-0.76807 -0.14842,0.16185 -0.279794,0.35027 -0.349263,0.5586 -0.125894,0.37753 0.06964,1.04736 0.558824,1.04736 0.517818,0 0.800833,-0.50938 0.977939,-0.90771 0.03899,-0.0877 0.112782,-0.36513 0.06985,-0.2793 -0.363085,0.72588 -0.470564,1.74177 -0.558818,2.51368 -0.02469,0.21591 -0.0245,2.01241 -0.209561,2.23439 -0.517543,0.6208 -1.544462,-0.46931 -1.816171,-0.76807 -0.133466,-0.14676 -0.228084,-0.29107 -0.06985,-0.48878 7.94e-4,-0.001 1.040334,-0.2972 1.187498,-0.34912 0.983334,-0.34692 1.614167,-0.61773 2.165437,-1.53614"
       id="path2140" />
    <path
       style="fill:#000000;fill-opacity:0;stroke:#000000;stroke-width:0.7;stroke-linecap:round;stroke-opacity:1"
       d="m 67.143357,145.9101 c 0.187217,-0.0428 -0.209867,-0.97754 -0.139703,-0.97754 0.138661,0 0.123352,1.54603 0.139703,1.60597 0.07533,0.2761 0.487955,0.0708 0.558824,0 0.132725,-0.13268 0.181028,-0.32897 0.27941,-0.48878 0.088,-0.14294 0.211212,-0.26556 0.279408,-0.41894 0.02837,-0.0638 0.02209,-0.27572 0,-0.20948 -0.103195,0.30947 -0.413305,1.53686 0.139708,1.60597 0.565717,0.0707 0.901883,-1.40888 0.698527,-1.81544"
       id="path2142" />
    <path
       style="fill:#000000;fill-opacity:0;stroke:#000000;stroke-width:0.7;stroke-linecap:round;stroke-opacity:1"
       d="m 64.349243,143.53607 c 0.423365,-0.43237 1.301943,0.16491 1.676466,-0.20948"
       id="path2144" />
    <text
       xml:space="preserve"
       style="font-style:normal;font-weight:normal;font-size:5.64444px;line-height:1.25;font-family:sans-serif;white-space:pre;inline-size:69.5512;fill:#000000;fill-opacity:1;stroke:none;stroke-width:0.264583"
       x="97.36618"
       y="94.649269"
       id="text3314"
       transform="translate(-26.120204,9.3612312)"><tspan
         x="97.36618"
         y="94.649269"
         id="tspan56823">Baklagil çenekleri </tspan><tspan
         x="97.36618"
         y="101.70482"
         id="tspan56825">tohum oluşumu </tspan><tspan
         x="97.36618"
         y="108.76037"
         id="tspan56827">sürecinde endospermin </tspan><tspan
         x="97.36618"
         y="115.81592"
         id="tspan56829">besinlerini kendi </tspan><tspan
         x="97.36618"
         y="122.87147"
         id="tspan56831">üzerinde toplar. </tspan><tspan
         x="97.36618"
         y="129.92702"
         id="tspan56833">Endosperm (3n) baklagil </tspan><tspan
         x="97.36618"
         y="136.98258"
         id="tspan56835">tohumlarında yoktur.</tspan></text>
    <path
       id="path12454"
       style="fill-opacity:0;stroke:#000000;stroke-width:0.7;stroke-linecap:round"
       d="m 36.753474,178.58193 c 2e-6,11.45302 2.261003,18.22388 -6.496192,18.22388 -8.757195,0 -11.804917,-6.77086 -11.804915,-18.22388 -2e-6,-11.45302 7.099107,-20.73752 15.856302,-20.73752 8.757195,0 2.444807,9.2845 2.444805,20.73752 z"
       sodipodi:nodetypes="sssss" />
    <path
       id="path13334"
       style="fill-opacity:0;stroke:#000000;stroke-width:0.7;stroke-linecap:round;stroke-miterlimit:4;stroke-dasharray:none"
       d="m 41.332281,178.58193 c -2e-6,11.45302 -2.680107,18.92212 6.077088,18.92212 8.757195,0 12.224021,-7.4691 12.224019,-18.92212 2e-6,-11.45302 -7.099107,-20.73752 -15.856302,-20.73752 -8.757195,0 -2.444807,9.2845 -2.444805,20.73752 z"
       sodipodi:nodetypes="sssss" />
    <ellipse
       style="fill:#000000;fill-opacity:0;stroke:#000000;stroke-width:0.7;stroke-linecap:round;stroke-miterlimit:4;stroke-dasharray:none;stroke-opacity:1"
       id="path13856"
       cx="39.198284"
       cy="178.30263"
       rx="1.8859919"
       ry="5.6556859" />
    <text
       xml:space="preserve"
       style="font-style:normal;font-weight:normal;font-size:5.64444px;line-height:1.25;font-family:sans-serif;white-space:pre;inline-size:42.4187;fill:#000000;fill-opacity:1;stroke:none;stroke-width:0.264583"
       x="46.092758"
       y="159.48108"
       id="text33228"
       transform="translate(-24.168924,43.049178)"><tspan
         x="46.092758"
         y="159.48108"
         id="tspan56837">Çift çenenekli </tspan><tspan
         x="46.092758"
         y="166.53664"
         id="tspan56839">baklagiller</tspan></text>
    <path
       style="fill:#000000;fill-opacity:0;stroke:#000000;stroke-width:0.7;stroke-linecap:round;stroke-miterlimit:4;stroke-dasharray:none;stroke-opacity:1"
       d="m 39.960282,177.67317 c 0.400588,0.89313 -0.910558,-0.24937 -0.698515,-0.41893 0.905745,-0.7243 2.450539,-0.92452 3.352874,-1.25683 1.785135,-0.65742 3.527403,-1.42697 5.308713,-2.0947 4.197723,-1.5735 8.430146,-2.86861 12.852691,-3.6308 1.709365,-0.2946 1.119611,-0.2793 1.955845,-0.2793"
       id="path41373" />
    <path
       style="fill:#000000;fill-opacity:0;stroke:#000000;stroke-width:0.7;stroke-linecap:round;stroke-miterlimit:4;stroke-dasharray:none;stroke-opacity:1"
       d="m 62.173077,168.31685 c 0.202279,0.14562 1.90578,0.87745 2.095542,1.25682 0.04166,0.0833 -0.188484,-0.0202 -0.279402,0 -0.330941,0.0735 -0.656299,0.17213 -0.977924,0.2793 -1.060466,0.35334 -2.132481,0.6324 -2.654358,1.67576"
       id="path41375" />
    <path
       style="fill:#000000;fill-opacity:0;stroke:#000000;stroke-width:0.7;stroke-linecap:round;stroke-miterlimit:4;stroke-dasharray:none;stroke-opacity:1"
       d="m 64.329079,169.88877 c 0.05224,-0.0104 0.103738,-0.0369 0.156721,-0.0313 0.807132,0.0849 1.607301,0.51981 2.413479,0.18799 0.583356,-0.24011 0.831318,-0.73998 0.689565,-1.34724 -0.03185,-0.13646 -0.08075,-0.28587 -0.188063,-0.37598 -0.684642,-0.57486 -1.26251,-0.16933 -1.75526,0.40731 -0.239037,0.27974 -0.475379,0.57328 -0.626877,0.9086 -0.37311,0.82585 -0.497498,2.23588 0.344784,2.85114 0.114747,0.0838 0.265417,0.12906 0.407469,0.12533 0.617577,-0.0162 0.97046,-0.23438 1.504508,-0.5013 0.889479,-0.44456 0.64615,-0.27293 1.034349,-0.56396"
       id="path41379" />
    <path
       style="fill:#000000;fill-opacity:0;stroke:#000000;stroke-width:0.7;stroke-linecap:round;stroke-miterlimit:4;stroke-dasharray:none;stroke-opacity:1"
       d="m 69.845605,168.22822 c -0.06269,-0.0418 -0.154364,-0.1927 -0.188064,-0.12532 -0.04179,0.0835 0.105625,0.15934 0.125373,0.25064 0.06464,0.29883 0.118097,0.60296 0.125376,0.90861 0.03042,1.27715 -0.07813,1.54564 -0.125376,2.63182 -0.0077,0.17738 -0.0098,0.35536 0,0.53263 7.94e-4,0.0147 0.02442,0.0444 0.03134,0.0313 0.271849,-0.51328 0.562221,-1.44861 0.720911,-1.87987 0.173497,-0.4715 0.349705,-0.94206 0.532847,-1.4099 0.09899,-0.25287 0.201633,-0.50448 0.313438,-0.75195 0.03467,-0.0767 0.04231,-0.20548 0.125376,-0.21932 0.06516,-0.0109 0.06544,0.12199 0.06269,0.18799 -0.02016,0.48397 -0.773149,2.4524 0.470157,1.94253 0.63201,-0.25918 1.192562,-1.17707 1.473163,-1.75455 0.06358,-0.13084 0.101314,-0.2728 0.156721,-0.4073 0.01778,-0.0432 0.03865,-0.16538 0.06269,-0.12533 0.127384,0.21223 -0.122113,0.94703 -0.125375,0.97127 -0.131823,0.97886 -0.146696,2.12015 0.156721,3.07046 0.05557,0.17405 0.13005,0.36864 0.282093,0.46997 0.582811,0.38838 0.928961,-0.51325 1.097031,-0.87728"
       id="path41381" />
    <path
       style="fill:#000000;fill-opacity:0;stroke:#000000;stroke-width:0.7;stroke-linecap:round;stroke-miterlimit:4;stroke-dasharray:none;stroke-opacity:1"
       d="m 75.957667,166.91231 c 0.10763,-0.32277 0.18793,-0.58198 0.34478,-0.90861 0.0289,-0.0603 0.0676,-0.19034 0.12537,-0.15665 0.3277,0.19108 0.49735,1.35943 0.50151,1.4099 0.0879,1.06711 -0.0465,1.67112 -0.15672,2.66316 -0.0348,0.31294 -0.094,0.62506 -0.094,0.93993 0,0.11908 -0.009,0.28466 0.094,0.34464 0.0889,0.0518 0.19835,-0.0655 0.28209,-0.12532 0.62551,-0.44661 1.35781,-1.24792 2.13139,-1.44124 0.0935,-0.0234 0.22684,-0.0162 0.28209,0.0627 0.11192,0.15982 0.12547,0.37137 0.15672,0.56396 0.1827,1.12619 -0.37766,2.48556 -1.75526,2.03653 -0.35555,-0.1159 -1.38441,-0.8419 -1.15972,-1.34724 0.0484,-0.10884 0.18806,-0.14622 0.28209,-0.21932"
       id="path41383" />
    <path
       style="fill:#000000;fill-opacity:0;stroke:#000000;stroke-width:0.7;stroke-linecap:round;stroke-miterlimit:4;stroke-dasharray:none;stroke-opacity:1"
       d="m 80.639597,168.94807 c 0.0627,0.094 0.15882,0.17285 0.18806,0.28198 0.12936,0.48275 0.22299,0.9763 0.2821,1.47257 0.0457,0.38385 0.0129,0.77313 0.0313,1.15925 0.003,0.0532 0.0275,0.20978 0.0314,0.15666 0.0629,-0.88058 -0.23056,-1.7444 0.25075,-2.56916 0.14147,-0.24242 0.33042,-0.50312 0.59553,-0.59529 0.55621,-0.19339 1.36122,0.34912 1.81795,0.5013"
       id="path41385" />
    <path
       style="fill:#000000;fill-opacity:0;stroke:#000000;stroke-width:0.7;stroke-linecap:round;stroke-miterlimit:4;stroke-dasharray:none;stroke-opacity:1"
       d="m 84.776987,168.82275 c 0.25908,0.84393 0.10159,1.76028 0.21941,2.63182 0.012,0.0884 0.005,0.2605 0.094,0.25065 0.11229,-0.0125 0.12538,-0.18799 0.18807,-0.28198"
       id="path41387" />
    <path
       style="fill:#000000;fill-opacity:0;stroke:#000000;stroke-width:0.7;stroke-linecap:round;stroke-miterlimit:4;stroke-dasharray:none;stroke-opacity:1"
       d="m 85.936717,168.60343 c 0.27815,0.8953 -0.0729,1.85426 0.18806,2.75714 0.039,0.13502 0.18011,0.32641 0.31344,0.28198 0.16845,-0.0561 0.18918,-0.30342 0.25075,-0.46996 0.2525,-0.68296 0.32924,-1.08294 0.37613,-1.78588 0.0132,-0.19799 0.0268,-0.39868 0,-0.5953 -0.006,-0.0439 -0.0683,-0.13005 -0.094,-0.094 -0.0619,0.0867 -0.0509,0.20746 -0.0627,0.31331 -0.051,0.4586 -0.10711,0.91752 -0.12538,1.37858 -0.0326,0.82392 0.0237,2.82451 0.0314,3.63442 0.005,0.49083 0.0514,0.98441 0,1.47256 -0.0137,0.12995 -0.12906,1.2573 -0.68957,1.15926 -0.30889,-0.054 -0.57004,-0.27413 -0.81494,-0.46997 -0.69754,-0.5578 -1.47793,-1.75221 -0.7836,-2.60049 0.37038,-0.4525 1.04276,-0.82424 1.5672,-1.03393"
       id="path41389" />
    <path
       style="fill:#000000;fill-opacity:0;stroke:#000000;stroke-width:0.7;stroke-linecap:round;stroke-miterlimit:4;stroke-dasharray:none;stroke-opacity:1"
       d="m 88.632287,171.61122 c 0.29992,-0.91082 1.34135,-0.6166 1.97467,-1.12792 0.0982,-0.0793 0.16157,-0.21853 0.15671,-0.34464 -0.0179,-0.46575 -0.38081,-0.69535 -0.81493,-0.75195 -0.51838,-0.0676 -1.17386,0.15122 -1.53585,0.53263 -0.59425,0.6261 -0.70511,1.58005 0.18806,2.0052 0.53565,0.25497 1.76978,-0.0351 2.06869,-0.5953 0.0788,-0.14771 0.0918,-0.34517 0.0314,-0.5013 -0.20659,-0.53346 -0.79532,-0.65715 -1.2851,-0.72061 -0.2696,-0.0349 -0.5433,0.0209 -0.81494,0.0313"
       id="path41391" />
    <path
       style="fill:#000000;fill-opacity:0;stroke:#000000;stroke-width:0.7;stroke-linecap:round;stroke-miterlimit:4;stroke-dasharray:none;stroke-opacity:1"
       d="m 84.965057,167.50684 c -0.24168,-0.14966 -0.27253,-0.0565 0.094,-0.21932"
       id="path41393" />
    <rect
       style="fill:#000000;fill-opacity:0;stroke:#000000;stroke-width:0.7;stroke-linecap:round;stroke-miterlimit:4;stroke-dasharray:none;stroke-opacity:1"
       id="rect41463"
       width="33.360497"
       height="42.097626"
       x="45.513851"
       y="219.90697"
       ry="18.987093" />
    <path
       id="rect41688"
       style="fill:#000000;fill-opacity:0;stroke:#000000;stroke-width:0.7;stroke-linecap:round;stroke-miterlimit:4;stroke-dasharray:none;stroke-opacity:1"
       d="m 62.154622,229.15999 c -1.948888,0 -3.517615,1.56925 -3.517615,3.51814 0,0 -0.232694,0.77697 -0.529167,1.01905 -0.498486,0.40704 -1.856734,0.52917 -1.856734,0.52917 -1.551875,0 -2.801379,1.24899 -2.801379,2.80086 0,1.55188 1.249504,2.80138 2.801379,2.80138 0,0 1.352429,-0.003 1.731684,0.45833 2.153263,2.61847 0.654217,10.14929 0.654217,10.14929 0,1.94889 1.568727,3.51762 3.517615,3.51762 1.948887,0 3.518131,-1.56873 3.518131,-3.51762 0,0 -1.737132,-7.52659 0.404117,-10.14929 0.404431,-0.49536 1.862928,-0.45833 1.862928,-0.45833 1.551875,0 2.800863,-1.2495 2.800863,-2.80138 0,-1.55187 -1.248988,-2.80086 -2.800863,-2.80086 0,0 -1.272283,-0.14198 -1.737878,-0.52917 -0.294291,-0.24473 -0.529167,-1.01905 -0.529167,-1.01905 0,-1.94889 -1.569244,-3.51814 -3.518131,-3.51814 z"
       sodipodi:nodetypes="ssasssasssasssass" />
    <path
       style="fill:#000000;fill-opacity:0;stroke:#000000;stroke-width:0.7;stroke-linecap:round;stroke-miterlimit:4;stroke-dasharray:none;stroke-opacity:1"
       d="m 63.610178,249.97183 c 2.171269,1.1292 4.33393,2.28119 6.544228,3.33329 2.035296,0.96879 2.797983,1.38338 5.00196,1.87497 1.775786,0.39609 2.896421,0.40048 4.668492,0.49999 1.780436,0.1 1.026713,-0.0197 2.167516,0.20834"
       id="path43436" />
    <path
       style="fill:#000000;fill-opacity:0;stroke:#000000;stroke-width:0.7;stroke-linecap:round;stroke-miterlimit:4;stroke-dasharray:none;stroke-opacity:1"
       d="m 81.075348,254.5551 c 0.13343,0.14067 1.295114,1.11617 1.25049,1.24998 -0.03629,0.10883 -0.393119,0.27699 -0.416831,0.29167 -0.369874,0.22887 -0.597169,0.36921 -0.917024,0.62499 -0.121265,0.097 -0.335986,0.25503 -0.416832,0.41666 -0.04077,0.0815 0.01953,0.14715 0.08337,0.0833"
       id="path43440" />
    <path
       style="fill:#000000;fill-opacity:0;stroke:#000000;stroke-width:0.7;stroke-linecap:round;stroke-miterlimit:4;stroke-dasharray:none;stroke-opacity:1"
       d="m 83.618009,255.68008 c 0.677457,0.13444 2.285683,0.1539 2.50098,-0.74999 0.0336,-0.14106 -0.0322,-0.30528 -0.125049,-0.41666 -0.810966,-0.97276 -1.844232,0.19797 -2.167514,0.95832 -0.204635,0.48131 -0.192369,1.07863 -0.12505,1.58332 0.140278,1.05165 0.960167,1.44283 1.875734,0.95832 0.228343,-0.12084 0.539034,-0.28313 0.625244,-0.54166"
       id="path43442" />
    <path
       style="fill:#000000;fill-opacity:0;stroke:#000000;stroke-width:0.7;stroke-linecap:round;stroke-miterlimit:4;stroke-dasharray:none;stroke-opacity:1"
       d="m 87.050405,253.72178 c 0.204401,0.95992 0.0399,1.95434 -0.04168,2.91662 -0.02826,0.33329 -0.06249,0.66616 -0.08337,0.99999 -0.0069,0.1109 0.0218,0.22438 0,0.33333 -0.01635,0.0817 -0.06313,-0.1392 -0.04168,-0.37499 0.0084,-0.0926 0.04009,-0.37182 0.08337,-0.45833 0.0088,-0.0176 0.06133,-0.0417 0.04168,-0.0417 -0.01965,0 -0.02204,0.0417 -0.04168,0.0417 -0.01389,0 0.0052,-0.0288 0,-0.0417 -0.130837,-0.32696 -0.141245,-0.0478 -0.04168,-0.62499 0.148236,-0.85942 0.162234,-0.74 0.541878,-1.58331 0.05528,-0.1228 0.423823,-1.02851 0.625245,-1.24998 0.285109,-0.3135 0.493467,0.60836 0.500196,0.66665 0.05007,0.43379 -0.03213,0.99411 -0.08337,1.41665 -0.0253,0.20865 -0.05617,0.41658 -0.08337,0.62499 -0.01449,0.11103 -0.04168,0.22136 -0.04168,0.33333 0,0.0311 0.02779,0.11111 0.04168,0.0833 0.03779,-0.0755 0.01847,-0.16876 0.04168,-0.24999 0.06035,-0.21115 0.124769,-0.42194 0.208414,-0.62499 0.104476,-0.25363 0.590803,-1.24678 0.750294,-1.49999 0.04163,-0.0661 0.335976,-0.56748 0.583562,-0.49999 0.245573,0.0669 0.280012,0.46027 0.29178,0.62499 0.07757,1.08557 -0.49144,2.14393 0,3.20829 0.04077,0.0883 0.197803,0.0251 0.291783,0 0.367736,-0.098 0.629602,-0.3837 0.791974,-0.70832"
       id="path43444" />
    <path
       style="fill:#000000;fill-opacity:0;stroke:#000000;stroke-width:0.7;stroke-linecap:round;stroke-miterlimit:4;stroke-dasharray:none;stroke-opacity:1"
       d="m 91.760582,250.55515 c 0.05558,0.15278 0.14656,0.29702 0.166732,0.45833 0.137462,1.09925 0.09337,2.28272 -0.04168,3.37495 -0.0779,0.63001 -0.233487,1.2481 -0.333465,1.87498 -0.05291,0.33173 -0.09161,0.66573 -0.125048,0.99999 -0.0083,0.0829 0.04624,0.18066 0,0.24999 -0.02779,0.0417 -0.08003,-0.075 -0.08337,-0.12499 -0.01114,-0.16688 0.02779,-0.33333 0.04168,-0.5"
       id="path43446" />
    <path
       style="fill:#000000;fill-opacity:0;stroke:#000000;stroke-width:0.7;stroke-linecap:round;stroke-miterlimit:4;stroke-dasharray:none;stroke-opacity:1"
       d="m 91.718899,255.55509 c 0.117602,-0.61494 0.37352,-1.36968 0.917028,-1.74998 0.802391,-0.56145 1.53407,0.45902 1.667316,1.12498 0.144349,0.72146 0.0163,1.9085 -0.750292,2.29164 -0.476879,0.23834 -1.04059,0.22361 -1.500589,-0.0417 -0.243229,-0.14027 -0.492813,-0.54903 -0.416828,-0.62499 0.05011,-0.0501 0.138944,0.0278 0.208415,0.0417"
       id="path43448" />
    <path
       style="fill:#000000;fill-opacity:0;stroke:#000000;stroke-width:0.7;stroke-linecap:round;stroke-miterlimit:4;stroke-dasharray:none;stroke-opacity:1"
       d="m 95.470368,254.5551 c 0.05061,0.5059 0.04833,0.57487 0.166733,1.16665 0.152841,0.76391 0.297312,1.11055 0.333462,1.83331 0.0199,0.39789 -0.534744,-0.18581 -0.58356,-0.62499 -0.110662,-0.99556 0.538184,-2.17153 1.54227,-2.4583 0.33215,-0.0949 0.869921,0.27588 1.125439,0.45832"
       id="path43450" />
    <path
       style="fill:#000000;fill-opacity:0;stroke:#000000;stroke-width:0.7;stroke-linecap:round;stroke-miterlimit:4;stroke-dasharray:none;stroke-opacity:1"
       d="m 99.430252,254.09677 c -0.05415,0.76632 -0.199766,3.03864 0.333465,3.62495 0.05287,0.0581 0.133786,-0.0953 0.16673,-0.16666 0.05368,-0.11626 0.05558,-0.25 0.08337,-0.375"
       id="path43452" />
    <path
       style="fill:#000000;fill-opacity:0;stroke:#000000;stroke-width:0.7;stroke-linecap:round;stroke-miterlimit:4;stroke-dasharray:none;stroke-opacity:1"
       d="m 99.180152,252.97179 c -0.02871,-0.62629 0.192995,-0.2722 0.54188,0.0417"
       id="path43454" />
    <path
       style="fill:#000000;fill-opacity:0;stroke:#000000;stroke-width:0.7;stroke-linecap:round;stroke-miterlimit:4;stroke-dasharray:none;stroke-opacity:1"
       d="m 100.97252,254.51343 c 0,-0.37168 -0.005,-0.49272 0.0417,-0.95832 0.004,-0.0437 0.031,-0.1676 0.0417,-0.12499 0.23129,0.92475 -0.3657,2.07685 0.29178,2.91662 0.22982,0.29353 0.79561,-0.18848 1.00039,-0.49999 0.32379,-0.49252 0.72348,-1.66228 0.58357,-2.29164 -0.0109,-0.0489 -0.0706,0.0766 -0.0834,0.125 -0.0576,0.21865 -0.0865,0.44388 -0.12505,0.66666 -0.0865,0.49946 -0.1927,0.99634 -0.2501,1.49998 -0.1846,1.6197 -0.0428,3.21245 -0.0834,4.83327 -0.007,0.26818 0.10923,0.86823 -0.37515,0.91665 -0.30697,0.0307 -0.61682,-0.0539 -0.91702,-0.125 -0.55711,-0.13189 -0.90932,-0.2858 -1.125443,-0.87498 -0.275363,-0.75069 0.732883,-1.5914 1.333853,-1.79165"
       id="path43456" />
    <path
       style="fill:#000000;fill-opacity:0;stroke:#000000;stroke-width:0.7;stroke-linecap:round;stroke-miterlimit:4;stroke-dasharray:none;stroke-opacity:1"
       d="m 103.68192,257.05507 c 0.0504,-0.0841 0.31192,-0.52252 0.33346,-0.54166 0.0821,-0.0729 0.93796,0.37577 1.25049,0.29166 0.19066,-0.0513 0.34485,-0.21355 0.45851,-0.375 0.44841,-0.63695 0.50111,-1.65565 -0.25009,-2.12497 -1.57358,-0.98308 -2.74836,0.92507 -2.29257,2.3333 0.14941,0.46163 0.39241,0.95747 0.87534,1.16666 0.21824,0.0945 0.47287,0.11475 0.70861,0.0833 0.80399,-0.10716 0.97647,-1.01001 0.95871,-1.66665 -0.007,-0.25335 -0.0183,-0.52012 -0.12504,-0.74999 -0.34318,-0.73885 -1.26077,-0.46226 -1.66733,0.0417 -0.35926,0.44531 -0.33346,0.63916 -0.33346,1.04165"
       id="path43458" />
    <path
       style="fill:#000000;fill-opacity:0;stroke:#000000;stroke-width:0.7;stroke-linecap:round;stroke-miterlimit:4;stroke-dasharray:none;stroke-opacity:1"
       d="m 107.09992,254.09677 c -0.0417,-0.125 -0.0661,-0.25715 -0.12505,-0.37499 -0.0317,-0.0633 0.0306,0.13838 0.0417,0.20833 0.0723,0.45788 0.17441,0.91267 0.20842,1.37498 0.0357,0.48479 -0.008,0.97228 0,1.45831 0.005,0.3197 0.0234,0.6391 0.0417,0.95832 0.01,0.16697 0.0118,0.33546 0.0417,0.5 0.004,0.0193 0.0389,-0.0222 0.0417,-0.0417 0.0256,-0.17926 0.0281,-0.36108 0.0417,-0.54166 0.0291,-0.3877 0.23679,-4.33081 1.33385,-2.62496 0.66641,1.03621 0.0131,2.18006 0.41683,3.16662 0.20812,0.50853 0.49291,0.10694 0.66693,-0.125"
       id="path43460" />
    <path
       style="fill:#000000;fill-opacity:0;stroke:#000000;stroke-width:0.7;stroke-linecap:round;stroke-miterlimit:4;stroke-dasharray:none;stroke-opacity:1"
       d="m 110.72634,254.51343 c 0.1288,1.09234 -0.0815,2.19566 -0.0417,3.29163 0.009,0.25328 0.0117,0.52331 0.12505,0.74999 0.0352,0.0703 0.13955,-0.0929 0.16673,-0.16667 0.15502,-0.4206 0.12505,-0.66722 0.12505,-1.08332"
       id="path43462" />
    <path
       style="fill:#000000;fill-opacity:0;stroke:#000000;stroke-width:0.7;stroke-linecap:round;stroke-miterlimit:4;stroke-dasharray:none;stroke-opacity:1"
       d="m 109.93436,253.26345 c -0.0417,-0.0972 -0.15071,-0.18904 -0.12505,-0.29166 0.0172,-0.0687 0.13792,-0.0487 0.20842,-0.0417 0.21148,0.0211 0.41683,0.0833 0.62524,0.125"
       id="path43464" />
    <path
       style="fill:#000000;fill-opacity:0;stroke:#000000;stroke-width:0.7;stroke-linecap:round;stroke-miterlimit:4;stroke-dasharray:none;stroke-opacity:1"
       d="m 112.72712,255.84675 c -0.0466,0.031 -0.38232,0.33709 -0.50019,0.125 -0.35633,-0.64114 -0.0128,-2.60081 0.0834,-3.24996 0.0415,-0.28022 0.11321,-0.55514 0.16673,-0.83332 0.016,-0.083 -0.0412,-0.23344 0.0417,-0.25 0.0872,-0.0174 0.13549,0.12505 0.16673,0.20833 0.0958,0.25549 0.17729,0.52056 0.20842,0.79166 0.1885,1.64197 0.006,3.28008 -0.12505,4.9166 -0.0144,0.18051 -0.0417,0.36057 -0.0417,0.54166 0,0.0708 -0.008,0.2584 0.0417,0.20833 0.0932,-0.0932 0.0868,-0.2489 0.12505,-0.37499 0.10073,-0.3323 0.18194,-0.6706 0.29178,-0.99999 0.37662,-1.12941 0.33199,-0.89392 0.70861,-1.79165 0.0868,-0.20692 0.16673,-0.41666 0.2501,-0.62499 0.0278,-0.0694 0.0597,-0.13737 0.0834,-0.20833 0.004,-0.0132 0.003,-0.0553 0,-0.0417 -0.19706,0.9849 -0.99668,1.76589 -1.58395,2.54163 -0.15596,0.206 -0.31257,0.41178 -0.45852,0.62499 -0.0351,0.0513 -0.13605,0.13375 -0.0834,0.16667 0.32869,0.20534 1.74921,-0.31228 2.16752,-0.375 0.0853,-0.0128 0.69448,0.0141 0.45851,0.25"
       id="path43466" />
    <path
       style="fill:#000000;fill-opacity:0;stroke:#000000;stroke-width:0.7;stroke-linecap:round;stroke-miterlimit:4;stroke-dasharray:none;stroke-opacity:1"
       d="m 118.28168,254.59676 c -0.0278,0.0694 -0.15281,0.18055 -0.0834,0.20833 0.0694,0.0278 0.0667,-0.13541 0.0834,-0.20833 0.6465,-3.23113 -0.16145,0.5883 0.58357,-2.3333 0.0875,-0.34311 0.13894,-0.69443 0.20841,-1.04165 0.0139,-0.0694 0.0317,-0.27844 0.0417,-0.20833 0.0707,0.49507 -0.20423,2.0507 -0.20841,2.08331 -0.26599,2.07387 -0.19453,1.26881 -0.29178,3.37495 -0.0154,0.33326 -0.0209,0.66702 -0.0417,0.99999 -0.0158,0.2528 -0.0415,0.40637 -0.0834,0.37499 -0.14455,-0.10837 -0.13487,-0.21576 -0.16673,-0.37499"
       id="path43468" />
    <path
       style="fill:#000000;fill-opacity:0;stroke:#000000;stroke-width:0.7;stroke-linecap:round;stroke-miterlimit:4;stroke-dasharray:none;stroke-opacity:1"
       d="m 120.36584,253.26345 c -0.46428,0.82864 -0.86072,1.69566 -1.29218,2.54163 -0.1496,0.29334 -0.30655,0.58287 -0.45851,0.87499 -0.0287,0.0551 -0.13506,0.20111 -0.0834,0.16667 0.0903,-0.0602 0.13662,-0.16866 0.20841,-0.25 0.42264,-0.47879 0.92544,-1.12777 1.62564,-1.16665 0.0809,-0.004 0.18673,0.047 0.20841,0.125 0.18592,0.66904 -0.26218,1.46497 -0.41682,2.0833 -0.0443,0.17722 -0.12166,0.36304 -0.0834,0.54166 0.0614,0.28656 0.5349,-0.25959 0.75029,-0.45833"
       id="path43470" />
    <path
       style="fill:#000000;fill-opacity:0;stroke:#000000;stroke-width:0.7;stroke-linecap:round;stroke-miterlimit:4;stroke-dasharray:none;stroke-opacity:1"
       d="m 122.53335,255.68008 c -0.20316,0.46938 -0.7576,1.78513 -0.0417,2.08331 0.951,0.39609 1.75068,-1.40184 1.75068,-1.99997 0,-0.36113 -0.19851,-0.71232 -0.41682,-0.99999 -0.1092,-0.14387 -0.32033,-0.19198 -0.5002,-0.20833 -0.39502,-0.0359 -0.85512,0.47731 -1.00039,0.70832 -0.16615,0.26423 -0.28825,0.56616 -0.33347,0.87499 -0.0619,0.42302 0.0948,1.43785 0.62525,1.62498 0.52086,0.18376 0.99547,-0.40644 1.12544,-0.83332 0.0825,-0.27089 -0.0126,-0.50241 -0.0834,-0.74999"
       id="path43472" />
    <path
       style="fill:#000000;fill-opacity:0;stroke:#000000;stroke-width:0.7;stroke-linecap:round;stroke-miterlimit:4;stroke-dasharray:none;stroke-opacity:1"
       d="m 122.61672,253.76344 c 0.48759,-0.44308 0.31245,-0.27066 0.54188,-0.49999"
       id="path43474" />
    <path
       style="fill:#000000;fill-opacity:0;stroke:#000000;stroke-width:0.7;stroke-linecap:round;stroke-miterlimit:4;stroke-dasharray:none;stroke-opacity:1"
       d="m 123.49206,252.80512 c 0.0834,0.0833 0.16673,0.16667 0.2501,0.25"
       id="path43476" />
    <path
       style="fill:#000000;fill-opacity:0;stroke:#000000;stroke-width:0.7;stroke-linecap:round;stroke-miterlimit:4;stroke-dasharray:none;stroke-opacity:1"
       d="m 125.32611,251.51347 c -0.0513,-0.41048 -0.0834,-0.60454 -0.0834,-1.08332 0,-0.0845 0.0114,-0.32884 0.0417,-0.24999 0.24296,0.63144 0.25836,2.17444 0.2501,2.5833 -0.032,1.5849 -0.18283,2.43362 -0.37515,3.91661 -0.0288,0.22209 -0.064,0.44355 -0.0834,0.66666 -0.008,0.0969 -0.087,0.2482 0,0.29166 0.0786,0.0393 0.0525,-0.16775 0.0834,-0.24999 0.1359,-0.36227 0.25717,-0.73089 0.41683,-1.08332 0.26402,-0.58283 0.62595,-1.11908 0.87534,-1.70832 0.11954,-0.28242 0.17339,-0.46985 0.20841,-0.74998 0.003,-0.0276 0.0143,-0.10715 0,-0.0833 -0.17654,0.29413 -0.24914,0.63926 -0.37514,0.95832 -0.47827,1.21113 -0.26807,0.56309 -0.62524,1.66665 -0.0717,0.22151 -0.15193,0.44079 -0.20842,0.66666 -0.0135,0.0539 -0.0418,0.20324 0,0.16666 0.14221,-0.12438 0.21651,-0.30994 0.33346,-0.45833 0.46519,-0.59019 1.2089,-1.60049 2.00079,-1.83331 0.24271,-0.0713 0.0838,0.66465 -0.0417,1.29165 -0.10202,0.50994 -0.39654,1.23265 0,1.70832 0.0641,0.0769 0.15093,0.1525 0.2501,0.16666 0.30079,0.0429 0.70189,-0.2883 0.95871,-0.41666"
       id="path43478" />
    <path
       style="fill:#000000;fill-opacity:0;stroke:#000000;stroke-width:0.7;stroke-linecap:round;stroke-miterlimit:4;stroke-dasharray:none;stroke-opacity:1"
       d="m 75.030376,232.75078 c 2.059686,-1.28604 4.562736,-1.65629 6.919376,-1.95831 1.097825,-0.14068 2.80386,-0.29166 4.084933,-0.29166"
       id="path43480" />
    <path
       style="fill:#000000;fill-opacity:0;stroke:#000000;stroke-width:0.7;stroke-linecap:round;stroke-miterlimit:4;stroke-dasharray:none;stroke-opacity:1"
       d="m 84.785939,229.00036 c 0.56962,0.34113 1.086403,0.7515 1.667319,1.08332 0.317791,0.18152 0.447618,0.24337 0.375147,0.29166 -0.490792,0.32706 -1.072652,0.58294 -1.583955,0.87499 -0.140684,0.0804 -0.311365,0.12701 -0.416829,0.25 -0.05427,0.0633 0.175527,0.0373 0.250097,0"
       id="path43486" />
    <path
       style="fill:#000000;fill-opacity:0;stroke:#000000;stroke-width:0.7;stroke-linecap:round;stroke-miterlimit:4;stroke-dasharray:none;stroke-opacity:1"
       d="m 88.757531,230.29225 c 0.191686,0.17868 -0.291782,-0.18449 -0.291782,-0.0833 0,0.0311 0.05335,0.0337 0.08337,0.0417 0.623405,0.16617 1.309203,0.18418 1.917419,-0.0833 0.427855,-0.18818 0.796713,-0.95858 0.250097,-1.24999 -0.508145,-0.2709 -1.019381,0.14793 -1.333857,0.5 -0.417473,0.46738 -0.678089,0.99179 -0.875341,1.58331 -0.19514,0.58518 -0.426651,1.44227 0,1.99997 0.08441,0.11034 0.207904,0.19055 0.333463,0.25 0.895099,0.42382 1.876495,-0.16742 2.50098,-0.79166"
       id="path43488" />
    <path
       style="fill:#000000;fill-opacity:0;stroke:#000000;stroke-width:0.7;stroke-linecap:round;stroke-miterlimit:4;stroke-dasharray:none;stroke-opacity:1"
       d="m 91.925438,229.62559 c 0.01516,0.27255 0.08735,1.51723 0.08337,1.70831 -0.0072,0.34825 -0.05911,0.69417 -0.08337,1.04165 -0.01744,0.24978 -0.01794,0.50074 -0.04168,0.74999 -0.0042,0.0437 0.0021,0.125 -0.04169,0.125 -0.118438,0 -0.24587,-0.40225 -0.250098,-0.54166 -0.03532,-1.16515 0.510638,-2.09864 1.417222,-2.79163 0.166074,-0.12695 0.300366,-0.23597 0.500195,-0.125 0.493771,0.27421 0.07771,1.23657 0,1.62498 -0.115295,0.57624 -0.172053,0.67641 -0.08337,1.20832 0.0763,0.45759 0.395899,0.23814 0.666928,0.0833"
       id="path43490" />
    <path
       style="fill:#000000;fill-opacity:0;stroke:#000000;stroke-width:0.7;stroke-linecap:round;stroke-miterlimit:4;stroke-dasharray:none;stroke-opacity:1"
       d="m 96.468884,230.87557 c 0.490377,-0.0117 0.800754,-2.24765 -0.04169,-1.99997 -0.310811,0.0914 -0.71915,0.74936 -0.833659,0.91665 -0.550448,0.80417 -0.750372,1.0096 -0.958708,1.95831 -0.159152,0.72472 0.0908,2.17557 1.167122,1.45831 0.495869,-0.33044 0.636337,-0.74494 0.917025,-1.24998"
       id="path43492" />
    <path
       style="fill:#000000;fill-opacity:0;stroke:#000000;stroke-width:0.7;stroke-linecap:round;stroke-miterlimit:4;stroke-dasharray:none;stroke-opacity:1"
       d="m 97.052444,226.75063 c -0.02779,-0.0695 -0.06522,-0.2809 -0.08337,-0.20833 -0.04381,0.17515 0.0037,0.36114 0,0.54166 -0.01021,0.50008 -0.01363,1.00058 -0.04168,1.49997 -0.05191,0.92356 -0.252608,2.46984 -0.166732,3.49996 0.02611,0.31312 0.143047,0.70264 0.291782,0.99998 0.08802,0.17598 0.06876,0.1542 0.125047,0.0417"
       id="path43494" />
    <path
       style="fill:#000000;fill-opacity:0;stroke:#000000;stroke-width:0.7;stroke-linecap:round;stroke-miterlimit:4;stroke-dasharray:none;stroke-opacity:1"
       d="m 98.302934,231.66723 c 0.125047,-0.0139 0.249483,-0.0479 0.375144,-0.0417 0.15515,0.008 0.307809,0.0457 0.458515,0.0833 0.127876,0.032 0.243933,0.13749 0.375148,0.125 0.908049,-0.0864 1.610959,-1.67538 0.875339,-2.3333 -0.978479,-0.87513 -2.348124,0.94396 -2.375926,1.83331 -0.01389,0.44395 0.173458,0.87839 0.45851,1.20831 0.129084,0.14941 0.276248,0.29909 0.458515,0.375 0.167235,0.0696 0.362674,0.0682 0.541879,0.0417 1.228722,-0.18196 1.842782,-1.99124 0.958712,-2.87496 -0.672686,-0.67242 -1.548722,-0.41337 -1.875739,0.45832 -0.140581,0.37474 0.08697,0.61771 0.250098,0.91666"
       id="path43496" />
    <path
       style="fill:#000000;fill-opacity:0;stroke:#000000;stroke-width:0.7;stroke-linecap:round;stroke-miterlimit:4;stroke-dasharray:none;stroke-opacity:1"
       d="m 103.7634,229.37559 c 0.22816,-1.58173 -1.86986,0.15082 -1.33385,1.12499 0.30163,0.5482 1.30896,0.43464 1.79237,0.58332 0.90092,0.2771 0.14314,0.84307 -0.29179,1.08332 -0.69367,0.38319 -2.1201,0.8932 -2.9178,0.91665 -0.55582,0.0164 -0.62337,-0.91665 -0.16673,-0.91665"
       id="path43498" />
    <path
       style="fill:#000000;fill-opacity:0;stroke:#000000;stroke-width:0.7;stroke-linecap:round;stroke-miterlimit:4;stroke-dasharray:none;stroke-opacity:1"
       d="m 105.80587,229.41726 c 0.0556,0.19444 0.14591,0.38217 0.16673,0.58332 0.18299,1.76814 0.0181,3.53676 -0.20841,5.2916 -0.0272,0.21071 -0.0682,0.42029 -0.12505,0.62499 -0.0134,0.0483 -0.0542,0.16575 -0.0834,0.125 -0.13703,-0.19176 -0.12505,-0.34774 -0.12505,-0.54166"
       id="path43500" />
    <path
       style="fill:#000000;fill-opacity:0;stroke:#000000;stroke-width:0.7;stroke-linecap:round;stroke-miterlimit:4;stroke-dasharray:none;stroke-opacity:1"
       d="m 105.05558,231.2089 c 0.38902,-1.33583 1.8806,-2.89502 3.25127,-1.66665 0.20085,0.18001 0.37568,0.40999 0.45851,0.66666 0.38342,1.18811 -1.79552,2.62821 -2.91781,1.99998 -0.27813,-0.15569 -0.45322,-0.66666 0,-0.66666"
       id="path43502" />
    <path
       style="fill:#000000;fill-opacity:0;stroke:#000000;stroke-width:0.7;stroke-linecap:round;stroke-miterlimit:4;stroke-dasharray:none;stroke-opacity:1"
       d="m 109.72407,229.33392 c 0.45393,0.40838 0.51404,0.54492 1.20881,0.70833 0.349,0.0821 1.35864,0.0293 1.25049,-0.58333 -0.0919,-0.52058 -0.63292,-0.62925 -1.12544,-0.41666 -0.55569,0.23986 -1.17681,1.06726 -1.33386,1.66665 -0.12775,0.48756 -0.13856,1.43337 0.58356,1.54164 0.31318,0.047 0.55717,-0.24774 0.7503,-0.41666"
       id="path43504" />
    <path
       style="fill:#000000;fill-opacity:0;stroke:#000000;stroke-width:0.7;stroke-linecap:round;stroke-miterlimit:4;stroke-dasharray:none;stroke-opacity:1"
       d="m 111.76654,230.45891 c -0.10755,0.55111 0.10092,1.12723 0.16673,1.66664 0.0286,0.23478 0.0286,0.47218 0.0417,0.70833 7.9e-4,0.0139 0,0.0556 0,0.0417 0,-0.40277 0.0236,-0.80624 0,-1.20831 -0.0327,-0.55578 -0.21318,-0.65464 0.0834,-1.16665 0.33726,-0.5823 1.62611,-0.58333 2.2092,-0.58333"
       id="path43506" />
    <path
       style="fill:#000000;fill-opacity:0;stroke:#000000;stroke-width:0.7;stroke-linecap:round;stroke-miterlimit:4;stroke-dasharray:none;stroke-opacity:1"
       d="m 114.77406,229.62559 c 0,-0.10045 -0.008,-0.72473 0.0417,-0.70833 0.1603,0.0534 0.0755,0.33121 0.0834,0.5 0.0957,2.05759 -0.13153,0.57921 0.0417,2.91662 0.0157,0.21188 0.0651,0.42118 0.12505,0.625 0.0111,0.0377 0.0738,0.12145 0.0834,0.0833 0.0473,-0.18911 0.0201,-0.38958 0.0417,-0.58333 0.10934,-0.9837 0.27503,-2.01215 0.87534,-2.83329 0.0987,-0.13504 0.2143,-0.28739 0.37515,-0.33333 0.48999,-0.13994 0.0736,1.57442 0.66693,1.16665 0.1619,-0.11127 0.2899,-0.26671 0.41683,-0.41666 0.17949,-0.21204 0.34415,-0.4368 0.50019,-0.66666 0.10838,-0.15966 0.18471,-0.33945 0.29178,-0.49999 0.0327,-0.049 0.0703,-0.14688 0.12505,-0.125 0.23249,0.093 0.0224,0.50795 -0.0417,0.74999 -0.20601,0.77793 -0.61763,1.67286 -0.45851,2.49997 0.17306,0.89958 0.96593,0.1979 1.33385,-0.0833 0.10176,-0.0778 0.18684,-0.17657 0.29178,-0.24999 0.13823,-0.0967 0.12505,0.0183 0.12505,-0.0833"
       id="path43508" />
    <path
       style="fill:#000000;fill-opacity:0;stroke:#000000;stroke-width:0.7;stroke-linecap:round;stroke-miterlimit:4;stroke-dasharray:none;stroke-opacity:1"
       d="m 124.06936,225.83397 c -0.56549,2.04809 -1.07669,4.40706 -0.79197,6.54158 0.0628,0.47052 0.28022,0.91268 0.50019,1.33332 0.10479,0.20039 0.29317,0.34573 0.45852,0.49999 0.0454,0.0424 0.10778,0.10297 0.16673,0.0833 0.0417,-0.0139 -0.0153,-0.0899 -0.0417,-0.12499 -0.16179,-0.21564 -0.26662,-0.24158 -0.5002,-0.375"
       id="path43510" />
    <path
       style="fill:#000000;fill-opacity:0;stroke:#000000;stroke-width:0.7;stroke-linecap:round;stroke-miterlimit:4;stroke-dasharray:none;stroke-opacity:1"
       d="m 126.23688,228.29227 c -0.0556,-0.0833 -0.19711,-0.15455 -0.16673,-0.24999 0.22238,-0.69866 2.0431,-1.99643 2.25088,-0.83333 0.17477,0.97834 -0.80232,1.88462 -1.41723,2.4583 -0.12399,0.11569 -0.28438,0.18576 -0.41683,0.29167 -0.0108,0.009 -0.0136,0.0441 0,0.0417 0.66575,-0.12099 0.26628,-0.16099 1.0004,-0.20833 0.62908,-0.0406 2.18593,-0.0206 1.79236,1.04166 -0.38471,1.03831 -1.95768,1.99032 -3.04285,2.0833 -0.20949,0.0179 -0.44645,0.0273 -0.62524,-0.0833 -0.56761,-0.35123 -0.0795,-1.10653 0.29177,-1.33332 0.2281,-0.13933 0.43469,-0.0748 0.66693,-0.0417"
       id="path43512" />
    <path
       style="fill:#000000;fill-opacity:0;stroke:#000000;stroke-width:0.7;stroke-linecap:round;stroke-miterlimit:4;stroke-dasharray:none;stroke-opacity:1"
       d="m 130.90537,229.25059 c 0.25047,1.1294 0.0417,2.27656 0.0417,3.41662 0,0.0845 0.0417,0.16552 0.0417,0.25 0,0.0439 -0.0366,-0.0814 -0.0417,-0.125 -0.0228,-0.1936 -0.0417,-0.38839 -0.0417,-0.58332 0,-0.292 -0.0179,-0.58914 0.0417,-0.87499 0.15341,-0.73611 0.54061,-1.91601 1.29217,-2.29164 0.39508,-0.19746 0.46296,0.76118 0.45851,0.91666 -0.0273,0.95544 -0.36104,1.8686 -0.33346,2.83329 0.0107,0.37323 0.20476,0.57737 0.62524,0.375 0.24847,-0.11959 0.43442,-0.34261 0.62525,-0.54166 0.13075,-0.13638 0.22231,-0.30555 0.33346,-0.45833"
       id="path43514" />
    <path
       style="fill:#000000;fill-opacity:0;stroke:#000000;stroke-width:0.7;stroke-linecap:round;stroke-miterlimit:4;stroke-dasharray:none;stroke-opacity:1"
       d="m 134.11496,226.5423 c 0.36802,0.14715 0.34992,0.10213 0.66693,0.62499 0.66894,1.1033 0.63552,2.43226 0.50019,3.66662 -0.13078,1.19289 -0.33592,2.40748 -0.58356,3.58328"
       id="path43516" />
    <path
       style="fill:#000000;fill-opacity:0;stroke:#000000;stroke-width:0.7;stroke-linecap:round;stroke-miterlimit:4;stroke-dasharray:none;stroke-opacity:1"
       d="m 57.123914,236.61986 c -0.556135,0.1768 -1.040856,0.51242 -1.565096,0.75526 -0.460797,0.21346 -0.935457,0.39561 -1.403186,0.59342 -0.737572,0.34166 -1.47665,0.68009 -2.212719,1.02499 -3.667457,1.71842 -7.330038,3.46689 -11.117567,4.90917 -1.535495,0.58471 -3.205644,1.27314 -4.857189,1.45656"
       id="path43631" />
    <path
       style="fill:#000000;fill-opacity:0;stroke:#000000;stroke-width:0.7;stroke-linecap:round;stroke-miterlimit:4;stroke-dasharray:none;stroke-opacity:1"
       d="m 35.856111,246.97767 c 0.541829,-0.0942 1.078847,-0.14823 1.619064,-0.26973 1.959218,-0.44065 3.903849,-0.88652 5.882595,-1.24078 2.689996,-0.4816 5.356082,-0.91181 7.987378,-1.67236 2.885594,-0.83405 1.638076,-0.51543 4.425439,-1.51051 1.718541,-0.61352 3.449589,-1.20334 5.181004,-1.78025 0.903581,-0.30107 1.861169,-0.56003 2.698435,-1.02499 0.242531,-0.13469 0.18145,-0.16014 0.377779,-0.32368 0.292893,-0.24398 0.672954,-0.36118 1.02541,-0.48552 0.507456,-0.17903 0.48168,-0.13285 0.971437,-0.37763 0.557994,-0.27888 0.185291,-0.14825 0.701595,-0.37763 0.05199,-0.0231 0.121676,-0.0137 0.161907,-0.054 0.05246,-0.0524 -0.149532,0.0208 -0.215879,0.054"
       id="path43645" />
    <path
       style="fill:#000000;fill-opacity:0;stroke:#000000;stroke-width:0.7;stroke-linecap:round;stroke-miterlimit:4;stroke-dasharray:none;stroke-opacity:1"
       d="m 37.097392,243.9027 c -0.800614,0.3236 -1.430556,1.04774 -1.996843,1.67235 -0.215077,0.23724 -0.409975,0.49296 -0.593657,0.75526 -0.0692,0.0988 -0.102033,0.21895 -0.161906,0.32368 -0.01262,0.0221 -0.05397,0.0285 -0.05397,0.054 0,0.10632 2.270858,0.74149 2.482562,0.8092 0.188421,0.0603 0.702553,0.23441 0.917469,0.37763 0.379748,0.25307 0.02504,0.25528 -0.161907,0.16184"
       id="path43647" />
    <path
       style="fill:#000000;fill-opacity:0;stroke:#000000;stroke-width:0.7;stroke-linecap:round;stroke-miterlimit:4;stroke-dasharray:none;stroke-opacity:1"
       d="m 17.560698,244.87374 c -0.107937,-0.12587 -0.185825,-0.28567 -0.32381,-0.37763 -0.976517,-0.65074 -3.079274,2.48156 -0.323813,2.48156 0.339489,0 0.860967,-0.10662 1.187312,-0.26973"
       id="path43651" />
    <path
       style="fill:#000000;fill-opacity:0;stroke:#000000;stroke-width:0.7;stroke-linecap:round;stroke-miterlimit:4;stroke-dasharray:none;stroke-opacity:1"
       d="m 17.021011,246.60005 c 0,0.0899 -0.0064,0.18005 0,0.26973 0.06433,0.9003 0.09718,0.0805 0,1.29473 -0.01463,0.1828 -0.107936,0.72285 -0.107936,0.53946"
       id="path43653" />
    <path
       style="fill:#000000;fill-opacity:0;stroke:#000000;stroke-width:0.7;stroke-linecap:round;stroke-miterlimit:4;stroke-dasharray:none;stroke-opacity:1"
       d="m 18.100387,246.86978 c 0.566118,0.0687 1.092708,0.23255 1.619062,-0.10789 0.840846,-0.54386 0.295979,-1.95515 -0.269843,-1.67236 -0.658225,0.32898 -1.318525,3.06248 0.05397,2.80524 0.158136,-0.0296 0.287832,-0.14386 0.43175,-0.21579"
       id="path43655" />
    <path
       style="fill:#000000;fill-opacity:0;stroke:#000000;stroke-width:0.7;stroke-linecap:round;stroke-miterlimit:4;stroke-dasharray:none;stroke-opacity:1"
       d="m 20.582951,245.84479 c 0.320437,0.72069 0.222864,0.39608 0.37778,1.40262 0.185026,1.20218 -0.133977,0.61191 -0.05397,-0.1079 0.01037,-0.0933 0.200147,-2.01176 0.80953,-1.40262 0.109419,0.10938 0.206989,0.23627 0.269846,0.37763 0.107267,0.24126 0.512183,2.10393 0.755563,2.10393 0.08044,0 0.143914,-0.0719 0.215873,-0.10789"
       id="path43657" />
    <path
       style="fill:#000000;fill-opacity:0;stroke:#000000;stroke-width:0.7;stroke-linecap:round;stroke-miterlimit:4;stroke-dasharray:none;stroke-opacity:1"
       d="m 23.227419,247.03162 c 0.515649,-0.36569 1.1518,-0.47132 1.727002,-0.70131 0.239146,-0.0956 0.48727,-0.18086 0.701593,-0.32368 0.316476,-0.2109 0.51186,-0.81938 0.107939,-1.07894 -0.612545,-0.39362 -1.427977,0.28064 -1.565095,0.86315 -0.08662,0.368 -0.02527,0.76323 0.05397,1.13288 0.03243,0.15128 0.169138,0.26019 0.269844,0.37764 0.341958,0.39879 0.69093,0.66889 1.241284,0.48552 0.575064,-0.19161 0.779891,-0.43186 1.241282,-0.80921"
       id="path43659" />
    <path
       style="fill:#000000;fill-opacity:0;stroke:#000000;stroke-width:0.7;stroke-linecap:round;stroke-miterlimit:4;stroke-dasharray:none;stroke-opacity:1"
       d="m 27.544922,242.55402 c 0.110622,1.43751 -0.01855,0.0902 0.37778,2.42762 0.08205,0.48392 0.130543,0.97321 0.215873,1.45656 0.06969,0.39474 0.221319,1.28943 0.431753,1.78025 0.01418,0.0331 -0.004,-0.0721 0,-0.10789 0.03203,-0.28818 0.05892,-0.57737 0.107939,-0.86315 0.136594,-0.79648 0.25042,-1.12687 0.431747,-1.88815 0.02244,-0.0942 0.06462,-0.35634 0.10794,-0.26973 0.08998,0.17989 -0.440251,1.60695 -0.48572,1.83419 -0.04513,0.22556 -0.01307,0.52642 0.161907,0.70132 0.307443,0.30731 1.134668,-0.18624 1.619062,0 0.351131,0.13499 1.311285,1.49906 1.673032,1.24078 0.08534,-0.0609 0.107939,-0.17983 0.161906,-0.26974"
       id="path43661" />
    <path
       style="fill:#000000;fill-opacity:0;stroke:#000000;stroke-width:0.7;stroke-linecap:round;stroke-miterlimit:4;stroke-dasharray:none;stroke-opacity:1"
       d="m 73.606222,215.25177 c 0.103753,-0.40926 0.125195,-0.83134 0.125195,-1.25144 0,-0.0208 0,0.0417 0,0.0626 0,0.18772 0.02656,0.37733 0,0.56316 -0.198292,1.38748 -0.588909,2.77385 -0.938961,4.12976 -0.05443,0.21085 -0.134959,0.41446 -0.187796,0.62572 -0.01011,0.0405 -0.0069,0.16629 0,0.12514 0.02766,-0.16587 0.0056,-0.34236 0.0626,-0.50057 0.283054,-0.78595 0.790702,-1.57198 1.251953,-2.2526 0.217683,-0.32121 0.414141,-0.66426 0.68857,-0.93858 0.059,-0.059 0.03957,0.17683 0,0.25028 -0.107008,0.19865 -0.242837,0.3807 -0.375584,0.56315 -0.221679,0.30469 -1.845943,2.31654 -1.690132,2.62804 0.028,0.056 0.126796,0.0141 0.187793,0 0.212265,-0.049 0.425196,-0.10322 0.625975,-0.18772 0.415515,-0.17488 1.476709,-1.0524 1.815325,-0.37544"
       id="path56196" />
    <path
       style="fill:#000000;fill-opacity:0;stroke:#000000;stroke-width:0.7;stroke-linecap:round;stroke-miterlimit:4;stroke-dasharray:none;stroke-opacity:1"
       d="m 77.111681,217.69208 c 0.652801,0.23533 1.03982,1.24253 1.877925,0.87601 0.71945,-0.31463 0.517898,-2.25259 -0.375586,-2.25259 -0.172059,0 -0.335968,0.0757 -0.500777,0.12514 -0.920647,0.27607 -1.41645,1.84503 -0.751171,2.56546 0.133533,0.1446 0.315166,0.24737 0.50078,0.31286 0.931142,0.3285 1.451866,-0.52284 1.564936,-1.31402 0.01257,-0.0879 0.0488,-0.4426 -0.125193,-0.50058 -0.04425,-0.0147 -0.05744,0.0788 -0.0626,0.12515 -0.03568,0.32096 0.02334,0.77524 0.125193,1.06372 0.05599,0.15859 0.145307,0.30671 0.250391,0.43801 0.06518,0.0814 0.157081,0.23435 0.250391,0.18772 0.439309,-0.21957 0.528717,-0.43129 0.68857,-0.75087"
       id="path56198" />
    <path
       style="fill:#000000;fill-opacity:0;stroke:#000000;stroke-width:0.7;stroke-linecap:round;stroke-miterlimit:4;stroke-dasharray:none;stroke-opacity:1"
       d="m 80.867529,217.31665 c 0.229031,0.46807 0.22316,1.27108 0.751173,1.5643 0.274968,0.1527 0.43089,-0.20577 0.500779,-0.37543 0.245481,-0.59593 0.395788,-1.40517 -0.0626,-1.93974 -0.117009,-0.13645 -0.268086,0.14802 -0.250386,0.62572 0.01333,0.35981 0.08884,0.71754 0.187788,1.06373 0.366948,1.2838 1.944368,3.37463 0.813769,4.63034 -0.195705,0.21736 -1.076241,0.83408 -1.439741,0.87601 -0.313677,0.0362 -0.652613,0.008 -0.938961,-0.12515 -0.582756,-0.27079 -0.742815,-1.20956 -0.500783,-1.72799 0.404876,-0.86725 1.681994,-0.72542 2.441306,-0.96261 0.196143,-0.0613 0.375583,-0.16686 0.563377,-0.25029"
       id="path56200" />
    <path
       style="fill:#000000;fill-opacity:0;stroke:#000000;stroke-width:0.7;stroke-linecap:round;stroke-miterlimit:4;stroke-dasharray:none;stroke-opacity:1"
       d="m 83.934806,217.94237 c -0.02087,-0.12514 -0.0626,-0.24856 -0.0626,-0.37543 0,-0.0466 0.04784,0.0809 0.0626,0.12514 0.06889,0.20658 0.145071,0.41219 0.187796,0.62572 0.100468,0.50214 0.08725,1.01251 0.250389,1.50173 0.02379,0.0714 0.05101,0.20008 0.125195,0.18772 0.243557,-0.0406 0.271058,-0.33293 0.312986,-0.50058"
       id="path56202" />
    <path
       style="fill:#000000;fill-opacity:0;stroke:#000000;stroke-width:0.7;stroke-linecap:round;stroke-miterlimit:4;stroke-dasharray:none;stroke-opacity:1"
       d="m 86.12572,217.06636 c -0.182845,0.43037 -0.343252,0.82095 0.125193,1.18887 0.143245,0.1125 1.065131,0.14276 0.938967,0.56315 -0.170289,0.56741 -1.161923,1.19191 -1.752735,1.1263 -0.103664,-0.0115 -0.261557,-0.17655 -0.187788,-0.25029 0.05903,-0.059 0.166925,0 0.250391,0"
       id="path56204" />
    <path
       style="fill:#000000;fill-opacity:0;stroke:#000000;stroke-width:0.7;stroke-linecap:round;stroke-miterlimit:4;stroke-dasharray:none;stroke-opacity:1"
       d="m 88.754813,217.44179 c 0.336704,0.74221 0.103577,1.61022 0.312989,2.37774 0.0704,0.25804 0.173334,-0.0337 0.187793,-0.0626"
       id="path56206" />
    <path
       style="fill:#000000;fill-opacity:0;stroke:#000000;stroke-width:0.7;stroke-linecap:round;stroke-miterlimit:4;stroke-dasharray:none;stroke-opacity:1"
       d="m 63.002799,232.78613 c -0.497017,-0.33122 -0.870125,-0.62133 -1.435875,-0.8334 -1.961436,-0.73524 -3.900438,-0.91415 -5.975096,-0.9723 -0.94157,-0.0264 -1.883498,-0.0463 -2.825436,-0.0463 -2.551578,0 -5.107582,0.13091 -7.642566,-0.27779 -1.524812,-0.24585 -2.935824,-0.74968 -4.307629,-1.4353 -0.23476,-0.11733 -0.471238,-0.23289 -0.694779,-0.3704 -1.05856,-0.65116 -0.236007,-0.23371 -0.602142,-0.4167"
       id="path56511" />
    <path
       style="fill:#000000;fill-opacity:0;stroke:#000000;stroke-width:0.7;stroke-linecap:round;stroke-miterlimit:4;stroke-dasharray:none;stroke-opacity:1"
       d="m 39.700975,230.23964 c -0.06176,-0.26237 -0.112271,-0.52764 -0.185274,-0.7871 -0.142424,-0.50619 -0.346704,-1.00082 -0.555823,-1.4816 -0.04688,-0.10779 -0.2565,-0.32409 -0.138957,-0.32409 0.541885,0 1.138369,0.57764 1.574832,0.83339 0.226438,0.13269 0.462076,0.24904 0.69478,0.3704 0.381578,0.19901 0.236175,0.1852 0.463186,0.1852 0.01544,0 -0.03251,0.007 -0.04632,0 -0.293801,-0.14684 -0.133176,-0.1389 -0.277912,-0.1389"
       id="path56513" />
    <path
       style="fill:#000000;fill-opacity:0;stroke:#000000;stroke-width:0.7;stroke-linecap:round;stroke-miterlimit:4;stroke-dasharray:none;stroke-opacity:1"
       d="m 5.1296784,228.06354 c 0.4018042,0.53239 0.8532474,0.61743 1.4821945,0.1852 0.5462341,-0.37538 1.092472,-1.21219 0.7874166,-1.89829 -0.341958,-0.7691 -1.210783,0.0168 -1.4358765,0.3704 -0.1785421,0.28045 -0.2998973,0.60113 -0.3705495,0.926 -0.138395,0.63635 -0.3012659,2.43501 0.6484615,2.73168 0.4597619,0.14362 0.889875,-0.47281 1.1579645,-0.74079"
       id="path56515" />
    <path
       style="fill:#000000;fill-opacity:0;stroke:#000000;stroke-width:0.7;stroke-linecap:round;stroke-miterlimit:4;stroke-dasharray:none;stroke-opacity:1"
       d="m 8.3256601,226.44305 c 0,0.10803 -0.00373,0.21613 0,0.3241 0.02661,0.77136 0.010446,1.54401 0.046319,2.31499 0.010856,0.2333 0.041954,0.46651 0.092637,0.6945 0.012078,0.0543 0.067741,0.18867 0.092637,0.1389 0.06252,-0.125 0.030292,-0.27787 0.046318,-0.4167 0.030293,-0.26244 0.039532,-0.52832 0.092638,-0.7871 0.094491,-0.46046 0.3669239,-1.70947 0.7410971,-2.08349 0.08801,-0.088 0.1688219,0.20075 0.1852747,0.3241 0.042211,0.31645 -0.033932,1.30114 0.5558231,0.92599 0.446885,-0.28426 0.792888,-1.32098 0.926372,-1.75939 0.03179,-0.1044 0.01633,-0.21917 0.04632,-0.3241 0.0042,-0.0148 0.04802,-0.0153 0.04632,0 -0.01572,0.14142 -0.06672,0.27679 -0.09264,0.4167 -0.172396,0.93056 -0.239428,1.87699 -0.185275,2.82429 0.01905,0.33324 0.32423,1.4363 0.32423,0.3241"
       id="path56517" />
    <path
       style="fill:#000000;fill-opacity:0;stroke:#000000;stroke-width:0.7;stroke-linecap:round;stroke-miterlimit:4;stroke-dasharray:none;stroke-opacity:1"
       d="m 12.772244,223.89656 c 0.169835,0.0926 0.404607,0.11527 0.509506,0.2778 0.59954,0.92891 0.473062,1.87059 0.277911,2.91689 -0.06359,0.34095 -0.241693,0.65028 -0.37055,0.97229 -0.08734,0.21826 -0.183651,0.43284 -0.27791,0.6482 -0.01384,0.0316 -0.06905,0.11857 -0.04632,0.0926 0.368435,-0.42089 0.488367,-0.7018 0.972691,-1.0649 0.271185,-0.2033 0.555675,-0.41104 0.880053,-0.50929 0.342926,-0.10388 0.928831,0.0246 0.972688,0.46299 0.131721,1.3167 -0.729898,2.03379 -1.806423,2.6391 -0.187439,0.10539 -0.387373,0.22076 -0.602142,0.23149 -0.3305,0.0165 -0.500255,-0.49105 -0.509506,-0.69449 -0.008,-0.17579 0.06023,-0.35192 0.138957,-0.5093 0.196865,-0.39357 0.312723,-0.33183 0.694778,-0.4167"
       id="path56519" />
    <path
       style="fill:#000000;fill-opacity:0;stroke:#000000;stroke-width:0.7;stroke-linecap:round;stroke-miterlimit:4;stroke-dasharray:none;stroke-opacity:1"
       d="m 17.86729,227.04494 c -0.01544,-0.13889 0.0162,-0.2917 -0.04632,-0.41669 -0.0249,-0.0498 -0.08601,0.0836 -0.09264,0.1389 -0.04051,0.33746 -0.03186,0.67902 -0.04632,1.01859 -0.01642,0.3858 -0.04632,0.77136 -0.04632,1.1575 0,0.24741 0.02041,0.49474 0.04632,0.7408 0.0051,0.0485 0.04632,0.1877 0.04632,0.1389 0,-0.0636 -0.04297,-0.12166 -0.04632,-0.1852 -0.04876,-0.92618 -2.45e-4,-2.47692 0.972691,-2.96319 0.684507,-0.34212 0.951527,1.23952 1.435874,1.48159 0.05694,0.0285 0.123516,0.0309 0.185275,0.0463"
       id="path56521" />
    <path
       style="fill:#000000;fill-opacity:0;stroke:#000000;stroke-width:0.7;stroke-linecap:round;stroke-miterlimit:4;stroke-dasharray:none;stroke-opacity:1"
       d="m 20.414812,226.62825 c -0.233752,0.37171 -0.154175,2.96872 0.37055,2.77799 0.13375,-0.0486 0.185273,-0.21607 0.27791,-0.3241"
       id="path56523" />
    <path
       style="fill:#000000;fill-opacity:0;stroke:#000000;stroke-width:0.7;stroke-linecap:round;stroke-miterlimit:4;stroke-dasharray:none;stroke-opacity:1"
       d="m 21.572778,226.67455 c 0.06594,0.17364 0.127296,2.33431 0.463186,2.22239 0.387683,-0.12917 0.50616,-1.58056 0.555821,-1.94459 0.01269,-0.093 -0.04756,-0.2778 0.04632,-0.2778 0.0926,0 0.01475,0.18638 0,0.2778 -0.06268,0.38845 -0.157942,0.77097 -0.231596,1.15749 -0.111626,0.5858 -0.237657,1.16937 -0.324228,1.7594 -0.134778,0.91857 -0.201532,1.93533 -0.277911,2.87059 -0.03025,0.37045 -0.03151,0.74457 -0.09264,1.11119 -0.01581,0.0949 -0.08437,0.81593 -0.463185,0.5556 -0.370708,-0.25476 -0.811832,-1.0279 -0.926371,-1.38899 -0.242773,-0.76537 -0.26457,-1.71728 0.416868,-2.2687 0.200989,-0.16264 1.311854,-0.35529 1.389556,-0.3704 1.009254,-0.19616 0.721688,-0.0806 1.852744,-0.41669 0.284655,-0.0846 0.75461,-0.12156 0.787416,-0.4167 0.0066,-0.0592 -0.245553,-0.43398 -0.185275,-0.5093 0.35305,-0.44113 1.084884,-0.32688 1.621152,-0.926 0.134222,-0.14995 0.27341,-0.31457 0.324228,-0.50929 0.04693,-0.17983 0.02407,-0.38361 -0.04632,-0.55561 -0.379371,-0.92697 -1.757455,-0.65522 -2.176972,0 -0.473659,0.7398 -0.297676,1.3583 0.370546,1.852 0.314973,0.23271 0.673442,0.39644 1.065328,0.2315 0.67909,-0.28582 0.790474,-1.59027 0.231595,-2.03719 -0.652591,-0.52186 -2.016518,1.1445 -1.019009,1.66679 0.178339,0.0934 0.401428,0.0309 0.602142,0.0463"
       id="path56525" />
    <path
       style="fill:#000000;fill-opacity:0;stroke:#000000;stroke-width:0.7;stroke-linecap:round;stroke-miterlimit:4;stroke-dasharray:none;stroke-opacity:1"
       d="m 27.640511,227.87834 c -0.357287,-0.57283 -0.346359,-0.31709 -0.231593,0.463 0.04142,0.28155 0.111263,0.55861 0.185275,0.8334 0.0343,0.12733 0.113085,0.24109 0.138956,0.3704 0.01092,0.0546 -0.08477,-0.0838 -0.09264,-0.1389 -0.02402,-0.16806 -0.03092,-0.34237 0,-0.5093 0.08108,-0.43765 0.522996,-2.03958 1.204283,-1.6205 0.465235,0.28619 0.378552,1.88553 0.833735,2.0372 0.638288,0.21268 1.29692,-0.72309 1.29692,-1.2964 0,-0.14754 -0.21132,-0.51436 -0.231593,-0.5093 -0.175094,0.0438 -0.04922,0.49481 -0.04632,0.5093 0.137544,0.68744 0.116795,0.50582 0.324232,1.1575 0.07847,0.24653 0.09844,0.51897 0.231592,0.7408 0.05024,0.0837 0.07349,-0.18209 0.09264,-0.2778"
       id="path56527" />
    <path
       style="fill:#000000;fill-opacity:0;stroke:#000000;stroke-width:0.7;stroke-linecap:round;stroke-miterlimit:4;stroke-dasharray:none;stroke-opacity:1"
       d="m 30.234353,226.62825 c 0.0772,0 0.154395,0 0.231593,0"
       id="path56529" />
    <path
       style="fill:#000000;fill-opacity:0;stroke:#000000;stroke-width:0.7;stroke-linecap:round;stroke-miterlimit:4;stroke-dasharray:none;stroke-opacity:1"
       d="m 32.735557,224.45216 c 0.117212,1.40599 -0.03447,-0.59938 0.04632,1.94459 0.0162,0.50998 0.04424,1.01996 0.09264,1.52789 0.05487,0.57587 0.239544,0.95906 0.648463,0.2778 0.308234,-0.51352 0.467693,-1.05582 0.64846,-1.62049 0.03426,-0.10701 0.0252,-0.23423 0.09264,-0.3241 0.02929,-0.039 0.05691,0.0913 0.04632,0.1389 -0.05296,0.23821 -0.142331,0.46738 -0.231593,0.6945 -0.26349,0.67043 -0.970826,1.49229 -1.111645,2.08349 -0.02603,0.1093 -0.01064,0.27985 0.09264,0.3241 0.464498,0.19899 2.027266,-0.59777 2.362247,-0.8334 0.13421,-0.0944 0.356426,-0.2095 0.324234,-0.3704 -0.02793,-0.13958 -0.277913,-0.0617 -0.41687,-0.0926"
       id="path56531" />
    <path
       style="fill:#000000;fill-opacity:0;stroke:#000000;stroke-width:0.7;stroke-linecap:round;stroke-miterlimit:4;stroke-dasharray:none;stroke-opacity:1"
       d="m 19.53476,225.93375 c 0.453022,-0.61336 0.19074,-0.19066 0,0 z"
       id="path56533" />
    <path
       style="fill:#000000;fill-opacity:0;stroke:#000000;stroke-width:0.7;stroke-linecap:round;stroke-miterlimit:4;stroke-dasharray:none;stroke-opacity:1"
       d="m 24.76876,234.91592 c 0.123517,-0.1852 0.29608,-0.34581 0.370549,-0.5556 0.09931,-0.27976 0.148231,-0.58297 0.138954,-0.8797 -6.08e-4,-0.0196 -0.209351,-1.04144 -0.555821,-0.92599 -0.716826,0.23884 -1.095064,1.74447 -0.602142,2.31499 0.604375,0.69952 1.557164,0.0353 1.852744,-0.5556 0.112394,-0.22469 0.116199,-0.49059 0.138954,-0.7408 0.0085,-0.0935 0.0083,-0.20141 -0.04632,-0.2778 -0.174626,-0.24437 -0.383271,0.18483 -0.509503,0.5093 -0.139897,0.35959 -0.235824,0.73562 -0.324232,1.1112 -0.0971,0.41251 -0.168315,0.83106 -0.231592,1.2501 -0.04214,0.27907 -0.152741,1.59051 -0.277911,1.99089 -0.07108,0.22737 -0.216075,0.80767 -0.602142,0.8334 -0.77802,0.0518 -0.980468,-0.8486 -0.833735,-1.4353 0.07536,-0.30133 0.229089,-0.58597 0.416868,-0.8334 0.158923,-0.2094 0.383384,-0.36352 0.602142,-0.50929 1.162803,-0.7749 1.30467,-0.18853 2.269608,-0.6019"
       id="path56535" />
    <path
       style="fill:#000000;fill-opacity:0;stroke:#000000;stroke-width:0.7;stroke-linecap:round;stroke-miterlimit:4;stroke-dasharray:none;stroke-opacity:1"
       d="m 27.3626,233.94362 c 0.149708,-0.52565 0.240153,-0.23078 0.741099,-0.0463 0.385769,0.14207 0.898071,0.14903 0.92637,-0.4167 0.0094,-0.18752 -0.0021,-0.39109 -0.09264,-0.55559 -0.396997,-0.72153 -2.21018,-0.62452 -2.176975,0.1389 0.0105,0.24136 0.157385,0.47347 0.324231,0.64819 0.188619,0.19752 1.001195,0.51699 1.250602,0.6482 0.122204,0.0643 0.322048,0.31449 0.37055,0.1852 0.174167,-0.46425 0.01015,-1.16888 -0.04632,-1.62049"
       id="path56537" />
    <path
       style="fill:#000000;fill-opacity:0;stroke:#000000;stroke-width:0.7;stroke-linecap:round;stroke-miterlimit:4;stroke-dasharray:none;stroke-opacity:1"
       d="m 26.899415,231.76753 c -0.05013,-0.36649 0.174286,-0.25488 0.463185,-0.3704"
       id="path56539" />
    <path
       style="fill:#000000;fill-opacity:0;stroke:#000000;stroke-width:0.7;stroke-linecap:round;stroke-miterlimit:4;stroke-dasharray:none;stroke-opacity:1"
       d="m 30.326989,232.78613 c -0.368122,0.48007 -0.0812,-0.36496 -0.04632,-0.2778 0.03488,0.0872 0.0043,0.19383 0.04632,0.2778 0.114923,0.22975 0.305387,0.41675 0.416867,0.6482 0.0911,0.18912 0.118867,0.40275 0.185275,0.60189 0.08802,0.26395 0.176488,0.528 0.277913,0.7871 0.126677,0.3236 0.226494,0.3755 0.231593,0.3704 0.06904,-0.069 0.06529,-0.18409 0.09264,-0.2778 0.08076,-0.27678 0.128053,-0.5643 0.231593,-0.8334 0.128917,-0.33505 0.298946,-0.65307 0.463185,-0.9723 0.113861,-0.2213 0.226986,-0.44489 0.370549,-0.64819 0.04453,-0.0631 0.112047,-0.1633 0.185275,-0.1389 0.04806,0.016 -0.03871,0.16999 -0.185275,0.463"
       id="path56545" />
    <path
       style="fill:#000000;fill-opacity:0;stroke:#000000;stroke-width:0.7;stroke-linecap:round;stroke-miterlimit:4;stroke-dasharray:none;stroke-opacity:1"
       d="m 33.569292,233.85102 c 0.196747,0.23178 0.452516,1.04655 0.92637,0.8334 1.132038,-0.50921 0.48206,-3.02537 -0.880052,-2.31499 -0.972493,0.50718 -0.516907,2.16654 0.231592,2.63909 0.218661,0.13805 0.538417,0.15487 0.694778,-0.0926 0.133188,-0.2108 0.203125,-0.45663 0.277914,-0.6945 0.09543,-0.30352 0.179265,-0.61215 0.231592,-0.926 0.149419,-0.89614 0.04262,-1.78545 0.09264,-2.68539 0.0034,-0.0616 -0.06173,-0.18519 0,-0.18519 0.07036,0 0.129454,0.37159 0.138954,0.69449 0.0287,0.97548 -0.0187,1.94199 0.04632,2.91689 0.02293,0.34386 -0.0079,0.7295 0.231593,0.3704"
       id="path56547" />
    <path
       style="fill:#000000;fill-opacity:0;stroke:#000000;stroke-width:0.7;stroke-linecap:round;stroke-miterlimit:4;stroke-dasharray:none;stroke-opacity:1"
       d="m 36.48736,232.83243 c 0.225627,0.30876 1.467552,0.94645 1.806426,0.5556 0.336723,-0.38838 0.334698,-1.27878 -0.09264,-1.6205 -0.772071,-0.6174 -1.679988,1.8057 -1.574833,2.36129 0.143595,0.7587 0.843678,1.15286 1.528512,0.8334 0.137559,-0.0642 0.336655,-0.27921 0.231593,-0.463 -0.03426,-0.0599 -0.123515,-0.0617 -0.185272,-0.0926"
       id="path56549" />
  </g>
</svg>
