<?xml version="1.0" encoding="UTF-8" standalone="no"?>
<!-- Created with Inkscape (http://www.inkscape.org/) -->

<svg
   width="140.30893mm"
   height="112.31978mm"
   viewBox="0 0 140.30893 112.31978"
   version="1.1"
   id="svg5"
   inkscape:version="1.1.2 (0a00cf5339, 2022-02-04)"
   sodipodi:docname="trake-ve-trekeit.svg"
   xmlns:inkscape="http://www.inkscape.org/namespaces/inkscape"
   xmlns:sodipodi="http://sodipodi.sourceforge.net/DTD/sodipodi-0.dtd"
   xmlns="http://www.w3.org/2000/svg"
   xmlns:svg="http://www.w3.org/2000/svg">
  <sodipodi:namedview
     id="namedview7"
     pagecolor="#ffffff"
     bordercolor="#999999"
     borderopacity="1"
     inkscape:pageshadow="0"
     inkscape:pageopacity="0"
     inkscape:pagecheckerboard="0"
     inkscape:document-units="mm"
     showgrid="true"
     inkscape:zoom="0.7845035"
     inkscape:cx="-126.83181"
     inkscape:cy="379.22074"
     inkscape:window-width="1916"
     inkscape:window-height="1033"
     inkscape:window-x="0"
     inkscape:window-y="23"
     inkscape:window-maximized="1"
     inkscape:current-layer="layer1"
     inkscape:lockguides="true">
    <inkscape:grid
       type="xygrid"
       id="grid824"
       originx="-239.17726"
       originy="-24.745232" />
  </sodipodi:namedview>
  <defs
     id="defs2">
    <marker
       style="overflow:visible"
       id="marker10490"
       refX="0"
       refY="0"
       orient="auto"
       inkscape:stockid="Arrow1Lstart"
       inkscape:isstock="true">
      <path
         transform="matrix(0.8,0,0,0.8,10,0)"
         style="fill:context-stroke;fill-rule:evenodd;stroke:context-stroke;stroke-width:1pt"
         d="M 0,0 5,-5 -12.5,0 5,5 Z"
         id="path10488" />
    </marker>
    <marker
       style="overflow:visible"
       id="Arrow1Lend"
       refX="0"
       refY="0"
       orient="auto"
       inkscape:stockid="Arrow1Lend"
       inkscape:isstock="true">
      <path
         transform="matrix(-0.8,0,0,-0.8,-10,0)"
         style="fill:context-stroke;fill-rule:evenodd;stroke:context-stroke;stroke-width:1pt"
         d="M 0,0 5,-5 -12.5,0 5,5 Z"
         id="path10215" />
    </marker>
    <marker
       style="overflow:visible"
       id="Arrow1Lstart"
       refX="0"
       refY="0"
       orient="auto"
       inkscape:stockid="Arrow1Lstart"
       inkscape:isstock="true">
      <path
         transform="matrix(0.8,0,0,0.8,10,0)"
         style="fill:context-stroke;fill-rule:evenodd;stroke:context-stroke;stroke-width:1pt"
         d="M 0,0 5,-5 -12.5,0 5,5 Z"
         id="path10212" />
    </marker>
  </defs>
  <g
     inkscape:label="Layer 1"
     inkscape:groupmode="layer"
     id="layer1"
     transform="translate(-239.17723,-24.745228)">
    <path
       style="fill:#ff3f00;fill-opacity:0;stroke:#050404;stroke-width:0.7;stroke-linecap:round"
       d="m 244.38277,31.15383 0.21224,89.10737"
       id="path880" />
    <path
       style="fill:#ff3f00;fill-opacity:0;stroke:#050404;stroke-width:0.7;stroke-linecap:round"
       d="m 264.54617,31.15383 0.21224,89.10737"
       id="path882" />
    <path
       style="fill:#ff3f00;fill-opacity:0;stroke:#050404;stroke-width:0.7;stroke-linecap:round"
       d="m 244.25324,49.887751 c 0,0 -4.69792,0.326655 -4.71795,-1.992695 -0.0405,-4.693658 0.0788,-10.502779 0.19935,-15.078041 0.0524,-1.991098 4.45215,-1.594156 4.45215,-1.594156"
       id="path1065"
       sodipodi:nodetypes="cssc" />
    <path
       style="fill:#ff3f00;fill-opacity:0;stroke:#050404;stroke-width:0.7;stroke-linecap:round"
       d="m 244.82255,40.578995 c 6.7976,1.294256 13.33625,1.29426 19.61594,0"
       id="path2058"
       sodipodi:nodetypes="cc" />
    <path
       style="fill:#ff3f00;fill-opacity:0;stroke:#050404;stroke-width:0.7;stroke-linecap:round"
       d="m 264.67837,49.887751 c 0,0 4.69792,0.326655 4.71795,-1.992695 0.0405,-4.693658 -0.0788,-10.502779 -0.19935,-15.078041 -0.0524,-1.991098 -4.45215,-1.594156 -4.45215,-1.594156"
       id="path2350"
       sodipodi:nodetypes="cssc" />
    <path
       style="fill:#ff3f00;fill-opacity:0;stroke:#050404;stroke-width:0.7;stroke-linecap:round"
       d="m 244.25324,72.388977 c 0,0 -4.69792,0.326655 -4.71795,-1.992695 -0.0405,-4.693658 0.0788,-10.502779 0.19935,-15.078041 0.0524,-1.991098 4.45215,-1.594156 4.45215,-1.594156"
       id="path2352"
       sodipodi:nodetypes="cssc" />
    <path
       style="fill:#ff3f00;fill-opacity:0;stroke:#050404;stroke-width:0.7;stroke-linecap:round"
       d="m 244.82255,63.080221 c 6.7976,1.294256 13.33625,1.29426 19.61594,0"
       id="path2354"
       sodipodi:nodetypes="cc" />
    <path
       style="fill:#ff3f00;fill-opacity:0;stroke:#050404;stroke-width:0.7;stroke-linecap:round"
       d="m 264.67837,72.388977 c 0,0 4.69792,0.326655 4.71795,-1.992695 0.0405,-4.693658 -0.0788,-10.502779 -0.19935,-15.078041 -0.0524,-1.991098 -4.45215,-1.594156 -4.45215,-1.594156"
       id="path2356"
       sodipodi:nodetypes="cssc" />
    <path
       style="fill:#ff3f00;fill-opacity:0;stroke:#050404;stroke-width:0.7;stroke-linecap:round"
       d="m 244.25324,95.685616 c 0,0 -4.69792,0.326655 -4.71795,-1.992695 -0.0405,-4.693658 0.0788,-10.502779 0.19935,-15.078041 0.0524,-1.991098 4.45215,-1.594156 4.45215,-1.594156"
       id="path2358"
       sodipodi:nodetypes="cssc" />
    <path
       style="fill:#ff3f00;fill-opacity:0;stroke:#050404;stroke-width:0.7;stroke-linecap:round"
       d="m 244.82255,86.37686 c 6.7976,1.294256 13.33625,1.29426 19.61594,0"
       id="path2360"
       sodipodi:nodetypes="cc" />
    <path
       style="fill:#ff3f00;fill-opacity:0;stroke:#050404;stroke-width:0.7;stroke-linecap:round"
       d="m 264.67837,95.685616 c 0,0 4.69792,0.326655 4.71795,-1.992695 0.0405,-4.693658 -0.0788,-10.502779 -0.19935,-15.078041 -0.0524,-1.991098 -4.45215,-1.594156 -4.45215,-1.594156"
       id="path2362"
       sodipodi:nodetypes="cssc" />
    <path
       style="fill:#ff3f00;fill-opacity:0;stroke:#050404;stroke-width:0.7;stroke-linecap:round"
       d="m 244.25324,120.4383 c 0,0 -4.69792,0.32665 -4.71795,-1.9927 -0.0405,-4.69366 0.0788,-10.50278 0.19935,-15.07804 0.0524,-1.9911 4.45215,-1.59415 4.45215,-1.59415"
       id="path2364"
       sodipodi:nodetypes="cssc" />
    <path
       style="fill:#ff3f00;fill-opacity:0;stroke:#050404;stroke-width:0.7;stroke-linecap:round"
       d="m 244.82255,111.12954 c 6.7976,1.29426 13.33625,1.29426 19.61594,0"
       id="path2366"
       sodipodi:nodetypes="cc" />
    <path
       style="fill:#ff3f00;fill-opacity:0;stroke:#050404;stroke-width:0.7;stroke-linecap:round"
       d="m 264.67837,120.4383 c 0,0 4.69792,0.32665 4.71795,-1.9927 0.0405,-4.69366 -0.0788,-10.50278 -0.19935,-15.07804 -0.0524,-1.9911 -4.45215,-1.59415 -4.45215,-1.59415"
       id="path2368"
       sodipodi:nodetypes="cssc" />
    <path
       style="fill:#ff3f00;fill-opacity:0;stroke:#050404;stroke-width:0.7;stroke-linecap:round"
       d="m 261.81073,64.348195 c 0.25896,0.291206 0.44549,0.668565 0.77687,0.873623 2.20036,1.361577 6.50259,-0.453761 8.64267,-1.261904 0.74787,-0.282419 1.48939,-0.581414 2.23348,-0.873623 0.52184,-0.204919 0.61048,-0.318994 0.38844,-0.09707"
       id="path2405" />
    <path
       style="fill:#ff3f00;fill-opacity:0;stroke:#050404;stroke-width:0.7;stroke-linecap:round"
       d="m 272.10424,62.212669 c 0.22659,0.03236 0.45289,0.06683 0.67977,0.09707 0.14237,0.01897 1.74794,0.199369 1.74794,0.291208 0,0.357381 -1.74794,0.797052 -1.74794,2.038458"
       id="path2407" />
    <path
       style="fill:#ff3f00;fill-opacity:0;stroke:#050404;stroke-width:0.7;stroke-linecap:round"
       d="m 276.57123,60.174211 c 0.33771,1.233643 0.12393,2.450023 0,3.688638 -0.042,0.419782 0.005,0.85263 -0.0971,1.261901 -0.0156,0.0628 -0.25771,0.0127 -0.19421,0 1.09223,-0.218363 1.87741,-0.485347 3.01035,-0.485347 0.24638,0 -0.22534,-0.09707 -0.2913,-0.09707"
       id="path2411" />
    <path
       style="fill:#ff3f00;fill-opacity:0;stroke:#050404;stroke-width:0.7;stroke-linecap:round"
       d="m 280.06714,63.086291 c 0.0238,0.75405 0.38844,3.157379 0.38844,0.776558"
       id="path2413" />
    <path
       style="fill:#ff3f00;fill-opacity:0;stroke:#050404;stroke-width:0.7;stroke-linecap:round"
       d="m 279.87294,61.824388 c 0.22659,0.09707 0.45318,0.19414 0.67974,0.291211"
       id="path2415" />
    <path
       style="fill:#ff3f00;fill-opacity:0;stroke:#050404;stroke-width:0.7;stroke-linecap:round"
       d="m 282.88332,64.056984 c -0.47805,0.629502 0.20804,0.527008 0.2913,0.388276 0.83164,-1.385493 -1.65134,-3.486107 -1.84507,-0.388276 -0.0167,0.266481 0.0565,0.901838 0.38843,1.067766 0.0916,0.04576 0.21429,-0.02968 0.29134,-0.09707 0.19026,-0.166402 0.31644,-0.394584 0.48556,-0.58242 0.12248,-0.136051 0.32681,-0.215876 0.38844,-0.388276 0.1094,-0.306221 0.0436,-0.649941 0.0971,-0.970693 0.0119,-0.07137 0.0971,-0.121779 0.0971,-0.194138 0,-0.03237 -0.0918,-0.03193 -0.0971,0 -0.0319,0.191495 -0.0122,0.388655 0,0.582414 0.0204,0.324546 0.0711,0.64655 0.0971,0.970693 0.10081,1.259716 0.19423,2.521977 0.19423,3.785709 0,0.12669 0.18418,0.815287 -0.29133,0.679484 -0.1556,-0.04444 -0.26411,-0.187637 -0.38844,-0.291208 -0.26434,-0.220192 -0.53356,-0.436266 -0.77687,-0.679485 -0.67466,-0.674393 -1.1049,-1.269814 -0.9711,-1.358974 0.35195,-0.234529 0.9593,-0.07983 1.35954,-0.194138 0.91294,-0.260741 1.33318,-0.551701 1.94217,-1.261898"
       id="path2417" />
    <path
       style="fill:#ff3f00;fill-opacity:0;stroke:#050404;stroke-width:0.7;stroke-linecap:round"
       d="m 284.82546,62.406807 c 0,0.226494 -0.0299,0.454978 0,0.679484 0.0353,0.264483 0.15648,0.512416 0.19423,0.776558 0.0366,0.256246 0,0.517702 0,0.776554 0,0.03236 -0.003,-0.0648 0,-0.09707 0.0419,-0.586512 -0.0196,-2.072235 0.58264,-2.523802 0.54224,-0.406501 0.52142,2.651479 0.9711,2.426729 0.41722,-0.208521 0.87397,-1.227968 0.87397,-1.650177 0.16984,0.492424 -0.16061,3.136113 0.77688,1.261903"
       id="path2419" />
    <path
       style="fill:#ff3f00;fill-opacity:0;stroke:#050404;stroke-width:0.7;stroke-linecap:round"
       d="m 288.90404,62.892153 c -0.0997,0.748435 0.0971,1.492785 0.0971,2.232597 0,0.03236 -0.009,-0.06596 0,-0.09707 0.0562,-0.196771 0.1482,-0.383017 0.19423,-0.58242 0.0984,-0.426334 0.047,-1.891294 0.29131,-2.135523 0.27884,-0.27872 0.0951,1.842267 0.38844,2.135523 0.3257,0.325554 0.9222,-1.066414 0.9711,-1.261896"
       id="path2421" />
    <path
       style="fill:#ff3f00;fill-opacity:0;stroke:#050404;stroke-width:0.7;stroke-linecap:round"
       d="m 287.83584,61.727323 c 0.0971,-0.194138 0.19423,-0.388279 0.29133,-0.58242"
       id="path2423" />
    <path
       style="fill:#ff3f00;fill-opacity:0;stroke:#050404;stroke-width:0.7;stroke-linecap:round"
       d="m 308.92489,31.15383 0.21224,89.10737"
       id="path2505" />
    <path
       style="fill:#ff3f00;fill-opacity:0;stroke:#050404;stroke-width:0.7;stroke-linecap:round"
       d="m 329.08829,31.15383 0.21224,89.10737"
       id="path2507" />
    <path
       style="fill:#ff3f00;fill-opacity:0;stroke:#050404;stroke-width:0.7;stroke-linecap:round"
       d="m 308.79536,49.887751 c 0,0 -4.69792,0.326655 -4.71795,-1.992695 -0.0405,-4.693658 0.0788,-10.502779 0.19935,-15.078041 0.0524,-1.991098 4.45215,-1.594156 4.45215,-1.594156"
       id="path2509"
       sodipodi:nodetypes="cssc" />
    <path
       style="fill:#ff3f00;fill-opacity:0;stroke:#050404;stroke-width:0.7;stroke-linecap:round"
       d="m 329.22049,49.887751 c 0,0 4.69792,0.326655 4.71795,-1.992695 0.0405,-4.693658 -0.0788,-10.502779 -0.19935,-15.078041 -0.0524,-1.991098 -4.45215,-1.594156 -4.45215,-1.594156"
       id="path2513"
       sodipodi:nodetypes="cssc" />
    <path
       style="fill:#ff3f00;fill-opacity:0;stroke:#050404;stroke-width:0.7;stroke-linecap:round"
       d="m 308.79536,72.388977 c 0,0 -4.69792,0.326655 -4.71795,-1.992695 -0.0405,-4.693658 0.0788,-10.502779 0.19935,-15.078041 0.0524,-1.991098 4.45215,-1.594156 4.45215,-1.594156"
       id="path2515"
       sodipodi:nodetypes="cssc" />
    <path
       style="fill:#ff3f00;fill-opacity:0;stroke:#050404;stroke-width:0.7;stroke-linecap:round"
       d="m 329.22049,72.388977 c 0,0 4.69792,0.326655 4.71795,-1.992695 0.0405,-4.693658 -0.0788,-10.502779 -0.19935,-15.078041 -0.0524,-1.991098 -4.45215,-1.594156 -4.45215,-1.594156"
       id="path2519"
       sodipodi:nodetypes="cssc" />
    <path
       style="fill:#ff3f00;fill-opacity:0;stroke:#050404;stroke-width:0.7;stroke-linecap:round"
       d="m 308.79536,95.685616 c 0,0 -4.69792,0.326655 -4.71795,-1.992695 -0.0405,-4.693658 0.0788,-10.502779 0.19935,-15.078041 0.0524,-1.991098 4.45215,-1.594156 4.45215,-1.594156"
       id="path2521"
       sodipodi:nodetypes="cssc" />
    <path
       style="fill:#ff3f00;fill-opacity:0;stroke:#050404;stroke-width:0.7;stroke-linecap:round"
       d="m 329.22049,95.685616 c 0,0 4.69792,0.326655 4.71795,-1.992695 0.0405,-4.693658 -0.0788,-10.502779 -0.19935,-15.078041 -0.0524,-1.991098 -4.45215,-1.594156 -4.45215,-1.594156"
       id="path2525"
       sodipodi:nodetypes="cssc" />
    <path
       style="fill:#ff3f00;fill-opacity:0;stroke:#050404;stroke-width:0.7;stroke-linecap:round"
       d="m 308.79536,120.4383 c 0,0 -4.69792,0.32665 -4.71795,-1.9927 -0.0405,-4.69366 0.0788,-10.50278 0.19935,-15.07804 0.0524,-1.9911 4.45215,-1.59415 4.45215,-1.59415"
       id="path2527"
       sodipodi:nodetypes="cssc" />
    <path
       style="fill:#ff3f00;fill-opacity:0;stroke:#050404;stroke-width:0.7;stroke-linecap:round"
       d="m 329.22049,120.4383 c 0,0 4.69792,0.32665 4.71795,-1.9927 0.0405,-4.69366 -0.0788,-10.50278 -0.19935,-15.07804 -0.0524,-1.9911 -4.45215,-1.59415 -4.45215,-1.59415"
       id="path2531"
       sodipodi:nodetypes="cssc" />
    <path
       style="fill:#ff3f00;fill-opacity:0;stroke:#050404;stroke-width:0.7;stroke-linecap:round"
       d="m 327.30633,55.163005 c 2.91245,-1.921261 6.3854,-2.817606 9.76164,-3.530997 0.50104,-0.105868 1.0106,-0.16913 1.51934,-0.227806 0.15092,-0.01741 0.31166,-0.04803 0.4558,0 0.076,0.02532 -0.14938,0.06024 -0.22791,0.07594 -0.11242,0.02246 -0.22789,0.02532 -0.34184,0.03797"
       id="path6216" />
    <path
       style="fill:#ff3f00;fill-opacity:0;stroke:#050404;stroke-width:0.7;stroke-linecap:round"
       d="m 338.32143,50.568912 c 0.076,0.05062 0.14129,0.123013 0.22789,0.151871 0.69064,0.230121 1.45457,0.178824 2.12706,0.455613 0.0422,0.01738 0.10941,0.08285 0.076,0.113903 -0.25403,0.235781 -1.30686,0.733515 -1.51935,0.835289 -0.96496,0.462198 -1.14596,0.65196 -0.8736,0.379677"
       id="path6218" />
    <path
       style="fill:#ff3f00;fill-opacity:0;stroke:#050404;stroke-width:0.7;stroke-linecap:round"
       d="m 345.17084,50.799719 c 0.0751,-0.187669 0.14247,-0.267277 0.038,-0.49358 -0.23913,-0.517893 -0.85741,0.0031 -1.06355,0.189838 -0.7372,0.667846 -2.01763,2.255547 -1.59528,3.341161 0.44231,1.136875 2.06656,0.827344 2.92471,0.531548 0.12322,-0.04248 0.23082,-0.121547 0.34184,-0.189838 0.0539,-0.03317 0.13192,-0.05386 0.15192,-0.113904 0.0344,-0.103047 -0.14893,-0.138221 -0.18989,-0.15187"
       id="path6228" />
    <path
       style="fill:#ff3f00;fill-opacity:0;stroke:#050404;stroke-width:0.7;stroke-linecap:round"
       d="m 344.75303,53.723235 c 0,0.621379 0.0574,1.238192 0.038,1.860418 -0.005,0.152323 -0.0285,0.303511 -0.038,0.455612 -0.003,0.05053 -0.0228,0.106596 0,0.151871 0.0127,0.02532 0.0283,-0.04934 0.038,-0.07594 0.0411,-0.112835 0.076,-0.227807 0.11396,-0.34171"
       id="path6230" />
    <path
       style="fill:#ff3f00;fill-opacity:0;stroke:#050404;stroke-width:0.7;stroke-linecap:round"
       d="m 346.72815,54.862266 c 0.55305,0 0.46982,0.09724 0.91159,-0.379677 0.35028,-0.378145 0.65908,-0.809389 0.75967,-1.32887 0.0725,-0.374565 -0.16647,-1.206981 -0.72167,-1.063095 -0.23125,0.05992 -0.42953,0.220628 -0.60775,0.379677 -0.61847,0.551981 -0.97626,1.502267 -0.56973,2.278062 0.1406,0.268325 0.29459,0.436049 0.60772,0.455613 0.72893,0.04554 1.22973,-1.466985 1.25344,-2.012289 0.006,-0.127071 -0.0282,-0.252862 -0.038,-0.37968 -0.003,-0.03785 0.034,-0.09693 0,-0.1139 -0.14001,-0.06999 -0.10144,0.299561 -0.11392,0.455612 -0.0444,0.554842 -0.0679,1.082104 0.038,1.632612 0.12933,0.672121 0.22709,0.68666 0.37984,0.07594"
       id="path6232" />
    <path
       style="fill:#ff3f00;fill-opacity:0;stroke:#050404;stroke-width:0.7;stroke-linecap:round"
       d="m 349.46293,52.660137 c 0.0633,0.15187 0.17132,0.292131 0.18992,0.455615 0.0437,0.383966 -0.031,2.046965 -0.038,2.429933 -0.005,0.291036 -0.009,0.582324 0,0.873257 0.003,0.101984 0.0267,0.20233 0.038,0.303742 0.003,0.01257 0.003,0.05024 0,0.03797 -0.0842,-0.336688 -0.076,-0.238721 -0.076,-0.455613"
       id="path6234" />
    <path
       style="fill:#ff3f00;fill-opacity:0;stroke:#050404;stroke-width:0.7;stroke-linecap:round"
       d="m 349.23502,53.419493 c 0.0669,-0.334348 0.0867,-0.490212 0.30387,-0.873257 0.18759,-0.330904 0.49134,-0.645451 0.9116,-0.645451 0.64341,0 1.05667,0.583568 1.17747,1.139029 0.0241,0.111302 0.051,0.239842 0,0.341712 -0.0721,0.144094 -0.20322,0.259596 -0.34184,0.341709 -0.65222,0.386337 -1.45978,0.372496 -2.16503,0.607483"
       id="path6236" />
    <path
       style="fill:#ff3f00;fill-opacity:0;stroke:#050404;stroke-width:0.7;stroke-linecap:round"
       d="m 352.4636,52.963881 c 0.4232,-1.174448 0.2999,0.586936 0.30385,0.721386 0.005,0.164942 0.0145,0.330227 0.038,0.493581 0.0148,0.103314 0.0533,0.201861 0.076,0.303741 0.003,0.01236 0.006,0.04929 0,0.03797 -0.25035,-0.500534 -0.47754,-2.117863 0.26588,-2.316033 0.0839,-0.02236 0.51179,0.103828 0.56976,0.113906 0.18875,0.03281 0.37872,0.06125 0.56975,0.07593 0.36846,0.02833 0.7421,-0.04382 1.10151,0.07594"
       id="path6238" />
    <path
       style="fill:#ff3f00;fill-opacity:0;stroke:#050404;stroke-width:0.7;stroke-linecap:round"
       d="m 356.45182,53.001846 c 0.31023,0.10814 0.70956,0.19589 1.02555,0.03797 0.2739,-0.136898 0.0582,-0.811739 -0.15195,-0.911223 -0.16182,-0.07663 -0.35464,-0.102166 -0.53176,-0.07594 -1.06976,0.15842 -1.97567,2.368714 -0.72167,2.69571 0.13697,0.03572 0.26871,-0.102153 0.37983,-0.189838 0.53369,-0.421159 0.69432,-0.911106 0.79764,-1.556679 0.0119,-0.07498 0,-0.151868 0,-0.227804 0,-0.01265 0.003,-0.05025 0,-0.03797 -0.15116,0.604385 -0.10747,1.327486 0,1.936353 0.0177,0.100491 0.0607,0.311396 0.15192,0.265774 0.16743,-0.08368 0.43617,-0.616008 0.53179,-0.759354"
       id="path6240" />
    <path
       style="fill:#ff3f00;fill-opacity:0;stroke:#050404;stroke-width:0.7;stroke-linecap:round"
       d="m 358.76878,52.925913 c -0.31758,-0.22855 -0.48951,-0.522454 -0.11393,-0.835289 0.13049,-0.108712 0.29062,-0.188185 0.4558,-0.227807 0.4278,-0.102637 1.34493,0.106606 1.21544,0.721384 -0.12279,0.583084 -1.78361,1.482021 -1.02555,2.088227 0.42846,0.342622 1.46195,0.119189 1.89918,-0.113903 0.0632,-0.03369 0.16081,-0.08082 0.15192,-0.151871 -0.0135,-0.107664 -0.21561,-0.160433 -0.30387,-0.189839"
       id="path6242" />
    <path
       style="fill:#ff3f00;fill-opacity:0;stroke:#050404;stroke-width:0.7;stroke-linecap:round"
       d="m 358.57889,53.647297 c 0.64158,-0.193051 1.31754,-0.194191 1.97511,-0.303739"
       id="path6244" />
    <path
       style="fill:#ff3f00;fill-opacity:0;stroke:#050404;stroke-width:0.7;stroke-linecap:round"
       d="m 366.5638,52.736075 c -0.038,-0.06328 -0.0402,-0.189839 -0.11396,-0.189839 -0.1579,0 -1.33397,0.768752 -1.59528,0.911222 -10e-5,6.1e-5 -0.14414,0.02915 -0.15195,0.07594 -0.0385,0.231184 -0.03,1.661136 0.11396,1.784482 0.23887,0.204668 0.76295,-0.307033 0.8736,-0.417645 0.077,-0.07698 0.12306,-0.17984 0.18992,-0.265774 0.0281,-0.03602 0.0964,-0.154718 0.076,-0.113903 -0.0582,0.116401 -0.27741,1.369817 -0.18989,1.404805 0.26231,0.104881 0.53763,-0.418301 0.64569,-0.569516"
       id="path6246" />
    <path
       style="fill:#ff3f00;fill-opacity:0;stroke:#050404;stroke-width:0.7;stroke-linecap:round"
       d="m 367.17152,53.913074 c 0.3298,-0.347872 0.99632,0.30322 1.3294,0.15187 0.56557,-0.256976 0.5121,-1.255823 -0.22789,-1.139031 -0.12316,0.01945 -0.25087,0.06661 -0.34184,0.151871 -0.12044,0.112847 -0.19883,0.266846 -0.26588,0.417645 -0.25738,0.578839 -0.29175,1.287841 0.30385,1.670579 0.30925,0.198707 0.81584,-0.0091 1.10151,-0.151871"
       id="path6248" />
    <path
       style="fill:#ff3f00;fill-opacity:0;stroke:#050404;stroke-width:0.7;stroke-linecap:round"
       d="m 370.05823,52.925913 c 0.0127,0.240461 0.05,0.480891 0.038,0.721384 -0.0268,0.53563 -0.2652,2.584558 -0.34185,3.113355 -0.0517,0.356251 -0.12551,0.708932 -0.18991,1.063096 -0.0369,0.202699 -0.0488,0.412038 -0.11396,0.607483 -0.009,0.02686 -0.0696,-0.0104 -0.076,-0.03797 -0.0343,-0.148492 -0.0254,-0.303742 -0.038,-0.455612"
       id="path6250" />
    <path
       style="fill:#ff3f00;fill-opacity:0;stroke:#050404;stroke-width:0.7;stroke-linecap:round"
       d="m 369.14664,54.102912 c 0.25683,-0.513456 0.28807,-0.772324 0.83563,-1.063098 0.5411,-0.28734 1.80893,-0.363339 1.89915,0.493583 0.0122,0.11604 -0.003,0.250608 -0.076,0.341706 -0.32446,0.405421 -1.28696,0.84935 -1.7852,1.025131 -0.0478,0.01685 -0.13964,0.04913 -0.15195,0 -0.0276,-0.1104 0.0592,-0.270277 0.11396,-0.379677"
       id="path6252" />
    <path
       style="fill:#ff3f00;fill-opacity:0;stroke:#050404;stroke-width:0.7;stroke-linecap:round"
       d="m 372.41318,53.039814 c 0.4245,-0.154054 0.84228,0.06253 1.25344,0.113905 0.27768,0.03469 0.81764,0.072 0.91159,-0.303744 0.0188,-0.07468 0.0138,-0.170852 -0.038,-0.227806 -0.0877,-0.09642 -0.21426,-0.163264 -0.34187,-0.189839 -0.71028,-0.147912 -1.39205,0.337749 -1.70924,0.949196 -0.0709,0.136673 -0.0968,0.303056 -0.076,0.455612 0.0772,0.565756 0.66551,0.586277 1.10151,0.569516 0.31007,-0.01193 0.55531,-0.149016 0.83564,-0.265774"
       id="path6254" />
    <path
       style="fill:#ff3f00;fill-opacity:0;stroke:#050404;stroke-width:0.7;stroke-linecap:round"
       d="m 374.73016,53.761203 c 0.15608,0.263041 0.16862,0.576955 0.22789,0.873257 0.0151,0.07549 0.11496,0.227806 0.038,0.227806 -0.0801,0 -0.0479,-0.15286 -0.076,-0.227806 -0.10319,-0.275018 -0.47159,-1.07352 -0.41783,-1.32887 0.0282,-0.133974 0.12393,-0.252629 0.22791,-0.341709 1.14023,-0.976942 2.93775,-1.347317 4.40603,-1.480741"
       id="path6256" />
    <path
       style="fill:#ff3f00;fill-opacity:0;stroke:#050404;stroke-width:0.7;stroke-linecap:round"
       d="m 354.10534,56.836587 c -0.0397,-0.421087 0.013,-0.811342 0.11395,-1.214967 0.0127,-0.05062 0.0277,-0.100703 0.038,-0.15187 0.003,-0.01241 -0.003,-0.05042 0,-0.03797 0.25704,1.41306 -0.28001,3.029638 -0.68368,4.366286 -0.0648,0.214694 -0.13089,0.429091 -0.18992,0.645451 -0.0169,0.06226 -0.10126,0.177179 -0.038,0.189839 0.0633,0.01267 0.0209,-0.12758 0.038,-0.189839 0.059,-0.21636 0.10816,-0.43661 0.18992,-0.645451 0.4404,-1.125003 0.44945,-1.083815 1.17747,-2.012288 0.15465,-0.197223 0.46662,-0.640043 0.60772,-0.569516 0.11036,0.05515 -0.008,0.434827 -0.11395,0.645451 -0.29149,0.582782 -0.7406,1.119981 -1.13948,1.632612 -0.0717,0.0921 -0.16603,0.166822 -0.22789,0.265774 -0.0786,0.125648 0.2885,-0.07949 0.41781,-0.151871 0.58293,-0.326308 1.08762,-0.632489 1.74722,-0.797322 0.58664,-0.1466 0.1,0.426381 0.49377,0.569516 0.16828,0.06117 0.35875,0.02982 0.53176,0.07594 0.17351,0.04625 0.7457,0.426955 0.87363,0.341706 0.32459,-0.216307 0.4558,-0.82483 0.4558,-1.176999 0,-0.418732 -0.34714,-1.161798 -0.87363,-0.759354 -0.55468,0.424 -0.86088,1.28156 -0.56973,1.936353 0.24093,0.541912 0.89546,0.417822 1.21544,0.03797 0.31047,-0.368514 0.54004,-0.969084 0.60775,-1.442773 0.0161,-0.112757 0.0103,-0.228274 0,-0.341709 -0.003,-0.02819 -0.018,-0.09594 -0.038,-0.07594 -0.0955,0.09543 -0.21799,1.550004 -0.18992,1.746518 0.0421,0.294462 0.18047,0.48878 0.26588,0.417642 0.26014,-0.216691 0.39513,-0.691298 0.49379,-0.987161 0.28051,-0.841253 0.4712,-1.694119 0.53176,-2.581804 0.0277,-0.406191 0,-0.84211 0,-1.252934 0,-0.02532 0,0.05062 0,0.07594 0,0.177184 0.009,0.354597 0,0.531548 -0.065,1.266248 -0.43527,2.52708 -0.30387,3.796774 0.014,0.136837 0.009,0.493577 0.26588,0.493577 0.1988,0 0.46839,-0.377174 0.53176,-0.455612 0.3611,-0.446887 0.75464,-0.928619 0.94959,-1.480741 0.0265,-0.07497 0.0784,-0.225406 0,-0.303742 -0.009,-0.0089 0.003,0.0254 0,0.03797 -0.0111,0.0888 -0.0335,0.176395 -0.038,0.265774 -0.023,0.462627 0.0374,0.938363 0.22791,1.36684 0.007,0.01508 0.18783,0.308986 0.30385,0.227804 0.36068,-0.252373 0.49945,-0.995678 0.60775,-1.366838 0.0516,-0.1769 0.10721,-0.352774 0.15192,-0.531548 0.006,-0.02455 0,-0.101248 0,-0.07593 0,0.427384 0.0122,-0.250079 -0.076,0.455612 -0.0251,0.201325 -0.0305,0.404734 -0.038,0.607484 -0.0119,0.319333 -0.013,0.524425 0.076,0.835289 0.0175,0.06085 0.0692,0.196615 0.11393,0.151871 0.14023,-0.140168 0.0627,-0.624671 0.038,-0.797322 -0.004,-0.02968 -0.0251,-0.189838 0.038,-0.189838 0.0601,0 0,0.264128 0,0.265774 0,0.15708 0.11699,-0.123045 0.038,0.113905 -0.007,0.0209 -0.11303,0.303742 -0.11396,0.303742 -0.10202,0 -0.0601,-0.204139 -0.038,-0.303742 0.0321,-0.14461 0.0958,-0.280543 0.15192,-0.417647 0.0579,-0.141539 0.10745,-0.288848 0.18992,-0.417645 0.27318,-0.426664 1.09693,-1.428742 1.51931,-0.531548 0.20955,0.44508 -0.0749,1.302801 0.038,1.556679 0.0967,0.217551 1.29143,-0.551683 1.29143,-0.683421 0,-0.08007 -0.15023,-0.05652 -0.22791,-0.07594"
       id="path6258" />
    <path
       style="fill:#ff3f00;fill-opacity:0;stroke:#050404;stroke-width:0.7;stroke-linecap:round"
       d="m 366.07001,57.102361 c 0.0506,-0.354364 0.0612,-0.71682 0.15192,-1.063096 0.0502,-0.191643 0.17317,-0.356473 0.26591,-0.531548 0.0214,-0.04033 0.0437,-0.146166 0.076,-0.113903 0.0544,0.05443 0.038,0.150823 0.038,0.227806 0,0.228159 -0.0122,0.456722 -0.038,0.683419 -0.0376,0.330798 -0.0845,0.661144 -0.15195,0.987161 -0.0693,0.334909 -0.44283,1.48622 -0.37981,1.974323 0.13269,1.028017 1.29797,-0.12569 1.55728,-0.341712 0.15836,-0.131889 0.30478,-0.277455 0.4558,-0.417645 0.0262,-0.02437 0.10922,-0.06264 0.076,-0.07594 -0.16346,-0.06535 -0.22839,-0.01876 -0.34187,0.03797"
       id="path6260" />
    <path
       style="fill:#ff3f00;fill-opacity:0;stroke:#050404;stroke-width:0.7;stroke-linecap:round"
       d="m 365.91808,58.127489 c -0.0127,-0.08859 -0.0906,-0.193408 -0.038,-0.265774 0.1329,-0.182647 1.06153,-0.265448 1.06355,-0.265774 0.79446,-0.12878 0.49937,-0.07139 1.17747,-0.227806"
       id="path6262" />
    <path
       style="fill:#ff3f00;fill-opacity:0;stroke:#050404;stroke-width:0.7;stroke-linecap:round"
       d="m 369.14664,57.216264 c -0.0572,0.426956 -0.50038,1.908421 -0.076,2.202127 0.25956,0.179615 0.54613,-0.338465 0.60773,-0.417645"
       id="path6264" />
    <path
       style="fill:#ff3f00;fill-opacity:0;stroke:#050404;stroke-width:0.7;stroke-linecap:round"
       d="m 370.47606,54.786331 c 0.15454,1.091911 -0.35044,2.103996 -0.53179,3.15132 -0.0364,0.210163 -0.25407,1.118809 0.15196,1.366837 0.36983,0.225915 0.76906,-0.208764 1.02552,-0.379677"
       id="path6266" />
    <path
       style="fill:#ff3f00;fill-opacity:0;stroke:#050404;stroke-width:0.7;stroke-linecap:round"
       d="m 371.91942,58.431231 c 0.31006,0.03874 0.31543,0.01553 0.60772,0.151871 0.24966,0.116467 0.55345,0.446767 0.79764,0.113905 0.0905,-0.123309 0.16102,-0.267467 0.18991,-0.417647 0.1501,-0.780129 -0.33739,-1.592035 -1.21544,-1.139031 -0.52274,0.269679 -0.86722,0.598564 -1.10151,1.139031 -0.20122,0.464161 0.0236,1.32887 0.64571,1.32887 0.53634,0 0.92446,-0.55177 1.17748,-0.949193 0.1125,-0.176731 0.2314,-0.36286 0.26588,-0.569516 0.003,-0.01765 -0.0254,-0.05062 -0.038,-0.03797 -0.3154,0.315288 -0.34409,1.002657 -0.30387,1.404808 0.0154,0.153929 0.0406,0.408236 0.18992,0.303739 0.13433,-0.09399 0.34459,-0.36018 0.4558,-0.493578"
       id="path6268" />
    <path
       style="fill:#ff3f00;fill-opacity:0;stroke:#050404;stroke-width:0.7;stroke-linecap:round"
       d="m 374.16041,58.621069 c -0.0127,0.126559 -0.0254,0.253119 -0.038,0.379677 -0.0405,0.405329 -0.0743,0.408623 0.038,0.83529 0.0304,0.115475 0.14288,0.413491 0.18992,0.303742 0.20846,-0.486249 -0.18992,-1.047647 -0.18992,-1.518709 0,-0.203329 0.19831,-0.923869 0.49379,-0.98716 0.35666,-0.0764 0.73417,0.272026 1.02553,0.417645"
       id="path6270" />
    <path
       style="fill:#ff3f00;fill-opacity:0;stroke:#050404;stroke-width:0.7;stroke-linecap:round"
       d="m 376.81923,57.44407 c -0.31816,0.615636 -0.26966,1.253035 -0.076,1.898388 0.11991,0.399474 0.28347,0.251053 0.37983,-0.03797"
       id="path6272" />
    <path
       style="fill:#ff3f00;fill-opacity:0;stroke:#050404;stroke-width:0.7;stroke-linecap:round"
       d="m 243.0529,128.01949 c -0.0433,-0.25943 -0.17133,-0.51859 -0.12976,-0.7783 0.40832,-2.55099 4.29677,-1.37251 5.8396,-1.23231 0.43133,0.0392 0.86491,0.0482 1.29769,0.0649 0.41093,0.0158 0.38931,0.12714 0.38931,-0.0649"
       id="path6442" />
    <path
       style="fill:#ff3f00;fill-opacity:0;stroke:#050404;stroke-width:0.7;stroke-linecap:round"
       d="m 246.36202,125.29545 c 0.46694,10.96885 -0.0649,-4.24157 -0.0649,5.77238 0,0.8672 0.0741,1.73554 0.19465,2.59433 0.0526,0.37479 0.29669,1.26944 0.64885,1.62145 0.1506,0.15054 -0.16428,-0.39328 -0.25954,-0.58372"
       id="path6444" />
    <path
       style="fill:#ff3f00;fill-opacity:0;stroke:#050404;stroke-width:0.7;stroke-linecap:round"
       d="m 248.5032,130.22467 c 0.31215,1.66412 0.12069,0.58095 0.45419,2.72404 0.064,0.41092 0.12152,0.82293 0.19466,1.23231 0.0351,0.19622 0.0814,0.39036 0.12977,0.58373 0.0166,0.0663 0.0515,0.26161 0.0649,0.19457 0.20602,-1.0297 -0.66293,-4.01037 0.19465,-4.66979 0.50496,-0.38828 1.4878,0.12971 2.01142,0.12971 0.29221,0 1.0248,-0.12748 1.42746,-0.19457"
       id="path6446" />
    <path
       style="fill:#ff3f00;fill-opacity:0;stroke:#050404;stroke-width:0.7;stroke-linecap:round"
       d="m 254.47257,131.58669 c 0.40814,0.59795 1.19646,1.29278 2.01142,1.16745 0.65213,-0.10029 0.52909,-1.2976 0.32442,-1.68631 -0.23598,-0.44818 -0.90161,-0.78033 -1.36257,-0.84316 -1.53325,-0.209 -1.84655,3.8939 -0.77861,4.86437 0.34221,0.31097 0.95705,-0.37295 1.03815,-0.45401 0.78806,-0.78775 1.22254,-2.08597 1.16792,-3.17806 -0.018,-0.36007 -0.0867,-0.69165 -0.12977,-0.64858 -0.14896,0.14891 -0.003,1.06544 0,1.10259 0.096,1.34333 -0.0105,0.79344 0.38931,2.3349 0.0343,0.13236 0.0594,0.27191 0.12977,0.38915 0.0764,0.12729 0.24151,-0.64137 0.25954,-0.71344"
       id="path6448" />
    <path
       style="fill:#ff3f00;fill-opacity:0;stroke:#050404;stroke-width:0.7;stroke-linecap:round"
       d="m 258.88472,125.74945 c 0.0216,-0.28105 -0.0612,-1.09525 0.0649,-0.84315 0.16471,0.32927 0.0756,0.73458 0.0649,1.10258 -0.0326,1.12561 -0.15834,2.24714 -0.19466,3.37263 -0.0698,2.16234 0.0211,3.05134 0.12977,5.18866 0.022,0.43237 0.0329,0.86542 0.0649,1.29717 0.0113,0.15245 -0.004,0.59073 0.0649,0.454 0.10683,-0.21357 0.0394,-0.476 0.0649,-0.71344 0.0394,-0.36796 0.0865,-0.73506 0.12978,-1.10259"
       id="path6450" />
    <path
       style="fill:#ff3f00;fill-opacity:0;stroke:#050404;stroke-width:0.7;stroke-linecap:round"
       d="m 260.6366,130.67868 c 0.0216,-0.17296 0.23784,-0.49724 0.0649,-0.51887 -0.17295,-0.0216 0.0154,0.36414 -0.0649,0.51887 -0.68229,1.3153 -1.55712,1.85857 -1.81677,3.50234 -0.0202,0.12813 -0.0511,0.26993 0,0.38915 0.0771,0.17993 0.76354,-0.0611 1.03816,-0.12971 1.07535,-0.26873 1.8374,-0.4637 2.9198,0 0.79292,0.33968 0.22121,1.2323 -0.25954,1.2323 -0.0484,0 -0.0433,-0.0865 -0.0649,-0.12972"
       id="path6452" />
    <path
       style="fill:#ff3f00;fill-opacity:0;stroke:#050404;stroke-width:0.7;stroke-linecap:round"
       d="m 262.97244,133.14329 c 0.68752,-0.13999 1.31842,0.0817 1.94653,-0.38915 0.60104,-0.4506 0.74386,-1.46162 0.19466,-2.0106 -0.15064,-0.15059 -0.37126,-0.24825 -0.58396,-0.25944 -1.05101,-0.0553 -1.26324,1.29899 -1.36258,2.01061 -0.0706,0.50544 -0.19838,1.62203 0.12977,2.20518 0.0828,0.14719 0.22298,0.29495 0.38931,0.32429 0.54725,0.0965 2.45129,-0.9695 2.66026,-1.49174 0.0241,-0.0602 -0.12977,0 -0.19465,0"
       id="path6454" />
    <path
       style="fill:#ff3f00;fill-opacity:0;stroke:#050404;stroke-width:0.7;stroke-linecap:round"
       d="m 303.82513,127.95463 c -0.10814,0 -0.24134,0.0692 -0.32443,0 -0.59923,-0.49916 -1.26351,-1.97619 -0.19465,-2.46461 0.51486,-0.23527 1.12101,-0.18573 1.687,-0.19457 1.58873,-0.0248 3.52911,0.5375 4.93122,-0.58373"
       id="path6671" />
    <path
       style="fill:#ff3f00;fill-opacity:0;stroke:#050404;stroke-width:0.7;stroke-linecap:round"
       d="m 306.48539,125.16573 c 0.39891,2.10135 0.55882,4.23231 0.77861,6.3561 0.0919,0.88823 0.24355,1.76989 0.32442,2.65919 0.0374,0.41078 0.12349,0.38915 -0.0649,0.38915"
       id="path6675" />
    <path
       style="fill:#ff3f00;fill-opacity:0;stroke:#050404;stroke-width:0.7;stroke-linecap:round"
       d="m 309.34031,130.54896 c 0.3835,1.09911 0.6146,2.22502 0.77861,3.37263 0.006,0.0453 0.0495,0.89262 0.25954,1.10259 0.0306,0.0306 -0.004,-0.0866 0,-0.12972 0.0181,-0.21652 0.0809,-0.4319 0.0649,-0.64858 -0.0606,-0.8183 -0.56361,-2.22658 -0.51907,-2.98348 0.0428,-0.72734 2.01103,-0.23692 2.33584,-0.19457 0.86604,0.0787 0.47724,0.0311 1.16792,0.12971"
       id="path6677" />
    <path
       style="fill:#ff3f00;fill-opacity:0;stroke:#050404;stroke-width:0.7;stroke-linecap:round"
       d="m 315.17991,132.30013 c 0.53341,0.0843 0.62997,0.59606 0.97327,0.90802 0.61398,0.55793 1.39541,-0.21379 1.68699,-0.71344 0.20927,-0.35859 0.38662,-1.26895 0.25954,-1.68632 -0.31709,-1.04146 -1.91525,-1.56454 -2.66026,-0.71343 -0.4917,0.56171 -0.478,0.92477 -0.45419,1.68631 0.0284,0.90855 0.21913,1.80243 0.77861,2.52947 0.0746,0.0969 0.13864,0.24084 0.25954,0.25943 0.93778,0.14422 1.77827,-1.37629 2.01142,-2.07546 0.18425,-0.55253 0.10603,-1.29717 0,-1.29717 -0.0432,0 0.003,0.0866 0,0.12972 -0.0186,0.25967 -0.0556,0.51813 -0.0649,0.7783 -0.0355,0.99428 0.0799,2.11309 0.45419,3.04833 0.36032,0.90042 0.81672,0.89717 1.16792,0 0.10515,-0.2686 0.12977,-0.5621 0.19466,-0.84315"
       id="path6679" />
    <path
       style="fill:#ff3f00;fill-opacity:0;stroke:#050404;stroke-width:0.7;stroke-linecap:round"
       d="m 319.00809,125.81431 c 0.84475,2.21866 0.61462,4.68234 0.77862,7.00469 0.0582,0.82403 0.14266,1.64684 0.25954,2.46461 0.0564,0.39464 0.12325,0.79282 0.25954,1.16745 0.0418,0.11495 0.15012,0.31412 0.25953,0.25943 0.14079,-0.0704 0.0865,-0.30267 0.12977,-0.45401"
       id="path6681" />
    <path
       style="fill:#ff3f00;fill-opacity:0;stroke:#050404;stroke-width:0.7;stroke-linecap:round"
       d="m 321.73324,131.84613 c -0.0557,-0.1485 -0.19099,-0.7783 -0.51907,-0.7783 -0.79751,0 -1.51442,2.67534 -1.36258,3.30777 0.0616,0.25664 0.24451,0.48829 0.4542,0.64858 0.83776,0.64038 2.3709,-0.31991 3.37399,-0.19458 0.47866,0.0598 0.56264,0.71344 0.97327,0.71344"
       id="path6683" />
    <path
       style="fill:#ff3f00;fill-opacity:0;stroke:#050404;stroke-width:0.7;stroke-linecap:round"
       d="m 324.32862,133.66216 c -0.0433,-0.23782 -0.17719,-0.47643 -0.12977,-0.71345 0.26528,-1.32585 2.7576,-0.94044 3.56865,-1.75117 0.55519,-0.55496 0.31673,-1.4487 -0.38931,-1.75117 -1.49032,-0.63845 -2.29846,1.07445 -2.33584,2.27004 -0.0276,0.88426 0.50326,2.62255 1.55723,2.7889 1.01938,0.16089 1.92766,-0.68105 2.59538,-1.29716 0.51909,-0.47898 0.26333,-0.13542 0.51907,-0.51886"
       id="path6685" />
    <path
       style="fill:#ff3f00;fill-opacity:0;stroke:#050404;stroke-width:0.7;stroke-linecap:round"
       d="m 330.62242,132.819 c 0,-0.49725 0.0138,-0.99469 0,-1.49174 -0.008,-0.28178 -0.0299,-0.56345 -0.0649,-0.84316 -0.008,-0.0678 -0.0761,-0.26201 -0.0649,-0.19457 0.18959,1.13707 0.40589,3.23629 1.10304,4.15093 0.20164,0.26454 0.78084,0.57371 0.90838,0 0.19309,-0.86855 -0.46466,-1.32858 -0.71372,-2.07547"
       id="path6687" />
    <path
       style="fill:#ff3f00;fill-opacity:0;stroke:#050404;stroke-width:0.7;stroke-linecap:round"
       d="m 330.49264,129.7058 c -0.10278,-0.22509 -0.85642,-1.95436 -0.0649,-1.42688"
       id="path6689" />
    <path
       style="fill:#ff3f00;fill-opacity:0;stroke:#050404;stroke-width:0.7;stroke-linecap:round"
       d="m 333.47733,132.55957 c -0.38281,-1.91327 -0.0826,-0.0254 -0.12977,-2.85377 -0.0112,-0.6715 -0.11818,-1.3391 -0.12976,-2.0106 -0.0101,-0.58404 0.0357,-1.16777 0.0649,-1.75117 0.0141,-0.28153 0.0483,-0.56176 0.0649,-0.84316 0.005,-0.0863 -0.0865,-0.25943 0,-0.25943 0.0967,0 0.11277,0.16424 0.12977,0.25943 0.092,0.51476 0.16937,1.0343 0.19466,1.5566 0.32501,6.71441 -0.3151,-1.50241 0.0649,4.66979 0.0638,1.0368 0.0743,2.29526 0.64885,3.24291 1.44508,2.38342 3.67445,0.2116 2.72515,-1.68631"
       id="path6691" />
    <path
       style="fill:#ff3f00;fill-opacity:0;stroke:#050404;stroke-width:0.7;stroke-linecap:round"
       d="m 331.92011,130.93811 c -0.12978,0.15134 -0.46337,0.26892 -0.38931,0.45401 0.23322,0.58281 3.22322,-0.38915 3.56865,-0.38915"
       id="path6693" />
    <path
       style="fill:#ff3f00;fill-opacity:0;stroke:#ff0000;stroke-width:0.7;stroke-linecap:round;stroke-opacity:1;marker-end:url(#Arrow1Lend)"
       d="M 254.19608,121.12011 254.05912,26.795977"
       id="path6910" />
    <g
       id="g8467"
       transform="translate(0.27591468,0.04596846)">
      <rect
         style="fill:#ff3f00;fill-opacity:0;stroke:#050404;stroke-width:0.7;stroke-linecap:round"
         id="rect3713"
         width="1.7718394"
         height="2.0154145"
         x="224.97525"
         y="-230.19167"
         ry="0.61073261"
         transform="matrix(0.8660254,-0.5,-0.5,-0.8660254,0,0)" />
      <rect
         style="fill:#ff3f00;fill-opacity:0;stroke:#050404;stroke-width:0.7;stroke-linecap:round"
         id="rect8429"
         width="1.7718394"
         height="2.0154145"
         x="227.74527"
         y="-230.16867"
         ry="0.61073261"
         transform="matrix(0.8660254,-0.5,-0.5,-0.8660254,0,0)" />
      <rect
         style="fill:#ff3f00;fill-opacity:0;stroke:#050404;stroke-width:0.7;stroke-linecap:round"
         id="rect8431"
         width="1.7718394"
         height="2.0154145"
         x="230.59491"
         y="-230.19167"
         ry="0.61073261"
         transform="matrix(0.8660254,-0.5,-0.5,-0.8660254,0,0)" />
      <rect
         style="fill:#ff3f00;fill-opacity:0;stroke:#050404;stroke-width:0.7;stroke-linecap:round"
         id="rect8433"
         width="1.7718394"
         height="2.0154145"
         x="233.4744"
         y="-230.19167"
         ry="0.61073261"
         transform="matrix(0.8660254,-0.5,-0.5,-0.8660254,0,0)" />
      <rect
         style="fill:#ff3f00;fill-opacity:0;stroke:#050404;stroke-width:0.7;stroke-linecap:round"
         id="rect8435"
         width="1.7718394"
         height="2.0154145"
         x="236.33069"
         y="-230.19167"
         ry="0.61073261"
         transform="matrix(0.8660254,-0.5,-0.5,-0.8660254,0,0)" />
      <rect
         style="fill:#ff3f00;fill-opacity:0;stroke:#050404;stroke-width:0.7;stroke-linecap:round"
         id="rect8437"
         width="1.7718394"
         height="2.0154145"
         x="239.25662"
         y="-230.19167"
         ry="0.61073261"
         transform="matrix(0.8660254,-0.5,-0.5,-0.8660254,0,0)" />
      <rect
         style="fill:#ff3f00;fill-opacity:0;stroke:#050404;stroke-width:0.7;stroke-linecap:round"
         id="rect8439"
         width="1.7718394"
         height="2.0154145"
         x="242.02002"
         y="-230.19167"
         ry="0.61073261"
         transform="matrix(0.8660254,-0.5,-0.5,-0.8660254,0,0)" />
      <rect
         style="fill:#ff3f00;fill-opacity:0;stroke:#050404;stroke-width:0.7;stroke-linecap:round"
         id="rect8457"
         width="1.7718394"
         height="2.0154145"
         x="244.86592"
         y="-230.09253"
         ry="0.61073261"
         transform="matrix(0.8660254,-0.5,-0.5,-0.8660254,0,0)" />
    </g>
    <g
       id="g8485"
       transform="matrix(1,0,0,-1,0.52585363,183.40487)">
      <rect
         style="fill:#ff3f00;fill-opacity:0;stroke:#050404;stroke-width:0.7;stroke-linecap:round"
         id="rect8469"
         width="1.7718394"
         height="2.0154145"
         x="224.97525"
         y="-230.19167"
         ry="0.61073261"
         transform="matrix(0.8660254,-0.5,-0.5,-0.8660254,0,0)" />
      <rect
         style="fill:#ff3f00;fill-opacity:0;stroke:#050404;stroke-width:0.7;stroke-linecap:round"
         id="rect8471"
         width="1.7718394"
         height="2.0154145"
         x="227.74527"
         y="-230.16867"
         ry="0.61073261"
         transform="matrix(0.8660254,-0.5,-0.5,-0.8660254,0,0)" />
      <rect
         style="fill:#ff3f00;fill-opacity:0;stroke:#050404;stroke-width:0.7;stroke-linecap:round"
         id="rect8473"
         width="1.7718394"
         height="2.0154145"
         x="230.59491"
         y="-230.19167"
         ry="0.61073261"
         transform="matrix(0.8660254,-0.5,-0.5,-0.8660254,0,0)" />
      <rect
         style="fill:#ff3f00;fill-opacity:0;stroke:#050404;stroke-width:0.7;stroke-linecap:round"
         id="rect8475"
         width="1.7718394"
         height="2.0154145"
         x="233.4744"
         y="-230.19167"
         ry="0.61073261"
         transform="matrix(0.8660254,-0.5,-0.5,-0.8660254,0,0)" />
      <rect
         style="fill:#ff3f00;fill-opacity:0;stroke:#050404;stroke-width:0.7;stroke-linecap:round"
         id="rect8477"
         width="1.7718394"
         height="2.0154145"
         x="236.33069"
         y="-230.19167"
         ry="0.61073261"
         transform="matrix(0.8660254,-0.5,-0.5,-0.8660254,0,0)" />
      <rect
         style="fill:#ff3f00;fill-opacity:0;stroke:#050404;stroke-width:0.7;stroke-linecap:round"
         id="rect8479"
         width="1.7718394"
         height="2.0154145"
         x="239.25662"
         y="-230.19167"
         ry="0.61073261"
         transform="matrix(0.8660254,-0.5,-0.5,-0.8660254,0,0)" />
      <rect
         style="fill:#ff3f00;fill-opacity:0;stroke:#050404;stroke-width:0.7;stroke-linecap:round"
         id="rect8481"
         width="1.7718394"
         height="2.0154145"
         x="242.02002"
         y="-230.19167"
         ry="0.61073261"
         transform="matrix(0.8660254,-0.5,-0.5,-0.8660254,0,0)" />
      <rect
         style="fill:#ff3f00;fill-opacity:0;stroke:#050404;stroke-width:0.7;stroke-linecap:round"
         id="rect8483"
         width="1.7718394"
         height="2.0154145"
         x="244.86592"
         y="-230.09253"
         ry="0.61073261"
         transform="matrix(0.8660254,-0.5,-0.5,-0.8660254,0,0)" />
    </g>
    <g
       id="g8503"
       transform="matrix(1,0,0,-1,0.52585363,132.29645)">
      <rect
         style="fill:#ff3f00;fill-opacity:0;stroke:#050404;stroke-width:0.7;stroke-linecap:round"
         id="rect8487"
         width="1.7718394"
         height="2.0154145"
         x="224.97525"
         y="-230.19167"
         ry="0.61073261"
         transform="matrix(0.8660254,-0.5,-0.5,-0.8660254,0,0)" />
      <rect
         style="fill:#ff3f00;fill-opacity:0;stroke:#050404;stroke-width:0.7;stroke-linecap:round"
         id="rect8489"
         width="1.7718394"
         height="2.0154145"
         x="227.74527"
         y="-230.16867"
         ry="0.61073261"
         transform="matrix(0.8660254,-0.5,-0.5,-0.8660254,0,0)" />
      <rect
         style="fill:#ff3f00;fill-opacity:0;stroke:#050404;stroke-width:0.7;stroke-linecap:round"
         id="rect8491"
         width="1.7718394"
         height="2.0154145"
         x="230.59491"
         y="-230.19167"
         ry="0.61073261"
         transform="matrix(0.8660254,-0.5,-0.5,-0.8660254,0,0)" />
      <rect
         style="fill:#ff3f00;fill-opacity:0;stroke:#050404;stroke-width:0.7;stroke-linecap:round"
         id="rect8493"
         width="1.7718394"
         height="2.0154145"
         x="233.4744"
         y="-230.19167"
         ry="0.61073261"
         transform="matrix(0.8660254,-0.5,-0.5,-0.8660254,0,0)" />
      <rect
         style="fill:#ff3f00;fill-opacity:0;stroke:#050404;stroke-width:0.7;stroke-linecap:round"
         id="rect8495"
         width="1.7718394"
         height="2.0154145"
         x="236.33069"
         y="-230.19167"
         ry="0.61073261"
         transform="matrix(0.8660254,-0.5,-0.5,-0.8660254,0,0)" />
      <rect
         style="fill:#ff3f00;fill-opacity:0;stroke:#050404;stroke-width:0.7;stroke-linecap:round"
         id="rect8497"
         width="1.7718394"
         height="2.0154145"
         x="239.25662"
         y="-230.19167"
         ry="0.61073261"
         transform="matrix(0.8660254,-0.5,-0.5,-0.8660254,0,0)" />
      <rect
         style="fill:#ff3f00;fill-opacity:0;stroke:#050404;stroke-width:0.7;stroke-linecap:round"
         id="rect8499"
         width="1.7718394"
         height="2.0154145"
         x="242.02002"
         y="-230.19167"
         ry="0.61073261"
         transform="matrix(0.8660254,-0.5,-0.5,-0.8660254,0,0)" />
      <rect
         style="fill:#ff3f00;fill-opacity:0;stroke:#050404;stroke-width:0.7;stroke-linecap:round"
         id="rect8501"
         width="1.7718394"
         height="2.0154145"
         x="244.86592"
         y="-230.09253"
         ry="0.61073261"
         transform="matrix(0.8660254,-0.5,-0.5,-0.8660254,0,0)" />
    </g>
    <path
       style="fill:#ff3f00;fill-opacity:0;stroke:#ff0000;stroke-width:0.7;stroke-linecap:round;stroke-linejoin:round;stroke-miterlimit:4;stroke-dasharray:none;stroke-opacity:1;marker-end:url(#Arrow1Lend)"
       d="m 317.95791,122.22001 -0.19477,-16.93879 2.82427,-5.451561 0.0974,-15.673249 -5.45379,-9.540237 V 52.777849 l 3.506,-5.840964 0.19478,-20.832763"
       id="path8540" />
  </g>
</svg>
