<?xml version="1.0" encoding="UTF-8" standalone="no"?>
<!-- Created with Inkscape (http://www.inkscape.org/) -->

<svg
   width="105.93124mm"
   height="155.19345mm"
   viewBox="0 0 105.93124 155.19345"
   version="1.1"
   id="svg5"
   inkscape:version="1.1.2 (0a00cf5339, 2022-02-04)"
   sodipodi:docname="tropizma.svg"
   xmlns:inkscape="http://www.inkscape.org/namespaces/inkscape"
   xmlns:sodipodi="http://sodipodi.sourceforge.net/DTD/sodipodi-0.dtd"
   xmlns="http://www.w3.org/2000/svg"
   xmlns:svg="http://www.w3.org/2000/svg">
  <sodipodi:namedview
     id="namedview7"
     pagecolor="#ffffff"
     bordercolor="#999999"
     borderopacity="1"
     inkscape:pageshadow="0"
     inkscape:pageopacity="0"
     inkscape:pagecheckerboard="0"
     inkscape:document-units="mm"
     showgrid="true"
     inkscape:zoom="3.1425017"
     inkscape:cx="118.21791"
     inkscape:cy="456.80166"
     inkscape:window-width="1916"
     inkscape:window-height="1033"
     inkscape:window-x="0"
     inkscape:window-y="23"
     inkscape:window-maximized="1"
     inkscape:current-layer="layer1">
    <inkscape:grid
       type="xygrid"
       id="grid894"
       originx="-9.7001474"
       originy="-94.395564" />
  </sodipodi:namedview>
  <defs
     id="defs2" />
  <g
     inkscape:label="Layer 1"
     inkscape:groupmode="layer"
     id="layer1"
     transform="translate(-9.700147,-94.395564)">
    <path
       id="rect1402"
       style="fill-opacity:0;stroke:#000000;stroke-width:0.7;stroke-linecap:round;stroke-linejoin:round;stroke-opacity:1"
       d="m 69.787152,160.05206 v 34.36642 H 10.050147 v -34.36642"
       sodipodi:nodetypes="cccc" />
    <path
       style="fill:#000000;fill-opacity:0;stroke:#883d00;stroke-width:0.7;stroke-linecap:round;stroke-linejoin:round;stroke-opacity:1"
       d="m 10.460611,165.14456 c 0.237383,0.60024 0.354103,-1.01481 0.780939,-1.01481 0.07753,0 0.649008,0.87081 0.937127,1.01481 0.20967,0.10479 0.478838,-0.39545 0.624752,-0.46838 0.08742,-0.0437 0.479049,0.31225 0.624751,0.31225 0.438011,0 0.808181,-0.45333 1.249502,-0.39031 0.341816,0.0488 0.405795,0.21327 0.702846,0.31225 0.370687,0.12351 0.969828,-0.15067 1.405691,-0.0781 0.401238,0.0668 0.578676,0.53576 1.015222,0.39031 0.314764,-0.10488 0.72445,-0.72795 1.093314,-0.78062 0.345493,-0.0493 0.712708,0.36757 1.015222,0.46837 0.481478,0.16043 1.442528,0.28051 1.952349,0.23419 0.24269,-0.022 0.528148,-0.14698 0.780938,-0.0781 0.397083,0.10825 0.767821,0.30962 1.17141,0.39031 0.403063,0.0806 0.939512,-0.0457 1.327598,-0.0781 0.580652,-0.0484 1.14019,0.0457 1.718064,-0.0781 5e-5,-1e-5 1.093263,-0.31224 1.093316,-0.31225 0.61662,-0.0948 1.216464,0.16739 1.796161,0.31225 0.443757,0.1109 1.028089,0.135 1.483786,0.0781 0.188042,-0.0235 0.357151,-0.15612 0.546656,-0.15612 0.295587,0 0.531873,0.15074 0.85903,0.0781 0.549434,-0.12205 0.937168,-0.7416 1.639975,-0.85868 0.491845,-0.0819 0.72717,0.40493 1.171408,0.46837 0.468517,0.0669 1.094365,0.0467 1.561881,0 0.767786,-0.0768 1.801056,-0.70256 2.420913,-0.70256 0.568487,0 1.079283,0.33936 1.63997,0.39031 0.728255,0.0662 1.468943,-0.15777 2.186633,-0.0781 1.066469,0.11845 -0.221001,0.003 0.702847,0.23419 0.769488,0.19229 1.454311,-0.22075 2.186628,-0.31225 0.843851,-0.10544 1.664293,0.31004 2.499008,0.23418 0.523965,-0.0476 1.043874,-0.16021 1.561875,-0.23418 0.142544,-0.0204 0.478412,-0.15613 0.624753,-0.15613 0.129524,0 0.273769,0.10947 0.390469,0.15613 0.428855,0.17147 0.947248,0.33939 1.405692,0.39031 0.824809,0.0916 1.616593,-0.22872 2.342819,-0.15613 0.690271,0.069 1.318681,0.28892 2.030444,0.23419 0.585542,-0.045 1.041133,-0.3007 1.63997,-0.23419 0.460322,0.0511 0.80001,0.35605 1.249505,0.46838 0.274079,0.0685 0.92528,0.004 1.171406,-0.0781 0.180041,-0.06 0.911979,-0.71514 0.93713,-0.70257 0.214114,0.10702 0.0783,0.0157 0.390469,0.0781 0.20396,0.0408 0.416444,0.18213 0.624753,0.23418 0.540581,0.13509 1.102281,0.1331 1.63997,0.31225 0.320053,0.10664 0.607652,0.31713 0.937127,0.39031 0.542277,0.12046 1.150798,0 1.71807,0 0.177384,0 0.60576,0.16562 0.780936,0.0781 0.626774,-0.31326 1.022993,-0.86127 1.718069,-1.09288"
       id="path1726" />
    <path
       style="fill:#000000;fill-opacity:0;stroke:#00a811;stroke-width:0.7;stroke-linecap:round;stroke-linejoin:round;stroke-opacity:1"
       d="m 25.372366,149.67955 v 20.21814"
       id="path2817" />
    <path
       style="fill:#000000;fill-opacity:0;stroke:#000000;stroke-width:0.7;stroke-linecap:round;stroke-linejoin:round;stroke-opacity:1"
       d="m 19.437225,178.1723 6.091326,-8.35267 -2.42091,8.43073"
       id="path3844" />
    <path
       style="fill:#000000;fill-opacity:0;stroke:#000000;stroke-width:0.7;stroke-linecap:round;stroke-linejoin:round;stroke-opacity:1"
       d="m 26.621872,179.18711 -0.93713,-9.13329 4.685635,10.69454"
       id="path3978" />
    <path
       style="fill:#000000;fill-opacity:0;stroke:#000000;stroke-width:0.7;stroke-linecap:round;stroke-linejoin:round;stroke-miterlimit:4;stroke-dasharray:0.7, 2.1;stroke-dashoffset:0;stroke-opacity:1"
       d="m 39.741652,154.67553 0.07809,38.71892"
       id="path3980" />
    <text
       xml:space="preserve"
       style="font-style:normal;font-variant:normal;font-weight:normal;font-stretch:normal;font-size:21.3333px;line-height:normal;font-family:monospace;-inkscape-font-specification:monospace;font-variant-ligatures:normal;font-variant-position:normal;font-variant-caps:normal;font-variant-numeric:normal;font-variant-alternates:normal;font-variant-east-asian:normal;font-feature-settings:normal;font-variation-settings:normal;text-indent:0;text-align:start;text-decoration-line:none;text-decoration-style:solid;text-decoration-color:#000000;letter-spacing:normal;word-spacing:normal;text-transform:none;writing-mode:lr-tb;direction:ltr;text-orientation:mixed;dominant-baseline:auto;baseline-shift:baseline;text-anchor:start;white-space:normal;shape-padding:0;shape-margin:0;inline-size:0;opacity:1;vector-effect:none;fill:#000000;fill-opacity:1;stroke:#00000b;stroke-width:0;stroke-linecap:round;stroke-linejoin:round;stroke-miterlimit:4;stroke-dasharray:none;stroke-dashoffset:0;stroke-opacity:1;-inkscape-stroke:none;stop-color:#000000;stop-opacity:1"
       x="171.75121"
       y="585.78064"
       id="text6558"
       transform="scale(0.26458333)"><tspan
         sodipodi:role="line"
         id="tspan6556"
         x="171.75121"
         y="585.78064">nemli (higrotropizma)</tspan></text>
    <path
       style="fill:#000000;fill-opacity:0;stroke:#000000;stroke-width:0.7;stroke-linecap:round;stroke-linejoin:round;stroke-miterlimit:4;stroke-dasharray:none;stroke-dashoffset:0;stroke-opacity:1"
       d="m 49.204456,170.20994 c 1.18477,-4.18012 3.000558,-8.13937 4.373261,-12.25579"
       id="path17455" />
    <path
       style="fill:#000000;fill-opacity:0;stroke:#000000;stroke-width:0.7;stroke-linecap:round;stroke-linejoin:round;stroke-miterlimit:4;stroke-dasharray:none;stroke-dashoffset:0;stroke-opacity:1"
       d="m 52.562495,159.20315 c 0.104127,-0.1301 0.208251,-0.26021 0.312377,-0.39031 0.07809,-0.026 0.171035,-0.0254 0.234284,-0.0781 0.254521,-0.21202 0.479967,-0.4575 0.702844,-0.70256 0.04953,-0.0545 0.156186,-0.22974 0.156186,-0.15613 0,0.0582 -0.06852,0.0987 -0.07809,0.15613 -0.06588,0.39513 -0.156192,0.93052 -0.156192,1.32706 0,0.3706 0.156192,0.72346 0.156192,1.09287"
       id="path17459" />
    <path
       style="fill:#000000;fill-opacity:0;stroke:#ff008a;stroke-width:0.7;stroke-linecap:round;stroke-linejoin:round;stroke-miterlimit:4;stroke-dasharray:none;stroke-dashoffset:0;stroke-opacity:1"
       d="m 28.821938,181.99735 c 1.351833,4.69713 4.650899,3.80196 10.074119,3.66893 0.553159,-0.0136 3.788867,-0.73755 5.38848,-1.09287"
       id="path17461" />
    <path
       style="fill:#000000;fill-opacity:0;stroke:#ff008a;stroke-width:0.7;stroke-linecap:round;stroke-linejoin:round;stroke-miterlimit:4;stroke-dasharray:none;stroke-dashoffset:0;stroke-opacity:1"
       d="m 43.737881,183.71473 c 0.663059,0 0.383665,-0.0815 0.859034,0.15612 0.191764,0.0958 0.859033,0.42934 0.859033,0.46837 0,0.2239 -0.375708,0.24572 -0.546658,0.39031 -0.453218,0.38334 -1.137645,0.99163 -1.327597,1.56125"
       id="path18288" />
    <path
       style="fill:#000000;fill-opacity:0;stroke:#ff008a;stroke-width:0.7;stroke-linecap:round;stroke-linejoin:round;stroke-miterlimit:4;stroke-dasharray:none;stroke-dashoffset:0;stroke-opacity:1"
       d="m 37.490365,188.3204 c -0.156186,0.0781 -0.365837,0.093 -0.468564,0.23419 -0.347742,0.47795 -0.176027,2.59462 0,3.12249 0.07054,0.21154 0.312378,0.19554 0.312378,0"
       id="path18290" />
    <path
       style="fill:#000000;fill-opacity:0;stroke:#ff008a;stroke-width:0.7;stroke-linecap:round;stroke-linejoin:round;stroke-miterlimit:4;stroke-dasharray:none;stroke-dashoffset:0;stroke-opacity:1"
       d="m 39.755087,188.47653 c -0.0688,0.7565 -0.118911,1.02013 -0.07809,1.79543 0.01529,0.29052 0.156188,0.56776 0.156188,0.85869 0,0.0938 -0.08983,-0.16786 -0.156188,-0.23419"
       id="path18292" />
    <path
       style="fill:#000000;fill-opacity:0;stroke:#ff008a;stroke-width:0.7;stroke-linecap:round;stroke-linejoin:round;stroke-miterlimit:4;stroke-dasharray:none;stroke-dashoffset:0;stroke-opacity:1"
       d="m 38.661773,189.95971 c 0.0781,-0.13011 0.09855,-0.32247 0.234284,-0.39031 0.161073,-0.0805 1.272193,-0.0137 1.561877,-0.0781 0.13684,-0.0304 0.260313,-0.10409 0.390472,-0.15613"
       id="path18294" />
    <path
       style="fill:#000000;fill-opacity:0;stroke:#ff008a;stroke-width:0.7;stroke-linecap:round;stroke-linejoin:round;stroke-miterlimit:4;stroke-dasharray:none;stroke-dashoffset:0;stroke-opacity:1"
       d="m 41.551251,187.93009 c 1.240663,1.86663 1.1088,2.08641 0.62475,4.21537"
       id="path18296" />
    <path
       style="fill:#000000;fill-opacity:0;stroke:#ff008a;stroke-width:0.7;stroke-linecap:round;stroke-linejoin:round;stroke-miterlimit:4;stroke-dasharray:none;stroke-dashoffset:0;stroke-opacity:1"
       d="m 29.368596,178.48455 12.416936,2.73218"
       id="path18302" />
    <path
       style="fill:#000000;fill-opacity:0;stroke:#ff008a;stroke-width:0.7;stroke-linecap:round;stroke-linejoin:round;stroke-miterlimit:4;stroke-dasharray:none;stroke-dashoffset:0;stroke-opacity:1"
       d="m 28.040999,174.65949 16.399727,4.99599"
       id="path18306" />
    <path
       style="fill:#000000;fill-opacity:0;stroke:#ff008a;stroke-width:0.7;stroke-linecap:round;stroke-linejoin:round;stroke-miterlimit:4;stroke-dasharray:none;stroke-dashoffset:0;stroke-opacity:1"
       d="m 35.22564,176.9233 16.087349,0.93675"
       id="path18308" />
    <path
       style="fill:#000000;fill-opacity:0;stroke:#ff008a;stroke-width:0.7;stroke-linecap:round;stroke-linejoin:round;stroke-miterlimit:4;stroke-dasharray:none;stroke-dashoffset:0;stroke-opacity:1"
       d="m 25.541993,169.81963 26.00528,4.60568"
       id="path18310" />
    <path
       id="path18392"
       style="fill-opacity:0;stroke:#000000;stroke-width:0.7;stroke-linecap:round;stroke-linejoin:round;stroke-opacity:1"
       d="m 69.787152,105.11807 v 34.36642 H 10.050147 v -34.36642"
       sodipodi:nodetypes="cccc" />
    <path
       style="fill:#000000;fill-opacity:0;stroke:#883d00;stroke-width:0.7;stroke-linecap:round;stroke-linejoin:round;stroke-opacity:1"
       d="m 10.460611,110.21057 c 0.237383,0.60024 0.354103,-1.01481 0.780939,-1.01481 0.07753,0 0.649008,0.87081 0.937127,1.01481 0.20967,0.10479 0.478838,-0.39545 0.624752,-0.46838 0.08742,-0.0437 0.479049,0.31225 0.624751,0.31225 0.438011,0 0.808181,-0.45333 1.249502,-0.39031 0.341816,0.0488 0.405795,0.21327 0.702846,0.31225 0.370687,0.12351 0.969828,-0.15067 1.405691,-0.0781 0.401238,0.0668 0.578676,0.53576 1.015222,0.39031 0.314764,-0.10488 0.72445,-0.72795 1.093314,-0.78062 0.345493,-0.0493 0.712708,0.36757 1.015222,0.46837 0.481478,0.16043 1.442528,0.28051 1.952349,0.23419 0.24269,-0.022 0.528148,-0.14698 0.780938,-0.0781 0.397083,0.10825 0.767821,0.30962 1.17141,0.39031 0.403063,0.0806 0.939512,-0.0457 1.327598,-0.0781 0.580652,-0.0484 1.14019,0.0457 1.718064,-0.0781 5e-5,-1e-5 1.093263,-0.31224 1.093316,-0.31225 0.61662,-0.0948 1.216464,0.16739 1.796161,0.31225 0.443757,0.1109 1.028089,0.135 1.483786,0.0781 0.188042,-0.0235 0.357151,-0.15612 0.546656,-0.15612 0.295587,0 0.531873,0.15074 0.85903,0.0781 0.549434,-0.12205 0.937168,-0.7416 1.639975,-0.85868 0.491845,-0.0819 0.72717,0.40493 1.171408,0.46837 0.468517,0.0669 1.094365,0.0467 1.561881,0 0.767786,-0.0768 1.801056,-0.70256 2.420913,-0.70256 0.568487,0 1.079283,0.33936 1.63997,0.39031 0.728255,0.0662 1.468943,-0.15777 2.186633,-0.0781 1.066469,0.11845 -0.221001,0.003 0.702847,0.23419 0.769488,0.19229 1.454311,-0.22075 2.186628,-0.31225 0.843851,-0.10544 1.664293,0.31004 2.499008,0.23418 0.523965,-0.0476 1.043874,-0.16021 1.561875,-0.23418 0.142544,-0.0204 0.478412,-0.15613 0.624753,-0.15613 0.129524,0 0.273769,0.10947 0.390469,0.15613 0.428855,0.17147 0.947248,0.33939 1.405692,0.39031 0.824809,0.0916 1.616593,-0.22872 2.342819,-0.15613 0.690271,0.069 1.318681,0.28892 2.030444,0.23419 0.585542,-0.045 1.041133,-0.3007 1.63997,-0.23419 0.460322,0.0511 0.80001,0.35605 1.249505,0.46838 0.274079,0.0685 0.92528,0.004 1.171406,-0.0781 0.180041,-0.06 0.911979,-0.71514 0.93713,-0.70257 0.214114,0.10702 0.0783,0.0157 0.390469,0.0781 0.20396,0.0408 0.416444,0.18213 0.624753,0.23418 0.540581,0.13509 1.102281,0.1331 1.63997,0.31225 0.320053,0.10664 0.607652,0.31713 0.937127,0.39031 0.542277,0.12046 1.150798,0 1.71807,0 0.177384,0 0.60576,0.16562 0.780936,0.0781 0.626774,-0.31326 1.022993,-0.86127 1.718069,-1.09288"
       id="path18394" />
    <path
       style="fill:#000000;fill-opacity:0;stroke:#00a811;stroke-width:0.7;stroke-linecap:round;stroke-linejoin:round;stroke-opacity:1"
       d="M 25.372366,94.745564 V 114.9637"
       id="path18396" />
    <path
       style="fill:#000000;fill-opacity:0;stroke:#000000;stroke-width:0.7;stroke-linecap:round;stroke-linejoin:round;stroke-opacity:1"
       d="m 19.437225,123.23831 6.091326,-8.35267 -2.42091,8.43073"
       id="path18398" />
    <path
       style="fill:#000000;fill-opacity:0;stroke:#000000;stroke-width:0.7;stroke-linecap:round;stroke-linejoin:round;stroke-opacity:1"
       d="m 26.621872,124.25312 -0.93713,-9.13329 4.685635,10.69454"
       id="path18400" />
    <path
       style="fill:#000000;fill-opacity:0;stroke:#000000;stroke-width:0.7;stroke-linecap:round;stroke-linejoin:round;stroke-miterlimit:4;stroke-dasharray:0.7, 2.1;stroke-dashoffset:0;stroke-opacity:1"
       d="m 39.741652,99.741544 0.07809,38.718916"
       id="path18402" />
    <text
       xml:space="preserve"
       style="font-style:normal;font-variant:normal;font-weight:normal;font-stretch:normal;font-size:21.3333px;line-height:normal;font-family:monospace;-inkscape-font-specification:monospace;font-variant-ligatures:normal;font-variant-position:normal;font-variant-caps:normal;font-variant-numeric:normal;font-variant-alternates:normal;font-variant-east-asian:normal;font-feature-settings:normal;font-variation-settings:normal;text-indent:0;text-align:start;text-decoration-line:none;text-decoration-style:solid;text-decoration-color:#000000;letter-spacing:normal;word-spacing:normal;text-transform:none;writing-mode:lr-tb;direction:ltr;text-orientation:mixed;dominant-baseline:auto;baseline-shift:baseline;text-anchor:start;white-space:normal;shape-padding:0;shape-margin:0;inline-size:0;opacity:1;vector-effect:none;fill:#000000;fill-opacity:1;stroke:#00000b;stroke-width:0;stroke-linecap:round;stroke-linejoin:round;stroke-miterlimit:4;stroke-dasharray:none;stroke-dashoffset:0;stroke-opacity:1;-inkscape-stroke:none;stop-color:#000000;stop-opacity:1"
       x="171.75121"
       y="585.78064"
       id="text18406"
       transform="matrix(0.26458333,0,0,0.26458333,0,-54.933986)"><tspan
         sodipodi:role="line"
         id="tspan18404"
         x="171.75121"
         y="585.78064">gübre (kemptropizma)</tspan></text>
    <path
       style="fill:#000000;fill-opacity:0;stroke:#000000;stroke-width:0.7;stroke-linecap:round;stroke-linejoin:round;stroke-miterlimit:4;stroke-dasharray:none;stroke-dashoffset:0;stroke-opacity:1"
       d="m 49.204456,115.27595 c 1.18477,-4.18012 3.000558,-8.13937 4.373261,-12.25579"
       id="path18408" />
    <path
       style="fill:#000000;fill-opacity:0;stroke:#000000;stroke-width:0.7;stroke-linecap:round;stroke-linejoin:round;stroke-miterlimit:4;stroke-dasharray:none;stroke-dashoffset:0;stroke-opacity:1"
       d="m 52.562495,104.26916 c 0.104127,-0.1301 0.208251,-0.26021 0.312377,-0.39031 0.07809,-0.026 0.171035,-0.0254 0.234284,-0.0781 0.254521,-0.21202 0.479967,-0.4575 0.702844,-0.70256 0.04953,-0.0545 0.156186,-0.22974 0.156186,-0.15613 0,0.0582 -0.06852,0.0987 -0.07809,0.15613 -0.06588,0.39513 -0.156192,0.93052 -0.156192,1.32706 0,0.3706 0.156192,0.72346 0.156192,1.09287"
       id="path18410" />
    <path
       style="fill:#000000;fill-opacity:0;stroke:#ff008a;stroke-width:0.7;stroke-linecap:round;stroke-linejoin:round;stroke-miterlimit:4;stroke-dasharray:none;stroke-dashoffset:0;stroke-opacity:1"
       d="m 28.821938,127.06336 c 1.351833,4.69713 4.650899,3.80196 10.074119,3.66893 0.553159,-0.0136 3.788867,-0.73755 5.38848,-1.09287"
       id="path18412" />
    <path
       style="fill:#000000;fill-opacity:0;stroke:#ff008a;stroke-width:0.7;stroke-linecap:round;stroke-linejoin:round;stroke-miterlimit:4;stroke-dasharray:none;stroke-dashoffset:0;stroke-opacity:1"
       d="m 43.737881,128.78074 c 0.663059,0 0.383665,-0.0815 0.859034,0.15612 0.191764,0.0958 0.859033,0.42934 0.859033,0.46837 0,0.2239 -0.375708,0.24572 -0.546658,0.39031 -0.453218,0.38334 -1.137645,0.99163 -1.327597,1.56125"
       id="path18414" />
    <path
       style="fill:#000000;fill-opacity:0;stroke:#ff008a;stroke-width:0.7;stroke-linecap:round;stroke-linejoin:round;stroke-miterlimit:4;stroke-dasharray:none;stroke-dashoffset:0;stroke-opacity:1"
       d="m 37.490365,133.38641 c -0.156186,0.0781 -0.365837,0.093 -0.468564,0.23419 -0.347742,0.47795 -0.176027,2.59462 0,3.12249 0.07054,0.21154 0.312378,0.19554 0.312378,0"
       id="path18416" />
    <path
       style="fill:#000000;fill-opacity:0;stroke:#ff008a;stroke-width:0.7;stroke-linecap:round;stroke-linejoin:round;stroke-miterlimit:4;stroke-dasharray:none;stroke-dashoffset:0;stroke-opacity:1"
       d="m 39.755087,133.54254 c -0.0688,0.7565 -0.118911,1.02013 -0.07809,1.79543 0.01529,0.29052 0.156188,0.56776 0.156188,0.85869 0,0.0938 -0.08983,-0.16786 -0.156188,-0.23419"
       id="path18418" />
    <path
       style="fill:#000000;fill-opacity:0;stroke:#ff008a;stroke-width:0.7;stroke-linecap:round;stroke-linejoin:round;stroke-miterlimit:4;stroke-dasharray:none;stroke-dashoffset:0;stroke-opacity:1"
       d="m 38.661773,135.02572 c 0.0781,-0.13011 0.09855,-0.32247 0.234284,-0.39031 0.161073,-0.0805 1.272193,-0.0137 1.561877,-0.0781 0.13684,-0.0304 0.260313,-0.10409 0.390472,-0.15613"
       id="path18420" />
    <path
       style="fill:#000000;fill-opacity:0;stroke:#ff008a;stroke-width:0.7;stroke-linecap:round;stroke-linejoin:round;stroke-miterlimit:4;stroke-dasharray:none;stroke-dashoffset:0;stroke-opacity:1"
       d="m 41.551251,132.9961 c 1.240663,1.86663 1.1088,2.08641 0.62475,4.21537"
       id="path18422" />
    <path
       style="fill:#000000;fill-opacity:0;stroke:#ff008a;stroke-width:0.7;stroke-linecap:round;stroke-linejoin:round;stroke-miterlimit:4;stroke-dasharray:none;stroke-dashoffset:0;stroke-opacity:1"
       d="m 29.368596,123.55056 12.416936,2.73218"
       id="path18424" />
    <path
       style="fill:#000000;fill-opacity:0;stroke:#ff008a;stroke-width:0.7;stroke-linecap:round;stroke-linejoin:round;stroke-miterlimit:4;stroke-dasharray:none;stroke-dashoffset:0;stroke-opacity:1"
       d="m 28.040999,119.7255 16.399727,4.99599"
       id="path18426" />
    <path
       style="fill:#000000;fill-opacity:0;stroke:#ff008a;stroke-width:0.7;stroke-linecap:round;stroke-linejoin:round;stroke-miterlimit:4;stroke-dasharray:none;stroke-dashoffset:0;stroke-opacity:1"
       d="m 35.22564,121.98931 17.289253,-0.0117"
       id="path18428"
       sodipodi:nodetypes="cc" />
    <path
       style="fill:#000000;fill-opacity:0;stroke:#ff008a;stroke-width:0.7;stroke-linecap:round;stroke-linejoin:round;stroke-miterlimit:4;stroke-dasharray:none;stroke-dashoffset:0;stroke-opacity:1"
       d="m 26.68064,116.59292 24.487085,1.38082"
       id="path18430"
       sodipodi:nodetypes="cc" />
    <path
       id="path25307"
       style="fill-opacity:0;stroke:#000000;stroke-width:0.7;stroke-linecap:round;stroke-linejoin:round;stroke-opacity:1"
       d="m 69.787152,214.8726 v 34.36642 H 10.050147 V 214.8726"
       sodipodi:nodetypes="cccc" />
    <path
       style="fill:#000000;fill-opacity:0;stroke:#883d00;stroke-width:0.7;stroke-linecap:round;stroke-linejoin:round;stroke-opacity:1"
       d="m 10.460611,219.9651 c 0.237383,0.60024 0.354103,-1.01481 0.780939,-1.01481 0.07753,0 0.649008,0.87081 0.937127,1.01481 0.20967,0.10479 0.478838,-0.39545 0.624752,-0.46838 0.08742,-0.0437 0.479049,0.31225 0.624751,0.31225 0.438011,0 0.808181,-0.45333 1.249502,-0.39031 0.341816,0.0488 0.405795,0.21327 0.702846,0.31225 0.370687,0.12351 0.969828,-0.15067 1.405691,-0.0781 0.401238,0.0668 0.578676,0.53576 1.015222,0.39031 0.314764,-0.10488 0.72445,-0.72795 1.093314,-0.78062 0.345493,-0.0493 0.712708,0.36757 1.015222,0.46837 0.481478,0.16043 1.442528,0.28051 1.952349,0.23419 0.24269,-0.022 0.528148,-0.14698 0.780938,-0.0781 0.397083,0.10825 0.767821,0.30962 1.17141,0.39031 0.403063,0.0806 0.939512,-0.0457 1.327598,-0.0781 0.580652,-0.0484 1.14019,0.0457 1.718064,-0.0781 5e-5,-1e-5 1.093263,-0.31224 1.093316,-0.31225 0.61662,-0.0948 1.216464,0.16739 1.796161,0.31225 0.443757,0.1109 1.028089,0.135 1.483786,0.0781 0.188042,-0.0235 0.357151,-0.15612 0.546656,-0.15612 0.295587,0 0.531873,0.15074 0.85903,0.0781 0.549434,-0.12205 0.937168,-0.7416 1.639975,-0.85868 0.491845,-0.0819 0.72717,0.40493 1.171408,0.46837 0.468517,0.0669 1.094365,0.0467 1.561881,0 0.767786,-0.0768 1.801056,-0.70256 2.420913,-0.70256 0.568487,0 1.079283,0.33936 1.63997,0.39031 0.728255,0.0662 1.468943,-0.15777 2.186633,-0.0781 1.066469,0.11845 -0.221001,0.003 0.702847,0.23419 0.769488,0.19229 1.454311,-0.22075 2.186628,-0.31225 0.843851,-0.10544 1.664293,0.31004 2.499008,0.23418 0.523965,-0.0476 1.043874,-0.16021 1.561875,-0.23418 0.142544,-0.0204 0.478412,-0.15613 0.624753,-0.15613 0.129524,0 0.273769,0.10947 0.390469,0.15613 0.428855,0.17147 0.947248,0.33939 1.405692,0.39031 0.824809,0.0916 1.616593,-0.22872 2.342819,-0.15613 0.690271,0.069 1.318681,0.28892 2.030444,0.23419 0.585542,-0.045 1.041133,-0.3007 1.63997,-0.23419 0.460322,0.0511 0.80001,0.35605 1.249505,0.46838 0.274079,0.0685 0.92528,0.004 1.171406,-0.0781 0.180041,-0.06 0.911979,-0.71514 0.93713,-0.70257 0.214114,0.10702 0.0783,0.0157 0.390469,0.0781 0.20396,0.0408 0.416444,0.18213 0.624753,0.23418 0.540581,0.13509 1.102281,0.1331 1.63997,0.31225 0.320053,0.10664 0.607652,0.31713 0.937127,0.39031 0.542277,0.12046 1.150798,0 1.71807,0 0.177384,0 0.60576,0.16562 0.780936,0.0781 0.626774,-0.31326 1.022993,-0.86127 1.718069,-1.09288"
       id="path25309" />
    <path
       style="fill:#000000;fill-opacity:0;stroke:#00a811;stroke-width:0.7;stroke-linecap:round;stroke-linejoin:round;stroke-opacity:1"
       d="m 25.372366,204.50009 v 20.21814"
       id="path25311" />
    <path
       style="fill:#000000;fill-opacity:0;stroke:#000000;stroke-width:0.7;stroke-linecap:round;stroke-linejoin:round;stroke-opacity:1"
       d="m 19.437225,232.99284 6.091326,-8.35267 -2.42091,8.43073"
       id="path25313" />
    <path
       style="fill:#000000;fill-opacity:0;stroke:#000000;stroke-width:0.7;stroke-linecap:round;stroke-linejoin:round;stroke-opacity:1"
       d="m 26.621872,234.00765 -0.93713,-9.13329 4.685635,10.69454"
       id="path25315" />
    <path
       style="fill:#000000;fill-opacity:0;stroke:#000000;stroke-width:0.7;stroke-linecap:round;stroke-linejoin:round;stroke-miterlimit:4;stroke-dasharray:0.7, 2.1;stroke-dashoffset:0;stroke-opacity:1"
       d="m 39.741652,209.49607 0.07809,38.71892"
       id="path25317" />
    <text
       xml:space="preserve"
       style="font-style:normal;font-variant:normal;font-weight:normal;font-stretch:normal;font-size:21.3333px;line-height:normal;font-family:monospace;-inkscape-font-specification:monospace;font-variant-ligatures:normal;font-variant-position:normal;font-variant-caps:normal;font-variant-numeric:normal;font-variant-alternates:normal;font-variant-east-asian:normal;font-feature-settings:normal;font-variation-settings:normal;text-indent:0;text-align:start;text-decoration-line:none;text-decoration-style:solid;text-decoration-color:#000000;letter-spacing:normal;word-spacing:normal;text-transform:none;writing-mode:lr-tb;direction:ltr;text-orientation:mixed;dominant-baseline:auto;baseline-shift:baseline;text-anchor:start;white-space:normal;shape-padding:0;shape-margin:0;inline-size:0;opacity:1;vector-effect:none;fill:#000000;fill-opacity:1;stroke:#00000b;stroke-width:0;stroke-linecap:round;stroke-linejoin:round;stroke-miterlimit:4;stroke-dasharray:none;stroke-dashoffset:0;stroke-opacity:1;-inkscape-stroke:none;stop-color:#000000;stop-opacity:1"
       x="171.75121"
       y="585.78064"
       id="text25321"
       transform="matrix(0.26458333,0,0,0.26458333,0,54.820537)"><tspan
         sodipodi:role="line"
         id="tspan25319"
         x="171.75121"
         y="585.78064">kireç (kemotropizma)</tspan></text>
    <path
       style="fill:#000000;fill-opacity:0;stroke:#000000;stroke-width:0.7;stroke-linecap:round;stroke-linejoin:round;stroke-miterlimit:4;stroke-dasharray:none;stroke-dashoffset:0;stroke-opacity:1"
       d="m 49.204456,225.03048 c 1.18477,-4.18012 3.000558,-8.13937 4.373261,-12.25579"
       id="path25323" />
    <path
       style="fill:#000000;fill-opacity:0;stroke:#000000;stroke-width:0.7;stroke-linecap:round;stroke-linejoin:round;stroke-miterlimit:4;stroke-dasharray:none;stroke-dashoffset:0;stroke-opacity:1"
       d="m 52.562495,214.02369 c 0.104127,-0.1301 0.208251,-0.26021 0.312377,-0.39031 0.07809,-0.026 0.171035,-0.0254 0.234284,-0.0781 0.254521,-0.21202 0.479967,-0.4575 0.702844,-0.70256 0.04953,-0.0545 0.156186,-0.22974 0.156186,-0.15613 0,0.0582 -0.06852,0.0987 -0.07809,0.15613 -0.06588,0.39513 -0.156192,0.93052 -0.156192,1.32706 0,0.3706 0.156192,0.72346 0.156192,1.09287"
       id="path25325" />
    <path
       style="fill:#000000;fill-opacity:0;stroke:#ff008a;stroke-width:0.7;stroke-linecap:round;stroke-linejoin:round;stroke-miterlimit:4;stroke-dasharray:none;stroke-dashoffset:0;stroke-opacity:1"
       d="m 45.455948,236.81789 c -1.351833,4.69713 -4.650899,3.80196 -10.074119,3.66893 -0.553159,-0.0136 -3.788867,-0.73755 -5.38848,-1.09287"
       id="path25327" />
    <path
       style="fill:#000000;fill-opacity:0;stroke:#ff008a;stroke-width:0.7;stroke-linecap:round;stroke-linejoin:round;stroke-miterlimit:4;stroke-dasharray:none;stroke-dashoffset:0;stroke-opacity:1"
       d="m 30.540005,238.53527 c -0.663059,0 -0.383665,-0.0815 -0.859034,0.15612 -0.191764,0.0958 -0.859033,0.42934 -0.859033,0.46837 0,0.2239 0.375708,0.24572 0.546658,0.39031 0.453218,0.38334 1.137645,0.99163 1.327597,1.56125"
       id="path25329" />
    <path
       style="fill:#000000;fill-opacity:0;stroke:#ff008a;stroke-width:0.7;stroke-linecap:round;stroke-linejoin:round;stroke-miterlimit:4;stroke-dasharray:none;stroke-dashoffset:0;stroke-opacity:1"
       d="m 37.490365,243.14094 c -0.156186,0.0781 -0.365837,0.093 -0.468564,0.23419 -0.347742,0.47795 -0.176027,2.59462 0,3.12249 0.07054,0.21154 0.312378,0.19554 0.312378,0"
       id="path25331" />
    <path
       style="fill:#000000;fill-opacity:0;stroke:#ff008a;stroke-width:0.7;stroke-linecap:round;stroke-linejoin:round;stroke-miterlimit:4;stroke-dasharray:none;stroke-dashoffset:0;stroke-opacity:1"
       d="m 38.661773,244.78025 c 0.0781,-0.13011 0.09855,-0.32247 0.234284,-0.39031 0.161073,-0.0805 1.272193,-0.0137 1.561877,-0.0781 0.13684,-0.0304 0.260313,-0.10409 0.390472,-0.15613"
       id="path25335" />
    <path
       style="fill:#000000;fill-opacity:0;stroke:#ff008a;stroke-width:0.7;stroke-linecap:round;stroke-linejoin:round;stroke-miterlimit:4;stroke-dasharray:none;stroke-dashoffset:0;stroke-opacity:1"
       d="m 41.551251,242.75063 c 1.240663,1.86663 1.1088,2.08641 0.62475,4.21537"
       id="path25337" />
    <path
       style="fill:#000000;fill-opacity:0;stroke:#ff008a;stroke-width:0.7;stroke-linecap:round;stroke-linejoin:round;stroke-miterlimit:4;stroke-dasharray:none;stroke-dashoffset:0;stroke-opacity:0.98823529"
       d="m 19.612345,232.43749 c -1.15005,0.58881 -2.3001,1.17762 -3.45015,1.76643"
       id="path26658" />
    <path
       style="fill:#000000;fill-opacity:0;stroke:#ff008a;stroke-width:0.7;stroke-linecap:round;stroke-linejoin:round;stroke-miterlimit:4;stroke-dasharray:none;stroke-dashoffset:0;stroke-opacity:0.988235"
       d="m 23.399096,231.31991 -6.563702,4.54227"
       id="path29347" />
    <path
       style="fill:#000000;fill-opacity:0;stroke:#ff008a;stroke-width:0.7;stroke-linecap:round;stroke-linejoin:round;stroke-miterlimit:4;stroke-dasharray:none;stroke-dashoffset:0;stroke-opacity:0.988235"
       d="m 22.389294,228.54409 -7.65765,2.94406"
       id="path29353" />
  </g>
</svg>
