<?xml version="1.0" encoding="UTF-8" standalone="no"?>
<!-- Created with Inkscape (http://www.inkscape.org/) -->

<svg
   width="60.089108mm"
   height="43.669552mm"
   viewBox="0 0 60.089108 43.669552"
   version="1.1"
   id="svg5"
   inkscape:version="1.1.2 (0a00cf5339, 2022-02-04)"
   sodipodi:docname="yaprak-döken-mantar-doku.svg"
   xmlns:inkscape="http://www.inkscape.org/namespaces/inkscape"
   xmlns:sodipodi="http://sodipodi.sourceforge.net/DTD/sodipodi-0.dtd"
   xmlns="http://www.w3.org/2000/svg"
   xmlns:svg="http://www.w3.org/2000/svg">
  <sodipodi:namedview
     id="namedview7"
     pagecolor="#ffffff"
     bordercolor="#999999"
     borderopacity="1"
     inkscape:pageshadow="0"
     inkscape:pageopacity="0"
     inkscape:pagecheckerboard="0"
     inkscape:document-units="mm"
     showgrid="true"
     inkscape:zoom="2.8194336"
     inkscape:rotation="3"
     inkscape:cx="95.446768"
     inkscape:cy="114.14154"
     inkscape:window-width="1916"
     inkscape:window-height="1033"
     inkscape:window-x="0"
     inkscape:window-y="23"
     inkscape:window-maximized="1"
     inkscape:current-layer="layer1">
    <inkscape:grid
       type="xygrid"
       id="grid824"
       originx="-54.585081"
       originy="-6.4119476" />
  </sodipodi:namedview>
  <defs
     id="defs2" />
  <g
     inkscape:label="Layer 1"
     inkscape:groupmode="layer"
     id="layer1"
     transform="translate(-54.585082,-6.4119477)">
    <path
       style="fill:#000000;fill-opacity:0;stroke:#000000;stroke-width:0.7;stroke-linecap:round;stroke-opacity:1"
       d="m 54.935082,15.080912 0.05221,34.650586"
       id="path861" />
    <path
       style="fill:#000000;fill-opacity:0;stroke:#000000;stroke-width:0.7;stroke-linecap:round;stroke-opacity:1"
       d="m 56.657871,15.080912 0.05221,34.650586"
       id="path1306" />
    <path
       style="fill:#000000;fill-opacity:0;stroke:#000000;stroke-width:0.7;stroke-linecap:round;stroke-opacity:1"
       d="M 57.075519,31.310331 68.299755,26.613712"
       id="path1343" />
    <path
       style="fill:#000000;fill-opacity:0;stroke:#000000;stroke-width:0.7;stroke-linecap:round;stroke-opacity:1"
       d="M 57.075519,33.136793 68.299755,28.440174"
       id="path1460" />
    <path
       style="fill:#000000;fill-opacity:0;stroke:#000000;stroke-width:0.7;stroke-linecap:round;stroke-opacity:1"
       d="M 68.458836,26.457159 C 75.791567,25.350873 77.025753,14.142096 86.26099,11.427989 90.070258,19.78022 81.192894,32.847175 68.563245,28.440175"
       id="path2047"
       sodipodi:nodetypes="ccc" />
    <path
       style="fill:#000000;fill-opacity:0;stroke:#000000;stroke-width:0.7;stroke-linecap:round;stroke-opacity:1"
       d="m 85.58232,21.656175 c 1.711243,0.549493 3.541164,0.626215 5.324985,0.626215"
       id="path3806" />
    <path
       style="fill:#000000;fill-opacity:0;stroke:#000000;stroke-width:0.7;stroke-linecap:round;stroke-opacity:1"
       d="m 90.594068,20.769035 c -1.600526,0.274574 1.060733,1.125637 1.409559,1.252432 0.19071,0.06932 0.6872,0.195195 0.522058,0.313107 -0.120999,0.08639 -0.270838,0.133075 -0.417648,0.156555 -0.292624,0.0468 -0.59178,0.03291 -0.887494,0.05218 -0.504783,0.03291 -1.009314,0.06958 -1.51397,0.104369"
       id="path3808" />
    <path
       style="fill:#000000;fill-opacity:0;stroke:#000000;stroke-width:0.7;stroke-linecap:round;stroke-opacity:1"
       d="m 94.354847,22.073651 c 0.307914,-1.077279 -0.133299,0.325881 0.31323,-0.678399 0.07924,-0.178225 0.194863,-0.650489 0.313235,-0.88714 0.0078,-0.01556 0.0029,0.03503 0,0.05219 -0.03198,0.191835 -0.08211,0.38083 -0.10441,0.57403 -0.07495,0.64928 -0.08792,1.734178 0.835287,1.826461 0.905113,0.09048 1.063384,-1.14594 1.096322,-1.722092 0.02384,-0.417158 -0.0522,-0.834591 -0.0522,-1.25243 0,-0.03479 0,-0.13916 0,-0.10437 0,0.863212 0.0432,1.750941 -0.05221,2.609232 -0.09544,0.858607 -0.367562,2.023014 -0.574265,2.870153 -0.0587,0.240576 -0.232238,1.067103 -0.469847,1.304617 -0.06154,0.06151 -0.184412,0.04124 -0.26103,0 -0.473133,-0.254661 -1.00653,-0.961252 -1.305142,-1.408985 -0.04317,-0.06472 -0.144454,-0.142033 -0.104415,-0.208739 0.02633,-0.04388 0.610169,-0.08102 0.730882,-0.10437 1.403819,-0.271597 2.760375,-0.742695 4.072044,-1.304615"
       id="path3810" />
    <path
       style="fill:#000000;fill-opacity:0;stroke:#000000;stroke-width:0.7;stroke-linecap:round;stroke-opacity:1"
       d="m 99.366593,25.152543 c 0.06961,0.226134 0.07026,0.486617 0.208827,0.678401 0.104916,0.14521 0.290859,0.268379 0.46985,0.260924 0.73316,-0.03054 1.14645,-0.620005 1.35735,-1.252432 0.28949,-0.868118 -0.66963,-2.414296 -1.61838,-1.513353 -0.564825,0.536367 -0.462068,1.115967 -0.417647,1.82646 0.01214,0.194105 0.01381,0.401945 0.104412,0.574031 0.434123,0.824501 1.286585,0.567073 1.618375,-0.156553 0.0948,-0.206791 0.31548,-0.979968 0.36545,-1.304616 0.0106,-0.06877 -0.0311,-0.146509 0,-0.208739 0.0174,-0.03479 0.0492,0.06559 0.0522,0.104371 0.0147,0.190779 0.008,0.382853 0,0.57403 -0.002,0.03874 -0.20484,1.926879 0.10441,1.617722"
       id="path3812" />
    <path
       style="fill:#000000;fill-opacity:0;stroke:#000000;stroke-width:0.7;stroke-linecap:round;stroke-opacity:1"
       d="m 103.44021,23.693045 c 0.0522,0.330503 0.14964,0.65698 0.15661,0.991507 0.0285,1.364991 -0.21069,1.914658 -0.46984,3.287632 -0.0621,0.328795 -0.10928,0.660273 -0.15662,0.991507 -0.005,0.03444 -0.011,0.137372 0,0.10437 0.0281,-0.08414 0.0348,-0.17395 0.0522,-0.260924"
       id="path3814" />
    <path
       style="fill:#000000;fill-opacity:0;stroke:#000000;stroke-width:0.7;stroke-linecap:round;stroke-opacity:1"
       d="m 103.07477,24.684552 c 0.17402,-0.139159 0.31341,-0.339268 0.52205,-0.417476 0.37908,-0.142096 1.99888,-0.452737 2.40147,0 0.0589,0.06628 0.0105,0.198216 -0.0522,0.260923 -0.56398,0.563748 -1.62006,0.908684 -2.34927,1.200246"
       id="path3816" />
    <path
       style="fill:#000000;fill-opacity:0;stroke:#000000;stroke-width:0.7;stroke-linecap:round;stroke-opacity:1"
       d="m 106.49333,24.31926 c 0.3925,0.457726 0.31324,0.204892 0.31324,0.730584 0,0.104369 0,0.208739 0,0.313109 0,0.03479 0,0.139158 0,0.104369 0,-0.273826 -0.15951,-2.259306 0.20882,-2.296123 0.33664,-0.03365 0.72147,0.12811 1.04411,0.208737"
       id="path3818" />
    <path
       style="fill:#000000;fill-opacity:0;stroke:#000000;stroke-width:0.7;stroke-linecap:round;stroke-opacity:1"
       d="m 109.78229,23.640859 c 0.16242,0.405623 1.427,1.356536 1.56618,0.521847 0.0683,-0.409812 -0.0619,-0.602189 -0.36544,-0.939323 -0.16547,-0.183774 -0.34186,-0.385183 -0.57427,-0.469662 -0.64469,-0.234339 -1.54505,0.618584 -1.8272,1.095877 -0.10093,0.170736 -0.1347,0.376907 -0.15662,0.574031 -0.0918,0.825948 1.0284,0.802442 1.51397,0.57403 0.17248,-0.08113 0.5364,-0.491158 0.62647,-0.626215 0.21684,-0.325129 0.24518,-0.419368 0.20882,-0.782769 -0.009,-0.08655 -0.0951,-0.270235 -0.15661,-0.208739 -0.30284,0.302714 0.0581,1.962489 0.46985,1.930831 0.18662,-0.01435 0.38332,-0.226611 0.52206,-0.365292"
       id="path3820" />
    <path
       style="fill:#000000;fill-opacity:0;stroke:#000000;stroke-width:0.7;stroke-linecap:round;stroke-opacity:1"
       d="m 112.70582,20.301044 c 0.087,0.173948 0.22721,0.330312 0.26103,0.521846 0.17073,0.967101 -0.0237,1.973371 -0.15662,2.922339 -0.044,0.314362 -0.13025,0.62299 -0.15662,0.939323 -0.009,0.105444 -0.0522,0.295719 0.0522,0.313107 0.15704,0.02616 0.68752,-0.965853 0.73087,-1.095877"
       id="path3822" />
    <path
       style="fill:#000000;fill-opacity:0;stroke:#000000;stroke-width:0.7;stroke-linecap:round;stroke-opacity:1"
       d="m 114.16757,22.284059 c -0.087,0.03479 -0.19193,0.04106 -0.26102,0.10437 -0.14625,0.134009 -0.24639,0.310996 -0.36544,0.469662 -0.3075,0.409834 -1.22157,1.339487 -0.83529,1.983016 0.30858,0.514091 1.20442,0.06604 1.61837,-0.05219"
       id="path3824" />
    <path
       style="fill:#000000;fill-opacity:0;stroke:#ff9300;stroke-width:0.7;stroke-linecap:round;stroke-opacity:1"
       d="m 56.824062,30.842336 c 0,-0.08697 0,-0.173948 0,-0.260922 0,-0.643966 -0.206465,-0.03391 0,0.260922 0.06218,0.0888 0.214386,0.414697 0.417645,0.31311 0.265025,-0.132458 -0.08437,-0.793485 -0.36544,-0.88714 -0.195784,-0.06523 -0.254781,0.242787 -0.208823,0.365292 0.03055,0.08144 0.104413,0.13916 0.156618,0.208738 z"
       id="path3964" />
    <path
       style="fill:#000000;fill-opacity:0;stroke:#ff9300;stroke-width:0.7;stroke-linecap:round;stroke-opacity:1"
       d="m 57.085089,30.529231 c 0.977487,0.266252 -0.54719,0.24493 -0.46985,0.104367 0.188463,-0.342521 0.420632,-0.659138 0.626468,-0.99151 1.473194,-2.378813 1.140817,-1.831163 2.349259,-3.913843 0.03579,-0.06168 0.574262,-1.195526 0.574262,-0.991509"
       id="path3966" />
    <path
       style="fill:#000000;fill-opacity:0;stroke:#ff9300;stroke-width:0.7;stroke-linecap:round;stroke-opacity:1"
       d="m 58.703469,24.006153 c 0.19142,0.01739 0.393615,0.117847 0.574262,0.05218 0.23241,-0.08448 0.384881,-0.310646 0.574262,-0.469662 0.245697,-0.2063 0.477605,-0.4293 0.730882,-0.626215 0.06143,-0.04776 0.181489,-0.177228 0.208823,-0.104369 0.121682,0.324354 -0.449604,1.823885 -0.522058,2.243939 -0.07189,0.416791 -0.113342,0.948245 0.104413,0.730583"
       id="path3968" />
    <path
       style="fill:#000000;fill-opacity:0;stroke:#ff9300;stroke-width:0.7;stroke-linecap:round;stroke-opacity:1"
       d="m 61.052728,20.040121 c 0.05221,0.121764 0.09316,0.248997 0.156617,0.365293 1.05241,1.928641 0.01622,-0.161241 0.73088,1.3568 0.04971,0.105583 0.09475,0.214159 0.156617,0.313108 0.02609,0.04172 0.10441,0.153578 0.10441,0.104368 0,-0.110019 -0.07104,-0.208271 -0.10441,-0.313107 -0.239659,-0.752906 -1.073644,-2.851494 -0.783087,-3.548555 0.2789,-0.66909 1.108205,0.653283 1.200732,0.78277 0.08702,0.12178 0.291158,0.390866 0.36544,0.260923 0.175993,-0.307861 0.07081,-1.558963 0.05221,-1.930831 -0.0052,-0.104239 0,-0.208738 0,-0.313107 0,-0.01739 -0.0065,-0.06833 0,-0.05218 0.12877,0.321795 0.191492,0.666989 0.313235,0.991507 0.100015,0.266594 0.776102,1.73207 1.148527,1.200248 0.122677,-0.17518 0.166304,-0.465895 0.208825,-0.678401"
       id="path3970" />
    <path
       style="fill:#000000;fill-opacity:0;stroke:#ff9300;stroke-width:0.7;stroke-linecap:round;stroke-opacity:1"
       d="m 65.75617,15.84207 c 0.08701,-0.104369 0.210545,-0.186951 0.261027,-0.313106 0.25032,-0.625541 -0.283847,-1.508895 -0.783084,-1.826462 -0.312695,-0.198906 -0.749607,0.05124 -0.835292,0.365292 -0.213924,0.784071 0.287676,2.069201 0.730879,2.7136 0.100759,0.146497 0.493041,0.553334 0.730883,0.417478 0.585681,-0.334544 -0.117208,-2.258351 -0.26103,-2.713601 -0.03314,-0.104909 -0.06577,-0.210099 -0.104413,-0.313109 -0.01365,-0.03642 -0.07972,-0.131869 -0.05221,-0.104368 0.167354,0.16729 0.266123,0.392279 0.417648,0.574032 0.268996,0.322666 0.971184,1.111605 1.357349,1.304613 0.01556,0.0078 0.0024,-0.03496 0,-0.05218 -0.05217,-0.365024 -0.0481,-0.298745 -0.156617,-0.678401"
       id="path3972" />
    <path
       style="fill:#000000;fill-opacity:0;stroke:#ff9300;stroke-width:0.7;stroke-linecap:round;stroke-opacity:1"
       d="m 66.330432,13.702502 c 0.551741,0.82727 -0.295359,-0.40819 0.783088,0.939324 0.171878,0.214762 0.317224,0.449552 0.469852,0.678398 0.09106,0.13654 0.169963,0.280937 0.261027,0.417477 0.01365,0.02047 0.05897,0.07585 0.05221,0.05219 -0.30108,-1.053356 -0.925039,-1.999138 -1.148527,-3.078892 -0.03526,-0.170338 -0.134652,-0.411722 0,-0.521846 0.148786,-0.121686 0.391094,-0.0061 0.574262,0.05218 0.709496,0.225657 1.565074,1.068504 2.036024,1.617725 0.08846,0.103159 0.280265,0.392754 0.313235,0.260924 0.03376,-0.135002 0,-0.278319 0,-0.417478"
       id="path3974" />
    <path
       style="fill:#000000;fill-opacity:0;stroke:#ff9300;stroke-width:0.7;stroke-linecap:round;stroke-opacity:1"
       d="m 67.896607,9.8930226 c 0.08701,0 0.195985,-0.057793 0.261027,0 0.987028,0.8770054 1.24773,2.2552584 2.088232,3.2354474 0.07164,0.08354 0.241594,0.187917 0.313232,0.104371 0.338384,-0.394621 0.574263,-1.973521 0.574263,-2.504863 0,-0.04921 -0.06961,-0.06958 -0.10441,-0.104369"
       id="path3976" />
    <path
       style="fill:#000000;fill-opacity:0;stroke:#ff9300;stroke-width:0.7;stroke-linecap:round;stroke-opacity:1"
       d="m 68.679691,12.658809 c 0.25494,-0.473268 0.510284,-1.01553 0.887498,-1.408985 0.197493,-0.205993 0.45245,-0.347897 0.678677,-0.521846"
       id="path3978" />
    <path
       style="fill:#000000;fill-opacity:0;stroke:#ff9300;stroke-width:0.7;stroke-linecap:round;stroke-opacity:1"
       d="m 71.289978,10.519241 c 0.317915,-0.211859 0.407136,-0.262953 0.730882,-0.5218466 0.04331,-0.034633 0.479674,-0.3665009 0.522058,-0.5218462 0.258651,-0.9480113 -1.493986,-1.5221638 -1.670585,-0.5218464 -0.107648,0.6097629 1.183164,2.8184642 1.566172,1.6699072 0.114742,-0.344086 0.03546,-0.7628957 -0.05221,-1.0958781 -0.0205,-0.077928 -0.273089,-0.6944225 -0.26103,-0.7305836 0.02336,-0.070025 0.113192,0.096865 0.156618,0.1565545 0.09656,0.1327126 0.177792,0.2760302 0.26103,0.4174778 0.06955,0.1181899 0.50674,0.9628624 0.678674,0.9915064 0.19326,0.0322 0.196856,-0.305479 0.208823,-0.3652916"
       id="path3980" />
    <path
       style="fill:#000000;fill-opacity:0;stroke:#ff9300;stroke-width:0.7;stroke-linecap:round;stroke-opacity:1"
       d="m 73.48262,8.7971473 c 0.156617,0.1043696 0.305313,0.2217356 0.469852,0.3131089 0.251809,0.1398376 0.525441,0.2365222 0.783087,0.365292 0.0348,0.017394 0.136787,0.073759 0.10441,0.052183 C 74.651181,9.4019244 74.46669,9.2676733 74.265707,9.162439 74.010538,9.0288323 73.696752,8.9897875 73.48262,8.7971473 73.326354,8.6565636 73.301653,8.4174691 73.221592,8.223115 73.179688,8.121389 73.097492,8.0182518 73.11718,7.9100089 73.160614,7.6712198 74.433252,6.9494484 74.683352,6.7619477"
       id="path3982" />
    <path
       style="fill:#000000;fill-opacity:0;stroke:#ff9300;stroke-width:0.7;stroke-linecap:round;stroke-opacity:1"
       d="m 65.224149,23.168742 c 0.08701,0.03479 0.168597,0.119768 0.26103,0.104369 0.05394,-0.009 0.118625,-0.269496 -0.104416,-0.626215 -0.188174,-0.300959 -0.649385,-0.593607 -0.991907,-0.626215 -0.16434,-0.01564 -0.336708,0.05896 -0.469852,0.156555 -0.347268,0.25456 -0.383585,0.545513 -0.313232,0.939322 0.05715,0.319908 0.111934,0.65057 0.261027,0.939322 0.176308,0.341457 1.222002,1.491457 1.566175,0.574031 0.1842,-0.491009 -0.08623,-1.011836 -0.208825,-1.461169 -0.07108,-0.260525 -0.1069,-0.532694 -0.208823,-0.782769 -0.166843,-0.409358 -0.852506,-1.31016 -1.044117,-1.565538 -0.185902,-0.247767 -0.394171,-0.478562 -0.574262,-0.730585 -0.08154,-0.114115 -0.349078,-0.365292 -0.208823,-0.365292 0.172236,0 0.253643,0.234272 0.365443,0.365292 0.417327,0.489084 1.480714,2.093698 2.244844,2.348307"
       id="path3984" />
    <path
       style="fill:#000000;fill-opacity:0;stroke:#ff9300;stroke-width:0.7;stroke-linecap:round;stroke-opacity:1"
       d="m 67.677818,22.020681 c 0.519951,-0.02184 0.537892,-0.446417 0.417647,-0.887138 -0.05953,-0.218173 -0.152704,-0.427702 -0.261027,-0.626217 -0.101722,-0.186412 -0.22633,-0.361395 -0.365443,-0.521845 -0.301355,-0.347575 -0.569097,-0.415916 -0.678675,0.104369 -0.167198,0.793859 0.05437,1.80431 0.730883,2.296123 0.213394,0.155132 0.257995,0.233704 0.469852,0.05218 0.560366,-0.480122 0.05195,-2.759581 -1.252939,-2.452676 -0.12214,0.02873 -0.245367,0.103207 -0.313235,0.208738 -0.510503,0.793792 0.335359,2.092526 1.252937,2.035201 0.132265,-0.0083 0.243628,-0.10437 0.365442,-0.156555"
       id="path3986" />
    <path
       style="fill:#000000;fill-opacity:0;stroke:#ff9300;stroke-width:0.7;stroke-linecap:round;stroke-opacity:1"
       d="m 67.468995,17.898096 c -0.05221,-0.156554 -0.10441,-0.313108 -0.156615,-0.469662 -0.01741,-0.03479 -0.07972,-0.131869 -0.05221,-0.104369 0.868595,0.868246 1.433086,1.949499 2.088229,2.974524 0.114366,0.178934 0.244531,0.347268 0.365443,0.521846 0.03571,0.05157 0.128542,0.21445 0.104409,0.156553 -0.110791,-0.26579 -0.276571,-0.508868 -0.365439,-0.782769 -0.215906,-0.665441 -0.456687,-1.670815 -0.36544,-2.400492 0.01381,-0.110538 0.188285,0.151434 0.208822,0.260924 0.03528,0.188063 0.0159,0.383348 0,0.57403 -0.05394,0.646972 -0.234066,1.272808 -0.156617,1.930831 0.01505,0.127959 0.140941,0.32355 0.313235,0.260923 0.667287,-0.24255 1.375777,-1.448897 1.513967,-2.139569 0.09551,-0.477379 -0.122391,-0.999225 -0.26103,-1.46117 -0.02236,-0.07451 -0.10441,-0.286537 -0.10441,-0.208738 0,0.142853 0.106913,0.670981 0.156615,0.782769 0.115749,0.260329 0.630978,1.167209 1.096322,0.834954 0.375126,-0.267841 -0.158782,-1.195437 -0.261028,-1.46117 -0.02577,-0.06694 -0.02952,-0.140699 -0.05221,-0.208738 -0.0123,-0.0369 -0.07972,-0.07687 -0.05221,-0.10437 0.04718,-0.04716 0.54541,0.646671 0.574265,0.678401 0.189987,0.2089 0.730882,0.66184 0.730882,0.05218 0,-0.43522 -0.04012,-0.869564 -0.0522,-1.304616 -0.0063,-0.226046 0,-0.452266 0,-0.678399"
       id="path3988" />
    <path
       style="fill:#000000;fill-opacity:0;stroke:#000000;stroke-width:0.7;stroke-linecap:round;stroke-opacity:1"
       d="m 54.935082,15.080912 0.05221,34.650586"
       id="path3990" />
    <path
       style="fill:#000000;fill-opacity:0;stroke:#000000;stroke-width:0.7;stroke-linecap:round;stroke-opacity:1"
       d="m 56.657871,15.080912 0.05221,34.650586"
       id="path3992" />
    <path
       style="fill:#000000;fill-opacity:0;stroke:#000000;stroke-width:0.7;stroke-linecap:round;stroke-opacity:1"
       d="M 57.075519,31.310331 68.299755,26.613712"
       id="path3994" />
    <path
       style="fill:#000000;fill-opacity:0;stroke:#000000;stroke-width:0.7;stroke-linecap:round;stroke-opacity:1"
       d="M 57.075519,33.136793 68.299755,28.440174"
       id="path3996" />
    <path
       style="fill:#000000;fill-opacity:0;stroke:#000000;stroke-width:0.7;stroke-linecap:round;stroke-opacity:1"
       d="M 68.458836,26.457159 C 75.791567,25.350873 77.025753,14.142096 86.26099,11.427989 90.070258,19.78022 81.192894,32.847175 68.563245,28.440175"
       id="path3998"
       sodipodi:nodetypes="ccc" />
    <path
       style="fill:#000000;fill-opacity:0;stroke:#000000;stroke-width:0.7;stroke-linecap:round;stroke-opacity:1"
       d="m 85.58232,21.656175 c 1.711243,0.549493 3.541164,0.626215 5.324985,0.626215"
       id="path4000" />
    <path
       style="fill:#000000;fill-opacity:0;stroke:#000000;stroke-width:0.7;stroke-linecap:round;stroke-opacity:1"
       d="m 90.594068,20.769035 c -1.600526,0.274574 1.060733,1.125637 1.409559,1.252432 0.19071,0.06932 0.6872,0.195195 0.522058,0.313107 -0.120999,0.08639 -0.270838,0.133075 -0.417648,0.156555 -0.292624,0.0468 -0.59178,0.03291 -0.887494,0.05218 -0.504783,0.03291 -1.009314,0.06958 -1.51397,0.104369"
       id="path4002" />
    <path
       style="fill:#000000;fill-opacity:0;stroke:#000000;stroke-width:0.7;stroke-linecap:round;stroke-opacity:1"
       d="m 94.354847,22.073651 c 0.307914,-1.077279 -0.133299,0.325881 0.31323,-0.678399 0.07924,-0.178225 0.194863,-0.650489 0.313235,-0.88714 0.0078,-0.01556 0.0029,0.03503 0,0.05219 -0.03198,0.191835 -0.08211,0.38083 -0.10441,0.57403 -0.07495,0.64928 -0.08792,1.734178 0.835287,1.826461 0.905113,0.09048 1.063384,-1.14594 1.096322,-1.722092 0.02384,-0.417158 -0.0522,-0.834591 -0.0522,-1.25243 0,-0.03479 0,-0.13916 0,-0.10437 0,0.863212 0.0432,1.750941 -0.05221,2.609232 -0.09544,0.858607 -0.367562,2.023014 -0.574265,2.870153 -0.0587,0.240576 -0.232238,1.067103 -0.469847,1.304617 -0.06154,0.06151 -0.184412,0.04124 -0.26103,0 -0.473133,-0.254661 -1.00653,-0.961252 -1.305142,-1.408985 -0.04317,-0.06472 -0.144454,-0.142033 -0.104415,-0.208739 0.02633,-0.04388 0.610169,-0.08102 0.730882,-0.10437 1.403819,-0.271597 2.760375,-0.742695 4.072044,-1.304615"
       id="path4004" />
    <path
       style="fill:#000000;fill-opacity:0;stroke:#000000;stroke-width:0.7;stroke-linecap:round;stroke-opacity:1"
       d="m 99.366593,25.152543 c 0.06961,0.226134 0.07026,0.486617 0.208827,0.678401 0.104916,0.14521 0.290859,0.268379 0.46985,0.260924 0.73316,-0.03054 1.14645,-0.620005 1.35735,-1.252432 0.28949,-0.868118 -0.66963,-2.414296 -1.61838,-1.513353 -0.564825,0.536367 -0.462068,1.115967 -0.417647,1.82646 0.01214,0.194105 0.01381,0.401945 0.104412,0.574031 0.434123,0.824501 1.286585,0.567073 1.618375,-0.156553 0.0948,-0.206791 0.31548,-0.979968 0.36545,-1.304616 0.0106,-0.06877 -0.0311,-0.146509 0,-0.208739 0.0174,-0.03479 0.0492,0.06559 0.0522,0.104371 0.0147,0.190779 0.008,0.382853 0,0.57403 -0.002,0.03874 -0.20484,1.926879 0.10441,1.617722"
       id="path4006" />
    <path
       style="fill:#000000;fill-opacity:0;stroke:#000000;stroke-width:0.7;stroke-linecap:round;stroke-opacity:1"
       d="m 103.44021,23.693045 c 0.0522,0.330503 0.14964,0.65698 0.15661,0.991507 0.0285,1.364991 -0.21069,1.914658 -0.46984,3.287632 -0.0621,0.328795 -0.10928,0.660273 -0.15662,0.991507 -0.005,0.03444 -0.011,0.137372 0,0.10437 0.0281,-0.08414 0.0348,-0.17395 0.0522,-0.260924"
       id="path4008" />
    <path
       style="fill:#000000;fill-opacity:0;stroke:#000000;stroke-width:0.7;stroke-linecap:round;stroke-opacity:1"
       d="m 103.07477,24.684552 c 0.17402,-0.139159 0.31341,-0.339268 0.52205,-0.417476 0.37908,-0.142096 1.99888,-0.452737 2.40147,0 0.0589,0.06628 0.0105,0.198216 -0.0522,0.260923 -0.56398,0.563748 -1.62006,0.908684 -2.34927,1.200246"
       id="path4010" />
    <path
       style="fill:#000000;fill-opacity:0;stroke:#000000;stroke-width:0.7;stroke-linecap:round;stroke-opacity:1"
       d="m 106.49333,24.31926 c 0.3925,0.457726 0.31324,0.204892 0.31324,0.730584 0,0.104369 0,0.208739 0,0.313109 0,0.03479 0,0.139158 0,0.104369 0,-0.273826 -0.15951,-2.259306 0.20882,-2.296123 0.33664,-0.03365 0.72147,0.12811 1.04411,0.208737"
       id="path4012" />
    <path
       style="fill:#000000;fill-opacity:0;stroke:#000000;stroke-width:0.7;stroke-linecap:round;stroke-opacity:1"
       d="m 109.78229,23.640859 c 0.16242,0.405623 1.427,1.356536 1.56618,0.521847 0.0683,-0.409812 -0.0619,-0.602189 -0.36544,-0.939323 -0.16547,-0.183774 -0.34186,-0.385183 -0.57427,-0.469662 -0.64469,-0.234339 -1.54505,0.618584 -1.8272,1.095877 -0.10093,0.170736 -0.1347,0.376907 -0.15662,0.574031 -0.0918,0.825948 1.0284,0.802442 1.51397,0.57403 0.17248,-0.08113 0.5364,-0.491158 0.62647,-0.626215 0.21684,-0.325129 0.24518,-0.419368 0.20882,-0.782769 -0.009,-0.08655 -0.0951,-0.270235 -0.15661,-0.208739 -0.30284,0.302714 0.0581,1.962489 0.46985,1.930831 0.18662,-0.01435 0.38332,-0.226611 0.52206,-0.365292"
       id="path4014" />
    <path
       style="fill:#000000;fill-opacity:0;stroke:#000000;stroke-width:0.7;stroke-linecap:round;stroke-opacity:1"
       d="m 112.70582,20.301044 c 0.087,0.173948 0.22721,0.330312 0.26103,0.521846 0.17073,0.967101 -0.0237,1.973371 -0.15662,2.922339 -0.044,0.314362 -0.13025,0.62299 -0.15662,0.939323 -0.009,0.105444 -0.0522,0.295719 0.0522,0.313107 0.15704,0.02616 0.68752,-0.965853 0.73087,-1.095877"
       id="path4016" />
    <path
       style="fill:#000000;fill-opacity:0;stroke:#000000;stroke-width:0.7;stroke-linecap:round;stroke-opacity:1"
       d="m 114.16757,22.284059 c -0.087,0.03479 -0.19193,0.04106 -0.26102,0.10437 -0.14625,0.134009 -0.24639,0.310996 -0.36544,0.469662 -0.3075,0.409834 -1.22157,1.339487 -0.83529,1.983016 0.30858,0.514091 1.20442,0.06604 1.61837,-0.05219"
       id="path4018" />
    <path
       style="fill:#000000;fill-opacity:0;stroke:#ff9300;stroke-width:0.7;stroke-linecap:round;stroke-opacity:1"
       d="m 56.824062,30.842336 c 0,-0.08697 0,-0.173948 0,-0.260922 0,-0.643966 -0.206465,-0.03391 0,0.260922 0.06218,0.0888 0.214386,0.414697 0.417645,0.31311 0.265025,-0.132458 -0.08437,-0.793485 -0.36544,-0.88714 -0.195784,-0.06523 -0.254781,0.242787 -0.208823,0.365292 0.03055,0.08144 0.104413,0.13916 0.156618,0.208738 z"
       id="path4020" />
    <path
       style="fill:#000000;fill-opacity:0;stroke:#ff9300;stroke-width:0.7;stroke-linecap:round;stroke-opacity:1"
       d="m 57.085089,30.529231 c 0.977487,0.266252 -0.54719,0.24493 -0.46985,0.104367 0.188463,-0.342521 0.420632,-0.659138 0.626468,-0.99151 1.473194,-2.378813 1.140817,-1.831163 2.349259,-3.913843 0.03579,-0.06168 0.574262,-1.195526 0.574262,-0.991509"
       id="path4022" />
    <path
       style="fill:#000000;fill-opacity:0;stroke:#ff9300;stroke-width:0.7;stroke-linecap:round;stroke-opacity:1"
       d="m 58.703469,24.006153 c 0.19142,0.01739 0.393615,0.117847 0.574262,0.05218 0.23241,-0.08448 0.384881,-0.310646 0.574262,-0.469662 0.245697,-0.2063 0.477605,-0.4293 0.730882,-0.626215 0.06143,-0.04776 0.181489,-0.177228 0.208823,-0.104369 0.121682,0.324354 -0.449604,1.823885 -0.522058,2.243939 -0.07189,0.416791 -0.113342,0.948245 0.104413,0.730583"
       id="path4024" />
    <path
       style="fill:#000000;fill-opacity:0;stroke:#ff9300;stroke-width:0.7;stroke-linecap:round;stroke-opacity:1"
       d="m 61.052728,20.040121 c 0.05221,0.121764 0.09316,0.248997 0.156617,0.365293 1.05241,1.928641 0.01622,-0.161241 0.73088,1.3568 0.04971,0.105583 0.09475,0.214159 0.156617,0.313108 0.02609,0.04172 0.10441,0.153578 0.10441,0.104368 0,-0.110019 -0.07104,-0.208271 -0.10441,-0.313107 -0.239659,-0.752906 -1.073644,-2.851494 -0.783087,-3.548555 0.2789,-0.66909 1.108205,0.653283 1.200732,0.78277 0.08702,0.12178 0.291158,0.390866 0.36544,0.260923 0.175993,-0.307861 0.07081,-1.558963 0.05221,-1.930831 -0.0052,-0.104239 0,-0.208738 0,-0.313107 0,-0.01739 -0.0065,-0.06833 0,-0.05218 0.12877,0.321795 0.191492,0.666989 0.313235,0.991507 0.100015,0.266594 0.776102,1.73207 1.148527,1.200248 0.122677,-0.17518 0.166304,-0.465895 0.208825,-0.678401"
       id="path4026" />
    <path
       style="fill:#000000;fill-opacity:0;stroke:#ff9300;stroke-width:0.7;stroke-linecap:round;stroke-opacity:1"
       d="m 65.75617,15.84207 c 0.08701,-0.104369 0.210545,-0.186951 0.261027,-0.313106 0.25032,-0.625541 -0.283847,-1.508895 -0.783084,-1.826462 -0.312695,-0.198906 -0.749607,0.05124 -0.835292,0.365292 -0.213924,0.784071 0.287676,2.069201 0.730879,2.7136 0.100759,0.146497 0.493041,0.553334 0.730883,0.417478 0.585681,-0.334544 -0.117208,-2.258351 -0.26103,-2.713601 -0.03314,-0.104909 -0.06577,-0.210099 -0.104413,-0.313109 -0.01365,-0.03642 -0.07972,-0.131869 -0.05221,-0.104368 0.167354,0.16729 0.266123,0.392279 0.417648,0.574032 0.268996,0.322666 0.971184,1.111605 1.357349,1.304613 0.01556,0.0078 0.0024,-0.03496 0,-0.05218 -0.05217,-0.365024 -0.0481,-0.298745 -0.156617,-0.678401"
       id="path4028" />
    <path
       style="fill:#000000;fill-opacity:0;stroke:#ff9300;stroke-width:0.7;stroke-linecap:round;stroke-opacity:1"
       d="m 66.330432,13.702502 c 0.551741,0.82727 -0.295359,-0.40819 0.783088,0.939324 0.171878,0.214762 0.317224,0.449552 0.469852,0.678398 0.09106,0.13654 0.169963,0.280937 0.261027,0.417477 0.01365,0.02047 0.05897,0.07585 0.05221,0.05219 -0.30108,-1.053356 -0.925039,-1.999138 -1.148527,-3.078892 -0.03526,-0.170338 -0.134652,-0.411722 0,-0.521846 0.148786,-0.121686 0.391094,-0.0061 0.574262,0.05218 0.709496,0.225657 1.565074,1.068504 2.036024,1.617725 0.08846,0.103159 0.280265,0.392754 0.313235,0.260924 0.03376,-0.135002 0,-0.278319 0,-0.417478"
       id="path4030" />
    <path
       style="fill:#000000;fill-opacity:0;stroke:#ff9300;stroke-width:0.7;stroke-linecap:round;stroke-opacity:1"
       d="m 67.896607,9.8930226 c 0.08701,0 0.195985,-0.057793 0.261027,0 0.987028,0.8770054 1.24773,2.2552584 2.088232,3.2354474 0.07164,0.08354 0.241594,0.187917 0.313232,0.104371 0.338384,-0.394621 0.574263,-1.973521 0.574263,-2.504863 0,-0.04921 -0.06961,-0.06958 -0.10441,-0.104369"
       id="path4032" />
    <path
       style="fill:#000000;fill-opacity:0;stroke:#ff9300;stroke-width:0.7;stroke-linecap:round;stroke-opacity:1"
       d="m 68.679691,12.658809 c 0.25494,-0.473268 0.510284,-1.01553 0.887498,-1.408985 0.197493,-0.205993 0.45245,-0.347897 0.678677,-0.521846"
       id="path4034" />
    <path
       style="fill:#000000;fill-opacity:0;stroke:#ff9300;stroke-width:0.7;stroke-linecap:round;stroke-opacity:1"
       d="m 71.289978,10.519241 c 0.317915,-0.211859 0.407136,-0.262953 0.730882,-0.5218466 0.04331,-0.034633 0.479674,-0.3665009 0.522058,-0.5218462 0.258651,-0.9480113 -1.493986,-1.5221638 -1.670585,-0.5218464 -0.107648,0.6097629 1.183164,2.8184642 1.566172,1.6699072 0.114742,-0.344086 0.03546,-0.7628957 -0.05221,-1.0958781 -0.0205,-0.077928 -0.273089,-0.6944225 -0.26103,-0.7305836 0.02336,-0.070025 0.113192,0.096865 0.156618,0.1565545 0.09656,0.1327126 0.177792,0.2760302 0.26103,0.4174778 0.06955,0.1181899 0.50674,0.9628624 0.678674,0.9915064 0.19326,0.0322 0.196856,-0.305479 0.208823,-0.3652916"
       id="path4036" />
    <path
       style="fill:#000000;fill-opacity:0;stroke:#ff9300;stroke-width:0.7;stroke-linecap:round;stroke-opacity:1"
       d="m 73.48262,8.7971473 c 0.156617,0.1043696 0.305313,0.2217356 0.469852,0.3131089 0.251809,0.1398376 0.525441,0.2365222 0.783087,0.365292 0.0348,0.017394 0.136787,0.073759 0.10441,0.052183 C 74.651181,9.4019244 74.46669,9.2676733 74.265707,9.162439 74.010538,9.0288323 73.696752,8.9897875 73.48262,8.7971473 73.326354,8.6565636 73.301653,8.4174691 73.221592,8.223115 73.179688,8.121389 73.097492,8.0182518 73.11718,7.9100089 73.160614,7.6712198 74.433252,6.9494484 74.683352,6.7619477"
       id="path4038" />
    <path
       style="fill:#000000;fill-opacity:0;stroke:#ff9300;stroke-width:0.7;stroke-linecap:round;stroke-opacity:1"
       d="m 65.224149,23.168742 c 0.08701,0.03479 0.168597,0.119768 0.26103,0.104369 0.05394,-0.009 0.118625,-0.269496 -0.104416,-0.626215 -0.188174,-0.300959 -0.649385,-0.593607 -0.991907,-0.626215 -0.16434,-0.01564 -0.336708,0.05896 -0.469852,0.156555 -0.347268,0.25456 -0.383585,0.545513 -0.313232,0.939322 0.05715,0.319908 0.111934,0.65057 0.261027,0.939322 0.176308,0.341457 1.222002,1.491457 1.566175,0.574031 0.1842,-0.491009 -0.08623,-1.011836 -0.208825,-1.461169 -0.07108,-0.260525 -0.1069,-0.532694 -0.208823,-0.782769 -0.166843,-0.409358 -0.852506,-1.31016 -1.044117,-1.565538 -0.185902,-0.247767 -0.394171,-0.478562 -0.574262,-0.730585 -0.08154,-0.114115 -0.349078,-0.365292 -0.208823,-0.365292 0.172236,0 0.253643,0.234272 0.365443,0.365292 0.417327,0.489084 1.480714,2.093698 2.244844,2.348307"
       id="path4040" />
    <path
       style="fill:#000000;fill-opacity:0;stroke:#ff9300;stroke-width:0.7;stroke-linecap:round;stroke-opacity:1"
       d="m 67.677818,22.020681 c 0.519951,-0.02184 0.537892,-0.446417 0.417647,-0.887138 -0.05953,-0.218173 -0.152704,-0.427702 -0.261027,-0.626217 -0.101722,-0.186412 -0.22633,-0.361395 -0.365443,-0.521845 -0.301355,-0.347575 -0.569097,-0.415916 -0.678675,0.104369 -0.167198,0.793859 0.05437,1.80431 0.730883,2.296123 0.213394,0.155132 0.257995,0.233704 0.469852,0.05218 0.560366,-0.480122 0.05195,-2.759581 -1.252939,-2.452676 -0.12214,0.02873 -0.245367,0.103207 -0.313235,0.208738 -0.510503,0.793792 0.335359,2.092526 1.252937,2.035201 0.132265,-0.0083 0.243628,-0.10437 0.365442,-0.156555"
       id="path4042" />
    <path
       style="fill:#000000;fill-opacity:0;stroke:#ff9300;stroke-width:0.7;stroke-linecap:round;stroke-opacity:1"
       d="m 67.468995,17.898096 c -0.05221,-0.156554 -0.10441,-0.313108 -0.156615,-0.469662 -0.01741,-0.03479 -0.07972,-0.131869 -0.05221,-0.104369 0.868595,0.868246 1.433086,1.949499 2.088229,2.974524 0.114366,0.178934 0.244531,0.347268 0.365443,0.521846 0.03571,0.05157 0.128542,0.21445 0.104409,0.156553 -0.110791,-0.26579 -0.276571,-0.508868 -0.365439,-0.782769 -0.215906,-0.665441 -0.456687,-1.670815 -0.36544,-2.400492 0.01381,-0.110538 0.188285,0.151434 0.208822,0.260924 0.03528,0.188063 0.0159,0.383348 0,0.57403 -0.05394,0.646972 -0.234066,1.272808 -0.156617,1.930831 0.01505,0.127959 0.140941,0.32355 0.313235,0.260923 0.667287,-0.24255 1.375777,-1.448897 1.513967,-2.139569 0.09551,-0.477379 -0.122391,-0.999225 -0.26103,-1.46117 -0.02236,-0.07451 -0.10441,-0.286537 -0.10441,-0.208738 0,0.142853 0.106913,0.670981 0.156615,0.782769 0.115749,0.260329 0.630978,1.167209 1.096322,0.834954 0.375126,-0.267841 -0.158782,-1.195437 -0.261028,-1.46117 -0.02577,-0.06694 -0.02952,-0.140699 -0.05221,-0.208738 -0.0123,-0.0369 -0.07972,-0.07687 -0.05221,-0.10437 0.04718,-0.04716 0.54541,0.646671 0.574265,0.678401 0.189987,0.2089 0.730882,0.66184 0.730882,0.05218 0,-0.43522 -0.04012,-0.869564 -0.0522,-1.304616 -0.0063,-0.226046 0,-0.452266 0,-0.678399"
       id="path4044" />
  </g>
</svg>
