<?xml version="1.0" encoding="UTF-8" standalone="no"?>
<!-- Created with Inkscape (http://www.inkscape.org/) -->

<svg
   width="100.08247mm"
   height="40.155926mm"
   viewBox="0 0 100.08247 40.155926"
   version="1.1"
   id="svg39813"
   inkscape:version="1.1.2 (0a00cf5339, 2022-02-04)"
   sodipodi:docname="yaş-halkaları.svg"
   xmlns:inkscape="http://www.inkscape.org/namespaces/inkscape"
   xmlns:sodipodi="http://sodipodi.sourceforge.net/DTD/sodipodi-0.dtd"
   xmlns="http://www.w3.org/2000/svg"
   xmlns:svg="http://www.w3.org/2000/svg">
  <sodipodi:namedview
     id="namedview39815"
     pagecolor="#ffffff"
     bordercolor="#999999"
     borderopacity="1"
     inkscape:pageshadow="0"
     inkscape:pageopacity="0"
     inkscape:pagecheckerboard="0"
     inkscape:document-units="mm"
     showgrid="true"
     inkscape:zoom="1.3604421"
     inkscape:cx="145.90845"
     inkscape:cy="10.6583"
     inkscape:window-width="1916"
     inkscape:window-height="1033"
     inkscape:window-x="0"
     inkscape:window-y="45"
     inkscape:window-maximized="1"
     inkscape:current-layer="layer1">
    <inkscape:grid
       type="xygrid"
       id="grid39874"
       originx="-44.376729"
       originy="6.1033423" />
  </sodipodi:namedview>
  <defs
     id="defs39810" />
  <g
     inkscape:label="Layer 1"
     inkscape:groupmode="layer"
     id="layer1"
     transform="translate(-44.37673,6.1033424)">
    <rect
       style="fill:#000000;fill-opacity:0;stroke:#000000;stroke-width:0.7;stroke-linecap:round;stroke-linejoin:round"
       id="rect39898"
       width="4.8174491"
       height="4.8174491"
       x="44.72673"
       y="5.1924968"
       ry="1.7781825" />
    <rect
       style="fill:#000000;fill-opacity:0;stroke:#000000;stroke-width:0.7;stroke-linecap:round;stroke-linejoin:round"
       id="rect39900"
       width="4.8174491"
       height="4.8174491"
       x="49.493778"
       y="5.1924968"
       ry="1.7781825" />
    <rect
       style="fill:#000000;fill-opacity:0;stroke:#000000;stroke-width:0.7;stroke-linecap:round;stroke-linejoin:round"
       id="rect40282"
       width="4.8174491"
       height="4.8174491"
       x="54.260761"
       y="5.1924968"
       ry="1.7781825" />
    <rect
       style="fill:#000000;fill-opacity:0;stroke:#000000;stroke-width:0.7;stroke-linecap:round;stroke-linejoin:round"
       id="rect40284"
       width="4.8174491"
       height="4.8174491"
       x="59.027809"
       y="5.1924968"
       ry="1.7781825" />
    <path
       style="fill:#000000;fill-opacity:0;stroke:#000000;stroke-width:0.7;stroke-linecap:round;stroke-linejoin:round"
       d="m 66.725881,8.4686668 c 0.347731,-0.6082787 0.215077,-0.2753521 0.377658,-1.0066713 0.04196,-0.18875 0.09853,-0.3748373 0.125881,-0.5662504 0.02077,-0.1453293 0.04644,-0.5796843 0,-0.4404175 -0.115863,0.3474636 -0.159813,0.7150444 -0.251769,1.0695861 -0.182753,0.7046251 -0.400548,1.3898978 -0.629423,2.0762579 -0.01524,0.045735 -0.133659,0.3106922 0,0.3774987 0.125855,0.062904 0.136557,-0.2468724 0.188831,-0.3774987"
       id="path40547" />
    <path
       style="fill:#000000;fill-opacity:0;stroke:#000000;stroke-width:0.7;stroke-linecap:round;stroke-linejoin:round"
       d="M 67.292362,5.1969902 67.67002,5.3857416"
       id="path40549" />
    <path
       style="fill:#000000;fill-opacity:0;stroke:#000000;stroke-width:0.7;stroke-linecap:round;stroke-linejoin:round"
       d="m 68.047673,7.8394982 c 0.125884,-0.2936115 0.265441,-0.5817301 0.377651,-0.8808346 0.139776,-0.3725823 0.269877,-0.7494408 0.377658,-1.1325045 0.0966,-0.3433226 0.207238,-0.9206426 0.25177,-1.3212541 0.0046,-0.041688 0.02967,-0.1554853 0,-0.1258331 -0.04691,0.046887 -0.04904,0.1239001 -0.06294,0.1887495 -0.04915,0.2292712 -0.07084,0.4641564 -0.125883,0.6920851 -0.09197,0.380859 -0.196247,0.7590354 -0.314712,1.1325027 -0.154424,0.4868267 -0.406019,0.9457547 -0.503539,1.447089 -0.03806,0.1956467 0.06294,1.2006445 0.06294,1.5100036 0,0.020971 0,-0.041943 0,-0.062915 0,-0.133627 0.09932,-0.225117 0.188831,-0.3145843"
       id="path40551" />
    <path
       style="fill:#000000;fill-opacity:0;stroke:#000000;stroke-width:0.7;stroke-linecap:round;stroke-linejoin:round"
       d="m 69.998885,8.3428339 c 0.13022,-0.7054117 0.143103,-1.4331294 0.25177,-2.1391721 0.08134,-0.5284764 0.216135,-1.0473883 0.314711,-1.572922 0.02967,-0.1581999 0.170749,-0.5930304 0.06294,-0.3775027 -0.184335,0.3685204 -0.222022,0.7939302 -0.314711,1.1954211 -0.202642,0.8777599 -0.379479,1.7612815 -0.566481,2.6425059 -0.351766,1.6576389 -0.08157,0.3633877 -0.25177,1.3841706 -0.01759,0.1054835 -0.01511,0.2189419 -0.06294,0.3145843 -0.02098,0.041955 -0.125884,0.1098288 -0.125884,0.062918 0,-0.075626 0.08049,-0.1282594 0.125884,-0.1887514 0.143531,-0.1912979 0.293732,-0.3775003 0.440597,-0.5662504"
       id="path40553" />
    <path
       style="fill:#000000;fill-opacity:0;stroke:#000000;stroke-width:0.7;stroke-linecap:round;stroke-linejoin:round"
       d="m 71.446558,7.3361623 c -0.555606,0.3967025 -0.415718,0.2603728 -0.944133,0.8179202 -0.214509,0.2263328 -0.450551,0.4366578 -0.629423,0.6920873 -1.102627,1.5745462 1.666108,-0.5912419 1.951209,-0.377503 0.31496,0.2361253 -0.86805,2.1875682 0.314714,1.6358362 0.20564,-0.09593 0.375949,-0.254263 0.566481,-0.3774985 0.384649,-0.248789 0.562888,-0.3073945 0.755306,-0.6920873"
       id="path40555" />
    <path
       style="fill:#000000;fill-opacity:0;stroke:#000000;stroke-width:0.7;stroke-linecap:round;stroke-linejoin:round"
       d="m 74.216021,5.3857416 c 0.114448,-1.4248704 2.65e-4,0.8043587 0,0.8179202 -0.01363,0.5035875 -0.02222,1.007881 -0.06294,1.5100035 -0.0223,0.2749473 -0.08052,0.5458259 -0.125886,0.81792 -0.0176,0.1054835 -0.04536,0.209101 -0.06294,0.3145845 0,2.4e-6 0,0.1258329 0,0.1258329 -0.125833,0 -0.06982,-0.272815 0,-0.3775027 0.364612,-0.5467019 1.769354,-1.7046443 2.265924,-0.6291688 0.07088,0.1535117 0.06294,0.3342505 0.06294,0.5033356 0,0.5528199 -0.240551,1.1829992 -0.881192,1.2583377 -0.465179,0.054704 -0.938162,-0.14742 -1.321789,-0.3775027 -0.120661,-0.072366 -0.318154,-0.3220948 -0.188825,-0.3774991 0.349276,-0.1496287 0.754546,-0.091446 1.132961,-0.1258329 0.20999,-0.019082 0.419616,-0.041946 0.629423,-0.062918"
       id="path40557" />
    <path
       style="fill:#000000;fill-opacity:0;stroke:#000000;stroke-width:0.7;stroke-linecap:round;stroke-linejoin:round"
       d="m 76.985483,8.9720027 c 0.298551,-0.2967622 0.497084,0.2145641 0.755306,0.1887514 0.457886,-0.045771 1.220666,-0.4368221 1.132962,-1.0066716 -0.103838,-0.6746994 -1.164915,-0.5562094 -1.573556,-0.3775027 -0.445799,0.194958 -1.093407,1.4078931 -0.503539,1.7616733 0.607811,0.36454 1.819743,-0.6901584 2.014151,-1.1954192 C 79.015351,7.8112304 78.825888,7.306856 78.684923,7.7765798 78.50819,8.3654772 78.903133,9.37424 79.503174,8.5945 79.720632,8.3119202 79.943768,8.0667854 79.943768,7.7136653"
       id="path40559" />
    <path
       style="fill:#000000;fill-opacity:0;stroke:#000000;stroke-width:0.7;stroke-linecap:round;stroke-linejoin:round"
       d="m 80.006713,4.9453223 c 0.113059,1.2365746 -0.169947,2.4788478 -0.125881,3.7120961 0.0069,0.1932348 -0.06748,0.5662502 0.125881,0.5662502 0.172574,0 1.381688,-2.396934 1.51062,-2.1391721 0.28117,0.5621218 0.07885,1.0839624 0.503539,1.6358364 0.283864,0.3688736 0.951569,-0.2960865 1.195901,-0.377499 0.0199,-0.00663 -0.01484,0.048089 0,0.062915 0.01484,0.014833 0.04225,-0.00345 0.06294,0 0.231381,0.038548 0.461579,0.083892 0.692367,0.1258367 0.409945,0.074504 0.94088,0.3004841 0.755306,-0.5033357 -0.03593,-0.1556364 -0.08136,-0.3222479 -0.188828,-0.4404175 -0.74431,-0.8184134 -2.06299,0.4283393 -2.014151,1.2583377 0.01286,0.2185845 0.09087,0.4333343 0.18882,0.6291649 0.05309,0.1061265 0.154548,0.1836393 0.251775,0.2516698 0.944041,0.6605662 1.881994,-1.0316874 1.69944,-1.7616733 -0.02098,-0.08389 -0.03917,0.1685263 -0.06294,0.2516698 -0.03104,0.1085969 -0.107315,0.2031762 -0.125892,0.3145843 -0.03471,0.2081831 -0.01056,1.0311553 0.440603,0.8808346 0.226917,-0.075606 0.384847,-0.2847964 0.566478,-0.4404172 0.06758,-0.057905 0.135417,-0.1175647 0.188828,-0.1887513 0.01259,-0.016777 -0.01484,-0.077745 0,-0.062918 0.06631,0.066278 0.544161,0.736705 0.503539,0.8179202 -0.104791,0.2095106 -0.382651,-0.3655319 -0.377656,-0.4404175 0.01561,-0.2339609 0.05524,-0.4684987 0.125884,-0.692087 0.09742,-0.3083867 0.457102,-0.8284273 0.629428,-1.0695863 0.37039,-0.5183359 0.612256,-0.36606 1.070017,0"
       id="path40561" />
    <path
       style="fill:#000000;fill-opacity:0;stroke:#000000;stroke-width:0.7;stroke-linecap:round;stroke-linejoin:round"
       d="m 88.818645,8.1540825 c 0.312801,0.007 0.568656,0.3775028 0.881187,0.3775028 0.512233,0 0.291719,-1.5100073 -0.503539,-1.5100073 -0.958155,0 -1.37146,2.4463198 -0.755307,2.8312594 0.310137,0.1937566 0.660628,-0.3093778 0.755307,-0.4404175 0.800846,-1.1084139 0.688334,-2.4720904 1.070025,-3.712094 0.06029,-0.1958787 0.396375,-0.6359496 0.314711,-0.8808366 -0.01484,-0.044503 -0.106833,0.02005 -0.125891,0.062917 -0.201242,0.452618 -0.248264,0.6806692 -0.314712,1.195419 -0.257929,1.9980942 -0.062,0.544653 -0.125883,2.0133392 -0.0026,0.060367 -0.113758,1.0139674 -0.06294,1.1325045 0.105135,0.2452277 0.674066,-0.5479603 0.818251,-0.6920833"
       id="path40563" />
    <path
       style="fill:#000000;fill-opacity:0;stroke:#000000;stroke-width:0.7;stroke-linecap:round;stroke-linejoin:round"
       d="m 91.839872,8.0282496 c 0.203602,0.086833 1.079341,0.9647333 1.1959,0.4404172 C 93.163249,7.8952425 92.374904,7.1867167 91.902811,7.4619955 91.241614,7.8475413 91.074697,8.9184722 91.462216,9.5382531 91.917617,10.2666 92.675719,9.046584 92.909889,8.7832514 93.0384,8.638737 93.171482,8.4975217 93.287547,8.3428339 c 0.08444,-0.1125421 0.329526,-0.3775027 0.188828,-0.3775027 -0.169103,0 -0.163124,0.2964169 -0.251775,0.4404174 -0.294494,0.4783595 -0.357346,0.3399512 -0.440595,0.8808384 -0.157289,1.021984 1.025271,0.4939967 1.321793,0 0.05397,-0.089908 0,-0.2097228 0,-0.3145843"
       id="path40565" />
    <path
       style="fill:#000000;fill-opacity:0;stroke:#000000;stroke-width:0.7;stroke-linecap:round;stroke-linejoin:round"
       d="m 100.0381,8.0282496 c 0.45455,-0.319129 0.15799,-0.6850703 -0.314714,-0.5033359 -0.221861,0.085296 -0.825262,0.5708692 -0.692364,0.8808349 0.194071,0.4526444 0.869923,0.3136469 1.132958,0.6291686 0.23415,0.2808618 -0.0931,0.7257717 -0.314708,0.8808387 -0.651761,0.4560461 -1.815642,0.1306561 -2.454751,-0.1887514 -0.01876,-0.00938 0.04196,0 0.06294,0 0.104902,0 0.209806,0 0.314711,0 0.314711,0 0.629425,0 0.944136,0"
       id="path40567" />
    <path
       style="fill:#000000;fill-opacity:0;stroke:#000000;stroke-width:0.7;stroke-linecap:round;stroke-linejoin:round"
       d="m 101.42283,8.6574184 c -0.2196,-1.0422405 0.0415,-0.3735345 0,0 -0.14792,1.3306761 -0.49249,-0.2593408 -0.18883,1.2583375 0.0184,0.091975 0.0478,0.1996511 0.12589,0.2516661 0.5806,0.386913 1.13296,-1.849651 1.13296,-2.2020908 0,-0.152685 -0.11572,0.2880709 -0.12589,0.4404174 -0.0363,0.5439199 -0.1276,1.5508065 0.37766,1.8875064 0.35407,0.235948 0.81825,-0.6818255 0.81825,-0.9437532"
       id="path40569" />
    <path
       style="fill:#000000;fill-opacity:0;stroke:#000000;stroke-width:0.7;stroke-linecap:round;stroke-linejoin:round"
       d="m 106.77725,8.5315853 c -0.042,-0.146807 -0.0839,-0.293614 -0.12589,-0.4404212 0,-0.020971 -0.021,-0.062914 0,-0.062914 0.66811,0 0.34624,1.5415143 0.56648,1.7616694 0.21622,0.2161325 1.44615,-1.760147 1.6365,-1.9504208 0.0149,-0.014827 0,0.041945 0,0.062918 0,0.3179889 -0.0265,0.1720852 0.0629,0.4404172"
       id="path40571" />
    <path
       style="fill:#000000;fill-opacity:0;stroke:#000000;stroke-width:0.7;stroke-linecap:round;stroke-linejoin:round"
       d="m 109.42083,8.5315853 c 0.49835,0.045285 0.64061,0.1170648 1.07002,0 0.109,-0.029716 0.25202,-0.031844 0.31471,-0.1258367 0.21126,-0.3167713 -0.11462,-1.3421849 -0.56648,-0.7550017 -0.42847,0.5567754 -1.0801,2.2780929 -0.56649,2.8941781 0.10831,0.129911 0.27168,0.260109 0.4406,0.251666 0.72645,-0.03631 2.0494,-1.1343044 2.51769,-1.6358369 0.14519,-0.1554991 0.0632,-0.2511668 0,-0.3775027"
       id="path40573" />
    <path
       style="fill:#000000;fill-opacity:0;stroke:#000000;stroke-width:0.7;stroke-linecap:round;stroke-linejoin:round"
       d="m 116.84802,8.7203329 c 0.42495,0.291733 -0.27371,-0.6291688 -0.0629,-0.6291688 0.15658,0 0.125,1.8079095 0.12588,1.8245918 0.006,0.1067921 0.0454,0.2091011 0.0629,0.3145841 0.003,0.02069 0.0188,0.07229 0,0.06292 -0.51421,-0.257014 0.27956,-1.6416717 0.56648,-1.8875064 0.51238,-0.4390003 0.2544,1.0667 0.8812,0.3775028 0.30772,-0.3383503 0.44677,-0.7013385 0.69237,-1.0695861 0.10614,-0.1591553 0.10806,0.01062 0.12588,0.1887514 0.0443,0.4426516 -0.0531,1.5170642 0.37765,1.8245878 0.4774,0.3408645 1.00708,-1.2154995 1.00708,-1.5100035 0,-0.020974 0.0148,-0.077746 0,-0.062919 -0.19163,0.1915602 -0.033,1.7699122 0.25177,1.6987549 0.3569,-0.089184 0.7553,-1.3412306 0.7553,-1.6987549 0,-0.020974 -0.003,0.042108 0,0.062919 0.0184,0.1471514 0.0531,0.2924484 0.063,0.4404174 0.009,0.1367648 -0.0109,1.6987546 0.0629,1.6987546 0.0419,0 -0.0121,-0.08566 0,-0.125833 0.0515,-0.171633 0.13214,-0.3333415 0.18883,-0.5033355 0.11577,-0.3471913 0.53454,-1.9078622 0.7553,-2.2020908 0.0796,-0.1061014 0.11571,0.245247 0.12589,0.377503 0.0364,0.4726524 -0.0367,1.9493642 0.18882,2.2650053 0.26399,0.369435 0.83285,-0.847094 0.94414,-1.0695864"
       id="path40575" />
    <path
       style="fill:#000000;fill-opacity:0;stroke:#000000;stroke-width:0.7;stroke-linecap:round;stroke-linejoin:round"
       d="m 123.9605,8.5315853 c 1.63494,1.2210031 1.53658,-1.136201 0.94414,-1.195423 -0.12172,-0.012168 -0.23172,0.098884 -0.31471,0.1887514 -0.6035,0.6535195 -0.89026,1.7114824 -0.37766,2.5166753 0.40672,0.638877 1.19339,-0.5245433 1.32179,-0.8179204 C 125.6022,9.067978 125.597,8.7928544 125.597,8.5945"
       id="path40577" />
    <path
       style="fill:#000000;fill-opacity:0;stroke:#000000;stroke-width:0.7;stroke-linecap:round;stroke-linejoin:round"
       d="m 120.18396,6.7069937 0.56648,-0.2516661"
       id="path40581" />
    <path
       style="fill:#000000;fill-opacity:0;stroke:#000000;stroke-width:0.7;stroke-linecap:round;stroke-linejoin:round"
       d="m 126.81045,7.8394982 c -0.0796,0.691597 -0.12588,1.3806136 -0.12588,2.0762577 0,0.1468061 0.0356,0.2979981 0,0.4404171 -0.0161,0.06434 -0.063,-0.122428 -0.063,-0.188751 0,-0.1690857 0.0238,-0.3388522 0.063,-0.503336 0.084,-0.3525395 0.25111,-1.1949829 0.62942,-1.447085 0.417,-0.2778819 0.84221,0.3864321 0.94414,0.6920833 0.2421,0.726028 -0.11545,0.015497 0.0629,0.8179202 0.0129,0.057917 0.0666,0.1258329 0.12588,0.1258329 0.0717,0 0.33266,-0.1348015 0.4406,-0.1887514"
       id="path40583" />
    <path
       style="fill:#000000;fill-opacity:0;stroke:#000000;stroke-width:0.7;stroke-linecap:round;stroke-linejoin:round"
       d="m 129.64286,8.7832514 c 0.0629,0.1258342 0.10812,0.2622536 0.18883,0.3775027 0.81806,1.1681869 1.15534,-1.1460178 0.25177,-1.4470888 -0.55336,-0.1843804 -1.08548,0.7351062 -1.19591,1.1325045 -0.0804,0.2893764 0.0279,0.7952981 0.12589,1.0695861 0.53772,1.5049881 1.35038,-0.2561998 1.57355,-0.8808387 0.14392,-0.4028157 0.11421,-0.8426098 0,-0.1887474 -0.0617,0.3535722 0.0277,1.8980182 0.62943,1.1325005 0.15116,-0.1923057 0.27828,-0.4056626 0.37765,-0.6291685 0.0703,-0.1580288 0.0839,-0.3355547 0.12588,-0.503332"
       id="path40585" />
    <path
       style="fill:#000000;fill-opacity:0;stroke:#000000;stroke-width:0.7;stroke-linecap:round;stroke-linejoin:round"
       d="m 131.7829,5.3857416 c -0.0839,0.1468056 -0.22012,0.2743054 -0.25177,0.4404175 -0.055,0.2884217 0.008,0.5873197 0,0.8808346 -0.0258,1.004728 -0.12778,1.5800459 0,2.5166749 0.0254,0.1858758 0.11909,0.6359588 0.25177,0.5033359 0.10579,-0.1057505 -0.0923,-0.327079 -0.12589,-0.3775027"
       id="path40587" />
    <path
       style="fill:#000000;fill-opacity:0;stroke:#000000;stroke-width:0.7;stroke-linecap:round;stroke-linejoin:round"
       d="m 136.00003,5.322825 c 0,-0.1258343 -0.0247,-0.5008912 0,-0.3775027 0.18402,0.9196498 7.9e-4,1.9714204 -0.0629,2.8941759 -0.0781,1.1325477 -0.0629,0.2624416 -0.0629,1.195419 0,0.08389 0,0.16778 0,0.2516698 0,0.020971 0,0.083886 0,0.062915 0,-0.2576912 0.0566,-0.2500924 0.31471,-0.3145846"
       id="path40595" />
    <path
       style="fill:#000000;fill-opacity:0;stroke:#000000;stroke-width:0.7;stroke-linecap:round;stroke-linejoin:round"
       d="m 136.2518,8.6574184 c 0.0744,-0.4606332 0.48264,-0.683442 0.94414,-0.6291688 0.25851,0.030401 1.43619,0.4133149 1.13296,0.9437531 -0.37339,0.6531695 -1.54839,-0.2684203 -1.82533,0.3774991 -0.13107,0.305695 0.38424,0.4426135 0.56648,0.5033356"
       id="path40597" />
    <path
       style="fill:#000000;fill-opacity:0;stroke:#000000;stroke-width:0.7;stroke-linecap:round;stroke-linejoin:round"
       d="m 140.34305,9.4753347 c 0.68299,0.087989 1.02994,-0.8885703 0.8812,-1.3841706 -0.49676,-1.6551717 -2.96736,-0.2203286 -2.26593,1.0066715 1.17613,2.0573764 3.32546,-0.6850885 2.01416,-1.3841703 -0.71446,-0.380892 -2.39503,0.8776314 -1.6365,1.6358365"
       id="path40599" />
    <path
       style="fill:#000000;fill-opacity:0;stroke:#000000;stroke-width:0.7;stroke-linecap:round;stroke-linejoin:round"
       d="m 141.91661,8.7203329 c 0.39604,-0.8278362 0.60697,-1.669103 0.69237,-2.5795896 0.0314,-0.3347428 0.0461,-0.6708777 0.0629,-1.0066697 0.001,-0.023691 -5.3e-4,-0.3166237 0,-0.3145843 0.22668,0.9063633 -0.0475,2.1081728 -0.0629,2.9570905 -0.01,0.5246402 -2.3e-4,1.0520108 0.0629,1.572922 0.19374,1.5976892 1.74168,-0.020698 1.38473,-0.3774991 -0.10492,-0.1048808 -0.29512,0.033832 -0.4406,0.062914"
       id="path40601" />
    <path
       style="fill:#000000;fill-opacity:0;stroke:#000000;stroke-width:0.7;stroke-linecap:round;stroke-linejoin:round"
       d="M 46.139089,5.4442743 C 46.025977,5.2181487 45.801139,4.8015948 45.761431,4.5634396 45.584432,3.5018842 46.166452,1.0847771 47.083223,0.47384456 47.565331,0.15256933 48.297097,0.13311536 48.845607,0.03342721"
       id="path40605" />
    <path
       style="fill:#000000;fill-opacity:0;stroke:#000000;stroke-width:0.7;stroke-linecap:round;stroke-linejoin:round"
       d="m 47.397934,-0.40699208 c 0.699998,-0.26239118 0.324287,-0.18874946 1.132962,-0.18874946 0.618558,0 0.175688,0.0138959 0.944134,-0.0629165 0.04175,-0.004174 0.144658,-0.0375288 0.125886,0 -0.132715,0.26531001 -0.430927,0.40870838 -0.629423,0.62916875 -0.219236,0.24349805 -0.452752,0.47906202 -0.629425,0.75500172 -0.291788,0.45573097 -0.582509,1.03023497 -0.188825,1.06958617 0.158982,0.015891 0.293729,-0.1258343 0.440594,-0.1887514"
       id="path40607" />
    <rect
       style="fill:#000000;fill-opacity:0;stroke:#000000;stroke-width:1.54408;stroke-linecap:round;stroke-linejoin:round;stroke-miterlimit:4;stroke-dasharray:none"
       id="rect40705"
       width="3.9150267"
       height="3.9150267"
       x="45.17794"
       y="15.521652"
       ry="1.4450867" />
    <rect
       style="fill:#000000;fill-opacity:0;stroke:#000000;stroke-width:1.54408;stroke-linecap:round;stroke-linejoin:round;stroke-miterlimit:4;stroke-dasharray:none"
       id="rect40953"
       width="3.9150267"
       height="3.9150267"
       x="50.024502"
       y="15.521652"
       ry="1.4450867" />
    <rect
       style="fill:#000000;fill-opacity:0;stroke:#000000;stroke-width:1.54408;stroke-linecap:round;stroke-linejoin:round;stroke-miterlimit:4;stroke-dasharray:none"
       id="rect40955"
       width="3.9150267"
       height="3.9150267"
       x="54.556351"
       y="15.521652"
       ry="1.4450867" />
    <rect
       style="fill:#000000;fill-opacity:0;stroke:#000000;stroke-width:1.54408;stroke-linecap:round;stroke-linejoin:round;stroke-miterlimit:4;stroke-dasharray:none"
       id="rect40957"
       width="3.9150267"
       height="3.9150267"
       x="59.339966"
       y="15.521652"
       ry="1.4450867" />
    <path
       style="fill:#000000;fill-opacity:0;stroke:#000000;stroke-width:0.7;stroke-linecap:round;stroke-linejoin:round;stroke-miterlimit:4;stroke-dasharray:none"
       d="m 68.945534,15.404443 c -0.07359,-2.454872 -2.443347,0.389057 -2.769462,1.258337 -0.03419,0.09114 0.04577,0.474729 0.06294,0.503336 0.582904,0.971115 1.987291,0.429888 2.76946,1.069586 0.422921,0.345887 -0.268817,1.328701 -0.503537,1.510003 -0.27483,0.212284 -0.618077,0.320914 -0.944136,0.44042 -1.114695,0.408556 -1.300274,0.330078 -2.580635,-0.251668 -0.354144,-0.16091 -0.533098,-0.599622 -0.503539,-0.629169 0.08763,-0.08759 0.620197,-0.06292 0.692364,-0.06292"
       id="path41021" />
    <path
       style="fill:#000000;fill-opacity:0;stroke:#000000;stroke-width:0.7;stroke-linecap:round;stroke-linejoin:round;stroke-miterlimit:4;stroke-dasharray:none"
       d="m 71.526169,19.05362 c 0.303551,-0.463807 0.297214,-1.265334 -0.314711,-1.510003 -0.09741,-0.03895 -0.212937,-0.02544 -0.314712,0 -1.184333,0.295962 -1.458563,2.261896 -0.566481,2.516673 0.175504,0.05012 0.668862,-0.127228 0.818251,-0.251668 0.215548,-0.179551 0.290092,-0.521599 0.377653,-0.755002 0.196689,-0.524291 0.538906,-1.392651 -0.25177,-1.635838 -1.338291,-0.411616 -2.40131,1.995222 -0.56648,2.453759"
       id="path41023" />
    <path
       style="fill:#000000;fill-opacity:0;stroke:#000000;stroke-width:0.7;stroke-linecap:round;stroke-linejoin:round;stroke-miterlimit:4;stroke-dasharray:none"
       d="m 73.666209,17.732366 c -0.333817,1.334727 -0.208852,0.663459 -0.377656,2.013339 -0.02098,0.167779 -0.04426,0.335286 -0.06294,0.503336 -0.0024,0.02084 0,0.08389 0,0.06292 0,-1.028828 0.385546,-1.972239 0.944134,-2.831258 0.209584,-0.322307 0.538342,-0.461878 0.692364,0 0.190741,0.571993 0,1.295173 0,1.887505 0,0.08389 -0.03117,0.173783 0,0.251668 0.110308,0.275654 0.391584,-0.248775 0.629425,-0.629169"
       id="path41025" />
    <path
       style="fill:#000000;fill-opacity:0;stroke:#000000;stroke-width:0.7;stroke-linecap:round;stroke-linejoin:round;stroke-miterlimit:4;stroke-dasharray:none"
       d="m 76.435671,15.593194 c -0.156088,1.71626 0,-0.426396 0,1.510004 0,0.41997 -0.03072,0.839605 -0.06294,1.258337 -0.03075,0.399496 -0.07765,0.797658 -0.125886,1.195421 -0.0357,0.294438 -0.0771,0.588279 -0.125884,0.880835 -0.01423,0.08529 0.0191,0.224332 -0.06294,0.251668 -0.07175,0.02391 -0.101962,-0.117008 -0.125886,-0.18875 -0.109423,-0.32814 0.276434,-0.680274 0.440598,-0.880836 0.504594,-0.616479 1.180036,-1.265658 2.014153,-0.880837 0.361429,0.166746 0.287192,0.78251 0.06294,1.006669 -0.530368,0.530153 -1.499843,0.363811 -2.140037,0.314585 -0.375624,-0.02888 -0.901838,-0.126843 -0.944137,0 -0.01868,0.05604 0.288865,0.236119 0.881193,0.188751 0.299439,-0.02394 0.587462,-0.125834 0.881194,-0.188751"
       id="path41029" />
    <path
       style="fill:#000000;fill-opacity:0;stroke:#000000;stroke-width:0.7;stroke-linecap:round;stroke-linejoin:round;stroke-miterlimit:4;stroke-dasharray:none"
       d="m 79.645731,19.05362 c 0.451252,0.0242 1.869427,0.442816 2.140038,-0.314584 0.272145,-0.761699 -0.48277,-1.760562 -1.32179,-1.321254 -0.769398,0.402854 -0.691528,0.875837 -0.818248,1.635838 -0.02781,0.166783 -0.109413,0.340761 -0.06294,0.503336 0.04502,0.157518 0.17648,0.289573 0.314711,0.377501 0.739669,0.470507 1.361136,-0.935901 1.510618,-1.38417 0.04691,-0.140683 0.04656,-0.293029 0.06294,-0.44042 0.0046,-0.04169 0.0094,-0.166702 0,-0.125833 -0.07217,0.312598 -0.165962,0.62375 -0.188828,0.943753 -0.0033,0.04567 -0.05931,1.628139 0.50354,1.321254 0.861012,-0.469451 0.907991,-1.486034 1.007078,-2.327923"
       id="path41031" />
    <path
       style="fill:#000000;fill-opacity:0;stroke:#000000;stroke-width:0.7;stroke-linecap:round;stroke-linejoin:round;stroke-miterlimit:4;stroke-dasharray:none"
       d="m 82.91873,16.222363 c 0.02098,-0.125834 0.01556,-0.259061 0.06294,-0.377501 0.01103,-0.02754 0.05192,0.03537 0.06294,0.06292 0.07392,0.184728 0.153834,0.370385 0.188826,0.566253 0.174206,0.975168 0.125886,1.576749 0.125886,2.579589 0,0.27264 0,0.54528 0,0.817921 0,0.04194 -0.02082,0.162247 0,0.125832 0.321889,-0.563086 0.452162,-1.302782 0.629422,-1.887506 0.07697,-0.253881 0.158589,-0.506614 0.25177,-0.755002 0.393073,-1.047769 0.705207,1.940407 1.070017,2.01334 0.389337,0.07784 0.440597,-0.652549 0.440597,-0.880835 0,-0.02097 -0.02056,-0.05881 0,-0.06292 0.577628,-0.115482 1.060943,0.206697 1.573562,0.3775 0.247976,0.08263 0.288393,-0.293967 0.251764,-0.440417 -0.128431,-0.513524 -0.776385,-1.491038 -1.384726,-0.943753 -0.512132,0.460732 -0.199763,1.988382 0.503534,2.076258 0.670685,0.0838 0.760466,-1.2315 0.818251,-1.635839 0.01804,-0.126287 0.188777,-0.35652 0.06294,-0.377501 -0.125833,-0.02098 -0.04803,0.250805 -0.06294,0.377501 -0.02707,0.23006 -0.05137,0.460728 -0.06294,0.692086 -0.0043,0.08633 -0.107469,0.880834 0.251769,0.880834 0.131736,0 0.329621,-0.470225 0.377651,-0.56625 0.0094,-0.01876 -0.0094,-0.08168 0,-0.06292 0.190981,0.381811 0.21714,1.160794 0.503541,1.447089 0.01484,0.01483 0,-0.04194 0,-0.06292 0,-0.125834 0,-0.251669 0,-0.377503 0,-0.272639 -0.01011,-0.545466 0,-0.817918 0.0086,-0.232272 0.0949,-1.652305 0.25177,-1.887506 0.137081,-0.20554 1.185339,0.507979 1.447673,0.566252 0.266261,0.05914 0.545499,0 0.81825,0"
       id="path41033" />
    <path
       style="fill:#000000;fill-opacity:0;stroke:#000000;stroke-width:0.7;stroke-linecap:round;stroke-linejoin:round;stroke-miterlimit:4;stroke-dasharray:none"
       d="m 91.478887,17.984034 c 0.22977,0.229676 0.352446,0.503336 0.692367,0.503336 0.46699,0 0.147553,-1.377226 -0.692367,-1.321254 -1.026207,0.06839 -0.957892,2.448599 -0.440594,2.642506 0.769964,0.288618 1.304112,-2.68425 1.384728,-3.020009 0.03097,-0.12898 0.08392,-0.251667 0.125886,-0.377501"
       id="path41035" />
    <path
       style="fill:#000000;fill-opacity:0;stroke:#000000;stroke-width:0.7;stroke-linecap:round;stroke-linejoin:round;stroke-miterlimit:4;stroke-dasharray:none"
       d="m 92.737735,15.089858 c 0.140592,2.287893 0.125884,-1.931271 0.125884,-1.447087 0,1.05544 0.02217,-0.106993 -0.125884,1.447087 -0.09714,1.019541 -0.180033,2.054583 -0.125886,3.082928 0.10882,2.066731 0.440597,1.144765 0.440597,0"
       id="path41037" />
    <path
       style="fill:#000000;fill-opacity:0;stroke:#000000;stroke-width:0.7;stroke-linecap:round;stroke-linejoin:round;stroke-miterlimit:4;stroke-dasharray:none"
       d="m 93.618927,17.984034 c 0.25177,0.125834 0.489633,0.284553 0.755306,0.377501 0.468908,0.05859 0.473512,0.02574 0.881192,0.188752 0.0094,0.0038 0.283136,0.18882 0.377656,0.125832 0.18655,-0.124315 0.04986,-0.642248 -0.06294,-0.755001 -0.508571,-0.508367 -1.320151,-0.28194 -1.447675,0.440417 -0.03302,0.187021 0.03938,0.377807 0.06294,0.566252 0.06721,0.537463 0.15553,0.879618 0.629423,1.195419 0.05521,0.03679 0.124462,0.079 0.188827,0.06292 0.632947,-0.158171 0.757384,-1.950423 0.818248,-1.950423 0.250394,0 0.281821,1.359571 1.007078,1.069586 0.411274,-0.164442 -0.135167,-0.875331 -0.251769,-1.069586"
       id="path41039" />
    <path
       style="fill:#000000;fill-opacity:0;stroke:#000000;stroke-width:0.7;stroke-linecap:round;stroke-linejoin:round;stroke-miterlimit:4;stroke-dasharray:none"
       d="m 103.07512,17.166116 c -0.38285,0.114808 -0.68846,0.120955 -0.94413,0.440417 -0.0415,0.0518 0.12588,0.04195 0.18883,0.06292 0.16358,0.0545 0.65249,0.246292 0.7553,0.440417 0.27895,0.526688 0.33718,0.960855 0.12589,1.510006 -0.14833,0.385493 -1.59047,-0.11081 -1.82533,-0.251668 -0.018,-0.01079 -0.021,-0.06292 0,-0.06292 0.0663,0 0.12248,0.06292 0.18882,0.06292 0.48615,0 0.5559,-0.126943 1.00708,-0.377501"
       id="path41041" />
    <path
       style="fill:#000000;fill-opacity:0;stroke:#000000;stroke-width:0.7;stroke-linecap:round;stroke-linejoin:round;stroke-miterlimit:4;stroke-dasharray:none"
       d="m 104.64868,18.298619 c 0,-0.146806 0,-0.293612 0,-0.440418 -0.021,0 -0.0629,-0.02098 -0.0629,0 0,0.148298 0.0873,0.294139 0.0629,0.440418 -0.20291,1.216946 -0.38033,0.242958 -0.12588,1.069586 0.0449,0.145928 0.0528,0.306388 0.12588,0.440417 0.51838,0.949973 1.46838,-0.864052 1.57356,-1.258335 0.0378,-0.141846 0,-0.293613 0,-0.44042 0,-0.02097 0.003,0.04216 0,0.06292 -0.018,0.126287 -0.0532,0.250306 -0.0629,0.377501 -0.0347,0.451192 -0.0597,1.322866 0.44059,1.572919 0.0563,0.02814 0.13485,0.03238 0.18883,0 0.39325,-0.235854 0.0195,-0.662775 -0.12588,-0.880834"
       id="path41043" />
    <path
       style="fill:#000000;fill-opacity:0;stroke:#000000;stroke-width:0.7;stroke-linecap:round;stroke-linejoin:round;stroke-miterlimit:4;stroke-dasharray:none"
       d="m 111.00585,18.109867 c 0.063,0.314585 0.13384,0.627682 0.18883,0.943753 0.029,0.166583 0.009,0.342934 0.0629,0.503336 0.12199,0.365815 0.21097,-0.342171 0.37766,-0.692085 0.12532,-0.263062 0.24971,-0.534844 0.44059,-0.755004 0.24337,-0.280694 0.69153,-0.188749 1.00708,-0.188749 0.26377,0.30757 0.30764,0.496322 0.69241,0.566252 0.7752,0.140891 1.0883,-0.891998 0.62942,-1.006669 -0.97887,-0.244618 -2.24327,1.326822 -0.88119,2.202088 0.81844,0.525931 1.95121,-0.457143 1.95121,-1.258337"
       id="path41045" />
    <path
       style="fill:#000000;fill-opacity:0;stroke:#000000;stroke-width:0.7;stroke-linecap:round;stroke-linejoin:round;stroke-miterlimit:4;stroke-dasharray:none"
       d="m 119.6919,17.795283 c 0.021,0.251668 0.042,0.503336 0.0629,0.755004 0.021,0.251667 0.0288,0.504779 0.0629,0.755001 0.0406,0.297528 0.18883,0.580554 0.18883,0.880837 0,0.0469 -0.0558,-0.07948 -0.0629,-0.125835 -0.0352,-0.228951 -0.073,-0.460657 -0.0629,-0.692085 0.006,-0.130963 0.22311,-1.463286 0.50353,-1.510004 0.3017,-0.05026 0.38933,1.435415 0.69237,1.132503 0.21911,-0.219024 0.648,-1.39036 0.81825,-1.447087 0.0764,-0.02545 0.0629,0.109096 0.0629,0.377501 0,0.577101 0.054,1.123987 0.12588,1.698755 0.0198,0.158495 0.0339,0.479143 0.18883,0.440417 0.27319,-0.06827 0.46732,-1.723691 0.50354,-2.013339"
       id="path41047" />
    <path
       style="fill:#000000;fill-opacity:0;stroke:#000000;stroke-width:0.7;stroke-linecap:round;stroke-linejoin:round;stroke-miterlimit:4;stroke-dasharray:none"
       d="m 122.9649,17.732366 c -0.0773,0.270397 0.0658,2.37583 0.12588,2.39084 0.28595,0.07146 0.68563,-1.214914 0.75531,-1.447087"
       id="path41049" />
    <path
       style="fill:#000000;fill-opacity:0;stroke:#000000;stroke-width:0.7;stroke-linecap:round;stroke-linejoin:round;stroke-miterlimit:4;stroke-dasharray:none"
       d="m 124.03492,18.109867 c -0.1012,0.711203 0.16845,1.508164 -0.063,2.202091 -0.0132,0.03979 -0.002,-0.08396 0,-0.125833 0.0185,-0.314739 0.0268,-0.63055 0.063,-0.943753 0.0269,-0.232934 0.12588,-0.457605 0.12588,-0.692085 0,-0.152686 -0.22129,-0.321211 -0.12588,-0.44042 0.0829,-0.103597 0.25639,0.07196 0.37765,0.125835 0.0691,0.03071 0.15499,0.05819 0.18883,0.125833 0.18538,0.370621 0.13077,2.739634 -0.12589,0.943753"
       id="path41051" />
    <path
       style="fill:#000000;fill-opacity:0;stroke:#000000;stroke-width:0.7;stroke-linecap:round;stroke-linejoin:round;stroke-miterlimit:4;stroke-dasharray:none"
       d="m 123.15372,16.66278 c 0.31456,0.103212 0.43542,0.191338 0.69237,0.06292"
       id="path41053" />
    <path
       style="fill:#000000;fill-opacity:0;stroke:#000000;stroke-width:0.7;stroke-linecap:round;stroke-linejoin:round;stroke-miterlimit:4;stroke-dasharray:none"
       d="m 125.60848,17.858201 c 0.35222,0.05492 0.90655,0.16325 1.13296,-0.251668 0.071,-0.130177 0.0506,-0.292632 0.0629,-0.440417 0.0201,-0.240622 -0.0905,-0.794297 -0.50354,-0.629169 -0.35905,0.143563 -0.52407,0.815207 -0.56648,1.069586 -0.05,0.300151 -0.002,1.887797 0.69237,1.761672 0.46416,-0.08436 0.83688,-0.792249 1.00707,-1.132503"
       id="path41055" />
    <path
       style="fill:#000000;fill-opacity:0;stroke:#000000;stroke-width:0.7;stroke-linecap:round;stroke-linejoin:round;stroke-miterlimit:4;stroke-dasharray:none"
       d="m 127.93734,17.040281 c 0.2596,0.605489 0.21011,0.393762 0.31471,1.195421 0.03,0.2297 0.0175,0.46494 0.0629,0.692085 0.0184,0.09198 0.091,0.164583 0.12589,0.251668 0.0577,0.144272 -0.18883,0.311455 -0.18883,-0.377503 0,-0.403868 0.0286,-1.166808 0.31471,-1.510003 0.0484,-0.0581 0.13534,-0.07236 0.18883,-0.125833 0.0148,-0.01483 -0.021,-0.06292 0,-0.06292 0.24559,0 0.55107,0.275423 0.75531,0.377502"
       id="path41057" />
    <path
       style="fill:#000000;fill-opacity:0;stroke:#000000;stroke-width:0.7;stroke-linecap:round;stroke-linejoin:round;stroke-miterlimit:4;stroke-dasharray:none"
       d="m 130.70681,17.984034 c -0.27144,0.552488 1.17643,1.452991 1.25884,0.629169 0.0402,-0.402048 -0.45374,-0.858064 -0.81825,-0.880837 -0.16881,-0.01055 -0.2948,0.165939 -0.44059,0.251668 -0.2109,0.124006 -0.46686,0.19468 -0.62943,0.377501 -0.31825,0.357882 -0.62815,1.165866 -0.31471,1.635838 0.38628,0.579189 1.18358,0.08139 1.44767,-0.314584 0.14061,-0.210838 0.23785,-0.450597 0.31472,-0.692085 0.0569,-0.178904 0.16831,-0.949436 0.18882,-1.195421 0.007,-0.0836 0,-0.335555 0,-0.251666 0,0.492785 0.007,0.784891 0.18883,1.258335 0.0543,0.141164 0.14479,0.484433 0.25177,0.377503 0.51155,-0.51134 0.5718,-1.622276 0.69236,-2.265007"
       id="path41059" />
    <path
       style="fill:#000000;fill-opacity:0;stroke:#000000;stroke-width:0.7;stroke-linecap:round;stroke-linejoin:round;stroke-miterlimit:4;stroke-dasharray:none"
       d="m 132.7839,14.838192 c -0.021,-0.104861 -0.0453,-0.420068 -0.0629,-0.314584 -0.0897,0.537855 -0.014,1.090738 0,1.635838 0.0254,0.988052 0.0164,2.097967 0.12588,3.082926 0.0118,0.106285 0.0397,0.210193 0.0629,0.314584 0.0188,0.08441 -0.0235,0.251666 0.063,0.251666 0.0839,0 0,-0.167777 0,-0.251666 0,-0.27264 0,-0.54528 0,-0.81792"
       id="path41061" />
    <path
       style="fill:#000000;fill-opacity:0;stroke:#000000;stroke-width:0.7;stroke-linecap:round;stroke-linejoin:round;stroke-miterlimit:4;stroke-dasharray:none"
       d="m 138.44871,19.997373 c 0.12588,-0.08389 0.27643,-0.139245 0.37765,-0.251668 0.46147,-0.512523 0.51106,-1.534415 0.25178,-2.139172 -0.22999,-0.536425 -0.9871,-0.585852 -1.32179,-0.125833 -0.37782,0.519291 -0.54835,2.235601 0,2.705425 0.6305,0.540217 1.28098,-1.246956 1.38472,-1.635838 0.0436,-0.163372 0.063,-0.672422 0.063,-0.503336 0,0.840468 -0.019,2.93211 0.94413,1.006669"
       id="path41063" />
    <path
       style="fill:#000000;fill-opacity:0;stroke:#000000;stroke-width:0.7;stroke-linecap:round;stroke-linejoin:round;stroke-miterlimit:4;stroke-dasharray:none"
       d="m 140.84052,17.103198 c 0.23922,-0.291289 0.74051,-0.639025 1.13296,-0.377501 0.0247,0.01645 0.0701,0.03414 0.0629,0.06292 -0.0367,0.146732 -0.1841,0.24223 -0.25177,0.377503 -0.25446,0.508714 -0.51564,1.17546 -0.37765,1.761671 0.1256,0.533602 0.53694,0.692086 1.00708,0.692086 0.64199,0 0.94413,-0.09372 0.94413,-0.817921"
       id="path41065" />
    <path
       style="fill:#000000;fill-opacity:0;stroke:#000000;stroke-width:0.7;stroke-linecap:round;stroke-linejoin:round;stroke-miterlimit:4;stroke-dasharray:none"
       d="m 141.407,17.858201 c 0.27725,0.164733 1.51062,0.07828 1.51062,-0.188751"
       id="path41067" />
    <path
       style="fill:#000000;fill-opacity:0;stroke:#000000;stroke-width:0.7;stroke-linecap:round;stroke-linejoin:round;stroke-miterlimit:4;stroke-dasharray:none"
       d="m 45.133765,19.619873 c -0.473459,1.522328 -0.570759,3.330929 0.755306,4.467098 0.196318,0.168204 0.928936,0.4735 1.195903,0.629168 0.116036,0.06766 0.449038,0.251666 0.314717,0.251666 -0.08651,0 -0.165267,-0.06292 -0.251772,-0.06292"
       id="path41069" />
    <path
       style="fill:#000000;fill-opacity:0;stroke:#000000;stroke-width:0.7;stroke-linecap:round;stroke-linejoin:round;stroke-miterlimit:4;stroke-dasharray:none"
       d="m 48.092052,24.771001 c -0.295865,-0.109033 -0.108939,-1.132505 -0.440597,-1.132505 -0.03196,0 0.08596,0.135531 0.314717,0.440418 0.194603,0.259368 0.692361,0.855545 0.692361,1.195423 0,0.519512 -2.517693,0.100118 -2.517693,0.314584 0,0.06294 0.126519,-0.0089 0.188828,0 0.360992,0.05155 0.234283,0.143309 0.377653,0"
       id="path41071" />
    <path
       style="fill:#000000;fill-opacity:0;stroke:#000000;stroke-width:0.7;stroke-linecap:round;stroke-linejoin:round;stroke-miterlimit:4;stroke-dasharray:none"
       d="m 50.432326,27.489097 c -0.02098,-0.230696 -0.05077,-0.460759 -0.06294,-0.692084 -0.02432,-0.462057 -0.06294,-0.921215 -0.06294,-1.38417 0,-0.06292 -0.007,0.126218 0,0.188749 0.01638,0.14739 0.04818,0.292857 0.06294,0.440418 0.07353,0.734971 0.106556,1.246456 0,2.01334 -0.05041,0.362789 -0.17753,0.710917 -0.251767,1.069586 -0.08531,0.412173 -0.283067,1.953239 -0.377656,0.440418 -0.01177,-0.188381 0,-0.3775 0,-0.566251"
       id="path41101" />
    <path
       style="fill:#000000;fill-opacity:0;stroke:#000000;stroke-width:0.7;stroke-linecap:round;stroke-linejoin:round;stroke-miterlimit:4;stroke-dasharray:none"
       d="m 52.131769,25.412843 c -0.813718,0.741882 -1.21307,1.78073 -1.636503,2.76834 -0.12286,0.286562 -0.454195,0.601986 -0.314712,0.880835 0.03564,0.07125 0.217474,-0.139343 0.440598,-0.314584 0.259421,-0.203748 0.615516,-0.555522 1.007078,-0.503336 0.561999,0.0749 0.755309,0.734759 0.755309,1.195422 0,0.101468 -0.108228,0.694352 -0.125887,0.817917 -0.003,0.02077 -0.0094,0.08168 0,0.06292 0.02967,-0.05932 0.04196,-0.125833 0.06294,-0.188751 0.06294,-0.125833 0.122595,-0.253365 0.188828,-0.377499 0.101653,-0.190521 0.209807,-0.377503 0.314711,-0.566254"
       id="path41103" />
    <path
       style="fill:#000000;fill-opacity:0;stroke:#000000;stroke-width:0.7;stroke-linecap:round;stroke-linejoin:round;stroke-miterlimit:4;stroke-dasharray:none"
       d="m 53.264731,28.810352 c 0.481168,-0.132048 1.101666,0.365641 1.573556,0.188751 0.724834,-0.271703 0.537811,-1.583222 -0.251769,-1.635839 -0.611696,-0.04077 -1.193491,0.985403 -1.321787,1.447088 -0.03971,0.142883 0.02696,0.296553 0.06294,0.440417 0.127474,0.509694 0.234244,0.898851 0.818251,0.943753 1.341752,0.103166 1.765935,-2.563564 0.81825,-2.642507 -0.664824,-0.05538 -1.432901,1.461852 -0.944136,1.950421 0.202438,0.202356 0.632505,0.125835 0.881192,0.125835"
       id="path41105" />
    <path
       style="fill:#000000;fill-opacity:0;stroke:#000000;stroke-width:0.7;stroke-linecap:round;stroke-linejoin:round;stroke-miterlimit:4;stroke-dasharray:none"
       d="m 56.348902,27.992432 c -0.04356,0.56601 -0.208444,0.874509 0.188828,1.321255 0.05748,0.06464 0.165266,0.06291 0.251772,0.06291 0.499565,0 0.755306,-1.51594 0.755306,-1.887505 0,-0.06632 -0.05072,0.123565 -0.06294,0.188751 -0.05086,0.271121 -0.09749,0.543536 -0.125881,0.81792 -0.08753,0.845788 -0.08025,1.220578 0,2.076254 0.08632,0.92044 0.362349,1.941909 -0.188831,2.768346 -0.07452,0.111736 -0.13435,0.249377 -0.251769,0.314584 -0.599589,0.33297 -1.255575,-0.965004 -1.321787,-1.384176 -0.05284,-0.334544 0.0037,-0.995643 0.125883,-1.321252 0.362765,-0.966981 1.495933,-0.590362 2.202985,-0.943753"
       id="path41107" />
    <path
       style="fill:#000000;fill-opacity:0;stroke:#000000;stroke-width:0.7;stroke-linecap:round;stroke-linejoin:round;stroke-miterlimit:4;stroke-dasharray:none"
       d="m 59.055425,27.929517 c -0.417105,0.410371 -0.280254,2.152314 0.566478,1.76167 0.179708,-0.08291 0.377696,-0.161838 0.50354,-0.314585 0.247848,-0.300836 0.473998,-0.991269 0.56648,-1.38417 0.03398,-0.144351 0.04656,-0.293029 0.06294,-0.440417 0.0046,-0.04169 0,-0.167778 0,-0.125834 0,0.656892 -0.279916,1.362681 -0.06294,2.013339 0.317686,0.952675 1.274615,-0.201049 1.447676,-0.566253 0.08418,-0.177636 0.257617,-0.904216 0.314711,-1.132501"
       id="path41109" />
    <path
       style="fill:#000000;fill-opacity:0;stroke:#000000;stroke-width:0.7;stroke-linecap:round;stroke-linejoin:round;stroke-miterlimit:4;stroke-dasharray:none"
       d="m 65.47554,27.740766 c 0.0066,0.461264 -0.01773,0.923123 0,1.38417 0.0081,0.210614 0.01553,0.423802 0.06294,0.629169 0.02003,0.08671 0.188825,0.277749 0.188825,0.188751 0,-0.08647 -0.05511,-0.16555 -0.06294,-0.251669 -0.04681,-0.514707 -0.104262,-1.686364 0.56648,-1.887506 0.322813,-0.09681 0.700548,0.398984 0.944134,0.503335 0.347925,0.149051 0.64788,0.125834 1.007079,0.125834"
       id="path41111" />
    <path
       style="fill:#000000;fill-opacity:0;stroke:#000000;stroke-width:0.7;stroke-linecap:round;stroke-linejoin:round;stroke-miterlimit:4;stroke-dasharray:none"
       d="m 68.559714,28.307016 c 0.230028,-0.462753 0.676812,-0.102385 1.00708,-0.377499 0.197493,-0.16451 0.08142,-0.588473 -0.125888,-0.692087 -0.54129,-0.270539 -1.145519,0.367644 -1.321787,0.81792 -0.116946,0.298746 -0.188828,0.622935 -0.188828,0.943753 0,0.432853 0.634873,0.788823 1.007076,0.755002 0.332414,-0.0302 0.448828,-0.182748 0.692366,-0.377503"
       id="path41113" />
    <path
       style="fill:#000000;fill-opacity:0;stroke:#000000;stroke-width:0.7;stroke-linecap:round;stroke-linejoin:round;stroke-miterlimit:4;stroke-dasharray:none"
       d="m 70.133275,28.747434 c 0.625978,-1.531927 0.755304,0.487881 0.755304,1.006671 0,0.02098 -0.003,-0.04216 0,-0.06292 0.01804,-0.126286 0.04304,-0.251492 0.06295,-0.3775 0.129802,-0.821751 0.13445,-0.959689 0.314711,-1.82459 0.08398,-0.402969 0.119097,-0.632561 0.25177,-0.566251 0.429881,0.214852 0.253798,3.84706 1.258845,2.139172 0.114564,-0.194683 0.195302,-0.410448 0.251769,-0.629168 0.28035,-1.47124 0.128556,-0.890172 0.377653,-1.76167"
       id="path41115" />
    <path
       style="fill:#000000;fill-opacity:0;stroke:#000000;stroke-width:0.7;stroke-linecap:round;stroke-linejoin:round;stroke-miterlimit:4;stroke-dasharray:none"
       d="m 73.53216,25.098258 c -0.04196,0.503335 -0.08713,1.006412 -0.125886,1.510004 -0.04517,0.586986 -0.112191,1.173109 -0.125883,1.761672 -0.0073,0.315198 0.02992,0.630203 0.06294,0.943753 0.009,0.086 -0.01736,0.219565 0.06294,0.251667 0.306433,0.122523 0.887593,-1.617234 0.944137,-1.761673 0.06532,-0.166865 0.114646,-0.340209 0.188825,-0.503333 0.08213,-0.180623 0.190746,-0.314584 0.125886,-0.314584 -0.02966,0 -0.04722,0.03776 -0.06294,0.06292 -0.08965,0.143381 -0.168839,0.293047 -0.251767,0.440418 -0.212693,0.37797 -0.965362,1.63866 -0.440598,2.013339 0.0683,0.04876 0.168093,0.0064 0.25177,0 0.767747,-0.05903 0.888346,-0.31673 1.510615,-0.503333 0.443439,-0.132974 0.446259,0.686427 0.881192,0.251666"
       id="path41117" />
    <path
       style="fill:#000000;fill-opacity:0;stroke:#000000;stroke-width:0.7;stroke-linecap:round;stroke-linejoin:round;stroke-miterlimit:4;stroke-dasharray:none"
       d="m 50.301718,0.65714744 c 0.35983,-1.03648067 1.063222,-1.89452344 1.510614,-2.89417394 0.456904,-1.0208968 0.640123,-1.9890913 0.755309,-3.0829272 0.01336,-0.1268693 0.04489,-0.2512134 0.06294,-0.3775009 0.003,-0.020762 -0.0083,-0.082192 0,-0.062917 0.586245,1.3673407 0.701894,2.9102409 1.07002,4.341261 0.156167,0.60707803 0.161372,0.71384106 0.440594,1.13250451 0.01646,0.0246809 0.06294,0.0925848 0.06294,0.0629184 0,-0.41507458 -0.339656,-0.71203506 -0.629426,-0.94375311"
       id="path41552" />
    <path
       style="fill:#000000;fill-opacity:0;stroke:#000000;stroke-width:0.7;stroke-linecap:round;stroke-linejoin:round;stroke-miterlimit:4;stroke-dasharray:none"
       d="m 50.994082,-1.4820248 c 0.798695,-0.1263512 1.59875,-0.2189557 2.391809,-0.3775028"
       id="path41554" />
    <path
       style="fill:#000000;fill-opacity:0;stroke:#000000;stroke-width:0.7;stroke-linecap:round;stroke-linejoin:round;stroke-miterlimit:4;stroke-dasharray:none"
       d="m 56.595949,-2.2999449 c 0.0065,-0.01619 0.287324,-0.467434 0,-0.5033359 -0.676482,-0.084528 -2.175307,2.0449237 -1.573557,2.57959352 0.447532,0.39764269 1.106067,0.10534655 1.510615,-0.18875138 0.202282,-0.14705399 0.330856,-0.34686745 0.440595,-0.5662542 0.0094,-0.0187561 0.0051,-0.0832594 0,-0.0629145 -0.141687,0.56653275 -0.177753,1.18785991 -0.06294,1.76167338 0.0276,0.13796288 0.107026,0.26302451 0.188828,0.37749882 0.228457,0.319711 0.370231,-0.4560757 0.440594,-0.7550016 0.136065,-0.57803595 0.125887,-0.32214113 0.125887,-0.62916877"
       id="path41556" />
    <path
       style="fill:#000000;fill-opacity:0;stroke:#000000;stroke-width:0.7;stroke-linecap:round;stroke-linejoin:round;stroke-miterlimit:4;stroke-dasharray:none"
       d="m 58.735988,-2.1741119 c 0,0.7208397 -0.01609,0.6570705 0.06294,1.44708885 0.06521,0.65182236 0.04424,0.54070931 0.25177,0.12583297"
       id="path41558" />
    <path
       style="fill:#000000;fill-opacity:0;stroke:#000000;stroke-width:0.7;stroke-linecap:round;stroke-linejoin:round;stroke-miterlimit:4;stroke-dasharray:none"
       d="m 59.931892,-5.068286 c 0,0.1677786 0,-0.6711143 0,-0.5033357 0,0.1677786 0,0.3355573 0,0.5033357 0.06294,0.5033346 0.17803,1.0028639 0.188825,1.5100035 0.02551,1.1977079 -0.179118,1.3378633 -0.251767,2.3908421 -0.02453,0.35568319 0,0.7130574 0,1.0695861 0,0.04194433 -0.01154,-0.08550368 0,-0.12583298 0.07291,-0.25507731 0.147228,-0.51117874 0.251767,-0.75500558 0.150249,-0.35044094 1.132962,-2.06845914 1.132962,-2.45375644 0,-0.020981 -0.05355,-0.018764 -0.06294,0 -0.130683,0.2612649 -0.189074,0.5541909 -0.314711,0.81792 -0.235281,0.4938885 -0.728856,1.3540718 -0.629423,1.95042083 0.130964,0.78544258 1.587365,-0.0465454 1.825326,-0.125833 0.14459,-0.0481763 0.656556,-0.14372907 0.818251,-0.0629146 0.0334,0.0166941 0.251769,0.28087238 0.251769,0.0629146"
       id="path41562" />
    <path
       style="fill:#000000;fill-opacity:0;stroke:#000000;stroke-width:0.7;stroke-linecap:round;stroke-linejoin:round;stroke-miterlimit:4;stroke-dasharray:none"
       d="m 66.729665,-2.048279 c -0.02098,-0.1048614 -0.09233,-0.4174067 -0.06295,-0.3145843 0.283236,0.9909423 0.156009,0.6130275 0.251772,1.76167322 0.0021,0.0238487 0.09835,0.61343725 0.06294,0.75500175 -0.03219,0.12868136 -0.133249,-0.24505808 -0.125886,-0.37749895 0.03162,-0.56896562 0.153347,-1.38502482 0.440598,-1.88750622 0.145446,-0.2544275 1.752957,-0.1277174 2.077095,-0.062918"
       id="path41564" />
    <path
       style="fill:#000000;fill-opacity:0;stroke:#000000;stroke-width:0.7;stroke-linecap:round;stroke-linejoin:round;stroke-miterlimit:4;stroke-dasharray:none"
       d="m 70.317375,-2.1111935 c 0.174096,0.049273 0.984983,0.6189027 1.132962,0.125833 0.332155,-1.1067542 -1.228193,-1.168417 -1.699443,-0.4404174 -0.445347,0.6879794 -0.240215,1.51735162 0.440598,1.95042082 0.118745,0.0755337 0.237336,0.17796185 0.377653,0.18875139 0.180416,0.0138729 0.397737,-0.10441074 0.56648,-0.18875139"
       id="path41566" />
    <path
       style="fill:#000000;fill-opacity:0;stroke:#000000;stroke-width:0.7;stroke-linecap:round;stroke-linejoin:round;stroke-miterlimit:4;stroke-dasharray:none"
       d="m 71.953876,-1.9224422 c 0.104904,0.062916 0.259987,0.079347 0.314711,0.1887476 0.1729,0.3456578 0.188828,1.05174234 0.188828,1.44708891 0,0.0209727 0,-0.0419456 0,-0.0629184 0,-0.23069444 -0.0209,-0.46233704 0,-0.69208331 0.02511,-0.276014 0.477192,-2.059672 0.755309,-2.0133392 0.103452,0.017235 0.130635,0.1644147 0.188825,0.2516658 0.06786,0.1017487 0.13979,0.2025442 0.188828,0.3145845 0.0477,0.1089776 0.542266,1.86512661 0.81825,1.76167326 0.234495,-0.0878996 0.341037,-0.36721126 0.440595,-0.56625036"
       id="path41568" />
    <path
       style="fill:#000000;fill-opacity:0;stroke:#000000;stroke-width:0.7;stroke-linecap:round;stroke-linejoin:round;stroke-miterlimit:4;stroke-dasharray:none"
       d="m 75.163933,-5.6345383 c 0.0714,1.4254303 -0.16242,2.8539826 -0.125883,4.2783465 0.0461,1.79711436 0.552968,-0.1721708 0.629422,-0.5033358"
       id="path41570" />
    <path
       style="fill:#000000;fill-opacity:0;stroke:#000000;stroke-width:0.7;stroke-linecap:round;stroke-linejoin:round;stroke-miterlimit:4;stroke-dasharray:none"
       d="m 76.233953,-2.8661952 c -0.429331,-0.085834 -0.265721,-0.1558558 -0.503539,0.2516659 -0.08523,0.1460504 -0.186709,0.2843337 -0.25177,0.4404174 -0.04115,0.098708 -0.03699,0.2108399 -0.06294,0.3145843 -0.123772,0.4948975 0.117027,0.271901 0.629422,0.3145844 0.24506,0.020414 0.625764,0.155465 0.818251,0.2516698 0.09382,0.046892 0.193571,0.1014865 0.251769,0.1887476 0.2554,0.38294134 0.05974,1.36603859 0.25177,1.51000727 0.239551,0.17958998 0.944134,-0.14254232 0.944134,-0.4404212"
       id="path41574" />
  </g>
</svg>
