<?xml version="1.0" encoding="UTF-8" standalone="no"?>
<!-- Created with Inkscape (http://www.inkscape.org/) -->

<svg
   width="210mm"
   height="297mm"
   viewBox="0 0 210 297"
   version="1.1"
   id="svg772"
   inkscape:version="1.2.2 (b0a8486541, 2022-12-01)"
   sodipodi:docname="fonksiyon-örneği.svg"
   xmlns:inkscape="http://www.inkscape.org/namespaces/inkscape"
   xmlns:sodipodi="http://sodipodi.sourceforge.net/DTD/sodipodi-0.dtd"
   xmlns="http://www.w3.org/2000/svg"
   xmlns:svg="http://www.w3.org/2000/svg">
  <sodipodi:namedview
     id="namedview774"
     pagecolor="#ffffff"
     bordercolor="#000000"
     borderopacity="0.25"
     inkscape:showpageshadow="2"
     inkscape:pageopacity="0.0"
     inkscape:pagecheckerboard="0"
     inkscape:deskcolor="#d1d1d1"
     inkscape:document-units="mm"
     showgrid="false"
     inkscape:zoom="2.0493984"
     inkscape:cx="403.53306"
     inkscape:cy="80.999381"
     inkscape:window-width="1916"
     inkscape:window-height="1026"
     inkscape:window-x="0"
     inkscape:window-y="0"
     inkscape:window-maximized="1"
     inkscape:current-layer="layer1" />
  <defs
     id="defs769" />
  <g
     inkscape:label="Layer 1"
     inkscape:groupmode="layer"
     id="layer1">
    <path
       style="fill:#ff0000;stroke-width:0.264583"
       id="path778"
       d="M 48.50658,7.9945782 C 47.991024,7.8419115 47.489803,7.6278025 46.959914,7.5365781 42.178787,6.7134721 37.415978,8.0114634 33.67193,11.14118 c -1.297662,1.084741 -2.316832,2.464683 -3.475249,3.697025 -0.901308,1.597258 -1.996355,3.099752 -2.70392,4.791774 -1.51724,3.628212 -2.153018,7.434628 -1.988976,11.357708 0.07711,1.844051 0.317175,3.70255 0.83799,5.473208 1.34006,4.555908 2.668628,5.551403 5.50443,9.150445 1.378603,1.021072 2.622441,2.255227 4.13581,3.063216 4.754015,2.53817 10.268421,2.716451 14.951909,-0.147711 4.456242,-2.72519 4.951684,-4.835742 7.544387,-9.213501 0.575275,-2.058074 1.459005,-4.053983 1.725829,-6.174221 C 60.997655,26.83366 59.196541,19.831564 54.842486,15.089282 50.992976,10.896532 49.148547,10.954779 43.9842,9.123333 35.774886,8.8445225 39.717979,8.5543222 32.144216,9.8336369 31.447197,9.9526507 31.615509,10.938385 32.312528,10.819371 v 0 c 7.274808,-1.2559885 3.497662,-0.95966 11.341345,-0.752172 4.904217,1.692344 6.679362,1.63076 10.35475,5.574055 4.188666,4.493986 5.954336,11.212247 5.231727,17.231209 -0.244477,2.036365 -1.082963,3.956441 -1.624446,5.934662 -2.41772,4.157885 -2.877838,6.165128 -7.043563,8.787381 -4.358907,2.743856 -9.52043,2.622312 -13.997903,0.274423 -1.441582,-0.755935 -2.629688,-1.91915 -3.944532,-2.878724 -2.703166,-3.38976 -4.011758,-4.379281 -5.299967,-8.68271 -0.508891,-1.700019 -0.746418,-3.4862 -0.828013,-5.258877 -0.173719,-3.774186 0.421457,-7.431204 1.863024,-10.929472 0.668546,-1.622368 1.708351,-3.065562 2.562524,-4.598343 1.093271,-1.178333 2.05406,-2.495171 3.279814,-3.534997 3.501985,-2.9707908 7.96562,-4.2284291 12.471807,-3.4894667 0.483103,0.079223 0.940687,0.2715964 1.411029,0.4073948 0.642871,0.2944786 1.059328,-0.6146773 0.416456,-0.9091559 z" />
    <path
       style="fill:#ff0000;stroke-width:0.264583"
       id="path780"
       d="m 38.934321,5.4319667 c 2.108631,-2.7367648 3.296851,-6.02455867 4.553257,-9.2058648 0.120906,-0.1869784 0.241011,-0.3744783 0.36272,-0.5609346 0.08717,-0.1335469 -0.26488,0.2428285 -0.259107,0.4022037 0.01095,0.3022055 0.203229,0.5696397 0.304625,0.8545372 0.588614,1.6538398 1.148779,3.31690272 1.727558,4.9741876 -0.355868,-1.27914529 0.796499,2.2266266 0.47902,1.6014887 -0.173517,0.6854869 0.795909,0.9308753 0.969423,0.2453883 v 0 c 0.01418,-0.1333579 0.05674,-0.2667196 0.04252,-0.4000733 C 47.067767,2.9058928 46.6546,1.8199434 46.567449,1.5663773 45.805486,-0.61524173 46.194251,0.51442183 45.403335,-1.8233633 c -0.195982,-0.5628594 -0.362656,-1.1379372 -0.60385,-1.6829566 -0.348242,-0.7869182 -0.61775,-1.8703999 -1.795796,-1.3607317 -0.260657,0.1127696 -0.297471,0.4838864 -0.446207,0.7258296 -1.212421,3.0699566 -2.351995,6.2429925 -4.362878,8.900267 -0.475827,0.5230569 0.263887,1.1959783 0.739714,0.6729217 z" />
    <path
       style="fill:#ff0000;stroke-width:0.264583"
       id="path782"
       d="m 41.109548,2.7620521 c 1.003178,-0.234621 2.049332,-0.4211479 3.082692,-0.2603834 0.333896,0.051946 0.649292,0.1875039 0.973939,0.2812561 0.681871,0.1872281 0.94665,-0.7770805 0.264782,-0.9643087 v 0 C 45.030215,1.7131888 44.638901,1.5611895 44.22872,1.5023344 43.096947,1.3399415 41.953219,1.5371378 40.855093,1.7949673 40.171261,1.9748936 40.425716,2.9419785 41.109548,2.7620521 Z" />
    <path
       style="fill:#ff0000;stroke-width:0.264583"
       id="path786"
       d="m 111.52447,7.2261054 c -0.56086,-0.020198 -1.12225,-0.092 -1.6826,-0.060596 -2.21141,0.1239367 -3.88564,0.4629108 -6.00695,1.2643863 -1.20975,0.4570661 -2.41817,0.9547773 -3.51907,1.6333113 -1.233647,0.76035 -2.390231,1.658989 -3.44127,2.656651 -1.072346,1.017883 -1.930993,2.239488 -2.896486,3.359233 -0.694272,1.339623 -1.549329,2.60749 -2.082816,4.01887 -2.235197,5.913373 -1.5699,12.705977 1.36166,18.256396 0.703752,1.332433 1.681001,2.501368 2.5215,3.752053 1.011838,0.972193 1.915909,2.070735 3.035517,2.916584 3.109475,2.349172 7.128215,3.568576 11.003995,2.695329 3.48665,-0.785571 4.37274,-1.993024 7.1323,-4.15163 0.97521,-1.250944 2.09033,-2.404448 2.92564,-3.752836 1.78602,-2.883022 3.15749,-6.556341 3.8359,-9.864074 0.74203,-3.617899 0.9558,-7.591643 0.27274,-11.243764 -0.33725,-1.803239 -1.09523,-3.501732 -1.64284,-5.252597 -1.00184,-1.463973 -1.78381,-3.105694 -3.0055,-4.3919167 -2.61657,-2.7547982 -5.87539,-4.3457639 -9.51684,-5.2618541 -1.82915,-0.460167 -3.74063,-0.4877967 -5.61095,-0.7316951 -0.70138,-0.089761 -0.82832,0.9021495 -0.12694,0.9919104 v 0 c 1.7951,0.225188 3.62785,0.2460903 5.38531,0.6755643 3.43352,0.8390589 6.55909,2.3214132 9.04651,4.8942506 1.16485,1.2048416 1.9165,2.7497386 2.87474,4.1246086 0.53303,1.674463 1.26984,3.297255 1.59908,5.023391 0.67477,3.537581 0.47553,7.380822 -0.23433,10.88877 -0.64633,3.194037 -1.95958,6.742178 -3.66744,9.535022 -0.7856,1.284687 -1.83654,2.386933 -2.75481,3.5804 -2.52388,2.01309 -3.38113,3.175119 -6.57573,3.938445 -3.59522,0.859057 -7.34566,-0.253093 -10.249953,-2.42029 -1.067876,-0.796853 -1.931828,-1.835586 -2.897743,-2.753378 -0.807908,-1.189583 -1.746501,-2.300208 -2.423721,-3.568748 -2.82059,-5.283411 -3.497225,-11.766429 -1.398865,-17.422483 0.497917,-1.342117 1.301607,-2.550024 1.952411,-3.825035 0.917009,-1.073575 1.732452,-2.242983 2.751024,-3.220725 0.991965,-0.952204 2.082588,-1.813985 3.250297,-2.540038 1.05464,-0.655751 2.21444,-1.1356657 3.37446,-1.5790819 2.01197,-0.7690686 3.59683,-1.0983691 5.69507,-1.2256114 0.52272,-0.031699 1.04682,0.033595 1.57023,0.050393 0.69948,0.1035706 0.84595,-0.8856442 0.14647,-0.9892153 z" />
    <path
       style="fill:#ff0000;stroke-width:0.264583"
       id="path788"
       d="m 104.99843,-7.3154576 c 0.0562,0.3631284 0.11769,0.725475 0.16857,1.0893853 0.15756,1.1268551 0.3078,2.4040558 0.42708,3.5276816 0.13767,1.2968373 0.26368,2.5877552 0.28674,3.8915788 0.0132,0.7069839 1.013,0.6883473 0.99983,-0.018637 v 0 c -0.0261,-1.33562165 -0.15183,-2.6571815 -0.29296,-3.9858202 -0.11961,-1.126047 -0.27378,-2.4377467 -0.43251,-3.5681496 -0.0531,-0.3781827 -0.11744,-0.7547046 -0.17616,-1.1320571 -0.1386,-0.693389 -1.1192,-0.4973711 -0.98059,0.1960182 z" />
    <path
       style="fill:#ff0000;stroke-width:0.264583"
       id="path790"
       d="m 105.33218,-5.7088502 c 0.096,-0.2005455 0.16586,-0.415775 0.28784,-0.6016366 0.53627,-0.8171299 1.30344,-1.5598034 2.28449,-1.7859655 0.25932,-0.059782 0.53726,-0.084889 0.79779,-0.030573 0.20018,0.041737 0.35386,0.2050457 0.5308,0.3075683 0.0594,0.1696633 0.16206,0.3299521 0.17832,0.5089898 0.0704,0.7758322 -0.37158,1.4958356 -0.80827,2.0887793 -0.67313,0.9139928 -0.13886,0.032768 -0.58616,0.8113546 0.16757,0.2756691 0.24191,0.6371354 0.50272,0.827007 0.22475,0.1636178 0.54941,0.085936 0.82253,0.1377781 0.6111,0.1159965 2.12146,0.3671242 2.29664,1.1504718 0.0455,0.2033334 -0.14082,0.3921964 -0.21123,0.5882947 -0.27587,0.2698073 -0.50988,0.5904527 -0.82762,0.80942199 -1.4303,0.98571511 -3.31437,1.6393609 -5.0612,1.28338078 -0.34584,-0.0704766 -0.64095,-0.29573689 -0.96142,-0.44360532 -0.65109,-0.27584478 -1.04119,0.64492627 -0.39011,0.92077104 v 0 c 0.43947,0.17409511 0.85278,0.44080761 1.3184,0.52228521 1.42376,0.2491421 2.6954,-0.014028 4.01876,-0.57156479 0.64973,-0.27373328 1.29248,-0.60327012 1.83198,-1.05716312 0.4456,-0.37489629 0.71195,-0.92172089 1.06793,-1.38258129 -0.0179,-0.4502767 0.11453,-0.9328002 -0.0538,-1.3508302 -0.38276,-0.9507807 -2.0189,-1.3145756 -2.89313,-1.4596935 -0.1711,-0.028402 -0.38726,-0.158809 -0.51835,-0.045246 -0.13945,0.1207995 -0.0427,0.3665077 -0.064,0.5497618 0.25467,-0.5180947 -0.11684,0.1994715 0.54926,-0.7491066 0.19253,-0.2741811 0.39229,-0.5480426 0.53316,-0.8520155 0.322,-0.6948085 0.55839,-1.4977385 0.30389,-2.2705779 -0.11714,-0.355731 -0.42357,-0.6177791 -0.63536,-0.9266685 -0.33894,-0.1313791 -0.65648,-0.3462755 -1.01683,-0.3941373 -0.37243,-0.049467 -0.75973,0.00956 -1.12173,0.1100942 -1.20236,0.3339195 -2.15955,1.2472519 -2.79701,2.2881709 -0.15363,0.2508601 -0.23736,0.5383217 -0.35604,0.8074826 -0.14832,0.6913766 0.82944,0.9011296 0.97775,0.209753 z" />
    <path
       style="fill:#ff0000;stroke-width:0.264583"
       id="path798"
       d="m 56.072867,10.583516 c 3.249174,-1.6739221 6.664468,-3.0210571 10.172105,-4.0490967 1.190641,-0.3489598 2.400358,-0.6291755 3.600537,-0.943763 1.203153,-0.2136388 2.396601,-0.4919289 3.609459,-0.640916 2.900614,-0.3563112 5.865268,-0.3373271 8.65781,0.6152454 1.461092,0.498398 1.836891,0.8495524 3.035263,1.652924 0.705088,0.5470729 1.315656,1.1957172 1.920509,1.8473645 0.114711,0.1235861 0.42046,0.4739359 0.561679,0.5921549 0.109651,0.091791 0.233251,0.1654972 0.349877,0.2482459 0.733973,0.407584 1.579716,0.36393 2.388304,0.444905 0.137713,0.07134 -0.06681,-0.0013 -0.142566,-0.127716 -0.02802,-0.04674 -0.0213,-0.106893 -0.03195,-0.16034 -0.08273,0.70225 0.910399,0.81925 0.993132,0.117 v 0 c -0.0057,-0.09547 0.01691,-0.1970148 -0.01709,-0.2863932 C 91.038581,9.5480604 90.802041,9.4211652 90.467692,9.3555197 89.823842,9.2915167 89.147995,9.3308447 88.541496,9.078116 88.204253,8.8674196 88.069792,8.6738681 87.796615,8.3797531 87.139512,7.6722826 86.472944,6.971784 85.701255,6.384863 84.37243,5.5099658 83.966549,5.1339702 82.357197,4.5953129 79.424066,3.6135804 76.321662,3.5883918 73.279716,3.9652188 72.04044,4.1187367 70.821065,4.4040028 69.591739,4.6233947 68.372563,4.9435752 67.143703,5.2289294 65.934208,5.5839367 62.366104,6.6312359 58.891982,8.0037127 55.587656,9.7091261 54.96937,10.052231 55.454594,10.926621 56.072881,10.583516 Z" />
    <path
       style="fill:#ff0000;stroke-width:0.264583"
       id="path800"
       d="m 89.629103,7.270565 c 0.664578,0.5794774 1.252032,1.2451881 1.784485,1.9468226 0.252167,0.3322889 0.813978,1.1173234 0.98498,1.5478374 0.04909,0.123577 0.02885,0.264367 0.04328,0.396551 -0.06942,-0.06552 -0.115253,-0.175063 -0.208257,-0.196547 -0.2208,-0.05101 -0.453244,-0.003 -0.679788,-0.0086 -1.408986,-0.03469 -1.052873,-0.02595 -2.468412,-0.1275 -0.705313,-0.05033 -0.776499,0.947128 -0.07119,0.997463 v 0 c 0.633309,0.04497 2.004462,0.161816 2.631128,0.12584 0.396406,-0.02276 0.828733,0.01028 1.177599,-0.179321 0.290724,-0.157999 0.402074,-0.525621 0.60311,-0.788431 -0.05191,-0.236477 -0.06529,-0.484853 -0.155734,-0.709432 C 93.156248,9.9920508 92.983882,9.7352137 92.819269,9.4780885 92.112144,8.3735695 91.239328,7.3685214 90.262145,6.4964494 89.714762,6.0488202 89.08172,6.8229368 89.629103,7.270565 Z" />
    <path
       style="fill:#ff0000;stroke-width:0.264583"
       id="path804"
       d="m 78.750029,-7.2881018 c -0.243908,-0.4597329 -0.561165,-1.2399518 -0.985414,-1.556625 -0.164713,-0.1229476 -0.37003,-0.3045367 -0.566385,-0.2437804 -0.972942,0.3010471 -0.958006,1.0550347 -1.199497,1.8575829 -0.394483,1.7373777 -0.656622,3.5004324 -0.972746,5.252728 -0.148031,0.8205477 -0.389093,2.25902603 -0.669806,3.0926594 -0.107788,0.3201013 -0.282935,0.6134182 -0.424402,0.9201273 -0.291208,0.6443576 0.620051,1.0561908 0.911259,0.4118331 v 0 c 0.160883,-0.3622947 0.356823,-0.7109736 0.482648,-1.0868842 0.285623,-0.85333196 0.532545,-2.31848988 0.685419,-3.1658665 0.310034,-1.7184834 0.568248,-3.4472121 0.949796,-5.1521445 0.433448,-1.6644318 0.407241,-0.4618667 -0.02429,-1.1648612 -0.01722,-0.028043 0.04096,-0.091265 0.06759,-0.071943 0.120949,0.087744 0.209902,0.2144239 0.296582,0.3361373 0.226348,0.3178315 0.370401,0.6434087 0.541422,0.9904066 0.29654,0.6419222 1.204354,0.2225526 0.907814,-0.4193699 z" />
    <path
       style="fill:#ff0000;stroke-width:0.264583"
       id="path806"
       d="m 73.844932,-1.7165707 c 0.765432,-0.3477969 1.582608,-0.5705221 2.412315,-0.7002406 0.273471,-0.042755 0.55054,-0.057976 0.825809,-0.086964 0.703017,-0.075932 0.595633,-1.0701493 -0.107383,-0.9942175 v 0 c -0.306287,0.033825 -0.614617,0.052583 -0.918861,0.1014743 -0.925433,0.1487125 -1.835272,0.4033671 -2.685995,0.7994848 -0.62258,0.3352503 -0.148465,1.2157129 0.474115,0.880463 z" />
    <path
       style="fill:#ff0000;stroke-width:0.264583"
       id="path808"
       d="m 38.252262,20.106671 c 0.301633,0.06124 1.045194,0.210996 1.161214,-0.287617 0.118994,-0.511388 -0.152278,-0.84141 -0.575604,-0.946732 -0.149696,-0.03724 -0.308462,-0.0058 -0.462695,-0.0087 -0.151009,0.104479 -0.371594,0.148852 -0.453028,0.313437 -0.104873,0.21196 -0.11599,0.47984 -0.05212,0.707536 0.137057,0.48862 0.967579,0.966132 1.4527,0.956603 0.194281,-0.0038 0.375965,-0.09843 0.563947,-0.147645 0.122465,-0.169918 0.32213,-0.305252 0.367392,-0.509753 0.175413,-0.792519 -0.774946,-1.411449 -1.467906,-1.278527 -0.138668,0.0266 -0.259305,0.111837 -0.388956,0.167756 -0.06493,0.201927 -0.223607,0.395636 -0.194802,0.605782 0.02837,0.206989 0.325197,0.448181 0.542528,0.494055 0.0995,0.021 0.202967,0.01312 0.304454,0.01968 0.704164,-0.06443 0.61305,-1.060268 -0.09112,-0.99584 v 0 c 0.441002,0.12454 0.182211,0.406099 -0.0024,0.705747 -0.04785,8.2e-4 -0.102513,0.0271 -0.143544,0.0025 -0.03022,-0.01814 0.06692,-0.02631 0.102152,-0.02732 0.0049,-1.4e-4 0.271069,0.03565 0.301586,0.02388 0.0465,-0.01794 0.0678,-0.07703 0.113114,-0.0978 0.05283,-0.02421 0.114181,-0.02168 0.171271,-0.03252 0.0013,0.02891 0.032,0.0783 0.0043,0.08672 -0.212251,0.06454 -0.579085,-0.238649 -0.661926,-0.205159 -0.0801,0.03238 -0.100153,0.148248 -0.17525,0.190968 -0.05387,0.03064 -0.123587,0.0095 -0.18538,0.01418 -0.05181,-0.19742 -0.0019,0.06559 0.02857,-0.08699 0.03217,-0.16154 -0.02307,-0.348325 0.06018,-0.490455 0.208727,-0.356395 0.433059,-0.09321 0.213196,-0.09372 -0.07246,-1.67e-4 -0.14365,-0.01916 -0.215477,-0.02874 -0.67079,-0.223695 -0.987142,0.724947 -0.316351,0.948641 z" />
    <path
       style="fill:#ff0000;stroke-width:0.264583"
       id="path810"
       d="m 47.046901,20.141535 c -0.04996,-0.183725 -0.07763,-0.375016 -0.149868,-0.551176 -0.361061,-0.880499 -1.127213,-1.827871 -2.212136,-1.531457 -0.27508,0.07516 -0.494094,0.284851 -0.741143,0.427276 -0.180115,0.218818 -0.395875,0.412627 -0.540346,0.656453 -0.584261,0.986062 -0.543359,2.384069 0.22665,3.269028 0.182423,0.209655 0.438293,0.341804 0.657442,0.512706 0.280512,0.05792 0.55535,0.185658 0.841534,0.173776 1.013418,-0.04208 1.697077,-0.847383 2.052847,-1.714435 0.300384,-0.732073 0.257151,-1.033782 0.298682,-1.789958 -0.03898,-0.495602 0.06815,-1.562851 -0.997114,-0.23616 -0.121631,0.151479 0.07675,0.381082 0.125606,0.569107 0.171082,0.658479 0.18733,0.642023 0.437827,1.264228 0.20302,0.326641 0.310999,0.604203 0.660376,0.799739 0.131601,0.07365 0.289351,0.08516 0.434025,0.127732 0.700599,0.09572 0.835967,-0.895075 0.135369,-0.990795 v 0 c 0.177176,0.288928 -0.359439,-0.223957 -0.303519,-0.313584 -0.222814,-0.540781 -0.234148,-0.518828 -0.3878,-1.10384 -0.04521,-0.172148 0.03914,-0.434273 -0.116197,-0.521164 -1.250863,-0.699708 -1.034187,-0.196681 -0.987671,0.362316 -0.0057,0.218608 0.01209,0.4391 -0.01712,0.655824 -0.09259,0.687208 -0.41439,1.705648 -1.197165,1.900578 -0.130059,0.03239 -0.26806,2.06e-4 -0.40209,3.17e-4 -0.128987,-0.07542 -0.279543,-0.122399 -0.386961,-0.22626 -0.552961,-0.534639 -0.612857,-1.464663 -0.284155,-2.126772 0.07961,-0.160352 0.205746,-0.293033 0.308618,-0.43955 0.10559,-0.09829 0.338506,-0.375151 0.536348,-0.369081 0.407612,0.01251 0.750998,0.60477 0.897408,0.921634 0.05338,0.115516 0.07644,0.242751 0.114665,0.364126 0.06406,0.704199 1.05995,0.613599 0.995887,-0.0906 z" />
    <path
       style="fill:#ff0000;stroke-width:0.264583"
       id="path812"
       d="m 39.448202,29.455874 c -0.119401,-0.0636 -0.226229,-0.16106 -0.3582,-0.190807 -0.721935,-0.162729 -1.245042,0.230984 -1.142903,1.013802 0.06993,0.535953 0.379021,0.612521 0.771369,0.871 0.212887,-0.0062 0.439717,0.05757 0.638662,-0.01844 0.606592,-0.231789 0.872437,-0.969352 0.788191,-1.56545 -0.02178,-0.154062 -0.03958,-0.339535 -0.159493,-0.438682 -0.184687,-0.152707 -0.449271,-0.166941 -0.673905,-0.250412 -0.171934,0.172429 -0.395962,0.305319 -0.515805,0.517289 -0.296931,0.525193 -0.0051,1.772328 0.712372,1.844416 0.206643,0.02077 0.401445,-0.106632 0.602166,-0.159948 0.09587,-0.156666 0.232182,-0.294889 0.28761,-0.469998 0.123332,-0.38962 -0.05076,-0.750533 -0.238972,-1.072581 -0.368723,-0.603362 -1.222005,-0.08191 -0.853281,0.521454 v 0 c 0.07944,0.117445 0.118943,0.204094 0.268628,0.176916 0.08614,0.01942 0.182833,0.01265 0.258432,0.0583 0.03467,0.02093 0.06948,0.101351 0.03219,0.117163 -0.166198,0.07047 -0.185984,-0.543004 -0.187304,-0.544169 -0.06024,-0.05314 -0.160642,0.0021 -0.240964,0.0033 -0.114768,-0.09732 -0.241086,-0.182468 -0.344308,-0.29196 -0.01267,-0.01344 0.04743,-0.03513 0.05266,-0.01741 0.04153,0.14087 0.0047,0.319376 0.0114,0.46336 0.0019,0.04208 0.02238,0.08236 0.0218,0.124476 -5.29e-4,0.035 -0.01664,0.068 -0.02495,0.101999 -0.242507,0.115546 0.07631,-0.0024 -0.208788,-0.03858 -0.182502,-0.0232 -0.09762,0.153183 -0.29337,0.02985 -0.05576,-0.03513 0.03007,-0.442415 0.197096,0.01535 0.565851,0.424045 1.16554,-0.37619 0.599689,-0.800232 z" />
    <path
       style="fill:#ff0000;stroke-width:0.264583"
       id="path814"
       d="m 43.234625,27.387531 c 0.04483,1.819632 0.210027,3.634425 0.462862,5.43641 0.05698,0.440055 0.01881,0.627718 1.032865,0.07129 0.135877,-0.07456 0.02011,-0.309581 0.04105,-0.463145 0.05307,-0.389083 0.166997,-0.975498 0.281797,-1.343083 0.06355,-0.203505 0.155921,-0.396867 0.233881,-0.5953 0.08658,-0.09161 0.148188,-0.216151 0.259747,-0.274836 0.123785,-0.06512 0.280458,0.206119 0.306091,0.237707 0.314235,0.387231 0.3961,0.431192 0.628512,0.927852 0.09795,0.20932 0.16101,0.43326 0.241515,0.649891 0.02498,0.372152 0.13721,0.695584 -0.135044,1.011742 -0.274383,0.318635 -0.919379,0.254112 -1.239081,0.07536 -0.09142,-0.05111 -0.136728,-0.158705 -0.205094,-0.238056 0.152247,-0.230124 0.06561,-0.11313 0.264398,-0.34762 0.273201,-0.652198 -0.649145,-1.038561 -0.922345,-0.386366 v 0 c -0.304665,0.985891 -0.299675,0.481828 0.02966,1.511967 0.211561,0.146711 0.394497,0.347435 0.63468,0.440134 0.857761,0.331055 1.905574,0.06649 2.390098,-0.750292 0.352279,-0.593857 0.190365,-1.049726 0.116086,-1.67582 -0.250013,-0.632945 -0.340733,-1.006076 -0.778947,-1.543516 -0.361812,-0.443743 -0.799827,-0.843156 -1.427342,-0.825751 -0.623575,0.0173 -0.779558,0.413792 -1.096058,0.828058 -0.09085,0.239676 -0.197252,0.474022 -0.272555,0.719029 -0.132739,0.431882 -0.244509,1.041054 -0.306289,1.492851 -0.01807,0.132225 -0.149405,0.33297 -0.03341,0.398968 0.284112,0.161655 0.645131,0.155456 0.971354,0.134699 0.06538,-0.0042 -0.01685,-0.129929 -0.02529,-0.194895 -0.247057,-1.755838 -0.407458,-3.524247 -0.453133,-5.297273 0,-0.707107 -1.000001,-0.707107 -1.000001,0 z" />
    <path
       style="fill:#ff0000;stroke-width:0.264583"
       id="path816"
       d="m 40.688159,40.182871 c -0.494541,-0.494726 -1.223148,-0.795181 -1.746046,-0.0974 -0.301017,0.401687 -0.165812,0.67248 -0.09446,1.103868 0.09627,0.14298 0.157679,0.317082 0.288827,0.428942 0.576432,0.491652 1.207384,0.206333 1.573747,-0.362431 0.268079,-0.416182 0.204457,-0.578813 0.207272,-1.042967 -0.204166,-0.397801 -0.245517,-0.742942 -0.874138,-0.664935 -0.470337,0.05837 -0.69627,0.511694 -0.751935,0.907984 -0.06434,0.458068 0.08396,0.589873 0.288279,0.95894 0.142052,0.08775 0.263141,0.227129 0.426156,0.263239 0.45298,0.100341 0.72535,-0.115879 0.845405,-0.559358 0.07217,-0.266583 -0.12627,-0.49898 -0.243859,-0.67832 -0.36168,-0.607608 -1.220967,-0.09611 -0.859287,0.511492 v 0 c 0.02728,0.04196 0.04667,0.09026 0.08184,0.125876 0.04273,0.04328 -0.03946,-0.06669 0.04079,-0.155485 0.07949,-0.08794 0.162071,-0.188828 0.274672,-0.225875 0.24365,-0.08017 0.235461,0.03307 0.258802,0.152598 -0.173527,-0.06432 -0.08275,-0.178964 -0.195048,-0.24838 -0.08514,-0.05263 -0.509558,-0.12928 -0.289327,-0.319278 0.01635,0.04558 0.04933,0.08831 0.04909,0.136732 -2.64e-4,0.07769 -0.03145,0.152238 -0.0509,0.227459 -0.01318,0.05101 -0.05104,0.09842 -0.04692,0.15095 0.0056,0.07129 0.16496,0.175721 0.04601,0.196787 -0.03916,0.0069 -0.0686,-0.04025 -0.102904,-0.06037 -0.04746,-0.05523 -0.07863,-0.125585 -0.134832,-0.171884 -0.03153,-0.02598 -0.08436,-0.02358 -0.108868,-0.05627 -0.125783,-0.167765 0.38803,0.01828 0.410726,0.185385 0.500139,0.499859 1.20705,-0.207444 0.706911,-0.707305 z" />
    <path
       style="fill:#ff0000;stroke-width:0.264583"
       id="path818"
       d="m 46.36576,39.538367 c -0.12591,-0.08823 -0.23726,-0.202184 -0.37773,-0.264678 -0.794501,-0.353479 -1.396838,-0.04287 -1.760606,0.739997 -0.278572,0.599514 -0.217398,1.159909 -0.224824,1.793295 0.17463,0.717373 0.168965,1.067287 0.662805,1.649111 0.579744,0.683035 1.496898,0.976313 2.372227,0.804953 0.272296,-0.05331 0.518475,-0.197813 0.777714,-0.29672 0.210455,-0.191013 0.44954,-0.354597 0.631367,-0.573037 0.366787,-0.44064 0.711012,-1.240137 0.576548,-1.834121 -0.03737,-0.165095 -0.145216,-0.305816 -0.217826,-0.458727 -0.388898,-0.590558 -1.224073,-0.04057 -0.835176,0.549987 v 0 c 0.09727,-0.08263 0.107194,-0.117118 0.08495,0.188632 -0.03523,0.484346 -0.293108,0.873996 -0.630235,1.206609 -0.145918,0.07288 -0.280501,0.175334 -0.43775,0.218649 -0.269243,0.07416 -0.77029,0.07264 -1.036982,-0.03706 -0.599453,-0.246563 -0.819504,-0.837663 -0.947645,-1.41818 -0.01066,-0.716378 -0.04921,-0.619496 0.07942,-1.274099 0.0073,-0.03712 0.09817,-0.409921 0.144118,-0.432689 0.158538,-0.07855 0.324165,0.07793 0.432517,0.14518 0.499999,0.499999 1.207106,-0.207108 0.707107,-0.707107 z" />
    <path
       style="fill:#ff0000;stroke-width:0.264583"
       id="path820"
       d="m 105.00524,14.514067 c -0.0465,0.448571 -0.0476,1.116885 0.72536,1.011271 0.40581,-0.05545 0.5185,-0.614794 0.49723,-0.912101 -0.0101,-0.140774 -0.0761,-0.271829 -0.11409,-0.407743 -0.13571,-0.120843 -0.23727,-0.297965 -0.40713,-0.362528 -0.58056,-0.220666 -1.13803,0.249705 -1.20431,0.813403 -0.0614,0.522157 0.12284,0.59638 0.42256,0.966603 0.16179,0.06393 0.3128,0.169801 0.48536,0.191779 0.68722,0.08753 1.4302,-0.583952 1.04089,-1.288796 -0.0716,-0.129661 -0.22734,-0.189945 -0.34101,-0.284918 -0.35777,-0.087 -0.17842,-0.0784 -0.5379,-0.02878 -0.67101,0.223025 -0.35561,1.171982 0.3154,0.948957 v 0 c -0.20001,0.0069 -0.12476,0.03617 -0.23988,-0.0335 -0.0304,-0.05152 -0.0835,-0.09525 -0.0911,-0.154568 -0.0256,-0.200696 0.14515,-0.381591 0.12993,-0.191699 -0.008,0.09557 0.007,0.06231 -0.0847,0.105556 -0.0194,0.01896 -0.0314,0.05295 -0.0583,0.05689 -0.0252,0.0037 -0.322,-0.219583 -0.32833,-0.229976 -0.0273,-0.04488 -0.0242,-0.102229 -0.0363,-0.153344 0.0165,0.0075 0.0362,0.0101 0.0494,0.02257 0.0171,0.01629 0.0142,0.06312 0.0377,0.06013 0.0974,-0.01239 0.18398,-0.131796 0.2769,-0.10016 0.18386,0.0626 0.31718,0.225311 0.46404,0.352431 0.01,0.0083 -0.0198,0.0157 -0.0297,0.02355 0.001,-0.06264 0.003,-0.125287 0.004,-0.187931 0.15352,-0.69024 -0.82263,-0.90735 -0.97615,-0.217109 z" />
    <path
       style="fill:#ff0000;stroke-width:0.264583"
       id="path822"
       d="m 108.87787,15.110531 c 0.57151,-1.192579 1.0142,-2.539514 0.90174,-3.882861 -0.009,-0.106167 -0.0496,-0.207232 -0.0743,-0.310849 -0.33792,0.130897 -0.78393,0.112507 -1.01374,0.392692 -0.17316,0.211107 0.006,0.546206 0.02,0.818869 0.0667,1.270824 0.22932,2.531042 0.44757,3.783712 0.11502,0.509444 0.0373,0.283033 0.21137,0.686371 0.30789,0.636555 1.20812,0.201132 0.90023,-0.435424 v 0 c -0.11586,-0.16089 -0.0378,-0.03611 -0.12651,-0.422968 -0.21145,-1.20803 -0.35703,-2.419393 -0.43317,-3.643919 -0.0137,-0.219365 0.13401,-0.509903 -0.0277,-0.658786 -0.23565,-0.216993 -0.6226,-0.151108 -0.9339,-0.226661 0.14815,0.143838 0.0663,0.05059 0.0402,0.53489 -0.0534,0.990161 -0.32387,1.953711 -0.76331,2.84068 -0.3707,0.602145 0.48086,1.126399 0.85156,0.524254 z" />
    <path
       style="fill:#ff0000;stroke-width:0.264583"
       id="path824"
       d="m 105.85447,22.435018 c -0.1231,-0.384562 -0.37306,-0.9747 -0.90606,-0.918885 -0.21168,0.02217 -0.42717,0.135913 -0.56441,0.298609 -0.28342,0.336009 -0.0934,0.648729 0.0124,0.970636 0.10814,0.108898 0.18837,0.255678 0.32443,0.326694 0.49642,0.259117 1.09709,0.04649 1.34681,-0.448773 0.20799,-0.412494 0.12582,-0.53932 0.0546,-0.941616 -0.1645,-0.134337 -0.28447,-0.365343 -0.49349,-0.40301 -0.76789,-0.138384 -1.22287,0.892444 -1.06036,1.490257 0.0367,0.135136 0.13008,0.248041 0.19512,0.372061 0.12756,0.08021 0.2356,0.207914 0.38269,0.240638 0.47214,0.105037 0.90195,-0.213802 0.99263,-0.668992 0.0231,-0.116077 -0.0132,-0.236352 -0.0197,-0.354528 -0.16936,-0.686525 -1.14025,-0.44701 -0.97089,0.239515 v 0 c 0.01,-0.05276 0.005,-0.110197 0.0287,-0.158282 0.0772,-0.15646 0.39199,-0.0025 0.40903,0.13277 -0.0877,0.149372 -0.0726,-0.134609 -0.0698,-0.151637 0.007,-0.04196 0.0685,-0.09333 0.0371,-0.122076 -0.56572,-0.518852 0.045,0.503217 -0.39673,-0.357095 0.18381,0.140917 0.0471,0.02884 0.0793,0.188877 0.0122,0.06079 0.19321,0.132751 0.0677,0.194233 -0.2362,0.06643 -0.12533,0.230243 -0.49628,0.141696 -0.22762,-0.05433 -0.0995,-0.207007 -0.025,-0.09477 0.044,0.06618 0.0611,0.146674 0.0917,0.220011 0.13883,0.693344 1.11937,0.497007 0.98053,-0.196337 z" />
    <path
       style="fill:#ff0000;stroke-width:0.264583"
       id="path826"
       d="m 109.93701,22.553403 c 0.0275,-0.218411 0.0848,-0.725833 0.13973,-0.929139 0.03,-0.11094 0.0689,-0.222909 0.13382,-0.317737 0.026,-0.0379 0.11673,-0.104654 0.12435,-0.05936 0.0109,0.06444 -0.0748,0.107453 -0.10666,0.164482 -0.0288,0.05142 -0.05,0.106738 -0.0749,0.160107 0.21797,1.006983 0.0812,2.120525 -0.67015,2.883316 -0.10963,0.111308 -0.24657,0.191931 -0.36985,0.287896 -0.56405,0.32541 -1.08602,0.312345 0.0696,1.160539 0.12597,0.09246 0.30646,-0.0615 0.46057,-0.08731 0.52539,-0.08799 0.63538,-0.09229 1.17389,-0.151813 0.70505,-0.07651 1.42155,-0.168948 2.06242,-0.487212 0.62394,-0.332717 0.15341,-1.215099 -0.47053,-0.882382 v 0 c -0.14778,0.09481 -0.0778,0.06011 -0.33159,0.134079 -0.44744,0.130419 -0.90766,0.194787 -1.37075,0.241635 -0.57548,0.06429 -0.68818,0.06851 -1.2502,0.163287 -0.16432,0.02771 -0.43017,-0.06151 -0.49108,0.0936 -0.65714,1.673499 0.39002,0.809293 0.7849,0.586272 0.49601,-0.426769 0.68297,-0.515901 1.01577,-1.12718 0.42703,-0.784367 0.59093,-1.760475 0.42966,-2.64059 -0.0503,-0.274457 -0.17293,-0.530586 -0.25939,-0.795878 -0.20891,-0.178347 -0.36515,-0.451221 -0.62674,-0.535039 -0.21746,-0.06968 -0.47173,0.0136 -0.67484,0.117983 -0.55892,0.287249 -0.62217,1.393707 -0.69388,1.930158 -0.0638,0.704219 0.93208,0.7945 0.99592,0.09028 z" />
    <path
       style="fill:#ff0000;stroke-width:0.264583"
       id="path828"
       d="m 104.94717,32.251345 c 0.19986,-0.446249 0.35898,-0.930518 0.33981,-1.427398 -0.004,-0.107913 0.0418,-0.28209 -0.0599,-0.318402 -1.08001,-0.385585 -0.93756,-0.183044 -1.03221,0.463077 0.0221,0.155384 0.0183,0.316706 0.0662,0.466153 0.17267,0.538506 0.64384,1.044432 1.27428,0.939393 0.58027,-0.09668 0.66298,-0.374021 0.96843,-0.790922 0.0559,-0.191397 0.13911,-0.376854 0.16763,-0.574191 0.0392,-0.270989 0.0122,-0.761304 -0.18962,-0.990304 -0.12467,-0.141443 -0.29622,-0.326395 -0.48223,-0.295618 -0.70721,0.117012 -0.64447,0.481173 -0.70677,0.94362 0.0183,0.173614 0.15562,1.012092 0.43809,1.044136 0.74725,0.08477 0.8891,-0.09481 0.82205,-0.710105 -0.0121,-0.111268 -0.0968,-0.201837 -0.1452,-0.302757 -0.24923,-0.258906 -0.1494,-0.169206 -0.28327,-0.286144 -0.53256,-0.465164 -1.1904,0.287993 -0.65784,0.753157 v 0 c 0.0536,0.04678 0.0295,0.05212 0.07,0.0241 0.15567,0.09646 -0.19599,-0.103495 0.15682,-0.226364 0.21178,-0.07376 0.44995,-0.05347 0.67233,-0.02447 0.0428,0.0056 0.0744,0.155252 0.0513,0.118816 -0.0606,-0.0956 -0.092,-0.215286 -0.12668,-0.320807 -0.0577,-0.341919 0.0575,0.08525 -0.49287,-0.0338 -0.10423,-0.02254 -0.1463,-0.155633 -0.21176,-0.239816 -0.0217,-0.02783 0.0671,0.03673 0.0795,0.06975 0.028,0.0748 0.0366,0.157138 0.0353,0.237 -0.002,0.09515 -0.0291,0.188087 -0.0437,0.282133 -0.0141,0.03882 -0.0978,0.377873 -0.16096,0.397579 -0.23895,0.07455 -0.28857,-0.331838 -0.30142,-0.450546 -0.30494,-0.210002 -0.0182,-0.02331 -0.93221,-0.230346 -0.009,-0.0019 0.0259,-0.01042 0.0264,-0.0016 0.005,0.09494 0.001,0.190719 -0.0106,0.285059 -0.0364,0.288647 -0.078,0.380066 -0.16286,0.644869 -0.39229,0.588309 0.43971,1.143093 0.832,0.554784 z" />
    <path
       style="fill:#ff0000;stroke-width:0.264583"
       id="path830"
       d="m 109.97138,30.186116 c -0.0689,-0.233891 -0.12259,-0.523031 0.0465,-0.73415 0.0214,-0.02672 0.10613,-0.06608 0.0973,-0.03301 -0.003,0.01289 -0.17376,0.222911 -0.21065,0.268692 0.063,0.283022 0.10303,0.563901 0.0214,0.848363 -0.0203,0.07086 -0.0608,0.134347 -0.0912,0.201501 -0.0234,0.05166 -0.0719,0.09824 -0.0703,0.154924 0.005,0.188291 0.0602,0.371883 0.0904,0.557824 0.16114,0.08937 0.31763,0.187685 0.48341,0.268124 0.10849,0.05264 0.23044,0.07477 0.33752,0.130217 0.41266,0.213675 0.85414,0.568947 1.0742,0.986673 0.0513,0.09744 0.051,0.214276 0.0765,0.321414 -0.0492,0.02294 -0.0957,0.05248 -0.14749,0.0688 -0.0996,0.03141 -0.20297,0.0494 -0.30454,0.07373 -0.21564,0.05167 -0.42885,0.115033 -0.64709,0.154289 -0.66504,0.119616 -1.34448,0.154496 -2.01381,0.24451 -0.0437,0.0077 -0.0875,0.01537 -0.13119,0.02307 -0.69599,0.124878 -0.51939,1.10916 0.1766,0.984282 v 0 c 0.0295,-0.0054 0.059,-0.0109 0.0885,-0.01635 0.70996,-0.09637 1.44304,-0.117052 2.14355,-0.270881 0.57589,-0.126465 1.26194,-0.29361 1.62252,-0.836697 0.14,-0.210857 0.10755,-0.494644 0.16133,-0.741966 -0.0798,-0.207674 -0.12733,-0.430821 -0.23937,-0.623027 -0.33098,-0.567799 -0.92582,-1.013246 -1.50312,-1.302097 -0.12931,-0.0647 -0.26122,-0.148674 -0.40573,-0.153474 -0.0521,-0.0019 0.0435,0.09478 0.0652,0.142163 -0.005,0.132522 -0.0663,0.275519 -0.0144,0.397568 0.0301,0.07093 0.0666,-0.139242 0.0935,-0.211436 0.0536,-0.143677 0.11791,-0.285245 0.14813,-0.435607 0.0723,-0.359916 0.0697,-0.758344 -0.043,-1.110954 -0.0642,-0.200874 -0.18202,-0.380479 -0.27303,-0.570719 -0.18526,-0.12513 -0.33629,-0.332934 -0.55578,-0.375389 -0.7042,-0.136212 -1.06682,0.515488 -1.12294,1.086678 -0.0461,0.469001 0.0526,0.61277 0.19937,1.033016 0.37482,0.599593 1.22277,0.06952 0.84795,-0.530074 z" />
    <path
       style="fill:#ff0000;stroke-width:0.264583"
       id="path832"
       d="m 105.54918,41.930669 c -0.009,-0.362514 -0.0129,-1.018223 -0.34772,-1.26914 -0.15764,-0.118147 -0.36365,-0.260014 -0.55346,-0.207286 -0.65472,0.18188 -0.57176,0.590929 -0.61708,1.061617 0.0481,0.170918 0.0568,0.358273 0.14432,0.512755 0.33428,0.589896 1.0232,0.715952 1.54697,0.27519 0.39321,-0.330896 0.32496,-0.584065 0.36446,-1.037666 -0.0501,-0.149588 -0.0614,-0.318527 -0.15043,-0.448765 -0.23849,-0.348817 -0.61994,-0.535014 -1.03633,-0.232797 -0.33916,0.246171 -0.29164,0.733767 -0.21103,1.062249 0.0333,0.135798 0.10768,0.258088 0.16153,0.387131 0.0297,-0.172895 0.27131,0.58285 0.38711,0.42895 0.46335,-0.615812 0.68723,-1.101894 -0.045,-0.904213 -0.10482,0.0283 -0.18204,0.118369 -0.27306,0.177554 -0.51018,0.489616 0.18224,1.211111 0.69242,0.721497 v 0 c -0.1027,0.04315 -0.45,0.211394 -0.37272,0.01987 0.12613,-0.312555 0.37041,-0.563647 0.57128,-0.834292 0.0118,-0.01593 0.0779,0.239911 -0.0522,-0.02858 -0.0286,-0.04959 -0.0593,-0.09807 -0.0859,-0.148768 -0.0217,-0.04138 -0.013,-0.119446 -0.059,-0.127177 -0.0642,-0.01077 -0.10927,0.08608 -0.17434,0.08803 -0.0216,5.29e-4 -0.50415,0.01318 -0.42567,-0.224446 0.012,-0.03642 0.0491,0.05893 0.0737,0.08839 0.0215,0.02466 0.0527,0.04346 0.0646,0.07395 0.0136,0.03498 7.9e-4,0.07552 0.008,0.112358 0.007,0.03324 0.0259,0.063 0.0329,0.09615 0.0545,0.259062 -0.19121,0.09542 -0.16181,-0.03671 -0.0875,-0.341445 0.0581,0.02154 -0.39611,-0.08237 -0.41774,-0.09557 -0.18248,-0.429067 -0.0997,0.07449 0.0164,0.09968 0.0128,0.201631 0.0192,0.302447 -0.0704,0.703591 0.92461,0.803172 0.99503,0.09958 z" />
    <path
       style="fill:#ff0000;stroke-width:0.264583"
       id="path834"
       d="m 108.43078,39.555708 c -0.36379,0.660953 -0.68602,1.35649 -0.86319,2.093711 -0.098,0.407713 -0.20846,0.991841 -8e-4,1.402295 0.1139,0.22521 0.33901,0.373956 0.50851,0.560935 0.26156,0.05658 0.51709,0.167322 0.7847,0.169743 0.76697,0.0069 1.98442,-0.597574 2.52786,-1.144323 0.1009,-0.101507 0.17564,-0.226017 0.26346,-0.339026 0.41669,-0.571283 -0.39122,-1.160582 -0.80792,-0.589301 v 0 c -0.0362,0.05699 -0.0628,0.121282 -0.10855,0.170979 -0.51508,0.560199 -1.3019,0.793324 -2.0168,0.965853 -0.22047,-0.01609 -0.26999,0.03445 -0.27816,-0.317995 -0.005,-0.195558 0.0381,-0.390488 0.0823,-0.581033 0.15156,-0.652856 0.43548,-1.268166 0.7522,-1.854768 0.37977,-0.596472 -0.46377,-1.133541 -0.84353,-0.53707 z" />
    <path
       style="fill:#ff0000;stroke-width:0.264583"
       id="path836"
       d="m 109.94654,41.159025 c 0.0314,0.8988 -0.009,1.789639 -0.11175,2.682054 -0.0804,0.702522 0.91314,0.8162 0.99352,0.113676 v 0 c 0.10568,-0.930135 0.15087,-1.859137 0.11824,-2.79573 0,-0.707107 -1.00001,-0.707107 -1.00001,0 z" />
    <path
       style="fill:#ff0000;stroke-width:0.264583"
       id="path840"
       d="m 51.31885,21.166875 c 4.565941,-0.423572 9.136774,-0.796902 13.70127,-1.235894 3.051392,-0.293468 7.751022,-0.793318 10.798779,-1.113136 3.848007,-0.375821 7.694818,-0.837634 11.560939,-0.994117 1.412039,-0.05715 2.822998,0.0013 4.235053,-0.005 0.577313,-0.04027 0.560007,-0.0077 1.04829,-0.135513 0.07218,-0.01889 0.139814,-0.05277 0.211825,-0.07228 0.03298,-0.0089 -0.04993,0.02728 0.0064,0.04639 0.0992,0.03367 0.202682,0.05309 0.304022,0.07964 0.957583,0.147156 1.935351,0.237579 2.905427,0.237331 0.315119,-8e-5 0.629896,-0.02066 0.944843,-0.031 0.793795,-0.08058 1.60519,-0.111024 2.370148,-0.35356 0.670074,-0.225829 0.350705,-1.173459 -0.319371,-0.94763 v 0 c -0.637415,0.2391 -1.422077,0.196735 -2.08489,0.301772 -0.29137,0.01036 -0.582554,0.03078 -0.874107,0.03109 -0.897805,9.26e-4 -1.800785,-0.08432 -2.689121,-0.205486 -0.182933,-0.04773 -0.463982,-0.132551 -0.656561,-0.137579 -0.387686,-0.01012 -0.769504,0.345334 -1.171533,0.186838 -1.430475,0.0068 -2.85918,-0.05131 -4.289734,0.0068 -3.881152,0.157626 -7.74301,0.620113 -11.605985,0.997817 -3.03434,0.318414 -7.745963,0.819507 -10.784644,1.111755 -4.563258,0.438874 -9.132848,0.812098 -13.697548,1.235563 -0.704456,0.06117 -0.61795,1.05742 0.08651,0.996251 z" />
    <path
       style="fill:#ff0000;stroke-width:0.264583"
       id="path842"
       d="m 100.12421,15.311881 c 0.6173,0.554322 1.29853,1.035447 1.92351,1.579906 0.15809,0.137723 0.33793,0.261899 0.45097,0.438486 0.0291,0.04554 -0.10859,0.02396 -0.16164,0.01351 -0.1219,-0.024 -0.23633,-0.07676 -0.3545,-0.115136 -1.55001,0.46621 -0.76009,0.217784 -2.368874,0.748108 -0.671541,0.221427 -0.358396,1.171133 0.313145,0.949706 v 0 c 1.643549,-0.54207 0.807549,-0.272999 2.508369,-0.806119 0.30053,-0.250911 0.72582,-0.402906 0.90158,-0.752735 0.26605,-0.529533 -0.38212,-1.010683 -0.66188,-1.254701 -0.61852,-0.539512 -1.29378,-1.015246 -1.90478,-1.564448 -0.53982,-0.456721 -1.185718,0.3067 -0.6459,0.763422 z" />
    <path
       style="fill:#ff0000;stroke-width:0.264583"
       id="path844"
       d="m 52.434812,28.80307 c 7.44855,-0.680513 14.924442,-0.914984 22.397466,-1.136202 3.578931,-0.110633 7.163194,-0.162081 10.735593,-0.426824 1.162619,-0.08616 2.523715,-0.216746 3.690622,-0.43353 0.361601,-0.06717 0.715497,-0.170699 1.073243,-0.256048 0.224102,-0.0847 0.457256,-0.148497 0.672304,-0.254084 0.254166,-0.124793 0.609515,-0.372743 0.625448,-0.707741 0.01389,-0.291859 -0.320487,-1.058522 -0.856152,-0.594406 -0.198276,0.171793 -0.09508,0.51601 -0.142616,0.774014 0.120915,0.11376 0.224158,0.249875 0.362749,0.341278 0.522672,0.344709 1.280883,0.332989 1.871642,0.30962 0.83035,-0.03285 1.305827,-0.123578 2.1404,-0.242132 1.311894,-0.204393 2.585174,-0.593284 3.884488,-0.856388 0.532661,-0.107861 1.056526,-0.174835 1.594061,-0.251667 0.67084,-0.08559 1.34173,-0.173202 2.00707,-0.29538 0.0568,-0.01043 0.17253,0.02141 0.1694,-0.03625 -0.0183,-0.337611 -0.15004,-0.659361 -0.22506,-0.989041 -0.7071,-0.0022 -0.71019,0.997807 -0.003,0.999995 v 0 c 0.006,-0.329431 0.0547,-0.661048 0.0165,-0.988293 -0.005,-0.04365 -0.0855,0.02038 -0.12877,0.02833 -0.15599,0.02869 -0.3121,0.05689 -0.46877,0.08156 -0.55583,0.08751 -0.94376,0.134702 -1.50902,0.209185 -0.598679,0.0859 -1.082872,0.146824 -1.677411,0.267235 -1.271514,0.257517 -2.517641,0.637297 -3.800772,0.840766 -0.880983,0.126568 -1.75718,0.269519 -2.650775,0.231991 -0.134747,-0.0057 -0.2681,-0.02963 -0.402151,-0.04444 -0.07549,-0.02386 -0.147836,-0.06235 -0.226465,-0.07157 -0.02085,-0.0024 -0.03285,0.02615 -0.04927,0.03922 -0.186701,0.368154 -0.236945,0.882948 -0.827435,0.389299 -0.09894,-0.08272 -0.07412,-0.257259 -0.04908,-0.383772 0.01278,-0.06458 0.194823,-0.176602 0.150365,-0.128048 -0.0491,0.05362 -0.09946,0.110642 -0.164383,0.14336 -0.17494,0.08815 -0.364609,0.143381 -0.546915,0.215072 -0.329189,0.07979 -0.654611,0.177156 -0.98757,0.239371 -1.140079,0.213025 -2.465988,0.34 -3.601374,0.424238 -3.562651,0.264325 -7.137196,0.31495 -10.706364,0.42553 -7.478271,0.221406 -14.959563,0.455234 -22.413307,1.136798 -0.706376,0.03212 -0.660945,1.031092 0.04543,0.998966 z" />
    <path
       style="fill:#ff0000;stroke-width:0.264583"
       id="path846"
       d="m 99.606459,22.761734 c 0.615441,0.464272 1.297041,0.832991 1.912351,1.297318 0.14213,0.107259 0.30075,0.20367 0.40569,0.347522 0.0325,0.04448 -0.11092,-0.0033 -0.16433,-0.01668 -0.10787,-0.02702 -0.21134,-0.06926 -0.31701,-0.103891 -1.15656,0.358793 -2.292848,0.771601 -3.422834,1.205419 -0.660056,0.253627 -0.301373,1.187088 0.358683,0.93346 v 0 c 1.186071,-0.456163 2.385341,-0.868476 3.585671,-1.285642 0.26497,-0.261175 0.65499,-0.438785 0.7949,-0.783525 0.20666,-0.509201 -0.38715,-0.904302 -0.67343,-1.120147 -0.60493,-0.456091 -1.27356,-0.819951 -1.87994,-1.274023 -0.565821,-0.424087 -1.165571,0.3761 -0.599751,0.800187 z" />
    <path
       style="fill:#ff0000;stroke-width:0.264583"
       id="path848"
       d="m 53.012284,40.537212 c 0.221244,-0.06697 0.439481,-0.144828 0.663731,-0.200917 1.016614,-0.254278 2.353773,-0.506452 3.345093,-0.682355 2.141085,-0.379923 3.544173,-0.597652 5.75043,-0.868286 1.126987,-0.138245 2.257412,-0.246862 3.386119,-0.37029 1.107027,-0.08935 2.212448,-0.201512 3.321081,-0.268049 2.119043,-0.127177 3.676127,-0.137308 5.775646,-0.106958 3.461734,0.05004 1.577046,0.07384 4.911418,0.153088 0.793826,0.01887 1.587992,0.01852 2.381988,0.02777 2.747856,-0.0442 5.505042,-0.151043 8.227266,-0.555107 1.045324,-0.155157 1.862804,-0.336613 2.886522,-0.547177 1.017894,-0.230759 2.019898,-0.525475 2.992334,-0.904964 0.234662,-0.09157 0.463548,-0.197406 0.697357,-0.291137 0.52287,-0.209609 0.567648,-0.216308 1.080506,-0.386446 0.397713,-0.05855 0.781277,-0.270906 1.188079,-0.281469 0.106858,-0.0028 0.211911,0.02832 0.317641,0.04405 0.666325,0.0365 0.814975,-0.08435 0.297905,-1.033079 -0.0531,-0.09736 -0.21906,-0.03452 -0.328586,-0.05179 -0.699694,-0.102129 -0.844127,0.887387 -0.144434,0.989516 v 0 c 0.54913,0.07007 0.01159,0.0719 0.27043,-0.866267 0.017,-0.0615 0.13749,0.01418 0.19015,-0.02183 0.0408,-0.02786 -0.0986,-0.0047 -0.14792,-0.007 -0.229951,-0.03037 -0.357155,-0.05715 -0.596177,-0.04357 -0.466981,0.02653 -0.907671,0.238921 -1.362776,0.322617 -1.192575,0.397827 -2.310093,0.924237 -3.526449,1.263528 -0.374345,0.10442 -0.753115,0.192278 -1.129672,0.288417 -0.980565,0.201996 -1.809885,0.385633 -2.808108,0.53426 -2.677507,0.398658 -5.38965,0.502933 -8.092472,0.547555 -0.785889,-0.0091 -1.571947,-0.0085 -2.357667,-0.02719 -3.306432,-0.07863 -1.503926,-0.104825 -4.944528,-0.153728 -2.131997,-0.0303 -3.707112,-0.01926 -5.858963,0.110202 -1.118063,0.06727 -2.232887,0.180488 -3.349331,0.270732 -1.137719,0.124539 -2.277171,0.234116 -3.413151,0.373621 -2.217333,0.272298 -3.648649,0.494141 -5.801366,0.876612 -1.038979,0.184592 -2.393563,0.440404 -3.44983,0.708184 -0.246989,0.06262 -0.487233,0.149333 -0.730851,0.224001 -0.660082,0.253558 -0.301498,1.187056 0.358585,0.933498 z" />
    <path
       style="fill:#ff0000;stroke-width:0.264583"
       id="path850"
       d="m 98.59725,33.512252 c 0.480452,0.121232 0.973376,0.241985 1.40397,0.498877 0.19103,0.113969 0.41331,0.252955 0.44492,0.499967 0.009,0.06974 -0.0339,0.136469 -0.0509,0.204705 -0.34282,0.771086 -0.768418,1.502223 -1.184271,2.235685 -0.177623,0.257624 -0.261218,0.534379 -0.327832,0.834943 -0.124894,0.695989 0.859382,0.872617 0.984279,0.176627 v 0 c 0.0078,-0.194452 0.119718,-0.352464 0.213464,-0.518363 0.19365,-0.341569 0.38194,-0.685472 0.5712,-1.029475 0.17757,-0.322766 0.4282,-0.736934 0.55516,-1.081765 0.0803,-0.218125 0.12435,-0.447937 0.18653,-0.671907 -0.033,-0.22642 -0.0162,-0.465923 -0.0989,-0.679257 -0.35946,-0.927134 -1.654145,-1.226269 -2.501809,-1.450678 -0.693417,-0.138468 -0.889238,0.842174 -0.195821,0.980641 z" />
  </g>
</svg>
