<?xml version="1.0" encoding="UTF-8" standalone="no"?>
<!-- Created with Inkscape (http://www.inkscape.org/) -->

<svg
   width="169.97647mm"
   height="104.07208mm"
   viewBox="0 0 169.97647 104.07208"
   version="1.1"
   id="svg5"
   inkscape:version="1.2.2 (b0a8486541, 2022-12-01)"
   sodipodi:docname="vücut-simetrileri.svg"
   xmlns:inkscape="http://www.inkscape.org/namespaces/inkscape"
   xmlns:sodipodi="http://sodipodi.sourceforge.net/DTD/sodipodi-0.dtd"
   xmlns="http://www.w3.org/2000/svg"
   xmlns:svg="http://www.w3.org/2000/svg">
  <sodipodi:namedview
     id="namedview7"
     pagecolor="#ffffff"
     bordercolor="#000000"
     borderopacity="0.25"
     inkscape:showpageshadow="2"
     inkscape:pageopacity="0.0"
     inkscape:pagecheckerboard="0"
     inkscape:deskcolor="#d1d1d1"
     inkscape:document-units="mm"
     showgrid="false"
     showguides="true"
     inkscape:zoom="0.5229713"
     inkscape:cx="254.31606"
     inkscape:cy="315.50488"
     inkscape:window-width="1916"
     inkscape:window-height="1026"
     inkscape:window-x="0"
     inkscape:window-y="0"
     inkscape:window-maximized="1"
     inkscape:current-layer="layer1" />
  <defs
     id="defs2" />
  <g
     inkscape:label="Layer 1"
     inkscape:groupmode="layer"
     id="layer1"
     transform="translate(-19.908792,-9.2688662)">
    <path
       style="fill:#0000ff;stroke-width:0.264583"
       id="path72"
       d="m 55.368377,12.005592 c 0.07911,0.264133 0.180753,0.52254 0.237321,0.792401 0.338704,1.615811 0.347093,3.285076 0.501933,4.922338 0.05235,0.553483 0.08997,1.110068 0.189219,1.657089 0.07001,0.385849 0.211342,0.755286 0.317013,1.132929 0.279258,0.15595 0.527955,0.547338 0.837775,0.467852 1.111821,-0.285248 1.587857,-2.05396 1.882862,-2.816019 0.63536,-1.641261 0.848272,-2.523922 1.49311,-4.141468 0.202438,-0.507804 0.443746,-0.999237 0.665617,-1.498856 0.175329,-0.310367 0.35066,-0.620733 0.525992,-0.931099 0.346498,-0.616391 -0.525209,-1.106416 -0.87171,-0.490025 v 0 c -0.189499,0.338633 -0.378999,0.677265 -0.568499,1.015898 -0.230304,0.520523 -0.480129,1.032839 -0.690912,1.561567 -0.397626,0.997402 -1.105022,3.112956 -1.477732,4.101914 -0.207455,0.550474 -0.480571,1.076486 -0.660273,1.636635 -0.454835,1.417763 0.207719,0.09639 -0.174787,0.8186 -0.09498,-0.32386 -0.224639,-0.63951 -0.284935,-0.971581 -0.09713,-0.534915 -0.134543,-1.079128 -0.185703,-1.620377 -0.161652,-1.710189 -0.167637,-3.455803 -0.543388,-5.140117 -0.07192,-0.322412 -0.199011,-0.629988 -0.298519,-0.944982 -0.31629,-0.632425 -1.210672,-0.185124 -0.894384,0.447301 z" />
    <path
       style="fill:#0000ff;stroke-width:0.264583"
       id="path76"
       d="m 62.634544,15.643444 c -0.162522,0.895303 -0.463068,2.00896 -0.221824,2.907111 0.05185,0.193028 0.157473,0.367416 0.236207,0.551124 0.162785,0.138047 0.286766,0.344011 0.488352,0.414142 1.081053,0.376092 2.161511,-0.785949 2.688069,-1.568622 0.145227,-0.215865 0.253574,-0.454373 0.38036,-0.68156 0.204374,-0.471424 0.437171,-0.954694 0.459221,-1.478922 0.0039,-0.09316 0.02257,-0.19834 -0.02482,-0.278636 -0.09585,-0.162331 -0.196323,-0.404011 -0.384537,-0.414694 -0.250674,-0.01423 -0.442833,0.236774 -0.66425,0.35516 -0.21169,0.657764 -0.407643,1.977433 0.08374,2.543158 0.158388,0.18235 0.396701,0.275647 0.595048,0.413471 1.001282,1.7e-4 0.529712,0.09117 1.419548,-0.246646 0.653227,-0.270724 0.270365,-1.19453 -0.382863,-0.923805 v 0 c -0.441748,0.210107 -0.246231,0.117783 -0.586226,0.277653 -0.04928,0.01288 -0.105225,0.06655 -0.147842,0.03865 -0.343273,-0.224716 -0.16034,-1.252473 -0.115228,-1.60273 -0.659514,0.121953 -0.42059,0.236085 -0.8059,-0.289099 -0.0047,-0.0065 0.01971,0.0056 0.01984,0.01364 0.0013,0.07069 -7.94e-4,0.142453 -0.01593,0.211494 -0.07483,0.339454 -0.19182,0.573998 -0.326911,0.901052 -0.09777,0.182935 -0.180819,0.374533 -0.293307,0.548805 -0.249012,0.385783 -0.510923,0.680934 -0.864108,0.971478 -0.114152,0.0939 -0.253838,0.153254 -0.369017,0.245898 -0.04457,0.03584 -0.05389,0.110287 -0.105203,0.13554 -0.04324,0.02128 -0.096,-0.0086 -0.143997,-0.01291 -0.05017,-0.0889 -0.119814,-0.169347 -0.150516,-0.266702 -0.105789,-0.335429 -0.07777,-0.652459 -0.04767,-0.997801 0.04612,-0.529133 0.146505,-1.052329 0.260403,-1.570352 0.13852,-0.693407 -0.842106,-0.889302 -0.980623,-0.195895 z" />
    <path
       style="fill:#0000ff;stroke-width:0.264583"
       id="path82"
       d="m 64.291341,14.07566 c 0.784644,0.161307 0.388089,0.09715 1.189795,0.191693 0.702476,0.08077 0.816705,-0.912682 0.114228,-0.993454 v 0 c -0.6858,-0.07651 -0.349199,-0.02448 -1.010118,-0.154074 -0.675878,-0.207822 -0.969783,0.748013 -0.293905,0.955835 z" />
    <path
       style="fill:#0000ff;stroke-width:0.264583"
       id="path84"
       d="m 71.847651,14.117519 c -1.175131,0.329217 -2.748341,1.047325 -3.332226,2.188483 -0.126632,0.247492 -0.15602,0.533677 -0.234029,0.800515 0.07301,0.283808 0.07133,0.598314 0.219024,0.851424 0.69019,1.18283 2.490158,1.29222 3.655076,0.969855 0.313862,-0.08685 0.601737,-0.249247 0.902602,-0.373871 0.649325,-0.279963 0.253397,-1.198245 -0.395925,-0.918282 v 0 c -0.22512,0.102161 -0.439327,0.23296 -0.675357,0.306483 -0.783206,0.243965 -1.894472,0.276412 -2.545683,-0.323391 -0.08203,-0.07556 -0.125216,-0.184584 -0.187825,-0.276876 0.02231,-0.147436 0.0065,-0.306005 0.06691,-0.442307 0.412028,-0.928737 1.804482,-1.533612 2.723325,-1.801408 0.693407,-0.138518 0.497512,-1.119143 -0.195895,-0.980625 z" />
    <path
       style="fill:#0000ff;stroke-width:0.264583"
       id="path86"
       d="m 74.588541,13.879752 c -0.729932,0.952239 -1.403411,2.34729 -1.076439,3.578037 0.06136,0.230975 0.205002,0.431781 0.307504,0.647671 0.212699,0.139742 0.391134,0.357762 0.638096,0.419225 0.643221,0.160083 1.221203,-0.137382 1.708957,-0.510784 0.527881,-0.404124 0.95051,-0.990193 1.263827,-1.567055 0.152233,-0.280278 0.255569,-0.58447 0.383355,-0.876705 0.07522,-0.268084 0.163809,-0.532773 0.225663,-0.804253 0.01352,-0.0593 0.243411,-1.337209 0.05945,-1.394411 -1.036833,-0.3224 -0.937223,-0.114378 -1.242412,0.530021 -0.360378,1.066743 -0.913251,3.102555 0.247613,3.901722 0.253318,0.17439 0.581891,0.199323 0.872834,0.298985 0.284573,-0.03342 0.569146,-0.06684 0.853721,-0.100259 0.697865,-0.113947 0.536718,-1.100878 -0.161147,-0.98693 v 0 c -0.153636,0.03813 -0.307274,0.07626 -0.460912,0.114393 -0.120299,0.0017 -0.247508,0.04541 -0.360897,0.0052 -0.311095,-0.110349 -0.416264,-0.458577 -0.443701,-0.746452 -0.06472,-0.679078 0.163523,-1.445555 0.367908,-2.084139 0.223464,-0.58494 0.207171,-0.227477 -0.624922,-0.626165 -0.01257,-0.006 0.02265,-0.0488 0.02307,-0.03487 0.0033,0.107891 -0.0024,0.216231 -0.01413,0.323519 -0.01982,0.179158 -0.04276,0.358491 -0.0808,0.534682 -0.04913,0.227531 -0.120206,0.449762 -0.180308,0.674643 -0.102495,0.244429 -0.185582,0.497936 -0.307489,0.733286 -0.337526,0.65162 -0.784211,1.192694 -1.406321,1.584664 -0.08743,0.05509 -0.179697,0.106613 -0.279043,0.135051 -0.06471,0.01852 -0.134598,0.0017 -0.201898,0.0026 -0.06471,-0.09472 -0.15793,-0.175298 -0.194138,-0.284145 -0.313237,-0.941627 0.29283,-2.08579 0.841666,-2.816573 0.460304,-0.53677 -0.298804,-1.187736 -0.759105,-0.650966 z" />
    <path
       style="fill:#0000ff;stroke-width:0.264583"
       id="path88"
       d="m 82.446769,11.392607 c 0.170847,-0.492363 0.287549,-1.009576 0.49571,-1.488877 0.01669,-0.038446 0.118827,-0.096567 0.07701,-0.099407 -1.087366,-0.073846 -0.86606,-0.1590751 -0.967364,0.677066 -0.207201,1.512869 -0.602803,2.990721 -0.844114,4.497629 -0.127571,0.796653 -0.318576,2.027271 -0.176297,2.863355 0.06132,0.360359 0.249815,0.687073 0.374724,1.03061 0.284946,0.220502 0.515927,0.539214 0.854835,0.661505 0.755076,0.272461 1.657337,0.0222 2.350452,-0.261471 0.341445,-0.139743 0.647581,-0.35368 0.97137,-0.53052 0.617376,-0.344743 0.129837,-1.217843 -0.487539,-0.8731 v 0 c -0.713759,0.409391 -0.831636,0.542737 -1.640258,0.743388 -0.21281,0.05281 -0.434557,0.101881 -0.652809,0.08082 -0.166918,-0.01611 -0.310867,-0.125875 -0.466302,-0.188813 -0.101576,-0.228381 -0.259914,-0.439243 -0.304731,-0.685144 -0.141698,-0.777453 0.04235,-1.924881 0.159186,-2.655052 0.245547,-1.534552 0.650693,-3.039268 0.856226,-4.580828 0.07801,-0.8735642 0.366059,-1.125288 -0.872574,-1.3139007 -0.112956,-0.017201 -0.126506,0.1915485 -0.17298,0.2959285 -0.219593,0.4931842 -0.332248,1.0319372 -0.512275,1.5391542 -0.203404,0.67722 0.754329,0.964878 0.957733,0.287658 z" />
    <path
       style="fill:#0000ff;stroke-width:0.264583"
       id="path90"
       d="m 79.58149,16.669356 c 1.458103,-0.30902 2.90824,-0.653207 4.363202,-0.976798 0.690239,-0.153522 0.473128,-1.129668 -0.217112,-0.976146 v 0 c -1.447938,0.32207 -2.891126,0.664354 -4.342096,0.972342 -0.69339,0.138596 -0.497384,1.119199 0.196006,0.980602 z" />
    <path
       style="fill:#0000ff;stroke-width:0.264583"
       id="path92"
       d="m 104.55045,10.420427 c -0.21326,-0.06218 -0.41804,-0.173184 -0.63977,-0.18655 -0.9446,-0.05694 -1.95784,0.441853 -2.56837,1.14768 -0.2125,0.245672 -0.41555,0.523025 -0.49922,0.83689 -0.089,0.333849 -1.4e-4,0.691017 -2.1e-4,1.036525 0.16399,0.31619 0.27551,0.665712 0.49199,0.948571 0.473,0.618043 1.19308,1.040865 1.8086,1.485536 0.41196,0.297618 1.05246,0.676802 1.28864,1.188787 0.0676,0.146487 0.0152,0.322285 0.0228,0.483428 -0.11893,0.130811 -0.21595,0.285553 -0.35678,0.392432 -0.23524,0.178542 -0.48217,0.355307 -0.76008,0.455222 -1.42251,0.511431 -3.0737,0.439403 -4.495954,-0.0225 -0.402661,-0.130772 -0.765029,-0.362871 -1.147542,-0.544307 -0.163285,-0.186223 -0.410935,-0.323909 -0.489855,-0.55867 -0.03311,-0.09848 0.139245,-0.161447 0.232108,-0.208046 0.186976,-0.09382 0.395629,-0.136136 0.592844,-0.205912 0.318161,-0.112568 0.635511,-0.227408 0.953265,-0.341112 0.662463,-0.247269 0.312774,-1.184134 -0.34969,-0.936865 v 0 c -0.721087,0.278273 -1.7805,0.537365 -2.184495,1.329924 -0.468656,0.919413 0.324541,1.337935 0.826638,1.828583 0.455131,0.205309 0.888399,0.468358 1.36539,0.615926 1.150311,0.355879 2.403591,0.475997 3.599051,0.312968 0.96874,-0.132111 2.06428,-0.431069 2.72818,-1.231914 0.24795,-0.299084 0.31365,-0.710869 0.47048,-1.066304 -0.0798,-0.314827 -0.0892,-0.656484 -0.23935,-0.944479 -0.15141,-0.29045 -0.40037,-0.52259 -0.64118,-0.744626 -0.87541,-0.807189 -2.12854,-1.219747 -2.71829,-2.316871 -0.0405,-0.15735 -0.14546,-0.311315 -0.12164,-0.472048 0.0986,-0.665075 0.90908,-1.173503 1.47161,-1.383967 0.36082,-0.134999 0.44649,-0.110546 0.76113,-0.09807 0.56585,0.424043 1.16554,-0.376191 0.59969,-0.800234 z" />
    <path
       style="fill:#0000ff;stroke-width:0.264583"
       id="path94"
       d="m 107.66583,15.770861 c 0.12001,-0.366699 0.14633,-0.418472 0.23306,-0.810197 0.10633,-0.480239 0.17918,-0.961784 -1.0491,-0.176271 -0.20787,0.132941 -0.1461,0.471988 -0.199,0.713001 -0.0668,0.304402 -0.10646,0.614137 -0.15969,0.921206 -0.018,0.574711 -0.098,1.325541 0.0933,1.895013 0.29939,0.891319 1.07333,1.412793 1.9912,0.935962 0.27056,-0.140554 0.44801,-0.413663 0.67201,-0.620495 0.488,-0.51172 -0.23568,-1.201855 -0.72368,-0.690135 v 0 c -0.0614,0.08395 -0.42064,0.728887 -0.6775,0.567224 -0.59332,-0.373435 -0.33628,-1.382132 -0.36955,-1.919443 0.0459,-0.274263 0.0797,-0.550846 0.13776,-0.82279 0.0457,-0.214014 0.27351,-0.438694 0.17329,-0.633244 -0.82512,-1.601864 -0.82547,-0.476939 -0.95005,-0.04495 -0.0386,0.133914 -0.0865,0.264977 -0.12977,0.397466 -0.2034,0.67722 0.75433,0.964877 0.95774,0.287657 z" />
    <path
       style="fill:#0000ff;stroke-width:0.264583"
       id="path98"
       d="m 107.81244,13.728122 c 0.27594,-0.59985 0.58769,-1.182238 0.88699,-1.770569 0.32062,-0.630243 -0.57068,-1.083662 -0.8913,-0.453419 v 0 c -0.30027,0.590255 -0.61289,1.174636 -0.88991,1.776355 -0.31653,0.632307 0.57769,1.07994 0.89422,0.447633 z" />
    <path
       style="fill:#0000ff;stroke-width:0.264583"
       id="path100"
       d="m 110.40278,15.557517 c -0.17371,0.533916 -0.34022,1.069846 -0.50788,1.605638 -0.0391,0.124991 -0.0841,0.24811 -0.12185,0.373529 -0.0164,0.05465 -0.0944,0.147767 -0.0405,0.166349 0.32786,0.112903 0.68387,0.115301 1.0258,0.172952 0.49134,-0.797762 0.83286,-1.677132 1.29389,-2.490383 0.21607,-0.381129 0.10095,-0.372829 0.30512,-0.352395 -0.14521,0.03523 -0.31566,0.01663 -0.43565,0.105683 -0.0494,0.03667 0.028,0.12121 0.0564,0.175767 0.10908,0.209141 0.36312,0.621235 0.59294,0.716112 0.7246,0.299148 0.82344,0.04826 1.44509,-0.305944 0.8964,-0.965935 0.17251,-0.152721 0.91119,-1.064604 0.0776,-0.09576 0.2357,-0.15555 0.24308,-0.278565 0.006,-0.0969 -0.13965,0.164099 -0.23655,0.169845 -0.60195,0.0357 -0.44829,-0.463494 -0.47603,0.288113 -7.9e-4,0.818028 -0.13173,2.336611 0.89561,2.640739 0.21723,0.0643 0.45304,-0.0069 0.67955,-0.01038 0.1901,-0.06041 0.38021,-0.120813 0.57031,-0.181219 0.66998,-0.2261 0.35023,-1.1736 -0.31975,-0.947501 v 0 c -0.12298,0.04525 -0.24597,0.0905 -0.36895,0.135753 -0.0519,0.02974 -0.11133,0.04914 -0.15576,0.08921 -0.0295,0.02663 -0.0249,0.125266 -0.0585,0.103983 -0.15352,-0.09726 -0.19962,-0.588138 -0.20946,-0.666356 -0.0623,-0.494898 -0.0413,-0.634597 -0.0333,-1.143024 0.005,-0.545642 0.12627,-0.954935 -0.54029,-1.309177 -0.37595,-0.199798 -0.97748,0.762282 -1.12463,0.944096 -0.11308,0.139709 -0.23347,0.27333 -0.35021,0.409995 -0.0648,0.07665 -0.14383,0.14321 -0.19429,0.229946 -0.0238,0.04089 0.0259,0.135285 -0.0211,0.140348 -0.0693,0.0075 -0.12633,-0.06654 -0.17153,-0.119606 -0.0786,-0.09223 -0.12941,-0.204864 -0.19282,-0.308098 -0.42184,-0.686806 -0.095,-0.411661 -1.05202,-0.652463 -0.11886,0.09432 -0.25615,0.169216 -0.35659,0.282949 -0.20664,0.233985 -0.49646,0.846921 -0.61741,1.088324 -0.30718,0.613115 -0.608,1.229028 -0.95227,1.82279 0.27411,0.179593 0.53446,0.382176 0.82233,0.538779 0.0245,0.01336 0.009,-0.05539 0.0171,-0.08214 0.0402,-0.131684 0.0868,-0.261347 0.1279,-0.392749 0.57119,-1.825664 -0.26924,0.81227 0.35034,-1.106903 0.0508,-0.157315 0.0995,-0.315279 0.14931,-0.472918 0.22378,-0.670763 -0.72482,-0.987238 -0.9486,-0.316475 z" />
    <path
       style="fill:#0000ff;stroke-width:0.264583"
       id="path102"
       d="m 116.81345,14.928817 c 0.73745,0.766843 1.93444,1.581832 3.03205,0.989441 0.22601,-0.121981 0.38261,-0.342714 0.57392,-0.514071 0.0817,-0.261882 0.23152,-0.511646 0.24524,-0.785647 0.0584,-1.16666 -1.08645,-2.157317 -2.23291,-1.852423 -0.28626,0.07613 -0.51829,0.286949 -0.77744,0.430424 -0.20083,0.255134 -0.43638,0.486414 -0.60249,0.765402 -0.53844,0.90432 -0.736,2.238168 -0.44451,3.256569 0.0619,0.216358 0.1757,0.414381 0.26355,0.621571 0.32523,0.475039 0.73887,0.988445 1.37665,1.023312 0.2543,0.0139 0.50315,-0.07931 0.75472,-0.118971 0.68814,-0.162702 0.45804,-1.13587 -0.23009,-0.973168 v 0 c -0.0912,0.04139 -0.17554,0.103764 -0.27359,0.124161 -0.32346,0.06729 -0.54517,-0.259366 -0.71594,-0.46608 -0.0637,-0.129155 -0.14678,-0.250434 -0.19103,-0.387464 -0.25693,-0.795691 -0.10073,-1.755267 0.26693,-2.488959 0.0916,-0.182839 0.22323,-0.342733 0.33485,-0.514099 0.20805,-0.175812 0.36968,-0.388455 0.67617,-0.378031 0.39771,0.01353 0.72654,0.386984 0.81762,0.746844 0.025,0.09862 0.007,0.203359 0.01,0.305038 -0.0542,0.08505 -0.0859,0.189539 -0.16247,0.255153 -0.58944,0.50518 -1.50437,-0.23601 -1.92123,-0.639128 -0.42435,-0.565619 -1.22426,0.03451 -0.79991,0.600126 z" />
    <path
       style="fill:#0000ff;stroke-width:0.264583"
       id="path104"
       d="m 122.68989,10.074332 c -0.35928,1.22948 -0.63229,2.495306 -0.75939,3.771575 -0.077,0.773422 -0.16915,1.967899 0.13107,2.740579 0.1371,0.35288 0.43151,0.62216 0.64727,0.93324 0.3626,0.134606 0.70339,0.361128 1.08781,0.403817 0.86958,0.09657 1.48126,-0.269609 2.23746,-0.586687 0.64835,-0.282212 0.24924,-1.199116 -0.39911,-0.916904 v 0 c -0.7254,0.33075 -1.31294,0.654542 -2.1347,0.488558 -0.15108,-0.163948 -0.36685,-0.286319 -0.45326,-0.491845 -0.2868,-0.682212 -0.19312,-1.752494 -0.12721,-2.425077 0.12054,-1.230056 0.38249,-2.45049 0.72942,-3.635054 0.19955,-0.678366 -0.75981,-0.9605682 -0.95936,-0.282202 z" />
    <path
       style="fill:#0000ff;stroke-width:0.264583"
       id="path106"
       d="m 121.05656,14.69666 c 1.3263,-0.385899 2.68013,-0.654672 4.04164,-0.878397 0.6977,-0.11499 0.53508,-1.101679 -0.16262,-0.986689 v 0 c -1.39505,0.23058 -2.78271,0.504699 -4.1419,0.900259 -0.68224,0.185888 -0.41936,1.150715 0.26288,0.964827 z" />
    <path
       style="fill:#0000ff;stroke-width:0.264583"
       id="path108"
       d="m 126.84238,13.874079 c -0.12751,0.779241 -0.26329,1.558485 -0.35649,2.342877 -0.0205,0.172912 -0.042,0.34619 -0.0473,0.520237 -0.002,0.07861 -0.0541,0.239718 0.0244,0.234689 0.37656,-0.02413 0.72656,-0.204053 1.08984,-0.30608 0.2799,-0.886054 0.61328,-1.761191 1.02171,-2.596765 0.12743,-0.260685 0.40977,-0.868574 0.71916,-1.066442 0.0516,-0.03301 0.1206,0.02161 0.1809,0.03241 0.20825,0.31424 0.10755,0.202144 0.5788,0.539804 0.84274,0.603831 0.65223,0.456736 1.64225,0.898408 0.64806,0.282877 1.04811,-0.633617 0.40005,-0.916494 v 0 c -0.25034,-0.106364 -0.5119,-0.189475 -0.75104,-0.319091 -0.81116,-0.439664 -1.15678,-1.063573 -2.14194,-1.164961 -0.22014,0.09003 -0.46794,0.130407 -0.66044,0.270101 -0.36209,0.262757 -0.70673,0.961515 -0.88184,1.320789 -0.42193,0.865644 -0.76643,1.771823 -1.05727,2.688947 0.28122,0.146734 0.5681,0.283072 0.84364,0.440203 0.0104,0.006 -0.013,0.04594 -0.0122,0.03394 0.0634,-0.937023 0.25283,-1.861348 0.39419,-2.788213 0.11622,-0.69749 -0.87018,-0.861854 -0.9864,-0.164364 z" />
    <path
       style="fill:#0000ff;stroke-width:0.264583"
       id="path110"
       d="m 133.56994,12.925665 c -0.23209,0.967737 -0.45684,1.950797 -0.5181,2.947727 -0.0185,0.301172 -0.0617,1.30385 0.20676,1.621099 0.18312,0.216365 0.4924,0.28095 0.7386,0.421426 0.28342,-0.110529 0.56684,-0.221058 0.85025,-0.331587 0.61303,-0.352419 0.11463,-1.219368 -0.49839,-0.866949 v 0 c -0.0398,0.0753 -0.0797,0.150604 -0.1195,0.225905 -0.007,0.08002 0.0403,0.292454 -0.0206,0.240055 -0.23789,-0.204813 -0.17052,-1.083533 -0.16417,-1.191363 0.0345,-0.586112 0.18381,-1.435497 0.3022,-2.008512 0.0557,-0.269465 0.12668,-0.535532 0.19002,-0.803298 0.17997,-0.683823 -0.78711,-0.938326 -0.96707,-0.254503 z" />
    <path
       style="fill:#0000ff;stroke-width:0.264583"
       id="path112"
       d="m 135.25211,11.38287 c 0.19609,-0.442853 0.44746,-0.85451 0.70566,-1.262701 0.37663,-0.5984531 -0.46971,-1.1310954 -0.84634,-0.5326423 v 0 c -0.31668,0.5054623 -0.63247,1.0132213 -0.83547,1.5782333 -0.15352,0.69024 0.82263,0.90735 0.97615,0.21711 z" />
    <path
       style="fill:#0000ff;stroke-width:0.264583"
       id="path114"
       d="m 137.90518,10.57658 c -0.17907,1.35965 -0.59844,2.672366 -0.80098,4.028154 -0.0514,0.344149 -0.10854,0.690212 -0.10917,1.038179 -5.3e-4,0.289144 0.0705,0.573977 0.10572,0.860966 0.13431,0.221189 0.20139,0.501263 0.40294,0.663568 0.53326,0.429438 1.10817,0.366164 1.71886,0.236865 0.49333,-0.104453 1.11613,-0.375732 1.53777,-0.654961 0.20508,-0.135812 0.37903,-0.313609 0.56854,-0.470414 0.53815,-0.458691 -0.11054,-1.219746 -0.64868,-0.761055 v 0 c -0.13242,0.117592 -0.2517,0.251894 -0.39724,0.352775 -0.55572,0.385171 -1.07379,0.507764 -1.71356,0.653209 -0.0841,0.01913 -0.16896,0.09102 -0.25087,0.06387 -0.10065,-0.03336 -0.15161,-0.148276 -0.22741,-0.222413 -0.0338,-0.206476 -0.10086,-0.410204 -0.10139,-0.619426 -8e-4,-0.320614 0.0503,-0.63977 0.0974,-0.956904 0.20642,-1.389412 0.64356,-2.733847 0.81464,-4.129312 0.0588,-0.7046608 -0.93778,-0.7877598 -0.99654,-0.0831 z" />
    <path
       style="fill:#0000ff;stroke-width:0.264583"
       id="path118"
       d="m 141.0336,15.89983 c 1.33946,0.141937 3.27389,0.163871 4.22882,-0.976046 0.19363,-0.231148 0.28137,-0.53341 0.42206,-0.800115 -0.007,-0.319667 0.0541,-0.648348 -0.0216,-0.959 -0.22401,-0.918979 -1.09005,-1.672968 -2.04194,-1.734037 -0.94132,-0.06039 -1.16597,0.259205 -1.91541,0.741042 -0.24149,0.297033 -0.52042,0.567199 -0.72446,0.891101 -0.60662,0.962987 -0.89626,2.143652 -0.86861,3.274574 0.008,0.323003 0.0302,0.651343 0.11926,0.961934 0.0882,0.307691 0.27063,0.580149 0.40595,0.870223 0.25232,0.21431 0.4625,0.49164 0.75696,0.642931 1.02943,0.528917 2.22726,0.226842 3.23271,-0.164503 0.32638,-0.127031 0.63341,-0.299019 0.95012,-0.448528 0.63825,-0.304352 0.20784,-1.206982 -0.43042,-0.90263 v 0 c -0.87868,0.423791 -2.13437,1.076674 -3.14445,0.721693 -0.17522,-0.06158 -0.31409,-0.198295 -0.47113,-0.297443 -0.10282,-0.184521 -0.24481,-0.352146 -0.30847,-0.553564 -0.0788,-0.249451 -0.10048,-0.515447 -0.11195,-0.776806 -0.0411,-0.93704 0.18871,-1.897412 0.65798,-2.712143 0.14211,-0.246719 0.33888,-0.457631 0.50831,-0.686448 0.38201,-0.300952 0.57984,-0.563861 1.09048,-0.594 0.58141,-0.03432 1.07142,0.355667 1.29943,0.859846 0.063,0.139352 0.0733,0.296978 0.10989,0.445468 -0.0533,0.152162 -0.0686,0.323676 -0.15998,0.456486 -0.64888,0.942603 -2.46471,0.852489 -3.45941,0.747695 -0.70164,-0.08775 -0.82574,0.904522 -0.12409,0.99227 z" />
    <path
       style="fill:#0000ff;stroke-width:0.264583"
       id="path120"
       d="m 146.00138,13.41986 c -0.0511,0.787876 -0.0738,1.576236 -0.0638,2.365697 0.003,0.234755 0.01,0.469463 0.0181,0.704086 0.005,0.149882 -5.3e-4,0.301241 0.023,0.449341 0.0159,0.09928 0.063,0.190961 0.0945,0.286441 0.3311,-0.143961 0.74269,-0.171992 0.99331,-0.431883 0.15621,-0.161976 0.0475,-0.447529 0.0706,-0.671366 0.0299,-0.290095 0.053,-0.580944 0.0883,-0.870424 0.0777,-0.63641 0.1239,-1.133928 0.37337,-1.72743 0.0928,-0.220702 0.23805,-0.41544 0.35708,-0.623159 0.31006,-0.31833 0.39981,-0.519912 0.83609,-0.614757 0.46885,-0.101926 1.1185,0.175591 1.54712,0.315522 0.67352,0.21533 0.97804,-0.737175 0.30452,-0.952505 v 0 c -0.49492,-0.155439 -0.99701,-0.351173 -1.52668,-0.358684 -0.99932,-0.01417 -1.4397,0.397538 -2.03671,1.127498 -0.14686,0.274397 -0.32411,0.534579 -0.44057,0.823192 -0.35565,0.881336 -0.40225,1.845059 -0.49719,2.77749 -0.0208,0.204012 -0.21277,0.472324 -0.0626,0.612004 0.22208,0.206609 0.59688,0.108449 0.89532,0.162674 0.002,0.103889 0.0181,0.718814 -0.0198,-0.329923 -0.008,-0.226733 -0.0148,-0.453548 -0.0178,-0.680407 -0.0102,-0.763582 -0.005,-0.884551 0.0284,-1.653977 0.009,-0.212794 0.0219,-0.425416 0.0329,-0.638124 0.0504,-0.705307 -0.94703,-0.776613 -0.99746,-0.07131 z" />
    <path
       style="fill:#0000ff;stroke-width:0.264583"
       id="path122"
       d="m 151.77668,11.825765 c -0.19805,1.048077 -0.71882,2.954903 0.41043,3.687974 0.97973,0.636013 1.6971,0.203257 2.6952,-0.05016 0.41477,-0.200069 0.82954,-0.400139 1.24431,-0.600209 0.63518,-0.310716 0.19576,-1.208998 -0.43942,-0.898282 v 0 c -0.36048,0.179165 -0.72097,0.35833 -1.08145,0.537495 -0.34433,0.115713 -1.17595,0.504082 -1.6539,0.366822 -0.53914,-0.154834 -0.4643,-0.681004 -0.45704,-1.118941 0.01,-0.581963 0.14269,-1.130205 0.25529,-1.695672 0.16195,-0.688312 -0.81147,-0.917339 -0.97342,-0.229027 z" />
    <path
       style="fill:#0000ff;stroke-width:0.264583"
       id="path124"
       d="m 100.87181,22.341445 c -0.14096,4.090665 -0.45967,8.173146 -0.56865,12.265062 -0.0266,0.999199 -0.0312,1.998867 -0.0467,2.998301 -0.0281,2.520707 0.006,5.045268 -0.262772,7.555846 -0.129781,1.214292 -0.367506,2.400224 -0.62551,3.591055 -0.06865,0.483127 -0.221167,0.814443 0.952622,0.495072 0.17073,-0.04645 0.1141,-0.334978 0.17115,-0.50247 0.22076,-0.671761 -0.729251,-0.983969 -0.950017,-0.312208 v 0 c -0.03774,0.120944 -0.203216,0.273645 -0.113229,0.362834 0.898396,0.890407 0.858426,0.614333 0.916826,0.168375 0.26715,-1.234792 0.51136,-2.464805 0.64505,-3.723883 0.26883,-2.531732 0.23891,-5.077193 0.26576,-7.619077 0.0154,-0.992277 0.0198,-1.98479 0.0462,-2.976837 0.10876,-4.090916 0.4279,-8.172389 0.56854,-12.262065 0.0283,-0.706541 -0.97091,-0.746546 -0.9992,-0.04001 z" />
    <path
       style="fill:#0000ff;stroke-width:0.264583"
       id="path136"
       d="m 97.565645,46.646583 c 0.347486,1.334897 0.515774,2.711847 0.899417,4.038251 0.07991,0.276305 0.152231,0.558792 0.281861,0.815552 0.09654,0.191217 0.2589,0.34132 0.38835,0.511982 0.317092,-0.01992 0.686707,0.116131 0.951277,-0.05979 0.33641,-0.223694 0.44942,-0.671618 0.66373,-1.014089 0.27991,-0.447316 0.51634,-0.92242 0.81868,-1.354895 1.00458,-1.436973 1.20553,-1.512083 2.45816,-2.711016 0.50952,-0.490296 -0.18386,-1.210865 -0.69338,-0.720569 v 0 c -1.35321,1.308653 -1.53506,1.35884 -2.62073,2.914523 -0.30724,0.440267 -0.57457,0.907926 -0.832626,1.378715 -0.108979,0.198813 -0.271002,0.399248 -0.266184,0.62592 0.0029,0.137321 0.190529,0.197895 0.285795,0.296841 -0.369628,-0.348218 -0.246232,-0.171657 -0.463978,-0.922436 -0.386361,-1.332137 -0.551294,-2.716522 -0.904127,-4.056604 -0.18216,-0.683239 -1.148408,-0.425625 -0.966245,0.257616 z" />
    <path
       style="fill:#0000ff;stroke-width:0.264583"
       id="path138"
       d="m 100.27374,29.591272 c -0.611476,0.932799 -1.177427,1.947574 -2.03745,2.684338 -0.884396,0.757645 -1.447101,0.964872 -2.50593,1.517372 -0.604686,0.213191 -1.196353,0.46771 -1.814057,0.639572 -3.552111,0.988299 -7.509965,0.970317 -11.159191,0.750988 -1.145217,-0.06883 -2.286354,-0.193939 -3.429532,-0.290909 -4.453397,-0.497165 -8.884224,-1.292648 -13.200832,-2.506564 -2.138153,-0.60129 -3.938757,-1.234493 -6.041953,-1.940433 -4.385247,-1.504458 -8.878983,-3.129434 -13.54754,-3.435443 -0.734481,-0.04814 -1.472015,-0.01704 -2.208025,-0.02556 -0.673555,0.08788 -1.355949,0.123815 -2.020667,0.263634 -1.757755,0.369736 -3.416602,1.154885 -4.748134,2.371799 -0.968592,0.885214 -1.158483,1.326036 -1.851035,2.399734 -0.183274,0.43762 -0.402267,0.861941 -0.549818,1.312859 -0.472286,1.443339 -0.533315,2.957926 -0.565097,4.460986 -0.02236,1.057 -0.0089,1.99272 -0.0019,3.049329 0.02841,1.291947 0.02273,2.58482 0.05495,3.876685 0.01812,0.726133 0.07315,1.44966 0.08598,2.17569 -0.06256,0.275783 -0.0534,0.159319 0.244777,-0.250828 -0.676601,0.205447 -0.386054,1.162307 0.290549,0.956861 v 0 c 0.495782,-0.493229 0.396796,-0.223986 0.464506,-0.724459 -0.01387,-0.724606 -0.06783,-1.446643 -0.08591,-2.171334 -0.03216,-1.289384 -0.02653,-2.57977 -0.05488,-3.869233 -0.0072,-1.079097 -0.01998,-1.930106 0.0013,-3.0094 0.0274,-1.382117 0.07077,-2.781522 0.490146,-4.113098 0.124862,-0.396449 0.312049,-0.770504 0.468074,-1.155756 0.597826,-0.946324 0.778404,-1.362662 1.617229,-2.144823 1.191913,-1.111401 2.68492,-1.831033 4.271031,-2.17374 0.617646,-0.133453 1.252315,-0.169974 1.878475,-0.254958 0.701487,0.0064 1.404377,-0.02569 2.104464,0.0191 1.623259,0.10383 3.254116,0.39647 4.835216,0.763005 2.896039,0.671367 5.707337,1.642325 8.508081,2.626985 2.140736,0.718283 3.934762,1.349565 6.112082,1.961147 4.370316,1.227571 8.8559,2.032423 13.364522,2.53425 1.160007,0.09797 2.317945,0.224677 3.480025,0.293897 3.775395,0.224888 7.858045,0.231542 11.528022,-0.808194 0.662469,-0.187682 1.296379,-0.464497 1.944569,-0.696743 1.236236,-0.654941 1.741453,-0.823841 2.771301,-1.719905 0.910847,-0.792525 1.537152,-1.8864 2.184382,-2.887851 0.33871,-0.620707 -0.5391,-1.099711 -0.87781,-0.479004 z" />
    <path
       style="fill:#0000ff;stroke-width:0.264583"
       id="path140"
       d="m 32.554304,45.401976 c 0.238911,0.938699 0.412779,1.893551 0.642374,2.834182 0.05915,0.242332 0.239368,1.210111 0.616849,1.351939 0.323747,0.121636 0.691648,-0.0073 1.037471,-0.01098 0.97771,-0.911875 0.910043,-0.761338 1.721244,-1.896088 0.252556,-0.353291 0.501767,-0.711134 0.711396,-1.091468 0.175215,-0.317894 0.292913,-0.664254 0.43937,-0.996381 0.281144,-0.648814 -0.636418,-1.046411 -0.917562,-0.397597 v 0 c -0.120097,0.28302 -0.212852,0.579273 -0.360296,0.849059 -0.515871,0.943914 -1.223836,1.770845 -1.916435,2.585831 0.01913,0.107563 0.13607,0.246903 0.05738,0.322691 -0.06557,0.06315 -0.16763,-0.09776 -0.20452,-0.180978 -0.105074,-0.237043 -0.146529,-0.497641 -0.207958,-0.749546 -0.233801,-0.958752 -0.410771,-1.931961 -0.655801,-2.888329 -0.189267,-0.681308 -1.152779,-0.413642 -0.963512,0.267665 z" />
    <path
       style="fill:#0000ff;stroke-width:0.266625"
       id="path138-3"
       d="m 101.25396,29.333098 c 0.62095,0.932799 1.19568,1.947574 2.06903,2.684338 0.89809,0.757645 1.46952,0.964872 2.54476,1.517372 0.61406,0.213191 1.2149,0.46771 1.84218,0.639572 3.60716,0.988299 7.62635,0.970317 11.33214,0.750988 1.16296,-0.06883 2.32178,-0.193939 3.48268,-0.290909 4.52242,-0.497165 9.02191,-1.292648 13.40542,-2.506564 2.17129,-0.60129 3.9998,-1.234493 6.13559,-1.940433 4.45321,-1.504458 9.0166,-3.129434 13.7575,-3.435443 0.74587,-0.04814 1.49484,-0.01704 2.24226,-0.02556 0.68398,0.08788 1.37696,0.123815 2.05198,0.263634 1.78499,0.369736 3.46954,1.154885 4.82172,2.371799 0.9836,0.885214 1.17643,1.326036 1.87972,2.399734 0.18611,0.43762 0.4085,0.861941 0.55834,1.312859 0.4796,1.443339 0.54157,2.957926 0.57386,4.460986 0.0227,1.057 0.009,1.99272 0.002,3.049329 -0.0288,1.291947 -0.023,2.58482 -0.0558,3.876685 -0.0184,0.726133 -0.0742,1.44966 -0.0873,2.17569 0.0636,0.275783 0.0542,0.159319 -0.24858,-0.250828 0.68708,0.205447 0.39204,1.162307 -0.29505,0.956861 v 0 c -0.50346,-0.493229 -0.40295,-0.223986 -0.47171,-0.724459 0.0141,-0.724606 0.0688,-1.446643 0.0872,-2.171334 0.0327,-1.289384 0.0269,-2.57977 0.0558,-3.869233 0.007,-1.079097 0.0203,-1.930106 -0.001,-3.0094 -0.0278,-1.382117 -0.0719,-2.781522 -0.49774,-4.113098 -0.12679,-0.396449 -0.31688,-0.770504 -0.47533,-1.155756 -0.60708,-0.946324 -0.79046,-1.362662 -1.64229,-2.144823 -1.21039,-1.111401 -2.72654,-1.831033 -4.33722,-2.17374 -0.62722,-0.133453 -1.27173,-0.169974 -1.90759,-0.254958 -0.71235,0.0064 -1.42614,-0.02569 -2.13708,0.0191 -1.64841,0.10383 -3.30455,0.39647 -4.91015,0.763005 -2.94093,0.671367 -5.79579,1.642325 -8.63995,2.626985 -2.1739,0.718283 -3.99574,1.349565 -6.2068,1.961147 -4.43805,1.227571 -8.99315,2.032423 -13.57165,2.53425 -1.17799,0.09797 -2.35387,0.224677 -3.53396,0.293897 -3.83391,0.224888 -7.97983,0.231542 -11.70669,-0.808194 -0.67274,-0.187682 -1.31647,-0.464497 -1.97471,-0.696743 -1.25539,-0.654941 -1.76844,-0.823841 -2.81425,-1.719905 -0.92496,-0.792525 -1.56097,-1.8864 -2.21823,-2.887851 -0.34396,-0.620707 0.54745,-1.099711 0.89141,-0.479004 z" />
    <path
       style="fill:#0000ff;stroke-width:0.264583"
       id="path326"
       d="m 164.93451,44.895777 c 0.26449,1.036471 0.58284,2.056792 0.79285,3.106558 0.0959,0.550352 0.30033,1.319794 1.13417,1.068366 0.3184,-0.096 0.53897,-0.39711 0.76264,-0.64321 0.29255,-0.321889 0.84009,-1.279678 1.06195,-1.650965 0.5699,-0.92428 0.27347,-0.505482 0.87305,-1.267743 0.43471,-0.557694 -0.35398,-1.172478 -0.7887,-0.614784 v 0 c -0.66328,0.857589 -0.34656,0.402395 -0.94324,1.37037 -0.15597,0.262147 -0.30546,0.528264 -0.46792,0.786442 -0.14673,0.233167 -0.31467,0.452623 -0.45933,0.687081 -0.0674,0.109156 -0.17594,0.214024 -0.1758,0.342289 1.1e-4,0.10469 0.13473,0.163798 0.17645,0.259815 0.0171,0.03941 -0.0662,-0.05481 -0.0993,-0.08222 -0.0312,-0.150858 -0.0624,-0.301715 -0.0936,-0.452573 -0.21191,-1.04907 -0.52141,-2.071288 -0.79268,-3.105695 -0.13878,-0.693354 -1.11933,-0.497088 -0.98055,0.196265 z" />
    <path
       style="fill:#0000ff;stroke-width:0.264583"
       id="path328"
       d="m 24.87437,55.533324 c -0.623398,1.345618 -1.342227,2.783504 -1.484212,4.280707 -0.01282,0.135241 1.68e-4,0.271698 2.52e-4,0.407548 0.01156,0.707012 1.011424,0.690668 0.999867,-0.01635 v 0 c -0.02432,-0.576226 0.124641,-1.105721 0.303019,-1.653519 0.287921,-0.884206 0.66134,-1.73922 1.075326,-2.570832 0.316475,-0.63233 -0.577777,-1.079894 -0.894252,-0.447561 z" />
    <path
       style="fill:#0000ff;stroke-width:0.264583"
       id="path330"
       d="m 28.383076,54.821081 c -0.577837,0.492308 -1.209992,1.219803 -0.837594,2.044967 0.201128,0.445667 0.653648,0.739558 1.015172,1.027968 0.180996,0.162139 0.938284,0.60648 0.812615,0.976979 -0.03909,0.11526 -0.294698,0.0127 -0.320876,0.01085 -0.134165,-0.0095 -0.269005,5.29e-4 -0.403508,5.29e-4 -0.500129,-0.03403 -0.95907,-0.226759 -1.42588,-0.387845 -0.07678,-0.02649 -0.212394,-0.150656 -0.23277,-0.07203 -0.272258,1.050531 -0.237992,0.952434 0.301154,0.993632 0.401564,0.07118 0.8997,0.08309 1.13433,0.482002 0.180311,0.306568 0.142986,0.732669 0.149844,1.070764 0.0325,0.703913 0.394449,0.925729 1.086517,0.791821 0.174188,-0.0337 0.321678,-0.149783 0.482515,-0.224674 0.631069,-0.318989 0.179951,-1.211453 -0.451117,-0.892466 v 0 c -0.07842,0.04605 -0.186994,0.06106 -0.235252,0.138139 -0.02556,0.0408 0.05327,0.08128 0.06949,0.126604 0.03189,0.08909 -0.0057,0.222935 0.07392,0.274068 0.06874,0.04415 -0.0177,-0.162422 -0.02653,-0.243631 -0.02413,-0.641974 -0.05386,-1.273487 -0.495007,-1.796788 -0.442044,-0.524364 -1.088609,-0.639683 -1.724472,-0.723773 -0.669742,-0.03735 -0.601122,-0.172199 -0.658458,0.960395 -0.0033,0.06409 0.123574,0.0349 0.184248,0.05579 0.40554,0.139602 0.669634,0.263255 1.109893,0.350621 0.2481,0.04923 0.502076,0.06187 0.753113,0.0928 0.597162,-0.08662 1.042307,-0.02479 1.437333,-0.607306 0.133048,-0.196194 0.162578,-0.45937 0.146608,-0.695886 -0.04536,-0.671812 -0.68707,-1.097394 -1.151282,-1.468099 -0.114112,-0.08716 -0.767159,-0.557228 -0.775226,-0.612791 -0.05153,-0.354896 0.346236,-0.643757 0.554617,-0.853458 0.579316,-0.405456 0.0059,-1.224733 -0.5734,-0.819277 z" />
    <path
       style="fill:#0000ff;stroke-width:0.264583"
       id="path332"
       d="m 31.294919,55.52224 c -0.30489,1.125046 -0.415827,2.415456 -0.197609,3.567367 0.138366,0.693436 1.119034,0.497758 0.980667,-0.195681 v 0 c -0.09123,-0.424513 -0.09363,-0.835953 -0.07924,-1.270936 0.0199,-0.601247 0.06065,-1.207686 0.244909,-1.784644 0.22352,-0.670851 -0.725204,-0.986954 -0.948724,-0.316106 z" />
    <path
       style="fill:#0000ff;stroke-width:0.264583"
       id="path334"
       d="m 33.469857,55.649941 c 0.03297,0.672185 -0.04282,1.351304 0,2.022862 0.0076,0.119599 -0.05306,0.317545 0.061,0.354314 1.119609,0.360902 1.009812,0.0629 1.333731,-0.664663 0.153265,-0.370334 0.476117,-1.172249 0.660156,-1.529998 0.103624,-0.20143 0.358235,-0.689615 0.614675,-0.839663 0.03958,-0.02315 -0.0039,0.104709 -0.0413,0.13121 -0.07689,0.05445 -0.179012,0.0588 -0.268518,0.08821 0.143457,0.849191 0.09254,1.716641 0.192749,2.569901 0.02342,0.199422 0.02654,0.407646 0.102167,0.593656 0.08151,0.200496 0.239408,0.360633 0.359113,0.540949 0.825979,0.333997 0.407062,0.279363 1.25258,0.193225 0.697627,-0.115395 0.534432,-1.10199 -0.163195,-0.986594 v 0 c -0.264017,0.08978 -0.16783,0.0218 -0.314203,0.161631 -0.281911,-0.156861 -0.177017,-0.04806 -0.23899,-0.573947 -0.118534,-1.005819 -0.0043,-2.043237 -0.335394,-3.017735 -0.221909,-0.188711 -0.387287,-0.480541 -0.665729,-0.566134 -0.200276,-0.06157 -0.424921,0.06629 -0.603432,0.175993 -0.170718,0.10491 -0.288571,0.281072 -0.405326,0.443915 -0.48296,0.673606 -0.736383,1.475034 -1.066123,2.225278 -0.250537,0.637697 -0.389996,0.540118 0.567592,0.85852 0.0517,0.0172 -0.03858,-0.103669 -0.04155,-0.158064 -0.03674,-0.67228 0.02829,-1.350121 0,-2.022862 0,-0.707106 -1.000001,-0.707106 -1.000001,0 z" />
    <path
       style="fill:#0000ff;stroke-width:0.264583"
       id="path340"
       d="m 43.705756,53.81862 c -0.611572,-0.351655 -1.267251,-0.35668 -1.942251,-0.203158 -0.306467,0.0697 -0.884126,0.250177 -1.069004,0.563108 -0.123055,0.208288 -0.111027,0.470934 -0.166539,0.7064 0.112344,0.217691 0.185589,0.460523 0.337031,0.653071 0.448207,0.569855 1.275453,0.891045 1.792042,1.425702 0.414451,0.428945 0.381688,0.513615 0.55695,1.040382 -0.02193,0.144671 -0.0092,0.299082 -0.06579,0.434017 -0.14041,0.334735 -0.390637,0.449331 -0.739969,0.496586 -0.560871,0.07587 -1.125746,-0.02328 -1.660276,-0.188497 -0.262982,-0.08129 -0.50796,-0.212241 -0.761939,-0.31836 -0.106074,-0.117179 -0.277085,-0.198922 -0.31822,-0.351534 -0.01974,-0.0732 0.130779,-0.07779 0.189617,-0.1256 0.08711,-0.07078 0.164557,-0.152688 0.246837,-0.229034 0.404614,-0.579901 -0.415491,-1.152112 -0.820107,-0.572212 v 0 c -0.141465,0.244332 -0.372915,0.455398 -0.424397,0.732994 -0.169246,0.912566 0.180096,0.972053 0.750797,1.472221 0.789464,0.311714 1.206402,0.546804 2.093741,0.583028 0.782312,0.03194 1.48419,-0.07292 2.053428,-0.665792 0.512458,-0.533739 0.389681,-0.969018 0.39188,-1.620875 -0.106651,-0.261855 -0.17675,-0.541774 -0.319953,-0.785569 -0.420679,-0.716169 -1.094184,-1.11746 -1.745178,-1.584539 -0.64148,-0.460251 -0.168066,-0.166632 -0.556506,-0.400391 -0.05648,0.01524 -0.150075,0.100935 -0.16945,0.04573 -0.02299,-0.06549 0.0676,-0.129847 0.127812,-0.164365 0.331015,-0.189762 0.960509,-0.317383 1.339207,-0.243861 0.115052,0.02233 0.217078,0.08843 0.325618,0.132652 0.588385,0.392173 1.143002,-0.439934 0.554617,-0.832107 z" />
    <path
       style="fill:#0000ff;stroke-width:0.264583"
       id="path342"
       d="m 46.212759,58.404868 c 0.369782,-0.430287 0.605068,-0.658122 0.872776,-1.187924 0.403209,-0.797962 0.617368,-1.759283 0.339281,-2.637599 -0.07884,-0.248994 -0.246899,-0.460322 -0.370346,-0.690481 -0.212886,-0.1408 -0.390681,-0.361966 -0.638659,-0.422399 -0.987917,-0.240771 -1.767533,0.544512 -2.15638,1.342258 -0.363316,0.745365 -0.322009,1.11506 -0.395537,1.923288 0.0199,0.317396 0.01487,0.637341 0.05968,0.952187 0.139007,0.976818 0.587446,2.419353 1.827593,2.429486 0.29618,0.0024 0.572024,-0.153955 0.858033,-0.230933 0.245656,-0.203052 0.516793,-0.378722 0.736966,-0.609156 0.770117,-0.80601 1.194839,-1.99558 1.195742,-3.103684 1.45e-4,-0.179927 -0.03832,-0.357806 -0.05747,-0.53671 -0.05255,-0.117133 -0.03134,-0.328472 -0.157663,-0.351398 -0.317516,-0.05762 -0.699746,-0.04624 -0.956543,0.149185 -0.181064,0.137795 -0.102769,0.444889 -0.122007,0.671608 -0.06288,0.741021 0.05373,1.481132 0.194839,2.20405 0.388784,0.714857 0.09753,0.434147 0.933866,0.774952 0.702373,0.08167 0.817874,-0.911635 0.115498,-0.993307 v 0 c 0.105588,0.272659 0.123211,0.256254 -0.06888,0.02178 -0.133961,-0.647469 -0.138853,-0.554185 -0.173617,-1.268798 -0.01016,-0.208741 -0.0021,-0.418008 -0.008,-0.626915 -0.0024,-0.0884 0.06067,-0.221951 -0.01669,-0.264782 -0.228224,-0.12633 -0.512043,-0.101597 -0.764411,-0.167595 -0.01275,-0.0033 0.02093,-0.01606 0.03139,-0.0241 0.01746,0.112628 0.04979,0.223938 0.05242,0.337883 0.01426,0.616532 -0.15684,1.302401 -0.449692,1.843797 -0.257683,0.47638 -0.464632,0.638323 -0.827203,1.003289 -0.149916,0.09373 -0.373058,0.300567 -0.590802,0.212098 -0.694163,-0.282032 -0.781875,-1.744998 -0.816147,-2.34451 0.04932,-0.783923 0.05563,-1.331478 0.540205,-1.997622 0.03214,-0.04419 0.409411,-0.435012 0.544497,-0.463839 0.08295,-0.0177 0.166216,0.03388 0.249325,0.05081 0.08108,0.113956 0.192513,0.211537 0.243234,0.34187 0.408501,1.049703 -0.217641,2.149211 -0.889479,2.915621 -0.528624,0.469636 0.135538,1.217224 0.664162,0.747591 z" />
    <path
       style="fill:#0000ff;stroke-width:0.264583"
       id="path344"
       d="m 50.435295,51.366104 c -0.236744,1.971837 -0.461693,3.966658 -0.164862,5.946424 0.04826,0.321857 0.139139,0.635865 0.208706,0.953799 0.02281,0.05618 0.308737,0.962982 0.571453,0.97873 0.29968,0.01797 0.569677,-0.189716 0.854514,-0.284575 0.309869,-0.635595 -0.589,-1.073817 -0.898867,-0.438221 v 0 c 0.240647,-0.0042 0.481293,-0.0084 0.72194,-0.01265 -0.02458,-0.0021 -0.06117,0.0149 -0.07375,-0.0063 -0.0843,-0.142269 -0.132802,-0.302903 -0.199202,-0.454353 -0.06322,-0.278291 -0.146378,-0.552791 -0.189651,-0.834874 -0.29477,-1.921476 -0.05841,-3.857257 0.166767,-5.771198 0.05428,-0.705022 -0.942769,-0.781785 -0.997048,-0.07677 z" />
    <path
       style="fill:#0000ff;stroke-width:0.264583"
       id="path346"
       d="m 87.467918,58.60516 c -0.128852,0.981424 -0.161264,1.970685 -0.16047,2.959465 5.29e-4,0.713462 0.02122,0.313047 -0.0057,0.731417 0.324511,-0.06566 0.707255,-2.09e-4 0.973539,-0.196967 0.13675,-0.101044 -0.02228,-0.339865 -0.01701,-0.509815 0.02701,-0.868523 0.125686,-1.787559 0.490551,-2.588085 0.09112,-0.19993 0.23391,-0.372007 0.350864,-0.558009 0.122957,-0.09015 0.230045,-0.207412 0.368866,-0.270452 0.297183,-0.134953 0.676344,0.03472 0.953604,0.127397 0.677124,0.203716 0.965223,-0.753885 0.288099,-0.957601 v 0 c -0.672883,-0.18856 -1.220049,-0.331883 -1.880923,0.06118 -0.225139,0.133905 -0.390792,0.348932 -0.586187,0.523398 -0.148095,0.253905 -0.326252,0.492514 -0.444283,0.761712 -0.400209,0.912786 -0.517223,1.952323 -0.539879,2.93815 -0.0046,0.201393 -0.140158,0.488482 0.025,0.603819 0.27972,0.195334 0.677383,0.08213 1.016074,0.123193 0.02732,-0.51266 0.0083,-0.04249 0.0074,-0.781614 -0.0011,-0.961162 0.03005,-1.922629 0.156384,-2.876555 0.06409,-0.704196 -0.931796,-0.79483 -0.995883,-0.09063 z" />
    <path
       style="fill:#0000ff;stroke-width:0.264583"
       id="path348"
       d="m 92.656278,59.669491 c 0.12419,0.114208 0.236392,0.243018 0.372573,0.342625 0.448553,0.328086 1.110768,0.602292 1.669854,0.36716 0.210137,-0.08838 0.412073,-0.228997 0.543269,-0.415428 0.138216,-0.196403 0.153104,-0.455268 0.229653,-0.682903 -0.04265,-0.24829 -0.03789,-0.50959 -0.127937,-0.744873 -0.347125,-0.906986 -1.386636,-1.692272 -2.368645,-1.190617 -0.265565,0.135662 -0.451972,0.389152 -0.677958,0.583729 -0.562747,0.856768 -0.871683,1.624886 -0.787082,2.671768 0.04,0.495025 0.196845,1.086823 0.632174,1.403755 0.215437,0.156842 0.502486,0.177638 0.753727,0.266459 0.275627,-0.07188 0.571981,-0.08851 0.826881,-0.215638 1.060254,-0.528802 1.57363,-1.952689 1.861325,-3.018637 0.007,0.362016 0.0062,-0.439327 -0.881205,0.04705 -0.132284,0.0725 0.0334,0.299966 0.05745,0.448884 0.06684,0.413737 0.156072,0.925708 0.328218,1.310262 0.09387,0.209682 0.237138,0.393546 0.355706,0.59032 0.215739,0.12469 0.43148,0.24938 0.647218,0.374073 0.648907,0.280924 1.046195,-0.63677 0.397286,-0.917694 v 0 c -0.06689,0.0024 -0.133784,0.0047 -0.200676,0.007 -0.299879,-0.43389 -0.2788,-0.330605 -0.426913,-0.911397 -0.04861,-0.1906 -0.07767,-0.38576 -0.108985,-0.579951 -0.02548,-0.158051 0.05971,-0.371612 -0.06137,-0.476345 C 94.82945,58.184029 94.86111,58.319361 94.618,58.778738 c -0.252978,0.958104 -0.610097,1.986982 -1.511921,2.514757 -0.06821,0.02013 -0.136835,0.08193 -0.204632,0.06043 -0.298032,-0.09448 -0.36286,-0.485301 -0.391792,-0.726773 -0.08528,-0.711859 0.123449,-1.380011 0.487077,-1.983489 0.119576,-0.153146 0.272446,-0.429371 0.499014,-0.48564 0.370422,-0.092 0.713685,0.344371 0.875216,0.610005 0.05695,0.09366 0.08165,0.203465 0.122473,0.3052 0.01561,0.05939 0.0428,0.116893 0.04681,0.178167 0.03322,0.508326 -0.970682,0.04736 -1.084061,-0.182036 -0.424352,-0.565618 -1.224259,0.03451 -0.799907,0.600126 z" />
    <path
       style="fill:#0000ff;stroke-width:0.264583"
       id="path350"
       d="m 98.948403,59.451562 c 0.324294,0.119512 0.601003,0.261273 0.963379,0.226364 0.673848,-0.06492 1.260418,-0.5378 1.360828,-1.234688 0.0364,-0.252392 -0.0495,-0.507582 -0.0743,-0.761376 -0.13136,-0.228354 -0.22825,-0.480362 -0.39407,-0.685059 -0.52058,-0.642602 -1.242707,-0.911275 -2.039065,-0.610169 -0.629881,0.238162 -0.778606,0.570606 -1.171221,1.071115 -0.09883,0.255061 -0.233259,0.49905 -0.296484,0.765178 -0.234262,0.986047 0.0084,2.226437 0.859457,2.864559 0.187028,0.140227 0.419499,0.206378 0.62925,0.309565 0.296011,-0.03753 0.612635,0.0021 0.888035,-0.112585 0.628368,-0.262001 1.138628,-0.962679 1.467978,-1.506458 0.44333,-0.731973 0.76237,-1.55574 0.98327,-2.379464 0.10592,-0.394968 0.15969,-0.802106 0.23953,-1.203161 0.0132,-0.302067 0.56277,-3.149285 -0.78176,-2.572978 -0.31071,0.133181 -0.4528,1.460434 -0.48747,1.675289 -0.12492,1.158861 -0.30557,2.339811 -0.19885,3.509504 0.0431,0.472171 0.1447,1.261724 0.63634,1.558521 0.27198,0.164189 0.62202,0.129717 0.93302,0.194577 0.30434,-0.12137 0.60869,-0.242739 0.91303,-0.364109 0.64186,-0.296683 0.22228,-1.204405 -0.41957,-0.907722 v 0 c -0.15458,0.09076 -0.30917,0.181515 -0.46375,0.272272 -0.15802,0.128659 -0.28413,0.338444 -0.44689,-0.03815 -0.0986,-0.22811 -0.12879,-0.482399 -0.15228,-0.729787 -0.10557,-1.111655 0.0696,-2.234655 0.18625,-3.336226 0.0442,-0.27576 0.14042,-0.548095 0.13273,-0.827273 -0.002,-0.06762 -0.10212,-0.08949 -0.15899,-0.126135 -0.21411,-0.137946 -0.40224,-0.351819 -0.65291,-0.396944 -0.0967,-0.01741 0.0487,0.191442 0.0558,0.289449 0.0491,0.683924 -0.005,0.872604 -0.0761,1.607638 -0.0692,0.360397 -0.11513,0.726043 -0.20756,1.08119 -0.29406,1.129848 -0.82234,2.449354 -1.737347,3.228097 -0.07792,0.06632 -0.172447,0.110191 -0.25867,0.165288 -0.104155,-0.03132 -0.218723,-0.03881 -0.312467,-0.09395 -0.59686,-0.351102 -0.737008,-1.200483 -0.628788,-1.823456 0.03054,-0.175805 0.107318,-0.340357 0.160975,-0.510534 0.09096,-0.138102 0.163992,-0.289851 0.272881,-0.414303 0.06463,-0.07386 0.44835,-0.400677 0.603351,-0.419783 0.420034,-0.05177 0.724035,0.353917 0.937605,0.640159 0.0363,0.09166 0.0922,0.177808 0.109,0.274966 0.0339,0.19672 -0.11176,0.505325 -0.31989,0.55109 -0.173014,0.03804 -0.363247,-0.03401 -0.524727,-0.07876 -0.599805,-0.374475 -1.129395,0.473779 -0.52959,0.848254 z" />
    <path
       style="fill:#0000ff;stroke-width:0.264583"
       id="path352"
       d="m 102.94432,57.471193 c 0.12182,1.08386 0.19299,2.196227 0.59562,3.221061 -0.0127,-0.06319 -0.0255,-0.126389 -0.0382,-0.189582 -0.0607,0.70449 0.93555,0.790409 0.9963,0.08592 v 0 c -0.0104,-0.0905 -0.0208,-0.181002 -0.0311,-0.271505 -0.39809,-0.937305 -0.38973,-1.995675 -0.53264,-2.987429 -0.10008,-0.699987 -1.09001,-0.558451 -0.98993,0.141539 z" />
    <path
       style="fill:#0000ff;stroke-width:0.264583"
       id="path354"
       d="m 105.02522,55.550135 c 0.0597,-0.102923 0.11938,-0.205846 0.17907,-0.308771 0.35324,-0.612553 -0.51304,-1.112107 -0.86628,-0.499555 v 0 c -0.069,0.120277 -0.13805,0.240557 -0.20707,0.360834 -0.31643,0.632357 0.57786,1.079849 0.89428,0.447492 z" />
    <path
       style="fill:#0000ff;stroke-width:0.264583"
       id="path356"
       d="m 107.95238,59.165931 c 0.1894,-0.456822 0.29833,-0.640916 0.36162,-1.157824 0.0686,-0.560012 0.0483,-1.421239 -0.46363,-1.809142 -0.18759,-0.142145 -0.43966,-0.168169 -0.65949,-0.252251 -0.25146,0.0808 -0.52833,0.105783 -0.75437,0.242409 -0.82863,0.500853 -1.44716,1.965412 -1.44201,2.902796 0.001,0.250291 0.0798,0.494181 0.11977,0.74127 0.27427,0.472684 0.35479,0.845561 0.99813,0.949537 0.59868,0.09676 1.11722,-0.214284 1.52909,-0.596382 0.51641,-0.479089 0.64838,-0.850154 0.96937,-1.456253 0.0595,-0.08423 0.73366,-1.806263 -0.10971,-1.698165 -0.93013,0.119219 -0.77231,1.671331 -0.77114,2.237298 0.0717,0.662387 0.13214,1.738466 1.13588,1.666722 0.29964,-0.02143 0.53001,-0.282959 0.79502,-0.424437 0.57051,-0.417756 -0.0203,-1.224576 -0.5908,-0.806817 v 0 c -0.0356,0.07867 -0.0929,0.15078 -0.10689,0.236 -0.0131,0.07951 0.10446,0.267684 0.0288,0.239993 -0.22599,-0.08272 -0.2602,-0.904751 -0.26203,-0.917729 -0.003,-0.230441 -0.017,-0.461055 -0.008,-0.691324 0.008,-0.190212 0.17694,-0.419092 0.0585,-0.568097 -0.10554,-0.132739 -0.36785,0.09615 -0.50874,0.0019 -0.18141,-0.121513 -0.15743,-0.43333 -0.33176,-0.564788 -0.22858,-0.17236 0.29042,1.495481 -0.21787,0.830734 -0.3291,0.658532 -0.46088,0.947115 -1.03084,1.425966 -0.0656,0.05515 -0.2636,0.251844 -0.39852,0.177763 -0.0894,-0.0491 -0.13156,-0.155932 -0.19734,-0.2339 -0.0363,-0.142023 -0.10219,-0.27964 -0.10875,-0.426069 -0.0399,-0.89087 0.46178,-1.637048 0.99917,-2.2895 0.0752,-0.08149 0.13005,-0.20437 0.23992,0.0088 0.25656,0.497917 0.0743,1.23539 -0.13083,1.716633 -0.36412,0.606152 0.49311,1.121089 0.85723,0.51494 z" />
    <path
       style="fill:#0000ff;stroke-width:0.264583"
       id="path358"
       d="m 111.15133,53.517334 c -0.40037,1.422736 -0.66823,2.90309 -0.64065,4.387048 0.007,0.3664 0.016,0.737449 0.0951,1.095277 0.0664,0.300313 0.22463,0.572646 0.33695,0.85897 0.22203,0.190463 0.40266,0.444188 0.66609,0.571391 0.53372,0.257726 1.11792,0.163949 1.65122,0.0021 0.22253,-0.06752 0.42508,-0.188719 0.63762,-0.283078 0.64167,-0.2971 0.22151,-1.20455 -0.42016,-0.907449 v 0 c -0.34098,0.167322 -0.88179,0.4495 -1.28243,0.378275 -0.11932,-0.02122 -0.22073,-0.100153 -0.33109,-0.150231 -0.0874,-0.186759 -0.21569,-0.359402 -0.26228,-0.560279 -0.0731,-0.315137 -0.0846,-0.642739 -0.0918,-0.966163 -0.0308,-1.382683 0.21793,-2.76184 0.58311,-4.089453 0.2379,-0.665887 -0.70381,-1.002323 -0.94171,-0.336436 z" />
    <path
       style="fill:#0000ff;stroke-width:0.264583"
       id="path360"
       d="m 150.81156,52.136248 c -0.43678,1.064517 -0.76003,2.168605 -0.94635,3.304765 -0.0422,0.257509 -0.20351,1.511763 -0.13629,1.879172 0.0402,0.219614 0.17818,0.409429 0.26727,0.614142 0.29305,0.0876 0.5733,0.260623 0.87915,0.262793 0.29632,0.0021 0.57036,-0.161367 0.85296,-0.250505 0.51049,-0.16102 0.99651,-0.38377 1.5391,-0.425389 0.52265,-0.04009 0.45023,-0.02344 0.67304,0.280408 -0.0168,0.09069 -0.0169,0.186118 -0.0504,0.272052 -0.38009,0.975294 -1.7891,1.517478 -2.75081,1.53937 -0.35551,0.0081 -0.70474,-0.09559 -1.05711,-0.143383 -0.13901,0.155011 -1.54555,-0.746265 -0.95852,-0.968801 0.096,-0.03639 0.20684,0.0084 0.30779,-0.01021 0.21027,-0.03888 0.41389,-0.107651 0.62084,-0.161475 0.67526,-0.209791 0.37857,-1.164765 -0.2967,-0.954974 v 0 c -0.64673,0.222798 -1.34383,0.299654 -1.63066,1.076251 -0.23603,0.639058 0.28283,1.241456 0.7472,1.543547 0.33356,0.216996 0.73178,0.312894 1.09767,0.469339 0.45487,0.0435 0.90848,0.15765 1.36462,0.130493 0.46203,-0.02751 0.92371,-0.130824 1.35739,-0.292539 0.98146,-0.365975 2.23144,-1.258795 2.16997,-2.463896 -0.0152,-0.297444 -0.21299,-0.556281 -0.31949,-0.834424 -0.23146,-0.14097 -0.43555,-0.342606 -0.69439,-0.42291 -0.73651,-0.228505 -1.74812,0.173744 -2.43034,0.416076 -0.17747,0.06305 -0.38264,0.08136 -0.52803,0.20108 -0.0646,0.05316 -0.0133,0.16673 -0.0199,0.250095 -0.30453,-0.254336 -0.18566,-0.09366 -0.1368,-0.80437 0.0991,-1.440524 0.47519,-2.841146 1.02174,-4.173794 0.23539,-0.666777 -0.70757,-0.999676 -0.94296,-0.332902 z" />
    <path
       style="fill:#0000ff;stroke-width:0.264583"
       id="path362"
       d="m 154.5472,57.833958 c 0.0691,0.743418 0.12924,1.490511 0.26762,2.225299 0.0371,0.196861 0.0519,0.403818 0.13706,0.585121 0.0739,0.157181 0.2187,0.269835 0.32805,0.404751 0.54108,0.455224 1.18486,-0.309983 0.64378,-0.765206 v 0 c 5.3e-4,0.04325 0.0144,0.170963 0.001,0.129765 -0.20528,-0.641398 -0.25306,-1.348095 -0.3219,-2.012876 -0.022,-0.212471 -0.0389,-0.42544 -0.0583,-0.638159 -0.0504,-0.705308 -1.04788,-0.634 -0.99746,0.07131 z" />
    <path
       style="fill:#0000ff;stroke-width:0.264583"
       id="path364"
       d="m 155.97796,55.830279 c 0.24352,-0.710883 0.54259,-1.400995 0.86194,-2.080562 0.30034,-0.640154 -0.60497,-1.064897 -0.90531,-0.424743 v 0 c -0.34284,0.73184 -0.66588,1.474462 -0.92135,2.242015 -0.18617,0.682157 0.77854,0.945449 0.96472,0.26329 z" />
    <path
       style="fill:#0000ff;stroke-width:0.264583"
       id="path366"
       d="m 159.28026,51.011446 c -0.28794,0.09517 0.34886,-0.743579 0.10753,-0.719579 -0.39275,0.03906 -0.85348,0.121682 -1.10477,0.426035 -0.24776,0.30008 -0.13707,0.766188 -0.19705,1.150681 -0.2628,1.68444 -0.21692,1.482621 -0.39032,3.241114 -0.018,0.940538 -0.0992,2.028957 0.0927,2.970699 0.12854,0.631047 0.37901,1.351095 1.03454,1.645446 0.2936,0.13184 0.63998,0.069 0.95997,0.103505 0.70709,-0.0056 0.69917,-1.005564 -0.008,-0.999969 v 0 c -0.10991,0.03791 -0.21427,0.127366 -0.32973,0.113713 -0.46424,-0.0549 -0.58715,-0.603755 -0.66132,-0.956924 -0.18444,-0.87825 -0.10807,-1.903007 -0.093,-2.778641 0.16908,-1.725498 0.12263,-1.511712 0.3808,-3.170335 0.0583,-0.374642 0.32075,-0.764749 0.19156,-1.121212 -0.12994,-0.358563 -0.53012,-0.56856 -0.86804,-0.745378 -0.19772,-0.103455 0.19529,0.907735 -0.0988,0.662111 -0.12638,0.695722 0.85752,0.874454 0.9839,0.178734 z" />
    <path
       style="fill:#0000ff;stroke-width:0.264583"
       id="path368"
       d="m 161.28644,58.264681 c 0.80544,0.330848 1.66138,0.310827 2.32977,-0.327946 0.18483,-0.176633 0.35539,-0.384273 0.44785,-0.62262 0.10773,-0.277693 0.0908,-0.588743 0.13627,-0.883113 -0.0575,-0.281615 -0.0736,-0.575022 -0.17264,-0.844846 -0.36468,-0.993336 -1.40083,-1.768507 -2.48021,-1.33268 -0.24173,0.0976 -0.42838,0.297204 -0.64257,0.445807 -0.14814,0.243263 -0.33395,0.467265 -0.44443,0.72979 -0.42364,1.006705 -0.34689,2.501243 0.16274,3.463424 0.11697,0.220843 0.2999,0.399836 0.44985,0.599755 0.19698,0.107892 0.37029,0.281758 0.59093,0.323678 1.38025,0.262245 1.61558,-1.526323 1.90887,-2.424263 0.10995,-0.336613 0.23844,-0.666888 0.35765,-1.000334 0.2094,-0.494824 0.43979,-1.110755 0.73508,-1.577038 0.0647,-0.102116 0.2019,-0.156144 0.24177,-0.270248 0.0309,-0.0883 -0.12051,0.16338 -0.2117,0.184203 -0.61543,0.140528 -0.36218,-0.450525 -0.47183,0.507034 -0.0885,0.903644 -0.43855,1.894078 -0.0726,2.789428 0.10808,0.264424 0.26649,0.538133 0.50859,0.689755 0.27119,0.169839 0.62376,0.143145 0.93564,0.214718 0.70517,0.05227 0.77909,-0.944994 0.0739,-0.997265 v 0 c -0.0849,0.04216 -0.16138,0.142428 -0.25486,0.126473 -0.77094,-0.131561 -0.23951,-2.285608 -0.19409,-2.740668 0.0166,-0.271031 0.13043,-0.553804 0.0498,-0.813093 -0.22661,-0.72866 -0.52053,-1.003001 -1.1291,-0.603139 -0.16066,0.105566 -0.25931,0.28652 -0.36161,0.449281 -0.31424,0.499922 -0.56747,1.17435 -0.79089,1.704655 -0.63543,1.786061 -0.14341,0.33741 -0.62733,1.921888 -0.0587,0.192103 -0.1324,0.37951 -0.1877,0.572614 -0.0282,0.09836 -0.0344,0.328718 -0.10379,0.352039 -0.0691,0.02323 -0.14403,-0.02307 -0.21604,-0.03462 -0.099,-0.111111 -0.22239,-0.20457 -0.29702,-0.33333 -0.42861,-0.739587 -0.46221,-1.820174 -0.21889,-2.62514 0.0448,-0.14818 0.12474,-0.283361 0.18711,-0.425042 0.18626,-0.194445 0.25706,-0.338095 0.54451,-0.376957 0.46367,-0.06268 0.81167,0.325911 0.98467,0.707808 0.0757,0.167073 0.1,0.352951 0.14997,0.529425 0.007,0.141275 0.0518,0.28547 0.0223,0.423823 -0.0278,0.130292 -0.10455,0.248867 -0.18806,0.352679 -0.35123,0.436618 -0.87365,0.436788 -1.34594,0.230172 -0.64622,-0.287054 -1.05217,0.62684 -0.40596,0.913892 z" />
    <path
       style="fill:#0000ff;stroke-width:0.264583"
       id="path372"
       d="m 169.43007,53.729368 c 0.32423,-1.210807 0.71799,-2.402316 1.047,-3.611639 0.413,-1.517986 0.0112,-0.144648 0.23445,-0.900229 -0.33878,-0.02267 -0.71919,-0.232302 -1.01633,-0.06801 -0.22071,0.122028 -0.12866,0.48777 -0.18675,0.733187 -0.19349,0.817554 -0.41574,1.863381 -0.57943,2.671024 -0.10183,0.502431 -0.21809,1.002519 -0.29534,1.50931 -0.0747,0.490133 -0.10675,0.985822 -0.16013,1.478733 -0.001,0.958376 -0.0951,2.41482 0.94989,2.971903 0.6504,0.346731 1.33974,0.17494 1.94805,-0.125558 0.28645,-0.141505 0.52179,-0.368845 0.78268,-0.553268 0.17678,-0.213529 0.35357,-0.427061 0.53035,-0.64059 0.43948,-0.553943 -0.34391,-1.17547 -0.78339,-0.621525 v 0 c -0.11368,0.152561 -0.22734,0.305125 -0.34101,0.457689 -0.49466,0.388181 -0.49895,0.459457 -1.07443,0.665208 -0.12308,0.044 -0.2552,0.111665 -0.38297,0.08416 -0.83264,-0.179216 -0.59226,-1.635993 -0.63484,-2.131618 0.0491,-0.464379 0.0769,-0.931487 0.14719,-1.39313 0.0765,-0.502324 0.19174,-0.997987 0.29264,-1.49598 0.15813,-0.780521 0.382,-1.835502 0.56981,-2.62957 0.0573,-0.24226 0.3136,-0.511016 0.18429,-0.723741 -0.17729,-0.291661 -0.60655,-0.313198 -0.90982,-0.469794 -0.27337,0.937107 0.21701,-0.759074 -0.23519,0.902769 -0.3273,1.202833 -0.71904,2.38792 -1.04118,3.592338 -0.21095,0.674907 0.74351,0.973235 0.95446,0.298328 z" />
    <path
       style="fill:#0000ff;stroke-width:0.264583"
       id="path374"
       d="m 166.84522,55.644002 c 1.42106,-0.41963 2.865,-0.738535 4.31876,-1.019292 0.69425,-0.134202 0.50446,-1.116026 -0.1898,-0.981824 v 0 c -1.48221,0.286782 -2.95464,0.611923 -4.40366,1.039585 -0.6799,0.194242 -0.40521,1.155772 0.2747,0.961531 z" />
    <path
       style="fill:#0000ff;stroke-width:0.264583"
       id="path376"
       d="m 171.64111,56.371804 c 1.13364,0.05468 2.71978,0.155411 3.70466,-0.506637 0.20904,-0.140515 0.36203,-0.350282 0.54305,-0.525423 0.083,-0.229558 0.22786,-0.445482 0.24916,-0.688671 0.0776,-0.886015 -0.65195,-1.502505 -1.45698,-1.652505 -0.77245,-0.143931 -1.03159,0.04772 -1.74448,0.290076 -0.24716,0.199525 -0.53206,0.359746 -0.74149,0.598575 -0.4506,0.513852 -0.66026,1.099896 -0.70149,1.776428 -0.0354,0.581065 0.128,1.356336 0.33543,1.898068 0.10768,0.281236 0.26873,0.539019 0.4031,0.808529 0.20389,0.211836 0.36166,0.480791 0.61167,0.635503 1.01717,0.629439 2.02869,0.269494 3.0623,-0.01482 0.67999,-0.193955 0.4057,-1.155599 -0.27429,-0.961644 v 0 c -0.48691,0.145 -1.5662,0.5162 -2.08816,0.262179 -0.1693,-0.08239 -0.28075,-0.250942 -0.42113,-0.376412 -0.11093,-0.210299 -0.24342,-0.410568 -0.33279,-0.630894 -0.33453,-0.82473 -0.50989,-1.872157 0.0588,-2.639912 0.11997,-0.161975 0.29111,-0.278871 0.43666,-0.418306 0.18157,-0.07667 0.35398,-0.180311 0.5447,-0.229997 0.33433,-0.08709 1.23188,-0.08128 1.34385,0.390517 0.0207,0.08716 -0.009,0.178935 -0.0135,0.268401 -0.0787,0.101214 -0.13358,0.226782 -0.23624,0.303641 -0.784,0.587018 -2.27807,0.453636 -3.20608,0.416261 -0.70502,-0.05427 -0.78177,0.942785 -0.0767,0.997051 z" />
    <path
       style="fill:#0000ff;stroke-width:0.264583"
       id="path378"
       d="m 177.11231,54.914 c -0.2187,0.712902 -0.39943,1.446866 -0.48781,2.188829 -0.0201,0.168463 -0.0709,0.344853 -0.0255,0.508326 0.0525,0.189087 0.11009,0.497803 0.30626,0.502793 0.34398,0.0088 0.61214,-0.314436 0.91821,-0.471654 0.40655,-0.854446 0.59729,-1.861508 1.23486,-2.593774 0.22038,-0.253111 0.45118,-0.360619 0.73122,-0.525717 0.52124,-0.21369 0.67668,-0.110183 1.11556,0.170638 0.61037,0.357005 1.11525,-0.506185 0.50488,-0.86319 v 0 c -0.15168,-0.08405 -0.29354,-0.188992 -0.45503,-0.252169 -0.62779,-0.245586 -1.09114,-0.184147 -1.69015,0.09346 -0.46427,0.295119 -0.66604,0.377383 -1.03758,0.820867 -0.63991,0.763815 -0.89188,1.764281 -1.27581,2.660475 0.18678,0.05533 0.40636,0.04668 0.56035,0.165987 0.0912,0.07062 -0.0162,0.387746 0.0863,0.335012 0.11447,-0.05886 -0.002,-0.258103 0.0127,-0.385934 0.0821,-0.696627 0.24928,-1.386512 0.45594,-2.055408 0.2111,-0.674859 -0.7433,-0.973399 -0.9544,-0.298541 z" />
    <path
       style="fill:#0000ff;stroke-width:0.264583"
       id="path380"
       d="m 183.7611,55.750859 c 0.60453,0.199078 1.55035,0.379537 1.87034,-0.403564 0.24648,-0.603176 -0.0156,-0.880314 -0.25578,-1.395955 -0.18696,-0.172265 -0.33949,-0.391829 -0.56088,-0.5168 -1.02868,-0.580689 -2.38272,-0.145576 -3.06818,0.759907 -0.17201,0.22723 -0.26292,0.505722 -0.39438,0.758582 -0.0521,0.257045 -0.13626,0.50963 -0.15636,0.771133 -0.0532,0.692582 0.13845,1.515542 0.73151,1.95262 0.19863,0.146391 0.43497,0.26453 0.68017,0.292142 0.2698,0.03038 0.5366,-0.08327 0.8049,-0.124909 0.23238,-0.18215 0.49322,-0.332926 0.69715,-0.54645 0.74414,-0.779139 1.0499,-1.924359 1.40903,-2.911112 -0.33548,0.0082 -0.70567,-0.124259 -1.00644,0.02458 -0.15349,0.07595 -0.05,0.338852 -0.0714,0.508764 -0.0741,0.589854 -0.21725,1.531805 0.19657,2.041875 0.18269,0.225173 0.477,0.329821 0.7155,0.494731 0.35701,-0.03838 0.73747,0.01778 1.07103,-0.115126 0.78761,-0.313843 1.4025,-1.074295 1.96453,-1.65735 0.48771,-0.512003 -0.23637,-1.201719 -0.72408,-0.689716 v 0 c -0.55474,0.590476 -1.08507,1.26542 -1.86566,1.567072 -0.0787,0.0069 -0.17427,0.06986 -0.23619,0.02074 -0.10226,-0.08113 -0.14968,-0.221498 -0.17758,-0.349012 -0.0754,-0.344363 0.004,-0.838385 0.0462,-1.174432 0.0206,-0.164801 0.17599,-0.366334 0.0691,-0.493453 -0.22701,-0.269963 -0.61432,-0.3468 -0.92148,-0.5202 -0.36173,0.996878 -0.64589,2.056381 -1.41841,2.831391 -0.0775,0.04844 -0.14335,0.124944 -0.23242,0.145325 -0.0889,0.02035 -0.1893,0.0085 -0.27205,-0.0299 -0.58238,-0.270306 -0.48912,-1.113051 -0.40066,-1.609045 0.0643,-0.158493 0.10044,-0.331533 0.1928,-0.475477 0.32218,-0.502124 1.122,-0.936715 1.72313,-0.707348 0.12403,0.04733 0.21725,0.152641 0.32588,0.228963 0.0641,0.08617 0.12323,0.176318 0.19239,0.258498 0.036,0.04276 0.18997,0.16792 0.18991,0.16842 -0.0243,0.201266 -0.66709,-0.009 -0.7469,-0.03339 -0.65655,-0.262567 -1.02787,0.665933 -0.37132,0.928503 z" />
    <path
       style="fill:#0000ff;stroke-width:0.264583"
       id="path382"
       d="m 188.90263,49.516783 c -0.5116,2.071931 -0.77216,4.225724 -0.6526,6.361637 0.016,0.285414 0.059,0.568669 0.0885,0.853003 0.0588,0.432623 0.11523,0.737521 0.33976,1.098151 0.45133,0.544337 1.22114,-0.09394 0.76981,-0.638276 v 0 c 0.0163,0.03667 0.0592,0.148812 0.0489,0.110022 -0.0173,-0.06494 -0.0466,-0.126048 -0.0699,-0.189071 -0.0314,-0.162007 -0.0628,-0.324017 -0.0941,-0.486027 -0.0277,-0.256415 -0.0682,-0.511773 -0.0831,-0.769249 -0.11714,-2.021716 0.1289,-4.060069 0.60149,-6.023901 0.22365,-0.670806 -0.72501,-0.987095 -0.94866,-0.316289 z" />
    <path
       style="fill:#0000ff;stroke-width:0.264583"
       id="path388"
       d="m 33.539345,68.319501 c -0.415748,0.19676 -0.850829,0.357008 -1.247241,0.59028 -0.592055,0.348401 -1.1856,0.706461 -1.710155,1.150027 -2.30659,1.950466 -3.8125,4.42268 -4.553946,7.354576 -0.262345,1.037391 -0.309961,2.117531 -0.464942,3.176299 0.119109,1.094957 0.111957,2.21113 0.357328,3.284865 0.712254,3.116805 2.535651,5.842275 5.321896,7.474667 2.462152,1.442516 3.364212,1.234583 6.136402,1.526506 1.09283,-0.208383 2.228048,-0.258713 3.278487,-0.62515 4.386871,-1.530321 7.962635,-5.623893 8.560972,-10.28192 0.144534,-1.12518 -0.07642,-2.267564 -0.114626,-3.401343 -0.43937,-1.045194 -0.697066,-2.187014 -1.318112,-3.135582 -2.070274,-3.162091 -5.72939,-4.768133 -9.300413,-5.456976 -1.177227,-0.227081 -2.381771,-0.349239 -3.580665,-0.340172 -1.100775,0.0083 -2.186043,0.261366 -3.279063,0.392049 -0.894659,0.308893 -1.789316,0.617786 -2.683973,0.926679 -0.667459,0.233453 -0.337304,1.17738 0.330152,0.943928 v 0 c 0.825331,-0.292701 1.650662,-0.585399 2.47599,-0.878099 1.021564,-0.129606 2.035021,-0.375645 3.064687,-0.388819 1.137417,-0.01455 2.28046,0.09803 3.398771,0.306136 3.277095,0.609825 6.699031,2.030789 8.656484,4.891781 0.572762,0.837142 0.824659,1.85348 1.236991,2.780218 0.05082,1.028242 0.270639,2.062035 0.152469,3.084727 -0.49725,4.303334 -3.771173,8.113022 -7.793268,9.576313 -0.954804,0.347371 -1.990804,0.407408 -2.986209,0.611111 -2.524421,-0.233373 -3.361388,-0.03507 -5.615517,-1.316337 -2.5938,-1.47434 -4.262046,-3.932227 -4.947861,-6.802736 -0.236379,-0.989367 -0.240668,-2.020144 -0.361003,-3.030215 0.138546,-0.99282 0.177445,-2.004727 0.415639,-2.978457 0.666581,-2.724978 2.044848,-5.041072 4.173617,-6.865749 0.483767,-0.414661 1.033052,-0.748999 1.580129,-1.075622 0.359753,-0.214786 0.755366,-0.362833 1.133049,-0.544247 0.670858,-0.223497 0.35479,-1.172232 -0.316069,-0.948738 z" />
    <path
       style="fill:#0000ff;stroke-width:0.264583"
       id="path398"
       d="m 54.327353,69.320518 c -0.398145,0.145997 -0.8045,0.271293 -1.194432,0.437991 -2.706077,1.156867 -5.243333,2.675332 -7.71384,4.262649 -3.088323,1.984269 -4.391763,2.967114 -7.417893,5.119579 -4.080819,2.957769 -8.047476,6.069854 -12.134265,9.019357 -1.064744,0.768443 -2.261716,1.59951 -3.348146,2.358388 -0.689282,0.311621 -1.219594,1.022275 -1.961683,1.250748 -0.02911,0.009 0.03606,-0.06154 0.0665,-0.06266 0.08654,-0.0031 0.167938,0.04345 0.253478,0.05695 -0.289876,-0.644959 -1.201985,-0.23501 -0.912109,0.409948 v 0 c 0.155411,0.27872 0.180787,0.423545 0.566676,0.528868 0.302883,0.08267 0.619516,-0.08421 0.863487,-0.226205 0.391174,-0.227666 1.437684,-0.960314 1.6963,-1.137849 1.096793,-0.766138 2.29013,-1.594644 3.366312,-2.371381 4.083003,-2.946918 8.046374,-6.055728 12.123114,-9.011309 3.011935,-2.142783 4.290327,-3.107504 7.361841,-5.082476 2.415508,-1.553165 4.893855,-3.036747 7.536209,-4.176366 0.360058,-0.155289 0.735274,-0.272767 1.10291,-0.409152 0.683831,-0.179927 0.429376,-1.147011 -0.254455,-0.967083 z" />
    <path
       style="fill:#00ff00;stroke-width:0.264583"
       id="path467"
       d="m 52.415921,53.089791 c 2.613996,-1.08639 5.208056,-2.220918 7.791074,-3.378859 0.645234,-0.289264 0.236157,-1.201761 -0.409078,-0.9125 v 0 c -2.56219,1.148691 -5.135623,2.273347 -7.727719,3.353022 -0.663504,0.244464 -0.317781,1.182801 0.345723,0.938337 z" />
    <path
       style="fill:#00ff00;stroke-width:0.264583"
       id="path469"
       d="m 58.540541,47.102341 c 1.205066,-0.238495 2.502463,-0.04949 3.551253,0.617927 0.148958,0.09479 0.270195,0.227354 0.405292,0.341029 0.04236,0.08864 0.139205,0.168434 0.127066,0.26592 -0.0081,0.06493 -0.122465,0.05187 -0.171966,0.09466 -0.149376,0.129138 -0.275995,0.28266 -0.420346,0.417391 -0.298196,0.278326 -1.382978,1.239539 -1.6616,1.487326 -0.528367,0.469924 0.136208,1.21715 0.664573,0.747226 v 0 c 0.179398,-0.159565 1.602504,-1.417608 1.762231,-1.590765 0.498662,-0.540586 0.850823,-0.901959 0.681339,-1.675733 -0.04518,-0.206264 -0.236233,-0.350057 -0.354349,-0.525087 -0.195522,-0.152389 -0.37533,-0.327435 -0.586565,-0.457166 -1.268235,-0.77888 -2.819302,-0.984612 -4.260133,-0.687469 -0.682173,0.186113 -0.418968,1.150853 0.263205,0.964739 z" />
    <path
       style="fill:#00ff00;stroke-width:0.264583"
       id="path471"
       d="m 77.477018,51.200319 c 0.163865,0.0692 0.33491,0.123389 0.491599,0.207587 0.799994,0.429898 1.410203,0.883177 2.148872,1.440513 1.478695,1.11569 2.869472,2.32455 4.253052,3.554079 0.704991,0.670732 1.153152,1.053219 1.756246,1.761485 0.119896,0.140806 0.218472,0.298461 0.327708,0.447691 0.420722,0.568322 1.224454,-0.02667 0.80373,-0.594992 v 0 c -0.132466,-0.177271 -0.253624,-0.363585 -0.397404,-0.53181 -0.627888,-0.734645 -1.097574,-1.137357 -1.826096,-1.829943 -1.409179,-1.251725 -2.825134,-2.484588 -4.332997,-3.618093 -0.711832,-0.535106 -1.558988,-1.164261 -2.376522,-1.56319 -0.240863,-0.117533 -0.505081,-0.17948 -0.757621,-0.269218 -0.704201,-0.06404 -0.794768,0.931849 -0.09057,0.995891 z" />
    <path
       style="fill:#00ff00;stroke-width:0.264583"
       id="path473"
       d="m 77.573832,52.432579 c -0.390202,-0.932767 -0.635717,-1.916702 -0.92974,-2.882014 -0.227664,-0.747437 -0.168508,-0.419848 -0.235112,-0.980209 7.94e-4,0.107696 -0.03251,0.22117 0.0024,0.323085 0.09807,0.287073 0.930297,0.455853 0.934427,0.45743 0.323998,0.123751 0.646035,0.252712 0.966414,0.385556 0.861597,0.357259 0.93953,0.403884 1.738466,0.77832 0.491654,0.272653 0.55562,0.100393 0.456864,0.30848 0.427546,0.563211 1.224045,-0.04143 0.796502,-0.604639 v 0 c -0.431612,-0.463955 -0.167095,-0.245533 -0.829255,-0.609452 -0.919967,-0.430522 -1.845326,-0.848344 -2.79836,-1.202023 -0.43702,-0.162184 -1.342895,-0.558641 -1.856721,-0.319857 -0.223079,0.103669 -0.267547,0.412871 -0.40132,0.619304 0.02477,0.164868 0.03587,0.332381 0.07433,0.494599 0.114385,0.482407 0.292614,0.947431 0.433488,1.422776 0.218731,0.738063 0.412211,1.4869 0.724662,2.193324 0.27201,0.652696 1.19506,0.268015 0.923049,-0.38468 z" />
    <path
       style="fill:#00ff00;stroke-width:0.264583"
       id="path477"
       d="m 58.810731,37.905258 c 0.05018,0.246425 0.107246,0.491548 0.15054,0.739275 0.182721,1.045578 0.194294,1.352717 0.3626,2.430068 0.141603,0.906407 0.307224,1.809232 0.501246,2.705772 0.25292,0.516623 0.193127,0.652926 1.163873,0.131554 0.183144,-0.09836 0.209386,-0.359667 0.32726,-0.53091 0.128566,-0.186783 0.256397,-0.376225 0.411197,-0.541917 0.410268,-0.43914 0.438669,-0.395812 0.937046,-0.60357 0.100552,0.03039 0.216558,0.02959 0.301659,0.09117 0.448339,0.324451 0.392568,1.539343 0.19548,1.961928 -0.0736,0.157808 -0.22578,0.265147 -0.33867,0.397721 -0.150556,0.0551 -0.291843,0.15267 -0.451667,0.165283 -0.548529,0.04329 -1.375196,-0.353026 -1.676078,-0.815142 -0.249084,-0.382561 0.153877,-0.184515 0.182825,-0.17445 0.378566,-0.597236 -0.466053,-1.132604 -0.844616,-0.535371 v 0 c -0.09287,0.248814 -0.279937,0.480862 -0.278617,0.74644 0.0029,0.584128 0.554326,1.051068 0.993558,1.300181 0.629901,0.357253 1.347912,0.563732 2.075431,0.370104 0.303737,-0.08084 0.542364,-0.317812 0.813546,-0.476718 0.168662,-0.26253 0.391248,-0.497412 0.505984,-0.787591 0.109747,-0.277566 0.144018,-0.58375 0.154178,-0.882052 0.03087,-0.906277 -0.271711,-1.960562 -1.248812,-2.266921 -0.256773,-0.08051 -0.538197,-5.29e-4 -0.807294,-7.93e-4 -0.23192,0.115898 -0.482531,0.200207 -0.695761,0.347691 -0.474435,0.32815 -0.761588,0.716177 -1.082204,1.181669 -0.101698,0.147654 -0.361834,0.300493 -0.279305,0.459658 0.102327,0.197353 0.905126,0.424678 0.618278,0.250013 -0.189674,-0.873027 -0.350747,-1.752775 -0.488622,-2.635541 -0.162928,-1.04317 -0.191484,-1.467104 -0.373007,-2.489798 -0.04836,-0.272444 -0.112389,-0.541872 -0.168587,-0.812811 -0.194405,-0.679854 -1.155869,-0.404921 -0.961461,0.274934 z" />
    <path
       style="fill:#00ff00;stroke-width:0.264583"
       id="path479"
       d="m 66.295203,45.448214 c 0.120333,-0.198567 0.261472,-0.385929 0.361,-0.595699 0.378981,-0.79875 0.549616,-1.703824 0.387988,-2.58156 -0.04767,-0.258908 -0.116065,-0.522026 -0.248015,-0.74983 -0.127135,-0.21949 -0.341498,-0.375144 -0.512247,-0.562718 -0.257926,-0.06727 -0.507415,-0.211892 -0.773779,-0.201806 -1.072653,0.04061 -1.847416,1.235684 -1.81006,2.221709 0.01024,0.270672 0.112771,0.52986 0.169159,0.79479 0.132376,0.227923 0.229354,0.480491 0.397134,0.683768 0.488209,0.591505 1.284489,0.914897 2.0178,0.55068 0.602605,-0.299299 0.650335,-0.63123 0.925293,-1.189601 0.161817,-0.875948 0.109074,-0.444098 0.162465,-1.192101 0.03204,-0.448882 0.130143,-0.650788 -0.924952,-0.0032 -0.09518,0.05842 0.02553,0.221988 0.04355,0.33221 0.03539,0.216604 0.07773,0.432012 0.116594,0.648018 0.107918,0.486807 0.145838,0.785746 0.348829,1.236538 0.06416,0.142481 0.158086,0.269592 0.237128,0.404387 0.371432,0.601696 1.222359,0.07641 0.850929,-0.525283 v 0 c -0.04915,-0.07287 -0.110017,-0.139084 -0.147452,-0.218609 -0.18142,-0.385387 -0.209656,-0.645512 -0.305298,-1.074449 -0.03724,-0.206159 -0.0761,-0.412028 -0.111723,-0.618475 -0.02778,-0.161022 0.07105,-0.417986 -0.07847,-0.483883 -1.211786,-0.534035 -0.994119,0.04547 -1.050874,0.642827 -0.01439,0.151521 -0.03844,0.301974 -0.05765,0.452958 -0.08717,0.263501 -0.180512,0.687861 -0.517435,0.764993 -0.455123,0.104193 -0.736253,-0.332936 -0.935913,-0.654114 -0.04798,-0.151109 -0.119793,-0.296632 -0.143934,-0.453326 -0.07853,-0.509731 0.226865,-1.082069 0.678683,-1.32918 0.06706,-0.03668 0.146566,-0.04346 0.21985,-0.06519 0.08669,0.05794 0.201414,0.08761 0.260083,0.173813 0.0992,0.145761 0.154887,0.320286 0.193305,0.492366 0.189087,0.846963 -0.0533,1.707851 -0.495303,2.431015 -0.473009,0.525608 0.270314,1.194541 0.743323,0.668933 z" />
    <path
       style="fill:#00ff00;stroke-width:0.264583"
       id="path481"
       d="m 69.030304,42.557988 c 0.469725,0.590968 1.353521,1.296702 1.261409,2.142445 -0.01408,0.129349 -0.08973,0.244268 -0.134596,0.366403 -0.09006,0.06817 -0.166053,0.160737 -0.270179,0.204504 -0.642356,0.269997 -1.676699,-0.160864 -2.272784,-0.431718 -0.645306,-0.289105 -1.054161,0.623496 -0.408856,0.912601 v 0 c 1.024927,0.454218 2.396458,0.956717 3.416681,0.197141 0.216689,-0.161332 0.335965,-0.423148 0.503947,-0.634722 0.05151,-0.25463 0.150532,-0.504135 0.154519,-0.763892 0.01632,-1.062781 -0.811421,-1.854456 -1.450234,-2.592887 -0.424352,-0.565621 -1.224259,0.0345 -0.799907,0.600125 z" />
    <path
       style="fill:#00ff00;stroke-width:0.264583"
       id="path483"
       d="m 71.805476,41.788127 c -0.05053,0.642734 -0.07441,1.286031 -0.0643,1.930696 0.0054,0.348271 0.0031,0.701157 0.08154,1.041747 0.200584,0.678061 1.159505,0.394393 0.958922,-0.283668 v 0 c -0.005,0.107762 -0.0049,0.136769 -0.02275,-0.226502 -0.03048,-0.621268 -0.02231,-1.238406 0.01035,-1.85938 0.0091,-0.17336 0.02186,-0.346512 0.03277,-0.519766 0.05878,-0.70466 -0.93776,-0.787786 -0.996537,-0.08313 z" />
    <path
       style="fill:#00ff00;stroke-width:0.264583"
       id="path485"
       d="m 72.668888,39.470393 c 0.01815,-0.481206 -0.07713,-0.990949 0.07908,-1.455952 0.187336,-0.681842 -0.776933,-0.946772 -0.964266,-0.264932 v 0 c -0.02789,0.112792 -0.06656,0.223451 -0.08367,0.33837 -0.07254,0.487103 -0.0249,0.983803 -0.02703,1.473115 0.06406,0.704197 1.05995,0.613598 0.995886,-0.0906 z" />
    <path
       style="fill:#00ff00;stroke-width:0.264583"
       id="path487"
       d="m 75.079499,36.798173 c -0.19287,1.481743 -0.295484,2.975956 -0.377928,4.467659 -0.02212,0.40019 -0.05427,0.800272 -0.05667,1.201068 -0.0021,0.34 0.02892,0.679397 0.04338,1.019095 0.08827,0.279916 0.10386,0.594305 0.264798,0.839751 0.412406,0.628959 0.933984,0.762204 1.651921,0.724474 0.645808,-0.03394 1.119616,-0.312539 1.682141,-0.573098 0.638643,-0.303538 0.209376,-1.206714 -0.429268,-0.903176 v 0 c -0.542935,0.266535 -0.60996,0.337052 -1.205452,0.4774 -0.135199,0.03186 -0.607708,0.136996 -0.752697,-0.04788 -0.1236,-0.157601 -0.141626,-0.374705 -0.212437,-0.562059 -0.0145,-0.309142 -0.0453,-0.617948 -0.0435,-0.927426 0.0024,-0.395589 0.03402,-0.790479 0.05582,-1.185476 0.08007,-1.450932 0.180644,-2.903992 0.362733,-4.345871 0.130434,-0.694973 -0.852405,-0.879435 -0.98284,-0.184462 z" />
    <path
       style="fill:#00ff00;stroke-width:0.264583"
       id="path489"
       d="m 74.4442,42.789004 c 0.774116,-0.409112 1.587987,-0.742091 2.435609,-0.96529 0.233976,-0.06161 0.473898,-0.09789 0.710848,-0.146842 0.692034,-0.145227 0.486651,-1.12391 -0.20538,-0.978683 v 0 c -0.267774,0.05697 -0.538856,0.100156 -0.80332,0.170913 -0.914252,0.244613 -1.792642,0.605221 -2.627876,1.048248 -0.616355,0.346567 -0.126236,1.218221 0.490119,0.871654 z" />
    <path
       style="fill:#00ff00;stroke-width:0.264583"
       id="path497"
       d="m 81.876396,40.841625 c 0.111549,0.128696 0.206166,0.274291 0.334645,0.386091 0.442878,0.385379 1.052076,0.616101 1.606712,0.280069 0.399573,-0.242086 0.445746,-0.522967 0.598069,-0.908656 0.02074,-0.102642 0.16682,-0.302262 0.06225,-0.307927 -0.339421,-0.01839 -0.750779,0.01304 -0.986621,0.257844 -0.169661,0.176104 0.01908,0.488715 0.03211,0.732901 0.04389,0.821791 0.102201,1.554922 0.133175,2.382891 0.01688,0.451511 0.02069,0.90342 0.03104,1.355129 -0.03045,0.855795 -0.0072,1.433809 -0.189913,2.259397 -0.0146,0.06594 -0.20566,0.867613 -0.464777,0.961773 -0.07427,0.02699 0.07712,-0.143946 0.08075,-0.222885 0.0046,-0.09962 -0.03796,-0.195805 -0.05695,-0.293708 -0.342149,-0.628672 -0.394951,-0.692312 -0.685848,-1.370939 -0.08765,-0.204481 -0.33274,-0.765082 -0.338791,-1.052407 -7.93e-4,-0.03195 0.05041,-0.0643 0.08015,-0.05261 0.04186,0.01646 0.0491,0.07536 0.07366,0.113046 0.0867,-0.0065 0.173151,-0.01916 0.26009,-0.01947 0.47157,-0.0016 0.432068,0.05419 0.962922,0.01738 0.56895,-0.03945 0.710107,-0.09629 1.247056,-0.226401 0.686395,-0.169887 0.44614,-1.140598 -0.240255,-0.970712 v 0 c -0.396322,0.100606 -0.590021,0.167646 -1.006457,0.197112 -0.585634,0.04144 -1.175004,-0.104462 -1.737018,0.144092 -0.173742,0.156396 -0.400717,0.268878 -0.521222,0.469186 -0.197718,0.328663 -0.06312,0.791517 0.04011,1.108922 0.263999,0.811744 0.673632,1.576012 1.114177,2.302616 0.252127,0.210846 0.440753,0.540863 0.75638,0.632539 0.60597,0.176009 0.957781,-0.312928 1.155091,-0.743516 0.466596,-1.018244 0.429496,-2.188493 0.470572,-3.276473 -0.01072,-0.461518 -0.01487,-0.923235 -0.03215,-1.384552 -0.03092,-0.825259 -0.08872,-1.555974 -0.132768,-2.374474 -0.01262,-0.23446 0.126934,-0.530185 -0.03125,-0.703704 -0.957112,-1.049906 -0.957101,-0.688239 -1.021437,-0.259474 -0.0021,0.0099 -0.05909,0.404024 -0.07775,0.413067 -0.253529,0.12295 -0.524904,-0.216551 -0.658302,-0.360693 -0.363837,-0.606319 -1.221301,-0.09177 -0.857462,0.514543 z" />
    <path
       style="fill:#00ff00;stroke-width:0.264583"
       id="path499"
       d="m 86.738115,42.310579 c 0.308644,0.0079 0.583205,0.04272 0.884068,-0.08019 0.625446,-0.255498 0.937101,-0.856925 0.77543,-1.523907 -0.05731,-0.236437 -0.215804,-0.436092 -0.323707,-0.65414 -0.157699,-0.168093 -0.292653,-0.360879 -0.473096,-0.504283 -0.625171,-0.496842 -1.289317,-0.588478 -1.956721,-0.08893 -0.487889,0.365183 -0.507605,0.683119 -0.695634,1.221592 -0.0046,0.224398 -0.04328,0.450696 -0.01381,0.6732 0.107592,0.812361 0.800541,1.753317 1.688721,1.794796 0.223473,0.01042 0.439597,-0.08337 0.659397,-0.12505 0.721252,-0.47766 0.891935,-0.858475 1.123506,-1.669947 0.04907,-0.171937 0.08094,-0.348401 0.115022,-0.52392 0.02059,-0.105952 0.07743,-0.215993 0.04889,-0.320085 -0.01968,-0.07184 -0.05292,0.139266 -0.07937,0.208899 -0.287047,-0.03643 -0.578049,-0.169137 -0.861137,-0.109275 -0.0626,0.01323 0.175241,0.890341 0.204046,0.98585 0.210596,0.675019 1.165215,0.37719 0.95462,-0.297828 v 0 c -0.08594,-0.262398 -0.08491,-0.226645 -0.131533,-0.524121 -0.01516,-0.09665 0.04321,-0.232987 -0.03529,-0.29137 -0.263543,-0.196 -0.599294,-0.268951 -0.89894,-0.403426 -0.04713,0.09444 -0.108254,0.183105 -0.141385,0.283316 -0.02729,0.08253 -0.02178,0.172572 -0.0376,0.258038 -0.09418,0.508505 -0.207796,1.034978 -0.543311,1.444595 -0.04818,0.03723 -0.08535,0.09745 -0.14455,0.111694 -0.428725,0.103177 -0.841134,-0.489437 -0.921178,-0.835816 -0.02806,-0.121425 -0.01873,-0.248547 -0.02809,-0.372822 0.02455,-0.119864 0.02927,-0.245573 0.07365,-0.359592 0.0039,-0.0099 0.254884,-0.435369 0.321845,-0.473705 0.342866,-0.196286 0.701521,0.217996 0.903713,0.414359 0.105733,0.137914 0.345565,0.371573 0.284327,0.585179 -0.07482,0.260969 -0.470106,0.176985 -0.652309,0.181859 -0.703591,-0.07041 -0.803172,0.924615 -0.09958,0.995029 z" />
    <path
       style="fill:#00ff00;stroke-width:0.264583"
       id="path501"
       d="m 88.880999,40.338845 c -0.179297,1.148483 -0.393269,2.290665 -0.563009,3.440743 -0.06996,0.474019 -0.146429,1.539578 -0.351997,2.034034 0.283578,-0.05693 0.567158,-0.113863 0.850736,-0.170794 -0.347631,-0.615756 -1.218438,-0.124134 -0.87081,0.491623 v 0 c 0.319839,0.0073 0.639678,0.01458 0.959517,0.02188 0.03799,-0.111771 0.0881,-0.220128 0.113959,-0.335312 0.114548,-0.510294 0.218273,-1.423739 0.286543,-1.886654 0.169553,-1.149643 0.383787,-2.291331 0.562801,-3.439398 0.110392,-0.698436 -0.877345,-0.854556 -0.98774,-0.15612 z" />
    <path
       style="fill:#00ff00;stroke-width:0.264583"
       id="path503"
       d="m 90.040726,41.022267 c 0.08519,-0.0717 0.4405,-0.449443 0.582136,-0.209804 0.05071,0.08579 -0.0635,0.356634 -0.09145,0.425656 -0.58682,0.637747 -1.4126,1.045221 -2.271977,1.139516 -0.0033,-0.0042 -0.0066,-0.0084 -0.0099,-0.01252 -0.704244,-0.06356 -0.794133,0.932389 -0.08989,0.995952 v 0 c 0.07504,0.0029 0.150082,0.0058 0.225126,0.0087 0.125145,-0.0172 0.25197,-0.02487 0.375438,-0.05157 0.836637,-0.180922 1.87606,-0.646702 2.415069,-1.333394 0.151088,-0.192484 0.233955,-0.429855 0.35093,-0.644784 0.0094,-0.506114 0.112647,-0.778182 -0.275383,-1.193991 -0.468366,-0.501891 -1.133819,-0.421362 -1.645185,-0.06366 -0.144983,0.101418 -0.256058,0.244248 -0.384085,0.366372 -0.405561,0.579241 0.41361,1.152792 0.819171,0.573547 z" />
    <path
       style="fill:#00ff00;stroke-width:0.264583"
       id="path505"
       d="m 92.245637,39.428766 c -0.04328,0.704112 -0.07328,1.416378 -0.0042,2.120323 0.03469,0.353476 0.114001,0.891977 0.294835,1.220462 0.08288,0.150554 0.218528,0.265309 0.327793,0.397965 0.494273,0.505661 1.209386,-0.193346 0.715113,-0.699008 v 0 c -0.03479,-0.01471 -0.08461,-0.01196 -0.104378,-0.04416 -0.152445,-0.248184 -0.207947,-0.660122 -0.234508,-0.923134 -0.06691,-0.66249 -0.0383,-1.333238 0.0024,-1.995977 0.05407,-0.705035 -0.943002,-0.781502 -0.997072,-0.07647 z" />
    <path
       style="fill:#0000ff;stroke-width:0.264583"
       id="path576"
       d="m 89.992418,72.887609 c 0.976884,0.884605 2.02256,1.686827 3.08491,2.464935 0.801441,0.574723 1.756547,0.853752 2.672784,1.18695 0.618116,0.217551 1.23308,0.45162 1.806982,0.770154 0.4484,0.224841 0.919189,0.403421 1.40966,0.508532 0.634738,0.113686 1.146446,-0.09751 1.661756,-0.450162 0.53113,-0.379357 0.93311,-0.906711 1.35271,-1.400236 0.44255,-0.516416 0.81721,-1.088165 1.16253,-1.672934 0.37397,-0.776692 0.55319,-1.624491 0.73545,-2.461381 0.12797,-0.722937 0.30207,-1.436235 0.45261,-2.154577 0.11276,-0.577969 0.39829,-1.096025 0.7168,-1.584322 0.35984,-0.435893 0.74893,-0.842034 1.20844,-1.172546 0.29791,-0.146314 0.63167,-0.605988 0.95122,-0.666046 0.35273,0.0085 0.70439,-0.0078 1.04282,0.103608 0.0408,0.02207 0.0876,0.03559 0.12254,0.0662 0.0631,0.05537 0.0721,0.152072 0.0991,0.23159 0.1445,0.425698 0.20532,0.86038 0.27662,1.303131 0.16112,1.449681 0.30976,2.900735 0.4354,4.353972 0.0839,1.229019 0.13665,2.464099 0.34063,3.680601 0.0781,0.471387 0.17441,0.927314 0.43328,1.33314 0.43265,0.490908 0.93824,0.579884 1.53988,0.314058 0.12933,-0.05714 0.24678,-0.138031 0.37017,-0.207048 0.76321,-0.42269 1.44809,-0.963382 2.16828,-1.45153 1.14497,-0.780248 2.19565,-1.687891 3.21915,-2.618949 0.90421,-0.831506 1.83285,-1.663938 2.89375,-2.294721 0.17207,-0.102306 0.35291,-0.189074 0.52936,-0.283609 0.2305,-0.07872 0.92962,-0.463481 1.19445,-0.260303 0.0179,0.01373 -0.002,0.04677 0.008,0.06721 0.0201,0.04329 0.0528,0.07955 0.0793,0.119327 0.32594,0.498094 0.50182,0.995503 0.69845,1.549614 0.16709,0.457867 0.33322,0.918472 0.37518,1.408293 0.0314,0.365852 0.004,0.489182 -0.0281,0.854972 -0.0483,0.160271 -0.0876,0.323569 -0.14506,0.480816 -0.0805,0.22038 -0.38641,0.893477 -0.48,1.093722 -0.26287,0.562403 -0.54609,1.113083 -0.83727,1.661173 -0.58993,1.061913 -1.34647,2.009037 -2.18885,2.878717 -0.6471,0.670094 -1.30721,1.322038 -2.04644,1.890683 -0.42852,0.292174 -0.87008,0.565716 -1.32124,0.821513 -0.43599,0.224959 -0.81154,0.551672 -1.18596,0.865751 -0.34123,0.282937 -0.64057,0.597405 -0.55535,1.083185 0.0181,0.103021 0.0764,0.194752 0.11454,0.292127 0.31401,0.437721 0.58774,0.890873 0.80151,1.385956 0.35486,0.558104 0.61852,1.143939 0.89111,1.74462 0.42563,0.845114 0.65719,1.751447 0.83459,2.675467 0.23632,1.094145 0.22727,2.215851 0.22683,3.328921 -0.0143,0.821029 0.13696,1.644521 0.0425,2.464419 -0.077,0.668161 -0.18367,0.99744 -0.34962,1.669312 -0.24182,0.821201 -0.29829,1.044358 -0.56699,1.838936 -0.18002,0.53236 -0.36336,1.11792 -0.73914,1.55485 -0.0743,0.0864 -0.1705,0.15122 -0.25575,0.22684 -0.0794,0.0291 -0.15428,0.0762 -0.23807,0.0874 -0.17074,0.0228 -0.3872,-0.0798 -0.52893,-0.14045 -0.45721,-0.19577 -0.87986,-0.4539 -1.31457,-0.69389 -0.94245,-0.49176 -1.34665,-1.16226 -1.91327,-2.001462 -0.46494,-0.705919 -0.62642,-1.549604 -0.91822,-2.33045 -0.059,-0.157901 -0.13156,-0.310406 -0.19734,-0.465608 -0.38819,-0.681636 -0.56268,-1.444083 -0.85275,-2.166245 -0.38519,-0.852768 -0.92567,-1.613916 -1.5503,-2.30538 -0.56107,-0.499272 -1.13315,-1.270995 -1.97985,-1.216025 -0.22531,0.01463 -0.43695,0.114017 -0.65542,0.171024 -0.21155,0.118864 -0.43244,0.222459 -0.63465,0.356592 -1.29241,0.857282 -2.27031,2.115529 -3.31189,3.241908 -1.489431,1.547315 -2.973756,3.099678 -4.472825,4.637735 -0.491148,0.419391 -1.070192,1.265511 -1.706054,1.492411 -0.105053,0.0375 -0.204931,0.0176 -0.311275,0.009 -0.07746,-0.0165 -0.156276,-0.0275 -0.232373,-0.0495 -0.139946,-0.0403 -0.655753,-0.23324 -0.751765,-0.2667 -0.555027,-0.19341 -1.116767,-0.35962 -1.681533,-0.52169 -0.962086,-0.27983 -1.659694,-0.948543 -2.307336,-1.676595 -0.30448,-0.381108 -0.516364,-0.829532 -0.568188,-1.318971 -0.01815,-0.171331 0.0098,-0.370602 0.02625,-0.540348 0.09006,-0.588336 0.335219,-0.79651 0.766104,-1.160841 0.09733,-0.07421 0.193349,-0.150167 0.291986,-0.222628 0.231881,-0.170355 0.478388,-0.320297 0.708967,-0.492403 0.478925,-0.357476 0.91263,-0.771861 1.357169,-1.169929 0.770978,-0.658747 1.425414,-1.432256 2.170526,-2.118006 0.582768,-0.553971 1.477885,-0.981014 1.70706,-1.818883 0.04068,-0.148728 0.03183,-0.306732 0.04775,-0.460097 -0.04169,-0.15498 -0.06153,-0.317567 -0.125082,-0.46494 -0.28303,-0.656383 -1.307362,-1.31795 -1.881092,-1.722397 -0.67863,-0.478944 -1.386216,-0.918216 -2.040004,-1.431772 -0.42359,-0.332732 -0.534037,-0.444211 -0.937561,-0.806744 -0.618228,-0.608909 -1.185776,-1.289491 -1.62977,-2.038064 -0.318363,-0.53676 -0.429988,-0.839507 -0.683326,-1.415261 -0.47629,-1.380167 -0.700633,-2.858035 -0.3985,-4.303927 0.04632,-0.221657 0.127868,-0.434467 0.191799,-0.651701 0.09331,-0.171611 0.1675,-0.355097 0.279937,-0.514834 0.409581,-0.581885 1.12861,-1.019974 1.845215,-1.065797 0.177755,-0.01138 0.35524,0.0266 0.532858,0.0399 0.908952,0.1933 1.722236,0.670851 2.628839,0.878343 0.789792,0.180761 1.046051,0.157842 1.850086,0.197106 1.093321,-0.05339 0.577188,-0.0099 1.549291,-0.119454 0.702545,-0.08018 0.589158,-1.073729 -0.11339,-0.993552 v 0 c -0.878073,0.101576 -0.414795,0.06075 -1.390549,0.114035 -0.665515,-0.02762 -0.95427,-0.0094 -1.605341,-0.15513 -0.987835,-0.221118 -1.866725,-0.781635 -2.876915,-0.920465 -0.265385,-0.0053 -0.53222,-0.0442 -0.796155,-0.01601 -1.006129,0.107535 -1.960801,0.740963 -2.510637,1.57866 -0.143912,0.219255 -0.236476,0.468202 -0.354716,0.702305 -0.07382,0.26462 -0.167254,0.524539 -0.221475,0.793858 -0.327856,1.628469 -0.0717,3.291928 0.47503,4.840955 0.293759,0.661749 0.395746,0.946541 0.765847,1.565579 0.489723,0.819113 1.11369,1.562611 1.794122,2.227823 0.43475,0.389438 0.549158,0.505048 1.005789,0.862719 0.662321,0.518785 1.376463,0.965772 2.064076,1.449253 0.541456,0.380209 0.34618,0.232775 0.85571,0.63025 0.266954,0.208246 0.542552,0.409517 0.726688,0.699897 0.02633,0.131451 0.05217,0.16273 -0.02649,0.303975 -0.278093,0.499372 -1.018368,0.866563 -1.406975,1.279178 -0.740444,0.683924 -1.395388,1.449502 -2.159741,2.108208 -0.410575,0.367657 -0.810027,0.758079 -1.252558,1.088097 -0.245576,0.183134 -0.507873,0.343029 -0.754248,0.525089 -0.112236,0.08294 -0.221379,0.169987 -0.33207,0.254979 -0.194459,0.166185 -0.402712,0.331565 -0.570204,0.526775 -0.317701,0.370274 -0.470911,0.836435 -0.544446,1.310984 -0.02506,0.326107 -0.05314,0.490802 -0.0093,0.826746 0.08633,0.662117 0.385064,1.268463 0.801415,1.783088 0.800311,0.894987 1.597162,1.616767 2.777924,1.972187 0.54275,0.15554 1.082796,0.3147 1.616159,0.50049 0.252315,0.0879 0.655386,0.24806 0.917866,0.31123 0.134985,0.0325 0.274286,0.0433 0.411427,0.0649 0.129271,-0.005 0.260099,0.005 0.387808,-0.0152 0.980975,-0.1587 1.664407,-1.16538 2.341531,-1.78794 1.505177,-1.544351 2.995655,-3.102961 4.490935,-4.656817 1.09376,-1.18306 2.11023,-2.501108 3.52092,-3.326204 0.0895,-0.04338 0.30984,-0.183192 0.44382,-0.151355 0.42192,0.100259 0.80786,0.667057 1.1421,0.916967 0.54824,0.60175 1.02006,1.266174 1.3636,2.007592 0.29465,0.727369 0.46734,1.499206 0.86092,2.185876 0.42403,0.978115 0.61066,2.061136 1.20614,2.962141 0.16908,0.25024 0.32447,0.5099 0.50171,0.75443 0.46881,0.64677 1.05226,1.18114 1.75694,1.56276 0.81325,0.44893 1.77502,1.16119 2.75975,0.86031 0.17876,-0.0546 0.32966,-0.17629 0.49448,-0.26443 0.1323,-0.13141 0.27883,-0.2499 0.39689,-0.39423 0.42504,-0.51959 0.64923,-1.17969 0.86015,-1.80424 0.27955,-0.82776 0.33464,-1.049219 0.58673,-1.908483 0.18691,-0.767879 0.29448,-1.091035 0.37717,-1.858441 0.0902,-0.837118 -0.0461,-1.675302 -0.0413,-2.513068 2.6e-4,-1.176856 0.004,-2.362189 -0.245,-3.518924 -0.19433,-1.00009 -0.44767,-1.982906 -0.90581,-2.899015 -0.26826,-0.591135 -0.52764,-1.186572 -0.88503,-1.730942 -0.21895,-0.498504 -0.47084,-0.981511 -0.8119,-1.409012 -0.07,-0.05106 -0.008,-0.02238 -0.0729,0.08033 -0.009,0.01466 -0.0479,0.04527 -0.0432,0.02861 0.0356,-0.128651 0.2226,-0.194506 0.29395,-0.296053 0.3274,-0.275685 0.65393,-0.5662 1.03641,-0.761754 0.49158,-0.279553 0.97389,-0.576725 1.4384,-0.899427 0.77565,-0.600332 1.47522,-1.280642 2.15432,-1.987167 0.90604,-0.93826 1.7201,-1.959631 2.35324,-3.104946 0.30069,-0.566674 0.59354,-1.135824 0.86487,-1.717333 0.12762,-0.273524 0.43815,-0.957562 0.53176,-1.235538 0.0739,-0.219446 0.11948,-0.447432 0.17922,-0.671148 0.0136,-0.181779 0.0377,-0.363077 0.0409,-0.545335 0.0131,-0.740286 -0.17671,-1.448382 -0.4423,-2.132986 -0.23012,-0.648478 -0.47109,-1.28669 -0.8716,-1.85411 -0.24339,-0.270635 -0.30198,-0.395095 -0.67749,-0.531546 -0.59438,-0.215987 -1.31838,0.143426 -1.84783,0.36412 -0.20023,0.108672 -0.40517,0.2091 -0.60071,0.326017 -1.10533,0.6609 -2.07749,1.524542 -3.02082,2.39296 -0.98769,0.899944 -2.00238,1.77668 -3.1075,2.530965 -0.70056,0.476001 -1.36742,1.001895 -2.10957,1.414597 -0.24782,0.153633 -0.15052,0.103452 -0.36392,0.206166 -0.0216,0.0104 -0.0451,0.01722 -0.0651,0.03043 -0.01,0.0064 -0.0104,0.02805 -0.022,0.02704 -0.0219,-0.0019 -0.10472,-0.05313 -0.12827,-0.06707 -0.20942,-0.255834 -0.18332,-0.638609 -0.27533,-0.939596 -0.20437,-1.188702 -0.24213,-2.398631 -0.33025,-3.599548 -0.12798,-1.47787 -0.27807,-2.953718 -0.44456,-4.427699 -0.12793,-0.785214 -0.19973,-1.788766 -0.9295,-2.275993 -0.0833,-0.05563 -0.18244,-0.08289 -0.27366,-0.124333 -0.53155,-0.146659 -1.09577,-0.187201 -1.64134,-0.09294 -0.47781,0.177316 -0.81698,0.510585 -1.22374,0.806426 -0.55437,0.407678 -1.03761,0.894334 -1.45975,1.438381 -0.38053,0.594116 -0.72059,1.221838 -0.85551,1.921938 -0.14957,0.715772 -0.32382,1.42629 -0.45091,2.146631 -0.15982,0.733875 -0.31403,1.47642 -0.61992,2.166517 -0.31519,0.536244 -0.65791,1.060183 -1.06311,1.533186 -0.36203,0.42662 -0.71299,0.894977 -1.16466,1.228847 -0.26544,0.193524 -0.547621,0.350702 -0.887084,0.289274 -0.393883,-0.07461 -0.766572,-0.235794 -1.128144,-0.404974 -0.621157,-0.339426 -1.278831,-0.602644 -1.947336,-0.833829 -0.827167,-0.30076 -1.694656,-0.5451 -2.423697,-1.053954 -1.021403,-0.747842 -2.026383,-1.518743 -2.968781,-2.365396 -0.500107,-0.499891 -1.207061,0.207369 -0.706953,0.70726 z" />
    <path
       style="fill:#0000ff;stroke-width:0.285338"
       id="path586"
       d="m 162.54953,70.253457 c 0.26347,-1.218528 0.59762,-2.4325 1.06587,-3.60616 0.11224,-0.281323 0.24422,-0.556535 0.36634,-0.834805 0.34535,-0.621565 0.47339,-0.904399 0.89603,-1.473568 0.15524,-0.209052 0.44343,-0.606383 0.75953,-0.726456 0.10234,-0.03889 0.34561,0.138354 0.3838,0.161116 0.74941,0.353126 1.51569,0.738719 2.01239,1.356825 0.27328,0.340075 0.41309,0.68112 0.59969,1.059527 0.49019,1.151414 0.63905,2.373283 0.88041,3.573132 0.0993,0.32404 0.33454,1.343228 0.63677,1.575898 0.11456,0.0882 0.25826,0.143594 0.3874,0.215392 0.793,0.187327 1.10112,-0.776941 0.30811,-0.964272 v 0 c 0.0889,0.06227 0.17609,0.126193 0.26643,0.18682 0.0142,0.0095 -0.0289,-0.01961 -0.0375,-0.03313 -0.0342,-0.05411 -0.0637,-0.110448 -0.0894,-0.167902 -0.14221,-0.31805 -0.24587,-0.650319 -0.32589,-0.983472 -0.25761,-1.276829 -0.4189,-2.577179 -0.95823,-3.798083 -0.26445,-0.520968 -0.39418,-0.853768 -0.7886,-1.318506 -0.63936,-0.753322 -1.57842,-1.245738 -2.53213,-1.653257 -0.26484,-0.05183 -0.52298,-0.160674 -0.79452,-0.155483 -1.34455,0.02572 -2.21439,1.953271 -2.69292,2.793365 -0.12972,0.297379 -0.26949,0.591656 -0.38914,0.892141 -0.48241,1.211585 -0.82654,2.464562 -1.0988,3.722148 -0.14699,0.695721 0.99732,0.874453 1.1443,0.178731 z" />
    <path
       style="fill:#0000ff;stroke-width:0.285338"
       id="path590"
       d="m 170.70597,71.374033 c 0.56312,-0.12533 1.30421,-0.317367 1.88635,-0.279259 0.38079,0.09234 0.50871,0.134117 0.75586,0.380754 0.1779,0.233418 0.26578,0.501967 0.38355,0.759211 0.11825,0.146494 0.16837,0.315441 0.24098,0.478126 0.0572,0.128159 0.14041,0.244118 0.17136,0.379023 0.0444,0.388586 -0.0325,0.787048 -0.13489,1.16562 -0.10478,0.523703 -0.32707,1.021265 -0.5104,1.5266 -0.16018,0.443178 -0.50657,0.804323 -0.81225,1.178486 -0.39834,0.499632 -0.7065,1.045716 -1.01689,1.587815 -0.32863,0.566949 -0.70437,1.111351 -1.02631,1.68152 -0.40099,0.712009 -0.69516,1.461762 -1.0625,2.186138 -0.34975,0.748856 -0.58933,1.527278 -0.75765,2.319737 -0.16513,0.820089 -0.372,1.632376 -0.56497,2.447496 -0.15253,0.779013 -0.28125,1.561069 -0.42753,2.340936 -0.15971,0.91368 -0.28173,1.831178 -0.39967,2.749433 -0.0531,0.758175 -0.16359,1.511909 -0.21728,2.270001 -0.0356,0.746392 -0.0216,1.4937 -0.0156,2.240473 0.006,0.820941 0.004,1.641906 0.004,2.462861 -0.0536,0.825736 -0.11037,1.650896 -0.22551,2.471996 -0.0889,0.57949 -0.099,1.16404 -0.095,1.74753 -0.0252,0.44143 -0.0293,0.88053 -0.006,1.32297 -0.048,0.16126 -0.0122,0.32826 -0.0184,0.49142 -0.004,0.0947 -0.0478,0.20656 -0.0676,0.29896 -0.0423,0.23602 -0.0553,0.47492 -0.0586,0.71341 -0.003,0.16276 0.0457,0.12195 -0.0163,0.16703 -0.0417,0.26721 0.007,0.53572 0.0202,0.80341 -0.035,0.19084 -0.0975,0.38446 -0.13217,0.58055 -0.0438,0.19614 -0.007,0.39789 -0.0267,0.59478 -0.003,0.0223 -0.0297,0.0373 -0.0384,0.0584 -0.0129,0.0386 -0.0217,0.0784 -0.0387,0.11578 -0.006,0.0138 -0.0135,-0.0452 -0.028,-0.0373 -0.52756,0.2857 0.0648,-0.007 -0.1971,0.12116 -0.0563,0.0275 -0.0698,0.0112 -0.15298,0.003 -0.21141,-0.0356 -0.39973,0.0852 -0.59637,0.14679 -0.69679,0.37558 -0.0791,1.22286 0.61775,0.84728 v 0 c 0.64084,-0.37165 -0.58663,0.0412 -0.11596,0.003 0.30549,0.0186 0.6042,-0.007 0.86862,-0.15379 0.32881,-0.18538 0.66253,-0.39238 0.75211,-0.74451 0.0939,-0.26769 0.0963,-0.53324 0.10688,-0.80997 0.0399,-0.25688 0.13765,-0.50476 0.14324,-0.76629 -0.009,-0.1843 -0.021,-0.36876 -0.0451,-0.55212 0.0574,-0.30169 0.0348,-0.60548 0.0814,-0.90886 0.0726,-0.33915 0.0882,-0.67341 0.10397,-1.0171 -0.0131,-0.24669 -0.0368,-0.49623 -0.0196,-0.74319 0.007,-0.0964 0.0247,-0.19213 0.0296,-0.28862 0.004,-0.0837 -0.003,-0.16758 -0.004,-0.25138 -0.004,-0.5415 0.004,-1.08408 0.0867,-1.62188 0.12065,-0.86071 0.1811,-1.72582 0.23388,-2.591515 1.7e-4,-0.823298 8.8e-4,-1.64661 -0.004,-2.469896 -0.006,-0.724389 -0.0195,-1.449273 0.0135,-2.173327 0.0517,-0.741619 0.16208,-1.478849 0.21238,-2.2206 0.1156,-0.901766 0.23522,-1.802784 0.39187,-2.70006 0.14352,-0.766598 0.27114,-1.535165 0.41913,-2.301145 0.19336,-0.82225 0.4037,-1.641213 0.56962,-2.468361 0.14915,-0.717002 0.36811,-1.419987 0.67949,-2.098453 0.36041,-0.712417 0.65231,-1.448369 1.04296,-2.149618 0.31935,-0.568803 0.69856,-1.109273 1.02301,-1.675659 0.28382,-0.49581 0.56334,-0.996394 0.92518,-1.454729 0.37512,-0.459346 0.78273,-0.910069 0.97124,-1.456719 0.19097,-0.531791 0.42527,-1.05486 0.53488,-1.605719 0.13505,-0.538083 0.2444,-1.098751 0.12171,-1.646079 -0.11502,-0.330877 -0.275,-0.655447 -0.45381,-0.963909 -0.17103,-0.363889 -0.2996,-0.744871 -0.59573,-1.054579 -0.47457,-0.449231 -0.88931,-0.613338 -1.58387,-0.714949 -0.77656,-0.0098 -1.55283,0.142666 -2.29438,0.32993 -0.78023,0.22352 -0.41259,1.172245 0.36763,0.948727 z" />
    <path
       style="fill:#0000ff;stroke-width:0.292136"
       id="path590-6"
       d="m 161.10933,71.468077 c -0.59028,-0.12533 -1.36711,-0.317367 -1.97733,-0.279259 -0.39913,0.09234 -0.53323,0.134117 -0.79229,0.380754 -0.18649,0.233418 -0.27861,0.501967 -0.40205,0.759211 -0.124,0.146494 -0.1765,0.315441 -0.25261,0.478126 -0.06,0.128159 -0.14722,0.244118 -0.17961,0.379023 -0.0464,0.388586 0.0341,0.787048 0.14141,1.16562 0.10991,0.523703 0.34285,1.021265 0.53501,1.5266 0.16791,0.443178 0.53101,0.804323 0.85143,1.178486 0.41754,0.499632 0.74056,1.045716 1.06593,1.587815 0.34446,0.566949 0.73833,1.111351 1.0758,1.68152 0.4203,0.712009 0.72866,1.461762 1.11372,2.186138 0.36662,0.748856 0.61776,1.527278 0.79418,2.319737 0.1731,0.820089 0.38995,1.632376 0.59222,2.447496 0.15987,0.779013 0.29482,1.561069 0.44814,2.340936 0.16742,0.91368 0.29532,1.831178 0.41894,2.749433 0.0554,0.758175 0.17149,1.511909 0.22776,2.270001 0.0373,0.746392 0.0227,1.4937 0.0164,2.240473 -0.006,0.820941 -0.004,1.641906 -0.004,2.462861 0.056,0.825742 0.1156,1.650902 0.23638,2.472002 0.0932,0.57949 0.10374,1.16404 0.0996,1.74753 0.0265,0.44143 0.0307,0.88053 0.006,1.32297 0.0503,0.16126 0.0134,0.32826 0.0192,0.49142 0.004,0.0947 0.0502,0.20656 0.0708,0.29896 0.0444,0.23602 0.0579,0.47492 0.0615,0.71341 0.004,0.16276 -0.0479,0.12195 0.0171,0.16703 0.0437,0.26721 -0.007,0.53572 -0.0212,0.80341 0.0366,0.19084 0.10212,0.38446 0.13859,0.58055 0.0459,0.19614 0.007,0.39789 0.0281,0.59478 0.004,0.0223 0.0313,0.0373 0.0402,0.0584 0.0134,0.0386 0.0228,0.0784 0.0406,0.11578 0.006,0.0138 0.0149,-0.0452 0.0293,-0.0373 0.55299,0.2857 -0.0679,-0.007 0.20662,0.12116 0.059,0.0275 0.073,0.0112 0.16035,0.003 0.2216,-0.0356 0.419,0.0852 0.62513,0.14679 0.73037,0.37558 0.0829,1.22286 -0.64756,0.84728 v 0 c -0.67174,-0.37165 0.61494,0.0412 0.12162,0.003 -0.32023,0.0186 -0.63334,-0.007 -0.91051,-0.15379 -0.34466,-0.18538 -0.69446,-0.39238 -0.78837,-0.74451 -0.0984,-0.26769 -0.10095,-0.53324 -0.11211,-0.80997 -0.0419,-0.25688 -0.14426,-0.50476 -0.15014,-0.76629 0.0105,-0.1843 0.022,-0.36876 0.0472,-0.55212 -0.0601,-0.30169 -0.0365,-0.60548 -0.0853,-0.90886 -0.076,-0.33915 -0.0925,-0.67341 -0.10898,-1.0171 0.0134,-0.24669 0.0386,-0.49623 0.0206,-0.74319 -0.007,-0.0964 -0.026,-0.19213 -0.031,-0.28862 -0.004,-0.0837 0.004,-0.16758 0.004,-0.25138 0.004,-0.5415 -0.004,-1.08408 -0.0908,-1.62188 -0.12654,-0.86071 -0.18982,-1.72582 -0.24515,-2.591521 -1.7e-4,-0.823298 -8.8e-4,-1.64661 0.004,-2.469896 0.006,-0.724389 0.0203,-1.449273 -0.0149,-2.173327 -0.0542,-0.741619 -0.1699,-1.478849 -0.22262,-2.2206 -0.12117,-0.901766 -0.24656,-1.802784 -0.41077,-2.70006 -0.15044,-0.766598 -0.28422,-1.535165 -0.43933,-2.301145 -0.20269,-0.82225 -0.42317,-1.641213 -0.59709,-2.468361 -0.15635,-0.717002 -0.38586,-1.419987 -0.71226,-2.098453 -0.37779,-0.712417 -0.68378,-1.448369 -1.09327,-2.149618 -0.33474,-0.568803 -0.73222,-1.109273 -1.07232,-1.675659 -0.2975,-0.49581 -0.59053,-0.996394 -0.9698,-1.454729 -0.39321,-0.459346 -0.82048,-0.910069 -1.01807,-1.456719 -0.20018,-0.531791 -0.44576,-1.05486 -0.56067,-1.605719 -0.14157,-0.538083 -0.25619,-1.098751 -0.12758,-1.646079 0.12058,-0.330877 0.28827,-0.655447 0.4757,-0.963909 0.17928,-0.363889 0.31407,-0.744871 0.62447,-1.054579 0.49744,-0.449231 0.93219,-0.613338 1.66024,-0.714949 0.81401,-0.0098 1.62769,0.142666 2.40502,0.32993 0.81784,0.22352 0.43247,1.172245 -0.38537,0.948727 z" />
    <path
       style="fill:#0000ff;stroke-width:0.264583"
       id="path741"
       d="m 166.1323,60.508612 c 0.006,0.892612 0.002,1.784456 -0.032,2.676451 -0.0392,1.01291 -0.0471,2.026404 -0.0768,3.039629 -0.0373,1.146598 -0.0405,2.293781 -0.04,3.440848 0.0193,1.334465 -0.0335,2.668079 -0.0573,4.002095 -0.0144,1.805985 -0.0451,3.611869 -0.0885,5.417399 -0.0548,1.991675 -0.123,3.982569 -0.14316,5.975011 -0.0416,1.97461 -0.0622,3.949446 -0.10349,5.924053 -0.032,2.063991 -0.0656,4.128011 -0.11668,6.191639 -0.0494,1.997189 -0.11182,3.994053 -0.17275,5.990923 -0.0437,1.4451 -0.0307,2.89076 -0.073,4.33583 -0.0345,1.12912 -0.0388,2.25889 -0.0384,3.38845 0.002,0.60845 0.003,1.2169 0.004,1.82534 -0.0172,0.0664 0.0299,0.21955 -0.009,0.27467 -0.002,0.002 -0.005,-0.006 -0.003,-0.008 0.0432,-0.0463 0.09,-0.0891 0.13504,-0.13357 -0.33596,0.11012 -0.18023,0.58525 0.15573,0.47513 v 0 c 0.0563,-0.0482 0.1208,-0.0882 0.16882,-0.14463 0.0776,-0.0912 0.0465,-0.34615 0.0524,-0.46393 -7.9e-4,-0.60825 -0.003,-1.2165 -0.004,-1.82475 -2.7e-4,-1.12463 0.004,-2.24947 0.0382,-3.37367 0.0422,-1.44486 0.0295,-2.8903 0.073,-4.33519 0.061,-1.99783 0.12335,-3.995655 0.17282,-5.993804 0.0511,-2.064266 0.0847,-4.128921 0.11672,-6.19355 0.0413,-1.976408 0.062,-3.953044 0.10358,-5.929458 0.0201,-1.990116 0.0884,-3.978682 0.14304,-5.968034 0.0435,-1.806567 0.0742,-3.613486 0.0886,-5.420508 0.0238,-1.337064 0.0768,-2.673726 0.0574,-4.011239 -5.3e-4,-1.142122 0.003,-2.284355 0.0398,-3.42601 0.0296,-1.011735 0.0376,-2.023743 0.0766,-3.035165 0.0343,-0.898356 0.0387,-1.796558 0.0323,-2.69553 0,-0.353555 -0.5,-0.353555 -0.5,0 z" />
  </g>
</svg>
