<?xml version="1.0" encoding="UTF-8" standalone="no"?>
<!-- Created with Inkscape (http://www.inkscape.org/) -->

<svg
   width="153.6075mm"
   height="133.13535mm"
   viewBox="0 0 153.6075 133.13534"
   version="1.1"
   id="svg5"
   inkscape:version="1.1.2 (0a00cf5339, 2022-02-04)"
   sodipodi:docname="alkanlarda-adlandırma-1.svg"
   xmlns:inkscape="http://www.inkscape.org/namespaces/inkscape"
   xmlns:sodipodi="http://sodipodi.sourceforge.net/DTD/sodipodi-0.dtd"
   xmlns="http://www.w3.org/2000/svg"
   xmlns:svg="http://www.w3.org/2000/svg">
  <sodipodi:namedview
     id="namedview7"
     pagecolor="#ffffff"
     bordercolor="#999999"
     borderopacity="1"
     inkscape:pageshadow="0"
     inkscape:pageopacity="0"
     inkscape:pagecheckerboard="0"
     inkscape:document-units="mm"
     showgrid="true"
     inkscape:snap-global="false"
     inkscape:zoom="1.6325629"
     inkscape:cx="297.99771"
     inkscape:cy="398.45326"
     inkscape:window-width="1916"
     inkscape:window-height="1033"
     inkscape:window-x="0"
     inkscape:window-y="23"
     inkscape:window-maximized="1"
     inkscape:current-layer="layer1">
    <inkscape:grid
       type="xygrid"
       id="grid44"
       originx="-9.3232153"
       originy="5.8257371" />
  </sodipodi:namedview>
  <defs
     id="defs2">
    <rect
       x="140.32027"
       y="-84.366776"
       width="188.41417"
       height="54.752693"
       id="rect7493" />
    <rect
       x="140.32027"
       y="-84.366776"
       width="207.23051"
       height="54.523487"
       id="rect33164" />
    <rect
       x="140.32027"
       y="-84.366776"
       width="199.44275"
       height="53.835037"
       id="rect40628" />
    <rect
       x="140.32027"
       y="-84.366776"
       width="199.44275"
       height="53.835037"
       id="rect35014" />
  </defs>
  <g
     inkscape:label="Layer 1"
     inkscape:groupmode="layer"
     id="layer1"
     transform="translate(-9.3232153,5.8257374)">
    <path
       style="fill:#000000;fill-opacity:0.00485678;stroke:#000000;stroke-width:0.7;stroke-linecap:round;stroke-miterlimit:4;stroke-dasharray:none;stroke-opacity:1"
       d="m 12.453118,5.6928368 c -0.309354,-1.0827758 0.03862,0.3821131 0.04673,0.5605301 0.05021,1.1041415 -0.09333,1.3051314 -0.14019,2.3355422 -0.02221,0.4883248 -0.0163,1.0840926 0.04673,1.5881699 0.01407,0.112481 0.09346,0.213619 0.09346,0.326976 0,0.01558 -0.03195,0.0049 -0.04673,0 -0.286377,-0.09542 -0.206032,-0.03821 -0.327108,-0.280265"
       id="path1719" />
    <path
       style="fill:#000000;fill-opacity:0.00485678;stroke:#000000;stroke-width:0.7;stroke-linecap:round;stroke-miterlimit:4;stroke-dasharray:none;stroke-opacity:1"
       d="M 12.03255,8.6356213 C 12.877293,8.4480179 13.748599,8.5240295 14.602687,8.4020669"
       id="path1721" />
    <path
       style="fill:#000000;fill-opacity:0.00485678;stroke:#000000;stroke-width:0.7;stroke-linecap:round;stroke-miterlimit:4;stroke-dasharray:none;stroke-opacity:1"
       d="m 14.649418,6.0198123 c 0.173569,1.3150885 0.233042,2.6455611 0.280379,3.9704232 0.0067,0.1867245 0,0.3736865 0,0.5605305 0,0.0642 -0.0046,0.225353 0.04673,0.186844 0.0623,-0.04671 0.09346,-0.124563 0.140189,-0.186844"
       id="path1723" />
    <path
       style="fill:#000000;fill-opacity:0.00485678;stroke:#000000;stroke-width:0.7;stroke-linecap:round;stroke-miterlimit:4;stroke-dasharray:none;stroke-opacity:1"
       d="m 16.33169,10.036946 c -0.241795,-0.4085486 0.58905,-1.34476 0.887864,-0.7473737 0.22337,0.4465563 0.05948,1.4516797 -0.607487,1.2611937 -0.04736,-0.01353 -0.105353,-0.01189 -0.140189,-0.04671 -0.02746,-0.02745 0.242687,-0.07866 0.607488,0.140133 0.133562,0.08011 0.271813,0.162592 0.373837,0.280265 0.158571,0.182893 0.503296,0.862622 0.14019,1.07435 -0.356027,0.207599 -1.508834,-0.160195 -1.869191,-0.280266 -0.294307,-0.09806 -0.280379,-0.04296 -0.280379,-0.186843"
       id="path1725" />
    <path
       style="fill:#000000;fill-opacity:0.00485678;stroke:#000000;stroke-width:0.7;stroke-linecap:round;stroke-miterlimit:4;stroke-dasharray:none;stroke-opacity:1"
       d="m 20.864476,6.8606074 c 0.05977,-0.19914 0.283886,-0.558192 0,-0.7473739 -0.229585,-0.1529953 -0.753121,0.2822702 -0.794406,0.3269772 -0.718001,0.7775196 -1.365211,2.1664961 -0.887864,3.2230493 0.403745,0.893645 1.400584,0.55329 2.056109,0.2802649 0.52787,-0.2198571 0.301014,-0.1868437 0.14019,-0.1868437"
       id="path1727" />
    <path
       style="fill:#000000;fill-opacity:0.00485678;stroke:#000000;stroke-width:0.7;stroke-linecap:round;stroke-miterlimit:4;stroke-dasharray:none;stroke-opacity:1"
       d="m 24.18229,7.8415355 c 0.932479,-0.069549 1.866941,-0.2335543 2.803787,-0.2335543"
       id="path1729" />
    <path
       style="fill:#000000;fill-opacity:0.00485678;stroke:#000000;stroke-width:0.7;stroke-linecap:round;stroke-miterlimit:4;stroke-dasharray:none;stroke-opacity:1"
       d="m 32.40673,6.1599457 c -0.0011,-0.00585 0.01905,-0.3514669 -0.140189,-0.3269771 -0.175533,0.026994 -0.367051,0.040441 -0.514028,0.1401331 -0.98254,0.6664558 -2.253339,2.3327403 -1.682271,3.5967355 0.09975,0.2207787 0.301885,0.3968226 0.514025,0.5138198 0.769599,0.424433 1.374169,0.185537 2.196301,-0.04671 0.275571,-0.077847 0.544065,-0.1879523 0.794409,-0.3269758 0.04305,-0.023905 0.08895,-0.1148075 0.04673,-0.1401334 -0.06332,-0.037976 -0.632201,0.039076 -0.700948,0.046712"
       id="path1731" />
    <path
       style="fill:#000000;fill-opacity:0.00485678;stroke:#000000;stroke-width:0.7;stroke-linecap:round;stroke-miterlimit:4;stroke-dasharray:none;stroke-opacity:1"
       d="m 35.210517,7.934958 c 0.628573,0.2633697 2.091463,-0.2625899 2.616867,0"
       id="path1733" />
    <path
       style="fill:#000000;fill-opacity:0.00485678;stroke:#000000;stroke-width:0.7;stroke-linecap:round;stroke-miterlimit:4;stroke-dasharray:none;stroke-opacity:1"
       d="m 42.967658,5.9263911 c -0.155765,-0.031141 -0.316595,-0.1436362 -0.467296,-0.093422 -0.21,0.069971 -0.374912,0.2482289 -0.51403,0.4203983 -0.603917,0.747403 -1.093517,2.0116006 -0.607486,2.9427842 0.421135,0.8068514 1.530787,0.449253 2.14957,0.1868437 0.456499,-0.1935879 1.160754,-0.6072417 0.794407,-0.6072417"
       id="path1735" />
    <path
       style="fill:#000000;fill-opacity:0.00485678;stroke:#000000;stroke-width:0.7;stroke-linecap:round;stroke-miterlimit:4;stroke-dasharray:none;stroke-opacity:1"
       d="m 45.491066,6.2066563 c 0.03115,-0.093422 0.0494,-0.3683399 0.09346,-0.2802652 0.474888,0.9493854 0.08674,2.5494147 -0.04672,3.5500249 -0.035,0.2623712 -0.01886,0.530063 0,0.794085 0.0016,0.02197 0.0345,0.02839 0.04672,0.04671 0.01932,0.02897 0.02212,0.118039 0.04673,0.09342 0.165745,-0.165679 0.0057,-0.6893406 -0.09346,-0.8875074"
       id="path1737" />
    <path
       style="fill:#000000;fill-opacity:0.00485678;stroke:#000000;stroke-width:0.7;stroke-linecap:round;stroke-miterlimit:4;stroke-dasharray:none;stroke-opacity:1"
       d="m 45.070495,8.2619336 c 0.814031,-0.8253421 2.24839,0.1329872 2.943979,-0.7940842"
       id="path1739" />
    <path
       style="fill:#000000;fill-opacity:0.00485678;stroke:#000000;stroke-width:0.7;stroke-linecap:round;stroke-miterlimit:4;stroke-dasharray:none;stroke-opacity:1"
       d="m 47.780826,5.4125719 c 0.09993,1.2796515 -0.161811,2.5193244 -0.280381,3.7835792 -0.03492,0.372377 -0.06008,0.7472873 -0.04673,1.1210599 0.0024,0.06959 0.0259,0.203728 0.09346,0.186844 0.305485,-0.07634 -0.01106,-0.37922 -0.09346,-0.420398"
       id="path1741" />
    <path
       style="fill:#000000;fill-opacity:0.00485678;stroke:#000000;stroke-width:0.7;stroke-linecap:round;stroke-miterlimit:4;stroke-dasharray:none;stroke-opacity:1"
       d="m 48.668694,9.4297054 c 0.213825,-0.3562448 0.132604,-0.2998303 0.654214,-0.5605298 0.239056,-0.11948 0.729726,0.053066 0.467296,0.3736861 -0.104367,0.1275091 -1.185111,0.8954793 -0.934593,1.0743493 0.212339,0.151612 1.060397,0.005 1.2617,0.326977 0.268896,0.430061 -0.896887,1.309132 -1.401892,1.214483 -0.460221,-0.08626 -0.62683,-0.467109 -1.214974,-0.467109"
       id="path1743" />
    <path
       style="fill:#000000;fill-opacity:0.00485678;stroke:#000000;stroke-width:0.7;stroke-linecap:round;stroke-miterlimit:4;stroke-dasharray:none;stroke-opacity:1"
       d="m 51.811661,7.8415355 c 0.155765,-0.015571 0.310755,-0.046711 0.467296,-0.046711 0.480502,0 0.973042,0.1188463 1.448623,0 0.03379,-0.00844 -0.06883,0.02209 -0.09346,0.046711"
       id="path1745" />
    <path
       style="fill:#000000;fill-opacity:0.00485678;stroke:#000000;stroke-width:0.7;stroke-linecap:round;stroke-miterlimit:4;stroke-dasharray:none;stroke-opacity:1"
       d="m 57.559421,6.0198123 c -0.109035,-0.03114 -0.213712,-0.093421 -0.327107,-0.093421 -0.06965,0 -0.132239,0.050271 -0.18692,0.093421 -0.646062,0.5098447 -1.496848,1.4155217 -1.588812,2.2888319 -0.03298,0.313161 0.01394,0.6457455 0.140189,0.9342175 0.217781,0.497581 0.796446,0.7790313 1.308433,0.7940843 0.27191,0.008 0.534157,-0.1076676 0.794407,-0.1868423 0.228541,-0.069528 0.599329,-0.3296962 0.18692,-0.4671089"
       id="path1747" />
    <path
       style="fill:#000000;fill-opacity:0.00485678;stroke:#000000;stroke-width:0.7;stroke-linecap:round;stroke-miterlimit:4;stroke-dasharray:none;stroke-opacity:1"
       d="m 60.082829,5.9263911 c 0.07788,0.03114 0.218898,0.010851 0.233648,0.093421 0.11829,0.6621492 -0.09038,2.0620927 -0.186917,2.6625196 -0.178224,1.1085094 -0.28216,0.9022201 -0.233651,1.7750123 0.0044,0.07927 -0.03266,0.233555 0.04673,0.233555 0.199782,0 0.2759,-0.633808 0.280377,-0.653953"
       id="path1749" />
    <path
       style="fill:#000000;fill-opacity:0.00485678;stroke:#000000;stroke-width:0.7;stroke-linecap:round;stroke-miterlimit:4;stroke-dasharray:none;stroke-opacity:1"
       d="m 59.755722,8.3553563 c 0.858951,-0.1939041 1.79133,-0.043609 2.616867,-0.3736877"
       id="path1751" />
    <path
       style="fill:#000000;fill-opacity:0.00485678;stroke:#000000;stroke-width:0.7;stroke-linecap:round;stroke-miterlimit:4;stroke-dasharray:none;stroke-opacity:1"
       d="m 62.559506,5.2257282 c 0.06533,1.2724884 -0.264271,2.5240877 -0.373837,3.7835792 -0.02159,0.2481873 -0.01244,0.4985602 0,0.7473738 0.0032,0.064119 -0.01069,0.2155449 0.04673,0.1868437 0.109326,-0.05464 0.0011,-0.552777 0,-0.5605301"
       id="path1753" />
    <path
       style="fill:#000000;fill-opacity:0.00485678;stroke:#000000;stroke-width:0.7;stroke-linecap:round;stroke-miterlimit:4;stroke-dasharray:none;stroke-opacity:1"
       d="m 64.384774,7.7014037 c 0.506463,0.1929157 1.042903,0.127385 1.542082,0.3269755"
       id="path1755" />
    <path
       style="fill:#000000;fill-opacity:0.00485678;stroke:#000000;stroke-width:0.7;stroke-linecap:round;stroke-miterlimit:4;stroke-dasharray:none;stroke-opacity:1"
       d="m 70.225996,6.0665229 c 0,-0.1089916 0.07709,-0.2499225 0,-0.3269755 -0.234474,-0.2343782 -0.811136,0.3533466 -1.168244,0.7006633 -0.350014,0.340416 -1.755166,1.7364095 -1.495353,2.4289649 0.399785,1.0656641 3.0641,0.6151115 3.785113,0.2335543 0.304379,-0.1610765 0.08502,-0.2282031 -0.04673,-0.3269768"
       id="path1757" />
    <path
       style="fill:#000000;fill-opacity:0.00485678;stroke:#000000;stroke-width:0.7;stroke-linecap:round;stroke-miterlimit:4;stroke-dasharray:none;stroke-opacity:1"
       d="m 72.328838,5.6928368 c 0.42598,1.2207182 0.06533,2.5648065 0.09346,3.8302898 0.0042,0.1893758 0.0746,0.3720484 0.09346,0.5605304 0.0035,0.03464 -0.04406,-0.05871 -0.04672,-0.093421 -0.01672,-0.2173417 0,-0.4359685 0,-0.6539526"
       id="path1759" />
    <path
       style="fill:#000000;fill-opacity:0.00485678;stroke:#000000;stroke-width:0.7;stroke-linecap:round;stroke-miterlimit:4;stroke-dasharray:none;stroke-opacity:1"
       d="m 72.469028,7.7948249 c 0.699243,-0.079423 1.540594,0.1687513 2.196295,-0.093421"
       id="path1761" />
    <path
       style="fill:#000000;fill-opacity:0.00485678;stroke:#000000;stroke-width:0.7;stroke-linecap:round;stroke-miterlimit:4;stroke-dasharray:none;stroke-opacity:1"
       d="m 74.898972,5.3191494 c 0.181348,2.2658424 0.08042,0.011935 -0.09346,2.6625192 -0.02956,0.4505696 -0.03296,0.904281 0,1.3546143 0.01437,0.1961261 0.123579,0.7006631 0.280382,0.7006631 0.157151,0 0.353663,-0.4771897 0.09346,-0.6072406"
       id="path1763" />
    <path
       style="fill:#000000;fill-opacity:0.00485678;stroke:#000000;stroke-width:0.7;stroke-linecap:round;stroke-miterlimit:4;stroke-dasharray:none;stroke-opacity:1"
       d="m 76.347595,9.3829948 c 0.03777,-1.1955568 1.618874,-0.6865617 1.028057,-0.1868437 -0.01416,0.011983 -0.819971,0.4459549 -0.841135,0.4671089 -0.03972,0.039699 0.08619,0.078 0.14019,0.093421 0.269145,0.076866 0.265353,0.013584 0.560755,0.1401331 0.1744,0.074713 0.694468,0.3533449 0.51403,0.6539519 -0.321982,0.536414 -1.533734,0.681483 -2.056111,0.420398"
       id="path1765" />
    <path
       style="fill:#000000;fill-opacity:0.00485678;stroke:#000000;stroke-width:0.7;stroke-linecap:round;stroke-miterlimit:4;stroke-dasharray:none;stroke-opacity:1"
       d="m 58.870662,12.045515 v 2.288831"
       id="path1769" />
    <path
       style="fill:#000000;fill-opacity:0.00485678;stroke:#000000;stroke-width:0.7;stroke-linecap:round;stroke-miterlimit:4;stroke-dasharray:none;stroke-opacity:1"
       d="m 56.160336,16.342912 c 0.0544,-0.143349 0.353468,-0.796137 0.14019,-0.887506 -0.193953,-0.08309 -0.574866,0.37628 -0.607489,0.420397 -0.706755,0.955816 -1.119695,2.293377 -0.654217,3.456604 0.09489,0.237129 0.248262,0.475873 0.4673,0.607242 0.737208,0.442147 1.745535,-0.276254 2.243029,-0.747373 0.14301,-0.135428 0.383876,-0.560533 0.186917,-0.560533"
       id="path1771" />
    <path
       style="fill:#000000;fill-opacity:0.00485678;stroke:#000000;stroke-width:0.7;stroke-linecap:round;stroke-miterlimit:4;stroke-dasharray:none;stroke-opacity:1"
       d="m 58.450093,16.296203 c 0.01558,-0.108992 0.03115,-0.217984 0.04673,-0.326976 0.01558,-0.01557 0.03688,-0.06641 0.04673,-0.04671 0.07121,0.142356 -0.110471,0.243303 -0.09346,0.373688 0.03764,0.288439 0.155766,0.560528 0.233649,0.840793 0.01558,0.389257 0.0208,0.779067 0.04673,1.167772 0.02082,0.312266 0.06231,0.622812 0.09346,0.934217 0.02085,0.208446 0.09434,0.584107 0,0.56053 -0.122325,-0.03057 -0.255672,-0.371001 -0.280382,-0.420396"
       id="path1773" />
    <path
       style="fill:#000000;fill-opacity:0.00485678;stroke:#000000;stroke-width:0.7;stroke-linecap:round;stroke-miterlimit:4;stroke-dasharray:none;stroke-opacity:1"
       d="m 58.356632,18.071214 c 0.525153,-0.315501 1.115491,-0.305232 1.682274,-0.467109"
       id="path1775" />
    <path
       style="fill:#000000;fill-opacity:0.00485678;stroke:#000000;stroke-width:0.7;stroke-linecap:round;stroke-miterlimit:4;stroke-dasharray:none;stroke-opacity:1"
       d="m 60.272554,15.642249 c 0.03115,0.233554 0.07347,0.465889 0.09346,0.700663 0.04235,0.497422 0.08404,0.995614 0.09346,1.494747 0.01058,0.560648 -0.04673,1.120846 -0.04673,1.681593 0,0.09342 0.06607,0.214219 0,0.280263 -0.05615,0.05613 -0.03115,-0.155702 -0.04673,-0.233554"
       id="path1777" />
    <path
       style="fill:#000000;fill-opacity:0.00485678;stroke:#000000;stroke-width:0.7;stroke-linecap:round;stroke-miterlimit:4;stroke-dasharray:none;stroke-opacity:1"
       d="m 62.141745,19.939649 c -0.179231,-0.221343 0.212318,-1.2934 0.51403,-1.12106 0.500459,0.285866 -0.06298,2.19541 -0.887865,2.19541 -0.01558,0 0.03195,-0.0049 0.04673,0 0.03304,0.01101 0.0623,0.03114 0.09346,0.04671 0.07788,0.03114 0.153477,0.06876 0.233648,0.09342 0.296961,0.09134 0.586306,0.102454 0.887868,0.140133 0.06182,0.0077 0.13507,-0.03455 0.186917,0 0.01323,0.0088 -0.04956,0.09767 -0.140189,0.233554"
       id="path1779" />
    <path
       style="fill:#000000;fill-opacity:0.00485678;stroke:#000000;stroke-width:0.7;stroke-linecap:round;stroke-miterlimit:4;stroke-dasharray:none;stroke-opacity:1"
       d="m 58.870662,21.448112 c 0.352771,0.822724 0.34232,1.741316 0.467296,2.615809"
       id="path1781" />
    <path
       style="fill:#000000;fill-opacity:0.00485678;stroke:#000000;stroke-width:0.7;stroke-linecap:round;stroke-miterlimit:4;stroke-dasharray:none;stroke-opacity:1"
       d="m 56.627633,26.259332 c 0.02561,-0.03292 0.407297,-0.406569 0.373837,-0.607242 -0.03977,-0.238515 -0.521178,0.02512 -0.700944,0.186844 -0.983361,0.884669 -1.881526,2.638062 -1.121516,3.92371 0.09543,0.16143 0.20356,0.341841 0.373838,0.420401 0.896538,0.413621 1.861499,-0.187761 2.616869,-0.607242 0.117126,-0.06504 0.215617,-0.159258 0.327107,-0.233556 0.02898,-0.01931 0.07788,-0.01556 0.09346,-0.04671 0.06271,-0.125378 -0.281459,-0.01738 -0.420566,0"
       id="path1783" />
    <path
       style="fill:#000000;fill-opacity:0.00485678;stroke:#000000;stroke-width:0.7;stroke-linecap:round;stroke-miterlimit:4;stroke-dasharray:none;stroke-opacity:1"
       d="m 59.10431,26.633019 c 0.286036,2.287332 -0.004,-0.164038 0.280379,2.849362 0.03248,0.344189 0.140189,0.681919 0.140189,1.027639 0,0.01812 -0.274833,-0.320326 -0.280376,-0.326975"
       id="path1785" />
    <path
       style="fill:#000000;fill-opacity:0.00485678;stroke:#000000;stroke-width:0.7;stroke-linecap:round;stroke-miterlimit:4;stroke-dasharray:none;stroke-opacity:1"
       d="m 58.870662,28.828429 c 3.405425,-1.291193 0.314904,-0.35478 1.77573,-0.467109 0.06945,-0.0053 0.124613,-0.06228 0.18692,-0.09342"
       id="path1787" />
    <path
       style="fill:#000000;fill-opacity:0.00485678;stroke:#000000;stroke-width:0.7;stroke-linecap:round;stroke-miterlimit:4;stroke-dasharray:none;stroke-opacity:1"
       d="m 60.926773,26.165909 c 0.223978,0.853043 0.207248,1.741897 0.186918,2.615808 -0.0055,0.234011 -0.04673,0.46659 -0.04673,0.700664 0,0.262642 0.129291,0.233553 -0.04673,0.233553"
       id="path1789" />
    <path
       style="fill:#000000;fill-opacity:0.00485678;stroke:#000000;stroke-width:0.7;stroke-linecap:round;stroke-miterlimit:4;stroke-dasharray:none;stroke-opacity:1"
       d="m 62.515583,29.94949 c -0.109884,-0.267489 0.102661,-1.768115 0.654217,-1.354614 0.244882,0.183587 0.107598,0.741384 -0.04673,0.934215 -0.06231,0.07786 -0.146468,0.13843 -0.233648,0.186843 -0.128455,0.07134 -0.493421,0.148175 -0.37384,0.233556 0.827468,0.590806 0.276781,-0.349443 0.700947,0.233555 0.784146,1.077775 -0.792067,1.354614 -1.542081,1.354614"
       id="path1791" />
    <path
       style="fill:#000000;fill-opacity:0.00485678;stroke:#000000;stroke-width:0.7;stroke-linecap:round;stroke-miterlimit:4;stroke-dasharray:none;stroke-opacity:1"
       d="m 31.566398,0.91786648 c -0.03116,0.17127262 -0.08834,0.33981042 -0.09346,0.51381792 -0.01056,0.3583004 0.03926,0.715973 0.04673,1.0743507 0.01595,0.7653399 -0.0095,1.4474473 0.140187,2.1954106 0.0092,0.045803 0.04432,-0.1548997 0,-0.1401331 -0.08358,0.027849 -0.124608,0.1245624 -0.186915,0.1868421"
       id="path1793" />
    <path
       style="fill:#000000;fill-opacity:0.00485678;stroke:#000000;stroke-width:0.7;stroke-linecap:round;stroke-miterlimit:4;stroke-dasharray:none;stroke-opacity:1"
       d="m 30.771989,-4.1269073 c 0,-0.015018 0.06269,-0.4044463 -0.04673,-0.5138195 -0.339021,-0.3388818 -0.817613,0.4578249 -0.934596,0.6072407 -0.689544,0.8807304 -1.270992,1.8127553 -1.074785,2.9894949 0.246219,1.47670168 2.636229,0.94223277 3.130894,-0.046711"
       id="path1795" />
    <path
       style="fill:#000000;fill-opacity:0.00485678;stroke:#000000;stroke-width:0.7;stroke-linecap:round;stroke-miterlimit:4;stroke-dasharray:none;stroke-opacity:1"
       d="m 32.080422,-0.95056856 c 0.632071,-0.31590594 0.531172,-0.15639954 0.887868,-0.98092814 0.244737,-0.565726 0.747675,-2.1573527 0.747675,-2.802651 0,-0.022024 -0.03882,0.026157 -0.04673,0.04671 -0.07073,0.1838206 -0.134525,0.3706693 -0.18692,0.5605301 -0.07234,0.2621301 -0.129921,0.5281962 -0.18692,0.7940844 -0.08321,0.3881536 -0.180666,0.774351 -0.233648,1.1677718 -0.02371,0.1760508 -0.198822,1.47095211 0,1.86843366 0.327477,0.65469157 1.028864,0.2132148 1.355161,-0.14013177 0.05689,-0.0616043 0.06231,-0.15570292 0.09346,-0.23355437"
       id="path1797" />
    <path
       style="fill:#000000;fill-opacity:0.00485678;stroke:#000000;stroke-width:0.7;stroke-linecap:round;stroke-miterlimit:4;stroke-dasharray:none;stroke-opacity:1"
       d="m 31.239285,12.044282 c 0.273751,1.026145 0.16105,0.448992 0.280382,1.681593 0.01508,0.155885 0.07117,0.551931 0.04673,0.747372 -0.0537,0.429387 -0.04673,-0.08541 -0.04673,0.140133"
       id="path1799" />
    <path
       style="fill:#000000;fill-opacity:0.00485678;stroke:#000000;stroke-width:0.7;stroke-linecap:round;stroke-miterlimit:4;stroke-dasharray:none;stroke-opacity:1"
       d="m 31.332747,16.29497 c 0,-0.217984 0.07258,-0.448404 0,-0.653951 -0.180864,-0.512242 -0.855152,0.308291 -1.121513,0.840796 -0.247095,0.493991 -0.404884,1.278666 -0.373838,1.821723 0.03597,0.629241 0.532757,1.398987 1.261703,1.307905 0.572949,-0.07159 1.003379,-0.766796 1.168243,-1.261196"
       id="path1801" />
    <path
       style="fill:#000000;fill-opacity:0.00485678;stroke:#000000;stroke-width:0.7;stroke-linecap:round;stroke-miterlimit:4;stroke-dasharray:none;stroke-opacity:1"
       d="m 32.407532,18.163405 c 0.462145,0.63668 0.832249,0.403419 1.261705,-0.186843 0.363038,-0.498976 0.447993,-1.227664 0.514025,-1.821723 0.0055,-0.04929 -0.04001,-0.690689 -0.140187,-0.607242 -0.153578,0.12793 -0.457174,1.038916 -0.467299,1.074348 -0.114184,0.399478 -0.212048,0.804666 -0.280379,1.214484 -0.09816,0.588738 -0.132813,1.546987 0.420568,1.961857 0.642573,0.481734 1.291386,-0.556114 1.448623,-1.027639"
       id="path1803" />
    <path
       style="fill:#000000;fill-opacity:0.00485678;stroke:#0000ff;stroke-width:0.7;stroke-linecap:round;stroke-miterlimit:4;stroke-dasharray:none;stroke-opacity:0.500493"
       d="m 9.7903228,13.165344 42.5240932,0.04671 0.04586,20.625117 13.068066,-0.04067 -0.04069,-30.6886041 -55.641141,0.081345 z"
       id="path1838" />
    <path
       style="fill:#000000;fill-opacity:0.00485678;stroke:#ff0000;stroke-width:0.7;stroke-linecap:round;stroke-miterlimit:4;stroke-dasharray:none;stroke-opacity:1"
       d="m 22.692462,5.6857322 c 0.06781,-0.1626901 0.156555,-0.3181638 0.203444,-0.4880705 0.06226,-0.2256081 0.07785,-0.4616056 0.122068,-0.6914327 0.02361,-0.1227458 -0.02264,-0.2967373 0.08138,-0.3660531 0.07978,-0.053163 0.04069,0.1888408 0.04069,0.2847078 0,0.2308764 -0.04646,0.4606287 -0.04069,0.6914327 0.0078,0.3129028 0.04131,0.6250437 0.08138,0.9354685 0.01431,0.1108808 0.116744,0.2193213 0.08138,0.3253803 -0.02249,0.067439 -0.169635,-0.088222 -0.203444,-0.1220176"
       id="path3053" />
    <path
       style="fill:#000000;fill-opacity:0.00485678;stroke:#ff0000;stroke-width:0.7;stroke-linecap:round;stroke-miterlimit:4;stroke-dasharray:none;stroke-opacity:1"
       d="m 34.370206,4.9062168 c 0.115707,-0.2891602 0.03635,-0.1969024 0.366199,-0.4067254 0.446741,-0.2841757 0.462724,0.1095184 0.284821,0.4473977 -0.151196,0.2871613 -0.3972,0.610643 -0.610333,0.8541232 -0.07579,0.086578 -0.15427,0.1721739 -0.244133,0.2440349 -0.113935,0.091111 -0.670375,0.1725346 -0.162756,0.4067255 0.403876,0.186328 0.483158,0.1220171 0.976535,0.1220171 0.162755,0 0.325829,-0.010149 0.48827,0 0.05581,0.00349 0.196313,-0.00406 0.162753,0.040673 -0.06199,0.082616 -0.189881,0.081345 -0.284822,0.1220171"
       id="path3981" />
    <path
       style="fill:#000000;fill-opacity:0.00485678;stroke:#ff0000;stroke-width:0.7;stroke-linecap:round;stroke-miterlimit:4;stroke-dasharray:none;stroke-opacity:1"
       d="m 48.99012,4.4887721 c -0.607809,0.3161363 0.404654,-0.6055776 0.528955,-0.6507591 0.07648,-0.027801 0.181607,-0.052085 0.244134,0 0.187417,0.1561158 -0.44758,0.9509736 -0.44758,1.0168135 0,0.054252 0.109048,-0.00767 0.162756,0 0.28457,0.040635 0.531754,0.2609046 0.44758,0.5694146 -0.06261,0.2294718 -0.461018,0.464375 -0.691714,0.4067254 -0.368004,-0.091963 0.0011,-0.039945 -0.244131,-0.2033627 -0.05212,-0.03473 -0.162758,0.2809817 -0.162758,0.3253809"
       id="path3983" />
    <path
       style="fill:#000000;fill-opacity:0.00485678;stroke:#ff0000;stroke-width:0.7;stroke-linecap:round;stroke-miterlimit:4;stroke-dasharray:none;stroke-opacity:1"
       d="m 64.248493,3.5939766 c 0.01357,-0.081345 0.05687,-0.1631693 0.04069,-0.2440339 -0.006,-0.029735 -0.07639,0.010758 -0.08138,0.040671 -0.01138,0.06819 0.05683,0.1361419 0.04069,0.2033627 -0.06707,0.2793522 -0.221129,0.5333096 -0.284822,0.8134509 -0.03273,0.1439754 0.741151,0.040674 0.813779,0.040674 -0.0013,0.1102441 -0.269941,0.9761398 0.08138,0.9761398"
       id="path3985" />
    <path
       style="fill:#000000;fill-opacity:0.00485678;stroke:#ff0000;stroke-width:0.7;stroke-linecap:round;stroke-miterlimit:4;stroke-dasharray:none;stroke-opacity:1"
       d="m 62.336108,13.932072 c 0.06782,0.01356 0.134631,0.04755 0.203446,0.04067 0.07267,-0.0073 0.135057,-0.05571 0.203444,-0.08134 0.04016,-0.01505 0.106135,-8.46e-4 0.122068,-0.04067 0.0498,-0.124465 -0.195112,-0.4616 -0.284822,-0.162689 -0.02756,0.09182 -0.04069,0.18884 -0.04069,0.284707 0,0.0559 0.0011,0.12317 0.04069,0.162689 0.218213,0.218123 0.703289,-0.08718 1.017223,0.122018 0.81176,0.540948 -0.340926,1.757341 -1.0986,1.504884 -0.174993,-0.05831 -0.353717,-0.166599 -0.44758,-0.325381 -0.09757,-0.165051 -0.05425,-0.37961 -0.08138,-0.569415"
       id="path3987" />
    <path
       style="fill:#000000;fill-opacity:0.00485678;stroke:#ff0000;stroke-width:0.7;stroke-linecap:round;stroke-miterlimit:4;stroke-dasharray:none;stroke-opacity:1"
       d="m 61.969909,13.444002 c 0.28966,-0.05235 0.568568,0.09234 0.854466,0.08135 0.167638,-0.0064 0.325515,-0.08135 0.48827,-0.122018"
       id="path3989" />
    <path
       style="fill:#000000;fill-opacity:0.00485678;stroke:#ff0000;stroke-width:0.7;stroke-linecap:round;stroke-miterlimit:4;stroke-dasharray:none;stroke-opacity:1"
       d="m 63.109202,23.372463 c 0,-0.06779 0.06779,-0.203363 0,-0.203363 -0.06779,0 0.0401,0.148706 0,0.203363 -0.119248,0.162541 -0.354756,0.227776 -0.447582,0.406725 -0.296114,0.570845 -0.08178,1.622713 0.610335,1.830265 0.495009,0.148443 0.83657,-0.199143 0.691716,-0.691433 -0.160565,-0.545691 -1.01736,-0.121754 -1.179983,0.203363 -0.18972,0.37929 -0.194937,0.366052 -0.04069,0.366052"
       id="path3991" />
    <text
       xml:space="preserve"
       transform="matrix(0.26458333,0,0,0.26458333,-16.265308,59.816091)"
       id="text7491"
       style="font-style:normal;font-weight:normal;font-size:21.3333px;line-height:1.25;font-family:sans-serif;white-space:pre;shape-inside:url(#rect7493);fill:#000000;fill-opacity:1;stroke:none"><tspan
         x="140.32031"
         y="-65.492217"
         id="tspan47128"><tspan
           style="font-family:monospace;-inkscape-font-specification:monospace"
           id="tspan47126">2, 2 dikor - 4 </tspan></tspan><tspan
         x="140.32031"
         y="-38.825591"
         id="tspan47132"><tspan
           style="font-family:monospace;-inkscape-font-specification:monospace"
           id="tspan47130">metil hekzan</tspan></tspan></text>
    <path
       style="fill:#000000;fill-opacity:0.00485678;stroke:#000000;stroke-width:0.7;stroke-linecap:round;stroke-miterlimit:4;stroke-dasharray:none;stroke-opacity:1"
       d="m 99.015173,4.1543059 c 0.09946,0.1739877 0.262522,0.3247877 0.298386,0.5219632 0.183401,1.0082963 -0.216027,2.8184435 -0.37298,3.8774464 -0.162537,1.0966641 -0.149191,0.4878435 -0.149191,1.0439284"
       id="path30262" />
    <path
       style="fill:#000000;fill-opacity:0.00485678;stroke:#000000;stroke-width:0.7;stroke-linecap:round;stroke-miterlimit:4;stroke-dasharray:none;stroke-opacity:1"
       d="m 99.015173,6.9132579 c 0.513894,0.015015 1.118217,-0.1791044 1.641127,-0.074566 0.0545,0.010898 0.0936,0.074566 0.1492,0.074566 0.0248,0 0,-0.04971 0,-0.074566"
       id="path30365" />
    <path
       style="fill:#000000;fill-opacity:0.00485678;stroke:#000000;stroke-width:0.7;stroke-linecap:round;stroke-miterlimit:4;stroke-dasharray:none;stroke-opacity:1"
       d="m 100.95469,5.0491006 c 1.14344,1.2868092 -0.57278,3.3168777 0.29838,4.6231092 0.16893,0.2532965 0.002,-0.3728315 -0.29838,-0.3728315"
       id="path30367" />
    <path
       style="fill:#000000;fill-opacity:0.00485678;stroke:#000000;stroke-width:0.7;stroke-linecap:round;stroke-miterlimit:4;stroke-dasharray:none;stroke-opacity:1"
       d="m 102.96879,8.8519811 c -0.0779,-0.3541077 0.16035,-1.5113616 0.59677,-1.5658917 0.58961,-0.07367 0.24481,1.3160975 0.14919,1.4913234 -0.0674,0.1234488 -0.19892,0.1988436 -0.29838,0.2982658 -0.0497,0.049711 -0.0907,0.11014 -0.14919,0.149134 -0.0207,0.01379 -0.0746,-0.024866 -0.0746,0 0,0.031826 0.23181,-0.1471318 0.52217,-0.074568 0.32047,0.080085 0.47757,0.283101 0.29839,0.5965314 -0.2077,0.363341 -1.49916,0.440165 -1.26814,0.671097"
       id="path30369" />
    <path
       style="fill:#000000;fill-opacity:0.00485678;stroke:#000000;stroke-width:0.7;stroke-linecap:round;stroke-miterlimit:4;stroke-dasharray:none;stroke-opacity:1"
       d="m 107.0716,6.2421608 c 0.11231,-0.12235 0.43425,-1.2472096 0.14919,-1.3421918 -1.55195,-0.517108 -2.52351,3.5426316 -2.0887,4.4739752 0.0821,0.1759318 0.18988,0.3828002 0.37298,0.4473972 0.62018,0.2187986 2.03823,-0.1419905 2.46169,-0.6710971 0.1439,-0.1798113 -0.18047,-0.2092603 -0.2238,-0.2236975"
       id="path30371" />
    <path
       style="fill:#000000;fill-opacity:0.00485678;stroke:#000000;stroke-width:0.7;stroke-linecap:round;stroke-miterlimit:4;stroke-dasharray:none;stroke-opacity:1"
       d="m 110.42844,7.2860894 c 0.66157,-0.2644688 1.22051,0.074566 1.86491,0.074566"
       id="path30373" />
    <path
       style="fill:#000000;fill-opacity:0.00485678;stroke:#000000;stroke-width:0.7;stroke-linecap:round;stroke-miterlimit:4;stroke-dasharray:none;stroke-opacity:1"
       d="m 116.69454,6.1675948 c 0.0236,-0.029507 0.40797,-0.4216688 0.37298,-0.5965311 -0.0796,-0.3976254 -0.96516,0.1696548 -1.41733,0.5965311 -0.8733,0.8244478 -1.45851,2.348797 -0.82056,3.504615 0.63809,1.1560762 1.83007,0.5428582 2.61087,0.074566 0.10712,-0.064246 0.64901,-0.395189 0.44758,-0.5965314"
       id="path30375" />
    <path
       style="fill:#000000;fill-opacity:0.00485678;stroke:#000000;stroke-width:0.7;stroke-linecap:round;stroke-miterlimit:4;stroke-dasharray:none;stroke-opacity:1"
       d="m 118.78324,5.5710637 c 0.0497,0.2485543 0.10964,0.4952868 0.14919,0.745663 0.13982,0.8851821 0.0968,1.8112727 0.29839,2.684386 0.0341,0.1475272 0.55327,0.8730554 0.14919,0.6710971"
       id="path30377" />
    <path
       style="fill:#000000;fill-opacity:0.00485678;stroke:#000000;stroke-width:0.7;stroke-linecap:round;stroke-miterlimit:4;stroke-dasharray:none;stroke-opacity:1"
       d="m 119.23082,8.8519811 c 0.57586,-0.892897 1.61502,-0.1317366 2.31249,-0.5965314"
       id="path30379" />
    <path
       style="fill:#000000;fill-opacity:0.00485678;stroke:#000000;stroke-width:0.7;stroke-linecap:round;stroke-miterlimit:4;stroke-dasharray:none;stroke-opacity:1"
       d="m 121.31952,5.8693293 c 0,0.1242771 0,0.2485543 0,0.3728315 0,6.3407862 0.0599,-2.3014749 -0.14919,3.1317834 -0.007,0.1837521 -0.0219,0.6930038 0.14919,0.5219631"
       id="path30381" />
    <path
       style="fill:#000000;fill-opacity:0.00485678;stroke:#000000;stroke-width:0.7;stroke-linecap:round;stroke-miterlimit:4;stroke-dasharray:none;stroke-opacity:1"
       d="m 123.70661,7.1369554 c 0.64086,-0.5574085 1.53693,0.1266434 2.23789,-0.2236975"
       id="path30383" />
    <path
       style="fill:#000000;fill-opacity:0.00485678;stroke:#000000;stroke-width:0.7;stroke-linecap:round;stroke-miterlimit:4;stroke-dasharray:none;stroke-opacity:1"
       d="m 129.59973,5.7947636 c -0.17406,-0.049711 -0.34362,-0.178879 -0.52218,-0.1491319 -0.90601,0.1509403 -1.58013,3.6401534 -0.82056,4.3994093 0.62225,0.621996 1.83835,-0.1098502 2.38709,-0.4473971 0.17967,-0.1105247 0.49875,-0.2427544 0.44757,-0.4473996 -0.0171,-0.068214 -0.0995,-0.099421 -0.14919,-0.1491316"
       id="path30385" />
    <path
       style="fill:#000000;fill-opacity:0.00485678;stroke:#000000;stroke-width:0.7;stroke-linecap:round;stroke-miterlimit:4;stroke-dasharray:none;stroke-opacity:1"
       d="m 132.2106,6.5404264 c 0.39642,1.3465672 -0.56187,2.7604894 -0.14919,4.1011436 0.12305,0.399743 0.74597,-0.333522 0.74597,-0.7456627"
       id="path30387" />
    <path
       style="fill:#000000;fill-opacity:0.00485678;stroke:#000000;stroke-width:0.7;stroke-linecap:round;stroke-miterlimit:4;stroke-dasharray:none;stroke-opacity:1"
       d="m 131.98681,8.8519811 c 0.54744,-0.8404108 1.28854,-0.2242396 2.01411,-0.4473995 1.02024,-0.3137927 0.11572,-0.2982635 0.44757,-0.2982635"
       id="path30389" />
    <path
       style="fill:#000000;fill-opacity:0.00485678;stroke:#000000;stroke-width:0.7;stroke-linecap:round;stroke-miterlimit:4;stroke-dasharray:none;stroke-opacity:1"
       d="m 134.44849,5.1236665 c -0.0497,0.2982648 -0.12763,0.5931813 -0.14919,0.8947944 -0.0585,0.8181435 0,1.6404592 0,2.4606887 0,0.2982648 -0.0329,0.5983555 0,0.8947946 0.02,0.1798476 0.0212,0.3940376 0.14919,0.5219631 0.0995,0.09941 0.0746,-0.074498 0.0746,-0.074566"
       id="path30391" />
    <path
       style="fill:#000000;fill-opacity:0.00485678;stroke:#000000;stroke-width:0.7;stroke-linecap:round;stroke-miterlimit:4;stroke-dasharray:none;stroke-opacity:1"
       d="m 135.71664,9.6722098 c 0.46979,0.6334172 -0.5876,-0.1862939 -0.44758,-0.2982656 0.11322,-0.090542 0.25853,-0.1347165 0.37298,-0.2236999 0.11102,-0.086317 0.17911,-0.223751 0.29838,-0.2982632 1.30329,-0.8142253 0.0298,3.0123379 -0.67136,2.3115519 -0.0947,-0.09466 0.2409,-0.127128 0.37298,-0.149131 2e-5,-4e-6 1.04433,-0.14913 1.04435,-0.149132 0.24837,-0.02069 0.65136,0.06963 0.89516,0 0.1831,-0.05229 0.51383,-0.227868 0.22379,-0.372831"
       id="path30393" />
    <path
       style="fill:#000000;fill-opacity:0.00485678;stroke:#000000;stroke-width:0.7;stroke-linecap:round;stroke-miterlimit:4;stroke-dasharray:none;stroke-opacity:1"
       d="m 139.07348,7.3606551 c 1.00316,-0.3342532 -0.22428,0.00831 1.26813,-0.074566 0.28307,-0.015719 0.5516,-0.1340818 0.82056,-0.2236999 0.0472,-0.015719 -0.0995,0 -0.14919,0"
       id="path30395" />
    <path
       style="fill:#000000;fill-opacity:0.00485678;stroke:#000000;stroke-width:0.7;stroke-linecap:round;stroke-miterlimit:4;stroke-dasharray:none;stroke-opacity:1"
       d="m 144.7428,6.5404264 c 0,-0.1239531 0.0667,-0.4552831 -0.0746,-0.5965312 -0.44409,-0.4439203 -0.98895,0.4112112 -1.11894,0.6710971 -0.41035,0.8203663 -0.6334,2.2847808 -0.14921,3.1317834 0.39796,0.6961413 0.94173,0.7161643 1.64113,0.5219633 0.40862,-0.11346 0.68325,-0.16101 0.96976,-0.4473976 0.0634,-0.063374 -0.13875,-0.1207947 -0.22379,-0.1491316"
       id="path30397" />
    <path
       style="fill:#000000;fill-opacity:0.00485678;stroke:#000000;stroke-width:0.7;stroke-linecap:round;stroke-miterlimit:4;stroke-dasharray:none;stroke-opacity:1"
       d="m 147.65207,7.8826184 c 0.12432,-0.049711 0.23947,-0.1388665 0.37298,-0.1491318 0.4041,-0.031072 2.05,0.2789221 1.49193,0"
       id="path30399" />
    <path
       style="fill:#000000;fill-opacity:0.00485678;stroke:#000000;stroke-width:0.7;stroke-linecap:round;stroke-miterlimit:4;stroke-dasharray:none;stroke-opacity:1"
       d="m 153.2468,6.3912924 c 0.79586,-1.2176241 -0.30093,-0.5194255 -0.82056,0 -0.26373,0.2636165 -0.48497,0.5718416 -0.67137,0.894797 -1.95129,3.3808716 2.90764,2.9892456 3.35684,1.1930602"
       id="path30401" />
    <path
       style="fill:#000000;fill-opacity:0.00485678;stroke:#000000;stroke-width:0.7;stroke-linecap:round;stroke-miterlimit:4;stroke-dasharray:none;stroke-opacity:1"
       d="m 156.08146,5.6456317 c 0.50394,1.2483206 -0.0746,2.6644735 -0.0746,3.9520122 0,0.1111652 0.0995,0.1988426 0.14919,0.2982634 0.0249,0.049712 0.0219,0.1667047 0.0746,0.1491337 0.12214,-0.0407 0.34377,-0.7423874 0.37298,-0.8202284"
       id="path30403" />
    <path
       style="fill:#000000;fill-opacity:0.00485678;stroke:#000000;stroke-width:0.7;stroke-linecap:round;stroke-miterlimit:4;stroke-dasharray:none;stroke-opacity:1"
       d="m 156.00688,7.8826184 c 0.74827,-0.1568002 1.58866,-0.00885 2.31249,-0.2982658 0.14781,-0.059101 0.24865,-0.1988421 0.37298,-0.2982632"
       id="path30405" />
    <path
       style="fill:#000000;fill-opacity:0.00485678;stroke:#000000;stroke-width:0.7;stroke-linecap:round;stroke-miterlimit:4;stroke-dasharray:none;stroke-opacity:1"
       d="m 158.24477,5.4964978 c 0.0746,0.2485543 0.21144,0.4864499 0.22379,0.745663 0.0132,0.2775807 -0.0995,0.5468191 -0.14919,0.8202287 0,0.6213858 -0.0516,1.2449196 0,1.8641573 0.0235,0.2824231 0.15502,0.5452938 0.22378,0.8202289 0.006,0.024112 0.0236,0.082423 0,0.074566 -0.24214,-0.080683 -0.37711,-0.2982656 -0.67137,-0.2982656"
       id="path30407" />
    <path
       style="fill:#000000;fill-opacity:0.00485678;stroke:#000000;stroke-width:0.7;stroke-linecap:round;stroke-miterlimit:4;stroke-dasharray:none;stroke-opacity:1"
       d="m 159.5875,9.2248126 c 0.15931,-0.3581749 0.62594,-1.4394547 1.26814,-1.1184945 0.66142,0.3305709 -0.27463,1.1245093 -0.59678,1.2676261 -0.0937,0.041623 -0.20667,0.028733 -0.29838,0.074566 -0.0688,0.034395 0.82325,0.3874997 0.89516,0.4473971 0.2313,0.1926757 0.18654,0.4224787 0,0.6710967 -0.35375,0.471469 -2.0887,0.26154 -2.0887,0.969361"
       id="path30409" />
    <path
       style="fill:#000000;fill-opacity:0.00485678;stroke:#000000;stroke-width:0.7;stroke-linecap:round;stroke-miterlimit:4;stroke-dasharray:none;stroke-opacity:1"
       d="m 143.69846,16.756005 c 0.0568,-0.141917 0.24525,-0.479045 0.14919,-0.671099 -0.3065,-0.61274 -1.34195,0.515803 -1.41733,0.596531 -0.70216,0.752014 -1.10535,2.016751 -0.59677,2.982652 0.0996,0.189242 0.31731,0.311399 0.52217,0.372831 0.9484,0.284403 1.68551,-0.131018 2.46168,-0.596531 0.37298,-0.223692 0.23622,-0.02483 0.37298,-0.298263"
       id="path30413" />
    <path
       style="fill:#000000;fill-opacity:0.00485678;stroke:#000000;stroke-width:0.7;stroke-linecap:round;stroke-miterlimit:4;stroke-dasharray:none;stroke-opacity:1"
       d="m 145.56337,17.352537 c 0.53931,1.527426 0.3606,0.87015 0.67137,2.236984 0.0508,0.223458 0.0833,0.451611 0.14919,0.671099 0.0101,0.03368 0.0746,0.109722 0.0746,0.07456 0,-0.94774 -0.225,0.453375 0,-0.671095"
       id="path30415" />
    <path
       style="fill:#000000;fill-opacity:0.00485678;stroke:#000000;stroke-width:0.7;stroke-linecap:round;stroke-miterlimit:4;stroke-dasharray:none;stroke-opacity:1"
       d="m 146.16014,18.694726 c 0.0995,-0.124277 0.16408,-0.287397 0.29839,-0.372831 0.35168,-0.223707 0.81263,-0.203608 1.19354,-0.372832 0.23393,-0.103929 0.44758,-0.248554 0.67137,-0.372831"
       id="path30417" />
    <path
       style="fill:#000000;fill-opacity:0.00485678;stroke:#000000;stroke-width:0.7;stroke-linecap:round;stroke-miterlimit:4;stroke-dasharray:none;stroke-opacity:1"
       d="m 148.39803,16.383174 c 0.29409,0.341412 0.14549,4.108472 0.89516,2.60982"
       id="path30419" />
    <path
       style="fill:#000000;fill-opacity:0.00485678;stroke:#000000;stroke-width:0.7;stroke-linecap:round;stroke-miterlimit:4;stroke-dasharray:none;stroke-opacity:1"
       d="m 150.03916,18.694726 c 0.16373,-0.314337 0.4961,-1.212928 1.04434,-0.969362 0.49212,0.21863 0.22234,1.056446 0,1.342194 -0.0864,0.110991 -0.19033,0.208258 -0.29838,0.298268 -0.0427,0.03558 -0.1357,0.02063 -0.14919,0.07456 -0.13533,0.541076 1.04434,0.196787 1.04434,0.596531 0,0.585215 -1.57579,0.764204 -1.8649,1.342195"
       id="path30421" />
    <path
       style="fill:#000000;fill-opacity:0.00485678;stroke:#000000;stroke-width:0.7;stroke-linecap:round;stroke-miterlimit:4;stroke-dasharray:none;stroke-opacity:1"
       d="m 142.43032,-3.3054098 c 0.15818,-0.2521879 0.20582,-1.2020367 -0.0746,-1.3421918 -0.35404,-0.1769502 -0.77784,0.404695 -0.89515,0.5219631 -0.51982,0.5196054 -0.85699,0.9676138 -1.19355,1.6404576 -0.51585,1.031276 -0.25042,1.49762453 0.82056,1.78958913 0.42408,0.1156111 1.14182,-0.027836 1.56653,-0.1491316 0.4392,-0.1254358 0.65306,-0.25183553 1.04435,-0.44739733"
       id="path30425" />
    <path
       style="fill:#000000;fill-opacity:0.00485678;stroke:#000000;stroke-width:0.7;stroke-linecap:round;stroke-miterlimit:4;stroke-dasharray:none;stroke-opacity:1"
       d="m 145.41417,-4.7967356 c -0.44681,3.5730809 0.0846,-1.0776024 -0.14919,2.3115547 -0.0242,0.350678 -0.11585,0.6940013 -0.14919,1.0439284 -0.0165,0.1732035 -0.14478,0.4254801 0,0.52196323 0.0925,0.061648 0.37298,-0.80151383 0.37298,-0.89479453"
       id="path30427" />
    <path
       style="fill:#000000;fill-opacity:0.00485678;stroke:#000000;stroke-width:0.7;stroke-linecap:round;stroke-miterlimit:4;stroke-dasharray:none;stroke-opacity:1"
       d="m 145.56336,-2.2614812 c 0.54686,-0.3623254 1.04971,-0.6710971 1.71572,-0.6710971"
       id="path30429" />
    <path
       style="fill:#000000;fill-opacity:0.00485678;stroke:#000000;stroke-width:0.7;stroke-linecap:round;stroke-miterlimit:4;stroke-dasharray:none;stroke-opacity:1"
       d="m 147.80127,-5.3932647 c -0.85892,-0.1298061 -0.58035,4.0265781 -0.37299,4.0265781 0.0249,0 -0.008,-0.050987 0,-0.074566 0.0572,-0.1713738 0.0318,-0.1491337 0.14919,-0.1491337"
       id="path30431" />
    <path
       style="fill:#000000;fill-opacity:0.00485678;stroke:#000000;stroke-width:0.7;stroke-linecap:round;stroke-miterlimit:4;stroke-dasharray:none;stroke-opacity:1"
       d="m 148.84561,-1.142989 c -0.0311,-0.1865681 -0.15818,-0.6225884 0,-0.8202287 0.20975,-0.2620815 0.96449,-0.7920334 1.34274,-0.5219632 0.73176,0.5224791 -0.77752,1.3737249 -0.96976,1.56589163 -0.0176,0.01758 0.051,-0.00786 0.0746,0 0.35725,0.1190332 -0.11946,0.074566 0.44758,0.074566 0.40074,0 0.82095,0.1186797 0.52218,0.5965312 -0.095,0.1520031 -1.26815,1.29930837 -1.26815,0.74566068"
       id="path30433" />
    <path
       style="fill:#000000;fill-opacity:0.00485678;stroke:#000000;stroke-width:0.7;stroke-linecap:round;stroke-miterlimit:4;stroke-dasharray:none;stroke-opacity:1"
       d="m 118.18775,0.7228538 c 0.0249,0.24855432 0.0746,0.495868 0.0746,0.745663 0,0.4283738 -0.14919,0.8357933 -0.14919,1.2676259 0,0.043155 0.23985,0.5380157 0.0746,0.3728315 -0.0249,-0.024855 0.0394,-0.074566 0.0746,-0.074566"
       id="path30439" />
    <path
       style="fill:#000000;fill-opacity:0.00485678;stroke:#000000;stroke-width:0.7;stroke-linecap:round;stroke-miterlimit:4;stroke-dasharray:none;stroke-opacity:1"
       d="m 117.59097,-4.3476529 c 0.38526,-0.2585124 0.0706,-1.2801396 -0.44757,-0.9693616 -0.72591,0.4353685 -1.76136,3.3616225 -1.26814,4.1011451 0.12717,0.1906901 0.30935,0.36230098 0.52217,0.44739733 0.54049,0.21610688 1.90957,-0.20873585 2.38709,-0.44739733 0.47742,-0.238615 0.14225,-0.2236998 0.37298,-0.2236998"
       id="path30443" />
    <path
       style="fill:#000000;fill-opacity:0.00485678;stroke:#000000;stroke-width:0.7;stroke-linecap:round;stroke-miterlimit:4;stroke-dasharray:none;stroke-opacity:1"
       d="m 120.50024,-5.01875 c 0.15191,0.8279183 0.2092,1.2926206 0.14919,2.1624232 -0.0375,0.543317 -0.2283,1.0869523 -0.14919,1.6404574 0.005,0.037357 0.0537,-0.043184 0.22379,-0.2982656"
       id="path30445" />
    <path
       style="fill:#000000;fill-opacity:0.00485678;stroke:#000000;stroke-width:0.7;stroke-linecap:round;stroke-miterlimit:4;stroke-dasharray:none;stroke-opacity:1"
       d="m 120.64943,-2.4834954 c 0.3971,-0.491633 0.72951,-0.6752065 1.34273,-0.5219633 0.15257,0.038126 0.29154,0.1686298 0.44759,0.1491319 0.0889,-0.011112 0.0995,-0.1491332 0.14919,-0.2236999"
       id="path30447" />
    <path
       style="fill:#000000;fill-opacity:0.00485678;stroke:#000000;stroke-width:0.7;stroke-linecap:round;stroke-miterlimit:4;stroke-dasharray:none;stroke-opacity:1"
       d="m 122.43975,-5.01875 c -0.0497,-0.1491318 -0.038,-0.3362581 -0.1492,-0.4473961 -0.0556,-0.055569 -0.0592,0.1466236 -0.0746,0.2236986 -0.0345,0.1723401 -0.0587,0.3469301 -0.0746,0.5219631 -0.0175,0.1927257 -0.1492,2.272581 -0.1492,2.3861206 0,0.2992997 0.0396,0.5975467 0.0746,0.8947946 0.0148,0.1258715 0.0538,0.247817 0.0746,0.3728315 0.004,0.024518 0,0.0994242 0,0.0745681 0,-0.251618 0.0121,-0.100908 -0.0746,-0.4473996"
       id="path30449" />
    <path
       style="fill:#000000;fill-opacity:0.00485678;stroke:#000000;stroke-width:0.7;stroke-linecap:round;stroke-miterlimit:4;stroke-dasharray:none;stroke-opacity:1"
       d="m 122.96192,-1.4395692 c 0.56634,-0.3925744 0.83999,-1.1399312 1.41733,-0.4473973 0.0356,0.042694 0.0746,0.09355 0.0746,0.149134 0,0.2211853 -0.0626,0.7376555 -0.29838,0.8947946 -0.13029,0.0868246 -0.48911,0.0745658 -0.67137,0.0745658 -0.0249,0 -0.0995,0 -0.0746,0 0.14919,0 0.30128,-0.0292479 0.44758,0 0.23103,0.0461887 1.41915,0.44284312 1.26814,0.82022878 -0.23817,0.59518485 -1.8801,-0.13394892 -2.0887,0.07456584"
       id="path30451" />
    <path
       style="fill:#000000;fill-opacity:0.00485678;stroke:#000000;stroke-width:0.7;stroke-linecap:round;stroke-miterlimit:4;stroke-dasharray:none;stroke-opacity:1"
       d="m 144.66949,1.915914 c 0.55461,0.3890081 -0.0523,1.3644155 0.37298,1.7895893"
       id="path30681" />
    <path
       style="fill:#000000;fill-opacity:0.00485678;stroke:#000000;stroke-width:0.7;stroke-linecap:round;stroke-miterlimit:4;stroke-dasharray:none;stroke-opacity:1"
       d="m 145.56465,12.280625 c 0.005,0.404209 -0.0381,0.798829 0.0746,1.19306 0.0216,0.07558 0.0746,0.302303 0.0746,0.2237 0,-0.194775 -0.006,-0.149134 0.14919,-0.149134"
       id="path30876" />
    <path
       style="fill:#000000;fill-opacity:0.00485678;stroke:#0000ff;stroke-width:0.7;stroke-linecap:round;stroke-miterlimit:4;stroke-dasharray:none;stroke-opacity:0.496396"
       d="m 96.797468,12.755384 65.794082,0.2237 -1e-5,-10.812106 -65.794077,0.07457 z"
       id="path30911"
       sodipodi:nodetypes="ccccc" />
    <path
       style="fill:#000000;fill-opacity:0.00485678;stroke:#ff0000;stroke-width:0.7;stroke-linecap:round;stroke-miterlimit:4;stroke-dasharray:none;stroke-opacity:1"
       d="m 154.15132,4.6484785 c 0.12433,-0.099423 0.29673,-0.1585264 0.37298,-0.2982679 0.004,-0.00773 0.19776,-0.7959564 0,-0.8947946 -0.15721,-0.078573 -0.0978,0.3477503 -0.0746,0.5219631 0.0741,0.555231 0.21849,1.1745309 0.37299,1.7150257 0.0153,0.053443 0.0746,0.093548 0.0746,0.1491318 0,0.024866 -0.0497,0 -0.0746,0"
       id="path32642" />
    <path
       style="fill:#000000;fill-opacity:0.00485678;stroke:#ff0000;stroke-width:0.7;stroke-linecap:round;stroke-miterlimit:4;stroke-dasharray:none;stroke-opacity:1"
       d="m 146.39329,5.1704417 c -0.0428,-1.6480515 0.71017,-0.4414801 0.52217,0.3728315 -0.0494,0.2140807 -0.24599,0.5367586 -0.44758,0.6710947 -0.0654,0.043603 -0.1475,0.055505 -0.22379,0.074568 -0.0241,0.00603 -0.0746,-0.024865 -0.0746,0 0,0.2719491 1.53419,0.1814645 1.41733,0.2982632 -0.0786,0.078606 -0.20586,0.08747 -0.29839,0.1491319"
       id="path32974" />
    <path
       style="fill:#000000;fill-opacity:0.00485678;stroke:#ff0000;stroke-width:0.7;stroke-linecap:round;stroke-miterlimit:4;stroke-dasharray:none;stroke-opacity:1"
       d="m 130.95182,4.499347 c -0.87936,0.010552 -0.23325,-1.1756033 0.22379,-1.1184945 0.59056,0.073791 0.70796,1.5293207 0.37298,1.8641573 -0.0866,0.086586 -0.23681,-0.074568 -0.29838,-0.074568 -0.0703,0 0.0929,0.1069523 0.14919,0.1491316 0.20008,0.1500008 0.52218,0.2950578 0.52218,0.5965314 0,0.51825 -0.67805,0.2253697 -0.96976,0.2982677 -0.30867,0.077136 -0.48449,0.3359354 -0.22379,0.596527"
       id="path32976" />
    <path
       style="fill:#000000;fill-opacity:0.00485678;stroke:#ff0000;stroke-width:0.7;stroke-linecap:round;stroke-miterlimit:4;stroke-dasharray:none;stroke-opacity:1"
       d="m 118.34502,3.6045522 c -0.14919,0.049711 -0.32921,0.045601 -0.44758,0.1491316 -0.10075,0.088126 -0.11071,0.2446232 -0.14919,0.3728315 -0.17345,0.5779545 0.19823,0.7319277 0.74596,0.671095 0.1563,-0.017359 0.29032,-0.1491319 0.44758,-0.1491319 0.16603,0 -0.0226,1.1411318 0.29839,0.8202266"
       id="path32978" />
    <path
       style="fill:#000000;fill-opacity:0.00485678;stroke:#ff0000;stroke-width:0.7;stroke-linecap:round;stroke-miterlimit:4;stroke-dasharray:none;stroke-opacity:1"
       d="m 108.1253,3.7536839 c -1.05219,1.3506421 1.30896,0.6500246 1.19355,1.3421897 -0.10155,0.6090182 -1.0571,0.6220061 -1.26814,1.0439307"
       id="path32980" />
    <path
       style="fill:#000000;fill-opacity:0.00485678;stroke:#ff0000;stroke-width:0.7;stroke-linecap:round;stroke-miterlimit:4;stroke-dasharray:none;stroke-opacity:1"
       d="m 107.15555,3.6791159 c 0.57986,-0.1917176 1.06866,0.074568 1.64112,0.074568"
       id="path32982" />
    <text
       xml:space="preserve"
       transform="matrix(0.26458333,0,0,0.26458333,69.066576,59.816091)"
       id="text33162"
       style="font-style:normal;font-weight:normal;font-size:21.3333px;line-height:1.25;font-family:sans-serif;white-space:pre;shape-inside:url(#rect33164);fill:#000000;fill-opacity:1;stroke:none"><tspan
         x="140.32031"
         y="-65.492217"
         id="tspan47136"><tspan
           style="font-family:monospace;-inkscape-font-specification:monospace"
           id="tspan47134">2, 2, 4 trimetil </tspan></tspan><tspan
         x="140.32031"
         y="-38.825591"
         id="tspan47140"><tspan
           style="font-family:monospace;-inkscape-font-specification:monospace"
           id="tspan47138">pentan</tspan></tspan></text>
    <path
       style="fill:#000000;fill-opacity:0.00485678;stroke:#000000;stroke-width:0.7;stroke-linecap:round;stroke-miterlimit:4;stroke-dasharray:none;stroke-opacity:1"
       d="m 144.66949,1.915914 c 0.55461,0.3890081 -0.0523,1.3644155 0.37298,1.7895893"
       id="path36730" />
    <path
       style="fill:#000000;fill-opacity:0.00485678;stroke:#ff0000;stroke-width:0.7;stroke-linecap:round;stroke-miterlimit:4;stroke-dasharray:none;stroke-opacity:1"
       d="m 154.15132,4.6484785 c 0.12433,-0.099423 0.29673,-0.1585264 0.37298,-0.2982679 0.004,-0.00773 0.19776,-0.7959564 0,-0.8947946 -0.15721,-0.078573 -0.0978,0.3477503 -0.0746,0.5219631 0.0741,0.555231 0.21849,1.1745309 0.37299,1.7150257 0.0153,0.053443 0.0746,0.093548 0.0746,0.1491318 0,0.024866 -0.0497,0 -0.0746,0"
       id="path36736" />
    <path
       style="fill:#000000;fill-opacity:0.00485678;stroke:#000000;stroke-width:0.7;stroke-linecap:round;stroke-miterlimit:4;stroke-dasharray:none;stroke-opacity:1"
       d="m 20.789919,95.009578 8.906018,-5.768758 8.906013,5.697548 8.977264,-5.768769 8.83477,5.626329 8.906014,-5.483886 9.048514,5.697536"
       id="path36783" />
    <path
       style="fill:#000000;fill-opacity:0.00485678;stroke:#000000;stroke-width:0.7;stroke-linecap:round;stroke-miterlimit:4;stroke-dasharray:none;stroke-opacity:1"
       d="m 38.607266,94.956318 0.0058,1.65089"
       id="path36957" />
    <path
       style="fill:#000000;fill-opacity:0.00485678;stroke:#000000;stroke-width:0.7;stroke-linecap:round;stroke-miterlimit:4;stroke-dasharray:none;stroke-opacity:1"
       d="m 47.517125,89.200606 -0.0097,-1.786799"
       id="path36959" />
    <path
       style="fill:#000000;fill-opacity:0.00485678;stroke:#000000;stroke-width:0.7;stroke-linecap:round;stroke-miterlimit:4;stroke-dasharray:none;stroke-opacity:1"
       d="m 56.392722,94.879128 -0.07483,10.023362 8.792707,5.9467"
       id="path36963" />
    <path
       style="fill:#000000;fill-opacity:0.00485678;stroke:#000000;stroke-width:0.7;stroke-linecap:round;stroke-miterlimit:4;stroke-dasharray:none;stroke-opacity:1"
       d="m 37.217074,99.348619 c -0.06217,-0.07769 -0.103722,-0.177879 -0.186523,-0.233058 -0.489651,-0.326302 -1.066363,0.906709 -1.165762,1.118679 -0.344977,0.73565 -0.759481,2.32681 -0.09326,3.02976 0.767082,0.80937 2.140066,-0.2866 2.471414,-1.02546 0.326671,-0.72843 0.334206,-2.812673 -1.025869,-2.283969 -0.909074,0.353389 -1.025855,0.868639 -1.445545,1.631409"
       id="path37278" />
    <path
       style="fill:#000000;fill-opacity:0.00485678;stroke:#000000;stroke-width:0.7;stroke-linecap:round;stroke-miterlimit:4;stroke-dasharray:none;stroke-opacity:1"
       d="m 39.548599,99.721513 c -0.03103,-0.155086 -0.09734,-0.407273 -0.04663,-0.559337 0.02027,-0.06078 0.0449,0.122404 0.04663,0.186443 0.01386,0.512541 0.03057,1.026371 0,1.538181 -0.07099,1.18862 -0.411404,1.65126 0.04663,2.75009 0.118711,0.28479 0.274254,-0.12878 0.419674,-0.41951"
       id="path37280" />
    <path
       style="fill:#000000;fill-opacity:0.00485678;stroke:#000000;stroke-width:0.7;stroke-linecap:round;stroke-miterlimit:4;stroke-dasharray:none;stroke-opacity:1"
       d="m 39.222182,101.30631 c 0.738222,-0.14266 1.450615,0.18644 2.191634,0.18644"
       id="path37282" />
    <path
       style="fill:#000000;fill-opacity:0.00485678;stroke:#000000;stroke-width:0.7;stroke-linecap:round;stroke-miterlimit:4;stroke-dasharray:none;stroke-opacity:1"
       d="m 41.320555,99.814736 c -0.07262,1.087144 0.1929,2.148564 0.326414,3.216204 0.01037,0.083 -0.05583,-0.15823 -0.09326,-0.23306"
       id="path37284" />
    <path
       style="fill:#000000;fill-opacity:0.00485678;stroke:#000000;stroke-width:0.7;stroke-linecap:round;stroke-miterlimit:4;stroke-dasharray:none;stroke-opacity:1"
       d="m 47.289259,82.65991 c -0.06217,-0.09322 -0.07781,-0.252503 -0.186523,-0.27967 -0.328518,-0.08209 -0.908119,0.701529 -0.932612,0.745786 -0.304781,0.550728 -1.735976,3.330197 0.233151,2.936531 0.416161,-0.0832 0.938827,-0.329041 1.352286,-0.512728"
       id="path37286" />
    <path
       style="fill:#000000;fill-opacity:0.00485678;stroke:#000000;stroke-width:0.7;stroke-linecap:round;stroke-miterlimit:4;stroke-dasharray:none;stroke-opacity:1"
       d="m 48.967956,85.270159 c 0.108804,-0.04661 0.24004,-0.0589 0.326411,-0.139835 0.325824,-0.305337 0.693076,-1.027189 0.839348,-1.398347 0.10332,-0.262167 0.279786,-1.05189 0.279786,-1.351737 0,-0.06949 -0.03367,-0.222189 -0.09326,-0.186447 -0.265689,0.159348 -0.446243,1.923367 -0.466304,2.190745 -0.01519,0.202546 -0.251219,1.602142 0.279781,1.724631 0.198186,0.04571 0.551537,-0.195178 0.699458,-0.27967"
       id="path37288" />
    <path
       style="fill:#000000;fill-opacity:0.00485678;stroke:#0000ff;stroke-width:0.7;stroke-linecap:round;stroke-miterlimit:4;stroke-dasharray:none;stroke-opacity:0.496396"
       d="m 18.132305,94.686979 2.442802,3.287056 8.878648,-6.292366 9.019577,6.292367 9.160512,-6.104534 8.739429,5.35365 8.712798,-5.162902 9.348419,5.72887 2.442802,-3.709676 -11.509358,-7.654148 -8.601771,5.353206 -9.362143,-5.073403 -8.549811,5.681911 -9.160508,-6.057576 z"
       id="path37403"
       sodipodi:nodetypes="ccccccccccccccc" />
    <text
       xml:space="preserve"
       transform="matrix(0.26458333,0,0,0.26458333,-16.265308,136.40812)"
       id="text40626"
       style="font-style:normal;font-weight:normal;font-size:21.3333px;line-height:1.25;font-family:sans-serif;white-space:pre;shape-inside:url(#rect40628);fill:#000000;fill-opacity:1;stroke:none"><tspan
         x="140.32031"
         y="-65.492217"
         id="tspan47142">2 etil - 4 hidroksi - </tspan><tspan
         x="140.32031"
         y="-38.825591"
         id="tspan47144">3 klor heptan</tspan></text>
    <path
       style="fill:#000000;fill-opacity:0;stroke:#002244;stroke-width:0.7;stroke-linecap:round;stroke-linejoin:round;stroke-opacity:0.992157"
       d="m 116.22437,95.307602 10.00862,-5.379812 9.63094,5.474198 10.48071,-5.379814"
       id="path34419" />
    <path
       style="fill:#000000;fill-opacity:0;stroke:#002244;stroke-width:0.7;stroke-linecap:round;stroke-linejoin:round;stroke-opacity:0.992157"
       d="m 126.42183,89.833408 -0.0944,-9.343888"
       id="path34916" />
    <path
       style="fill:#000000;fill-opacity:0;stroke:#002244;stroke-width:0.7;stroke-linecap:round;stroke-linejoin:round;stroke-opacity:0.992157"
       d="m 135.95834,95.307602 -0.18884,8.022528"
       id="path34920" />
    <path
       style="fill:#000000;fill-opacity:0;stroke:#002244;stroke-width:0.7;stroke-linecap:round;stroke-linejoin:round;stroke-opacity:0.992157"
       d="m 116.11739,95.307602 -0.18883,1.887654"
       id="path34924" />
    <path
       style="fill:#000000;fill-opacity:0;stroke:#002244;stroke-width:0.7;stroke-linecap:round;stroke-linejoin:round;stroke-opacity:0.992157"
       d="m 114.60666,99.177295 c -0.0315,0.188764 -0.0646,0.377267 -0.0944,0.566293 -0.15922,1.008022 -0.24303,2.010802 -0.37768,3.020252 -0.0253,0.18969 -0.0944,0.75767 -0.0944,0.56629"
       id="path34926" />
    <path
       style="fill:#000000;fill-opacity:0;stroke:#002244;stroke-width:0.7;stroke-linecap:round;stroke-linejoin:round;stroke-opacity:0.992157"
       d="m 114.51224,100.12112 c -0.23906,-1.372082 1.83996,-0.798516 1.51073,0.18877 -0.0992,0.29757 -0.28052,0.53815 -0.56652,0.66068 -0.18297,0.0784 -0.37769,0.12584 -0.56653,0.18876 -0.0299,0.01 -0.0944,-0.0315 -0.0944,0 0,0.0315 0.0639,-0.008 0.0944,0 0.96943,0.24226 -0.40289,-0.0535 0.56653,0.18877 0.84332,0.21074 1.09672,0.57176 0.75536,1.51012 -0.26819,0.73723 -0.9855,0.99299 -1.69957,0.75506 -0.74988,-0.24985 -1.11926,-0.57319 -0.94421,-0.66068 0.20495,-0.10244 0.44357,-0.11633 0.66095,-0.18876"
       id="path34928" />
    <path
       style="fill:#000000;fill-opacity:0;stroke:#002244;stroke-width:0.7;stroke-linecap:round;stroke-linejoin:round;stroke-opacity:0.992157"
       d="m 117.0616,101.25372 c -0.0315,0.25168 -0.0734,0.50228 -0.0944,0.75505 -0.0404,0.48506 -0.008,0.25181 0.0944,0.66069 0.008,0.0305 0,0.12583 0,0.0944 0,-0.16043 -0.0944,-0.3115 -0.0944,-0.47192 0,-0.39917 -0.0638,-1.579 0.47211,-1.79327 0.37109,-0.14838 0.67526,0.25805 0.9442,0.37753 0.30861,0.1371 0.79761,0.18877 1.13305,0.18877"
       id="path34930" />
    <text
       xml:space="preserve"
       transform="matrix(0.26458333,0,0,0.26458333,70.225695,136.40812)"
       id="text35012"
       style="font-style:normal;font-weight:normal;font-size:21.3333px;line-height:1.25;font-family:sans-serif;white-space:pre;shape-inside:url(#rect35014);fill:#000000;fill-opacity:1;stroke:none"><tspan
         x="140.32031"
         y="-65.492217"
         id="tspan47146">1 brom - 2, 3 dietil </tspan><tspan
         x="140.32031"
         y="-38.825591"
         id="tspan47148">bütan</tspan></text>
    <path
       style="fill:#000000;fill-opacity:0;stroke:#0000ff;stroke-width:0.7;stroke-linecap:round;stroke-linejoin:round;stroke-opacity:0.494372"
       d="m 112.75789,93.811788 3.64277,5.831909 9.72536,-5.379807 9.63093,5.28543 14.63524,-7.644998 -3.64277,-6.35858 -10.61478,6.075431 -9.72536,-5.792282 z"
       id="path42979"
       sodipodi:nodetypes="ccccccccc" />
  </g>
</svg>
