<?xml version="1.0" encoding="UTF-8" standalone="no"?>
<!-- Created with Inkscape (http://www.inkscape.org/) -->

<svg
   width="196.98143mm"
   height="63.704815mm"
   viewBox="0 0 196.98143 63.704814"
   version="1.1"
   id="svg53235"
   inkscape:version="1.1.2 (0a00cf5339, 2022-02-04)"
   sodipodi:docname="alkanlarda-adlandırma-2.svg"
   xmlns:inkscape="http://www.inkscape.org/namespaces/inkscape"
   xmlns:sodipodi="http://sodipodi.sourceforge.net/DTD/sodipodi-0.dtd"
   xmlns="http://www.w3.org/2000/svg"
   xmlns:svg="http://www.w3.org/2000/svg">
  <sodipodi:namedview
     id="namedview53237"
     pagecolor="#ffffff"
     bordercolor="#999999"
     borderopacity="1"
     inkscape:pageshadow="0"
     inkscape:pageopacity="0"
     inkscape:pagecheckerboard="0"
     inkscape:document-units="mm"
     showgrid="true"
     showguides="true"
     inkscape:guide-bbox="true"
     inkscape:zoom="1.1137103"
     inkscape:cx="987.2406"
     inkscape:cy="3.1426486"
     inkscape:window-width="1916"
     inkscape:window-height="1033"
     inkscape:window-x="0"
     inkscape:window-y="45"
     inkscape:window-maximized="1"
     inkscape:current-layer="layer1">
    <inkscape:grid
       type="xygrid"
       id="grid53296"
       originx="169.32073"
       originy="-139.60954" />
    <sodipodi:guide
       position="12.947168,39.7644"
       orientation="1,0"
       id="guide53389" />
    <sodipodi:guide
       position="93.678229,30.817335"
       orientation="1,0"
       id="guide89003" />
    <sodipodi:guide
       position="109.62795,45.073282"
       orientation="1,0"
       id="guide89259" />
  </sodipodi:namedview>
  <defs
     id="defs53232" />
  <g
     inkscape:label="Layer 1"
     inkscape:groupmode="layer"
     id="layer1"
     transform="translate(169.32073,-139.60955)">
    <path
       sodipodi:type="star"
       style="fill:#000000;fill-opacity:0;stroke:#00000b;stroke-width:2.64567;stroke-linecap:round;stroke-linejoin:round;stroke-miterlimit:4;stroke-dasharray:none;stroke-opacity:1"
       id="path46461"
       inkscape:flatsided="true"
       sodipodi:sides="5"
       sodipodi:cx="40.259689"
       sodipodi:cy="274.5932"
       sodipodi:r1="39.420895"
       sodipodi:r2="31.892174"
       sodipodi:arg1="-0.26179939"
       sodipodi:arg2="0.36651914"
       inkscape:rounded="0"
       inkscape:randomized="0"
       transform="matrix(0.26458333,0,0,0.26458333,-167.1065,78.068686)"
       inkscape:transform-center-x="-0.16868293"
       inkscape:transform-center-y="-0.83419586"
       d="M 78.33735,264.39032 61.729847,307.65434 15.451317,305.22899 3.4571137,260.46602 42.322819,235.22633 Z" />
    <path
       style="fill:#000000;fill-opacity:0;stroke:#00000b;stroke-width:0.7;stroke-linecap:round;stroke-linejoin:round;stroke-miterlimit:4;stroke-dasharray:none;stroke-opacity:1"
       d="m -146.16838,147.83915 5.28723,-0.96093"
       id="path46666" />
    <path
       style="fill:#000000;fill-opacity:0;stroke:#00000b;stroke-width:0.7;stroke-linecap:round;stroke-linejoin:round;stroke-miterlimit:4;stroke-dasharray:none;stroke-opacity:1"
       d="m -150.59043,159.37026 3.46073,3.8437"
       id="path46668" />
    <path
       style="fill:#000000;fill-opacity:0;stroke:#00000b;stroke-width:0.7;stroke-linecap:round;stroke-linejoin:round;stroke-miterlimit:4;stroke-dasharray:none;stroke-opacity:1"
       d="m -136.26684,145.34074 c -0.2651,-0.69441 -0.37993,-0.70723 -0.96132,-0.38437 -0.22651,0.12579 -0.61822,0.32527 -0.76904,0.57655 -0.62088,1.03438 -0.63717,3.58639 1.15357,3.07496 0.55046,-0.15721 0.96181,-0.46876 1.44197,-0.76873"
       id="path46672" />
    <path
       style="fill:#000000;fill-opacity:0;stroke:#00000b;stroke-width:0.7;stroke-linecap:round;stroke-linejoin:round;stroke-miterlimit:4;stroke-dasharray:none;stroke-opacity:1"
       d="m -133.28676,145.62901 c 0.26195,-0.20666 -0.0961,-1.41616 -0.0961,-0.67264 0,0.22649 0.11228,0.44673 0.0961,0.67264 -0.0166,0.23261 -0.16143,0.4415 -0.19227,0.67265 -0.0763,0.57179 0.0469,1.18497 0.19227,1.72967 0.0708,0.26533 0.41524,1.44537 0.67292,0.67265"
       id="path46678" />
    <path
       style="fill:#000000;fill-opacity:0;stroke:#00000b;stroke-width:0.7;stroke-linecap:round;stroke-linejoin:round;stroke-miterlimit:4;stroke-dasharray:none;stroke-opacity:1"
       d="m -143.38057,163.31005 c -0.22431,-0.0641 -0.44236,-0.22764 -0.67292,-0.19218 -1.07751,0.1657 -1.45683,2.92209 -0.96131,3.74761 0.74942,1.24852 2.78781,-0.17946 2.78781,-0.57655 0,-0.0717 -0.12062,0.0961 -0.19226,0.0961"
       id="path46680" />
    <path
       style="fill:#000000;fill-opacity:0;stroke:#00000b;stroke-width:0.7;stroke-linecap:round;stroke-linejoin:round;stroke-miterlimit:4;stroke-dasharray:none;stroke-opacity:1"
       d="m -141.26568,165.71237 c 0.16396,-0.54351 0.85282,-3.3756 0.57679,-3.65152 -0.0507,-0.0506 -0.0788,0.1227 -0.0961,0.19218 -0.14524,0.58072 -0.31,1.53091 -0.28839,2.11404 0.0179,0.48439 0.0699,0.97238 0.19226,1.44139 0.68179,2.61249 2.33885,-0.74745 1.63423,-0.86484 -0.13032,-0.0217 -0.25634,0.0641 -0.38452,0.0961"
       id="path46682" />
    <path
       style="fill:#000000;fill-opacity:0;stroke:#ff0b12;stroke-width:0.7;stroke-linecap:round;stroke-linejoin:round;stroke-miterlimit:4;stroke-dasharray:none;stroke-opacity:1"
       d="m -148.28328,148.99226 c -0.032,-0.19219 -0.0812,-0.38229 -0.0961,-0.57656 -0.0172,-0.22356 0,-0.44843 0,-0.67265 0,-1.38249 -0.28588,-0.1147 -0.19226,0.38437 0.056,0.29868 0.24821,0.56362 0.28839,0.86484 0.0604,0.45302 -0.38453,1.1938 -0.38453,0.48046"
       id="path46717" />
    <path
       style="fill:#000000;fill-opacity:0;stroke:#ff0b12;stroke-width:0.7;stroke-linecap:round;stroke-linejoin:round;stroke-miterlimit:4;stroke-dasharray:none;stroke-opacity:1"
       d="m -152.41694,157.73668 c -0.0961,-0.22421 -0.24473,-0.43263 -0.28839,-0.67265 -0.0541,-0.29759 0.34332,-1.1943 0.76906,-0.76874 0.32161,0.32149 0.43203,1.01394 0.38452,1.44139 -0.007,0.0611 -0.0949,0.47926 -0.19226,0.57656 -0.0934,0.0934 -0.38453,-0.036 -0.38453,0.0961 0,0.27634 2.09659,-0.67265 1.53811,-0.67265"
       id="path47018" />
    <path
       style="fill:#000000;fill-opacity:0;stroke:#ff0b12;stroke-width:0.7;stroke-linecap:round;stroke-linejoin:round;stroke-miterlimit:4;stroke-dasharray:none;stroke-opacity:1"
       d="m -162.703,156.87185 c -0.11957,-0.26152 1.15357,-0.45883 1.15357,-0.0961 0,0.30249 -0.48089,0.48117 -0.57678,0.76874 -0.26458,0.79339 1.15078,0.29386 1.05744,0.48046 -0.40292,0.80552 -2.40074,0.24406 -1.73036,1.2492"
       id="path47020" />
    <path
       style="fill:#000000;fill-opacity:0;stroke:#ff0b12;stroke-width:0.7;stroke-linecap:round;stroke-linejoin:round;stroke-miterlimit:4;stroke-dasharray:none;stroke-opacity:1"
       d="m -163.85658,147.0704 c 0.37944,0.55918 0.42546,-0.67264 0.19226,-0.67264 -0.39881,0 -1.30681,1.50893 -0.86518,1.72966 0.34019,0.17003 0.98175,-0.27466 1.24971,-0.0961 0.17108,0.11401 -0.18487,2.57234 0.28839,1.15311"
       id="path47022" />
    <path
       style="fill:#000000;fill-opacity:0;stroke:#ff0b12;stroke-width:0.7;stroke-linecap:round;stroke-linejoin:round;stroke-miterlimit:4;stroke-dasharray:none;stroke-opacity:1"
       d="m -156.55059,140.24783 c -1.00745,2.64516 1.53811,0.5004 1.53811,2.01794 0,1.01167 -0.64168,2.96086 -1.44198,0.96093"
       id="path47024" />
    <path
       style="fill:#000000;fill-opacity:0;stroke:#ff0b12;stroke-width:0.7;stroke-linecap:round;stroke-linejoin:round;stroke-miterlimit:4;stroke-dasharray:none;stroke-opacity:1"
       d="m -157.60803,139.95955 c 0.64615,0.29649 1.3228,0.46061 2.01876,0.57656"
       id="path47026" />
    <text
       xml:space="preserve"
       style="font-style:normal;font-variant:normal;font-weight:normal;font-stretch:normal;font-size:21.3333px;line-height:normal;font-family:monospace;-inkscape-font-specification:monospace;font-variant-ligatures:normal;font-variant-position:normal;font-variant-caps:normal;font-variant-numeric:normal;font-variant-alternates:normal;font-variant-east-asian:normal;font-feature-settings:normal;font-variation-settings:normal;text-indent:0;text-align:start;text-decoration-line:none;text-decoration-style:solid;text-decoration-color:#000000;letter-spacing:normal;word-spacing:normal;text-transform:none;writing-mode:lr-tb;direction:ltr;text-orientation:mixed;dominant-baseline:auto;baseline-shift:baseline;text-anchor:start;white-space:pre;shape-padding:0;shape-margin:0;inline-size:144.321;vector-effect:none;fill:#000000;fill-opacity:1;stroke:#00000b;stroke-width:0;stroke-linecap:round;stroke-linejoin:round;stroke-miterlimit:4;stroke-dasharray:none;stroke-dashoffset:0;stroke-opacity:1;-inkscape-stroke:none;stop-color:#000000"
       x="99.48275"
       y="312.00293"
       id="text51276"
       transform="matrix(0.26458333,0,0,0.26458333,-167.1065,78.068686)"><tspan
         x="99.48275"
         y="312.00293"
         id="tspan108224">1, 2 diklor </tspan><tspan
         x="99.48275"
         y="338.66956"
         id="tspan108226">siklopentan</tspan></text>
    <path
       sodipodi:type="star"
       style="fill:#000000;fill-opacity:0;stroke:#000000;stroke-width:2.64567;stroke-linecap:round;stroke-linejoin:round;stroke-opacity:1"
       id="path53413"
       inkscape:flatsided="true"
       sodipodi:sides="5"
       sodipodi:cx="38.27084"
       sodipodi:cy="173.84756"
       sodipodi:r1="38.42271"
       sodipodi:r2="31.084623"
       sodipodi:arg1="-1.5707963"
       sodipodi:arg2="-0.9424778"
       inkscape:rounded="0"
       inkscape:randomized="0"
       d="m 38.270841,135.42485 36.542168,26.54945 -13.957868,42.95789 -45.168605,0 -13.9578651,-42.9579 z"
       transform="matrix(0.26458333,0,0,0.26458333,-166.5418,139.60955)"
       inkscape:transform-center-y="-0.97076799" />
    <path
       style="fill:#000000;fill-opacity:0;stroke:#000000;stroke-width:0.7;stroke-linecap:round;stroke-linejoin:round;stroke-opacity:1"
       d="m -146.82082,182.68864 6.02927,-1.43822"
       id="path53648" />
    <path
       style="fill:#000000;fill-opacity:0;stroke:#000000;stroke-width:0.7;stroke-linecap:round;stroke-linejoin:round;stroke-opacity:1"
       d="m -136.88623,179.74371 c 0.0228,-0.18263 0.0889,-0.36497 0.0685,-0.54789 -0.009,-0.079 -0.32843,-0.13487 -0.61663,0.0685 -0.67455,0.47595 -1.3067,1.38942 -1.50732,2.19157 -0.23232,0.92888 0.63218,1.27502 1.37029,0.95881 0.15136,-0.0648 0.27406,-0.18263 0.41109,-0.27394"
       id="path53650" />
    <path
       style="fill:#000000;fill-opacity:0;stroke:#000000;stroke-width:0.7;stroke-linecap:round;stroke-linejoin:round;stroke-opacity:1"
       d="m -136.7492,181.93529 c 0.7523,0.28203 0.79303,-0.0945 1.09623,-0.82184 0.26706,-0.64068 0.4656,-1.32772 0.68515,-1.98611 0.10173,-0.30508 -0.27772,0.55885 -0.34257,0.75335 -0.0685,0.20546 -0.16306,0.404 -0.20555,0.61638 -0.0858,0.42868 -0.23166,1.30692 0,1.71216 0.22063,0.38595 0.65724,-0.14966 0.75366,-0.34243 0.0521,-0.10411 0.0457,-0.22829 0.0685,-0.34243"
       id="path53652" />
    <path
       style="fill:#000000;fill-opacity:0;stroke:#000000;stroke-width:0.7;stroke-linecap:round;stroke-linejoin:round;stroke-opacity:1"
       d="m -161.9625,193.78348 -2.8776,3.49282"
       id="path53654" />
    <path
       style="fill:#000000;fill-opacity:0;stroke:#000000;stroke-width:0.7;stroke-linecap:round;stroke-linejoin:round;stroke-opacity:1"
       d="m -167.85474,198.91998 c 0,-0.10349 0.076,-0.5312 -0.13703,-0.61638 -0.25529,-0.10207 -0.44754,0.36049 -0.54811,0.61638 -0.45555,1.1591 -1.08107,4.27284 1.30177,3.0819 0.32781,-0.16383 0.39105,-0.25391 0.61663,-0.4794"
       id="path53656" />
    <path
       style="fill:#000000;fill-opacity:0;stroke:#000000;stroke-width:0.7;stroke-linecap:round;stroke-linejoin:round;stroke-opacity:1"
       d="m -165.66228,201.45399 c 0.44811,-0.59724 0.44385,-0.43472 0.54812,-1.16427 0.0389,-0.27213 0.0548,-0.54729 0.0685,-0.82184 0.009,-0.17148 -0.009,-1.30153 -0.0685,-0.34243 -0.0386,0.61765 -0.0727,1.36822 0,1.98611 0.0246,0.20903 0.0957,0.40999 0.13703,0.61638 0.14013,0.70041 0.20942,0.78866 0.4796,0.0685 0.0757,-0.20187 0.0685,-0.14124 0.0685,-0.27394"
       id="path53658" />
    <path
       style="fill:#000000;fill-opacity:0;stroke:#ff0007;stroke-width:0.7;stroke-linecap:round;stroke-linejoin:round;stroke-opacity:1"
       d="m -149.08179,183.78443 c 0.0192,-0.11531 0.13703,-0.8022 0.13703,-0.89033 0,-0.16143 -0.0293,-0.32281 -0.0685,-0.47941 -0.008,-0.0313 -0.0685,-0.10077 -0.0685,-0.0685 0,0.45877 0.2415,1.02191 0.27406,1.57519 0.0406,0.69001 -0.13703,0.67268 -0.13703,0.41092"
       id="path53660" />
    <path
       style="fill:#000000;fill-opacity:0;stroke:#ff0007;stroke-width:0.7;stroke-linecap:round;stroke-linejoin:round;stroke-opacity:1"
       d="m -152.37048,192.20829 c -0.11419,-0.1598 -0.25471,-0.30375 -0.34257,-0.47941 -0.1806,-0.36105 0.28883,-1.66746 0.68514,-1.78065 0.73598,-0.21019 0.68884,1.74182 0.61663,2.0546 -0.0669,0.28992 -0.13435,0.47672 -0.34257,0.68487 -0.06,0.0599 -0.38819,0.17694 -0.27406,0.20546 0.39419,0.0985 0.76307,-0.24441 1.09623,-0.41092 0.10213,-0.0511 0.38823,-0.20546 0.27406,-0.20546"
       id="path53796" />
    <path
       style="fill:#000000;fill-opacity:0;stroke:#ff0007;stroke-width:0.7;stroke-linecap:round;stroke-linejoin:round;stroke-opacity:1"
       d="m -162.16804,192.07132 c 0.0507,-0.40985 0.44299,-1.10624 0.9592,-0.95882 0.75734,0.2163 -0.27058,1.14688 -0.34257,1.50671 -0.0445,0.22262 1.31119,0.0883 0.68514,0.47941 -0.25679,0.16042 -1.50732,0.20096 -1.50732,0.27394 0,0.0323 0.0396,0.0829 0.0685,0.0685 0.0457,-0.0228 0.0457,-0.0913 0.0685,-0.13697"
       id="path53798" />
    <path
       style="fill:#000000;fill-opacity:0;stroke:#ff0007;stroke-width:0.7;stroke-linecap:round;stroke-linejoin:round;stroke-opacity:1"
       d="m -164.3605,182.48318 c -0.13703,0.1598 -0.28475,0.31103 -0.41109,0.47941 -0.0799,0.10648 -0.14599,0.22337 -0.20554,0.34243 -0.36283,0.72536 0.82798,0.15416 1.02771,0.27395 0.2414,0.14478 0.20555,1.67698 0.20555,1.0273"
       id="path53800" />
    <path
       style="fill:#000000;fill-opacity:0;stroke:#ff0007;stroke-width:0.7;stroke-linecap:round;stroke-linejoin:round;stroke-opacity:1"
       d="m -157.30352,177.00424 c -0.48991,1.13552 1.11568,0.81166 1.4388,1.78066 0.0368,0.11043 0.10534,0.23201 0.0685,0.34244 -0.16033,0.48078 -1.11511,0.66034 -1.50732,0.4794 -0.20525,-0.0947 -0.31973,-0.3196 -0.4796,-0.4794"
       id="path53802" />
    <path
       style="fill:#000000;fill-opacity:0;stroke:#ff0007;stroke-width:0.7;stroke-linecap:round;stroke-linejoin:round;stroke-opacity:1"
       d="m -157.98866,176.52484 c 0.71916,-0.57068 1.15664,0.0685 1.9184,0.0685"
       id="path53804" />
    <text
       xml:space="preserve"
       style="font-style:normal;font-variant:normal;font-weight:normal;font-stretch:normal;font-size:21.3333px;line-height:normal;font-family:monospace;-inkscape-font-specification:monospace;font-variant-ligatures:normal;font-variant-position:normal;font-variant-caps:normal;font-variant-numeric:normal;font-variant-alternates:normal;font-variant-east-asian:normal;font-feature-settings:normal;font-variation-settings:normal;text-indent:0;text-align:start;text-decoration-line:none;text-decoration-style:solid;text-decoration-color:#000000;letter-spacing:normal;word-spacing:normal;text-transform:none;writing-mode:lr-tb;direction:ltr;text-orientation:mixed;dominant-baseline:auto;baseline-shift:baseline;text-anchor:start;white-space:pre;shape-padding:0;shape-margin:0;inline-size:143.255;opacity:1;vector-effect:none;fill:#000000;fill-opacity:1;stroke:#00000b;stroke-width:0;stroke-linecap:round;stroke-linejoin:round;stroke-miterlimit:4;stroke-dasharray:none;stroke-dashoffset:0;stroke-opacity:1;-inkscape-stroke:none;stop-color:#000000;stop-opacity:1"
       x="81.009819"
       y="209.66998"
       id="text64096"
       transform="matrix(0.26458333,0,0,0.26458333,-166.5418,139.60955)"><tspan
         x="81.009819"
         y="209.66998"
         id="tspan108228">1, 3 diklor </tspan><tspan
         x="81.009819"
         y="236.33661"
         id="tspan108230">siklopentan</tspan></text>
    <path
       sodipodi:type="star"
       style="fill:#000000;fill-opacity:0;stroke:#000000;stroke-width:2.64567;stroke-linecap:round;stroke-linejoin:round;stroke-opacity:1"
       id="path89005"
       inkscape:flatsided="true"
       sodipodi:sides="3"
       sodipodi:cx="345.46564"
       sodipodi:cy="78.243912"
       sodipodi:r1="25.73267"
       sodipodi:r2="12.866335"
       sodipodi:arg1="0.78539816"
       sodipodi:arg2="1.8325957"
       inkscape:rounded="0"
       inkscape:randomized="0"
       d="M 363.66138,96.439657 320.60979,84.904017 352.12574,53.388061 Z"
       transform="matrix(0.26458333,0,0,0.26458333,-171.76148,127.96781)"
       inkscape:transform-center-x="0.88107754"
       inkscape:transform-center-y="-0.88107665" />
    <path
       sodipodi:type="star"
       style="fill:#000000;fill-opacity:0;stroke:#000000;stroke-width:2.64567;stroke-linecap:round;stroke-linejoin:round;stroke-opacity:1"
       id="path89095"
       inkscape:flatsided="true"
       sodipodi:sides="3"
       sodipodi:cx="461.16718"
       sodipodi:cy="78.776878"
       sodipodi:r1="25.326221"
       sodipodi:r2="12.663111"
       sodipodi:arg1="2.3561945"
       sodipodi:arg2="3.403392"
       inkscape:rounded="0"
       inkscape:randomized="0"
       d="m 443.25883,96.685221 11.35344,-42.371594 31.01816,31.01816 z"
       transform="matrix(0.26458333,0,0,0.26458333,-160.2989,127.96781)"
       inkscape:transform-center-x="-0.86715826"
       inkscape:transform-center-y="-0.86716006" />
    <path
       sodipodi:type="star"
       style="fill:#000000;fill-opacity:0;stroke:#000000;stroke-width:2.64567;stroke-linecap:round;stroke-linejoin:round;stroke-opacity:1"
       id="path89305"
       inkscape:flatsided="true"
       sodipodi:sides="6"
       sodipodi:cx="404.64935"
       sodipodi:cy="96.364922"
       sodipodi:r1="46.564259"
       sodipodi:r2="40.325829"
       sodipodi:arg1="-1.5707963"
       sodipodi:arg2="-1.0471976"
       inkscape:rounded="0"
       inkscape:randomized="0"
       d="m 404.64935,49.800663 40.32583,23.28213 0,46.564257 -40.32583,23.28213 -40.32583,-23.28213 0,-46.564259 z"
       transform="matrix(0.26458333,0,0,0.26458333,-166.5418,139.60955)"
       inkscape:transform-center-x="1.3488312e-06" />
    <path
       style="fill:#000000;fill-opacity:0;stroke:#000000;stroke-width:0.7;stroke-linecap:round;stroke-linejoin:round;stroke-opacity:1"
       d="m -48.737916,159.04245 5.925036,-5.78163"
       id="path89535" />
    <path
       style="fill:#000000;fill-opacity:0;stroke:#000000;stroke-width:0.7;stroke-linecap:round;stroke-linejoin:round;stroke-opacity:1"
       d="m -75.400592,153.68387 5.078605,5.35858"
       id="path89537" />
    <path
       style="fill:#000000;fill-opacity:0;stroke:#000000;stroke-width:0.7;stroke-linecap:round;stroke-linejoin:round;stroke-opacity:1"
       d="m -59.459415,177.23342 0.14107,6.4867"
       id="path89539" />
    <path
       sodipodi:type="star"
       style="fill:#000000;fill-opacity:0;stroke:#000000;stroke-width:2.64567;stroke-linecap:round;stroke-linejoin:round;stroke-opacity:1"
       id="path89624"
       inkscape:flatsided="true"
       sodipodi:sides="5"
       sodipodi:cx="403.12125"
       sodipodi:cy="198.16241"
       sodipodi:r1="37.887543"
       sodipodi:r2="25.884838"
       sodipodi:arg1="-1.5848695"
       sodipodi:arg2="-0.95655093"
       inkscape:rounded="0"
       inkscape:randomized="0"
       d="m 402.58807,160.27862 36.39804,25.66997 -13.16598,42.54906 -44.53507,0.62679 -14.3582,-42.16168 z"
       transform="matrix(0.26458333,0,0,0.26458333,-165.69537,141.16071)"
       inkscape:transform-center-x="1.3437375e-06" />
    <text
       xml:space="preserve"
       style="font-style:normal;font-variant:normal;font-weight:normal;font-stretch:normal;font-size:21.3333px;line-height:normal;font-family:monospace;-inkscape-font-specification:monospace;font-variant-ligatures:normal;font-variant-position:normal;font-variant-caps:normal;font-variant-numeric:normal;font-variant-alternates:normal;font-variant-east-asian:normal;font-feature-settings:normal;font-variation-settings:normal;text-indent:0;text-align:start;text-decoration-line:none;text-decoration-style:solid;text-decoration-color:#000000;letter-spacing:normal;word-spacing:normal;text-transform:none;writing-mode:lr-tb;direction:ltr;text-orientation:mixed;dominant-baseline:auto;baseline-shift:baseline;text-anchor:start;white-space:pre;shape-padding:0;shape-margin:0;inline-size:264.258;opacity:1;vector-effect:none;fill:#000000;fill-opacity:1;stroke:#00000b;stroke-width:0;stroke-linecap:round;stroke-linejoin:round;stroke-miterlimit:4;stroke-dasharray:none;stroke-dashoffset:0;stroke-opacity:1;-inkscape-stroke:none;stop-color:#000000;stop-opacity:1"
       x="477.11978"
       y="93.784538"
       id="text91317"
       transform="matrix(0.26458333,0,0,0.26458333,-166.5418,139.60955)"><tspan
         x="477.11978"
         y="93.784538"
         id="tspan108232">1 siklopentil - 3, 5 </tspan><tspan
         x="477.11978"
         y="120.45116"
         id="tspan108234">disiklopropil siklo </tspan><tspan
         x="477.11978"
         y="147.11778"
         id="tspan108236">henzan</tspan></text>
    <path
       style="fill:#000000;fill-opacity:0;stroke:#ff0000;stroke-width:0.7;stroke-linecap:round;stroke-linejoin:round;stroke-opacity:1"
       d="m -59.861629,175.04172 c -0.068,-0.8656 0.198231,-1.71286 0.198231,-2.57597 0,-0.83336 -0.07853,-0.68973 -0.198231,-1.28798 -0.0065,-0.0324 0,-0.1321 0,-0.0991 0,1.04387 -0.04157,3.95023 0.495577,4.75564 0.125135,0.18763 0.01138,-0.21342 -0.198228,-0.29723 -0.354521,-0.14175 -0.315804,0.0553 -0.396465,0.29723"
       id="path107642" />
    <path
       style="fill:#000000;fill-opacity:0;stroke:#ff0000;stroke-width:0.7;stroke-linecap:round;stroke-linejoin:round;stroke-opacity:1"
       d="m -50.742974,170.58332 c -1.151795,-0.84953 0.256045,-3.30048 0.792927,-1.28799 0.200385,0.75114 0.0398,1.40656 -0.297349,2.08059 -0.40653,0.81273 -0.02643,0.16183 -0.297349,0.29723 -0.04179,0.0209 -0.144434,0.1104 -0.09912,0.0991 0.334632,-0.0836 0.66077,-0.19815 0.991158,-0.29723 0.384866,-0.11541 0.644893,-0.32231 0.991161,-0.49537"
       id="path107776" />
    <path
       style="fill:#000000;fill-opacity:0;stroke:#ff0000;stroke-width:0.7;stroke-linecap:round;stroke-linejoin:round;stroke-opacity:1"
       d="m -51.833245,159.58591 c 0.03304,-0.36327 -0.0039,-0.73989 0.09911,-1.08983 0.390223,-1.32622 2.126602,-0.68476 1.38762,0.7926 -0.01072,0.0214 -0.374417,0.53391 -0.495577,0.59446 -0.02954,0.0148 -0.03303,-0.0991 0,-0.0991 0.04771,0 0.75185,0.26204 0.792927,0.29723 0.265567,0.22754 0.428204,0.53196 0.297344,0.89168 -0.40758,1.12039 -1.443115,0.92622 -2.378779,0.79261 -0.622977,-0.089 -0.456695,0.0389 -0.693812,-0.19815"
       id="path107778" />
    <path
       style="fill:#000000;fill-opacity:0;stroke:#ff0000;stroke-width:0.7;stroke-linecap:round;stroke-linejoin:round;stroke-opacity:1"
       d="m -60.258092,153.44322 c -0.198231,0.33025 -0.422383,0.64627 -0.594696,0.99076 -0.09344,0.18681 -0.157249,0.38963 -0.198231,0.59445 -0.238609,1.19256 1.202397,0.68703 1.784086,0.3963 0.04178,-0.0209 0.0524,-0.0991 0.09911,-0.0991 0.13617,0 -0.08407,0.26097 -0.09911,0.3963 -0.06953,0.62552 -0.196464,1.3906 0.09911,1.98152 0.01476,0.0295 0,-0.0661 0,-0.0991 0,-0.23118 0,-0.46236 0,-0.69353"
       id="path107782" />
    <path
       style="fill:#000000;fill-opacity:0;stroke:#ff0000;stroke-width:0.7;stroke-linecap:round;stroke-linejoin:round;stroke-opacity:1"
       d="m -68.682935,159.09053 c -0.73105,2.12437 1.371885,1.06306 1.486738,1.98152 0.06545,0.52339 -0.479359,1.46246 -1.090274,1.28798 -0.457877,-0.13076 -0.549809,-0.76596 -0.693811,-1.08983"
       id="path107784" />
    <path
       style="fill:#000000;fill-opacity:0;stroke:#ff0000;stroke-width:0.7;stroke-linecap:round;stroke-linejoin:round;stroke-opacity:1"
       d="m -69.376747,158.79331 c 0.865497,-0.47614 1.144561,-0.13957 1.982316,0"
       id="path107786" />
    <path
       style="fill:#000000;fill-opacity:0;stroke:#ff0000;stroke-width:0.7;stroke-linecap:round;stroke-linejoin:round;stroke-opacity:1"
       d="m -68.782054,168.79995 c -0.04377,-0.44812 -0.248435,-0.93322 -0.693809,-0.29722 -0.506404,0.72314 -0.29674,2.08096 0.495581,2.57596 0.767133,0.47927 1.020138,-1.05932 0.892043,-1.48613 -0.309288,-1.03054 -1.499029,0.6096 -1.585857,0.89168 -0.0583,0.18938 0,0.3963 0,0.59445"
       id="path107788" />
  </g>
</svg>
