<?xml version="1.0" encoding="UTF-8" standalone="no"?>
<!-- Created with Inkscape (http://www.inkscape.org/) -->

<svg
   width="54.991325mm"
   height="26.301826mm"
   viewBox="0 0 54.991325 26.301826"
   version="1.1"
   id="svg23173"
   inkscape:version="1.1.2 (0a00cf5339, 2022-02-04)"
   sodipodi:docname="karbon-dereceleri.svg"
   xmlns:inkscape="http://www.inkscape.org/namespaces/inkscape"
   xmlns:sodipodi="http://sodipodi.sourceforge.net/DTD/sodipodi-0.dtd"
   xmlns="http://www.w3.org/2000/svg"
   xmlns:svg="http://www.w3.org/2000/svg">
  <sodipodi:namedview
     id="namedview23175"
     pagecolor="#ffffff"
     bordercolor="#999999"
     borderopacity="1"
     inkscape:pageshadow="0"
     inkscape:pageopacity="0"
     inkscape:pagecheckerboard="0"
     inkscape:document-units="mm"
     showgrid="true"
     inkscape:zoom="4.1859985"
     inkscape:cx="123.86531"
     inkscape:cy="70.114692"
     inkscape:window-width="1916"
     inkscape:window-height="1033"
     inkscape:window-x="0"
     inkscape:window-y="45"
     inkscape:window-maximized="1"
     inkscape:current-layer="layer1">
    <inkscape:grid
       type="xygrid"
       id="grid23234"
       originx="-35.878074"
       originy="-45.150619" />
  </sodipodi:namedview>
  <defs
     id="defs23170">
    <rect
       x="140.32027"
       y="-84.366776"
       width="188.41417"
       height="54.752693"
       id="rect7493" />
  </defs>
  <g
     inkscape:label="Layer 1"
     inkscape:groupmode="layer"
     id="layer1"
     transform="translate(-35.878075,-45.15062)">
    <path
       style="opacity:0.99;fill:#000000;fill-opacity:0.00485678;stroke:#000000;stroke-width:0.700012;stroke-linecap:round;stroke-miterlimit:4;stroke-dasharray:none;stroke-opacity:1"
       d="m 36.648682,55.172888 c -0.309378,-1.082728 0.03862,0.382096 0.04673,0.560506 0.05021,1.104092 -0.09334,1.305073 -0.140201,2.335438 -0.02221,0.488304 -0.0163,1.084045 0.04673,1.5881 0.01407,0.112476 0.09347,0.21361 0.09347,0.326962 0,0.01558 -0.03195,0.0049 -0.04673,0 -0.286399,-0.09542 -0.206048,-0.03821 -0.327134,-0.280253"
       id="path1719" />
    <path
       style="opacity:0.99;fill:#000000;fill-opacity:0.00485678;stroke:#000000;stroke-width:0.700012;stroke-linecap:round;stroke-miterlimit:4;stroke-dasharray:none;stroke-opacity:1"
       d="m 36.228081,58.115543 c 0.844809,-0.187596 1.716184,-0.111587 2.570338,-0.233544"
       id="path1721" />
    <path
       style="opacity:0.99;fill:#000000;fill-opacity:0.00485678;stroke:#000000;stroke-width:0.700012;stroke-linecap:round;stroke-miterlimit:4;stroke-dasharray:none;stroke-opacity:1"
       d="m 38.845154,55.499849 c 0.173583,1.315031 0.23306,2.645444 0.280401,3.970248 0.0067,0.186716 0,0.37367 0,0.560506 0,0.0642 -0.0046,0.225343 0.04673,0.186835 0.06231,-0.04671 0.09347,-0.124557 0.1402,-0.186835"
       id="path1723" />
    <path
       style="opacity:0.99;fill:#000000;fill-opacity:0.00485678;stroke:#000000;stroke-width:0.700012;stroke-linecap:round;stroke-miterlimit:4;stroke-dasharray:none;stroke-opacity:1"
       d="m 40.527558,59.516805 c -0.241814,-0.40853 0.589096,-1.3447 0.887933,-0.74734 0.223388,0.446536 0.05949,1.451615 -0.607534,1.261138 -0.04736,-0.01353 -0.105362,-0.01189 -0.1402,-0.04671 -0.02746,-0.02745 0.242706,-0.07866 0.607535,0.140127 0.133573,0.08011 0.271835,0.162584 0.373867,0.280252 0.158583,0.182885 0.503335,0.862584 0.140201,1.074303 -0.356055,0.207589 -1.508953,-0.160188 -1.869338,-0.280254 -0.29433,-0.09806 -0.280401,-0.04296 -0.280401,-0.186835"
       id="path1725" />
    <path
       style="opacity:0.99;fill:#000000;fill-opacity:0.00485678;stroke:#000000;stroke-width:0.700012;stroke-linecap:round;stroke-miterlimit:4;stroke-dasharray:none;stroke-opacity:1"
       d="m 45.060699,56.340607 c 0.05977,-0.199131 0.283908,-0.558167 0,-0.747341 -0.229603,-0.152988 -0.75318,0.282258 -0.794469,0.326963 -0.718057,0.777485 -1.365317,2.1664 -0.887933,3.222907 0.403777,0.893605 1.400694,0.553265 2.05627,0.280252 0.527911,-0.219847 0.301038,-0.186835 0.140201,-0.186835"
       id="path1727" />
    <path
       style="opacity:0.99;fill:#000000;fill-opacity:0.00485678;stroke:#000000;stroke-width:0.700012;stroke-linecap:round;stroke-miterlimit:4;stroke-dasharray:none;stroke-opacity:1"
       d="m 48.378772,57.321492 c 0.932552,-0.06955 1.867088,-0.233544 2.804007,-0.233544"
       id="path1729" />
    <path
       style="opacity:0.99;fill:#000000;fill-opacity:0.00485678;stroke:#000000;stroke-width:0.700012;stroke-linecap:round;stroke-miterlimit:4;stroke-dasharray:none;stroke-opacity:1"
       d="m 55.908952,55.703123 c -0.0011,-0.0058 0.01905,-0.351451 -0.1402,-0.326962 -0.175546,0.02699 -0.367079,0.04044 -0.514068,0.140127 -0.982617,0.666426 -2.253515,2.332637 -1.682403,3.596576 0.09976,0.220769 0.301909,0.396805 0.514066,0.513797 0.769659,0.424415 1.374276,0.185529 2.196473,-0.04671 0.275592,-0.07784 0.544107,-0.187944 0.794471,-0.326961 0.04305,-0.0239 0.08896,-0.114802 0.04673,-0.140127 -0.06332,-0.03798 -0.632251,0.03907 -0.701003,0.04671"
       id="path1731" />
    <path
       style="opacity:0.99;fill:#000000;fill-opacity:0.00485678;stroke:#000000;stroke-width:0.700012;stroke-linecap:round;stroke-miterlimit:4;stroke-dasharray:none;stroke-opacity:1"
       d="m 61.745259,57.667498 c 0.628622,0.263358 2.091627,-0.262578 2.617072,0"
       id="path1733" />
    <path
       style="opacity:0.99;fill:#000000;fill-opacity:0.00485678;stroke:#000000;stroke-width:0.700012;stroke-linecap:round;stroke-miterlimit:4;stroke-dasharray:none;stroke-opacity:1"
       d="m 69.503007,55.65902 c -0.155777,-0.03114 -0.316619,-0.14363 -0.467332,-0.09342 -0.210017,0.06997 -0.374942,0.248218 -0.51407,0.42038 -0.603965,0.74737 -1.093603,2.011512 -0.607534,2.942654 0.421168,0.806816 1.530907,0.449233 2.149738,0.186836 0.456535,-0.19358 1.160845,-0.607215 0.794469,-0.607215"
       id="path1735" />
    <path
       style="opacity:0.99;fill:#000000;fill-opacity:0.00485678;stroke:#000000;stroke-width:0.700012;stroke-linecap:round;stroke-miterlimit:4;stroke-dasharray:none;stroke-opacity:1"
       d="m 72.026613,55.939273 c 0.03115,-0.09342 0.0494,-0.368324 0.09347,-0.280253 0.474925,0.949344 0.08675,2.549302 -0.04672,3.549868 -0.035,0.26236 -0.01886,0.53004 0,0.79405 0.0016,0.02197 0.0345,0.02839 0.04672,0.04671 0.01932,0.02897 0.02212,0.118034 0.04673,0.09342 0.165758,-0.165672 0.0057,-0.68931 -0.09347,-0.887468"
       id="path1737" />
    <path
       style="opacity:0.99;fill:#000000;fill-opacity:0.00485678;stroke:#000000;stroke-width:0.700012;stroke-linecap:round;stroke-miterlimit:4;stroke-dasharray:none;stroke-opacity:1"
       d="m 71.606009,57.994459 c 0.814095,-0.825305 2.248566,0.132982 2.94421,-0.794049"
       id="path1739" />
    <path
       style="opacity:0.99;fill:#000000;fill-opacity:0.00485678;stroke:#000000;stroke-width:0.700012;stroke-linecap:round;stroke-miterlimit:4;stroke-dasharray:none;stroke-opacity:1"
       d="m 74.316552,55.145224 c 0.09994,1.279595 -0.161823,2.519213 -0.280403,3.783412 -0.03492,0.37236 -0.06008,0.747254 -0.04673,1.12101 0.0024,0.06959 0.0259,0.203719 0.09347,0.186836 0.305509,-0.07634 -0.01106,-0.379204 -0.09347,-0.42038"
       id="path1741" />
    <path
       style="opacity:0.99;fill:#000000;fill-opacity:0.00485678;stroke:#000000;stroke-width:0.700012;stroke-linecap:round;stroke-miterlimit:4;stroke-dasharray:none;stroke-opacity:1"
       d="m 78.347703,57.57408 c 0.155777,-0.01557 0.310779,-0.04671 0.467332,-0.04671 0.48054,0 0.973119,0.118841 1.448737,0 0.03379,-0.0084 -0.06884,0.02209 -0.09347,0.04671"
       id="path1745" />
    <path
       style="opacity:0.99;fill:#000000;fill-opacity:0.00485678;stroke:#000000;stroke-width:0.700012;stroke-linecap:round;stroke-miterlimit:4;stroke-dasharray:none;stroke-opacity:1"
       d="m 84.095913,55.752437 c -0.109044,-0.03114 -0.213729,-0.09342 -0.327133,-0.09342 -0.06965,0 -0.132249,0.05027 -0.186934,0.09342 -0.646113,0.509822 -1.496966,1.415459 -1.588937,2.288731 -0.03298,0.313147 0.01394,0.645717 0.1402,0.934176 0.217798,0.497559 0.796509,0.778997 1.308536,0.794049 0.271931,0.008 0.534199,-0.107662 0.794469,-0.186834 0.228559,-0.06952 0.599376,-0.329681 0.186935,-0.467088"
       id="path1747" />
    <path
       style="opacity:0.99;fill:#000000;fill-opacity:0.00485678;stroke:#000000;stroke-width:0.700012;stroke-linecap:round;stroke-miterlimit:4;stroke-dasharray:none;stroke-opacity:1"
       d="m 86.619518,55.65902 c 0.07789,0.03114 0.218916,0.01085 0.233667,0.09342 0.118299,0.66212 -0.09039,2.062002 -0.186932,2.662402 -0.178238,1.10846 -0.282182,0.90218 -0.233669,1.774934 0.0044,0.07927 -0.03266,0.233544 0.04673,0.233544 0.199797,0 0.275921,-0.63378 0.280398,-0.653924"
       id="path1749" />
    <path
       style="opacity:0.99;fill:#000000;fill-opacity:0.00485678;stroke:#000000;stroke-width:0.700012;stroke-linecap:round;stroke-miterlimit:4;stroke-dasharray:none;stroke-opacity:1"
       d="m 86.292386,58.087878 c 0.859018,-0.193896 1.79147,-0.04361 2.617072,-0.373671"
       id="path1751" />
    <path
       style="opacity:0.99;fill:#000000;fill-opacity:0.00485678;stroke:#000000;stroke-width:0.700012;stroke-linecap:round;stroke-miterlimit:4;stroke-dasharray:none;stroke-opacity:1"
       d="m 89.096389,54.958388 c 0.06534,1.272432 -0.264291,2.523976 -0.373866,3.783412 -0.02159,0.248177 -0.01244,0.498538 0,0.747341 0.0032,0.06412 -0.01069,0.215535 0.04673,0.186835 0.109334,-0.05464 0.0011,-0.552752 0,-0.560505"
       id="path1753" />
    <path
       style="opacity:0.99;fill:#000000;fill-opacity:0.00485678;stroke:#000000;stroke-width:0.700012;stroke-linecap:round;stroke-miterlimit:4;stroke-dasharray:none;stroke-opacity:1"
       d="m 53.66232,65.824346 c 0.02561,-0.03292 0.407329,-0.406551 0.373866,-0.607215 -0.03977,-0.238504 -0.521219,0.02512 -0.700999,0.186836 -0.983438,0.88463 -1.881673,2.637945 -1.121603,3.923536 0.09544,0.161423 0.203575,0.341826 0.373867,0.420383 0.896608,0.413603 1.861645,-0.187753 2.617074,-0.607215 0.117135,-0.06504 0.215634,-0.159251 0.327132,-0.233546 0.02898,-0.01931 0.07789,-0.01556 0.09347,-0.04671 0.06271,-0.125372 -0.281481,-0.01738 -0.420599,0"
       id="path1783" />
    <path
       style="opacity:0.99;fill:#000000;fill-opacity:0.00485678;stroke:#000000;stroke-width:0.700012;stroke-linecap:round;stroke-miterlimit:4;stroke-dasharray:none;stroke-opacity:1"
       d="m 56.139191,66.198017 c 0.286058,2.287231 -0.004,-0.164031 0.280401,2.849236 0.03248,0.344174 0.1402,0.681889 0.1402,1.027593 0,0.01812 -0.274855,-0.320311 -0.280398,-0.32696"
       id="path1785" />
    <path
       style="opacity:0.99;fill:#000000;fill-opacity:0.00485678;stroke:#000000;stroke-width:0.700012;stroke-linecap:round;stroke-miterlimit:4;stroke-dasharray:none;stroke-opacity:1"
       d="m 55.905525,68.39333 c 3.405691,-1.291136 0.314928,-0.354765 1.775869,-0.467089 0.06945,-0.0053 0.124622,-0.06228 0.186934,-0.09341"
       id="path1787" />
    <path
       style="opacity:0.99;fill:#000000;fill-opacity:0.00485678;stroke:#000000;stroke-width:0.700012;stroke-linecap:round;stroke-miterlimit:4;stroke-dasharray:none;stroke-opacity:1"
       d="m 57.961797,65.730927 c 0.223995,0.853006 0.207264,1.74182 0.186932,2.615693 -0.0055,0.234001 -0.04673,0.466569 -0.04673,0.700633 0,0.26263 0.129301,0.233543 -0.04673,0.233543"
       id="path1789" />
    <path
       style="opacity:0.99;fill:#000000;fill-opacity:0.00485678;stroke:#000000;stroke-width:0.700012;stroke-linecap:round;stroke-miterlimit:4;stroke-dasharray:none;stroke-opacity:1"
       d="m 59.550731,69.514341 c -0.109893,-0.267477 0.102669,-1.768037 0.654268,-1.354554 0.244901,0.183579 0.107607,0.741351 -0.04673,0.934174 -0.06231,0.07786 -0.14648,0.138424 -0.233667,0.186835 -0.128465,0.07134 -0.493459,0.148168 -0.373869,0.233545 0.827533,0.59078 0.276803,-0.349427 0.701002,0.233545 0.784207,1.077727 -0.792129,1.354554 -1.542202,1.354554"
       id="path1791" />
    <path
       style="opacity:0.99;fill:#000000;fill-opacity:0.00485678;stroke:#000000;stroke-width:0.700012;stroke-linecap:round;stroke-miterlimit:4;stroke-dasharray:none;stroke-opacity:1"
       d="m 55.43632,61.524053 c 0.273772,1.026099 0.161063,0.448972 0.280404,1.681518 0.01508,0.155878 0.07118,0.551907 0.04673,0.747339 -0.05371,0.429368 -0.04673,-0.08541 -0.04673,0.140127"
       id="path1799" />
    <path
       style="opacity:0.99;fill:#000000;fill-opacity:0;stroke:#000000;stroke-width:0.7;stroke-linecap:round;stroke-linejoin:round"
       d="m 57.182527,55.595009 c 0.126344,0.126296 0.337331,0.205176 0.379037,0.378883 0.215053,0.895702 -0.222377,2.882233 -0.252693,3.851987 -0.01421,0.454795 0.09216,0.778272 0.126346,0.757769 0.14101,-0.08457 0.199578,-0.262641 0.315865,-0.378886"
       id="path24569" />
    <path
       style="opacity:0.99;fill:#000000;fill-opacity:0;stroke:#000000;stroke-width:0.7;stroke-linecap:round;stroke-linejoin:round"
       d="m 57.372046,58.247197 c 0.07383,-1.223475 1.167227,0.348769 1.705668,-0.189444"
       id="path24571" />
    <path
       style="opacity:0.99;fill:#000000;fill-opacity:0;stroke:#000000;stroke-width:0.7;stroke-linecap:round;stroke-linejoin:round"
       d="m 58.698674,55.658157 c 0.0061,1.221867 0.05016,2.444117 0.126349,3.662542 0.01027,0.164079 -0.06081,0.381246 0.06317,0.50518"
       id="path24573" />
    <path
       style="opacity:0.99;fill:#000000;fill-opacity:0;stroke:#000000;stroke-width:0.7;stroke-linecap:round;stroke-linejoin:round"
       d="m 60.214821,60.394204 c 0,-0.25259 -0.01577,-0.505669 0,-0.757767 0.0075,-0.119769 0.18197,-0.64657 0.379043,-0.252587 0.274751,0.549283 -0.0086,1.655582 -0.315865,2.147006 -0.04509,0.07211 -0.125064,0.252587 -0.252693,0.252587 -0.08932,0 0.115189,-0.139909 0.189515,-0.189441 0.357453,-0.238207 0.736664,-0.264515 1.137113,-0.378881 3e-6,-3e-6 0.252685,-0.126296 0.252693,-0.126296 0.02106,0 0,0.0421 0,0.06314"
       id="path24575" />
    <path
       style="opacity:0.99;fill:#000000;fill-opacity:0;stroke:#000000;stroke-width:0.7;stroke-linecap:round;stroke-linejoin:round"
       d="m 75.565832,60.331058 c 0.05266,-0.174659 0.181764,-1.731195 0.505384,-1.515536 0.383143,0.255328 -0.06737,2.082131 -0.189521,2.399599 -0.106196,0.276 -0.16306,0.312497 -0.379034,0.442029 -0.05711,0.03425 -0.189521,-0.0034 -0.189521,0.06315 0,0.06431 0.213701,-0.07524 0.568555,-0.252593 0.157252,-0.07859 0.573272,-0.314163 0.758076,-0.252587 0.234196,0.07803 -0.07703,0.06314 0.126344,0.06314"
       id="path24930" />
    <path
       style="opacity:0.99;fill:#000000;fill-opacity:0;stroke:#000000;stroke-width:0.7;stroke-linecap:round;stroke-linejoin:round"
       d="m 89.211178,58.689226 c -0.06825,-0.750104 1.510779,-0.494459 1.20028,0.126296 -6e-6,1.3e-5 -0.505378,0.505172 -0.505384,0.505177 -0.113014,0.08473 -0.279135,0.08959 -0.379031,0.189444 -0.04709,0.04707 0.125486,0.04486 0.18951,0.06315 0.302715,0.08646 0.344062,-0.0039 0.568561,0.25259 0.318235,0.363548 0.316471,0.801923 0.06317,1.199798 -0.310933,0.488415 -1.220327,0.353057 -1.70567,0.315738 -0.173342,-0.01333 -0.393158,-0.15453 -0.315865,0 0.03996,0.07989 0.126349,0.126293 0.189521,0.189441"
       id="path24932" />
    <path
       style="opacity:0.99;fill:#ff0000;fill-opacity:0;stroke:#ff0000;stroke-width:0.7;stroke-linecap:round;stroke-linejoin:round;stroke-opacity:1"
       d="m 44.800644,53.953179 c -0.136374,-0.779928 0.126344,-1.548847 0.126344,-2.336451 0,-0.148841 0.06068,-0.524568 -0.06317,-0.442031 -0.06316,0.04209 -0.08423,0.126294 -0.126344,0.189442"
       id="path25438" />
    <path
       style="opacity:0.99;fill:#ff0000;fill-opacity:0;stroke:#ff0000;stroke-width:0.7;stroke-linecap:round;stroke-linejoin:round;stroke-opacity:1"
       d="m 43.916224,51.55358 c 0.613997,-0.188121 1.010764,-0.751509 1.010764,-1.389239 0,-0.02106 0,0.0421 0,0.06315 0,0.0842 -0.01765,0.170262 0,0.252589 0.07819,0.364715 0.181917,0.725382 0.315864,1.073502 0.05071,0.131795 0.119436,0.256289 0.189519,0.378886 0.01479,0.02585 0.06317,0.09292 0.06317,0.06315 0,-0.04707 -0.04212,-0.0842 -0.06317,-0.126294"
       id="path25440" />
    <path
       style="opacity:0.99;fill:#ff0000;fill-opacity:0;stroke:#ff0000;stroke-width:0.7;stroke-linecap:round;stroke-linejoin:round;stroke-opacity:1"
       d="m 43.853049,46.059767 c 0,0.294687 0.01228,0.589629 0,0.88406 -0.02257,0.541266 -0.121205,1.116105 -0.25269,1.641829 -0.0013,0.005 -0.126347,0.394081 -0.126347,0.189445"
       id="path25442" />
    <path
       style="opacity:0.99;fill:#ff0000;fill-opacity:0;stroke:#ff0000;stroke-width:0.7;stroke-linecap:round;stroke-linejoin:round;stroke-opacity:1"
       d="m 43.537184,46.18606 c 0.188762,-0.849661 1.23467,-0.930153 1.579322,-0.126293 0.02622,0.06118 0.08423,0.126293 0.06318,0.189441 -0.159716,0.478954 -1.509009,0.498041 -1.579322,0.568325 -0.03825,0.03823 0.10246,0.165566 0.126346,0.189442"
       id="path25444" />
    <path
       style="opacity:0.99;fill:#ff0000;fill-opacity:0;stroke:#ff0000;stroke-width:0.7;stroke-linecap:round;stroke-linejoin:round;stroke-opacity:1"
       d="m 55.540031,54.332062 c 0.134715,-0.936143 0.234664,-1.893972 0.189521,-2.841627 -0.01003,-0.210341 0.03869,-0.71396 -0.252693,-0.568328"
       id="path25452" />
    <path
       style="opacity:0.99;fill:#ff0000;fill-opacity:0;stroke:#ff0000;stroke-width:0.7;stroke-linecap:round;stroke-linejoin:round;stroke-opacity:1"
       d="m 55.160994,51.237845 c 0.585772,-0.225994 0.604912,-0.533784 0.694902,-1.073504 0.0035,-0.02077 0.02103,-0.06315 0,-0.06315 -0.02588,0 0.02847,0.153392 0.06317,0.378883 0.04548,0.295511 0.02114,0.652608 0.25269,0.884061"
       id="path25454" />
    <path
       style="opacity:0.99;fill:#ff0000;fill-opacity:0;stroke:#ff0000;stroke-width:0.7;stroke-linecap:round;stroke-linejoin:round;stroke-opacity:1"
       d="m 55.792724,45.617733 c 0.02106,0.126296 0.0685,0.25096 0.06317,0.378886 -0.01299,0.311375 -0.846114,4.192587 0.505383,2.841627"
       id="path25456" />
    <path
       style="opacity:0.99;fill:#ff0000;fill-opacity:0;stroke:#ff0000;stroke-width:0.7;stroke-linecap:round;stroke-linejoin:round;stroke-opacity:1"
       d="m 54.781955,47.385861 c 0.486267,0.08039 0.918847,-0.117695 1.389803,0"
       id="path25458" />
    <path
       style="opacity:0.99;fill:#ff0000;fill-opacity:0;stroke:#ff0000;stroke-width:0.7;stroke-linecap:round;stroke-linejoin:round;stroke-opacity:1"
       d="m 68.932681,54.332062 c -0.300707,-1.196374 0.265882,-2.486329 -0.126344,-3.662545 -0.02106,-0.06315 -0.01609,0.142386 -0.06318,0.189445"
       id="path25460" />
    <path
       style="opacity:0.99;fill:#ff0000;fill-opacity:0;stroke:#ff0000;stroke-width:0.7;stroke-linecap:round;stroke-linejoin:round;stroke-opacity:1"
       d="m 68.364126,51.427287 c 0.272883,-0.08727 0.462941,-1.669786 0.568555,-1.704978 0.173672,-0.05787 0.432953,1.298329 0.505383,1.515536"
       id="path25462" />
    <path
       style="opacity:0.99;fill:#ff0000;fill-opacity:0;stroke:#ff0000;stroke-width:0.7;stroke-linecap:round;stroke-linejoin:round;stroke-opacity:1"
       d="m 69.438064,47.006975 c -0.07982,-0.497956 -0.925288,0.37982 -0.758076,0.50518 0.345776,0.259222 1.516163,0.07576 1.010769,0.884062 -0.04736,0.07574 -0.113766,0.142113 -0.189521,0.189439 -0.540369,0.337596 -0.977707,-0.07141 -1.263454,0 -0.09133,0.02283 0.05976,0.186037 0.126344,0.25259"
       id="path25464" />
    <path
       style="opacity:0.99;fill:#ff0000;fill-opacity:0;stroke:#ff0000;stroke-width:0.7;stroke-linecap:round;stroke-linejoin:round;stroke-opacity:1"
       d="m 83.651962,50.922107 c -0.214892,0.644409 -0.09883,0.108096 -0.06317,0.820918 0.03682,0.736171 -0.02222,1.481584 -0.126344,2.210154 -0.02148,0.150384 -0.202248,0.581044 -0.06317,0.442032"
       id="path25466" />
    <path
       style="opacity:0.99;fill:#ff0000;fill-opacity:0;stroke:#ff0000;stroke-width:0.7;stroke-linecap:round;stroke-linejoin:round;stroke-opacity:1"
       d="m 82.767539,51.111552 c 0.168461,-0.315738 0.34529,-0.62715 0.505384,-0.947211 0.07592,-0.151789 0.08803,-0.483177 0.252693,-0.442032 0.264178,0.06602 0.311822,1.515536 0.442211,1.515536 0.0842,0 0,-0.168394 0,-0.25259"
       id="path25468" />
    <path
       style="opacity:0.99;fill:#ff0000;fill-opacity:0;stroke:#ff0000;stroke-width:0.7;stroke-linecap:round;stroke-linejoin:round;stroke-opacity:1"
       d="m 83.209751,47.070123 c -0.105289,-0.06315 -0.193091,-0.189441 -0.315865,-0.189441 -0.178814,0 -0.643996,0.400544 -0.505383,0.631473 0.136588,0.227555 0.947592,0.211037 0.947592,0.442028 0,0.353862 -1.000943,0.947211 -1.326629,0.947211"
       id="path25470" />
  </g>
</svg>
