<?xml version="1.0" encoding="UTF-8" standalone="no"?>
<!-- Created with Inkscape (http://www.inkscape.org/) -->

<svg
   width="80.964798mm"
   height="95.261177mm"
   viewBox="0 0 80.964798 95.261177"
   version="1.1"
   id="svg1115"
   inkscape:version="1.1.2 (0a00cf5339, 2022-02-04)"
   sodipodi:docname="metan-özel-adlandırma.svg"
   xmlns:inkscape="http://www.inkscape.org/namespaces/inkscape"
   xmlns:sodipodi="http://sodipodi.sourceforge.net/DTD/sodipodi-0.dtd"
   xmlns="http://www.w3.org/2000/svg"
   xmlns:svg="http://www.w3.org/2000/svg">
  <sodipodi:namedview
     id="namedview1117"
     pagecolor="#ffffff"
     bordercolor="#999999"
     borderopacity="1"
     inkscape:pageshadow="0"
     inkscape:pageopacity="0"
     inkscape:pagecheckerboard="0"
     inkscape:document-units="mm"
     showgrid="true"
     inkscape:zoom="1.459927"
     inkscape:cx="138.70557"
     inkscape:cy="179.11855"
     inkscape:window-width="1916"
     inkscape:window-height="1033"
     inkscape:window-x="0"
     inkscape:window-y="45"
     inkscape:window-maximized="1"
     inkscape:current-layer="layer1">
    <inkscape:grid
       type="xygrid"
       id="grid1918"
       originx="-133.91779"
       originy="-40.035831" />
  </sodipodi:namedview>
  <defs
     id="defs1112">
    <rect
       x="140.32027"
       y="-84.366776"
       width="188.41417"
       height="54.752693"
       id="rect7493" />
    <rect
       x="140.32027"
       y="-84.366776"
       width="207.23051"
       height="54.523487"
       id="rect33164" />
    <rect
       x="140.32027"
       y="-84.366776"
       width="199.44275"
       height="53.835037"
       id="rect40628" />
    <rect
       x="140.32027"
       y="-84.366776"
       width="199.44275"
       height="53.835037"
       id="rect35014" />
  </defs>
  <g
     inkscape:label="Layer 1"
     inkscape:groupmode="layer"
     id="layer1"
     transform="translate(-133.9178,-40.03583)">
    <path
       style="fill:#000000;fill-opacity:0;stroke:#000000;stroke-width:0.7;stroke-linecap:round;stroke-linejoin:round;stroke-opacity:1"
       d="m 148.58286,51.930757 c -0.52517,-0.278858 0.62758,-0.695074 0.4764,-1.047665 -0.48329,-1.127213 -1.95347,0.347414 -2.19145,0.857178 -0.34569,0.740453 -0.25448,1.491337 0.0953,2.190573 0.24416,0.488138 0.33272,0.65863 0.9528,0.761936 0.48596,0.08096 2.06429,-0.857181 1.61978,-0.857181"
       id="path2390" />
    <path
       style="fill:#000000;fill-opacity:0;stroke:#000000;stroke-width:0.7;stroke-linecap:round;stroke-linejoin:round;stroke-opacity:1"
       d="m 151.72712,52.597452 c -0.40777,-0.08599 2.39986,0 2.0009,0"
       id="path2392" />
    <path
       style="fill:#000000;fill-opacity:0;stroke:#000000;stroke-width:0.7;stroke-linecap:round;stroke-linejoin:round;stroke-opacity:1"
       d="m 141.81792,52.692694 c 0.77723,-0.569148 1.29027,0 2.09618,0"
       id="path2394" />
    <path
       style="fill:#000000;fill-opacity:0;stroke:#000000;stroke-width:0.7;stroke-linecap:round;stroke-linejoin:round;stroke-opacity:1"
       d="m 148.58286,56.788107 c -0.0179,0.223034 0.004,2.240119 0.0953,2.285815 0.0635,0.03175 0.12704,-0.0635 0.19056,-0.09524"
       id="path2396" />
    <path
       style="fill:#000000;fill-opacity:0;stroke:#000000;stroke-width:0.7;stroke-linecap:round;stroke-linejoin:round;stroke-opacity:1"
       d="m 148.29701,46.195606 c -0.009,0.461603 -0.40364,2.537765 -0.19055,2.857265 0.0498,0.07472 0.19055,-0.100671 0.19055,-0.190484"
       id="path2398" />
    <path
       style="fill:#000000;fill-opacity:0;stroke:#000000;stroke-width:0.7;stroke-linecap:round;stroke-linejoin:round;stroke-opacity:1"
       d="m 147.43949,40.957283 c -0.0635,0.190486 -0.19056,0.370657 -0.19056,0.571455 0,0.70068 0.19056,1.204163 0.19056,1.904843 0,0.380969 0,0.761937 0,1.142905 0,0.09524 -0.0674,0.35306 0,0.285729 0.0502,-0.05019 0.0635,-0.126989 0.0953,-0.190484"
       id="path2406" />
    <path
       style="fill:#000000;fill-opacity:0;stroke:#000000;stroke-width:0.7;stroke-linecap:round;stroke-linejoin:round;stroke-opacity:1"
       d="m 147.53477,43.243097 c 0.60817,-0.43021 1.28313,-0.632849 1.90562,-1.047662"
       id="path2408" />
    <path
       style="fill:#000000;fill-opacity:0;stroke:#000000;stroke-width:0.7;stroke-linecap:round;stroke-linejoin:round;stroke-opacity:1"
       d="m 149.53567,40.38583 c -0.12175,0.862613 -0.37072,3.349091 0.19056,4.190656 0.10381,0.155657 0.0953,-0.239403 0.0953,-0.285723"
       id="path2410" />
    <path
       style="fill:#000000;fill-opacity:0;stroke:#000000;stroke-width:0.7;stroke-linecap:round;stroke-linejoin:round;stroke-opacity:1"
       d="m 156.87228,50.957715 c -0.28899,0.928132 -0.0904,1.834136 0.0953,2.762022 0.0532,0.265994 0.28585,0.490675 0.28585,0.761939 0,0.06352 -0.19056,0.06352 -0.19056,0 0,-0.100396 0.0635,-0.190484 0.0953,-0.285726"
       id="path2412" />
    <path
       style="fill:#000000;fill-opacity:0;stroke:#000000;stroke-width:0.7;stroke-linecap:round;stroke-linejoin:round;stroke-opacity:1"
       d="m 157.06285,53.053043 c 0.54132,-0.229457 1.02466,-0.476443 1.52449,-0.761939 0.11505,-0.229791 0.33154,-0.02283 0.4764,-0.09524 0.0284,-0.01421 0,-0.0635 0,-0.09524"
       id="path2414" />
    <path
       style="fill:#000000;fill-opacity:0;stroke:#000000;stroke-width:0.7;stroke-linecap:round;stroke-linejoin:round;stroke-opacity:1"
       d="m 158.87318,50.671989 c -0.0953,0.190484 -0.26095,0.359926 -0.28584,0.571452 -0.0456,0.387398 0.3782,3.047754 0.66697,3.047754"
       id="path2416" />
    <path
       style="fill:#000000;fill-opacity:0;stroke:#000000;stroke-width:0.7;stroke-linecap:round;stroke-linejoin:round;stroke-opacity:1"
       d="m 147.15365,60.386695 c -2.7e-4,1.147492 -0.48813,2.79206 0.19056,3.809685"
       id="path2418" />
    <path
       style="fill:#000000;fill-opacity:0;stroke:#000000;stroke-width:0.7;stroke-linecap:round;stroke-linejoin:round;stroke-opacity:1"
       d="m 147.53477,62.767752 c 0.84103,-0.15978 1.58472,-0.441177 2.19146,-1.047668"
       id="path2420" />
    <path
       style="fill:#000000;fill-opacity:0;stroke:#000000;stroke-width:0.7;stroke-linecap:round;stroke-linejoin:round;stroke-opacity:1"
       d="m 149.91679,59.81524 c -0.1588,0.380968 -0.40122,0.737071 -0.4764,1.142905 -0.0867,0.468243 -0.0546,0.955563 0,1.428633 0.0535,0.463254 0.57168,2.087351 0.57168,1.428634"
       id="path2422" />
    <path
       style="fill:#000000;fill-opacity:0;stroke:#000000;stroke-width:0.7;stroke-linecap:round;stroke-linejoin:round;stroke-opacity:1"
       d="m 137.43501,51.052957 c -0.0318,0.222231 -0.0953,0.442206 -0.0953,0.666694 0,1.0618 0.1913,2.194637 0.38112,3.238238 0.018,0.09878 0.0953,0.185328 0.0953,0.285727 0,0.04491 -0.0504,0.09524 -0.0953,0.09524 -0.0952,0 0,-0.190484 0,-0.285729"
       id="path2424" />
    <path
       style="fill:#000000;fill-opacity:0;stroke:#000000;stroke-width:0.7;stroke-linecap:round;stroke-linejoin:round;stroke-opacity:1"
       d="m 137.62557,53.910221 c 0.29856,-0.531926 2.19146,-0.704066 2.19146,-1.142904"
       id="path2426" />
    <path
       style="fill:#000000;fill-opacity:0;stroke:#000000;stroke-width:0.7;stroke-linecap:round;stroke-linejoin:round;stroke-opacity:1"
       d="m 139.53119,50.862475 c -0.1588,-0.09524 -0.30447,-0.354475 -0.47641,-0.285728 -0.14739,0.05893 -0.01,0.317783 0,0.47621 0.0992,1.586394 0.0701,0.593265 0.38113,2.381054 0.0493,0.283231 0.0515,0.57304 0.0953,0.857184 0.026,0.168984 0.0696,0.597082 0.19056,0.47621 0.0449,-0.04489 0,-0.126989 0,-0.190484"
       id="path2428" />
    <path
       style="fill:#000000;fill-opacity:0;stroke:#0000fe;stroke-width:0.7;stroke-linecap:round;stroke-linejoin:round;stroke-opacity:0.498039"
       d="m 140.76984,49.827181 0.38112,6.000259 4.28764,0.09524 0.0953,4.000175 6.00267,-0.190486 -0.19057,-4.476384 3.90652,-0.190484 -0.19058,-4.952595 -3.33482,-0.09524 -0.0953,-4.762109 -6.38379,2e-6 0.0953,4.571624 z"
       id="path2543"
       sodipodi:nodetypes="ccccccccccccc" />
    <path
       style="fill:#000000;fill-opacity:0;stroke:#000000;stroke-width:0.7;stroke-linecap:round;stroke-linejoin:round;stroke-opacity:1"
       d="m 148.58286,87.129789 c -0.52517,-0.278858 0.62758,-0.695074 0.4764,-1.047665 -0.48329,-1.127213 -1.95347,0.347414 -2.19145,0.857178 -0.34569,0.740453 -0.25448,1.491337 0.0953,2.190573 0.24416,0.488138 0.33272,0.65863 0.9528,0.761936 0.48596,0.08096 2.06429,-0.857181 1.61978,-0.857181"
       id="path5654" />
    <path
       style="fill:#000000;fill-opacity:0;stroke:#000000;stroke-width:0.7;stroke-linecap:round;stroke-linejoin:round;stroke-opacity:1"
       d="m 151.72712,87.796484 c -0.40777,-0.08599 2.39986,0 2.0009,0"
       id="path5656" />
    <path
       style="fill:#000000;fill-opacity:0;stroke:#000000;stroke-width:0.7;stroke-linecap:round;stroke-linejoin:round;stroke-opacity:1"
       d="m 141.81792,87.891726 c 0.77723,-0.569148 1.29027,0 2.09618,0"
       id="path5658" />
    <path
       style="fill:#000000;fill-opacity:0;stroke:#000000;stroke-width:0.7;stroke-linecap:round;stroke-linejoin:round;stroke-opacity:1"
       d="m 148.58286,91.987139 c -0.0179,0.223034 0.004,2.240119 0.0953,2.285815 0.0635,0.03175 0.12704,-0.0635 0.19056,-0.09524"
       id="path5660" />
    <path
       style="fill:#000000;fill-opacity:0;stroke:#000000;stroke-width:0.7;stroke-linecap:round;stroke-linejoin:round;stroke-opacity:1"
       d="m 148.29701,81.394638 c -0.009,0.461603 -0.40364,2.537765 -0.19055,2.857265 0.0498,0.07472 0.19055,-0.100671 0.19055,-0.190484"
       id="path5662" />
    <path
       style="fill:#000000;fill-opacity:0;stroke:#000000;stroke-width:0.7;stroke-linecap:round;stroke-linejoin:round;stroke-opacity:1"
       d="m 137.43501,86.251989 c -0.0318,0.222231 -0.0953,0.442206 -0.0953,0.666694 0,1.0618 0.1913,2.194637 0.38112,3.238238 0.018,0.09878 0.0953,0.185328 0.0953,0.285727 0,0.04491 -0.0504,0.09524 -0.0953,0.09524 -0.0952,0 0,-0.190484 0,-0.285729"
       id="path5682" />
    <path
       style="fill:#000000;fill-opacity:0;stroke:#000000;stroke-width:0.7;stroke-linecap:round;stroke-linejoin:round;stroke-opacity:1"
       d="m 137.62557,89.109253 c 0.29856,-0.531926 2.19146,-0.704066 2.19146,-1.142904"
       id="path5684" />
    <path
       style="fill:#000000;fill-opacity:0;stroke:#000000;stroke-width:0.7;stroke-linecap:round;stroke-linejoin:round;stroke-opacity:1"
       d="m 139.53119,86.061507 c -0.1588,-0.09524 -0.30447,-0.354475 -0.47641,-0.285728 -0.14739,0.05893 -0.01,0.317783 0,0.47621 0.0992,1.586394 0.0701,0.593265 0.38113,2.381054 0.0493,0.283231 0.0515,0.57304 0.0953,0.857184 0.026,0.168984 0.0696,0.597082 0.19056,0.47621 0.0449,-0.04489 0,-0.126989 0,-0.190484"
       id="path5686" />
    <path
       style="fill:#000000;fill-opacity:0;stroke:#0000fe;stroke-width:0.7;stroke-linecap:round;stroke-linejoin:round;stroke-opacity:0.498039"
       d="m 140.76984,85.026213 0.38112,6.000259 4.28764,0.09524 0.0953,4.000175 6.00267,-0.190486 -0.19057,-4.476384 3.90652,-0.190484 -0.19058,-4.952595 -3.33482,-0.09524 -0.0953,-4.762109 -6.38379,2e-6 0.0953,4.571624 z"
       id="path5688"
       sodipodi:nodetypes="ccccccccccccc" />
    <path
       style="fill:#000000;fill-opacity:0;stroke:#000000;stroke-width:0.7;stroke-linecap:round;stroke-linejoin:round;stroke-opacity:1"
       d="m 148.45336,76.646946 c 0.0182,-0.274505 0.3847,-1.370626 -0.0625,-1.498335 -0.74494,-0.212757 -1.49096,0.971127 -1.68631,1.498335 -0.1106,0.298509 -0.17558,0.618337 -0.18736,0.936459 -0.0327,0.882017 0.7451,2.021699 1.74876,1.810488 0.36838,-0.07752 0.54273,-0.365982 0.74947,-0.624308"
       id="path6125" />
    <path
       style="fill:#000000;fill-opacity:0;stroke:#000000;stroke-width:0.7;stroke-linecap:round;stroke-linejoin:round;stroke-opacity:1"
       d="m 150.45195,76.022638 c -0.27804,-0.05359 -0.11817,-0.367847 -0.24983,-0.499443 -0.0294,-0.02942 -0.002,0.0833 0,0.124862 0.0186,0.353893 0.0443,0.707398 0.0625,1.061318 0.0167,0.325316 -0.0118,2.922402 0.24982,3.183961 0.0883,0.08827 0.0245,-0.25215 0,-0.374584"
       id="path6391" />
    <path
       style="fill:#000000;fill-opacity:0;stroke:#000000;stroke-width:0.7;stroke-linecap:round;stroke-linejoin:round;stroke-opacity:1"
       d="m 150.26458,78.457432 c 0.45952,-0.589968 1.23091,-0.418806 1.74876,-0.936458"
       id="path6393" />
    <path
       style="fill:#000000;fill-opacity:0;stroke:#000000;stroke-width:0.7;stroke-linecap:round;stroke-linejoin:round;stroke-opacity:1"
       d="m 151.63861,75.335902 c -0.0208,-0.10405 0.0416,-0.332971 -0.0625,-0.312153 -0.10405,0.02082 0.0582,0.206126 0.0625,0.312153 0.0386,0.965221 -0.011,1.930148 0.18736,2.871808 0.0825,0.391703 0.36645,0.828175 0.18737,1.186183 -0.0263,0.05265 -0.0986,-0.07221 -0.12491,-0.124862"
       id="path6395" />
    <path
       style="fill:#000000;fill-opacity:0;stroke:#000000;stroke-width:0.7;stroke-linecap:round;stroke-linejoin:round;stroke-opacity:1"
       d="m 153.69965,78.832016 c -0.98699,-0.293712 0.24663,-0.829596 0.68701,-0.499444 0.41184,0.308748 -0.15332,0.871615 -0.37473,1.061321 -0.17967,0.153942 -0.31413,0.155152 -0.24982,0.18729 0.23094,0.115428 1.13211,-0.329938 0.87438,0.249722 -0.0567,0.127569 -0.10523,0.261692 -0.18737,0.374587 -0.20619,0.283395 -0.66209,0.636809 -0.99929,0.749165 -0.39993,0.133257 -0.36652,-0.320371 -0.5621,-0.12486"
       id="path6397" />
    <path
       style="fill:#000000;fill-opacity:0;stroke:#000000;stroke-width:0.7;stroke-linecap:round;stroke-linejoin:round;stroke-opacity:1"
       d="m 148.51581,97.498764 c 0.0416,-0.166479 0.12492,-0.327832 0.12492,-0.499441 0,-1.794835 -1.89118,0.809175 -1.99859,1.560761 -0.084,0.587608 0.31004,1.670166 1.06174,1.623196 0.77392,-0.0483 1.55981,-0.746499 1.93614,-1.373471"
       id="path6399" />
    <path
       style="fill:#000000;fill-opacity:0;stroke:#000000;stroke-width:0.7;stroke-linecap:round;stroke-linejoin:round;stroke-opacity:1"
       d="m 149.64002,96.562306 c 0.0208,-0.166481 -0.0126,-0.349391 0.0625,-0.499444 0.0384,-0.07674 0.0543,0.164304 0.0624,0.249722 0.10061,1.055912 0.12491,2.124165 0.12491,3.183961 0,0.853155 0.11594,0.971975 -0.18736,0.06243"
       id="path6401" />
    <path
       style="fill:#000000;fill-opacity:0;stroke:#000000;stroke-width:0.7;stroke-linecap:round;stroke-linejoin:round;stroke-opacity:1"
       d="m 149.64002,98.684949 c 0.13059,-1.364014 1.10107,-0.164176 1.5614,-0.624305"
       id="path6403" />
    <path
       style="fill:#000000;fill-opacity:0;stroke:#000000;stroke-width:0.7;stroke-linecap:round;stroke-linejoin:round;stroke-opacity:1"
       d="m 151.01405,95.938 c 0.25265,1.339324 0.0269,2.720917 0.24982,4.057989"
       id="path6405" />
    <path
       style="fill:#000000;fill-opacity:0;stroke:#000000;stroke-width:0.7;stroke-linecap:round;stroke-linejoin:round;stroke-opacity:1"
       d="m 152.13825,98.872237 c -0.47997,-0.470873 0.68298,-1.097629 0.74948,-0.499441 0.0607,0.545852 -0.32304,0.583386 -0.49965,0.936459 -0.009,0.01863 0.0416,0 0.0624,0 0.20334,0 0.25962,-0.02633 0.4372,0.06243 0.24498,0.122439 0.40647,0.404278 0.31228,0.686735 -0.14698,0.44075 -0.69787,1.10319 -1.06176,1.31104 -0.41592,0.23758 -0.4525,-0.31215 -0.24982,-0.31215"
       id="path6407" />
    <path
       style="fill:#000000;fill-opacity:0;stroke:#000000;stroke-width:0.7;stroke-linecap:round;stroke-linejoin:round;stroke-opacity:1"
       d="m 157.94665,86.386121 c 0.059,-0.28493 0.17064,-0.994431 -0.24982,-1.123751 -0.488,-0.150093 -0.85091,0.25655 -1.12421,0.561871 -0.1888,0.210934 -0.41009,0.418188 -0.49964,0.68674 -0.27746,0.832038 -0.12571,2.720819 0.74946,3.183958 0.80803,0.427609 1.73206,-0.953166 1.49895,-1.186179"
       id="path6409" />
    <path
       style="fill:#000000;fill-opacity:0;stroke:#000000;stroke-width:0.7;stroke-linecap:round;stroke-linejoin:round;stroke-opacity:1"
       d="m 159.88279,90.381679 c -0.0208,-0.228912 -0.0425,-0.457745 -0.0625,-0.68674 -0.0217,-0.249644 -0.0625,-0.498578 -0.0625,-0.749165 0,-0.412421 0.30064,-0.444632 0.43719,-0.06243 0.21696,0.607232 0.11114,0.526102 0.0625,1.06132 -0.008,0.0829 0.0542,0.186534 0,0.249725 -0.0909,0.106007 -0.24982,0.124862 -0.37473,0.187293 -0.0208,0.208102 0.018,0.431265 -0.0625,0.624305 -0.0598,0.143476 -0.25836,0.124862 -0.37473,0.124862 -0.0208,0 -0.0772,0.01471 -0.0625,0 0.10749,-0.107449 0.65373,0.008 0.74947,0 0.4662,-0.03884 0.8925,-0.102698 1.31157,-0.312152"
       id="path6411" />
    <path
       style="fill:#000000;fill-opacity:0;stroke:#000000;stroke-width:0.7;stroke-linecap:round;stroke-linejoin:round;stroke-opacity:1"
       d="m 162.38102,86.261256 c 0.0346,1.074595 0.2954,2.120956 0.43719,3.183964 0.0276,0.207304 0.0214,0.41923 0.0625,0.624306 0.022,0.109895 0.12491,0.200081 0.12491,0.312153 0,0.103859 -0.33719,-0.237083 -0.37474,-0.312153"
       id="path6413" />
    <path
       style="fill:#000000;fill-opacity:0;stroke:#000000;stroke-width:0.7;stroke-linecap:round;stroke-linejoin:round;stroke-opacity:1"
       d="m 162.19365,89.320358 c 0.53854,-0.711541 1.29886,-0.649168 1.99859,-0.998889"
       id="path6415" />
    <path
       style="fill:#000000;fill-opacity:0;stroke:#000000;stroke-width:0.7;stroke-linecap:round;stroke-linejoin:round;stroke-opacity:1"
       d="m 164.25469,85.636951 c 0.15832,1.270788 -0.12491,2.544365 -0.12491,3.808269 0,0.314918 0.0702,0.626338 0.12491,0.936459 0.008,0.04583 0.0208,0.104058 0.0625,0.124859 0.11774,0.05884 0.0991,-0.24552 0.12491,-0.374584"
       id="path6417" />
    <path
       style="fill:#000000;fill-opacity:0;stroke:#000000;stroke-width:0.7;stroke-linecap:round;stroke-linejoin:round;stroke-opacity:1"
       d="m 166.19083,89.133068 c -0.12275,-1.186217 -0.94817,0.23387 -0.62456,0.686734 0.32924,0.460756 1.74965,-0.551223 1.81122,0.187293 0.0458,0.549182 -1.18386,2.297837 -1.62385,1.748057 -0.12808,-0.160031 -0.16655,-0.374587 -0.24983,-0.561877"
       id="path6419" />
    <path
       style="fill:#000000;fill-opacity:0;stroke:#000000;stroke-width:0.7;stroke-linecap:round;stroke-linejoin:round;stroke-opacity:1"
       d="m 164.8168,89.008206 c 0.35006,-0.786805 1.06507,-0.561878 1.74876,-0.561878"
       id="path6421" />
    <text
       xml:space="preserve"
       style="font-style:normal;font-variant:normal;font-weight:normal;font-stretch:normal;font-size:21.3333px;line-height:normal;font-family:monospace;-inkscape-font-specification:monospace;font-variant-ligatures:normal;font-variant-position:normal;font-variant-caps:normal;font-variant-numeric:normal;font-variant-alternates:normal;font-variant-east-asian:normal;font-feature-settings:normal;font-variation-settings:normal;text-indent:0;text-align:start;text-decoration-line:none;text-decoration-style:solid;text-decoration-color:#000000;letter-spacing:normal;word-spacing:normal;text-transform:none;writing-mode:lr-tb;direction:ltr;text-orientation:mixed;dominant-baseline:auto;baseline-shift:baseline;text-anchor:start;white-space:pre;shape-padding:0;shape-margin:0;inline-size:182.461;opacity:1;vector-effect:none;fill:#000000;fill-opacity:1;stroke:#00000b;stroke-width:0;stroke-linecap:round;stroke-linejoin:round;stroke-miterlimit:4;stroke-dasharray:none;stroke-dashoffset:0;stroke-opacity:1;-inkscape-stroke:none;stop-color:#000000;stop-opacity:1"
       x="654.3324"
       y="338.76855"
       id="text8163"
       transform="matrix(0.26458333,0,0,0.26458333,-2.419833,-3.0700783)"><tspan
         x="654.3324"
         y="338.76855"
         id="tspan23162">etil, dimetil </tspan><tspan
         x="654.3324"
         y="365.43518"
         id="tspan23164">metan</tspan></text>
    <path
       style="fill:#000000;fill-opacity:0;stroke:#000000;stroke-width:0.7;stroke-linecap:round;stroke-linejoin:round;stroke-opacity:1"
       d="m 148.58286,122.38921 c -0.52517,-0.27886 0.62758,-0.69507 0.4764,-1.04766 -0.48329,-1.12722 -1.95347,0.34741 -2.19145,0.85718 -0.34569,0.74045 -0.25448,1.49133 0.0953,2.19057 0.24416,0.48814 0.33272,0.65863 0.9528,0.76193 0.48596,0.081 2.06429,-0.85718 1.61978,-0.85718"
       id="path21373" />
    <path
       style="fill:#000000;fill-opacity:0;stroke:#000000;stroke-width:0.7;stroke-linecap:round;stroke-linejoin:round;stroke-opacity:1"
       d="m 151.72712,123.05591 c -0.40777,-0.086 2.39986,0 2.0009,0"
       id="path21375" />
    <path
       style="fill:#000000;fill-opacity:0;stroke:#000000;stroke-width:0.7;stroke-linecap:round;stroke-linejoin:round;stroke-opacity:1"
       d="m 141.81792,123.15115 c 0.77723,-0.56915 1.29027,0 2.09618,0"
       id="path21377" />
    <path
       style="fill:#000000;fill-opacity:0;stroke:#000000;stroke-width:0.7;stroke-linecap:round;stroke-linejoin:round;stroke-opacity:1"
       d="m 148.58286,127.24656 c -0.0179,0.22304 0.004,2.24012 0.0953,2.28582 0.0635,0.0318 0.12704,-0.0635 0.19056,-0.0952"
       id="path21379" />
    <path
       style="fill:#000000;fill-opacity:0;stroke:#000000;stroke-width:0.7;stroke-linecap:round;stroke-linejoin:round;stroke-opacity:1"
       d="m 148.29701,116.65406 c -0.009,0.4616 -0.40364,2.53777 -0.19055,2.85727 0.0498,0.0747 0.19055,-0.10067 0.19055,-0.19049"
       id="path21381" />
    <path
       style="fill:#000000;fill-opacity:0;stroke:#0000fe;stroke-width:0.7;stroke-linecap:round;stroke-linejoin:round;stroke-opacity:0.498039"
       d="m 140.76984,120.28564 0.38112,6.00026 4.28764,0.0952 0.0953,4.00017 6.00267,-0.19049 -0.19057,-4.47638 3.90652,-0.19048 -0.19058,-4.9526 -3.33482,-0.0952 -0.0953,-4.76211 h -6.38379 l 0.0953,4.57163 z"
       id="path21389"
       sodipodi:nodetypes="ccccccccccccc" />
    <text
       xml:space="preserve"
       style="font-style:normal;font-variant:normal;font-weight:normal;font-stretch:normal;font-size:21.3333px;line-height:normal;font-family:monospace;-inkscape-font-specification:monospace;font-variant-ligatures:normal;font-variant-position:normal;font-variant-caps:normal;font-variant-numeric:normal;font-variant-alternates:normal;font-variant-east-asian:normal;font-feature-settings:normal;font-variation-settings:normal;text-indent:0;text-align:start;text-decoration-line:none;text-decoration-style:solid;text-decoration-color:#000000;letter-spacing:normal;word-spacing:normal;text-transform:none;writing-mode:lr-tb;direction:ltr;text-orientation:mixed;dominant-baseline:auto;baseline-shift:baseline;text-anchor:start;white-space:pre;shape-padding:0;shape-margin:0;inline-size:182.461;opacity:1;vector-effect:none;fill:#000000;fill-opacity:1;stroke:#00000b;stroke-width:0;stroke-linecap:round;stroke-linejoin:round;stroke-miterlimit:4;stroke-dasharray:none;stroke-dashoffset:0;stroke-opacity:1;-inkscape-stroke:none;stop-color:#000000;stop-opacity:1"
       x="654.3324"
       y="338.76855"
       id="text21427"
       transform="matrix(0.26458333,0,0,0.26458333,-5.5948332,32.189345)"><tspan
         x="654.3324"
         y="338.76855"
         id="tspan23166">tetraklor </tspan><tspan
         x="654.3324"
         y="365.43518"
         id="tspan23168">metan</tspan></text>
    <path
       style="fill:#000000;fill-opacity:0;stroke:#000000;stroke-width:0.7;stroke-linecap:round;stroke-linejoin:round;stroke-opacity:1"
       d="m 148.41187,112.24018 c -0.18614,-0.18607 -0.35064,-0.39666 -0.55842,-0.5582 -0.47162,-0.36667 -1.24911,0.11269 -1.30299,0.65123 -0.0392,0.39238 0.28961,2.69795 0.83764,2.69795 0.41814,0 0.92623,-0.31453 1.30298,-0.46517"
       id="path22104" />
    <path
       style="fill:#000000;fill-opacity:0;stroke:#000000;stroke-width:0.7;stroke-linecap:round;stroke-linejoin:round;stroke-opacity:1"
       d="m 149.62178,114.47296 c 0.21717,-0.37213 0.50551,-0.71102 0.6515,-1.11639 0.1617,-0.449 0.45393,-2.34865 0.18614,-2.88402 -0.0139,-0.0277 0.006,0.0626 0,0.093 -0.16831,0.84122 -0.0931,-0.16375 -0.0931,1.30246 0,0.88496 0.0214,1.83891 0.27921,2.69795 0.0186,0.0618 0.37228,0.53526 0.37228,0.18607"
       id="path22106" />
    <path
       style="fill:#000000;fill-opacity:0;stroke:#000000;stroke-width:0.7;stroke-linecap:round;stroke-linejoin:round;stroke-opacity:1"
       d="m 158.2523,121.63648 c -0.67716,-0.33844 -0.53919,-0.49592 -1.02377,0.27911 -0.37069,0.59286 -0.60546,1.06241 -0.55842,1.76762 0.0413,0.61958 0.89871,1.67459 1.58219,1.67459 0.12957,0 0.50503,-0.41179 0.55843,-0.46517"
       id="path22108" />
    <path
       style="fill:#000000;fill-opacity:0;stroke:#000000;stroke-width:0.7;stroke-linecap:round;stroke-linejoin:round;stroke-opacity:1"
       d="m 160.39292,124.14837 c 0.52242,-0.7632 0.6749,-1.69965 0.74456,-2.60492 0.0119,-0.1546 0,-0.31011 0,-0.46517 0,-0.093 0.093,-0.27909 0,-0.27909 -0.13869,0 -0.13742,0.24227 -0.18613,0.37213 -0.29837,0.79534 -0.38115,1.57416 -0.18614,2.41885 0.0441,0.19111 0.11724,0.37456 0.18614,0.5582 0.0393,0.1047 0.18613,0.16727 0.18613,0.2791 0,0.031 -0.062,0 -0.0931,0"
       id="path22114" />
    <path
       style="fill:#000000;fill-opacity:0;stroke:#000000;stroke-width:0.7;stroke-linecap:round;stroke-linejoin:round;stroke-opacity:1"
       d="m 148.97029,131.40492 c -0.12409,-0.18606 -0.1826,-0.43969 -0.37228,-0.55819 -0.23598,-0.14743 -0.43368,0.18212 -0.55842,0.2791 -0.96475,0.75006 -1.5822,1.36749 -1.5822,2.69795 0,0.30854 0.0572,0.65123 0.46535,0.65123 0.23373,0 1.03964,-0.28439 1.30299,-0.37213"
       id="path22116" />
    <path
       style="fill:#000000;fill-opacity:0;stroke:#000000;stroke-width:0.7;stroke-linecap:round;stroke-linejoin:round;stroke-opacity:1"
       d="m 149.80793,133.63771 c 1.02193,-0.12963 1.19204,-1.41705 1.39605,-2.23279 0.0915,-0.36599 0.16398,-0.73977 0.18614,-1.11639 0.0122,-0.20768 -0.17596,-0.73881 -0.27921,-0.55819 -0.19845,0.34716 -0.27921,1.59826 -0.27921,1.86066 0,0.41144 0.20966,2.21988 0.27921,2.51188 0.0887,0.37219 0.52155,1.22497 1.02378,0.65123 0.19339,-0.22094 0.25337,-1.09582 0.27921,-1.30246"
       id="path22118" />
    <path
       style="fill:#000000;fill-opacity:0;stroke:#000000;stroke-width:0.7;stroke-linecap:round;stroke-linejoin:round;stroke-opacity:1"
       d="m 136.68499,121.35739 c -0.18614,-0.12405 -0.33733,-0.33813 -0.55842,-0.37213 -0.22322,-0.0343 -0.443,0.0992 -0.65149,0.18606 -0.71909,0.2995 -0.87708,0.97804 -1.02378,1.67459 -0.38506,1.82832 -0.33142,3.04969 1.86141,1.95369 0.27921,0.12404 0.55287,0.48283 0.83764,0.37213 1.14257,-0.44415 1.16805,-2.49808 1.30298,-3.44221 0.0354,-0.2475 0.0739,-0.49498 0.0931,-0.74426 0.0145,-0.18808 -0.062,-0.74427 -0.0931,-0.5582 -0.11493,0.68933 -0.0575,1.61398 -0.0931,2.32582 -0.0288,0.57557 -0.16785,1.44874 -0.0931,2.04672 0.0835,0.66767 0.32662,0.7899 0.74457,0.37213"
       id="path22120" />
  </g>
</svg>
