<?xml version="1.0" encoding="UTF-8" standalone="no"?>
<!-- Created with Inkscape (http://www.inkscape.org/) -->

<svg
   width="120.32499mm"
   height="59.083107mm"
   viewBox="0 0 120.32499 59.083107"
   version="1.1"
   id="svg83760"
   inkscape:version="1.2.2 (b0a8486541, 2022-12-01)"
   sodipodi:docname="sikloalkanlar.svg"
   xmlns:inkscape="http://www.inkscape.org/namespaces/inkscape"
   xmlns:sodipodi="http://sodipodi.sourceforge.net/DTD/sodipodi-0.dtd"
   xmlns="http://www.w3.org/2000/svg"
   xmlns:svg="http://www.w3.org/2000/svg">
  <sodipodi:namedview
     id="namedview83762"
     pagecolor="#ffffff"
     bordercolor="#000000"
     borderopacity="0.25"
     inkscape:showpageshadow="2"
     inkscape:pageopacity="0.0"
     inkscape:pagecheckerboard="0"
     inkscape:deskcolor="#d1d1d1"
     inkscape:document-units="mm"
     showgrid="true"
     inkscape:zoom="1.4644967"
     inkscape:cx="185.04651"
     inkscape:cy="100.03437"
     inkscape:window-width="1916"
     inkscape:window-height="1029"
     inkscape:window-x="0"
     inkscape:window-y="49"
     inkscape:window-maximized="1"
     inkscape:current-layer="layer1">
    <inkscape:grid
       type="xygrid"
       id="grid83881"
       units="mm"
       spacingx="5"
       spacingy="5"
       empspacing="1"
       originx="-35.42225"
       originy="-12.883584" />
  </sodipodi:namedview>
  <defs
     id="defs83757" />
  <g
     inkscape:label="Layer 1"
     inkscape:groupmode="layer"
     id="layer1"
     transform="translate(-35.42225,-12.883584)">
    <path
       style="fill:#000000;fill-opacity:0;stroke:#000000;stroke-width:0.7;stroke-linecap:round;stroke-linejoin:round"
       d="m 36.050371,23.413503 c -0.162525,0.974765 0.02021,-0.17506 -0.200268,1.734948 -0.02225,0.133457 -0.0445,0.266915 -0.06676,0.400372 0.02225,0.04449 0.06676,0.08372 0.06676,0.133457 0,0.03146 -0.06158,-0.03569 -0.06676,-0.06673 -0.01828,-0.1097 -0.0085,-0.222756 0,-0.333643 0.05273,-0.685235 0.290094,-1.435282 0.867825,-1.868405 0.07962,-0.05969 0.168518,-0.147523 0.267026,-0.133457 0.631195,0.09013 0.127632,2.396361 0.400531,2.66915 0.09573,0.09569 0.283006,3.96e-4 0.400537,-0.06673 0.35936,-0.205265 0.685953,-0.466049 1.001337,-0.734016 0.13241,-0.112503 0.22252,-0.266915 0.333779,-0.400372"
       id="path83885" />
    <path
       style="fill:#000000;fill-opacity:0;stroke:#000000;stroke-width:0.7;stroke-linecap:round;stroke-linejoin:round"
       d="m 40.656518,23.146588 c 0.69078,0.456595 1.489342,-0.133457 2.20294,-0.133457"
       id="path83887" />
    <path
       style="fill:#000000;fill-opacity:0;stroke:#000000;stroke-width:0.7;stroke-linecap:round;stroke-linejoin:round"
       d="m 40.723275,24.147519 c 0.684411,0.27316 1.598655,0.579475 2.336451,0.333644"
       id="path83889" />
    <path
       style="fill:#000000;fill-opacity:0;stroke:#000000;stroke-width:0.7;stroke-linecap:round;stroke-linejoin:round"
       d="m 44.72862,21.678555 c 0.212285,-0.401164 0.164547,-1.468032 0.801071,-1.468032 0.140726,0 0.318116,0.01939 0.400531,0.133457 0.672209,0.930369 0.541618,1.469275 0,2.335507 -0.07552,0.120781 -0.166277,0.232939 -0.267023,0.333644 -0.05673,0.05671 -0.200263,0.05324 -0.200263,0.133457 0,0.01166 0.376865,0.09928 0.667557,0.266915 0.899809,0.51891 2.176669,1.000537 1.001334,2.068592 -0.857959,0.779648 -1.839462,1.108445 -3.070764,0.800744 -0.584878,-0.14616 -0.237956,-1.308724 -0.200266,-1.53476"
       id="path83893" />
    <path
       style="fill:#000000;fill-opacity:0;stroke:#000000;stroke-width:0.7;stroke-linecap:round;stroke-linejoin:round"
       d="m 62.952947,14.40512 c -0.04869,-0.146022 -0.115848,-0.600558 -0.400537,-0.600558 -0.523544,0 -0.956064,0.477014 -1.26836,0.800745 -0.851117,0.882282 -1.976641,2.005985 -1.73565,3.403165 0.173931,1.008394 1.453242,1.116282 2.202944,0.800747 0.173993,-0.07323 0.26702,-0.266915 0.400532,-0.400373"
       id="path83895" />
    <path
       style="fill:#000000;fill-opacity:0;stroke:#000000;stroke-width:0.7;stroke-linecap:round;stroke-linejoin:round"
       d="m 65.022377,14.138206 c 0.119367,1.218677 0.07424,2.452334 0.200263,3.670081 0.03652,0.352814 0.224507,1.000932 0.133514,1.000932 -0.110553,0 -0.198019,-0.589324 -0.200268,-0.60056"
       id="path83897" />
    <path
       style="fill:#000000;fill-opacity:0;stroke:#000000;stroke-width:0.7;stroke-linecap:round;stroke-linejoin:round"
       d="m 64.688595,16.673899 c 1.087874,0.186621 2.176462,0.08185 3.137524,-0.467103"
       id="path83899" />
    <path
       style="fill:#000000;fill-opacity:0;stroke:#000000;stroke-width:0.7;stroke-linecap:round;stroke-linejoin:round"
       d="m 67.492339,13.40419 c -0.0064,1.226641 -0.04179,2.460305 0.200266,3.670081 0.03177,0.158788 0.09422,0.310003 0.133514,0.467101 0.0054,0.02158 0.0199,0.07667 0,0.06673 -0.09513,-0.04754 -0.219839,-0.262893 -0.267025,-0.333644"
       id="path83901" />
    <path
       style="fill:#000000;fill-opacity:0;stroke:#000000;stroke-width:0.7;stroke-linecap:round;stroke-linejoin:round"
       d="m 69.428256,18.809219 c -0.482185,-0.468717 0.02233,-1.700287 0.734314,-1.067661 0.472247,0.419606 -0.131432,1.374459 -0.467291,1.668218 -0.136216,0.11914 -0.633876,0.155906 -0.467291,0.266916 0.390622,0.260306 0.648943,0.473117 1.134848,0.533831 0.226943,0.02836 0.989271,-0.145519 1.134848,0"
       id="path83903" />
    <path
       style="fill:#000000;fill-opacity:0;stroke:#000000;stroke-width:0.7;stroke-linecap:round;stroke-linejoin:round"
       d="m 60.215962,21.678555 -4.138859,6.806333"
       id="path83907" />
    <path
       style="fill:#000000;fill-opacity:0;stroke:#000000;stroke-width:0.7;stroke-linecap:round;stroke-linejoin:round"
       d="m 53.139847,30.153107 c -0.06842,-0.09575 -0.407529,-0.763887 -0.734311,-0.600562 -0.453821,0.226819 -0.869252,0.550876 -1.201605,0.934207 -0.274198,0.316254 -0.776896,1.632307 -0.867826,2.068589 -0.143909,0.690494 0.118759,1.97825 0.801071,2.335506 0.282245,0.147783 0.616165,0.210796 0.93458,0.200187 0.512969,-0.01709 1.476179,-0.341178 1.869162,-0.734018"
       id="path83911" />
    <path
       style="fill:#000000;fill-opacity:0;stroke:#000000;stroke-width:0.7;stroke-linecap:round;stroke-linejoin:round"
       d="m 54.34145,30.486752 c 0.02225,0.311398 0.05669,0.622167 0.06676,0.934201 0.0122,0.377931 -0.014,0.756518 0,1.134388 0.03015,0.813811 0.09502,0.559639 0.200268,1.401305 0.04659,0.372583 -0.05242,0.481433 -0.06675,0.4671 -0.07866,-0.07863 0,-0.222429 0,-0.333642"
       id="path83913" />
    <path
       style="fill:#000000;fill-opacity:0;stroke:#000000;stroke-width:0.7;stroke-linecap:round;stroke-linejoin:round"
       d="m 54.408207,32.221696 c 0.133511,-0.04448 0.260384,-0.120721 0.400537,-0.133456 0.112995,-0.01027 0.222144,0.04644 0.333777,0.06673 0.504322,0.09166 0.985972,0.04488 1.401868,-0.266917"
       id="path83919" />
    <path
       style="fill:#000000;fill-opacity:0;stroke:#000000;stroke-width:0.7;stroke-linecap:round;stroke-linejoin:round"
       d="m 56.611149,29.952921 c 0.0019,1.406755 0.102309,2.815661 0.33378,4.203908 0.01156,0.06938 -0.0036,0.200187 0.06675,0.200187 0.160441,0 0.257019,-0.195186 0.400532,-0.266912"
       id="path83921" />
    <path
       style="fill:#000000;fill-opacity:0;stroke:#000000;stroke-width:0.7;stroke-linecap:round;stroke-linejoin:round"
       d="m 58.28004,34.957578 c -0.301522,-0.406324 -0.210815,-0.599647 -0.06675,-1.067663 0.04139,-0.134456 0.01135,-0.330594 0.133511,-0.40037 0.104047,-0.05943 0.267295,0.03377 0.333782,0.133459 0.30734,0.460819 -0.264022,1.020714 -0.400539,1.334574 -0.137933,0.317119 -0.153141,0.994396 -0.734311,0.800745 -0.0761,-0.02537 0.124158,-0.108098 0.200265,-0.133458 0.133512,-0.04449 0.261721,-0.110334 0.400537,-0.133461 0.488709,-0.08142 0.564298,0.07273 1.001337,0.400375 0.0383,0.02871 0.219758,0.266914 0.333777,0.266914 0.0676,0 0.133514,-0.248136 0.133514,-0.06673"
       id="path83923" />
    <path
       style="fill:#000000;fill-opacity:0;stroke:#000000;stroke-width:0.7;stroke-linecap:round;stroke-linejoin:round"
       d="m 60.082448,32.154971 h 9.546076"
       id="path83927" />
    <path
       style="fill:#000000;fill-opacity:0;stroke:#000000;stroke-width:0.7;stroke-linecap:round;stroke-linejoin:round"
       d="m 74.234674,30.219832 c -0.244771,-0.17794 -0.435814,-0.484095 -0.734314,-0.533826 -0.298535,-0.04974 -0.594556,0.136837 -0.867825,0.266915 -1.312532,0.62476 -1.822593,2.6579 -1.33512,3.936994 0.330182,0.86637 1.041938,0.904624 1.802406,0.600559 0.278124,-0.111204 0.77988,-0.358013 0.934585,-0.667289"
       id="path83929" />
    <path
       style="fill:#000000;fill-opacity:0;stroke:#000000;stroke-width:0.7;stroke-linecap:round;stroke-linejoin:round"
       d="m 75.770056,29.819462 c -0.212783,1.205339 -0.453964,2.575287 -0.400536,3.803542 0.0046,0.104375 0.109077,0.564824 0.06676,0.734012 -0.0054,0.02159 -0.04565,-0.007 -0.06676,0 -0.0472,0.01574 -0.09832,0.101904 -0.133509,0.06673 -0.174839,-0.174762 -0.133519,-0.457223 -0.133519,-0.667287"
       id="path83931" />
    <path
       style="fill:#000000;fill-opacity:0;stroke:#000000;stroke-width:0.7;stroke-linecap:round;stroke-linejoin:round"
       d="m 75.035742,33.022442 c 1.025732,-0.538983 1.618652,-0.05811 2.336449,-1.134388"
       id="path83933" />
    <path
       style="fill:#000000;fill-opacity:0;stroke:#000000;stroke-width:0.7;stroke-linecap:round;stroke-linejoin:round"
       d="m 77.43895,29.352361 c -0.208002,1.216705 -0.267028,2.437122 -0.267028,3.670081 0,0.200186 0,0.400372 0,0.600562 0,0.111212 0.09948,0.283924 0,0.333642 -0.22411,0.112008 -0.165028,-0.635778 0.06676,-0.867474"
       id="path83935" />
    <path
       style="fill:#000000;fill-opacity:0;stroke:#000000;stroke-width:0.7;stroke-linecap:round;stroke-linejoin:round"
       d="m 77.906239,34.557205 c -0.02225,0.133456 -0.0445,0.266914 -0.06675,0.400373 0.02225,0.02225 0.06675,0.03527 0.06675,0.06673 0,0.02225 -0.06675,0.02225 -0.06675,0 0,-0.157285 0.02463,-0.315564 0.06675,-0.467101 0.101208,-0.364204 0.329247,-0.92665 0.534045,-1.267846 0.03982,-0.06635 0.179118,-0.242459 0.26702,-0.06673 0.227045,0.453898 -0.08461,1.574234 -0.400528,1.935133 -0.244415,0.279213 -0.238292,0.20737 -0.534049,0.133462 -0.177588,-0.04438 -0.333777,-0.09171 -0.333777,-0.06673 0,0.548412 0.746967,0.785529 1.134846,1.000932 0.113419,0.06299 0.204041,0.200186 0.333777,0.200186 0.07034,0 0.04824,-0.132326 0.06676,-0.200186 0.04828,-0.176956 0.08901,-0.355888 0.133508,-0.533831"
       id="path83937" />
    <path
       style="fill:#000000;fill-opacity:0;stroke:#000000;stroke-width:0.7;stroke-linecap:round;stroke-linejoin:round"
       d="m 69.161231,21.545096 3.738321,6.405961"
       id="path83939" />
    <path
       sodipodi:type="star"
       style="fill:#000000;fill-opacity:0;stroke:#000000;stroke-width:0.888655;stroke-linecap:round;stroke-linejoin:round;stroke-dasharray:none"
       id="path83993"
       inkscape:flatsided="true"
       sodipodi:sides="3"
       sodipodi:cx="62.426884"
       sodipodi:cy="51.05315"
       sodipodi:r1="16.925934"
       sodipodi:r2="16.925934"
       sodipodi:arg1="0.52359878"
       sodipodi:arg2="1.5707963"
       inkscape:rounded="0"
       inkscape:randomized="0"
       d="m 77.085172,59.516117 -29.316577,0 14.658289,-25.388901 z"
       inkscape:transform-center-y="-3.3331693"
       transform="matrix(0.78770693,0,0,0.78770693,51.255706,-13.648696)" />
    <path
       style="fill:#000000;fill-opacity:0;stroke:#000000;stroke-width:0.7;stroke-linecap:round;stroke-linejoin:round;stroke-dasharray:none"
       d="m 118.87563,21.137096 c -0.18996,-0.162759 -0.34612,-0.376441 -0.56988,-0.488276 -0.37072,-0.185289 -1.0961,0.199312 -1.30259,0.488276 -0.0966,0.13526 0.10769,0.514544 0.16282,0.569652 0.57216,0.571938 2.19813,0.625081 2.19813,1.5462 0,0.121324 -0.0681,0.249747 -0.16283,0.325519 -0.90585,0.724383 -2.39814,0.466933 -3.4193,0.40689 -0.38023,-0.02236 -0.76121,-0.03933 -1.13977,-0.08138 -0.1112,-0.01235 -0.43179,-0.116749 -0.32564,-0.08138 0.86865,0.289431 0.56004,0.307633 1.13976,0.162757"
       id="path84358" />
    <path
       style="fill:#000000;fill-opacity:0;stroke:#000000;stroke-width:0.7;stroke-linecap:round;stroke-linejoin:round;stroke-dasharray:none"
       d="m 121.48082,22.276401 c -0.39442,-4.694172 0.0465,-0.495484 0,0 -0.0397,0.423163 -0.61652,1.185509 -0.40706,1.708956 0.12278,0.306832 0.53006,-0.10021 0.56988,-0.162757 0.13031,-0.204685 0.2171,-0.434019 0.32565,-0.651028"
       id="path84360" />
    <path
       style="fill:#000000;fill-opacity:0;stroke:#000000;stroke-width:0.7;stroke-linecap:round;stroke-linejoin:round;stroke-dasharray:none"
       d="m 121.23658,19.265377 c -0.24585,-0.634402 -0.52455,-0.425421 -0.65129,0.08138"
       id="path84364" />
    <path
       style="fill:#000000;fill-opacity:0;stroke:#000000;stroke-width:0.7;stroke-linecap:round;stroke-linejoin:round;stroke-dasharray:none"
       d="m 122.29494,23.334329 c 0.48947,-1.957109 0.34358,-1.266985 0.7327,-5.045499 0.0389,-0.377771 0,-0.759538 0,-1.139307 0,-0.108506 -0.0767,-0.248809 0,-0.325517 0.0607,-0.06065 0.0628,0.160398 0.0814,0.244138 0.25157,1.131578 0.32564,1.476494 0.32564,2.68551 0,1.406106 -0.12712,2.418103 -0.0814,3.743432 0.0131,0.38051 0.059,0.759226 0.0814,1.139304 0.005,0.08124 0.0814,0.244139 0,0.244139 -0.17561,0 0,-0.93065 0,-1.302062"
       id="path84366" />
    <path
       style="fill:#000000;fill-opacity:0;stroke:#000000;stroke-width:0.7;stroke-linecap:round;stroke-linejoin:round;stroke-dasharray:none"
       d="m 124.90012,20.892958 c -1.03308,0.929387 -1.62632,1.329252 -2.19812,2.929642 -0.0646,0.1807 0.37916,0.102563 0.56988,0.08138 0.30751,-0.03415 0.59952,-0.154084 0.89553,-0.244138 0.19777,-0.06017 1.16413,-0.482507 1.384,-0.325514 0.59395,0.424077 -0.64111,2.630939 0.0814,1.383443 0.62466,-1.078514 0.46349,-0.763802 0.7327,-1.302067"
       id="path84368" />
    <path
       style="fill:#000000;fill-opacity:0;stroke:#000000;stroke-width:0.7;stroke-linecap:round;stroke-linejoin:round;stroke-dasharray:none"
       d="m 127.26107,22.927434 c 0.0271,-1.057927 0.0285,-2.116827 0.0814,-3.17378 0.0286,-0.571519 0.10586,-1.139571 0.16282,-1.708962 0.0245,-0.24442 0.0592,-0.487779 0.0814,-0.73241 0.005,-0.05403 0,-0.217012 0,-0.162759 0,2.29755 -0.43567,4.620841 -0.24423,6.917215 0.0309,0.370899 0.21342,0.63285 0.56988,0.244138 0.48412,-0.527918 0.49617,-0.844605 0.6513,-1.464823"
       id="path84370" />
    <path
       style="fill:#000000;fill-opacity:0;stroke:#000000;stroke-width:0.7;stroke-linecap:round;stroke-linejoin:round;stroke-dasharray:none"
       d="m 128.8893,22.276401 c 0.2275,0.909615 0.183,1.615335 1.46542,1.871718 0.22885,0.04575 0.29783,-0.363411 0.40706,-0.569652 0.44709,-0.84416 0.64633,-2.001237 0.0814,-2.848266 -0.11758,-0.176302 -0.28067,-0.365351 -0.48847,-0.406895 -1.11379,-0.222668 -1.32068,1.287576 -1.46542,1.953095 -0.0465,0.213705 -0.13708,0.439538 -0.0814,0.651033 0.12833,0.487471 0.75413,1.49597 1.46541,1.302061 0.57286,-0.156171 0.97302,-1.293991 0.81412,-1.790337 -0.14469,-0.451974 -0.40883,-0.873816 -0.73271,-1.220686 -0.31592,-0.338348 -0.74718,0.296601 -0.56988,0.651033"
       id="path84372" />
    <path
       style="fill:#000000;fill-opacity:0;stroke:#000000;stroke-width:0.7;stroke-linecap:round;stroke-linejoin:round;stroke-dasharray:none"
       d="m 132.71567,20.567444 c -0.0253,1.595492 0.14643,4.313612 -0.24424,6.266179 -0.008,0.03763 -0.0709,0.118274 -0.0814,0.08138 -0.10496,-0.367237 -0.0814,-0.842325 -0.0814,-1.220685"
       id="path84374" />
    <path
       style="fill:#000000;fill-opacity:0;stroke:#000000;stroke-width:0.7;stroke-linecap:round;stroke-linejoin:round;stroke-dasharray:none"
       d="m 132.55285,21.218472 c 0.70557,-0.189884 1.39103,-0.654992 2.11671,-0.569652 0.36648,0.0431 0.46138,0.578783 0.65129,0.895171 1.29227,2.152928 -1.78159,1.656286 -2.93084,1.464819 -0.0268,-0.0045 0.0543,0 0.0814,0 0.2235,0 0.11427,0.02426 0.32564,-0.08138"
       id="path84376" />
    <path
       style="fill:#000000;fill-opacity:0;stroke:#000000;stroke-width:0.7;stroke-linecap:round;stroke-linejoin:round;stroke-dasharray:none"
       d="m 136.55355,21.543991 c 0.2171,0.813789 0.45278,1.622845 0.65129,2.441366 0.0192,0.07909 0.0364,0.171355 0,0.244138 -0.084,0.167953 -0.31188,-0.534658 -0.40706,-1.057923 -0.0757,-0.416263 -0.319,-1.436581 -0.24423,-1.627581 0.34941,-0.892584 1.11101,-0.664277 1.70965,-0.488276 0.19827,0.05829 0.3653,0.214924 0.56988,0.244138 0.18996,0.02713 0.37993,-0.05425 0.56989,-0.08138"
       id="path84378" />
    <path
       style="fill:#000000;fill-opacity:0;stroke:#000000;stroke-width:0.7;stroke-linecap:round;stroke-linejoin:round;stroke-dasharray:none"
       d="m 141.92674,23.659843 c 1.54553,-0.05873 0.10828,-2.929642 -0.89553,-2.929642 -0.50326,0 -0.91666,1.410308 -0.89554,1.790338 0.0527,0.948547 1.01101,2.046309 2.0353,1.790337 1.04345,-0.260759 0.50586,-2.956079 -0.24423,-3.092404 -0.88782,-0.161358 -1.44363,0.306034 -1.30259,1.057929 0.0447,0.238485 0.21709,0.434022 0.32564,0.651033"
       id="path84380" />
    <path
       style="fill:#000000;fill-opacity:0;stroke:#000000;stroke-width:0.7;stroke-linecap:round;stroke-linejoin:round;stroke-dasharray:none"
       d="m 144.3691,20.730201 c -0.0655,2.657917 -0.39402,5.33823 -0.56988,7.97514 -0.006,0.0856 0.0868,-0.158519 0.0814,-0.244136 -0.0375,-0.599281 -0.12087,-0.890225 -0.24424,-1.383443"
       id="path84382" />
    <path
       style="fill:#000000;fill-opacity:0;stroke:#000000;stroke-width:0.7;stroke-linecap:round;stroke-linejoin:round;stroke-dasharray:none"
       d="m 143.47357,22.439158 c 0.16282,-0.189885 0.31823,-0.386389 0.48847,-0.569653 0.1828,-0.196784 0.30324,-0.601959 0.56988,-0.569652 1.01868,0.123425 2.39263,0.379655 2.19813,1.5462 -0.14185,0.850765 -2.99587,0.504566 -3.58213,0.406895 -0.0268,-0.0045 0.0551,-0.0066 0.0814,0 0.0832,0.0208 0.16282,0.05425 0.24424,0.08138"
       id="path84384" />
    <path
       style="fill:#000000;fill-opacity:0;stroke:#000000;stroke-width:0.7;stroke-linecap:round;stroke-linejoin:round;stroke-dasharray:none"
       d="m 146.97429,23.578467 c 0.59701,-0.162759 1.27307,-0.149728 1.79105,-0.488276 0.26579,-0.173715 0.25525,-0.585553 0.32565,-0.895171 0.0664,-0.292165 0.1238,-0.59856 0.0814,-0.895167 -0.0644,-0.450613 -0.61835,-1.693036 -1.30259,-1.057928 -0.27046,0.251038 -0.46967,0.573955 -0.6513,0.895171 -0.17358,0.306985 -0.318,0.635313 -0.40706,0.976547 -0.11973,0.458812 -0.18594,1.062554 0.16284,1.464824 0.22762,0.262535 0.46877,0.612672 0.81411,0.651028 0.53424,0.05934 1.42621,-1.561231 1.54682,-1.953094 0.091,-0.29561 0.19337,-0.590086 0.24424,-0.895172 0.0315,-0.189201 -0.006,-0.745945 -0.0814,-0.569652 -0.2131,0.497018 -0.35823,1.594682 -0.32565,2.115857 0.008,0.121156 0.1186,0.7432 0.32565,0.406895 0.19081,-0.309941 0.32565,-0.651032 0.48847,-0.976548"
       id="path84386" />
    <path
       style="fill:#000000;fill-opacity:0;stroke:#000000;stroke-width:0.7;stroke-linecap:round;stroke-linejoin:round;stroke-dasharray:none"
       d="m 150.80064,21.788124 c 0.51992,1.559173 -0.3438,-1.166739 0.32565,2.848266 0.024,0.144099 0.12159,-0.266748 0.16283,-0.406895 0.0947,-0.321897 0.15999,-0.651752 0.24423,-0.976547 0.0859,-0.331131 0.81253,-3.272071 1.46542,-3.011023 0.33129,0.132463 0.14661,0.701502 0.16282,1.057928 0.0312,0.685252 0.0778,1.838806 0.6513,2.35999 0.44633,0.405596 1.29969,0.230316 1.54682,-0.325514 0.0551,-0.123934 0,-0.271263 0,-0.406895"
       id="path84388" />
    <path
       style="fill:#000000;fill-opacity:0;stroke:#000000;stroke-width:0.7;stroke-linecap:round;stroke-linejoin:round;stroke-dasharray:none"
       d="m 37.352726,56.707627 c 0.140303,0.806413 0.280604,1.612826 0.420907,2.419239 -0.09556,-0.0021 -0.37207,-0.09764 -0.315682,-0.210368 0.336688,-0.673089 0.512892,-1.50432 0.841814,-2.208871 0.121928,-0.261168 0.493535,-0.962951 0.947042,-0.736288 0.779592,0.389639 0.888706,3.081586 1.473173,3.471079 0.231984,0.154596 1.002279,-0.160401 1.157494,-0.315552 0.116316,-0.116271 0.105228,-0.278207 0.105228,-0.420735"
       id="path84390" />
    <path
       style="fill:#000000;fill-opacity:0;stroke:#000000;stroke-width:0.7;stroke-linecap:round;stroke-linejoin:round;stroke-dasharray:none"
       d="m 45.87609,56.286892 c 0.03508,0.07012 0.148728,0.145137 0.105228,0.210367 -0.161737,0.242508 -1.690823,0.226318 -1.788853,0.210368 -0.857089,1.554612 -0.622408,1.167722 0.420904,1.051843 0.174307,-0.01936 0.351829,0.01936 0.526136,0 0.348516,-0.03871 0.736587,-0.182111 0.736587,-0.105181 0,0.238933 -0.383247,-0.08636 -0.420908,-0.105186"
       id="path84392" />
    <path
       style="fill:#000000;fill-opacity:0;stroke:#000000;stroke-width:0.7;stroke-linecap:round;stroke-linejoin:round;stroke-dasharray:none"
       d="m 48.40153,55.129864 c -0.350755,0.4558 -0.776774,0.862533 -1.052266,1.367395 -0.17481,0.320361 -0.408334,1.371584 0.210455,1.577764 0.353647,0.117835 0.635447,-0.106545 0.947041,-0.210368 0.364176,-0.121343 0.736582,-0.0806 0.736582,-0.52592"
       id="path84394" />
    <path
       style="fill:#000000;fill-opacity:0;stroke:#000000;stroke-width:0.7;stroke-linecap:round;stroke-linejoin:round;stroke-dasharray:none"
       d="m 49.769476,56.707627 c -0.175379,0.73629 -0.377637,1.466691 -0.526134,2.208871 -0.17708,0.885047 0.441346,0.335971 0.105233,0"
       id="path84396" />
    <path
       style="fill:#000000;fill-opacity:0;stroke:#000000;stroke-width:0.7;stroke-linecap:round;stroke-linejoin:round;stroke-dasharray:none"
       d="m 56.9249,46.580734 c -0.09922,-0.495879 -0.03331,-1.076687 -0.947042,-0.315553 -0.240972,0.200729 -0.288234,0.557295 -0.420907,0.841476 -0.444542,0.952201 -0.806098,2.480754 0.631359,2.839971 0.443177,0.110749 1.473174,-0.01439 1.473174,-0.631103"
       id="path84398" />
    <path
       style="fill:#000000;fill-opacity:0;stroke:#000000;stroke-width:0.7;stroke-linecap:round;stroke-linejoin:round;stroke-dasharray:none"
       d="m 58.71375,46.370366 c 0.07015,1.367396 0.140304,2.734789 0.210455,4.102182 -0.390731,-1.582663 -0.09462,1.041395 0.105228,0.841476 0.03506,-0.03508 -0.08954,-0.05814 -0.105228,-0.105188 -0.05656,-0.1696 -0.09037,-0.347758 -0.105225,-0.52592 -0.02331,-0.279522 0,-0.56098 0,-0.84147"
       id="path84400" />
    <path
       style="fill:#000000;fill-opacity:0;stroke:#000000;stroke-width:0.7;stroke-linecap:round;stroke-linejoin:round;stroke-dasharray:none"
       d="m 58.924205,48.999973 c 0.269219,-0.347253 0.810945,0.278384 1.157494,0.10518 0.177448,-0.08869 0.315682,-0.668534 0.315682,-0.841468"
       id="path84402" />
    <path
       style="fill:#000000;fill-opacity:0;stroke:#000000;stroke-width:0.7;stroke-linecap:round;stroke-linejoin:round;stroke-dasharray:none"
       d="m 60.923513,45.423714 c -0.227962,3.645834 -0.210457,2.241735 -0.210457,4.207359 0,0.105185 0.03327,0.21577 0,0.315555 -0.01236,0.03705 -0.5412,0 -0.631357,0"
       id="path84404" />
    <path
       style="fill:#000000;fill-opacity:0;stroke:#000000;stroke-width:0.7;stroke-linecap:round;stroke-linejoin:round;stroke-dasharray:none"
       d="m 62.291462,50.998469 c -0.105228,-0.245431 -0.267893,-0.473562 -0.315682,-0.736288 -0.02941,-0.161698 0.192042,-0.936662 0.526132,-0.736288 0.581358,0.348676 0.665882,1.216745 0.420907,1.788131 -0.2027,0.472784 -1.052264,0.528775 -1.052264,0.52592 0,-0.112601 1.279779,-0.396576 1.473173,-0.42074 0.139219,-0.01741 0.295405,0.06272 0.420907,0 0.06273,-0.03135 0,-0.140245 0,-0.210368"
       id="path84406" />
    <path
       style="fill:#000000;fill-opacity:0;stroke:#000000;stroke-width:0.7;stroke-linecap:round;stroke-linejoin:round;stroke-dasharray:none"
       d="m 65.237809,47.527389 h 6.418834"
       id="path84410" />
    <path
       style="fill:#000000;fill-opacity:0;stroke:#000000;stroke-width:0.7;stroke-linecap:round;stroke-linejoin:round;stroke-dasharray:none"
       d="m 76.181388,46.896289 c 0.359691,-2.142635 -0.936821,-0.157268 -1.157491,0.210368 -0.3112,0.518454 -0.595424,0.978045 -0.736589,1.577761 -0.07753,0.329361 -0.242118,1.230561 0.105224,1.577763 0.529617,0.529402 3.05158,-0.164719 3.05158,-1.051841"
       id="path84412" />
    <path
       style="fill:#000000;fill-opacity:0;stroke:#000000;stroke-width:0.7;stroke-linecap:round;stroke-linejoin:round;stroke-dasharray:none"
       d="m 78.706828,45.739261 c 0.800264,1.244148 -0.105225,5.814729 -0.105225,3.365892 0.385833,-0.245429 0.753982,-0.521167 1.157498,-0.736288 0.127613,-0.06803 0.295328,-0.03345 0.420901,-0.10518 0.442397,-0.252696 0.699697,-0.955317 0.947041,-1.367396"
       id="path84414" />
    <path
       style="fill:#000000;fill-opacity:0;stroke:#000000;stroke-width:0.7;stroke-linecap:round;stroke-linejoin:round;stroke-dasharray:none"
       d="m 81.653181,44.161498 c -0.03508,1.437518 -0.07327,2.874962 -0.105231,4.312555 -0.0031,0.140208 0,0.280487 0,0.420732 0,0.03506 0,0.14025 0,0.105188 0,-0.242306 -0.155905,-0.264893 0,-0.420741"
       id="path84416" />
    <path
       style="fill:#000000;fill-opacity:0;stroke:#000000;stroke-width:0.7;stroke-linecap:round;stroke-linejoin:round;stroke-dasharray:none"
       d="m 83.336806,49.841446 c -0.983668,-0.145278 0.147151,-1.346441 0.526132,-1.157028 0.360789,0.180321 0.284239,0.954084 0,1.157028 -0.142729,0.101909 -0.424169,-0.14269 -0.526132,0 -0.142692,0.199689 0.05955,0.498194 0,0.73629 -0.05324,0.212857 -0.563097,0.02273 -0.315682,0.10518 0.154522,0.05149 1.621954,0.253899 1.262721,-0.10518"
       id="path84418" />
    <path
       style="fill:#000000;fill-opacity:0;stroke:#000000;stroke-width:0.7;stroke-linecap:round;stroke-linejoin:round;stroke-dasharray:none"
       d="M 58.71375,52.996967 58.608523,63.005322"
       id="path84424"
       sodipodi:nodetypes="cc" />
    <path
       style="fill:#000000;fill-opacity:0;stroke:#000000;stroke-width:0.7;stroke-linecap:round;stroke-linejoin:round;stroke-dasharray:none"
       d="m 57.556259,66.776091 c -0.315362,-2.886839 -2.523487,0.113025 -2.209766,1.367396 0.206264,0.824706 1.219219,2.385584 2.314991,1.788128 0.505558,-0.275648 0.949759,-1.003334 1.262721,-1.472575"
       id="path84428" />
    <path
       style="fill:#000000;fill-opacity:0;stroke:#000000;stroke-width:0.7;stroke-linecap:round;stroke-linejoin:round;stroke-dasharray:none"
       d="m 59.871247,64.777593 c -0.255305,9.290481 0.61723,5.72865 0.105225,3.681447"
       id="path84430" />
    <path
       style="fill:#000000;fill-opacity:0;stroke:#000000;stroke-width:0.7;stroke-linecap:round;stroke-linejoin:round;stroke-dasharray:none"
       d="m 59.766022,67.827932 c 0.746546,-0.492665 2.316821,-0.214038 2.73589,-1.051841"
       id="path84432" />
    <path
       style="fill:#000000;fill-opacity:0;stroke:#000000;stroke-width:0.7;stroke-linecap:round;stroke-linejoin:round;stroke-dasharray:none"
       d="m 62.186237,64.672408 c 0.339384,2.035516 -0.03115,-0.330706 0.315675,4.522919 0.01275,0.178327 0.105224,0.347139 0.105224,0.525921 0,0.0496 -0.08304,-0.06083 -0.105224,-0.105186 -0.0992,-0.198329 -0.140301,-0.420735 -0.21045,-0.631102"
       id="path84434" />
    <path
       style="fill:#000000;fill-opacity:0;stroke:#000000;stroke-width:0.7;stroke-linecap:round;stroke-linejoin:round;stroke-dasharray:none"
       d="m 64.185543,69.721248 c -0.130967,-0.250124 0.332679,-2.297055 0.736584,-1.893316 0.141843,0.141785 0.19141,1.458179 0,1.577763 -0.226537,0.141526 -0.809993,0.05873 -0.736584,0.315553 0.405214,1.417653 1.788855,-0.518504 1.788855,0.315555"
       id="path84436" />
    <path
       style="fill:#000000;fill-opacity:0;stroke:#000000;stroke-width:0.7;stroke-linecap:round;stroke-linejoin:round;stroke-dasharray:none"
       d="m 67.447572,67.933119 5.787469,-0.105187"
       id="path84438" />
    <path
       style="fill:#000000;fill-opacity:0;stroke:#000000;stroke-width:0.7;stroke-linecap:round;stroke-linejoin:round;stroke-dasharray:none"
       d="m 78.180694,67.091644 c 0.150008,-0.764887 0.21491,-2.068679 -1.367946,-0.736288 -0.38408,0.323302 -0.441206,0.902758 -0.63136,1.367388 -0.125992,0.307853 -0.239466,0.622877 -0.315682,0.946663 -0.06477,0.275156 -0.105225,0.558797 -0.105225,0.841473 0,2.590906 2.694006,0.462603 3.472479,-0.315553 0.07015,-0.07012 0.179078,-0.116271 0.210458,-0.210367 0.03138,-0.0941 -0.140304,-0.140251 -0.210458,-0.210373"
       id="path84440" />
    <path
       style="fill:#000000;fill-opacity:0;stroke:#000000;stroke-width:0.7;stroke-linecap:round;stroke-linejoin:round;stroke-dasharray:none"
       d="m 80.811366,69.616062 c 0.09373,0.374777 0.259997,0.897133 0.315677,0.841473 0.04959,-0.04957 0.01577,-0.142045 0,-0.210365 -0.08993,-0.389527 -0.315677,-0.757256 -0.315677,-1.15703 0,-0.709078 0.249467,-1.397702 0.315677,-2.103684 0.15963,-1.702094 -0.175577,-0.770263 0.10523,-2.314048 0.105577,-0.580422 0.390478,1.489474 0.210453,2.419236 -0.132805,0.685879 -0.420907,1.33233 -0.63136,1.998496 0.394744,-0.665562 1.988179,-0.714051 2.31499,-1.367394"
       id="path84442" />
    <path
       style="fill:#000000;fill-opacity:0;stroke:#000000;stroke-width:0.7;stroke-linecap:round;stroke-linejoin:round;stroke-dasharray:none"
       d="m 83.757713,64.672408 c 0,1.402455 0,2.804911 0,4.207367 0,0.245427 0.02712,0.49236 0,0.736287 -0.0087,0.07793 -0.105224,0.288772 -0.105224,0.210368 0,-0.110879 0.07015,-0.210365 0.105224,-0.31555"
       id="path84444" />
    <path
       style="fill:#000000;fill-opacity:0;stroke:#000000;stroke-width:0.7;stroke-linecap:round;stroke-linejoin:round;stroke-dasharray:none"
       d="m 85.125662,70.24717 c -0.128495,-0.04123 0.841814,-2.513163 0.841814,-1.26221 0,0.210367 0.04127,0.424823 0,0.631102 -0.107442,0.536991 -0.670938,1.196587 -1.052271,1.577761 -0.124019,0.123968 -0.315669,0.175292 -0.420908,0.315555 -0.08996,0.119894 0.508408,0.10912 0.52614,0.10518 0.390396,-0.08672 0.761596,-0.259016 1.157492,-0.315547 0.119483,-0.01707 0.687588,0.195921 0.736589,0 0.04338,-0.17344 -0.105233,-0.347139 -0.105233,-0.52592"
       id="path84446" />
    <path
       style="fill:#000000;fill-opacity:0;stroke:#000000;stroke-width:0.7;stroke-linecap:round;stroke-linejoin:round;stroke-dasharray:none"
       d="M 79.848783,63.226121 79.997595,52.441535"
       id="path84458" />
    <path
       sodipodi:type="star"
       style="fill:#000000;fill-opacity:0;stroke:#000000;stroke-width:0.7;stroke-linecap:round;stroke-linejoin:round;stroke-dasharray:none"
       id="path84460"
       inkscape:flatsided="true"
       sodipodi:sides="4"
       sodipodi:cx="98.166512"
       sodipodi:cy="58.242901"
       sodipodi:r1="14.781478"
       sodipodi:r2="10.452083"
       sodipodi:arg1="-0.78539816"
       sodipodi:arg2="0"
       inkscape:rounded="0"
       inkscape:randomized="0"
       d="m 108.61859,47.790818 0,20.904166 -20.904162,0 0,-20.904166 z"
       inkscape:transform-center-x="1.2367435e-06"
       transform="translate(2.4554143,-1.4131553)" />
    <path
       style="fill:#000000;fill-opacity:0;stroke:#000000;stroke-width:0.7;stroke-linecap:round;stroke-linejoin:round;stroke-dasharray:none"
       d="m 122.28276,54.300947 c -0.63632,-0.181734 -0.53934,-0.255293 -1.2649,0.07438 -0.31367,0.142518 -0.60218,0.33572 -0.89288,0.520634 -0.12352,0.07857 -0.92979,0.559322 -0.89288,0.743765 0.08,0.400135 2.77983,0.521208 2.3066,1.561902 -0.19757,0.434483 -2.58684,0.835522 -2.82745,0.595013 -0.0267,-0.02668 0.54241,-0.07437 0.59526,-0.07437"
       id="path84464" />
    <path
       style="fill:#000000;fill-opacity:0;stroke:#000000;stroke-width:0.7;stroke-linecap:round;stroke-linejoin:round;stroke-dasharray:none"
       d="m 123.54768,55.119089 c 0.22374,-2.283454 -0.11348,2.227564 -0.0744,2.305667 0.0701,0.14024 0.11805,-0.2925 0.14881,-0.446257"
       id="path84466" />
    <path
       style="fill:#000000;fill-opacity:0;stroke:#000000;stroke-width:0.7;stroke-linecap:round;stroke-linejoin:round;stroke-dasharray:none"
       d="m 123.39886,53.705939 c 0.17362,-0.04959 0.34723,-0.09917 0.52085,-0.148756"
       id="path84468" />
    <path
       style="fill:#000000;fill-opacity:0;stroke:#000000;stroke-width:0.7;stroke-linecap:round;stroke-linejoin:round;stroke-dasharray:none"
       d="m 125.18462,56.829742 c 0.29763,-1.289187 0.64434,-2.568022 0.89288,-3.867568 0.0747,-0.390374 0.0546,-0.793072 0.0744,-1.190024 0.005,-0.09904 -0.0992,-0.297505 0,-0.297505 0.10222,0 0.0687,0.195439 0.0744,0.297505 0.0193,0.346554 0.0384,0.696301 0,1.041268 -0.086,0.773731 -0.25731,1.535673 -0.37203,2.305671 -0.0589,0.395399 -0.0856,0.795282 -0.14881,1.190019 -0.24176,1.510393 -0.12292,-0.346453 -0.22322,1.859413 -0.007,0.1486 -0.11902,0.357031 0,0.446259 0.20113,0.150789 0.42087,-0.490058 0.74406,-1.190024"
       id="path84470" />
    <path
       style="fill:#000000;fill-opacity:0;stroke:#000000;stroke-width:0.7;stroke-linecap:round;stroke-linejoin:round;stroke-dasharray:none"
       d="m 127.1936,54.821581 c -0.44644,0.545428 -0.96366,1.039895 -1.33932,1.636284 -0.0674,0.106966 0.004,0.266708 0.0744,0.371877 0.37839,0.567346 1.05299,0.21667 1.56254,0.148757 0.12293,-0.01638 0.26435,-0.06151 0.37203,0 0.43153,0.246488 -0.21067,1.115647 0.44644,1.115647"
       id="path84472" />
    <path
       style="fill:#000000;fill-opacity:0;stroke:#000000;stroke-width:0.7;stroke-linecap:round;stroke-linejoin:round;stroke-dasharray:none"
       d="m 130.6907,53.259677 c -0.0496,-0.198337 0.008,-0.725863 -0.14881,-0.595011 -0.4834,0.402675 -0.62596,4.815364 0.29763,4.983221 0.16368,0.02975 0.29762,-0.148754 0.44643,-0.223131"
       id="path84474" />
    <path
       style="fill:#000000;fill-opacity:0;stroke:#000000;stroke-width:0.7;stroke-linecap:round;stroke-linejoin:round;stroke-dasharray:none"
       d="m 131.95562,55.7141 c 0.37203,0.44626 0.69529,0.938176 1.11609,1.338773 0.38273,0.364353 0.89288,0.121391 0.89288,-0.371882 0,-0.839131 -0.58276,-1.384194 -1.33932,-1.636281 -1.09376,-0.364443 -1.98767,1.768655 -0.96728,2.603177 0.12142,0.0993 0.28998,0.137581 0.44644,0.148751 0.19945,0.01423 0.44934,0.06236 0.59525,-0.07437 0.29493,-0.276386 0.89243,-1.324711 0.59525,-1.85941 -0.95752,-1.722845 -0.80485,0.330081 -0.81847,0.520634"
       id="path84476" />
    <path
       style="fill:#000000;fill-opacity:0;stroke:#000000;stroke-width:0.7;stroke-linecap:round;stroke-linejoin:round;stroke-dasharray:none"
       d="m 135.37831,51.920901 c 0,-1.598964 0.0124,0.04491 -0.14881,1.785038 -0.0508,0.548132 -0.11811,1.095931 -0.22322,1.636281 -0.0171,0.08767 -0.34675,1.400509 -0.52084,1.487522 -0.11308,0.05652 0.0246,-0.255688 0.0744,-0.371877 0.17679,-0.412348 0.45251,-0.912479 0.89288,-1.115645 0.82179,-0.379132 1.39864,1.176243 1.56254,1.487522 0.0365,0.06938 0.0435,0.151072 0.0744,0.223131 0.0437,0.101913 0.16451,0.187741 0.14882,0.297508 -0.0866,0.605862 -1.83131,0.316619 -1.93457,0.297506 -0.30847,-0.0571 -0.59913,-0.187391 -0.89288,-0.297506 -0.10385,-0.03893 -0.40427,-0.118297 -0.29762,-0.148756 0.40542,-0.11579 0.84327,0 1.2649,0"
       id="path84478" />
    <path
       style="fill:#000000;fill-opacity:0;stroke:#000000;stroke-width:0.7;stroke-linecap:round;stroke-linejoin:round;stroke-dasharray:none"
       d="m 139.61949,55.267841 c -0.0992,0.669388 -0.29762,1.331462 -0.29762,2.008163 0,0.47189 1.0278,-0.134881 1.48812,-0.595013 0.24983,-0.249727 0.53772,-0.799124 0.66966,-1.115645 0.0393,-0.09436 0.0287,-0.206084 0.0744,-0.297505 0.0222,-0.04434 -0.005,0.09947 0,0.148751 0.0194,0.174236 0.0512,0.346866 0.0744,0.520634 0.0825,0.618358 0.0324,0.543475 0.22322,1.115647 0.0526,0.157785 0.14881,0.595014 0.22322,0.446263 0.026,-0.05201 0.14665,-0.805175 0.14881,-0.818145"
       id="path84480" />
    <path
       style="fill:#000000;fill-opacity:0;stroke:#000000;stroke-width:0.7;stroke-linecap:round;stroke-linejoin:round;stroke-dasharray:none"
       d="m 140.58677,53.854691 c 0.49726,0.0013 0.93603,-0.202007 1.41373,-0.297508"
       id="path84482" />
    <path
       style="fill:#000000;fill-opacity:0;stroke:#000000;stroke-width:0.7;stroke-linecap:round;stroke-linejoin:round;stroke-dasharray:none"
       d="m 144.00947,51.325893 c -0.0496,1.462736 -0.0992,2.925472 -0.14881,4.388207 -0.0496,0.471051 -0.1306,0.939848 -0.14881,1.413153 -0.007,0.175178 -0.0496,0.396698 0.0744,0.520634 0.0894,0.0894 0.24802,-0.04959 0.37203,-0.07438"
       id="path84484" />
    <path
       style="fill:#000000;fill-opacity:0;stroke:#000000;stroke-width:0.7;stroke-linecap:round;stroke-linejoin:round;stroke-dasharray:none"
       d="m 147.06014,56.383488 c 0.85612,-0.684617 0.89123,-0.326154 0.52084,-1.190024 -0.0655,-0.152866 -0.10558,-0.328671 -0.22322,-0.446257 -0.11766,-0.117613 -0.28233,-0.195792 -0.44643,-0.223131 -0.89739,-0.149503 -1.03408,1.589421 -0.96729,2.156915 0.0912,0.775052 0.70885,1.067676 1.33932,0.595013 0.33317,-0.249777 0.59186,-0.627107 0.81848,-0.966896 0.15835,-0.237437 0.26312,-0.480734 0.29762,-0.446254 0.0351,0.03505 -0.003,0.09928 0,0.148752 0.0255,0.38218 0.0368,1.152035 0.22322,1.561901 0.0436,0.09577 0.13085,0.273495 0.22322,0.223131 0.26216,-0.142936 0.41073,-0.434633 0.59525,-0.669385 0.0893,-0.113668 0.14881,-0.247922 0.22322,-0.371882"
       id="path84486" />
    <path
       style="fill:#000000;fill-opacity:0;stroke:#000000;stroke-width:0.7;stroke-linecap:round;stroke-linejoin:round;stroke-dasharray:none"
       d="m 150.40844,55.7141 c 0.19841,0.347091 0.21594,0.91489 0.59524,1.041271 0.2598,0.08656 -0.008,-0.556911 0.0744,-0.818145 0.19335,-0.614952 0.39788,-1.241242 0.74407,-1.785033 0.0596,-0.09356 0.23883,0.05471 0.29763,0.148754 0.28028,0.448263 -0.14037,1.968434 0.14881,2.305672 0.41425,0.48309 1.4044,-1.066805 1.56254,-1.264399"
       id="path84488" />
    <path
       style="fill:#000000;fill-opacity:0;stroke:#000000;stroke-width:0.7;stroke-linecap:round;stroke-linejoin:round;stroke-dasharray:none"
       d="m 142.37253,54.300947 c 2.80816,0.303464 3.16594,-0.528013 2.67864,0.44626"
       id="path84490" />
  </g>
</svg>
