<?xml version="1.0" encoding="UTF-8" standalone="no"?>
<!-- Created with Inkscape (http://www.inkscape.org/) -->

<svg
   width="82.669701mm"
   height="54.175694mm"
   viewBox="0 0 82.669701 54.175694"
   version="1.1"
   id="svg5"
   inkscape:version="1.1.2 (0a00cf5339, 2022-02-04)"
   sodipodi:docname="sikloalkanlarda-adlandırma-1.svg"
   xmlns:inkscape="http://www.inkscape.org/namespaces/inkscape"
   xmlns:sodipodi="http://sodipodi.sourceforge.net/DTD/sodipodi-0.dtd"
   xmlns="http://www.w3.org/2000/svg"
   xmlns:svg="http://www.w3.org/2000/svg">
  <sodipodi:namedview
     id="namedview7"
     pagecolor="#ffffff"
     bordercolor="#999999"
     borderopacity="1"
     inkscape:pageshadow="0"
     inkscape:pageopacity="0"
     inkscape:pagecheckerboard="0"
     inkscape:document-units="mm"
     showgrid="true"
     inkscape:zoom="0.94270618"
     inkscape:cx="529.85756"
     inkscape:cy="199.95626"
     inkscape:window-width="1916"
     inkscape:window-height="1033"
     inkscape:window-x="0"
     inkscape:window-y="45"
     inkscape:window-maximized="1"
     inkscape:current-layer="layer1">
    <inkscape:grid
       type="xygrid"
       id="grid824"
       originx="-19.48389"
       originy="-12.691786" />
  </sodipodi:namedview>
  <defs
     id="defs2" />
  <g
     inkscape:label="Layer 1"
     inkscape:groupmode="layer"
     id="layer1"
     transform="translate(-19.483891,-12.691786)">
    <rect
       style="fill:#000000;fill-opacity:0;stroke:#00000b;stroke-width:0.7;stroke-linecap:round;stroke-linejoin:round;stroke-opacity:1"
       id="rect848"
       width="20.219337"
       height="20.090847"
       x="19.833891"
       y="15.015983" />
    <path
       style="fill:#000000;fill-opacity:0;stroke:#00000b;stroke-width:0.7;stroke-linecap:round;stroke-linejoin:round;stroke-opacity:1"
       d="m 40.192216,15.191307 4.848577,-0.0466"
       id="path1388" />
    <path
       style="fill:#000000;fill-opacity:0;stroke:#00000b;stroke-width:0.7;stroke-linecap:round;stroke-linejoin:round;stroke-opacity:1"
       d="m 48.583984,14.259267 c 0.0039,-0.170264 0.02437,-0.580091 -0.233108,-0.605828 -0.715899,-0.07156 -1.980454,1.886436 -2.004698,2.516511 -0.01408,0.366058 0.320318,0.616509 0.652693,0.559226 0.324495,-0.05592 0.632926,-0.189361 0.932418,-0.326216 0.247227,-0.112972 0.466209,-0.279611 0.699315,-0.419417"
       id="path1390" />
    <path
       style="fill:#000000;fill-opacity:0;stroke:#00000b;stroke-width:0.7;stroke-linecap:round;stroke-linejoin:round;stroke-opacity:1"
       d="m 49.749506,16.216552 c 0.203295,-0.447067 0.345773,-0.712908 0.466209,-1.211652 0.05157,-0.213549 0.05274,-0.436509 0.09324,-0.65243 0.07582,-0.404241 0.152413,-0.808356 0.233103,-1.211654 0.0068,-0.03406 0.04977,-0.127798 0.04662,-0.0932 -0.08657,0.951948 -0.470845,1.973009 -0.326348,2.93593 0.0214,0.142591 0.137126,0.466567 0.37297,0.419417 0.341082,-0.06819 0.594855,-0.345529 0.839176,-0.559224"
       id="path1392" />
    <path
       sodipodi:type="star"
       style="fill:#000000;fill-opacity:0;stroke:#00000b;stroke-width:2.64567;stroke-linecap:round;stroke-linejoin:round;stroke-opacity:1"
       id="path2756"
       inkscape:flatsided="true"
       sodipodi:sides="6"
       sodipodi:cx="112.95212"
       sodipodi:cy="207.69753"
       sodipodi:r1="43.707138"
       sodipodi:r2="37.851494"
       sodipodi:arg1="0.52359878"
       sodipodi:arg2="1.0471976"
       inkscape:rounded="0"
       inkscape:randomized="0"
       d="m 150.80361,229.55109 -37.85149,21.85357 -37.851494,-21.85357 0,-43.70713 37.851494,-21.85357 37.85149,21.85357 z"
       transform="scale(0.26458333)" />
    <path
       style="fill:#000000;fill-opacity:0;stroke:#00000b;stroke-width:0.7;stroke-linecap:round;stroke-linejoin:round;stroke-opacity:1"
       d="m 40.015931,48.984145 4.862726,-0.05063"
       id="path2791" />
    <path
       style="fill:#000000;fill-opacity:0;stroke:#00000b;stroke-width:0.7;stroke-linecap:round;stroke-linejoin:round;stroke-opacity:1"
       d="m 48.221786,47.870221 c 0.06493,-0.190014 0.06472,-0.926706 -0.253267,-0.962025 -0.436021,-0.04843 -0.764011,0.691255 -0.911763,0.962025 -0.462946,0.848389 -0.97106,1.78145 -0.810455,2.784811 0.19446,1.214887 2.170768,0.427053 2.431364,-0.354431"
       id="path2908" />
    <path
       style="fill:#000000;fill-opacity:0;stroke:#00000b;stroke-width:0.7;stroke-linecap:round;stroke-linejoin:round;stroke-opacity:1"
       d="m 49.994655,46.958829 c 0.192387,0.880361 0.151958,1.789308 0.151958,2.683542 0,0.320677 0,0.641352 0,0.962027 0,0.08439 -0.05968,0.312828 0,0.253167 0.07261,-0.07258 0.03377,-0.202533 0.05065,-0.3038"
       id="path2910" />
    <path
       style="fill:#000000;fill-opacity:0;stroke:#00000b;stroke-width:0.7;stroke-linecap:round;stroke-linejoin:round;stroke-opacity:1"
       d="m 49.943998,49.237309 c 0.53176,-0.343225 1.215946,-0.267668 1.823524,-0.35443"
       id="path2912" />
    <path
       style="fill:#000000;fill-opacity:0;stroke:#00000b;stroke-width:0.7;stroke-linecap:round;stroke-linejoin:round;stroke-opacity:1"
       d="m 51.97014,46.351234 c -0.05065,0.151898 -0.136533,0.296318 -0.151963,0.455695 -0.105315,1.087818 0.0591,2.215245 0.202612,3.291141 0.04734,0.354889 0.151961,0.705258 0.151961,1.063289 0,0.07549 -0.08299,-0.129302 -0.101306,-0.20253"
       id="path2914" />
    <path
       style="fill:#000000;fill-opacity:0;stroke:#00000b;stroke-width:0.7;stroke-linecap:round;stroke-linejoin:round;stroke-opacity:1"
       d="m 53.48974,49.94617 c 0,-0.101266 -0.04114,-0.211267 0,-0.303799 0.107037,-0.240737 0.638445,-0.375643 0.861105,-0.202531 0.0777,0.06041 0.124913,0.158533 0.151961,0.253167 0.133342,0.466497 -0.07055,0.793673 -0.455877,1.063291 -0.07449,0.05213 -0.253267,0.01035 -0.253267,0.101267 0,0.08609 0.1676,-0.04207 0.253267,-0.05064 0.336513,-0.03364 0.677717,0.09954 0.861105,0.405064 0.04429,0.07379 0.06375,0.168105 0.05066,0.253166 -0.02193,0.142531 -0.06541,0.289714 -0.151961,0.405064 -0.287065,0.382593 -1.832335,0.556961 -2.330058,0.556961"
       id="path2916" />
    <text
       xml:space="preserve"
       style="font-style:normal;font-variant:normal;font-weight:normal;font-stretch:normal;font-size:21.3333px;line-height:normal;font-family:monospace;-inkscape-font-specification:monospace;font-variant-ligatures:normal;font-variant-position:normal;font-variant-caps:normal;font-variant-numeric:normal;font-variant-alternates:normal;font-variant-east-asian:normal;font-feature-settings:normal;font-variation-settings:normal;text-indent:0;text-align:start;text-decoration-line:none;text-decoration-style:solid;text-decoration-color:#000000;letter-spacing:normal;word-spacing:normal;text-transform:none;writing-mode:lr-tb;direction:ltr;text-orientation:mixed;dominant-baseline:auto;baseline-shift:baseline;text-anchor:start;white-space:normal;shape-padding:0;shape-margin:0;inline-size:0;opacity:1;vector-effect:none;fill:#000000;fill-opacity:1;stroke:#00000b;stroke-width:0;stroke-linecap:round;stroke-linejoin:round;stroke-miterlimit:4;stroke-dasharray:none;stroke-dashoffset:0;stroke-opacity:1;-inkscape-stroke:none;stop-color:#000000;stop-opacity:1"
       x="170.0293"
       y="94.533882"
       id="text43031"
       transform="scale(0.26458333)"><tspan
         sodipodi:role="line"
         id="tspan43029"
         x="170.0293"
         y="94.533882">klor siklobütan</tspan></text>
    <text
       xml:space="preserve"
       style="font-style:normal;font-variant:normal;font-weight:normal;font-stretch:normal;font-size:21.3333px;line-height:normal;font-family:monospace;-inkscape-font-specification:monospace;font-variant-ligatures:normal;font-variant-position:normal;font-variant-caps:normal;font-variant-numeric:normal;font-variant-alternates:normal;font-variant-east-asian:normal;font-feature-settings:normal;font-variation-settings:normal;text-indent:0;text-align:start;text-decoration-line:none;text-decoration-style:solid;text-decoration-color:#000000;letter-spacing:normal;word-spacing:normal;text-transform:none;writing-mode:lr-tb;direction:ltr;text-orientation:mixed;dominant-baseline:auto;baseline-shift:baseline;text-anchor:start;white-space:normal;shape-padding:0;shape-margin:0;inline-size:0;opacity:1;vector-effect:none;fill:#000000;fill-opacity:1;stroke:#00000b;stroke-width:0;stroke-linecap:round;stroke-linejoin:round;stroke-miterlimit:4;stroke-dasharray:none;stroke-dashoffset:0;stroke-opacity:1;-inkscape-stroke:none;stop-color:#000000;stop-opacity:1"
       x="169.64474"
       y="226.52768"
       id="text45183"
       transform="scale(0.26458333)"><tspan
         sodipodi:role="line"
         id="tspan45181"
         x="169.64474"
         y="226.52768">metil siklohekzan</tspan></text>
  </g>
</svg>
