<?xml version="1.0" encoding="UTF-8" standalone="no"?>
<!-- Created with Inkscape (http://www.inkscape.org/) -->

<svg
   width="130.08388mm"
   height="58.336388mm"
   viewBox="0 0 130.08388 58.336388"
   version="1.1"
   id="svg5"
   inkscape:version="1.1.2 (0a00cf5339, 2022-02-04)"
   sodipodi:docname="sikloalkiller.svg"
   xmlns:inkscape="http://www.inkscape.org/namespaces/inkscape"
   xmlns:sodipodi="http://sodipodi.sourceforge.net/DTD/sodipodi-0.dtd"
   xmlns="http://www.w3.org/2000/svg"
   xmlns:svg="http://www.w3.org/2000/svg">
  <sodipodi:namedview
     id="namedview7"
     pagecolor="#ffffff"
     bordercolor="#999999"
     borderopacity="1"
     inkscape:pageshadow="0"
     inkscape:pageopacity="0"
     inkscape:pagecheckerboard="0"
     inkscape:document-units="mm"
     showgrid="true"
     inkscape:zoom="2.3651938"
     inkscape:cx="303.78061"
     inkscape:cy="106.33378"
     inkscape:window-width="1916"
     inkscape:window-height="1033"
     inkscape:window-x="0"
     inkscape:window-y="23"
     inkscape:window-maximized="1"
     inkscape:current-layer="layer1">
    <inkscape:grid
       type="xygrid"
       id="grid988"
       originx="-62.520398"
       originy="-247.21784" />
  </sodipodi:namedview>
  <defs
     id="defs2" />
  <g
     inkscape:label="Layer 1"
     inkscape:groupmode="layer"
     id="layer1"
     transform="translate(-62.520397,-247.21783)">
    <path
       style="fill:#000000;fill-opacity:0;stroke:#000000;stroke-width:0.7;stroke-linecap:round;stroke-linejoin:round"
       d="m 63.148519,257.74775 c -0.162525,0.97477 0.02021,-0.17506 -0.200268,1.73495 -0.02225,0.13346 -0.0445,0.26692 -0.06676,0.40037 0.02225,0.0445 0.06676,0.0837 0.06676,0.13346 0,0.0315 -0.06158,-0.0357 -0.06676,-0.0667 -0.01828,-0.1097 -0.0085,-0.22276 0,-0.33364 0.05273,-0.68524 0.290094,-1.43528 0.867825,-1.86841 0.07962,-0.0597 0.168518,-0.14752 0.267026,-0.13346 0.631195,0.0901 0.127632,2.39637 0.400531,2.66916 0.09573,0.0957 0.283006,3.9e-4 0.400537,-0.0667 0.35936,-0.20527 0.685953,-0.46605 1.001337,-0.73402 0.13241,-0.1125 0.22252,-0.26692 0.333779,-0.40037"
       id="path83885" />
    <path
       style="fill:#000000;fill-opacity:0;stroke:#000000;stroke-width:0.7;stroke-linecap:round;stroke-linejoin:round"
       d="m 67.754666,257.48084 c 0.69078,0.45659 1.489342,-0.13346 2.20294,-0.13346"
       id="path83887" />
    <path
       style="fill:#000000;fill-opacity:0;stroke:#000000;stroke-width:0.7;stroke-linecap:round;stroke-linejoin:round"
       d="m 67.821423,258.48177 c 0.684411,0.27316 1.598655,0.57947 2.336451,0.33364"
       id="path83889" />
    <path
       style="fill:#000000;fill-opacity:0;stroke:#000000;stroke-width:0.7;stroke-linecap:round;stroke-linejoin:round"
       d="m 71.826768,256.01281 c 0.212285,-0.40117 0.164547,-1.46804 0.801071,-1.46804 0.140726,0 0.318116,0.0194 0.400531,0.13346 0.672209,0.93037 0.541618,1.46928 0,2.33551 -0.07552,0.12078 -0.166277,0.23294 -0.267023,0.33364 -0.05673,0.0567 -0.200263,0.0532 -0.200263,0.13346 0,0.0117 0.376865,0.0993 0.667557,0.26691 0.899809,0.51891 2.176669,1.00054 1.001334,2.06859 -0.857959,0.77965 -1.839462,1.10845 -3.070764,0.80075 -0.584878,-0.14616 -0.237956,-1.30873 -0.200266,-1.53476"
       id="path83893" />
    <path
       style="fill:#000000;fill-opacity:0;stroke:#000000;stroke-width:0.7;stroke-linecap:round;stroke-linejoin:round"
       d="m 90.051095,248.73937 c -0.04869,-0.14602 -0.115848,-0.60056 -0.400537,-0.60056 -0.523544,0 -0.956064,0.47702 -1.26836,0.80075 -0.851117,0.88228 -1.976641,2.00598 -1.73565,3.40316 0.173931,1.0084 1.453242,1.11628 2.202944,0.80075 0.173993,-0.0732 0.26702,-0.26692 0.400532,-0.40037"
       id="path83895" />
    <path
       style="fill:#000000;fill-opacity:0;stroke:#000000;stroke-width:0.7;stroke-linecap:round;stroke-linejoin:round"
       d="m 92.120525,248.47246 c 0.119367,1.21867 0.07424,2.45233 0.200263,3.67008 0.03652,0.35281 0.224507,1.00093 0.133514,1.00093 -0.110553,0 -0.198019,-0.58933 -0.200268,-0.60056"
       id="path83897" />
    <path
       style="fill:#000000;fill-opacity:0;stroke:#000000;stroke-width:0.7;stroke-linecap:round;stroke-linejoin:round"
       d="m 91.786743,251.00815 c 1.087874,0.18662 2.176462,0.0819 3.137524,-0.4671"
       id="path83899" />
    <path
       style="fill:#000000;fill-opacity:0;stroke:#000000;stroke-width:0.7;stroke-linecap:round;stroke-linejoin:round"
       d="m 94.590487,247.73844 c -0.0064,1.22664 -0.04179,2.4603 0.200266,3.67008 0.03177,0.15879 0.09422,0.31 0.133514,0.4671 0.0054,0.0216 0.0199,0.0767 0,0.0667 -0.09513,-0.0475 -0.219839,-0.26289 -0.267025,-0.33364"
       id="path83901" />
    <path
       style="fill:#000000;fill-opacity:0;stroke:#000000;stroke-width:0.7;stroke-linecap:round;stroke-linejoin:round"
       d="m 96.526404,253.14347 c -0.482185,-0.46872 0.02233,-1.70029 0.734314,-1.06766 0.472247,0.4196 -0.131432,1.37446 -0.467291,1.66822 -0.136216,0.11914 -0.633876,0.1559 -0.467291,0.26691 0.390622,0.26031 0.648943,0.47312 1.134848,0.53383 0.226943,0.0284 0.989271,-0.14552 1.134848,0"
       id="path83903" />
    <path
       style="fill:#000000;fill-opacity:0;stroke:#000000;stroke-width:0.7;stroke-linecap:round;stroke-linejoin:round"
       d="m 87.31411,256.01281 -4.138859,6.80633"
       id="path83907" />
    <path
       style="fill:#000000;fill-opacity:0;stroke:#000000;stroke-width:0.7;stroke-linecap:round;stroke-linejoin:round"
       d="m 80.237995,264.48736 c -0.06842,-0.0958 -0.407529,-0.76389 -0.734311,-0.60057 -0.453821,0.22682 -0.869252,0.55088 -1.201605,0.93421 -0.274198,0.31626 -0.776896,1.63231 -0.867826,2.06859 -0.143909,0.69049 0.118759,1.97825 0.801071,2.33551 0.282245,0.14778 0.616165,0.21079 0.93458,0.20018 0.512969,-0.0171 1.476179,-0.34117 1.869162,-0.73401"
       id="path83911" />
    <path
       style="fill:#000000;fill-opacity:0;stroke:#000000;stroke-width:0.7;stroke-linecap:round;stroke-linejoin:round"
       d="m 81.439598,264.821 c 0.02225,0.3114 0.05669,0.62217 0.06676,0.9342 0.0122,0.37793 -0.014,0.75652 0,1.13439 0.03015,0.81381 0.09502,0.55964 0.200268,1.40131 0.04659,0.37258 -0.05242,0.48143 -0.06675,0.4671 -0.07866,-0.0786 0,-0.22243 0,-0.33365"
       id="path83913" />
    <path
       style="fill:#000000;fill-opacity:0;stroke:#000000;stroke-width:0.7;stroke-linecap:round;stroke-linejoin:round"
       d="m 81.506355,266.55595 c 0.133511,-0.0445 0.260384,-0.12073 0.400537,-0.13346 0.112995,-0.0103 0.222144,0.0464 0.333777,0.0667 0.504322,0.0917 0.985972,0.0449 1.401868,-0.26692"
       id="path83919" />
    <path
       style="fill:#000000;fill-opacity:0;stroke:#000000;stroke-width:0.7;stroke-linecap:round;stroke-linejoin:round"
       d="m 83.709297,264.28717 c 0.0019,1.40676 0.102309,2.81566 0.33378,4.20391 0.01156,0.0694 -0.0036,0.20019 0.06675,0.20019 0.160441,0 0.257019,-0.19519 0.400532,-0.26692"
       id="path83921" />
    <path
       style="fill:#000000;fill-opacity:0;stroke:#000000;stroke-width:0.7;stroke-linecap:round;stroke-linejoin:round"
       d="m 85.378188,269.29183 c -0.301522,-0.40633 -0.210815,-0.59965 -0.06675,-1.06767 0.04139,-0.13445 0.01135,-0.33059 0.133511,-0.40036 0.104047,-0.0594 0.267295,0.0338 0.333782,0.13345 0.30734,0.46082 -0.264022,1.02072 -0.400539,1.33458 -0.137933,0.31712 -0.153141,0.99439 -0.734311,0.80074 -0.0761,-0.0254 0.124158,-0.1081 0.200265,-0.13346 0.133512,-0.0445 0.261721,-0.11033 0.400537,-0.13346 0.488709,-0.0814 0.564298,0.0727 1.001337,0.40038 0.0383,0.0287 0.219758,0.26691 0.333777,0.26691 0.0676,0 0.133514,-0.24813 0.133514,-0.0667"
       id="path83923" />
    <path
       style="fill:#000000;fill-opacity:0;stroke:#000000;stroke-width:0.7;stroke-linecap:round;stroke-linejoin:round"
       d="m 87.180596,266.48922 h 9.546076"
       id="path83927" />
    <path
       style="fill:#000000;fill-opacity:0;stroke:#000000;stroke-width:0.7;stroke-linecap:round;stroke-linejoin:round"
       d="m 101.33282,264.55408 c -0.24477,-0.17794 -0.43581,-0.48409 -0.73431,-0.53382 -0.29854,-0.0497 -0.59456,0.13683 -0.867827,0.26691 -1.312532,0.62476 -1.822593,2.6579 -1.33512,3.93699 0.330182,0.86637 1.041938,0.90463 1.802407,0.60056 0.27812,-0.1112 0.77988,-0.35801 0.93458,-0.66728"
       id="path83929" />
    <path
       style="fill:#000000;fill-opacity:0;stroke:#000000;stroke-width:0.7;stroke-linecap:round;stroke-linejoin:round"
       d="m 102.8682,264.15371 c -0.21278,1.20534 -0.45396,2.57529 -0.40053,3.80354 0.005,0.10438 0.10907,0.56483 0.0668,0.73402 -0.005,0.0216 -0.0456,-0.007 -0.0668,0 -0.0472,0.0157 -0.0983,0.1019 -0.13351,0.0667 -0.17484,-0.17477 -0.13352,-0.45723 -0.13352,-0.66729"
       id="path83931" />
    <path
       style="fill:#000000;fill-opacity:0;stroke:#000000;stroke-width:0.7;stroke-linecap:round;stroke-linejoin:round"
       d="m 102.13389,267.35669 c 1.02573,-0.53898 1.61865,-0.0581 2.33645,-1.13439"
       id="path83933" />
    <path
       style="fill:#000000;fill-opacity:0;stroke:#000000;stroke-width:0.7;stroke-linecap:round;stroke-linejoin:round"
       d="m 104.5371,263.68661 c -0.208,1.21671 -0.26703,2.43712 -0.26703,3.67008 0,0.20019 0,0.40037 0,0.60056 0,0.11122 0.0995,0.28393 0,0.33365 -0.22411,0.112 -0.16503,-0.63578 0.0668,-0.86748"
       id="path83935" />
    <path
       style="fill:#000000;fill-opacity:0;stroke:#000000;stroke-width:0.7;stroke-linecap:round;stroke-linejoin:round"
       d="m 96.259379,255.87935 3.738321,6.40596"
       id="path83939" />
    <path
       sodipodi:type="star"
       style="fill:#000000;fill-opacity:0;stroke:#000000;stroke-width:0.888655;stroke-linecap:round;stroke-linejoin:round;stroke-dasharray:none"
       id="path83993"
       inkscape:flatsided="true"
       sodipodi:sides="3"
       sodipodi:cx="62.426884"
       sodipodi:cy="51.05315"
       sodipodi:r1="16.925934"
       sodipodi:r2="16.925934"
       sodipodi:arg1="0.52359878"
       sodipodi:arg2="1.5707963"
       inkscape:rounded="0"
       inkscape:randomized="0"
       inkscape:transform-center-y="-3.3331693"
       transform="matrix(0.78770693,0,0,0.78770693,91.583029,220.68555)"
       d="m 77.085172,59.516117 -29.316577,0 14.658289,-25.388901 z" />
    <path
       style="fill:#000000;fill-opacity:0;stroke:#000000;stroke-width:0.7;stroke-linecap:round;stroke-linejoin:round;stroke-dasharray:none"
       d="m 159.20303,255.47135 c -0.18996,-0.16276 -0.34612,-0.37645 -0.56988,-0.48828 -0.37072,-0.18529 -1.0961,0.19931 -1.30259,0.48828 -0.0966,0.13526 0.10769,0.51454 0.16282,0.56965 0.57216,0.57194 2.19813,0.62508 2.19813,1.5462 0,0.12132 -0.0681,0.24975 -0.16283,0.32552 -0.90585,0.72438 -2.39814,0.46693 -3.4193,0.40689 -0.38023,-0.0224 -0.76121,-0.0393 -1.13977,-0.0814 -0.1112,-0.0123 -0.43179,-0.11675 -0.32564,-0.0814 0.86865,0.28943 0.56004,0.30763 1.13976,0.16275"
       id="path84358" />
    <path
       style="fill:#000000;fill-opacity:0;stroke:#000000;stroke-width:0.7;stroke-linecap:round;stroke-linejoin:round;stroke-dasharray:none"
       d="m 161.80822,256.61065 c -0.39442,-4.69417 0.0465,-0.49548 0,0 -0.0397,0.42316 -0.61652,1.18551 -0.40706,1.70896 0.12278,0.30683 0.53006,-0.10021 0.56988,-0.16276 0.13031,-0.20469 0.2171,-0.43402 0.32565,-0.65103"
       id="path84360" />
    <path
       style="fill:#000000;fill-opacity:0;stroke:#000000;stroke-width:0.7;stroke-linecap:round;stroke-linejoin:round;stroke-dasharray:none"
       d="m 161.56398,253.59963 c -0.24585,-0.63441 -0.52455,-0.42542 -0.65129,0.0814"
       id="path84364" />
    <path
       style="fill:#000000;fill-opacity:0;stroke:#000000;stroke-width:0.7;stroke-linecap:round;stroke-linejoin:round;stroke-dasharray:none"
       d="m 162.62234,257.66858 c 0.48947,-1.95711 0.34358,-1.26699 0.7327,-5.0455 0.0389,-0.37777 0,-0.75954 0,-1.13931 0,-0.1085 -0.0767,-0.24881 0,-0.32551 0.0607,-0.0607 0.0628,0.16039 0.0814,0.24413 0.25157,1.13158 0.32564,1.4765 0.32564,2.68551 0,1.40611 -0.12712,2.41811 -0.0814,3.74344 0.0131,0.38051 0.059,0.75922 0.0814,1.1393 0.005,0.0812 0.0814,0.24414 0,0.24414 -0.17561,0 0,-0.93065 0,-1.30206"
       id="path84366" />
    <path
       style="fill:#000000;fill-opacity:0;stroke:#000000;stroke-width:0.7;stroke-linecap:round;stroke-linejoin:round;stroke-dasharray:none"
       d="m 165.22752,255.22721 c -1.03308,0.92938 -1.62632,1.32925 -2.19812,2.92964 -0.0646,0.1807 0.37916,0.10256 0.56988,0.0814 0.30751,-0.0342 0.59952,-0.15408 0.89553,-0.24414 0.19777,-0.0602 1.16413,-0.48251 1.384,-0.32551 0.59395,0.42407 -0.64111,2.63094 0.0814,1.38344 0.62466,-1.07851 0.46349,-0.7638 0.7327,-1.30207"
       id="path84368" />
    <path
       style="fill:#000000;fill-opacity:0;stroke:#000000;stroke-width:0.7;stroke-linecap:round;stroke-linejoin:round;stroke-dasharray:none"
       d="m 167.58847,257.26168 c 0.0271,-1.05792 0.0285,-2.11682 0.0814,-3.17378 0.0286,-0.57151 0.10586,-1.13957 0.16282,-1.70896 0.0245,-0.24442 0.0592,-0.48778 0.0814,-0.73241 0.005,-0.054 0,-0.21701 0,-0.16276 0,2.29755 -0.43567,4.62084 -0.24423,6.91722 0.0309,0.3709 0.21342,0.63285 0.56988,0.24414 0.48412,-0.52792 0.49617,-0.84461 0.6513,-1.46483"
       id="path84370" />
    <path
       style="fill:#000000;fill-opacity:0;stroke:#000000;stroke-width:0.7;stroke-linecap:round;stroke-linejoin:round;stroke-dasharray:none"
       d="m 169.2167,256.61065 c 0.2275,0.90962 0.183,1.61534 1.46542,1.87172 0.22885,0.0457 0.29783,-0.36341 0.40706,-0.56965 0.44709,-0.84416 0.64633,-2.00124 0.0814,-2.84827 -0.11758,-0.1763 -0.28067,-0.36535 -0.48847,-0.40689 -1.11379,-0.22267 -1.32068,1.28757 -1.46542,1.95309 -0.0465,0.21371 -0.13708,0.43954 -0.0814,0.65103 0.12833,0.48747 0.75413,1.49597 1.46541,1.30206 0.57286,-0.15617 0.97302,-1.29399 0.81412,-1.79033 -0.14469,-0.45198 -0.40883,-0.87382 -0.73271,-1.22069 -0.31592,-0.33835 -0.74718,0.2966 -0.56988,0.65103"
       id="path84372" />
    <path
       style="fill:#000000;fill-opacity:0;stroke:#000000;stroke-width:0.7;stroke-linecap:round;stroke-linejoin:round;stroke-dasharray:none"
       d="m 173.04307,254.90169 c -0.0253,1.5955 0.14643,4.31362 -0.24424,6.26618 -0.008,0.0376 -0.0709,0.11828 -0.0814,0.0814 -0.10496,-0.36723 -0.0814,-0.84232 -0.0814,-1.22068"
       id="path84374" />
    <path
       style="fill:#000000;fill-opacity:0;stroke:#000000;stroke-width:0.7;stroke-linecap:round;stroke-linejoin:round;stroke-dasharray:none"
       d="m 172.88025,255.55272 c 0.70557,-0.18988 1.39103,-0.65499 2.11671,-0.56965 0.36648,0.0431 0.46138,0.57878 0.65129,0.89517 1.29227,2.15293 -1.78159,1.65629 -2.93084,1.46482 -0.0268,-0.005 0.0543,0 0.0814,0 0.2235,0 0.11427,0.0243 0.32564,-0.0814"
       id="path84376" />
    <path
       style="fill:#000000;fill-opacity:0;stroke:#000000;stroke-width:0.7;stroke-linecap:round;stroke-linejoin:round;stroke-dasharray:none"
       d="m 176.88095,255.87824 c 0.2171,0.81379 0.45278,1.62285 0.65129,2.44137 0.0192,0.0791 0.0364,0.17135 0,0.24413 -0.084,0.16796 -0.31188,-0.53465 -0.40706,-1.05792 -0.0757,-0.41626 -0.319,-1.43658 -0.24423,-1.62758 0.34941,-0.89258 1.11101,-0.66428 1.70965,-0.48828 0.19827,0.0583 0.3653,0.21493 0.56988,0.24414 0.18996,0.0271 0.37993,-0.0542 0.56989,-0.0814"
       id="path84378" />
    <path
       style="fill:#000000;fill-opacity:0;stroke:#000000;stroke-width:0.7;stroke-linecap:round;stroke-linejoin:round;stroke-dasharray:none"
       d="m 182.25414,257.99409 c 1.54553,-0.0587 0.10828,-2.92964 -0.89553,-2.92964 -0.50326,0 -0.91666,1.41031 -0.89554,1.79034 0.0527,0.94855 1.01101,2.04631 2.0353,1.79034 1.04345,-0.26076 0.50586,-2.95608 -0.24423,-3.09241 -0.88782,-0.16136 -1.44363,0.30604 -1.30259,1.05793 0.0447,0.23849 0.21709,0.43402 0.32564,0.65103"
       id="path84380" />
    <path
       style="fill:#000000;fill-opacity:0;stroke:#000000;stroke-width:0.7;stroke-linecap:round;stroke-linejoin:round;stroke-miterlimit:4;stroke-dasharray:none"
       d="m 184.6965,255.06445 c -0.0655,2.65792 -0.39402,5.33823 -0.56988,7.97514 -0.006,0.0856 0.0868,-0.15852 0.0814,-0.24414 -0.0375,-0.59928 -0.12087,-0.89022 -0.24424,-1.38344"
       id="path84382" />
    <path
       style="fill:#000000;fill-opacity:0;stroke:#000000;stroke-width:0.7;stroke-linecap:round;stroke-linejoin:round;stroke-miterlimit:4;stroke-dasharray:none"
       d="m 183.80097,256.77341 c 0.16282,-0.18989 0.31823,-0.38639 0.48847,-0.56966 0.1828,-0.19678 0.30324,-0.60195 0.56988,-0.56965 1.01868,0.12343 2.39263,0.37966 2.19813,1.5462 -0.14185,0.85077 -2.99587,0.50457 -3.58213,0.4069 -0.0268,-0.005 0.0551,-0.007 0.0814,0 0.0832,0.0208 0.16282,0.0543 0.24424,0.0814"
       id="path84384" />
    <path
       style="fill:#000000;fill-opacity:0;stroke:#000000;stroke-width:0.7;stroke-linecap:round;stroke-linejoin:round;stroke-dasharray:none"
       d="m 64.450874,291.04188 c 0.140303,0.80641 0.280604,1.61282 0.420907,2.41924 -0.09556,-0.002 -0.37207,-0.0976 -0.315682,-0.21037 0.336688,-0.67309 0.512892,-1.50432 0.841814,-2.20887 0.121928,-0.26117 0.493535,-0.96295 0.947042,-0.73629 0.779592,0.38964 0.888706,3.08159 1.473173,3.47108 0.231984,0.15459 1.002279,-0.1604 1.157494,-0.31555 0.116316,-0.11627 0.105228,-0.27821 0.105228,-0.42074"
       id="path84390" />
    <path
       style="fill:#000000;fill-opacity:0;stroke:#000000;stroke-width:0.7;stroke-linecap:round;stroke-linejoin:round;stroke-dasharray:none"
       d="m 72.974238,290.62114 c 0.03508,0.0701 0.148728,0.14514 0.105228,0.21037 -0.161737,0.24251 -1.690823,0.22632 -1.788853,0.21037 -0.857089,1.55461 -0.622408,1.16772 0.420904,1.05184 0.174307,-0.0194 0.351829,0.0194 0.526136,0 0.348516,-0.0387 0.736587,-0.18211 0.736587,-0.10518 0,0.23893 -0.383247,-0.0864 -0.420908,-0.10519"
       id="path84392" />
    <path
       style="fill:#000000;fill-opacity:0;stroke:#000000;stroke-width:0.7;stroke-linecap:round;stroke-linejoin:round;stroke-dasharray:none"
       d="m 75.499678,289.46411 c -0.350755,0.4558 -0.776774,0.86254 -1.052266,1.3674 -0.17481,0.32036 -0.408334,1.37158 0.210455,1.57776 0.353647,0.11784 0.635447,-0.10654 0.947041,-0.21037 0.364176,-0.12134 0.736582,-0.0806 0.736582,-0.52592"
       id="path84394" />
    <path
       style="fill:#000000;fill-opacity:0;stroke:#000000;stroke-width:0.7;stroke-linecap:round;stroke-linejoin:round;stroke-dasharray:none"
       d="m 76.867624,291.04188 c -0.175379,0.73629 -0.377637,1.46669 -0.526134,2.20887 -0.17708,0.88505 0.441346,0.33597 0.105233,0"
       id="path84396" />
    <path
       style="fill:#000000;fill-opacity:0;stroke:#000000;stroke-width:0.7;stroke-linecap:round;stroke-linejoin:round;stroke-dasharray:none"
       d="m 84.023048,280.91498 c -0.09922,-0.49588 -0.03331,-1.07668 -0.947042,-0.31555 -0.240972,0.20073 -0.288234,0.5573 -0.420907,0.84148 -0.444542,0.9522 -0.806098,2.48075 0.631359,2.83997 0.443177,0.11075 1.473174,-0.0144 1.473174,-0.63111"
       id="path84398" />
    <path
       style="fill:#000000;fill-opacity:0;stroke:#000000;stroke-width:0.7;stroke-linecap:round;stroke-linejoin:round;stroke-dasharray:none"
       d="m 85.811898,280.70462 c 0.07015,1.36739 0.140304,2.73478 0.210455,4.10218 -0.390731,-1.58267 -0.09462,1.04139 0.105228,0.84147 0.03506,-0.0351 -0.08954,-0.0581 -0.105228,-0.10518 -0.05656,-0.1696 -0.09037,-0.34776 -0.105225,-0.52592 -0.02331,-0.27953 0,-0.56098 0,-0.84147"
       id="path84400" />
    <path
       style="fill:#000000;fill-opacity:0;stroke:#000000;stroke-width:0.7;stroke-linecap:round;stroke-linejoin:round;stroke-dasharray:none"
       d="m 86.022353,283.33422 c 0.269219,-0.34725 0.810945,0.27839 1.157494,0.10518 0.177448,-0.0887 0.315682,-0.66853 0.315682,-0.84147"
       id="path84402" />
    <path
       style="fill:#000000;fill-opacity:0;stroke:#000000;stroke-width:0.7;stroke-linecap:round;stroke-linejoin:round;stroke-dasharray:none"
       d="m 88.021661,279.75796 c -0.227962,3.64584 -0.210457,2.24174 -0.210457,4.20736 0,0.10519 0.03327,0.21577 0,0.31556 -0.01236,0.037 -0.5412,0 -0.631357,0"
       id="path84404" />
    <path
       style="fill:#000000;fill-opacity:0;stroke:#000000;stroke-width:0.7;stroke-linecap:round;stroke-linejoin:round;stroke-dasharray:none"
       d="m 89.38961,285.33272 c -0.105228,-0.24543 -0.267893,-0.47356 -0.315682,-0.73629 -0.02941,-0.1617 0.192042,-0.93666 0.526132,-0.73629 0.581358,0.34868 0.665882,1.21675 0.420907,1.78813 -0.2027,0.47279 -1.052264,0.52878 -1.052264,0.52592 0,-0.1126 1.279779,-0.39657 1.473173,-0.42074 0.139219,-0.0174 0.295405,0.0627 0.420907,0 0.06273,-0.0313 0,-0.14024 0,-0.21036"
       id="path84406" />
    <path
       style="fill:#000000;fill-opacity:0;stroke:#000000;stroke-width:0.7;stroke-linecap:round;stroke-linejoin:round;stroke-dasharray:none"
       d="m 92.335957,281.86164 h 6.418834"
       id="path84410" />
    <path
       style="fill:#000000;fill-opacity:0;stroke:#000000;stroke-width:0.7;stroke-linecap:round;stroke-linejoin:round;stroke-dasharray:none"
       d="m 103.27954,281.23054 c 0.35969,-2.14264 -0.93683,-0.15727 -1.15749,0.21037 -0.3112,0.51845 -0.59543,0.97804 -0.73659,1.57776 -0.0775,0.32936 -0.24212,1.23056 0.10522,1.57776 0.52962,0.5294 3.05158,-0.16472 3.05158,-1.05184"
       id="path84412" />
    <path
       style="fill:#000000;fill-opacity:0;stroke:#000000;stroke-width:0.7;stroke-linecap:round;stroke-linejoin:round;stroke-dasharray:none"
       d="m 105.80498,280.07351 c 0.80026,1.24415 -0.10523,5.81473 -0.10523,3.36589 0.38583,-0.24543 0.75398,-0.52116 1.1575,-0.73628 0.12761,-0.068 0.29533,-0.0335 0.4209,-0.10519 0.4424,-0.25269 0.6997,-0.95531 0.94704,-1.36739"
       id="path84414" />
    <path
       style="fill:#000000;fill-opacity:0;stroke:#000000;stroke-width:0.7;stroke-linecap:round;stroke-linejoin:round;stroke-dasharray:none"
       d="m 108.75133,278.49575 c -0.0351,1.43752 -0.0733,2.87496 -0.10523,4.31255 -0.003,0.14021 0,0.28049 0,0.42073 0,0.0351 0,0.14025 0,0.10519 0,-0.2423 -0.15591,-0.26489 0,-0.42074"
       id="path84416" />
    <path
       style="fill:#000000;fill-opacity:0;stroke:#000000;stroke-width:0.7;stroke-linecap:round;stroke-linejoin:round;stroke-dasharray:none"
       d="m 110.43495,284.1757 c -0.98366,-0.14528 0.14715,-1.34645 0.52614,-1.15703 0.36078,0.18032 0.28423,0.95408 0,1.15703 -0.14273,0.1019 -0.42417,-0.14269 -0.52614,0 -0.14269,0.19968 0.0596,0.49819 0,0.73629 -0.0532,0.21285 -0.56309,0.0227 -0.31568,0.10518 0.15452,0.0515 1.62196,0.25389 1.26272,-0.10518"
       id="path84418" />
    <path
       style="fill:#000000;fill-opacity:0;stroke:#000000;stroke-width:0.7;stroke-linecap:round;stroke-linejoin:round;stroke-dasharray:none"
       d="m 85.811898,287.33122 -0.105227,10.00835"
       id="path84424"
       sodipodi:nodetypes="cc" />
    <path
       style="fill:#000000;fill-opacity:0;stroke:#000000;stroke-width:0.7;stroke-linecap:round;stroke-linejoin:round;stroke-dasharray:none"
       d="m 84.654407,301.11034 c -0.315362,-2.88684 -2.523487,0.11303 -2.209766,1.3674 0.206264,0.8247 1.219219,2.38558 2.314991,1.78812 0.505558,-0.27564 0.949759,-1.00333 1.262721,-1.47257"
       id="path84428" />
    <path
       style="fill:#000000;fill-opacity:0;stroke:#000000;stroke-width:0.7;stroke-linecap:round;stroke-linejoin:round;stroke-dasharray:none"
       d="m 86.969395,299.11184 c -0.255305,9.29048 0.61723,5.72865 0.105225,3.68145"
       id="path84430" />
    <path
       style="fill:#000000;fill-opacity:0;stroke:#000000;stroke-width:0.7;stroke-linecap:round;stroke-linejoin:round;stroke-dasharray:none"
       d="m 86.86417,302.16218 c 0.746546,-0.49266 2.316821,-0.21404 2.73589,-1.05184"
       id="path84432" />
    <path
       style="fill:#000000;fill-opacity:0;stroke:#000000;stroke-width:0.7;stroke-linecap:round;stroke-linejoin:round;stroke-dasharray:none"
       d="m 89.284385,299.00666 c 0.339384,2.03551 -0.03115,-0.33071 0.315675,4.52292 0.01275,0.17832 0.105224,0.34714 0.105224,0.52592 0,0.0496 -0.08304,-0.0608 -0.105224,-0.10519 -0.0992,-0.19833 -0.140301,-0.42073 -0.21045,-0.6311"
       id="path84434" />
    <path
       style="fill:#000000;fill-opacity:0;stroke:#000000;stroke-width:0.7;stroke-linecap:round;stroke-linejoin:round;stroke-dasharray:none"
       d="m 91.283691,304.0555 c -0.130967,-0.25013 0.332679,-2.29706 0.736584,-1.89332 0.141843,0.14179 0.19141,1.45818 0,1.57777 -0.226537,0.14152 -0.809993,0.0587 -0.736584,0.31555 0.405214,1.41765 1.788855,-0.51851 1.788855,0.31555"
       id="path84436" />
    <path
       style="fill:#000000;fill-opacity:0;stroke:#000000;stroke-width:0.7;stroke-linecap:round;stroke-linejoin:round;stroke-dasharray:none"
       d="m 94.54572,302.26737 5.78747,-0.10519"
       id="path84438" />
    <path
       style="fill:#000000;fill-opacity:0;stroke:#000000;stroke-width:0.7;stroke-linecap:round;stroke-linejoin:round;stroke-dasharray:none"
       d="m 105.27884,301.42589 c 0.15001,-0.76488 0.21491,-2.06868 -1.36794,-0.73628 -0.38408,0.3233 -0.44121,0.90275 -0.63136,1.36738 -0.126,0.30786 -0.23947,0.62288 -0.31569,0.94667 -0.0648,0.27515 -0.10522,0.55879 -0.10522,0.84147 0,2.59091 2.694,0.4626 3.47248,-0.31555 0.0701,-0.0701 0.17908,-0.11627 0.21046,-0.21037 0.0314,-0.0941 -0.14031,-0.14025 -0.21046,-0.21037"
       id="path84440" />
    <path
       style="fill:#000000;fill-opacity:0;stroke:#000000;stroke-width:0.7;stroke-linecap:round;stroke-linejoin:round;stroke-dasharray:none"
       d="m 107.90951,303.95031 c 0.0937,0.37478 0.26,0.89713 0.31568,0.84147 0.0496,-0.0496 0.0158,-0.14204 0,-0.21036 -0.0899,-0.38953 -0.31568,-0.75726 -0.31568,-1.15703 0,-0.70908 0.24947,-1.3977 0.31568,-2.10368 0.15963,-1.7021 -0.17558,-0.77027 0.10523,-2.31405 0.10558,-0.58042 0.39048,1.48947 0.21045,2.41923 -0.1328,0.68588 -0.4209,1.33233 -0.63136,1.9985 0.39475,-0.66556 1.98818,-0.71405 2.31499,-1.36739"
       id="path84442" />
    <path
       style="fill:#000000;fill-opacity:0;stroke:#000000;stroke-width:0.7;stroke-linecap:round;stroke-linejoin:round;stroke-dasharray:none"
       d="m 110.85586,299.00666 c 0,1.40245 0,2.80491 0,4.20736 0,0.24543 0.0271,0.49236 0,0.73629 -0.009,0.0779 -0.10522,0.28877 -0.10522,0.21037 0,-0.11088 0.0701,-0.21036 0.10522,-0.31555"
       id="path84444" />
    <path
       style="fill:#000000;fill-opacity:0;stroke:#000000;stroke-width:0.7;stroke-linecap:round;stroke-linejoin:round;stroke-dasharray:none"
       d="m 106.94693,297.56037 0.14881,-10.78459"
       id="path84458" />
    <path
       sodipodi:type="star"
       style="fill:#000000;fill-opacity:0;stroke:#000000;stroke-width:0.7;stroke-linecap:round;stroke-linejoin:round;stroke-dasharray:none"
       id="path84460"
       inkscape:flatsided="true"
       sodipodi:sides="4"
       sodipodi:cx="98.166512"
       sodipodi:cy="58.242901"
       sodipodi:r1="14.781478"
       sodipodi:r2="10.452083"
       sodipodi:arg1="-0.78539816"
       sodipodi:arg2="0"
       inkscape:rounded="0"
       inkscape:randomized="0"
       inkscape:transform-center-x="1.2367435e-06"
       transform="translate(42.782737,232.92109)"
       d="m 108.61859,47.790818 0,20.904166 -20.904162,0 0,-20.904166 z" />
    <path
       style="fill:#000000;fill-opacity:0;stroke:#000000;stroke-width:0.7;stroke-linecap:round;stroke-linejoin:round;stroke-dasharray:none"
       d="m 162.61016,288.6352 c -0.63632,-0.18174 -0.53934,-0.2553 -1.2649,0.0744 -0.31367,0.14252 -0.60218,0.33572 -0.89288,0.52063 -0.12352,0.0786 -0.92979,0.55932 -0.89288,0.74377 0.08,0.40013 2.77983,0.5212 2.3066,1.5619 -0.19757,0.43448 -2.58684,0.83552 -2.82745,0.59501 -0.0267,-0.0267 0.54241,-0.0744 0.59526,-0.0744"
       id="path84464" />
    <path
       style="fill:#000000;fill-opacity:0;stroke:#000000;stroke-width:0.7;stroke-linecap:round;stroke-linejoin:round;stroke-dasharray:none"
       d="m 163.87508,289.45334 c 0.22374,-2.28345 -0.11348,2.22756 -0.0744,2.30567 0.0701,0.14024 0.11805,-0.2925 0.14881,-0.44626"
       id="path84466" />
    <path
       style="fill:#000000;fill-opacity:0;stroke:#000000;stroke-width:0.7;stroke-linecap:round;stroke-linejoin:round;stroke-dasharray:none"
       d="m 163.72626,288.04019 c 0.17362,-0.0496 0.34723,-0.0992 0.52085,-0.14876"
       id="path84468" />
    <path
       style="fill:#000000;fill-opacity:0;stroke:#000000;stroke-width:0.7;stroke-linecap:round;stroke-linejoin:round;stroke-dasharray:none"
       d="m 165.51202,291.16399 c 0.29763,-1.28919 0.64434,-2.56802 0.89288,-3.86757 0.0747,-0.39037 0.0546,-0.79307 0.0744,-1.19002 0.005,-0.099 -0.0992,-0.29751 0,-0.29751 0.10222,0 0.0687,0.19544 0.0744,0.29751 0.0193,0.34655 0.0384,0.6963 0,1.04127 -0.086,0.77373 -0.25731,1.53567 -0.37203,2.30567 -0.0589,0.3954 -0.0856,0.79528 -0.14881,1.19002 -0.24176,1.51039 -0.12292,-0.34646 -0.22322,1.85941 -0.007,0.1486 -0.11902,0.35703 0,0.44626 0.20113,0.15079 0.42087,-0.49006 0.74406,-1.19002"
       id="path84470" />
    <path
       style="fill:#000000;fill-opacity:0;stroke:#000000;stroke-width:0.7;stroke-linecap:round;stroke-linejoin:round;stroke-dasharray:none"
       d="m 167.521,289.15583 c -0.44644,0.54543 -0.96366,1.0399 -1.33932,1.63629 -0.0674,0.10696 0.004,0.2667 0.0744,0.37187 0.37839,0.56735 1.05299,0.21667 1.56254,0.14876 0.12293,-0.0164 0.26435,-0.0615 0.37203,0 0.43153,0.24649 -0.21067,1.11565 0.44644,1.11565"
       id="path84472" />
    <path
       style="fill:#000000;fill-opacity:0;stroke:#000000;stroke-width:0.7;stroke-linecap:round;stroke-linejoin:round;stroke-dasharray:none"
       d="m 171.0181,287.59393 c -0.0496,-0.19834 0.008,-0.72587 -0.14881,-0.59501 -0.4834,0.40267 -0.62596,4.81536 0.29763,4.98322 0.16368,0.0297 0.29762,-0.14876 0.44643,-0.22313"
       id="path84474" />
    <path
       style="fill:#000000;fill-opacity:0;stroke:#000000;stroke-width:0.7;stroke-linecap:round;stroke-linejoin:round;stroke-dasharray:none"
       d="m 172.28302,290.04835 c 0.37203,0.44626 0.69529,0.93818 1.11609,1.33877 0.38273,0.36436 0.89288,0.12139 0.89288,-0.37188 0,-0.83913 -0.58276,-1.38419 -1.33932,-1.63628 -1.09376,-0.36444 -1.98767,1.76866 -0.96728,2.60318 0.12142,0.0993 0.28998,0.13758 0.44644,0.14875 0.19945,0.0142 0.44934,0.0624 0.59525,-0.0744 0.29493,-0.27639 0.89243,-1.32471 0.59525,-1.85941 -0.95752,-1.72285 -0.80485,0.33008 -0.81847,0.52063"
       id="path84476" />
    <path
       style="fill:#000000;fill-opacity:0;stroke:#000000;stroke-width:0.7;stroke-linecap:round;stroke-linejoin:round;stroke-dasharray:none"
       d="m 175.70571,286.25515 c 0,-1.59896 0.0124,0.0449 -0.14881,1.78504 -0.0508,0.54813 -0.11811,1.09593 -0.22322,1.63628 -0.0171,0.0877 -0.34675,1.40051 -0.52084,1.48752 -0.11308,0.0565 0.0246,-0.25569 0.0744,-0.37188 0.17679,-0.41234 0.45251,-0.91247 0.89288,-1.11564 0.82179,-0.37913 1.39864,1.17624 1.56254,1.48752 0.0365,0.0694 0.0435,0.15107 0.0744,0.22313 0.0437,0.10192 0.16451,0.18774 0.14882,0.29751 -0.0866,0.60586 -1.83131,0.31662 -1.93457,0.29751 -0.30847,-0.0571 -0.59913,-0.18739 -0.89288,-0.29751 -0.10385,-0.0389 -0.40427,-0.1183 -0.29762,-0.14876 0.40542,-0.11579 0.84327,0 1.2649,0"
       id="path84478" />
    <path
       style="fill:#000000;fill-opacity:0;stroke:#000000;stroke-width:0.7;stroke-linecap:round;stroke-linejoin:round;stroke-dasharray:none"
       d="m 179.94689,289.60209 c -0.0992,0.66939 -0.29762,1.33146 -0.29762,2.00816 0,0.47189 1.0278,-0.13488 1.48812,-0.59501 0.24983,-0.24973 0.53772,-0.79912 0.66966,-1.11564 0.0393,-0.0944 0.0287,-0.20609 0.0744,-0.29751 0.0222,-0.0443 -0.005,0.0995 0,0.14875 0.0194,0.17424 0.0512,0.34687 0.0744,0.52064 0.0825,0.61835 0.0324,0.54347 0.22322,1.11564 0.0526,0.15779 0.14881,0.59502 0.22322,0.44627 0.026,-0.052 0.14665,-0.80518 0.14881,-0.81815"
       id="path84480" />
    <path
       style="fill:#000000;fill-opacity:0;stroke:#000000;stroke-width:0.7;stroke-linecap:round;stroke-linejoin:round;stroke-dasharray:none"
       d="m 180.91417,288.18894 c 0.49726,10e-4 0.93603,-0.20201 1.41373,-0.29751"
       id="path84482" />
    <path
       style="fill:#000000;fill-opacity:0;stroke:#000000;stroke-width:0.7;stroke-linecap:round;stroke-linejoin:round;stroke-dasharray:none"
       d="m 184.33687,285.66014 c -0.0496,1.46274 -0.0992,2.92548 -0.14881,4.38821 -0.0496,0.47105 -0.1306,0.93985 -0.14881,1.41315 -0.007,0.17518 -0.0496,0.3967 0.0744,0.52064 0.0894,0.0894 0.24802,-0.0496 0.37203,-0.0744"
       id="path84484" />
    <path
       style="fill:#000000;fill-opacity:0;stroke:#000000;stroke-width:0.7;stroke-linecap:round;stroke-linejoin:round;stroke-dasharray:none"
       d="m 182.69993,288.6352 c 2.80816,0.30346 3.16594,-0.52802 2.67864,0.44626"
       id="path84490" />
    <path
       style="fill:#000000;fill-opacity:0;stroke:#000000;stroke-width:0.7;stroke-linecap:square;stroke-linejoin:round;stroke-miterlimit:4;stroke-dasharray:none;stroke-dashoffset:0;stroke-opacity:0.992157"
       d="m 107.05761,266.77327 4.814,-0.11192"
       id="path3286" />
    <path
       style="fill:#000000;fill-opacity:0;stroke:#000000;stroke-width:0.7;stroke-linecap:square;stroke-linejoin:round;stroke-miterlimit:4;stroke-dasharray:none;stroke-dashoffset:0;stroke-opacity:0.992157"
       d="m 113.43896,302.24818 4.814,-0.11192"
       id="path3533" />
    <path
       style="fill:#000000;fill-opacity:0;stroke:#000000;stroke-width:0.7;stroke-linecap:square;stroke-linejoin:round;stroke-miterlimit:4;stroke-dasharray:none;stroke-dashoffset:0;stroke-opacity:0.992157"
       d="m 152.6227,301.46482 4.86849,-0.003"
       id="path3984"
       sodipodi:nodetypes="cc" />
    <path
       style="fill:#000000;fill-opacity:0;stroke:#000000;stroke-width:0.7;stroke-linecap:square;stroke-linejoin:round;stroke-miterlimit:4;stroke-dasharray:none;stroke-dashoffset:0;stroke-opacity:0.992157"
       d="m 153.5758,267.55646 4.86849,-0.0302"
       id="path3986"
       sodipodi:nodetypes="cc" />
    <path
       style="fill:#000000;fill-opacity:0;stroke:#000000;stroke-width:0.7;stroke-linecap:round;stroke-linejoin:round;stroke-miterlimit:4;stroke-dasharray:none;stroke-dashoffset:0;stroke-opacity:0.992157"
       d="m 188.3359,255.0229 c -0.0746,0.29842 -0.18323,0.59035 -0.2239,0.89527 -0.0345,0.25882 -0.0237,0.52331 0,0.78335 0.18236,2.00531 1.62102,-0.17014 1.45538,-0.33572 -0.0792,-0.0791 -0.2239,0 -0.33585,0"
       id="path4357" />
    <path
       style="fill:#000000;fill-opacity:0;stroke:#000000;stroke-width:0.7;stroke-linecap:round;stroke-linejoin:round;stroke-miterlimit:4;stroke-dasharray:none;stroke-dashoffset:0;stroke-opacity:0.992157"
       d="m 187.32831,253.12046 c 0.11196,-0.18651 0.22391,-0.37303 0.33586,-0.55954"
       id="path4359" />
    <path
       style="fill:#000000;fill-opacity:0;stroke:#000000;stroke-width:0.7;stroke-linecap:round;stroke-linejoin:round;stroke-miterlimit:4;stroke-dasharray:none;stroke-dashoffset:0;stroke-opacity:0.992157"
       d="m 191.13474,254.12763 c -0.4221,-0.84384 -0.40476,-0.49065 -0.22391,-1.4548 0.21921,-1.16864 0.24241,-0.78145 0.33586,-1.90245 0.0562,-0.67348 -0.0546,-0.44484 -0.11195,-0.55954 -0.0334,-0.0667 0,-0.29842 0,-0.22381 0,1.7575 -0.0342,3.50597 0.11195,5.25968 0.025,0.29971 0.0694,0.59755 0.11195,0.89527 0.0321,0.22462 0.0799,0.44683 0.11196,0.67145 0.005,0.0369 -0.031,0.13259 0,0.11191 0.31569,-0.21037 0.60569,-0.74031 0.78367,-1.00717"
       id="path4494" />
    <path
       style="fill:#000000;fill-opacity:0;stroke:#000000;stroke-width:0.7;stroke-linecap:round;stroke-linejoin:round;stroke-miterlimit:4;stroke-dasharray:none;stroke-dashoffset:0;stroke-opacity:0.992157"
       d="m 186.76854,290.274 c 0.24897,-4.23185 -0.41422,4.49599 0.89563,0.89527 0.26548,-0.7298 0.22391,-0.32171 0.22391,-0.89527"
       id="path4496" />
    <path
       style="fill:#000000;fill-opacity:0;stroke:#000000;stroke-width:0.7;stroke-linecap:round;stroke-linejoin:round;stroke-miterlimit:4;stroke-dasharray:none;stroke-dashoffset:0;stroke-opacity:0.992157"
       d="m 185.98487,288.59538 c 0.25107,-1.00388 -0.0837,-0.89527 0.55977,-0.89527"
       id="path4498" />
    <path
       style="fill:#000000;fill-opacity:0;stroke:#000000;stroke-width:0.7;stroke-linecap:round;stroke-linejoin:round;stroke-miterlimit:4;stroke-dasharray:none;stroke-dashoffset:0;stroke-opacity:0.992157"
       d="m 188.112,290.274 c 0.6062,-1.8179 0.40419,-1.0092 0.78367,-3.13343 0.0798,-0.44675 0.17873,-0.89133 0.2239,-1.3429 0.0166,-0.16642 0.007,-1.75051 -0.2239,-0.67146 -0.29078,1.35644 -0.4565,2.86581 -0.33586,4.25252 0.033,0.37899 0.14926,0.74605 0.2239,1.11908 0.0373,0.18651 0.0176,0.39442 0.11196,0.55954 0.42663,0.74629 1.6793,-0.17925 1.6793,-0.78335"
       id="path4500" />
  </g>
</svg>
