<?xml version="1.0" encoding="UTF-8" standalone="no"?>
<!-- Created with Inkscape (http://www.inkscape.org/) -->

<svg
   width="136.79391mm"
   height="85.949638mm"
   viewBox="0 0 136.79391 85.949638"
   version="1.1"
   id="svg653"
   inkscape:version="1.2.2 (b0a8486541, 2022-12-01)"
   sodipodi:docname="mitokondride-solunum.svg"
   xmlns:inkscape="http://www.inkscape.org/namespaces/inkscape"
   xmlns:sodipodi="http://sodipodi.sourceforge.net/DTD/sodipodi-0.dtd"
   xmlns="http://www.w3.org/2000/svg"
   xmlns:svg="http://www.w3.org/2000/svg">
  <sodipodi:namedview
     id="namedview655"
     pagecolor="#ffffff"
     bordercolor="#000000"
     borderopacity="0.25"
     inkscape:showpageshadow="2"
     inkscape:pageopacity="0.0"
     inkscape:pagecheckerboard="0"
     inkscape:deskcolor="#d1d1d1"
     inkscape:document-units="mm"
     showgrid="false"
     inkscape:zoom="1.5284408"
     inkscape:cx="290.49212"
     inkscape:cy="219.17761"
     inkscape:window-width="1916"
     inkscape:window-height="1026"
     inkscape:window-x="0"
     inkscape:window-y="0"
     inkscape:window-maximized="1"
     inkscape:current-layer="layer1" />
  <defs
     id="defs650" />
  <g
     inkscape:label="Layer 1"
     inkscape:groupmode="layer"
     id="layer1"
     transform="translate(-39.649212,-7.6341662)">
    <path
       style="fill:#0000ff;stroke-width:0.264583"
       id="path659"
       d="m 94.979838,16.125767 c -0.40717,4.826766 -0.735632,9.663613 -0.658746,14.511059 0.01683,1.061469 0.08101,2.121654 0.121512,3.182482 0.05777,0.830321 0.167381,2.832352 0.321088,3.827746 0.03366,0.217993 -0.0094,0.508381 0.167436,0.640202 0.948434,0.7069 0.999985,0.05199 1.312228,-0.540563 0.24361,-0.663818 -0.695169,-1.008335 -0.938782,-0.344519 v 0 c 0.04758,0.268282 0.07669,0.714158 0.591585,0.622941 0.165502,-0.02932 -0.112784,-0.318784 -0.138195,-0.484931 -0.153164,-1.001443 -0.256823,-2.909883 -0.316095,-3.759166 -0.04026,-1.046972 -0.103989,-2.093307 -0.120785,-3.140919 -0.07773,-4.848855 0.258049,-9.68586 0.658752,-14.514332 0,-0.707107 -0.999998,-0.707107 -0.999998,0 z" />
    <path
       style="fill:#0000ff;stroke-width:0.264583"
       id="path661"
       d="m 89.059963,38.328547 c 4.060225,-0.147646 8.113975,-0.468607 12.163197,-0.796764 0.98567,-0.08871 1.97009,-0.148164 2.94202,-0.335814 0.69428,-0.134052 0.50471,-1.115918 -0.18958,-0.981867 v 0 c -0.93575,0.180679 -1.88433,0.232625 -2.83324,0.320951 -4.022363,0.326104 -8.049207,0.644159 -12.082397,0.793493 -0.707107,0 -0.707107,1.000001 0,1.000001 z" />
    <path
       style="fill:#0000ff;stroke-width:0.264583"
       id="path665"
       d="m 88.169617,39.301113 c -0.03008,0.383087 -0.06681,0.765709 -0.09024,1.14926 -0.03387,0.554413 -0.05409,1.109575 -0.08166,1.664337 -0.09423,1.896076 -0.213645,3.793847 -0.09824,5.692524 0.03158,0.519649 0.105055,1.035902 0.157583,1.553853 0.06069,0.390678 0.106556,0.78395 0.182076,1.172032 0.08594,0.441598 0.203123,0.850525 0.372742,1.263068 0.01855,0.04511 0.24924,0.574448 0.380119,0.512633 0.301546,-0.142414 0.47978,-0.463312 0.719669,-0.69497 -0.0037,-0.130559 -0.0034,-0.06127 2.65e-4,-0.207868 0.0062,-0.707077 -0.993743,-0.715875 -0.999964,-0.0088 v 0 c 2.52e-4,0.281551 -0.0067,0.137028 0.02336,0.433446 0.264247,-0.121968 0.509421,-0.299342 0.792745,-0.365908 0.06146,-0.01445 0.06015,0.19137 0.11076,0.15363 0.05122,-0.0382 -0.0644,-0.110765 -0.08936,-0.169585 -0.05251,-0.123772 -0.103868,-0.248546 -0.142664,-0.377277 -0.226785,-0.752493 -0.218659,-0.941088 -0.35506,-1.812205 -0.05091,-0.492911 -0.122243,-0.984139 -0.152744,-1.47873 -0.115533,-1.873337 0.0046,-3.746172 0.0974,-5.616969 0.02703,-0.545177 0.04704,-1.090732 0.07984,-1.635593 0.02199,-0.365287 0.05631,-0.729724 0.08447,-1.094584 0.09355,-0.700892 -0.89766,-0.833192 -0.991209,-0.1323 z" />
    <path
       style="fill:#0000ff;stroke-width:0.264583"
       id="path667"
       d="m 103.83902,37.549436 c 0.33403,3.510166 0.45972,7.037845 0.46319,10.56272 0.002,0.473895 -0.004,0.947869 0.005,1.421682 0.006,0.302975 0.0113,0.606507 0.0393,0.908244 0.0154,0.16583 -0.003,0.353806 0.0905,0.49136 0.40605,0.594929 0.69612,0.524777 1.19298,0.05727 0.11124,-0.104656 0.12137,-0.280302 0.18205,-0.420455 0.012,-0.462618 0.12399,-0.673711 -0.49685,-0.929372 -0.16523,-0.06804 -0.35467,0.04403 -0.532,0.06605 -0.67336,0.215839 -0.36812,1.168114 0.30524,0.952275 v 0 c -0.0953,-0.07021 -0.46564,-0.522068 -0.21668,-0.429321 -0.042,0.321578 -0.0326,-0.08475 0.31901,0.153935 0.1169,0.07936 0.087,0.344286 0.22763,0.357555 0.11635,0.01098 -0.0621,-0.226576 -0.0728,-0.34295 -0.0567,-0.617381 -0.0415,-1.759908 -0.0433,-2.28736 -0.004,-3.554754 -0.13016,-7.112307 -0.46731,-10.652233 -0.0641,-0.704199 -1.05995,-0.613598 -0.99589,0.0906 z" />
    <path
       style="fill:#0000ff;stroke-width:0.264583"
       id="path669"
       d="m 87.762026,55.416079 c 0.294611,-0.278247 0.683091,-0.744321 1.106318,-0.839542 0.126953,-0.02856 0.129593,0.186971 0.147087,0.225359 0.05015,0.110059 0.117462,0.211461 0.176192,0.317191 0.187539,0.448183 0.153717,0.94584 -0.31378,1.199711 -0.172765,0.09382 -0.178803,0.07403 -0.316577,0.03864 0.05235,-2.65e-4 0.141346,-0.05099 0.157059,-0.0011 0.08324,0.264584 0.05748,0.55208 0.102423,0.825786 0.01664,0.10132 0.185923,0.09088 0.266399,0.154644 0.175305,0.138901 0.232851,0.354655 0.31555,0.548341 -0.0048,0.127288 0.02188,0.25981 -0.01455,0.381868 -0.209103,0.700373 -1.118767,0.550687 -1.618393,0.336917 -0.194768,-0.08333 -0.369822,-0.206758 -0.554731,-0.310139 -0.134834,-0.100624 -0.282445,-0.186081 -0.404503,-0.301871 -0.02085,-0.01976 -0.01148,-0.113943 -0.0044,-0.08609 0.03195,0.126524 0.05301,0.255548 0.07951,0.383323 0.372978,-0.600739 -0.476596,-1.12821 -0.849574,-0.527471 v 0 c -0.0298,0.218454 -0.128059,0.438301 -0.08939,0.65536 0.05541,0.31101 0.623565,0.633172 0.802553,0.761603 0.632605,0.318601 0.990341,0.58796 1.741813,0.584997 0.951666,-0.0038 1.78548,-0.585126 1.894496,-1.569739 0.02876,-0.259757 -0.06636,-0.518459 -0.09954,-0.77769 -0.308679,-0.525301 -0.333803,-0.735245 -0.901255,-1.034126 -0.164857,-0.08683 -0.354846,-0.128802 -0.540727,-0.141663 -0.637526,-0.04411 -0.825457,0.177427 -0.595148,0.998865 0.03552,0.126672 0.251481,0.07735 0.377224,0.116031 0.149112,-0.0204 0.304835,-0.01275 0.447337,-0.06117 0.885682,-0.300884 1.343549,-1.201716 1.182976,-2.104943 -0.03832,-0.21554 -0.151347,-0.41085 -0.227021,-0.616275 -0.310576,-0.439172 -0.432374,-0.770321 -1.01297,-0.924248 -0.782781,-0.207529 -1.473142,0.599511 -1.961235,1.060069 -0.500139,0.499861 0.206769,1.207164 0.706911,0.707305 z" />
    <path
       style="fill:#0000ff;stroke-width:0.264583"
       id="path671"
       d="m 94.021388,54.828892 c -0.225767,0.125854 -0.463275,0.232637 -0.677299,0.377563 -0.97345,0.659169 -2.059414,1.840251 -2.046036,3.101795 0.0031,0.295555 0.131193,0.576405 0.196791,0.864608 0.202483,0.222094 0.354267,0.504341 0.607447,0.666279 0.578162,0.369805 1.237072,0.35325 1.876663,0.228764 0.302328,-0.05885 0.584681,-0.193929 0.877022,-0.290891 0.667906,-0.232169 0.339569,-1.176732 -0.328337,-0.94456 v 0 c -0.540758,0.199546 -1.151454,0.475761 -1.742443,0.27618 -0.122796,-0.04147 -0.218829,-0.138959 -0.328242,-0.208436 -0.05713,-0.14483 -0.155064,-0.279659 -0.171376,-0.434491 -0.05335,-0.506359 0.152993,-0.850466 0.428281,-1.261178 0.429451,-0.640713 1.001763,-1.115513 1.691844,-1.452431 0.652804,-0.271753 0.268486,-1.194953 -0.384315,-0.923202 z" />
    <path
       style="fill:#0000ff;stroke-width:0.264583"
       id="path673"
       d="m 102.00837,54.900888 c 0.50792,-0.369965 0.60053,-0.473419 1.17895,-0.745879 0.10126,-0.0477 0.66234,-0.350385 0.88899,-0.194003 0.0195,0.01349 -0.0832,0.169822 -0.18069,0.326315 -0.15486,0.540983 -0.44522,0.999818 -0.82088,1.411883 -0.0725,0.07948 -0.1679,0.138356 -0.23036,0.225912 -0.0666,0.09328 -0.22411,0.220485 -0.15107,0.308774 0.21205,0.256328 0.56357,0.353655 0.84535,0.530484 -0.0231,-0.09662 1.26919,-0.213542 1.0575,0.06942 -0.0328,0.04387 -0.1161,5.3e-4 -0.16136,0.0313 -0.0772,0.05266 -0.12569,0.138295 -0.18854,0.207444 -0.12284,0.106153 -0.23142,0.231489 -0.36851,0.318458 -0.65275,0.414102 -1.65298,0.440825 -2.31281,0.03374 0.0597,0.04465 0.11933,0.0893 0.179,0.133953 -0.28271,-0.648134 -1.19931,-0.248327 -0.9166,0.399807 v 0 c 0.0914,0.11748 0.18287,0.234958 0.27429,0.352435 0.14157,0.06808 0.27517,0.156081 0.4247,0.204222 0.99986,0.32191 2.18451,0.24276 3.04382,-0.402646 0.21359,-0.160425 0.37356,-0.381944 0.56034,-0.572915 0.10104,-0.241123 0.28485,-0.462574 0.30312,-0.723371 0.0571,-0.815917 -0.56727,-1.156224 -1.26161,-1.168617 -0.30936,-0.0055 -0.64012,0.09202 -0.93797,0.164301 0.14324,0.221139 0.33511,0.41751 0.4297,0.663419 0.0233,0.06062 -0.16508,0.197921 -0.11363,0.158281 0.11165,-0.08602 0.20543,-0.19372 0.29779,-0.300183 0.53865,-0.62086 0.92013,-1.285875 1.04551,-2.112655 -0.061,-0.277424 -0.0267,-0.595022 -0.18285,-0.832268 -0.76356,-1.159859 -2.62305,0.213003 -3.32665,0.731345 -0.55228,0.441569 0.0722,1.222616 0.62447,0.781048 z" />
    <path
       style="fill:#0000ff;stroke-width:0.264583"
       id="path675"
       d="m 109.74526,53.094225 c -1.26653,0.692865 -2.46553,1.697636 -2.94879,3.112061 -0.10835,0.317124 -0.20651,0.657543 -0.17079,0.990756 0.0361,0.336897 0.25208,0.629023 0.37811,0.943533 0.28998,0.188032 0.54196,0.455123 0.86995,0.564089 1.10954,0.368629 2.1994,-0.165576 3.17887,-0.604176 0.6434,-0.293322 0.22858,-1.203224 -0.41482,-0.909904 v 0 c -0.86673,0.403563 -1.78248,0.875162 -2.74377,0.494469 -0.0931,-0.113681 -0.2516,-0.196742 -0.2792,-0.341043 -0.0441,-0.230367 0.0119,-0.474697 0.0803,-0.699029 0.36208,-1.186794 1.37922,-2.020422 2.40908,-2.617388 0.65999,-0.253796 0.30107,-1.187164 -0.35892,-0.933368 z" />
    <path
       style="fill:#0000ff;stroke-width:0.264583"
       id="path677"
       d="m 91.130873,11.962204 c -0.254963,-0.067 -0.501809,-0.184117 -0.764884,-0.200987 -0.847228,-0.05433 -1.886918,0.287284 -2.407968,0.997286 -0.136877,0.186515 -0.297129,0.416702 -0.257299,0.644599 0.05273,0.301731 0.33615,0.512146 0.504227,0.76822 0.302535,0.02525 0.606994,0.11813 0.907611,0.07576 0.936368,-0.131981 1.798537,-0.845458 2.406692,-1.521699 0.131308,-0.146009 0.524394,-0.398965 0.344559,-0.47783 -0.372128,-0.163194 -0.810157,0.064 -1.215234,0.096 -1.009232,2.135779 -1.678075,4.42429 -3.014104,6.396667 -0.299873,0.442704 -0.61994,0.877657 -0.997611,1.256177 -0.259575,0.260157 -0.597541,0.428003 -0.896311,0.642005 -0.195723,-0.0092 -0.412461,0.06112 -0.587166,-0.02759 -0.194043,-0.09853 -0.40073,-0.838319 -0.407178,-0.965348 -0.0095,-0.187161 0.02529,-0.382743 0.105119,-0.552292 0.184793,-0.392474 0.465209,-0.426185 0.826765,-0.578134 0.268285,-0.02897 0.535527,-0.07024 0.804857,-0.08691 1.829263,-0.113214 0.406318,0.07106 2.39953,-0.109114 0.416658,-0.03766 0.830585,-0.101102 1.245878,-0.151653 0.701863,-0.08597 0.580276,-1.078554 -0.121584,-0.992582 v 0 c -1.333958,0.16448 -1.070882,0.157007 -2.444348,0.222184 -0.408014,0.01936 -0.818327,4.77e-4 -1.224708,0.04177 -0.383188,0.03893 -0.758889,0.13222 -1.138333,0.198331 -0.69999,0.433238 -1.091875,0.495351 -1.343856,1.364561 -0.295738,1.020144 0.255942,2.35595 1.37926,2.60587 0.362225,0.08059 0.733925,-0.110305 1.100886,-0.165458 0.362043,-0.275356 0.767067,-0.501883 1.086128,-0.826068 0.407305,-0.413843 0.751668,-0.88834 1.075526,-1.370293 1.328139,-1.976494 2.029883,-4.247405 3.01298,-6.394752 -0.155409,-0.39204 -0.19884,-0.850006 -0.466228,-1.176122 -0.08511,-0.103798 -0.13517,0.233875 -0.223393,0.335035 -0.551254,0.632077 -1.229942,1.104993 -2.035238,1.347225 -0.04108,0.106964 -0.0386,0.24366 -0.123238,0.320891 -0.04745,0.0433 -0.05044,-0.136282 -0.0182,-0.191836 0.08139,-0.140239 0.20135,-0.260648 0.33451,-0.353168 0.474543,-0.329716 1.036701,-0.455739 1.597734,-0.338637 0.588388,0.392173 1.143005,-0.439933 0.554617,-0.832106 z" />
    <path
       style="fill:#0000ff;stroke-width:0.264583"
       id="path687"
       d="m 93.281263,9.289377 c -0.33723,1.02026 -0.691443,2.034874 -0.999696,3.06453 -0.173276,0.578793 -0.372941,1.251195 -0.464103,1.857638 -0.03134,0.208514 -0.03113,0.420562 -0.04669,0.630844 0.128,0.756099 0.444442,1.056172 1.237115,0.831622 0.28716,-0.08135 0.527018,-0.322663 0.744773,-0.508242 0.530297,-0.467745 -0.131196,-1.217698 -0.661493,-0.749952 v 0 c -0.06187,0.05777 -0.122002,0.11746 -0.18561,0.173313 -0.04611,0.04049 -0.109654,0.06423 -0.143327,0.115525 -0.06055,0.09224 0.08155,0.210216 0.08259,0.320552 5.3e-4,0.0464 -0.05084,-0.07764 -0.07626,-0.116462 0.04784,-0.840249 0.223089,-1.439813 0.46709,-2.255337 0.306396,-1.024067 0.659001,-2.033019 0.99426,-3.047729 0.22366,-0.6708029 -0.725001,-0.9871048 -0.948659,-0.316302 z" />
    <path
       style="fill:#0000ff;stroke-width:0.264583"
       id="path689"
       d="m 94.183977,12.08321 c -0.208619,0.661565 -0.47384,1.304924 -0.660771,1.973546 -0.06896,0.246644 -0.186886,0.702807 -0.159371,0.982816 0.01304,0.132814 0.07349,0.256592 0.110228,0.384889 0.193632,0.101021 0.387268,0.202041 0.5809,0.303062 0.706951,0.01488 0.727991,-0.984901 0.02103,-0.999779 v 0 c 0.104965,0.09915 0.209931,0.19831 0.314896,0.297464 -0.04564,0.106739 -0.08786,0.228301 -0.02262,-0.190976 0.09636,-0.619417 0.348816,-1.2174 0.55118,-1.806153 0.06899,-0.200729 0.136208,-0.402066 0.204309,-0.6031 0.24167,-0.664527 -0.698114,-1.006297 -0.939781,-0.341769 z" />
    <path
       style="fill:#0000ff;stroke-width:0.264583"
       id="path691"
       d="m 95.423994,8.397477 c -0.173694,0.4575497 -0.321858,0.9234775 -0.465802,1.3909495 -0.04145,0.1346133 -0.139231,0.3946745 -0.129595,0.5483555 0.0071,0.113304 0.05049,0.221368 0.07573,0.332053 0.939419,0.05832 0.67614,0.274052 1.012814,-0.130034 0.445024,-0.5495045 -0.332094,-1.1788606 -0.777116,-0.629356 v 0 c -0.226374,0.295419 -0.11508,0.087686 0.645933,0.287451 0.01191,0.08577 0.01863,0.172421 0.03572,0.257307 0.0051,0.02515 -0.0056,-0.05206 5.29e-4,-0.07696 0.025,-0.100562 0.06189,-0.197791 0.09233,-0.296845 0.141194,-0.459489 0.28752,-0.9171105 0.458096,-1.366817 0.22352,-0.6708494 -0.725204,-0.9869537 -0.948724,-0.316104 z" />
    <path
       style="fill:#0000ff;stroke-width:0.264583"
       id="path693"
       d="m 98.586389,7.982845 c -1.118489,2.53056 -2.447967,4.959607 -3.670289,7.439769 0.2536,0.210927 0.430959,0.629824 0.760796,0.632781 0.301908,0.0027 0.442714,-0.410691 0.660262,-0.620042 0.261591,-0.251731 0.512197,-0.51484 0.777068,-0.763117 0.749814,-0.702843 1.531147,-1.369266 2.339023,-2.003684 0.102613,-0.06599 0.400846,-0.119015 0.307843,-0.197977 -0.173162,-0.147016 -0.467207,-0.01377 -0.672288,-0.111441 -0.109125,-0.05197 -0.07941,-0.323175 -0.198647,-0.303347 -0.203364,0.03382 -0.306435,0.275865 -0.460414,0.412948 -0.776415,0.691227 -0.504701,0.453251 -1.299504,1.120886 -0.35097,0.310055 -1.297308,0.862223 -0.531111,1.496462 0.207436,0.171711 1.102132,-0.09063 1.344625,-0.135023 0.195871,-0.03585 0.394134,-0.05714 0.591199,-0.08571 0.43307,-0.03677 0.865507,-0.0054 1.299006,-0.0092 0.707072,-0.0069 0.697322,-1.006849 -0.0098,-0.999952 v 0 c -0.478819,0.0053 -0.956919,-0.03346 -1.434923,0.01978 -0.160073,0.0239 -1.011682,0.134865 -1.203714,0.219729 -0.04674,0.02065 -0.05385,0.09177 -0.05564,0.142839 -0.0081,0.232232 -0.04443,0.475265 0.02625,0.69663 0.02257,0.07065 0.08725,-0.121081 0.141303,-0.171861 0.152353,-0.143125 0.3174,-0.272102 0.476097,-0.408153 0.731832,-0.61522 0.618548,-0.51008 1.326465,-1.144374 0.176643,-0.158273 0.400095,-0.277903 0.526565,-0.478549 0.445309,-0.706482 0.601389,-1.123058 -0.411009,-1.099819 -0.151728,0.0035 -0.253672,0.166692 -0.380508,0.250038 -1.12305,0.884349 -2.226201,1.82005 -3.214478,2.855317 -0.117782,0.123381 -0.355452,0.2257 -0.326726,0.393836 0.05043,0.295132 0.34616,0.488625 0.51924,0.732937 1.23454,-2.506309 2.580155,-4.959762 3.705201,-7.5191287 0.256405,-0.6589813 -0.675535,-1.0215936 -0.93194,-0.3626125 z" />
    <path
       style="fill:#0000ff;stroke-width:0.264583"
       id="path695"
       d="m 100.78151,13.628215 c 0.21293,-0.0189 0.43125,-0.0054 0.63878,-0.05671 0.98264,-0.242729 2.02787,-0.928123 2.32937,-1.945814 0.06,-0.202438 0.0377,-0.420588 0.0565,-0.630882 -0.12474,-0.201961 -0.17629,-0.474838 -0.37422,-0.605882 -0.98786,-0.6540584 -2.2456,0.674173 -2.75182,1.374609 -0.14816,0.205016 -0.26234,0.432571 -0.39352,0.648856 -0.0748,0.198684 -0.17982,0.388496 -0.22449,0.596052 -0.169174,0.786071 0.20033,1.323998 1.0369,1.362112 0.55077,0.02509 0.85506,-0.259706 1.29231,-0.528669 0.62249,-0.55046 1.35027,-1.413976 1.06188,-2.329963 -0.0644,-0.204606 -0.17166,-0.411474 -0.33685,-0.54832 -0.18043,-0.149474 -0.43299,-0.179193 -0.64949,-0.268789 -0.93631,0.216282 -0.52435,0.02922 -1.25365,0.520291 -0.57315,0.41412 0.0125,1.224681 0.58566,0.810561 v 0 c 0.32121,-0.26308 0.18036,-0.141527 0.42607,-0.360556 0.4071,-0.30102 0.29491,0.398622 0.22259,0.568983 -0.0628,0.147911 -0.1534,0.284198 -0.25277,0.410479 -0.10519,0.133682 -0.23806,0.243045 -0.35709,0.364568 -1.05832,0.802291 0.25452,-0.145846 -0.6202,0.368456 -0.079,0.04643 -0.12224,0.272792 -0.18345,0.204631 -0.13058,-0.145417 0.0943,-0.606579 0.11158,-0.65786 0.2847,-0.488289 0.32527,-0.618627 0.72609,-1.044302 0.14094,-0.149684 0.30545,-0.275286 0.45818,-0.412929 0.10875,-0.07759 0.23253,-0.137584 0.32627,-0.232777 0.072,-0.07306 0.0179,-0.229527 0.15043,-0.268344 0.0104,0.08313 0.0461,0.16695 0.0311,0.249382 -0.12228,0.675215 -0.9138,1.179386 -1.52202,1.361592 -0.13994,0.04192 -0.28976,0.03746 -0.43464,0.05619 -0.70359,-0.07039 -0.80314,0.924646 -0.0995,0.995035 z" />
    <path
       style="fill:#0000ff;stroke-width:0.264583"
       id="path697"
       d="m 105.23551,12.005197 c 0.58665,-0.04857 1.17486,-0.07396 1.76209,-0.113832 0.0847,-0.0058 0.27002,0.06237 0.25398,-0.02105 -0.19613,-1.019782 -0.1986,-0.930755 -0.64444,-0.744213 -0.80847,0.526907 -2.22819,1.762617 -2.01366,2.873768 0.0424,0.219501 0.19657,0.401578 0.29486,0.602367 0.19131,0.118911 0.36369,0.275903 0.57395,0.356732 0.82215,0.316058 1.80705,-0.0321 2.43052,-0.587324 0.15789,-0.140613 0.28313,-0.314084 0.42471,-0.471126 0.4652,-0.532531 -0.28792,-1.190424 -0.75312,-0.657893 v 0 c -0.57118,0.684618 -0.93304,0.910705 -1.84582,0.802202 -0.15441,-0.02894 -0.22252,-7.67e-4 -0.16096,-0.270625 0.1687,-0.739523 0.90001,-1.325708 1.4781,-1.744598 0.60038,-0.303369 0.6681,-0.170211 0.13273,-1.15583 -0.0369,-0.06796 -0.15403,0.01419 -0.23119,0.01942 -0.38943,0.02639 -0.77931,0.04574 -1.16878,0.07165 -0.20793,0.01383 -0.41572,0.02965 -0.62358,0.04447 -0.70419,0.06406 -0.61359,1.059951 0.0906,0.995887 z" />
    <path
       style="fill:#0000ff;stroke-width:0.264583"
       id="path699"
       d="m 104.77114,13.424173 c 1.19374,-0.04836 0.55703,0.0042 1.90798,-0.181874 0.70028,-0.09801 0.56167,-1.088357 -0.13861,-0.990348 v 0 c -1.23962,0.176567 -0.64923,0.125678 -1.76937,0.172222 -0.70711,0 -0.70711,1 0,1 z" />
    <path
       style="fill:#0000ff;stroke-width:0.264583"
       id="path701"
       d="m 40.500839,65.021922 c 0.36857,-0.293282 0.787019,-0.930674 1.295699,-0.990198 0.121584,-0.01423 0.253013,0.09477 0.341241,0.150636 0.628256,0.414813 1.211522,0.886634 2.022242,0.782846 0.572675,-0.07332 0.854909,-0.305067 1.331482,-0.587608 0.268353,-0.06312 0.43607,-0.398782 0.711208,-0.469318 0.03253,-0.0083 0.03684,0.06044 0.06698,0.07528 0.09868,0.04859 0.203454,0.08694 0.310838,0.110746 0.794684,0.176181 0.80904,0.11397 1.704525,0.09017 1.252625,-0.218877 1.030809,-0.150659 2.244942,-0.47802 0.392909,-0.105937 1.126487,-0.347496 1.564778,-0.420953 0.480671,-0.08056 0.692229,-0.03418 1.18569,5.3e-4 1.141574,0.0583 2.285606,0.173267 3.429937,0.119216 0.681672,-0.0322 0.986007,-0.09039 1.664351,-0.184553 0.672494,-0.08257 1.340492,-0.244324 2.022059,-0.23763 0.55966,0.0055 1.137904,0.157663 1.686933,0.244867 1.389327,0.156887 2.783896,0.06247 4.142748,-0.261752 0.357378,-0.08527 1.241713,-0.360006 1.62787,-0.477761 0.458335,-0.133453 0.920853,-0.170402 1.393042,-0.107884 0.561898,0.07439 0.339863,0.107651 0.983816,0.176519 0.29374,0.03141 0.589598,0.03812 0.884394,0.05718 1.225859,-0.0024 2.439093,-0.197188 3.633205,-0.460094 0.114321,-0.02516 1.731322,-0.437047 1.986261,-0.488011 0.203719,-0.04073 0.411298,-0.05893 0.616948,-0.08839 0.163372,0.0049 0.328319,-0.0084 0.490117,0.01482 0.138398,0.01982 0.270015,0.0728 0.403873,0.113152 0.53925,0.162567 0.805381,0.285816 1.39591,0.357962 0.915538,0.11185 1.268314,0.03366 2.209789,-0.03912 1.305317,-0.229084 1.046417,-0.169146 2.284447,-0.439817 0.276725,-0.0605 1.093872,-0.269168 1.441286,-0.288615 0.367197,-0.02056 0.847521,0.08736 1.195554,0.147661 2.003544,0.456314 4.087654,0.496459 6.106531,0.09877 0.398862,-0.07857 0.787164,-0.203552 1.180745,-0.30533 0.667594,-0.101877 1.242684,-0.574077 1.923701,-0.61591 0.18542,-0.0114 0.363188,0.07885 0.546232,0.110554 0.223718,0.03875 0.449143,0.06689 0.673714,0.100332 1.819386,0.10268 3.632173,-0.184824 5.390153,-0.636696 0.11097,-0.02852 1.74927,-0.512926 2.02197,-0.593418 0.16388,-0.01209 0.32791,-0.05026 0.49164,-0.03629 0.12336,0.01053 0.2384,0.06751 0.35521,0.108535 0.41449,0.145576 0.80695,0.33756 1.24092,0.429418 0.91419,0.193501 1.14908,0.133935 2.0853,0.114806 0.3403,-0.04311 0.6825,-0.07316 1.02088,-0.129339 0.58075,-0.09641 1.05681,-0.227492 1.61822,-0.374827 0.20167,-0.05293 0.72016,-0.202796 0.95401,-0.230714 0.13405,-0.01601 0.26993,-0.0065 0.40489,-0.0098 0.15762,0.007 0.3156,0.0082 0.47285,0.02103 0.38169,0.03105 1.08544,0.133559 1.4396,0.151162 1.11604,0.05548 2.06457,-0.0568 3.16214,-0.223615 0.69681,-0.07952 1.38063,-0.452303 2.0971,-0.392917 0.10011,0.0083 0.19267,0.05699 0.28836,0.08757 0.1719,0.05494 0.34036,0.121091 0.51437,0.168957 0.27004,0.07428 0.54449,0.131466 0.81674,0.197199 0.34928,0.05383 0.69771,0.113589 1.04786,0.161491 1.75005,0.239411 0.60121,0.03586 2.34241,0.314767 1.00726,0.161343 2.00597,0.339289 3.01807,0.469734 1.42275,0.18039 2.53803,-0.191014 3.84304,-0.660866 0.7079,-0.265335 1.21571,0.0339 1.91054,0.175644 0.97318,0.198527 1.02965,0.168933 2.07222,0.252523 1.21478,-0.008 2.45014,0.02673 3.65267,-0.183292 0.47798,-0.08348 0.64638,-0.143042 1.10766,-0.272677 0.95356,-0.277297 1.94635,-0.243359 2.92788,-0.224695 0.58273,0.01109 1.56998,0.04243 2.15871,0.06019 0.64809,0.02098 1.29616,0.04216 1.94435,0.05956 0.70686,0.01897 0.73368,-0.980673 0.0268,-0.999641 v 0 c -0.64709,-0.01736 -1.29405,-0.03855 -1.94104,-0.05947 -0.57639,-0.01738 -1.60987,-0.05015 -2.17796,-0.06058 -1.07722,-0.01979 -2.16561,-0.04333 -3.21105,0.262414 -0.40278,0.114858 -0.55907,0.170122 -0.97548,0.244761 -1.12972,0.202493 -2.29284,0.160866 -3.43444,0.176485 -0.93405,-0.07135 -1.03336,-0.04734 -1.90782,-0.225724 -0.92376,-0.188437 -1.53532,-0.504421 -2.49199,-0.146315 -1.11929,0.403442 -2.15898,0.774705 -3.37655,0.609851 -1.0061,-0.129127 -1.99859,-0.30712 -2.99988,-0.467222 -1.64734,-0.263406 -0.72242,-0.09678 -2.33749,-0.314031 -0.3226,-0.04339 -0.64376,-0.09694 -0.96563,-0.145405 -0.247,-0.05863 -0.4962,-0.108606 -0.74099,-0.175874 -0.42355,-0.116392 -0.7304,-0.279302 -1.17515,-0.303318 -0.74825,-0.0404 -1.4612,0.283789 -2.18538,0.402508 -0.97002,0.151156 -1.92372,0.265724 -2.90879,0.217136 -0.24618,-0.01214 -1.21938,-0.134261 -1.50006,-0.155472 -0.18466,-0.01394 -0.37012,-0.014 -0.55518,-0.02101 -0.19033,0.01024 -0.38188,0.0069 -0.57098,0.03072 -0.25042,0.0316 -0.76645,0.180097 -0.99807,0.241113 -0.79361,0.209055 -1.59096,0.412268 -2.41324,0.472318 -0.72773,0.02328 -1.04661,0.07857 -1.75556,-0.06782 -0.90926,-0.187756 -1.70163,-0.793173 -2.67485,-0.508072 -0.20236,0.05974 -1.91305,0.565052 -1.96207,0.577739 -1.63744,0.423797 -3.325107,0.698262 -5.020954,0.622179 -0.204862,-0.02993 -0.410459,-0.05521 -0.614587,-0.08978 -0.383024,-0.06488 -0.554326,-0.148955 -0.952749,-0.111324 -0.697428,0.06587 -1.299834,0.478349 -1.975213,0.627931 -0.356486,0.0943 -0.707853,0.210679 -1.069459,0.282898 -1.918525,0.383159 -3.896124,0.344442 -5.799751,-0.09512 -0.590203,-0.09593 -0.924832,-0.185637 -1.522127,-0.148281 -0.222332,0.01389 -0.440936,0.06515 -0.659381,0.10881 -0.995561,0.198975 -1.976377,0.476756 -2.985299,0.60974 -0.771377,0.06506 -1.174102,0.14218 -1.92442,0.05713 -0.897615,-0.101751 -1.713879,-0.619239 -2.640005,-0.496581 -0.235386,0.03522 -0.472765,0.05902 -0.70616,0.105648 -0.341283,0.06818 -1.687581,0.421942 -1.94379,0.478745 -1.110962,0.246314 -2.239648,0.431856 -3.380264,0.443392 -0.258283,-0.01479 -0.517578,-0.01717 -0.774848,-0.04438 -0.137586,-0.01455 -0.941895,-0.17181 -1.089866,-0.189098 -0.59063,-0.069 -1.177907,-0.01426 -1.749412,0.149312 -0.317066,0.09676 -1.241126,0.382837 -1.534197,0.454065 -1.241729,0.301784 -2.516452,0.392255 -3.787905,0.254294 -0.435379,-0.06903 -0.867023,-0.16333 -1.304644,-0.216363 -0.907741,-0.110001 -1.805004,0.07237 -2.69948,0.206388 -0.61382,0.08637 -0.925158,0.14478 -1.540455,0.175035 -1.118997,0.05502 -2.237946,-0.06217 -3.354303,-0.117451 -0.667448,-0.03607 -0.835281,-0.08447 -1.481611,0.02564 -1.219483,0.207732 -2.366399,0.770152 -3.610742,0.871659 -0.266457,0.01259 -0.532789,0.04744 -0.799367,0.0378 -2.302796,-0.08326 1.136904,-0.07252 -1.166757,-0.239263 -0.567653,-0.04109 -0.891834,0.225365 -1.314752,0.541698 -0.30894,0.198985 -0.724765,0.538485 -1.132609,0.476247 -0.513226,-0.07832 -0.8479,-0.566684 -1.31748,-0.744019 -0.180665,-0.06155 -0.352928,-0.158546 -0.541999,-0.184652 -0.898972,-0.12414 -1.547714,0.634616 -2.126197,1.189709 -0.536895,0.460155 0.113861,1.219441 0.650756,0.759288 z" />
    <path
       style="fill:#0000ff;stroke-width:0.264583"
       id="path711"
       d="m 43.766911,74.518016 c 2.371937,-0.736258 4.8343,-1.060413 7.3029,-1.236948 1.992675,-0.04516 3.980886,-0.160295 5.969561,-0.285274 1.618641,-0.137014 3.219204,-0.41362 4.838139,-0.550807 1.005811,-0.02582 2.028706,-0.111201 3.031381,0.0084 0.484479,0.101176 1.031833,0.169743 1.422112,0.496924 0.556972,0.399124 0.869153,1.005372 1.19561,1.591191 0.591912,1.072602 0.776179,2.265982 0.915714,3.465293 0.08434,1.134618 0.134774,2.273975 0.334643,3.396237 0.05335,0.299548 0.201782,0.949224 0.273378,1.268925 0.180462,0.795843 0.459205,1.567299 0.842499,2.287278 0.218303,0.50496 0.389157,1.032076 0.499494,1.571231 0.108765,0.433816 0.231217,0.860113 0.39469,1.276533 0.152439,0.376396 0.162668,0.784434 0.162755,1.184637 -0.0072,0.447543 -0.03778,0.892109 0.01852,1.336797 0.08573,0.352232 0.137181,0.707101 0.145698,1.06908 0.08205,0.528146 0.388427,1.004274 0.68271,1.442723 0.365522,0.531871 0.793255,0.727781 1.423165,0.743566 0.56674,-0.05451 0.990891,-0.367966 1.393145,-0.743794 0.290816,-0.403 0.693541,-0.751797 0.916646,-1.20202 0.05586,-0.112723 0.09158,-0.234347 0.137374,-0.351523 0.260665,-0.802251 0.137041,-1.667068 0.09709,-2.495007 -0.02318,-0.853549 -0.02471,-1.702798 -0.111689,-2.552669 -0.01378,-0.708845 -0.316687,-1.3741 -0.352877,-2.075545 0.03572,-0.830641 0.03018,-1.66796 0.120841,-2.494878 0.07501,-0.776364 0.233476,-1.538422 0.301794,-2.315474 0.04639,-0.748356 0.0293,-1.498465 0.02029,-2.247614 0.03471,-0.606349 0.178242,-1.08756 0.495382,-1.597711 0.370637,-0.485052 0.807681,-0.910947 1.165702,-1.407223 0.223292,-0.349988 0.314076,-0.757539 0.567356,-1.087215 0.376576,-0.270145 0.782969,-0.499081 1.209133,-0.682165 0.491789,-0.226573 0.996656,-0.397066 1.537216,-0.444431 0.796695,-0.150231 1.574964,-0.370787 2.380739,-0.474869 1.241743,-0.117398 2.4774,-0.268526 3.723278,-0.343837 1.051099,-0.103333 2.10295,-0.18964 3.159244,-0.20579 0.727855,-0.01865 1.460203,0.01984 2.155033,0.249497 0.391851,0.159641 0.654418,0.456813 0.873578,0.804238 0.286808,0.3444 0.266454,0.738428 0.27119,1.164682 0.01048,0.125815 0.01402,0.252402 0.03143,0.377444 0.01341,0.09632 0.136409,0.691867 0.154133,0.794774 0.07897,0.458513 0.147098,0.920107 0.213561,1.380601 0.134562,1.096196 0.112163,2.203226 0.104738,3.305279 -0.05114,1.036698 0.01342,2.065591 0.10264,3.097426 0.11788,0.73881 0.222356,1.476513 0.242832,2.224958 0.0076,0.590847 0.119179,1.173385 0.155117,1.763369 0.0942,0.589867 0.132297,1.185151 0.324134,1.752899 0.117681,0.423667 0.395663,0.780185 0.537241,1.192241 0.170331,0.467056 0.565899,0.781826 0.960136,1.058334 0.581613,0.428077 1.078622,0.491831 1.78598,0.416872 0.571095,-0.06606 1.075399,-0.333282 1.5822,-0.582467 0.605733,-0.328438 1.158483,-0.74358 1.632513,-1.242383 0.60729,-0.653997 0.89544,-1.499081 1.12823,-2.342774 0.13244,-0.519316 0.14803,-1.05274 0.18498,-1.583412 0.0272,-0.389903 0.0731,-0.765392 0.072,-1.156867 -0.0548,-0.529995 -0.10374,-1.058701 -0.11569,-1.591606 -0.0319,-0.519052 -0.19877,-1.011793 -0.39818,-1.487461 -0.13231,-0.401222 -0.1378,-0.825691 -0.2215,-1.238885 -0.10252,-0.503648 -0.0635,-1.019464 -0.11418,-1.528633 -0.12815,-0.52773 -0.0496,-1.046911 0.008,-1.576602 0.052,-0.376637 -0.12799,-0.70439 -0.2058,-1.056743 -0.01,-0.04302 -0.002,-0.298175 -0.001,-0.320228 0.0466,-0.542581 -0.0615,-1.077918 -0.18358,-1.60302 -0.0301,-0.204783 -0.099,-0.413851 -0.0954,-0.623279 0.003,-0.16501 0.0678,-0.354598 0.0996,-0.515425 0.0508,-0.100012 0.0634,-0.216553 0.11524,-0.315947 0.0446,-0.08557 0.42494,-0.362767 0.513,-0.425598 0.46109,-0.327408 0.92797,-0.670856 1.45105,-0.892818 0.25621,-0.07698 0.52203,-0.03693 0.78367,-0.04379 0.22101,-0.0058 0.54076,-0.03707 0.76089,-0.05627 0.73665,-0.03872 1.46563,-0.111226 2.1917,-0.242282 0.83132,-0.153919 1.67588,-0.194815 2.51582,-0.277516 0.99369,-0.209939 2.00048,-0.160994 3.00648,-0.116441 0.81491,0.144095 1.64246,0.166479 2.46265,0.25721 0.83971,0.127341 1.68852,0.139247 2.53582,0.143084 0.84239,0.03371 1.67598,-0.03892 2.51157,-0.132763 0.64783,-0.08352 1.29219,-0.09114 1.93243,0.03976 0.37534,0.08226 0.71393,0.320744 1.09465,0.382611 0.12769,0.02074 0.40428,0.0249 0.55714,0.02873 0.28354,0.05864 0.46167,0.289927 0.59459,0.529891 0.19038,0.685567 0.37123,1.37355 0.53606,2.065742 0.0953,0.584796 0.15267,1.174925 0.22349,1.763694 0.0461,0.544764 0.17596,1.074907 0.20997,1.621169 -0.0852,0.764992 -0.15489,1.530342 -0.25277,2.293879 -0.05,0.73121 -0.18724,1.45102 -0.25554,2.180053 -0.0388,0.494905 -0.0268,0.991356 -0.0191,1.487074 0.007,0.583468 0.006,1.166993 0.006,1.750492 -0.0765,0.538885 -0.18353,1.066937 -0.14467,1.612164 0.0846,0.384972 0.14258,0.767998 0.15333,1.16173 0.055,0.46968 0.16534,0.923557 0.39236,1.339165 0.25526,0.357507 0.64001,0.575254 0.98226,0.83734 0.45659,0.300482 0.99993,0.282392 1.51866,0.205213 0.68962,-0.180842 1.34112,-0.466921 1.95531,-0.825121 0.7737,-0.434232 1.35674,-0.865614 1.92532,-1.549858 0.51768,-0.714828 0.8208,-1.55488 1.17841,-2.355538 0.30361,-0.604988 0.33111,-1.278699 0.415,-1.936374 0.0574,-0.601835 0.0681,-1.202063 0.14426,-1.801855 0.12278,-0.66807 0.26008,-1.332698 0.38982,-1.999419 0.0127,-0.09541 0.0343,-0.190053 0.0381,-0.286229 0.008,-0.209836 -0.0154,-0.419812 -0.0154,-0.629812 9e-5,-0.322368 0.009,-0.644866 0.0149,-0.96716 -0.046,-0.68616 -0.15502,-1.366425 -0.33714,-2.029336 -0.14975,-0.454554 -0.19295,-0.924949 -0.19283,-1.400138 5.3e-4,-0.62063 -0.12214,-1.236821 -0.23178,-1.845934 -0.077,-0.457406 -0.15813,-0.902536 0.0143,-1.342541 0.18138,-0.348715 0.34983,-0.533529 0.7408,-0.592516 0.50488,-0.08464 1.0109,-0.198061 1.52441,-0.190436 0.56148,0.04643 1.1271,0.02365 1.68656,0.08782 0.71481,0.103333 1.42156,0.259818 2.13239,0.389128 0.85909,0.178234 1.67219,0.05823 2.51391,-0.125185 0.70142,-0.05365 1.40592,0.01572 2.10788,0.03772 0.76686,0.01982 1.53404,0.01714 2.30108,0.01429 0.5391,-0.0681 1.07938,-0.117229 1.6216,-0.152284 0.11054,-0.0071 0.27758,0.07651 0.3317,-0.02013 0.15754,-0.281345 0.13901,-0.629738 0.20851,-0.944605 -0.22422,-0.07576 -0.44845,-0.151514 -0.67267,-0.227269 -0.67938,-0.196062 -0.95665,0.76473 -0.27727,0.960792 v 0 c 0.11764,0.02289 0.23528,0.0458 0.35293,0.0687 0.10929,-0.285261 0.33181,-0.550328 0.32786,-0.855782 -0.002,-0.113085 -0.2258,0.01326 -0.33865,0.02058 -0.52072,0.03382 -1.04131,0.07287 -1.55774,0.150003 -0.75538,0.0028 -1.5109,0.0056 -2.26611,-0.01381 -0.78318,-0.02439 -1.57109,-0.10967 -2.35207,-0.01527 -0.70367,0.153387 -1.40375,0.275032 -2.12263,0.118279 -0.73447,-0.132564 -1.46421,-0.296322 -2.20334,-0.399375 -0.59381,-0.06108 -1.19143,-0.05246 -1.78709,-0.09358 -0.58776,-5.29e-4 -1.16795,0.107164 -1.74492,0.213506 -0.1178,0.02935 -0.23915,0.04698 -0.35339,0.08805 -0.53687,0.193011 -0.88201,0.645986 -1.11543,1.144876 -0.21479,0.633206 -0.18411,1.202783 -0.0568,1.856192 0.0992,0.551249 0.21604,1.109044 0.21596,1.670265 0.002,0.565308 0.0558,1.126683 0.22981,1.668081 0.16272,0.568254 0.24483,1.154293 0.30031,1.742057 -0.006,0.33247 -0.0158,0.665236 -0.015,0.997783 2.6e-4,0.16306 0.0272,0.325591 0.0236,0.488609 -0.002,0.07525 -0.0187,0.149378 -0.028,0.224067 -0.1333,0.688245 -0.2761,1.374058 -0.40021,2.064147 -0.076,0.599771 -0.0923,1.199335 -0.14417,1.801228 -0.0715,0.560988 -0.0811,1.137764 -0.33611,1.655085 -0.32131,0.719542 -0.5935,1.474131 -1.03809,2.128618 -0.47695,0.589555 -1.00174,0.950777 -1.66085,1.323366 -0.50561,0.302967 -1.04824,0.530241 -1.61285,0.700159 -0.23638,0.04874 -0.51801,0.07455 -0.74708,-0.01471 -0.2448,-0.184941 -0.50111,-0.351633 -0.72944,-0.554378 -0.18967,-0.226095 -0.16774,-0.586174 -0.25136,-0.855515 -0.0127,-0.415226 -0.0598,-0.823817 -0.1575,-1.228397 -0.0767,-0.504372 0.14751,-1.011137 0.14926,-1.516073 2.3e-4,-0.588822 0.001,-1.177676 -0.006,-1.766466 -0.007,-0.45965 -0.0193,-0.919973 0.0149,-1.378969 0.0661,-0.717473 0.20379,-1.425747 0.25172,-2.145416 0.10594,-0.826535 0.19146,-1.655379 0.25878,-2.485808 -0.0379,-0.564653 -0.16111,-1.113661 -0.21504,-1.675974 -0.0756,-0.626438 -0.13436,-1.254774 -0.24356,-1.875957 -0.18815,-0.788686 -0.37301,-1.583095 -0.64982,-2.345883 -0.33103,-0.53439 -0.77429,-0.951728 -1.42863,-1.01759 -0.0721,-0.0019 -0.14432,-0.0085 -0.21641,-0.0054 -0.0271,0.0011 -0.0523,0.02188 -0.0791,0.01826 -0.41249,-0.0559 -0.77404,-0.353227 -1.18886,-0.405871 -0.74231,-0.140668 -1.48627,-0.153728 -2.23636,-0.05218 -0.7972,0.08953 -1.59161,0.160936 -2.39553,0.126527 -0.8128,-0.0035 -1.627,-0.01365 -2.43241,-0.137261 -0.84188,-0.08975 -1.68938,-0.121668 -2.52629,-0.262067 -1.05267,-0.04654 -2.10864,-0.09494 -3.14867,0.12028 -0.86704,0.08537 -1.73885,0.12827 -2.59679,0.288845 -0.69564,0.127622 -1.39401,0.191516 -2.09999,0.22995 -0.0706,0.0062 -0.55178,0.0503 -0.64998,0.05274 -0.40858,0.01019 -0.81807,-0.03111 -1.209,0.127717 -0.58604,0.262715 -1.12443,0.623366 -1.64128,1.002593 -0.50639,0.378788 -0.87256,0.712769 -1.01741,1.353871 -0.10383,0.526481 -0.15517,1.034118 0.003,1.558813 0.10492,0.451335 0.20469,0.909 0.15761,1.375902 0.003,0.283099 -0.01,0.34996 0.0534,0.639715 0.0461,0.211564 0.1711,0.403776 0.15958,0.629021 -0.0656,0.598231 -0.14362,1.195393 -0.009,1.791488 0.0627,0.538832 10e-4,1.089446 0.12864,1.622124 0.098,0.478972 0.0929,0.976839 0.28283,1.434684 0.15879,0.353751 0.27761,0.728596 0.31702,1.115166 0.0124,0.528534 0.053,1.054132 0.11548,1.579131 0.008,0.369427 -0.0453,0.727215 -0.0708,1.095568 -0.0318,0.459253 -0.0405,0.921412 -0.15121,1.371754 -0.18378,0.687334 -0.40607,1.386525 -0.89445,1.923036 -0.38102,0.419376 -0.852484,0.746221 -1.342601,1.027213 -0.406535,0.19989 -0.806264,0.428662 -1.263531,0.4874 -0.470527,0.07216 -0.710514,0.03498 -1.098774,-0.249754 -0.224912,-0.147341 -0.482132,-0.324675 -0.586283,-0.578305 -0.15417,-0.404087 -0.39234,-0.768339 -0.532341,-1.178612 -0.177396,-0.473954 -0.165653,-0.990243 -0.269439,-1.483048 -0.0364,-0.578903 -0.141819,-1.150755 -0.153604,-1.729849 -0.02241,-0.767511 -0.119872,-1.525706 -0.24615,-2.282798 -0.08657,-1.00108 -0.150431,-1.998602 -0.09894,-3.004553 0.0077,-1.152162 0.02919,-2.309455 -0.115014,-3.455159 -0.11742,-0.810046 -0.274643,-1.614316 -0.388917,-2.423002 -0.0092,-0.600498 -0.03773,-1.196509 -0.427357,-1.688086 -0.349571,-0.545936 -0.795642,-0.985462 -1.414003,-1.22038 -0.802571,-0.24842 -1.634717,-0.327266 -2.473891,-0.296487 -1.071258,0.01691 -2.138307,0.101269 -3.204226,0.207502 -1.269148,0.07718 -2.52804,0.230291 -3.792979,0.35052 -0.793192,0.105683 -1.564322,0.301826 -2.345002,0.470826 -0.644472,0.06456 -1.254818,0.249227 -1.842026,0.523137 -0.578438,0.254614 -1.161392,0.558459 -1.614385,1.005099 -0.247004,0.342636 -0.401791,0.718593 -0.576852,1.100299 -0.364982,0.519224 -0.844963,0.940893 -1.203717,1.46458 -0.409088,0.672071 -0.611555,1.341091 -0.643249,2.133177 0.0086,0.716287 0.02529,1.433441 -0.01662,2.14907 -0.06602,0.770715 -0.229362,1.526138 -0.299972,2.296578 -0.09133,0.88679 -0.0996,1.782929 -0.123724,2.673567 0.01304,0.148738 0.01667,0.298606 0.03911,0.446217 0.08427,0.554201 0.31438,1.088689 0.316299,1.658077 0.0855,0.831832 0.08238,1.663327 0.107632,2.498852 0.01995,0.413137 0.04737,0.826699 0.05679,1.240259 0.0024,0.103507 0.0075,0.471982 -0.015,0.595976 -0.01677,0.09227 -0.05343,0.179792 -0.08015,0.26969 -0.140954,0.459626 -0.527087,0.78041 -0.79919,1.166138 -0.211423,0.200771 -0.413559,0.386564 -0.697468,0.472133 -0.280156,0.0053 -0.444428,-0.04459 -0.605713,-0.304565 -0.19508,-0.284295 -0.376703,-0.592987 -0.510897,-0.907693 -0.01119,-0.401722 -0.05857,-0.798726 -0.156117,-1.189418 -0.07537,-0.390126 0.01421,-0.797549 -0.0078,-1.192353 -0.0016,-0.525573 -0.03172,-1.057111 -0.232701,-1.550257 -0.144606,-0.363194 -0.247992,-0.73487 -0.3458,-1.113232 -0.133575,-0.631158 -0.328623,-1.25141 -0.596688,-1.838819 -0.34367,-0.638662 -0.586259,-1.327476 -0.748435,-2.034175 -0.05954,-0.265684 -0.216101,-0.953257 -0.26052,-1.200407 -0.199659,-1.110983 -0.242622,-2.239825 -0.330152,-3.362883 -0.157734,-1.329312 -0.376349,-2.650345 -1.036185,-3.836824 -0.397261,-0.707503 -0.796406,-1.427702 -1.473486,-1.90678 -0.10946,-0.07627 -0.212598,-0.162528 -0.328382,-0.228804 -0.473956,-0.271301 -1.052729,-0.347702 -1.576906,-0.458007 -1.069972,-0.11444 -2.154994,-0.05229 -3.227673,-0.01109 -1.611604,0.137263 -3.205348,0.408456 -4.816221,0.549185 -1.991664,0.12523 -3.982866,0.239633 -5.978507,0.285877 -2.560246,0.184862 -5.114901,0.523095 -7.572774,1.294516 -0.664583,0.241515 -0.323027,1.181378 0.341556,0.939861 z" />
    <path
       style="fill:#0000ff;stroke-width:0.264583"
       id="path715"
       d="m 112.81314,56.925439 c 0.79667,3.638349 1.09192,7.379124 1.08738,11.09952 -8e-4,0.728766 -0.036,1.457089 -0.0541,2.185633 -0.0857,0.87422 -0.10836,1.82704 -0.40128,2.676194 -0.23564,0.683099 -0.24118,0.501637 -0.28907,0.275066 -0.67743,0.202721 -0.39074,1.160746 0.28669,0.958025 v 0 c 0.20302,-0.108498 0.4491,-0.159952 0.60906,-0.325491 0.69371,-0.717939 0.6838,-2.714043 0.79429,-3.559288 0.0181,-0.743088 0.0535,-1.485959 0.0542,-2.229266 0.003,-3.804168 -0.3014,-7.629419 -1.1237,-11.348111 -0.18931,-0.681297 -1.15281,-0.413576 -0.9635,0.267718 z" />
    <path
       style="fill:#0000ff;stroke-width:0.264583"
       id="path719"
       d="m 111.28718,71.609917 c 0.48757,0.770629 0.79091,1.632461 1.13162,2.472204 0.14016,0.345432 0.34506,1.06295 0.78928,1.217591 0.31585,0.109953 0.66886,0.0057 1.00329,0.0086 0.97581,-0.629703 0.91593,-0.507484 1.71806,-1.36108 0.21321,-0.226899 0.42684,-0.457449 0.59811,-0.717473 0.11335,-0.172093 0.16504,-0.377645 0.24757,-0.566468 0.25612,-0.65909 -0.67597,-1.02131 -0.9321,-0.36222 v 0 c -0.0285,0.09691 -0.0301,0.206312 -0.0855,0.290722 -0.4501,0.684673 -1.10374,1.230413 -1.73708,1.734926 -0.10336,0.168997 -0.1598,0.434509 -0.38532,0.07532 -0.13239,-0.210849 -0.19341,-0.458851 -0.28707,-0.689525 -0.36943,-0.909828 -0.70319,-1.841336 -1.23883,-2.672123 -0.4027,-0.581231 -1.22469,-0.01172 -0.82199,0.569508 z" />
    <path
       style="fill:#0000ff;stroke-width:0.264583"
       id="path721"
       d="m 106.06025,79.111831 c 0.6293,-0.591968 1.15982,-1.32769 1.91435,-1.777307 0.14518,-0.08651 0.30974,-0.179403 0.47835,-0.167997 0.0666,0.0045 -0.0136,0.133006 -0.0261,0.198596 -0.0232,0.121725 -0.0539,0.241896 -0.0808,0.362842 -0.056,0.321609 -0.0872,0.648512 -0.16795,0.964824 -0.39243,1.538071 -1.12426,3.24543 -2.31651,4.339183 -0.15021,0.1378 -0.33676,0.229791 -0.50514,0.344688 -0.109,0.03084 -0.21801,0.06168 -0.32702,0.09252 -0.0242,-0.02024 -0.10243,-0.071 -0.0726,-0.0607 0.118,0.04076 0.2561,0.06261 0.34159,0.153596 0.0828,0.08813 0.0109,0.296513 0.12325,0.341174 0.13254,0.05268 0.2682,-0.100041 0.40761,-0.130172 0.22587,-0.04882 0.45674,-0.07067 0.68511,-0.106005 1.23554,-0.09893 2.46703,0.07668 3.70057,0.09825 0.70702,0.01119 0.72283,-0.98869 0.0158,-0.999877 v 0 c -1.29437,-0.01807 -2.58777,-0.216413 -3.88389,-0.08424 -0.33141,0.06022 -1.27131,0.162856 -1.56809,0.45607 -1.1486,1.134803 0.35961,1.619954 1.15775,1.053949 0.22338,-0.164092 0.46855,-0.30204 0.67013,-0.492273 1.26201,-1.19095 2.20381,-3.191351 2.56191,-4.868481 0.0932,-0.43655 0.10073,-0.887077 0.1511,-1.330614 -0.13382,-0.335235 -0.14905,-0.747688 -0.40147,-1.005705 -1.06524,-1.088832 -2.99303,1.35777 -3.62594,1.977282 -0.45283,0.543084 0.3152,1.183489 0.76803,0.640405 z" />
    <path
       style="fill:#0000ff;stroke-width:0.264583"
       id="path723"
       d="m 113.22663,76.995524 c -0.24942,0.167132 -0.51906,0.307473 -0.74827,0.501394 -1.08752,0.920067 -2.34904,2.747994 -2.10986,4.259863 0.0573,0.362418 0.2853,0.676121 0.42795,1.014182 0.3121,0.224639 0.58063,0.527722 0.93629,0.673918 1.21956,0.501319 3.14678,0.08996 3.98688,-0.954392 0.15715,-0.195353 0.22879,-0.446191 0.34319,-0.669285 0.28857,-0.645543 -0.62437,-1.053645 -0.91294,-0.408101 v 0 c -0.0365,0.114512 -0.0424,0.243872 -0.10956,0.343538 -0.53112,0.787873 -1.91075,1.047154 -2.77754,0.840266 -0.20369,-0.04862 -0.37917,-0.177887 -0.56876,-0.26683 -0.10893,-0.174122 -0.28148,-0.322043 -0.32681,-0.522372 -0.14004,-0.618948 0.12408,-1.303348 0.39132,-1.832372 0.4276,-0.846481 1.05096,-1.554033 1.85269,-2.056714 0.65272,-0.271934 0.26815,-1.195028 -0.38458,-0.923095 z" />
    <path
       style="fill:#0000ff;stroke-width:0.264583"
       id="path725"
       d="m 117.24797,67.680665 c 0.50075,-1.26918 0.8853,-2.581257 1.25023,-3.894654 0.13825,-0.497554 0.3648,-1.538986 0.6247,-2.079114 0.0273,-0.05677 0.10101,-0.07531 0.15152,-0.112967 -0.17368,0.0967 -0.46162,0.100404 -0.52103,0.290103 -0.0692,0.221107 0.14944,0.438637 0.22412,0.657968 0.37522,1.101894 0.75012,2.201627 1.24843,3.255944 0.12798,0.270777 0.27713,0.531027 0.41569,0.796541 0.51103,0.842063 0.17511,0.817523 1.00229,-0.09975 -0.56338,-0.427316 -1.1677,0.369427 -0.60431,0.796745 v 0 c 1.03977,-0.719302 0.96276,-0.331947 0.4879,-1.160918 -0.48778,-0.927949 -0.88905,-1.866641 -1.24373,-2.854518 -0.0159,-0.04423 -0.62515,-1.899843 -0.74025,-2.004946 -0.26354,-0.240642 -0.67572,-0.229892 -1.01357,-0.344837 -0.11639,0.148428 -0.26487,0.276553 -0.34915,0.445288 -0.25169,0.503841 -0.51584,1.677713 -0.64334,2.13699 -0.3536,1.273728 -0.72547,2.546442 -1.20861,3.778141 -0.27859,0.649915 0.64053,1.043898 0.91911,0.393981 z" />
    <path
       style="fill:#0000ff;stroke-width:0.264583"
       id="path727"
       d="m 118.09852,65.64871 c 0.92308,-0.06855 1.84324,-0.124923 2.76497,-0.02564 0.7034,0.07232 0.80567,-0.92244 0.10227,-0.994756 v 0 c -0.98189,-0.09692 -1.96074,-0.05731 -2.94366,0.02331 -0.70504,0.05404 -0.62862,1.051112 0.0764,0.997074 z" />
    <path
       style="fill:#0000ff;stroke-width:0.264583"
       id="path729"
       d="m 122.42288,61.572319 c 0.27616,2.33295 0.30817,4.693243 0.71879,7.010133 0.19825,0.136284 0.3965,0.272568 0.59475,0.408853 0.70665,-0.02519 0.67104,-1.024549 -0.0356,-0.999369 v 0 c 0.14178,0.138298 0.28355,0.276596 0.42532,0.414891 -0.41496,-2.309323 -0.42732,-4.665911 -0.7155,-6.990596 -0.11037,-0.698439 -1.09811,-0.542351 -0.98774,0.156088 z" />
    <path
       style="fill:#0000ff;stroke-width:0.264583"
       id="path731"
       d="m 125.89121,64.485554 c -0.48968,0.463179 -0.95274,0.957167 -1.39128,1.469064 -0.19989,0.23332 -0.55331,0.610878 -0.59167,0.951365 -0.0236,0.209328 0.0607,0.416912 0.091,0.625369 0.21674,0.17281 0.40599,0.387303 0.65021,0.518427 0.23375,0.125511 0.50289,0.170646 0.75941,0.238427 0.71057,0.187762 1.44229,0.301048 2.17048,0.389189 0.70215,0.08355 0.82032,-0.909439 0.11816,-0.992995 v 0 c -0.67697,-0.07901 -1.34278,-0.199903 -2.00685,-0.355668 -0.18004,-0.04223 -0.35397,-0.110977 -0.53626,-0.142103 -0.0696,-0.01188 -0.14084,0.0097 -0.21126,0.01447 -0.0345,0.02304 -0.0929,0.109238 -0.1036,0.06912 -0.0523,-0.196649 0.39635,-0.638037 0.40487,-0.647991 0.16478,-0.192482 0.73969,-0.822169 0.91527,-1.00349 0.12399,-0.128046 0.25483,-0.249262 0.38225,-0.373894 0.5369,-0.460153 -0.11386,-1.219441 -0.65075,-0.759285 z" />
    <path
       style="fill:#0000ff;stroke-width:0.264583"
       id="path733"
       d="m 128.02269,62.417557 c 0.36188,1.305967 0.29399,2.673064 0.34406,4.013271 0.0123,0.330502 0.005,0.663361 0.0502,0.990926 0.0379,0.271674 0.1328,0.532283 0.1992,0.798425 0.14167,0.186399 0.22812,0.432493 0.42499,0.559194 0.73752,0.474634 1.64508,0.06439 2.16091,-0.523605 0.16995,-0.193725 0.26536,-0.441849 0.39804,-0.662773 0.33788,-0.621157 -0.54056,-1.098995 -0.87844,-0.477838 v 0 c -0.0565,0.126873 -0.0885,0.26782 -0.16953,0.380619 -0.22705,0.316058 -0.34593,0.303798 -0.63124,0.501978 -0.0484,0.03362 -0.0739,0.122574 -0.13257,0.116983 -0.0841,-0.008 -0.13674,-0.09943 -0.20511,-0.149156 -0.0558,-0.198189 -0.13921,-0.39062 -0.16754,-0.594572 -0.0444,-0.319415 -0.0372,-0.643932 -0.0492,-0.966189 -0.0544,-1.457852 0.0147,-2.945815 -0.41535,-4.358905 -0.26278,-0.65646 -1.19116,-0.284818 -0.92837,0.371642 z" />
    <path
       style="fill:#0000ff;stroke-width:0.264583"
       id="path735"
       d="m 128.12008,65.212181 c 0.6096,-0.21641 1.24684,-0.277656 1.88591,-0.327617 0.70475,-0.05772 0.62312,-1.054386 -0.0816,-0.996664 v 0 c -0.71818,0.06115 -1.43498,0.132548 -2.12026,0.375517 -0.67088,0.22343 -0.3549,1.172197 0.31598,0.948764 z" />
    <path
       style="fill:#0000ff;stroke-width:0.264583"
       id="path737"
       d="m 131.31398,64.992593 c 0.0318,0.862272 -0.061,1.819791 0.20461,2.657166 0.0313,0.09867 0.0922,0.185348 0.13832,0.278024 0.37844,0.59731 1.22316,0.0621 0.84472,-0.535205 v 0 c -0.0124,0.16351 -0.007,0.159017 -0.0811,-0.308411 -0.081,-0.510786 -0.0948,-0.80218 -0.1065,-1.336821 -0.006,-0.251526 0,-0.503169 0,-0.754753 0,-0.707107 -1.00001,-0.707107 -1.00001,0 z" />
    <path
       style="fill:#0000ff;stroke-width:0.264583"
       id="path741"
       d="m 131.33025,62.743331 c 0.16256,-0.7081 0.0722,-0.350542 0.27246,-1.072301 0.18845,-0.681532 -0.77538,-0.948039 -0.96383,-0.266507 v 0 c -0.21137,0.766765 -0.11744,0.392644 -0.28476,1.121606 -0.15358,0.690226 0.82254,0.907425 0.97613,0.217202 z" />
    <path
       style="fill:#0000ff;stroke-width:0.264583"
       id="path743"
       d="m 135.90316,66.663625 c 0.64831,-1.188564 0.83112,-2.534018 1.02519,-3.852805 0.0286,-0.194185 0.25884,-0.489547 0.086,-0.582514 -0.30714,-0.165185 -0.69603,0.04483 -1.04405,0.06724 -0.0875,0.391896 -0.17181,0.784527 -0.26253,1.175692 -0.61212,2.639174 -0.30069,1.179433 -0.95458,4.072575 -0.39776,1.759839 -0.74382,3.528494 -1.17458,5.280454 -0.35911,0.722198 -0.29351,0.706368 -0.61442,0.186758 -0.61384,-0.350998 -1.11023,0.517102 -0.49639,0.868101 v 0 c 0.29177,0.115046 0.5617,0.349179 0.8753,0.345138 0.83277,-0.01072 0.91572,-0.586009 1.20664,-1.161468 0.431,-1.756423 0.7789,-3.528983 1.1776,-5.293103 0.64742,-2.86462 0.34706,-1.453052 0.95641,-4.080613 0.0891,-0.384156 0.17173,-0.769776 0.2576,-1.154665 -0.30543,-0.150707 -0.57861,-0.496528 -0.91629,-0.45212 -0.19508,0.02566 -0.0577,0.389263 -0.0862,0.583956 -0.17354,1.187842 -0.32302,2.405396 -0.89308,3.482679 -0.36394,0.606255 0.49343,1.120949 0.85738,0.514695 z" />
    <path
       style="fill:#0000ff;stroke-width:0.264583"
       id="path745"
       d="m 132.22205,69.332789 c 1.32416,-0.348575 2.68477,-0.539642 4.03627,-0.749326 0.69874,-0.108443 0.54538,-1.096614 -0.15336,-0.988169 v 0 c -1.39897,0.217186 -2.80743,0.415586 -4.1769,0.781685 -0.67586,0.207878 -0.38187,1.16369 0.29399,0.95581 z" />
    <path
       style="fill:#0000ff;stroke-width:0.264583"
       id="path747"
       d="m 145.03447,64.048721 c 0.0641,-0.190651 0.13385,-0.379473 0.1922,-0.57195 0.13652,-0.450339 0.28046,-1.013105 0.37462,-1.473787 0.0378,-0.18484 0.0602,-0.372507 0.0939,-0.558152 0.006,-0.03061 0.0544,-0.09458 0.0236,-0.09031 -0.3548,0.04922 -0.69942,0.155046 -1.04913,0.232572 -0.20149,1.24827 -0.48616,2.490152 -0.60862,3.750423 -0.0603,0.620885 -0.14806,1.812817 0.10334,2.45504 0.12144,0.310206 0.38704,0.542303 0.58056,0.813454 0.35995,0.09964 0.70652,0.288308 1.07986,0.298913 0.55582,0.0158 1.57835,-0.382183 2.05577,-0.65898 0.26832,-0.155559 0.49568,-0.372917 0.74352,-0.559376 0.55879,-0.433301 -0.054,-1.223553 -0.61279,-0.790253 v 0 c -0.18135,0.146352 -0.34474,0.318323 -0.54408,0.439058 -0.58378,0.353581 -1.27161,0.578985 -1.9497,0.635722 -0.12199,-0.112778 -0.30117,-0.185364 -0.36599,-0.338338 -0.23847,-0.562809 -0.15162,-1.62673 -0.10076,-2.152245 0.12141,-1.254636 0.40603,-2.490751 0.60601,-3.733454 -0.3031,-0.210124 -0.57836,-0.467569 -0.90929,-0.630372 -0.0504,-0.02479 -0.0286,0.108741 -0.0387,0.163999 -0.0301,0.165272 -0.0484,0.332663 -0.0818,0.4973 -0.0915,0.450689 -0.21861,0.942872 -0.34942,1.384007 -0.0479,0.16157 -0.10458,0.320415 -0.15686,0.480621 -0.28716,0.646176 0.62667,1.052277 0.91382,0.406103 z" />
    <path
       style="fill:#0000ff;stroke-width:0.264583"
       id="path749"
       d="m 143.22387,65.957018 c 1.36258,-0.139922 2.72187,-0.294968 4.07658,-0.497644 0.69931,-0.104778 0.55113,-1.093738 -0.14817,-0.98896 v 0 c -1.35598,0.203478 -2.71694,0.355518 -4.08056,0.498245 -0.69887,0.107582 -0.54672,1.095941 0.15215,0.988359 z" />
    <path
       style="fill:#0000ff;stroke-width:0.264583"
       id="path751"
       d="m 151.03761,66.384706 c 0.43129,-0.213828 0.86386,-0.393395 1.22607,-0.726313 0.59375,-0.545713 0.95524,-1.320726 0.57534,-2.111261 -0.10997,-0.22883 -0.32973,-0.386146 -0.49459,-0.579218 -0.26954,-0.07707 -0.52852,-0.242901 -0.80862,-0.231219 -0.7227,0.03014 -1.20434,0.51381 -1.60672,1.0477 -0.42548,0.564544 -0.72034,1.284004 -0.88972,1.964652 -0.0798,0.320646 -0.10065,0.65314 -0.15097,0.979708 0.0284,0.502509 -0.0479,1.075377 0.38071,1.471498 0.54083,0.499825 1.06819,0.390337 1.68113,0.103487 0.57606,-0.269592 1.02983,-0.804304 1.46371,-1.241748 1.0515,-1.338792 0.0628,-0.05489 0.84096,-1.122659 0.0477,-0.06539 0.2318,-0.175448 0.15206,-0.189214 -0.23206,-0.04007 -0.46788,0.05561 -0.70013,0.09459 -0.0303,0.0051 -0.0819,0.0065 -0.0843,0.03707 -0.0119,0.15253 0.0305,0.304462 0.0458,0.456692 0.0449,0.269769 0.0806,0.762019 0.31084,0.967505 0.18366,0.163893 0.44418,0.212312 0.66628,0.318468 0.69286,0.141187 0.89253,-0.838676 0.19967,-0.979863 v 0 c 0.004,0.06182 0.075,0.177726 0.0135,0.185454 -0.20599,0.02588 -0.11195,-0.732395 -0.19531,-0.591402 -0.016,-0.159599 -0.0713,-0.966771 -0.20354,-1.052041 -0.78447,-0.506008 -0.99505,0.16556 -1.32227,0.608425 -0.14196,0.192127 -0.29197,0.378169 -0.43796,0.567254 -0.18597,0.192749 -0.36061,0.397113 -0.5579,0.578249 -0.35688,0.327639 -0.50424,0.401693 -0.86231,0.638514 -0.0518,0.03423 -0.0949,0.123274 -0.15406,0.10451 -0.30275,-0.09605 -0.23475,-0.670136 -0.2474,-0.809979 0.037,-0.270325 0.05,-0.545058 0.11109,-0.810975 0.15605,-0.678995 0.68931,-2.006462 1.37867,-2.340139 0.0822,-0.0398 0.17996,-0.03147 0.26993,-0.0472 0.0811,0.05274 0.17601,0.08874 0.24334,0.158218 0.64491,0.665547 -0.72974,1.409192 -1.18483,1.611376 -0.66459,0.241515 -0.32303,1.181378 0.34155,0.939861 z" />
    <path
       style="fill:#0000ff;stroke-width:0.264583"
       id="path753"
       d="m 156.61541,62.042201 c -0.63264,0.319251 -1.57092,0.738203 -1.65772,1.563692 -0.054,0.513289 0.16467,0.738288 0.40369,1.14335 0.42472,0.555775 0.82337,1.487736 0.0862,1.993667 -0.0943,0.06475 -0.21198,0.08627 -0.31797,0.12941 -0.33158,-0.01243 -0.64033,-0.159377 -0.85414,-0.419777 -0.0162,-0.01974 0.0793,-0.01394 0.0757,0.01132 -0.17743,0.666829 -0.14631,0.406662 -0.17758,0.765746 0.80702,0.487358 1.15318,1.367544 1.68598,2.091 0.21152,0.08236 0.40759,0.243348 0.63454,0.247076 0.54899,0.009 0.89808,-0.368975 1.28456,-0.66961 0.54749,-0.447511 -0.0854,-1.221764 -0.63287,-0.774253 v 0 c -0.16591,0.146433 -0.38187,0.260329 -0.47987,0.458734 -0.0199,0.04039 -0.006,0.08992 -0.009,0.134874 -0.25933,-0.329181 -0.42187,-0.710345 -0.6661,-1.05224 -0.37883,-0.530299 -0.82623,-1.00363 -1.38974,-1.339474 -0.65502,-0.172971 -0.97827,-0.506074 -1.17433,0.520158 -0.0288,0.150825 0.12868,0.285363 0.23486,0.396295 0.13528,0.141349 0.29945,0.258297 0.47477,0.345147 0.70488,0.349173 0.71315,0.24095 1.47231,0.162605 0.20664,-0.12763 0.44235,-0.217184 0.61992,-0.382887 0.97611,-0.910855 0.66194,-2.204596 -0.0248,-3.156177 -0.0621,-0.08395 -0.11735,-0.173363 -0.18618,-0.25186 -0.0467,-0.05322 -0.19194,-0.08656 -0.12177,-0.209457 0.21271,-0.372539 0.68252,-0.564597 1.03526,-0.758587 0.67088,-0.22343 0.3549,-1.172197 -0.31598,-0.948764 z" />
    <path
       style="fill:#0000ff;stroke-width:0.264583"
       id="path755"
       d="m 159.34239,62.571674 c -0.0337,0.915715 -0.0772,1.831028 -0.11698,2.746486 -0.0204,0.469802 -0.0784,0.957752 -0.0227,1.42697 0.33023,0.02236 0.66046,0.04469 0.99068,0.06703 0.37399,-0.600112 -0.4747,-1.129006 -0.84869,-0.528891 v 0 c 0.28166,0.100288 0.56331,0.200575 0.84497,0.30086 -0.0815,-0.174373 -0.0166,-0.02135 0.004,-0.495731 0.0104,-0.242022 0.0204,-0.484063 0.0309,-0.72608 0.0404,-0.930167 0.0851,-1.860166 0.11796,-2.790648 0,-0.707107 -1,-0.707107 -1,0 z" />
    <path
       style="fill:#0000ff;stroke-width:0.264583"
       id="path757"
       d="m 162.11075,63.269023 c -0.0196,0.859489 0.0335,1.717535 0.11214,2.57292 0.006,0.06981 0.0886,1.227293 0.23909,1.377304 0.1976,0.196956 0.50942,0.2277 0.76414,0.341553 1.03937,-1.099783 0.63051,-0.519025 1.35846,-1.922973 0.20791,-0.400986 0.40959,-0.805174 0.61636,-1.206748 0.25951,-0.504013 0.66615,-1.328087 1.0054,-1.828986 0.0761,-0.112418 0.18004,-0.203295 0.27005,-0.304943 -0.0733,0.0579 -0.14654,0.115795 -0.21981,0.173694 -0.13592,-0.03441 -0.28767,-0.175585 -0.40778,-0.10323 -0.0881,0.05308 0.0276,0.212704 0.0884,0.295632 0.12328,0.168011 0.25188,0.366052 0.44826,0.435764 0.63481,0.225356 0.99471,-0.09339 1.51603,-0.356111 0.40376,-0.192013 0.70279,-0.549058 1.09141,-0.763921 0.0356,-0.01968 0.16179,0.01553 0.12183,0.0079 -0.16784,-0.03216 -0.35483,-0.160902 -0.50616,-0.08151 -0.12066,0.0633 -0.0659,0.264448 -0.0959,0.397348 -0.0557,0.246304 -0.1075,0.493467 -0.16124,0.740199 -0.12587,0.660529 -0.35981,1.326808 -0.38479,2.005467 -0.005,0.144587 0.025,0.28829 0.0375,0.432433 0.0883,0.701579 1.08043,0.576773 0.99219,-0.124804 v 0 c -0.0712,-0.319374 -0.0557,-0.155705 0.0267,-0.662446 0.10372,-0.637468 0.14965,-0.775284 0.30605,-1.440759 0.0503,-0.237358 0.34252,-1.409136 0.22468,-1.673762 -0.43989,-0.987833 -1.08358,-0.453017 -1.60677,-0.08315 -0.1757,0.124211 -0.35209,0.247456 -0.52813,0.371184 -0.13121,0.08356 -0.27364,0.151661 -0.39361,0.250663 -0.0441,0.03641 -0.0628,0.09597 -0.0884,0.147098 -0.0179,0.03558 -0.0188,0.144521 -0.0416,0.11194 -0.0596,-0.08494 -0.0288,-0.213945 -0.0892,-0.298294 -0.56318,-0.785654 -0.38219,-0.666948 -1.09026,-0.430551 -0.12337,0.14832 -0.26198,0.285189 -0.3701,0.44496 -0.34434,0.508812 -0.77001,1.368039 -1.03535,1.883381 -0.20519,0.398515 -0.40636,0.799095 -0.61162,1.197578 -0.17244,0.334762 -0.38059,0.652915 -0.52146,1.002141 -0.0487,0.120801 -0.0264,0.259176 -0.0396,0.388763 0.0956,0.127966 0.12891,0.407395 0.28694,0.3839 0.14055,-0.0209 -0.098,-0.268383 -0.12215,-0.408403 -0.0444,-0.257283 -0.0588,-0.518901 -0.0829,-0.778875 -0.0769,-0.828556 -0.12858,-1.659705 -0.10888,-2.492314 0,-0.707107 -1,-0.707107 -1,0 z" />
    <path
       style="fill:#0000ff;stroke-width:0.264583"
       id="path761"
       d="m 173.0888,64.468599 c 0.33979,-0.555508 0.57196,-1.158512 0.55178,-1.820354 -0.005,-0.178203 -0.0173,-0.364125 -0.0889,-0.527421 -0.0793,-0.180954 -0.18138,-0.376669 -0.35139,-0.4773 -0.20819,-0.12323 -0.47329,-0.1006 -0.70994,-0.150897 -0.22918,0.104447 -0.47842,0.173 -0.68756,0.313346 -0.87956,0.59024 -1.42867,1.76684 -1.46484,2.806887 -0.008,0.231916 0.0456,0.461865 0.0684,0.692799 0.0848,0.189172 0.12642,0.404519 0.25455,0.567515 0.47075,0.598832 1.25599,0.687747 1.93653,0.439166 0.62544,-0.228457 0.79986,-0.489574 1.27084,-0.937969 0.14894,-0.220448 0.3196,-0.427683 0.44682,-0.661339 0.32378,-0.594667 0.59302,-1.513136 0.5198,-2.205752 -0.0121,-0.114943 -0.0545,-0.224658 -0.0817,-0.336987 -0.23822,-0.09881 -0.46306,-0.353094 -0.71467,-0.296439 -0.22796,0.05133 -0.32294,0.34607 -0.42943,0.554064 -0.25004,0.488394 -0.31478,1.556107 -0.27697,2.091783 0.0164,0.233063 0.0733,0.461504 0.1099,0.692258 0.0804,0.190058 0.1188,0.403947 0.24106,0.570172 0.59147,0.804153 1.62583,0.529182 2.28648,-0.0075 0.12243,-0.09946 0.2163,-0.229645 0.32446,-0.344469 0.46953,-0.528711 -0.27818,-1.192736 -0.74772,-0.664025 v 0 c -0.14785,0.187288 -0.17642,0.253498 -0.40208,0.387917 -0.0915,0.05454 -0.20014,0.07525 -0.29375,0.126177 -0.0511,0.02777 -0.16045,0.192654 -0.25711,0.08789 -0.0822,-0.08905 -0.11031,-0.215775 -0.16546,-0.323664 -0.10431,-0.564656 -0.13115,-0.533691 -0.0955,-1.147472 0.0115,-0.198075 0.0365,-0.395562 0.0705,-0.591037 0.0266,-0.152984 0.12451,-0.297725 0.11105,-0.452427 -0.0234,-0.268943 -1.56273,0.793237 -0.71426,-0.381751 0.0996,0.0923 0.054,0.03422 0.0377,0.309692 -0.0403,0.681601 -0.26818,1.329309 -0.67155,1.881077 -0.36565,0.379558 -0.63555,0.667522 -1.16219,0.785569 -0.10841,0.02429 -0.34341,0.06252 -0.45097,-0.0273 -0.0725,-0.06055 -0.10264,-0.158605 -0.15395,-0.237908 -0.0235,-0.143619 -0.0701,-0.285322 -0.0706,-0.430853 -0.003,-0.922171 0.48673,-1.684046 1.16645,-2.259449 -0.004,-0.0513 -0.0338,-0.106725 -0.0132,-0.153897 0.0123,-0.02816 0.0731,-0.047 0.0897,-0.02117 0.26695,0.413335 -0.0989,1.24124 -0.31443,1.596271 -0.39229,0.588309 0.4397,1.143092 0.83199,0.554783 z" />
  </g>
</svg>
