<?xml version="1.0" encoding="UTF-8" standalone="no"?>
<!-- Created with Inkscape (http://www.inkscape.org/) -->

<svg
   width="148.41766mm"
   height="109.69862mm"
   viewBox="0 0 148.41766 109.69862"
   version="1.1"
   id="svg60268"
   inkscape:version="1.2.2 (b0a8486541, 2022-12-01)"
   sodipodi:docname="partenogenez.svg"
   xmlns:inkscape="http://www.inkscape.org/namespaces/inkscape"
   xmlns:sodipodi="http://sodipodi.sourceforge.net/DTD/sodipodi-0.dtd"
   xmlns="http://www.w3.org/2000/svg"
   xmlns:svg="http://www.w3.org/2000/svg">
  <sodipodi:namedview
     id="namedview60270"
     pagecolor="#ffffff"
     bordercolor="#000000"
     borderopacity="0.25"
     inkscape:showpageshadow="2"
     inkscape:pageopacity="0.0"
     inkscape:pagecheckerboard="0"
     inkscape:deskcolor="#d1d1d1"
     inkscape:document-units="mm"
     showgrid="true"
     inkscape:zoom="0.44202389"
     inkscape:cx="1.1311606"
     inkscape:cy="807.64865"
     inkscape:window-width="1920"
     inkscape:window-height="1080"
     inkscape:window-x="0"
     inkscape:window-y="0"
     inkscape:window-maximized="1"
     inkscape:current-layer="layer1">
    <inkscape:grid
       type="xygrid"
       id="grid64535"
       units="mm"
       spacingx="5"
       spacingy="5"
       empspacing="1"
       originx="-52.217789"
       originy="18.7942" />
  </sodipodi:namedview>
  <defs
     id="defs60265" />
  <g
     inkscape:label="Layer 1"
     inkscape:groupmode="layer"
     id="layer1"
     transform="translate(-52.217792,18.7942)">
    <path
       style="fill:#000000;fill-opacity:0;stroke:#000000;stroke-width:1;stroke-linecap:round;stroke-linejoin:round;stroke-opacity:1"
       d="m 60.837693,14.848868 c 0.0777,-1.336394 -1.138203,-2.85862 -2.564164,-2.85862 -1.310916,0 -2.415017,1.081089 -2.76111,2.267394 -0.199747,0.684671 -0.07663,1.479377 0,2.168342 0.141187,1.269291 0.625396,2.705988 1.972167,3.154619 0.409747,0.136493 0.862597,0.09867 1.282274,0.09867 0.659506,0 1.346287,-0.01868 1.873501,-0.492945 0.544359,-0.489691 1.110084,-1.434203 1.183609,-2.168728 0.144213,-1.440745 -0.667705,-3.624712 -1.676554,-4.633069 -0.258106,-0.257979 -1.134303,-1.031759 -1.676553,-0.887224 -0.498436,0.132855 -1.044075,1.084688 -1.183225,1.478835 -0.08819,0.249793 -0.06578,0.525706 -0.09867,0.788559"
       id="path65650" />
    <path
       style="fill:#000000;fill-opacity:0;stroke:#000000;stroke-width:1;stroke-linecap:round;stroke-linejoin:round;stroke-opacity:1"
       d="m 57.977918,15.933425 c 0.295867,-0.262982 0.607647,-0.509087 0.887608,-0.788944 0.411125,-0.410971 0.76468,-0.877706 1.183224,-1.281118 0.218152,-0.210265 2.777617,-2.415826 3.057107,-2.661673 0.504582,-0.443846 1.444228,-1.078376 1.676554,-1.7744492"
       id="path65654" />
    <path
       style="fill:#000000;fill-opacity:0;stroke:#000000;stroke-width:1;stroke-linecap:round;stroke-linejoin:round;stroke-opacity:1"
       d="m 62.908526,9.920186 c 0.26298,-0.065777 0.553553,-0.06288 0.788942,-0.1973323 0.468011,-0.2673226 0.83339,-0.6866022 1.281891,-0.9855049 0.0611,-0.040721 -0.07851,0.1263409 -0.09867,0.1969468 -0.178612,0.6256647 -0.04912,0.3968136 -0.09828,1.0845564 -0.06521,0.912185 -0.164246,0.659787 -0.09867,1.577117 0.03566,0.498778 0.222808,0.788558 0,0.788558 -0.09293,0 -0.104399,-0.196947 -0.197332,-0.196947"
       id="path65656" />
    <path
       style="fill:#000000;fill-opacity:0;stroke:#000000;stroke-width:1;stroke-linecap:round;stroke-linejoin:round;stroke-opacity:1"
       d="m 69.318356,13.468698 c -0.06565,1.182966 -0.139285,2.365516 -0.196948,3.548898 -0.008,0.16412 -0.02703,0.330868 0,0.492945 0.0076,0.04588 0.09867,0.145178 0.09867,0.09867 0,-0.438343 -0.289912,0.08105 -0.09867,-0.492945 0.315711,-0.947542 1.10621,-2.165439 1.577888,-3.055952 0.0068,-0.01289 0.524102,-1.228288 0.887224,-0.985891 0.416719,0.278175 -0.255709,2.826733 -0.09828,3.351565 0.125606,0.418748 1.078383,0.899954 1.281888,0.492946 0.02903,-0.05805 0,-0.229501 0,-0.295613"
       id="path65658" />
    <path
       style="fill:#000000;fill-opacity:0;stroke:#000000;stroke-width:1;stroke-linecap:round;stroke-linejoin:round;stroke-opacity:1"
       d="m 73.756019,14.651921 c 1.168413,-0.08081 2.287471,-0.544669 3.451773,-0.690278 0.09778,-0.01223 0.295613,0.09854 0.295613,0 0,-0.03276 -0.06552,0 -0.09828,0"
       id="path65660" />
    <path
       style="fill:#000000;fill-opacity:0;stroke:#000000;stroke-width:1;stroke-linecap:round;stroke-linejoin:round;stroke-opacity:1"
       d="m 73.756019,16.623317 c 1.216369,-0.197204 2.432738,-0.394408 3.649104,-0.591612 0.557099,-0.267264 0.218565,-0.02162 0.09828,0.09867"
       id="path65662" />
    <path
       style="fill:#000000;fill-opacity:0;stroke:#000000;stroke-width:1;stroke-linecap:round;stroke-linejoin:round;stroke-opacity:1"
       d="m 81.744123,14.454589 c 0.06565,-0.197075 0.189249,-0.383647 0.196945,-0.591226 0.02559,-0.690324 -0.09828,-1.379264 -0.09828,-2.070062 0,-0.135448 0.0777,0.260404 0.09828,0.394279 0.04519,0.293984 0.12441,0.590518 0.09867,0.886839 -0.04072,0.468726 -0.338246,0.911615 -0.295611,1.38017 0.02809,0.30871 0.400466,0.492688 0.492945,0.788558 0.07842,0.250883 0,0.525705 0,0.788558 0,0.439351 0.01781,0.690278 -0.492945,0.690278"
       id="path65664" />
    <path
       style="fill:#000000;fill-opacity:0;stroke:#000000;stroke-width:1;stroke-linecap:round;stroke-linejoin:round;stroke-opacity:1"
       d="m 86.280452,10.906077 c -0.716603,0.556624 -0.746869,1.422565 -0.887611,2.267008 -0.0764,0.458412 -0.157038,0.917185 -0.197332,1.38017 -0.05695,0.654427 -0.04667,1.841393 0.591611,2.267008 0.819508,0.546457 1.632138,-0.149461 1.972554,-0.886838 0.297984,-0.645474 0.72291,-2.267394 -0.493332,-2.267394 -0.744003,0 -1.323803,0.796666 -1.676553,1.281503 -0.77307,1.32471 -0.41643,0.817589 -0.985891,1.577117"
       id="path65668" />
    <path
       style="fill:#000000;fill-opacity:0;stroke:#000000;stroke-width:1;stroke-linecap:round;stroke-linejoin:round;stroke-opacity:1"
       d="m 72.885754,19.389823 c 0.480706,4.263365 -0.184264,8.538516 -0.09867,12.814649 0.02455,1.227053 0.296,2.429848 0.296,3.647178"
       id="path65672" />
    <path
       style="fill:#000000;fill-opacity:0;stroke:#000000;stroke-width:1;stroke-linecap:round;stroke-linejoin:round;stroke-opacity:1"
       d="m 70.716253,32.204472 c 0.618101,1.287856 1.255271,2.550744 2.169501,3.647178 0.02355,0.02824 0.52205,0.893027 0.788943,0.492945 0.295269,-0.442616 0.323495,-1.420627 0.394279,-1.774449 0.112575,-0.562727 0.26311,-1.117188 0.394663,-1.675781"
       id="path65678" />
    <path
       style="fill:#000000;fill-opacity:0;stroke:#000000;stroke-width:1;stroke-linecap:round;stroke-linejoin:round;stroke-opacity:1"
       d="m 76.337141,25.107063 c 0.592605,1.633911 0.740854,3.40998 0.986276,5.126014 0.0093,0.06499 -0.04651,0.150617 0,0.196945 0.116414,0.115962 0,-0.328628 0,-0.492945 0,-0.297563 0.05843,-0.592391 0.09867,-0.887224 0.152141,-1.114714 0.347189,-2.252621 0.591611,-3.351564 0.07269,-0.326814 0.243038,-0.886839 0.295997,-0.886839 0.370488,0 0.54188,1.774063 1.183225,1.774063 0.375158,0 1.236141,-0.870404 1.479219,-1.182837 0.117695,-0.151272 0.160475,-0.35742 0.296,-0.492946 0.06002,-0.06002 0.374002,0.03787 0.394279,0.09867 0.13516,0.40522 -0.02511,0.855074 0,1.281503 0.03967,0.673827 0.152059,2.346046 0.591611,2.858621 0.467429,0.545079 1.161881,0.27555 1.479222,-0.295614 0.116166,-0.209081 0.0902,-0.476041 0.197332,-0.689893"
       id="path65682" />
    <path
       style="fill:#000000;fill-opacity:0;stroke:#000000;stroke-width:1;stroke-linecap:round;stroke-linejoin:round;stroke-opacity:1"
       d="m 84.226576,25.402676 c 1.048242,-0.265741 -0.264382,3.943177 0.591614,3.943177 0.118581,0 0.217199,-0.108718 0.295997,-0.197332 0.647015,-0.727615 0.770914,-1.534768 0.887225,-2.464342"
       id="path65684" />
    <path
       style="fill:#000000;fill-opacity:0;stroke:#000000;stroke-width:1;stroke-linecap:round;stroke-linejoin:round;stroke-opacity:1"
       d="m 84.029245,23.037001 c 0.262982,0.03289 0.525962,0.06578 0.788945,0.09867"
       id="path65686" />
    <path
       style="fill:#000000;fill-opacity:0;stroke:#000000;stroke-width:1;stroke-linecap:round;stroke-linejoin:round;stroke-opacity:1"
       d="m 87.579299,21.952444 c 0.03359,1.98031 -0.985533,5.389161 0.986274,7.097409 0.586542,0.508143 1.664661,-0.953376 1.873502,-1.281502 0.07274,-0.114294 0.06578,-0.262853 0.09867,-0.394279"
       id="path65688" />
    <path
       style="fill:#000000;fill-opacity:0;stroke:#000000;stroke-width:1;stroke-linecap:round;stroke-linejoin:round;stroke-opacity:1"
       d="m 86.001412,26.487233 c 4.017158,-0.702955 2.750759,-1.287258 4.142049,-0.591612"
       id="path65690" />
    <path
       style="fill:#000000;fill-opacity:0;stroke:#000000;stroke-width:1;stroke-linecap:round;stroke-linejoin:round;stroke-opacity:1"
       d="m 90.932406,27.768351 c 0.414669,0.592249 1.326965,2.591372 2.070833,-0.196948 0.161097,-0.603858 -0.602215,-2.559292 -1.676553,-2.168727 -1.089893,0.396218 -1.300218,1.764865 -1.183225,2.760338 0.07533,0.641009 0.372748,1.481516 1.084556,1.675784 1.451684,0.396195 2.689932,-2.20834 1.775222,-3.253285 -0.09684,-0.110628 -0.263109,-0.131298 -0.394666,-0.196947"
       id="path65692" />
    <path
       style="fill:#000000;fill-opacity:0;stroke:#000000;stroke-width:1;stroke-linecap:round;stroke-linejoin:round;stroke-opacity:1"
       d="m 95.567017,25.205729 c 0.361646,-0.09867 0.710544,-0.277272 1.08494,-0.295999 0.135446,-0.0068 2.147705,0.405847 2.169499,0.492946 0.03568,0.142571 -0.258612,0.140812 -0.394277,0.197332 -0.259239,0.108002 -0.534429,0.176909 -0.788945,0.295613 -0.90886,0.423881 -2.01576,1.326008 -1.577888,2.464341 0.373949,0.972145 1.53493,0.992214 2.366833,0.689891 0.322188,-0.117086 0.602361,-0.284478 0.295611,-0.591225"
       id="path65694" />
    <path
       style="fill:#000000;fill-opacity:0;stroke:#000000;stroke-width:1;stroke-linecap:round;stroke-linejoin:round;stroke-opacity:1"
       d="m 95.271404,28.359962 c 3.848875,-1.247725 2.85011,-2.181295 4.042997,-0.689893"
       id="path65696" />
    <path
       style="fill:#000000;fill-opacity:0;stroke:#000000;stroke-width:1;stroke-linecap:round;stroke-linejoin:round;stroke-opacity:1"
       d="m 58.294727,46.634394 c -0.04399,-0.747458 0.785707,-2.760586 1.676167,-2.563005 0.968582,0.21491 0.998276,0.987948 2.268167,0.591224 0.784614,-0.24512 1.042591,-0.745162 1.577888,-1.281504 0.03286,-0.03292 -0.06578,0.06578 -0.09867,0.09867 -0.347614,0.347615 -0.170971,0.233294 -0.492945,0.394279"
       id="path65700" />
    <path
       style="fill:#000000;fill-opacity:0;stroke:#000000;stroke-width:1;stroke-linecap:round;stroke-linejoin:round;stroke-opacity:1"
       d="m 63.71828,44.564334 c -0.506018,0.58475 -0.740986,1.572958 -1.380553,2.07006 -0.69728,0.541959 -1.902325,0.189751 -2.662444,0 -0.04564,-0.0114 -0.204785,-0.144272 -0.296,-0.09867 -0.202078,0.101039 -0.297148,0.347443 -0.394279,0.492946 -0.220956,0.331001 -0.710475,0.533265 -0.887609,0.886838 -0.122676,0.244877 0.308767,0.621308 -0.197331,1.183224 -0.778605,0.864476 -2.072457,1.420347 -3.05711,1.971395 -0.359306,0.201081 -0.720182,0.399481 -1.084556,0.591225 -0.346464,0.182321 -1.450133,0.522033 -0.887611,1.084559"
       id="path65708" />
    <path
       style="fill:#000000;fill-opacity:0;stroke:#000000;stroke-width:1;stroke-linecap:round;stroke-linejoin:round;stroke-opacity:1"
       d="m 78.510494,46.831342 c 0.208394,-1.45714 -0.05218,-0.02315 0.295997,-1.182838 0.141764,-0.472176 -0.107965,-1.179735 0.492946,-1.38017 0.335796,-0.112004 1.017159,0.255188 1.282274,0.296 1.383109,0.212913 1.977657,-0.402831 2.859778,-1.281504"
       id="path65714" />
    <path
       style="fill:#000000;fill-opacity:0;stroke:#000000;stroke-width:1;stroke-linecap:round;stroke-linejoin:round;stroke-opacity:1"
       d="m 84.526045,43.479775 c -0.361519,0.295743 -0.769573,0.542343 -1.084556,0.887225 -0.381328,0.417523 -0.684178,0.902184 -0.986277,1.380169 -0.133665,0.211487 -0.118819,0.512869 -0.295614,0.689894 -0.368284,0.368763 -0.960752,0.08538 -1.380939,0.295613 -0.654842,0.327631 -0.423434,0.307869 -1.084557,0.788556 -0.164316,0.09867 -0.328631,0.197335 -0.492945,0.296 -0.06578,0 -0.138454,-0.02933 -0.197334,0 -0.02932,0.01461 0.0232,0.07516 0,0.09828 -0.0466,0.04642 -0.140938,-0.03386 -0.197332,0 -0.889354,0.534032 -1.787548,1.287957 -2.465496,2.070063 -0.46065,0.531423 -0.869992,1.105739 -1.28189,1.675781 -0.318222,0.440404 -0.913246,1.513713 -1.380553,1.873115 -0.268272,0.206324 -0.591741,0.328631 -0.887611,0.492945"
       id="path65716" />
    <path
       style="fill:#000000;fill-opacity:0;stroke:#000000;stroke-width:1;stroke-linecap:round;stroke-linejoin:round;stroke-opacity:1"
       d="m 59.755833,61.433159 c -0.248806,-1.773301 -2.084628,0.04932 -2.169499,0.98589 -0.118464,1.307291 2.338128,1.672127 0.887225,2.858619 -0.205126,0.167746 -0.446717,0.289907 -0.690277,0.39428 -0.653079,0.279866 -1.28601,0.326049 -1.972167,0.197331 -0.297897,-0.05588 -0.597307,-0.110206 -0.887608,-0.197331 -0.04455,-0.01336 -0.141865,-0.08142 -0.09867,-0.09867 0.185775,-0.07417 0.394663,-0.06552 0.591995,-0.09828"
       id="path65720" />
    <path
       style="fill:#000000;fill-opacity:0;stroke:#000000;stroke-width:1;stroke-linecap:round;stroke-linejoin:round;stroke-opacity:1"
       d="m 61.728,61.236211 c 0.131556,0.09854 0.392094,0.131268 0.394666,0.295614 0.03138,2.006594 0.01111,4.030038 -0.296,6.013238 -0.126114,0.814379 -0.617636,1.529972 -0.986274,2.267008 -0.03285,0.06567 -0.164137,0.164354 -0.196948,0.09867 -0.14137,-0.283017 -0.01024,-0.472414 0.09828,-0.689891"
       id="path65722" />
    <path
       style="fill:#000000;fill-opacity:0;stroke:#000000;stroke-width:1;stroke-linecap:round;stroke-linejoin:round;stroke-opacity:1"
       d="m 61.136389,63.306274 c 0.367871,-1.945772 3.396062,-2.362814 3.550055,0.09867 0.0727,1.162171 -2.309027,0.984199 -2.958444,1.08417 -0.560123,0.08622 -0.605451,-0.01384 -0.394279,0.197334"
       id="path65724" />
    <path
       style="fill:#000000;fill-opacity:0;stroke:#000000;stroke-width:1;stroke-linecap:round;stroke-linejoin:round;stroke-opacity:1"
       d="m 65.672718,62.320384 c 0.872458,0.581448 1.307092,1.140504 2.268167,-0.887225 0.430482,-0.908262 -1.303983,-0.525354 -1.380556,-0.492562 -1.442104,0.617585 -0.370036,0.215689 -0.887611,1.379787 -0.152231,0.342389 -0.547563,0.540758 -0.690277,0.887224 -0.205491,0.498869 0.06235,1.629685 0.690277,1.774447 0.405476,0.09348 1.352349,-0.286385 1.67617,-0.394277"
       id="path65726" />
    <path
       style="fill:#000000;fill-opacity:0;stroke:#000000;stroke-width:1;stroke-linecap:round;stroke-linejoin:round;stroke-opacity:1"
       d="m 69.420104,62.714663 c 0.06565,0.854334 0.1313,1.708671 0.196948,2.563005 0,0.03289 -0.03289,0.09867 0,0.09867 0.0079,0 -0.01902,-0.442711 0,-0.68989 0.04129,-0.536237 0.243142,-1.437722 0.394663,-1.873115 0.106304,-0.305456 0.618395,-1.778532 1.183225,-1.872732 0.264268,-0.04407 1.152072,0.452528 1.282274,0.492562 0.449857,0.138324 0.914646,0.229402 1.380553,0.295997 0.932807,0.133334 0.315333,-0.137599 0.788945,0.09828 0.639695,0.843842 0.58984,1.764295 0.788945,2.760338 0.03468,0.173511 0.03868,0.572077 0.196947,0.492945 0.06578,-0.03289 0.07282,-0.128482 0.09867,-0.197332 0.07301,-0.194511 0.146896,-0.389679 0.197332,-0.591226 0.242298,-0.968246 0.352669,-2.718344 1.084557,-3.450232 0.224722,-0.224722 -0.107458,1.819046 0.394664,1.675783 0.4588,-0.130903 0.755317,-0.608667 1.084557,-0.887225 0.21585,-0.182622 0.458592,-0.330883 0.690277,-0.492945 0.09711,-0.06793 0.17979,-0.173705 0.295999,-0.196947 0.361992,-0.0724 0.421307,2.012631 0.986276,2.464341 0.846457,0.676769 0.951957,-0.394279 1.577887,-0.394279"
       id="path65728" />
    <path
       style="fill:#000000;fill-opacity:0;stroke:#000000;stroke-width:1;stroke-linecap:round;stroke-linejoin:round;stroke-opacity:1"
       d="m 82.158442,48.322896 c -0.06578,0.525706 -0.213394,1.047554 -0.197331,1.577115 0.06649,2.192131 1.418836,5.455224 2.66283,7.196077 1.032653,1.445101 3.17491,2.769751 4.733276,3.548512 1.489792,0.744493 1.954123,0.893437 3.550053,1.281504 0.620233,0.150815 1.260874,0.216374 1.873884,0.39428 1.885265,0.547134 3.401441,1.795528 4.930611,2.957284 0.858475,0.652214 1.801675,1.20917 2.564165,1.971398 1.12312,1.122738 1.88692,2.695032 2.46511,4.140123 0.61204,1.529699 0.9178,3.157262 1.38094,4.731734 0.15762,0.535824 0.26666,0.916178 0.29561,0.887225 0.0274,-0.02737 -0.37436,-0.648976 -0.0987,-0.09867"
       id="path65732" />
    <path
       style="fill:#000000;fill-opacity:0;stroke:#000000;stroke-width:1;stroke-linecap:round;stroke-linejoin:round;stroke-opacity:1"
       d="m 103.75515,75.825309 c 0.78396,-0.424246 2.24319,1.836232 2.56378,1.675784 0.3164,-0.158356 0.86602,-2.626635 0.98627,-3.055953 0.10105,-0.360733 0.23436,-0.714661 0.296,-1.08417 0.008,-0.04588 -0.0778,-0.140253 -0.0987,-0.09867 -0.0441,0.0881 0,0.197075 0,0.295611"
       id="path65734" />
    <path
       style="fill:#000000;fill-opacity:0;stroke:#000000;stroke-width:1;stroke-linecap:round;stroke-linejoin:round;stroke-opacity:1"
       d="m 115.89031,80.850345 c -2.19582,-1.483942 -5.25006,-1.588619 -6.70583,0.98589 -0.55513,0.981755 -0.51887,2.440038 -0.49294,3.450233 0.15695,6.115648 8.03303,6.721716 10.74883,1.971394 0.22184,-0.388027 0.33554,-0.838464 0.39466,-1.281504 0.26841,-2.011246 -0.50125,-3.489097 -1.97255,-4.830013 -1.36421,-1.243312 -2.34955,-1.941246 -4.24033,-2.070063 -2.02163,-0.137732 -3.01823,0.811448 -4.24033,2.168342"
       id="path65742" />
    <path
       style="fill:#000000;fill-opacity:0;stroke:#000000;stroke-width:1;stroke-linecap:round;stroke-linejoin:round;stroke-opacity:1"
       d="m 109.57915,84.793523 c -0.0658,-0.164317 -0.19733,-0.315955 -0.19733,-0.492945 0,-0.118476 0.12845,-0.199218 0.19733,-0.295614 0.85367,-1.194737 2.86562,-1.350648 2.26816,0.591225 -0.19863,0.645596 -0.60399,1.392433 -1.08494,1.873115 -0.24048,0.240344 -1.16273,0.57074 -0.88761,0.295613 0.11858,-0.118581 0.33153,-0.05458 0.49333,-0.09867 0.23086,-0.0629 0.46188,-0.125632 0.69028,-0.196947 0.94248,-0.294281 0.66608,-0.285803 1.47922,-0.394277 0.45731,-0.06101 0.92665,-0.01611 1.38056,-0.09867 0.62269,-0.113255 0.59161,-0.0043 0.59161,-0.295611"
       id="path65746" />
    <path
       style="fill:#000000;fill-opacity:0;stroke:#000000;stroke-width:1;stroke-linecap:round;stroke-linejoin:round;stroke-opacity:1"
       d="m 115.10137,84.103243 c 0.16432,0.42717 0.3672,0.841436 0.49294,1.281504 0.27211,0.952281 0.004,0.523656 0.0987,1.281504 0.0147,0.117666 0.16855,0.411033 0.19733,0.295998 0.0319,-0.127495 -0.0109,-0.263306 0,-0.394277 0.0795,-0.953233 0.0705,-1.908736 0.19734,-2.859005 0.0106,-0.07924 0.11717,-1.038831 0.49294,-0.788559 0.52366,0.348763 0.82835,1.195797 0.98628,1.774449 0.0838,0.307149 0.038,0.728266 0.29561,0.98589 0.0465,0.04651 0.13155,0 0.19733,0"
       id="path65748" />
    <path
       style="fill:#000000;fill-opacity:0;stroke:#000000;stroke-width:1;stroke-linecap:round;stroke-linejoin:round;stroke-opacity:1"
       d="m 119.0615,76.808887 c 0.4817,-1.723593 1.11396,-3.505152 2.07122,-5.027348 0.52544,-0.83553 2.72194,-3.187649 3.15539,-3.647178 0.91373,-0.9687 1.70542,-1.764768 2.86016,-2.464339 1.46006,-0.884545 3.38931,-1.528276 5.02928,-1.971397 0.61611,-0.166474 1.24104,-0.309219 1.8735,-0.394664 0.41026,-0.05543 2.4808,-0.10092 3.05711,-0.196947 1.02433,-0.170678 2.64483,-0.631701 3.55005,-1.08417 1.98498,-0.992185 3.69975,-2.681986 5.02927,-4.436123 0.59478,-0.784731 2.03588,-3.451749 2.36684,-4.041458 0.29524,-0.52606 0.56936,-1.064646 0.88761,-1.577115 1.44459,-2.326225 0.47229,-0.450337 1.18322,-1.873115"
       id="path65772" />
    <path
       style="fill:#000000;fill-opacity:0;stroke:#000000;stroke-width:1;stroke-linecap:round;stroke-linejoin:round;stroke-opacity:1"
       d="m 118.07561,74.640161 c -0.69691,-0.985702 -0.46718,0.296879 -0.49333,0.690277 -0.0315,0.474364 -0.34439,2.109967 0.0987,2.46434 0.18749,0.149966 0.50397,0.111699 0.69028,0 0.38344,-0.229889 0.7179,-0.533284 1.08494,-0.788557 1.32444,-0.921146 2.70085,-1.766712 4.043,-2.661673"
       id="path65774" />
    <path
       style="fill:#000000;fill-opacity:0;stroke:#000000;stroke-width:1;stroke-linecap:round;stroke-linejoin:round;stroke-opacity:1"
       d="m 154.67574,42.696614 c -0.85293,-1.134245 -1.93168,-1.912155 -3.35311,-2.267395 -1.03555,-0.258802 -2.67739,0.18659 -3.55005,0.591611 -0.31688,0.147074 -0.58165,0.408697 -0.78895,0.689893 -1.41138,1.914546 -0.0892,4.336725 1.08495,6.013239 0.19667,0.280818 0.91987,1.237263 1.28189,1.478449 0.64393,0.429011 1.03335,0.472225 1.77483,0.394279 0.33341,-0.03505 0.67989,-0.06085 0.98628,-0.196945 1.01664,-0.451599 1.70649,-1.71514 1.87388,-2.76034 0.24088,-1.504063 -0.27998,-3.042869 -0.98627,-4.337071 -0.36447,-0.667853 -1.22544,-2.444464 -2.26817,-2.661674 -1.99967,-0.416544 -2.30046,3.182872 -2.4655,4.337458"
       id="path65778" />
    <path
       style="fill:#000000;fill-opacity:0;stroke:#000000;stroke-width:1;stroke-linecap:round;stroke-linejoin:round;stroke-opacity:1"
       d="m 163.4524,42.105003 c -1.44357,-2.176807 -1.68267,-1.496338 -4.83233,1.577115 -0.3326,0.324556 -0.17907,0.915797 -0.19695,1.38017 -0.0747,1.940282 1.10016,4.118266 3.05673,4.633068 0.69126,0.181883 1.17901,0.167918 1.77522,-0.295611 1.50579,-1.170697 2.11673,-3.728014 2.1695,-5.520293 0.028,-0.950955 -0.41482,-2.341885 -0.98628,-3.055953 -0.29615,-0.37006 -0.71844,-0.695675 -1.18322,-0.788559 -2.45807,-0.491228 -4.93061,2.59253 -4.93061,4.830402"
       id="path65780" />
    <path
       style="fill:#000000;fill-opacity:0;stroke:#000000;stroke-width:1;stroke-linecap:round;stroke-linejoin:round;stroke-opacity:1"
       d="m 179.72383,43.287838 c -0.23117,-1.154644 -0.13607,-1.749938 -1.08494,-2.563005 -1.48275,-1.27054 -4.19521,-1.186932 -5.52222,0.295997 -0.75647,0.845362 -0.80668,1.584677 -0.98627,2.661288 -0.54639,3.275306 -0.0102,7.472836 4.43766,6.506183 2.79406,-0.60724 4.44865,-3.614213 3.55005,-6.308849 -0.36616,-1.098 -0.85185,-1.920388 -1.97216,-2.464342 -0.63831,-0.30992 -1.36127,-0.492946 -2.07084,-0.492946 -0.98162,0 -2.56416,0.537443 -2.56416,1.77445"
       id="path65784" />
    <path
       style="fill:#000000;fill-opacity:0;stroke:#000000;stroke-width:1;stroke-linecap:round;stroke-linejoin:round;stroke-opacity:1"
       d="m 191.75455,42.597948 c -0.23009,-0.295741 -0.381,-0.675675 -0.69028,-0.887225 -1.29552,-0.886158 -3.51907,-0.410498 -4.339,0.887225 -0.93673,1.482598 -1.08681,3.477196 -0.49294,5.126014 0.31911,0.885983 0.71598,1.507908 1.47922,2.070062 0.66733,0.491506 1.92019,0.88187 2.76111,0.788557 0.50711,-0.05627 1.25442,-0.542261 1.57789,-0.887225 1.71028,-1.82391 1.77578,-4.577218 0.98627,-6.801794 -0.265,-0.74671 -0.89746,-1.671847 -1.67655,-1.971398 -2.20404,-0.847428 -4.12353,1.39622 -5.42394,2.85862"
       id="path65790" />
    <path
       style="fill:#000000;fill-opacity:0;stroke:#000000;stroke-width:1;stroke-linecap:round;stroke-linejoin:round;stroke-opacity:1"
       d="m 173.70828,52.652644 c -0.0987,1.511466 -0.20519,3.022441 -0.296,4.534402 -0.008,0.131189 0,0.262853 0,0.39428 0,0.03289 -0.0147,0.128077 0,0.09867 0.5213,-1.041913 0.11393,-0.437716 0.59162,-1.774449 0.17517,-0.490199 1.08567,-2.648281 1.38094,-3.154233 0.42363,-0.725921 1.09784,-1.452406 1.28188,-1.084556 0.45179,0.902989 -0.9293,6.548652 1.97217,3.647178"
       id="path65792" />
    <path
       style="fill:#000000;fill-opacity:0;stroke:#000000;stroke-width:1;stroke-linecap:round;stroke-linejoin:round;stroke-opacity:1"
       d="m 170.85544,20.390359 c 0.0658,0.394279 0.1438,0.786711 0.19734,1.182837 0.27772,2.054824 0.60647,4.144097 0.78894,6.210186 0.0322,0.364032 0.13747,2.100945 0.0987,2.759954 -0.0319,0.541319 -0.11178,0.98589 -0.19733,0.98589 -0.0734,0 -0.0658,-0.131297 -0.0987,-0.196948"
       id="path65796" />
    <path
       style="fill:#000000;fill-opacity:0;stroke:#000000;stroke-width:1;stroke-linecap:round;stroke-linejoin:round;stroke-opacity:1"
       d="m 169.77089,29.459163 c 0.49307,0.919985 0.96385,1.852274 1.47922,2.759956 0.17551,0.309107 0.25116,0.785008 0.59161,0.887222 0.22687,0.06812 0.30231,-0.372927 0.39428,-0.591225 0.17353,-0.411906 0.23323,-0.864706 0.39466,-1.281504 0.23379,-0.603617 0.52106,-1.185169 0.78895,-1.774449 0.0608,-0.133739 0.30083,-0.290396 0.19694,-0.394277 -0.0985,-0.09854 -0.19707,0.197075 -0.29561,0.295611"
       id="path65798" />
    <path
       style="fill:#000000;fill-opacity:0;stroke:#000000;stroke-width:1;stroke-linecap:round;stroke-linejoin:round;stroke-opacity:1"
       d="m 176.47672,24.136203 c 0.36151,1.41293 0.68378,2.836488 1.08455,4.23879 0.0128,0.04472 0.0929,-0.05251 0.0987,-0.09867 0.0285,-0.228184 0,-0.459927 0,-0.689893 0,-1.199258 -0.11423,-2.301985 0.296,-3.450231 0.0494,-0.138346 0.0606,-0.339681 0.19694,-0.394279 0.44,-0.176138 0.71023,1.955036 1.08495,2.267009 0.58153,0.484174 1.51721,-2.392144 1.77483,-2.070062 0.65602,0.820193 -0.33008,3.323033 0.88761,3.844511 0.18828,0.08063 0.71014,-0.443465 0.88761,-0.591227"
       id="path65800" />
    <path
       style="fill:#000000;fill-opacity:0;stroke:#000000;stroke-width:1;stroke-linecap:round;stroke-linejoin:round;stroke-opacity:1"
       d="m 186.63393,27.389103 c 0.33159,-0.880978 0.51678,-2.065745 -0.19733,-2.858621 -0.52093,-0.578383 -1.297,-0.5077 -1.67656,0.196947 -0.39835,0.739548 -0.26834,2.391484 0.19734,3.055953 0.89413,1.27584 2.95844,-0.262795 2.95844,-1.38017 0,-0.07343 -0.0987,-0.123521 -0.0987,-0.196947 0,-0.04651 0.0522,-0.09867 0.0987,-0.09867 0.13176,0 -0.0157,1.125659 0.296,1.281504 0.256,0.127997 0.19695,-0.519221 0.19695,-0.591611"
       id="path65804" />
    <path
       style="fill:#000000;fill-opacity:0;stroke:#000000;stroke-width:1;stroke-linecap:round;stroke-linejoin:round;stroke-opacity:1"
       d="m 189.88799,24.431816 c 0.26298,0.985762 0.40984,2.010096 0.78894,2.957287 0.093,0.232383 0.57831,-0.07175 0.69028,-0.295614 0.28489,-0.569598 0.31491,-0.979467 0.39466,-1.577116 0.0351,-0.262701 0.0987,-0.523914 0.0987,-0.788944 0,-0.07343 -0.0987,-0.270373 -0.0987,-0.196947 0,0.135479 0.0987,0.2588 0.0987,0.394279 0,1.472066 -0.34232,2.975461 -0.49333,4.435736 -0.0867,0.83852 -0.25089,3.125986 -1.38056,3.351567 -0.99808,0.199306 -1.01015,-1.062921 -0.88761,-1.675783 0.19388,-0.969624 1.01637,-1.799244 1.87389,-2.267008 0.11893,-0.06488 0.26976,-0.04527 0.39428,-0.09867 0.24005,-0.102939 0.41431,-0.315497 0.59199,-0.492945"
       id="path65806" />
    <path
       style="fill:#000000;fill-opacity:0;stroke:#000000;stroke-width:1;stroke-linecap:round;stroke-linejoin:round;stroke-opacity:1"
       d="m 193.83271,26.206265 c 1.93508,1.332214 2.8311,-2.377407 1.38055,-2.957286 -0.65698,-0.262639 -1.65153,1.150806 -1.67655,1.675782 -0.0209,0.437918 0.23671,0.847117 0.296,1.281504 0.13996,1.025485 -0.35838,0.800644 0.49294,1.084172 0.12866,0.04285 0.26169,0.125219 0.39467,0.09867 1.48536,-0.296611 1.95556,-2.940537 0.69027,-3.745845 -0.67573,-0.430076 -1.26123,0.428808 -1.38055,0.985891 -0.0551,0.257023 0,0.525705 0,0.788558 -0.0658,0.262852 -0.13156,0.525705 -0.19733,0.788558 z"
       id="path65808" />
    <path
       style="fill:#000000;fill-opacity:0;stroke:#000000;stroke-width:1;stroke-linecap:round;stroke-linejoin:round;stroke-opacity:1"
       d="m 197.38276,24.234869 c 0.73945,-1.000471 1.69906,-1.123383 1.47922,0.196947 -0.10679,0.641369 -0.71927,1.490638 -0.49295,2.168728 0.0463,0.138829 0.36016,0.314521 0.49295,0.295614 0.30569,-0.04352 2.12213,-0.985506 0.78894,-0.985506"
       id="path65810" />
    <path
       style="fill:#000000;fill-opacity:0;stroke:#000000;stroke-width:1;stroke-linecap:round;stroke-linejoin:round;stroke-opacity:1"
       d="m 196.98848,25.614653 c 2.84872,-1.016775 2.0701,-0.294493 2.95844,-1.182837"
       id="path65812" />
    <path
       style="fill:#000000;fill-opacity:0;stroke:#000000;stroke-width:1;stroke-linecap:round;stroke-linejoin:round;stroke-opacity:1"
       d="m 164.34695,8.6598804 c -3.3063,-0.8966787 -3.05024,4.7338946 -0.69028,5.5202926 0.18709,0.06234 0.39522,0.01787 0.59161,0 1.25441,-0.114118 1.79373,-1.313331 2.07083,-2.36606 0.14001,-0.53189 0.33546,-1.123368 0.0987,-1.675782 -0.18911,-0.4411829 -1.61786,-1.4784506 -2.07083,-1.4784506 -0.26498,0 -0.50288,0.2069391 -0.69028,0.3942792 -0.67081,0.6705928 -0.59161,1.5048564 -0.59161,2.3656744"
       id="path65816" />
    <path
       style="fill:#000000;fill-opacity:0;stroke:#000000;stroke-width:1;stroke-linecap:round;stroke-linejoin:round;stroke-opacity:1"
       d="m 163.95228,13.687228 c -0.20705,2.015954 -0.29561,4.077284 -0.29561,6.111519 0,0.232553 0.16801,1.674144 -0.296,1.873115 -0.15101,0.06476 -0.32863,0 -0.49294,0"
       id="path65820" />
    <path
       style="fill:#000000;fill-opacity:0;stroke:#000000;stroke-width:1;stroke-linecap:round;stroke-linejoin:round;stroke-opacity:1"
       d="m 162.17745,16.644514 c 1.23819,-0.495462 2.51875,-0.09867 3.84605,-0.09867"
       id="path65822" />
    <path
       style="fill:#000000;fill-opacity:0;stroke:#000000;stroke-width:1;stroke-linecap:round;stroke-linejoin:round;stroke-opacity:1"
       d="m 172.63066,13.489896 c 1.25535,-2.247887 0.88219,-4.9130286 1.67617,-7.2943564 0.39712,-1.1910528 -0.22463,2.5018463 -0.39428,3.7458443 -0.87165,6.3916371 -0.1724,-0.5167447 -0.78894,5.0273481 -5.3e-4,0.0045 -0.22222,1.675393 0,1.971395 0.0711,0.09475 0.13922,-0.192366 0.19733,-0.295613 0.23797,-0.422829 0.47323,-0.847563 0.69028,-1.281503 0.48926,-0.978159 1.23959,-2.627943 1.67655,-3.647178 0.13946,-0.325302 0.2902,-0.647604 0.39428,-0.985891 0.029,-0.09418 0.0881,-0.33968 0,-0.295613 -0.13145,0.06573 -0.12854,0.264405 -0.19733,0.394279 -0.2271,0.428765 -0.45103,0.859396 -0.69028,1.281504 -0.43237,0.762833 -2.53212,3.941387 -1.8735,4.928682 0.57058,0.855314 3.39134,-1.153651 3.94433,-1.478836 1.48969,-0.876001 -0.0166,0.109846 0.88761,-0.49256"
       id="path65824" />
    <path
       style="fill:#000000;fill-opacity:0;stroke:#000000;stroke-width:1;stroke-linecap:round;stroke-linejoin:round;stroke-opacity:1"
       d="m 178.84316,13.095617 c 0.82411,0.431669 0.49095,2.759119 0.78895,3.055952 0.0233,0.02321 0.005,-0.06622 0,-0.09867 -0.0276,-0.165291 -0.0987,-0.325371 -0.0987,-0.492945 0,-0.362884 0.0685,-0.722543 0.0987,-1.084171 0.0592,-0.709715 0.12259,-3.101834 1.1836,-3.2529 0.35317,-0.05028 0.91103,0.455195 1.18323,0.591226 0.1213,0.06062 0.2631,0.06578 0.39466,0.09867"
       id="path65826" />
    <path
       style="fill:#000000;fill-opacity:0;stroke:#000000;stroke-width:1;stroke-linecap:round;stroke-linejoin:round;stroke-opacity:1"
       d="m 184.16843,13.588562 c 0.30358,0.682451 0.38451,1.437672 1.47923,1.281504 0.21818,-0.03113 0.22628,-0.382147 0.29599,-0.591226 0.33103,-0.992804 0.53731,-2.420524 -0.29599,-3.253285 -0.24176,-0.241596 -0.64182,0.0013 -0.78895,0.197332 -0.53199,0.708935 -0.43386,1.56005 -0.69028,2.365675 -0.0804,0.252501 -0.33001,0.433208 -0.39428,0.690278 -0.11782,0.4713 -0.0979,2.154352 0.69028,2.267008 0.13512,0.01931 0.85334,-0.741848 0.88761,-0.788558 0.33586,-0.457793 0.71149,-1.346007 0.88723,-1.873115 0.11849,-0.355385 0.1282,-0.749235 0.29599,-1.084171 0.0147,-0.0294 0.006,0.06642 0,0.09867 -0.0266,0.132844 -0.0721,0.261436 -0.0987,0.394279 -0.0218,0.108837 -0.48676,2.745352 0.0987,2.661673 0.83476,-0.119316 1.02618,-1.342959 1.18323,-1.971781"
       id="path65828" />
    <path
       style="fill:#000000;fill-opacity:0;stroke:#000000;stroke-width:1;stroke-linecap:round;stroke-linejoin:round;stroke-opacity:1"
       d="m 188.80343,7.5757092 c 1.66888,1.8739961 -1.25058,5.0749118 -0.59161,7.4916888 0.0312,0.114233 0.087,0.251683 0.19695,0.295613 0.42959,0.171634 0.70159,-0.86571 0.78894,-1.084171"
       id="path65830" />
    <path
       style="fill:#000000;fill-opacity:0;stroke:#000000;stroke-width:1;stroke-linecap:round;stroke-linejoin:round;stroke-opacity:1"
       d="m 190.67693,11.814113 c -1.208,2.816 0.592,3.157595 0.592,1.774449"
       id="path65832" />
    <path
       style="fill:#000000;fill-opacity:0;stroke:#000000;stroke-width:1;stroke-linecap:round;stroke-linejoin:round;stroke-opacity:1"
       d="m 196.10087,11.5185 c -0.77529,-0.38739 -0.43861,-0.433081 -1.18322,0.09867 -1.32377,0.945334 -1.19366,1.135999 -0.88761,2.563006 0.0697,0.325135 0.0995,1.085742 0.29561,1.379785 0.29548,0.443131 2.10848,0.216157 0.88761,-0.394279 -0.57265,0.499793 -0.17573,1.435629 -0.49294,2.070059 -0.0146,0.0293 0.006,-0.06616 0,-0.09828 -0.0266,-0.13284 -0.0658,-0.262853 -0.0987,-0.394279"
       id="path65836" />
    <path
       style="fill:#000000;fill-opacity:0;stroke:#000000;stroke-width:1;stroke-linecap:round;stroke-linejoin:round;stroke-opacity:1"
       d="m 197.97437,12.89867 c 0.49307,0.06565 0.99363,0.304798 1.47922,0.196947 0.40303,-0.08951 0.47162,-1.249911 0.19733,-1.47845 -0.32284,-0.269001 -0.93416,0.441252 -0.98589,0.492945 -0.24715,0.247002 -0.51928,0.484053 -0.69066,0.788558 -0.25196,0.447696 -0.46918,1.678748 -0.19695,2.168728 0.34777,0.625928 1.2557,0.160387 1.57789,-0.197332 0.14746,-0.163721 0.19708,-0.394151 0.29561,-0.591226"
       id="path65838" />
    <path
       style="fill:#000000;fill-opacity:0;stroke:#000000;stroke-width:1;stroke-linecap:round;stroke-linejoin:round;stroke-opacity:1"
       d="m 191.9592,10.631276 c 0.29575,-0.36139 0.59149,-0.7227808 0.88723,-1.0841712"
       id="path65840" />
    <path
       style="fill:#000000;fill-opacity:0;stroke:#000000;stroke-width:1;stroke-linecap:round;stroke-linejoin:round;stroke-opacity:1"
       d="m 143.0208,12.875545 c 0.13143,-0.197075 0.15816,-0.610125 0.39428,-0.591226 0.7364,0.05894 1.48657,0.336961 2.07122,0.788558 0.61486,0.474936 -0.47094,2.396673 -0.78894,2.759954 -0.27541,0.314612 -1.09255,0.941233 -1.47923,1.182838 -0.73272,0.457816 -1.52671,0.791721 -1.38094,0.98589 0.47424,0.631696 2.04055,-0.171677 2.4655,-0.295613 0.39042,-0.113865 0.78798,-0.201821 1.18361,-0.295998 0.64237,-0.152913 1.08456,-0.304911 1.08456,-0.09828 0,0.118511 -0.2122,0.113147 -0.296,0.196947"
       id="path65842" />
    <path
       style="fill:#000000;fill-opacity:0;stroke:#000000;stroke-width:1;stroke-linecap:round;stroke-linejoin:round;stroke-opacity:1"
       d="m 148.14874,15.044273 c 0.59581,1.191404 1.18323,1.764676 1.18323,2.957286 0,0.103881 -0.0987,-0.191731 -0.0987,-0.295613 0,-0.199927 0.0639,-0.394731 0.0987,-0.591611 0.21343,-1.208328 0.44341,-1.914728 1.08494,-2.957286 0.10041,-0.163178 0.14841,-0.370298 0.29561,-0.492946 0.41344,-0.344491 0.853,0.676073 0.88761,0.788559 0.39815,1.294082 -0.44268,3.518067 1.97255,2.070061 0.22008,-0.131946 0.39441,-0.328373 0.59161,-0.492559"
       id="path65844" />
    <path
       style="fill:#000000;fill-opacity:0;stroke:#000000;stroke-width:1;stroke-linecap:round;stroke-linejoin:round;stroke-opacity:1"
       d="m 144.58404,38.430845 c -0.96734,-1.71088 -2.44607,-3.085393 -3.74738,-4.534789 -2.1398,-2.383284 -4.21813,-4.751805 -6.5085,-6.998742 -0.7695,-0.754914 -4.86584,-4.717258 -5.71955,-5.421628 -4.1933,-3.459729 -8.65727,-5.66682 -13.90499,-7.097409 -0.43285,-0.118001 -6.59726,-1.37671 -7.19877,-1.478451 -2.27113,-0.384143 -3.07787,-0.350664 -5.22661,-0.689892 -0.4967,-0.07841 -0.98887,-0.184583 -1.47922,-0.295998 -0.41363,-0.09398 -0.821023,-0.19938 -0.78894,-0.295613 0.0294,-0.08825 0.13155,-0.131555 0.19733,-0.197332"
       id="path65848" />
    <path
       style="fill:#000000;fill-opacity:0;stroke:#000000;stroke-width:1;stroke-linecap:round;stroke-linejoin:round;stroke-opacity:1"
       d="m 102.27824,10.336819 c -0.8217,0.394279 -1.65903,0.757526 -2.465113,1.182838 -0.379103,0.200027 -0.741968,0.433174 -1.08494,0.690277 -0.266287,0.199618 -0.636653,0.6222 -0.591613,0.689892 0.04058,0.06098 0.700759,0.18594 0.788945,0.196947 0.861785,0.107566 1.924531,-0.02861 2.563781,0.690278 0.32213,0.362258 0.45916,0.822336 0.0987,1.182837"
       id="path65850" />
    <path
       style="fill:#000000;fill-opacity:0;stroke:#000000;stroke-width:1;stroke-linecap:round;stroke-linejoin:round;stroke-opacity:1"
       d="m 107.89951,8.1680914 c 0.87529,1.4684349 1.32921,3.0986066 1.77484,4.7317346 0.13427,0.492083 0.26042,0.986358 0.39466,1.478451 0.0903,0.33099 0.29561,0.642805 0.29561,0.98589 0,0.04511 -0.4928,-0.591432 -0.49294,-0.591611"
       id="path65856" />
    <path
       style="fill:#000000;fill-opacity:0;stroke:#000000;stroke-width:1;stroke-linecap:round;stroke-linejoin:round;stroke-opacity:1"
       d="m 107.40618,7.9711446 c 0.4039,-1.2109056 0.39449,-1.6757827 2.7615,-1.6757827 1.31891,0 0.68225,2.0391725 0.29561,2.4643408 -0.19023,0.2091806 -0.44603,0.3505303 -0.69028,0.4929454 -0.49344,0.2877069 -1.7903,0.2540127 -0.69027,-0.2959983"
       id="path65858" />
    <path
       style="fill:#000000;fill-opacity:0;stroke:#000000;stroke-width:1;stroke-linecap:round;stroke-linejoin:round;stroke-opacity:1"
       d="m 113.5204,8.3654237 c 0,-1.0186508 0.29044,-2.0795858 0,-3.0559522 -0.27508,-0.924701 -1.13595,-0.7366368 -1.47922,-0.2956132 -0.13537,0.1739199 -0.26684,0.3727688 -0.296,0.591226 -0.0849,0.6363674 0.51235,2.6578126 1.18361,2.8590055 1.1096,0.3325767 1.08455,-1.3792353 1.08455,-1.9717811 0,-0.2628527 0.0219,-0.5266153 0,-0.7885583 -0.0371,-0.4442968 -0.27362,-0.5912258 -0.0987,-0.5912258 0.19999,0 0.96496,4.1765728 1.18361,1.7740633 0.0298,-0.3271499 0,-0.6570036 0,-0.9855052"
       id="path65860" />
    <path
       style="fill:#000000;fill-opacity:0;stroke:#000000;stroke-width:1;stroke-linecap:round;stroke-linejoin:round;stroke-opacity:1"
       d="m 115.3939,4.816526 c 0.68009,0.508967 0.66662,1.8440699 1.47922,2.1687279 0.42502,0.1698067 -0.31688,-0.8590409 -0.49295,-1.2815035 -0.37237,-0.8935157 -1.03476,-2.0266671 -0.8876,-3.0555668 0.10244,-0.7162951 0.87414,-0.6940701 1.38055,-0.7889436 0.71647,-0.1342296 1.47869,-0.2630625 2.16988,-0.4925599"
       id="path65862" />
    <path
       style="fill:#000000;fill-opacity:0;stroke:#000000;stroke-width:1;stroke-linecap:round;stroke-linejoin:round;stroke-opacity:1"
       d="m 119.043,-0.50643477 c 0.26286,0.36151888 0.56939,0.69500244 0.78856,1.08455665 0.49509,0.87998542 1.03511,2.86533042 1.77522,2.75995372 0.39716,-0.056547 1.42193,-2.1687277 0.78894,-2.1687277"
       id="path65864" />
    <path
       style="fill:#000000;fill-opacity:0;stroke:#000000;stroke-width:1;stroke-linecap:round;stroke-linejoin:round;stroke-opacity:1"
       d="m 119.83156,2.2539045 c -1.99361,0.6727573 1.70628,-2.07044716 2.4655,-2.07044716"
       id="path65866" />
    <path
       style="fill:#000000;fill-opacity:0;stroke:#000000;stroke-width:1;stroke-linecap:round;stroke-linejoin:round;stroke-opacity:1"
       d="m 124.28349,-0.82208933 c 0.82141,0.0513762 1.63421,0.53409297 1.97216,-0.39427907 0.53007,-1.4561241 -2.1695,-3.1876619 -2.1695,-0.7885583 0,0.3997283 0.13656,0.7877566 0.19734,1.18283737 0.13554,0.88106157 -0.0125,1.36789217 0.59161,1.97178103 0.90714,0.9067471 1.98771,-0.42607378 2.36683,-1.18283736"
       id="path65868" />
    <path
       style="fill:#000000;fill-opacity:0;stroke:#000000;stroke-width:1;stroke-linecap:round;stroke-linejoin:round;stroke-opacity:1"
       d="m 127.14326,-4.1732692 c 0.4273,1.0514111 0.85093,2.1043168 1.28189,3.154233 0.07,0.17059863 0.28653,0.77907081 0.49295,0.98589054 0.0232,0.02327856 0.009,-0.06703952 0,-0.09866613 -0.057,-0.19986802 -0.14654,-0.3899731 -0.19695,-0.5916114 -0.27228,-1.08912711 -0.57955,-2.42871521 -0.49333,-3.54851201 0.005,-0.062759 0.005,-1.3782331 0.59161,-1.0845567 0.82653,0.4135358 0.72929,1.9135185 1.28228,2.4643408"
       id="path65870" />
    <path
       style="fill:#000000;fill-opacity:0;stroke:#000000;stroke-width:1;stroke-linecap:round;stroke-linejoin:round;stroke-opacity:1"
       d="m 130.89065,-4.2719352 c 0.18618,0.1595157 1.08271,1.5784335 1.77483,1.0841712 1.41409,-1.0098354 -0.3346,-4.6263842 -1.18322,-2.7599539 -0.52189,1.14783 1.37878,3.3537219 2.36683,2.3656747 0.26365,-0.2636443 0.22115,-0.8915497 0.19695,-1.1828375 -0.23892,-2.8754209 -3.57746,-1.4079595 -2.26817,-0.098666"
       id="path65872" />
    <path
       style="fill:#000000;fill-opacity:0;stroke:#000000;stroke-width:1;stroke-linecap:round;stroke-linejoin:round;stroke-opacity:1"
       d="m 136.51153,-6.8349423 c -2.27732,-3.7422337 -2.19111,0.4326731 -0.8876,1.0841712 0.15,0.074974 0.33062,0.1392833 0.49333,0.098666 0.0944,-0.023564 0.58629,-0.642043 0.59161,-0.6898921 0.0196,-0.1759074 -0.20912,-0.3163459 -0.19734,-0.4929452 0.0228,-0.342361 0.22405,-0.6503971 0.296,-0.9858906 0.0276,-0.1285042 -0.0319,-0.521774 0,-0.3942789 0.0643,0.2569781 0.0574,0.5268944 0.0987,0.788558 0.14066,0.8912807 0.3932,1.764891 0.49294,2.6616731 0.20505,1.843608 0.0615,3.6773054 0,5.52029331 -0.002,0.060603 0.14744,1.40002039 -0.19733,1.67578259 -0.25411,0.2032515 -0.53219,-0.4058588 -0.69028,-0.6902775 -0.59781,-1.0755532 -1.22546,-2.27899661 -1.08455,-3.5485121 0.0929,-0.8367636 0.44368,-1.3619104 0.98589,-1.9713956 0.51047,-0.5738098 0.28628,-0.1775103 0.49333,-0.5916115"
       id="path65874" />
    <path
       style="fill:#000000;fill-opacity:0;stroke:#000000;stroke-width:1;stroke-linecap:round;stroke-linejoin:round;stroke-opacity:1"
       d="m 137.59648,-8.8063378 c 0.91248,-0.1712162 1.49367,0.026836 1.97216,-0.6902776 0.40179,-0.6021626 0.43135,-1.6969136 -0.19733,-2.1683426 -0.1388,-0.104085 -0.58987,-0.330808 -0.78894,-0.09867 -0.78093,0.910658 -0.0854,2.4893637 0.19733,3.4498459 0.0676,0.2295689 0.0838,0.4795885 0.19733,0.6902775 0.39994,0.7424817 0.85772,0.8677378 1.18322,0 0.11772,-0.3137966 0.13156,-0.6572602 0.19734,-0.9858904"
       id="path65876" />
    <path
       style="fill:#000000;fill-opacity:0;stroke:#000000;stroke-width:1;stroke-linecap:round;stroke-linejoin:round;stroke-opacity:1"
       d="m 140.35759,-12.552182 c 2.57949,6.536776 0.60987,1.790287 1.57788,-0.788558 0.0365,-0.09737 0.0252,-0.22241 0.0987,-0.295999 0.13412,-0.134299 0.37136,0.143878 0.39428,0.197332 0.20228,0.471733 -0.045,2.070062 0.69028,2.070062"
       id="path65878" />
    <path
       style="fill:#000000;fill-opacity:0;stroke:#000000;stroke-width:1;stroke-linecap:round;stroke-linejoin:round;stroke-opacity:1"
       d="m 144.79525,-13.735405 c 0.73902,0.215629 1.46073,-0.19601 1.77483,-0.886839 0.46401,-1.02052 0.17162,-1.821671 -1.08455,-1.478836 -0.17075,0.0466 -0.37637,0.06416 -0.49295,0.197332 -0.26605,0.303928 -0.27007,1.841035 -0.19733,2.168343 0.0702,0.315921 0.27102,0.587987 0.39428,0.887224 0.10693,0.2596 0.16148,0.54212 0.296,0.788559 0.76806,1.407109 2.76111,-0.898757 2.76111,-1.774064"
       id="path65886" />
    <path
       style="fill:#000000;fill-opacity:0;stroke:#000000;stroke-width:1;stroke-linecap:round;stroke-linejoin:round;stroke-opacity:1"
       d="m 148.44397,-16.495359 c 0.32876,-0.36139 0.66623,-0.715046 0.98628,-1.084171 0.1076,-0.124109 0.20015,-0.260602 0.29561,-0.394279 0.0689,-0.0965 0.17404,-0.412271 0.19733,-0.295999 0.0818,0.408535 -0.25354,1.195723 -0.296,1.577502 -0.0631,0.56784 -0.12129,1.541491 0.39467,1.971396 0.55279,0.460603 1.51806,-1.143994 1.18322,-1.478836"
       id="path65888" />
    <path
       style="fill:#000000;fill-opacity:0;stroke:#000000;stroke-width:1;stroke-linecap:round;stroke-linejoin:round;stroke-opacity:1"
       d="m 148.54264,-15.213856 c 1.29478,-1.03562 0.33127,-0.259616 2.85977,-2.365674"
       id="path65890" />
  </g>
</svg>
