<?xml version="1.0" encoding="UTF-8" standalone="no"?>
<!-- Created with Inkscape (http://www.inkscape.org/) -->

<svg
   width="120.19087mm"
   height="56.465633mm"
   viewBox="0 0 120.19087 56.465633"
   version="1.1"
   id="svg1288"
   inkscape:version="1.2.2 (b0a8486541, 2022-12-01)"
   sodipodi:docname="dipol.svg"
   xmlns:inkscape="http://www.inkscape.org/namespaces/inkscape"
   xmlns:sodipodi="http://sodipodi.sourceforge.net/DTD/sodipodi-0.dtd"
   xmlns="http://www.w3.org/2000/svg"
   xmlns:svg="http://www.w3.org/2000/svg">
  <sodipodi:namedview
     id="namedview1290"
     pagecolor="#ffffff"
     bordercolor="#000000"
     borderopacity="0.25"
     inkscape:showpageshadow="2"
     inkscape:pageopacity="0.0"
     inkscape:pagecheckerboard="0"
     inkscape:deskcolor="#d1d1d1"
     inkscape:document-units="mm"
     showgrid="false"
     inkscape:zoom="2.1842941"
     inkscape:cx="280.18205"
     inkscape:cy="148.78949"
     inkscape:window-width="1916"
     inkscape:window-height="1026"
     inkscape:window-x="0"
     inkscape:window-y="0"
     inkscape:window-maximized="1"
     inkscape:current-layer="layer1" />
  <defs
     id="defs1285" />
  <g
     inkscape:label="Layer 1"
     inkscape:groupmode="layer"
     id="layer1"
     transform="translate(-19.673883,-3.78121)">
    <path
       style="fill:#0000ff;stroke-width:0.264583"
       id="path1296"
       d="m 40.95407,28.60344 c 0.03073,-0.137515 0.0508,-0.277852 0.09218,-0.412547 0.625144,-2.035113 2.146194,-3.707142 3.490965,-5.295227 1.347496,-1.473848 2.865948,-2.777661 4.529974,-3.882198 1.024977,-0.680354 2.008372,-1.241934 3.164408,-1.66548 0.457089,-0.167467 0.938409,-0.2594 1.407613,-0.389101 0.419253,-0.02845 0.838041,-0.10588 1.257755,-0.08534 0.798068,0.03906 1.458761,0.265215 2.137423,0.677848 0.667316,0.405732 1.281226,1.005945 1.78154,1.59621 0.280358,0.330763 0.521287,0.693021 0.781928,1.039532 1.02248,1.428884 1.753278,3.03121 2.603315,4.56126 0.626867,1.128351 0.623327,1.085305 1.311577,2.153713 0.616447,0.895075 1.301874,1.745466 2.15619,2.426292 0.239022,0.190482 0.486061,0.374589 0.753711,0.522169 0.751406,0.414319 0.987581,0.402825 1.812226,0.580919 0.326096,0.01053 0.652346,0.04611 0.978289,0.03158 1.409187,-0.06281 2.767168,-0.596614 3.971962,-1.304298 0.330602,-0.194193 0.641792,-0.41969 0.962686,-0.629536 0.323252,-0.255564 0.653728,-0.502251 0.969759,-0.766694 0.561441,-0.469794 1.51379,-1.346702 2.032278,-1.843012 0.734229,-0.702824 1.440844,-1.414225 2.129009,-2.162627 0.358127,-0.389474 0.702257,-0.791589 1.053386,-1.187383 0.33809,-0.400597 0.681035,-0.797145 1.014267,-1.20179 0.684559,-0.831261 1.418685,-1.773801 2.086464,-2.618549 1.050558,-1.328962 2.103986,-2.655659 3.155217,-3.98409 1.088359,-1.401188 2.263733,-2.729277 3.570571,-3.931083 0.450876,-0.414641 0.907645,-0.824362 1.38915,-1.2030047 1.38929,-1.0924974 1.805649,-1.2697716 3.328593,-2.169501 0.621665,-0.2957616 1.229439,-0.6226858 1.864995,-0.887285 1.961033,-0.8164324 4.185199,-1.4071581 6.295869,-1.6513254 1.94506,-0.2250083 2.59649,-0.1338363 4.5431,-0.073452 0.7492,0.098586 1.50503,0.1557401 2.2476,0.2957582 2.14283,0.4040486 4.24876,1.1496955 6.0954,2.3239319 1.56925,0.9978509 1.73369,1.3240324 2.99778,2.640575 0.93635,1.338262 1.30611,1.682529 1.87635,3.229185 0.46663,1.265649 0.65868,2.503762 0.72541,3.847404 0.0931,1.874259 -0.0617,2.599258 -0.26313,4.484084 -0.14973,0.80584 -0.27613,1.616363 -0.44918,2.417518 -0.37756,1.747943 -0.84632,3.375998 -1.35074,5.091397 -0.4419,1.502791 -1.08467,3.575394 -1.57384,5.062533 -0.27896,0.848039 -0.57362,1.69083 -0.86043,2.536245 -1.18305,3.33656 -2.39881,6.683452 -4.06153,9.818317 -1.056,1.990982 -1.36652,2.352368 -2.60151,4.188754 -0.46936,0.589269 -0.91307,1.199909 -1.40807,1.767811 -1.37373,1.576056 -3.00289,3.067642 -4.76055,4.20747 -1.46388,0.949312 -1.89998,1.048586 -3.4904,1.712603 -0.57856,0.166436 -1.146878,0.373837 -1.735681,0.499305 -1.621428,0.345515 -3.327879,0.372116 -4.956146,0.05841 -1.292805,-0.249079 -1.705647,-0.476377 -2.922543,-0.955323 -2.291641,-1.0603 -4.312306,-2.597841 -6.189025,-4.270047 -0.354412,-0.315791 -0.697597,-0.643964 -1.046397,-0.965946 -1.005332,-0.969537 -1.973305,-1.981753 -2.868952,-3.054271 -0.78695,-0.942359 -1.509249,-1.939166 -2.234969,-2.928525 -1.057053,-1.434401 -1.957817,-2.998398 -3.180268,-4.305898 -0.223412,-0.238955 -0.467675,-0.457522 -0.701511,-0.686284 -0.922364,-0.802222 -2.007934,-1.392475 -3.21986,-1.611794 -0.804574,-0.145603 -1.07015,-0.09878 -1.879235,-0.08002 -1.467961,0.112996 -2.84189,0.647666 -4.062674,1.458558 -0.216673,0.143923 -0.421929,0.304342 -0.632892,0.456512 -0.81035,0.626954 -1.526143,1.360125 -2.26287,2.068359 -0.484351,0.465619 -0.63256,0.590137 -1.133001,1.037834 -0.867609,0.733824 -1.789576,1.434041 -2.860445,1.844693 -0.21848,0.08378 -0.445511,0.143283 -0.668266,0.214924 -1.236628,0.324662 -2.523432,0.438142 -3.799007,0.348334 -0.248081,-0.01746 -0.494543,-0.05314 -0.741814,-0.07971 -1.235785,-0.186769 -2.464385,-0.524952 -3.557061,-1.146953 -0.19871,-0.113115 -0.385072,-0.246666 -0.577607,-0.370001 -1.114867,-0.763863 -1.861672,-1.803747 -2.683849,-2.847414 -0.673052,-0.892408 -1.472586,-1.691516 -2.069044,-2.641616 -0.114054,-0.181676 -0.2125,-0.372695 -0.318751,-0.559043 -0.723273,-1.383877 -1.116881,-2.898543 -1.510964,-4.39981 -0.353642,-1.265637 -0.400558,-2.576364 -0.420344,-3.881022 -0.01095,-0.707022 -1.010838,-0.691525 -0.999881,0.01551 v 0 c 0.02191,1.385104 0.07828,2.776014 0.453014,4.119502 0.4167,1.58638 0.838552,3.18503 1.610823,4.643532 0.121198,0.210029 0.234085,0.42508 0.36359,0.63009 0.610267,0.966067 1.416556,1.78549 2.106036,2.691704 0.431826,0.548126 0.844322,1.119301 1.313751,1.636495 0.486278,0.53576 1.029211,1.017514 1.619322,1.436116 0.221662,0.139846 0.436599,0.290968 0.664985,0.419542 1.200391,0.675788 2.545771,1.047255 3.900892,1.247846 0.271357,0.02823 0.541878,0.06621 0.814073,0.0847 1.391756,0.09457 2.795026,-0.03563 4.142113,-0.39715 0.25699,-0.08494 0.518805,-0.15648 0.770969,-0.254828 1.162997,-0.453589 2.170803,-1.20903 3.114336,-2.010265 0.521976,-0.467293 0.662356,-0.584639 1.167842,-1.070543 0.700482,-0.673349 1.380202,-1.371129 2.147644,-1.97086 0.190027,-0.138184 0.37497,-0.283647 0.570082,-0.414552 1.070896,-0.71849 2.274708,-1.203979 3.566644,-1.31086 0.683538,-0.02244 0.926521,-0.06472 1.604783,0.04946 1.041585,0.175347 1.974583,0.675349 2.768819,1.358977 0.213432,0.207018 0.436748,0.404307 0.640292,0.621051 1.207916,1.286253 2.086531,2.83609 3.133037,4.246398 0.742947,1.01259 1.48305,2.031696 2.289011,2.995885 0.918871,1.099265 1.911792,2.136696 2.943069,3.130333 0.357492,0.329724 0.709208,0.665827 1.072475,0.989177 1.961814,1.746244 4.077912,3.345106 6.476974,4.443235 1.32275,0.513908 1.758002,0.753287 3.164763,1.016511 1.763726,0.330017 3.603508,0.290343 5.356267,-0.09043 0.625814,-0.135956 1.229631,-0.358494 1.844441,-0.537739 1.69366,-0.714303 2.13798,-0.813787 3.69584,-1.829067 1.82902,-1.191998 3.52155,-2.745976 4.95077,-4.390623 0.5117,-0.588835 0.97034,-1.221766 1.45551,-1.83265 1.27057,-1.893435 1.58392,-2.257173 2.67011,-4.307779 1.6808,-3.173179 2.91333,-6.558933 4.10984,-9.935683 0.28875,-0.85131 0.58539,-1.699982 0.86624,-2.55393 0.49024,-1.490583 1.14016,-3.585866 1.58274,-5.092026 0.51255,-1.744252 0.99021,-3.405414 1.37231,-5.18338 0.17766,-0.826634 0.3069,-1.662934 0.46036,-2.494401 0.20539,-1.960928 0.36935,-2.748019 0.26222,-4.70267 -0.0802,-1.462844 -0.29813,-2.790288 -0.81645,-4.164684 -0.63158,-1.67471 -1.03604,-2.049099 -2.05988,-3.4935418 -1.37275,-1.4111939 -1.55209,-1.7607061 -3.24417,-2.826825 -1.95374,-1.230979 -4.17624,-2.0129735 -6.43862,-2.4342465 -0.7755,-0.1444062 -1.56462,-0.2024746 -2.34694,-0.3037118 -2.04411,-0.05948 -2.69874,-0.1528257 -4.74284,0.087507 -2.20148,0.2588374 -4.512661,0.8784863 -6.556649,1.7342239 -0.66253,0.2773749 -1.296001,0.6196041 -1.944,0.9294064 -1.600443,0.949671 -2.013476,1.1228345 -3.474111,2.2743575 -0.496753,0.3916251 -0.968235,0.8149455 -1.43333,1.2436883 -1.336516,1.232053 -2.540865,2.591138 -3.655552,4.025475 -1.051536,1.328819 -2.105287,2.655892 -3.156135,3.985255 -0.655799,0.829609 -1.393275,1.776261 -2.065642,2.593033 -0.327951,0.398383 -0.665462,0.788801 -0.998191,1.183202 -0.342958,0.386911 -0.679053,0.780018 -1.028877,1.160735 -0.674913,0.734516 -1.36647,1.431053 -2.086658,2.120782 -0.50333,0.482042 -1.425496,1.331468 -1.972397,1.791534 -0.292587,0.246131 -0.598271,0.47626 -0.897406,0.714388 -0.292333,0.193053 -0.575649,0.40051 -0.877004,0.579154 -1.05805,0.627222 -2.244989,1.114939 -3.484419,1.190729 -0.266478,0.0163 -0.533895,-0.0076 -0.800844,-0.01135 -0.626242,-0.120938 -0.876572,-0.12034 -1.448019,-0.426003 -0.231828,-0.124002 -0.445829,-0.280556 -0.652677,-0.442838 -0.789194,-0.619152 -1.415275,-1.402782 -1.982602,-2.223035 -0.664621,-1.029404 -0.662597,-0.989828 -1.270456,-2.083886 -0.875297,-1.575411 -1.628804,-3.2249 -2.687391,-4.692513 -0.287062,-0.377329 -0.551519,-0.772977 -0.861184,-1.131987 -0.589741,-0.683713 -1.299004,-1.35809 -2.088486,-1.811886 -0.842283,-0.484145 -1.650175,-0.731316 -2.624093,-0.763472 -0.485521,-0.01603 -0.968293,0.07977 -1.452438,0.119662 -0.515995,0.146687 -1.045122,0.253258 -1.547987,0.440062 -1.2139,0.450939 -2.264891,1.050821 -3.340775,1.767652 -1.20936,0.805763 -2.241089,1.62531 -3.301859,2.618096 -0.487479,0.456238 -0.936464,0.951942 -1.404697,1.427913 -1.451663,1.717364 -3.066896,3.520966 -3.70568,5.733202 -0.05132,0.177713 -0.07405,0.362461 -0.111077,0.54369 -0.05428,0.705022 0.942766,0.781785 0.997047,0.07677 z" />
    <path
       style="fill:#0000ff;stroke-width:0.264583"
       id="path1298"
       d="m 50.465891,31.727555 c 0.09974,2.618295 0.320318,5.22742 0.636993,7.82783 0.07609,0.683342 0.08723,0.422759 0.05945,0.780203 -0.02757,0.70657 0.971669,0.745565 0.999241,0.03899 v 0 c 0.01021,-0.511178 0.01677,-0.197096 -0.06603,-0.940131 -0.314558,-2.580955 -0.532633,-5.170596 -0.631603,-7.769323 -0.04414,-0.705726 -1.042188,-0.643302 -0.998051,0.06243 z" />
    <path
       style="fill:#0000ff;stroke-width:0.264583"
       id="path1300"
       d="m 50.511731,36.882906 c 1.778709,-0.72657 3.625648,-1.276379 5.488664,-1.739562 0.686179,-0.170762 0.444685,-1.141163 -0.241493,-0.970404 v 0 c -1.923611,0.479147 -3.831241,1.046723 -5.666107,1.80195 -0.642065,0.296233 -0.223126,1.204248 0.418936,0.908016 z" />
    <path
       style="fill:#0000ff;stroke-width:0.264583"
       id="path1302"
       d="m 55.251135,31.194753 c 0.02127,0.206841 0.04806,0.413189 0.0638,0.620525 0.111819,1.473242 0.167873,2.949458 0.295916,4.421867 0.122907,1.413341 0.154773,1.567011 0.323313,2.883522 0.130278,0.961758 0.09433,0.557392 0.139083,1.209918 0.05029,0.705316 1.047761,0.634193 0.997469,-0.07112 v 0 c -0.05251,-0.713169 -0.01249,-0.290336 -0.144667,-1.265934 -0.05345,-0.416512 -0.113493,-0.832231 -0.160364,-1.249534 -0.13654,-1.215676 -0.201689,-2.061245 -0.286424,-3.290999 -0.06295,-0.913659 -0.09792,-1.829226 -0.169802,-2.742229 -0.01828,-0.232188 -0.04962,-0.463164 -0.07442,-0.694745 -0.126381,-0.695722 -1.110279,-0.516991 -0.983898,0.178731 z" />
    <path
       style="fill:#0000ff;stroke-width:0.264583"
       id="path1304"
       d="m 95.512413,22.686759 c -0.243388,0.121257 -0.497052,0.223773 -0.730166,0.363772 -1.854131,1.113516 -3.341372,2.759878 -4.341701,4.674709 -0.290587,0.556244 -0.496829,1.152631 -0.745244,1.728946 -0.15508,0.591288 -0.36122,1.171496 -0.465241,1.773867 -0.269933,1.563161 -0.199056,3.305149 0.635865,4.705358 0.238686,0.400291 0.534932,0.779841 0.898978,1.070827 0.371718,0.297122 0.844031,0.439807 1.26605,0.65971 0.502473,0.05011 1.003543,0.18347 1.507423,0.150344 1.122961,-0.07382 2.32885,-0.558803 3.289515,-1.107025 0.503542,-0.287356 0.969669,-0.638307 1.425368,-0.996727 0.368689,-0.289984 0.695312,-0.629788 1.042969,-0.944682 0.522788,-0.47612 -0.150548,-1.215456 -0.673338,-0.739336 v 0 c -0.315484,0.28905 -0.612367,0.599811 -0.946449,0.867146 -1.166291,0.933278 -2.544066,1.75183 -4.061804,1.923536 -0.380153,0.04301 -0.764349,-0.03509 -1.146524,-0.05264 -0.31633,-0.138983 -0.6693,-0.214085 -0.948992,-0.416948 -0.624048,-0.452639 -1.024675,-1.214015 -1.225481,-1.934012 -0.267594,-0.959469 -0.256881,-1.959912 -0.09552,-2.934843 0.09165,-0.553754 0.277789,-1.087665 0.416684,-1.631498 0.22532,-0.531868 0.411504,-1.082071 0.675961,-1.595601 0.908542,-1.764234 2.255337,-3.266102 3.943323,-4.309036 0.189751,-0.117238 0.396317,-0.204773 0.594476,-0.30716 0.670838,-0.223554 0.354682,-1.172262 -0.316155,-0.948708 z" />
    <path
       style="fill:#0000ff;stroke-width:0.264583"
       id="path1306"
       d="m 101.60745,30.39256 c 0.0914,-0.127939 0.19123,-0.250301 0.27431,-0.38382 0.94778,-1.52323 1.4464,-3.262342 1.90735,-4.979582 0.12588,-0.617496 0.22534,-1.011329 0.28813,-1.616239 0.0136,-0.131638 0.11914,-0.315782 0.0145,-0.396774 -0.25781,-0.199486 -0.62542,-0.43211 -0.92757,-0.309764 -0.29181,0.118162 -0.2968,0.557138 -0.40941,0.851139 -0.15106,0.394413 -0.25307,0.805907 -0.3796,1.208861 -0.48372,1.725435 -0.78903,3.502805 -0.78764,5.299583 7.9e-4,1.042511 0.096,2.135751 0.44331,3.130103 0.13397,0.383595 0.36303,0.727035 0.54454,1.090554 0.23635,0.239538 0.42306,0.541258 0.70904,0.718616 1.06602,0.661125 2.2065,0.157337 3.05072,-0.591407 0.33424,-0.296445 0.58615,-0.674405 0.87922,-1.011605 0.45737,-0.539269 -0.30527,-1.18609 -0.76264,-0.646822 v 0 c -0.53502,0.650211 -0.68368,0.962798 -1.39924,1.377154 -0.17794,0.103034 -0.37678,0.180244 -0.58038,0.208925 -0.16447,0.02318 -0.34689,0.01781 -0.49496,-0.05745 -0.20353,-0.103453 -0.34158,-0.303038 -0.51237,-0.454557 -0.15385,-0.288946 -0.34997,-0.559091 -0.46156,-0.866839 -0.32809,-0.904843 -0.41352,-1.889895 -0.41716,-2.842321 -0.007,-1.713925 0.28361,-3.409439 0.74357,-5.055571 0.11745,-0.377555 0.24003,-0.753555 0.35236,-1.132666 0.0444,-0.149747 0.20036,-0.321068 0.11763,-0.453539 -0.15204,-0.243453 -0.43172,-0.411178 -0.70745,-0.4909 -0.0912,-0.02638 0.005,0.19042 -0.005,0.284919 -0.0573,0.562943 -0.14747,0.920317 -0.26396,1.497817 -0.4594,1.718177 -0.94655,3.493417 -1.97483,4.971221 -0.4603,0.536768 0.29881,1.187736 0.75911,0.650965 z" />
    <path
       style="fill:#0000ff;stroke-width:0.264583"
       id="path1308"
       d="m 34.83012,27.916261 c 0.12192,-0.405191 0.220287,-0.664919 0.246973,-1.111861 0.05577,-0.934078 -0.11865,-1.900165 -0.648505,-2.688974 -0.177659,-0.264486 -0.426722,-0.473256 -0.640082,-0.709884 -0.30022,-0.138564 -0.574977,-0.358592 -0.900663,-0.415692 -1.261925,-0.221244 -2.369767,0.677749 -2.873029,1.764354 -0.55767,1.204079 -0.41943,1.965439 -0.438478,3.271748 0.126969,1.82427 0.749925,3.547094 1.16213,5.312482 0.194693,0.833823 0.3996,1.722508 0.327834,2.591752 -0.02249,0.272452 -0.134704,0.529905 -0.202057,0.794859 -0.123719,0.116149 -0.211552,0.290798 -0.371157,0.348448 -0.246695,0.08911 -0.99454,-0.270843 -1.096547,-0.335571 -0.58056,-0.368393 -1.01269,-0.829551 -1.339136,-1.437905 -0.160792,-0.299646 -0.241133,-0.635942 -0.361698,-0.953913 -0.147244,-0.895527 -0.215469,-0.997931 -0.170622,-1.882928 0.01889,-0.372742 0.03271,-0.736915 0.2735,-1.038005 0.04412,-0.05517 0.12206,-0.07117 0.183089,-0.106754 0.526772,-0.47171 -0.140325,-1.216679 -0.6671,-0.744969 v 0 c -0.142391,0.146574 -0.317002,0.26761 -0.427172,0.439719 -0.284581,0.444569 -0.342315,0.953622 -0.362178,1.466659 -0.04088,1.056026 0.04372,1.163516 0.241464,2.236309 0.162912,0.393745 0.275365,0.812387 0.488739,1.181235 0.21649,0.374237 0.481306,0.725924 0.789765,1.028872 0.792663,0.778494 2.116018,1.502359 3.208756,0.796171 0.27115,-0.175234 0.389744,-0.5148 0.584618,-0.772197 0.07563,-0.353732 0.201424,-0.700368 0.226888,-1.061196 0.06632,-0.93989 -0.149305,-1.902505 -0.360008,-2.805454 -0.392047,-1.680054 -0.985285,-3.319068 -1.129125,-5.051367 -0.0019,-0.511963 -0.05512,-1.026364 -0.0052,-1.535896 0.03936,-0.401889 0.124714,-0.804392 0.271246,-1.180681 0.249359,-0.640346 0.891984,-1.42629 1.668478,-1.399567 0.191934,0.0066 0.366064,0.116297 0.549098,0.174446 0.159268,0.159731 0.344464,0.297259 0.477803,0.479195 0.433935,0.592083 0.582782,1.35244 0.552408,2.073724 -0.01516,0.359814 -0.09381,0.57455 -0.188389,0.9012 -0.262789,0.656463 0.665586,1.028102 0.928375,0.371641 z" />
    <path
       style="fill:#0000ff;stroke-width:0.264583"
       id="path1310"
       d="m 23.263686,25.982072 c -0.176557,2.174463 -0.267013,4.353679 -0.305885,6.534576 -0.007,0.13081 -0.0141,0.26162 -0.02114,0.392433 -0.03748,0.706112 0.96111,0.759124 0.998594,0.05301 v 0 c 0.0075,-0.142549 0.01493,-0.285102 0.02239,-0.427651 0.03826,-2.153587 0.127521,-4.305456 0.301069,-6.452748 0.07044,-0.703589 -0.924584,-0.803209 -0.995025,-0.09962 z" />
    <path
       style="fill:#0000ff;stroke-width:0.264583"
       id="path1312"
       d="m 20.302127,30.157473 c 1.819233,-0.280215 3.657406,-0.402339 5.48734,-0.591476 0.703357,-0.07272 0.60052,-1.067417 -0.102838,-0.994699 v 0 c -1.86108,0.192461 -3.730878,0.315278 -5.580396,0.605549 -0.693407,0.138518 -0.497512,1.119143 0.195894,0.980626 z" />
    <path
       style="fill:#0000ff;stroke-width:0.264583"
       id="path1316"
       d="m 139.86044,21.252388 c -0.0857,-0.351398 -0.11958,-0.579599 -0.31436,-0.911936 -0.41272,-0.704228 -1.07258,-1.188614 -1.93249,-1.121471 -0.3297,0.02574 -0.63502,0.184927 -0.95254,0.27739 -0.70149,0.537362 -1.14232,0.727879 -1.48938,1.607753 -0.52264,1.32502 -0.14726,2.742849 0.33796,4.004529 0.16173,0.420522 0.37133,0.82103 0.557,1.231544 0.49485,1.112054 1.22132,2.222804 1.26135,3.481413 0.0137,0.431631 -0.0651,0.578824 -0.18729,0.968061 -0.0699,0.09219 -0.12123,0.201985 -0.20966,0.276587 -0.29616,0.249857 -0.82263,0.06422 -1.11683,-0.04291 -0.62762,-0.228532 -0.83645,-0.378175 -1.4271,-0.708822 -0.49641,-0.342413 -1.41643,-0.914016 -1.4481,-1.618408 -0.0139,-0.30988 0.15466,-0.424233 0.33446,-0.65259 0.66267,-0.652261 1.50417,-1.054531 2.31569,-1.48273 0.6249,-0.330907 0.15693,-1.21465 -0.46797,-0.883743 v 0 c -0.97096,0.515858 -1.96593,1.00098 -2.70259,1.847644 -0.13515,0.255929 -0.32621,0.489426 -0.40545,0.767789 -0.0664,0.233328 -0.0585,0.487952 -0.0203,0.727511 0.15516,0.971201 1.1605,1.67485 1.90891,2.168885 0.94802,0.522184 2.19806,1.29726 3.32325,0.827262 0.52617,-0.219786 0.60374,-0.502523 0.87651,-0.949513 0.16004,-0.590878 0.24823,-0.744958 0.21613,-1.388038 -0.0676,-1.353106 -0.78675,-2.557203 -1.34083,-3.752469 -0.1725,-0.376841 -0.3646,-0.74531 -0.5175,-1.130523 -0.36869,-0.928908 -0.7698,-2.148636 -0.44245,-3.157111 0.20026,-0.616933 0.51549,-0.796277 0.96482,-1.19494 0.33928,-0.143112 0.60179,-0.330239 0.98557,-0.242816 0.53499,0.121867 0.77959,0.691802 0.89926,1.162175 0.0781,0.702775 1.07203,0.592248 0.99387,-0.110526 z" />
    <path
       style="fill:#0000ff;stroke-width:0.264583"
       id="path1318"
       d="m 129.81082,25.583136 c 0.71002,-0.105471 1.42862,-0.121102 2.14456,-0.147454 0.70662,-0.02617 0.66962,-1.025482 -0.037,-0.999315 v 0 c -0.75571,0.02815 -1.5141,0.04638 -2.26341,0.15899 -0.69847,0.110208 -0.54261,1.097988 0.15586,0.987779 z" />
  </g>
</svg>
