<?xml version="1.0" encoding="UTF-8" standalone="no"?>
<!-- Created with Inkscape (http://www.inkscape.org/) -->

<svg
   width="107.15143mm"
   height="104.15621mm"
   viewBox="0 0 107.15143 104.15621"
   version="1.1"
   id="svg1397"
   inkscape:version="1.2.2 (b0a8486541, 2022-12-01)"
   sodipodi:docname="indüklenmiş-dipol.svg"
   xmlns:inkscape="http://www.inkscape.org/namespaces/inkscape"
   xmlns:sodipodi="http://sodipodi.sourceforge.net/DTD/sodipodi-0.dtd"
   xmlns="http://www.w3.org/2000/svg"
   xmlns:svg="http://www.w3.org/2000/svg">
  <sodipodi:namedview
     id="namedview1399"
     pagecolor="#ffffff"
     bordercolor="#000000"
     borderopacity="0.25"
     inkscape:showpageshadow="2"
     inkscape:pageopacity="0.0"
     inkscape:pagecheckerboard="0"
     inkscape:deskcolor="#d1d1d1"
     inkscape:document-units="mm"
     showgrid="false"
     inkscape:zoom="1.2493108"
     inkscape:cx="501.07626"
     inkscape:cy="291.36064"
     inkscape:window-width="1916"
     inkscape:window-height="1026"
     inkscape:window-x="0"
     inkscape:window-y="0"
     inkscape:window-maximized="1"
     inkscape:current-layer="layer1" />
  <defs
     id="defs1394" />
  <g
     inkscape:label="Layer 1"
     inkscape:groupmode="layer"
     id="layer1"
     transform="translate(-8.2065654,-6.7927312)">
    <path
       style="fill:#0000ff;stroke-width:0.264583"
       id="path1409"
       d="m 28.80647,10.765902 c -0.365215,0.352565 -0.759629,0.6772 -1.095644,1.057696 -0.509194,0.576595 -1.012611,1.164463 -1.434684,1.807574 -0.525131,0.800139 -1.023231,1.62728 -1.39767,2.508063 -0.90239,2.122672 -1.356364,4.249043 -1.292805,6.567675 0.0339,1.236692 0.335379,2.451479 0.503069,3.677218 0.406595,1.185876 0.693255,2.419913 1.219784,3.557624 0.562566,1.215578 1.264899,2.368582 2.031254,3.467132 2.266368,3.248787 5.33994,6.077104 8.947054,7.772307 1.167604,0.54873 2.436112,0.850279 3.654166,1.275416 1.263883,0.124154 2.522302,0.412047 3.791651,0.37246 2.691146,-0.08393 5.091449,-0.847627 7.419168,-2.17823 1.13212,-0.64716 2.210446,-1.412087 3.161385,-2.304402 2.555438,-2.397895 3.003962,-3.780763 4.65991,-6.797783 0.428323,-1.345748 0.993558,-2.655369 1.284973,-4.037243 C 61.406238,22.066903 60.542645,15.548758 56.543752,11.382372 55.543859,10.3406 54.24299,9.6368678 53.092609,8.7641156 51.711243,8.2451095 50.390541,7.5202869 48.948511,7.207097 45.853003,6.5347939 42.190939,6.7574368 39.112195,7.3278451 c -2.82521,0.5234356 -5.997562,1.5924295 -8.567669,2.9159249 -1.004644,0.517349 -1.904611,1.216675 -2.856918,1.825012 -0.550539,0.57137 -1.101079,1.14274 -1.651619,1.71411 -0.487572,0.512127 0.236684,1.201658 0.724257,0.689531 v 0 c 0.489149,-0.520676 0.978295,-1.041352 1.467443,-1.562028 0.902959,-0.582226 1.754891,-1.252479 2.708878,-1.746678 2.485787,-1.2877235 5.549273,-2.3258326 8.283464,-2.8417029 2.905289,-0.5481529 6.449295,-0.7851714 9.381138,-0.1771782 1.352053,0.2803826 2.594446,0.9463013 3.891669,1.4194522 1.076891,0.7967009 2.293197,1.4332499 3.230671,2.3901019 3.827624,3.906741 4.642368,10.106121 3.581006,15.255833 -0.272124,1.32035 -0.806106,2.57288 -1.209162,3.859319 -1.54431,2.845792 -1.989661,4.20361 -4.373671,6.470602 -0.892408,0.848601 -1.907265,1.575633 -2.971665,2.194962 -2.163194,1.258671 -4.411136,1.999917 -6.92332,2.098394 -1.190178,0.04665 -2.372495,-0.214619 -3.558744,-0.321931 -1.155967,-0.396211 -2.359671,-0.673783 -3.467902,-1.18863 -3.468507,-1.611358 -6.411023,-4.315765 -8.598701,-7.421682 -0.733253,-1.041021 -1.406919,-2.133377 -1.947694,-3.28618 -0.505194,-1.076955 -0.783074,-2.246556 -1.174612,-3.369833 -0.165658,-1.151199 -0.456712,-2.291236 -0.496974,-3.453596 -0.07523,-2.171805 0.336047,-4.173871 1.171042,-6.16764 0.348828,-0.832916 0.815325,-1.615519 1.307471,-2.372633 0.395298,-0.608125 0.868312,-1.163886 1.346097,-1.709595 0.311216,-0.355458 0.677307,-0.658844 1.01596,-0.988266 0.556927,-0.435699 -0.05924,-1.223311 -0.61617,-0.787612 z" />
    <path
       style="fill:#0000ff;stroke-width:0.264583"
       id="path1417"
       d="m 37.729694,19.870686 c -0.06746,1.845986 -0.275908,3.682664 -0.362125,5.527745 -0.05143,1.664882 -0.01826,0.90884 -0.0897,2.268535 -0.215651,0.816244 -0.06291,0.163792 0.02302,0.08876 0.0765,-0.0668 0.193363,-0.06224 0.290044,-0.09336 -0.596728,-0.379363 -1.133229,0.464537 -0.536501,0.843901 v 0 c 0.225481,0.05076 0.451332,0.204682 0.676439,0.152292 0.462539,-0.107651 0.471736,-0.60861 0.545634,-0.939247 0.07173,-1.371598 0.03905,-0.618069 0.08927,-2.260951 0.08692,-1.865034 0.299855,-3.72151 0.363921,-5.587679 0,-0.707107 -1.000001,-0.707107 -1.000001,0 z" />
    <path
       style="fill:#0000ff;stroke-width:0.264583"
       id="path1419"
       d="m 37.610436,24.718338 c 0.599831,-0.238131 1.215609,-0.490884 1.872239,-0.503856 0.475544,-0.0094 0.940406,0.165835 1.390653,0.292861 0.570105,0.123857 0.959246,0.09697 1.370369,-0.380407 0.108617,-0.126119 0.157335,-0.293363 0.236001,-0.440044 0.300381,-0.640134 -0.604904,-1.064938 -0.905285,-0.424804 v 0 c -0.01688,0.05693 -0.04306,0.111898 -0.05064,0.170794 -0.004,0.03079 0.03046,0.06367 0.01691,0.09159 -0.06721,0.138334 -0.353505,0.02649 -0.396333,0.0203 -0.592227,-0.166419 -1.16863,-0.346879 -1.794407,-0.321435 -0.750958,0.03053 -1.458449,0.303578 -2.14545,0.581113 -0.646221,0.287053 -0.240266,1.200946 0.405955,0.913893 z" />
    <path
       style="fill:#0000ff;stroke-width:0.264583"
       id="path1421"
       d="m 40.74877,19.451305 c -0.21576,2.290284 -0.253114,4.601131 -0.02527,6.892294 0.03261,0.327861 0.08618,0.653299 0.129275,0.979948 0.565174,-0.938255 -0.09373,1.030039 0.107551,0.834652 0.120825,-0.11729 0.08282,-0.352584 0.214715,-0.457266 0.369136,-0.292976 0.501165,0.216543 0.331152,-0.217088 -0.311639,-0.634728 -1.209281,-0.194001 -0.897641,0.440727 v 0 c 0.18116,0.337484 0.339383,0.826212 0.917794,0.712621 0.691454,-0.13579 0.36494,-1.08435 0.317736,-1.445221 -0.04115,-0.308078 -0.09248,-0.614968 -0.123463,-0.924233 -0.223671,-2.232819 -0.187044,-4.484947 0.02318,-6.717026 0.07029,-0.703604 -0.924756,-0.803012 -0.995048,-0.09941 z" />
    <path
       style="fill:#0000ff;stroke-width:0.264583"
       id="path1423"
       d="m 43.46608,26.305823 c 0.540523,0.281494 1.142034,0.572589 1.777011,0.489684 0.577953,-0.07546 1.115406,-0.361855 1.517779,-0.778645 0.200927,-0.208127 0.332449,-0.473531 0.498674,-0.710298 0.151474,-0.476203 0.401174,-0.960367 0.21273,-1.4829 -0.225928,-0.62647 -0.690975,-0.89187 -1.368899,-0.799691 -0.768675,0.10452 -1.182698,0.658315 -1.696225,1.145108 -0.203327,0.331247 -0.439952,0.64423 -0.609976,0.993741 -0.31216,0.641696 -0.526092,1.381612 -0.519773,2.102421 0.0027,0.309939 0.03249,0.630346 0.147891,0.918012 0.110143,0.274569 0.269126,0.555553 0.511358,0.725384 0.270975,0.189987 0.631518,0.198189 0.947277,0.297283 0.349427,-0.08372 0.714507,-0.118115 1.048281,-0.251166 0.652929,-0.260273 1.182302,-0.719603 1.729997,-1.138788 0.559824,-0.431966 -0.05107,-1.223679 -0.610894,-0.791712 v 0 c -0.613529,0.477821 -1.219382,0.982099 -1.98416,1.198594 -0.118296,0.0182 -0.241443,0.09275 -0.354881,0.05459 -0.361878,-0.121735 -0.429114,-0.606219 -0.441139,-0.900396 -0.03744,-0.916038 0.362225,-1.745066 0.838665,-2.496424 0.613008,-0.64043 0.349708,-0.440736 0.969344,-0.856939 0.07101,-0.0477 0.134043,-0.114672 0.216323,-0.138086 0.257315,-0.07322 0.256543,0.195001 0.24521,0.383305 -0.01,0.166315 -0.07695,0.324226 -0.115419,0.486339 -0.09589,0.159876 -0.168473,0.336282 -0.287665,0.479627 -0.172368,0.207295 -0.557425,0.501463 -0.837343,0.562276 -0.482904,0.104911 -0.947063,-0.161081 -1.355291,-0.369202 -0.620758,-0.338615 -1.099632,0.539269 -0.478875,0.877883 z" />
    <path
       style="fill:#00ff00;stroke-width:0.264583"
       id="path1449"
       d="m 64.638956,24.269082 c 0.05752,-0.869637 -0.04443,-1.708312 -0.270867,-2.546631 -0.126195,-0.381709 -0.268099,-0.782206 -0.54438,-1.085757 -0.13711,-0.150645 -0.220551,-0.201713 -0.377047,-0.317009 -0.345543,-0.22194 -0.746493,-0.311425 -1.13723,-0.416914 -0.57486,-0.179411 -1.133107,-0.400435 -1.715944,-0.554669 -0.391271,-0.104079 -0.801103,-0.169475 -1.170345,-0.343596 -0.08451,-0.03985 -0.205332,-0.120104 -0.283313,-0.169609 -0.585867,-0.372628 -1.275749,-0.498344 -1.948976,-0.615026 -0.686814,-0.09814 -1.373664,-0.220685 -2.040475,-0.415503 -0.07018,-0.0205 -0.995479,-0.319464 -1.052677,-0.33791 -1.293031,-0.432217 -2.6149,-0.766684 -3.923506,-1.146695 C 48.808494,15.876945 47.463167,15.375232 46.104301,14.911975 44.764753,14.458199 43.452393,13.933776 42.159594,13.361586 41.346159,13.019999 40.560439,12.617863 39.760646,12.246967 39.498534,12.125415 38.706041,11.78096 38.443378,11.666207 37.296706,11.168422 36.129812,10.724537 34.95476,10.299426 34.30707,10.060172 33.688311,9.75665 33.035552,9.5314377 32.626273,9.3985341 32.213841,9.3066274 31.783927,9.2836245 31.286698,9.2240046 30.790546,9.1563117 30.29169,9.1110942 29.449506,9.0798191 28.613952,8.9672849 27.775159,8.8942695 27.183678,8.8500002 26.588603,8.82965 26.000244,8.9215959 c -0.337419,0.05273 -0.458246,0.097211 -0.780657,0.1887815 -0.616346,0.2031733 -1.209598,0.4703067 -1.803288,0.7309562 -0.842458,0.4187014 -1.656437,0.8908074 -2.429925,1.4259714 -0.603343,0.44019 -1.152027,0.964574 -1.538191,1.609344 -0.06731,0.112385 -0.123607,0.231008 -0.185411,0.346512 -0.319168,0.687889 -0.49381,1.428691 -0.68681,2.158547 -0.128528,0.572881 -0.305997,1.134627 -0.428733,1.708838 -0.05579,0.261007 -0.133371,0.736195 -0.178208,1.00111 -0.10831,0.871476 -0.182645,1.746705 -0.278867,2.619724 -0.124059,0.93755 -0.302567,1.866193 -0.428227,2.803726 -0.08335,1.107324 -0.14354,2.216294 -0.224258,3.324066 -0.07708,1.062561 -0.07784,2.128147 -0.0738,3.192809 -0.0021,0.841803 0.07904,1.681593 0.167934,2.517891 0.09719,0.814321 0.305616,1.611416 0.575938,2.384131 0.266268,0.758294 0.583087,1.497875 0.960626,2.207186 0.508493,0.851324 1.2064,1.559388 1.900241,2.258494 0.691363,0.653606 1.504733,1.205246 2.422935,1.487363 0.803537,0.246888 1.141419,0.235085 1.9846,0.317005 2.239433,0.06357 4.428278,-0.461129 6.61616,-0.858993 0.940488,-0.150432 1.852512,-0.418452 2.694519,-0.86813 0.573347,-0.306197 0.687247,-0.409358 1.219891,-0.781222 0.831239,-0.562628 1.528606,-1.291494 2.349494,-1.866699 0.739513,-0.472112 1.528739,-0.85472 2.322201,-1.225417 1.025678,-0.507992 2.077389,-0.961377 3.133936,-1.400749 1.074553,-0.382051 2.080014,-0.917814 3.067331,-1.482048 0.310774,-0.159049 0.608272,-0.350983 0.933622,-0.481089 0.267874,-0.107122 0.556821,-0.177927 0.835062,-0.251799 0.72127,-0.180885 1.463659,-0.255471 2.204683,-0.293336 0.697539,0.0223 1.383257,-0.06677 2.067025,-0.194569 0.82228,-0.155792 1.61735,-0.40786 2.386232,-0.735187 0.66275,-0.304303 1.340554,-0.573738 2.017311,-0.844801 0.784915,-0.311058 1.533501,-0.702787 2.280591,-1.093756 0.562719,-0.302625 1.173713,-0.500833 1.732638,-0.811477 0.368689,-0.204912 0.526259,-0.328449 0.871278,-0.569854 0.806497,-0.634183 1.441701,-1.44828 2.002319,-2.299934 0.04894,-0.09955 0.09787,-0.199093 0.146809,-0.29864 0.302718,-0.639032 -0.601011,-1.067138 -0.903729,-0.428105 v 0 c -0.02625,0.05916 -0.05249,0.118327 -0.07874,0.17749 -0.490368,0.747292 -1.042157,1.465732 -1.741421,2.030864 -0.276318,0.194911 -0.452895,0.330541 -0.74672,0.495252 -0.562002,0.315048 -1.181624,0.50826 -1.746116,0.818399 -0.717288,0.375388 -1.435422,0.752782 -2.188993,1.05156 -0.683799,0.274323 -1.369049,0.546052 -2.038799,0.853707 -0.700554,0.301874 -1.427491,0.527635 -2.177415,0.671695 -0.307047,0.05809 -0.617395,0.116973 -0.928534,0.149283 -0.256331,0.02662 -0.354389,0.01553 -0.621607,0.01979 -0.127987,0.0021 -0.255926,0.0064 -0.383889,0.0096 -0.810742,0.04256 -1.622634,0.125902 -2.411365,0.325967 -0.335796,0.09042 -0.67817,0.181306 -1.001091,0.312383 -0.349695,0.141943 -0.671393,0.345638 -1.005512,0.518414 -0.950912,0.543975 -1.919007,1.060579 -2.954994,1.426842 -1.069731,0.444966 -2.134613,0.904002 -3.173251,1.418101 -0.84674,0.395724 -1.688605,0.805624 -2.474997,1.314034 -0.817583,0.579202 -1.524651,1.292855 -2.347619,1.865376 -0.176321,0.124333 -0.3478,0.255836 -0.528965,0.373002 -0.910807,0.589044 -1.916845,0.95378 -2.990157,1.111173 -2.098516,0.381844 -4.197098,0.887698 -6.34419,0.847183 -0.690334,-0.06155 -1.049,-0.05649 -1.704782,-0.249241 -0.791404,-0.232619 -1.492153,-0.703794 -2.086097,-1.264007 -0.625702,-0.630031 -1.258925,-1.264433 -1.727799,-2.025007 -0.355753,-0.663704 -0.648809,-1.358749 -0.89965,-2.0687 -0.248436,-0.697913 -0.432847,-1.421318 -0.524618,-2.157264 -0.08531,-0.802474 -0.164527,-1.60823 -0.162338,-2.415998 -0.004,-1.039146 -0.0039,-2.079215 0.07116,-3.116331 0.07925,-1.087778 0.140367,-2.176563 0.218081,-3.264205 0.126062,-0.945279 0.308593,-1.881128 0.431032,-2.826742 0.09404,-0.853894 0.168232,-1.709736 0.270879,-2.562472 0.03211,-0.190009 0.122029,-0.735385 0.163682,-0.930714 0.121134,-0.568047 0.297157,-1.123615 0.424033,-1.690349 0.173715,-0.656938 0.328999,-1.323844 0.604562,-1.947697 0.334697,-0.647024 0.80857,-1.183037 1.409174,-1.600774 0.719285,-0.500731 1.479701,-0.936939 2.261946,-1.331962 0.552938,-0.242933 1.105499,-0.491582 1.677869,-0.685588 0.247584,-0.072496 0.362458,-0.1140616 0.620154,-0.1565114 0.520931,-0.085812 1.048229,-0.062113 1.572284,-0.024297 0.837835,0.072438 1.672357,0.1858934 2.513576,0.2165634 0.512236,0.04547 1.021022,0.119482 1.532171,0.17531 0.336259,0.01474 0.654637,0.09317 0.97524,0.194462 0.647933,0.223055 1.260227,0.529893 1.90486,0.76292 1.154774,0.417741 2.301619,0.85353 3.428476,1.342795 0.215816,0.09428 1.057913,0.460585 1.281756,0.564411 0.810151,0.37578 1.606211,0.782843 2.430121,1.129061 1.319712,0.583909 2.659383,1.119189 4.026712,1.582439 1.373373,0.468164 2.732765,0.976141 4.113734,1.421616 1.299239,0.37716 2.611588,0.709243 3.895407,1.138087 0.13281,0.04283 0.980009,0.317035 1.104699,0.353143 0.695426,0.201382 1.41056,0.331939 2.126488,0.434172 0.54465,0.0921 1.110829,0.180797 1.587402,0.477098 0.165603,0.102556 0.259723,0.167533 0.44164,0.250079 0.409895,0.185993 0.855369,0.273913 1.289309,0.382839 0.581338,0.150099 1.133671,0.382906 1.708984,0.552821 0.274563,0.07383 0.556696,0.132318 0.811985,0.262102 0.05808,0.04049 0.123386,0.07222 0.174149,0.121566 0.198858,0.193293 0.276383,0.483473 0.367956,0.733779 0.197257,0.713659 0.284694,1.442076 0.240546,2.183672 -0.07044,0.70359 0.924583,0.803209 0.995023,0.09962 z" />
    <path
       style="fill:#00ff00;stroke-width:0.264583"
       id="path1451"
       d="m 71.133054,20.001645 c 0.307771,-0.839673 0.603877,-1.764538 0.461184,-2.672666 -0.02254,-0.143433 -0.07757,-0.279834 -0.116356,-0.419751 -0.09603,-0.125816 -0.157083,-0.288634 -0.288091,-0.377449 -0.594233,-0.402846 -1.17275,-0.01234 -1.528646,0.484817 -0.356042,0.497367 -0.456856,0.923569 -0.660696,1.498727 -0.268619,0.937181 -0.365059,1.907719 -0.408745,2.877977 -0.03855,0.856324 7.94e-4,1.024107 -0.05956,1.857579 -0.01752,0.241524 -0.05258,0.481455 -0.07887,0.722182 -0.01897,0.07958 -0.106272,0.634243 -0.253796,0.752911 -0.01032,0.0083 0.02527,-0.277124 0.02162,-0.282098 -0.07709,-0.105004 -0.199879,-0.167272 -0.29556,-0.25567 -0.137666,-0.127184 -0.269484,-0.260558 -0.404223,-0.390838 -0.189809,-0.250424 -0.423957,-0.481974 -0.475123,-0.811201 -0.07175,-0.461701 0.60642,-0.994552 0.906153,-1.243675 0.173517,-0.100687 0.351412,-0.238748 0.562198,-0.259059 0.02574,-0.0025 0.04444,0.02644 0.06666,0.03965 0.706173,0.03635 0.757579,-0.962327 0.05141,-0.998678 v 0 c -0.14778,0.0045 -0.298297,-0.01526 -0.443339,0.0134 -0.350758,0.06932 -0.589954,0.260294 -0.887267,0.445038 -0.535691,0.468704 -1.075155,0.931532 -1.208214,1.686844 -0.130609,0.741417 0.286324,1.3253 0.735954,1.849988 0.444289,0.421868 1.017934,1.116889 1.733455,0.990356 0.691282,-0.122246 0.766368,-0.906698 0.884322,-1.429849 0.02791,-0.262292 0.06474,-0.523787 0.08373,-0.786874 0.107492,-1.489525 -0.01789,-2.993716 0.41389,-4.450012 0.07837,-0.231518 0.143743,-0.467852 0.235117,-0.694554 0.06657,-0.165177 0.158454,-0.318991 0.237681,-0.478486 0.05321,-0.0782 0.123335,-0.147264 0.159633,-0.234612 0.03906,-0.09399 -0.230293,-0.218952 -0.054,-0.227609 0.02421,0.0613 0.06075,0.119067 0.07265,0.18389 0.138343,0.753322 -0.138464,1.528477 -0.386218,2.225037 -0.27201,0.652695 0.651039,1.037374 0.92305,0.384679 z" />
    <path
       style="fill:#00ff00;stroke-width:0.264583"
       id="path1453"
       d="m 73.365547,19.974831 c 0.09251,1.315786 2.54e-4,2.634599 -0.221985,3.932428 -0.07909,0.223608 -0.08792,0.258922 -0.04095,0.101229 -0.464,0.533576 0.290589,1.189772 0.754589,0.656195 v 0 c 0.233452,-0.35217 0.138946,-0.157509 0.272145,-0.589367 0.233524,-1.375453 0.332393,-2.772582 0.234003,-4.166814 -0.0469,-0.70555 -1.0447,-0.639221 -0.997797,0.06633 z" />
    <path
       style="fill:#00ff00;stroke-width:0.264583"
       id="path1455"
       d="m 72.347888,22.46364 c 0.854787,-0.202245 1.714934,-0.378776 2.579031,-0.535922 0.695675,-0.126627 0.516599,-1.110462 -0.179078,-0.983836 v 0 c -0.89367,0.162801 -1.783466,0.34495 -2.667111,0.556105 -0.681405,0.188909 -0.414247,1.152562 0.267158,0.963653 z" />
    <path
       style="fill:#00ff00;stroke-width:0.264583"
       id="path1463"
       d="m 12.706157,20.456648 c -0.05709,-0.605288 -0.09891,-1.353279 -0.493501,-1.853131 -0.0828,-0.104883 -0.194134,-0.183671 -0.291201,-0.275506 -0.193305,-0.03024 -0.391514,-0.143506 -0.579915,-0.09072 -0.493267,0.138194 -0.705351,0.61311 -0.825962,1.046321 -0.247422,0.888697 -0.128971,1.82109 -0.04229,2.719564 0.167019,1.428595 0.642665,2.806014 0.721859,4.247335 0.01004,0.182738 -0.0044,0.366001 -0.0066,0.549003 -0.06029,-0.02749 -0.01415,0.428458 -0.173963,0.452575 -0.02255,0.0034 0.0067,-0.132133 -0.05204,-0.187188 -0.07265,-0.06806 -0.167425,-0.108609 -0.243859,-0.172384 C 10.589817,26.784996 10.471442,26.665502 10.347824,26.551993 9.9658537,26.114991 9.5581884,25.673851 9.3041559,25.144146 9.2317849,24.993239 9.134251,24.7853 9.2282324,24.613679 c 0.023596,-0.04309 0.075764,-0.06256 0.1136459,-0.09384 0.5277535,-0.331415 1.1101007,-0.580546 1.7206027,-0.708511 0.114406,-0.02028 0.228804,-0.02477 0.343988,-0.01404 0.705836,0.04237 0.76576,-0.95583 0.05992,-0.998203 v 0 c -0.207167,-0.0096 -0.413235,-0.007 -0.617749,0.03537 C 10.222114,22.97579 9.3966809,23.25048 8.8889272,23.639968 8.73406,23.758771 8.605205,23.9081 8.4633418,24.042164 c -0.07827,0.182345 -0.1965301,0.352329 -0.2348095,0.547035 -0.1894083,0.963414 0.8925658,2.065768 1.4587852,2.713616 0.3432685,0.292896 0.6521175,0.630168 1.1112185,0.748543 0.63414,0.16351 1.096086,-0.111599 1.292965,-0.715531 0.05567,-0.170757 0.06468,-0.35333 0.09702,-0.529995 3.44e-4,-0.220321 0.01362,-0.441004 10e-4,-0.660968 -0.08228,-1.438954 -0.540081,-2.816187 -0.721139,-4.240321 -0.07132,-0.698835 -0.127413,-0.969467 -0.09181,-1.660576 0.01054,-0.204554 0.04138,-0.407857 0.07552,-0.609817 0.01825,-0.107962 0.0879,-0.208944 0.08137,-0.318243 -0.0064,-0.107079 -0.282004,-0.07157 -0.24244,-0.211622 0.0211,0.0041 0.04825,-0.003 0.06329,0.01237 0.100269,0.102404 0.166202,0.295811 0.204865,0.420487 0.102773,0.331413 0.128887,0.674849 0.151917,1.019126 0.07044,0.703589 1.065467,0.60397 0.995026,-0.09962 z" />
    <path
       style="fill:#00ff00;stroke-width:0.264583"
       id="path1465"
       d="m 13.129008,23.528439 c 0.397641,0.03788 0.793047,-0.02349 1.188692,-0.04898 0.136886,-0.0088 0.386988,-0.0036 0.530338,-0.02999 0.08017,-0.01476 0.156907,-0.04429 0.235361,-0.06644 0.109164,-0.121716 0.218328,-0.243431 0.327492,-0.365147 0.241473,-0.664598 -0.698411,-1.006092 -0.939884,-0.341494 v 0 c 0.09362,-0.07894 0.187241,-0.157869 0.280861,-0.236804 0.03328,0.06826 0.01522,0.02023 -0.17582,0.03103 -0.349172,0.01974 -0.700155,0.05702 -1.049652,0.06746 -0.0956,0.0029 -0.191273,-0.0023 -0.286909,-0.0035 -0.702779,-0.07812 -0.813258,0.915758 -0.110479,0.993878 z" />
    <path
       style="fill:#0000ff;stroke-width:0.264583"
       id="path1469"
       d="m 82.287239,19.196308 c 0.168349,2.260587 0.08041,4.526636 7.93e-4,6.788349 -0.01236,0.171485 -0.02445,0.342989 -0.03704,0.514454 -0.0082,0.111312 -0.03151,0.323643 -0.02249,0.451426 0.0038,0.05384 -0.02933,0.153088 0.02418,0.16011 0.968391,0.127035 0.905457,0.278125 1.001589,-0.0997 -0.01723,0.052 0.0518,-0.216519 0.02787,-0.165833 -0.180972,0.383368 0.02794,0.19879 0.358778,0.129458 0.30631,-0.06419 0.615225,-0.115263 0.922837,-0.172895 0.508408,-0.06268 1.015214,-0.140083 1.525223,-0.188031 1.625793,-0.152842 3.278835,-0.220798 4.908642,-0.270196 3.515971,-0.106567 7.031961,-0.09805 10.548959,-0.08376 4.10111,0.0275 8.20683,0.234637 12.30605,0.02585 0.70619,-0.03613 0.65509,-1.034824 -0.0511,-0.998693 v 0 c -4.08073,0.209756 -8.16829,-0.0029 -12.25091,-0.02715 -3.531946,-0.01428 -7.062925,-0.02296 -10.593831,0.08458 -1.652622,0.05034 -3.341556,0.120082 -4.990838,0.27696 -0.531231,0.05053 -1.059067,0.131973 -1.588601,0.19796 -0.337667,0.06479 -0.678169,0.116234 -1.013,0.194372 -0.418007,0.09755 -1.007409,0.23438 -1.080198,0.754712 -0.08483,0.350404 -0.0081,-0.0217 0.943078,0.118214 0.01992,0.0029 0.0016,0.08052 0.0013,0.06039 -0.0043,-0.186295 -0.0033,-0.05682 0.01998,-0.376584 0.01333,-0.183453 0.02598,-0.366955 0.03896,-0.550432 0.08154,-2.314983 0.17086,-4.634819 -0.0079,-6.948289 -0.0882,-0.701585 -1.080386,-0.576858 -0.99219,0.124727 z" />
    <path
       style="fill:#0000ff;stroke-width:0.264583"
       id="path1477"
       d="m 82.465983,19.865962 c 3.787865,-0.362061 7.575383,-0.727183 11.364973,-1.071028 1.028555,-0.08373 2.056543,-0.174738 3.085664,-0.251177 2.311958,-0.171722 3.081631,-0.205254 5.31556,-0.315882 1.41958,-0.0703 2.83576,-0.128742 4.2516,-0.253134 0.19787,-0.03164 0.3966,-0.05831 0.59362,-0.09493 0.20266,-0.03767 0.39926,-0.104336 0.60212,-0.140936 0.36004,-0.06496 0.75396,-0.03893 1.11544,-0.04198 0.90992,-0.04158 1.81216,0.08298 2.71657,0.150946 0.4783,0.03594 0.64999,0.0323 1.11348,0.03952 0.66728,-0.02754 1.33593,-0.142341 1.96295,-0.374968 0.0705,-0.02346 0.10014,-0.03816 0.16712,-0.0474 0.0157,-0.0022 0.0634,-0.0046 0.0476,-0.0028 -0.0333,0.0038 -0.0685,0.01969 -0.10019,0.0088 -0.44675,-0.153243 -0.0833,-0.11513 -0.34303,-0.132456 -0.16976,1.265286 -0.39245,2.521327 -0.48257,3.796551 -0.077,1.089413 -0.0549,1.251938 -0.0419,2.294779 0.0555,0.990476 0.0197,0.537812 0.0979,1.358732 0.0676,0.703868 1.06301,0.60828 0.99542,-0.09559 v 0 c -0.0743,-0.767472 -0.0399,-0.342267 -0.0934,-1.276358 -0.0139,-0.992894 -0.0352,-1.144969 0.0375,-2.186337 0.09,-1.288776 0.32342,-2.55675 0.48558,-3.83657 -0.0231,-0.203794 0.0173,-0.425472 -0.0693,-0.611383 -0.20076,-0.430884 -0.7153,-0.326912 -1.0503,-0.206907 -0.50958,0.191605 -1.05605,0.281787 -1.5984,0.311958 -0.41729,-0.0059 -0.60424,-0.0028 -1.03302,-0.03507 -0.93911,-0.07076 -1.87616,-0.197354 -2.8209,-0.155462 -0.30252,0.0029 -0.7064,-2.65e-4 -1.01628,0.02583 -0.29633,0.02496 -0.56258,0.114764 -0.85241,0.169949 -0.173,0.03294 -0.34753,0.05726 -0.5213,0.08589 -1.40345,0.124049 -2.80754,0.180837 -4.21475,0.250572 -2.246248,0.111312 -3.0218,0.145226 -5.34577,0.317881 -1.032198,0.07669 -2.063258,0.167981 -3.094887,0.251971 -3.792664,0.344134 -7.583257,0.709535 -11.374191,1.071907 -0.703593,0.07041 -0.604012,1.065444 0.09958,0.99503 z" />
    <path
       style="fill:#0000ff;stroke-width:0.264583"
       id="path1479"
       d="m 86.270488,23.335895 c 0.84138,-0.122207 1.693061,-0.128636 2.538656,-0.204903 0.428225,-0.03862 0.753131,-0.0831 1.172003,-0.136228 0.361699,-0.04885 0.297471,-0.03711 0.589256,-0.08497 0.02141,-0.0035 -0.05784,0.03035 -0.06434,0.0097 -0.09496,-0.302213 -0.148595,-0.615887 -0.22289,-0.923831 -0.635233,0.310615 -0.195956,1.208967 0.439275,0.898352 v 0 c -0.04245,-0.323517 -0.02798,-0.659759 -0.12735,-0.970549 -0.01162,-0.0363 -0.730461,0.07987 -0.739925,0.07931 -0.388488,0.0494 -0.725721,0.09534 -1.119677,0.130977 -0.880655,0.07965 -1.768042,0.08482 -2.643672,0.218278 -0.69573,0.126339 -0.517059,1.110248 0.178668,0.983909 z" />
    <path
       style="fill:#0000ff;stroke-width:0.264583"
       id="path1483"
       d="m 97.009192,22.50558 c 0.134779,-0.04454 0.266578,-0.09939 0.404336,-0.133618 1.026745,-0.255107 2.120572,-0.227394 3.169982,-0.228218 0.47015,0.02065 0.94097,-0.06727 1.41098,-0.03155 0.0439,0.0033 0.30726,0.03772 0.34893,0.08761 -0.0669,-0.05346 -0.13382,-0.106927 -0.20073,-0.160391 0.33493,0.622754 1.21564,0.149091 0.88071,-0.473663 v 0 c -0.0874,-0.09148 -0.17471,-0.182956 -0.26207,-0.274434 -0.69516,-0.28564 -1.44752,-0.157001 -2.17881,-0.147576 -1.33594,0.0016 -2.717059,-0.01828 -3.987104,0.451457 -0.643734,0.292586 -0.229958,1.202964 0.413776,0.910378 z" />
    <path
       style="fill:#0000ff;stroke-width:0.264583"
       id="path1485"
       d="m 106.96778,22.280397 c 0.72361,-0.03127 1.44783,-0.07303 2.17229,-0.07911 0.50746,-0.0043 1.01064,0.0345 1.51772,0.02257 0.70685,-0.01902 0.67995,-1.018662 -0.0269,-0.999638 v 0 c -0.50669,0.01576 -1.01064,-0.02688 -1.51802,-0.02256 -0.73613,0.0063 -1.472,0.04873 -2.20726,0.08068 -0.70574,0.04396 -0.64357,1.042024 0.0622,0.998066 z" />
    <circle
       id="path1513"
       style="fill:#0000ff;stroke:#000000;stroke-width:0.264583"
       cx="57.093498"
       cy="79.855621"
       r="0.0038516556" />
    <path
       style="fill:#0000ff;stroke-width:0.264583"
       id="path1517"
       d="m 49.668347,55.250389 c -0.234571,-0.142544 -0.455123,-0.311256 -0.703717,-0.42763 -0.415817,-0.194654 -0.839375,-0.382265 -1.282557,-0.502201 -2.500998,-0.676822 -5.101537,-0.487254 -7.615309,0.02426 -1.118267,0.227549 -2.206054,0.585247 -3.30908,0.877874 -1.106864,0.456054 -2.243641,0.845378 -3.320595,1.368168 -3.004146,1.458312 -5.814992,3.447611 -7.783137,6.190015 -1.668713,2.325176 -1.622718,2.964399 -2.431792,5.645877 -0.07364,1.018998 -0.255793,2.035934 -0.220908,3.056993 0.105213,3.079546 1.199683,6.081527 2.883131,8.638654 1.523262,2.313805 2.32306,2.868946 4.31202,4.786037 0.899023,0.648169 1.751891,1.365711 2.69707,1.944502 2.90757,1.780482 6.081337,2.82629 9.50486,2.909115 2.929006,0.07086 3.682368,-0.332073 6.493055,-1.056476 1.047999,-0.475781 2.139447,-0.86561 3.143996,-1.427347 4.110162,-2.298372 7.748955,-6.054916 9.803627,-10.29997 0.48037,-0.992471 0.784215,-2.061075 1.176324,-3.091611 0.362384,-2.66631 0.738336,-3.634579 0.159973,-6.292273 -0.45793,-2.104263 -1.41754,-3.904237 -2.7466,-5.582912 -1.73482,-2.191174 -2.819829,-2.803962 -5.022263,-4.493004 -3.753088,-2.188913 -1.896467,-1.225592 -5.549804,-2.928305 -0.641128,-0.298251 -1.062919,0.608441 -0.421791,0.906693 v 0 c 3.535119,1.641337 1.740874,0.714364 5.364387,2.816156 2.104681,1.602563 3.125822,2.17392 4.790707,4.242954 1.232676,1.531905 2.151637,3.202678 2.589811,5.13262 0.558284,2.458974 0.215384,3.369048 -0.09981,5.844458 -0.367908,0.979889 -0.651282,1.995826 -1.103725,2.939666 -1.951577,4.071168 -5.432144,7.679171 -9.356198,9.895872 -0.951979,0.537773 -1.987095,0.912852 -2.980643,1.369279 -2.651828,0.698114 -3.362203,1.082604 -6.128943,1.030505 -3.253695,-0.06127 -6.265269,-1.044533 -9.033372,-2.727471 -0.906629,-0.551204 -1.725197,-1.235678 -2.587794,-1.85352 -1.904312,-1.823918 -2.66667,-2.349629 -4.129014,-4.547513 -1.590306,-2.390208 -2.639422,-5.200726 -2.761325,-8.087981 -0.04002,-0.947838 0.121195,-1.893491 0.181793,-2.840236 0.73008,-2.497468 0.6828,-3.096652 2.224747,-5.271048 1.86513,-2.630135 4.549132,-4.526589 7.413689,-5.925595 1.036394,-0.506161 2.130673,-0.884012 3.196008,-1.32602 1.062992,-0.284546 2.111359,-0.630806 3.188977,-0.853638 2.33294,-0.482413 4.787376,-0.683477 7.118361,-0.08166 0.389054,0.100447 0.761299,0.261033 1.127466,0.426477 0.209603,0.0947 0.395939,0.234188 0.593905,0.351282 0.552283,0.441568 1.176756,-0.339479 0.624472,-0.781047 z" />
    <path
       style="fill:#0000ff;stroke-width:0.264583"
       id="path1519"
       d="m 38.032793,69.227323 c 0.0772,1.218153 0.0403,2.438869 0.119851,3.657092 0.04453,0.681916 0.09272,1.056008 0.165626,1.709053 0.192029,0.194495 0.0145,0.540795 0.14805,0.762677 0.031,0.0515 -0.04988,-0.133527 -0.01169,-0.179951 0.126203,-0.153435 0.352835,-0.208471 0.465677,-0.371986 0.03483,-0.05046 -0.11906,-0.02935 -0.178588,-0.04402 -0.686711,-0.168606 -0.925156,0.80255 -0.238446,0.971158 v 0 c 0.376804,0.09219 0.427848,0.149125 0.909746,-0.26969 0.123783,-0.107579 -0.0943,-0.881909 -0.100941,-0.979357 -0.06989,-0.623475 -0.117792,-0.99618 -0.160552,-1.645301 -0.08282,-1.257255 -0.0349,-2.517865 -0.13236,-3.774231 -0.116358,-0.697466 -1.102725,-0.532911 -0.986367,0.164557 z" />
    <path
       style="fill:#0000ff;stroke-width:0.264583"
       id="path1521"
       d="m 38.578464,72.704684 c 1.832002,-0.191397 3.60735,-0.698069 5.367173,-1.219832 0.677926,-0.201039 0.393616,-1.15977 -0.28431,-0.958731 v 0 c -1.692251,0.501941 -3.398465,0.992555 -5.159605,1.181512 -0.705022,0.05427 -0.62828,1.051317 0.07674,0.997051 z" />
    <path
       style="fill:#0000ff;stroke-width:0.264583"
       id="path1523"
       d="m 43.11597,69.199413 c 0.08225,1.562793 0.04926,3.128438 0.100547,4.692147 0.0274,0.835221 0.05658,1.199922 0.108104,1.988201 0.05165,0.550457 0.03935,0.326284 0.05336,0.671417 0.03111,0.706421 1.030142,0.662427 0.999032,-0.044 v 0 c -0.01802,-0.38541 -0.0035,-0.154233 -0.05453,-0.692742 -0.05024,-0.766152 -0.07956,-1.133756 -0.106196,-1.944225 -0.05244,-1.595585 -0.01561,-3.193378 -0.107182,-4.787749 -0.08269,-0.702254 -1.075831,-0.585306 -0.993138,0.116949 z" />
    <path
       style="fill:#0000ff;stroke-width:0.264583"
       id="path1525"
       d="m 46.221073,72.300189 c 0.633555,0.450935 1.319278,0.914318 2.131197,0.923197 0.678384,0.0074 0.833639,-0.138964 1.429335,-0.406614 0.177609,-0.14138 0.378177,-0.257958 0.532828,-0.42414 0.391957,-0.42118 0.682276,-1.119201 0.317776,-1.662621 -0.119489,-0.178138 -0.300602,-0.326125 -0.500079,-0.40499 -0.217752,-0.08609 -0.466032,-0.04606 -0.699045,-0.06909 -0.23445,0.06484 -0.479515,0.09929 -0.703347,0.194525 -1.047377,0.445632 -2.171017,1.544899 -2.737847,2.519248 -0.153964,0.264655 -0.255982,0.556295 -0.383974,0.834441 -0.0509,0.283485 -0.149434,0.562454 -0.152689,0.850453 -0.01005,0.888965 0.472961,1.586518 1.255752,1.976969 0.590603,0.294587 0.97648,0.285935 1.611313,0.360844 0.805545,0.01844 1.514467,-0.193411 2.181889,-0.643959 0.201186,-0.135813 0.3762,-0.306858 0.564301,-0.460288 0.543599,-0.452215 -0.09593,-1.220983 -0.63953,-0.768765 v 0 c -0.142264,0.121399 -0.275386,0.254405 -0.426789,0.364194 -0.479364,0.347615 -0.979159,0.517858 -1.573694,0.514471 -0.20611,-0.019 -0.414496,-0.02103 -0.618331,-0.057 -0.42404,-0.07482 -1.016968,-0.247774 -1.241224,-0.670811 -0.212069,-0.400053 -0.104979,-0.621578 -0.04859,-1.056823 0.09711,-0.223681 0.171918,-0.458436 0.291343,-0.671042 0.473215,-0.842457 1.350182,-1.697003 2.214896,-2.136997 0.127775,-0.06502 0.268859,-0.09964 0.403289,-0.14946 0.06667,-0.02207 0.136424,-0.0364 0.200022,-0.06619 0.03207,-0.01503 0.04839,-0.05868 0.08296,-0.06635 0.333042,-0.07392 -0.15758,0.867317 -0.365413,0.792554 -0.34263,0.183732 -0.455663,0.291997 -0.856499,0.317098 -0.638585,0.03998 -1.173932,-0.396595 -1.669912,-0.732904 -0.565719,-0.42422 -1.165656,0.375827 -0.599937,0.800047 z" />
    <path
       style="fill:#0000ff;stroke-width:0.264583"
       id="path1531"
       d="m 88.941758,52.390968 c -0.460663,-0.09701 -0.915207,-0.229928 -1.38199,-0.291039 -0.712785,-0.09331 -1.430922,-0.168063 -2.149779,-0.171323 -2.957854,-0.01341 -6.008799,0.495438 -8.731068,1.683935 -0.994285,0.434089 -1.906243,1.036529 -2.859362,1.554795 -0.852168,0.70126 -1.777849,1.321689 -2.556497,2.103774 -2.297348,2.307486 -3.964966,5.410417 -4.68176,8.583818 -0.621043,2.7495 -0.406778,3.712634 -0.300746,6.475513 0.219683,1.025814 0.352806,2.074061 0.659045,3.077441 0.913347,2.992545 2.593605,5.768337 4.952005,7.843834 2.103136,1.850856 2.991501,2.047632 5.501807,3.22253 1.017664,0.279204 2.011828,0.665631 3.052987,0.83761 2.017829,0.333306 4.551423,0.280175 6.554938,-0.139126 2.109335,-0.441449 4.509765,-1.403847 6.3427,-2.54069 0.953731,-0.591532 1.790092,-1.354111 2.68514,-2.031167 0.739762,-0.830842 1.572038,-1.587751 2.219291,-2.492523 1.894521,-2.648289 2.976821,-6.0378 2.855591,-9.303819 -0.10811,-2.912549 -0.68387,-3.797128 -1.686001,-6.468136 -1.766982,-2.56785 -1.996323,-3.397597 -4.666437,-5.215046 -1.072047,-0.729705 -2.253949,-1.294112 -3.443539,-1.810467 -1.118603,-0.485542 -2.307071,-0.790903 -3.460607,-1.186355 -0.669253,-0.228256 -0.992055,0.718209 -0.322802,0.946465 v 0 c 2.578663,0.874768 4.260892,1.261338 6.570813,2.804999 2.50226,1.672198 2.720591,2.438498 4.387416,4.814636 0.946049,2.472423 1.504291,3.337203 1.624327,6.034352 0.13575,3.050262 -0.852744,6.235216 -2.607524,8.720531 -0.604187,0.855719 -1.383882,1.572909 -2.075826,2.359361 -0.842922,0.644536 -1.629423,1.370473 -2.528773,1.933605 -1.720422,1.077245 -4.019169,2.014902 -6.003393,2.440281 -1.867316,0.400314 -4.296789,0.469699 -6.182919,0.16814 -0.986477,-0.157721 -1.929257,-0.519652 -2.893883,-0.779479 -2.360474,-1.089104 -3.212152,-1.277085 -5.193098,-2.998925 -2.236468,-1.943938 -3.829931,-4.55455 -4.704885,-7.372328 -0.294097,-0.947143 -0.424793,-1.937486 -0.637193,-2.906226 -0.111252,-2.598613 -0.318479,-3.53854 0.25214,-6.124511 0.660085,-2.991422 2.217645,-5.938288 4.368723,-8.123899 0.729766,-0.741482 1.59916,-1.331204 2.398739,-1.996803 0.899502,-0.494802 1.759236,-1.07003 2.698504,-1.484405 2.596393,-1.145447 5.509324,-1.636374 8.334597,-1.634725 0.676307,2.64e-4 1.352159,0.06843 2.023123,0.153262 0.43275,0.05472 0.854374,0.176387 1.281563,0.264578 0.673497,0.215411 0.978133,-0.737057 0.304633,-0.952468 z" />
    <path
       style="fill:#0000ff;stroke-width:0.264583"
       id="path1533"
       d="m 79.599154,67.158213 c 0.02085,1.386594 -0.08273,2.770598 -0.129514,4.155469 -0.02884,0.853842 -0.02611,1.226558 -0.03079,2.040768 0.600958,-0.779991 -0.249076,0.948272 -0.03351,0.794195 0.09546,-0.06823 0.09845,-0.213027 0.147683,-0.31954 -0.525428,0.473207 0.143785,1.216274 0.669216,0.743069 v 0 c 0.06011,-0.116311 0.140202,-0.224306 0.180313,-0.34893 0.08822,-0.274108 -0.09917,-0.60266 0.03628,-0.863108 0.0044,-0.792631 0.0019,-1.172686 0.02983,-2.002261 0.0473,-1.399598 0.151546,-2.798323 0.13049,-4.199662 0,-0.707107 -0.999998,-0.707107 -0.999998,0 z" />
    <path
       style="fill:#0000ff;stroke-width:0.264583"
       id="path1535"
       d="m 80.279284,71.473138 c 1.238933,-0.262993 2.473746,-0.542829 3.715337,-0.793628 0.693103,-0.140033 0.495065,-1.120227 -0.198038,-0.980194 v 0 c -1.244258,0.251444 -2.48181,0.53158 -3.723391,0.79529 -0.691928,0.14573 -0.485836,1.124262 0.206092,0.978532 z" />
    <path
       style="fill:#0000ff;stroke-width:0.264583"
       id="path1537"
       d="m 84.088577,67.520586 c -0.239974,1.392971 -0.464211,2.7891 -0.574444,4.19943 -0.07197,0.920747 -0.06775,1.311868 -0.08351,2.189078 0.0037,0.193878 0.0079,0.387744 0.0109,0.581633 0.006,0.388345 -0.08579,0.668195 0.934132,-0.190661 0.09881,-0.08321 -0.07856,-0.246129 -0.117848,-0.369192 -0.216442,-0.673166 -1.168445,-0.367069 -0.952002,0.306097 v 0 c 0.03397,0.104775 -0.0026,0.279349 0.101922,0.314327 1.260761,0.422233 1.031378,0.128744 1.022726,-0.624572 0.01453,-0.84078 0.01042,-1.225778 0.07872,-2.107391 0.108966,-1.406805 0.337283,-2.798355 0.573262,-4.188222 0.07815,-0.702775 -0.91572,-0.8133 -0.993873,-0.110527 z" />
    <path
       style="fill:#0000ff;stroke-width:0.264583"
       id="path1539"
       d="m 86.40138,71.874075 c 1.118073,0.217916 2.557214,0.305771 3.388352,-0.653952 0.14647,-0.16913 0.220504,-0.389374 0.330753,-0.584063 0.03017,-0.197151 0.10478,-0.392514 0.09053,-0.591452 -0.04841,-0.675767 -0.597226,-1.174803 -1.28487,-1.128151 -0.644133,0.0437 -0.9546,0.377573 -1.457137,0.73221 -0.813654,0.764183 -1.453621,1.683308 -1.954204,2.678353 -0.237001,0.471102 -0.57544,1.204045 -0.541325,1.771433 0.01593,0.265033 0.158068,0.506953 0.237104,0.760431 0.256945,0.169122 0.479856,0.407599 0.770837,0.507371 0.294024,0.100814 0.618755,0.08588 0.929415,0.07561 0.743165,-0.02455 1.531329,-0.284054 2.243969,-0.487979 0.679722,-0.194877 0.404124,-1.15615 -0.275598,-0.961274 v 0 c -0.634281,0.182219 -1.271445,0.37474 -1.929895,0.449993 -0.179546,0.02053 -0.361265,0.01122 -0.541816,0.01897 -0.09089,0.0039 -0.181642,0.01066 -0.272463,0.01601 -0.05746,-0.07745 -0.16074,-0.136618 -0.172384,-0.232349 -0.05602,-0.46051 0.240766,-1.060038 0.421592,-1.424165 0.432972,-0.871884 0.985031,-1.683541 1.679152,-2.368217 0.02593,-0.02048 1.027388,-0.900882 1.152546,-0.507333 0.02529,0.07951 0.0045,0.166812 0.0067,0.250216 -0.02907,0.08938 -0.03532,0.18976 -0.08719,0.268137 -0.478761,0.723419 -1.73846,0.581385 -2.459458,0.448651 -0.679924,-0.19418 -0.954537,0.767374 -0.274616,0.961554 z" />
    <path
       style="fill:#0000ff;stroke-width:0.264583"
       id="path1541"
       d="m 29.408141,95.720603 c 5.248746,-0.310746 10.507088,-0.426316 15.761464,-0.604856 0.288385,-0.0104 7.122168,-0.257387 7.772771,-0.27794 0.84424,-0.02667 1.688515,-0.05648 2.533118,-0.06633 1.293683,-0.01508 0.981249,-0.04818 1.78122,0.0968 0.697394,0.116798 0.86257,-0.869468 0.165176,-0.986263 v 0 c -0.189671,-0.02984 -0.377309,-0.07882 -0.569015,-0.08953 -1.0898,-0.06088 -3.040049,0.01733 -3.945919,0.04596 -0.650904,0.02056 -7.480991,0.267428 -7.77131,0.277887 -5.273265,0.179186 -10.550599,0.294492 -15.818104,0.608391 -0.704199,0.06406 -0.6136,1.059952 0.0906,0.995889 z" />
    <path
       style="fill:#0000ff;stroke-width:0.264583"
       id="path1543"
       d="m 53.561127,92.224406 c 1.148686,0.216012 2.279082,0.513419 3.398584,0.847366 0.650978,0.194185 1.894964,0.569468 2.545501,0.877281 0.215553,0.101994 0.401018,0.258162 0.601527,0.387242 -0.338608,-0.02665 -0.398965,-0.05316 -0.796353,0.06168 -0.46812,0.135284 -0.918996,0.325306 -1.385121,0.467313 -0.56503,0.172138 -1.137668,0.318267 -1.707226,0.474781 -1.38874,0.381627 -1.395217,0.379807 -2.634903,0.703914 -0.68411,0.178866 -0.431152,1.146344 0.25296,0.967475 v 0 c 1.201753,-0.314235 1.319649,-0.341529 2.650389,-0.708094 0.589198,-0.1623 1.182881,-0.309766 1.765882,-0.493088 0.637358,-0.200411 2.203593,-0.589637 2.573885,-1.399889 0.130398,-0.285332 -0.126166,-0.614614 -0.189248,-0.921922 -0.258204,-0.157816 -0.500915,-0.344363 -0.774618,-0.473448 -0.387289,-0.182658 -0.795327,-0.318564 -1.200214,-0.457938 -1.618162,-0.557017 -3.281709,-0.990886 -4.959725,-1.322634 -0.700011,-0.09993 -0.84133,0.890037 -0.14132,0.989961 z" />
    <path
       style="fill:#0000ff;stroke-width:0.264583"
       id="path1545"
       d="m 65.681092,94.011363 c 4.98412,-0.193644 9.957168,-0.591969 14.938811,-0.837603 1.921341,-0.09474 3.84375,-0.166407 5.765626,-0.24961 4.727186,-0.177308 9.459248,-0.258829 14.189081,-0.150405 0.75689,0.01736 1.51312,0.05676 2.26968,0.08513 0.70662,0.02646 0.74404,-0.972839 0.0374,-0.9993 v 0 c -0.76446,-0.02858 -1.52857,-0.06826 -2.29336,-0.08574 -4.748843,-0.108556 -9.499913,-0.02686 -14.246091,0.151246 -1.926116,0.08341 -3.85277,0.155284 -5.778354,0.250243 -4.963009,0.244745 -9.917483,0.640204 -14.882823,0.836033 -0.707107,0 -0.707107,1.000001 0,1.000001 z" />
    <path
       style="fill:#0000ff;stroke-width:0.264583"
       id="path1547"
       d="m 67.725705,91.121356 c -1.972829,0.487373 -3.760433,1.494798 -5.511599,2.494917 -0.280795,0.180594 -0.992429,0.494528 -0.722929,1.019694 0.219263,0.427273 0.526902,0.293375 0.830582,0.310303 0.123886,0.0069 0.246854,0.02543 0.370279,0.03813 2.108862,0.223798 4.199581,0.601212 6.286535,0.97383 0.652224,0.09702 0.356005,0.08762 0.88674,0.06478 0.704869,-0.05621 0.62538,-1.053041 -0.07949,-0.996833 v 0 c -0.292057,0.0536 -0.08229,0.02886 -0.631489,-0.05238 -2.114118,-0.377444 -4.232108,-0.759225 -6.368536,-0.984994 -0.161401,-0.0141 -0.322406,-0.03398 -0.484209,-0.04234 -0.08017,-0.0041 -0.268769,-0.07036 -0.240792,0.0049 0.05632,0.15148 0.32471,0.164944 0.36236,0.322107 0.137015,0.571912 -0.364474,0.637569 -0.07052,0.435795 0.116028,-0.07964 0.23831,-0.149773 0.357463,-0.224661 1.651627,-0.94357 3.334139,-1.899779 5.189249,-2.378434 0.696365,-0.122785 0.522721,-1.107594 -0.173643,-0.984809 z" />
    <path
       style="fill:#0000ff;stroke-width:0.264583"
       id="path1549"
       d="m 52.671932,104.02896 c 0.0053,-0.16647 0.05531,-0.3376 0.01588,-0.49943 -0.129167,-0.53022 -0.422146,-0.89302 -0.990899,-1.02309 -0.340281,-0.0778 -0.70331,-0.0487 -1.047136,0.0116 -0.948169,0.16616 -1.545762,0.56692 -2.385915,1.0072 -0.341376,0.25925 -0.718844,0.47684 -1.024125,0.77777 -0.52968,0.52211 -0.918975,1.121 -0.883304,1.89929 0.0149,0.32519 0.118568,0.65785 0.296363,0.93053 0.448233,0.68746 0.955024,0.76901 1.651751,1.04685 0.788829,0.14282 1.503939,0.15771 2.224119,-0.24474 0.14673,-0.082 0.270375,-0.20046 0.39632,-0.31178 0.06264,-0.0554 0.237312,-0.14051 0.16756,-0.18658 -0.258178,-0.17054 -0.588722,-0.19071 -0.883084,-0.28606 -0.07946,0.45316 -0.08939,0.9149 -0.04592,1.37264 0.02674,0.28151 0.07401,0.7531 0.324212,0.95846 0.167376,0.13738 0.401633,0.162 0.602446,0.24301 0.704191,0.0641 0.794909,-0.93173 0.09072,-0.99588 v 0 c 0.04691,0.067 0.114644,0.12344 0.140726,0.20094 0.01175,0.0349 -0.08099,-0.0247 -0.09313,-0.0595 -0.04421,-0.12663 -0.05199,-0.26351 -0.06622,-0.39688 -0.04475,-0.41942 -0.02777,-0.8396 0.04484,-1.25476 -0.291004,-0.14458 -0.568851,-0.31941 -0.873011,-0.43374 -0.03225,-0.0121 -0.04056,0.0558 -0.06312,0.0818 -0.04437,0.0512 -0.0806,0.11289 -0.137491,0.14968 -0.449244,0.29045 -0.97151,0.30167 -1.483368,0.22497 -0.34258,-0.11099 -0.794134,-0.20442 -1.068014,-0.47769 -0.11211,-0.11186 -0.203965,-0.25692 -0.236943,-0.41182 -0.194871,-0.91532 0.801124,-1.49907 1.387301,-1.94316 0.871347,-0.46867 1.551892,-0.89172 2.557256,-0.9888 0.09185,-0.009 0.335248,-0.0136 0.398073,0.11457 0.03405,0.0694 0.01294,0.15415 0.01942,0.23123 -0.186238,0.68214 0.778457,0.94552 0.964692,0.26338 z" />
    <path
       style="fill:#0000ff;stroke-width:0.264583"
       id="path1551"
       d="m 54.762963,108.05061 c 0.735965,-0.4841 1.455436,-1.06676 1.83628,-1.88629 0.09556,-0.20564 0.190325,-0.42353 0.20049,-0.65007 0.01069,-0.23822 -0.09323,-0.46771 -0.139845,-0.70157 -0.237927,-0.16942 -0.434631,-0.4223 -0.713777,-0.50826 -0.299966,-0.0924 -0.632296,-0.0548 -0.941586,-10e-4 -0.96388,0.16635 -1.923383,0.81231 -2.367923,1.69505 -0.135911,0.26989 -0.16447,0.58154 -0.246706,0.87231 0.03283,0.26895 -0.0034,0.55579 0.09848,0.80685 0.403667,0.99455 1.376706,1.09675 2.261862,0.72036 0.6394,-0.27189 0.94838,-0.66224 1.422897,-1.13166 0.144391,-0.19213 0.294251,-0.38028 0.433173,-0.57641 0.274892,-0.38809 0.656974,-0.75209 -0.526915,-0.52381 -0.09446,0.0182 0.0096,0.1922 0.0176,0.28807 0.01214,0.146 0.0285,0.29161 0.04275,0.43742 0.08631,0.54609 0.186534,1.11879 1.015151,0.91035 0.215828,-0.0543 0.328792,-0.30254 0.467952,-0.47622 0.204341,-0.25501 0.415087,-0.70487 0.561997,-0.99326 0.06249,-0.14842 0.127097,-0.29596 0.187457,-0.44526 0.185557,-0.45897 0.265134,-0.42318 -0.629825,-0.1945 -0.03877,0.01 0.0062,0.0799 0.01257,0.11939 0.01482,0.0925 0.03393,0.18419 0.05089,0.27628 0.170887,0.77871 -0.035,0.86708 1.123733,0.45125 0.05304,-0.019 -2.3e-4,-0.11322 0.0089,-0.16881 0.0168,-0.1018 0.04583,-0.2012 0.06875,-0.3018 0.187756,-0.53941 0.437737,-1.10062 0.993611,-1.34676 0.382727,-0.16947 0.836178,-0.2099 1.238006,-0.27639 0.310886,-0.0324 0.621771,-0.0649 0.932657,-0.0973 0.703199,-0.0742 0.59823,-1.0687 -0.104971,-0.99447 v 0 c -0.333222,0.0356 -0.666443,0.0711 -0.999665,0.10667 -0.62435,0.11369 -1.075759,0.14044 -1.63867,0.44168 -0.764704,0.40923 -1.153068,1.17565 -1.400919,1.96733 -0.02945,0.15692 -0.06896,0.31229 -0.08834,0.47078 -0.01183,0.0968 -0.100425,0.27225 -0.005,0.29265 1.329179,0.28417 0.975006,-0.0838 0.853911,-0.73357 -0.01566,-0.079 -0.12261,-0.70784 -0.206817,-0.75159 -0.844481,-0.43868 -0.912098,-0.19651 -1.131525,0.35362 -0.05076,0.12726 -0.104836,0.25315 -0.157255,0.37973 -0.07197,0.14374 -0.138141,0.29052 -0.215903,0.43121 -0.07547,0.13654 -0.176403,0.25887 -0.243403,0.39976 -0.02146,0.0451 -0.05181,0.11255 -0.01754,0.14893 0.118359,0.12564 0.286544,0.19254 0.42985,0.28876 0.01717,0.0115 -0.03431,-0.0231 -0.05146,-0.0347 -0.01963,-0.10714 -0.03929,-0.21427 -0.05894,-0.32141 -0.01352,-0.13731 -0.02827,-0.2745 -0.04058,-0.41193 -0.01196,-0.13356 0.06622,-0.30999 -0.03226,-0.40101 -0.232759,-0.21514 -0.54375,-0.35327 -0.853995,-0.41816 -0.09058,-0.0189 -0.137409,0.12548 -0.193509,0.19908 -0.196593,0.25793 -0.309062,0.57507 -0.55227,0.801 -0.441727,0.4587 -0.80845,0.8648 -1.435245,1.06411 -0.202986,0.0645 -0.411684,0.0989 -0.553485,-0.12062 -0.07536,-0.11668 -0.07433,-0.26768 -0.1115,-0.40153 0.03021,-0.17618 0.02204,-0.36346 0.09062,-0.52854 0.286366,-0.68946 0.940369,-1.05914 1.615083,-1.27493 0.910383,-0.29116 0.145544,0.0606 0.640876,-0.17974 0.200398,0.19412 0.202875,0.12567 0.03432,0.52651 -0.282768,0.67247 -0.882822,1.13088 -1.465712,1.52873 -0.618112,0.34342 -0.132437,1.21756 0.485674,0.87414 z" />
    <path
       style="fill:#0000ff;stroke-width:0.264583"
       id="path1553"
       d="m 64.797341,103.8866 c 0.01738,0.21951 0.04801,0.43838 0.05218,0.65854 0.01723,0.90781 -0.03755,1.45243 -0.164819,2.37903 -0.09744,0.70941 -0.29768,1.84397 -0.470146,2.56101 -0.06177,0.25683 -0.148307,0.50706 -0.222459,0.76058 -0.275286,0.38626 -0.168355,0.15292 0.762087,0.11029 -0.183563,-0.68287 -1.149281,-0.42327 -0.965716,0.2596 v 0 c 1.095529,0.33079 0.798354,0.58207 1.163966,-0.091 0.08048,-0.27902 0.173746,-0.55466 0.241429,-0.83705 0.176898,-0.73806 0.386731,-1.92692 0.485021,-2.65568 0.124042,-0.91968 0.200872,-1.66336 0.166156,-2.58132 -0.01087,-0.28744 -0.06128,-0.57202 -0.09191,-0.85803 -0.207936,-0.67584 -1.163722,-0.38177 -0.955786,0.29407 z" />
    <path
       style="fill:#0000ff;stroke-width:0.264583"
       id="path1555"
       d="m 65.265058,104.44689 c 0.146688,-0.20984 0.276567,-0.41436 0.472194,-0.58872 0.215239,-0.19184 0.655045,-0.50465 0.941848,-0.23773 0.0633,0.0589 0.08545,0.15036 0.128178,0.22554 0.02863,0.12087 0.07489,0.23888 0.08588,0.36261 0.04215,0.47433 -0.106159,1.23175 -0.672698,1.35162 -0.09454,0.02 -0.193125,-0.007 -0.28969,-0.0107 -0.359039,-0.0618 -0.719717,-0.0748 -1.082386,-0.0581 -0.705927,0.0408 -0.648179,1.03916 0.05775,0.99833 v 0 c 0.386876,-0.0303 0.770273,0.0409 1.157258,0.051 0.234929,-0.0479 0.484889,-0.0482 0.704789,-0.14378 0.921536,-0.40051 1.291881,-1.63764 1.057701,-2.54889 -0.06715,-0.26129 -0.225682,-0.4901 -0.338521,-0.73515 -0.209386,-0.15868 -0.384524,-0.37773 -0.628153,-0.47605 -0.689641,-0.27831 -1.396373,0.1145 -1.882171,0.57172 -0.334447,0.31477 -0.434653,0.54078 -0.660702,0.92228 -0.22352,0.67085 0.725204,0.98696 0.948724,0.31611 z" />
    <path
       style="fill:#0000ff;stroke-width:0.264583"
       id="path1557"
       d="m 68.963365,104.01921 c 0.06893,0.79919 0.02748,1.63843 0.278706,2.41173 0.03621,0.11148 0.09522,0.21421 0.142833,0.32132 0.07905,0.0831 0.158112,0.16622 0.237167,0.24932 0.559483,0.43241 1.171004,-0.35882 0.611521,-0.79122 v 0 c 0.01701,0.0352 0.03403,0.0703 0.05105,0.10547 -0.118764,-0.19925 -0.08894,-0.12312 -0.153882,-0.46065 -0.116448,-0.60526 -0.12949,-1.22277 -0.167397,-1.83597 0,-0.70711 -0.999997,-0.70711 -0.999997,0 z" />
    <path
       style="fill:#0000ff;stroke-width:0.264583"
       id="path1559"
       d="m 75.546177,101.71272 c -0.181145,-0.0487 -0.356796,-0.12737 -0.543436,-0.14624 -0.749229,-0.0758 -1.501574,0.21344 -1.819225,0.95265 -0.305951,0.71198 -0.09243,1.04856 0.08617,1.74639 0.362288,0.77569 0.965798,1.31836 1.611442,1.84862 0.106585,0.0875 0.210516,0.33581 0.323966,0.25738 0.108696,-0.0752 -0.17349,-0.2096 -0.208944,-0.3369 -0.02923,-0.10494 0.01622,-0.21726 0.02434,-0.32589 -0.705789,0.0294 -1.412587,-0.0212 -2.115632,-0.0792 -0.178359,-0.0147 -0.356606,-0.0313 -0.534334,-0.0523 -0.07961,-0.009 -0.233511,-0.11891 -0.237326,-0.0388 -0.01648,0.34596 0.127008,0.68097 0.190513,1.02145 0.444111,0.0823 1.062702,0.1133 1.355744,0.52385 0.05736,0.0803 0.06082,0.24895 0.06944,0.33834 0.04199,0.59059 0.02471,0.43782 0.564589,0.88026 0.681019,0.1903 0.95014,-0.77281 0.269121,-0.96311 v 0 c 0.386006,0.58137 0.138356,0.24591 0.142883,-0.13224 -0.109734,-0.40813 -0.100867,-0.55787 -0.40648,-0.892 -0.480369,-0.5252 -1.235961,-0.65422 -1.901121,-0.75065 -0.147455,0.32053 -0.392298,0.61234 -0.442359,0.96159 -0.01426,0.0995 0.198043,0.0349 0.297844,0.0466 0.971023,0.11444 1.95572,0.17112 2.932369,0.11895 0.257402,-0.15562 0.624618,-0.20478 0.772207,-0.46687 0.243711,-0.43278 -0.234301,-0.69813 -0.457284,-0.87918 -0.148688,-0.12072 -0.301514,-0.23678 -0.44328,-0.36556 -0.531699,-0.48299 -0.440429,-0.42048 -0.849731,-1.00117 -0.128688,-0.34229 -0.26252,-0.54141 -0.210087,-0.90782 0.05475,-0.38262 0.392012,-0.54319 0.746495,-0.53325 0.114057,0.003 0.223425,0.0465 0.335137,0.0697 0.632537,0.31606 1.079519,-0.57848 0.44698,-0.89455 z" />
    <path
       style="fill:#0000ff;stroke-width:0.264583"
       id="path1561"
       d="m 79.073041,102.50574 c -0.108712,-0.14138 -0.19276,-0.22936 -0.261652,-0.39222 -0.01683,-0.0398 -0.02711,-0.0831 -0.02924,-0.12632 -5.29e-4,-0.0109 0.02101,-0.0353 0.0218,-0.0244 0.01543,0.21369 -0.0061,0.17338 -0.148738,0.33339 -0.07468,0.0179 -0.157972,0.0145 -0.224044,0.0537 -0.117297,0.0695 0.02355,0.45297 0.03631,0.56333 0.08322,0.72011 0.06321,1.44811 0.05394,2.17106 -0.0065,0.19236 -0.01582,0.38465 -0.0195,0.57708 -0.01212,0.63099 -0.03392,1.14511 1.070742,0.58524 0.182404,-0.0924 0.159779,-0.37657 0.233243,-0.56741 0.09459,-0.24574 0.180555,-0.49472 0.270833,-0.74208 0.289364,-0.78544 0.535964,-1.58879 0.853482,-2.3639 0.06884,-0.16805 0.136843,-0.33762 0.226926,-0.49531 0.152117,-0.26628 0.135398,-0.25802 0.194659,-0.1408 -0.04038,0.0289 -0.129659,0.0377 -0.121132,0.0866 0.01077,0.0618 0.09835,0.0796 0.154856,0.10679 0.833953,0.401 1.316593,0.14712 2.078027,-0.2398 0.42541,-0.20869 0.76618,-0.58541 1.212484,-0.75671 0.03547,-0.0136 -0.04764,0.0851 -0.08462,0.0763 -0.151868,-0.0358 -0.271931,-0.22768 -0.424844,-0.19659 -0.101248,0.0206 -0.05367,0.19955 -0.0805,0.29933 -0.19858,0.74641 -0.486582,1.75672 -0.03243,2.47426 0.345887,0.54649 0.609912,0.56772 1.162838,0.81518 0.680757,0.14153 1.491689,0.27429 2.184159,0.10606 0.109459,-0.0266 0.211321,-0.0781 0.316979,-0.11712 0.651539,-0.27477 0.262959,-1.19619 -0.38858,-0.92142 v 0 c -0.359005,0.22637 -1.336453,0.0651 -1.741186,0.004 -0.114586,-0.0361 -0.493689,-0.12742 -0.602117,-0.24893 -0.417005,-0.4673 -0.02418,-1.41782 0.08214,-1.92213 0.08996,-0.57826 0.271491,-0.84294 -0.385612,-1.2885 -0.133506,-0.0905 -0.327123,-0.004 -0.482251,0.0401 -0.135511,0.0386 -0.250475,0.12966 -0.370782,0.20302 -0.283228,0.1727 -0.545184,0.37879 -0.830807,0.54789 -0.184894,0.10178 -0.612492,0.38034 -0.855924,0.35088 -0.429694,-0.052 -0.696379,-0.53177 -1.194621,-0.33406 -0.138205,0.0831 -0.295637,0.14035 -0.414612,0.24918 -0.246629,0.22561 -0.421804,0.66346 -0.539372,0.95056 -0.318566,0.77795 -0.56656,1.58403 -0.856644,2.37245 -0.08695,0.23862 -0.172924,0.4776 -0.260858,0.71587 -0.05085,0.13779 -0.253934,0.30328 -0.155496,0.41228 0.933561,1.03381 0.774531,0.27689 0.780447,-0.0277 0.0039,-0.19947 0.01333,-0.39879 0.02,-0.59819 0.0096,-0.79219 0.04531,-1.60615 -0.07597,-2.39264 -0.05867,-0.38044 -0.171606,-0.96943 -0.526105,-1.22701 -0.155919,-0.11329 -0.374743,-0.0903 -0.562116,-0.13541 -0.129198,0.0776 -0.288726,0.119 -0.387601,0.23273 -0.43529,0.50071 0.02299,1.18206 0.344202,1.58215 0.460153,0.5369 1.219441,-0.11386 0.759285,-0.65075 z" />
    <path
       style="fill:#0000ff;stroke-width:0.264583"
       id="path1563"
       d="m 89.27463,102.95074 c 0.141005,0.0214 0.280459,0.0687 0.423016,0.0643 0.900462,-0.028 1.692148,-0.62147 1.940412,-1.49931 0.06248,-0.2209 0.04404,-0.45701 0.06606,-0.68552 -0.07844,-0.21539 -0.09549,-0.46454 -0.235329,-0.64618 -0.589878,-0.766171 -1.518444,-0.514772 -2.158534,0.009 -0.666382,0.54492 -0.805754,0.9855 -1.209522,1.73083 -0.274558,0.78365 -0.710906,2.00314 -0.215016,2.81367 0.14822,0.24227 0.361778,0.48272 0.631338,0.57216 0.83811,0.27807 1.323843,-0.1635 2.001039,-0.52131 0.829662,-0.6221 1.492771,-1.40604 2.02869,-2.28847 0.09467,-0.15588 0.17939,-0.31837 0.251581,-0.48585 0.0351,-0.0814 0.153229,-0.2305 0.06861,-0.25701 -0.335825,-0.10522 -0.702993,-0.0346 -1.054489,-0.0519 -0.04507,0.20253 -0.117893,0.40083 -0.135223,0.60759 -0.08245,0.98377 0.278775,2.34366 1.491451,2.41273 0.290734,0.0166 0.569237,-0.12318 0.853855,-0.18478 0.801386,-0.40198 1.44077,-1.02565 2.047153,-1.67124 0.483237,-0.51622 -0.246801,-1.19963 -0.730041,-0.68341 v 0 c -0.484833,0.51991 -0.997358,1.02408 -1.607154,1.39764 -0.121883,0.065 -0.399695,0.26744 -0.582887,0.19349 -0.452954,-0.18284 -0.506654,-0.86419 -0.492533,-1.26466 0.0048,-0.13751 0.04769,-0.27102 0.07153,-0.40653 -0.281667,-0.1769 -0.568139,-0.34637 -0.845005,-0.5307 -0.008,-0.005 0.02804,-0.0246 0.02405,-0.0159 -0.424405,0.92673 -1.105548,1.71202 -1.884034,2.35975 -0.203174,0.12847 -0.404876,0.2593 -0.609521,0.38543 -0.105474,0.065 -0.200186,0.15916 -0.320712,0.18788 -0.605491,0.14427 -0.40373,-1.0726 -0.373692,-1.22716 0.05818,-0.29938 0.177207,-0.58366 0.265811,-0.87549 0.374787,-0.73784 0.524967,-1.14741 1.21421,-1.63545 0.0078,-0.006 0.292753,-0.18488 0.360606,-0.152 0.06937,0.0336 0.09661,0.12014 0.14492,0.1802 0.0057,0.11044 0.03537,0.22223 0.01722,0.33131 -0.07331,0.44087 -0.439536,0.85285 -0.895858,0.90984 -0.07839,0.01 -0.15735,-0.0143 -0.236027,-0.0214 -0.67088,-0.22343 -0.986858,0.72533 -0.315981,0.94877 z" />
    <path
       style="fill:#00ff00;stroke-width:0.264583"
       id="path1449-3"
       d="m 65.343322,70.142934 c 0.05752,-0.869637 -0.04443,-1.708312 -0.270867,-2.546631 -0.126195,-0.381709 -0.268099,-0.782206 -0.54438,-1.085757 -0.13711,-0.150645 -0.220551,-0.201713 -0.377047,-0.317009 -0.345543,-0.22194 -0.746493,-0.311425 -1.13723,-0.416914 -0.57486,-0.179411 -1.133107,-0.400435 -1.715944,-0.554669 -0.391271,-0.104079 -0.801103,-0.169475 -1.170345,-0.343596 -0.08451,-0.03985 -0.205332,-0.120104 -0.283313,-0.169609 -0.585867,-0.372628 -1.275749,-0.498344 -1.948976,-0.615026 -0.686814,-0.09814 -1.373664,-0.220685 -2.040475,-0.415503 -0.07018,-0.0205 -0.995479,-0.319464 -1.052677,-0.33791 -1.293031,-0.432217 -2.6149,-0.766684 -3.923506,-1.146695 -1.365702,-0.442818 -2.711029,-0.944531 -4.069895,-1.407788 -1.339548,-0.453776 -2.651908,-0.978199 -3.944707,-1.550389 -0.813435,-0.341587 -1.599155,-0.743723 -2.398948,-1.114619 -0.262112,-0.121552 -1.054605,-0.466007 -1.317268,-0.58076 -1.146672,-0.497785 -2.313566,-0.94167 -3.488618,-1.366781 -0.64769,-0.239254 -1.266449,-0.542776 -1.919208,-0.767988 -0.409279,-0.132904 -0.821711,-0.224811 -1.251625,-0.247813 -0.497229,-0.05962 -0.993381,-0.127313 -1.492237,-0.172531 -0.842184,-0.03128 -1.677738,-0.143809 -2.516531,-0.216825 -0.591481,-0.04427 -1.186556,-0.06462 -1.774915,0.02733 -0.337419,0.05273 -0.458246,0.09721 -0.780657,0.188781 -0.616346,0.203174 -1.209598,0.470307 -1.803288,0.730957 -0.842458,0.418701 -1.656437,0.890807 -2.429925,1.425971 -0.603343,0.44019 -1.152027,0.964574 -1.538191,1.609344 -0.06731,0.112385 -0.123607,0.231008 -0.185411,0.346512 -0.319168,0.687889 -0.49381,1.428691 -0.68681,2.158547 -0.128528,0.572881 -0.305997,1.134627 -0.428733,1.708838 -0.05579,0.261007 -0.133371,0.736195 -0.178208,1.00111 -0.10831,0.871476 -0.182645,1.746705 -0.278867,2.619724 -0.124059,0.93755 -0.302567,1.866193 -0.428227,2.803726 -0.08335,1.107324 -0.14354,2.216294 -0.224258,3.324066 -0.07708,1.062561 -0.07784,2.128147 -0.0738,3.192809 -0.0021,0.841803 0.07904,1.681593 0.167934,2.517891 0.09719,0.814321 0.305616,1.611416 0.575938,2.384131 0.266268,0.758294 0.583087,1.497875 0.960626,2.207186 0.508493,0.851324 1.2064,1.559388 1.900241,2.258494 0.691363,0.653606 1.504733,1.205246 2.422935,1.487363 0.803537,0.246888 1.141419,0.235085 1.9846,0.317005 2.239433,0.06357 4.428278,-0.461129 6.61616,-0.858993 0.940488,-0.150432 1.852512,-0.418452 2.694519,-0.86813 0.573347,-0.306197 0.687247,-0.409358 1.219891,-0.781222 0.831239,-0.562628 1.528606,-1.291494 2.349494,-1.866699 0.739513,-0.472112 1.528739,-0.85472 2.322201,-1.225417 1.025678,-0.507992 2.077389,-0.961377 3.133936,-1.400749 1.074553,-0.382051 2.080014,-0.917814 3.067331,-1.482048 0.310774,-0.159049 0.608272,-0.350983 0.933622,-0.481089 0.267874,-0.107122 0.556821,-0.177927 0.835062,-0.251799 0.72127,-0.180885 1.463659,-0.255471 2.204683,-0.293336 0.697539,0.0223 1.383257,-0.06677 2.067025,-0.194569 0.82228,-0.155792 1.61735,-0.40786 2.386232,-0.735187 0.66275,-0.304303 1.340554,-0.573738 2.017311,-0.844801 0.784915,-0.311058 1.533501,-0.702787 2.280591,-1.093756 0.562719,-0.302625 1.173713,-0.500833 1.732638,-0.811477 0.368689,-0.204912 0.526259,-0.328449 0.871278,-0.569854 0.806497,-0.634183 1.441701,-1.44828 2.002319,-2.299934 0.04894,-0.09955 0.09787,-0.199093 0.146809,-0.29864 0.302718,-0.639032 -0.601011,-1.067138 -0.903729,-0.428105 v 0 c -0.02625,0.05916 -0.05249,0.118327 -0.07874,0.17749 -0.490368,0.747292 -1.042157,1.465732 -1.741421,2.030864 -0.276318,0.194911 -0.452895,0.330541 -0.74672,0.495252 -0.562002,0.315048 -1.181624,0.50826 -1.746116,0.818399 -0.717288,0.375388 -1.435422,0.752782 -2.188993,1.05156 -0.683799,0.274323 -1.369049,0.546052 -2.038799,0.853707 -0.700554,0.301874 -1.427491,0.527635 -2.177415,0.671695 -0.307047,0.05809 -0.617395,0.116973 -0.928534,0.149283 -0.256331,0.02662 -0.354389,0.01553 -0.621607,0.01979 -0.127987,0.0021 -0.255926,0.0064 -0.383889,0.0096 -0.810742,0.04256 -1.622634,0.125902 -2.411365,0.325967 -0.335796,0.09042 -0.67817,0.181306 -1.001091,0.312383 -0.349695,0.141943 -0.671393,0.345638 -1.005512,0.518414 -0.950912,0.543975 -1.919007,1.060579 -2.954994,1.426842 -1.069731,0.444966 -2.134613,0.904002 -3.173251,1.418101 -0.84674,0.395724 -1.688605,0.805624 -2.474997,1.314034 -0.817583,0.579202 -1.524651,1.292855 -2.347619,1.865376 -0.176321,0.124333 -0.3478,0.255836 -0.528965,0.373002 -0.910807,0.589044 -1.916845,0.95378 -2.990157,1.111173 -2.098516,0.381844 -4.197098,0.887698 -6.34419,0.847183 -0.690334,-0.06155 -1.049,-0.05649 -1.704782,-0.249241 -0.791404,-0.232622 -1.492153,-0.703797 -2.086097,-1.26401 -0.625702,-0.630031 -1.258925,-1.264433 -1.727799,-2.025007 -0.355753,-0.663704 -0.648809,-1.358749 -0.89965,-2.0687 -0.248436,-0.697913 -0.432847,-1.421318 -0.524618,-2.157264 -0.08531,-0.802474 -0.164527,-1.60823 -0.162338,-2.415998 -0.004,-1.039146 -0.0039,-2.079215 0.07116,-3.116331 0.07925,-1.087778 0.140367,-2.176563 0.218081,-3.264205 0.126062,-0.945279 0.308593,-1.881128 0.431032,-2.826742 0.09404,-0.853894 0.168232,-1.709736 0.270879,-2.562472 0.03211,-0.190009 0.122029,-0.735385 0.163682,-0.930714 0.121134,-0.568047 0.297157,-1.123615 0.424033,-1.690349 0.173715,-0.656938 0.328999,-1.323844 0.604562,-1.947697 0.334697,-0.647024 0.80857,-1.183037 1.409174,-1.600774 0.719285,-0.500731 1.479701,-0.936939 2.261946,-1.331962 0.552938,-0.242933 1.105499,-0.491582 1.677869,-0.685588 0.247584,-0.0725 0.362458,-0.114062 0.620154,-0.156511 0.520931,-0.08581 1.048229,-0.06211 1.572284,-0.0243 0.837835,0.07244 1.672357,0.185893 2.513576,0.216563 0.512236,0.04547 1.021022,0.119482 1.532171,0.17531 0.336259,0.01474 0.654637,0.09317 0.97524,0.194462 0.647933,0.223055 1.260227,0.529893 1.90486,0.76292 1.154774,0.417741 2.301619,0.85353 3.428476,1.342795 0.215816,0.09428 1.057913,0.460585 1.281756,0.564411 0.810151,0.37578 1.606211,0.782843 2.430121,1.129061 1.319712,0.583909 2.659383,1.119189 4.026712,1.582439 1.373373,0.468164 2.732765,0.976141 4.113734,1.421616 1.299239,0.37716 2.611588,0.709243 3.895407,1.138087 0.13281,0.04283 0.980009,0.317035 1.104699,0.353143 0.695426,0.201382 1.41056,0.331939 2.126488,0.434172 0.54465,0.0921 1.110829,0.180797 1.587402,0.477098 0.165603,0.102556 0.259723,0.167533 0.44164,0.250079 0.409895,0.185993 0.855369,0.273913 1.289309,0.382839 0.581338,0.150099 1.133671,0.382906 1.708984,0.552821 0.274563,0.07383 0.556696,0.132318 0.811985,0.262102 0.05808,0.04049 0.123386,0.07222 0.174149,0.121566 0.198858,0.193293 0.276383,0.483473 0.367956,0.733779 0.197257,0.713659 0.284694,1.442076 0.240546,2.183672 -0.07044,0.70359 0.924583,0.803209 0.995023,0.09962 z" />
    <path
       style="fill:#00ff00;stroke-width:0.264583"
       id="path1449-6"
       d="m 113.71402,70.924579 c 0.0575,-0.869637 -0.0444,-1.708312 -0.27087,-2.546631 -0.12619,-0.381709 -0.26809,-0.782206 -0.54438,-1.085757 -0.13711,-0.150645 -0.22055,-0.201713 -0.37704,-0.317009 -0.34555,-0.22194 -0.7465,-0.311425 -1.13723,-0.416914 -0.57486,-0.179411 -1.13311,-0.400435 -1.71595,-0.554669 -0.39127,-0.104079 -0.8011,-0.169475 -1.17034,-0.343596 -0.0845,-0.03985 -0.20533,-0.120104 -0.28331,-0.169609 -0.58587,-0.372628 -1.27575,-0.498344 -1.94898,-0.615026 -0.68681,-0.09814 -1.37366,-0.220685 -2.04047,-0.415503 -0.0702,-0.0205 -0.99548,-0.319464 -1.05268,-0.33791 -1.29303,-0.432217 -2.6149,-0.766684 -3.923507,-1.146695 -1.3657,-0.442818 -2.71103,-0.944531 -4.06989,-1.407788 -1.33955,-0.453776 -2.65191,-0.978199 -3.94471,-1.550389 -0.81343,-0.341587 -1.59915,-0.743723 -2.39895,-1.114619 -0.26211,-0.121552 -1.0546,-0.466007 -1.31727,-0.58076 -1.14667,-0.497785 -2.31356,-0.94167 -3.48861,-1.366781 -0.64769,-0.239254 -1.26645,-0.542776 -1.91921,-0.767988 -0.40928,-0.132904 -0.82171,-0.224811 -1.25163,-0.247813 -0.49723,-0.05962 -0.99338,-0.127313 -1.49223,-0.172531 -0.84219,-0.03128 -1.67774,-0.143809 -2.51653,-0.216824 -0.591486,-0.04427 -1.186561,-0.06462 -1.77492,0.02733 -0.337419,0.05273 -0.458246,0.09721 -0.780657,0.188781 -0.616346,0.203174 -1.209598,0.470307 -1.803288,0.730957 -0.842458,0.418701 -1.656437,0.890807 -2.429925,1.425971 -0.603343,0.44019 -1.152027,0.964574 -1.538191,1.609344 -0.06731,0.112385 -0.123607,0.231008 -0.185411,0.346512 -0.319168,0.687889 -0.49381,1.428691 -0.68681,2.158547 -0.128528,0.572881 -0.305997,1.134627 -0.428733,1.708838 -0.05579,0.261007 -0.133371,0.736195 -0.178208,1.00111 -0.10831,0.871476 -0.182645,1.746705 -0.278867,2.619724 -0.124059,0.93755 -0.302567,1.866193 -0.428227,2.803726 -0.08335,1.107324 -0.14354,2.216294 -0.224258,3.324066 -0.07708,1.062561 -0.07784,2.128147 -0.0738,3.192809 -0.0021,0.841803 0.07904,1.681593 0.167934,2.517891 0.09719,0.814321 0.305616,1.611416 0.575938,2.384131 0.266268,0.758294 0.583087,1.497875 0.960626,2.207186 0.508493,0.851324 1.2064,1.559388 1.900241,2.258494 0.691363,0.653606 1.504733,1.205246 2.422935,1.487363 0.803537,0.246888 1.141419,0.235085 1.9846,0.317005 2.239433,0.06357 4.428281,-0.461129 6.616161,-0.858993 0.94049,-0.150432 1.85251,-0.418452 2.69452,-0.86813 0.57334,-0.306197 0.68724,-0.409358 1.21989,-0.781222 0.83124,-0.562628 1.52861,-1.291494 2.34949,-1.866699 0.73952,-0.472112 1.52874,-0.85472 2.3222,-1.225417 1.02568,-0.507992 2.07739,-0.961377 3.13394,-1.400749 1.07455,-0.382051 2.08001,-0.917814 3.06733,-1.482048 0.31078,-0.159049 0.60827,-0.350983 0.93362,-0.481089 0.26788,-0.107122 0.55682,-0.177927 0.83506,-0.251799 0.72127,-0.180885 1.46366,-0.255471 2.20469,-0.293336 0.697537,0.0223 1.383257,-0.06677 2.067017,-0.194569 0.82228,-0.155792 1.61735,-0.40786 2.38624,-0.735187 0.66274,-0.304303 1.34055,-0.573738 2.01731,-0.844801 0.78491,-0.311058 1.5335,-0.702787 2.28059,-1.093756 0.56272,-0.302625 1.17371,-0.500833 1.73263,-0.811477 0.36869,-0.204912 0.52626,-0.328449 0.87128,-0.569854 0.8065,-0.634183 1.4417,-1.44828 2.00232,-2.299934 0.0489,-0.09955 0.0979,-0.199093 0.14681,-0.29864 0.30272,-0.639032 -0.60101,-1.067138 -0.90373,-0.428105 v 0 c -0.0263,0.05916 -0.0525,0.118327 -0.0787,0.17749 -0.49037,0.747292 -1.04216,1.465732 -1.74142,2.030864 -0.27632,0.194911 -0.45289,0.330541 -0.74672,0.495252 -0.562,0.315048 -1.18162,0.50826 -1.74612,0.818399 -0.71728,0.375388 -1.43542,0.752782 -2.18899,1.05156 -0.6838,0.274323 -1.36905,0.546052 -2.0388,0.853707 -0.70055,0.301874 -1.42749,0.527635 -2.17741,0.671695 -0.30705,0.05809 -0.6174,0.116973 -0.92854,0.149283 -0.25633,0.02662 -0.35439,0.01553 -0.621597,0.01979 -0.12799,0.0021 -0.25593,0.0064 -0.38389,0.0096 -0.81074,0.04256 -1.62264,0.125902 -2.41137,0.325967 -0.33579,0.09042 -0.67817,0.181306 -1.00109,0.312383 -0.34969,0.141943 -0.67139,0.345638 -1.00551,0.518414 -0.95091,0.543975 -1.91901,1.060579 -2.95499,1.426842 -1.06974,0.444966 -2.13462,0.904002 -3.17326,1.418101 -0.84674,0.395724 -1.6886,0.805624 -2.47499,1.314034 -0.81759,0.579202 -1.52465,1.292855 -2.34762,1.865376 -0.17632,0.124333 -0.3478,0.255836 -0.52897,0.373002 -0.9108,0.589044 -1.91684,0.95378 -2.99015,1.111173 -2.09852,0.381844 -4.197101,0.887698 -6.344193,0.847183 -0.690334,-0.06155 -1.049,-0.05649 -1.704782,-0.249241 -0.791404,-0.232619 -1.492153,-0.703794 -2.086097,-1.264007 -0.625702,-0.630031 -1.258925,-1.264433 -1.727799,-2.025007 -0.355753,-0.663704 -0.648809,-1.358749 -0.89965,-2.0687 -0.248436,-0.697913 -0.432847,-1.421318 -0.524618,-2.157264 -0.08531,-0.802474 -0.164527,-1.60823 -0.162338,-2.415998 -0.004,-1.039146 -0.0039,-2.079215 0.07116,-3.116331 0.07925,-1.087778 0.140367,-2.176563 0.218081,-3.264205 0.126062,-0.945279 0.308593,-1.881128 0.431032,-2.826742 0.09404,-0.853894 0.168232,-1.709736 0.270879,-2.562472 0.03211,-0.190009 0.122029,-0.735385 0.163682,-0.930714 0.121134,-0.568047 0.297157,-1.123615 0.424033,-1.690349 0.173715,-0.656938 0.328999,-1.323844 0.604562,-1.947697 0.334697,-0.647024 0.80857,-1.183037 1.409174,-1.600774 0.719285,-0.500731 1.479701,-0.936939 2.261946,-1.331962 0.552938,-0.242933 1.105499,-0.491582 1.677869,-0.685588 0.247584,-0.0725 0.362458,-0.114062 0.620154,-0.156511 0.520931,-0.08581 1.048229,-0.06211 1.572285,-0.0243 0.83783,0.07244 1.67236,0.185893 2.51357,0.216563 0.51224,0.04547 1.02103,0.119482 1.53218,0.17531 0.33625,0.01474 0.65463,0.09317 0.97524,0.194462 0.64793,0.223055 1.26022,0.529893 1.90486,0.76292 1.15477,0.417741 2.30161,0.85353 3.42847,1.342795 0.21582,0.09428 1.05791,0.460585 1.28176,0.564411 0.81015,0.37578 1.60621,0.782843 2.43012,1.129061 1.31971,0.583909 2.65938,1.119189 4.02671,1.582439 1.37337,0.468164 2.73277,0.976141 4.11373,1.421616 1.299237,0.37716 2.611587,0.709243 3.895407,1.138087 0.13281,0.04283 0.98001,0.317035 1.1047,0.353143 0.69543,0.201382 1.41056,0.331939 2.12649,0.434172 0.54465,0.0921 1.11083,0.180797 1.5874,0.477098 0.1656,0.102556 0.25972,0.167533 0.44164,0.250079 0.4099,0.185993 0.85537,0.273913 1.28931,0.382839 0.58134,0.150099 1.13367,0.382906 1.70898,0.552821 0.27457,0.07383 0.5567,0.132318 0.81199,0.262102 0.0581,0.04049 0.12338,0.07222 0.17415,0.121566 0.19886,0.193293 0.27638,0.483473 0.36795,0.733779 0.19726,0.713659 0.2847,1.442076 0.24055,2.183672 -0.0704,0.70359 0.92458,0.803209 0.99502,0.09962 z" />
  </g>
</svg>
