<?xml version="1.0" encoding="UTF-8" standalone="no"?>
<!-- Created with Inkscape (http://www.inkscape.org/) -->

<svg
   width="175.28915mm"
   height="57.928867mm"
   viewBox="0 0 175.28915 57.928867"
   version="1.1"
   id="svg1765"
   inkscape:version="1.2.2 (b0a8486541, 2022-12-01)"
   sodipodi:docname="iyon-dipol.svg"
   xmlns:inkscape="http://www.inkscape.org/namespaces/inkscape"
   xmlns:sodipodi="http://sodipodi.sourceforge.net/DTD/sodipodi-0.dtd"
   xmlns="http://www.w3.org/2000/svg"
   xmlns:svg="http://www.w3.org/2000/svg">
  <sodipodi:namedview
     id="namedview1767"
     pagecolor="#ffffff"
     bordercolor="#000000"
     borderopacity="0.25"
     inkscape:showpageshadow="2"
     inkscape:pageopacity="0.0"
     inkscape:pagecheckerboard="0"
     inkscape:deskcolor="#d1d1d1"
     inkscape:document-units="mm"
     showgrid="false"
     inkscape:zoom="1.249408"
     inkscape:cx="542.65698"
     inkscape:cy="187.28869"
     inkscape:window-width="1916"
     inkscape:window-height="1026"
     inkscape:window-x="0"
     inkscape:window-y="0"
     inkscape:window-maximized="1"
     inkscape:current-layer="layer1" />
  <defs
     id="defs1762" />
  <g
     inkscape:label="Layer 1"
     inkscape:groupmode="layer"
     id="layer1"
     transform="translate(-11.689534,-6.0805503)">
    <path
       style="fill:#0000ff;stroke-width:0.264583"
       id="path1777"
       d="m 15.32502,8.9092422 c 0.162015,2.5760178 0.108353,5.1638648 0.409783,7.7302108 0.216103,0.747536 -0.02515,0.431539 1.06678,0.533367 0.469115,-0.529086 -0.279126,-1.192514 -0.74824,-0.663428 v 0 c 0.854808,0.313961 0.853587,0.538841 0.674533,0.01256 C 16.417933,13.92251 16.503937,11.298996 16.301147,8.6920423 16.147563,8.0018164 15.171436,8.2190163 15.32502,8.9092422 Z" />
    <path
       style="fill:#0000ff;stroke-width:0.264583"
       id="path1779"
       d="m 13.178827,12.654285 c 2.627812,0.186164 5.259914,-0.127162 7.865089,-0.447704 0.701814,-0.08635 0.579693,-1.078868 -0.122121,-0.992515 v 0 c -2.521109,0.310204 -5.067291,0.61626 -7.610737,0.449 -0.700897,-0.0935 -0.833129,0.897717 -0.132231,0.991219 z" />
    <path
       style="fill:#0000ff;stroke-width:0.264583"
       id="path1781"
       d="m 12.181491,22.324851 c 2.93541,0.06351 5.863591,-0.223581 8.781249,-0.510575 0.219611,-0.02451 0.439223,-0.04903 0.658835,-0.07354 0.702737,-0.07849 0.591743,-1.072306 -0.110994,-0.993821 v 0 c -0.215248,0.02405 -0.430496,0.04811 -0.645744,0.07216 -2.859816,0.281364 -5.729389,0.562912 -8.606603,0.50872 -0.705022,-0.05427 -0.781764,0.942785 -0.07674,0.997051 z" />
    <path
       style="fill:#0000ff;stroke-width:0.264583"
       id="path1783"
       d="m 15.658341,27.51169 c -0.108198,2.709732 -0.665265,5.372679 -1.082576,8.04523 -0.0012,0.08426 -0.0025,0.168526 -0.0037,0.252788 0.0094,0.707043 1.009321,0.693737 0.999912,-0.01331 v 0 c -0.0027,-0.02842 -0.0055,-0.05685 -0.0082,-0.08528 0.428212,-2.744988 1.005779,-5.481052 1.092318,-8.266025 -0.04709,-0.705538 -1.044866,-0.638947 -0.997781,0.06659 z" />
    <path
       style="fill:#0000ff;stroke-width:0.264583"
       id="path1785"
       d="m 12.311661,33.097988 c 1.936045,-0.109008 3.869398,-0.25854 5.8058,-0.359566 0.706144,-0.0369 0.653966,-1.035534 -0.05218,-0.998638 v 0 c -1.935585,0.101277 -3.86817,0.250045 -5.803385,0.359444 -0.706231,0.03519 -0.656469,1.03395 0.04976,0.99876 z" />
    <path
       style="fill:#0000ff;stroke-width:0.264583"
       id="path1787"
       d="m 13.278913,43.712794 c 1.889039,-0.301705 3.79748,-0.409861 5.703702,-0.537512 0.705526,-0.04725 0.638701,-1.045017 -0.06682,-0.997765 v 0 c -1.931075,0.12935 -3.864353,0.240263 -5.778066,0.545296 -0.700024,0.09983 -0.558834,1.089818 0.141189,0.989981 z" />
    <path
       style="fill:#0000ff;stroke-width:0.264583"
       id="path1789"
       d="m 28.618463,11.508596 c 2.458283,0.184933 4.931756,-0.0059 7.37476,-0.294982 0.702196,-0.08317 0.58457,-1.076232 -0.117626,-0.993058 v 0 c -2.345147,0.278084 -4.717267,0.459556 -7.078125,0.304193 -0.695685,-0.126578 -0.874694,0.857269 -0.179009,0.983847 z" />
    <path
       style="fill:#0000ff;stroke-width:0.264583"
       id="path1791"
       d="m 31.399035,18.41838 c 0.415184,2.178378 0.664255,4.420299 0.603271,6.641121 -0.245409,0.06349 -0.08422,0.02946 0.39814,-0.292834 -0.644266,-0.291411 -1.056383,0.61972 -0.412118,0.911131 v 0 c 0.995765,-0.1681 0.732983,0.121969 1.013651,-0.592672 0.05584,-2.328852 -0.189688,-4.679947 -0.64724,-6.961074 -0.208121,-0.675785 -1.163825,-0.381457 -0.955704,0.294328 z" />
    <path
       style="fill:#0000ff;stroke-width:0.264583"
       id="path1793"
       d="m 28.697859,22.251681 c 1.891109,-0.153188 3.757356,-0.508275 5.625904,-0.823844 0.697233,-0.117751 0.530707,-1.103789 -0.166526,-0.986037 v 0 c -1.835462,0.309981 -3.668509,0.65974 -5.525934,0.812098 -0.705538,0.04706 -0.638985,1.044843 0.06656,0.997783 z" />
    <path
       style="fill:#0000ff;stroke-width:0.264583"
       id="path1797"
       d="m 29.615,31.765478 c 1.886111,-0.122987 3.779803,-0.227502 5.648677,-0.521187 0.169627,-0.04834 0.339251,-0.09669 0.508876,-0.145031 0.678494,-0.199113 0.396906,-1.158648 -0.281589,-0.959536 v 0 c -0.127817,0.03895 -0.255637,0.07789 -0.383455,0.116838 -1.840082,0.292843 -3.70664,0.386992 -5.563796,0.51146 -0.705307,0.05041 -0.634021,1.047861 0.07129,0.997456 z" />
    <path
       style="fill:#0000ff;stroke-width:0.264583"
       id="path1799"
       d="m 31.53968,36.555031 c -0.314331,2.424772 -0.533731,4.885031 -0.330121,7.328347 0.315113,-0.150492 0.63023,-0.300984 0.945343,-0.451477 -0.0989,-0.700156 -1.089075,-0.560284 -0.990171,0.139872 v 0 c 0.347109,0.07601 0.694219,0.152017 1.041328,0.228023 -0.201184,-2.382094 0.02471,-4.781319 0.32865,-7.145183 0.07041,-0.703591 -0.924616,-0.803172 -0.995029,-0.09958 z" />
    <path
       style="fill:#0000ff;stroke-width:0.264583"
       id="path1801"
       d="m 28.986892,42.382514 c 1.929255,-0.269468 3.848211,-0.600369 5.7686,-0.925571 0.697182,-0.118063 0.530217,-1.104027 -0.166966,-0.985965 v 0 c -1.903777,0.322393 -3.806094,0.650553 -5.718556,0.918396 -0.702257,0.08267 -0.585335,1.075817 0.116922,0.99314 z" />
    <path
       style="fill:#0000ff;stroke-width:0.264583"
       id="path1803"
       d="m 40.423255,41.35176 c 1.395506,0.184762 2.824295,0.121486 4.21684,-0.06788 0.541316,-0.07361 1.075928,-0.190108 1.613894,-0.285133 0.408168,-0.0097 0.789628,-0.185264 1.186151,-0.245804 0.432144,-0.03601 0.359685,0.01831 -0.272915,-0.904052 -0.04062,-0.05922 -0.144277,0.05138 -0.21318,0.03113 -0.706794,0.02098 -0.677108,1.020551 0.02969,0.999559 v 0 c 2.12e-4,-1.6e-5 0.53231,-0.02352 0.54591,-0.09868 0.207031,-1.144421 0.217966,-1.069305 -0.297847,-1.00602 -0.381521,0.08854 -0.757301,0.199507 -1.151747,0.239104 -0.514429,0.09087 -1.025313,0.203973 -1.542828,0.275193 -1.325348,0.182402 -2.68619,0.246891 -4.014419,0.06754 -0.703596,-0.07039 -0.803138,0.924644 -0.09954,0.995031 z" />
    <path
       style="fill:#0000ff;stroke-width:0.264583"
       id="path1811"
       d="m 43.222701,27.975634 c 0.0082,2.536351 -0.143405,5.06944 -0.233273,7.603037 -0.01164,0.899523 -0.178938,0.670229 1.008256,0.303827 0.0294,-0.706496 -0.969741,-0.748065 -0.999136,-0.04157 v 0 c 1.145117,0.292756 0.976294,0.590714 0.990256,-0.226915 0.08975,-2.545381 0.242766,-5.090226 0.233897,-7.63838 0,-0.707107 -1,-0.707107 -1,1e-6 z" />
    <path
       style="fill:#0000ff;stroke-width:0.264583"
       id="path1813"
       d="m 42.02595,31.613059 c 2.102896,-0.02948 4.187749,-0.336518 6.275017,-0.562303 0.702998,-0.0761 0.595382,-1.07029 -0.107619,-0.994193 v 0 c -2.051545,0.222224 -4.100645,0.524468 -6.167398,0.556496 -0.707106,0 -0.707106,1 0,1 z" />
    <path
       style="fill:#0000ff;stroke-width:0.264583"
       id="path1815"
       d="m 41.234714,21.718928 c 1.694786,0.0183 3.387336,-0.102898 5.081373,-0.129479 0.691176,-0.01084 1.382562,6.61e-4 2.07377,-0.008 0.157414,-0.01879 0.31483,-0.03758 0.472247,-0.05638 0.701545,-0.08851 0.576368,-1.080647 -0.125177,-0.992135 v 0 c -0.119907,0.0162 -0.239816,0.03239 -0.359722,0.04859 -0.697254,0.0089 -1.394691,-0.0025 -2.091915,0.0084 -1.683777,0.02641 -3.366064,0.146969 -5.050576,0.129005 -0.707107,0 -0.707107,0.999999 0,1 z" />
    <path
       style="fill:#0000ff;stroke-width:0.264583"
       id="path1817"
       d="m 43.688346,8.9092422 c 0.259535,2.0833518 0.225266,4.1905998 0.285253,6.2867868 0.02148,0.09956 0.04297,0.199119 0.06446,0.298678 0.177639,0.68443 1.14557,0.433214 0.967934,-0.251216 v 0 c -0.01093,-0.02536 -0.02188,-0.05071 -0.0328,-0.07607 -0.0618,-2.159203 -0.02177,-4.331264 -0.308716,-6.4753807 -0.153585,-0.6902259 -1.129712,-0.473026 -0.976127,0.2171999 z" />
    <path
       style="fill:#0000ff;stroke-width:0.264583"
       id="path1819"
       d="m 41.801385,11.17407 c 1.818228,-0.248706 3.65157,-0.271366 5.482548,-0.231172 0.706938,0.01539 0.728705,-0.9843722 0.02178,-0.9997631 v 0 c -1.889088,-0.040794 -3.780761,-0.015854 -5.656416,0.2425701 -0.698878,0.107552 -0.546777,1.095917 0.152104,0.988365 z" />
    <path
       style="fill:#00ff00;stroke-width:0.264583"
       id="path1823"
       d="m 46.94779,27.665124 c -0.723013,-0.864653 -1.702151,-1.397696 -2.8523,-1.390919 -0.880518,0.0052 -1.276168,0.209941 -2.104173,0.482959 -1.236875,0.527637 -2.550872,1.137976 -3.166457,2.424774 -0.40767,0.852178 -0.320813,1.183889 -0.355034,2.114695 0.113107,0.411187 0.165616,0.844077 0.339318,1.233557 0.695653,1.559814 2.594327,3.174886 4.211595,3.6992 0.46392,0.150402 0.959006,0.177972 1.43851,0.266959 0.487212,-0.0302 0.984047,0.0104 1.461633,-0.09059 2.115719,-0.447384 3.845734,-2.143868 4.441946,-4.208854 0.145066,-0.502446 0.140944,-1.036397 0.211416,-1.554594 -0.209177,-1.129628 -0.105196,-1.860081 -1.212763,-2.574702 -0.480587,-0.310082 -1.090144,-0.346467 -1.635218,-0.5197 -0.683077,-0.182767 -0.941549,0.783251 -0.258468,0.96602 v 0 c 0.384648,0.07552 0.801052,0.05592 1.153951,0.226576 0.864698,0.418161 0.772318,0.955365 0.959942,1.780008 -0.04541,0.426106 -0.02739,0.863851 -0.136218,1.278324 -0.450159,1.714426 -1.853798,3.196793 -3.596428,3.609506 -0.397084,0.09404 -0.813266,0.06836 -1.219898,0.102545 -0.392663,-0.06137 -0.798156,-0.06716 -1.177984,-0.184124 -1.382294,-0.425661 -3.037834,-1.777341 -3.682875,-3.079506 -0.144423,-0.29155 -0.199126,-0.619506 -0.298686,-0.929259 7.94e-4,-0.661974 -0.07082,-0.975373 0.191836,-1.588209 0.472946,-1.103487 1.632427,-1.572255 2.650205,-2.025314 0.293258,-0.102132 0.579241,-0.228214 0.879771,-0.30639 1.186749,-0.308708 2.154539,-0.05936 2.95666,0.867418 0.42453,0.565486 1.224249,-0.03489 0.799719,-0.600377 z" />
    <path
       style="fill:#00ff00;stroke-width:0.264583"
       id="path1825"
       d="m 52.727047,30.39601 c 4.615836,-0.460936 9.252492,-0.61563 13.887476,-0.723942 0.706914,-0.01654 0.683538,-1.016254 -0.02339,-0.999726 v 0 c -4.658849,0.108985 -9.319358,0.264944 -13.958961,0.728179 -0.703919,0.06708 -0.609058,1.062566 0.09486,0.995489 z" />
    <path
       style="fill:#00ff00;stroke-width:0.264583"
       id="path1827"
       d="m 64.30243,26.353165 c 1.125879,0.254745 2.247114,0.559434 3.322788,0.983042 0.594905,0.234278 1.450735,0.593381 1.946836,1.056754 0.135755,0.126802 0.195355,0.316018 0.293034,0.474028 -0.05043,0.07556 -0.07402,0.178911 -0.151286,0.226681 -0.185187,0.114491 -0.404318,0.161682 -0.606708,0.241938 -1.875557,0.743744 -0.918771,0.402683 -3.014567,1.045242 -0.675812,0.208031 -0.381611,1.163775 0.294201,0.955743 v 0 c 1.189119,-0.367429 3.666267,-0.90289 4.320987,-2.132732 0.142999,-0.268618 -0.01664,-0.608393 -0.02498,-0.91259 -0.1847,-0.243033 -0.32761,-0.524454 -0.554104,-0.729102 -0.556622,-0.502933 -1.510373,-0.909703 -2.177534,-1.171372 -1.131742,-0.443882 -2.311283,-0.763705 -3.496524,-1.02599 -0.698876,-0.107584 -0.851022,0.880774 -0.152146,0.988358 z" />
    <path
       style="fill:#00ff00;stroke-width:0.264583"
       id="path1829"
       d="m 73.452812,22.572679 c 0.571391,0.0579 1.144336,0.09237 1.713209,0.173372 0.700127,0.09911 0.840287,-0.891021 0.140163,-0.990129 v 0 c -0.580848,-0.08179 -1.165347,-0.120419 -1.748825,-0.177763 -0.703233,-0.07393 -0.807778,0.920594 -0.104547,0.99452 z" />
    <path
       style="fill:#00ff00;stroke-width:0.264583"
       id="path1831"
       d="m 82.011191,21.358135 c 0.07863,-0.389886 0.112138,-0.798431 0.06818,-1.19534 -0.01863,-0.168237 -0.03717,-0.339949 -0.09612,-0.498618 -0.06265,-0.168631 -0.136163,-0.344127 -0.263993,-0.470698 -0.146013,-0.144575 -0.353166,-0.210147 -0.529749,-0.315221 -0.230143,0.02428 -0.476962,-0.01652 -0.69043,0.07285 -0.500494,0.209537 -0.85048,0.745042 -1.060747,1.207457 -0.275058,0.604899 -0.390043,1.266683 -0.451905,1.921829 -0.0318,0.336704 -0.0266,0.67588 -0.0399,1.01382 0.0011,0.449388 0.01939,1.319177 -0.03945,1.786881 -0.05092,0.404766 -0.13173,0.777013 -0.409313,1.089633 -0.252738,0.284643 -0.493834,0.320999 -0.835842,0.44406 -0.182486,0.0085 -0.365112,0.03649 -0.547455,0.02537 -0.517408,-0.03155 -1.080804,-0.192709 -1.435528,-0.597313 -0.222854,-0.254191 -0.214432,-0.417803 -0.280623,-0.732951 0.0047,-0.140801 -0.0088,-0.283398 0.01413,-0.422403 0.04267,-0.258911 0.175376,-0.598444 0.341437,-0.805404 0.08993,-0.112083 0.202433,-0.206479 0.320704,-0.2881 0.334558,-0.230882 0.438449,-0.218665 0.820441,-0.308598 0.120997,0.008 0.244922,-0.0037 0.36299,0.02399 0.194619,0.04557 0.386217,0.20085 0.531508,0.324776 0.268565,0.229068 0.505677,0.490967 0.74403,0.750239 0.478869,0.520273 1.214646,-0.156951 0.735777,-0.677224 v 0 c -0.39202,-0.425449 -0.878195,-0.972346 -1.405792,-1.215759 -0.54016,-0.249209 -0.651656,-0.180894 -1.233321,-0.170326 -0.571765,0.171428 -0.780719,0.174656 -1.261989,0.565043 -0.559458,0.453808 -0.885512,1.094637 -0.955757,1.808946 -0.0223,0.22675 0.015,0.45544 0.02252,0.683159 0.190368,0.598966 0.175464,0.803603 0.641538,1.262796 0.548156,0.540065 1.371547,0.794605 2.126615,0.795187 0.283141,2.17e-4 0.562459,-0.06565 0.84369,-0.09848 0.628629,-0.284998 0.889863,-0.310599 1.328566,-0.887682 0.698815,-0.919243 0.55712,-2.242367 0.57046,-3.319298 0.02278,-0.680776 0.0055,-1.085075 0.144971,-1.749799 0.106849,-0.509234 0.215712,-0.789464 0.470947,-1.217131 0.05203,-0.08718 0.126056,-0.159419 0.183108,-0.243402 0.02503,-0.03683 0.04163,-0.07872 0.06245,-0.118074 0.08573,-0.07929 0.10609,-0.142542 0.196842,0.06535 0.0449,0.102863 0.06162,0.216738 0.07573,0.328083 0.03931,0.310097 0.01773,0.632218 -0.04313,0.937582 -0.15894,0.689012 0.81547,0.913786 0.97441,0.224774 z" />
    <path
       style="fill:#00ff00;stroke-width:0.264583"
       id="path1833"
       d="m 87.053218,16.425119 c -0.194993,0.170603 -0.405725,0.324739 -0.584978,0.511811 -0.656569,0.685204 -1.105104,1.295413 -1.51456,2.173706 -0.452667,0.970978 -0.754359,1.979696 -0.661522,3.06944 0.04591,0.53893 0.268539,1.047902 0.402807,1.571853 0.320562,0.445927 0.566283,0.956641 0.961684,1.337781 0.798933,0.770117 1.856311,1.226158 2.956057,1.322366 0.51003,0.04462 1.038474,0.01213 1.530464,-0.129528 0.493461,-0.142082 0.969095,-0.383958 1.369507,-0.705457 0.425731,-0.341825 0.708057,-0.831274 1.062083,-1.246912 0.227224,-0.550776 0.52783,-1.076727 0.68167,-1.65233 0.307554,-1.150732 0.379005,-2.584724 -0.0021,-3.734715 -0.397542,-1.19974 -1.226164,-2.254794 -2.354075,-2.85054 -0.571156,-0.301675 -1.237668,-0.370254 -1.856502,-0.555381 -0.612163,0.0097 -1.22433,0.01932 -1.836494,0.02898 -0.706834,0.01965 -0.679045,1.019264 0.02779,0.999614 v 0 c 0.513865,-0.02164 1.027729,-0.04329 1.541594,-0.06493 0.500984,0.125265 1.036087,0.155088 1.502953,0.375796 0.911415,0.430867 1.645716,1.269266 1.985579,2.213335 0.359349,0.9982 0.304376,2.208805 0.06195,3.218402 -0.115774,0.482149 -0.352073,0.927108 -0.528111,1.390662 -0.609912,0.796183 -0.762188,1.252591 -1.758212,1.588722 -1.190929,0.401907 -2.657014,0.01459 -3.584789,-0.79887 -0.320926,-0.281382 -0.531273,-0.66815 -0.796909,-1.002226 -0.123169,-0.411916 -0.321016,-0.808555 -0.369509,-1.235749 -0.10735,-0.945702 0.145502,-1.790533 0.529198,-2.638824 0.358077,-0.791646 0.734319,-1.307254 1.312389,-1.926571 0.145741,-0.156138 0.31772,-0.285542 0.476578,-0.428313 0.588399,-0.392154 0.03381,-1.224278 -0.55459,-0.832124 z" />
    <path
       style="fill:#00ff00;stroke-width:0.264583"
       id="path1835"
       d="m 94.00211,13.752667 c -0.05943,-0.09779 -0.104696,-0.205749 -0.178292,-0.293378 -0.332727,-0.39617 -0.87666,-0.657135 -1.398561,-0.647116 -0.23535,0.0045 -0.472858,0.04825 -0.69464,0.127124 -0.223268,0.07941 -0.415615,0.227768 -0.623422,0.341652 -0.168402,0.190024 -0.374533,0.35237 -0.505203,0.570071 -0.429374,0.715365 -0.408501,1.616818 0.06482,2.307701 0.151125,0.220591 0.34785,0.417201 0.573095,0.561298 0.219906,0.140684 0.48898,0.183039 0.73347,0.274559 0.254445,-0.02116 0.522336,0.02084 0.763337,-0.06347 1.050327,-0.367442 1.673034,-1.716437 1.4996,-2.770337 -0.04522,-0.274786 -0.193768,-0.522171 -0.290653,-0.783256 -0.830054,-0.713738 -0.365517,-0.48152 -1.376471,-0.729941 -0.696196,-0.123738 -0.871186,0.860832 -0.17499,0.984569 v 0 c 0.438621,0.01101 0.228134,-0.03481 0.631481,0.137337 0.07021,0.131105 0.174564,0.249033 0.210635,0.393314 0.08835,0.353381 0.01654,0.755953 -0.121833,1.083787 -0.06488,0.153732 -0.159835,0.294365 -0.260332,0.427572 -0.07553,0.100116 -0.157895,0.201366 -0.264271,0.267793 -0.09473,0.05916 -0.213712,0.06495 -0.320569,0.09743 -0.121115,-0.02175 -0.251322,-0.01433 -0.363344,-0.06525 -0.560607,-0.254824 -0.777862,-0.941749 -0.529521,-1.490464 0.05741,-0.126861 0.159914,-0.228009 0.239871,-0.342013 0.240157,-0.16122 0.378989,-0.298281 0.672714,-0.338796 0.17903,-0.0247 0.398295,0.03 0.558225,0.110995 0.03621,0.01834 0.151898,0.111875 0.206259,0.155297 0.223779,0.670762 1.172382,0.354287 0.9486,-0.316475 z" />
    <path
       style="fill:#00ff00;stroke-width:0.264583"
       id="path1837"
       d="m 94.954152,21.071863 c -0.11272,-0.09317 -0.209618,-0.209772 -0.338158,-0.279512 -0.828429,-0.449468 -1.864977,-0.01071 -2.35362,0.736125 -0.154966,0.236845 -0.219183,0.521918 -0.328774,0.782877 -0.01979,0.292263 -0.08006,0.584588 -0.05936,0.876788 0.07235,1.021615 0.715478,2.323776 1.880753,2.40751 0.274675,0.01974 0.54187,-0.09858 0.812805,-0.14787 0.218554,-0.175707 0.481047,-0.307696 0.655664,-0.527122 0.339225,-0.426269 0.5148,-1.078093 0.468887,-1.616601 -0.02553,-0.299415 -0.11326,-0.595253 -0.232981,-0.870876 C 95.1687,21.764 94.925845,21.64011 94.411788,21.176464 c -0.793342,-0.352056 -0.392848,-0.273202 -1.19271,-0.277439 -0.704453,0.0612 -0.6179,1.057449 0.08655,0.996247 v 0 c 0.222777,-0.117747 0.07666,-0.07661 0.453713,0.03903 0.135697,0.108816 0.288065,0.199611 0.407091,0.326448 0.233225,0.248531 0.466682,0.629927 0.528359,0.973364 0.03029,0.168685 0.01876,0.344786 -0.0078,0.514093 -0.02379,0.151455 -0.07146,0.301287 -0.14169,0.43757 -0.05785,0.112263 -0.157578,0.1974 -0.236365,0.2961 -0.0976,0.04949 -0.184941,0.129978 -0.292796,0.148467 -0.289409,0.04961 -0.528299,-0.101611 -0.706102,-0.318624 -0.2326,-0.28389 -0.387381,-0.728598 -0.43653,-1.084515 -0.02582,-0.186999 -0.0019,-0.377541 -0.0029,-0.566312 0.04565,-0.155153 0.06549,-0.320373 0.136945,-0.46546 0.127096,-0.258057 0.322572,-0.42927 0.580697,-0.543035 0.287102,-0.126537 0.217631,-0.04161 0.470631,-0.02967 0.01722,8.2e-4 0.0316,-0.01386 0.0474,-0.02079 0.37482,0.599593 1.22277,0.06952 0.847953,-0.530073 z" />
    <path
       style="fill:#00ff00;stroke-width:0.264583"
       id="path1839"
       d="m 49.237944,36.649472 c -0.260908,-0.07104 -0.516093,-0.16809 -0.782724,-0.213125 -0.926738,-0.156533 -1.975774,-0.204285 -2.905292,-0.09283 -0.620374,0.07439 -1.236006,0.199121 -1.839002,0.362805 -0.612529,0.166272 -1.217121,0.370499 -1.798709,0.62465 -0.569979,0.249081 -1.096897,0.586933 -1.645346,0.880401 -0.458068,0.366162 -0.962298,0.681071 -1.374198,1.098486 -0.756989,0.767125 -1.296146,1.635252 -1.489231,2.707457 -0.0823,0.457002 -0.098,0.93857 -0.0028,1.393056 0.259882,1.240398 0.774206,1.5685 1.581947,2.463413 0.460078,0.282906 0.889209,0.623779 1.380238,0.84872 1.087493,0.498184 2.374041,0.748205 3.561223,0.786508 1.284994,0.04146 2.703272,-0.147219 3.918548,-0.577445 0.602136,-0.213164 1.151041,-0.554193 1.72656,-0.831289 0.441216,-0.371575 0.96334,-0.664265 1.323649,-1.114727 0.738154,-0.922848 1.054198,-2.062035 0.91316,-3.233237 -0.07482,-0.621292 -0.27626,-1.232088 -0.54918,-1.795219 -0.800166,-1.651026 -1.472393,-2.005756 -2.82253,-3.214777 -0.529939,-0.468149 -1.192001,0.281302 -0.662059,0.749448 v 0 c 0.501446,0.436261 1.056158,0.817959 1.504344,1.308777 0.99944,1.094513 1.847196,2.68845 1.503,4.224925 -0.09591,0.428122 -0.272979,0.851575 -0.537988,1.201224 -0.297736,0.392824 -0.741058,0.650129 -1.111589,0.975193 -0.508391,0.252791 -0.991732,0.563936 -1.525177,0.75837 -1.103868,0.40235 -2.390532,0.582237 -3.561509,0.555893 -1.057767,-0.02379 -2.188908,-0.231545 -3.166964,-0.651741 -0.411446,-0.176765 -0.775139,-0.448656 -1.162709,-0.672983 -0.588909,-0.604737 -1.08563,-0.947468 -1.313145,-1.800098 -0.09074,-0.34004 -0.09822,-0.706118 -0.04941,-1.054651 0.124746,-0.890701 0.550637,-1.606356 1.169749,-2.248728 0.364514,-0.378206 0.813848,-0.664294 1.220772,-0.996442 0.500348,-0.272235 0.980374,-0.585702 1.501047,-0.816702 0.538144,-0.23875 1.098315,-0.429916 1.665394,-0.5881 0.549063,-0.15316 1.10967,-0.272063 1.675169,-0.343742 0.806535,-0.102229 1.798466,-0.07176 2.611676,0.05891 0.237561,0.03817 0.464971,0.123989 0.697455,0.185986 0.663535,0.24438 1.009142,-0.694 0.345606,-0.938379 z" />
    <path
       style="fill:#00ff00;stroke-width:0.264583"
       id="path1841"
       d="m 51.529982,42.726514 c 1.785795,0.453086 3.573299,0.897885 5.376074,1.279433 0.630965,0.13354 1.26405,0.256854 1.896073,0.385283 1.676662,0.341479 3.371017,0.602872 5.03447,1.008467 0.300811,0.07335 0.5964,0.166648 0.894602,0.249974 0.681172,0.189748 0.949515,-0.773576 0.268343,-0.963325 v 0 C 64.683679,44.598619 64.37046,44.500741 64.051952,44.42316 62.383021,44.016652 60.683459,43.75314 59.001225,43.411251 58.374729,43.283994 57.747182,43.161801 57.121736,43.029483 55.32335,42.649015 53.540397,42.204724 51.75891,41.75307 c -0.688329,-0.161878 -0.917255,0.811567 -0.228928,0.973444 z" />
    <path
       style="fill:#00ff00;stroke-width:0.264583"
       id="path1845"
       d="m 64.177505,42.984126 c 0.467047,0.532408 1.078161,0.917165 1.537655,1.457722 0.09299,0.1094 0.167685,0.233121 0.251526,0.349684 0.03559,0.103116 0.09243,0.20121 0.106775,0.309348 0.03263,0.246083 -0.161877,0.431556 -0.339823,0.556649 -0.305583,0.21482 -0.519216,0.314018 -0.860316,0.497535 -0.576398,0.273196 -0.323255,0.177835 -0.746398,0.318543 -0.668314,0.230994 -0.341638,1.176131 0.326673,0.945139 v 0 c 0.541682,-0.192251 0.239543,-0.0713 0.897223,-0.385048 0.358754,-0.196641 0.807445,-0.413472 1.114719,-0.694756 0.479206,-0.438679 0.688578,-0.963536 0.536099,-1.610199 -0.04423,-0.187568 -0.153284,-0.353634 -0.229926,-0.53045 -0.114297,-0.152312 -0.218818,-0.312475 -0.342889,-0.456935 -0.433515,-0.504756 -0.987057,-0.885087 -1.4516,-1.357606 -0.424529,-0.565489 -1.224248,0.03489 -0.799718,0.600374 z" />
    <path
       style="fill:#00ff00;stroke-width:0.264583"
       id="path1847"
       d="m 72.796838,45.435713 c 0.201036,-0.536298 0.356241,-1.1839 -0.03241,-1.690008 -0.325718,-0.424156 -0.553397,-0.403069 -1.030732,-0.534067 -0.38757,0.01093 -0.687536,-0.02289 -1.04965,0.145405 -0.383857,0.178384 -0.64462,0.429553 -0.818017,0.820375 -0.223602,0.50397 -0.14555,0.714719 -0.111747,1.24347 0.07937,0.201422 0.125941,0.419089 0.238104,0.604266 0.343908,0.567793 0.973627,0.963041 1.649835,0.93953 0.214903,-0.0075 0.434981,-0.05233 0.62819,-0.146725 0.211444,-0.103298 0.371898,-0.288464 0.557848,-0.432697 0.125507,-0.201763 0.280072,-0.38813 0.376523,-0.605289 0.305721,-0.68833 0.321614,-1.504853 -0.320633,-2.028384 -0.536474,-0.437308 -0.966634,-0.353851 -1.597395,-0.380179 -0.707086,-0.0055 -0.714851,0.994478 -0.0078,0.999971 v 0 c 0.313571,-0.01532 0.549664,-0.06162 0.848974,0.03457 0.08116,0.02609 0.17563,0.05541 0.222025,0.126929 0.139594,0.215193 0.05704,0.542401 -0.01312,0.750387 -0.042,0.124489 -0.115107,0.23621 -0.17266,0.354314 -0.05977,0.074 -0.105074,0.162539 -0.179318,0.222012 -0.341585,0.273617 -0.838248,0.07173 -1.076603,-0.235844 -0.06959,-0.0898 -0.105921,-0.201025 -0.158882,-0.301535 -0.01857,-0.112212 -0.05146,-0.222975 -0.05574,-0.336632 -0.0056,-0.149939 0.03039,-0.375846 0.116212,-0.510477 0.161947,-0.25406 0.451938,-0.254365 0.718119,-0.284845 0.0154,7.94e-4 0.310378,0.0075 0.355119,0.02798 0.271674,0.124127 0.06015,0.618712 5e-6,0.811138 -0.287327,0.646097 0.626396,1.052439 0.91372,0.40634 z" />
    <path
       style="fill:#00ff00;stroke-width:0.264583"
       id="path1849"
       d="m 72.553099,36.922506 c 0.109006,-0.43134 0.190926,-0.901571 0.07832,-1.342435 -0.0322,-0.126048 -0.06736,-0.256545 -0.140552,-0.364091 -0.08793,-0.129196 -0.221552,-0.220472 -0.332327,-0.330708 -0.175697,-0.03485 -0.349854,-0.130471 -0.527087,-0.104555 -0.445892,0.0652 -0.703655,0.388752 -0.888066,0.760899 -0.17434,0.351819 -0.272315,0.901105 -0.305081,1.284624 -0.01971,0.230772 -0.0094,0.463129 -0.01413,0.694692 0.151845,1.737009 -0.03742,-0.315515 0.14259,1.319012 0.03954,0.358994 0.127968,0.917398 -0.111237,1.242877 -0.0434,0.05905 -0.11993,0.08424 -0.179895,0.126355 -0.07294,0.01635 -0.144079,0.04761 -0.218813,0.04904 -0.191564,0.0037 -0.409551,-0.08349 -0.572138,-0.168291 -0.225359,-0.117546 -0.395697,-0.245525 -0.574193,-0.42351 -0.05801,-0.05784 -0.105495,-0.125339 -0.158242,-0.188008 -0.01572,-0.03471 -0.05778,-0.06752 -0.04718,-0.104114 0.0024,-0.0079 0.106389,0.128765 0.110304,0.126627 0.07493,-0.04088 0.115467,-0.125859 0.176501,-0.185536 0.316172,-0.309129 0.382384,-0.35496 0.730287,-0.652134 0.454764,-0.352171 0.239536,-0.196663 0.641255,-0.472597 0.581909,-0.401724 0.01378,-1.224669 -0.568124,-0.822944 v 0 c -0.459602,0.318659 -0.217075,0.141833 -0.723551,0.535969 -0.287742,0.246949 -0.57097,0.476668 -0.832069,0.752774 -0.230045,0.243269 -0.430795,0.472147 -0.475448,0.825212 -0.03596,0.284348 0.10541,0.442135 0.237728,0.657839 0.08831,0.09742 0.168769,0.202573 0.264924,0.292256 0.567878,0.529669 1.38171,0.958726 2.182186,0.746323 0.198829,-0.05276 0.366979,-0.185994 0.550471,-0.278992 0.132543,-0.159872 0.296042,-0.298493 0.397631,-0.479621 0.09257,-0.165044 0.139227,-0.354314 0.17439,-0.540253 0.147815,-0.781619 -0.123243,-1.565404 -0.147476,-2.343962 0.0035,-0.510249 -0.01963,-0.592582 0.07357,-1.085937 0.02511,-0.13285 0.06513,-0.262509 0.102743,-0.392369 0.01932,-0.06667 0.06374,-0.127553 0.06793,-0.196837 0.0042,-0.07 -0.127897,-0.104209 -0.11313,-0.177364 0.0068,-0.02127 2.64e-4,-0.07347 0.02048,-0.06378 0.08008,0.03858 0.1012,0.285988 0.10388,0.317957 0.02029,0.241811 -0.02723,0.478372 -0.08798,0.710899 -0.194234,0.679907 0.767302,0.954593 0.961532,0.274685 z" />
    <path
       style="fill:#00ff00;stroke-width:0.264583"
       id="path1851"
       d="m 67.260736,35.857317 c -0.116189,0.521497 -0.238365,1.043215 -0.313629,1.572665 -0.0149,0.104868 -0.02363,0.210526 -0.03543,0.315788 -0.07726,0.702874 0.91675,0.812139 0.994013,0.109265 v 0 c 0.06278,-0.585494 0.189106,-1.160674 0.319736,-1.734338 0.186235,-0.682141 -0.778457,-0.945521 -0.964695,-0.26338 z" />
    <path
       style="fill:#00ff00;stroke-width:0.264583"
       id="path1853"
       d="m 66.049172,37.178646 c 0.669483,0.08 1.320602,0.265065 1.963418,0.462294 0.676137,0.206972 0.968843,-0.749229 0.292705,-0.956205 v 0 c -0.737018,-0.225128 -1.48545,-0.438716 -2.256123,-0.506089 -0.707107,0 -0.707107,1 0,1 z" />
    <path
       style="fill:#00ff00;stroke-width:0.264583"
       id="path1863"
       d="m 78.445962,46.882841 c -0.07411,-0.127469 -0.137713,-0.261665 -0.222348,-0.382403 -0.45965,-0.655722 -1.047482,-1.264097 -1.80345,-1.575067 -0.280035,-0.115194 -0.578821,-0.213061 -0.881562,-0.219213 -0.332563,-0.0067 -0.654183,0.120912 -0.981271,0.181367 -0.302067,0.213254 -0.643618,0.379428 -0.906198,0.63976 -0.57993,0.574971 -1.001448,1.412729 -1.23385,2.181982 -0.255122,0.84446 -0.341588,1.723831 -0.191154,2.597692 0.06829,0.396695 0.241896,0.76786 0.362845,1.151789 0.241104,0.323869 0.436097,0.687827 0.723315,0.971601 1.102085,1.088871 2.912393,1.404519 4.339854,0.831569 0.36529,-0.146619 0.679511,-0.397489 1.019268,-0.596236 0.280281,-0.297635 0.6022,-0.560951 0.840843,-0.892905 0.43556,-0.605859 0.839745,-1.547315 0.915496,-2.298478 0.08428,-0.83576 -0.07982,-1.746678 -0.538076,-2.463906 -0.241215,-0.377528 -0.608557,-0.657656 -0.912833,-0.986485 -0.435769,-0.220837 -0.841825,-0.514218 -1.307304,-0.662512 -1.012663,-0.322619 -2.150385,-0.318238 -3.180709,-0.105425 -0.501595,0.103602 -0.989756,0.277886 -1.457413,0.486764 -0.395618,0.176705 -0.745199,0.442301 -1.117798,0.663451 -0.604896,0.366199 -0.08701,1.22165 0.517885,0.855448 v 0 c 0.308284,-0.191053 0.596413,-0.419314 0.924851,-0.573162 1.194956,-0.559744 2.588739,-0.775591 3.879741,-0.425894 0.361085,0.09781 0.682797,0.305911 1.024197,0.458867 0.23623,0.226414 0.518205,0.413192 0.708692,0.679241 0.183718,0.256598 0.312271,0.556059 0.393996,0.860877 0.188936,0.704705 0.10927,1.262534 -0.138308,1.938531 -0.115327,0.314891 -0.265494,0.619998 -0.451477,0.899043 -0.175065,0.262665 -0.415359,0.47543 -0.623041,0.713145 -0.247621,0.160025 -0.473967,0.359164 -0.74286,0.480076 -0.784236,0.352647 -1.804033,0.335431 -2.587128,-0.01262 -0.261337,-0.116152 -0.506378,-0.276238 -0.720481,-0.465838 -0.217985,-0.193038 -0.374222,-0.446186 -0.56133,-0.669277 -0.104587,-0.297699 -0.25246,-0.58357 -0.313761,-0.893091 -0.261954,-1.322641 0.158893,-2.906516 1.034989,-3.930652 0.151913,-0.177583 0.352488,-0.30693 0.528733,-0.460396 0.177731,-0.05939 0.34613,-0.167024 0.533191,-0.178173 0.203403,-0.01212 0.409789,0.04073 0.601218,0.110561 0.604805,0.220604 1.071014,0.705157 1.438783,1.214295 0.06853,0.09487 0.119806,0.201083 0.179707,0.301622 0.301191,0.639754 1.205939,0.213807 0.904748,-0.425947 z" />
    <path
       style="fill:#00ff00;stroke-width:0.264583"
       id="path1865"
       d="m 72.279372,49.800409 c -0.04232,-0.07471 -0.07551,-0.155379 -0.126966,-0.22411 -0.260427,-0.347851 -0.611918,-0.589391 -1.037474,-0.69251 -0.151908,-0.03681 -0.310258,-0.06073 -0.466209,-0.05024 -0.16973,0.0114 -0.331475,0.07668 -0.497213,0.115015 -0.148259,0.109209 -0.319833,0.192362 -0.444775,0.327628 -0.480274,0.51997 -0.668438,1.527453 -0.393144,2.181656 0.07549,0.179393 0.213407,0.325546 0.320111,0.48832 0.171731,0.10722 0.324271,0.254294 0.515186,0.32166 0.584692,0.206316 1.244992,-0.0013 1.663859,-0.438071 0.382336,-0.398767 0.366398,-0.593815 0.506656,-1.106421 0.0019,-0.191442 0.02928,-0.384368 0.0054,-0.574323 -0.06886,-0.547876 -0.372567,-1.146382 -0.965472,-1.28269 -0.208632,-0.04796 -0.4278,0.0173 -0.641699,0.02598 -0.697953,0.113411 -0.537565,1.100466 0.160387,0.987052 v 0 c 0.04034,-0.04175 0.116108,-0.155067 0.203349,-0.116438 0.05995,0.02655 0.10759,0.08048 0.141568,0.136552 0.133244,0.219884 0.106854,0.347604 0.121795,0.600236 -0.01431,0.100941 -0.0141,0.205044 -0.04296,0.302824 -0.09022,0.305649 -0.363093,0.573323 -0.695372,0.576104 -0.05848,5.29e-4 -0.114983,-0.02143 -0.172474,-0.03216 -0.05112,-0.04782 -0.117023,-0.08363 -0.153358,-0.143465 -0.202676,-0.333764 -0.07781,-0.844309 0.08151,-1.171488 0.02148,-0.0441 0.05146,-0.0835 0.0772,-0.125256 0.04547,-0.02513 0.08561,-0.06454 0.136422,-0.07538 0.07099,-0.01514 0.145721,-0.009 0.217765,-1.65e-4 0.226348,0.02791 0.434057,0.149313 0.557448,0.341152 0.262657,0.656513 1.191109,0.285059 0.928452,-0.371454 z" />
    <path
       style="fill:#ff0000;stroke-width:0.264583"
       id="path1873"
       d="m 150.93852,40.362563 c 0.77124,-1.875705 1.61384,-3.720948 2.37601,-5.600721 0.23634,-0.58288 0.46208,-1.17 0.69312,-1.755001 0.48184,-1.377094 0.60288,-1.64075 0.96832,-2.961846 0.0752,-0.27172 0.13754,-0.546883 0.19896,-0.822034 0.0182,-0.08142 0.12294,-0.25291 0.0397,-0.247115 -1.37345,0.09562 -1.03249,0.293612 -1.07816,1.423888 -0.0197,1.928039 0.17504,3.853604 0.52324,5.748988 0.2167,1.179555 0.49771,2.383925 0.91066,3.514413 0.13143,0.359796 0.31354,0.698997 0.47031,1.048493 0.17557,0.175329 0.28021,0.497631 0.52671,0.525987 1.13972,0.131106 1.26406,-0.73432 1.47203,-1.55996 0.13448,-0.533884 0.19923,-1.083278 0.27579,-1.628486 0.18732,-1.334039 0.30356,-2.754209 0.42858,-4.093338 0.10645,-1.425245 0.17089,-2.005216 0.20246,-3.36463 0.007,-0.301979 -0.004,-0.60411 -0.006,-0.906164 -0.005,-0.707091 -1.00477,-0.70032 -0.99998,0.0068 v 0 c 0.002,0.286081 0.0129,0.572228 0.006,0.858242 -0.0306,1.338154 -0.094,1.906047 -0.19899,3.312888 -0.12944,1.388364 -0.23057,2.642802 -0.4193,4.021854 -0.0687,0.501981 -0.15464,1.00158 -0.24555,1.500018 -0.0477,0.261393 -0.20545,0.515414 -0.1701,0.778759 0.0202,0.150688 0.27692,0.180276 0.31847,0.32653 0.0309,0.108614 -0.1866,-0.12718 -0.27991,-0.190772 -0.14212,-0.31096 -0.30829,-0.612021 -0.42638,-0.932884 -0.39983,-1.086419 -0.66729,-2.232761 -0.87696,-3.367783 -0.33853,-1.832637 -0.52956,-3.694633 -0.5127,-5.559223 0.0471,-1.205868 0.35245,-1.100179 -0.90949,-1.615197 -0.0512,-0.0209 -0.0114,0.11029 -0.0234,0.164274 -0.0576,0.258003 -0.11498,0.51626 -0.18525,0.771091 -0.35417,1.284275 -0.47076,1.536854 -0.94002,2.879953 -0.22871,0.579259 -0.45214,1.160628 -0.68613,1.737777 -0.76506,1.88712 -1.61172,3.739219 -2.38486,5.622684 -0.25635,0.659001 0.67561,1.021543 0.93197,0.362546 z" />
    <path
       style="fill:#ff0000;stroke-width:0.264583"
       id="path1875"
       d="m 162.96949,40.197858 c 0.0178,-0.13343 0.0469,-0.265832 0.0535,-0.400288 0.0444,-0.916731 -0.1771,-1.976647 -0.91087,-2.602987 -0.19444,-0.165968 -0.44409,-0.25335 -0.66614,-0.380025 -0.26847,-0.01444 -0.54062,-0.08989 -0.80543,-0.04333 -1.20953,0.212645 -1.84087,1.57569 -1.73621,2.695068 0.0272,0.290664 0.15236,0.563634 0.22855,0.845453 0.17313,0.22457 0.30446,0.488743 0.51939,0.673711 0.71823,0.618127 1.63203,0.531394 2.37636,0.01609 0.64065,-0.44351 0.7909,-0.837713 1.18989,-1.481661 0.34624,-0.755449 0.55224,-1.55398 0.6097,-2.381858 0.006,-0.09154 0.0571,-0.939686 -0.29569,-0.836618 -0.34431,0.100593 -0.50795,0.506618 -0.76193,0.759928 0.0127,0.654249 0.0502,1.323668 0.22084,1.959459 0.0447,0.166558 0.0809,0.343593 0.17901,0.485394 0.10457,0.151093 0.27408,0.244832 0.41111,0.367247 0.60983,0.357929 1.11601,-0.504497 0.50619,-0.862422 v 0 c 0.005,0.04504 0.0399,0.173431 0.0156,0.13513 -0.14552,-0.229645 -0.20468,-0.644805 -0.24099,-0.878059 -0.0843,-0.541338 -0.0735,-0.627843 -0.0934,-1.150498 -1.69339,0.135591 -0.0843,0.22879 -0.94208,-0.352012 -0.0734,-0.0497 0.0122,0.177335 0.007,0.265821 -0.0401,0.682834 -0.20358,1.344816 -0.47286,1.973916 -0.33756,0.58706 -0.55094,1.070237 -1.20552,1.36539 -0.1151,0.0519 -0.24067,0.100129 -0.36679,0.09446 -0.35434,-0.01593 -0.46893,-0.219925 -0.69966,-0.446051 -0.0619,-0.16946 -0.15614,-0.330409 -0.18576,-0.508378 -0.1002,-0.602073 0.14008,-1.480595 0.75523,-1.739681 0.10523,-0.04432 0.22435,-0.04262 0.33652,-0.06392 0.11873,0.04546 0.25278,0.06242 0.35618,0.136388 0.62719,0.448659 0.73218,1.3874 0.65357,2.090949 -0.18624,0.68214 0.77845,0.94552 0.96469,0.263379 z" />
    <path
       style="fill:#ff0000;stroke-width:0.264583"
       id="path1877"
       d="m 164.37935,30.090096 c 0.11514,0.692609 0.25413,1.380945 0.38913,2.069861 0.0859,0.438346 0.16118,0.874823 0.29777,1.300456 0.21422,0.104799 0.42845,0.209599 0.64268,0.314399 0.67695,-0.204278 0.38806,-1.161639 -0.2889,-0.957361 v 0 c 0.19851,0.109543 0.39702,0.219087 0.59553,0.32863 -0.13158,-0.377704 -0.18936,-0.788646 -0.26578,-1.17861 -0.13318,-0.679576 -0.27041,-1.358559 -0.38404,-2.041775 -0.11625,-0.697485 -1.10264,-0.533086 -0.98639,0.1644 z" />
    <path
       style="fill:#ff0000;stroke-width:0.264583"
       id="path1879"
       d="m 163.56821,32.498626 c 0.97909,-0.008 1.94594,-0.180011 2.9121,-0.319789 0.69982,-0.101246 0.55664,-1.090942 -0.14318,-0.989696 v 0 c -0.9007,0.130308 -1.80139,0.29049 -2.71343,0.311026 -0.70601,-0.03924 -0.76151,0.959218 -0.0555,0.998459 z" />
    <path
       style="fill:#ff0000;stroke-width:0.264583"
       id="path1885"
       d="m 161.66053,22.840509 c -0.18689,-0.07956 -0.36854,-0.172764 -0.56067,-0.238674 -0.71274,-0.244506 -1.54698,-0.459604 -2.29424,-0.513455 -1.18679,-0.08553 -2.31334,0.02746 -3.46237,0.358437 -0.69424,0.199979 -1.35076,0.513139 -2.02614,0.769708 -0.69058,0.391076 -1.41279,0.730936 -2.07174,1.173228 -1.48149,0.994385 -2.68628,2.103314 -3.8275,3.475916 -0.55265,0.66469 -1.07246,1.361951 -1.51675,2.103456 -1.17908,1.967819 -1.24904,2.643749 -1.91121,4.791514 -0.0998,0.806011 -0.27876,1.606128 -0.29952,2.418035 -0.0615,2.404935 0.617,4.692866 1.95621,6.688891 1.2157,1.811943 1.77287,2.067232 3.44289,3.449939 0.71194,0.410874 1.39255,0.881618 2.13584,1.23262 2.37211,1.120164 5.01109,1.618731 7.62609,1.587248 0.90789,-0.01093 1.81861,-0.07743 2.71462,-0.22421 0.88682,-0.145275 1.74441,-0.432745 2.61662,-0.649116 0.79118,-0.352655 1.62026,-0.630285 2.37353,-1.05796 2.07895,-1.180333 3.80108,-2.920222 4.6852,-5.168651 0.76741,-1.951601 0.63953,-2.822488 0.75208,-4.907558 -0.10907,-0.92583 -0.14839,-1.862567 -0.32719,-2.777491 -0.39585,-2.025535 -1.02315,-3.773888 -2.0119,-5.588617 -0.46757,-0.858171 -0.98237,-1.699038 -1.59782,-2.458185 -1.63329,-2.014652 -2.381,-2.294442 -4.48102,-3.705305 -0.86363,-0.351268 -1.69837,-0.784257 -2.5909,-1.053806 -1.75266,-0.52932 -3.47261,-0.673574 -5.2919,-0.621239 -1.86478,0.05364 -2.67066,0.27856 -4.42982,0.622763 -0.69378,0.13659 -0.50062,1.117756 0.19317,0.981166 v 0 c 1.675,-0.331899 2.43062,-0.544995 4.20579,-0.604405 1.69884,-0.05686 3.3093,0.06749 4.9495,0.54944 0.82918,0.24364 1.60615,0.638651 2.40923,0.957977 1.9436,1.286627 2.68544,1.571975 4.19859,3.420057 0.58702,0.716956 1.07773,1.512751 1.52446,2.324566 0.95081,1.727799 1.5426,3.364523 1.92979,5.295131 0.17224,0.858793 0.21418,1.738645 0.32126,2.607968 -0.0866,1.892631 0.0337,2.714324 -0.63545,4.486537 -0.77747,2.059086 -2.32708,3.64031 -4.21292,4.727501 -0.69967,0.40336 -1.4712,0.666742 -2.2068,1.000112 -0.81921,0.207552 -1.62421,0.482687 -2.45764,0.62266 -0.8491,0.142605 -1.71252,0.208489 -2.5734,0.222295 -2.46039,0.03946 -4.94758,-0.415232 -7.18578,-1.456405 -0.69499,-0.323299 -1.33224,-0.758473 -1.99836,-1.137711 -1.55447,-1.266875 -2.06055,-1.490622 -3.19903,-3.154645 -1.23881,-1.810644 -1.88283,-3.895154 -1.84214,-6.091804 0.014,-0.753492 0.17537,-1.497006 0.26305,-2.245508 0.60612,-2.001718 0.6779,-2.665544 1.76704,-4.500375 0.41813,-0.704402 0.90885,-1.366558 1.42999,-1.998561 1.0736,-1.301992 2.20123,-2.348574 3.59696,-3.295263 0.61528,-0.417337 1.29024,-0.739113 1.93536,-1.108669 0.6188,-0.240407 1.22013,-0.531863 1.85642,-0.72122 1.01731,-0.302749 2.05368,-0.422277 3.11022,-0.3539 0.66011,0.04272 1.43341,0.233876 2.06742,0.447621 0.17277,0.05824 0.33599,0.141686 0.50398,0.21253 0.63257,0.316008 1.07947,-0.578575 0.4469,-0.894583 z" />
    <path
       style="fill:#00ff00;stroke-width:0.264583"
       id="path1921"
       d="m 160.86115,15.096189 c 0.72316,-1.559823 1.28679,-3.418746 0.60066,-5.1025447 -0.15387,-0.377593 -0.4241,-0.6965197 -0.63616,-1.0447797 -0.33148,-0.2547257 -0.61873,-0.5808581 -0.99445,-0.7641762 -1.34402,-0.6557785 -2.82948,-0.2400234 -3.92482,0.6889685 -1.10457,0.9368204 -1.22062,1.5200741 -1.83839,2.7922701 -0.0983,0.572106 -0.27844,1.136063 -0.29483,1.716317 -0.0158,0.558275 0.0422,1.127654 0.19933,1.663594 0.44677,1.523905 1.669,2.82909 3.23616,3.207482 0.48257,0.116516 0.99183,0.04538 1.48774,0.06807 0.46619,-0.164809 0.972,-0.244378 1.39858,-0.494428 1.39311,-0.816593 2.25791,-2.413489 2.46074,-3.977804 0.0722,-0.557022 0.0983,-1.136856 -0.0249,-1.684871 -0.12624,-0.561726 -0.47193,-1.050321 -0.7079,-1.575481 -1.98176,-1.4417334 -0.90311,-0.9372647 -3.2232,-1.5404264 -0.68737,-0.1658847 -0.92197,0.8062077 -0.2346,0.9720924 v 0 c 1.8376,0.401292 0.98864,0.05971 2.55628,1.001078 0.20326,0.389863 0.49924,0.744047 0.60978,1.16959 0.11754,0.452427 0.10589,0.93614 0.0581,1.40113 -0.12796,1.243799 -0.7845,2.591288 -1.85092,3.300447 -0.30718,0.204275 -0.68015,0.28594 -1.02022,0.428909 -0.37273,0.0038 -0.75194,0.08065 -1.1182,0.01142 -1.23709,-0.233834 -2.25165,-1.239351 -2.6361,-2.418573 -0.3768,-1.155767 -0.1625,-1.65311 0.008,-2.820656 0.20315,-0.442365 0.35342,-0.913089 0.60945,-1.327098 0.59187,-0.9570597 1.59148,-1.8869141 2.78526,-1.9337441 0.79943,-0.03136 0.99722,0.2410087 1.61594,0.6535244 0.16999,0.250894 0.38503,0.476573 0.50995,0.7526837 0.64112,1.417074 0.0886,3.058859 -0.51168,4.382782 -0.33533,0.62254 0.54508,1.096766 0.88041,0.474227 z" />
    <path
       style="fill:#00ff00;stroke-width:0.264583"
       id="path1925"
       d="m 155.49041,9.1812406 c 0.0165,-0.7811647 0.0272,-1.6112891 -0.34892,-2.32423 -0.0926,-0.1756103 -0.20179,-0.3497856 -0.34981,-0.4821135 -0.14822,-0.1325052 -0.34584,-0.1962314 -0.51876,-0.2943468 -0.22956,0.035495 -0.48389,-0.00313 -0.68869,0.1064853 -0.44286,0.2370304 -0.63259,0.786797 -0.73098,1.2285821 -0.10344,0.4644305 -0.10709,1.0876372 -0.0456,1.5560879 0.0328,0.249749 0.1075,0.492175 0.16125,0.7382627 0.099,0.216285 0.17178,0.4465917 0.29695,0.6488567 0.44881,0.725269 1.34105,1.264422 2.18369,0.816661 0.20735,-0.110182 0.35637,-0.305843 0.53456,-0.458764 0.12465,-0.216949 0.27993,-0.418972 0.37394,-0.650848 0.42201,-1.0408864 0.38128,-2.4567409 -0.52801,-3.24789 -0.22035,-0.1917168 -0.51507,-0.2755659 -0.7726,-0.413349 -1.13612,0.049964 -0.62039,-0.1166194 -1.55429,0.4772022 -0.5651,0.4250489 0.036,1.2242154 0.60111,0.7991668 v 0 c 0.29708,-0.3310967 0.11819,-0.2081249 0.53836,-0.3664656 0.13389,0.040666 0.28666,0.042293 0.40168,0.1219996 0.1477,0.1023596 0.26523,0.2494232 0.35711,0.4038621 0.32025,0.5382985 0.26026,1.1828115 0.0746,1.7542722 -0.0464,0.142696 -0.1276,0.271594 -0.1914,0.4073917 -0.0644,0.08731 -0.19354,0.308737 -0.32797,0.349916 -0.31538,0.09661 -0.63161,-0.195344 -0.7888,-0.4248867 -0.0929,-0.135678 -0.14933,-0.293029 -0.224,-0.439544 -0.0459,-0.1908817 -0.10886,-0.3784597 -0.13781,-0.5726454 -0.0615,-0.412428 -0.0527,-0.7993493 0.005,-1.2101766 0.0188,-0.1348922 0.0605,-0.2656064 0.0895,-0.3986622 0.0133,-0.061046 0.0441,-0.1214628 0.0377,-0.183623 -0.005,-0.048178 -0.0465,-0.084993 -0.0697,-0.1274894 0.20409,-0.0073 0.18429,-0.041277 0.34214,0.226459 0.33152,0.5623157 0.28394,1.2515972 0.28362,1.8767029 -0.0588,0.7046587 0.93776,0.7877847 0.99654,0.08313 z" />
    <path
       style="fill:#00ff00;stroke-width:0.264583"
       id="path1927"
       d="m 162.90624,8.2026721 c -0.66406,-0.3465586 -1.24089,-0.3182649 -1.67687,0.3762018 -0.21848,0.348011 -0.21294,0.6624387 -0.26306,1.0551084 0.0146,0.6663317 0.0414,1.5377827 0.7549,1.8740537 0.18032,0.08498 0.38858,0.124673 0.5875,0.111686 0.20593,-0.01345 0.39314,-0.125697 0.58971,-0.188546 0.16463,-0.135084 0.34903,-0.24915 0.49389,-0.405251 0.66563,-0.717324 0.91029,-1.8220084 0.85787,-2.7732345 -0.014,-0.2536303 -0.0759,-0.5023284 -0.11384,-0.7534925 -0.21929,-0.4739376 -0.30069,-0.893259 -0.8495,-1.1147055 -0.54971,-0.2218079 -1.01915,-0.061129 -1.43367,0.3245107 -0.44216,0.4113596 -0.52752,0.8555916 -0.71822,1.3938506 -0.0354,0.2430984 -0.0935,0.4839611 -0.10623,0.7292951 -0.0352,0.6780864 0.11305,1.3784271 0.60067,1.8824141 0.39294,0.406127 0.58115,0.394829 1.09556,0.555071 0.16888,0.0065 0.33777,0.01291 0.50665,0.01937 0.70709,0.0051 0.71431,-0.994865 0.007,-0.999974 v 0 c -0.0861,0.0046 -0.17214,0.0092 -0.25821,0.01384 -0.23796,-0.04022 -0.35428,-0.02825 -0.55148,-0.188643 -0.50493,-0.4106987 -0.42926,-1.1276574 -0.34556,-1.6949321 0.11957,-0.3931315 0.22717,-0.7816123 0.49762,-1.1038475 0.0368,-0.043822 0.0701,-0.111491 0.12721,-0.1152279 0.26976,-0.017658 0.34731,0.295901 0.44098,0.4599601 0.0337,0.1882939 0.0864,0.3741655 0.10118,0.5648812 0.0636,0.8181268 -0.14847,1.6912595 -0.7358,2.2826412 -0.0464,0.03809 -0.0928,0.07612 -0.13915,0.114263 -0.027,0.02223 -0.0471,0.058 -0.0809,0.06687 -0.33562,0.08798 -0.31696,-0.7914157 -0.3338,-0.9510477 0.0594,-0.9019974 -0.0296,0.127142 0.0855,-0.5823427 0.0102,-0.06281 -0.0215,-0.186153 -0.0185,-0.187978 0.0928,-0.05538 0.29168,0.05955 0.3484,0.08328 0.59968,0.374687 1.12957,-0.4733817 0.52989,-0.848068 z" />
    <path
       style="fill:#00ff00;stroke-width:0.264583"
       id="path1931"
       d="m 182.97226,19.924702 c -0.25279,-0.150157 -0.4874,-0.336339 -0.75837,-0.45047 -1.97205,-0.830627 -4.042,-0.372566 -5.64858,1.014294 -0.47825,0.412835 -0.83826,0.945466 -1.25739,1.418199 -0.59336,1.239761 -1.16864,1.995603 -1.04655,3.438174 0.10324,1.219838 0.72224,2.231054 1.65515,2.989935 1.15682,0.941019 1.76609,0.888674 3.16019,1.168386 0.53881,-0.06159 1.09443,-0.03769 1.61642,-0.184777 1.60113,-0.45118 2.70554,-1.574461 3.14619,-3.172737 0.14258,-0.517147 0.21289,-1.062998 0.18465,-1.598695 -0.0282,-0.534918 -0.2344,-1.045365 -0.35159,-1.568048 -0.85324,-1.27637 -0.7861,-1.543012 -2.22929,-2.231452 -0.43768,-0.208785 -0.93101,-0.27176 -1.39651,-0.40764 -0.6817,-0.187828 -0.94734,0.776247 -0.26563,0.964076 v 0 c 0.37504,0.09571 0.76813,0.137581 1.12513,0.287142 1.14532,0.479816 1.0796,0.659963 1.79456,1.623932 0.10947,0.41041 0.29195,0.808039 0.32842,1.231231 0.0375,0.4357 -0.0124,0.880997 -0.10966,1.307352 -0.28957,1.268978 -1.10693,2.174912 -2.35467,2.573115 -0.41887,0.133681 -0.86986,0.128955 -1.3048,0.193431 -1.15761,-0.195775 -1.61876,-0.134601 -2.60247,-0.856882 -0.70161,-0.515151 -1.29349,-1.305978 -1.40327,-2.198756 -0.14696,-1.195166 0.33833,-1.860189 0.8083,-2.901573 0.3516,-0.413517 0.65333,-0.875249 1.05479,-1.240553 1.29593,-1.179214 2.94806,-1.611375 4.59842,-0.981086 0.20474,0.07819 0.38422,0.210938 0.57633,0.316407 0.51832,0.48099 1.19854,-0.252014 0.68023,-0.733005 z" />
    <path
       style="fill:#00ff00;stroke-width:0.264583"
       id="path1933"
       d="m 181.72673,17.266209 c -0.14769,-0.02832 -0.2927,-0.08633 -0.44308,-0.08495 -0.73769,0.0068 -1.24979,0.468718 -1.58268,1.095387 -0.30714,0.578196 -0.32475,0.937771 -0.44285,1.56908 0.003,0.258201 -0.0264,0.518878 0.009,0.774604 0.11981,0.855881 0.57837,1.392329 1.45084,1.552725 0.69837,0.128391 1.00763,-0.05353 1.65651,-0.2539 0.23313,-0.148991 0.49236,-0.26343 0.69938,-0.446972 0.85645,-0.759308 1.16518,-2.078519 0.24389,-2.943224 -0.22199,-0.208353 -0.52808,-0.303138 -0.79212,-0.454707 -1.25838,-0.02734 -0.66521,-0.144561 -1.78473,0.324104 -0.63972,0.301262 -0.21367,1.205962 0.42605,0.9047 v 0 c 0.58009,-0.329918 0.27411,-0.221789 0.91497,-0.332634 0.14322,0.05007 0.301,0.06979 0.42965,0.150208 0.59789,0.37373 0.43682,1.091039 0.006,1.520562 -0.13383,0.133423 -0.30738,0.219908 -0.46107,0.329863 -0.17685,0.06651 -0.34663,0.156238 -0.53055,0.199521 -0.27068,0.0637 -0.90878,0.1262 -1.11083,-0.170474 -0.20199,-0.29657 -0.15858,-0.645785 -0.17279,-0.979437 0.0352,-0.212354 0.0542,-0.428041 0.10564,-0.637062 0.088,-0.357826 0.33006,-1.129368 0.78608,-1.213541 0.0612,-0.01129 0.12424,0.0067 0.18636,0.01004 0.64622,0.287053 1.05217,-0.626841 0.40595,-0.913894 z" />
    <path
       style="fill:#00ff00;stroke-width:0.264583"
       id="path1937"
       d="m 185.00341,25.562601 c -0.68023,0.252756 -1.26746,0.677712 -1.62146,1.324367 -0.24658,0.45041 -0.23329,0.609817 -0.32089,1.105273 -0.0245,0.579548 0.064,1.080061 0.55539,1.460034 0.47496,0.367284 1.04033,0.389398 1.60648,0.41085 0.18698,-0.04457 0.38395,-0.05875 0.56096,-0.133712 0.84524,-0.35795 1.23063,-1.34011 1.19218,-2.209946 -0.0108,-0.244787 -0.0911,-0.481507 -0.13666,-0.722262 -0.16666,-0.216855 -0.28131,-0.48627 -0.49996,-0.650565 -0.52506,-0.394539 -1.0938,-0.404567 -1.70983,-0.334116 -0.25392,0.02904 -0.4969,0.119867 -0.74536,0.1798 -0.68507,0.175165 -0.43734,1.143995 0.24772,0.96883 v 0 c 0.44824,-0.123507 0.99816,-0.327229 1.46579,-0.143761 0.10222,0.04011 0.17677,0.130307 0.26516,0.195461 0.0388,0.141406 0.10252,0.278243 0.11654,0.424214 0.0378,0.393134 -0.0764,1.103971 -0.46392,1.329021 -0.0823,0.04781 -0.17899,0.06488 -0.26848,0.09733 -0.29899,-0.0011 -1.07922,0.02175 -1.17842,-0.38584 -0.0261,-0.107463 -0.013,-0.220816 -0.0195,-0.331224 0.0147,-0.119607 0.016,-0.241643 0.0442,-0.358827 0.15851,-0.660408 0.59126,-1.019321 1.19759,-1.26713 0.67727,-0.203258 0.38981,-1.161055 -0.28745,-0.957794 z" />
    <path
       style="fill:#00ff00;stroke-width:0.264583"
       id="path1939"
       d="m 136.92284,24.113919 c -0.21172,-0.04433 -0.41935,-0.118173 -0.63515,-0.132985 -1.75003,-0.120115 -3.34253,0.807469 -4.51048,2.04791 -0.36757,0.39038 -0.65653,0.847921 -0.9848,1.271881 -0.46832,1.167654 -0.89939,1.774547 -0.70017,3.081735 0.17493,1.147775 0.78975,2.00805 1.71031,2.686973 1.21634,0.897072 1.8455,0.842021 3.28525,1.108951 0.56054,-0.04102 1.13482,0.007 1.68161,-0.123071 2.32199,-0.552265 3.88526,-2.56635 4.10053,-4.906418 0.0552,-0.599905 -0.0679,-1.202967 -0.10182,-1.80445 -0.6002,-1.399527 -0.60031,-2.057712 -2.08565,-2.821699 -1.31163,-0.674636 -2.34264,-0.49291 -3.7282,-0.469175 -0.70686,0.01851 -0.68069,1.018167 0.0262,0.999656 v 0 c 1.06298,-0.03903 2.0488,-0.197138 3.07205,0.246137 1.2043,0.521711 1.19786,1.021445 1.71798,2.113703 0.042,0.502373 0.15881,1.004062 0.12597,1.507115 -0.12356,1.892614 -1.32537,3.642788 -3.20956,4.138541 -0.46236,0.121652 -0.95198,0.08961 -1.42797,0.134411 -1.2347,-0.197316 -1.6916,-0.13053 -2.75303,-0.834549 -0.68843,-0.456623 -1.24876,-1.101519 -1.41445,-1.93602 -0.20772,-1.046181 0.14204,-1.5602 0.49515,-2.514161 0.28469,-0.377105 0.53544,-0.782407 0.85405,-1.131318 0.96103,-1.052433 2.20387,-1.837576 3.66427,-1.812999 0.13623,0.0024 0.26952,0.04018 0.40428,0.06026 0.64377,0.292499 1.05743,-0.617932 0.41365,-0.910432 z" />
    <path
       style="fill:#00ff00;stroke-width:0.264583"
       id="path1943"
       d="m 131.57988,23.360209 c -0.13392,-0.01936 -0.26647,-0.05558 -0.40176,-0.05808 -0.78982,-0.01457 -1.453,0.423509 -1.59009,1.242003 -0.0347,0.207341 0.009,0.42037 0.0131,0.630553 0.0661,0.192003 0.10771,0.394279 0.19832,0.576003 0.31593,0.633563 1.01396,1.166617 1.73472,1.216731 0.1914,0.01331 0.38247,-0.03109 0.5737,-0.04663 0.19215,-0.08958 0.40585,-0.142891 0.57646,-0.268746 0.58773,-0.433557 0.93344,-1.21009 1.03011,-1.914842 0.0325,-0.237001 0.0595,-0.48518 0.003,-0.717654 -0.0598,-0.24656 -0.22813,-0.453261 -0.34219,-0.679891 -0.27583,-0.129021 -0.52773,-0.333467 -0.8275,-0.387062 -0.70703,-0.12641 -1.21458,0.170912 -1.8384,0.413411 -0.65403,0.268782 -0.27392,1.193721 0.38011,0.924939 v 0 c 0.20833,-0.09218 0.40885,-0.204544 0.62498,-0.276548 0.23966,-0.07984 0.55355,-0.111379 0.81348,-0.143669 0.0632,0.05625 0.16203,0.08878 0.18972,0.168761 0.16469,0.475751 -0.15805,1.377255 -0.5008,1.728524 -0.0665,0.06816 -0.15739,0.107254 -0.23608,0.16088 -0.0825,0.01953 -0.16282,0.05478 -0.24752,0.05856 -0.39156,0.01746 -0.80156,-0.276889 -1.00028,-0.595154 -0.0566,-0.09072 -0.0897,-0.194167 -0.1346,-0.291251 -0.0178,-0.08909 -0.0476,-0.176599 -0.0532,-0.267261 -0.0299,-0.479705 0.35255,-0.57955 0.74716,-0.515814 0.67724,0.203331 0.9648,-0.754433 0.28756,-0.957764 z" />
    <path
       style="fill:#00ff00;stroke-width:0.264583"
       id="path1945"
       d="m 131.24787,32.560443 c -0.0742,-0.111429 -0.13226,-0.235518 -0.22264,-0.334287 -0.37183,-0.406324 -0.92471,-0.569532 -1.39999,-0.18247 -0.36975,0.301109 -0.37436,0.666099 -0.46347,1.083823 0.0151,0.200242 0.004,0.404135 0.0454,0.600731 0.16021,0.769133 0.7373,1.404919 1.50401,1.601266 0.17195,0.04404 0.35303,0.03734 0.52955,0.05601 0.46074,-0.122735 0.70686,-0.114052 1.04074,-0.502306 0.49886,-0.580097 0.60675,-1.525895 0.49487,-2.252308 -0.044,-0.285518 -0.16117,-0.554832 -0.24175,-0.832247 -0.19265,-0.229682 -0.33411,-0.514673 -0.57796,-0.689047 -0.48021,-0.343392 -1.08919,-0.416808 -1.64891,-0.287099 -0.22891,0.05305 -0.42725,0.195749 -0.64087,0.293624 -0.62705,0.326813 -0.16487,1.213599 0.46219,0.886783 v 0 c 0.0927,-0.06179 0.17419,-0.145304 0.27816,-0.185367 0.20836,-0.08029 0.60558,-0.125304 0.81997,-0.02392 0.14039,0.06639 0.23542,0.2026 0.35312,0.303901 0.0656,0.189174 0.15942,0.370805 0.19664,0.567523 0.0725,0.383299 0.0652,1.082934 -0.13512,1.449507 -0.0881,0.161229 -0.1876,0.190915 -0.3353,0.273126 -0.0819,0.0016 -0.16477,0.01712 -0.24581,0.0049 -0.58194,-0.08776 -0.85442,-0.552146 -0.91348,-1.095092 0.003,-0.02973 0.0476,-0.336457 0.0122,-0.408466 -0.0182,-0.03714 -0.19569,-0.128712 -0.0684,-0.14043 0.11043,-0.01016 0.2044,0.167613 0.24301,0.217955 0.28715,0.646174 1.20098,0.240073 0.91382,-0.406101 z" />
    <path
       style="fill:#00ff00;stroke-width:0.264583"
       id="path1951"
       d="m 148.25248,50.958282 c -0.80238,-0.37261 -1.63697,-0.694153 -2.50407,-0.882301 -0.68524,-0.14869 -1.40954,-0.269348 -2.10539,-0.06162 -0.37274,0.111271 -0.69421,0.351205 -1.04131,0.526807 -0.29821,0.321895 -0.64196,0.606938 -0.89464,0.965687 -1.10269,1.565552 -1.51068,3.821154 -0.88355,5.649396 0.16632,0.484868 0.46565,0.913352 0.69847,1.370028 0.34516,0.36498 0.63191,0.79579 1.03547,1.094934 1.36114,1.008983 3.0202,1.063516 4.52311,0.333406 1.3408,-0.651361 1.55806,-1.189011 2.45434,-2.319753 0.4611,-1.223364 0.93607,-1.917303 0.62119,-3.27747 -0.29778,-1.286296 -1.11185,-2.115111 -2.24631,-2.72978 -1.25178,-0.678246 -2.33881,-0.733595 -3.69488,-0.940927 -0.69943,-0.103873 -0.84633,0.88528 -0.14689,0.989152 v 0 c 1.19643,0.171876 2.12369,0.214961 3.24207,0.751996 0.83499,0.400953 1.58003,1.011473 1.84609,1.942047 0.30722,1.074547 -0.0735,1.662806 -0.41223,2.653118 -0.72477,0.964821 -0.87927,1.39311 -1.96737,1.97894 -1.10861,0.596876 -2.43827,0.656482 -3.50188,-0.07755 -0.3361,-0.231957 -0.57874,-0.576315 -0.86812,-0.864473 -0.2006,-0.365442 -0.45779,-0.705109 -0.60179,-1.096327 -0.1451,-0.394206 -0.21917,-0.815473 -0.25592,-1.233924 -0.11004,-1.253107 0.23035,-2.504774 0.90686,-3.559871 0.17589,-0.27432 0.4171,-0.500788 0.62565,-0.751179 0.22444,-0.136839 0.42532,-0.323389 0.67333,-0.410517 0.56962,-0.200104 1.1605,-0.08892 1.72639,0.03149 0.78711,0.167484 1.54393,0.45765 2.2754,0.787024 0.614,0.350714 1.10999,-0.51762 0.49598,-0.868333 z" />
    <path
       style="fill:#00ff00;stroke-width:0.264583"
       id="path1955"
       d="m 140.76012,57.997529 c -0.009,-0.287848 0.003,-0.575026 -0.0953,-0.853249 -0.15817,-0.448336 -0.53916,-0.949341 -1.07402,-0.95278 -0.20858,-0.0013 -0.40189,0.111905 -0.60284,0.167859 -0.14955,0.158311 -0.32889,0.293042 -0.44866,0.474933 -0.1241,0.18847 -0.20392,0.404759 -0.27221,0.619836 -0.20733,0.652939 -0.19349,1.358075 0.0486,1.999726 0.074,0.196133 0.19251,0.372444 0.28877,0.558668 0.41417,0.57118 0.90919,1.164831 1.67974,1.19742 0.60762,0.02569 0.79479,-0.143762 1.32758,-0.395071 0.19919,-0.196509 0.42968,-0.365686 0.59758,-0.589526 0.71821,-0.957503 0.84854,-2.391466 -0.39191,-3.015575 -0.27399,-0.137856 -0.59989,-0.128233 -0.89983,-0.192352 -0.26526,0.04204 -0.53052,0.08408 -0.79578,0.126126 -0.69398,0.135591 -0.50223,1.117034 0.19176,0.981443 v 0 c 0.15213,-0.03951 0.30426,-0.07902 0.45639,-0.118525 0.2715,0.006 0.57682,-0.04551 0.8045,0.163375 0.40191,0.368731 0.13957,1.000469 -0.0916,1.368332 -0.0894,0.142237 -0.21644,0.256987 -0.32466,0.385482 -0.26173,0.150254 -0.60101,0.391729 -0.93209,0.293532 -0.33097,-0.09817 -0.53005,-0.442942 -0.74279,-0.681726 -0.0681,-0.116493 -0.15045,-0.225724 -0.20419,-0.34948 -0.275,-0.633331 -0.16422,-1.310389 0.12261,-1.91625 -0.0528,-0.346763 0.23949,-0.03152 0.28279,0.07221 0.0372,0.08909 0.0498,0.187045 0.0632,0.282644 0.0132,0.09346 0.0109,0.188447 0.0164,0.282673 -0.0638,0.704218 0.93208,0.794499 0.99592,0.09028 z" />
    <path
       style="fill:#00ff00;stroke-width:0.264583"
       id="path1957"
       d="m 147.01204,61.456771 c -0.0463,-0.145841 -0.0769,-0.297656 -0.13902,-0.437525 -0.29168,-0.657162 -0.9586,-1.267114 -1.73009,-0.903269 -0.20308,0.09577 -0.34154,0.291534 -0.51231,0.4373 -0.10682,0.184571 -0.23926,0.356521 -0.32045,0.55371 -0.32003,0.77729 -0.37594,1.954755 0.30605,2.576748 0.16774,0.152979 0.39877,0.217122 0.59816,0.325683 0.23962,-0.01543 0.49068,0.02854 0.71886,-0.04624 1.00893,-0.330647 1.56196,-1.708848 1.5904,-2.676406 0.007,-0.25028 -0.0577,-0.49744 -0.0866,-0.746159 -0.42999,-0.621808 -0.3927,-0.867643 -1.32136,-0.820486 -0.30154,0.01532 -0.57229,0.192669 -0.85843,0.289004 -0.65844,0.257784 -0.29388,1.188963 0.36456,0.93118 v 0 c 0.1484,-0.07379 0.30236,-0.137308 0.44518,-0.221369 0.0673,-0.03963 0.10419,-0.140208 0.18195,-0.147735 0.0754,-0.0073 0.13211,0.07396 0.19816,0.110942 0.0288,0.154702 0.0843,0.306755 0.0865,0.4641 0.008,0.568034 -0.20269,1.153687 -0.54325,1.605304 -0.11771,0.156107 -0.23768,0.230508 -0.38618,0.336947 -0.0635,-0.0027 -0.13418,0.02156 -0.19037,-0.008 -0.45724,-0.240933 -0.34926,-1.108329 -0.22301,-1.499574 0.037,-0.114694 0.10244,-0.218175 0.15367,-0.327263 0.0321,-0.06101 0.0705,-0.119092 0.0963,-0.183036 0.0129,-0.032 -0.009,-0.08087 0.0186,-0.101846 0.2118,-0.162124 0.5154,0.453231 0.55772,0.587605 0.0704,0.703593 1.06544,0.604012 0.99503,-0.09958 z" />
    <path
       style="fill:#00ff00;stroke-width:0.264583"
       id="path1959"
       d="m 177.90857,52.598854 c -0.01,-0.342136 0.007,-0.619183 -0.11698,-0.952982 -0.2603,-0.699579 -0.80942,-1.29055 -1.49744,-1.589468 -0.27424,-0.119147 -0.57587,-0.161192 -0.86381,-0.241787 -0.33575,0.02193 -0.67922,-0.009 -1.00725,0.06583 -1.19703,0.273116 -2.25961,1.137473 -2.92018,2.150703 -0.23883,0.366337 -0.46666,0.757113 -0.56836,1.182439 -0.11024,0.461026 -0.0361,0.947359 -0.0542,1.42104 0.17012,0.455697 0.25057,0.95586 0.51035,1.367091 1.21909,1.929784 3.87974,2.535317 5.91919,1.654961 0.52249,-0.225539 0.94744,-0.630714 1.42116,-0.946071 0.73602,-1.077857 1.38382,-1.635863 1.30057,-3.057572 -0.1139,-1.944997 -1.68835,-3.560932 -3.49713,-4.077973 -0.62401,-0.178371 -1.2933,-0.110371 -1.93995,-0.165558 -0.57707,0.146633 -1.15414,0.293267 -1.73122,0.439902 -0.68261,0.184481 -0.42172,1.149847 0.2609,0.965367 v 0 c 0.46806,-0.135819 0.93612,-0.27164 1.40418,-0.407459 0.52289,0.02233 1.05975,-0.05513 1.56866,0.067 1.03253,0.24779 1.87636,0.856567 2.45203,1.742797 0.24576,0.37833 0.44412,0.810445 0.49843,1.258305 0.13149,1.084279 -0.36524,1.562955 -0.88642,2.413511 -0.36402,0.265729 -0.68519,0.603324 -1.09205,0.797187 -1.56677,0.746538 -3.70429,0.394906 -4.75077,-1.058021 -0.2104,-0.292121 -0.29197,-0.658154 -0.43795,-0.987229 -0.013,-0.335209 -0.1043,-0.676574 -0.039,-1.005629 0.0684,-0.344956 0.24471,-0.66444 0.42957,-0.963604 0.50493,-0.817126 1.31603,-1.51846 2.24629,-1.795621 0.21491,-0.06403 0.44425,-0.06155 0.66638,-0.09233 0.1985,0.04328 0.40484,0.05971 0.59551,0.129852 0.42718,0.157158 0.85234,0.519012 1.03509,0.943552 0.0905,0.210272 0.0869,0.4113 0.10055,0.63119 -0.0782,0.70277 0.91568,0.813345 0.99387,0.110575 z" />
    <path
       style="fill:#00ff00;stroke-width:0.264583"
       id="path1961"
       d="m 173.50327,57.620145 c 0.0917,-0.504621 0.0221,-1.265647 -0.65016,-1.350163 -0.48506,-0.06098 -0.61854,0.21863 -0.88923,0.510662 -0.0655,0.160485 -0.15184,0.313967 -0.19648,0.481457 -0.18349,0.688419 -0.0147,1.512805 0.53959,1.993696 0.1332,0.115554 0.30204,0.18207 0.45307,0.273103 0.19248,0.01384 0.38731,0.07447 0.57744,0.04148 0.86282,-0.149698 1.20897,-1.181925 1.18772,-1.940885 -0.006,-0.208119 -0.0682,-0.410776 -0.10232,-0.616164 -0.10405,-0.174067 -0.16552,-0.382117 -0.31216,-0.5222 -0.54822,-0.523714 -1.32235,-0.383771 -1.85697,0.0714 -0.41549,0.353734 -0.47819,0.626186 -0.68382,1.092681 -0.26869,0.654071 0.65631,1.03405 0.92499,0.379979 v 0 c 0.14789,-0.40921 0.18564,-0.552527 0.53309,-0.83166 0.0128,-0.01032 0.20476,-0.164637 0.26115,-0.142282 0.0661,0.02619 0.10212,0.0989 0.15318,0.148357 0.029,0.109816 0.078,0.216226 0.087,0.329444 0.0275,0.345651 -0.056,0.838745 -0.30594,1.103659 -0.0568,-0.01762 -0.11975,-0.02167 -0.17039,-0.05286 -0.40601,-0.250002 -0.40464,-0.796438 -0.2967,-1.199219 0.005,-0.03203 0.0384,-0.0733 0.0154,-0.09608 -0.2904,-0.286562 -0.0728,0.244102 -0.30014,-0.233635 -0.006,-0.0132 0.0352,-0.01617 0.0437,-0.0042 0.0243,0.03429 0.0369,0.07809 0.0384,0.120086 0.003,0.07588 -0.0177,0.150834 -0.0265,0.226251 -0.15352,0.690239 0.82263,0.907351 0.97615,0.217111 z" />
    <path
       style="fill:#00ff00;stroke-width:0.264583"
       id="path1963"
       d="m 182.8741,52.98423 c -0.75367,-0.660006 -1.80982,-1.061895 -2.75471,-0.508966 -0.20218,0.118314 -0.35498,0.305769 -0.53247,0.458653 -0.10699,0.202504 -0.25832,0.387218 -0.32096,0.607515 -0.18922,0.665551 0.0627,1.380318 0.65366,1.751052 0.49287,0.309182 0.71903,0.21925 1.26667,0.2013 0.52764,-0.201139 0.77211,-0.220141 1.15974,-0.670181 0.55277,-0.641776 0.63777,-1.449062 -0.008,-2.087653 -0.21848,-0.216077 -0.53377,-0.304604 -0.80065,-0.456906 -0.28371,-0.05177 -0.56742,-0.103542 -0.85113,-0.155316 -0.69876,-0.108265 -0.85188,0.879944 -0.15311,0.988211 v 0 c 0.18697,0.02117 0.37395,0.04231 0.56092,0.06347 0.0418,0.0149 0.60009,0.181486 0.68272,0.301977 0.052,0.07589 0.0582,0.181346 0.0449,0.272391 -0.057,0.387956 -0.39465,0.605401 -0.71963,0.747562 -0.21244,0.04273 -0.32702,0.09707 -0.53813,0.0304 -0.2412,-0.07618 -0.41645,-0.305271 -0.39097,-0.565205 0.0104,-0.105871 0.0677,-0.201698 0.10156,-0.302546 0.1979,-0.22719 0.23274,-0.330994 0.53837,-0.423471 0.50234,-0.151998 0.98428,0.151902 1.35426,0.454999 0.50012,0.499877 1.20706,-0.207402 0.70693,-0.707282 z" />
    <path
       style="fill:#00ff00;stroke-width:0.264583"
       id="path2000"
       d="m 156.88387,20.634536 c 0.35147,0.109588 0.71437,0.172155 1.07599,0.236481 0.6963,0.123137 0.87044,-0.861583 0.17414,-0.98472 v 0 c -0.32363,-0.05686 -0.6486,-0.111423 -0.96303,-0.209659 -0.67733,-0.203016 -0.96444,0.754883 -0.2871,0.957898 z" />
    <path
       style="fill:#00ff00;stroke-width:0.264583"
       id="path2002"
       d="m 173.34304,26.968204 c 0.14135,0.465714 0.26956,0.935101 0.4131,1.40019 0.20868,0.675611 1.16414,0.380482 0.95545,-0.295129 v 0 c -0.15175,-0.490842 -0.2828,-0.987618 -0.44017,-1.476703 -0.26279,-0.656461 -1.19117,-0.28482 -0.92838,0.371642 z" />
    <path
       style="fill:#00ff00;stroke-width:0.264583"
       id="path2004"
       d="m 171.48293,28.200318 c 0.26566,0.356362 0.54014,0.705892 0.78724,1.075724 0.053,0.0793 0.30273,0.416309 0.31279,0.555173 0.21738,0.672864 1.16895,0.365448 0.95157,-0.307417 v 0 c -0.0266,-0.07224 -0.0471,-0.14705 -0.0798,-0.216707 -0.0746,-0.158546 -0.28273,-0.481354 -0.36467,-0.603636 -0.2539,-0.378886 -0.53433,-0.738032 -0.80712,-1.103178 -0.4243,-0.565663 -1.22426,0.03438 -0.79997,0.600041 z" />
    <path
       style="fill:#00ff00;stroke-width:0.264583"
       id="path2006"
       d="m 169.88684,28.429309 c 0.18659,0.507601 0.4188,0.996085 0.61491,1.499958 0.2571,0.658714 1.18866,0.295129 0.93156,-0.363583 v 0 c -0.18724,-0.478538 -0.40173,-0.945099 -0.58863,-1.423688 -0.20316,-0.677294 -1.161,-0.38998 -0.95784,0.287313 z" />
    <path
       style="fill:#00ff00;stroke-width:0.264583"
       id="path2008"
       d="m 168.78963,48.678131 c 0.24922,-0.147365 0.5009,-0.290322 0.75035,-0.437327 0.60913,-0.359108 0.10127,-1.220549 -0.50786,-0.861441 v 0 c -0.25669,0.151387 -0.51606,0.297997 -0.77208,0.450514 -0.59981,0.374475 -0.0702,1.222729 0.52959,0.848254 z" />
    <path
       style="fill:#00ff00;stroke-width:0.264583"
       id="path2010"
       d="m 169.56449,50.096615 c 0.36337,-0.200385 0.73349,-0.386395 1.1079,-0.564983 0.63798,-0.304927 0.20675,-1.20717 -0.43123,-0.902243 v 0 c -0.39015,0.186823 -0.77656,0.37995 -1.1553,0.589212 -0.62085,0.338444 -0.14222,1.216459 0.47863,0.878014 z" />
    <path
       style="fill:#00ff00;stroke-width:0.264583"
       id="path2012"
       d="m 170.73695,51.715537 c 0.61913,-0.38472 0.30364,-0.18547 0.94604,-0.598419 0.59478,-0.382413 0.054,-1.223555 -0.54081,-0.841144 v 0 c -0.61763,0.397181 -0.31898,0.208192 -0.89535,0.567909 -0.61635,0.346567 -0.12623,1.218221 0.49012,0.871654 z" />
    <path
       style="fill:#00ff00;stroke-width:0.264583"
       id="path2014"
       d="m 147.4296,48.524731 c 0.48534,0.07987 0.96027,0.209336 1.42945,0.354716 0.67573,0.208296 0.9703,-0.747334 0.29457,-0.955627 v 0 c -0.50752,-0.155721 -1.02048,-0.296572 -1.54507,-0.38295 -0.6957,-0.126534 -0.87464,0.857324 -0.17895,0.983861 z" />
    <path
       style="fill:#00ff00;stroke-width:0.264583"
       id="path2016"
       d="m 147.013,50.011451 c 0.32113,0.237038 0.15101,0.119769 0.51206,0.349337 0.59822,0.377008 1.13139,-0.469 0.53317,-0.846007 v 0 c -0.29401,-0.18319 -0.15017,-0.08571 -0.43134,-0.29272 -0.55818,-0.434088 -1.17207,0.355301 -0.61389,0.78939 z" />
    <path
       style="fill:#00ff00;stroke-width:0.264583"
       id="path2024"
       d="m 141.67942,29.486399 c -0.4659,0.545545 -0.74315,1.202989 -1.00046,1.863426 -0.25506,0.659503 0.67762,1.020212 0.93268,0.360709 v 0 c 0.20409,-0.53223 0.42027,-1.063183 0.77471,-1.516856 0.50013,-0.499877 -0.20681,-1.207159 -0.70693,-0.707279 z" />
    <path
       style="fill:#00ff00;stroke-width:0.264583"
       id="path2026"
       d="m 143.13684,30.438315 c -0.20086,0.508537 -0.36275,1.031308 -0.51438,1.55622 -0.19579,0.679458 0.7651,0.956361 0.9609,0.276903 v 0 c 0.14173,-0.493131 0.29401,-0.984009 0.48199,-1.461794 0.26256,-0.65655 -0.66594,-1.02788 -0.92851,-0.371329 z" />
  </g>
</svg>
