<?xml version="1.0" encoding="UTF-8" standalone="no"?>
<!-- Created with Inkscape (http://www.inkscape.org/) -->

<svg
   width="199.42723mm"
   height="60.314297mm"
   viewBox="0 0 199.42723 60.314297"
   version="1.1"
   id="svg813"
   inkscape:version="1.2.2 (b0a8486541, 2022-12-01)"
   sodipodi:docname="metalik-bağ-ve-aktiflik.svg"
   xmlns:inkscape="http://www.inkscape.org/namespaces/inkscape"
   xmlns:sodipodi="http://sodipodi.sourceforge.net/DTD/sodipodi-0.dtd"
   xmlns="http://www.w3.org/2000/svg"
   xmlns:svg="http://www.w3.org/2000/svg">
  <sodipodi:namedview
     id="namedview815"
     pagecolor="#ffffff"
     bordercolor="#000000"
     borderopacity="0.25"
     inkscape:showpageshadow="2"
     inkscape:pageopacity="0.0"
     inkscape:pagecheckerboard="0"
     inkscape:deskcolor="#d1d1d1"
     inkscape:document-units="mm"
     showgrid="false"
     inkscape:zoom="1.214447"
     inkscape:cx="387.83084"
     inkscape:cy="165.50743"
     inkscape:window-width="1916"
     inkscape:window-height="1026"
     inkscape:window-x="0"
     inkscape:window-y="0"
     inkscape:window-maximized="1"
     inkscape:current-layer="layer1" />
  <defs
     id="defs810" />
  <g
     inkscape:label="Layer 1"
     inkscape:groupmode="layer"
     id="layer1"
     transform="translate(-22.544415,-20.395321)">
    <path
       style="fill:#0000ff;stroke-width:0.264583"
       id="path905"
       d="m 26.398873,36.929256 c 0.312149,6.466636 0.451621,12.940876 0.660649,19.411754 0.03362,1.067273 0.06867,2.134518 0.08794,3.202159 0.01279,0.706991 1.012625,0.688906 0.999837,-0.0181 v 0 c -0.01944,-1.072375 -0.0544,-2.144356 -0.0883,-3.216357 -0.209314,-6.479715 -0.348891,-12.962798 -0.661857,-19.438244 -0.04156,-0.705885 -1.039832,-0.647108 -0.998271,0.05877 z" />
    <path
       style="fill:#0000ff;stroke-width:0.264583"
       id="path907"
       d="m 22.585944,53.126825 c 0.668337,1.593696 1.379512,3.194169 2.297798,4.663781 0.363584,0.581875 1.119198,1.75428 1.868812,2.04483 0.376584,0.145963 0.806435,0.04631 1.209653,0.06947 0.394734,-0.30019 0.856346,-0.528499 1.184202,-0.900575 0.597664,-0.678275 1.284965,-2.265744 1.624734,-3.070095 0.496713,-1.17588 0.925299,-2.363854 1.469385,-3.519834 0.300763,-0.639956 -0.604268,-1.065298 -0.905031,-0.425345 v 0 c -0.490178,1.044456 -0.439055,0.900274 -0.914866,2.089079 -0.570261,1.424789 -1.074031,2.894081 -1.938414,4.178633 -0.159485,0.237009 -0.373198,0.43262 -0.559797,0.648931 -0.185557,0.0466 -0.37457,0.198477 -0.55667,0.139803 -0.659967,-0.212643 -1.323256,-1.285944 -1.607342,-1.739625 -0.893659,-1.427149 -1.585634,-2.982206 -2.236173,-4.530278 -0.248353,-0.662059 -1.184644,-0.310835 -0.936291,0.351224 z" />
    <path
       style="fill:#0000ff;stroke-width:0.264583"
       id="path911"
       d="m 48.996099,75.677865 c 0.540121,0.02853 1.079746,0.06894 1.620364,0.08559 4.432374,0.136493 8.876075,0.09488 13.309396,0.100732 10.741332,0.01418 2.542974,-0.0232 13.858928,0.04813 6.015112,0.02421 12.02989,0.1 18.041403,0.315727 2.355165,0.08452 4.71681,0.15844 7.06214,0.398309 0.75192,0.121468 0.4454,0.04997 0.92752,0.176924 0.68513,0.174911 0.93249,-0.794012 0.24736,-0.968922 v 0 c -0.59053,-0.147209 -0.23474,-0.06939 -1.07361,-0.202859 -2.36931,-0.240123 -4.752961,-0.317627 -7.132229,-0.402966 -6.019808,-0.21591 -12.042875,-0.291983 -18.066282,-0.316195 -11.321801,-0.07134 -3.122922,-0.03399 -13.862848,-0.04814 -4.418031,-0.0058 -8.843905,0.02768 -13.261036,-0.09945 -0.502692,-0.01447 -1.00461,-0.04887 -1.506916,-0.0733 -0.69751,-0.116101 -0.8617,0.870329 -0.16419,0.986428 z" />
    <path
       style="fill:#0000ff;stroke-width:0.264583"
       id="path915"
       d="m 41.423952,43.44653 c 1.914588,-2.330148 3.161223,-5.099807 4.319984,-7.85913 -0.306387,0.0822 -0.72721,-0.006 -0.919157,0.246613 -0.211151,0.277825 -0.05395,0.696158 -0.06249,1.045014 -0.03413,1.392817 -0.105942,3.256237 0.512464,4.546875 0.165359,0.345114 0.475792,0.599517 0.713687,0.899274 0.356894,0.06844 0.721294,0.305265 1.070676,0.205319 0.931831,-0.26656 1.553329,-1.379522 1.935295,-2.136852 0.581168,-1.152287 0.839374,-2.350002 1.018767,-3.61166 0.0045,-0.127111 0.13952,-0.363389 0.0136,-0.381328 -0.339103,-0.04831 -0.769805,-0.01365 -0.998929,0.240959 -0.182473,0.202774 0.01929,0.545629 0.04686,0.81702 0.133752,1.316453 0.392927,2.606357 0.677764,3.896444 0.295117,0.878208 0.645766,1.974702 1.870522,1.527585 0.341067,-0.124513 0.574252,-0.444463 0.861381,-0.666694 0.538173,-0.458661 -0.110469,-1.219753 -0.648645,-0.761095 v 0 c -0.152993,0.15286 -0.334843,0.281482 -0.458978,0.458581 -0.04915,0.07013 0.04462,0.242644 -0.0403,0.253735 -0.39474,0.05155 -0.560822,-1.17231 -0.607597,-1.028168 -0.274477,-1.237512 -0.524693,-2.475841 -0.655839,-3.73857 -0.0263,-0.253183 0.136409,-0.583914 -0.04518,-0.762297 -1.075475,-1.056497 -0.998336,-0.409043 -1.005093,0.0058 -0.224505,1.648794 -0.609003,2.8829 -1.501215,4.310584 -0.125777,0.201261 -0.24294,0.415822 -0.417171,0.576972 -0.09426,0.08718 -0.239085,0.09372 -0.358627,0.140581 -0.169558,-0.172718 -0.400573,-0.301599 -0.508672,-0.51815 -0.592256,-1.186455 -0.504129,-2.936134 -0.476234,-4.220914 0.0087,-0.400169 0.249592,-0.847418 0.05891,-1.199343 -0.179673,-0.331604 -0.665202,-0.355647 -0.997804,-0.533471 -1.114788,2.654819 -2.305664,5.324181 -4.137944,7.573661 -0.475633,0.523232 0.264332,1.195879 0.739966,0.672645 z" />
    <path
       style="fill:#0000ff;stroke-width:0.264583"
       id="path917"
       d="m 55.370356,39.297009 c 0.284914,-0.03413 0.576551,-0.03202 0.854739,-0.102386 1.326277,-0.335492 2.572885,-1.33976 2.716483,-2.783422 0.02792,-0.280702 -0.06095,-0.560872 -0.09143,-0.841306 -0.144209,-0.213717 -0.229018,-0.482986 -0.432623,-0.641146 -1.939134,-1.506305 -3.410693,3.017731 -3.814881,4.050503 -0.379685,1.335768 -1.483858,4.766884 0.617003,5.412904 1.116028,0.343183 2.08389,-0.26783 3.044449,-0.661913 1.848435,-1.163841 0.9848,-0.555218 2.602439,-1.809398 0.558162,-0.434115 -0.05577,-1.223473 -0.613931,-0.789358 v 0 c -1.49628,1.167672 -0.705022,0.604451 -2.381253,1.679109 -0.288862,0.129387 -2.215002,1.177803 -2.637245,0.560753 -0.647663,-0.946473 0.03304,-3.102245 0.300249,-4.028903 0.421497,-1.085845 0.643155,-1.800934 1.214327,-2.786277 0.139337,-0.240374 0.323066,-0.452157 0.48891,-0.675071 0.06301,-0.0847 0.217995,-0.3673 0.403019,-0.322744 0.08973,0.02162 0.147701,0.110725 0.221551,0.166087 0.03651,0.147754 0.111006,0.291071 0.109511,0.443261 -0.01011,1.029452 -0.951553,1.787242 -1.869919,2.034556 -0.237381,0.06393 -0.4876,0.06317 -0.731401,0.09475 -0.707107,0 -0.707107,1.000001 0,1.000001 z" />
    <path
       style="fill:#0000ff;stroke-width:0.264583"
       id="path919"
       d="m 60.12004,32.227932 c -0.557144,2.596759 -0.60806,5.344131 0.286737,7.877818 0.130148,0.368525 0.324067,0.711322 0.4861,1.066983 0.240236,0.241906 0.419365,0.566264 0.720707,0.725715 1.461579,0.773366 3.270252,-0.550289 4.455469,-1.285584 0.600332,-0.373637 0.07193,-1.222632 -0.528402,-0.848995 v 0 c -0.685273,0.427977 -1.169038,0.76341 -1.909257,1.093655 -0.181742,0.08108 -1.013082,0.431837 -1.333873,0.311383 -0.202213,-0.07593 -0.331311,-0.277228 -0.496964,-0.415843 -0.143423,-0.304988 -0.316386,-0.59776 -0.430263,-0.914966 -0.853829,-2.378329 -0.798034,-4.960972 -0.272431,-7.400729 0.148093,-0.691425 -0.829728,-0.900862 -0.977823,-0.209437 z" />
    <path
       style="fill:#0000ff;stroke-width:0.264583"
       id="path921"
       d="m 59.130228,39.387264 c 2.022623,-0.467384 4.017854,-1.037485 6.022126,-1.575573 0.682919,-0.183364 0.4236,-1.149157 -0.259318,-0.96579 v 0 c -2.005439,0.53853 -4.001934,1.108578 -6.025692,1.576536 -0.682237,0.185888 -0.419352,1.150715 0.262884,0.964827 z" />
    <path
       style="fill:#0000ff;stroke-width:0.264583"
       id="path923"
       d="m 70.204731,39.86858 c 0.728792,-1.151313 1.847826,-3.006907 1.10648,-4.406143 -0.115533,-0.218059 -0.321683,-0.374314 -0.482526,-0.56147 -0.230706,-0.08924 -0.445558,-0.247774 -0.692116,-0.267708 -1.882648,-0.152228 -3.024274,2.548774 -3.640333,3.899773 -0.422386,1.149642 -1.031851,2.792672 0.117692,3.76441 0.564854,0.477483 1.007729,0.429054 1.687573,0.508236 0.322816,-0.09152 0.663515,-0.134549 0.968444,-0.274556 1.801987,-0.827378 2.767005,-3.149306 3.478194,-4.862076 0.09786,-0.247523 0.691938,-1.867826 -0.334772,-1.748681 -0.890008,0.103282 -1.228765,2.021512 -1.384377,2.632995 -0.142986,0.929913 -0.478996,3.243713 0.977459,3.46968 0.867645,0.134612 1.39801,-0.438581 2.022718,-0.879509 0.291087,-0.29195 0.582173,-0.583899 0.87326,-0.875845 0.496845,-0.503137 -0.214696,-1.205781 -0.711539,-0.702646 v 0 c -0.252232,0.258249 -0.504465,0.516498 -0.756698,0.774747 -0.223533,0.176504 -0.444907,0.355778 -0.670602,0.529511 -7.94e-4,7.94e-4 -0.436433,0.405963 -0.582464,0.270761 -0.545566,-0.505113 -0.232193,-1.749562 -0.18224,-2.343173 0.07868,-0.318154 0.142409,-0.640382 0.236024,-0.954464 0.07161,-0.24026 0.241001,-0.456075 0.258932,-0.706136 0.007,-0.09772 -0.136522,-0.141708 -0.192368,-0.222199 -0.109982,-0.158528 -0.161906,-0.361895 -0.303673,-0.492773 -0.216204,-0.199599 0.749353,2.080442 -0.17372,0.865486 -0.610362,1.481569 -1.39605,3.460509 -2.865019,4.293875 -0.178194,0.101092 -0.380296,0.152535 -0.570445,0.228804 -0.367061,-0.01564 -1.101351,0.01971 -1.31882,-0.406448 -0.388724,-0.761738 0.116821,-1.75619 0.337274,-2.457219 0.407856,-0.906093 1.328738,-3.086595 2.448304,-3.352904 0.08548,-0.02032 0.175532,0.0082 0.2633,0.01225 0.08086,0.05654 0.185174,0.08937 0.24257,0.169624 0.681273,0.952571 -0.488058,2.731019 -0.975577,3.520104 -0.405667,0.579168 0.413401,1.152866 0.819065,0.573699 z" />
    <path
       style="fill:#0000ff;stroke-width:0.264583"
       id="path925"
       d="m 77.003105,30.969561 c -0.687041,2.535481 -1.549077,5.071607 -1.836441,7.696049 -0.05088,0.464637 -0.03952,0.933992 -0.05929,1.40099 0.165561,0.75833 0.111374,1.393404 0.94606,1.789779 0.792308,0.376251 1.624098,0.06117 2.319833,-0.315423 0.803362,-0.434851 1.455475,-1.099354 2.121868,-1.704792 0.97564,-1.144083 0.555501,-0.572596 1.28592,-1.695427 0.382908,-0.594457 -0.457785,-1.135972 -0.840692,-0.541514 v 0 c -0.626716,0.984221 -0.262364,0.478316 -1.11941,1.498375 -0.802582,0.736388 -1.573522,1.507109 -2.616412,1.895798 -0.249462,0.09298 -0.697799,0.21935 -0.894905,-0.107567 -0.138663,-0.229981 -0.135364,-0.519763 -0.203047,-0.779645 0.01564,-0.426217 0.0011,-0.854612 0.04687,-1.278654 0.277548,-2.57142 1.1352,-5.084694 1.807506,-7.570759 0.203086,-0.677315 -0.754779,-0.964525 -0.957868,-0.28721 z" />
    <path
       style="fill:#0000ff;stroke-width:0.264583"
       id="path927"
       d="m 81.556819,36.736313 c -0.222543,1.03341 -1.314556,3.993669 -0.104645,4.753973 0.272283,0.1711 0.627166,0.14252 0.940747,0.21378 0.313518,-0.09103 0.639112,-0.14774 0.940552,-0.273095 1.333727,-0.554627 2.351952,-1.741442 3.055963,-2.96446 0.161706,-0.280919 0.287581,-0.580991 0.431372,-0.871485 0.311533,-0.63478 -0.586182,-1.075356 -0.897716,-0.440576 v 0 c -0.77095,1.586262 -1.726848,2.956835 -3.466742,3.551629 -0.08014,0.04624 -0.147894,0.138073 -0.240411,0.138711 -0.363628,0.0024 -0.317802,-0.676836 -0.31573,-0.778783 0.02101,-1.033063 0.387027,-2.039548 0.612314,-3.035366 0.208122,-0.675785 -0.747582,-0.970113 -0.955704,-0.294328 z" />
    <path
       style="fill:#0000ff;stroke-width:0.264583"
       id="path931"
       d="m 81.353961,30.905548 c -0.153488,0.766976 -0.558978,2.075584 -0.178433,2.832779 0.06775,0.134806 0.183312,0.239679 0.274966,0.359519 0.453199,0.282051 0.86456,0.288089 1.327237,0.0696 0.561766,-0.42944 -0.04556,-1.223896 -0.607322,-0.794457 v 0 c 0.504193,-0.16888 0.01923,-0.0394 0.0043,-0.02967 -0.01638,0.01069 -0.0043,0.03885 -0.0064,0.05828 -0.219406,0.199617 -0.110895,-0.932389 -0.106278,-0.97127 0.0459,-0.386559 0.155064,-0.82832 0.240532,-1.208317 0.223782,-0.670762 -0.724818,-0.987238 -0.9486,-0.316476 z" />
    <path
       style="fill:#0000ff;stroke-width:0.264583"
       id="path933"
       d="m 89.98863,29.186409 c -1.110091,3.660532 -2.194145,7.323921 -3.137231,11.031188 -0.0011,0.893832 -0.171254,0.485987 1.078997,0.770168 0.629013,-0.323024 0.172188,-1.21258 -0.456824,-0.889555 v 0 c 0.419047,0.675222 0.405363,0.842753 0.346961,0.365924 0.942118,-3.703479 2.026402,-7.362698 3.134265,-11.019811 0.182372,-0.683184 -0.783796,-0.941097 -0.966168,-0.257914 z" />
    <path
       style="fill:#0000ff;stroke-width:0.264583"
       id="path935"
       d="m 93.155539,33.676423 c -1.258721,0.95549 -2.405603,2.044986 -3.519046,3.163149 -0.746493,0.74966 -1.478701,1.477603 -2.043462,2.373037 0.129789,0.275919 0.111726,0.701697 0.389369,0.827752 0.47925,0.217593 2.000708,-0.420785 2.36147,-0.553178 0.525637,-0.192899 1.988682,-0.764587 2.549903,-0.93563 0.298463,-0.09096 0.607378,-0.143203 0.911066,-0.214804 0.152453,0.01066 0.312957,-0.01807 0.457359,0.03197 0.0423,0.01466 -0.05282,0.08563 -0.097,0.09289 -0.06023,0.0099 -0.125502,-0.08101 -0.176763,-0.04787 -0.184742,0.119454 -0.3234,0.897557 -0.359248,1.087065 0.01553,0.13409 -0.03446,0.294317 0.04658,0.402272 0.14896,0.198451 0.356507,0.375023 0.593082,0.449895 0.481568,0.152405 1.502947,-0.449051 1.962017,-0.649703 0.43819,-0.250711 0.246232,-0.108966 0.585089,-0.412459 0.503209,-0.496771 -0.199331,-1.208416 -0.70254,-0.711644 v 0 c -0.09328,0.141478 -0.01995,0.05007 -0.283427,0.20797 -0.100774,0.04414 -1.293558,0.570706 -1.295958,0.601636 -0.0088,0.114078 0.09057,0.210756 0.122785,0.320548 0.0056,0.01913 -0.0276,-0.02877 -0.04139,-0.04316 0.01132,-0.08676 0.01077,-0.175916 0.03399,-0.26027 0.04406,-0.16001 0.328872,-0.804691 0.335158,-0.904299 0.06677,-1.058254 -0.53304,-1.187548 -1.412205,-1.137451 -0.337979,0.08177 -0.681323,0.143907 -1.013939,0.245313 -0.544968,0.166148 -2.03522,0.745176 -2.551935,0.936355 -0.365162,0.135105 -0.740913,0.243002 -1.098569,0.396883 -0.143774,0.06186 -0.320175,0.112282 -0.39905,0.247473 -0.09248,0.158517 -0.04289,0.364532 -0.06434,0.546796 0.493107,-0.827643 1.217671,-1.505429 1.892128,-2.18341 1.078312,-1.083948 2.188319,-2.140953 3.406815,-3.068222 0.571984,-0.415732 -0.01595,-1.224643 -0.587933,-0.808911 z" />
    <path
       style="fill:#0000ff;stroke-width:0.264583"
       id="path937"
       d="m 47.295831,55.817925 c 1.852774,-2.648762 3.517972,-5.41697 5.129435,-8.216508 0.547338,-0.216392 -0.382418,-0.01056 -0.45388,0.129617 -0.145002,0.284435 0.01773,0.638278 0.0268,0.957413 0.02222,0.782018 0.05931,2.361457 0.119123,3.104407 0.04207,0.52256 0.121132,1.041479 0.181697,1.562219 0.213945,0.936921 0.365882,2.139076 1.1732,2.808837 0.152104,0.126188 0.35292,0.177996 0.529378,0.266994 0.659456,0.255188 1.020345,-0.677421 0.360892,-0.932608 v 0 c -0.04513,0.0033 -0.09819,0.03551 -0.13539,0.0097 -0.684863,-0.474347 -0.746855,-1.578811 -0.934863,-2.269268 -0.215381,-1.82663 -0.179588,-1.221671 -0.252971,-3.133677 -0.01873,-0.488344 -0.02008,-0.977299 -0.04226,-1.465498 -0.04183,-0.920877 0.194078,-1.644891 -1.015526,-1.913871 -0.184298,-0.04098 -0.281916,0.251208 -0.422875,0.376811 -1.597618,2.775487 -3.247827,5.520301 -5.084943,8.146161 -0.402503,0.581372 0.419682,1.150594 0.822182,0.569222 z" />
    <path
       style="fill:#0000ff;stroke-width:0.264583"
       id="path941"
       d="m 49.392112,51.141357 c 1.183089,0.252992 2.393116,0.243956 3.590795,0.120174 1.010666,-0.104455 0.226544,-0.06001 0.749533,-0.08579 0.705937,-0.04066 0.648443,-1.039 -0.05749,-0.998347 v 0 c -1.363345,0.08654 -2.730582,0.341699 -4.086646,-0.01659 -0.693364,-0.138729 -0.889555,0.841838 -0.196188,0.980565 z" />
    <path
       style="fill:#0000ff;stroke-width:0.264583"
       id="path943"
       d="m 59.513692,46.330703 c -0.470202,0.243705 0.408035,-0.954204 0.120993,-0.880663 -1.432956,0.367128 -1.203253,0.721397 -1.501335,1.980491 -0.450371,1.902362 -0.383334,1.67277 -0.754124,3.633644 -0.193373,1.001649 -0.378068,1.833285 -0.491603,2.834082 -0.02585,0.22774 -0.123913,0.475403 -0.03511,0.686699 0.449546,1.069634 0.955358,0.330965 1.463395,-0.235645 0.261699,-0.29187 0.440036,-0.648894 0.660053,-0.973339 0.280225,-0.386016 0.558945,-0.773131 0.840679,-1.158047 0.366604,-0.500877 1.244523,-1.69386 1.653162,-2.214086 0.545422,-0.694367 0.369062,-0.530974 0.854329,-0.904195 0.05248,-0.04037 -0.104558,0.08128 -0.15684,0.121915 -0.153051,-0.05627 -0.305409,-0.223145 -0.459158,-0.168804 -0.139287,0.04923 -0.125791,0.267393 -0.192601,0.399153 -0.122295,0.241186 -0.23727,0.486645 -0.374652,0.719568 -0.511966,0.868011 -1.141879,1.622396 -1.814582,2.366807 -0.182001,0.178281 -0.359804,0.360958 -0.54601,0.53485 -0.408524,0.381505 -1.006149,0.517271 0.337757,1.007149 0.149542,0.05451 0.262003,-0.181025 0.397121,-0.265152 0.157083,-0.0978 0.319405,-0.186928 0.479107,-0.280392 0.236416,-0.08985 0.489128,-0.230389 0.75787,-0.191545 0.07116,0.01029 0.985036,0.771411 1.066295,0.830762 0.687252,0.31032 1.254776,0.95712 2.003285,1.137034 0.173053,0.0416 0.353718,0.03992 0.530576,0.05988 0.779265,-0.09009 1.422313,-0.494845 2.083218,-0.880385 0.60946,-0.358553 0.102389,-1.220457 -0.507071,-0.861904 v 0 c -0.482764,0.286792 -0.960051,0.584986 -1.504138,0.744884 -0.772062,0.01246 -1.34902,-0.708536 -2.019744,-1.009732 -1.121616,-0.801809 -1.421305,-1.39001 -2.916767,-0.69125 -0.176501,0.104015 -0.355973,0.203149 -0.529502,0.312047 -0.151858,0.0953 -0.43461,0.121361 -0.446223,0.300267 -0.131037,2.018562 1.157764,0.282409 1.557332,-0.07734 0.920724,-1.025747 1.843601,-2.116277 2.382206,-3.403753 0.107243,-0.256358 0.295611,-0.518507 0.255619,-0.793501 -0.04437,-0.30507 -0.323665,-0.524772 -0.485495,-0.78716 -0.176519,0.03386 -0.367813,0.0232 -0.529555,0.101592 -0.32816,0.159047 -0.865016,0.878698 -1.019683,1.075627 -0.874279,1.113163 -1.686137,2.274443 -2.524221,3.414519 -0.51358,0.757587 -0.816403,0.687337 -0.551894,1.332225 0.06936,0.169108 0.08335,0.548251 0.255003,0.485444 0.184264,-0.06742 0.0035,-0.393107 0.02551,-0.588079 0.111638,-0.988406 0.293446,-1.802553 0.484954,-2.794566 0.363591,-1.926561 0.298101,-1.703083 0.741839,-3.577502 0.293899,-1.241489 0.766652,-1.491655 -0.456472,-2.380052 -0.252608,-0.183478 0.174257,1.28541 -0.127394,0.927926 -0.07815,0.702775 0.91572,0.8133 0.993873,0.110527 z" />
    <path
       style="fill:#0000ff;stroke-width:0.264583"
       id="path945"
       d="m 66.600725,46.810876 c -0.177887,2.308397 -0.59999,4.661969 -0.251878,6.975854 0.04975,0.33066 0.151371,0.651407 0.227058,0.977111 0.157014,0.218006 0.245745,0.507662 0.471045,0.654021 1.022485,0.664231 2.046296,-0.347223 2.802224,-0.901515 1.294749,-0.949391 1.105273,-0.81707 2.407438,-1.828723 0.404559,-0.315838 1.669058,-1.281745 2.093352,-1.686279 0.207981,-0.198292 0.378348,-0.432615 0.56752,-0.648923 0.461404,-0.535821 -0.296365,-1.188347 -0.757766,-0.652523 v 0 c -0.15058,0.178242 -0.282861,0.373711 -0.451734,0.534725 -0.421481,0.401868 -1.670037,1.355056 -2.064946,1.663362 -1.062538,0.825764 -2.138286,1.628973 -3.221008,2.427861 -0.142166,0.104897 -0.285502,0.208246 -0.426125,0.315204 -0.06005,0.04568 -0.102455,0.160393 -0.175784,0.142616 -0.119734,-0.02903 -0.180869,-0.167336 -0.271306,-0.251005 -0.06806,-0.279271 -0.160018,-0.553784 -0.204198,-0.837814 -0.35088,-2.255846 0.08973,-4.555919 0.253156,-6.807205 0.05428,-0.70502 -0.942768,-0.781786 -0.997048,-0.07677 z" />
    <path
       style="fill:#0000ff;stroke-width:0.264583"
       id="path947"
       d="m 68.051505,50.557112 c 0.955664,-0.336108 0.462803,-0.158766 1.478039,-0.533535 0.663337,-0.244912 0.316984,-1.183016 -0.346356,-0.938104 v 0 c -1.026943,0.379219 -0.514331,0.193326 -1.537784,0.55781 -0.646176,0.287158 -0.240073,1.200984 0.406101,0.913829 z" />
    <path
       style="fill:#0000ff;stroke-width:0.264583"
       id="path949"
       d="m 73.203371,49.78523 c -0.08448,0.706911 -0.661451,3.68849 0.324916,4.007506 0.324114,0.104828 0.679273,-0.0524 1.01891,-0.0786 0.27626,-0.193374 0.552519,-0.38675 0.828776,-0.580123 0.569666,-0.418904 -0.02275,-1.224534 -0.592421,-0.80563 v 0 c -0.185367,0.146085 -0.370737,0.292169 -0.556106,0.438253 -0.01241,0.09507 -0.04182,0.594868 -0.163952,0.317831 -0.296661,-0.672952 0.05464,-2.398432 0.126296,-3.134998 0.116139,-0.697505 -0.870283,-0.861747 -0.986419,-0.164242 z" />
    <path
       style="fill:#0000ff;stroke-width:0.264583"
       id="path951"
       d="m 79.225356,51.247373 c 1.218036,-1.299705 2.635059,-2.737538 2.973025,-4.567494 0.04076,-0.220695 0.02003,-0.448406 0.03003,-0.672608 -0.04396,-0.143732 0.01072,-0.383683 -0.131882,-0.431192 -1.096896,-0.365445 -1.167643,0.1699 -1.536205,0.973934 -0.211299,0.46096 -0.396632,0.933831 -0.571791,1.4097 -0.545907,1.483098 -0.772565,2.328603 -1.228706,3.852455 -0.504206,1.595006 -0.740125,3.271332 -1.266569,4.859959 -0.08376,0.252773 -0.172286,0.509159 -0.314174,0.7345 -0.04838,0.07684 -0.165417,0.196016 -0.235035,0.137718 -0.06634,-0.05556 0.08933,-0.148222 0.133993,-0.222335 -0.03766,-0.08839 -0.07533,-0.176779 -0.11299,-0.265168 -0.439719,-0.553757 -1.222851,0.0681 -0.783132,0.621856 v 0 c 0.187687,0.195405 0.375375,0.390813 0.563062,0.586218 0.285517,0.01095 0.586589,0.12649 0.856554,0.0329 0.461608,-0.160036 0.744157,-1.023593 0.856195,-1.361498 0.524258,-1.581153 0.760259,-3.249409 1.260141,-4.837536 0.449284,-1.502706 0.663284,-2.304084 1.197742,-3.764206 0.164973,-0.450704 0.35269,-0.892828 0.5382,-1.335476 0.09259,-0.220933 0.358577,-0.423667 0.29595,-0.654886 -0.02,-0.07387 -0.836102,-0.536096 -0.521153,-0.356971 0.0027,0.13938 0.0304,0.280511 0.0082,0.418134 -0.265988,1.64764 -1.613554,2.927509 -2.680229,4.098547 -0.525701,0.472903 0.143089,1.216358 0.66879,0.743453 z" />
    <path
       style="fill:#0000ff;stroke-width:0.264583"
       id="path953"
       d="m 77.324973,54.842483 c 1.456648,-0.779412 2.91316,-1.559208 4.365702,-2.346385 0.621678,-0.336923 0.1452,-1.216107 -0.476478,-0.879187 v 0 c -1.442802,0.781963 -2.889755,1.556194 -4.336296,2.331074 -0.632505,0.31613 -0.185433,1.210628 0.447072,0.894498 z" />
    <path
       style="fill:#0000ff;stroke-width:0.264583"
       id="path955"
       d="m 75.108831,46.586491 c 0.08376,-0.817046 0.04215,-0.422791 0.124359,-1.182817 0.07603,-0.703006 -0.91817,-0.810532 -0.994201,-0.107524 v 0 c -0.08248,0.762741 -0.041,0.369483 -0.124031,1.179814 -0.07815,0.702776 0.91572,0.813303 0.993873,0.110527 z" />
    <path
       style="fill:#0000ff;stroke-width:0.264583"
       id="path957"
       d="m 85.415963,48.413979 c 0.387776,-1.514091 0.964541,-2.969707 1.597364,-4.396184 0.130759,-0.400656 0.290224,-0.702795 -0.962017,-0.340133 -0.171199,0.04958 -0.10854,0.339725 -0.153525,0.512191 -0.08222,0.315227 -0.156377,0.63255 -0.227954,0.950365 -0.13367,0.593519 -0.526706,2.482985 -0.628288,2.967876 -0.354941,1.584013 -0.668996,3.17741 -0.892498,4.785656 -0.07533,0.542063 -0.239545,1.392489 -0.04426,1.960028 0.08553,0.248584 0.291811,0.437362 0.437719,0.656043 0.309909,0.07411 0.611531,0.239347 0.929724,0.222345 0.33772,-0.01805 0.657791,-0.174974 0.961673,-0.323419 1.330574,-0.649978 2.268805,-1.829728 3.071974,-3.025796 0.468098,-0.816237 0.284478,-0.42173 0.578022,-1.170493 0.250775,-0.661146 -0.684223,-1.015793 -0.934998,-0.35465 v 0 c -0.212756,0.588161 -0.06941,0.257651 -0.475231,0.97068 -0.931701,1.41102 -1.822693,2.311635 -3.360266,3.044377 -0.07176,-0.04475 -0.184288,-0.05557 -0.215271,-0.134262 -0.190958,-0.484984 -0.02098,-1.257927 0.03938,-1.693429 0.220387,-1.590349 0.531781,-3.165766 0.882785,-4.732041 0.09945,-0.47476 0.489738,-2.350545 0.622075,-2.940185 0.06803,-0.303138 0.141613,-0.605023 0.216416,-0.906563 0.03062,-0.123431 0.180832,-0.2702 0.09982,-0.368228 -0.77426,-0.936832 -0.778552,-0.84254 -0.859694,-0.485138 -0.647473,1.465607 -1.242436,2.959092 -1.640814,4.513749 -0.203089,0.677315 0.754777,0.964526 0.957866,0.287211 z" />
    <path
       style="fill:#0000ff;stroke-width:0.264583"
       id="path959"
       d="m 89.61076,48.185257 c -0.05178,0.839494 -0.186354,1.667306 -0.235524,2.507181 -0.01514,0.258723 -0.08533,0.962801 0.08291,1.236192 0.125132,0.20334 0.351478,0.323244 0.527214,0.484865 0.286629,-0.01281 0.580639,0.02745 0.859883,-0.03845 0.827365,-0.195252 2.083308,-1.191631 2.644915,-1.832195 0.11498,-0.131146 0.203282,-0.283472 0.304925,-0.425206 0.05246,-0.138684 0.104917,-0.277368 0.157376,-0.416055 0.218297,-0.672566 -0.732858,-0.981284 -0.951153,-0.308716 v 0 c -0.0093,0.05161 -0.0186,0.103227 -0.02792,0.15484 -0.439891,0.66784 -1.112676,1.169778 -1.792748,1.579364 -0.165148,0.09946 -0.348694,0.165809 -0.514517,0.264138 -0.0693,0.0411 -0.12515,0.101518 -0.187724,0.152276 -0.01529,0.05336 -0.0061,0.198774 -0.04591,0.160065 -0.157562,-0.153289 -0.06038,-0.930608 -0.06004,-0.936527 0.06377,-1.11302 0.04646,-0.506278 0.16964,-1.698596 0.02693,-0.260673 0.04247,-0.522396 0.0637,-0.783593 0.07042,-0.703593 -0.924613,-0.803174 -0.995029,-0.09958 z" />
    <path
       style="fill:#0000ff;stroke-width:0.264583"
       id="path961"
       d="m 90.273083,45.092135 c 0.07733,-0.204028 0.154811,-0.407998 0.231989,-0.612082 0.17367,-0.459224 0.248018,-0.712033 0.473742,-1.129175 0.176692,-0.326525 0.168061,-0.341625 0.167119,-0.203242 0.584311,-0.398222 0.02114,-1.224563 -0.563168,-0.826342 v 0 c -0.09211,0.0786 -0.198271,0.143227 -0.276331,0.235794 -0.530939,0.629597 -0.649282,1.523492 -0.991084,2.24739 -0.203404,0.677219 0.754329,0.964877 0.957733,0.287657 z" />
    <path
       style="fill:#0000ff;stroke-width:0.264583"
       id="path963"
       d="m 97.621181,43.663875 c -0.865007,2.285346 -1.588127,4.619133 -2.342533,6.941825 -0.782577,2.409425 -0.08987,0.150939 -0.619374,1.900457 -0.02868,0.103402 -0.05737,0.206804 -0.08605,0.310205 -0.188722,0.681459 0.775001,0.948354 0.963726,0.266899 v 0 c 0.02652,-0.09593 0.05304,-0.191865 0.07956,-0.287798 0.499888,-1.65645 -0.154419,0.482222 0.616302,-1.89049 0.750414,-2.310194 1.469427,-4.631521 2.330018,-6.904511 0.238004,-0.665851 -0.703648,-1.002435 -0.941652,-0.336587 z" />
    <path
       style="fill:#0000ff;stroke-width:0.264583"
       id="path965"
       d="m 99.862816,46.484619 c -1.582716,1.539388 -3.013067,3.234788 -4.367739,4.976341 -0.03886,0.103648 -0.204227,0.243335 -0.116581,0.310947 0.941742,0.726442 1.023083,0.421081 1.833489,-0.01368 0.308266,-0.165381 0.615021,-0.333651 0.925634,-0.494578 0.972701,-0.503952 0.678762,-0.365001 1.590598,-0.71056 0.12114,0.0094 0.270164,-0.04967 0.363413,0.02822 0.0571,0.04771 -0.146804,0.05593 -0.190804,0.115954 -0.06094,0.08313 -0.08322,0.189841 -0.1069,0.290163 -0.185658,0.786699 -0.306625,1.582042 -0.372014,2.386243 0.09681,0.921583 0.328924,1.617292 1.419808,1.717998 0.91045,0.08405 1.94468,-0.542597 2.70116,-0.965192 0.61591,-0.347367 0.12466,-1.218385 -0.49125,-0.871017 v 0 c -0.36697,0.209259 -1.869,1.038749 -2.30113,0.899877 -0.30125,-0.09681 -0.28493,-0.484192 -0.3315,-0.705408 0.0789,-1.114607 -0.009,-0.310523 0.22584,-1.558639 0.0773,-0.411364 0.29223,-1.331968 0.0835,-1.755415 -0.12542,-0.254469 -0.38051,-0.453605 -0.64565,-0.554525 -0.222094,-0.08454 -0.474612,0.02519 -0.71192,0.03779 -0.919723,0.354994 -1.768308,0.791903 -2.635906,1.260226 -0.231238,0.12482 -0.605973,0.12995 -0.691579,0.378391 -0.798396,2.317097 0.649179,0.252545 0.241076,0.817184 1.317265,-1.693463 2.707084,-3.342626 4.242739,-4.842872 0.52852,-0.469749 -0.1358,-1.217194 -0.664324,-0.747445 z" />
    <path
       style="fill:#0000ff;stroke-width:0.264583"
       id="path967"
       d="m 51.839616,63.750951 c 0.25931,-0.259225 0.522409,-0.514718 0.777931,-0.777679 0.902316,-0.9286 0.959622,-0.981845 1.758989,-2.02451 0.488305,-0.636928 0.923319,-1.30933 1.443025,-1.921261 0.0759,0.302517 -0.5176,0.114147 -0.530204,0.320231 -0.01662,0.271671 0.12329,0.530219 0.187309,0.79476 0.09331,0.385588 0.187267,0.771031 0.284681,1.155602 0.294743,1.163582 0.337349,1.29553 0.652838,2.44103 0.256641,0.823688 0.65731,2.62209 1.960695,2.134092 0.20968,-0.0785 0.331562,-0.300963 0.497345,-0.451445 0.461412,-0.535813 -0.296344,-1.188352 -0.757759,-0.652536 v 0 c -0.0047,0.04746 -0.02688,0.09645 -0.01402,0.142377 0.0177,0.0632 0.15058,0.12569 0.10118,0.168894 -0.300548,0.26284 -0.813134,-1.622144 -0.823347,-1.606949 -0.326114,-1.183683 -0.638476,-2.369016 -0.928661,-3.562078 -0.116202,-0.477755 -0.220913,-1.375386 -0.740984,-1.665988 -0.194177,-0.108503 -0.435414,0.09124 -0.653121,0.136855 -0.523034,0.622507 -0.968139,1.297419 -1.461325,1.943579 -0.766154,1.003798 -0.804239,1.035095 -1.683632,1.940126 -0.255502,0.262951 -0.518593,0.518425 -0.77789,0.77764 -0.50011,0.49989 0.206843,1.207151 0.706953,0.70726 z" />
    <path
       style="fill:#0000ff;stroke-width:0.264583"
       id="path969"
       d="m 53.220424,62.087571 c 0.752244,0.12455 1.502537,0.0769 2.25557,0.0076 0.703871,-0.06756 0.608324,-1.062987 -0.09555,-0.995426 v 0 c -0.684376,0.06882 -1.365437,0.10931 -2.049544,-0.006 -0.702778,-0.07812 -0.813258,0.915758 -0.110479,0.993879 z" />
    <path
       style="fill:#0000ff;stroke-width:0.264583"
       id="path971"
       d="m 57.445219,61.111079 c 0.029,0.415301 -0.203716,3.561995 0.841922,3.30577 0.31273,-0.07663 0.459717,-0.45094 0.689576,-0.67641 0.308131,-0.923025 0.546756,-1.872099 0.897207,-2.78104 0.146767,-0.380662 0.315093,-0.925576 0.734521,-1.097201 0.2414,0.47371 1.332256,0.746286 1.820793,0.869783 0.686443,0.169686 0.926415,-0.801095 0.23997,-0.97078 v 0 c -0.372364,-0.08938 -0.721207,-0.198477 -1.064832,-0.372343 -0.255106,-0.129074 -0.636561,-0.395732 -0.919758,-0.432035 -0.206227,-0.02643 -0.413472,0.04421 -0.62021,0.06631 -0.142049,0.105112 -0.304508,0.187148 -0.426145,0.315331 -0.846947,0.892519 -1.135346,2.804557 -1.554398,3.951623 0.414858,0.190564 0.216725,0.04998 0.560628,0.465704 0.07747,0.0378 -0.07385,-0.158149 -0.08801,-0.243186 -0.131429,-0.789477 -0.100856,-1.605653 -0.11127,-2.401528 0,-0.707107 -0.999998,-0.707107 -0.999998,0 z" />
    <path
       style="fill:#0000ff;stroke-width:0.264583"
       id="path973"
       d="m 64.98787,57.802263 c -0.392517,1.653249 -1.009139,3.264625 -1.241512,4.954519 -0.05371,0.390588 -0.110559,0.787731 -0.07516,1.180404 0.02979,0.330515 0.178662,0.63921 0.267993,0.958813 0.324054,0.206439 0.595734,0.542311 0.972162,0.619316 0.870923,0.178165 2.028904,-0.364144 2.755905,-0.708671 1.067543,-0.505912 1.999408,-1.13583 2.886887,-1.904376 0.107913,-0.146158 0.215826,-0.292314 0.323739,-0.43847 0.404413,-0.580043 -0.415888,-1.151972 -0.820304,-0.571931 v 0 c -0.0538,0.08578 -0.1076,0.171569 -0.161401,0.257352 -1.15946,1.023655 -3.040793,2.195926 -4.575984,2.453492 -0.140515,0.02357 -0.284912,-0.0051 -0.427366,-0.0077 -0.07447,-0.199435 -0.202015,-0.386498 -0.223406,-0.598305 -0.06681,-0.661532 0.181194,-1.769795 0.320103,-2.362941 0.278884,-1.190847 0.658352,-2.357868 0.956115,-3.543985 0.203332,-0.677243 -0.754433,-0.964798 -0.957766,-0.287554 z" />
    <path
       style="fill:#0000ff;stroke-width:0.264583"
       id="path975"
       d="m 63.866529,61.675787 c 1.112303,-0.227052 2.240103,-0.33011 3.343844,-0.597744 0.686853,-0.168031 0.44922,-1.139386 -0.23763,-0.971357 v 0 c -1.095497,0.270666 -2.219936,0.357167 -3.323233,0.592934 -0.690256,0.153456 -0.473234,1.129623 0.217019,0.976167 z" />
    <path
       style="fill:#0000ff;stroke-width:0.264583"
       id="path977"
       d="m 71.708242,63.349692 c 0.427326,-0.835014 1.532157,-2.79927 0.956265,-3.743042 -0.117192,-0.192053 -0.330168,-0.305718 -0.495255,-0.458578 -0.210796,-0.03162 -0.419521,-0.105916 -0.632389,-0.09487 -1.127119,0.05851 -1.684649,1.276927 -2.059574,2.157339 -0.244462,0.788067 -0.499153,1.829199 0.29833,2.418691 0.441127,0.326075 0.696368,0.218167 1.195536,0.184007 1.129451,-0.337762 1.858992,-1.217996 2.491216,-2.161818 0.324004,-0.461647 1.010015,-1.210844 -0.611589,-0.848987 -0.118211,0.02638 -0.311161,1.001252 -0.317117,1.027258 -0.0024,0.725104 0.188556,1.370732 1.056844,1.444617 0.768789,0.06542 1.549556,-0.542369 2.163135,-0.911675 0.605385,-0.365389 0.08865,-1.221533 -0.516739,-0.856144 v 0 c -0.358822,0.217229 -0.734025,0.455123 -1.110655,0.643054 -0.11091,0.05534 -0.23832,0.0772 -0.343048,0.143508 -0.04374,0.02769 -0.03639,0.117438 -0.08692,0.128698 -0.137618,0.03067 -0.273577,-0.363431 -0.185317,-0.380222 0.02646,-0.132545 0.04149,-0.26789 0.07936,-0.397637 0.03808,-0.130455 0.21241,-0.260567 0.147627,-0.380031 -0.704231,-1.298687 -0.705323,-0.699929 -1.108681,-0.165577 -0.462084,0.703485 -0.990147,1.395587 -1.792422,1.724015 -0.02212,0.0072 -0.290026,0.105296 -0.356142,0.09782 -0.536181,-0.06061 -0.131826,-1.088612 -0.07989,-1.326065 0.264864,-0.659339 0.549211,-1.297244 1.216636,-1.612005 0.09637,-0.06822 0.17675,-0.17272 0.199509,0.114212 0.07746,0.976696 -0.583062,1.899883 -0.966099,2.738734 -0.363943,0.606256 0.493432,1.120947 0.857374,0.514694 z" />
    <path
       style="fill:#0000ff;stroke-width:0.264583"
       id="path979"
       d="m 76.060934,60.706931 c 0.0096,0.70459 -0.380386,2.181275 1.046549,1.661141 0.114998,-0.04191 0.692777,-1.232453 0.718698,-1.28365 0.320175,-0.506264 0.619424,-1.489284 1.247571,-1.72526 0.215996,-0.08114 0.311457,-0.037 0.532861,-0.0045 0.781042,0.185211 1.568547,0.225632 2.367663,0.228537 0.707104,0.0016 0.709319,-0.998432 0.0021,-0.999998 v 0 c -0.784365,-5.3e-4 -1.549593,-0.05515 -2.317829,-0.227185 -0.200568,-0.0016 -0.4034,-0.03502 -0.601703,-0.0049 -1.145346,0.173799 -1.644983,1.387893 -2.123154,2.282026 -0.109757,0.217292 -0.224147,0.432308 -0.329274,0.651878 -0.04843,0.10116 -0.194799,0.217471 -0.131186,0.309845 0.139515,0.202589 0.401913,0.286457 0.620081,0.400082 0.03264,0.01701 -0.04211,-0.06404 -0.04528,-0.100711 -0.0173,-0.200075 0.0045,-0.930368 0.0078,-1.087713 0.07041,-0.70359 -0.924616,-0.803171 -0.995029,-0.09958 z" />
    <path
       style="fill:#0000ff;stroke-width:0.264583"
       id="path985"
       d="m 139.82943,32.471394 c 0.0339,6.13484 -0.3228,12.26401 -0.42712,18.39723 -0.025,1.46751 -0.0242,2.93535 -0.0363,4.40303 0.0233,2.88088 0.0565,5.77036 0.42413,8.63222 0.0863,0.67167 0.17085,1.43445 0.48676,2.05536 1.07448,-0.58853 0.91203,-0.15373 0.93971,-0.99596 0.006,-0.19829 0.0141,-0.39654 0.0212,-0.59481 0.0251,-0.70666 -0.97423,-0.74221 -0.99937,-0.0356 v 0 c -0.007,0.20066 -0.0151,0.40129 -0.0214,0.60198 -0.0269,0.84773 -0.18703,0.5404 0.91964,0.51362 -0.34905,-1.05417 -0.47849,-2.4927 -0.56173,-3.62507 -0.18252,-2.48321 -0.16574,-3.97347 -0.20894,-6.54356 0.0431,-5.2479 0.006,-3.696 0.15501,-9.11588 0.10924,-3.96336 0.29215,-7.92722 0.32233,-11.89242 0.005,-0.62385 -0.011,-1.24768 -0.0164,-1.87151 -0.0504,-0.70531 -1.04788,-0.63398 -0.99745,0.0713 z" />
    <path
       style="fill:#0000ff;stroke-width:0.264583"
       id="path987"
       d="m 141.45728,33.166694 c 8.50502,-0.47092 17.02626,-0.18614 25.53689,-0.5186 2.67919,-0.10466 5.35524,-0.27845 8.03285,-0.41768 10.44201,-0.74669 20.86506,-1.72804 31.30208,-2.53903 0.99712,-0.057 1.98584,-0.19522 2.96288,-0.39781 0.0519,-0.0108 0.36572,-0.15581 0.47988,-0.049 -0.034,-0.005 -0.10417,-0.0488 -0.10214,-0.0144 0.003,0.0502 0.0683,0.0742 0.10752,0.10565 0.34717,0.279 0.7126,0.33794 1.14443,0.37496 0.4851,-0.0124 0.98091,0.0404 1.46497,-0.008 0.40901,-0.0734 0.24116,-0.054 0.50087,-0.0778 -0.241,0.0694 -0.28656,-0.55136 -0.51434,-0.48818 -0.21488,0.0596 -0.0771,0.43933 -0.11044,0.65983 -0.40169,2.66045 -0.67862,5.32632 -0.95193,8.00297 -0.3891,4.62968 -0.45416,9.29524 -0.10259,13.93033 0.23129,3.04927 0.73922,6.06337 1.27674,9.06953 0.12869,0.83574 0.24677,1.47876 0.31908,2.29133 0.0126,0.14223 0.0402,0.39872 -0.006,0.56971 -0.002,0.009 -0.0146,-0.0192 -0.009,-0.0267 0.0714,-0.0935 0.15485,-0.17728 0.23227,-0.26591 -0.67922,0.1966 -0.40118,1.15717 0.27804,0.96057 v 0 c 0.13885,-0.10642 0.30045,-0.1884 0.41655,-0.31926 0.0771,-0.0869 0.10282,-0.44652 0.10344,-0.53229 0.007,-0.95987 -0.24048,-1.90749 -0.3502,-2.85353 -0.53022,-2.96274 -1.03323,-5.93395 -1.26215,-8.93915 -0.34934,-4.58598 -0.28605,-9.2023 0.0985,-13.78308 0.36501,-3.57778 0.29768,-3.22883 0.71945,-6.38397 0.0694,-0.51946 0.14623,-1.03793 0.22405,-1.5562 0.0556,-0.37031 0.28788,-1.35059 -0.46824,-1.33029 -0.13926,0.0162 -0.27481,0.0586 -0.41435,0.0723 -0.45311,0.0444 -0.91641,-0.003 -1.37057,0.0109 -0.48587,-0.0277 -0.56576,-0.12114 -0.96755,-0.43545 -0.53392,-0.10888 -0.96949,0.0563 -1.50133,0.14763 -1.04469,0.17932 -1.05583,0.15293 -2.27547,0.26871 -10.4285,0.81043 -20.8431,1.7905 -31.27655,2.53737 -2.66864,0.13888 -5.33572,0.31226 -8.00594,0.41664 -8.53115,0.33351 -17.07313,0.0458 -25.59853,0.52206 -0.70444,0.0613 -0.61777,1.05752 0.0867,0.99623 z" />
    <path
       style="fill:#0000ff;stroke-width:0.264583"
       id="path991"
       d="m 139.49754,65.258324 c 2.12363,0.0794 2.38567,0.10923 4.88599,0.0769 11.18181,-0.14475 22.35823,-0.79727 33.52299,-1.37685 9.29206,-0.492 18.58823,-0.90749 27.88766,-1.2322 2.83104,-0.0988 5.66917,-0.20664 8.50311,-0.21461 -0.01,0.003 -0.0196,0.006 -0.0294,0.01 0.68378,0.18014 0.93853,-0.78687 0.25475,-0.96701 v 0 c -0.0761,-0.0142 -0.1522,-0.0285 -0.22829,-0.0427 -2.84553,0.009 -5.69485,0.11604 -8.53756,0.2153 -9.30426,0.3249 -18.60526,0.7406 -27.90215,1.23285 -11.14646,0.57866 -22.30438,1.22937 -33.46782,1.37551 -2.45195,0.0321 -2.72464,0.003 -4.79875,-0.0728 -0.7042,-0.064 -0.79477,0.93185 -0.0906,0.99589 z" />
    <path
       style="fill:#0000ff;stroke-width:0.264583"
       id="path995"
       d="m 148.69698,27.194785 c 1.4316,-0.0987 3.46044,-0.23727 4.75304,-0.33564 5.77075,-0.43918 3.09037,-0.28692 9.62714,-0.70585 5.62605,-0.36057 7.06407,-0.41769 12.80404,-0.71686 6.37218,-0.2986 12.74437,-0.59825 19.11943,-0.82951 2.74468,-0.0996 5.51138,-0.24909 8.26022,-0.20075 0.707,0.0121 0.72414,-0.98773 0.0171,-0.99985 v 0 c -2.76826,-0.0463 -5.55176,0.10106 -8.31614,0.20135 -6.37949,0.23144 -12.7561,0.53128 -19.13269,0.83012 -5.74552,0.29949 -7.18859,0.35685 -12.82036,0.71784 -6.55139,0.41993 -3.8579,0.26675 -9.63008,0.70606 -1.24546,0.0948 -3.36497,0.23995 -4.77231,0.3372 -0.7042,0.064 -0.61363,1.05994 0.0906,0.99589 z" />
    <path
       style="fill:#0000ff;stroke-width:0.264583"
       id="path997"
       d="m 200.37585,21.356475 c 1.86966,0.91746 3.76853,1.77295 5.65323,2.65845 1.11723,0.52492 0.97646,0.12596 1.09305,0.73686 -0.17744,-0.0753 -0.34144,-0.25256 -0.53232,-0.22582 -0.54119,0.0758 -1.03455,0.3527 -1.55534,0.51826 -0.66997,0.21299 -1.34444,0.41154 -2.01666,0.61731 -0.67611,0.20706 -0.38328,1.16323 0.29283,0.95617 v 0 c 0.22086,-0.0677 3.51346,-1.0452 3.82756,-1.25552 0.38924,-0.26064 0.56042,-0.7508 0.84064,-1.1262 -0.15595,-0.20604 -0.25989,-0.46474 -0.46784,-0.61813 -0.31625,-0.23328 -0.70688,-0.34363 -1.06256,-0.51075 -0.48384,-0.22733 -0.97096,-0.44759 -1.45591,-0.67255 -1.39495,-0.64711 -2.78429,-1.30564 -4.16982,-1.97268 -0.63258,-0.31598 -1.07944,0.57862 -0.44686,0.8946 z" />
    <path
       style="fill:#0000ff;stroke-width:0.264583"
       id="path999"
       d="m 217.94291,33.052943 c -0.64601,7.26248 -1.06995,14.54417 -1.50851,21.82176 -0.1782,3.27043 -0.12939,2.26691 -0.25956,4.97374 -0.0145,0.30149 -0.14522,0.62073 -0.0424,0.90452 0.0875,0.24149 0.37422,0.35191 0.56133,0.52787 0.70591,0.0412 0.76411,-0.95715 0.0582,-0.9983 v 0 c 0.12646,0.17242 0.22155,0.66153 0.37937,0.51726 0.22235,-0.20326 0.0279,-0.60186 0.0423,-0.90276 0.12986,-2.70066 0.0811,-1.69745 0.25893,-4.96218 0.43832,-7.27396 0.86204,-14.55201 1.50779,-21.81085 0.0502,-0.70533 -0.94723,-0.77637 -0.99747,-0.0711 z" />
    <path
       style="fill:#0000ff;stroke-width:0.264583"
       id="path1001"
       d="m 215.87966,36.830483 c 0.7392,-1.06395 1.34945,-2.21158 1.95145,-3.35663 0.26899,-0.51165 0.0827,-0.44081 0.33863,-0.51009 -0.18297,0.0499 -0.43107,10e-4 -0.54892,0.14964 -0.0893,0.11257 0.0581,0.28168 0.0972,0.41993 0.40617,1.43531 0.90886,2.60233 1.59506,3.92589 0.45549,0.87717 1.1738,1.56408 1.72903,2.36906 0.40421,0.58019 1.22472,0.009 0.82051,-0.57163 v 0 c -0.53773,-0.76567 -1.20779,-1.43246 -1.6622,-2.25856 -0.50971,-0.97836 -0.94284,-1.92168 -1.2825,-2.97246 -0.0123,-0.0382 -0.44397,-1.4669 -0.50264,-1.51958 -0.23431,-0.21037 -0.59655,-0.20187 -0.89483,-0.30281 -0.10387,0.1039 -0.22636,0.19205 -0.31163,0.3117 -0.27087,0.38012 -0.42782,0.82982 -0.65122,1.23965 -0.46845,0.85941 -0.94866,1.71822 -1.50992,2.52111 -0.39229,0.58831 0.43971,1.14309 0.832,0.55478 z" />
    <path
       style="fill:#0000ff;stroke-width:0.264583"
       id="path1005"
       d="m 148.19193,42.015904 c 1.12949,-1.89206 2.01221,-3.92403 2.85486,-5.95658 0.5955,-1.4364 0.25009,-0.71216 0.7197,-1.65161 -0.23052,0.0846 -0.50167,0.0982 -0.69156,0.25389 -0.10454,0.0857 -0.0911,0.25855 -0.098,0.39357 -0.0177,0.34668 0.0178,0.69404 0.0246,1.04111 0.0192,0.98548 0.047,1.92747 0.20244,2.901 0.0693,0.17525 0.0717,0.39547 0.20786,0.52574 1.42746,1.36575 2.29145,-2.0071 2.51633,-2.81293 0.0539,-0.21592 0.54497,-1.6558 -0.92258,-0.43012 -0.24628,0.20569 -0.067,0.6392 -0.0702,0.96007 -0.009,0.94606 0.0734,2.02642 0.23987,2.9529 0.0829,0.46163 0.22199,0.91141 0.33298,1.36711 0.19236,0.34519 0.319,0.73629 0.57706,1.03555 0.63942,0.74151 1.60696,0.82801 2.31835,0.16031 0.15465,-0.14515 0.22992,-0.35648 0.34488,-0.53472 0.34279,-0.61847 -0.53186,-1.10323 -0.87464,-0.48477 v 0 c -0.37919,1.12562 -1.04908,0.33727 -1.39463,-0.41538 -0.32723,-1.31438 -0.3773,-1.30519 -0.49751,-2.72356 -0.0364,-0.42961 -0.0474,-0.8614 -0.0485,-1.29255 -5.2e-4,-0.26242 0.19741,-0.57362 0.0434,-0.78606 -0.85903,-1.18459 -0.90496,-0.50659 -1.01223,-0.0755 -0.17622,0.64263 -0.24519,0.98181 -0.51294,1.59885 -0.18511,0.4266 -0.40471,0.4493 -0.26719,0.81128 0.0373,0.0982 0.10956,0.37613 0.14787,0.27831 0.0398,-0.10161 -0.0941,-0.19692 -0.14119,-0.29538 -0.15449,-0.92627 -0.17129,-1.8251 -0.1897,-2.76384 -0.004,-0.17646 -2.3e-4,-1.90636 -0.18343,-2.08041 -0.22893,-0.2175 -0.63124,-0.0196 -0.94686,-0.0294 -0.50216,1.01617 -0.14365,0.255 -0.74609,1.70924 -0.81504,1.96744 -1.6694,3.93327 -2.75209,5.77035 -0.40556,0.57924 0.41361,1.15279 0.81917,0.57355 z" />
    <path
       style="fill:#0000ff;stroke-width:0.264583"
       id="path1007"
       d="m 156.68124,41.078374 c 1.20116,-0.23811 2.63586,-0.54929 3.38212,-1.63375 0.13938,-0.20256 0.20827,-0.44548 0.31241,-0.66822 0.0199,-0.2402 0.0763,-0.48015 0.0597,-0.7206 -0.0478,-0.69084 -0.50386,-1.33866 -1.28283,-1.26342 -0.65384,0.0631 -0.9672,0.51806 -1.39761,0.93088 -0.18758,0.28405 -0.40329,0.55141 -0.56274,0.85215 -0.63531,1.19817 -0.94166,2.70925 -0.52821,4.03096 0.0884,0.28257 0.24465,0.53925 0.36698,0.80888 0.45208,0.65035 0.97727,1.27661 1.8864,1.10746 0.63926,-0.11894 1.49771,-0.75736 2.01039,-1.09206 0.59092,-0.38836 0.0417,-1.22404 -0.54922,-0.83568 v 0 c -0.13655,0.0904 -1.44908,1.06982 -1.76314,1.00909 -0.29302,-0.0567 -0.52324,-0.42628 -0.68058,-0.61666 -0.097,-0.19378 -0.21945,-0.37681 -0.2911,-0.58134 -0.47594,-1.35858 0.0614,-2.84809 0.82283,-3.98024 0.002,-0.002 0.66746,-0.73445 0.71071,-0.74641 0.18918,-0.0523 0.24397,0.26203 0.25886,0.338 0.0238,0.12171 0.0118,0.24777 0.0177,0.37165 -0.0427,0.1268 -0.059,0.26588 -0.12816,0.38041 -0.57078,0.94484 -1.88996,1.11985 -2.86105,1.33264 -0.69032,0.15317 -0.4737,1.12943 0.21661,0.97626 z" />
    <path
       style="fill:#0000ff;stroke-width:0.264583"
       id="path1009"
       d="m 163.25046,34.444524 c -0.23076,1.74945 -0.19613,3.51631 -0.24594,5.27552 -0.0776,2.74082 -0.0334,-0.45053 -0.0575,1.77467 0.0425,0.19591 0.0163,0.42098 0.12761,0.58773 0.14584,0.21854 0.35111,0.43328 0.60317,0.50735 0.99083,0.29114 2.88819,-0.74861 3.78337,-1.17975 0.19163,-0.12426 0.38327,-0.24853 0.5749,-0.37279 0.59081,-0.38852 0.0414,-1.22405 -0.54945,-0.83553 v 0 c -0.1532,0.1025 -0.30641,0.20499 -0.45961,0.30749 -0.83065,0.40064 -1.61435,0.74675 -2.48583,1.05077 -0.13358,0.0466 -0.27664,0.0734 -0.39925,0.14404 -0.0493,0.0284 -0.0561,0.18167 -0.0959,0.14106 -0.0826,-0.0843 -0.0661,-0.2267 -0.0991,-0.34005 0.02,-2.03085 -0.018,0.88298 0.0575,-1.77269 0.0494,-1.73963 0.0139,-3.48686 0.24349,-5.21677 0.0502,-0.70532 -0.94724,-0.77637 -0.99748,-0.071 z" />
    <path
       style="fill:#0000ff;stroke-width:0.264583"
       id="path1011"
       d="m 162.23859,40.934014 c 1.60133,-0.0982 3.19138,-0.31655 4.79393,-0.3897 0.70634,-0.0328 0.66001,-1.03169 -0.0463,-0.99893 v 0 c -1.58707,0.0747 -3.16239,0.2815 -4.74759,0.38864 -0.70711,0 -0.70711,0.99999 0,0.99999 z" />
    <path
       style="fill:#0000ff;stroke-width:0.264583"
       id="path1013"
       d="m 169.86688,42.230924 c 1.12695,-1.23229 2.12445,-2.69314 2.14777,-4.43396 0.004,-0.28154 -0.0693,-0.55885 -0.10397,-0.83827 -0.1274,-0.20416 -0.18689,-0.47187 -0.38219,-0.61247 -0.90169,-0.64911 -1.81183,0.0926 -2.32063,0.81559 -0.51699,0.73458 -0.60565,1.25353 -0.87164,2.10001 -0.23329,1.05802 -0.726,3.45855 0.97978,3.66186 0.24523,0.0292 0.48661,-0.0847 0.72992,-0.12709 1.37454,-0.80669 1.80543,-2.40743 2.5703,-3.70696 0.0331,-0.0354 0.14727,-0.0998 0.0992,-0.10625 -0.25427,-0.0343 -0.51438,-0.0108 -0.7696,0.0157 -0.0424,0.004 -0.0952,0.0332 -0.10375,0.075 -0.13152,0.63964 -0.0765,1.66943 -0.0551,2.32176 0.0942,0.27553 0.11302,0.5898 0.28248,0.82659 0.45127,0.63057 1.02856,0.74173 1.76373,0.57535 0.38681,-0.0876 0.72257,-0.32718 1.08385,-0.49077 0.63586,-0.30934 0.19839,-1.20857 -0.43746,-0.89924 v 0 c -0.14026,0.0752 -1.16703,0.80074 -1.47395,0.46313 -0.12439,-0.13683 -0.14617,-0.33973 -0.21925,-0.5096 -0.0265,-0.72671 0.0234,-1.42753 0.0465,-2.15181 0.007,-0.22475 0.1587,-0.51662 -0.001,-0.6746 -0.6465,-0.63826 -0.81042,-0.28341 -1.07892,0.0505 -0.63379,1.09298 -1.03192,2.37587 -1.97941,3.24908 -0.0558,0.0411 -0.24321,0.21274 -0.34903,0.17505 -0.6689,-0.2382 -0.20101,-2.03768 -0.13202,-2.45425 0.26429,-0.88537 0.45235,-1.54165 1.06899,-2.24831 0.0707,-0.081 0.16112,-0.14255 0.23757,-0.21815 0.0458,-0.0453 0.0644,-0.14689 0.12866,-0.14404 0.0833,0.004 0.12917,0.10558 0.19376,0.15837 0.0338,0.18943 0.10008,0.37587 0.10139,0.56829 0.0104,1.52221 -0.88924,2.77761 -1.8626,3.85217 -0.50013,0.49986 0.20677,1.20716 0.70691,0.7073 z" />
    <path
       style="fill:#0000ff;stroke-width:0.264583"
       id="path1015"
       d="m 174.89146,32.883264 c -0.46661,1.52431 -0.69318,3.10999 -0.87813,4.68905 -0.079,0.67461 -0.25563,2.33953 -0.21472,3.08976 0.019,0.34896 0.11954,0.68866 0.17932,1.03299 0.19538,0.23353 0.31179,0.56853 0.58614,0.7006 1.19275,0.57418 2.7688,-0.70621 3.64638,-1.37768 0.56015,-0.43154 -0.0501,-1.22371 -0.61029,-0.79218 v 0 c -0.70814,0.54983 -1.24198,0.85337 -2.02589,1.26986 -0.10655,0.0566 -0.19055,0.18151 -0.31115,0.18493 -0.11504,0.003 -0.20126,-0.11169 -0.30189,-0.16753 -0.0544,-0.2725 -0.14763,-0.54005 -0.16319,-0.81748 -0.041,-0.73166 0.13051,-2.33895 0.20636,-2.98995 0.17571,-1.50799 0.38886,-3.02288 0.82685,-4.48059 0.24167,-0.66453 -0.69812,-1.0063 -0.93979,-0.34178 z" />
    <path
       style="fill:#0000ff;stroke-width:0.264583"
       id="path1017"
       d="m 179.05737,37.109884 c -0.19565,1.12136 -0.41359,2.24183 -0.46834,3.38181 -0.0166,0.34482 -0.12074,1.28631 0.36875,1.53209 0.30067,0.15097 0.67203,0.0337 1.00805,0.0506 0.22594,-0.15786 0.45188,-0.31573 0.67782,-0.47359 0.55998,-0.43176 -0.0506,-1.2237 -0.61061,-0.79193 v 0 c -0.10813,0.0997 -0.21626,0.19944 -0.32439,0.29916 0.0143,0.10248 0.0831,0.21213 0.0429,0.30747 -0.0208,0.0494 -0.14564,0.0135 -0.15613,-0.0391 -0.0519,-0.26016 -0.0225,-0.53078 -0.0103,-0.79578 0.0513,-1.11474 0.26859,-2.20973 0.45867,-3.3062 0.11635,-0.69747 -0.87002,-0.86203 -0.98637,-0.16456 z" />
    <path
       style="fill:#0000ff;stroke-width:0.264583"
       id="path1019"
       d="m 180.53211,33.694894 c 0.1707,-0.43145 0.37096,-0.99469 0.619,-1.39117 0.10015,-0.16009 0.24133,-0.29052 0.36199,-0.43578 0.44067,-0.55299 -0.34138,-1.1762 -0.78206,-0.62321 v 0 c -0.15899,0.20568 -0.34052,0.39575 -0.47696,0.61703 -0.27539,0.4466 -0.49025,1.06056 -0.67971,1.54547 -0.2034,0.67722 0.75433,0.96488 0.95774,0.28766 z" />
    <path
       style="fill:#0000ff;stroke-width:0.264583"
       id="path1021"
       d="m 186.1163,33.454014 c 0.17597,-0.63625 0.32101,-1.28074 0.50714,-1.91424 0.0124,-0.0423 0.0889,-0.13176 0.0454,-0.12426 -1.3811,0.23846 -0.99971,0.12421 -1.16392,1.4722 -0.26504,1.86147 -0.5927,3.71301 -0.86616,5.57322 -0.15661,1.06534 -0.34369,2.11027 -0.2652,3.18643 0.10623,0.14625 0.21245,0.29251 0.31868,0.43876 0.58787,0.39295 1.14358,-0.43843 0.55571,-0.83137 v 0 c 0.0406,0.10242 0.0813,0.20485 0.12196,0.30727 -0.10087,-0.97222 0.11698,-1.99488 0.25725,-2.94921 0.27494,-1.87054 0.60488,-3.7323 0.87043,-5.60426 0.0487,-0.39997 0.29562,-0.82581 0.14596,-1.19991 -0.14494,-0.36232 -0.57437,-0.54105 -0.91708,-0.72769 -0.0595,-0.0324 -0.0476,0.12693 -0.0668,0.19188 -0.19176,0.64969 -0.33912,1.31133 -0.51958,1.96407 -0.15352,0.69024 0.82262,0.90735 0.97615,0.21711 z" />
    <path
       style="fill:#0000ff;stroke-width:0.264583"
       id="path1023"
       d="m 188.35795,35.700904 c -0.95128,0.63492 -1.79359,1.40856 -2.58985,2.22513 -0.23928,0.24539 -0.91767,0.95168 -1.13013,1.30508 -0.091,0.15135 -0.12884,0.32885 -0.19325,0.49328 0.14009,0.23712 0.18229,0.57277 0.42028,0.71137 0.35091,0.20434 1.37038,-0.0966 1.68611,-0.16901 0.59687,-0.13681 1.07423,-0.29299 1.68811,-0.28696 0.19635,0.002 0.38816,0.0597 0.58224,0.0895 0.74457,0.2874 0.48377,1.27111 1.1488,1.6767 0.29687,0.18106 0.66298,0.21008 0.99446,0.31511 1.74464,-0.11066 0.88258,0.003 2.58645,-0.34003 0.69277,-0.14169 0.49238,-1.12141 -0.20038,-0.97972 v 0 c -1.48857,0.30939 -0.76247,0.20055 -2.17591,0.34209 -0.15064,10e-4 -0.30844,0.0501 -0.45191,0.004 -0.29462,-0.0943 -0.32057,-0.4788 -0.41083,-0.69256 -0.17578,-0.41627 -0.31432,-0.72889 -0.7006,-1.00221 -0.19918,-0.14094 -0.44045,-0.21011 -0.66067,-0.31517 -0.27123,-0.0309 -0.54071,-0.0933 -0.81369,-0.0927 -0.65628,0.002 -1.17886,0.15914 -1.81111,0.30738 -0.0632,0.0148 -0.88081,0.153 -0.93327,0.29399 -0.0525,0.14095 0.001,0.3008 0.002,0.45119 0.0865,-0.50612 0.75927,-1.07371 1.07657,-1.40024 0.73924,-0.76075 1.52014,-1.48309 2.40126,-2.07883 0.60643,-0.36366 0.0921,-1.22127 -0.5143,-0.85761 z" />
    <path
       style="fill:#0000ff;stroke-width:0.264583"
       id="path1025"
       d="m 144.33266,47.575034 c -0.18182,1.8496 -0.0734,3.71998 -0.33299,5.5614 -0.0742,0.30667 -0.10153,0.58142 -0.0725,0.89249 0.14637,0.69179 1.12471,0.48478 0.97834,-0.20701 v 0 c -0.0833,0.3212 0.0864,-0.46592 0.0846,-0.54702 0.25779,-1.85831 0.16488,-3.74254 0.33851,-5.60926 0.0641,-0.7042 -0.93183,-0.7948 -0.99589,-0.0906 z" />
    <path
       style="fill:#0000ff;stroke-width:0.264583"
       id="path1027"
       d="m 146.14273,47.894134 c 0.62221,-0.40883 2.63013,-1.53131 3.24502,-0.59488 0.0605,0.0921 0.0315,0.21812 0.0473,0.32719 -0.0288,0.67686 -0.37043,1.34393 -1.02696,1.59459 0.1768,0.29648 0.28864,0.64306 0.53041,0.88944 0.0777,0.0792 0.22242,-0.0206 0.33289,-0.01 0.15049,0.0149 0.30729,0.025 0.44531,0.0868 0.53884,0.24125 0.5878,0.81249 0.65471,1.31216 -0.0502,0.7866 -0.35564,2.02478 -1.39595,1.96358 -0.57525,-0.0339 -0.90805,-0.41373 -1.34499,-0.73984 -0.61066,-0.6456 -1.4053,-1.2868 -1.68651,-2.17412 -0.0194,-0.0613 0.0171,-0.12749 0.0257,-0.19124 -0.0472,-0.70553 -1.04498,-0.63876 -0.99777,0.0668 v 0 c 0.0255,0.18987 0.0145,0.38835 0.0766,0.5696 0.35659,1.04181 1.27369,1.808 2.01905,2.5555 0.82547,0.52621 1.187,0.97577 2.21862,0.86384 1.08607,-0.11783 1.75952,-1.08899 1.98445,-2.06775 0.0779,-0.33921 0.0545,-0.69398 0.0817,-1.04097 -0.0777,-0.3253 -0.0953,-0.6712 -0.23317,-0.97591 -0.35824,-0.79163 -1.07274,-1.1847 -1.90421,-1.22681 -0.17419,-0.009 -0.45913,-0.1241 -0.5218,0.0387 -0.11975,0.31105 0.0833,0.66138 0.12496,0.99207 0.81607,-0.37068 1.44735,-1.14284 1.56846,-2.05353 0.0379,-0.28492 -0.0257,-0.57429 -0.0386,-0.86143 -0.14884,-0.25897 -0.23187,-0.5692 -0.44652,-0.77692 -1.17664,-1.13862 -3.29075,-0.0399 -4.37254,0.6635 -0.55818,0.43409 0.0557,1.22348 0.61389,0.78939 z" />
    <path
       style="fill:#0000ff;stroke-width:0.264583"
       id="path1029"
       d="m 156.67603,52.202614 c 0.0143,-1.03855 0.0546,-3.36799 -1.19182,-3.82738 -0.24256,-0.0894 -0.51592,-0.0338 -0.77387,-0.0507 -0.23659,0.13651 -0.50261,0.23151 -0.70978,0.40954 -0.75642,0.65003 -1.11127,1.94011 -0.81837,2.88638 0.0721,0.23306 0.22472,0.43312 0.33707,0.64968 0.20215,0.16072 0.37688,0.36386 0.60644,0.48217 1.45405,0.74942 2.48762,-0.52994 3.23449,-1.56583 0.14268,-0.17428 1.20376,-1.56224 -0.50878,-0.57922 -0.0667,0.0383 0.0619,1.49236 0.0782,1.6312 0.32566,0.76007 0.0527,0.43919 0.92849,0.85744 0.69535,0.1284 0.87693,-0.85498 0.18158,-0.98338 v 0 c 0.0168,0.28928 0.0495,0.26775 -0.11742,0.005 -0.0772,-0.60632 -0.063,-0.3621 -0.0713,-1.00665 -0.002,-0.14776 0.0906,-0.3277 -10e-4,-0.44333 -0.88201,-1.10831 -0.8468,-0.71577 -1.30318,-0.0622 -0.30326,0.42944 -0.86242,1.31327 -1.45855,1.38211 -0.3015,0.0348 -0.45552,-0.0888 -0.70204,-0.21634 -0.0722,-0.10396 -0.16872,-0.19475 -0.21672,-0.31189 -0.30574,-0.74622 0.10488,-1.59408 0.61009,-2.13701 0.0503,-0.0382 0.0878,-0.10945 0.15074,-0.11455 0.27066,-0.0219 0.41904,0.34003 0.48105,0.50919 0.27785,0.75798 0.29782,1.60076 0.26916,2.39522 -0.0641,0.7042 0.9318,0.79483 0.99589,0.0906 z" />
    <path
       style="fill:#0000ff;stroke-width:0.264583"
       id="path1031"
       d="m 161.67048,51.732334 c 0.33621,-0.8641 0.73102,-2.44803 -0.0619,-3.20594 -0.192,-0.18351 -0.44996,-0.33556 -0.71507,-0.35148 -0.27896,-0.0168 -0.53121,0.17379 -0.79682,0.26069 -0.16035,0.17718 -0.37232,0.31875 -0.48106,0.53155 -0.36629,0.71678 -0.15787,1.62414 0.58055,2.0122 0.65859,0.34611 0.96552,0.11893 1.6173,-0.0643 1.07902,-0.79327 0.28688,-0.15998 1.08841,-0.91072 0.042,-0.0394 0.19297,-0.0871 0.13791,-0.10389 -0.27415,-0.0836 -0.60942,-0.26623 -0.85228,-0.114 -0.224,0.14042 -0.12538,0.51371 -0.19305,0.76927 -0.10912,0.41212 -0.22487,0.82245 -0.3373,1.23368 -0.39509,1.41773 -0.69379,2.86401 -1.14889,4.26509 -0.0942,0.28998 -0.18131,0.58535 -0.32,0.85686 -0.32705,0.64024 -0.27225,0.31669 -0.2604,0.14145 0.002,-0.0681 0.0301,-0.14021 0.007,-0.20426 -0.13748,-0.37927 -0.72234,-1.11093 -0.47226,-1.54481 0.034,-0.059 0.11238,-0.077 0.16857,-0.11554 0.73907,-0.46134 1.60669,-0.61379 2.41968,-0.88478 0.845,-0.28165 1.03886,-0.40317 1.84727,-0.78508 1.09309,-0.64196 0.57951,-0.31133 1.54631,-0.98319 0.57998,-0.4045 0.008,-1.22472 -0.57205,-0.82021 v 0 c -0.87769,0.61457 -0.41174,0.31204 -1.40281,0.89988 -0.71065,0.33855 -0.94845,0.47923 -1.69176,0.7266 -1.0261,0.34149 -2.13087,0.51627 -2.96318,1.26949 -0.11638,0.20557 -0.28121,0.39046 -0.34913,0.61671 -0.18772,0.62527 0.34861,1.94615 0.80108,2.36483 0.21342,0.19749 0.49535,0.30468 0.74303,0.45702 0.22989,-0.0715 0.49313,-0.0755 0.68968,-0.21457 0.40468,-0.28632 0.64369,-1.11405 0.76918,-1.50087 0.45628,-1.40649 0.75767,-2.85771 1.15337,-4.281 0.11449,-0.41911 0.23368,-0.83697 0.34346,-1.25734 0.0757,-0.28999 0.30537,-0.58841 0.21302,-0.87354 -0.52207,-1.61197 -1.12273,-0.40754 -1.69386,0.0486 -0.34315,0.17084 -0.875,0.42763 -1.0586,-0.1013 -0.03,-0.0865 -0.0562,-0.18408 -0.0332,-0.27275 0.0276,-0.1066 0.11739,-0.18632 0.17608,-0.27948 0.0582,-0.30134 0.23901,-0.42908 0.4101,0.0269 0.23744,0.63277 0.0215,1.29868 -0.18238,1.90259 -0.34343,0.61811 0.53071,1.10378 0.87414,0.48567 z" />
    <path
       style="fill:#0000ff;stroke-width:0.264583"
       id="path1033"
       d="m 159.74991,47.212074 c 0.99206,-0.14328 1.98171,-0.30137 2.97342,-0.4471 0.69959,-0.10283 0.55418,-1.0922 -0.14541,-0.98937 v 0 c -1.0157,0.14931 -2.02953,0.30972 -3.04503,0.4603 -0.69025,0.15346 -0.47323,1.12963 0.21702,0.97617 z" />
    <path
       style="fill:#0000ff;stroke-width:0.264583"
       id="path1035"
       d="m 172.17006,50.064284 c 0.14448,-0.37752 0.29955,-0.75115 0.43345,-1.13255 0.2044,-0.58218 0.66861,-2.07518 0.83608,-2.67437 0.0961,-0.34387 0.16645,-0.69459 0.26204,-1.03861 0.0505,-0.18164 0.16156,-0.34955 0.1759,-0.53752 0.007,-0.0931 -0.10187,0.15654 -0.15281,0.23481 -0.27068,0.0159 -0.63406,-0.15677 -0.81202,0.0478 -0.22196,0.25514 -0.0674,0.67303 -0.10723,1.00885 -0.18363,1.54718 -0.38142,3.09005 -0.52655,4.64165 0.0147,0.97284 -0.25002,1.16312 1.10184,0.7521 0.0612,-0.0186 0.0562,-0.11703 0.066,-0.18027 0.0171,-0.11153 0.10812,-0.27636 0.0138,-0.33823 -0.26597,-0.17437 -0.61285,-0.1703 -0.91927,-0.25544 -0.0834,0.0963 -0.16679,0.19268 -0.25018,0.28902 -0.42566,0.56463 0.37285,1.16661 0.79851,0.60198 v 0 c 0.006,-0.0223 0.0121,-0.0446 0.0182,-0.067 -0.2133,-0.14917 -0.45171,-0.26769 -0.63989,-0.44752 -0.0318,-0.0304 0.0603,-0.16499 0.0396,-0.12609 -0.22191,0.41705 0.18367,0.33281 0.80489,0.4823 0.0398,0.01 -0.0227,-0.0787 -0.0341,-0.11807 -0.001,-0.16658 -0.002,-0.33316 -0.004,-0.49974 0.10509,-1.1247 0.22505,-2.24692 0.36317,-3.36814 0.0518,-0.42058 0.11219,-0.84009 0.16213,-1.2609 0.0398,-0.33531 0.20187,-0.68324 0.10707,-1.00732 -0.11504,-0.39323 -0.46516,-0.67459 -0.69775,-1.01188 -0.0942,0.10432 -0.21769,0.18831 -0.28269,0.31296 -0.13209,0.25335 -0.41476,1.49059 -0.44456,1.59732 -0.34757,1.24453 -0.742,2.48065 -1.22208,3.68066 -0.29287,0.64361 0.61734,1.05778 0.9102,0.41417 z" />
    <path
       style="fill:#0000ff;stroke-width:0.264583"
       id="path1037"
       d="m 175.89795,46.256434 c -0.56584,0.8654 -0.80682,2.07073 -1.56211,2.80226 -0.2351,0.2277 -0.21073,0.20978 -0.36572,0.11897 0.0451,-0.0185 0.0913,-0.0764 0.13535,-0.0555 0.11543,0.0547 0.16046,0.2313 0.28595,0.25505 0.093,0.0176 0.15393,-0.11097 0.23711,-0.15607 0.50159,-0.27196 0.66723,-0.36095 1.2073,-0.17099 0.0598,0.0709 0.12768,0.13564 0.17933,0.21265 0.0617,0.092 0.44647,0.8185 0.45276,0.82968 0.2898,0.5148 0.59665,0.89812 1.03451,1.29159 1.29029,0.76892 2.23316,0.19307 3.28065,-0.67455 0.54042,-0.45601 -0.10447,-1.22029 -0.6449,-0.76428 v 0 c -0.5945,0.51371 -1.1739,1.0563 -1.97876,0.68494 -0.27493,-0.22864 -0.32262,-0.24005 -0.54319,-0.55978 -0.49662,-0.7199 -0.70471,-1.60964 -1.57688,-1.99932 -0.2476,-0.0362 -0.49291,-0.12142 -0.74281,-0.10853 -0.86256,0.0445 -2.4303,0.88735 -1.75016,1.98871 0.10254,0.16605 0.36189,0.14619 0.54284,0.21929 0.17717,-0.0406 0.36776,-0.0429 0.53151,-0.12185 1.15247,-0.55531 1.51603,-2.30504 2.1512,-3.30629 0.34363,-0.618 -0.53035,-1.10396 -0.87398,-0.48597 z" />
    <path
       style="fill:#0000ff;stroke-width:0.264583"
       id="path1039"
       d="m 180.56074,48.130894 c -0.20017,0.79845 -0.51432,2.35792 0.6957,2.59445 0.63797,0.12471 1.06077,-0.25857 1.54458,-0.55499 1.05042,-0.91241 1.41192,-1.93507 1.90314,-3.16146 -0.0876,0.36874 0.10963,-0.40626 -0.93159,-0.25001 -0.14621,0.0219 -0.0605,0.29003 -0.0748,0.43718 -0.0606,0.62156 -0.0222,1.22631 0.0469,1.84392 0.0744,0.18591 0.10535,0.39577 0.22308,0.55773 0.45206,0.62189 1.17209,0.61729 1.79558,0.27993 0.17768,-0.0961 0.31762,-0.2497 0.47644,-0.37455 0.5409,-0.45544 -0.10318,-1.2204 -0.64409,-0.76496 v 0 c -0.0585,0.0559 -0.60109,0.56159 -0.71412,0.45345 -0.0731,-0.0699 -0.0957,-0.1782 -0.1436,-0.2673 -0.0635,-0.52049 -0.0991,-1.03833 -0.0539,-1.56315 0.0104,-0.12033 0.13851,-0.26744 0.0582,-0.35763 -0.75218,-0.84448 -0.7145,-0.77519 -0.96638,-0.36634 -0.38862,0.9708 -0.72348,1.96416 -1.5217,2.69599 -0.004,0.003 -0.532,0.37499 -0.62505,0.46421 -0.0373,0.0357 -0.0479,0.15116 -0.0922,0.12455 -0.38137,-0.22922 -0.0804,-1.17979 -0.0275,-1.47492 0.22352,-0.67085 -0.7252,-0.98695 -0.94872,-0.3161 z" />
    <path
       style="fill:#0000ff;stroke-width:0.264583"
       id="path1041"
       d="m 185.96586,46.437474 c 0.34899,1.34422 0.02,0.0932 0.41854,1.55671 0.10117,0.37153 0.28725,1.80598 1.051,1.63385 0.34846,-0.0785 0.55479,-0.45008 0.83218,-0.67513 0.53331,-0.97603 1.00565,-1.98505 1.53762,-2.96166 0.20976,-0.38509 0.5033,-1.0227 0.8899,-1.30212 0.53387,-0.46366 -0.12184,-1.21867 -0.65571,-0.75501 v 0 c -0.49261,0.46017 -0.79908,1.00422 -1.12242,1.59773 -0.50962,0.93544 -0.96832,1.899 -1.46438,2.8416 0.0533,0.0901 0.11117,0.17771 0.15989,0.2704 0.0431,0.082 0.14879,0.33909 0.11513,0.25282 -0.34686,-0.88921 -0.55604,-1.8238 -0.80391,-2.7465 -0.20317,-0.6773 -1.161,-0.38998 -0.95784,0.28731 z" />
    <path
       style="fill:#0000ff;stroke-width:0.264583"
       id="path1043"
       d="m 189.85908,45.491064 c 0.20668,0.58318 0.83108,3.64566 1.75014,3.49326 0.32946,-0.0546 0.56282,-0.35964 0.84423,-0.53946 0.68037,-0.98318 1.31476,-3.23373 2.46133,-3.70466 0.0959,-0.0394 0.20666,-0.0173 0.30999,-0.026 0.69154,-0.14755 0.48287,-1.12554 -0.20867,-0.97799 v 0 c -0.22452,0.0613 -0.46552,0.0795 -0.67355,0.18388 -1.404,0.70424 -1.88915,2.63157 -2.65251,3.87883 0.0658,0.075 0.14907,0.13766 0.19749,0.22489 0.0226,0.0408 0.037,0.17361 0.005,0.13979 -0.58154,-0.61285 -0.75765,-2.22996 -1.09357,-3.01422 -0.24159,-0.66456 -1.18141,-0.32289 -0.93982,0.34166 z" />
    <path
       style="fill:#0000ff;stroke-width:0.264583"
       id="path1045"
       d="m 196.10567,45.404464 c 1.28884,0.28782 3.3198,0.37432 4.01484,-1.06781 0.10846,-0.22505 0.0988,-0.48977 0.1482,-0.73465 -0.0858,-0.22814 -0.10384,-0.49513 -0.25741,-0.68441 -0.57691,-0.71106 -1.53609,-0.46309 -2.16509,-0.009 -0.65277,0.4714 -0.84423,0.8859 -1.29155,1.54564 -0.14744,0.3255 -0.32394,0.63933 -0.44233,0.97648 -0.35226,1.00322 -0.49051,2.37113 0.16866,3.29677 0.15067,0.21159 0.37113,0.36354 0.55669,0.5453 0.25604,0.0977 0.49765,0.24899 0.76812,0.29311 1.03714,0.16921 1.71781,-0.33419 2.50108,-0.89819 0.56738,-0.42199 -0.0294,-1.22439 -0.59679,-0.80239 v 0 c -0.60641,0.47094 -1.20333,0.92015 -2.00673,0.66124 -0.10859,-0.0806 -0.23903,-0.13814 -0.32578,-0.24192 -0.74746,-0.89418 -0.21119,-2.38611 0.21007,-3.27712 0.38408,-0.59322 0.70963,-1.12394 1.33325,-1.48687 0.0294,-0.0171 0.35089,-0.16082 0.39965,-0.14871 0.0635,0.0158 0.10267,0.0813 0.15401,0.12193 0.0138,0.0829 0.0638,0.16776 0.0414,0.24877 -0.29214,1.05417 -2.1548,0.88585 -2.92272,0.70391 -0.67724,-0.20333 -0.9648,0.75443 -0.28755,0.95776 z" />
    <path
       style="fill:#0000ff;stroke-width:0.264583"
       id="path1047"
       d="m 202.7987,40.527624 c -0.48446,1.94242 -0.94621,3.97482 -0.75479,5.9922 0.026,0.27347 0.098,0.5406 0.14695,0.8109 0.085,0.18743 0.12332,0.4041 0.25497,0.56228 0.91334,1.09739 2.23008,0.16704 3.01364,-0.5295 0.5225,-0.47645 -0.1513,-1.21537 -0.67379,-0.73892 v 0 c -0.10744,0.10151 -0.20584,0.21353 -0.32231,0.30453 -0.0793,0.0619 -0.99577,0.63657 -1.11915,0.52468 -0.087,-0.0789 -0.11378,-0.20555 -0.17067,-0.30832 -0.0434,-0.21976 -0.10786,-0.43638 -0.1302,-0.65926 -0.19131,-1.90818 0.26088,-3.833 0.71308,-5.67093 0.20341,-0.67722 -0.75433,-0.96488 -0.95773,-0.28766 z" />
    <path
       style="fill:#0000ff;stroke-width:0.264583"
       id="path1049"
       d="m 205.13997,43.324394 c -0.3186,1.36056 -0.51892,2.74435 -0.6894,4.12999 -0.0863,0.70182 0.90622,0.82388 0.99253,0.12206 v 0 c 0.1664,-1.35374 0.3613,-2.70581 0.67302,-4.03494 0.15352,-0.69024 -0.82262,-0.90735 -0.97615,-0.21711 z" />
    <path
       style="fill:#0000ff;stroke-width:0.264583"
       id="path1051"
       d="m 201.16576,44.656184 c 0.59746,-0.13361 1.21164,-0.21259 1.8214,-0.26754 0.33443,-0.0301 0.66605,0.007 1.00105,-0.0122 0.25875,-0.0285 0.51702,-0.059 0.77427,-0.0987 0.69864,-0.10906 0.54441,-1.09709 -0.15424,-0.98803 v 0 c -0.22878,0.0361 -0.45881,0.0615 -0.68876,0.0891 -0.46087,0.0406 0.12115,-0.002 -0.57552,-10e-4 -0.8029,5.3e-4 -1.61005,0.15465 -2.39522,0.30217 -0.69025,0.15345 -0.47323,1.12962 0.21702,0.97616 z" />
    <path
       style="fill:#0000ff;stroke-width:0.264583"
       id="path1053"
       d="m 206.41059,42.021344 c 0.24602,-0.64136 1.19648,-1.16071 1.47445,-1.73939 0.0623,-0.12972 0.0716,-0.27878 0.10737,-0.41818 0.0393,-0.70602 -0.9592,-0.76153 -0.99846,-0.0555 v 0 c 0.0304,-0.0421 0.12145,-0.16852 0.0911,-0.12636 -0.4687,0.652 -1.16903,1.12553 -1.54864,1.85378 -0.34343,0.61811 0.53071,1.10378 0.87414,0.48567 z" />
    <path
       style="fill:#0000ff;stroke-width:0.264583"
       id="path1055"
       d="m 151.9656,62.907724 c 0.89514,-1.81043 1.67937,-3.68664 2.95257,-5.27313 0.0469,-0.0172 0.19035,-0.0549 0.14056,-0.0515 -0.15698,0.0106 -0.33482,-0.0129 -0.46625,0.0736 -0.0723,0.0476 -0.0378,0.17049 -0.0361,0.25697 0.005,0.24737 0.029,0.49418 0.0554,0.74018 0.11679,1.08693 0.13523,1.02236 0.37636,2.1363 0.35422,0.96681 0.65766,2.33216 1.52715,3.00855 0.10427,0.0811 0.23728,0.11621 0.35592,0.17431 0.67271,0.21785 0.9808,-0.73351 0.30809,-0.95135 v 0 c 0.1047,0.16377 0.0691,0.0947 -0.18392,-0.14344 -0.12758,-0.16697 -0.24232,-0.34474 -0.3404,-0.53058 -0.35247,-0.66789 -0.4427,-1.03978 -0.68979,-1.77053 -0.23208,-1.05605 -0.24271,-0.96448 -0.35657,-2.00279 -0.033,-0.30097 -0.0436,-1.36405 -0.31708,-1.63268 -0.53151,-0.52207 -0.77935,-0.19446 -1.15547,0.0698 -1.30619,1.64957 -2.15227,3.56686 -3.06484,5.44894 -0.31632,0.63241 0.57803,1.07976 0.89436,0.44736 z" />
    <path
       style="fill:#0000ff;stroke-width:0.264583"
       id="path1057"
       d="m 152.88624,61.378164 c 0.58895,0 1.17791,0 1.76687,0 0.7071,0 0.7071,-1 0,-1 v 0 c -0.58896,0 -1.17792,0 -1.76687,0 -0.70711,0 -0.70711,1 0,1 z" />
    <path
       style="fill:#0000ff;stroke-width:0.264583"
       id="path1059"
       d="m 157.92981,60.192194 c 0.0413,0.71906 0.0896,1.43869 0.17636,2.15397 0.0132,0.10899 -0.0605,0.33946 0.0485,0.32578 1.15229,-0.14478 0.98077,-0.301 0.98524,-1.02719 0.0193,-0.21654 0.0134,-0.43683 0.058,-0.64961 0.15995,-0.76363 0.71093,-1.59909 1.416,-1.96004 0.1505,-0.077 0.32224,-0.10253 0.48336,-0.1538 0.74251,-0.0616 1.40247,0.30264 2.08198,0.54646 0.66563,0.23863 1.00309,-0.70271 0.33746,-0.94134 v 0 c -0.9089,-0.3255 -1.76589,-0.75695 -2.76197,-0.54463 -0.24628,0.0973 -0.50913,0.16007 -0.73882,0.2918 -1.20296,0.68996 -1.82038,2.07374 -1.87595,3.40569 -0.004,0.76074 -0.20136,0.89669 1.00364,0.88409 0.0953,-10e-4 -0.0314,-0.18801 -0.0429,-0.28258 -0.0828,-0.68035 -0.12867,-1.36479 -0.17079,-2.0486 0,-0.7071 -1,-0.7071 -1,0 z" />
    <path
       style="fill:#0000ff;stroke-width:0.264583"
       id="path1061"
       d="m 165.041,56.880934 c -0.16033,1.26211 -0.24585,2.53107 -0.13198,3.80165 0.0562,0.62677 0.14014,1.45805 0.5386,2.00207 0.15911,0.21724 0.41901,0.33833 0.62852,0.50749 0.28793,0.004 0.5825,0.0721 0.86379,0.0106 0.25161,-0.0551 0.47339,-0.20898 0.68872,-0.35029 0.68535,-0.44974 1.09085,-1.10198 1.33875,-1.85973 0.20664,-0.67624 -0.7497,-0.96848 -0.95635,-0.29224 v 0 c -0.20505,0.75971 -0.75606,1.22184 -1.38159,1.65873 -0.0909,-0.0304 -0.21154,-0.0175 -0.27281,-0.0913 -0.35798,-0.43095 -0.4018,-1.12857 -0.44859,-1.6293 -0.11499,-1.23032 -0.0245,-2.45872 0.12999,-3.68093 0.0543,-0.70502 -0.94277,-0.78178 -0.99705,-0.0768 z" />
    <path
       style="fill:#0000ff;stroke-width:0.264583"
       id="path1063"
       d="m 163.36774,60.502544 c 1.32753,-0.2635 2.66201,-0.49158 3.99431,-0.73014 0.69603,-0.12464 0.51977,-1.10898 -0.17627,-0.98435 v 0 c -1.33882,0.23975 -2.67983,0.46904 -4.01386,0.73385 -0.69341,0.13847 -0.49759,1.11911 0.19582,0.98064 z" />
    <path
       style="fill:#0000ff;stroke-width:0.264583"
       id="path1065"
       d="m 171.324,61.102754 c 0.14353,-0.67268 0.65226,-2.87697 -0.31528,-3.22295 -0.24765,-0.0885 -0.52567,0.0192 -0.7885,0.0288 -0.18777,0.14421 -0.40098,0.26028 -0.56332,0.43261 -0.67299,0.71446 -1.07317,1.83942 -1.21714,2.79257 -0.0318,0.2106 -0.0266,0.42514 -0.0399,0.63771 0.0544,0.19443 0.0616,0.40884 0.16323,0.5833 0.3783,0.64937 1.26423,0.92599 1.95857,0.70822 0.15665,-0.0491 0.29245,-0.14928 0.43867,-0.22392 0.91044,-0.81128 1.49268,-1.95168 1.93916,-3.07279 0.11302,-0.61422 0.2678,-1.20708 -0.92024,-0.85346 -0.27655,0.0823 -0.52872,1.60443 -0.56115,1.81647 0.0399,1.26108 0.42443,2.03897 1.84642,2.02336 0.73212,-0.008 0.97486,-0.19635 1.61905,-0.48615 0.63923,-0.3023 0.21171,-1.2063 -0.42752,-0.90401 v 0 c -0.59457,0.30113 -0.88206,0.40382 -1.54873,0.38347 -0.0812,-0.002 -0.18105,0.0426 -0.2434,-0.009 -0.22925,-0.19125 -0.22442,-0.62738 -0.25577,-0.86655 0.0853,-0.66665 0.021,-0.44136 0.22657,-1.04187 0.0295,-0.0863 0.1631,-0.1938 0.0964,-0.25602 -0.20687,-0.19304 -0.51335,-0.23849 -0.765,-0.36785 -0.008,-0.004 0.0151,-0.009 0.0227,-0.0137 -0.007,0.0697 -0.0131,0.13936 -0.0197,0.20904 -0.35988,0.92425 -0.84555,1.83751 -1.5128,2.57581 -0.31354,0.26185 -0.4565,0.17364 -0.81185,0.0696 -0.0439,-0.0129 -0.10239,0.0137 -0.13633,-0.017 -0.0576,-0.0522 -0.0731,-0.13714 -0.10961,-0.20571 0.037,-1.06445 0.40084,-2.17526 1.13664,-2.96456 -0.0461,-0.0623 -0.12045,-0.11152 -0.13834,-0.18695 -0.008,-0.0341 0.0557,-0.099 0.0771,-0.0713 0.2967,0.38362 -0.0183,1.7365 -0.0987,2.18718 -0.22352,0.67085 0.72521,0.98695 0.94872,0.3161 z" />
    <path
       style="fill:#0000ff;stroke-width:0.264583"
       id="path1067"
       d="m 175.19216,59.374624 c -0.23951,0.75783 -0.55744,1.50757 -0.60439,2.31183 -0.01,0.16473 -0.0576,0.36109 0.0411,0.4933 0.15496,0.20755 0.39452,0.48393 0.6477,0.42928 0.2947,-0.0636 0.3865,-0.46283 0.57976,-0.69424 0.28105,-0.82774 0.46438,-1.68494 0.73961,-2.5144 0.13734,-0.41391 0.28381,-0.97911 0.66823,-1.2406 0.018,0.0366 0.0171,0.0925 0.0541,0.10988 0.11327,0.0535 0.24298,0.0611 0.36531,0.088 0.9354,0.20577 1.85697,0.25867 2.81208,0.27081 0.70705,0.009 0.71916,-0.99137 0.0121,-0.99993 v 0 c -0.65763,-0.008 -1.31888,-0.0111 -1.97052,-0.1146 -0.11623,-0.0185 -1.12705,-0.24775 -1.27226,-0.24289 -0.22974,0.008 -0.44892,0.0991 -0.67339,0.1487 -0.12405,0.12539 -0.26956,0.23269 -0.37217,0.37616 -0.71995,1.00666 -0.84574,2.58362 -1.28415,3.72951 0.93452,0.32936 -0.97051,-0.38345 0.68668,0.53655 0.0685,0.038 -0.0483,-0.15244 -0.0447,-0.23068 0.0344,-0.74624 0.34773,-1.43734 0.56366,-2.14061 0.22352,-0.67085 -0.7252,-0.98695 -0.94872,-0.3161 z" />
    <path
       style="fill:#0000ff;stroke-width:0.264583"
       id="path1144"
       d="m 32.64164,35.740996 c 0.610137,8.293219 1.051568,16.597084 1.361308,24.906599 0.107071,2.000271 0.138017,4.004024 0.239387,6.004573 0.0463,0.913712 0.0429,1.842096 0.385101,2.699639 0.287192,0.646158 1.200999,0.240009 0.913807,-0.406148 v 0 c -0.305646,-0.536694 -0.277982,-1.904529 -0.29972,-2.333742 -0.101277,-1.999551 -0.132318,-4.002302 -0.23927,-6.001578 -0.310489,-8.327257 -0.752727,-16.648885 -1.364713,-24.959783 -0.06395,-0.70421 -1.059852,-0.613767 -0.9959,0.09044 z" />
    <path
       style="fill:#0000ff;stroke-width:0.264583"
       id="path1150"
       d="m 33.595966,34.961401 c 0.11603,-2.10317 -0.237903,-4.179078 -0.545203,-6.248934 0.118229,-0.462571 -0.328192,0.254984 -0.02355,0.311274 0.872373,0.161184 3.605593,0.283916 3.977211,0.297495 1.374725,0.05024 2.750595,0.06157 4.125891,0.09236 10.927779,0.0045 21.849194,-0.428696 32.774493,-0.592047 7.702341,-0.115163 8.546211,-0.07474 15.75303,-0.02722 0.707091,0.0047 0.713676,-0.99532 0.0066,-0.999976 v 0 c -7.221403,-0.0475 -8.064048,-0.08796 -15.780628,0.02742 -10.910867,0.16314 -21.817849,0.595384 -32.731178,0.592074 -1.363499,-0.03031 -2.727553,-0.04166 -4.090498,-0.09094 -0.888894,-0.03214 -1.777005,-0.08716 -2.664024,-0.153265 -0.417007,-0.03108 -0.82959,-0.110834 -1.246862,-0.138176 -0.755462,-0.04951 -1.105307,-0.0181 -1.089612,0.828029 0.29669,1.993771 0.642273,3.992637 0.537797,6.018787 -0.05878,0.704659 0.93776,0.787783 0.99654,0.08312 z" />
    <path
       style="fill:#0000ff;stroke-width:0.264583"
       id="path1154"
       d="m 89.823075,28.563083 c 5.051287,0.493942 10.139645,0.433197 15.209725,0.443317 1.20189,0.101624 2.44515,-0.147248 3.63715,0.101521 0.69461,0.132331 0.88176,-0.850001 0.18715,-0.982332 v 0 c -1.26203,-0.224467 -2.54713,-0.0806 -3.82231,-0.119187 -5.037505,-0.01003 -10.093274,0.05147 -15.112174,-0.438354 -0.703593,-0.07039 -0.803137,0.924648 -0.09954,0.995035 z" />
    <path
       style="fill:#0000ff;stroke-width:0.264583"
       id="path1160"
       d="m 108.81052,32.548533 c 0.24925,5.488697 0.35042,10.983807 0.72767,16.46645 0.25047,3.640005 0.50855,5.978247 0.86438,9.552265 0.28591,2.661491 0.63229,5.315966 0.93366,7.97565 0.0398,0.351142 0.086,0.701802 0.11194,1.054238 0.0592,0.804478 -0.0681,0.159472 0.0552,0.701992 1.09548,0.04416 0.77919,0.300998 1.19179,-0.271462 0.40827,-0.577337 -0.40821,-1.154714 -0.81647,-0.577377 v 0 c -0.29919,0.434946 -0.2318,0.183785 0.57248,0.529971 -0.0169,0.28834 0.0128,-0.193207 -0.009,-0.488746 -0.0259,-0.356193 -0.073,-0.710533 -0.1132,-1.065393 -0.30069,-2.653794 -0.64624,-5.302392 -0.93173,-7.957962 -0.3536,-3.550415 -0.61217,-5.894372 -0.86101,-9.50876 -0.37738,-5.481635 -0.47787,-10.975787 -0.72751,-16.463468 -0.0372,-0.706127 -1.03581,-0.653526 -0.99862,0.0526 z" />
    <path
       style="fill:#0000ff;stroke-width:0.264583"
       id="path1162"
       d="m 36.694864,69.268265 c 9.464489,0.17258 18.931389,0.124246 28.39681,0.212497 10.408425,0.09704 14.369198,0.184217 24.72137,0.360601 13.620246,0.244922 7.242609,0.147463 19.132716,0.304726 0.70704,0.0093 0.72027,-0.990563 0.0132,-0.999913 v 0 C 97.073319,68.988989 103.44968,69.08642 89.830081,68.841508 79.471318,68.665023 75.513053,68.577885 65.09776,68.48078 55.641422,68.39262 46.183613,68.44069 36.728198,68.26882 c -0.706715,-0.02357 -0.740047,0.975876 -0.03333,0.999445 z" />
    <path
       style="fill:#0000ff;stroke-width:0.264583"
       id="path1184"
       d="m 51.551948,72.562309 c -1.085411,1.020212 -2.229363,1.972649 -3.538842,2.68914 -0.128439,0.08041 -1.173898,0.556086 -1.164778,0.693833 0.06293,0.950703 0.131239,0.816488 0.76812,0.961395 1.134811,0.299982 2.058596,1.035781 2.97516,1.732841 0.916094,0.696701 0.667486,0.501806 1.451637,1.174097 0.254939,0.06491 0.714388,0.949124 0.415787,0.316545 -0.06949,0.703683 0.925677,0.801946 0.995159,0.09826 v 0 c -0.02985,-0.156371 -0.02719,-0.322641 -0.08954,-0.469117 -0.08162,-0.191733 -0.58029,-0.620162 -0.671111,-0.705374 -0.804508,-0.687654 -0.583697,-0.517736 -1.503114,-1.2153 -1.038479,-0.787897 -2.093862,-1.596805 -3.384719,-1.913882 -0.08304,-0.01027 -0.223739,-0.110487 -0.249131,-0.03076 -0.367494,1.153922 -0.05615,0.739409 0.182247,0.617209 0.115271,-0.05909 0.236437,-0.10613 0.351959,-0.164719 0.136528,-0.06924 0.269248,-0.145743 0.403871,-0.218615 1.370113,-0.755623 2.57977,-1.7395 3.715565,-2.812777 0.532299,-0.465468 -0.125971,-1.21825 -0.65827,-0.752782 z" />
  </g>
</svg>
