<?xml version="1.0" encoding="UTF-8" standalone="no"?>
<!-- Created with Inkscape (http://www.inkscape.org/) -->

<svg
   width="95.477859mm"
   height="33.605854mm"
   viewBox="0 0 95.477859 33.605854"
   version="1.1"
   id="svg5"
   inkscape:version="1.2.2 (b0a8486541, 2022-12-01)"
   sodipodi:docname="metalik-bağ.svg"
   xmlns:inkscape="http://www.inkscape.org/namespaces/inkscape"
   xmlns:sodipodi="http://sodipodi.sourceforge.net/DTD/sodipodi-0.dtd"
   xmlns="http://www.w3.org/2000/svg"
   xmlns:svg="http://www.w3.org/2000/svg">
  <sodipodi:namedview
     id="namedview7"
     pagecolor="#ffffff"
     bordercolor="#000000"
     borderopacity="0.25"
     inkscape:showpageshadow="2"
     inkscape:pageopacity="0.0"
     inkscape:pagecheckerboard="0"
     inkscape:deskcolor="#d1d1d1"
     inkscape:document-units="mm"
     showgrid="false"
     inkscape:zoom="2.5607385"
     inkscape:cx="224.5446"
     inkscape:cy="111.29602"
     inkscape:window-width="1916"
     inkscape:window-height="1026"
     inkscape:window-x="0"
     inkscape:window-y="0"
     inkscape:window-maximized="1"
     inkscape:current-layer="layer1" />
  <defs
     id="defs2" />
  <g
     inkscape:label="Layer 1"
     inkscape:groupmode="layer"
     id="layer1"
     transform="translate(-77.152786,-75.444749)">
    <path
       id="path191"
       style="fill:#0000ff;stroke-width:0.264583"
       d="m 98.040011,75.445524 c -2.47034,0.0071 -4.94094,0.06325 -7.409367,0.163298 -1.110724,0.05075 -2.221701,0.09444 -3.332097,0.151929 -3.214362,0.166428 -6.425139,0.394425 -9.639204,0.566372 -0.706305,0.03365 -0.658762,1.032558 0.04754,0.998906 3.217743,-0.172014 6.432536,-0.400275 9.650574,-0.566891 1.106066,-0.05726 2.212779,-0.100886 3.319176,-0.151411 4.912133,-0.199022 9.831557,-0.223141 14.744327,-0.03152 2.74119,0.106918 4.50105,0.232759 7.23159,0.403593 1.18001,0.08732 2.35974,0.176056 3.53984,0.261998 2.24788,0.163703 4.69568,0.343844 6.94738,0.467672 3.23347,0.177816 6.47171,0.288515 9.70742,0.416512 4.86758,0.207749 9.73929,0.307063 14.60634,0.527101 0.96364,0.04357 1.92686,0.09668 2.89026,0.145211 4.39801,0.238943 8.79086,0.558509 13.18421,0.869715 1.28717,0.07527 2.57387,0.160662 3.86178,0.222723 0.5351,0.0258 1.06169,0.05809 1.59525,0.01085 0.70383,-0.06807 0.60771,-1.063873 -0.0961,-0.995804 -0.47793,0.05227 -0.96988,0.0096 -1.44694,-0.01344 -1.28176,-0.06173 -2.56217,-0.14687 -3.84318,-0.221694 -4.40014,-0.311682 -8.80008,-0.631521 -13.20488,-0.870746 -0.9668,-0.04868 -1.93305,-0.102537 -2.90008,-0.146246 -4.86725,-0.219998 -9.7396,-0.318897 -14.60738,-0.526582 -3.22793,-0.127688 -6.45794,-0.238135 -9.68365,-0.415478 -2.24896,-0.123642 -4.69148,-0.303678 -6.93652,-0.467156 -1.18389,-0.08621 -2.36742,-0.17494 -3.55121,-0.262517 -2.74661,-0.17177 -4.50767,-0.298249 -7.2657,-0.405659 -2.46876,-0.09614 -4.93903,-0.137827 -7.409372,-0.130741 z" />
    <path
       style="fill:#0000ff;stroke-width:0.264583"
       id="path194"
       d="m 79.503555,108.74556 c 2.925619,0.19026 5.85915,0.0646 8.784857,-0.0524 0.886148,-0.04 1.772182,-0.0826 2.658441,-0.12015 2.485289,-0.1052 3.170565,-0.1348 5.686678,-0.17332 3.331793,-0.051 6.664419,-0.033 9.996419,-0.026 7.53333,-0.005 15.06645,-0.0821 22.59923,-0.16847 5.10111,-0.0751 10.20223,-0.17381 15.30402,-0.19145 2.44121,-0.008 5.05741,0.0102 7.49795,0.0226 4.39557,0.044 8.79314,0.0969 13.1811,0.3801 2.30644,0.14884 2.76856,0.20953 4.97638,0.42197 0.6187,0.0692 1.2374,0.13849 1.85609,0.20774 0.70272,0.0786 0.81392,-0.91517 0.1112,-0.9938 v 0 c -0.62385,-0.0698 -1.2477,-0.13956 -1.87156,-0.20935 -2.22503,-0.21388 -2.69398,-0.27531 -5.01715,-0.42505 -4.40457,-0.28391 -8.81875,-0.3376 -13.23095,-0.3816 -2.44967,-0.0125 -5.06052,-0.0311 -7.51075,-0.0226 -5.10305,0.0176 -10.20543,0.11639 -15.3078,0.19148 -7.52825,0.0864 -15.05685,0.16288 -22.58565,0.16841 -3.33997,-0.007 -6.680585,-0.0251 -10.020351,0.0262 -2.525581,0.0388 -3.217736,0.0686 -5.710008,0.17411 -0.884544,0.0374 -1.768866,0.0799 -2.653297,0.11993 -2.882207,0.1155 -5.772023,0.2401 -8.65428,0.0557 -0.704201,-0.064 -0.794768,0.93185 -0.09057,0.99589 z" />
    <path
       style="fill:#0000ff;stroke-width:0.264583"
       id="path259"
       d="m 79.503555,108.74556 c 2.925619,0.19026 5.85915,0.0646 8.784857,-0.0524 0.886148,-0.04 1.772182,-0.0826 2.658441,-0.12015 2.485289,-0.1052 3.170565,-0.1348 5.686678,-0.17332 3.331793,-0.051 6.664419,-0.033 9.996419,-0.026 7.53333,-0.005 15.06645,-0.0821 22.59923,-0.16847 5.10111,-0.0751 10.20223,-0.17381 15.30402,-0.19145 2.44121,-0.008 5.05741,0.0102 7.49795,0.0226 4.39557,0.044 8.79314,0.0969 13.1811,0.3801 2.30644,0.14884 2.76856,0.20953 4.97638,0.42197 0.6187,0.0692 1.2374,0.13849 1.85609,0.20774 0.70272,0.0786 0.81392,-0.91517 0.1112,-0.9938 v 0 c -0.62385,-0.0698 -1.2477,-0.13956 -1.87156,-0.20935 -2.22503,-0.21388 -2.69398,-0.27531 -5.01715,-0.42505 -4.40457,-0.28391 -8.81875,-0.3376 -13.23095,-0.3816 -2.44967,-0.0125 -5.06052,-0.0311 -7.51075,-0.0226 -5.10305,0.0176 -10.20543,0.11639 -15.3078,0.19148 -7.52825,0.0864 -15.05685,0.16288 -22.58565,0.16841 -3.33997,-0.007 -6.680585,-0.0251 -10.020351,0.0262 -2.525581,0.0388 -3.217736,0.0686 -5.710008,0.17411 -0.884544,0.0374 -1.768866,0.0799 -2.653297,0.11993 -2.882207,0.1155 -5.772023,0.2401 -8.65428,0.0557 -0.704201,-0.064 -0.794768,0.93185 -0.09057,0.99589 z" />
    <path
       style="fill:#ff0000;stroke-width:0.264583"
       id="path263"
       d="m 95.102139,88.834607 c -0.595609,1.507043 -0.680892,3.134683 -0.772409,4.733105 -0.05289,0.267356 -0.01627,0.333785 -0.06599,0.217776 -0.364763,0.605761 0.491916,1.121613 0.856678,0.51585 v 0 c 0.197541,-0.414695 0.123929,-0.190598 0.20768,-0.676471 0.08532,-1.490504 0.15154,-3.011487 0.702495,-4.418809 0.262657,-0.656513 -0.665795,-1.027967 -0.928452,-0.371451 z" />
    <path
       style="fill:#ff0000;stroke-width:0.264583"
       id="path265"
       d="m 93.19597,91.878749 c 1.289079,0.0019 2.582896,0.172099 3.829351,0.499735 0.09321,0.03845 0.18642,0.0769 0.279628,0.115356 0.657029,0.261366 1.026657,-0.667817 0.369628,-0.929183 v 0 C 97.542172,91.513363 97.409769,91.462065 97.277363,91.410768 95.91255,91.0582 94.496524,90.86253 93.08549,90.884869 c -0.702778,0.07812 -0.592299,1.071999 0.11048,0.99388 z" />
    <path
       style="fill:#ff0000;stroke-width:0.264583"
       id="path267"
       d="m 122.40923,89.433222 c -0.15548,1.657201 -0.42398,3.299732 -0.50187,4.96417 -0.006,0.120134 -0.0118,0.240268 -0.0177,0.3604 -0.0346,0.706263 0.96423,0.75515 0.9988,0.04889 v 0 c 0.006,-0.121102 0.0119,-0.242204 0.0178,-0.363307 0.076,-1.679985 0.36349,-3.336062 0.50294,-5.010152 0,-0.707107 -1,-0.707107 -1,0 z" />
    <path
       style="fill:#ff0000;stroke-width:0.264583"
       id="path269"
       d="m 119.86157,91.93772 c 1.96193,0.220898 3.92965,0.379007 5.9013,0.478523 0.70621,0.03561 0.75657,-0.963123 0.0504,-0.998731 v 0 c -1.9471,-0.09807 -3.89027,-0.25441 -5.8278,-0.472091 -0.70167,-0.08758 -0.82552,0.904722 -0.12386,0.992299 z" />
    <path
       style="fill:#ff0000;stroke-width:0.264583"
       id="path279"
       d="m 149.12822,89.407716 c -0.16972,1.062424 -0.31969,2.129269 -0.39988,3.202741 -0.0492,0.658323 -0.0446,0.911048 -0.0541,1.542421 0.0213,0.310313 0.0221,0.622572 0.0736,0.929851 0.13246,0.69459 1.11476,0.50727 0.9823,-0.187319 v 0 c -0.0679,-0.211059 0.028,-0.536827 -0.056,-0.72807 0.008,-0.590773 0.004,-0.84741 0.0497,-1.462011 0.0767,-1.032447 0.22143,-2.058112 0.38053,-3.080501 0.15352,-0.69024 -0.82262,-0.907352 -0.97614,-0.217112 z" />
    <path
       style="fill:#ff0000;stroke-width:0.264583"
       id="path281"
       d="m 146.88855,92.021561 c 1.71545,0.211532 3.44321,0.314317 5.16924,0.394941 0.51568,0.01945 0.30723,-0.0026 0.62761,0.03935 0.70201,0.08472 0.82182,-0.908079 0.1198,-0.992796 v 0 c -0.39989,-0.04553 -0.16667,-0.0254 -0.70078,-0.04547 -1.70471,-0.0795 -3.41119,-0.180636 -5.10539,-0.389908 -0.70278,-0.07812 -0.81326,0.915757 -0.11048,0.993878 z" />
    <path
       style="fill:#0000ff;stroke-width:0.264583"
       id="path291"
       d="m 84.813594,84.345461 c 0.763201,-0.01124 1.526492,-0.0034 2.289699,0.0021 0.707088,0.0051 0.714298,-0.994876 0.0072,-0.999971 v 0 c -0.782262,-0.0056 -1.564629,-0.01402 -2.346875,-7.94e-4 -0.706223,0.03533 -0.656257,1.034081 0.04997,0.998749 z" />
    <path
       style="fill:#0000ff;stroke-width:0.264583"
       id="path297"
       d="m 105.24824,99.05436 c 0.87187,0.131091 1.75577,0.158626 2.63588,0.184029 0.70682,0.02032 0.73556,-0.979263 0.0287,-0.999585 v 0 c -0.82404,-0.0236 -1.65127,-0.04918 -2.46843,-0.165008 -0.69336,-0.138729 -0.88955,0.841838 -0.19619,0.980564 z" />
    <path
       style="fill:#0000ff;stroke-width:0.264583"
       id="path299"
       d="m 108.75431,84.366033 c 1.01846,0.07116 2.03923,0.05024 3.05899,0.03044 0.70697,-0.01373 0.68753,-1.013555 -0.0194,-0.99981 v 0 c -1.01337,0.01974 -2.02744,0.03921 -3.03955,-0.03063 -0.70711,0 -0.70711,0.999998 0,0.999998 z" />
    <path
       style="fill:#0000ff;stroke-width:0.264583"
       id="path301"
       d="m 134.51822,86.408045 c 1.05739,-0.07162 2.11752,-0.0079 3.1733,0.05692 0.70579,0.04314 0.7668,-0.954998 0.061,-0.998138 v 0 c -1.10924,-0.06748 -2.22319,-0.133387 -3.33389,-0.05382 -0.70359,0.07041 -0.60401,1.065443 0.0996,0.99503 z" />
    <path
       style="fill:#0000ff;stroke-width:0.264583"
       id="path303"
       d="m 135.65402,100.34374 c 1.5665,-0.0737 3.13526,-0.0631 4.70271,-0.10482 0.70685,-0.0189 0.68018,-1.018502 -0.0267,-0.999642 v 0 c -1.59174,0.04257 -3.185,0.02928 -4.77558,0.109434 -0.70359,0.07039 -0.60405,1.065418 0.0995,0.995028 z" />
    <path
       style="fill:#0000ff;stroke-width:0.264583"
       id="path305"
       d="m 119.69364,101.91481 c 0.85534,0.0134 1.70929,0.0687 2.56325,0.11512 0.70607,0.0383 0.76029,-0.96019 0.0542,-0.99853 v 0 c -0.87201,-0.0474 -1.74403,-0.10377 -2.61747,-0.11659 -0.70711,0 -0.70711,1 0,1 z" />
    <path
       style="fill:#0000ff;stroke-width:0.264583"
       id="path477"
       d="m 87.145629,102.04571 c 0.494355,0.11261 0.997675,0.17505 1.504018,0.19125 0.188365,8e-4 0.367906,-0.0667 0.554057,-0.0817 0.1046,-0.008 0.220858,0.0165 0.324215,0.029 0.145351,-10e-4 0.195789,0.0966 0.07704,0.006 -0.03109,-0.0237 -0.118136,-0.10041 -0.0834,-0.0825 0.103336,0.0533 0.194911,0.1269 0.292365,0.19035 0.114377,-0.007 0.228756,-0.0135 0.343133,-0.0202 0.668446,-0.23061 0.342312,-1.17593 -0.326134,-0.94532 v 0 c 0.08863,0.002 0.177263,0.004 0.265893,0.006 0.07543,0.057 0.142185,0.12773 0.226283,0.17086 0.04376,0.0224 -0.06345,-0.076 -0.10164,-0.10693 -0.16247,-0.13179 -0.373303,-0.19112 -0.577548,-0.21198 -0.32153,-0.0367 -0.650621,-0.0525 -0.963832,0.0464 -0.443654,-0.0127 -0.884357,-0.0697 -1.317432,-0.16788 -0.690256,-0.15346 -0.907275,0.82271 -0.217022,0.97616 z" />
    <path
       style="fill:#0000ff;stroke-width:0.264583"
       id="path479"
       d="m 162.05863,99.447862 c 0.12739,0.03779 0.25323,0.08132 0.38219,0.113363 0.18023,0.04479 0.88162,0.18528 1.06394,0.218485 0.3368,0.06134 0.64551,0.116467 0.98768,0.128456 0.13837,0.0048 0.2768,-0.0075 0.4152,-0.01124 0.48102,-0.117361 0.26414,-0.03959 0.65644,-0.216408 0.63716,-0.306639 0.20351,-1.20772 -0.43365,-0.901081 v 0 c -0.15659,0.08715 -0.071,0.04636 -0.25884,0.118139 -0.0977,0.0048 -0.19526,0.01688 -0.29301,0.01431 -0.4717,-0.01246 -0.9405,-0.122809 -1.40074,-0.215654 -0.15176,-0.03061 -0.30431,-0.05785 -0.45476,-0.09434 -0.10999,-0.02667 -0.21733,-0.06334 -0.326,-0.09501 -0.66537,-0.239327 -1.00383,0.701653 -0.33845,0.94098 z" />
    <path
       style="fill:#0000ff;stroke-width:0.264583"
       id="path481"
       d="m 157.4225,85.535518 c 0.93895,0.311295 1.93392,0.345233 2.91147,0.265879 0.0947,-0.01196 0.18935,-0.02389 0.28402,-0.03585 0.70139,-0.08975 0.57446,-1.081665 -0.12693,-0.99191 v 0 c -0.08,0.0104 -0.16003,0.0208 -0.24004,0.03121 -0.84237,0.07215 -1.70197,0.04858 -2.51204,-0.217929 -0.67077,-0.223782 -0.98724,0.724821 -0.31648,0.948603 z" />
    <path
       style="fill:#00ff00;stroke-width:0.264583"
       id="path546"
       d="m 90.253298,83.120893 c 1.212688,-0.38154 2.459744,-0.697487 3.731389,-0.798986 1.13266,-0.0904 1.523654,-0.01558 2.657406,0.07091 1.308055,0.146944 2.614978,0.30562 3.926557,0.418994 0.83196,0.07191 1.66399,0.119999 2.4944,0.208862 0.63605,0.09445 1.03831,0.169355 1.52349,-0.313862 0.47637,-0.52256 -0.26264,-1.196252 -0.73901,-0.673695 v 0 c -0.003,0.0091 -0.014,0.01876 -0.009,0.02728 0.006,0.01074 0.0435,0.0039 0.0344,0.01199 -0.12174,0.108307 -0.66941,-0.128818 -0.70338,-0.04608 -0.83411,-0.08868 -1.66964,-0.137808 -2.50524,-0.20996 -1.318597,-0.113855 -2.632372,-0.27446 -3.947571,-0.42078 -0.480949,-0.03494 -0.96075,-0.09404 -1.442844,-0.104831 -1.827546,-0.04092 -3.631412,0.326277 -5.361819,0.890329 -0.664556,0.241591 -0.322892,1.181415 0.341662,0.939821 z" />
    <path
       style="fill:#00ff00;stroke-width:0.264583"
       id="path548"
       d="m 102.6151,80.821233 c 0.55625,0.512315 1.15818,0.972087 1.73611,1.459306 0.45617,0.384575 0.3139,0.224928 0.57703,0.592371 -0.40185,-0.250402 -0.62093,0.04514 -1.0472,0.250068 -0.26218,0.126037 -0.52915,0.241869 -0.79372,0.362802 -0.6429,0.294418 -0.22653,1.203613 0.41637,0.909198 v 0 c 0.27943,-0.12819 0.56261,-0.248515 0.8383,-0.384574 0.47439,-0.234127 1.21151,-0.542547 1.44538,-1.096457 0.0848,-0.200761 -0.0442,-0.433597 -0.0662,-0.650397 -0.10282,-0.128349 -0.1938,-0.267173 -0.30848,-0.38505 -0.13147,-0.135139 -0.28287,-0.249402 -0.42701,-0.370938 -0.5336,-0.449927 -1.0831,-0.881131 -1.61143,-1.337297 -0.4603,-0.536768 -1.21941,0.114197 -0.75911,0.650968 z" />
    <path
       style="fill:#00ff00;stroke-width:0.264583"
       id="path554"
       d="m 111.35932,87.504578 c -0.0325,0.341596 -0.046,0.685544 -0.0975,1.024787 -0.1872,1.232199 -0.46773,2.368495 -0.79156,3.576304 -0.34414,1.283528 -0.83754,2.899442 -1.22198,4.182912 -0.20289,0.677378 0.75507,0.964298 0.95795,0.286919 v 0 c 0.38818,-1.296122 0.88821,-2.933676 1.23456,-4.228853 0.33732,-1.261394 0.6261,-2.437173 0.81673,-3.724643 0.0548,-0.369983 0.0679,-0.74495 0.10181,-1.117426 0,-0.707106 -1,-0.707106 -1,0 z" />
    <path
       style="fill:#00ff00;stroke-width:0.264583"
       id="path562"
       d="m 108.86271,93.273998 c -0.0151,0.163465 -0.0284,0.327107 -0.0454,0.490389 -0.0652,0.626848 -0.0915,0.671111 -0.11972,1.334482 -0.0243,0.569375 -0.003,1.137703 0.0253,1.706226 0.0202,0.04169 0.0185,0.548585 0.0847,0.590974 0.0288,0.01844 -0.0186,-0.066 -0.0241,-0.09975 0.0245,0.08555 0.016,0.188687 0.0735,0.256672 0.21245,0.251494 0.51357,0.374674 0.81502,0.219112 0.20378,-0.105159 0.38117,-0.287068 0.54758,-0.439341 0.77639,-0.646115 1.55993,-1.287642 2.42064,-1.820545 0.41682,-0.258069 0.81458,-0.453911 1.24685,-0.676706 0.0257,0.297844 0.54018,-0.453131 0.64271,-0.245845 0.70306,-0.07555 0.59621,-1.069825 -0.10684,-0.994275 v 0 c -0.35318,0.05794 -0.67572,0.185195 -0.99456,0.351525 -0.4877,0.252113 -0.86935,0.4391 -1.34525,0.734851 -0.90257,0.560903 -1.72598,1.233744 -2.53943,1.913985 -0.0746,0.0686 -0.15648,0.130054 -0.22383,0.205788 -0.0355,0.03995 0.10964,0.0232 0.14645,0.05003 0.31698,0.230817 0.26362,0.153514 0.31709,0.429342 -0.0132,-0.222475 -0.0564,-0.234233 -0.0618,-0.526825 -0.0272,-0.528265 -0.0481,-1.05695 -0.0264,-1.586043 0.026,-0.632579 0.0541,-0.695896 0.11787,-1.311648 0.0174,-0.168357 0.0311,-0.337087 0.0467,-0.505629 0.0543,-0.705019 -0.94277,-0.781785 -0.99705,-0.07677 z" />
    <path
       style="fill:#00ff00;stroke-width:0.264583"
       id="path568"
       d="m 108.65675,99.790886 c 0.4285,1.151344 1.0781,2.232964 2.00801,3.050504 0.22088,0.19419 0.47064,0.35284 0.70595,0.52926 0.82897,0.45743 1.74083,0.73783 2.68894,0.78299 0.51211,0.0244 0.71296,-0.0134 1.21873,-0.0628 0.45778,-0.0612 0.90638,-0.15534 1.34711,-0.29128 0.0825,-0.0255 0.36176,-0.10152 0.39423,-0.1867 0.0828,-0.2173 0.0644,-0.46063 0.0966,-0.69095 -0.34684,-0.6162 -1.21828,-0.12569 -0.87143,0.49051 v 0 c 0.052,-0.19506 0.0797,-0.39833 0.15613,-0.58519 0.0133,-0.0324 0.13251,-0.0453 0.0984,-0.0371 -0.14326,0.0343 -0.27816,0.0984 -0.42103,0.13433 -0.2672,0.0672 -0.635,0.12527 -0.90039,0.17143 -0.41298,0.0433 -0.60469,0.0783 -1.02043,0.0626 -0.7668,-0.029 -1.51044,-0.24521 -2.19218,-0.59174 -0.1973,-0.14359 -0.40653,-0.27207 -0.5919,-0.43076 -0.82373,-0.70519 -1.38863,-1.65652 -1.76816,-2.66153 -0.22378,-0.670761 -1.17238,-0.354287 -0.9486,0.316476 z" />
    <path
       style="fill:#00ff00;stroke-width:0.264583"
       id="path570"
       d="m 115.3034,101.1446 c 0.37093,0.38053 0.74525,0.75861 1.10517,1.14971 0.0965,0.10485 0.19661,0.20704 0.28348,0.32001 0.0441,0.0573 0.10666,0.11614 0.10755,0.18846 5.3e-4,0.0526 -0.0711,-0.0774 -0.10666,-0.11617 -0.0395,-0.01 -0.0809,-0.0454 -0.11841,-0.0297 -0.13937,0.0583 -0.25595,0.16059 -0.38442,0.24007 -0.16867,0.10433 -0.3386,0.20662 -0.50699,0.31139 -0.35933,0.22358 -0.60829,0.36197 -0.91977,0.64741 -0.12015,0.11011 -0.2215,0.23912 -0.33226,0.35868 -0.0726,0.11055 -0.14518,0.2211 -0.21777,0.33165 -0.3772,0.59809 0.46863,1.13154 0.84584,0.53345 v 0 c 0.0382,-0.0652 0.0765,-0.1304 0.11475,-0.19561 0.0711,-0.0822 0.13433,-0.17202 0.21336,-0.24668 0.39332,-0.37159 0.89519,-0.6121 1.34675,-0.90115 0.17614,-0.11275 0.36938,-0.20498 0.5223,-0.34765 0.16589,-0.15478 0.28159,-0.35583 0.42239,-0.53374 -0.009,-0.19234 0.0211,-0.39083 -0.0281,-0.57702 -0.0459,-0.17388 -0.41804,-0.56455 -0.5165,-0.67153 -0.35518,-0.38593 -0.72409,-0.75954 -1.09089,-1.13433 -0.47572,-0.523147 -1.21557,0.14963 -0.73984,0.67278 z" />
    <path
       style="fill:#00ff00;stroke-width:0.264583"
       id="path572"
       d="m 126.75855,99.620709 c 1.85897,-0.358997 3.68704,-1.231257 5.12813,-2.462157 0.39662,-0.338767 0.74035,-0.734962 1.11052,-1.102442 0.87328,-0.985186 1.49894,-2.136444 2.13649,-3.276743 0.21758,-0.389162 0.42661,-0.824627 0.719,-1.168987 -0.0219,0.02336 -0.0438,0.0467 -0.0657,0.07006 0.58265,-0.400658 0.016,-1.22464 -0.56661,-0.823984 v 0 c -0.0482,0.04144 -0.0964,0.08288 -0.14461,0.124323 -0.32259,0.408916 -0.5625,0.858586 -0.81651,1.313413 -0.59161,1.05936 -1.16717,2.132586 -1.96918,3.054821 -0.33191,0.334613 -0.63931,0.695457 -0.99573,1.003839 -1.31426,1.137145 -2.94944,1.922584 -4.64633,2.273988 -0.70278,0.07816 -0.59225,1.072028 0.11052,0.993873 z" />
    <path
       style="fill:#00ff00;stroke-width:0.264583"
       id="path574"
       d="m 133.73049,91.954481 c 0.71788,-0.171868 1.4263,-0.387548 2.09036,-0.712708 0.23577,-0.156771 0.12184,-0.05836 0.32944,-0.308927 0.32537,-0.627804 -0.56248,-1.087943 -0.88785,-0.46014 v 0 c 0.15098,-0.164039 0.19192,-0.203533 0.11417,-0.126839 -0.58815,0.296781 -1.22669,0.472499 -1.86314,0.632447 -0.69026,0.153456 -0.47324,1.129623 0.21702,0.976167 z" />
    <path
       style="fill:#00ff00;stroke-width:0.264583"
       id="path576"
       d="m 134.99151,90.650554 c -0.0339,0.589568 -0.0963,1.181732 -0.0627,1.77298 0.017,0.300689 0.0466,0.434415 0.0943,0.716341 0.03,0.08551 0.0395,0.181295 0.0899,0.256543 0.25768,0.38404 0.34911,0.345911 0.83565,0.278593 0.0526,-0.0073 0.18042,-0.06022 0.13407,-0.0862 -0.0498,-0.02793 -0.097,0.07363 -0.15414,0.07495 -0.11358,0.0026 -0.2232,-0.04246 -0.3348,-0.06369 -0.14814,-0.112831 -0.0505,-0.06517 -0.0652,-2.11e-4 -0.003,0.01169 -0.016,-0.04239 -0.0187,-0.03072 -0.007,0.03002 -0.0111,0.06567 0.004,0.0924 0.0881,0.153048 0.14882,0.345496 0.30014,0.436512 0.13255,0.07973 0.30899,0.01521 0.46349,0.02283 0.0768,-0.03524 0.15358,-0.07048 0.23037,-0.105722 0.62633,-0.328184 0.16221,-1.213956 -0.46412,-0.885775 v 0 c -0.005,0.0077 -0.0102,0.01535 -0.0154,0.02302 0.44339,0.117332 0.18186,-0.02228 0.48422,0.459462 0.01,0.01542 -0.002,-0.03638 -0.003,-0.05452 -0.007,-0.07908 -0.006,-0.159144 -0.0211,-0.237101 -0.0395,-0.208179 -0.11833,-0.281524 -0.23909,-0.475117 -0.15307,-0.05725 -0.29674,-0.154054 -0.45921,-0.171763 -0.096,-0.01045 -0.18415,0.05826 -0.27468,0.09177 -0.006,0.0021 -0.0181,0.0132 -0.012,0.01434 0.52413,0.09573 0.32755,-0.07255 0.53964,0.25028 0.0127,0.01937 -0.0233,-0.04007 -0.0349,-0.0601 -0.0366,-0.206844 -0.0666,-0.34771 -0.0799,-0.563952 -0.034,-0.554932 0.0289,-1.111035 0.0588,-1.664499 0.0641,-0.704196 -0.9318,-0.794827 -0.99588,-0.09063 z" />
    <path
       style="fill:#00ff00;stroke-width:0.264583"
       id="path578"
       d="m 140.7792,83.851802 c 0.21089,-0.04541 0.41957,-0.102711 0.63267,-0.136226 1.65042,-0.259562 3.36796,-0.272783 5.02206,-0.04038 0.40875,0.05743 0.81105,0.154025 1.21657,0.231037 0.35778,0.104592 0.71859,0.1993 1.07333,0.31378 0.36358,0.117337 1.52258,0.546764 1.90728,0.690073 0.51701,0.192598 1.03903,0.376912 1.54692,0.592667 0.65129,0.275357 1.04071,-0.645708 0.38941,-0.921063 v 0 c -0.52307,-0.220234 -1.05819,-0.411652 -1.59003,-0.609727 -0.42419,-0.157988 -1.57945,-0.58612 -1.97497,-0.712356 -0.38566,-0.123087 -0.77802,-0.224086 -1.16703,-0.336129 -0.4358,-0.08128 -0.86826,-0.18319 -1.30741,-0.243848 -1.75642,-0.24261 -3.57738,-0.223475 -5.32819,0.05869 -0.23416,0.03774 -0.46343,0.101272 -0.69515,0.15191 -0.67993,0.19413 -0.40539,1.155706 0.27454,0.961572 z" />
    <path
       style="fill:#00ff00;stroke-width:0.264583"
       id="path580"
       d="m 152.54715,83.108468 c -0.0435,0.720815 0.0255,1.397201 0.30426,2.069058 0.0289,0.06954 0.27935,0.564017 0.34725,0.698621 -0.40151,-0.429119 0.64159,-0.491508 -0.0385,-0.566785 -0.17511,-0.01939 -0.35099,-0.03115 -0.52649,-0.04673 -0.70436,-0.06223 -0.79236,0.933891 -0.088,0.996119 v 0 c 0.0681,0.006 1.00207,0.101748 1.08698,0.05673 0.65731,-0.34854 0.5481,-0.442301 0.45888,-0.889756 -0.15898,-0.315103 -0.35055,-0.626835 -0.44706,-0.96905 -0.11573,-0.410334 -0.11149,-0.835882 -0.10138,-1.257604 0.0641,-0.704199 -0.93183,-0.794798 -0.99589,-0.0906 z" />
    <path
       style="fill:#0000ff;stroke-width:0.264583"
       id="path584"
       d="m 124.02441,83.075689 c 0.41944,0.135599 0.84126,0.287737 1.27853,0.357619 0.41933,0.06701 0.67191,0.06004 1.09318,0.07121 0.7069,0.01709 0.73107,-0.982612 0.0242,-0.999707 v 0 c -0.28512,-0.0061 -0.61189,-0.0031 -0.89622,-0.04675 -0.40521,-0.06216 -0.79533,-0.206177 -1.18353,-0.331087 -0.67085,-0.223541 -0.98698,0.725173 -0.31614,0.948714 z" />
    <path
       style="fill:#0000ff;stroke-width:0.264583"
       id="path586"
       d="m 79.260352,94.583312 c 1.241584,-0.06134 2.487618,-0.05922 3.723762,-0.200591 0.702403,-0.08143 0.587243,-1.07478 -0.11516,-0.993349 v 0 c -1.197417,0.140944 -2.405877,0.129225 -3.608602,0.19394 -0.707104,0 -0.707104,1 0,1 z" />
  </g>
</svg>
