<?xml version="1.0" encoding="UTF-8" standalone="no"?>
<!-- Created with Inkscape (http://www.inkscape.org/) -->

<svg
   width="145.86061mm"
   height="28.978565mm"
   viewBox="0 0 145.86061 28.978565"
   version="1.1"
   id="svg270"
   inkscape:version="1.2.2 (b0a8486541, 2022-12-01)"
   sodipodi:docname="nacl-levis-yapısı.svg"
   xmlns:inkscape="http://www.inkscape.org/namespaces/inkscape"
   xmlns:sodipodi="http://sodipodi.sourceforge.net/DTD/sodipodi-0.dtd"
   xmlns="http://www.w3.org/2000/svg"
   xmlns:svg="http://www.w3.org/2000/svg">
  <sodipodi:namedview
     id="namedview272"
     pagecolor="#ffffff"
     bordercolor="#000000"
     borderopacity="0.25"
     inkscape:showpageshadow="2"
     inkscape:pageopacity="0.0"
     inkscape:pagecheckerboard="0"
     inkscape:deskcolor="#d1d1d1"
     inkscape:document-units="mm"
     showgrid="false"
     inkscape:zoom="1.2651564"
     inkscape:cx="409.43553"
     inkscape:cy="177.0532"
     inkscape:window-width="1916"
     inkscape:window-height="1026"
     inkscape:window-x="0"
     inkscape:window-y="0"
     inkscape:window-maximized="1"
     inkscape:current-layer="layer1" />
  <defs
     id="defs267" />
  <g
     inkscape:label="Layer 1"
     inkscape:groupmode="layer"
     id="layer1"
     transform="translate(-29.895186,-80.398889)">
    <path
       style="fill:#0000ff;stroke-width:0.264583"
       id="path344"
       d="m 30.829646,91.918821 c 0.292825,-0.461492 0.383906,-0.993887 0.500301,-1.516502 0.01884,-0.08462 0.148074,-0.237741 0.06264,-0.252413 -1.149586,-0.197405 -0.958596,-0.02585 -1.01377,0.714296 -0.08617,1.0858 -0.168751,2.173221 -0.186359,3.262794 -0.0037,0.229158 -0.0013,0.458486 0.0067,0.687533 0.0036,0.101875 -0.05475,0.245332 0.02826,0.304509 0.243933,0.173916 0.561009,0.210399 0.841512,0.315598 0.550665,-0.443588 -0.07666,-1.222344 -0.627327,-0.778754 v 0 c 0.260308,0.121468 0.499018,0.309248 0.780926,0.3644 0.07114,0.01392 -0.02085,-0.143758 -0.02342,-0.216201 -0.0076,-0.214355 -0.01061,-0.428969 -0.0072,-0.643433 0.01706,-1.079256 0.09965,-2.156335 0.184835,-3.231843 0.04807,-0.844743 0.31496,-1.070528 -0.955037,-1.018391 -0.0993,0.0041 -0.04997,0.192442 -0.07105,0.289565 -0.08625,0.397343 -0.140645,0.807135 -0.352811,1.163809 -0.39247,0.58819 0.439359,1.143225 0.831826,0.555033 z" />
    <path
       style="fill:#0000ff;stroke-width:0.264583"
       id="path346"
       d="m 33.013168,91.64154 c 0.0708,-0.294325 0.122518,-0.487728 0.173241,-0.788186 0.02035,-0.120547 0.03272,-0.242305 0.04866,-0.363516 0.0063,-0.04832 0.06692,-0.14351 0.0182,-0.145071 -1.165367,-0.03735 -0.991229,-0.130448 -1.000961,0.636764 0.0035,0.915446 0.01191,1.830645 0.04626,2.745521 0.01585,0.421873 0.03175,0.845232 0.07907,1.265012 0.08142,0.702406 1.074764,0.58727 0.993352,-0.115136 v 0 c -0.04693,-0.390477 -0.05812,-0.789106 -0.07291,-1.181153 -0.03398,-0.90031 -0.04211,-1.800936 -0.04585,-2.701805 0.0097,-0.798127 0.186026,-0.671568 -0.991179,-0.773714 -0.04683,-0.0041 -0.01164,0.09329 -0.01754,0.139925 -0.04211,0.332907 -0.09826,0.662835 -0.186126,0.987293 -0.207936,0.675844 0.74785,0.96991 0.955786,0.294066 z" />
    <path
       style="fill:#0000ff;stroke-width:0.264583"
       id="path348"
       d="m 34.54636,91.062798 c 0.106547,-0.173656 0.229637,-0.33819 0.319645,-0.52097 0.358093,-0.727172 0.549077,-1.372616 0.744612,-2.173052 0.233781,-0.956995 0.422225,-2.086128 0.549627,-3.060491 0.05932,-0.453667 0.09556,-0.910052 0.143335,-1.36508 -1.428139,0.850529 0.549307,-1.323975 0.11239,-1.306928 -0.332388,0.01296 -0.760717,0.0825 -0.926425,0.370927 -0.173675,0.302292 0.07601,0.693111 0.116146,1.039424 0.230767,1.990939 0.147844,1.310455 0.445702,3.382327 0.19354,0.816274 0.374031,2.137265 0.990571,2.835365 0.693277,0.784987 1.46046,0.677789 2.176351,-0.125849 0.756309,-0.849005 1.037603,-2.688738 1.272759,-3.678208 0.195496,-1.567778 0.346996,-2.200471 0.28733,-3.724124 -0.01373,-0.350428 -0.03353,-0.708324 -0.138536,-1.04293 -0.05974,-0.19037 -0.22851,-0.327146 -0.342762,-0.49072 -0.494152,-0.50578 -1.209434,0.193056 -0.715283,0.698836 v 0 c 0.264131,-0.27687 0.153578,-0.19817 0.196734,0.817362 0.06105,1.436565 -0.08075,2.032135 -0.261371,3.514553 -0.522015,2.288336 -0.194067,1.298133 -0.928235,3.128123 -0.07002,0.174543 -0.05602,0.417669 -0.211889,0.522899 -0.12522,0.08454 -0.344282,0.03287 -0.446413,-0.07846 -0.248635,-0.271037 -0.39642,-0.626978 -0.518869,-0.973799 -0.176364,-0.499525 -0.24705,-1.030288 -0.370576,-1.545431 -0.302577,-2.10211 -0.205541,-1.325182 -0.441804,-3.351935 -0.0428,-0.367117 0.109678,-0.816319 -0.125164,-1.101725 -1.014904,-1.233429 -1.062304,-0.373764 -1.100812,0.07087 -0.02697,0.311375 -0.04294,0.623604 -0.06442,0.935405 -0.04576,0.439343 -0.08037,0.879991 -0.137281,1.31803 -0.12282,0.945345 -0.299855,2.007896 -0.522796,2.937417 -0.185399,0.772999 -0.326377,1.247032 -0.643017,1.93706 -0.05849,0.12746 -0.137795,0.244295 -0.206692,0.36644 -0.46999,0.528309 0.277151,1.192974 0.747141,0.664667 z" />
    <path
       style="fill:#0000ff;stroke-width:0.264583"
       id="path350"
       d="m 44.301476,87.606985 c -0.07794,-0.526301 -0.147585,-1.201012 -0.542962,-1.606081 -0.153456,-0.157216 -0.339305,-0.31215 -0.554538,-0.356198 -0.257077,-0.05262 -0.541406,-0.02021 -0.782889,0.08248 -0.259448,0.110321 -0.439142,0.353677 -0.658714,0.530516 -0.164201,0.255471 -0.357222,0.494565 -0.492599,0.766408 -0.246459,0.494896 -0.452607,1.211276 -0.4972,1.766883 -0.03318,0.413332 2.65e-4,1.057838 0.27223,1.420733 0.139819,0.186602 0.369178,0.284932 0.553768,0.427397 0.268668,-0.02082 0.552733,0.02959 0.806005,-0.06244 0.249161,-0.09053 0.460108,-0.275175 0.645269,-0.464892 0.59405,-0.608668 0.853254,-1.4874 1.011152,-2.296223 0.04379,-0.224311 0.06286,-0.452747 0.09429,-0.679122 -0.295323,0.212254 0.231886,-0.730152 -0.0075,-0.718847 -0.352661,0.01667 -0.748014,0.07181 -1.014915,0.302919 -0.151731,0.131382 -0.02458,0.400754 -0.02948,0.601403 -0.01913,0.782712 -0.0037,0.787374 0.03698,1.575922 0.06932,0.512456 0.07928,1.429356 0.877054,1.417307 0.222456,-0.0034 0.387215,-0.219218 0.580824,-0.328827 0.505817,-0.494115 -0.192966,-1.209447 -0.698783,-0.715333 v 0 c 0.453332,0.109236 -0.09841,-0.06556 0.425156,0.328541 0.206862,0.155705 -1.177113,-1.487783 -0.185631,-0.754226 -0.04094,-0.762027 -0.05278,-0.71546 -0.0367,-1.476513 0.0037,-0.177003 0.162528,-0.420819 0.02363,-0.5306 -0.255368,-0.201846 -0.638233,-0.129088 -0.954691,-0.205306 -0.0083,-0.0021 0.0098,-0.01405 0.01474,-0.02109 -0.0072,0.130191 -0.01445,0.260382 -0.0217,0.390573 -0.08493,0.647496 -0.17499,1.261864 -0.459579,1.860396 -0.334621,0.703766 -0.169558,0.256445 -0.54516,0.744392 -0.03561,0.04626 -0.0482,0.106342 -0.07231,0.159512 -0.191847,0.07236 -0.19644,0.121232 -0.285379,-0.245234 -0.151712,-0.625099 0.06702,-1.406673 0.320093,-1.974138 0.0868,-0.194641 0.212211,-0.369652 0.318317,-0.554477 0.08079,-0.100153 0.167804,-0.195585 0.242364,-0.300461 0.03288,-0.04624 0.03195,-0.118687 0.07859,-0.150998 0.344667,-0.238744 0.530314,0.967013 0.542165,1.128059 0.04415,0.705729 1.042199,0.64329 0.998048,-0.06244 z" />
    <path
       style="fill:#0000ff;stroke-width:0.264583"
       id="path352"
       d="m 30.920674,106.23829 c 0.160414,-0.75594 0.190521,-1.53204 0.307403,-2.29443 -0.326649,0.03 -0.681966,-0.0472 -0.97995,0.0899 -0.111538,0.0513 -0.0092,0.24539 -0.01519,0.36803 -0.05532,1.13605 -0.109144,2.27155 -0.148408,3.40832 0.0071,0.13112 -0.102124,1.53317 0.263221,1.56548 0.271841,0.024 0.511646,-0.19006 0.767469,-0.28509 0.276685,-0.65073 -0.643581,-1.04202 -0.920266,-0.3913 v 0 c 1.058627,-0.22783 0.470538,-0.33759 0.913839,0.19957 0.02657,0.0322 -0.01185,-0.0827 -0.01416,-0.12442 -0.01886,-0.34164 -0.0114,-0.5658 -0.01072,-0.92973 0.03069,-0.88914 0.06548,-1.77785 0.109644,-2.66644 0.01238,-0.2491 0.02913,-0.49799 0.03893,-0.74721 0.0066,-0.167 0.150937,-0.41116 0.01019,-0.50129 -0.284211,-0.182 -0.668976,-0.0898 -1.003465,-0.13476 -0.10991,0.74019 -0.146976,1.4916 -0.294682,2.22616 -0.153583,0.69022 0.822545,0.90742 0.976127,0.2172 z" />
    <path
       style="fill:#0000ff;stroke-width:0.264583"
       id="path354"
       d="m 32.474916,104.72764 c 0.366445,0.071 0.688797,0.26845 1.041206,0.38103 0.490466,0.15669 0.12363,0.0169 0.269084,0.0729 -0.119734,-0.16751 -0.167261,-0.428 -0.359206,-0.50252 -0.105256,-0.0409 -0.09218,0.20619 -0.134988,0.31067 -0.368085,0.89826 -0.661342,1.81777 -0.912452,2.7548 -0.133763,0.58026 -0.348017,0.88756 0.609213,1.11563 0.09553,0.0228 0.254712,-0.25176 0.322152,-0.36174 0.369543,-0.60285 -0.483026,-1.12547 -0.85257,-0.52261 v 0 c -0.135001,0.22033 0.02654,-0.0696 0.113499,-0.0246 0.255193,0.13221 0.427487,0.38937 0.672504,0.5396 0.141666,0.0869 -0.347554,-1.13507 0.101306,-0.48813 0.18178,-0.68241 0.384234,-1.35709 0.627971,-2.02047 0.07426,-0.2021 0.157276,-0.40088 0.238291,-0.60036 0.05465,-0.13456 0.182864,-0.25718 0.168675,-0.40172 -0.02604,-0.26525 -0.187725,-0.49891 -0.281588,-0.74837 -0.0761,-0.0238 -0.155565,-0.0359 -0.231635,-0.0598 -0.408728,-0.12849 -0.783207,-0.36119 -1.212514,-0.42823 -0.695693,-0.12653 -0.874641,0.85733 -0.178948,0.98386 z" />
    <path
       style="fill:#0000ff;stroke-width:0.264583"
       id="path356"
       d="m 32.398181,106.98036 c 0.352896,-0.04 0.699969,-0.10754 1.047321,-0.17989 0.691971,-0.14553 0.486164,-1.12412 -0.205806,-0.9786 v 0 c -0.343953,0.0731 -0.688535,0.13497 -1.037777,0.17794 -0.693354,0.13878 -0.497092,1.11933 0.196262,0.98055 z" />
    <path
       style="fill:#0000ff;stroke-width:0.264583"
       id="path358"
       d="m 39.053283,98.092349 c -0.174334,0.06858 -0.361686,0.110506 -0.523005,0.205756 -0.597093,0.352546 -1.11525,0.880078 -1.55652,1.400902 -0.670282,0.791123 -1.124609,1.471493 -1.544513,2.427723 -0.18301,0.41676 -0.294677,0.86133 -0.442013,1.292 -0.03962,0.3935 -0.138086,0.78548 -0.118856,1.1805 0.05239,1.07617 0.626401,1.89978 1.784951,1.89787 0.765876,-0.001 1.262081,-0.39106 1.890903,-0.74543 0.675965,-0.55091 0.821425,-0.60895 1.358318,-1.2698 0.144928,-0.17839 0.261151,-0.37829 0.391728,-0.56744 0.397553,-0.58477 -0.429432,-1.14699 -0.826984,-0.56223 v 0 c -0.101624,0.1524 -0.191138,0.31361 -0.304869,0.4572 -0.44164,0.55757 -0.565012,0.61068 -1.122341,1.07865 -0.530752,0.32424 -0.670708,0.47171 -1.245695,0.61905 -0.126842,0.0325 -0.264018,0.0731 -0.390753,0.0402 -0.754139,-0.19584 -0.510209,-1.32253 -0.468701,-1.80943 0.126031,-0.38109 0.219993,-0.77432 0.378095,-1.14325 0.381484,-0.89021 0.769421,-1.46563 1.384194,-2.20526 0.414075,-0.498177 0.882607,-0.985569 1.455605,-1.301987 0.703593,-0.07039 0.604052,-1.065421 -0.09954,-0.995034 z" />
    <path
       style="fill:#0000ff;stroke-width:0.264583"
       id="path360"
       d="m 41.720717,102.2451 c 1.064786,-0.93227 1.693568,-2.23032 2.157124,-3.544958 0.09784,-0.277485 0.171979,-0.562764 0.257968,-0.844146 -0.306308,-0.132254 0.410369,-0.802634 0.147609,-1.028038 -0.241687,-0.207328 -0.577522,-0.425799 -0.887574,-0.353248 -0.2467,0.05773 -0.284798,0.421886 -0.390253,0.652261 -0.230856,0.504331 -0.505229,1.571522 -0.640471,2.05037 -0.268679,1.199679 -0.596924,2.444079 -0.592376,3.684499 0.0011,0.31852 0.04688,1.18959 0.402381,1.43945 0.246266,0.17308 0.581996,0.15395 0.872993,0.23092 0.266986,-0.12965 0.552542,-0.22654 0.800957,-0.38896 0.366046,-0.23934 0.984631,-0.86791 1.2842,-1.192 0.252791,-0.27347 0.597242,-0.6653 0.781447,-1.00693 0.06876,-0.12753 0.104296,-0.27034 0.156443,-0.40551 0.229648,-0.66877 -0.716145,-0.99354 -0.945793,-0.32477 v 0 c -0.0145,0.0589 -0.01556,0.12292 -0.0435,0.17678 -0.156591,0.30187 -0.445543,0.6236 -0.663827,0.86155 -0.426272,0.46469 -0.885668,0.8986 -1.388364,1.28001 -5.29e-4,0.0823 0.07762,0.22428 -0.0016,0.24705 -0.08418,0.0242 -0.149087,-0.11259 -0.174633,-0.19637 -0.06368,-0.20888 -0.08149,-0.43143 -0.08334,-0.64979 -0.01,-1.1814 0.306041,-2.3423 0.557498,-3.484884 0.104627,-0.372742 0.200017,-0.748205 0.313881,-1.118232 0.08103,-0.263338 0.194262,-0.516285 0.27055,-0.781035 0.117541,-0.407908 -0.171474,-0.524983 -0.628592,-0.735883 -0.229854,-0.106047 0.663445,1.473113 -0.104566,0.752176 -0.0774,0.256654 -0.143875,0.516861 -0.232217,0.769959 -0.396534,1.136057 -0.918043,2.270799 -1.814094,3.100919 -0.571916,0.41582 0.01614,1.22463 0.588068,0.80881 z" />
    <path
       style="fill:#0000ff;stroke-width:0.264583"
       id="path362"
       d="m 50.149603,89.087416 c 0.13625,-0.09293 0.298823,-0.214804 0.454208,-0.274624 0.05431,-0.0209 0.114279,-0.03652 0.172053,-0.02956 0.01744,0.0021 0.02847,0.05219 0.0109,0.05158 -0.383265,-0.01336 -0.194059,-0.1763 -0.387541,0.08609 -0.08173,0.147759 -0.153921,0.301212 -0.245189,0.443277 -0.405455,0.631114 -0.928645,1.270815 -1.592477,1.645844 -0.06049,0.03417 -0.130013,0.04902 -0.195021,0.07353 0.122507,-0.252217 0.09419,-0.216196 0.553682,0.524161 0.04038,0.06506 -0.10923,0.163277 -0.05984,0.221795 0.04618,0.05471 0.139438,-0.03353 0.210335,-0.04348 0.319535,-0.04486 0.367504,-0.03177 0.701181,-0.0299 0.597339,0.03317 1.198107,0.120883 1.786546,-0.02577 0.681849,-0.187294 0.416975,-1.151578 -0.264877,-0.964282 v 0 c -0.110877,0.04285 -0.271005,0.0504 -0.38521,0.05166 -0.380881,0.0042 -0.758497,-0.06003 -1.139243,-0.06159 -0.377894,0.0035 -0.589576,-0.01355 -0.961649,0.06516 -0.207716,0.04395 -0.883163,0.225272 -0.860356,0.55608 0.01942,0.281588 0.28694,0.503534 0.510979,0.67522 0.08156,0.0625 0.202713,-0.03376 0.304072,-0.05063 0.122233,-0.05614 0.250772,-0.100211 0.366697,-0.168434 0.757478,-0.445791 1.478031,-1.266401 1.916692,-2.016357 0.12972,-0.221779 0.222147,-0.463363 0.333219,-0.695042 0.0218,-0.232976 0.136427,-0.475983 0.06538,-0.698926 -0.220456,-0.69174 -0.788011,-0.709113 -1.321213,-0.487201 -0.204094,0.08494 -0.405813,0.23664 -0.587013,0.361854 -0.558299,0.433938 0.05538,1.223492 0.61368,0.789557 z" />
    <path
       style="fill:#0000ff;stroke-width:0.264583"
       id="path364"
       d="m 53.337541,82.598656 c 0.0067,0.03042 0.0068,0.06317 0.02027,0.09127 0.05115,0.10667 0.126209,0.201319 0.172271,0.310285 0.330295,0.781368 0.484949,1.633612 0.568341,2.473471 0.02875,0.289496 0.03245,0.580932 0.04868,0.871397 -0.0213,0.608322 0.0042,1.257038 -0.203693,1.840907 -0.0072,0.02013 -0.0016,-0.06645 0.01921,-0.06114 0.314024,0.08049 0.61609,0.201965 0.924134,0.302948 0.106035,-0.699111 -0.882658,-0.849066 -0.988692,-0.149955 v 0 c 0.304337,0.125423 0.590687,0.309496 0.913013,0.376274 0.06203,0.01286 0.06411,-0.109955 0.0866,-0.169177 0.03395,-0.08937 0.0612,-0.18152 0.08205,-0.274823 0.140787,-0.629959 0.171349,-1.279564 0.1657,-1.922774 -0.01897,-0.31799 -0.02408,-0.637109 -0.0569,-0.953971 -0.06801,-0.656802 -0.198152,-1.429208 -0.399031,-2.060152 -0.166593,-0.523258 -0.380728,-1.083852 -0.826421,-1.446247 -0.14819,-0.120496 -0.350361,-0.152207 -0.525542,-0.228309 -0.707107,0 -0.707107,1.000001 0,1.000001 z" />
    <path
       style="fill:#0000ff;stroke-width:0.264583"
       id="path366"
       d="m 58.200078,88.075615 c -0.01622,0.653889 0.101303,0.872673 0.521377,1.370066 0.196916,0.233159 0.425302,0.388395 0.564309,0.665099 0.04098,0.08158 0.04497,0.176956 0.06746,0.265435 -0.0191,0.06849 -0.02506,0.14211 -0.05729,0.205489 -0.123306,0.242382 -0.414927,0.389249 -0.657688,0.216199 -0.0467,-0.03329 -0.07627,-0.08569 -0.114411,-0.128527 -0.008,-0.04343 -0.03693,-0.08811 -0.02387,-0.130283 0.01582,-0.05113 0.164004,-0.06616 0.189634,-0.07708 0.07025,-0.02994 0.134676,-0.07204 0.202796,-0.106548 0.652999,-0.330758 0.03277,-0.0013 0.796575,-0.415833 0.447067,-0.301807 0.932109,-0.62888 1.099595,-1.179213 0.05241,-0.172209 0.08329,-0.36186 0.04632,-0.53803 -0.04002,-0.190723 -0.117276,-0.39623 -0.26824,-0.519467 -0.184366,-0.150509 -0.446725,-0.164354 -0.670086,-0.246528 -0.847415,0.200937 -0.46432,0.04342 -1.160116,0.445301 -0.603475,0.368536 -0.08229,1.221978 0.521187,0.853446 v 0 c 0.349483,-0.233807 0.185743,-0.132094 0.488043,-0.310198 0.0073,-0.04697 0.0035,-0.09705 0.0218,-0.140925 0.02199,-0.05275 0.13018,-0.155213 0.119161,0.02453 -0.02175,0.354706 -0.442601,0.544118 -0.674757,0.732229 -0.143041,0.0777 -0.285599,0.1563 -0.429127,0.233101 -0.31395,0.167991 -0.700014,0.327091 -0.929566,0.62004 -0.282149,0.360077 -0.372616,0.713473 -0.204288,1.150218 0.06634,0.172127 0.220263,0.295973 0.330393,0.44396 0.171175,0.09306 0.326539,0.224422 0.513522,0.279167 0.809546,0.237014 1.627786,-0.326739 1.800154,-1.128453 0.04264,-0.198311 0.0038,-0.405667 0.0057,-0.608499 -0.06919,-0.177475 -0.11629,-0.365236 -0.207576,-0.532424 -0.156927,-0.287404 -0.37206,-0.47021 -0.591416,-0.700254 -0.06654,-0.06979 -0.137988,-0.135724 -0.196069,-0.212693 -0.03966,-0.05256 -0.06108,-0.116764 -0.09508,-0.173149 -0.01469,-0.02432 -0.03378,-0.04568 -0.05067,-0.06852 0.203404,-0.677219 -0.754329,-0.964877 -0.957733,-0.287657 z" />
    <path
       style="fill:#0000ff;stroke-width:0.264583"
       id="path368"
       d="m 61.12125,83.029477 c 0.246485,0.571159 0.373742,0.800661 0.507134,1.465627 0.233492,1.163987 0.178777,2.344764 -0.0284,3.507254 -0.05803,0.325612 -0.150527,0.644133 -0.225791,0.9662 0.561288,-0.6925 -0.5613,1.199263 -0.364013,0.852405 -0.418391,0.570042 0.387768,1.161738 0.806161,0.591696 v 0 c 0.249497,-0.37709 0.393608,-0.787495 0.53217,-1.218917 0.220321,-0.963007 0.3405,-1.327393 0.406913,-2.355218 0.09841,-1.522962 -0.09796,-2.998893 -0.802129,-4.363749 -0.392232,-0.588348 -1.22428,-0.03365 -0.832048,0.554702 z" />
    <path
       style="fill:#0000ff;stroke-width:0.264583"
       id="path370"
       d="m 66.777991,88.260252 c -0.24379,0.138449 0.207039,-0.555821 0.05305,-0.494453 -0.07754,0.0309 -0.01053,0.21404 -0.09183,0.232971 -0.256167,0.05966 -0.553485,-0.145907 -0.788567,-0.02794 -0.122309,0.06138 0.02114,0.272905 0.02804,0.409575 0.01085,0.215069 0.01683,0.430358 0.02521,0.645536 0.01797,0.608594 0.0079,1.219684 0.07626,1.825778 0.0099,0.08832 -0.01609,0.197218 0.04364,0.263038 0.158131,0.174266 0.380883,0.27645 0.571325,0.414674 0.707107,2.65e-4 0.707612,-0.999643 5.29e-4,-1.000001 v 0 c 0.13783,0.1382 0.247994,0.311116 0.413486,0.414595 0.05069,0.03169 -0.02566,-0.116981 -0.0325,-0.176369 -0.06789,-0.591257 -0.05406,-1.187741 -0.07351,-1.781424 -0.0093,-0.229055 -0.01331,-0.458377 -0.02774,-0.687162 -0.0117,-0.18519 0.07559,-0.418354 -0.05063,-0.554374 -0.622848,-0.671187 -0.868196,-0.685157 -1.083347,-0.122412 -0.02996,0.07836 -0.05296,0.463023 -0.05929,0.547373 -0.06406,0.704199 0.931823,0.794797 0.995886,0.0906 z" />
    <path
       style="fill:#0000ff;stroke-width:0.264583"
       id="path372"
       d="m 67.395592,83.191489 c 0.07403,0.121931 0.158956,0.237876 0.222083,0.365792 0.552506,1.119545 0.884246,2.480111 0.777502,3.730617 -0.025,0.293002 -0.107225,0.578279 -0.160837,0.867415 -0.341501,0.738698 -0.140653,0.442947 -0.541364,0.925857 -0.4312,0.560416 0.361349,1.170223 0.792548,0.609806 v 0 c 0.560192,-0.763767 0.296887,-0.320215 0.733701,-1.362453 0.05864,-0.349163 0.150579,-0.694344 0.175929,-1.047488 0.100219,-1.396027 -0.275516,-3.030966 -0.936726,-4.265174 -0.100671,-0.187912 -0.237154,-0.354319 -0.355729,-0.531479 -0.500002,-0.499999 -1.207109,0.207108 -0.707107,0.707107 z" />
    <path
       style="fill:#0000ff;stroke-width:0.264583"
       id="path374"
       d="m 50.136147,104.23916 c 0.221152,-0.18142 0.417737,-0.4036 0.667255,-0.54901 0.04655,-0.0271 0.0993,-0.0675 0.151823,-0.0555 0.03809,0.009 -0.05623,0.0717 -0.09516,0.0684 -0.108595,-0.009 -0.206935,-0.0685 -0.310403,-0.10267 -0.03529,0.0504 -0.07782,0.0965 -0.10586,0.1513 -0.07583,0.14819 -0.125593,0.30905 -0.204671,0.45553 -0.31164,0.57727 -0.710864,1.12495 -1.181307,1.5828 -0.123634,0.12033 -0.262162,0.22434 -0.393245,0.33651 -0.114032,0.0707 -0.225157,0.14628 -0.342098,0.21204 -0.165846,0.0933 -0.280008,0.13959 -0.447172,0.20404 -0.306361,0.11811 0.277725,0.61698 0.52411,0.83401 0.07986,0.0703 0.196186,-0.0826 0.29428,-0.12385 0.931424,-0.40776 1.944045,-0.42791 2.939024,-0.50697 0.335285,-0.041 0.687983,-0.0628 0.979837,-0.25638 0.268091,-0.17786 0.315555,-0.294 0.494231,-0.54765 0.38953,-0.59014 -0.445053,-1.14102 -0.834586,-0.55088 v 0 c -0.0382,0.0679 -0.102513,0.23466 -0.191058,0.26812 -0.131985,0.0499 -0.410906,0.0748 -0.527717,0.0899 -0.503407,0.0401 -1.012984,0.0555 -1.513531,0.12423 -0.598614,0.0823 -1.184714,0.23209 -1.744024,0.46213 -0.666851,0.29543 -0.537946,0.0811 -0.1348,1.16277 0.01127,0.0302 0.06211,-0.0179 0.0922,-0.0297 0.380312,-0.14799 0.73782,-0.34269 1.066337,-0.5863 0.158615,-0.13897 0.326096,-0.26842 0.47584,-0.4169 0.382699,-0.37947 0.660977,-0.73238 0.957614,-1.18378 0.229423,-0.34913 0.56414,-0.90344 0.669658,-1.32553 0.05602,-0.22408 0.04636,-0.45963 0.06954,-0.68945 -0.156287,-0.18332 -0.260128,-0.42971 -0.46886,-0.54997 -0.13762,-0.0793 -0.320921,-0.0269 -0.476462,0.005 -0.352912,0.073 -0.784783,0.52806 -1.06155,0.75804 -0.536898,0.46016 0.113858,1.21944 0.650756,0.75929 z" />
    <path
       style="fill:#0000ff;stroke-width:0.264583"
       id="path376"
       d="m 52.9322,98.248604 c -5.29e-4,-0.0093 -0.02519,-0.409054 -0.04035,-0.444656 -0.01847,-0.04336 0.04198,0.122126 -0.0011,0.141366 -0.271325,0.121344 -0.630968,0.05095 -0.857967,0.242806 -0.09936,0.08398 0.09636,0.241758 0.13942,0.364511 0.07739,0.220604 0.147912,0.443558 0.221869,0.665337 0.440515,1.501792 0.659521,3.089562 0.466905,4.652142 -0.01714,0.1391 -0.05841,0.27415 -0.08761,0.41123 0.0052,-0.0462 0.0104,-0.0924 0.01561,-0.1386 -0.510823,0.48894 0.180636,1.21135 0.691459,0.72242 v 0 c 0.09099,-0.12831 0.181978,-0.25663 0.272968,-0.38494 0.03498,-0.17921 0.08333,-0.35632 0.104952,-0.53763 0.20201,-1.69421 -0.03542,-3.41458 -0.515879,-5.041706 -0.07926,-0.23648 -0.153993,-0.474523 -0.23777,-0.709438 -0.05278,-0.14799 -0.02738,-0.377021 -0.171784,-0.438941 -1.174382,-0.503592 -1.04607,-0.106276 -1.00077,0.496099 0,0.707107 1,0.707107 1,0 z" />
    <path
       style="fill:#0000ff;stroke-width:0.264583"
       id="path378"
       d="m 59.286581,102.94588 c -0.03208,0.13137 -0.09267,0.25894 -0.09624,0.39412 -0.01,0.37812 0.105672,0.60509 0.29699,0.91803 0.09055,0.14812 0.347146,0.43817 0.422211,0.62158 0.02611,0.0638 0.01908,0.13664 0.02861,0.20496 -0.02297,0.0588 -0.03729,0.12172 -0.06893,0.17632 -0.192725,0.33263 -0.553921,0.62637 -0.955371,0.60545 -0.06954,-0.004 -0.135795,-0.0309 -0.203692,-0.0464 -0.264668,0.11981 -0.07873,-0.1359 -0.0582,-0.10243 0.06115,0.0997 0.0909,0.21565 0.14094,0.32139 0.0172,0.0363 0.02064,0.10947 0.06053,0.10438 0.150191,-0.0192 0.282684,-0.10866 0.422765,-0.16612 0.204552,-0.0839 0.407374,-0.17198 0.61106,-0.25797 0.602168,-0.31912 1.380535,-0.68373 1.638189,-1.38227 0.08343,-0.22619 0.128649,-0.48275 0.07985,-0.71886 -0.143811,-0.69577 -0.494204,-0.77162 -1.021717,-1.10988 -0.984166,-0.14426 -0.508366,-0.18537 -1.428986,0.10348 -0.656624,0.26238 -0.285559,1.19099 0.371065,0.9286 v 0 c 0.317974,-0.21173 0.131416,-0.14336 0.575223,-0.15629 0.06995,0.0255 0.42527,0.13362 0.504446,0.22612 0.396137,0.46283 -0.865356,1.05928 -1.107061,1.18786 -0.199173,0.0841 -0.398079,0.16888 -0.597519,0.25236 -0.30656,0.12833 -0.894289,0.30348 -1.051182,0.65675 -0.183065,0.41221 0.01566,0.73452 0.328007,0.93583 0.126719,0.0817 0.279254,0.11371 0.418883,0.17057 0.168857,0.0116 0.338058,0.0507 0.506571,0.0349 0.784426,-0.0738 1.533453,-0.66535 1.754079,-1.43217 0.0536,-0.18631 0.03322,-0.38631 0.04983,-0.57947 -0.04928,-0.16152 -0.08013,-0.32986 -0.147846,-0.48455 -0.08433,-0.19264 -0.275821,-0.41733 -0.402741,-0.58885 -0.04102,-0.0554 -0.07961,-0.11263 -0.119555,-0.16885 -0.02019,-0.0284 -0.04612,-0.0535 -0.06088,-0.0851 -0.01117,-0.0239 -0.01011,-0.0518 -0.01519,-0.0778 0.343424,-0.61811 -0.530714,-1.10378 -0.874138,-0.48567 z" />
    <path
       style="fill:#0000ff;stroke-width:0.264583"
       id="path380"
       d="m 60.895959,98.139177 c 0.610265,0.35686 0.929712,1.129409 1.10979,1.774926 0.07859,0.281737 0.113263,0.573907 0.169894,0.860867 -7.94e-4,0.27167 0.0401,0.54671 -0.0026,0.81501 -0.112633,0.70857 -0.554707,1.25042 -0.989607,1.78384 -0.442077,0.55187 0.338394,1.17707 0.78047,0.62519 v 0 c 0.38539,-0.48802 0.677431,-0.7993 0.925317,-1.40295 0.381534,-0.92911 0.283072,-1.05463 0.265935,-2.02222 -0.07197,-0.33938 -0.116184,-0.685865 -0.215902,-1.018158 -0.179481,-0.59809 -0.451605,-1.205222 -0.860201,-1.686991 -0.308789,-0.364085 -0.646636,-0.620458 -1.12487,-0.690041 -0.153903,-0.02238 -0.309489,0.03109 -0.464233,0.04663 -0.646221,0.287054 -0.240265,1.200946 0.405956,0.913894 z" />
    <path
       style="fill:#0000ff;stroke-width:0.264583"
       id="path382"
       d="m 66.109058,101.54045 c 0.614606,-2.1e-4 1.240322,-0.0127 1.82304,-0.22714 0.02802,-0.014 0.102198,-0.0164 0.08407,-0.0419 -0.190394,-0.26823 -0.3595,-0.58288 -0.644342,-0.74739 -0.09519,-0.055 -0.147217,0.1639 -0.21118,0.2533 -0.413274,0.57763 -0.716039,1.21706 -1.024538,1.85344 -0.283628,0.58628 -0.447265,1.21195 -0.599096,1.84088 -0.01484,0.0615 -0.09893,0.21978 -0.04681,0.18392 0.101216,-0.0696 0.143211,-0.19967 0.214815,-0.29951 -0.622546,0.33532 -0.148339,1.21573 0.474207,0.88042 v 0 c 0.0934,-0.11158 0.203782,-0.2109 0.280199,-0.33473 0.03657,-0.0593 0.03515,-0.13476 0.05134,-0.20248 0.02999,-0.12546 0.05368,-0.25246 0.08721,-0.37702 0.173326,-0.64387 0.174207,-0.58617 0.438465,-1.25627 0.314645,-0.65293 0.31514,-0.69035 0.667203,-1.28928 0.07399,-0.12588 0.152736,-0.24899 0.234227,-0.37014 0.03577,-0.0532 0.14164,-0.0931 0.117237,-0.15237 -0.384408,-0.93343 -0.845934,-0.71693 -0.488733,-0.87159 -0.08731,0.0421 -0.05706,0.031 -0.208087,0.0649 -0.433094,0.0971 -0.879067,0.0871 -1.320241,0.0955 -0.705321,0.0502 -0.634313,1.04769 0.07101,0.99748 z" />
    <path
       style="fill:#0000ff;stroke-width:0.264583"
       id="path384"
       d="m 65.590186,103.40128 c 0.522195,-0.0938 1.044422,-0.18719 1.566379,-0.2824 0.695626,-0.1269 0.51617,-1.11066 -0.179459,-0.98377 v 0 c -0.537081,0.098 -1.074637,0.19305 -1.611564,0.29173 -0.689033,0.15885 -0.464389,1.13329 0.224644,0.97444 z" />
    <path
       style="fill:#0000ff;stroke-width:0.264583"
       id="path386"
       d="m 68.690912,96.065445 c 0.06819,0.164779 0.149845,0.324606 0.204552,0.494334 0.478095,1.48331 0.541386,3.189494 0.448945,4.733811 -0.02281,0.38117 -0.07582,0.75993 -0.113731,1.1399 -0.09539,0.55218 -0.19473,1.08632 -0.447611,1.58753 -0.304726,0.63808 0.597651,1.06903 0.902377,0.43095 v 0 c 0.05178,-0.1123 0.113237,-0.22063 0.155356,-0.3369 0.229153,-0.6326 0.241884,-0.8665 0.385056,-1.58349 0.03942,-0.40462 0.09494,-0.808 0.118263,-1.21387 0.09731,-1.693482 0.01688,-3.526568 -0.527238,-5.146503 -0.06951,-0.206939 -0.171865,-0.401355 -0.257799,-0.602031 -0.350914,-0.613889 -1.219084,-0.117618 -0.86817,0.496269 z" />
    <path
       style="fill:#0000ff;stroke-width:0.264583"
       id="path421"
       d="m 74.711149,86.702751 c 2.73994,-0.287346 5.478137,-0.592783 8.218617,-0.875279 0.385487,-0.03716 0.770972,-0.07432 1.156457,-0.111487 0.703844,-0.06786 0.607877,-1.063244 -0.09597,-0.995384 v 0 c -0.387678,0.03738 -0.775356,0.07476 -1.163037,0.112144 -2.745272,0.283032 -5.488268,0.588888 -8.232989,0.876863 -0.702257,0.08268 -0.585338,1.075817 0.116919,0.993143 z" />
    <path
       style="fill:#0000ff;stroke-width:0.264583"
       id="path423"
       d="m 82.697083,84.044419 c 0.86218,0.311975 1.736696,0.619503 2.528652,1.090046 0.534411,0.317518 0.422199,0.20778 0.650293,0.592005 -0.0757,-0.0481 -0.137424,-0.144002 -0.227113,-0.144291 -0.164774,-5.29e-4 -0.316764,0.09113 -0.473472,0.14205 -0.290419,0.09437 -0.578485,0.195847 -0.867727,0.293769 -0.668266,0.231125 -0.341408,1.176198 0.326858,0.945076 v 0 c 0.489448,-0.172349 1.577729,-0.466084 1.914258,-0.944832 0.171588,-0.244102 0.08798,-0.590233 0.131974,-0.885349 -0.130474,-0.160784 -0.236929,-0.344482 -0.391416,-0.482351 -0.17938,-0.160084 -0.391883,-0.279718 -0.599107,-0.401627 -0.840391,-0.494395 -1.763604,-0.824696 -2.677157,-1.153242 -0.670865,-0.223475 -0.986907,0.725271 -0.316043,0.948746 z" />
    <path
       style="fill:#0000ff;stroke-width:0.264583"
       id="path425"
       d="m 75.130696,99.570753 c 2.733559,0.01241 5.458423,-0.243763 8.185227,-0.400505 0.261874,-0.01278 0.523748,-0.02556 0.785622,-0.03834 0.706265,-0.03448 0.6575,-1.033293 -0.04877,-0.99881 v 0 c -0.264755,0.01294 -0.52951,0.02588 -0.794266,0.0388 -2.707679,0.155768 -5.413454,0.410382 -8.127817,0.398854 -0.707107,0 -0.707107,1.000001 0,1.000001 z" />
    <path
       style="fill:#0000ff;stroke-width:0.264583"
       id="path427"
       d="m 82.828618,97.294178 c 0.958509,0.371141 1.910977,0.767273 2.827542,1.234151 0.749906,0.381984 0.545211,0.209746 0.932444,0.655534 -0.107788,-0.105838 -0.172445,-0.310948 -0.323366,-0.317518 -0.295452,-0.01286 -0.563141,0.180933 -0.846193,0.266607 -1.479171,0.447718 -1.237898,0.3702 -2.695286,0.752261 -0.683959,0.179437 -0.430197,1.146707 0.253764,0.967267 v 0 c 0.698895,-0.18349 2.150322,-0.54896 2.806483,-0.7885 0.427003,-0.155888 0.931154,-0.226016 1.246262,-0.553642 0.245316,-0.255058 0.181994,-0.683969 0.272989,-1.025954 -0.156805,-0.149976 -0.293121,-0.324834 -0.470413,-0.449926 -0.232035,-0.163719 -0.494115,-0.280443 -0.747221,-0.409213 -0.931436,-0.473884 -1.898888,-0.877064 -2.872687,-1.25427 -0.652803,-0.271754 -1.037119,0.651449 -0.384318,0.923203 z" />
    <path
       style="fill:#0000ff;stroke-width:0.264583"
       id="path431"
       d="m 93.412949,89.744729 c 0.928354,-1.549667 1.557679,-3.25043 1.990632,-5.000226 0.109519,-0.442621 0.189154,-0.892106 0.283729,-1.338159 0.05708,-0.362529 0.114157,-0.725061 0.171238,-1.087591 0.02719,-0.212122 0.05,-0.424849 0.08157,-0.636365 0.0024,-0.01551 0.03466,-0.04749 0.01977,-0.04264 -0.315974,0.102698 -0.7501,0.06578 -0.936707,0.340667 -0.176983,0.260704 0.03768,0.629158 0.06524,0.943052 0.03807,0.433662 0.08775,0.866224 0.13163,1.299339 0.170408,1.083585 0.222552,1.649376 0.526889,2.694345 0.09951,0.341696 0.207804,0.683712 0.362259,1.00434 0.18941,0.393184 0.565696,1.002368 1.121289,0.976423 0.30458,-0.01423 0.553953,-0.254995 0.830929,-0.382492 0.151135,-0.280752 0.344884,-0.542449 0.453406,-0.842261 0.213847,-0.590799 0.328046,-1.725465 0.392149,-2.317906 0.04668,-0.431425 0.07919,-0.864275 0.122166,-1.296086 0.121598,-1.221777 0.12114,-1.169241 0.260718,-2.31495 0.03872,-0.245803 0.07744,-0.491609 0.116155,-0.737413 0.109741,-0.698539 -0.878142,-0.853739 -0.987883,-0.155199 v 0 c -0.04031,0.257249 -0.08063,0.514496 -0.120938,0.771742 -0.140803,1.157004 -0.141311,1.111808 -0.263652,2.342116 -0.10908,1.096954 -0.163878,2.211482 -0.425855,3.286865 -0.03905,0.160317 -0.103574,0.313331 -0.155361,0.469996 0.01794,0.07144 0.0733,0.14329 0.05382,0.214331 -0.01371,0.04997 -0.0933,0.1105 -0.134134,0.07859 -0.343005,-0.268052 -0.557858,-1.008821 -0.652324,-1.329986 -0.291844,-0.992201 -0.341154,-1.530633 -0.504741,-2.563442 -0.04297,-0.4225 -0.09179,-0.844447 -0.128913,-1.267502 -0.02819,-0.321257 0.121756,-0.703686 -0.06702,-0.96515 -1.110742,-1.538412 -1.068335,-0.275309 -1.148382,0.27468 -0.05033,0.345816 -0.107812,0.690554 -0.161719,1.03583 -0.08943,0.425096 -0.164642,0.853435 -0.268306,1.275287 -0.41267,1.679347 -1.01447,3.310445 -1.908048,4.795541 -0.335327,0.622538 0.545074,1.096764 0.880404,0.474226 z" />
    <path
       style="fill:#0000ff;stroke-width:0.264583"
       id="path433"
       d="m 102.84407,88.308618 c 0.19805,-0.607489 0.3738,-1.340096 0.0717,-1.950672 -0.0817,-0.16519 -0.18647,-0.3296 -0.33301,-0.441362 -0.16433,-0.125323 -0.37925,-0.164312 -0.56888,-0.246468 -0.19693,0.01027 -0.39997,-0.01897 -0.59078,0.03078 -0.91451,0.238501 -1.509376,1.133184 -1.74072,1.994622 -0.06279,0.233802 -0.07724,0.477973 -0.115866,0.716958 0.03409,0.484026 -0.01717,0.891082 0.328176,1.295505 0.37682,0.441283 0.84152,0.559099 1.40179,0.427967 0.62652,-0.146638 1.02198,-0.558126 1.49699,-0.944285 0.50912,-0.501338 0.9371,-1.065326 1.20839,-1.7291 0.0471,-0.115165 0.0775,-0.236532 0.11124,-0.356272 0.0153,-0.05446 0.0903,-0.150011 0.036,-0.165899 -0.31991,-0.09359 -0.66226,-0.07613 -0.99339,-0.114194 -0.0626,0.343958 -0.12887,0.687787 -0.17023,1.03518 -0.0171,0.143555 -0.0498,0.287803 -0.0389,0.431961 0.0116,0.152464 0.0703,0.297611 0.10543,0.446416 0.22421,0.670623 1.17261,0.353552 0.94841,-0.317069 v 0 c -0.15726,-0.113255 -0.0715,-0.02638 -0.0255,-0.416438 0.0408,-0.345943 0.1083,-0.687946 0.16954,-1.030582 -0.32494,-0.07898 -0.64439,-0.185589 -0.97483,-0.236945 -0.0278,-0.0043 -0.008,0.05575 -0.0152,0.08307 -0.0183,0.07387 -0.0328,0.149204 -0.0599,0.220313 -0.20256,0.531371 -0.54602,0.97722 -0.94126,1.381334 -0.46828,0.402968 -0.45727,0.438031 -0.95014,0.716873 -0.0673,0.03809 -0.31426,0.175638 -0.42372,0.101573 -0.2303,-0.155831 -0.19566,-0.45576 -0.2236,-0.683609 0.0222,-0.17404 0.0275,-0.351107 0.0667,-0.522124 0.12361,-0.538884 0.42015,-1.073179 0.92163,-1.342617 0.0581,-0.03122 0.12481,-0.04276 0.18722,-0.06414 0.0347,-0.01611 0.066,-0.05265 0.10402,-0.04833 0.14878,0.01691 0.20079,0.211992 0.22157,0.317939 0.0685,0.349554 -0.0335,0.69447 -0.13593,1.024681 -0.27219,0.652618 0.65075,1.037553 0.92294,0.384934 z" />
    <path
       style="fill:#0000ff;stroke-width:0.264583"
       id="path435"
       d="m 105.13282,80.9642 c -0.0374,1.258549 -0.29438,2.500024 -0.35366,3.756705 -0.007,0.151088 0.002,0.302506 0.003,0.453761 0.0389,0.116583 0.0778,0.233166 0.11664,0.34975 0.30784,0.636584 1.2081,0.201242 0.90027,-0.43534 v 0 c -0.006,0.02447 -0.0113,0.04893 -0.017,0.0734 -0.0262,-1.427951 0.34666,-2.836236 0.3482,-4.264866 -0.0471,-0.705538 -1.04487,-0.638948 -0.99778,0.06659 z" />
    <path
       style="fill:#0000ff;stroke-width:0.264583"
       id="path437"
       d="m 104.08068,83.123362 c 1.02779,-0.195186 2.06912,-0.303819 3.10754,-0.423 0.70249,-0.0807 0.58837,-1.074164 -0.11412,-0.993468 v 0 c -1.05516,0.121311 -2.11323,0.232161 -3.15768,0.430051 -0.6975,0.116149 -0.53324,1.102566 0.16426,0.986417 z" />
    <path
       style="fill:#0000ff;stroke-width:0.264583"
       id="path439"
       d="m 98.797096,96.098957 c -0.568889,0.218765 -0.922087,0.320146 -1.444845,0.688596 -0.982758,0.692672 -1.767441,1.664126 -2.293178,2.741361 -0.175633,0.359874 -0.286496,0.747896 -0.429744,1.121836 -0.04818,0.34944 -0.164915,0.69616 -0.144534,1.04832 0.04402,0.76061 0.351851,1.27436 1.085162,1.58038 0.713216,0.29763 1.632386,0.15224 2.342271,-0.0122 0.3629,-0.0841 0.709462,-0.22742 1.064192,-0.34113 0.286898,-0.13563 0.573796,-0.27125 0.860694,-0.40688 0.637916,-0.30507 0.206486,-1.20721 -0.431432,-0.90214 v 0 c -0.246435,0.11943 -0.492874,0.23886 -0.739309,0.3583 -0.854284,0.2841 -1.634345,0.58587 -2.557291,0.46184 -0.145473,-0.0195 -0.313137,-0.035 -0.418367,-0.13735 -0.365969,-0.35587 -0.169047,-0.89115 -0.125357,-1.29721 0.118407,-0.322 0.208304,-0.65596 0.355217,-0.966 0.434856,-0.917686 1.094295,-1.776483 1.920065,-2.376487 0.428241,-0.311155 0.731774,-0.404431 1.198946,-0.591069 0.686004,-0.171465 0.443513,-1.141618 -0.24249,-0.970153 z" />
    <path
       style="fill:#0000ff;stroke-width:0.264583"
       id="path441"
       d="m 101.60417,100.60663 c 0.87276,-1.088712 1.67542,-2.278847 2.06819,-3.633556 0.0641,-0.221107 0.0895,-0.451641 0.13426,-0.67746 -0.0203,-0.157298 0.0699,-0.382344 -0.061,-0.471895 -0.26638,-0.182219 -0.63749,-0.316879 -0.94392,-0.21557 -0.27023,0.08934 -0.3676,0.440341 -0.49922,0.692698 -0.15779,0.302551 -0.26155,0.631463 -0.36152,0.957715 -0.29981,0.978448 -0.29855,1.287328 -0.4352,2.30278 -0.0136,0.782278 -0.13243,2.210698 0.77201,2.656588 0.75873,0.37407 1.22146,0.0533 1.90303,-0.19526 0.65519,-0.26596 0.27907,-1.19253 -0.37612,-0.92657 v 0 c -0.17434,0.0829 -0.3486,0.16591 -0.52301,0.24865 -0.1048,0.0497 -0.19867,0.15221 -0.31461,0.1487 -0.64314,-0.0195 -0.45183,-1.525618 -0.46992,-1.801126 0.12676,-0.979358 0.10967,-1.146125 0.38262,-2.089312 0.0769,-0.265609 0.18273,-0.521967 0.27678,-0.781984 0.0409,-0.113064 0.18125,-0.229372 0.12806,-0.3372 -0.0875,-0.177327 -0.71483,-0.67686 -0.46055,-0.373835 -0.031,0.175236 -0.045,0.354361 -0.093,0.525711 -0.34927,1.245457 -1.09815,2.331683 -1.89485,3.330524 -0.45283,0.543082 0.3152,1.183492 0.76804,0.640402 z" />
    <path
       style="fill:#0000ff;stroke-width:0.264583"
       id="path443"
       d="m 91.973407,101.57852 c 0.331713,0.0992 0.722032,0.21479 1.065046,0.074 0.137649,-0.0565 0.288798,-0.12477 0.370284,-0.24926 0.104222,-0.15922 0.169008,-0.36042 0.152905,-0.55004 -0.01439,-0.1695 -0.158639,-0.30096 -0.237955,-0.45144 -0.151816,-0.0722 -0.289383,-0.19046 -0.455446,-0.21671 -0.567053,-0.0896 -1.017484,0.36229 -0.966293,0.9273 0.03687,0.40703 0.279384,0.50683 0.555234,0.72019 0.128656,0.0304 0.25382,0.0945 0.385971,0.0911 0.312216,-0.008 0.602041,-0.16243 0.682691,-0.4981 0.03597,-0.14973 -0.06487,-0.30217 -0.07516,-0.45581 -0.0051,-0.0757 0.108582,0.16204 0.05936,0.2198 -0.175012,0.20535 -0.43574,0.31832 -0.653609,0.47748 0.654799,0.26691 1.032256,-0.65912 0.377455,-0.92602 v 0 c -0.241281,0.14962 -0.528582,0.24276 -0.723847,0.44885 -0.05946,0.0628 -0.0019,0.31358 0.05937,0.25249 0.07385,-0.0738 -0.0398,-0.21721 0.0013,-0.31313 0.01048,-0.0244 0.342223,-0.39293 0.403892,-0.1524 -0.13494,0.19635 -0.2775,0.40272 -0.417169,0.0675 0.0016,-0.0541 -0.0177,-0.11294 0.0046,-0.16225 0.03628,-0.0804 0.09325,-0.15425 0.162784,-0.20845 0.02709,-0.0211 0.08736,-0.0293 0.103013,0.001 0.01384,0.027 -0.0514,0.0371 -0.08157,0.0406 -0.131222,0.0152 -0.242033,-0.0218 -0.366924,-0.051 -0.646221,-0.28705 -1.052174,0.62684 -0.405955,0.91389 z" />
    <path
       style="fill:#0000ff;stroke-width:0.264583"
       id="path445"
       d="m 92.47376,98.921971 c 0.111509,-0.0094 0.226505,0.0011 0.334526,-0.02819 0.262488,-0.07099 0.52786,-0.213789 0.658313,-0.469937 0.06784,-0.133205 0.125074,-0.291031 0.09695,-0.437843 -0.03423,-0.178644 -0.121722,-0.370163 -0.271529,-0.473335 -0.153517,-0.105722 -0.367564,-0.06225 -0.551347,-0.09337 -0.140861,0.118499 -0.331745,0.195397 -0.422587,0.355494 -0.295532,0.520837 0.202425,1.331605 0.73455,1.467072 0.142367,0.03624 0.293796,0.0033 0.440692,0.005 0.139383,-0.178779 0.363596,-0.316309 0.418148,-0.536339 0.07398,-0.298389 -0.216718,-0.644425 -0.381405,-0.852324 -0.04944,-0.06241 -0.107188,-0.117872 -0.157305,-0.179734 -0.0019,-0.0024 0.0082,-0.0087 0.0068,-0.0061 -0.136298,0.252677 -0.274407,0.504373 -0.411612,0.75656 -0.267608,-0.142359 -0.04611,0.04721 -0.06164,0.03037 -0.238585,-0.258625 -0.131511,-0.03541 -0.11014,-0.60861 -0.414634,0.57278 0.395401,1.159163 0.810035,0.586383 v 0 c 0.02331,-0.183142 0.09535,-0.366559 0.06997,-0.549426 -0.03433,-0.247423 -0.465788,-0.395171 -0.637215,-0.456192 -0.173611,0.249595 -0.39398,0.472474 -0.520832,0.748784 -0.02643,0.05756 0.06565,0.108625 0.104079,0.158975 0.03763,0.04931 0.08213,0.09298 0.123492,0.139218 0.0388,0.04337 0.05979,0.118833 0.116978,0.129593 0.179199,0.03372 -0.05948,-0.990325 0.428156,-0.340476 0.05644,0.02037 0.118893,0.02856 0.169307,0.0611 0.01376,0.0089 -0.03014,0.02508 -0.0453,0.01892 -0.04092,-0.01664 -0.06736,-0.0579 -0.10546,-0.08025 -0.162729,-0.09546 -0.194103,0.293097 -0.395335,0.136826 -0.256768,-0.127854 -0.369665,-0.09332 -0.350345,-0.434795 0.01206,-0.213429 0.212645,-0.117983 0.125089,-0.06841 -0.03433,0.01945 -0.07698,0.01733 -0.115469,0.02598 -0.703593,-0.07039 -0.803137,0.924647 -0.09954,0.995034 z" />
    <path
       style="fill:#0000ff;stroke-width:0.264583"
       id="path447"
       d="m 98.579634,94.725023 c 0.08684,-0.03408 0.181364,-0.05289 0.26053,-0.102253 0.465823,-0.290447 0.583325,-0.798489 0.08279,-1.161746 -0.297474,-0.21589 -0.525987,-0.05714 -0.808834,0.03997 -0.09293,0.122029 -0.214824,0.226677 -0.278792,0.366088 -0.133898,0.29182 -0.05605,0.689134 0.08832,0.959626 0.03823,0.07163 0.07602,0.150301 0.14156,0.198233 0.11471,0.08389 0.255786,0.123928 0.38368,0.185891 0.188375,-0.141433 0.424318,-0.23546 0.565129,-0.424304 0.09724,-0.130413 -0.04442,-0.662109 -0.113559,-0.810535 -0.03024,-0.06493 -0.03821,-0.178819 -0.109583,-0.184836 -0.291295,-0.02455 -0.580676,0.06812 -0.871013,0.102177 -0.106273,0.365485 -0.01487,0.316762 0.01408,0.574096 0.130265,0.695005 1.11315,0.510786 0.982888,-0.184219 v 0 c -0.03152,-0.152921 -0.04223,-0.368948 -0.103854,0.05999 -0.2783,0.01016 -0.556544,0.03897 -0.834898,0.03048 -0.01971,-5.29e-4 -0.02701,-0.07378 -0.0176,-0.05646 0.01553,0.02854 0.02532,0.0599 0.03614,0.09055 0.01177,0.03335 0.0074,0.07544 0.03154,0.101311 0.01045,0.01122 0.02296,-0.02035 0.03446,-0.0305 0.17063,-0.08661 0.341257,-0.173212 0.511887,-0.259821 0.08757,0.05686 0.178842,0.108389 0.262715,0.170577 0.0057,0.0043 0.0021,0.024 -0.0044,0.02096 -0.01545,-0.0073 -0.0245,-0.02432 -0.03344,-0.03888 -0.01191,-0.01939 -0.01217,-0.04619 -0.0285,-0.06203 -0.04355,-0.04222 -0.19754,0.13919 -0.169921,0.06511 -0.04397,-0.0041 -0.09063,0.0033 -0.131921,-0.01243 -0.138295,-0.05254 -0.24012,-0.214114 -0.230301,-0.363517 0.0071,-0.10741 0.08209,-0.20099 0.144039,-0.28902 0.01222,-0.01738 0.07319,-0.02482 0.06349,-0.0059 -0.01447,0.02821 -0.05577,0.03016 -0.08366,0.04524 -0.690253,0.153455 -0.473234,1.129622 0.217021,0.976166 z" />
    <path
       style="fill:#0000ff;stroke-width:0.264583"
       id="path449"
       d="m 101.65604,94.014609 c 10e-4,-0.319717 -0.0513,-0.776314 -0.41995,-0.911095 -0.46351,-0.169453 -0.76617,0.03337 -0.85131,0.540977 -0.0264,0.15734 0.10832,0.300125 0.16248,0.450186 0.0949,0.09144 0.17765,0.197316 0.28455,0.274323 0.44246,0.31873 1.18758,0.322485 1.4054,-0.285501 0.0508,-0.141693 0.003,-0.301006 0.004,-0.451512 -0.18779,-0.303853 -0.2368,-0.54193 -0.70181,-0.527103 -0.35671,0.01138 -0.61672,0.280607 -0.77076,0.563195 -0.16827,0.308681 -0.12565,0.416144 -0.11985,0.745008 0.25097,0.375849 0.25482,0.599157 0.82025,0.508556 0.36416,-0.05835 0.71047,-0.553043 0.65049,-0.914932 -0.0243,-0.146783 -0.12662,-0.26929 -0.18993,-0.403934 -0.14685,-0.05488 -0.29371,-0.109765 -0.44056,-0.164647 -0.70703,-0.01077 -0.72226,0.98911 -0.0152,0.999881 v 0 c -0.0946,-0.05409 -0.18925,-0.108172 -0.28387,-0.162261 -0.0235,-0.09086 -0.0678,-0.178766 -0.0704,-0.272566 -0.009,-0.314859 0.0631,-0.07226 0.0769,-0.06947 0.1885,0.03833 0.16408,-0.114012 0.38015,0.13512 0.0532,0.06138 0.0442,0.156382 0.0662,0.234574 -0.11499,-9e-5 0.0198,-0.129532 -0.0287,-0.167537 -0.04,-0.03135 -0.10443,-0.0087 -0.14865,-0.03373 -0.21444,-0.121345 -0.18538,-0.105902 -0.20512,-0.275555 0.0653,-0.154744 0.0499,-0.197541 0.23837,-0.263324 0.0276,-0.0096 0.0627,0.0027 0.0848,0.02172 0.0105,0.009 3e-5,0.03735 -0.0137,0.0393 -0.007,0.0011 -0.14107,-0.03483 -0.16313,-0.04063 -0.008,0.04505 0.003,0.09863 -0.0248,0.135142 -0.0886,0.116964 -0.17418,0.2609 -0.31242,0.310091 -0.24892,0.08858 -0.38376,-0.059 -0.45087,-0.237559 -0.0142,-0.0377 0.35455,0.04908 0.0434,0.11275 -0.0781,0.702773 0.91572,0.8133 0.99388,0.110527 z" />
    <path
       style="fill:#0000ff;stroke-width:0.264583"
       id="path451"
       d="m 107.28873,97.967246 c 0.0229,-0.367581 -0.0232,-1.011897 -0.4607,-1.153705 -0.16348,-0.05299 -0.35678,-0.06237 -0.51554,0.0034 -0.14513,0.06015 -0.21488,0.229233 -0.32233,0.343848 -0.009,0.14928 -0.061,0.30199 -0.0279,0.447836 0.11281,0.49621 0.66377,0.670041 1.10587,0.582718 0.34166,-0.06748 0.4381,-0.191055 0.68923,-0.393477 0.0645,-0.121299 0.18409,-0.226836 0.1935,-0.363895 0.0345,-0.502783 -0.17658,-0.742175 -0.67961,-0.800695 -0.28891,-0.03361 -0.6366,0.199374 -0.82048,0.392805 -0.0906,0.09528 -0.14637,0.218416 -0.21956,0.327623 -0.0285,0.122502 -0.0913,0.241861 -0.0856,0.367509 0.007,0.144447 0.0318,0.303056 0.12159,0.416409 0.18078,0.228262 0.47024,0.343207 0.74597,0.254717 0.10904,-0.03499 0.27423,-0.0686 0.2915,-0.181806 0.0398,-0.260786 -0.0967,-0.518675 -0.14503,-0.778012 -0.60028,-0.373719 -1.12879,0.475202 -0.52852,0.848921 v 0 c -0.0249,-0.244756 -0.12297,-0.493017 -0.0748,-0.734264 0.02,-0.100187 0.28528,-0.176114 0.38164,-0.107855 0.02,0.01418 0.4029,0.34271 0.15806,0.416322 0.0249,-0.115403 0.003,-0.05756 0.0749,-0.170294 0.0171,-0.06344 -0.18053,-0.243091 -0.18435,-0.256936 -0.0825,-0.298315 -0.0433,-0.290822 0.10275,-0.374738 -0.0182,0.02511 -0.034,0.05216 -0.0546,0.0753 -0.01,0.01109 -0.11714,0.105135 -0.11821,0.114972 -0.004,0.03258 0.0245,0.06138 0.0296,0.09374 0.0217,0.135321 -0.009,0.142695 -0.0688,0.28434 -0.0704,0.04343 -0.12912,0.120708 -0.21132,0.130302 -0.25456,0.02971 -0.34134,-0.03366 -0.42877,-0.221943 -0.004,-0.0093 0.0268,-0.0053 0.0305,0.0043 0.0416,0.106693 0.0274,0.222795 0.0258,0.332983 -0.0704,0.703593 0.92462,0.803172 0.99503,0.09958 z" />
    <path
       style="fill:#0000ff;stroke-width:0.264583"
       id="path455"
       d="m 106.82115,100.48312 c -0.12424,0.4649 -0.4096,1.48177 0.33487,1.64372 0.18656,0.0406 0.36992,-0.0947 0.55488,-0.14198 0.0845,-0.10573 0.18589,-0.19991 0.25343,-0.31718 0.20975,-0.36417 0.23815,-0.9787 -0.14352,-1.25459 -0.10377,-0.075 -0.23779,-0.0951 -0.35668,-0.1426 -0.11493,0.0199 -0.23449,0.0218 -0.34479,0.0597 -0.28583,0.0983 -0.4661,0.43722 -0.407,0.73161 0.0595,0.29619 0.22237,0.33703 0.43508,0.45427 0.0853,0.0118 0.17066,0.048 0.25587,0.0356 0.34958,-0.0509 0.54901,-0.24445 0.5478,-0.62132 -0.0416,-0.70588 -1.03985,-0.64708 -0.99827,0.0588 v 0 c 0.0131,-0.30319 0.28893,-0.51223 0.56285,-0.40279 0.21804,0.18641 0.21602,0.32869 0.10379,0.58989 -0.0151,0.0352 -0.1008,0.0844 -0.14182,0.0876 -0.0576,0.004 -0.11542,-0.004 -0.17313,-0.006 -0.1278,-0.087 -0.18384,-0.081 -0.21158,-0.22825 -0.003,-0.0153 0.002,-0.045 0.0177,-0.0433 0.0687,0.008 -0.0423,0.16671 0.0452,0.16693 0.10284,0.007 0.21967,-0.0299 0.30852,0.0224 0.10445,0.0615 0.15535,0.18694 0.22056,0.28912 0.005,0.009 -0.0241,0.0259 -0.0259,0.016 -0.0403,-0.22066 0.0715,-0.44195 0.10194,-0.65574 0.24167,-0.66452 -0.69812,-1.006295 -0.93979,-0.34177 z" />
    <path
       style="fill:#0000ff;stroke-width:0.264583"
       id="path457"
       d="m 98.194891,106.17499 c 0.323622,-0.0872 0.653068,-0.22261 0.819258,-0.54187 0.05884,-0.11304 0.114213,-0.24253 0.09959,-0.36913 -0.0191,-0.16526 -0.05617,-0.36805 -0.195292,-0.45926 -0.181708,-0.11914 -0.430223,-0.0613 -0.645335,-0.0919 -0.106952,0.0882 -0.229325,0.16043 -0.320862,0.26451 -0.196747,0.22372 -0.356238,0.64477 -0.302475,0.9465 0.02278,0.12789 0.05115,0.2695 0.141021,0.3633 0.119022,0.12423 0.299807,0.16885 0.449712,0.25328 0.155972,-0.0407 0.326689,-0.0443 0.467913,-0.12205 0.286086,-0.15742 0.44749,-0.55256 0.483827,-0.85891 0.01892,-0.15938 0.0042,-0.23998 -0.01267,-0.38053 -0.199475,-0.52587 -0.01585,-0.2531 -0.938395,0.30422 0.306557,0.6372 1.207693,0.20367 0.901136,-0.43353 v 0 c -0.950137,0.47165 -0.787516,0.75853 -0.953825,0.26255 0.0021,0.0123 0.0019,0.0253 0.0067,0.0368 0.003,0.007 0.01521,0.0101 0.01577,0.018 0.01434,0.20719 -0.0916,0.15199 0.221432,0.192 0.159256,0.15551 0.249177,0.1485 0.21726,0.3483 -0.0019,0.0123 -0.02365,-0.0167 -0.02349,-0.0292 5.29e-4,-0.0416 0.01476,-0.082 0.02561,-0.12213 0.0091,-0.0337 0.04623,-0.0663 0.03408,-0.0991 -0.0084,-0.0226 -0.04818,-0.003 -0.07227,-0.004 -0.143267,-0.0566 -0.320127,-0.0617 -0.429802,-0.16994 -0.07709,-0.076 -0.0671,-0.21 -0.06511,-0.31827 7.94e-4,-0.0413 0.04065,-0.0743 0.07281,-0.10026 0.0099,-0.008 0.04161,0.001 0.03615,0.0125 -0.01773,0.0374 -0.109149,0.0843 -0.143206,0.10405 -0.702778,0.0781 -0.592299,1.072 0.11048,0.99388 z" />
    <path
       style="fill:#0000ff;stroke-width:0.264583"
       id="path459"
       d="m 101.01299,106.13125 c 0.6037,0.097 1.2828,-0.0188 1.52798,-0.67252 0.0497,-0.13249 0.0421,-0.27987 0.0631,-0.4198 -0.0567,-0.14925 -0.0609,-0.33127 -0.17008,-0.44774 -0.45992,-0.49057 -1.07383,-0.29998 -1.42191,0.18357 -0.22262,0.30926 -0.18633,0.49773 -0.20544,0.84642 0.0438,0.12677 0.0554,0.26985 0.13152,0.38033 0.2572,0.37343 0.70128,0.43902 1.07148,0.204 0.22369,-0.142 0.23593,-0.25761 0.34189,-0.48669 0.002,-0.10292 0.0339,-0.20937 0.007,-0.30875 -0.0826,-0.30579 -0.25518,-0.45706 -0.58133,-0.49266 -0.11193,-0.0122 -0.21822,0.0556 -0.32734,0.0833 -0.63661,0.30778 -0.20134,1.20808 0.43527,0.9003 v 0 c -0.061,0.005 -0.12467,0.032 -0.18299,0.0135 -0.23754,-0.0752 -0.38774,-0.25371 -0.3041,-0.49726 0.0206,-0.0216 0.0374,-0.0477 0.0618,-0.0648 0.0769,-0.0539 0.24707,0.0196 0.29389,0.0632 0.0425,0.0396 0.07,0.096 0.0854,0.15204 0.005,0.0164 -0.0218,0.0261 -0.0327,0.0392 -0.01,-0.0265 -0.0251,-0.0516 -0.0296,-0.0796 -0.0143,-0.0892 0.022,-0.10408 -0.027,-0.17683 -0.0861,-0.12798 -0.11307,-0.0198 -0.17603,-0.24922 -0.01,-0.0363 0.0208,-0.0723 0.0312,-0.1085 0.0219,0.008 0.0701,0.0163 0.0727,0.0513 0.0132,0.17853 -0.36773,0.12257 -0.44774,0.11091 -0.69024,-0.15352 -0.90735,0.82262 -0.21711,0.97615 z" />
    <path
       style="fill:#0000ff;stroke-width:0.264583"
       id="path461"
       d="m 105.82921,94.700009 c 0.76481,0.05936 1.51069,0.257398 2.2717,0.345372 0.12658,0.01463 0.2541,0.01966 0.38115,0.02949 0.11621,-0.01098 0.23432,-0.0093 0.34863,-0.03292 0.10239,-0.02117 0.20439,-0.05228 0.29709,-0.100629 0.0921,-0.04803 0.17464,-0.114334 0.25072,-0.185057 0.099,-0.09208 0.37362,-0.508537 0.17734,-0.611077 -0.28159,-0.1471 -0.63514,-0.01799 -0.95271,-0.027 -0.0259,0.12192 -0.0683,0.241477 -0.0778,0.36576 -0.0377,0.493776 0.11698,1.142018 0.20201,1.624639 0.1349,0.765704 0.0964,0.539097 0.1975,1.321581 0.0784,0.926026 -0.0264,1.853268 -0.0132,2.779712 0.008,0.55503 0.0341,0.68676 0.0921,1.2219 0.0213,0.45785 0.1899,0.89589 0.21637,1.35209 0.007,0.11842 1.2e-4,0.2136 -0.005,0.33142 -0.01,0.17825 -0.0281,0.3559 -0.0375,0.53416 -0.005,0.10035 0.0192,0.12153 -0.0106,0.092 -0.007,0.0295 -0.0123,0.0593 -0.0203,0.0885 -0.0299,0.10883 -0.0804,0.21209 -0.11693,0.31872 -0.0508,0.14851 -0.0237,0.19422 -0.0546,0.13171 0.0137,-0.0315 0.0604,-0.0661 0.0411,-0.0945 -0.0198,-0.029 -0.0702,0.002 -0.10527,5.3e-4 -0.08,-0.003 -0.15981,-0.007 -0.23969,-0.0115 -0.41968,-0.0219 -0.70365,-0.0469 -1.13921,-0.0299 -0.24914,0.01 -0.49711,0.0392 -0.74567,0.0587 -0.21747,0.0261 -0.43494,0.0521 -0.65241,0.0782 -0.70203,0.0845 -0.58252,1.07734 0.11952,0.99283 v 0 c 0.20462,-0.0248 0.40925,-0.0495 0.61387,-0.0743 0.68268,-0.0574 0.60474,-0.0703 1.27014,-0.0529 0.43757,0.0114 0.96391,0.11872 1.37734,-0.0947 0.11917,-0.0615 0.20935,-0.16769 0.31402,-0.25154 0.13971,-0.26582 0.24383,-0.5525 0.31477,-0.84504 0.046,-0.26561 0.0483,-0.53608 0.0707,-0.80467 0.006,-0.18529 0.0136,-0.28462 -2.7e-4,-0.47447 -0.0337,-0.45735 -0.18225,-0.89672 -0.21662,-1.35444 -0.0523,-0.46798 -0.0791,-0.6113 -0.0862,-1.09705 -0.0142,-0.974457 0.0987,-1.950246 0.005,-2.923986 -0.031,-0.237845 -0.0575,-0.476322 -0.093,-0.713537 -0.13608,-0.909063 -0.0808,-0.391427 -0.21989,-1.243301 -0.0252,-0.154379 -0.046,-0.309499 -0.0639,-0.464896 -0.0106,-0.09196 -0.005,-0.18582 -0.0215,-0.276868 -0.002,-0.01167 -0.0214,-0.01021 -0.0321,-0.01532 -0.29563,-0.05028 -0.63648,0.01416 -0.88689,-0.150828 -0.11001,-0.07248 0.0344,-0.26184 0.0667,-0.389554 0.008,-0.03157 0.0872,-0.06696 0.0914,-0.03466 0.003,0.01987 -0.0284,0.03065 -0.0475,0.03681 -0.0497,0.01606 -0.10276,0.01887 -0.15414,0.0283 -0.88676,-0.06152 -1.74981,-0.301665 -2.63589,-0.37347 -0.7042,-0.06404 -0.79477,0.931849 -0.0906,0.995889 z" />
    <path
       style="fill:#0000ff;stroke-width:0.264583"
       id="path463"
       d="m 91.048812,95.265495 c 0.998609,0.02376 1.986124,0.181814 2.981005,0.255638 0.705184,0.0521 0.77887,-0.945176 0.07368,-0.997281 v 0 c -1.01936,-0.07497 -2.03114,-0.239918 -3.054689,-0.258355 -0.707106,0 -0.707106,0.999998 0,0.999998 z" />
    <path
       style="fill:#0000ff;stroke-width:0.264583"
       id="path467"
       d="m 90.652086,95.441637 c -0.383001,1.731115 -0.553183,3.509139 -0.588386,5.280463 -0.0075,0.37566 0.0019,0.75147 0.003,1.12721 0.01511,0.32719 0.02689,0.65456 0.04535,0.98158 0.01582,0.28029 0.04033,0.56003 0.05752,0.84024 0.03934,0.6415 0.05488,1.28519 0.134768,1.92332 0.105686,0.56966 0.07908,0.51854 1.052867,0.13455 0.05486,-0.0216 -0.015,-0.1172 -0.01656,-0.17615 -5.29e-4,-0.0229 0.01339,0.0444 0.01371,0.0673 5.29e-4,0.0456 -0.0073,0.091 -0.01098,0.13647 0.70449,-0.37241 1.484521,-0.55428 2.276655,-0.60331 0.141276,-0.009 0.283083,-0.002 0.424624,-0.003 0.362125,0.0271 0.191119,0.0207 0.512842,0.0234 0.707102,0.003 0.710898,-0.99731 0.0038,-0.99999 v 0 c -0.284051,7.9e-4 -0.107259,0.004 -0.529944,-0.0233 -0.172627,0.003 -0.34562,-0.003 -0.51788,0.009 -0.847198,0.0572 -1.715912,0.23876 -2.473208,0.63619 -0.14628,0.0768 -0.278067,0.17845 -0.4171,0.26768 -0.280389,0.42882 -0.254418,0.25062 -0.271629,0.63707 -2.65e-4,0.007 1.22e-4,-0.0183 0.0068,-0.019 0.321935,-0.035 0.644819,-0.0609 0.9676,-0.087 0.0032,-2.6e-4 -0.0024,0.0123 -0.0032,0.009 -0.01053,-0.0449 -0.0177,-0.0905 -0.02653,-0.13581 -0.08148,-0.61734 -0.09088,-1.24364 -0.128995,-1.86459 -0.01675,-0.27294 -0.04063,-0.54543 -0.05626,-0.81844 -0.01788,-0.31249 -0.02951,-0.62531 -0.04427,-0.93797 -0.0013,-0.36145 -0.01066,-0.72298 -0.0037,-1.08437 0.03278,-1.711713 0.195258,-3.430484 0.565373,-5.103365 0.153376,-0.690271 -0.822815,-0.907179 -0.976194,-0.216908 z" />
    <path
       style="fill:#0000ff;stroke-width:0.264583"
       id="path469"
       d="m 111.34457,93.827869 c 0.36434,-0.239991 0.64708,-0.19231 1.05083,-0.129501 0.22671,0.03922 0.1074,0.02426 0.35831,0.04156 0.70621,0.03563 0.7566,-0.963099 0.0504,-0.99873 v 0 c -0.13815,-5.29e-4 -0.0515,0.0041 -0.25833,-0.03146 -0.69501,-0.103826 -1.19409,-0.09039 -1.80114,0.318082 -0.56572,0.424222 0.0342,1.224266 0.59994,0.800047 z" />
    <path
       style="fill:#0000ff;stroke-width:0.264583"
       id="path471"
       d="m 119.09683,88.507987 c 0.19554,-0.105513 0.48867,-0.27237 0.68647,-0.327975 0.6189,-0.173987 1.39203,-0.112308 1.99737,0.06774 0.28643,0.08519 0.55707,0.216495 0.83561,0.324741 0.60022,0.323215 1.28704,0.692148 1.4292,1.433214 0.0993,0.517562 -0.21378,1.146773 -0.39898,1.60511 -0.33535,0.816912 -0.99753,2.18204 -0.0551,2.875074 0.17372,0.127754 0.40258,0.154697 0.60387,0.232045 0.45037,0.05026 0.90383,0.03069 1.34487,-0.07502 0.14113,-0.03383 0.37344,-0.109169 0.46214,-0.233423 0.0846,-0.118462 0.10968,-0.269632 0.16453,-0.404447 -0.0365,-0.115099 -0.0386,-0.247484 -0.1094,-0.3453 -0.14231,-0.196676 -0.38426,-0.272235 -0.61365,-0.22942 -0.11335,0.02117 -0.21739,0.08017 -0.31739,0.137586 -0.19431,0.11158 -0.29728,0.268533 -0.44132,0.437536 -0.24325,0.351956 -0.3849,0.717354 -0.30893,1.156068 0.0971,0.560628 0.49026,1.031888 0.80822,1.479018 0.21342,0.331528 0.45909,0.65406 0.56449,1.043844 0.13244,0.489755 0.0795,1.149136 -0.28425,1.537796 -0.12376,0.132217 -0.29881,0.204684 -0.44822,0.307028 -0.23076,0.05792 -0.45574,0.148262 -0.69229,0.173765 -0.66211,0.07138 -1.45291,-0.02043 -2.09878,-0.130445 -0.30892,-0.05262 -0.61766,-0.114438 -0.91704,-0.207042 -0.49471,-0.153024 -0.51016,-0.08718 -0.38838,-0.269034 -0.40807,-0.577476 -1.22474,-2.64e-4 -0.81667,0.577096 v 0 c 0.11967,0.130477 0.21236,0.292227 0.359,0.391418 0.41852,0.28312 1.20376,0.42892 1.64424,0.50047 0.76313,0.12397 1.73733,0.23052 2.51042,0.0937 0.35734,-0.0632 0.68646,-0.23567 1.0297,-0.35351 0.23713,-0.21139 0.5192,-0.381228 0.7114,-0.634165 0.50872,-0.669472 0.53235,-1.627396 0.30219,-2.398802 -0.13649,-0.457433 -0.40861,-0.821148 -0.66222,-1.21357 -0.20334,-0.282929 -0.35136,-0.470939 -0.5207,-0.763402 -0.0392,-0.06772 -0.0714,-0.139343 -0.10403,-0.210468 -0.0168,-0.03662 -0.0433,-0.07223 -0.0442,-0.112522 -0.003,-0.130358 0.0763,-0.234474 0.13542,-0.340675 0.0301,-0.0429 0.0565,-0.08862 0.0902,-0.128688 0.0238,-0.02824 0.0796,-0.03821 0.0815,-0.07509 10e-4,-0.02585 -0.0521,2.65e-4 -0.0775,-0.0045 -0.28435,-0.05506 -0.36124,-0.195125 -0.39016,-0.475676 0.21831,-0.381783 0.0437,-0.206428 0.27222,-0.322519 0.0293,-0.01487 -0.0599,0.02768 -0.0917,0.03584 -0.29073,0.07465 -0.59263,0.09331 -0.89162,0.09153 -0.0668,0.01024 -0.25329,0.04676 -0.27641,0.01995 -0.12677,-0.14695 -0.0721,-0.484754 -0.0418,-0.618422 0.0746,-0.329797 0.31688,-0.881036 0.4375,-1.176411 0.30636,-0.791115 0.63118,-1.526665 0.37189,-2.40188 -0.18311,-0.618077 -0.58516,-1.062852 -1.09383,-1.434809 -0.27388,-0.200273 -0.58955,-0.336034 -0.88432,-0.504049 -0.3353,-0.124167 -0.66113,-0.277773 -1.00591,-0.372499 -0.8473,-0.232791 -1.74415,-0.251672 -2.5891,0.0021 -0.29839,0.08966 -0.62158,0.294347 -0.89221,0.45143 -0.5583,0.433938 0.0554,1.223491 0.61368,0.789556 z" />
    <path
       style="fill:#0000ff;stroke-width:0.264583"
       id="path473"
       d="m 133.36819,96.338571 c 0.56013,-1.155668 0.98742,-2.380212 1.20256,-3.649136 0.16983,-1.00168 0.15306,-1.392875 0.18819,-2.380853 -0.0126,-0.289533 -0.0188,-0.579421 -0.0379,-0.868603 -0.0192,-0.29169 -0.024,-1.739717 -0.9683,-0.09255 -0.14205,0.247767 0.11552,0.559388 0.17533,0.838648 0.0846,0.394856 0.17185,0.789125 0.25778,1.183685 0.32769,1.366959 0.67746,2.734317 1.19431,4.044518 0.11519,0.291994 0.5191,1.313609 0.87221,1.560018 0.20638,0.144023 0.48335,0.140433 0.72503,0.210648 0.24023,-0.226243 0.56249,-0.389128 0.72071,-0.67873 0.25133,-0.460042 0.34478,-2.023663 0.36864,-2.45363 0.0824,-1.484741 0.0565,-2.974999 0.0402,-4.460967 -0.0183,-0.291778 -0.0366,-0.583552 -0.0549,-0.875327 -0.0448,-0.705686 -1.04281,-0.642284 -0.99798,0.0634 v 0 c 0.0177,0.274312 0.0353,0.548624 0.053,0.822936 0.0161,1.455182 0.0387,2.913234 -0.0369,4.367395 -0.0214,0.412578 -0.0539,0.824783 -0.0991,1.23544 -0.0285,0.258921 -0.13399,0.511715 -0.12172,0.771909 0.004,0.08911 0.11197,0.138917 0.16795,0.208372 0.0434,0.258239 0.1158,0.507183 -0.29774,-0.227338 -0.15759,-0.279902 -0.27854,-0.579503 -0.39687,-0.878136 -0.50333,-1.270362 -0.84108,-2.59743 -1.15979,-3.92331 -0.0853,-0.391843 -0.17205,-0.783392 -0.25603,-1.175528 -0.0599,-0.279696 0.0401,-0.652089 -0.17561,-0.839957 -1.35177,-1.177369 -1.0412,-0.117332 -1.00923,0.343866 0.0182,0.262723 0.0249,0.526116 0.0374,0.789173 -0.0295,0.907661 -0.0136,1.281152 -0.16536,2.199812 -0.19637,1.188632 -0.59676,2.335029 -1.12035,3.416932 -0.3163,0.63242 0.57808,1.079733 0.89438,0.447312 z" />
    <path
       style="fill:#0000ff;stroke-width:0.264583"
       id="path475"
       d="m 142.81101,92.877596 c -0.2191,-0.530558 -0.52197,-1.047604 -1.06354,-1.311306 -0.19432,-0.09462 -0.40945,-0.171106 -0.62558,-0.170471 -0.67736,0.0021 -0.82199,0.249343 -1.31171,0.636516 -0.1421,0.219503 -0.31209,0.423283 -0.42628,0.658513 -0.35803,0.737561 -0.43919,1.578322 -0.34751,2.383145 0.0267,0.23477 0.064,0.470744 0.13667,0.695563 0.0692,0.213921 0.19059,0.407273 0.28588,0.610909 0.15043,0.148934 0.26023,0.355638 0.45127,0.446805 1.19182,0.568738 2.19332,-0.668943 2.74063,-1.541931 0.16039,-0.255849 0.28441,-0.532778 0.42663,-0.799166 0.20345,-0.526706 0.31785,-0.731689 0.40866,-1.260708 0.0202,-0.117514 0.0681,-0.247195 0.0217,-0.357044 -0.0832,-0.197186 -0.17478,-0.496536 -0.3883,-0.51139 -0.73896,-0.0514 -0.78153,0.548386 -0.91436,0.988793 -0.036,0.216435 -0.0866,0.430935 -0.10787,0.649298 -0.081,0.831334 -0.0721,2.094728 1.05766,2.194555 0.2428,0.02146 0.47288,-0.11847 0.70931,-0.177707 0.18845,-0.122066 0.3769,-0.244131 0.56535,-0.366194 0.58422,-0.398354 0.0209,-1.224569 -0.56335,-0.826217 v 0 c -0.11349,0.08381 -0.22698,0.167624 -0.34048,0.251436 -0.0569,0.0463 -0.12655,0.08036 -0.17082,0.138888 -0.0316,0.04183 0.004,0.155397 -0.0477,0.14996 -0.0758,-0.0079 -0.12539,-0.09935 -0.15194,-0.170765 -0.17952,-0.482938 -0.0643,-1.091842 0.0145,-1.579856 0.15958,-0.710819 0.11138,0.0019 -0.42888,-0.326609 -0.14369,-0.08738 -0.12776,-0.316196 -0.23258,-0.447707 -0.0335,-0.04207 0.0126,0.10818 0.004,0.161343 -0.0669,0.430607 -0.15552,0.584343 -0.31972,1.023252 -0.11909,0.22883 -0.22405,0.465595 -0.35728,0.686491 -0.26351,0.436888 -0.48087,0.717092 -0.84656,1.055595 -0.0836,0.07742 -0.18301,0.135879 -0.27394,0.204597 -0.0483,0.03649 -0.0834,0.116392 -0.14367,0.111032 -0.0866,-0.0077 -0.14522,-0.09546 -0.21783,-0.14319 -0.067,-0.121655 -0.1552,-0.233852 -0.201,-0.364969 -0.0616,-0.176252 -0.0927,-0.362566 -0.11774,-0.547568 -0.10615,-0.782804 0.011,-1.562635 0.43426,-2.237103 0.0636,-0.06861 0.31048,-0.371551 0.4485,-0.40962 0.0842,-0.02323 0.17856,-0.01238 0.26166,0.01453 0.3671,0.118928 0.54068,0.480645 0.68289,0.804532 0.22361,0.670819 1.17229,0.354592 0.94869,-0.31623 z" />
    <path
       style="fill:#0000ff;stroke-width:0.264583"
       id="path477"
       d="m 144.91582,87.408185 c 0.0843,1.246733 -0.005,2.50261 0.12646,3.745855 0.0283,0.09034 0.0566,0.180686 0.0849,0.271028 0.24774,0.66229 1.18436,0.311934 0.93662,-0.350356 v 0 c -0.009,-0.0098 -0.0183,-0.01955 -0.0274,-0.02934 -0.0607,-0.535816 -0.0583,-1.068893 -0.0668,-1.607955 -0.0111,-0.700315 -0.0228,-1.400855 -0.0562,-2.100538 -0.0504,-0.705307 -1.04788,-0.634 -0.99746,0.07131 z" />
    <path
       style="fill:#0000ff;stroke-width:0.264583"
       id="path479"
       d="m 143.45875,90.231319 c 0.5744,-0.200338 1.17996,-0.242986 1.7803,-0.296394 0.70418,-0.06437 0.61314,-1.06022 -0.091,-0.99585 v 0 c -0.6996,0.06549 -1.40391,0.122142 -2.06988,0.367509 -0.65389,0.269132 -0.27327,1.193869 0.38061,0.924735 z" />
    <path
       style="fill:#0000ff;stroke-width:0.264583"
       id="path481"
       d="m 148.69324,89.081903 c -0.12533,1.743442 -0.30186,3.482927 -0.42741,5.226378 -0.0845,1.173559 -0.0973,1.581666 -0.14919,2.698001 -0.008,0.272068 -0.0222,0.544023 -0.0253,0.816205 -0.002,0.164489 -0.004,0.329501 0.0106,0.493382 0.008,0.09518 -0.0235,0.229124 0.0567,0.280948 0.82207,0.530807 0.97313,0.320712 1.14354,-0.39328 0.008,-0.07743 0.0216,-0.154495 0.0227,-0.232283 0.001,-0.07822 -0.004,-0.156877 -0.016,-0.234132 -0.052,-0.326443 -0.32501,-0.83022 -0.50761,0.450702 -0.0162,0.113588 0.22907,0.01357 0.34361,0.02035 1.02459,0.03544 2.05003,0.03848 3.07513,0.04207 0.7071,0.0024 0.7106,-0.997513 0.003,-0.999993 v 0 c -1.00803,-0.0035 -2.01638,-0.0066 -3.02393,-0.04058 -0.0887,-0.0043 -0.19363,-0.06449 -0.26596,-0.01304 -0.24635,0.175191 -0.42693,0.428323 -0.63124,0.65111 -0.006,0.007 5.3e-4,0.0298 0.01,0.02675 0.01,-0.0033 -0.005,-0.03748 0.003,-0.0309 0.012,0.0099 0.0131,0.02895 0.0138,0.04444 0.002,0.03976 -0.004,0.07946 -0.007,0.119192 -0.0151,0.212411 -0.0193,-0.05168 0.13717,-3.9e-5 0.23981,0.07914 0.44032,0.248996 0.67108,0.351578 0.0218,0.0097 -0.0264,-0.04202 -0.0283,-0.06582 -0.0113,-0.146109 -0.0125,-0.292966 -0.0108,-0.439502 0.003,-0.267026 0.0165,-0.533832 0.0247,-0.800749 0.0509,-1.097899 0.0639,-1.510265 0.147,-2.663729 0.12622,-1.752804 0.30413,-3.501586 0.42928,-5.254448 0.0372,-0.706128 -0.96142,-0.75873 -0.99861,-0.0526 z" />
    <path
       style="fill:#0000ff;stroke-width:0.264583"
       id="path483"
       d="m 149.75891,88.817131 c 0.7393,-0.05459 1.46826,0.09576 2.19979,0.170784 0.50394,0.04157 0.89066,2.25e-4 0.95411,-0.633942 0.009,-0.08543 -0.0634,-0.159591 -0.0951,-0.239387 -0.39438,-0.586917 -1.2244,-0.02919 -0.83003,0.557726 v 0 c -0.0895,-0.262689 -0.1495,-0.293553 0.10595,-0.605417 0.17699,-0.216085 0.31129,-0.06391 0.16948,-0.06284 -0.068,5.29e-4 -0.13577,-0.0074 -0.20365,-0.01106 -0.86879,-0.08682 -1.7435,-0.284814 -2.61695,-0.124519 -0.67079,0.223695 -0.35444,1.172337 0.31635,0.948643 z" />
    <path
       style="fill:#0000ff;stroke-width:0.264583"
       id="path485"
       d="m 152.12325,92.398293 c 0.0444,0.112639 0.069,0.235358 0.13335,0.337913 0.21857,0.34816 0.67363,0.572354 1.06878,0.331105 0.354,-0.216117 0.29316,-0.428895 0.31482,-0.763122 -0.0467,-0.104862 -0.0629,-0.229696 -0.14014,-0.314587 -0.22678,-0.249132 -0.43537,-0.295418 -0.7475,-0.209055 -0.21192,0.05863 -0.34651,0.253952 -0.46817,0.418446 -0.23386,0.381707 -0.14133,0.851556 0.42403,0.913128 0.70445,0.06123 0.79105,-0.935009 0.0866,-0.996244 v 0 c 0.10486,0.118396 0.56563,0.418613 0.29354,0.677513 0.0193,-0.02611 0.0446,-0.04872 0.0579,-0.07833 0.0138,-0.03084 -0.0254,0.02392 -0.0986,0.0209 -0.0711,-0.0029 -0.14871,0.0047 -0.21168,-0.02852 -0.19333,-0.101983 -0.17304,-0.141954 -0.18994,-0.293679 0.0185,-0.04106 0.0242,-0.09077 0.0555,-0.123174 0.0961,-0.0996 0.39934,-0.238832 0.47192,-0.02698 0.0164,0.04779 -0.0521,0.0249 -0.0565,0.02416 -0.0782,-0.702773 -1.07203,-0.592249 -0.99388,0.110527 z" />
    <path
       style="fill:#0000ff;stroke-width:0.264583"
       id="path487"
       d="m 152.61,95.692451 c 0.29744,-0.02119 0.64787,-0.04575 0.87824,-0.270283 0.0926,-0.09022 0.19997,-0.19201 0.21928,-0.31982 0.0278,-0.183859 0.0155,-0.396235 -0.0877,-0.550897 -0.0935,-0.140105 -0.29511,-0.16251 -0.44267,-0.243766 -0.1457,0.03511 -0.30378,0.03688 -0.43712,0.105323 -0.34336,0.176239 -0.4956,0.635918 -0.36512,0.988041 0.0426,0.11506 0.11223,0.229431 0.21189,0.301012 0.11995,0.08616 0.27781,0.100324 0.41671,0.150484 0.15004,-0.06701 0.33999,-0.07907 0.4501,-0.20103 0.2467,-0.273238 0.16931,-0.786734 -0.11081,-1.001882 -0.10255,-0.07876 -0.21962,-0.165762 -0.34886,-0.16963 -0.17113,-0.0051 -0.32859,0.09629 -0.49289,0.144431 -0.0668,0.08638 -0.13363,0.172762 -0.20045,0.259143 -0.35805,0.609756 0.50428,1.116111 0.86233,0.506355 v 0 c -0.0246,0.01439 -0.0491,0.0288 -0.0737,0.0432 -0.10757,0.0069 -0.21739,0.04355 -0.32273,0.02066 -0.4303,-0.09343 0.0436,-0.795022 0.31416,-0.598278 0.0694,0.04478 0.15167,0.07404 0.20807,0.134332 0.0338,0.03612 0.0455,0.09081 0.0487,0.140176 0.0141,0.218366 -0.19858,0.189008 -0.33661,0.161988 -0.24694,-0.22439 -0.32377,-0.188833 -0.20901,-0.591534 0.0616,-0.216114 0.14387,-0.08045 0.12663,-0.06963 -0.025,0.01572 -0.15927,0.05573 -0.19797,0.06771 -0.70278,-0.07812 -0.81326,0.915757 -0.11048,0.993878 z" />
    <path
       style="fill:#0000ff;stroke-width:0.264583"
       id="path489"
       d="m 158.37204,89.795111 c -0.16627,0.08305 -0.3413,0.150508 -0.49882,0.249153 -1.00544,0.629613 -1.7945,1.636133 -2.10193,2.790351 -0.0742,0.278487 -0.082,0.570521 -0.12305,0.855781 0.0224,0.249659 0.0161,0.50355 0.0671,0.748975 0.12577,0.605922 0.48468,1.221423 1.1294,1.386462 0.54808,0.1403 0.8973,-0.02782 1.4127,-0.168257 0.21122,-0.09522 0.42244,-0.190442 0.63367,-0.285662 0.64246,-0.295368 0.22475,-1.203947 -0.41771,-0.908582 v 0 c -0.16647,0.07842 -0.33294,0.156837 -0.49941,0.235257 -0.12704,0.04207 -0.73569,0.294431 -0.91697,0.190886 -0.34907,-0.199398 -0.37904,-0.737902 -0.41688,-1.071727 0.0227,-0.211283 0.0193,-0.427042 0.0682,-0.633846 0.24805,-1.049562 0.99796,-1.929813 1.93835,-2.427237 0.67992,-0.194183 0.4053,-1.155737 -0.27462,-0.961554 z" />
    <path
       style="fill:#0000ff;stroke-width:0.264583"
       id="path491"
       d="m 160.41977,94.496132 c 1.09513,-0.808037 1.75931,-1.999681 2.37429,-3.182421 0.19058,-0.425667 0.73544,-1.185035 -0.25132,-1.404374 -0.22612,-0.05026 -0.40072,0.243131 -0.56036,0.410969 -0.21073,0.221552 -0.51979,0.935593 -0.63341,1.174657 -0.28596,0.726747 -0.5267,1.497992 -0.51091,2.28972 0.007,0.347935 0.0829,0.845722 0.31322,1.138309 0.11664,0.148196 0.29473,0.235379 0.44209,0.353066 0.17055,0.02815 0.33905,0.09404 0.51165,0.08444 0.51558,-0.02868 0.89887,-0.418984 1.26026,-0.734322 0.53073,-0.467246 -0.13005,-1.217821 -0.66079,-0.750575 v 0 c -0.19912,0.177242 -0.4204,0.342503 -0.595,0.543941 -0.0232,0.0149 -0.0475,0.06112 -0.0696,0.04471 -0.16031,-0.118628 -0.19895,-0.464383 -0.20444,-0.607028 -0.0257,-0.66893 0.18138,-1.321864 0.41838,-1.936486 0.088,-0.189145 0.16843,-0.381968 0.26392,-0.567436 0.0682,-0.132519 0.2048,-0.238005 0.22667,-0.385442 0.008,-0.05648 -0.125,-0.01479 -0.16067,-0.05936 -0.59338,-0.741538 -0.30148,-0.911802 -0.48576,-0.472731 -0.0592,0.141078 -0.12762,0.278122 -0.19142,0.417184 -0.53255,1.02753 -1.09153,2.074365 -2.02335,2.799334 -0.59669,0.37942 -0.0601,1.223269 0.53658,0.843846 z" />
    <path
       style="fill:#0000ff;stroke-width:0.264583"
       id="path493"
       d="m 159.66738,87.929356 c 0.29426,-0.321696 0.65715,-0.828788 0.25466,-1.260244 -0.29747,-0.318884 -0.55039,-0.186815 -0.87392,-0.115782 -0.1,0.06612 -0.22122,0.107945 -0.29991,0.198347 -0.26009,0.298808 -0.30027,0.56727 -0.0757,0.931977 0.1874,0.304424 0.66431,0.3992 0.98279,0.453972 0.0891,-0.0053 0.18438,0.01725 0.26715,-0.01606 0.44908,-0.18061 0.50274,-0.333981 0.38259,-0.85928 -0.0465,-0.203512 -0.44796,-0.41648 -0.61954,-0.502163 -0.60748,-0.06657 -0.27593,-0.132919 -0.68103,0.751769 0.33457,0.622942 1.21555,0.149775 0.88097,-0.473168 v 0 c -0.45218,0.737865 -0.1589,0.744987 -0.61181,0.632645 0.0423,0.0095 0.0759,0.04546 0.11843,0.05414 0.01,0.0019 0.0111,-0.01675 0.0135,-0.0263 0.0357,-0.144121 0.0165,-0.311433 0.10043,-0.433935 0.0602,-0.08794 0.19075,-0.09564 0.28955,-0.135625 0.006,-0.0024 7.9e-4,0.01199 0.001,0.01799 -0.0375,-0.0026 -0.0754,-0.0011 -0.11244,-0.0076 -0.0474,-0.0084 -0.092,-0.04427 -0.1395,-0.03689 -0.021,0.0033 -0.0143,0.04027 -0.0175,0.06126 -0.0136,0.08733 0.002,0.181967 -0.0329,0.26307 -0.14047,0.324567 -0.12918,0.123193 -0.12869,0.07406 -0.0536,-0.08858 -0.18393,-0.11761 -0.22739,-0.211585 -0.0453,-0.09807 -0.0243,-0.215122 -0.0251,-0.323167 -6e-5,-0.0078 0.0245,-0.0021 0.0227,0.0054 -0.017,0.07074 -0.0782,0.141907 -0.1191,0.197795 -0.5369,0.460155 0.11386,1.21944 0.65075,0.759285 z" />
    <path
       style="fill:#0000ff;stroke-width:0.264583"
       id="path495"
       d="m 161.8331,88.331129 c 0.12215,-0.0044 0.2471,0.01326 0.36646,-0.0131 0.39768,-0.08781 0.84374,-0.448082 0.69217,-0.930555 -0.0546,-0.173821 -0.20061,-0.330756 -0.36694,-0.405115 -0.16209,-0.07246 -0.35509,0.0019 -0.53264,0.003 -0.45495,0.323495 -0.27949,0.130707 -0.54907,0.556866 -0.33187,0.62439 0.55115,1.093726 0.88302,0.469336 v 0 c -0.013,-0.06393 0.005,-0.0377 -0.0741,-0.06056 -0.18428,-0.08044 -0.33135,-0.09409 -0.34183,-0.372099 -0.004,-0.115623 0.0813,-0.348393 0.18374,-0.294498 0.0245,0.01291 -0.0278,0.0894 -0.0438,0.0706 -0.69025,-0.153456 -0.90727,0.822711 -0.21702,0.976167 z" />
    <path
       style="fill:#0000ff;stroke-width:0.264583"
       id="path499"
       d="m 165.035,92.002389 c 0.0676,0.05551 0.128,0.12123 0.20283,0.166534 0.45953,0.278215 1.08004,0.315045 1.38492,-0.22348 0.0657,-0.116007 0.0654,-0.258464 0.0981,-0.387694 -0.0491,-0.137329 -0.0463,-0.306763 -0.14734,-0.411988 -0.37832,-0.394171 -0.92326,-0.238141 -1.13197,0.217384 -0.11981,0.261512 -0.0373,0.382643 0.0344,0.631712 0.2326,0.2312 0.30664,0.412776 0.71619,0.299399 0.28459,-0.07878 0.36419,-0.289401 0.4285,-0.525237 0.007,-0.02416 0.0228,-0.242636 0.0113,-0.09175 -0.38047,0.536879 -0.1608,0.421725 -0.8452,-0.469834 -0.0104,-0.01363 0.025,-0.02355 0.0375,-0.03534 -0.58964,0.390282 -0.0377,1.224167 0.55195,0.833885 v 0 c 0.0361,-0.02737 0.12979,-0.04232 0.10819,-0.08212 -0.56441,-1.040324 -0.427,-1.021705 -0.81854,-0.504855 -0.009,0.04723 -0.0202,0.09416 -0.0279,0.141687 -5.3e-4,0.0038 0.005,-0.0061 0.007,-0.0093 0.019,-0.02893 0.0288,-0.06636 0.0565,-0.08704 0.0762,-0.05682 0.15384,-0.130117 0.24838,-0.140242 0.29282,-0.03136 0.30934,0.07014 0.43199,0.246456 0.002,0.04372 0.0141,0.08814 0.006,0.131152 -0.0799,0.424246 -0.81493,0.153641 -0.66395,-0.217956 0.0258,-0.03607 0.0423,-0.08114 0.0774,-0.108194 0.0306,-0.0236 0.14534,-0.05776 0.18127,-0.0032 0.0478,0.07257 -0.35739,-0.02051 -0.24035,-0.07728 -0.50014,-0.499859 -1.20705,0.207444 -0.70691,0.707305 z" />
    <path
       style="fill:#0000ff;stroke-width:0.264583"
       id="path501"
       d="m 165.52388,94.523852 c 0.28692,-0.462438 0.45793,-0.593066 -0.75787,-0.6575 -0.0981,-0.0052 -0.0539,0.190238 -0.0612,0.288166 -0.022,0.294137 0.027,0.356185 0.11472,0.631703 0.0644,0.09218 0.10614,0.205449 0.19328,0.276548 0.43541,0.355256 0.89243,0.251108 1.19485,-0.205108 0.15138,-0.228364 0.12426,-0.410863 0.13244,-0.663532 -0.0438,-0.114848 -0.0516,-0.251047 -0.13145,-0.344549 -0.23484,-0.275172 -0.5056,-0.345585 -0.83235,-0.16461 -0.25922,0.143571 -0.29918,0.44074 -0.30805,0.695227 0.0604,0.422055 0.0241,0.515456 1.0078,-0.0055 0.18432,-0.09761 -0.28081,-0.479925 -0.30343,-0.492805 -0.08,-0.04554 -0.1714,-0.08842 -0.2633,-0.08322 -0.13861,0.0079 -0.26575,0.08047 -0.39862,0.120698 -0.0682,0.08792 -0.1364,0.175844 -0.2046,0.263768 -0.31481,0.633161 0.58061,1.078375 0.89543,0.445214 v 0 c -0.0446,0.04053 -0.0893,0.08105 -0.13391,0.121582 -0.0934,0.01376 -0.18598,0.04753 -0.28018,0.04128 -0.0579,-0.0038 -0.11204,-0.03653 -0.15909,-0.07042 -0.0337,-0.02429 -0.27177,-0.309478 -0.1523,-0.34912 0.99602,-0.33051 0.96552,-0.382053 0.99219,0.0067 -0.0456,0.0535 -0.1392,0.158871 -0.1992,0.176723 -0.26316,0.07828 -0.54247,-0.01595 -0.52838,-0.327576 0.004,0.0056 0.034,0.05622 0.0479,0.05641 0.0363,5.29e-4 0.0705,-0.024 0.1067,-0.02148 0.15821,0.01103 0.21,0.03196 0.29037,0.165653 0.005,0.009 -0.0208,0.0021 -0.0312,0.0031 -0.0128,-0.01693 -0.0293,-0.03161 -0.0384,-0.05082 -0.0163,-0.03459 -0.003,-0.08912 -0.0358,-0.108958 -0.97669,-0.592944 -0.70063,-0.77321 -0.95643,-0.347606 -0.42422,0.565718 0.37583,1.165656 0.80005,0.599937 z" />
    <path
       style="fill:#0000ff;stroke-width:0.264583"
       id="path503"
       d="m 166.94846,89.127935 c 0.70719,-0.167452 1.42233,-0.05579 2.12252,0.08258 0.0535,0.01363 0.1067,0.02813 0.16039,0.04085 0.0402,0.0095 -0.0884,-0.0044 -0.11979,-0.03123 -0.0721,-0.06172 -0.0842,-0.242467 -0.17709,-0.222932 -0.0913,0.01921 -0.042,0.181882 -0.0616,0.273137 -0.12922,0.601935 -0.14652,0.707908 -0.27602,1.367843 -0.2288,1.273955 -0.39989,2.564418 -0.42041,3.860448 -0.008,0.53689 0.0133,0.711036 0.0493,1.208616 -0.007,0.178917 0.0673,0.354997 0.0606,0.534578 -0.003,0.07594 2.7e-4,-0.02061 -0.0123,0.01265 -0.0112,0.02964 -0.017,0.0611 -0.0255,0.09164 -0.10645,0.214733 -0.14669,0.45239 -0.19543,0.684869 -0.0443,0.340069 -0.0684,0.682027 -0.10534,1.023358 -0.0293,0.173267 -0.0173,0.02043 -0.0133,0.01508 0.0515,-0.06794 0.10705,-0.134967 0.17461,-0.187013 0.0408,-0.03141 0.17898,-0.0208 0.14319,-0.05779 -0.056,-0.05787 -0.15807,-0.03193 -0.23814,-0.04036 -0.15313,-0.01611 -0.30716,-0.02214 -0.46074,-0.03322 -0.52786,-0.0037 -1.05341,0.0173 -1.58107,0.0021 -0.70684,-0.01937 -0.73422,0.980263 -0.0274,0.999625 v 0 c 0.5147,0.01336 1.02727,1.43e-4 1.54206,-0.0038 0.12006,0.0071 0.24055,0.0089 0.36017,0.02138 0.22813,0.02381 0.42491,0.113496 0.66506,0.02732 0.29166,-0.104656 0.38101,-0.371602 0.4297,-0.635749 0.0333,-0.308681 0.06,-0.6175 0.0899,-0.926102 0.0446,-0.214072 0.084,-0.42367 0.18034,-0.622665 0.0295,-0.106942 0.0525,-0.180584 0.0687,-0.296622 0.0316,-0.227055 -0.0453,-0.458573 -0.0579,-0.682763 -0.0336,-0.445288 -0.0543,-0.611402 -0.0474,-1.093102 0.0179,-1.245463 0.18345,-2.485591 0.40258,-3.709845 0.0511,-0.260339 0.1007,-0.520961 0.15318,-0.781018 0.0391,-0.19364 0.0826,-0.386371 0.12149,-0.580048 0.0812,-0.404265 0.16955,-0.585256 -0.0803,-0.999916 -0.0978,-0.162306 -0.34473,-0.19988 -0.50859,-0.240393 -0.88551,-0.173363 -1.77037,-0.286459 -2.65714,-0.0412 -0.66455,0.241591 -0.32289,1.181412 0.34166,0.939821 z" />
    <path
       style="fill:#0000ff;stroke-width:0.264583"
       id="path505"
       d="m 157.78023,98.412585 c 0.0216,0.07725 0.0432,0.154503 0.0648,0.231756 0.19285,0.680299 1.15494,0.407569 0.96209,-0.272733 v 0 c -0.0169,-0.05871 -0.0339,-0.117422 -0.0508,-0.176133 -0.15352,-0.690239 -1.12967,-0.47313 -0.97615,0.21711 z" />
    <path
       style="fill:#0000ff;stroke-width:0.264583"
       id="path507"
       d="m 160.54274,98.884218 c 0.0932,0.0867 0.1737,0.18947 0.27959,0.260111 0.34768,0.231939 0.82298,0.277093 1.16375,-0.0057 0.27814,-0.23079 0.25468,-0.393602 0.30661,-0.703429 -0.0531,-0.139697 -0.0544,-0.312632 -0.15932,-0.419089 -0.29203,-0.296405 -0.60232,-0.288674 -0.93357,-0.100725 -0.17229,0.09775 -0.36818,0.367062 -0.43563,0.559171 -0.0348,0.09914 -0.0379,0.206695 -0.0568,0.310041 0.17883,0.417185 0.12507,0.607412 0.725,0.555408 0.27678,-0.024 0.56281,-0.444269 0.54002,-0.709289 -0.0111,-0.128596 -0.0713,-0.248105 -0.10692,-0.372158 -0.59855,-0.271833 -0.32566,-0.289605 -0.81403,-0.102142 -0.59104,0.388165 -0.0421,1.224023 0.54895,0.835858 v 0 c -0.3391,0.07126 -0.13824,0.07541 -0.57273,-0.187762 -0.0164,-0.09454 -0.0452,-0.187748 -0.0492,-0.283617 -0.002,-0.04496 0.0576,-0.09717 0.093,-0.1119 0.44437,-0.184748 0.56389,0.06134 0.63364,0.442761 -0.0132,0.01879 -0.0194,0.06708 -0.0398,0.05636 -0.1073,-0.05655 0.10358,-0.06314 -0.003,-0.106183 -0.0448,-0.0181 -0.10137,-0.0019 -0.14219,-0.02777 -0.2603,-0.164602 -0.2134,-0.15426 -0.22588,-0.396745 0.0646,-0.05004 0.15398,-0.103608 0.23793,-0.05193 0.0876,0.05392 -0.14117,0.04814 -0.14159,0.02861 -0.37482,-0.59959 -1.22277,-0.06952 -0.84795,0.530075 z" />
    <path
       style="fill:#0000ff;stroke-width:0.264583"
       id="path509"
       d="m 171.87504,88.807934 c 0.68638,0.0058 1.37298,-0.0079 2.05933,0 0.39959,0.0046 0.80521,0.0033 1.19824,0.08429 0.6948,0.131363 0.88057,-0.851228 0.18578,-0.982591 v 0 c -0.46052,-0.08228 -0.91588,-0.09627 -1.38402,-0.101698 -0.49543,-0.0057 -0.99093,0 -1.4864,0 -0.19098,0 -0.38195,0 -0.57293,0 -0.7071,0 -0.7071,0.999998 0,0.999999 z" />
  </g>
</svg>
