<?xml version="1.0" encoding="UTF-8" standalone="no"?>
<!-- Created with Inkscape (http://www.inkscape.org/) -->

<svg
   width="121.79829mm"
   height="69.666389mm"
   viewBox="0 0 121.79829 69.666389"
   version="1.1"
   id="svg5"
   inkscape:version="1.2.2 (b0a8486541, 2022-12-01)"
   sodipodi:docname="10-1-çözüm.svg"
   xmlns:inkscape="http://www.inkscape.org/namespaces/inkscape"
   xmlns:sodipodi="http://sodipodi.sourceforge.net/DTD/sodipodi-0.dtd"
   xmlns="http://www.w3.org/2000/svg"
   xmlns:svg="http://www.w3.org/2000/svg">
  <sodipodi:namedview
     id="namedview7"
     pagecolor="#ffffff"
     bordercolor="#000000"
     borderopacity="0.25"
     inkscape:showpageshadow="2"
     inkscape:pageopacity="0.0"
     inkscape:pagecheckerboard="0"
     inkscape:deskcolor="#d1d1d1"
     inkscape:document-units="mm"
     showgrid="true"
     inkscape:zoom="0.49679622"
     inkscape:cx="-429.75367"
     inkscape:cy="358.2958"
     inkscape:window-width="1916"
     inkscape:window-height="1026"
     inkscape:window-x="0"
     inkscape:window-y="0"
     inkscape:window-maximized="1"
     inkscape:current-layer="layer1">
    <inkscape:grid
       type="xygrid"
       id="grid1462"
       spacingx="5"
       spacingy="5"
       empspacing="1"
       units="mm"
       originx="5.4714859"
       originy="6.011778" />
  </sodipodi:namedview>
  <defs
     id="defs2" />
  <g
     inkscape:label="Layer 1"
     inkscape:groupmode="layer"
     id="layer1"
     transform="translate(5.4714856,6.0117778)">
    <path
       style="fill:#000000;fill-opacity:0;stroke:#000000;stroke-width:1;stroke-linecap:round;stroke-linejoin:round;stroke-dasharray:none;stroke-opacity:1"
       d="M 10.598872,20.822026 10.284229,63.154608 H 44.56269 L 44.248047,20.822026"
       id="path16588" />
    <path
       style="fill:#000000;fill-opacity:0;stroke:#000000;stroke-width:1;stroke-linecap:round;stroke-linejoin:round;stroke-dasharray:none;stroke-opacity:1"
       d="M 66.064883,20.770814 65.75024,63.103396 H 100.0287 L 99.714058,20.770814"
       id="path16588-3" />
    <path
       style="fill:#ff0000;fill-opacity:0;stroke:#ff0000;stroke-width:1;stroke-linecap:round;stroke-linejoin:round;stroke-dasharray:none;stroke-opacity:0.921569"
       d="m 16.992923,22.498483 0.209761,-26.5103039 76.41849,-3e-7 V 22.079369"
       id="path18619" />
    <path
       style="fill:#800080;fill-opacity:0;stroke:#0003ff;stroke-width:1;stroke-linecap:round;stroke-linejoin:round;stroke-dasharray:none;stroke-opacity:0.921569"
       d="m 10.366192,30.6759 c 0.04642,-0.208709 0.0436,-0.434912 0.139261,-0.626129 0.07334,-0.146603 0.216706,-0.24929 0.347878,-0.347607 0.933295,-0.699513 1.642213,0.180348 2.644587,0.06936 0.946975,-0.104852 1.423421,-1.129392 2.296708,-1.391242 0.601933,-0.180486 0.832361,0.625075 1.252527,0.834747 0.08603,0.04293 0.07628,-0.04421 0.13926,-0.06936 0.177672,-0.07093 0.369183,-0.101714 0.55677,-0.139261 0.349166,-0.06989 0.771234,-0.06726 1.113539,0.06963 0.245544,0.0982 0.399617,0.350833 0.626399,0.486868 0.107113,0.06425 0.233728,0.08855 0.347879,0.139258 0.09482,0.04212 0.175393,0.127572 0.278521,0.138989 0.404042,0.04474 0.819872,-0.432758 1.252527,-0.486865 0.639094,-0.07993 1.243395,0.223639 1.879199,0.138988 0.729211,-0.09709 1.136716,-0.66652 1.809296,-0.834747 0.3811,-0.09532 0.49947,0.181559 0.76566,0.347879 0.389953,0.24365 1.140917,0.517533 1.600678,0.486868 0.669671,-0.04467 1.253493,-0.50138 1.809298,-0.834747 0.143423,-0.08602 0.262213,-0.216168 0.417507,-0.278249 0.346787,-0.138634 0.888685,0.628888 1.2528,0.765389 0.403386,0.15122 0.896791,0.181541 1.322157,0.138988 0.349118,-0.03492 0.693176,-0.104039 1.043908,-0.138988 0.412509,-0.04111 0.841595,0.05142 1.252799,0 0.351153,-0.04392 1.62736,-0.501256 1.878928,-0.41751 0.340678,0.113411 0.407086,0.576233 0.76566,0.695756 0.236013,0.07867 0.787537,-0.180379 1.043908,-0.208888 0.604247,-0.0672 1.215017,0.08519 1.80957,0.139261 0.1911,0.01738 0.995254,0.06259 1.182896,0 0.0034,-0.0011 0.386578,-0.208619 0.41751,-0.208619 0.05582,0 0.273423,0.183708 0.34815,0.208619 0.09792,0.03264 0.255905,-0.04599 0.347879,0 0.02936,0.01468 0.03681,0.06963 0.06963,0.06963 0.05109,0 0.382022,-0.132156 0.417508,-0.139258 0.495437,-0.09917 1.060479,0.03849 1.600679,-0.06963 0.04552,-0.0091 0.09771,0.02069 0.13926,0 0.02069,-0.01032 0.02313,-0.06936 0,-0.06936 -0.09841,0 -0.111823,0.192429 -0.208891,0.208619 -0.26934,0.04492 -0.303882,-0.108035 -0.417507,-0.27825"
       id="path20011" />
    <path
       style="fill:#800080;fill-opacity:0;stroke:#0003ff;stroke-width:1;stroke-linecap:round;stroke-linejoin:round;stroke-dasharray:none;stroke-opacity:0.921569"
       d="m 66.193272,30.049771 c 0.34797,-0.162287 0.700437,-0.315264 1.043909,-0.486865 0.26363,-0.131712 0.58098,-0.494141 0.904919,-0.278249 0.353008,0.23526 0.341937,1.20332 0.974281,0.834745 0.688721,-0.401437 1.120209,-1.251228 2.018186,-1.112994 0.372925,0.05741 0.450998,0.178678 0.765387,0.34788 0.371107,0.199723 1.113422,0.552375 1.531048,0.626125 0.978382,0.172776 1.543976,-0.242585 2.366338,-0.626125 0.213093,-0.09939 0.570183,-0.27825 0.83502,-0.27825 0.499795,0 1.155348,0.372417 1.739937,0.417238 0.496393,0.03806 1.045758,-0.03494 1.531048,-0.138988 0.538189,-0.115393 0.963007,-0.34788 1.531049,-0.34788 0.630174,0 1.135721,0.463666 1.739937,0.556498 0.702043,0.10786 1.558062,-0.439915 2.366065,-0.278249 0.122563,0.02453 0.23068,0.09657 0.348152,0.139258 0.69255,0.251683 1.188911,0.578541 1.948556,0.625856 0.779722,0.04857 1.459823,-0.347461 2.227077,-0.417237 0.52237,-0.0475 0.90214,0.294904 1.391788,0.417237 0.633137,0.158181 1.134287,-0.05713 1.73994,-0.208618 0.09275,-0.0232 0.182639,-0.06963 0.278249,-0.06963 0.07339,0 0.136059,0.06052 0.208891,0.06963 0.243086,0.0304 0.5867,0.0276 0.835017,0 0.488278,-0.05428 0.98529,-0.129212 1.461418,-0.208619 0.432091,-0.07206 0.01894,0.02257 0.348149,0.06963 0.419974,0.06003 0.899412,0 1.322158,0 0.429448,0 0.891325,-0.155919 1.32243,-0.06963 0.213188,0.04267 0.21918,0.138988 0.417509,0.138988 0.0232,0 -0.0532,0.0164 -0.06963,0 -0.09646,-0.09627 -0.114877,-0.30263 -0.278522,-0.138988"
       id="path20832" />
    <rect
       style="fill:#ff0000;fill-opacity:0.921412;stroke:#000000;stroke-width:0;stroke-linecap:round;stroke-linejoin:round;stroke-dasharray:none;stroke-opacity:1"
       id="rect17586-6"
       width="5.3460612"
       height="33.321423"
       x="89.656578"
       y="20.104292" />
    <rect
       style="fill:#ff0000;fill-opacity:0.921412;stroke:#000000;stroke-width:0;stroke-linecap:round;stroke-linejoin:round;stroke-dasharray:none;stroke-opacity:1"
       id="rect17586"
       width="5.3460612"
       height="33.321423"
       x="14.594981"
       y="19.899485" />
    <path
       style="fill:#800080;fill-opacity:0;stroke:#0003ff;stroke-width:1;stroke-linecap:round;stroke-linejoin:round;stroke-dasharray:none;stroke-opacity:0.921569"
       d="m 3.0520319,13.626299 c -0.1855898,0.231919 -0.407055,0.439212 -0.5567693,0.695758 -0.1780007,0.305016 -0.2959119,0.642172 -0.4175091,0.973734 -0.4567249,1.245362 -0.7133891,2.464295 -0.06963,3.687135 0.1711097,0.325028 0.4156523,0.764083 0.6960297,1.043365"
       id="path20941" />
    <path
       style="fill:#800080;fill-opacity:0;stroke:#0003ff;stroke-width:1;stroke-linecap:round;stroke-linejoin:round;stroke-dasharray:none;stroke-opacity:0.921569"
       d="M 4.5134498,16.895925 C 5.2536976,16.382323 5.56285,16.47197 6.3230182,16.548046 c 0.095134,0.0095 0.3637309,0.02681 0.2782488,0.06963 -0.1871038,0.09373 -0.2086186,-0.100528 -0.2086186,-0.208618"
       id="path20943" />
    <path
       style="fill:#800080;fill-opacity:0;stroke:#0003ff;stroke-width:1;stroke-linecap:round;stroke-linejoin:round;stroke-dasharray:none;stroke-opacity:0.921569"
       d="m 7.3669267,13.974178 c 0.8704633,1.778254 1.6167838,2.803158 0.8350182,4.521881 -0.2974526,0.653954 -0.2790135,0.570414 -0.7653878,0.765116"
       id="path20945" />
    <path
       style="fill:#800080;fill-opacity:0;stroke:#0003ff;stroke-width:1;stroke-linecap:round;stroke-linejoin:round;stroke-dasharray:none;stroke-opacity:0.921569"
       d="m -4.9714856,11.330679 c 0.7887793,-1.4608739 1.6322479,-2.8935153 2.3663379,-4.3826213 0.061536,-0.1248259 0,-0.2783393 0,-0.417509 0,-0.069539 -0.049172,-0.1594467 0,-0.2086184 0.036641,-0.036641 0.05192,0.09029 0.06963,0.1389882 0.075186,0.2067423 0.147007,0.4149421 0.2086185,0.6261278 0.4241281,1.4537814 0.1412745,0.6511472 0.5567694,2.1566314 0.038424,0.1392219 0.3922499,1.5133923 0.6263996,1.6694923 0.027258,0.01817 0.087819,-0.04211 0.06963,-0.06936 -0.046462,-0.0696 -0.1392604,-0.09284 -0.2088906,-0.139261"
       id="path20947" />
    <path
       style="fill:#800080;fill-opacity:0;stroke:#0003ff;stroke-width:1;stroke-linecap:round;stroke-linejoin:round;stroke-dasharray:none;stroke-opacity:0.921569"
       d="m -4.4147163,10.356672 c 0.7327707,-0.5204687 1.962178,-1.5139447 2.8534772,-0.6261271"
       id="path20949" />
    <path
       style="fill:#800080;fill-opacity:0;stroke:#0003ff;stroke-width:1;stroke-linecap:round;stroke-linejoin:round;stroke-dasharray:none;stroke-opacity:0.921569"
       d="m -0.03019121,8.3393014 c 0.23200992,1.0203358 0.46217305,2.0410936 0.69602976,3.0610076 0.0213678,0.09319 0.0508514,0.184501 0.0696302,0.278249 0.004541,0.02267 0.005612,0.09179 0,0.06936 -0.0902556,-0.36067 -0.15972903,-0.954887 -0.13926034,-1.251983 0.0277943,-0.403426 0.18200534,-1.7935515 0.69575769,-2.0870014 0.261426,-0.1493237 0.6462949,0.724881 0.76566,1.3216133 0.059305,0.2964781 0.042232,0.6032691 0.06963,0.9043761 0.019029,0.209132 0.039908,0.418246 0.06963,0.626128 0.074186,0.518863 0.06963,0.437047 0.06963,0.278248"
       id="path20951" />
    <path
       style="fill:#800080;fill-opacity:0;stroke:#0003ff;stroke-width:1;stroke-linecap:round;stroke-linejoin:round;stroke-dasharray:none;stroke-opacity:0.921569"
       d="M 3.240795,10.634921 C 5.4010504,13.251315 6.0396101,9.1815718 4.4933221,8.4089316 4.261499,8.2930954 3.786701,8.7413231 3.7279341,8.8261686 2.8062176,10.156915 5.0990253,12.041772 5.4676008,10.843812 5.72147,10.018674 4.980188,8.4405554 3.9365528,9.1044174 3.6262876,9.3017786 3.5390669,9.6361111 3.8671947,9.800175"
       id="path20953" />
    <path
       style="fill:#800080;fill-opacity:0;stroke:#0003ff;stroke-width:1;stroke-linecap:round;stroke-linejoin:round;stroke-dasharray:none;stroke-opacity:0.921569"
       d="m 8.0428292,6.5305487 c 0,-0.1159595 0.01356,-0.4630428 0,-0.3478787 -0.1749139,1.4854007 -0.2018763,2.6556144 0.1389883,4.104372 0.043814,0.186222 0.037832,0.394564 0.1392602,0.55677 0.1813624,0.290038 0.8805762,-0.810857 0.9742787,-0.9043767"
       id="path20955" />
    <path
       style="fill:#800080;fill-opacity:0;stroke:#0003ff;stroke-width:1;stroke-linecap:round;stroke-linejoin:round;stroke-dasharray:none;stroke-opacity:0.921569"
       d="M 6.2332605,9.1740476 C 5.6601989,9.7622311 8.2905012,7.8917992 8.9474774,8.5479198 c 0.06765,0.067562 0.04642,0.1854991 0.06963,0.2782488"
       id="path20957" />
    <path
       style="fill:#800080;fill-opacity:0;stroke:#0003ff;stroke-width:1;stroke-linecap:round;stroke-linejoin:round;stroke-dasharray:none;stroke-opacity:0.921569"
       d="m 99.124266,12.514392 c 0.394388,-1.715912 0.788779,-3.4318249 1.183174,-5.1477372 0,-0.069539 0.0695,-0.2086184 0,-0.2086184 -0.0696,0 0.004,0.1391861 0,0.2086184 -0.0194,0.3480241 -0.0289,0.69719 -0.0696,1.0433647 -0.0521,0.4430271 -0.15188,0.8794255 -0.20861,1.3218853 -0.20494,1.5982952 -0.08955,1.0834742 -0.208895,2.5738682 -0.01492,0.18635 -0.0449,0.371195 -0.06963,0.556498 -0.04349,0.32592 0.01172,0.66623 -0.347879,0.487139"
       id="path20959" />
    <path
       style="fill:#800080;fill-opacity:0;stroke:#0003ff;stroke-width:1;stroke-linecap:round;stroke-linejoin:round;stroke-dasharray:none;stroke-opacity:0.921569"
       d="m 103.09128,7.5752734 c -0.85832,0.997126 -1.74163,1.9732744 -2.57496,2.9913776 -0.21184,0.258819 -0.37117,0.556502 -0.556764,0.834746 -0.09284,0.139174 -0.189794,0.275682 -0.278522,0.417509 -0.02748,0.04393 -0.10627,0.175629 -0.06963,0.138988 0.08201,-0.08201 0.129725,-0.193492 0.208891,-0.278248 0.588095,-0.629623 1.648255,-1.7574372 2.574955,-1.8087529 0.77637,-0.042991 0.74841,1.0596089 0.69603,1.5305039 -0.074,0.665321 -0.13063,0.387039 -0.27852,0.904376 -0.0687,0.240507 0.0814,0.05817 -0.0696,0.208619"
       id="path20961" />
    <path
       style="fill:#800080;fill-opacity:0;stroke:#0003ff;stroke-width:1;stroke-linecap:round;stroke-linejoin:round;stroke-dasharray:none;stroke-opacity:0.921569"
       d="m 105.45735,12.723282 c 0.0464,-0.162379 0.14454,-0.318337 0.13926,-0.487139 -0.0183,-0.583589 -0.0484,-1.177734 -0.20889,-1.739122 -0.0392,-0.137171 -0.47896,-0.290349 -0.62613,-0.208619 -0.51146,0.284048 -0.92004,1.243095 -0.76566,1.808753 0.0537,0.196819 0.32921,0.507777 0.48714,0.626127 0.33686,0.252441 0.52614,0.14142 0.97428,0 0.21788,-0.06876 0.47196,-0.109876 0.6264,-0.278248 0.11851,-0.129206 0.34788,-1.465654 0.34788,-1.739123 0,-0.09275 0,0.185499 0,0.278249 0,0.185499 0,0.370998 0,0.556497 0,0.393234 -0.0619,1.048346 0.34815,1.321614 0.32193,0.21455 0.74658,-0.415578 0.90465,-0.626128"
       id="path20963" />
    <path
       style="fill:#800080;fill-opacity:0;stroke:#0003ff;stroke-width:1;stroke-linecap:round;stroke-linejoin:round;stroke-dasharray:none;stroke-opacity:0.921569"
       d="m 108.93722,7.9927825 c -0.0232,0.7884165 -0.0532,1.5766631 -0.0696,2.3652505 -0.01,0.461773 -0.15758,1.628357 0.41751,1.94774 0.35395,0.196571 1.04391,-0.345248 1.04391,-0.695758"
       id="path20965" />
    <path
       style="fill:#800080;fill-opacity:0;stroke:#0003ff;stroke-width:1;stroke-linecap:round;stroke-linejoin:round;stroke-dasharray:none;stroke-opacity:0.921569"
       d="m 107.89331,11.123148 c 1.02778,-0.536506 1.70931,-1.2828894 2.50533,-0.486867"
       id="path20967" />
    <path
       style="fill:#800080;fill-opacity:0;stroke:#0003ff;stroke-width:1;stroke-linecap:round;stroke-linejoin:round;stroke-dasharray:none;stroke-opacity:0.921569"
       d="m 112.90397,10.91453 c -0.42106,-0.06512 -0.82705,-0.139261 -1.2528,-0.139261 -0.59482,0 -0.92179,0.01401 -0.97428,0.695758 -0.0297,0.385488 -0.0442,0.588161 0.20889,0.904376 0.13119,0.163936 0.56938,0.43346 0.76539,0.486868 0.42673,0.11627 1.22009,-0.04543 1.32243,-0.556498 0.13637,-0.681059 -0.30682,-1.369256 -0.83529,-1.739122 -0.085,-0.05947 -0.17453,-0.13926 -0.27825,-0.13926 -0.68415,0 -0.7567,0.96025 -0.83502,1.391515"
       id="path20971" />
    <path
       style="fill:#800080;fill-opacity:0;stroke:#0003ff;stroke-width:1;stroke-linecap:round;stroke-linejoin:round;stroke-dasharray:none;stroke-opacity:0.921569"
       d="m 114.78289,7.3666548 c 0,1.9066073 -0.22299,2.6564102 0.13927,4.1043722 0.0503,0.201233 0.0711,0.556498 0.27851,0.556498 0.40809,0 0.50053,-0.553755 0.55678,-0.834747"
       id="path20973" />
    <path
       style="fill:#800080;fill-opacity:0;stroke:#0003ff;stroke-width:1;stroke-linecap:round;stroke-linejoin:round;stroke-dasharray:none;stroke-opacity:0.921569"
       d="m 113.6,10.079784 c 2.18712,-0.6559097 1.76314,-1.2761108 2.2268,-0.3478792"
       id="path20975" />
    <path
       style="fill:#800080;fill-opacity:0;stroke:#0003ff;stroke-width:1;stroke-linecap:round;stroke-linejoin:round;stroke-dasharray:none;stroke-opacity:0.921569"
       d="m 104.76893,14.810284 c -0.42744,1.258664 -1.6195,3.409746 -0.62612,4.799858 0.23442,0.32805 0.56515,0.495874 0.83501,0.765388 0.0511,0.05106 -0.0562,0.125594 -0.0696,0.138988"
       id="path20977" />
    <path
       style="fill:#800080;fill-opacity:0;stroke:#0003ff;stroke-width:1;stroke-linecap:round;stroke-linejoin:round;stroke-dasharray:none;stroke-opacity:0.921569"
       d="m 106.92638,15.992909 c -0.0629,1.012674 0.43856,3.294818 -0.90465,3.965112"
       id="path20979" />
    <path
       style="fill:#800080;fill-opacity:0;stroke:#0003ff;stroke-width:1;stroke-linecap:round;stroke-linejoin:round;stroke-dasharray:none;stroke-opacity:0.921569"
       d="m 105.81284,17.94065 c 0.18658,-0.05884 1.89301,-1.085645 2.29671,-0.278249"
       id="path20981" />
    <path
       style="fill:#800080;fill-opacity:0;stroke:#0003ff;stroke-width:1;stroke-linecap:round;stroke-linejoin:round;stroke-dasharray:none;stroke-opacity:0.921569"
       d="m 109.08383,14.184156 c 0.22082,5.956819 1.15625,4.011506 -0.27825,6.469622"
       id="path20983" />
    <path
       style="fill:#800080;fill-opacity:0;stroke:#0003ff;stroke-width:1;stroke-linecap:round;stroke-linejoin:round;stroke-dasharray:none;stroke-opacity:0.921569"
       d="m 85.485183,56.218206 c 0.43402,-1.569871 0.993352,-3.101393 1.461418,-4.660869 0.09707,-0.323429 0.183158,-0.65007 0.278519,-0.974008 0.02069,-0.07033 -0.0037,-0.208618 0.06963,-0.208618 0.0903,0 0.290637,0.586914 0.347879,0.834747 0.930669,4.029263 -0.51417,-1.565373 0.48714,2.29562 0.09205,0.354955 0.08859,0.784342 0.347877,1.043636 0.06761,0.06761 0.06963,-0.182639 0.06963,-0.278249"
       id="path20985" />
    <path
       style="fill:#800080;fill-opacity:0;stroke:#0003ff;stroke-width:1;stroke-linecap:round;stroke-linejoin:round;stroke-dasharray:none;stroke-opacity:0.921569"
       d="m 85.90269,53.644336 c 0.890186,0.172895 1.709103,-0.347877 2.574957,-0.347877"
       id="path20987" />
    <path
       style="fill:#800080;fill-opacity:0;stroke:#0003ff;stroke-width:1;stroke-linecap:round;stroke-linejoin:round;stroke-dasharray:none;stroke-opacity:0.921569"
       d="m 91.679005,52.809592 c -1.572093,-1.35953 -1.319369,0.837263 -0.83502,1.321612 0.401886,0.401886 0.998765,-0.11842 1.183169,-0.486868 0.03898,-0.07788 0.05046,-0.328633 0.138989,-0.417507 0.0029,-0.0029 -0.0066,0.314854 0,0.34788 0.0519,0.259228 0.150251,0.507328 0.208891,0.765114 0.165378,0.727014 0.556969,2.323174 0.13926,2.991379 -0.04436,0.07096 -0.125206,0.139258 -0.208891,0.139258 -0.350266,0 -1.809295,-0.796491 -1.809295,-1.321885 0,-0.634881 1.209646,-0.813366 1.600677,-1.043363 0.19989,-0.11757 0.370998,-0.278339 0.556498,-0.41751"
       id="path20989" />
    <path
       style="fill:#800080;fill-opacity:0;stroke:#0003ff;stroke-width:1;stroke-linecap:round;stroke-linejoin:round;stroke-dasharray:none;stroke-opacity:0.921569"
       d="m 94.045343,50.30508 c -0.328147,1.072838 -0.527217,1.916131 -0.06963,2.921749 0.09098,0.199935 0.118779,0.34788 0.347879,0.34788"
       id="path20991" />
    <path
       style="fill:#800080;fill-opacity:0;stroke:#0003ff;stroke-width:1;stroke-linecap:round;stroke-linejoin:round;stroke-dasharray:none;stroke-opacity:0.921569"
       d="m 95.158882,49.748585 c 0.13118,0.983914 0.293097,1.93657 0.347879,2.921746 0.05496,0.988417 -0.0828,0.0998 0.06963,0.556498 0.0074,0.02201 0,0.09284 0,0.06963 0,-0.42459 -0.07901,-0.939974 0.139261,-1.321887 0.08228,-0.14397 0.318799,-0.38354 0.48714,-0.417235 0.0802,-0.01606 0.48714,-0.01709 0.48714,-0.208618 0,-0.0232 -0.05322,0.0164 -0.06963,0 -0.01897,-0.01897 -0.0026,-0.345604 -0.278522,-0.06963 -0.179583,0.179581 -0.582231,0.856922 -0.208619,1.043364 0.252905,0.126206 0.215855,-0.128413 0.487141,0.278249 0.15331,0.229817 0.248827,0.606512 0.487137,0.765389 0.03621,0.02413 0.18065,0.0415 0.208891,0.06963 0.01638,0.01632 -0.02312,0.06936 0,0.06936 0.08356,0 0.133882,-0.101621 0.208619,-0.138988"
       id="path20993" />
    <path
       style="fill:#800080;fill-opacity:0;stroke:#0003ff;stroke-width:1;stroke-linecap:round;stroke-linejoin:round;stroke-dasharray:none;stroke-opacity:0.921569"
       d="m 97.107437,49.261717 c -0.849548,0.863814 0.85674,1.730701 0.76539,2.643497 -0.02204,0.220231 -0.287901,0.427017 -0.41751,0.556498"
       id="path20995" />
    <path
       style="fill:#800080;fill-opacity:0;stroke:#0003ff;stroke-width:1;stroke-linecap:round;stroke-linejoin:round;stroke-dasharray:none;stroke-opacity:0.921569"
       d="m 13.560204,56.705888 c 1.674675,-4.184912 1.56425,-2.726854 1.739939,-5.008747 0.0018,-0.02315 -0.01638,-0.08608 0,-0.06963 0.296686,0.29785 0.240815,1.516864 0.278249,1.878383 0.110837,1.070417 0.136541,1.025051 0.278248,2.017371 0.04743,0.33215 0.04366,0.765117 0.208891,0.765117 0.07331,0 0.05072,-0.13779 0.06963,-0.208619 0.147501,-0.552553 0.417786,-1.682818 0.487139,-2.156632 0.32293,-2.20623 -0.03166,-0.799867 0.278249,-2.504238 0.03232,-0.177761 0.205888,-1.046639 0.6264,-0.626129"
       id="path20997" />
    <path
       style="fill:#800080;fill-opacity:0;stroke:#0003ff;stroke-width:1;stroke-linecap:round;stroke-linejoin:round;stroke-dasharray:none;stroke-opacity:0.921569"
       d="m 19.266887,54.27101 c -0.04642,0.115959 -0.121582,0.224229 -0.139261,0.347877 -0.01908,0.133461 0.01523,1.71192 0.06963,1.739124 0.05769,0.02885 0.352381,-0.245588 0.417509,-0.347879 0.09484,-0.148966 0.13926,-0.324578 0.20889,-0.486868"
       id="path20999" />
    <path
       style="fill:#800080;fill-opacity:0;stroke:#0003ff;stroke-width:1;stroke-linecap:round;stroke-linejoin:round;stroke-dasharray:none;stroke-opacity:0.921569"
       d="m 18.919008,53.227644 c 0.208709,-0.04642 0.417418,-0.09284 0.626127,-0.139261"
       id="path21001" />
    <path
       style="fill:#800080;fill-opacity:0;stroke:#0003ff;stroke-width:1;stroke-linecap:round;stroke-linejoin:round;stroke-dasharray:none;stroke-opacity:0.921569"
       d="m 21.772213,51.349261 c -0.7238,1.582822 -1.180036,3.144062 -0.835018,4.86949 0.01539,0.07698 0.161582,0.881221 0.347879,0.974005 0.02938,0.01463 0.04642,-0.04642 0.06963,-0.06963"
       id="path21003" />
    <path
       style="fill:#800080;fill-opacity:0;stroke:#0003ff;stroke-width:1;stroke-linecap:round;stroke-linejoin:round;stroke-dasharray:none;stroke-opacity:0.921569"
       d="m 23.442521,51.62751 c -0.162379,1.252165 -0.295048,2.508541 -0.487139,3.756493 -0.130172,0.845688 -0.657151,1.738929 -0.06963,0.41751 0.105342,-0.236931 0.21636,-0.472294 0.347879,-0.695759 0.009,-0.01532 1.002736,-1.462704 0.83529,-0.626125 -0.102868,0.513937 -0.309867,1.002498 -0.556769,1.460873 -0.06414,0.119081 -0.133829,0.23536 -0.208891,0.347879 -0.01822,0.0273 -0.06963,0.03681 -0.06963,0.06963 0,0.06963 0.14424,0.02585 0.20889,0 0.283947,-0.11358 0.353755,-0.251258 0.69603,-0.208618 0.149921,0.01868 0.515566,0.139536 0.626128,0.208618 0.111681,0.06978 0.83529,0.787435 0.83529,0.208619"
       id="path21005" />
    <path
       style="fill:#800080;fill-opacity:0;stroke:#0003ff;stroke-width:1;stroke-linecap:round;stroke-linejoin:round;stroke-dasharray:none;stroke-opacity:0.921569"
       d="m 26.295726,51.766771 c 0.741058,1.759701 0.965075,2.749677 0,4.45198 -0.574246,1.012917 -0.409445,0.827513 -0.835018,1.252254"
       id="path21007" />
    <path
       style="fill:#ff00ff;fill-opacity:0;stroke:#ff8200;stroke-width:5;stroke-linecap:butt;stroke-linejoin:round;stroke-dasharray:none;stroke-opacity:0.921569"
       d="m 39.320649,35.044922 c 0,0 -0.738651,-16.011502 4.662501,-20.452232 5.449956,-4.480856 15.494821,-4.8352987 21.157238,-0.626128 5.87774,4.369231 5.706682,21.217348 5.706682,21.217348"
       id="path21078"
       sodipodi:nodetypes="caac" />
    <path
       style="fill:#ff00ff;fill-opacity:0;stroke:#00f4ff;stroke-width:1;stroke-linecap:round;stroke-linejoin:round;stroke-dasharray:none;stroke-opacity:0.921569"
       d="m 54.345278,-5.4882488 c 0.369954,-0.1054558 0.773756,0.1728279 1.061316,0.381921 0.194019,0.1410755 1.009631,0.7767552 1.061315,1.060818 0.0519,0.2852243 -0.533559,0.4353473 -0.59445,0.4667004 -0.134639,0.069329 -1.220528,0.6472139 -1.48571,0.763842 -0.481023,0.2115575 -0.395663,0.3118476 -0.509336,0.084945"
       id="path23360" />
    <path
       style="fill:#ff00ff;fill-opacity:0;stroke:#00f4ff;stroke-width:1;stroke-linecap:round;stroke-linejoin:round;stroke-dasharray:none;stroke-opacity:0.921569"
       d="m 54.81231,1.5981953 c 0.287422,0 0.320977,0.00641 0.679228,-0.042472 0.156726,-0.021383 0.313412,-0.046582 0.466868,-0.084945 0.186695,-0.046674 0.369229,-0.1089166 0.55181,-0.1697243 0.07232,-0.024084 0.150336,-0.040484 0.212362,-0.084779 0.270706,-0.1933174 -0.155096,-0.41088457 -0.29714,-0.42439364 -0.197707,-0.0188031 -0.404604,-0.0163745 -0.594283,0.0424725 -0.522566,0.16212172 -1.253938,0.72195024 -1.231207,1.35779404 0.02897,0.810456 0.909325,0.9704335 1.528347,0.8910939 0.380412,-0.048757 1.232408,-0.3826092 1.570654,-0.5939519 0.118792,-0.074223 0.198096,-0.1980946 0.297143,-0.297142"
       id="path23364" />
    <path
       style="fill:#ff00ff;fill-opacity:0;stroke:#00f4ff;stroke-width:1;stroke-linecap:round;stroke-linejoin:round;stroke-dasharray:none;stroke-opacity:0.921569"
       d="m 55.06698,-0.56591345 c 0.63695,0.31415085 1.21413,-0.16972428 1.825323,-0.16972428"
       id="path23366" />
    <path
       style="fill:#ff00ff;fill-opacity:0;stroke:#00f4ff;stroke-width:1;stroke-linecap:round;stroke-linejoin:round;stroke-dasharray:none;stroke-opacity:0.921569"
       d="m 71.328321,37.517191 c 0,-2.886374 0.0079,-0.565967 -0.169722,-6.959192"
       id="path23368" />
    <path
       style="fill:#ff00ff;fill-opacity:0;stroke:#00f4ff;stroke-width:1;stroke-linecap:round;stroke-linejoin:round;stroke-dasharray:none;stroke-opacity:0.921569"
       d="m 70.139755,31.788708 c 0.163618,-0.490641 0.651507,-1.876155 0.891426,-2.715755 0.01603,-0.05607 0.0013,-0.128505 0.04247,-0.169725 0.125849,-0.125722 0.188653,0.122542 0.254669,0.254506 0.05661,0.113157 0.131517,0.218876 0.169892,0.339447 0.09679,0.304094 0.124457,0.62674 0.212196,0.933566 0.02461,0.08604 0.0486,0.172895 0.08495,0.25467 0.03823,0.08603 0.143341,0.186044 0.04247,0.08478"
       id="path23370" />
    <path
       style="fill:#ff00ff;fill-opacity:0;stroke:#00f4ff;stroke-width:1;stroke-linecap:round;stroke-linejoin:round;stroke-dasharray:none;stroke-opacity:0.921569"
       d="m 74.178463,38.535538 c 0.636757,-0.05658 1.273511,-0.113149 1.910268,-0.169725 0.08489,0.02826 0.169781,0.05652 0.25467,0.08478 0.01416,0 0.0525,0.01 0.04247,0 -0.02241,-0.02233 -0.05663,-0.0282 -0.08494,-0.04231"
       id="path23372" />
    <path
       style="fill:#ff00ff;fill-opacity:0;stroke:#00f4ff;stroke-width:1;stroke-linecap:round;stroke-linejoin:round;stroke-dasharray:none;stroke-opacity:0.921569"
       d="m 84.280728,45.194704 c 1.042549,0.32005 1.996253,0.441026 3.04768,0.441026 0.01434,0 0.331338,-0.02949 0.401058,0.03996 0.01895,0.01887 -0.05487,-0.0085 -0.08024,0 -0.01794,0.006 -0.02675,0.02675 -0.04012,0.04012"
       id="path23374" />
    <path
       style="fill:#ff00ff;fill-opacity:0;stroke:#00f4ff;stroke-width:1;stroke-linecap:round;stroke-linejoin:round;stroke-dasharray:none;stroke-opacity:0.921569"
       d="m 87.2082,44.31281 c 0.280694,0.200454 0.569783,0.389642 0.842084,0.601356 0.0895,0.06959 0.160393,0.160266 0.240573,0.240416 0.203038,0.202967 0.371411,0.367491 0.240572,0.681443 -0.131122,0.314631 -0.816099,0.579987 -0.842084,0.761685 -0.01135,0.07929 0.220096,0.225062 0.240575,0.240416"
       id="path23376" />
    <path
       style="fill:#ff00ff;fill-opacity:0;stroke:#00f4ff;stroke-width:1;stroke-linecap:round;stroke-linejoin:round;stroke-dasharray:none;stroke-opacity:0.921569"
       d="m 86.205628,41.667289 c -0.02283,0.654214 -0.01969,1.362403 -0.320818,1.964082"
       id="path23378" />
    <path
       style="fill:#ff00ff;fill-opacity:0;stroke:#00f4ff;stroke-width:1;stroke-linecap:round;stroke-linejoin:round;stroke-dasharray:none;stroke-opacity:0.921569"
       d="m 85.203055,42.589304 c 1.456251,-0.136591 0.886675,0.04486 1.764414,-0.320818"
       id="path23380" />
    <path
       style="fill:#ff00ff;fill-opacity:0;stroke:#00f4ff;stroke-width:1;stroke-linecap:round;stroke-linejoin:round;stroke-dasharray:none;stroke-opacity:0.921569"
       d="m 38.742638,37.654809 c 0.469143,-2.378268 -0.06533,-4.948899 0.842243,-7.215161"
       id="path23382" />
    <path
       style="fill:#ff00ff;fill-opacity:0;stroke:#00f4ff;stroke-width:1;stroke-linecap:round;stroke-linejoin:round;stroke-dasharray:none;stroke-opacity:0.921569"
       d="m 38.421823,30.840394 c 0.934582,-0.424297 0.232928,-0.04961 1.56396,-1.242518 0.0099,-0.0089 0.04012,-0.01336 0.04012,0 0,0.389544 -0.09734,0.77356 -0.120208,1.162431 -0.05146,0.875168 -0.07687,1.741374 0.08009,2.605402"
       id="path23384" />
    <path
       style="fill:#ff00ff;fill-opacity:0;stroke:#00f4ff;stroke-width:1;stroke-linecap:round;stroke-linejoin:round;stroke-dasharray:none;stroke-opacity:0.921569"
       d="m 34.329412,36.73295 c -0.571984,1.960431 -0.08896,2.396543 -0.641633,1.843874"
       id="path23386" />
    <path
       style="fill:#ff00ff;fill-opacity:0;stroke:#00f4ff;stroke-width:1;stroke-linecap:round;stroke-linejoin:round;stroke-dasharray:none;stroke-opacity:0.921569"
       d="m 33.126389,37.414393 c 0.931693,-0.379204 1.370327,-0.400746 2.165474,-0.400746"
       id="path23388" />
  </g>
</svg>
