<?xml version="1.0" encoding="UTF-8" standalone="no"?>
<!-- Created with Inkscape (http://www.inkscape.org/) -->

<svg
   width="114.58458mm"
   height="103.26929mm"
   viewBox="0 0 114.58458 103.26929"
   version="1.1"
   id="svg52219"
   inkscape:version="1.2.2 (b0a8486541, 2022-12-01)"
   sodipodi:docname="11-soru.svg"
   xmlns:inkscape="http://www.inkscape.org/namespaces/inkscape"
   xmlns:sodipodi="http://sodipodi.sourceforge.net/DTD/sodipodi-0.dtd"
   xmlns="http://www.w3.org/2000/svg"
   xmlns:svg="http://www.w3.org/2000/svg">
  <sodipodi:namedview
     id="namedview52221"
     pagecolor="#ffffff"
     bordercolor="#000000"
     borderopacity="0.25"
     inkscape:showpageshadow="2"
     inkscape:pageopacity="0.0"
     inkscape:pagecheckerboard="0"
     inkscape:deskcolor="#d1d1d1"
     inkscape:document-units="mm"
     showgrid="false"
     inkscape:zoom="1.4574323"
     inkscape:cx="199.32315"
     inkscape:cy="268.28004"
     inkscape:window-width="1920"
     inkscape:window-height="1080"
     inkscape:window-x="0"
     inkscape:window-y="0"
     inkscape:window-maximized="1"
     inkscape:current-layer="layer1" />
  <defs
     id="defs52216" />
  <g
     inkscape:label="Layer 1"
     inkscape:groupmode="layer"
     id="layer1"
     transform="translate(-69.80986,-46.073337)">
    <path
       style="fill:#ff0000;fill-opacity:0.00961142;stroke:#000000;stroke-width:1;stroke-linecap:round;stroke-linejoin:round;stroke-dasharray:none"
       d="m 70.30986,78.539201 0.667421,70.015369 H 116.33849 V 78.872914"
       id="path1505" />
    <path
       style="fill:#ff0000;fill-opacity:0.00961142;stroke:#000000;stroke-width:1;stroke-linecap:round;stroke-linejoin:round;stroke-dasharray:none"
       d="m 128.78973,78.827287 0.66742,70.015343 h 45.36121 V 79.161"
       id="path1505-3" />
    <path
       style="fill:#ff0000;fill-opacity:0.00961142;stroke:#002aff;stroke-width:1;stroke-linecap:round;stroke-linejoin:round;stroke-dasharray:none;stroke-opacity:1"
       d="m 71.729681,92.891797 c 0.66621,-0.0191 1.52922,0.302606 2.21697,0.1305 0.0603,-0.0151 0.27088,-0.19081 0.3915,-0.1305 0.34519,0.1726 0.74069,0.17867 1.174,0.1305 0.73576,-0.0818 0.33335,-0.15458 1.04349,-0.39099 0.0824,-0.0274 0.17813,0.0275 0.26049,0 0.0584,-0.0195 0.069,-0.1305 0.1305,-0.1305 0.0435,0 -0.0138,0.0892 0,0.1305 0.02,0.0599 0.14929,0.35376 0.261,0.39099 0.42587,0.141956 0.9571,-0.0868 1.30449,-0.26049 0.055,-0.0275 0.069,-0.1305 0.1305,-0.1305 0.0971,0 0.16526,0.11144 0.26049,0.1305 0.12796,0.0256 0.26352,-0.0255 0.3915,0 0.0186,0.004 0.50312,0.25589 0.52149,0.26049 0.21696,0.0543 0.88509,0.0273 1.0435,-0.1305 0.0307,-0.0306 -0.0433,-0.12999 0,-0.12999 0.10609,0 0.55953,0.476866 0.78249,0.521486 0.28149,0.0563 0.88401,0.0592 1.04349,-0.260996 0.0194,-0.0389 -0.0308,-0.0997 0,-0.1305 0.0542,-0.0542 0.5825,0.243486 0.6525,0.260996 0.46683,0.11683 0.79861,-0.203656 1.17399,-0.390986 0.12077,-0.0603 0.44169,0.938536 1.30399,0.651476 0.2156,-0.0718 0.8404,-0.876186 0.91299,-0.912476 0.16322,-0.0816 0.13535,0.1774 0.261,0.261 0.2169,0.14432 0.80651,0.24802 1.04349,0.12999 0.15459,-0.077 0.48224,-0.41065 0.52149,-0.39099 0.21712,0.10878 0.40185,0.30755 0.6525,0.39099 1.29465,0.430986 1.96149,-0.002 2.99998,-0.52149 0.16832,-0.0842 0.13307,0.088 0.26049,0.1305 0.42503,0.14186 1.61642,0.0796 1.95648,-0.26049 0.0308,-0.0308 -0.0308,-0.0997 0,-0.1305 0.12303,-0.12303 0.14605,0.33351 0.261,0.39099 0.15311,0.0766 1.0777,0.0275 1.17399,0 0.13987,-0.0399 0.73417,-0.6109 0.913,-0.52149 0.49001,0.24501 1.2265,0.67136 1.82598,0.52149 0.35303,-0.0883 0.73834,-0.36892 1.04349,-0.52149 0.13245,-0.0662 1.214399,-0.0901 1.304489,0 0.0308,0.0308 -0.0308,0.0997 0,0.1305 0.0603,0.0603 0.31219,-0.0395 0.39099,0 0.34833,0.1745 0.75676,0.38241 1.174,0.52149 0.42525,0.14176 0.74525,-0.27341 1.17399,-0.1305 0.11672,0.0389 0.15093,0.20602 0.261,0.261 0.31007,0.15488 0.83224,0.334 1.17399,0.390986 0.69307,0.11559 1.35806,-0.321746 1.95649,-0.521486 0.26608,-0.0888 0.63814,0.0458 0.91298,0 0.41262,-0.0688 0.79215,-0.13372 1.17349,-0.261 0.20316,-0.0678 0.59181,0.3915 0.91299,0.3915 0.65872,0 1.2039,-0.3915 1.82649,-0.3915 0.16088,0 0.93676,-0.10674 1.0435,0 0.0308,0.0308 -0.0307,0.0997 0,0.1305 0.0823,0.0826 0.4132,-0.0541 0.52149,0 0.055,0.0275 0.0721,0.11105 0.1305,0.1305 0.25757,0.0859 0.51455,-0.1305 0.78249,-0.1305 0.70819,0 0.33336,0.35507 1.30449,-0.1305"
       id="path11266" />
    <path
       style="fill:#ff0000;fill-opacity:0.00961142;stroke:#002aff;stroke-width:1;stroke-linecap:round;stroke-linejoin:round;stroke-dasharray:none;stroke-opacity:1"
       d="m 129.77169,92.631307 c 0.32786,-0.0656 1.12986,-0.23324 1.43499,-0.261 0.38972,-0.0354 0.78799,-0.0644 1.17399,0 0.5368,0.0895 0.97609,0.35915 1.56498,0.261 0.47445,-0.0791 0.86239,-0.37412 1.3045,-0.52149 0.40928,-0.13642 0.85951,0.0363 1.30398,-0.1305 0.27314,-0.10248 0.49127,-0.39099 0.783,-0.39099 0.0433,0 -0.0193,0.0912 0,0.12999 0.0907,0.1817 0.6265,1.17348 0.91299,1.17348 0.18771,0 0.95381,-0.30305 1.17348,-0.39099 0.14552,-0.0583 0.23475,-0.26049 0.3915,-0.26049 0.0433,0 -0.0307,0.0994 0,0.12999 0.0308,0.0307 0.0997,-0.0308 0.1305,0 0.174,0.174 -0.27683,0.12522 0.1305,0.261 0.23342,0.0778 0.6635,0.17211 0.91299,0.1305 0.1477,-0.0246 0.87541,-0.29858 1.0435,-0.1305 0.18391,0.18391 -0.15502,0.36935 0.39099,0.26049 0.61341,-0.12229 1.21081,-0.39825 1.82649,-0.52149 0.81254,-0.16263 0.50356,0.48431 1.56498,0.1305 0.26716,-0.0891 1.00002,-0.80453 1.3045,-0.65199 0.39482,0.1978 0.39311,0.67843 0.91299,0.78249 0.47672,0.0954 1.02498,-0.057 1.43448,-0.261 0.055,-0.0274 0.0691,-0.12999 0.1305,-0.12999 0.10595,0 0.89438,0.52149 1.04349,0.52149 0.0973,0 0.16664,-0.10688 0.261,-0.1305 0.19998,-0.05 0.45682,0.0651 0.65199,0 0.63601,-0.212 1.14885,-0.69781 1.82599,-0.78249 0.74218,-0.0928 0.73674,0.33298 1.30449,0.52149 0.5702,0.18933 1.29648,-0.15459 1.82598,-0.26049 0.42736,-0.0855 0.50249,0.0372 0.78249,0.1305 0.23432,0.0781 0.54222,-0.0599 0.7825,0 0.0943,0.0235 0.16668,0.1065 0.261,0.12999 0.48333,0.12036 0.98249,-0.14736 1.43499,-0.26049 0.32744,-0.0819 0.71213,0.0663 1.04349,0 0.13473,-0.027 0.25627,-0.10353 0.39099,-0.1305 0.86307,-0.17275 1.20985,0.72687 1.82598,0.52149 0.32316,-0.10772 0.80139,-0.57729 1.174,-0.39099 0.4527,0.22635 0.36858,0.48746 1.04349,0.39099 0.28685,-0.041 1.47349,-0.50199 1.69548,-0.39099 0.20208,0.10104 0.4615,0.45778 0.6525,0.52149 0.32996,0.11006 0.70606,0.0844 1.04349,0 0.0435,-0.0109 1.05954,-0.63588 1.17349,-0.52149 0.0951,0.0955 0.0432,0.43437 0.261,0.52149 0.42096,0.16839 1.41802,0.30627 1.82598,0 0.0156,-0.0117 0.21802,-0.5638 0.3915,-0.39099 0.0307,0.0306 -0.0307,0.0994 0,0.12999 0.23966,0.23872 1.82599,0.0352 1.82599,0 0,-0.13756 -0.29424,0.0332 -0.3915,0.1305"
       id="path11268" />
    <path
       style="fill:#ff0000;fill-opacity:0.00961142;stroke:#ff0025;stroke-width:5.2;stroke-linecap:square;stroke-linejoin:round;stroke-dasharray:none;stroke-opacity:1"
       d="m 104.50768,110.32273 c 0,0 -0.72636,-31.641162 10.10289,-40.245544 3.43941,-2.732786 9.64213,-2.84547 13.17661,-0.236812 11.33421,8.365312 11.72764,40.601066 11.72764,40.601066"
       id="path11337"
       sodipodi:nodetypes="caac" />
    <path
       style="fill:#ff7c00;fill-opacity:0;stroke:#ff7c00;stroke-width:1;stroke-linecap:butt;stroke-linejoin:round;stroke-dasharray:none;stroke-opacity:1"
       d="M 77.762811,65.029025 V 46.573338 l 83.699689,-10e-7 -0.17525,17.752647"
       id="path12906" />
    <rect
       style="fill:#ff7c00;fill-opacity:1;stroke:#000000;stroke-width:1.0239;stroke-linecap:round;stroke-linejoin:round;stroke-opacity:0.00522545"
       id="rect46835"
       width="8.9667645"
       height="48.626701"
       x="157.31854"
       y="62.742939" />
    <rect
       style="fill:#ff7c00;fill-opacity:1;stroke:#000000;stroke-width:1.0239;stroke-linecap:round;stroke-linejoin:round;stroke-opacity:0.00522545"
       id="rect46835-5"
       width="8.9667645"
       height="48.626701"
       x="73.640228"
       y="62.406948" />
    <path
       style="fill:#ff7c00;fill-opacity:0;stroke:#000000;stroke-width:1;stroke-linecap:round;stroke-linejoin:round;stroke-opacity:0.00522545"
       d="m 85.094841,65.483164 c 0.1594,0.279056 0.19913,0.996559 0.47818,0.837166 0.27906,-0.159393 -0.49707,-0.516353 -0.47818,-0.837166 0.0262,-0.444693 0.49764,-0.761164 0.59784,-1.195213 0.1437,-0.622445 0.0576,-1.276921 0.11967,-1.912715 0.0975,-0.998812 0.24493,-1.992146 0.35898,-2.989204 0.0455,-0.397804 0.0947,-0.795599 0.11966,-1.195216 0.0149,-0.238699 0.0338,-0.48074 0,-0.717502 -0.008,-0.05584 -0.13073,-0.174972 -0.11966,-0.11966 0.15839,0.791321 0.54201,1.520597 0.83716,2.271702 0.23164,0.589465 0.88051,2.336733 1.31535,2.988735 0.22419,0.336151 1.07648,1.057458 1.07648,0.478179"
       id="path48982" />
    <path
       style="fill:#ff7c00;fill-opacity:0;stroke:#ff7c00;stroke-width:1;stroke-linecap:round;stroke-linejoin:round;stroke-opacity:1"
       d="m 84.257681,65.483164 c 1.19996,-1.954352 2.02459,-4.0968 2.51149,-6.335987 0.0947,-0.435322 0.18401,-0.872832 0.23932,-1.314876 0.0247,-0.197739 -0.14118,-0.738479 0,-0.597842 0.1238,0.123312 0.44529,4.193008 0.47818,4.423275 0.1587,1.110916 0.29182,1.684639 0.71797,2.749878 0.12052,0.301268 0.58075,0.700408 0.35852,0.478181 -0.30224,-0.302244 -0.18895,-0.138377 -0.35852,-0.478181"
       id="path49835" />
    <path
       style="fill:#ff7c00;fill-opacity:0;stroke:#ff7c00;stroke-width:1;stroke-linecap:round;stroke-linejoin:round;stroke-opacity:1"
       d="m 85.932011,62.614091 c 0.35192,0.269352 1.02926,-0.238855 1.435,-0.238855"
       id="path49839" />
    <path
       style="fill:#ff7c00;fill-opacity:0;stroke:#ff7c00;stroke-width:1;stroke-linecap:round;stroke-linejoin:round;stroke-opacity:1"
       d="m 90.596471,60.701374 c -0.54338,-0.325856 -0.46553,-0.484646 -0.95682,-0.239324 -0.94411,0.47144 -0.17958,2.295385 0.35898,2.510557 0.89663,0.358233 1.12814,-1.157838 0.95636,-1.673392 -0.0734,-0.220453 -0.30232,-0.823309 -0.35852,-0.597841 -0.0889,0.356528 0.19371,0.711424 0.23933,1.07602 0.0346,0.276741 -0.0154,0.558226 0,0.836697 0.0593,1.069965 0.59046,4.47289 0,5.260438 -0.31334,0.41792 -1.93192,-2.133774 -1.794,-2.271702 0.29014,-0.290136 0.72984,-0.377584 1.07603,-0.597842 0.6763,-0.430289 1.34591,-0.866801 1.91365,-1.434536"
       id="path49843" />
    <path
       style="fill:#ff7c00;fill-opacity:0;stroke:#ff7c00;stroke-width:1;stroke-linecap:round;stroke-linejoin:round;stroke-opacity:1"
       d="m 94.452291,58.796138 c -0.44522,2.520611 -0.56053,1.441156 0.11966,3.706238 0.009,0.03024 0.30462,1.195682 0.59784,1.195682 0.0798,0 -0.0399,-0.119663 -0.11966,-0.119663"
       id="path49845" />
    <path
       style="fill:#ff7c00;fill-opacity:0;stroke:#ff7c00;stroke-width:1;stroke-linecap:round;stroke-linejoin:round;stroke-opacity:1"
       d="m 96.724461,61.187032 c -0.1594,-1.035976 -0.29067,-2.076672 -0.47818,-3.107931 -0.0285,-0.156821 -0.0226,0.320392 0,0.478179 0.20019,1.399773 0.5133,2.808804 0.83716,4.183952 0.0778,0.330123 0.23674,0.715745 0,0.597839 -0.32227,-0.160502 0.46717,-3.097403 0.83716,-3.466915 0.40048,-0.399947 0.0884,0.976998 -0.11966,1.434539 -0.0644,0.141568 -0.84149,1.06784 -0.7175,1.315342 0.12263,0.244779 0.76458,0.119195 0.95683,0.119195 0.31894,0 0.64109,-0.04511 0.95682,0 0.48926,0.06989 0.59784,0.242636 0.59784,-0.358519"
       id="path49847" />
    <path
       style="fill:#ff7c00;fill-opacity:0;stroke:#ff7c00;stroke-width:1;stroke-linecap:round;stroke-linejoin:round;stroke-opacity:1"
       d="m 99.116751,57.241939 c 0.35883,0.358671 0.77548,0.667612 1.076489,1.076018 0.56382,0.764989 1.3536,2.746734 1.31534,3.706241 -0.0405,1.016772 -0.62531,2.420059 -0.95682,3.347251"
       id="path49851" />
    <path
       style="fill:#ff7c00;fill-opacity:0;stroke:#ff7c00;stroke-width:1;stroke-linecap:round;stroke-linejoin:round;stroke-opacity:1"
       d="m 168.24518,64.77361 c 1.28151,-2.990744 0.40776,-0.746136 1.31535,-7.89019 0.0201,-0.158123 -0.11271,-0.590886 0,-0.478179 0.17827,0.178277 0.15534,0.47978 0.23932,0.717503 0.15536,0.439793 0.30534,0.88184 0.47865,1.314876 0.40443,1.010531 0.9185,1.975196 1.31534,2.988736 0.18378,0.469397 0.31921,0.95632 0.47865,1.434536 0.0797,0.239133 0.15917,0.478356 0.23885,0.717503 0.0398,0.119528 0.24565,0.358518 0.11966,0.358518 -0.26147,0 -0.23932,-0.323567 -0.23932,-0.478179"
       id="path49853" />
    <path
       style="fill:#ff7c00;fill-opacity:0;stroke:#ff7c00;stroke-width:1;stroke-linecap:round;stroke-linejoin:round;stroke-opacity:1"
       d="m 168.12552,61.306695 c 0.75739,-0.07962 1.51478,-0.159239 2.27217,-0.238858"
       id="path49855" />
    <path
       style="fill:#ff7c00;fill-opacity:0;stroke:#ff7c00;stroke-width:1;stroke-linecap:round;stroke-linejoin:round;stroke-opacity:1"
       d="m 174.58398,61.784874 c -0.0399,-0.239011 0.003,-0.508204 -0.11966,-0.717037 -2.05402,-3.489983 -1.89393,1.076021 -0.83717,1.076021 0.96271,0 1.07047,-0.46056 1.31535,-1.195681 0.0178,-0.05352 -0.0974,0.06781 -0.11967,0.11966 -0.0992,0.231564 -0.25682,0.465754 -0.23885,0.717037 0.0811,1.134539 2.06025,3.512656 0.47818,4.304078 -0.45107,0.225644 -1.79399,-0.05248 -1.79399,-0.717503 0,-0.199342 0.30955,-0.252947 0.47864,-0.358515 0.82811,-0.517012 1.63798,-1.117442 2.5115,-1.5542"
       id="path49857" />
    <path
       style="fill:#ff7c00;fill-opacity:0;stroke:#ff7c00;stroke-width:1;stroke-linecap:round;stroke-linejoin:round;stroke-opacity:1"
       d="m 178.05229,59.51364 c -0.69054,1.122638 -0.88213,2.70528 0.11967,3.70577 0.0229,0.02283 0.15121,0.207645 0.23885,0.119661 0.11877,-0.119237 -0.16199,-0.401309 -0.23885,-0.478179"
       id="path49859" />
    <path
       style="fill:#ff7c00;fill-opacity:0;stroke:#ff7c00;stroke-width:1;stroke-linecap:round;stroke-linejoin:round;stroke-opacity:1"
       d="m 179.84629,61.306695 c 0.1195,0.438447 0.23368,0.87838 0.35851,1.315342 0.0346,0.121139 0.0891,0.236299 0.11966,0.358518 0.01,0.03869 -0.0399,0.119661 0,0.119661 0.40279,0 0.3581,-1.052132 0.59831,-1.628519 0.0692,-0.166161 0.26291,-0.251335 0.35852,-0.40386 0.067,-0.106873 0.0497,-0.254034 0.11966,-0.358984 0.0313,-0.04693 0.14063,0.06729 0.11966,0.119661 -0.0662,0.165476 -0.17668,0.311309 -0.23932,0.478181 -0.0577,0.153826 -0.0529,0.328028 -0.11966,0.478179 -0.007,0.01588 -1.13652,1.67386 -0.59784,1.67386 0.46579,0 1.12557,-0.358518 1.67432,-0.358518 0.0798,0 0.19343,0.06525 0.23933,0 0.0917,-0.130376 0,-0.318786 0,-0.478179"
       id="path49861" />
    <path
       style="fill:#ff7c00;fill-opacity:0;stroke:#ff7c00;stroke-width:1;stroke-linecap:round;stroke-linejoin:round;stroke-opacity:1"
       d="m 182.47744,58.948051 c 1.30359,4.264308 2.23171,3.025299 0.35898,4.630344"
       id="path49863" />
    <path
       style="fill:#ff7c00;fill-opacity:0;stroke:#ff7c00;stroke-width:1;stroke-linecap:round;stroke-linejoin:round;stroke-opacity:1"
       d="m 75.724231,145.35462 c 0.284136,-0.82307 0.645974,-1.61612 0.951592,-2.43084 0.467143,-1.2453 1.077796,-2.75856 1.162738,-4.12164 0.01333,-0.21379 -0.07545,-0.4218 -0.105778,-0.63385 -0.005,-0.0349 -0.01579,-0.1373 0,-0.10578 0.164709,0.32878 0.191625,0.71098 0.317336,1.05655 0.0428,0.11764 1.027935,2.58327 1.163151,2.85354 0.25419,0.50808 0.549537,0.99492 0.845814,1.47966 0.14196,0.23226 0.702231,0.63385 0.211146,0.63385"
       id="path55642" />
    <path
       style="fill:#ff7c00;fill-opacity:0;stroke:#ff7c00;stroke-width:1;stroke-linecap:round;stroke-linejoin:round;stroke-opacity:1"
       d="m 76.35849,142.3953 c 0.281755,-0.38286 0.658074,-0.83889 1.16315,-0.95118 0.171961,-0.0382 0.353388,0.0194 0.528479,0 1.028242,-0.11385 0.13978,-0.10536 0.528479,-0.10536"
       id="path55646" />
    <path
       style="fill:#ff7c00;fill-opacity:0;stroke:#ff7c00;stroke-width:1;stroke-linecap:round;stroke-linejoin:round;stroke-opacity:1"
       d="m 82.596118,140.38758 c -1.126609,-0.63596 -1.181073,1.46731 -0.528478,1.90195 0.878017,0.58477 1.364271,-1.48969 1.05737,-1.79659 -0.02492,-0.0249 -0.0085,0.0716 0,0.10578 0.0049,0.0195 0.417131,1.46018 0.422701,1.47966 0.164984,0.57691 1.109961,3.11784 0.528481,3.69894 -0.678264,0.67783 -2.793748,-0.71217 -2.114333,-1.58544 0.866762,-1.11405 2.185377,-0.78697 3.171706,-2.43042"
       id="path55652" />
    <path
       style="fill:#ff7c00;fill-opacity:0;stroke:#ff7c00;stroke-width:1;stroke-linecap:round;stroke-linejoin:round;stroke-opacity:1"
       d="m 84.502611,135.87711 c -2.627048,1.93595 0.528481,1.44773 0.528481,2.2197"
       id="path55654" />
    <path
       style="fill:#ff7c00;fill-opacity:0;stroke:#ff7c00;stroke-width:1;stroke-linecap:round;stroke-linejoin:round;stroke-opacity:1"
       d="m 83.233682,137.77947 c 0.877785,-0.29279 1.570929,-0.51314 2.220111,-1.16232"
       id="path55656" />
    <path
       style="fill:#ff7c00;fill-opacity:0;stroke:#ff7c00;stroke-width:1;stroke-linecap:round;stroke-linejoin:round;stroke-opacity:1"
       d="m 90.422906,144.1204 c 1.091203,-0.91685 1.343573,-2.33526 1.480074,-3.69894 0.02807,-0.2804 0,-0.5636 0,-0.8454 0,-0.10564 0.10564,-0.31693 0,-0.31693 -0.10564,0 0,0.21129 0,0.31693 0,0.77502 0.02673,1.5505 0,2.32506 -0.04724,1.36856 -0.316923,2.75735 -0.316923,4.12164"
       id="path55660" />
    <path
       style="fill:#ff7c00;fill-opacity:0;stroke:#ff7c00;stroke-width:1;stroke-linecap:round;stroke-linejoin:round;stroke-opacity:1"
       d="m 93.171908,146.65661 c 3.095178,-7.73492 1.835349,-3.46543 2.537034,-6.97478 0.02848,-0.14242 0.003,-0.32006 0.105778,-0.4227 0.263827,-0.26348 0.213948,0.33153 0.317336,0.95118 0.09399,0.56331 0.164243,1.91658 0.951593,2.11351 0.666506,0.16671 0.796954,-2.40535 0.845817,-2.74776 0.02537,-0.17783 0.07591,-0.35129 0.105365,-0.52848 0.0058,-0.0346 0,-0.14049 0,-0.10537 0,1.42873 0.08076,2.70318 0.317336,4.12123 0.08199,0.49145 0.133789,0.98754 0.211555,1.47966 0.0748,0.47334 0.134377,0.81681 0.316924,0.63426 0.330504,-0.3305 0.447601,-1.21994 0.528894,-1.58544"
       id="path55662" />
    <path
       style="fill:#ff7c00;fill-opacity:0;stroke:#ff7c00;stroke-width:1;stroke-linecap:round;stroke-linejoin:round;stroke-opacity:1"
       d="m 135.1441,144.1204 c 1.04269,-1.58097 1.97542,-3.2937 2.64281,-5.07282 0.13337,-0.35554 0.0692,-0.73963 0.21156,-0.73963 0.0705,0 -0.007,0.14139 0,0.21156 0.0283,0.28259 0.069,0.56379 0.10578,0.8454 0.27505,2.10659 0.0968,1.12708 0.63426,3.27583 0.10572,0.42272 0.16428,0.86013 0.31733,1.26811 0.16605,0.44262 0.41298,0.85075 0.63426,1.26851 0.11887,0.22442 0.4227,0.8878 0.4227,0.63385 0,-0.3692 -0.93047,-1.03584 -1.16274,-1.26811"
       id="path55668" />
    <path
       style="fill:#ff7c00;fill-opacity:0;stroke:#ff7c00;stroke-width:1;stroke-linecap:round;stroke-linejoin:round;stroke-opacity:1"
       d="m 135.77836,142.32382 c 1.79546,-0.33637 1.11794,-0.31692 2.00855,-0.31692"
       id="path55670" />
    <path
       style="fill:#ff7c00;fill-opacity:0;stroke:#ff7c00;stroke-width:1;stroke-linecap:round;stroke-linejoin:round;stroke-opacity:1"
       d="m 142.01599,143.59192 c -0.17616,-0.91592 -0.16092,-1.89053 -0.52848,-2.74776 -0.14473,-0.33753 -0.96847,1.23928 -0.63426,1.79658 0.26275,0.43814 0.87104,0.16021 1.05696,-0.21114 0.0599,-0.11963 0.0761,-0.49882 0.21156,-0.63426 0.0249,-0.0249 0.006,0.071 0,0.10578 -0.0296,0.1772 -0.0946,0.34918 -0.10578,0.52848 -0.0242,0.38668 -0.0184,0.77532 0,1.16232 0.0528,1.10831 0.67899,4.3308 -0.21156,5.07283 -0.0812,0.0676 -0.2167,0.0334 -0.31692,0 -0.91106,-0.30356 -1.26893,-1.09066 -1.26893,-2.00814 0,-0.17952 0.0106,-0.37588 0.10578,-0.52807 0.25673,-0.41037 1.95035,-1.26467 2.43167,-1.58544"
       id="path55672" />
    <path
       style="fill:#ff7c00;fill-opacity:0;stroke:#ff7c00;stroke-width:1;stroke-linecap:round;stroke-linejoin:round;stroke-opacity:1"
       d="m 143.70762,137.88525 c 0.10578,1.02156 0.21156,2.04313 0.31733,3.06469"
       id="path55674" />
    <path
       style="fill:#ff7c00;fill-opacity:0;stroke:#ff7c00;stroke-width:1;stroke-linecap:round;stroke-linejoin:round;stroke-opacity:1"
       d="m 142.8618,139.57606 c 0.49861,-0.11276 2.32589,-1.06776 2.32589,-0.31693"
       id="path55676" />
    <path
       style="fill:#ff7c00;fill-opacity:0;stroke:#ff7c00;stroke-width:1;stroke-linecap:round;stroke-linejoin:round;stroke-opacity:1"
       d="m 152.58847,142.74652 c 0,-1.83643 -0.11594,-1.3888 2.22011,-4.01587 0.13655,-0.15355 0.24823,0.33498 0.31734,0.52848 0.25595,0.71661 0.29968,1.4747 0.10536,2.21929 -0.3409,1.30634 -1.29867,2.44893 -2.64281,2.74776 -0.2408,0.0535 -0.49335,0 -0.74003,0 -0.0704,0 0.14076,0 0.21114,0 1.05919,0 0.49487,0.0273 1.69163,-0.10578 0.54375,-0.0604 2.32436,0.002 2.749,-0.4227"
       id="path55678" />
    <path
       style="fill:#ff7c00;fill-opacity:0;stroke:#ff7c00;stroke-width:1;stroke-linecap:round;stroke-linejoin:round;stroke-opacity:1"
       d="m 157.87451,144.1204 c 0.3172,-1.1272 0.62582,-2.25685 0.95159,-3.38161 0.062,-0.21407 0.15748,-0.41804 0.21156,-0.63425 0.0171,-0.0684 -0.0705,-0.21156 0,-0.21156 0.2167,0 0.0519,1.54747 0.10537,1.79658 0.0624,0.291 0.46732,1.49977 1.05737,1.16274 0.64566,-0.3688 1.0129,-2.89259 1.16315,-3.59317 0.0305,-0.14201 0.24668,-0.38744 0.10578,-0.4227 -0.1409,-0.0353 -0.0837,0.27915 -0.10578,0.4227 -0.16651,1.08133 -0.2252,2.21732 0.10578,3.27625 0.20826,0.66632 0.52848,1.26634 0.52848,0.31692"
       id="path55680" />
  </g>
</svg>
