<?xml version="1.0" encoding="UTF-8" standalone="no"?>
<!-- Created with Inkscape (http://www.inkscape.org/) -->

<svg
   width="101.22511mm"
   height="73.398216mm"
   viewBox="0 0 101.22511 73.398216"
   version="1.1"
   id="svg5"
   xml:space="preserve"
   inkscape:version="1.2.2 (b0a8486541, 2022-12-01)"
   sodipodi:docname="12-soru.svg"
   xmlns:inkscape="http://www.inkscape.org/namespaces/inkscape"
   xmlns:sodipodi="http://sodipodi.sourceforge.net/DTD/sodipodi-0.dtd"
   xmlns="http://www.w3.org/2000/svg"
   xmlns:svg="http://www.w3.org/2000/svg"><sodipodi:namedview
     id="namedview7"
     pagecolor="#ffffff"
     bordercolor="#000000"
     borderopacity="0.25"
     inkscape:showpageshadow="2"
     inkscape:pageopacity="0.0"
     inkscape:pagecheckerboard="0"
     inkscape:deskcolor="#d1d1d1"
     inkscape:document-units="mm"
     showgrid="true"
     inkscape:zoom="1.3120398"
     inkscape:cx="146.71811"
     inkscape:cy="88.411954"
     inkscape:window-width="1916"
     inkscape:window-height="1026"
     inkscape:window-x="0"
     inkscape:window-y="0"
     inkscape:window-maximized="1"
     inkscape:current-layer="layer1"><inkscape:grid
       type="xygrid"
       id="grid2142"
       empspacing="1"
       units="mm"
       spacingx="5"
       spacingy="5"
       originx="9.5663032"
       originy="44.90992" /></sodipodi:namedview><defs
     id="defs2" /><g
     inkscape:label="Layer 1"
     inkscape:groupmode="layer"
     id="layer1"
     transform="translate(9.5663034,44.909921)"><path
       style="fill:#ff0000;fill-opacity:0.00961142;stroke:#000000;stroke-width:0.603895;stroke-linecap:round;stroke-linejoin:round;stroke-dasharray:none"
       d="m -9.2643559,-23.524117 1.4533495,51.710464 H 90.965764 V -23.27765"
       id="path9267" /><path
       style="fill:#ff0000;fill-opacity:0.00961142;stroke:#002aff;stroke-width:0.7;stroke-linecap:round;stroke-linejoin:round;stroke-dasharray:none;stroke-opacity:1"
       d="m -8.3640495,-9.5876747 c 1.5106837,-0.01588 3.4676269,0.251585 5.0271542,0.108497 0.136735,-0.012554 0.6142418,-0.1586384 0.8877571,-0.108497 0.7827455,0.1434987 1.67957296,0.1485453 2.66213753,0.108497 1.66839377,-0.068008 0.75589739,-0.128517 2.36619577,-0.3250669 0.1868485,-0.02278 0.4039238,0.022863 0.5906816,0 0.1324266,-0.016212 0.156463,-0.108497 0.2959191,-0.108497 0.09864,0 -0.031293,0.07416 0,0.108497 0.045352,0.0498 0.3385268,0.2941141 0.591838,0.3250669 0.9656938,0.1180215 2.1702997,-0.072165 2.9580339,-0.21657 0.1247168,-0.022863 0.1564629,-0.1084969 0.295919,-0.1084969 0.2201819,0 0.3747401,0.092651 0.5906816,0.1084969 0.2901594,0.021284 0.5975524,-0.0212 0.8877571,0 0.042177,0.00333 1.1408643,0.2127456 1.1825197,0.21657 0.4919739,0.045145 2.0070109,0.022697 2.3662189,-0.108497 0.06961,-0.025441 -0.09819,-0.108073 0,-0.108073 0.240567,0 1.268778,0.3964639 1.774357,0.4335607 0.638301,0.046808 2.004563,0.049219 2.366196,-0.2169907 0.04399,-0.032341 -0.06984,-0.08289 0,-0.108497 0.122903,-0.045062 1.320865,0.202433 1.479595,0.2169907 1.058574,0.097132 1.810911,-0.1693185 2.662115,-0.3250637 0.273856,-0.050133 1.001567,0.7802938 2.9569,0.5416337 0.48889,-0.059694 1.905673,-0.7284563 2.070277,-0.7586276 0.370114,-0.067842 0.306917,0.1474894 0.591838,0.2169939 0.491838,0.1199869 1.828825,0.2062025 2.366196,0.108073 0.350545,-0.064017 1.093517,-0.3414122 1.18252,-0.3250669 0.492336,0.090439 0.911226,0.2556954 1.479595,0.3250669 2.93572,0.3583195 4.447832,-0.00166 6.80269,-0.4335643 0.381679,-0.07 0.301747,0.073163 0.590681,0.1084974 0.963789,0.1179416 3.66536,0.066179 4.436473,-0.2165704 0.06984,-0.02561 -0.06984,-0.08289 0,-0.108497 0.27898,-0.102286 0.33118,0.2772786 0.591838,0.3250674 0.347189,0.063685 2.44377,0.022863 2.662115,0 0.317166,-0.033173 1.664788,-0.5078994 2.070299,-0.4335644 1.111137,0.2037 2.781186,0.5581655 4.140554,0.4335644 0.800523,-0.073412 1.674244,-0.3067184 2.366196,-0.4335644 0.300341,-0.05504 2.753745,-0.07491 2.958031,0 0.06984,0.02561 -0.06984,0.08289 0,0.108497 0.136735,0.05013 0.707916,-0.03284 0.886601,0 0.789866,0.145079 1.716013,0.317934 2.662137,0.4335644 0.964288,0.1178585 1.689914,-0.2273114 2.662115,-0.108497 0.264672,0.032341 0.342246,0.1712839 0.591838,0.2169939 0.703109,0.1287664 1.88717,0.2776858 2.662115,0.3250637 1.571591,0.096101 3.079508,-0.2674979 4.436495,-0.4335606 0.603358,-0.073828 1.447033,0.038078 2.070255,0 0.935648,-0.0572 1.796262,-0.1111741 2.660981,-0.2169944 0.460681,-0.05637 1.341975,0.3254913 2.070276,0.3254913 1.4937,0 2.729939,-0.3254913 4.14171,-0.3254913 0.364808,0 2.124178,-0.08874 2.366219,0 0.06984,0.025607 -0.06961,0.08289 0,0.1084974 0.186622,0.068673 0.936963,-0.044978 1.18252,0 0.124716,0.022863 0.163492,0.092326 0.295919,0.108497 0.58406,0.071417 1.166782,-0.108497 1.774357,-0.108497 1.605877,0 0.75592,0.2952032 2.958034,-0.1084974"
       id="path9271" /><rect
       style="fill:#ff7c00;fill-opacity:1;stroke:#000000;stroke-width:0.7;stroke-linecap:round;stroke-linejoin:round;stroke-dasharray:none;stroke-opacity:0.00522545"
       id="rect9279"
       width="8.9667645"
       height="48.626701"
       x="78.305847"
       y="-27.336475" /><rect
       style="fill:#ff7c00;fill-opacity:1;stroke:#000000;stroke-width:0.7;stroke-linecap:round;stroke-linejoin:round;stroke-dasharray:none;stroke-opacity:0.00522545"
       id="rect9281"
       width="8.9667645"
       height="48.626701"
       x="-5.372468"
       y="-27.672466" /><path
       style="fill:#ff9600;fill-opacity:0;stroke:#ff7c00;stroke-width:0.7;stroke-linecap:round;stroke-linejoin:round;stroke-dasharray:none;stroke-opacity:1"
       d="M -0.46589552,-26.493015 -0.66139503,-40.165001 39.199895,-40.751118"
       id="path9793" /><path
       style="fill:#ff9600;fill-opacity:0;stroke:#ff7c00;stroke-width:0.7;stroke-linecap:round;stroke-linejoin:round;stroke-dasharray:none;stroke-opacity:1"
       d="m 38.906646,-44.559921 0.293248,7.42211"
       id="path9795" /><path
       style="fill:#ff9600;fill-opacity:0;stroke:#ff7c00;stroke-width:0.7;stroke-linecap:round;stroke-linejoin:round;stroke-dasharray:none;stroke-opacity:1"
       d="m 42.423728,-41.922969 -0.09775,2.83207"
       id="path9797" /><path
       style="fill:#ff9600;fill-opacity:0;stroke:#ff7c00;stroke-width:0.7;stroke-linecap:round;stroke-linejoin:round;stroke-dasharray:none;stroke-opacity:1"
       d="m 42.423728,-40.458249 40.056408,0.09775 10e-7,14.355852"
       id="path9799" /><path
       style="fill:#ff9600;fill-opacity:0;stroke:#ff7c00;stroke-width:0.7;stroke-linecap:round;stroke-linejoin:round;stroke-dasharray:none;stroke-opacity:1"
       d="m 24.310675,4.5710759 c -0.146658,-2.0509161 -0.162678,-0.8760076 0.195118,-3.3204377 0.100013,-0.68328427 0.200684,-1.36650271 0.293249,-2.05083578 0.07036,-0.52014722 0.143224,-1.04019472 0.1955,-1.56246912 0.04551,-0.4546751 0.07089,-0.9111944 0.09775,-1.3673515 0.0057,-0.097454 -0.04359,-0.3802178 0,-0.2928675 0.37058,0.7426105 0.341684,1.6245792 0.488367,2.4414534 0.175325,0.97637472 0.550508,3.0481023 0.879366,4.0043043 0.0016,0.00463 0.502499,1.5283008 1.074483,1.4647193 0.760045,-0.084486 0.745212,-3.07697947 0.683869,-3.71105494 -0.05103,-0.52743077 -0.215223,-1.03829564 -0.292868,-1.56246896 -0.01072,-0.072298 -0.150741,-1.4253723 -0.09775,-1.4651012 0.328549,-0.2463311 0.804929,0.6093842 0.977114,0.7812344"
       id="path9801" /><path
       style="fill:#ff9600;fill-opacity:0;stroke:#ff7c00;stroke-width:0.7;stroke-linecap:round;stroke-linejoin:round;stroke-dasharray:none;stroke-opacity:1"
       d="M 31.833208,2.9108571 C 31.637835,2.194789 31.517598,1.4538469 31.24709,0.76265323 31.122601,0.44456056 30.509771,0.77143323 30.367724,1.0555207 30.039222,1.7125256 29.856186,2.77215 29.977106,3.496974 c 0.02886,0.1729576 0.145079,0.3204249 0.195501,0.4883671 0.04774,0.1590058 0.03947,0.3329133 0.09775,0.4883671 0.390742,1.0423165 1.614487,0.2308831 1.95385,-0.3906173 0.06054,-0.1108739 0.380463,-1.1933568 0.390618,-1.2696016 0.06035,-0.4531743 0,-0.9969227 0,-1.4651013 0,-0.032583 0,0.065167 0,0.09775 0,0.1302059 0.01296,0.2610588 0,0.3906173 -0.05829,0.5824162 -0.186251,0.6507893 -0.09775,1.2696015 0.250159,1.7491612 1.465482,1.5196926 1.465482,0"
       id="path9803" /><path
       style="fill:#ff9600;fill-opacity:0;stroke:#ff7c00;stroke-width:0.7;stroke-linecap:round;stroke-linejoin:round;stroke-dasharray:none;stroke-opacity:1"
       d="M 38.574506,-2.753284 C 37.484944,-4.1155039 37.962755,-3.8504546 35.545789,-0.70244778 35.188387,-0.23694521 35.126456,0.39508826 34.959673,0.95777093 34.34884,3.0185483 35.804821,4.8327499 37.89064,3.7898415 38.305192,3.5825646 38.936998,3.1474771 38.672256,2.6179898"
       id="path9805" /><path
       style="fill:#ff9600;fill-opacity:0;stroke:#ff7c00;stroke-width:0.7;stroke-linecap:round;stroke-linejoin:round;stroke-dasharray:none;stroke-opacity:1"
       d="m 39.942238,2.1296227 c 1.203997,-2.00509214 0.285189,-0.3273042 0.977117,-5.761891 0.0082,-0.064518 0.06504,-0.1951178 0,-0.1951178 -0.04258,0 0.04704,0.2310734 0.09775,0.5857351 0.04172,0.2918331 0.09775,0.5841832 0.09775,0.8789843 0,1.81949269 -0.459287,3.6445472 -0.293251,5.4690233 0.103624,1.1386291 1.265224,1.9669644 1.758733,0.4883671"
       id="path9807" /><path
       style="fill:#ff9600;fill-opacity:0;stroke:#ff7c00;stroke-width:0.7;stroke-linecap:round;stroke-linejoin:round;stroke-dasharray:none;stroke-opacity:1"
       d="m 45.511304,2.3251222 c -0.472347,0.7346725 -1.094372,2.1181631 -0.488749,3.0271885 0.07107,0.106679 0.518094,-0.02923 0.586497,-0.09737"
       id="path9809" /><path
       style="fill:#ff9600;fill-opacity:0;stroke:#ff7c00;stroke-width:0.7;stroke-linecap:round;stroke-linejoin:round;stroke-dasharray:none;stroke-opacity:1"
       d="M 48.14902,4.7665755 C 47.921066,4.1155468 47.748343,3.4424608 47.465154,2.8134893 c -0.11449,-0.2542854 -0.622162,0.3801224 -0.683869,0.4879851 -0.367556,0.6425073 -0.373811,1.4519574 0.390618,1.7579686 0.09566,0.038293 0.194551,0.1273326 0.293251,0.09775 0.251468,-0.075372 0.455912,-0.2604114 0.683866,-0.3906175 z"
       id="path9811" /><path
       style="fill:#ff9600;fill-opacity:0;stroke:#ff7c00;stroke-width:0.7;stroke-linecap:round;stroke-linejoin:round;stroke-dasharray:none;stroke-opacity:1"
       d="m 48.24677,3.2041064 c 0.0283,0.3421806 0.04948,1.9530864 0.781616,1.9530864"
       id="path9813" /><path
       style="fill:#ff9600;fill-opacity:0;stroke:#ff7c00;stroke-width:0.7;stroke-linecap:round;stroke-linejoin:round;stroke-dasharray:none;stroke-opacity:1"
       d="m 50.493869,4.5710759 c -0.0029,0.2665106 0.0702,-1.8553363 -0.586116,-1.8553363 -0.492025,0 -0.596006,2.2225071 0.195117,2.5392031 0.235355,0.09422 0.42269,-0.059011 0.586499,-0.1954997 0.481772,-0.4014255 0.542756,-1.1603201 0.488365,-1.7579686 -0.01794,-0.1971305 -0.07317,-0.3893214 -0.09775,-0.5857348 -0.0081,-0.064663 0.02914,-0.137213 0,-0.1954996 -0.01458,-0.029144 -0.09775,-0.032583 -0.09775,0 0,0.1030372 0.07753,0.1922158 0.09775,0.2932493 0.04517,0.2256703 0.05529,0.4572876 0.09775,0.6834847 0.223624,1.1914925 0.131512,0.5262409 0.390618,1.562469 0.326512,0.6133717 0.241578,1.3061721 0.390999,1.9530858 0.373147,1.6155061 0.05741,-0.2015547 0.293251,0.9767334 0.0028,0.014 -0.02695,0.25778 0.09737,0.195499 0.06514,-0.03263 0.06517,-0.130333 0.09775,-0.195499 0.06517,-0.03258 0.130333,-0.06517 0.1955,-0.09775"
       id="path9815" /><path
       style="fill:#ff9600;fill-opacity:0;stroke:#ff7c00;stroke-width:0.7;stroke-linecap:round;stroke-linejoin:round;stroke-dasharray:none;stroke-opacity:1"
       d="m 52.447719,2.7157396 c 0.300183,0.4848087 1.517726,2.0959611 0.781616,2.8320701"
       id="path9817" /><path
       style="fill:#ff9600;fill-opacity:0;stroke:#ff7c00;stroke-width:0.7;stroke-linecap:round;stroke-linejoin:round;stroke-dasharray:none;stroke-opacity:1"
       d="m 22.160944,19.723434 c 0.699828,-2.154941 2.185001,-3.900205 2.930965,-6.05514 0.129483,-0.374049 0.312663,-1.095047 0.390618,-1.562469 0.0054,-0.03214 0,-0.130333 0,-0.09775 0,1.427783 -0.01439,-1.419591 0.09775,1.269601 0.167681,4.021051 -0.200528,-1.092862 0.09775,2.929821 0.09212,1.242333 0.04897,1.008087 0.29325,2.148586 0.03671,0.171413 0.10807,0.640529 0.195117,0.488367 0.117518,-0.205428 0.679618,-1.940343 0.683867,-1.953087 0.675931,-2.026739 0.539827,-1.351427 0.879367,-3.320437 0.11735,-0.680522 0.169632,-1.371425 0.293248,-2.050836 0.01844,-0.101373 0.09775,-0.190212 0.09775,-0.29325 0,-0.03258 -0.08745,-0.03091 -0.09775,0 -0.03091,0.09273 0,0.1955 0,0.29325 0,0.390617 -0.01503,0.781523 0,1.171852 0.06182,1.605612 0.270963,3.210824 0.586118,4.785157 0.131723,0.658017 0.215842,1.339841 0.488366,1.953086 0.04771,0.107357 0.31298,0.293249 0.1955,0.293249 -0.13422,0 -0.256397,-0.09775 -0.390617,-0.09775"
       id="path9823" /><path
       style="fill:#ff9600;fill-opacity:0;stroke:#ff7c00;stroke-width:0.7;stroke-linecap:round;stroke-linejoin:round;stroke-dasharray:none;stroke-opacity:1"
       d="m 31.34446,18.551582 c 0.639495,-0.852662 0.754671,-0.799211 -0.19512,-2.539203 -0.278146,-0.509556 -1.167776,0.380761 -1.270365,0.585735 -0.24733,0.494176 0.05575,0.999631 0.1955,1.465101 0.01347,0.04486 0.217919,0.726533 0.390618,0.683485 0.528251,-0.131675 0.834779,-1.605491 0.879367,-2.050836 2.6e-5,-2.91e-4 -3e-5,-0.586088 0,-0.586117 0.05152,-0.05152 0.08345,0.124058 0.09775,0.1955 0.05151,0.257338 0.04363,0.524433 0.09775,0.781234 0.07653,0.363161 0.212723,0.711806 0.293251,1.074102 0.3458,1.555764 0.435576,3.108581 0.586116,4.687791 0.02183,0.229105 0.115417,0.454017 0.09775,0.683484 -0.0051,0.06637 -0.148111,0.712179 -0.390998,0.781617 -0.570812,0.163179 -2.635483,-0.299408 -2.247101,-1.269604 0.280532,-0.70078 1.801482,-2.288879 2.344851,-2.83207 0.673875,-0.673657 1.563232,-0.824851 1.563232,-1.855718"
       id="path9825" /><path
       style="fill:#ff9600;fill-opacity:0;stroke:#ff7c00;stroke-width:0.7;stroke-linecap:round;stroke-linejoin:round;stroke-dasharray:none;stroke-opacity:1"
       d="m 35.05704,10.543356 c 0.09775,2.246208 0.210976,4.491796 0.293251,6.738625 0.01497,0.409025 -0.185825,2.939667 0.09775,3.222688 0.03261,0.03255 0.06516,-0.06517 0.09775,-0.09775"
       id="path9827" /><path
       style="fill:#ff9600;fill-opacity:0;stroke:#ff7c00;stroke-width:0.7;stroke-linecap:round;stroke-linejoin:round;stroke-dasharray:none;stroke-opacity:1"
       d="m 33.884806,20.114051 c 0.789707,-0.156741 1.564188,-0.02194 2.344851,-0.195499 0.532485,-0.118382 0.07736,-0.09775 0.488366,-0.09775"
       id="path9829" /><path
       style="fill:#ff9600;fill-opacity:0;stroke:#ff7c00;stroke-width:0.7;stroke-linecap:round;stroke-linejoin:round;stroke-dasharray:none;stroke-opacity:1"
       d="m 33.689308,10.641105 c 0.870495,0.688714 2.026457,-0.452255 2.930967,0"
       id="path9831" /><path
       style="fill:#ff9600;fill-opacity:0;stroke:#ff7c00;stroke-width:0.7;stroke-linecap:round;stroke-linejoin:round;stroke-dasharray:none;stroke-opacity:1"
       d="m 38.183507,20.309169 c 0,-0.292995 -0.05247,-0.590725 0,-0.878984 0.07756,-0.426133 0.668557,-0.03774 0.781617,0.09775 0.443875,0.531957 0.497091,1.252534 0.195497,1.855718 -0.223602,0.447204 -0.719822,0.880301 -1.172614,1.074103 -0.08975,0.03841 -0.323774,0.0926 -0.292868,0 0.248619,-0.744882 1.406462,-1.005635 2.051601,-0.683485 0.161874,0.08083 0.640876,0.549817 0.879366,0.390618 0.178276,-0.119007 0.335481,-0.335481 0.488365,-0.488369"
       id="path9833" /><path
       style="fill:#ff9600;fill-opacity:0;stroke:#ff7c00;stroke-width:0.7;stroke-linecap:round;stroke-linejoin:round;stroke-dasharray:none;stroke-opacity:1"
       d="m 44.436056,18.7467 c -0.195374,-0.03258 -0.390038,-0.125776 -0.586118,-0.09775 -0.381762,0.05457 -0.275704,2.654655 0,2.929821 0.07301,0.07287 0.09473,-0.09775 0.1955,-0.09775"
       id="path9837" /><path
       style="fill:#ff9600;fill-opacity:0;stroke:#ff7c00;stroke-width:0.7;stroke-linecap:round;stroke-linejoin:round;stroke-dasharray:none;stroke-opacity:1"
       d="m 46.390287,20.406919 c 0,-0.277402 0.08245,-0.774011 -0.09775,-1.074102 -0.78852,-1.313173 -1.488343,1.727309 -0.586116,1.953086 0.802423,0.200802 0.614632,-0.578844 0.683866,-0.878984 0.05571,-0.24152 0.205862,-0.451395 0.292867,-0.683485 0.01143,-0.03051 -0.03258,-0.09775 0,-0.09775 0.278109,0 -0.32966,0.50557 -0.292867,0.781234 0.04307,0.322691 0.411274,0.506619 0.586118,0.781235 0.06304,0.09901 0.142925,0.397809 0.195498,0.292867 0.07232,-0.144356 -0.07514,-0.390617 0.19512,-0.390617"
       id="path9839" /><path
       style="fill:#ff9600;fill-opacity:0;stroke:#ff7c00;stroke-width:0.7;stroke-linecap:round;stroke-linejoin:round;stroke-dasharray:none;stroke-opacity:1"
       d="m 49.028003,20.406919 c -0.227955,-0.423201 -0.410165,-0.874442 -0.683866,-1.269602 -0.115395,-0.166604 -0.620432,0.102814 -0.683866,0.292868 -0.08821,0.264277 -0.137739,0.501849 -0.09775,0.781616 0.03086,0.215886 0.30389,1.171852 0.586118,1.171852 0.07286,0 0.130331,-0.06517 0.195498,-0.09775 0.590476,-0.295238 0.781616,-0.924536 0.781616,-1.562469 0,-0.07286 -0.08006,-0.12482 -0.09775,-0.195499 -0.02371,-0.0947 0.06903,-0.223838 0,-0.292868 -0.07277,-0.07277 -0.107077,0.190375 -0.09775,0.292868 0.02672,0.293587 0.07512,0.585053 0.09775,0.878984 0.04256,0.552729 0.08094,1.106109 0.09775,1.660219 0,2.896272 -0.03467,0.249307 0.09775,3.027569 0.0093,0.195025 -0.02159,0.391687 0,0.585735 0.01484,0.1334 0.09775,0.524838 0.09775,0.390617 0,-0.195244 0,-0.390488 0,-0.585734"
       id="path9841" /><path
       style="fill:#ff9600;fill-opacity:0;stroke:#ff7c00;stroke-width:0.7;stroke-linecap:round;stroke-linejoin:round;stroke-dasharray:none;stroke-opacity:1"
       d="m 50.20062,18.551582 c 0.571958,1.490386 0.285795,3.045809 -0.293251,4.492289"
       id="path9845" /></g></svg>
