<?xml version="1.0" encoding="UTF-8" standalone="no"?>
<!-- Created with Inkscape (http://www.inkscape.org/) -->

<svg
   width="101.22511mm"
   height="70.761269mm"
   viewBox="0 0 101.22511 70.761269"
   version="1.1"
   id="svg13690"
   inkscape:version="1.2.2 (b0a8486541, 2022-12-01)"
   sodipodi:docname="13-soru.svg"
   xmlns:inkscape="http://www.inkscape.org/namespaces/inkscape"
   xmlns:sodipodi="http://sodipodi.sourceforge.net/DTD/sodipodi-0.dtd"
   xmlns="http://www.w3.org/2000/svg"
   xmlns:svg="http://www.w3.org/2000/svg">
  <sodipodi:namedview
     id="namedview13692"
     pagecolor="#ffffff"
     bordercolor="#000000"
     borderopacity="0.25"
     inkscape:showpageshadow="2"
     inkscape:pageopacity="0.0"
     inkscape:pagecheckerboard="0"
     inkscape:deskcolor="#d1d1d1"
     inkscape:document-units="mm"
     showgrid="true"
     inkscape:zoom="1.3771222"
     inkscape:cx="106.38126"
     inkscape:cy="137.96887"
     inkscape:window-width="1920"
     inkscape:window-height="1080"
     inkscape:window-x="0"
     inkscape:window-y="0"
     inkscape:window-maximized="1"
     inkscape:current-layer="layer1">
    <sodipodi:guide
       position="-109.35542,102.28378"
       orientation="0,793.70079"
       id="guide15380"
       inkscape:locked="false" />
    <sodipodi:guide
       position="100.64458,102.28378"
       orientation="1122.5197,0"
       id="guide15382"
       inkscape:locked="false" />
    <sodipodi:guide
       position="100.64458,-194.71622"
       orientation="0,-793.70079"
       id="guide15384"
       inkscape:locked="false" />
    <sodipodi:guide
       position="-109.35542,-194.71622"
       orientation="-1122.5197,0"
       id="guide15386"
       inkscape:locked="false" />
    <inkscape:grid
       type="xygrid"
       id="grid15388"
       units="mm"
       spacingx="5"
       spacingy="5"
       originx="-109.35542"
       originy="-31.522514" />
  </sodipodi:namedview>
  <defs
     id="defs13687" />
  <g
     inkscape:label="Layer 1"
     inkscape:groupmode="layer"
     id="layer1"
     transform="translate(-109.35542,-31.522512)">
    <path
       style="fill:#ff0000;fill-opacity:0.00961142;stroke:#000000;stroke-width:0.603895;stroke-linecap:round;stroke-linejoin:round;stroke-dasharray:none"
       d="m 109.65737,50.271364 1.45335,51.710466 h 98.77677 V 50.517831"
       id="path9267" />
    <path
       style="fill:#ff0000;fill-opacity:0.00961142;stroke:#002aff;stroke-width:0.7;stroke-linecap:round;stroke-linejoin:round;stroke-dasharray:none;stroke-opacity:1"
       d="m 110.55768,64.207806 c 1.51068,-0.01588 3.46763,0.251585 5.02715,0.108497 0.13674,-0.01255 0.61425,-0.158638 0.88776,-0.108497 0.78275,0.143499 1.67957,0.148546 2.66214,0.108497 1.66839,-0.06801 0.7559,-0.128517 2.3662,-0.325067 0.18684,-0.02278 0.40392,0.02286 0.59068,0 0.13242,-0.01621 0.15646,-0.108497 0.29592,-0.108497 0.0986,0 -0.0313,0.07416 0,0.108497 0.0453,0.0498 0.33852,0.294114 0.59183,0.325067 0.9657,0.118022 2.1703,-0.07216 2.95804,-0.21657 0.12471,-0.02286 0.15646,-0.108497 0.29592,-0.108497 0.22018,0 0.37474,0.09265 0.59068,0.108497 0.29016,0.02128 0.59755,-0.0212 0.88776,0 0.0422,0.0033 1.14086,0.212746 1.18252,0.21657 0.49197,0.04514 2.00701,0.0227 2.36621,-0.108497 0.0696,-0.02544 -0.0982,-0.108073 0,-0.108073 0.24057,0 1.26878,0.396464 1.77436,0.433561 0.6383,0.04681 2.00456,0.04922 2.3662,-0.216991 0.044,-0.03234 -0.0698,-0.08289 0,-0.108497 0.1229,-0.04506 1.32086,0.202433 1.47959,0.216991 1.05858,0.09713 1.81091,-0.169319 2.66212,-0.325064 0.27385,-0.05013 1.00156,0.780294 2.9569,0.541634 0.48889,-0.05969 1.90567,-0.728456 2.07027,-0.758628 0.37012,-0.06784 0.30692,0.14749 0.59184,0.216994 0.49184,0.119987 1.82883,0.206203 2.3662,0.108073 0.35054,-0.06402 1.09352,-0.341412 1.18252,-0.325067 0.49233,0.09044 0.91122,0.255696 1.47959,0.325067 2.93572,0.35832 4.44783,-0.0017 6.80269,-0.433564 0.38168,-0.07 0.30175,0.07316 0.59068,0.108497 0.96379,0.117942 3.66536,0.06618 4.43648,-0.21657 0.0698,-0.02561 -0.0698,-0.08289 0,-0.108497 0.27898,-0.102286 0.33118,0.277279 0.59183,0.325067 0.34719,0.06368 2.44377,0.02286 2.66212,0 0.31717,-0.03317 1.66479,-0.507899 2.0703,-0.433564 1.11114,0.2037 2.78118,0.558165 4.14055,0.433564 0.80053,-0.07341 1.67425,-0.306718 2.3662,-0.433564 0.30034,-0.05504 2.75374,-0.07491 2.95803,0 0.0698,0.02561 -0.0698,0.08289 0,0.108497 0.13673,0.05013 0.70792,-0.03284 0.8866,0 0.78987,0.145079 1.71601,0.317934 2.66214,0.433564 0.96429,0.117859 1.68991,-0.227311 2.66211,-0.108497 0.26468,0.03234 0.34225,0.171284 0.59184,0.216994 0.70311,0.128767 1.88717,0.277686 2.66212,0.325064 1.57159,0.0961 3.0795,-0.267498 4.43649,-0.433561 0.60336,-0.07383 1.44703,0.03808 2.07026,0 0.93564,-0.0572 1.79626,-0.111174 2.66098,-0.216994 0.46068,-0.05637 1.34197,0.325491 2.07027,0.325491 1.4937,0 2.72994,-0.325491 4.14171,-0.325491 0.36481,0 2.12418,-0.08874 2.36622,0 0.0698,0.02561 -0.0696,0.08289 0,0.108497 0.18662,0.06867 0.93697,-0.04498 1.18252,0 0.12472,0.02286 0.16349,0.09233 0.29592,0.108497 0.58406,0.07142 1.16678,-0.108497 1.77436,-0.108497 1.60587,0 0.75592,0.295204 2.95803,-0.108497"
       id="path9271" />
    <rect
       style="fill:#ff7c00;fill-opacity:1;stroke:#000000;stroke-width:0.7;stroke-linecap:round;stroke-linejoin:round;stroke-dasharray:none;stroke-opacity:0.00522545"
       id="rect9279"
       width="8.9667645"
       height="48.626701"
       x="197.22757"
       y="46.459007" />
    <rect
       style="fill:#ff7c00;fill-opacity:1;stroke:#000000;stroke-width:0.7;stroke-linecap:round;stroke-linejoin:round;stroke-dasharray:none;stroke-opacity:0.00522545"
       id="rect9281"
       width="8.9667645"
       height="48.626701"
       x="113.54926"
       y="46.123016" />
    <path
       style="fill:#ff9600;fill-opacity:0;stroke:#ff7c00;stroke-width:0.7;stroke-linecap:round;stroke-linejoin:round;stroke-dasharray:none;stroke-opacity:1"
       d="m 118.45583,47.302466 -0.1955,-13.671986 39.86129,-0.586117"
       id="path9793" />
    <path
       style="fill:#ff9600;fill-opacity:0;stroke:#ff7c00;stroke-width:0.7;stroke-linecap:round;stroke-linejoin:round;stroke-dasharray:none;stroke-opacity:1"
       d="m 157.82838,29.23556 0.29324,7.42211"
       id="path9795" />
    <path
       style="fill:#ff9600;fill-opacity:0;stroke:#ff7c00;stroke-width:0.7;stroke-linecap:round;stroke-linejoin:round;stroke-dasharray:none;stroke-opacity:1"
       d="m 161.34546,31.872512 -0.0978,2.83207"
       id="path9797" />
    <path
       style="fill:#ff9600;fill-opacity:0;stroke:#ff7c00;stroke-width:0.7;stroke-linecap:round;stroke-linejoin:round;stroke-dasharray:none;stroke-opacity:1"
       d="m 161.34546,33.337232 40.05641,0.09775 v 14.355852"
       id="path9799" />
    <path
       style="fill:#ff9600;fill-opacity:0;stroke:#ff7c00;stroke-width:0.7;stroke-linecap:round;stroke-linejoin:round;stroke-dasharray:none"
       d="m 144.33496,71.133707 c 0.22866,-0.01204 -0.0476,-0.620461 0.16991,-0.765437 0.20063,-0.133752 1.26916,0.08 1.36129,0.08512 0.57776,0.03211 0.98234,0.03295 1.53154,0.170246 0.2982,0.07455 -0.17913,-0.08512 0.16991,-0.08512 0.0137,0 -0.0112,0.275098 -0.0848,0.5104 -0.099,0.316691 -0.21952,0.626388 -0.34049,0.93535 -0.7505,1.916835 -1.87424,3.634049 -2.97762,5.357722 -0.55474,0.866601 -0.33058,0.669153 -0.85089,1.275506 -0.0356,0.188915 -0.2401,0.154916 -0.34016,0.255366 -0.04,0.04013 0.11328,0 0.16992,0 0.34817,0 0.67296,0.08479 1.02113,0.08479 2.45278,0 -0.47125,-0.235845 2.12673,0 0.36219,0.03288 1.70601,0.336909 1.95682,0.08512"
       id="path15780" />
    <path
       style="fill:#ff9600;fill-opacity:0;stroke:#ff7c00;stroke-width:0.7;stroke-linecap:round;stroke-linejoin:round;stroke-dasharray:none"
       d="m 144.41975,75.55608 c 2.0701,0.09415 1.24715,0.08512 2.46755,0.08512"
       id="path15782" />
    <path
       style="fill:#ff9600;fill-opacity:0;stroke:#ff7c00;stroke-width:0.7;stroke-linecap:round;stroke-linejoin:round;stroke-dasharray:none"
       d="m 148.33338,76.321517 c 0.0284,-0.170135 0.0551,-0.680257 0.0851,-0.510403 0.35562,2.013342 0.15738,1.714519 -0.0851,3.571815 -0.24274,0.226366 0.0851,0.337917 0.0851,0.510402 0,0.04013 -0.0851,-0.045 -0.0851,-0.08512 0,-0.216344 0.23699,-0.457332 0.34049,-0.595191"
       id="path15784" />
    <path
       style="fill:#ff9600;fill-opacity:0;stroke:#ff7c00;stroke-width:0.7;stroke-linecap:round;stroke-linejoin:round;stroke-dasharray:none"
       d="m 148.75899,77.597023 c 0.0283,-0.170024 -0.002,-0.361032 0.0848,-0.510069 0.43052,-0.741183 0.73314,-1.650749 1.44642,-2.126065 0.66613,-0.443894 1.65621,2.271919 1.70178,2.636134 0.0469,0.375174 -0.15491,1.940565 0.34016,2.126064 0.54424,0.203923 1.13582,-0.22938 1.36129,-0.680315"
       id="path15786" />
    <path
       style="fill:#ff9600;fill-opacity:0;stroke:#ff7c00;stroke-width:0.7;stroke-linecap:round;stroke-linejoin:round;stroke-dasharray:none"
       d="m 157.94722,71.558985 c -1.61533,-0.101007 -1.39699,-0.481414 -2.21185,1.190718 -0.10989,0.225509 -0.97186,2.501532 -1.10626,3.146533 -0.26632,1.278078 -0.0477,1.956676 0.93601,2.721258 0.31438,0.244343 0.58016,0.535279 1.02081,0.425278 0.56306,-0.14056 1.12467,-0.951333 1.44641,-1.360627 0.22918,-0.291542 0.5104,-0.575369 0.5104,-0.93535"
       id="path15788" />
    <path
       style="fill:#ff9600;fill-opacity:0;stroke:#ff7c00;stroke-width:0.7;stroke-linecap:round;stroke-linejoin:round;stroke-dasharray:none"
       d="m 159.22339,76.576551 c 0.51051,-1.218977 1.02928,-2.434534 1.53154,-3.656935 0.3073,-0.747911 0.47965,-1.118196 0.59552,-1.8707 0.0173,-0.112173 0.063,-0.434885 0,-0.340489 -0.21713,0.325273 -0.62735,2.768787 -0.68064,2.976623 -0.36921,1.439727 -1.15448,2.97965 -0.93602,4.507497 0.2109,1.474936 1.31245,0.652955 1.95682,0.169913 0.3447,-0.258398 0.86738,-0.710552 0.93602,-1.190718 0.0244,-0.170849 -0.0765,-0.246396 -0.17025,-0.340156"
       id="path15790" />
    <path
       style="fill:#ff9600;fill-opacity:0;stroke:#ff7c00;stroke-width:0.7;stroke-linecap:round;stroke-linejoin:round;stroke-dasharray:none"
       d="m 163.47751,80.573646 c -0.312,-0.226772 -0.86029,-0.302109 -0.93601,-0.680315 -0.0459,-0.229447 1.45178,-2.740761 1.61633,-0.595191 0.013,0.169524 0.08,0.36005 0,0.510069 -0.16065,0.301194 -0.52766,0.460119 -0.68032,0.765437 -0.1148,0.229616 0.0161,0.529505 -0.0851,0.765434 -0.0825,0.192376 -0.82488,0.876568 -1.10625,0.595194 -0.0201,-0.02006 0.0567,0 0.0851,0 0.6093,0 0.3825,0.03336 0.93601,-0.08513 0.82737,-0.177112 1.52869,-0.338018 2.21185,-0.850225"
       id="path15792" />
    <path
       style="fill:#ff9600;fill-opacity:0;stroke:#ff7c00;stroke-width:0.7;stroke-linecap:round;stroke-linejoin:round;stroke-dasharray:none"
       d="m 168.07146,76.406639 c -0.22688,0.340156 -0.56663,0.627811 -0.68064,1.020471 -0.29034,0.999895 -0.16878,2.613303 0.51073,3.486692 0.25467,0.327335 0.70157,0.638133 0.76544,0.510403 0.0739,-0.147847 -0.16327,-0.287801 -0.25504,-0.425281"
       id="path15794" />
    <path
       style="fill:#ff9600;fill-opacity:0;stroke:#ff7c00;stroke-width:0.7;stroke-linecap:round;stroke-linejoin:round;stroke-dasharray:none"
       d="m 143.2287,95.031149 c 0.90887,-1.736318 1.28374,-3.541059 1.61666,-5.442845 0.094,-0.537165 0.16537,-1.078084 0.25503,-1.615995 0.0749,-0.449575 0.26618,-1.275506 0.17025,-1.275506 -0.11339,0 0,0.226772 0,0.340156 0,0.28352 -0.0123,0.567309 0,0.850559 0.066,1.516025 0.3707,3.094582 0.93601,4.507164 0.16015,0.400166 0.46814,0.82909 0.59553,0.765437 0.34082,-0.170302 0.41888,-1.411235 0.42527,-1.44575 0.32107,-1.731976 0.21647,-0.810289 0.42529,-2.551345 0.0339,-0.282909 0.0673,-0.566179 0.0851,-0.850559 0.0106,-0.16969 0,-0.340045 0,-0.510069 0,-0.02837 0,-0.113496 0,-0.08512 0,1.585844 0.31812,2.656049 0.76576,4.167005 0.10811,0.364898 0.29193,1.586474 0.59553,2.041277 0.10688,0.160117 0.12047,-0.120473 0.17025,-0.170247 0.0154,-0.0154 0.19421,-0.108855 0.25503,-0.169912"
       id="path15804" />
    <path
       style="fill:#ff9600;fill-opacity:0;stroke:#ff7c00;stroke-width:0.7;stroke-linecap:round;stroke-linejoin:round;stroke-dasharray:none"
       d="m 151.73661,93.755309 c 0.84901,-0.951656 1.05923,-4.624308 -0.5104,-3.741727 -0.82088,0.461571 -1.6719,3.279159 -0.85089,3.997095 0.90644,0.792636 1.69952,-1.945918 1.78657,-2.381432 0.0868,-0.434174 -0.0416,-0.489464 -0.0851,0.510402 -0.0173,0.39642 0.0124,0.793782 0,1.190384 -0.0159,0.510823 -0.0714,1.019974 -0.0848,1.530872 -0.0358,1.363159 0.0512,2.751798 -0.34049,4.082216 -0.1043,0.354285 -0.1423,0.776444 -0.59552,0.595191 -0.53943,-0.215726 -0.7643,-0.658993 -1.10593,-1.105593 -0.11045,-0.144394 -0.91171,-1.141881 -0.85089,-1.44575 0.0764,-0.381725 1.61185,-0.998802 1.95682,-1.190381 0.87579,-0.486384 1.76206,-0.959782 2.63746,-1.445752 0.11405,-0.06332 1.32186,-0.571966 0.76577,-0.850559"
       id="path15806" />
    <path
       style="fill:#ff9600;fill-opacity:0;stroke:#ff7c00;stroke-width:0.7;stroke-linecap:round;stroke-linejoin:round;stroke-dasharray:none"
       d="m 155.13982,94.095466 c -0.35882,0 -0.78441,0.236726 -0.42562,0.595522 0.0201,0.02007 0,-0.05675 0,-0.08512 0,-0.141758 0.02,-0.28494 0,-0.425278 -0.0369,-0.258736 -0.13611,-0.506275 -0.16991,-0.765437 -0.24754,-1.898343 0.0187,-3.721505 0.25504,-5.612757 0.0353,-0.282628 -0.0567,0.566817 -0.0851,0.850228 -0.085,-0.226771 -0.25503,-0.438133 -0.25503,-0.680314 0,-0.210667 0.74986,-1.321975 0.93568,-1.44575 0.1204,-0.08019 0.28207,-0.102742 0.42561,-0.08479 0.21878,0.02736 0.66779,0.666658 0.68032,0.680314 0.3605,0.393032 0.96741,0.889125 0.85089,1.53054 -0.0743,0.408798 -1.10593,1.127198 -1.10593,1.36096 0,0.659069 2.36783,1.173638 2.12707,2.295977 -0.19941,0.929534 -1.0737,1.50555 -1.95682,1.615995 -0.22513,0.02815 -0.45575,-0.02994 -0.68065,0 -1.14564,0.152528 -0.0341,0.40791 -1.36129,-0.255035 -0.10466,-0.05228 -0.25777,-0.0024 -0.34049,-0.08512 -0.16766,-0.167658 0.52647,-0.294136 0.59552,-0.340157 0.24435,-0.162845 0.42303,-0.425279 0.76577,-0.425279 0.10435,0 0.32425,0.119429 0.42561,0.169912"
       id="path15808" />
    <path
       style="fill:#ff9600;fill-opacity:0;stroke:#ff7c00;stroke-width:0.7;stroke-linecap:round;stroke-linejoin:round;stroke-dasharray:none"
       d="m 159.90404,90.608776 c -0.085,1.190604 -0.16349,2.381692 -0.25504,3.571814 -0.0259,0.33655 -0.17863,1.101572 0,1.190715 0.0803,0.04005 0.0672,-0.167412 0.0848,-0.255368 0.0393,-0.196532 0.0567,-0.396793 0.0851,-0.595191 0.13549,-0.947319 0.86742,-3.664905 1.70179,-4.081883 0.40709,-0.203449 1.35316,0.355719 1.61633,0.424947 0.49675,0.130675 1.02102,0.113496 1.53153,0.170244"
       id="path15810" />
    <path
       style="fill:#ff9600;fill-opacity:0;stroke:#ff7c00;stroke-width:0.7;stroke-linecap:round;stroke-linejoin:round;stroke-dasharray:none"
       d="m 163.56231,94.605868 c 0.28363,-0.453541 0.455,-1.000879 0.85089,-1.360628 0.12757,-0.115924 0.0851,0.337696 0.0851,0.510069 0,0.682784 -0.22504,1.544167 -0.59552,2.126065 -0.24654,0.387207 -0.76577,0.444574 -0.76577,0.255368 0,-0.04013 0.0538,-0.06006 0.0851,-0.08512 0.35673,-0.285329 0.80572,-0.444587 1.27617,-0.340159 1.01481,0.225269 0.94729,1.264558 2.04194,0.169913"
       id="path15812" />
    <path
       style="fill:#ff9600;fill-opacity:0;stroke:#ff7c00;stroke-width:0.7;stroke-linecap:round;stroke-linejoin:round;stroke-dasharray:none"
       d="m 168.07146,93.670521 c -0.95939,-0.213072 -0.87852,3.339415 0.0851,3.146533 0.0931,-0.01863 0.31603,-0.388646 0.34049,-0.425278"
       id="path15814" />
    <path
       style="fill:#ff9600;fill-opacity:0;stroke:#ff7c00;stroke-width:0.7;stroke-linecap:round;stroke-linejoin:round;stroke-dasharray:none"
       d="m 169.85837,95.031149 c 0.29447,-0.235016 0.94845,-1.445752 0.0848,-1.445752 -0.78058,0 -0.98042,1.332955 -0.76544,1.87103 0.36875,0.922948 1.19862,0.1935 1.44608,-0.425278 0.0537,-0.134237 0.05,-0.285033 0.0851,-0.425281 0.0217,-0.08694 0.0634,-0.168092 0.0851,-0.255034 0.007,-0.02753 0,-0.113496 0,-0.08512 0,0.572889 -0.23541,1.115099 -0.17025,1.700784 0.0157,0.140914 0.19191,0.466947 0.25537,0.340159 0.0946,-0.188987 0.0354,-0.510069 0.34016,-0.510069"
       id="path15816" />
    <path
       style="fill:#ff9600;fill-opacity:0;stroke:#ff7c00;stroke-width:0.7;stroke-linecap:round;stroke-linejoin:round;stroke-dasharray:none"
       d="m 173.34639,95.201061 c 0.62706,-2.995517 -1.25643,-0.922525 -1.53154,0.08512 -0.0506,0.185272 -0.0182,0.795848 0.25537,0.850559 0.088,0.0176 0.16832,-0.06335 0.25537,-0.08512 0.14025,-0.03508 0.29595,-0.0205 0.42528,-0.08512 0.20058,-0.100243 0.52761,-0.663533 0.59552,-0.765435 z"
       id="path15818" />
    <path
       style="fill:#ff9600;fill-opacity:0;stroke:#ff7c00;stroke-width:0.7;stroke-linecap:round;stroke-linejoin:round;stroke-dasharray:none"
       d="m 173.60176,93.585397 c -0.39666,4.656531 -0.4136,2.5978 -0.25537,5.442844 0.002,0.02822 0.0283,0.08479 0,0.08479 -0.0188,0 -0.25296,-0.549259 -0.34016,-0.680315"
       id="path15820" />
    <path
       style="fill:#ff9600;fill-opacity:0;stroke:#ff7c00;stroke-width:0.7;stroke-linecap:round;stroke-linejoin:round;stroke-dasharray:none"
       d="m 174.70768,93.670521 c 0.0284,-0.113498 0.0597,-0.454694 0.0851,-0.34049 0.37591,1.691373 0.43,1.547551 -0.0851,2.806711 -0.42211,1.031809 -0.23346,0.743685 -0.85089,1.360628"
       id="path15822" />
    <path
       style="fill:#ff9600;fill-opacity:0;stroke:#ff7c00;stroke-width:0.7;stroke-linecap:round;stroke-linejoin:round;stroke-dasharray:none"
       d="m 172.75089,79.468053 c -0.28753,0.287525 -0.61661,0.602303 -0.93602,0.850559 -0.13051,0.101438 -0.29302,0.155874 -0.42528,0.255034 -0.47125,0.353318 -0.006,0.222785 -0.68064,0.425278 -2.39582,0.719019 -1.03576,-2.922188 0.0851,-3.146536 0.28357,-0.05676 0.47631,0.118946 0.68065,0.255037 0.0851,0.05667 0.20276,0.08225 0.25536,0.16991 0.12465,0.207643 0.17004,0.453544 0.25504,0.680316 0.0568,-0.283409 0.10008,-0.569838 0.17024,-0.850226 0.0138,-0.05494 0.0111,0.114377 0,0.169912 -0.0459,0.229214 -0.15726,0.446911 -0.17024,0.680314 -0.0158,0.284496 0.0673,0.566179 0.0851,0.850559 0.0253,0.404899 -0.0815,0.894593 0.34049,1.105593"
       id="path15826" />
    <path
       style="fill:#ff9600;fill-opacity:0;stroke:#ff7c00;stroke-width:0.7;stroke-linecap:round;stroke-linejoin:round;stroke-dasharray:none"
       d="m 174.36719,79.468053 c 0.14188,-0.141761 0.30896,-0.262141 0.42561,-0.425281 0.12417,-0.173635 -0.003,-0.834668 -0.25536,-0.935347 -0.73084,-0.291991 -0.80731,1.475544 -0.5104,1.871028 0.23823,0.317328 0.32824,0.169614 0.5104,-0.08512 0.21733,-0.303919 0.72306,-1.018757 0.5104,-1.445749 -0.0282,-0.05666 -0.0666,0.10928 -0.0848,0.169912 -0.0672,0.224018 -0.14289,0.448379 -0.17025,0.680646 -0.0842,0.714878 -0.0163,1.501728 0.0851,2.210853 0.0284,0.198506 0.0417,0.399764 0.0851,0.595524 0.0194,0.08746 0.0848,0.344623 0.0848,0.255035 0,-0.301697 -0.0997,-0.465685 0,-0.765437"
       id="path15830" />
    <path
       style="fill:#ff9600;fill-opacity:0;stroke:#ff7c00;stroke-width:0.7;stroke-linecap:round;stroke-linejoin:round;stroke-dasharray:none"
       d="m 175.81361,76.746795 c 0.312,0.481917 0.76378,0.898096 0.93601,1.445752 0.1697,0.539594 0.14632,2.179696 -0.59552,2.551343"
       id="path15832" />
  </g>
</svg>
