<?xml version="1.0" encoding="UTF-8" standalone="no"?>
<!-- Created with Inkscape (http://www.inkscape.org/) -->

<svg
   width="80.01622mm"
   height="58.738926mm"
   viewBox="0 0 80.01622 58.738926"
   version="1.1"
   id="svg5"
   inkscape:version="1.2.2 (b0a8486541, 2022-12-01)"
   sodipodi:docname="15-soru.svg"
   xmlns:inkscape="http://www.inkscape.org/namespaces/inkscape"
   xmlns:sodipodi="http://sodipodi.sourceforge.net/DTD/sodipodi-0.dtd"
   xmlns="http://www.w3.org/2000/svg"
   xmlns:svg="http://www.w3.org/2000/svg">
  <sodipodi:namedview
     id="namedview7"
     pagecolor="#ffffff"
     bordercolor="#000000"
     borderopacity="0.25"
     inkscape:showpageshadow="2"
     inkscape:pageopacity="0.0"
     inkscape:pagecheckerboard="0"
     inkscape:deskcolor="#d1d1d1"
     inkscape:document-units="mm"
     showgrid="true"
     inkscape:zoom="1"
     inkscape:cx="191.5"
     inkscape:cy="128"
     inkscape:window-width="956"
     inkscape:window-height="1026"
     inkscape:window-x="0"
     inkscape:window-y="0"
     inkscape:window-maximized="1"
     inkscape:current-layer="layer1">
    <inkscape:grid
       type="xygrid"
       id="grid4316"
       units="mm"
       spacingx="5"
       spacingy="5"
       empspacing="1"
       originx="-25.157917"
       originy="-22.162126" />
  </sodipodi:namedview>
  <defs
     id="defs2" />
  <g
     inkscape:label="Layer 1"
     inkscape:groupmode="layer"
     id="layer1"
     transform="translate(-25.157918,-22.162126)">
    <path
       style="fill:#ff9600;fill-opacity:0;stroke:#000000;stroke-width:0.7;stroke-linecap:round;stroke-linejoin:round;stroke-opacity:1"
       d="m 25.726533,44.731511 -0.218615,35.81954 79.316222,-0.218614 V 44.731512"
       id="path4744" />
    <path
       style="fill:#ff9600;fill-opacity:0;stroke:#000000;stroke-width:0.7;stroke-linecap:round;stroke-linejoin:round;stroke-opacity:1"
       d="m 65.711709,44.949273 -0.21776,35.164548"
       id="path5439" />
    <path
       style="fill:#ff9600;fill-opacity:0;stroke:#ff0035;stroke-width:0.7;stroke-linecap:round;stroke-linejoin:round;stroke-dasharray:none;stroke-opacity:1"
       d="m 25.677721,50.111556 c 0.185373,0.192728 0.483675,0.133742 0.696264,0.261229 0.105541,0.06329 0.151155,0.205848 0.261225,0.260884 0.379976,0.189989 0.550349,-1.391846 0.957151,-1.391846 0.709456,0 1.008195,1.113626 1.740826,0.869733 0.518911,-0.172744 0.390938,-0.521771 1.044226,-0.521771 0.116099,0 0.236656,-0.03185 0.348303,0 0.100483,0.02867 0.167412,0.127098 0.260884,0.17381 0.318796,0.159321 0.68154,0.306628 1.044564,0.261228 0.715894,-0.08953 1.269289,-0.689898 1.914639,-0.60919 0.232087,0.02902 0.471376,0.02278 0.696264,0.08708 0.360119,0.102947 0.645266,0.435036 1.044223,0.435036 0.56505,0 1.386658,-0.729538 2.088791,-0.870074 0.382735,-0.07661 0.497265,0.04975 0.870413,0.08708 0.317465,0.03176 0.639204,-0.02651 0.957151,0 0.495141,0.04129 0.98679,0.129333 1.4796,0.174151 0.636027,0.05784 1.299202,-0.0062 1.914639,-0.174151 0.557022,-0.152025 0.419785,-0.22791 0.957149,-0.174152 0.259395,0.02596 0.736142,0.160621 0.95749,0.261226 0.359434,0.16337 0.471842,0.362545 0.870413,0.435039 0.943112,0.171534 1.633812,-0.656281 2.523826,-0.783 0.857117,-0.122034 1.591397,0.437501 2.436751,0.521771 0.760953,0.07586 1.499267,-0.430665 2.262942,-0.260884 0.152477,0.0339 0.285416,0.129288 0.435036,0.174151 0.558628,0.1675 1.07638,0.29046 1.653413,0.347962 0.175665,0.01752 0.345916,0.08673 0.522451,0.08673 0.0013,0 0.695248,-0.173556 0.696264,-0.17381 0.497253,-0.124373 0.959541,-0.231924 1.479262,-0.174152 0.949947,0.105595 1.991101,0.422683 2.959203,0.261229 0.632301,-0.105453 1.106498,-0.616977 1.740488,-0.696265 0.115202,-0.01442 0.236672,-0.03191 0.3483,0 0.201152,0.0575 0.334968,0.254789 0.522113,0.348303 0.445465,0.222586 0.908039,0.400532 1.392525,0.521772 0.174189,0.04359 0.593411,0.07068 0.347962,-0.17381"
       id="path5741" />
    <path
       style="fill:#ff9600;fill-opacity:0;stroke:#ff0035;stroke-width:0.7;stroke-linecap:round;stroke-linejoin:round;stroke-dasharray:none;stroke-opacity:1"
       d="m 66.059962,50.198633 c 0.232087,0.05805 0.471424,0.09241 0.696264,0.174152 0.181772,0.06608 0.455107,0.38141 0.695923,0.260884 0.07341,-0.03674 0.110019,-0.122896 0.174152,-0.174151 0.435451,-0.34802 0.960892,-0.869098 1.566674,-0.695923 0.525375,0.15019 0.862791,0.606668 1.479603,0.783 0.08815,0.02519 0.17013,0.100047 0.260887,0.08707 0.414668,-0.05927 0.993659,-0.870074 1.044565,-0.870074 0.09168,0 0.169206,0.08708 0.260884,0.08708 0.09179,0 0.170365,-0.07409 0.261228,-0.08708 0.114819,-0.0164 0.232678,0.01278 0.347962,0 0.364424,-0.04035 0.677119,-0.17381 1.044564,-0.17381 0.07827,0 0.398304,0.123806 0.435036,0.08708 0.106056,-0.106059 0.04079,-0.194546 0.174152,-0.261229 0.180559,-0.09028 0.536056,0.06704 0.696261,0.08708 0.377172,0.04717 0.457528,-0.05268 0.870075,-0.08708 0.173437,-0.01447 0.348932,0.01725 0.522112,0 0.428041,-0.04265 0.953085,-0.283776 1.392526,-0.17381 0.152694,0.03821 0.305446,0.205243 0.435377,0.260887 0.368345,0.157745 1.373598,0.522113 1.740488,0.522113 0.239239,0 0.45943,-0.140319 0.696264,-0.174151 0.220869,-0.03155 0.480047,0.05405 0.696262,0 0.101375,-0.02535 0.159496,-0.148537 0.260887,-0.17381 0.197143,-0.04914 0.412401,-0.04921 0.609528,0 0.687541,0.171632 1.284449,0.76971 2.088449,0.608846 0.473969,-0.09483 0.976665,-0.487993 1.392526,-0.695923 0.03671,-0.01836 0.04603,-0.08707 0.08707,-0.08707 0.04105,0 0.05036,0.06872 0.08708,0.08707 0.340091,0.170045 1.196404,-0.206418 1.479601,-0.347962 0.179019,-0.08947 0.883872,-0.517512 1.1313,-0.435036 0.292819,0.09761 0.271894,0.304798 0.435038,0.522113 0.228129,0.303874 0.778076,0.434695 1.131639,0.434695 0.176424,0 0.346411,-0.07081 0.522113,-0.08673 0.500912,-0.04539 0.979789,-0.07422 1.479262,-0.174152 0.456821,-0.0914 0.32258,-0.124166 0.870413,-0.17381 0.509918,-0.04621 0.978651,0.128236 1.479602,0.17381 0.288944,0.0263 0.581467,-0.02627 0.870413,0 0.385903,0.03509 0.752121,0.12673 1.131301,0.174152 0.339103,0.04241 1.193506,-0.286097 1.392525,-0.08708 0.344718,0.344717 0.523703,1.026855 1.044226,1.130961 0.422238,0.08445 0.899076,-0.01934 1.305456,-0.08708 0.33117,-0.05519 0.71862,0.08148 1.04422,0 0.34308,-0.08585 0.69344,-0.173448 1.04456,-0.260884 0.12835,-0.03196 0.31948,0.05778 0.43504,0 0.10449,-0.05225 0.15674,-0.208982 0.26123,-0.261229 0.23869,-0.119345 1.24791,0.492014 1.39252,0.347962 0.0616,-0.06137 0,-0.173924 0,-0.260885"
       id="path8578" />
    <path
       style="fill:#ff9600;fill-opacity:0;stroke:#000bff;stroke-width:3;stroke-linecap:square;stroke-linejoin:round;stroke-dasharray:none;stroke-opacity:1"
       d="M 59.873181,43.67315 59.69903,76.122346"
       id="path5441" />
    <path
       style="fill:#ff9600;fill-opacity:0;stroke:#000bff;stroke-width:3;stroke-linecap:square;stroke-linejoin:round;stroke-dasharray:none;stroke-opacity:1"
       d="m 70.751483,76.216814 0.08708,-31.753269"
       id="path5443" />
    <path
       style="fill:#ff9600;fill-opacity:0;stroke:#000bff;stroke-width:3;stroke-linecap:square;stroke-linejoin:round;stroke-dasharray:none;stroke-opacity:1"
       d="m 100.15849,76.163325 0.0871,-31.753269"
       id="path5443-3" />
    <path
       style="fill:#ff9600;fill-opacity:0;stroke:#000bff;stroke-width:3;stroke-linecap:square;stroke-linejoin:round;stroke-dasharray:none;stroke-opacity:1"
       d="m 29.677729,75.679485 0.0871,-31.753269"
       id="path5443-3-6" />
    <path
       style="fill:#ff9600;fill-opacity:0;stroke:#000bff;stroke-width:0.7;stroke-linecap:round;stroke-linejoin:round;stroke-dasharray:none;stroke-opacity:1"
       d="m 60.046991,42.107494 0.08707,-4.349689 11.0528,1e-6 v 5.045611"
       id="path5714" />
    <path
       style="fill:#ff9600;fill-opacity:0;stroke:#000bff;stroke-width:0.7;stroke-linecap:round;stroke-linejoin:round;stroke-dasharray:none;stroke-opacity:1"
       d="m 30.369922,42.694914 0.347962,-17.833793 33.680837,0.260886"
       id="path5716" />
    <path
       style="fill:#ff9600;fill-opacity:0;stroke:#000bff;stroke-width:0.7;stroke-linecap:round;stroke-linejoin:round;stroke-dasharray:none;stroke-opacity:1"
       d="m 64.833756,22.512126 0.08708,4.672479"
       id="path5718" />
    <path
       style="fill:#ff9600;fill-opacity:0;stroke:#000bff;stroke-width:0.7;stroke-linecap:round;stroke-linejoin:round;stroke-dasharray:none;stroke-opacity:1"
       d="m 66.48751,24.251933 0.08674,1.913959"
       id="path5720" />
    <path
       style="fill:#ff9600;fill-opacity:0;stroke:#000bff;stroke-width:0.7;stroke-linecap:round;stroke-linejoin:round;stroke-dasharray:none;stroke-opacity:1"
       d="m 66.748395,25.034932 33.071311,0.08708 0.261234,17.051129"
       id="path5722" />
    <path
       style="fill:#ff9600;fill-opacity:0;stroke:#ff0035;stroke-width:0.7;stroke-linecap:round;stroke-linejoin:round;stroke-dasharray:none;stroke-opacity:1"
       d="m 34.80596,69.55371 c 0.462464,-0.771176 0.16291,-0.191908 0.487818,-1.072896 0.431141,-1.169035 0.965111,-2.298602 1.268556,-3.511984 0.08819,-0.352647 0.132051,-0.71493 0.19528,-1.072896 0.03961,-0.224229 0.10183,-0.886759 0,-0.683098 -0.04367,0.08733 -0.0081,0.195619 0,0.29292 0.02447,0.293452 0.05596,0.586491 0.09764,0.877996 0.239653,1.676016 0.479768,3.45708 1.463835,4.877419 0.157126,0.226785 0.309561,0.585076 0.585458,0.585076 0.218159,0 -0.39033,-0.194975 -0.585458,-0.292537"
       id="path10418" />
    <path
       style="fill:#ff9600;fill-opacity:0;stroke:#ff0035;stroke-width:0.7;stroke-linecap:round;stroke-linejoin:round;stroke-dasharray:none;stroke-opacity:1"
       d="m 35.00124,68.675711 c 0.855289,-0.196646 1.698328,0.01418 2.537112,-0.194897"
       id="path10420" />
    <path
       style="fill:#ff9600;fill-opacity:0;stroke:#ff0035;stroke-width:0.7;stroke-linecap:round;stroke-linejoin:round;stroke-dasharray:none;stroke-opacity:1"
       d="m 40.173484,68.870992 c 0,-0.528936 0.349862,-1.683445 -0.585839,-1.853633 -0.709988,-0.129133 -1.08471,1.611807 -0.975636,2.048531 0.02839,0.113681 0.112045,0.209685 0.194898,0.292539 0.375454,0.375454 0.576742,-0.276974 0.780738,-0.390178 0.173088,-0.09605 0.523186,0.09052 0.585839,-0.09726 0.115092,-0.344937 -0.143812,-0.713303 -0.195279,-1.073277 -0.0138,-0.09653 0.01605,-0.196355 0,-0.292536 -0.01692,-0.101399 -0.06509,-0.390052 -0.09764,-0.292539 -0.170174,0.509854 0.272238,1.245129 0.292919,1.658352 0.01498,0.299318 -0.182248,0.578205 -0.195279,0.877615 -0.01368,0.314212 0.676694,3.748718 -0.4882,3.219448 -0.254738,-0.115742 -0.453029,-0.328584 -0.683098,-0.487818 -0.192838,-0.133469 -0.411133,-0.233302 -0.585457,-0.390178 -0.154776,-0.139288 -0.254677,-0.329719 -0.390179,-0.487821 -0.05991,-0.06989 -0.19528,-0.103221 -0.19528,-0.195278 0,-0.311362 0.652087,-0.192077 0.683098,-0.1949 0.713575,-0.06491 1.495287,-0.289274 2.146934,-0.585457 0.172611,-0.07845 0.314541,-0.215566 0.487818,-0.292539 0.588241,-0.261297 0.24307,0.04928 0.488199,-0.194897"
       id="path10422" />
    <path
       style="fill:#ff9600;fill-opacity:0;stroke:#ff0035;stroke-width:0.7;stroke-linecap:round;stroke-linejoin:round;stroke-dasharray:none;stroke-opacity:1"
       d="m 43.101156,65.066469 c 0.162889,-0.808307 -0.69733,-1.833851 -1.366577,-0.877996 -0.620906,0.88681 -1.100445,4.029258 0.195279,4.58488 0.389466,0.167005 0.839736,0.06243 1.171298,-0.195281 0.306277,-0.238053 0.597714,-0.597712 0.877996,-0.877996"
       id="path10424" />
    <path
       style="fill:#ff9600;fill-opacity:0;stroke:#ff0035;stroke-width:0.7;stroke-linecap:round;stroke-linejoin:round;stroke-dasharray:none;stroke-opacity:1"
       d="m 44.369712,68.578072 c 0.357758,-0.812903 0.763926,-1.606179 1.073276,-2.438709 0.208815,-0.561967 0.272897,-1.16776 0.390559,-1.755611 0.12816,-0.640297 0.162768,-1.138402 0,-0.975635 -0.0948,0.0948 -0.07558,0.257937 -0.09764,0.390178 -0.04846,0.290454 -0.0632,0.585547 -0.09764,0.877996 -0.219858,1.867077 0.0085,-0.480219 -0.09764,1.85325 -0.01633,0.358865 -0.09764,0.714042 -0.09764,1.073277 0,0.558631 0.08367,1.426858 0.390559,1.365433 0.439235,-0.08792 0.628638,-1.12054 1.366196,-1.365433"
       id="path10426" />
    <path
       style="fill:#ff9600;fill-opacity:0;stroke:#ff0035;stroke-width:0.7;stroke-linecap:round;stroke-linejoin:round;stroke-dasharray:none;stroke-opacity:1"
       d="m 79.111206,65.554287 c 0.248142,1.937319 0.287271,3.925506 -0.09726,5.852673"
       id="path10432" />
    <path
       style="fill:#ff9600;fill-opacity:0;stroke:#ff0035;stroke-width:0.7;stroke-linecap:round;stroke-linejoin:round;stroke-dasharray:none;stroke-opacity:1"
       d="m 79.404126,68.480814 c 1.722826,-0.215458 1.036931,-0.195278 2.049293,-0.195278"
       id="path10434" />
    <path
       style="fill:#ff9600;fill-opacity:0;stroke:#ff0035;stroke-width:0.7;stroke-linecap:round;stroke-linejoin:round;stroke-dasharray:none;stroke-opacity:1"
       d="m 81.843981,65.456648 c 0.257805,1.743167 -0.01148,3.516294 0.09764,5.267595 0.113239,1.817592 0.09726,-0.172295 0.09726,0.877995"
       id="path10438" />
    <path
       style="fill:#ff9600;fill-opacity:0;stroke:#ff0035;stroke-width:0.7;stroke-linecap:round;stroke-linejoin:round;stroke-dasharray:none;stroke-opacity:1"
       d="m 85.649647,66.041723 c 0,-0.195024 0.192765,-0.55546 0,-0.585075 -1.592006,-0.244594 -2.004362,1.651889 -2.244193,2.731246 -0.159779,0.719095 -0.303215,0.875104 -0.09764,1.560713 0.255235,0.851231 1.446061,0.556337 1.951654,0.195279 0.0035,-0.0026 0.582422,-0.582417 0.585459,-0.585457"
       id="path10440" />
    <path
       style="fill:#ff9600;fill-opacity:0;stroke:#ff0035;stroke-width:0.7;stroke-linecap:round;stroke-linejoin:round;stroke-dasharray:none;stroke-opacity:1"
       d="m 86.528024,69.163532 c 0.292793,-0.747938 0.596223,-1.491798 0.87838,-2.243813 0.108378,-0.288858 0.222191,-0.577688 0.292917,-0.877996 0.105394,-0.447513 0.144259,-0.908473 0.1949,-1.365432 0.01074,-0.09692 0,-0.195024 0,-0.292539 0,-0.03255 0.03255,-0.09764 0,-0.09764 -0.172508,0 -0.287628,0.802002 -0.390178,1.365432 -0.182068,1.000305 -0.918824,4.209971 0,4.975058 0.552685,0.460214 1.350227,-0.861949 1.659115,-1.170535"
       id="path10442" />
  </g>
</svg>
