<?xml version="1.0" encoding="UTF-8" standalone="no"?>
<!-- Created with Inkscape (http://www.inkscape.org/) -->

<svg
   width="117.00761mm"
   height="72.841827mm"
   viewBox="0 0 117.00761 72.841827"
   version="1.1"
   id="svg17112"
   inkscape:version="1.2.2 (b0a8486541, 2022-12-01)"
   sodipodi:docname="18-soru.svg"
   xmlns:inkscape="http://www.inkscape.org/namespaces/inkscape"
   xmlns:sodipodi="http://sodipodi.sourceforge.net/DTD/sodipodi-0.dtd"
   xmlns="http://www.w3.org/2000/svg"
   xmlns:svg="http://www.w3.org/2000/svg">
  <sodipodi:namedview
     id="namedview17114"
     pagecolor="#ffffff"
     bordercolor="#000000"
     borderopacity="0.25"
     inkscape:showpageshadow="2"
     inkscape:pageopacity="0.0"
     inkscape:pagecheckerboard="0"
     inkscape:deskcolor="#d1d1d1"
     inkscape:document-units="mm"
     showgrid="true"
     inkscape:zoom="1.9877699"
     inkscape:cx="228.64819"
     inkscape:cy="178.5921"
     inkscape:window-width="1920"
     inkscape:window-height="1080"
     inkscape:window-x="0"
     inkscape:window-y="0"
     inkscape:window-maximized="1"
     inkscape:current-layer="layer1">
    <inkscape:grid
       type="xygrid"
       id="grid20137"
       spacingx="5"
       spacingy="5"
       empspacing="1"
       units="mm"
       originx="-14.619504"
       originy="-7.7091905" />
  </sodipodi:namedview>
  <defs
     id="defs17109" />
  <g
     inkscape:label="Layer 1"
     inkscape:groupmode="layer"
     id="layer1"
     transform="translate(-14.619503,-7.7091909)">
    <path
       style="fill:#000000;fill-opacity:0;stroke:#000000;stroke-width:0.7;stroke-linecap:round;stroke-linejoin:round;stroke-dasharray:none;stroke-opacity:1"
       d="m 25.037988,34.87253 -0.08949,15.109415 h 25.13307 l 2e-6,-15.019927"
       id="path22704" />
    <path
       style="fill:#000000;fill-opacity:0;stroke:#009aff;stroke-width:0.7;stroke-linecap:round;stroke-linejoin:round;stroke-dasharray:none;stroke-opacity:1"
       d="m 26.553334,36.469323 c 0.419403,0.395457 -0.626064,-0.356772 -0.626064,-0.178626 0,0.0421 0.07031,-0.05183 0.08914,-0.08949 0.09971,-0.19943 0.615626,-0.36317 0.805039,-0.268462 0.342631,0.171315 0.465392,0.553953 0.894525,0.447088 0.188669,-0.04698 0.649529,-0.4801 0.715553,-0.447088 0.08965,0.04483 0.354084,0.463722 0.536575,0.536575 0.346704,0.138411 0.708474,-0.130075 0.984012,-0.268113 0.0775,-0.03883 0.52801,0.248486 0.626065,0.268113 0.327197,0.06549 0.600516,-0.194625 0.894175,-0.268113 0.05788,-0.01447 0.125616,0.02668 0.178975,0 0.02668,-0.01334 -0.02983,-0.08949 0,-0.08949 0.0108,0 0.531624,0.252433 0.626065,0.268113 0.504795,0.0838 0.57223,-0.130673 0.984011,-0.268113 0.312465,-0.104291 0.48936,0.447087 0.804691,0.447087 0.408233,0 0.660754,-0.195971 0.984012,-0.3576 0.0733,-0.03665 0.289144,0.0137 0.357603,0 0.337473,-0.06755 0.659706,-0.0979 0.984012,-0.178975 0.22829,-0.05707 0.281156,0.112602 0.447087,0.178975 0.09884,0.03953 0.739648,0.172699 0.80504,0.178626 0.900978,0.08164 1.077833,-0.376656 1.87819,-0.536226 0.349808,-0.06974 0.454826,0.09172 0.715549,0.178625 0.378556,0.126185 0.79106,-0.213508 1.16264,-0.08949 0.04002,0.01336 0.05966,0.05966 0.08949,0.08949 0.05966,0.02983 0.114265,0.07331 0.178975,0.08949 0.283109,0.07078 0.550415,-0.115319 0.805039,-0.178975 0.228113,-0.05703 0.412547,0.05897 0.626063,0.08949 0.236116,0.03375 0.477033,0 0.715549,0 0.813917,0 0.01006,-0.08429 0.536578,0.178975 0.110003,0.055 0.243739,0.04386 0.35795,0.08949 0.03902,0.01558 0.04836,0.07898 0.08914,0.08914 0.330004,0.08226 0.441475,-0.247145 0.715549,-0.178626 0.326187,0.08155 0.577194,0.294135 0.894528,0.3576 0.252229,0.05045 0.43367,-0.08278 0.626062,-0.178974 0.181716,-0.09086 0.779931,0.178974 0.984014,0.178974 0.09422,0 0.176713,-0.06661 0.268113,-0.08949 0.37573,-0.09403 0.898732,0.0011 1.252128,0.08949 0.05787,0.01447 0.136789,-0.04218 0.178974,0 0.08429,0.08429 -0.251026,0.05339 -0.3576,0"
       id="path23466" />
    <path
       style="fill:#000000;fill-opacity:0;stroke:#ff00c6;stroke-width:3;stroke-linecap:square;stroke-linejoin:round;stroke-dasharray:none;stroke-opacity:1"
       d="m 29.742455,30.130824 0.04831,14.817635"
       id="path23848" />
    <path
       style="fill:#000000;fill-opacity:0;stroke:#ff00c6;stroke-width:3;stroke-linecap:square;stroke-linejoin:round;stroke-dasharray:none;stroke-opacity:1"
       d="m 45.162424,30.039936 0.04831,14.817635"
       id="path25112" />
    <path
       style="fill:#000000;fill-opacity:0;stroke:#000000;stroke-width:0.7;stroke-linecap:round;stroke-linejoin:round;stroke-dasharray:none;stroke-opacity:1"
       d="m 75.650384,16.822159 -0.08949,15.109415 h 25.133066 l 10e-6,-15.019927"
       id="path22704-7" />
    <path
       style="fill:#000000;fill-opacity:0;stroke:#009aff;stroke-width:0.7;stroke-linecap:round;stroke-linejoin:round;stroke-dasharray:none;stroke-opacity:1"
       d="m 77.16573,18.418952 c 0.419403,0.395457 -0.626064,-0.356772 -0.626064,-0.178626 0,0.0421 0.07031,-0.05183 0.08914,-0.08949 0.09971,-0.19943 0.615626,-0.36317 0.805039,-0.268462 0.342631,0.171315 0.465392,0.553953 0.894525,0.447088 0.188669,-0.04698 0.649529,-0.4801 0.715553,-0.447088 0.08965,0.04483 0.354084,0.463722 0.536575,0.536575 0.346704,0.138411 0.708474,-0.130075 0.984012,-0.268113 0.0775,-0.03883 0.52801,0.248486 0.626065,0.268113 0.327197,0.06549 0.600516,-0.194625 0.894175,-0.268113 0.05788,-0.01447 0.125616,0.02668 0.178975,0 0.02668,-0.01334 -0.02983,-0.08949 0,-0.08949 0.0108,0 0.531624,0.252433 0.626065,0.268113 0.504795,0.0838 0.57223,-0.130673 0.984011,-0.268113 0.312465,-0.104291 0.48936,0.447087 0.804691,0.447087 0.408233,0 0.660754,-0.195971 0.984012,-0.3576 0.0733,-0.03665 0.289144,0.0137 0.357603,0 0.337473,-0.06755 0.659706,-0.0979 0.984012,-0.178975 0.22829,-0.05707 0.281156,0.112602 0.447087,0.178975 0.09884,0.03953 0.739648,0.172699 0.80504,0.178626 0.900978,0.08164 1.077833,-0.376656 1.87819,-0.536226 0.349808,-0.06974 0.454826,0.09172 0.715549,0.178625 0.378556,0.126185 0.79106,-0.213508 1.16264,-0.08949 0.04002,0.01336 0.05966,0.05966 0.08949,0.08949 0.05966,0.02983 0.114265,0.07331 0.178975,0.08949 0.283109,0.07078 0.550415,-0.115319 0.805039,-0.178975 0.228113,-0.05703 0.412547,0.05897 0.626063,0.08949 0.236116,0.03375 0.477033,0 0.715549,0 0.813917,0 0.01006,-0.08429 0.536578,0.178975 0.110003,0.055 0.243739,0.04386 0.35795,0.08949 0.03902,0.01558 0.04836,0.07898 0.08914,0.08914 0.330004,0.08226 0.441475,-0.247145 0.715549,-0.178626 0.326187,0.08155 0.577194,0.294135 0.894528,0.3576 0.252229,0.05045 0.43367,-0.08278 0.626062,-0.178974 0.181716,-0.09086 0.779931,0.178974 0.984014,0.178974 0.09422,0 0.176713,-0.06661 0.268113,-0.08949 0.37573,-0.09403 0.898732,0.0011 1.252125,0.08949 0.0579,0.01447 0.13679,-0.04218 0.17898,0 0.0843,0.08429 -0.25103,0.05339 -0.357603,0"
       id="path23466-5" />
    <path
       style="fill:#000000;fill-opacity:0;stroke:#ff00c6;stroke-width:3;stroke-linecap:square;stroke-linejoin:round;stroke-dasharray:none;stroke-opacity:1"
       d="m 80.354851,12.080453 0.04831,14.817635"
       id="path23848-3" />
    <path
       style="fill:#000000;fill-opacity:0;stroke:#ff00c6;stroke-width:3;stroke-linecap:square;stroke-linejoin:round;stroke-dasharray:none;stroke-opacity:1"
       d="M 95.77482,11.989565 95.82313,26.8072"
       id="path25112-5" />
    <path
       style="fill:#000000;fill-opacity:0;stroke:#000000;stroke-width:0.7;stroke-linecap:round;stroke-linejoin:round;stroke-dasharray:none;stroke-opacity:1"
       d="m 75.650384,50.641766 -0.08949,15.109415 h 25.133066 l 10e-6,-15.019927"
       id="path25151" />
    <path
       style="fill:#000000;fill-opacity:0;stroke:#009aff;stroke-width:0.7;stroke-linecap:round;stroke-linejoin:round;stroke-dasharray:none;stroke-opacity:1"
       d="m 77.16573,52.238559 c 0.419403,0.395457 -0.626064,-0.356772 -0.626064,-0.178626 0,0.0421 0.07031,-0.05183 0.08914,-0.08949 0.09971,-0.19943 0.615626,-0.36317 0.805039,-0.268462 0.342631,0.171315 0.465392,0.553953 0.894525,0.447088 0.188669,-0.04698 0.649529,-0.4801 0.715553,-0.447088 0.08965,0.04483 0.354084,0.463722 0.536575,0.536575 0.346704,0.138411 0.708474,-0.130075 0.984012,-0.268113 0.0775,-0.03883 0.52801,0.248486 0.626065,0.268113 0.327197,0.06549 0.600516,-0.194625 0.894175,-0.268113 0.05788,-0.01447 0.125616,0.02668 0.178975,0 0.02668,-0.01334 -0.02983,-0.08949 0,-0.08949 0.0108,0 0.531624,0.252433 0.626065,0.268113 0.504795,0.0838 0.57223,-0.130673 0.984011,-0.268113 0.312465,-0.104291 0.48936,0.447087 0.804691,0.447087 0.408233,0 0.660754,-0.195971 0.984012,-0.3576 0.0733,-0.03665 0.289144,0.0137 0.357603,0 0.337473,-0.06755 0.659706,-0.0979 0.984012,-0.178975 0.22829,-0.05707 0.281156,0.112602 0.447087,0.178975 0.09884,0.03953 0.739648,0.172699 0.80504,0.178626 0.900978,0.08164 1.077833,-0.376656 1.87819,-0.536226 0.349808,-0.06974 0.454826,0.09172 0.715549,0.178625 0.378556,0.126185 0.79106,-0.213508 1.16264,-0.08949 0.04002,0.01336 0.05966,0.05966 0.08949,0.08949 0.05966,0.02983 0.114265,0.07331 0.178975,0.08949 0.283109,0.07078 0.550415,-0.115319 0.805039,-0.178975 0.228113,-0.05703 0.412547,0.05897 0.626063,0.08949 0.236116,0.03375 0.477033,0 0.715549,0 0.813917,0 0.01006,-0.08429 0.536578,0.178975 0.110003,0.055 0.243739,0.04386 0.35795,0.08949 0.03902,0.01558 0.04836,0.07898 0.08914,0.08914 0.330004,0.08226 0.441475,-0.247145 0.715549,-0.178626 0.326187,0.08155 0.577194,0.294135 0.894528,0.3576 0.252229,0.05045 0.43367,-0.08278 0.626062,-0.178974 0.181716,-0.09086 0.779931,0.178974 0.984014,0.178974 0.09422,0 0.176713,-0.06661 0.268113,-0.08949 0.37573,-0.09403 0.898732,0.0011 1.252125,0.08949 0.0579,0.01447 0.13679,-0.04218 0.17898,0 0.0843,0.08429 -0.25103,0.05339 -0.357603,0"
       id="path25153" />
    <path
       style="fill:#000000;fill-opacity:0;stroke:#ff00c6;stroke-width:3;stroke-linecap:square;stroke-linejoin:round;stroke-dasharray:none;stroke-opacity:1"
       d="m 80.354851,45.90006 0.04831,14.817635"
       id="path25155" />
    <path
       style="fill:#000000;fill-opacity:0;stroke:#ff00c6;stroke-width:3;stroke-linecap:square;stroke-linejoin:round;stroke-dasharray:none;stroke-opacity:1"
       d="m 95.77482,45.809172 0.04831,14.817635"
       id="path25157" />
    <path
       style="fill:#000000;fill-opacity:0;stroke:#ff00c6;stroke-width:0.7;stroke-linecap:round;stroke-linejoin:round;stroke-dasharray:none;stroke-opacity:1"
       d="M 45.235137,28.863263 V 24.958994 L 55.045339,24.767278 72.214256,8.0591909 h 8.266528 l 0.09089,2.8150361"
       id="path25173" />
    <path
       style="fill:#000000;fill-opacity:0;stroke:#ff00c6;stroke-width:0.7;stroke-linecap:round;stroke-linejoin:round;stroke-dasharray:none;stroke-opacity:1"
       d="m 55.045339,24.767278 16.987496,16.98004 7.993866,10e-7 0.09089,3.26912"
       id="path25175" />
    <path
       style="fill:#000000;fill-opacity:0;stroke:#ff00c6;stroke-width:0.7;stroke-linecap:round;stroke-linejoin:round;stroke-dasharray:none;stroke-opacity:1"
       d="m 95.81756,10.874227 0.0909,-2.8150361 h 8.26653 l 17.16892,16.7080871 9.8102,0.191716 0.12301,55.242026"
       id="path25204"
       sodipodi:nodetypes="ccccc" />
    <path
       style="fill:#000000;fill-opacity:0;stroke:#ff00c6;stroke-width:0.7;stroke-linecap:round;stroke-linejoin:round;stroke-dasharray:none;stroke-opacity:1"
       d="m 121.34391,24.767278 -16.9875,16.98004 -7.99386,10e-7 -0.0909,3.26912"
       id="path25206" />
    <path
       style="fill:#000000;fill-opacity:0;stroke:#ff00c6;stroke-width:0.7;stroke-linecap:round;stroke-linejoin:round;stroke-dasharray:none;stroke-opacity:1"
       d="m 29.694391,29.136281 0.272664,-4.086044 -14.997552,-0.161538 0.01527,55.283564"
       id="path25360" />
    <path
       style="fill:#000000;fill-opacity:0;stroke:#ff00c6;stroke-width:0.7;stroke-linecap:round;stroke-linejoin:round;stroke-dasharray:none;stroke-opacity:1"
       d="m 31.626577,59.17729 c 0.516654,-0.412922 0.362114,-0.235662 0.842785,-1.036572 0.588415,-0.98044 0.773774,-1.285962 1.037077,-2.397135 0.201345,-0.84971 0.177313,-1.746401 0.388842,-2.591681 0.0105,-0.04194 -0.0043,0.08668 0,0.129696 0.01733,0.173244 0.05198,0.344654 0.06485,0.518287 0.03038,0.409734 0.02766,0.821692 0.06485,1.230865 0.09056,0.996535 0.231907,2.004695 0.453692,2.98027 0.03947,0.173638 0.0686,0.350932 0.129444,0.518287 0.033,0.09078 0.226293,0.25914 0.129699,0.25914 -0.07884,0 -0.14506,-0.07995 -0.194548,-0.129444"
       id="path25362" />
    <path
       style="fill:#000000;fill-opacity:0;stroke:#ff00c6;stroke-width:0.7;stroke-linecap:round;stroke-linejoin:round;stroke-dasharray:none;stroke-opacity:1"
       d="m 32.858202,57.233592 c 1.447773,-0.344633 0.908626,-0.437103 1.620467,-0.259144"
       id="path25364" />
    <path
       style="fill:#000000;fill-opacity:0;stroke:#ff00c6;stroke-width:0.7;stroke-linecap:round;stroke-linejoin:round;stroke-dasharray:none;stroke-opacity:1"
       d="m 36.487721,56.26187 c 2.537365,-6.9473 1.033947,-2.167731 0.713087,-0.518287 -0.07931,0.407739 -0.126236,0.821139 -0.194546,1.230865 -0.06131,0.367734 -0.165732,0.729708 -0.194294,1.101421 -0.01497,0.195001 0.01741,0.393398 0.06485,0.583134 0.196355,0.785431 0.671158,0.644432 1.166521,0.194294 0.393216,-0.357315 0.300736,-0.206171 0.388842,-0.647729"
       id="path25366" />
    <path
       style="fill:#000000;fill-opacity:0;stroke:#ff00c6;stroke-width:0.7;stroke-linecap:round;stroke-linejoin:round;stroke-dasharray:none;stroke-opacity:1"
       d="m 40.052646,52.763314 c 0.280844,-0.129615 0.539234,-0.32815 0.842531,-0.388843 0.378857,-0.07581 -0.106484,0.836949 -0.194294,0.907127 -0.15757,0.125934 -0.453689,0.03344 -0.453689,0.0646 0,0.228962 0.853419,0.496109 0.777682,1.101418 -0.0653,0.521906 -0.502304,0.567071 -0.907381,0.323993 -0.118581,-0.07116 -0.213323,-0.17621 -0.32399,-0.259144 -0.06233,-0.04671 -0.139436,-0.0744 -0.194548,-0.129444 -0.01529,-0.01527 -0.01532,-0.0801 0,-0.06485 0.03419,0.03406 0.02622,0.100515 0.06485,0.129445 0.667459,0.499943 -0.224536,-0.355052 0.32399,0.194548"
       id="path25368" />
    <path
       style="fill:#000000;fill-opacity:0;stroke:#ff00c6;stroke-width:0.7;stroke-linecap:round;stroke-linejoin:round;stroke-dasharray:none;stroke-opacity:1"
       d="m 42.450795,52.633615 c 0.02162,0.431906 0.04323,0.863809 0.06485,1.295715"
       id="path25370" />
    <path
       style="fill:#000000;fill-opacity:0;stroke:#ff00c6;stroke-width:0.7;stroke-linecap:round;stroke-linejoin:round;stroke-dasharray:none;stroke-opacity:1"
       d="m 42.061955,53.281598 c 0.198096,-0.0961 0.369157,-0.337087 0.583388,-0.194546 0.02545,0.01693 0.03428,0.06485 0.06485,0.06485 0.131403,0 0.259226,-0.04323 0.38884,-0.06485"
       id="path25372" />
    <path
       style="fill:#000000;fill-opacity:0;stroke:#ff00c6;stroke-width:0.7;stroke-linecap:round;stroke-linejoin:round;stroke-dasharray:none;stroke-opacity:1"
       d="m 83.830566,34.930585 c 0.129614,-0.323908 0.04889,-0.893326 0.388843,-0.971722 0.292367,-0.06742 0.335465,0.501661 0.453689,0.777428 0.406908,0.94914 0.555127,2.01196 0.90738,2.980269 0.06605,0.181552 0.172977,0.345501 0.259395,0.518287 0.04319,0.08636 0.129445,0.162584 0.129445,0.259144 0,0.107963 -0.14601,-0.162579 -0.194294,-0.259144"
       id="path25374" />
    <path
       style="fill:#000000;fill-opacity:0;stroke:#ff00c6;stroke-width:0.7;stroke-linecap:round;stroke-linejoin:round;stroke-dasharray:none;stroke-opacity:1"
       d="m 86.941548,34.541745 c -1.5123,1.641322 -3.0246,3.282643 -4.536901,4.923968"
       id="path25376" />
    <path
       style="fill:#000000;fill-opacity:0;stroke:#ff00c6;stroke-width:0.7;stroke-linecap:round;stroke-linejoin:round;stroke-dasharray:none;stroke-opacity:1"
       d="m 88.691711,33.570021 c 0.13744,0.755115 0.129699,0.471151 0.129699,0.842277"
       id="path25378" />
    <path
       style="fill:#000000;fill-opacity:0;stroke:#ff00c6;stroke-width:0.7;stroke-linecap:round;stroke-linejoin:round;stroke-dasharray:none;stroke-opacity:1"
       d="m 88.173173,34.218006 c 0.324077,0 0.648152,0 0.97223,0"
       id="path25380" />
    <path
       style="fill:#000000;fill-opacity:0;stroke:#ff00c6;stroke-width:0.7;stroke-linecap:round;stroke-linejoin:round;stroke-dasharray:none;stroke-opacity:1"
       d="m 90.506472,34.153157 c -0.134228,1.27386 -0.129699,0.818306 -0.129699,1.360562 0,0.08904 0.01304,-0.186712 0.06485,-0.259141 0.06344,-0.08872 0.750988,-1.101421 0.777936,-1.101421 0.157726,0 0.181641,0.617863 0.323992,0.712579 0.204619,0.136146 0.93703,-0.665584 1.101927,-0.583134 0.01915,0.0096 -0.127945,0.824725 -0.06485,0.971976 0.03607,0.08419 0.12953,0.129529 0.194294,0.194294 0.04323,0.04323 0.07169,0.110363 0.129699,0.129696 0.319225,0.10641 0.497306,-0.194545 0.777936,-0.194545"
       id="path25382" />
    <path
       style="fill:#000000;fill-opacity:0;stroke:#ff00c6;stroke-width:0.7;stroke-linecap:round;stroke-linejoin:round;stroke-dasharray:none;stroke-opacity:1"
       d="m 83.895416,67.796639 c -0.125876,0.465598 -0.287451,1.452809 0.194294,1.814 0.125825,0.09434 0.326477,-0.03698 0.453689,-0.129445 0.520729,-0.378473 0.97223,-1.224619 0.97223,-1.878849 0,-0.151349 -0.07944,-0.453689 -0.129445,-0.453689 -0.02162,0 0.0027,0.0434 0,0.06485 -0.01897,0.1515 -0.04885,0.301593 -0.06485,0.453435 -0.125177,1.187963 -0.02286,0.429508 -0.06485,1.814253 -0.02294,0.7567 -0.08647,1.511625 -0.129698,2.267437 -0.06102,1.06671 -0.08592,1.60715 -0.648238,2.526834 -0.233841,0.382455 -0.907219,0.972135 -1.361069,0.518287 -0.252042,-0.252045 -0.422354,-0.692121 -0.453689,-1.036574 -0.105267,-1.157113 1.41002,-1.645793 2.203855,-2.073143 0.264255,-0.142258 0.522478,-0.295762 0.777682,-0.453689 0.333584,-0.206433 0.724172,-0.411014 0.90738,-0.777428"
       id="path25384" />
    <path
       style="fill:#000000;fill-opacity:0;stroke:#ff00c6;stroke-width:0.7;stroke-linecap:round;stroke-linejoin:round;stroke-dasharray:none;stroke-opacity:1"
       d="m 87.524936,67.278355 c -0.09798,0.370575 -0.105037,0.696799 0.06485,1.036571"
       id="path25386" />
    <path
       style="fill:#000000;fill-opacity:0;stroke:#ff00c6;stroke-width:0.7;stroke-linecap:round;stroke-linejoin:round;stroke-dasharray:none;stroke-opacity:1"
       d="m 86.812103,67.4078 c 0.215995,0.04323 0.431991,0.08646 0.647983,0.129696"
       id="path25388" />
    <path
       style="fill:#000000;fill-opacity:0;stroke:#ff00c6;stroke-width:0.7;stroke-linecap:round;stroke-linejoin:round;stroke-dasharray:none;stroke-opacity:1"
       d="m 89.339697,67.148656 c -0.08638,0.539901 -0.194022,1.076831 -0.259144,1.619705 -0.0145,0.120838 0.215345,-0.207647 0.323993,-0.388585 0.199684,-0.33255 0.817123,-1.451327 1.296474,-0.971976 0.280797,0.280797 0.32399,0.865947 0.32399,1.231117 0,0.13132 -0.06254,0.356708 0.06485,0.388588 0.08636,0.02162 0.170119,-0.0646 0.259143,-0.0646"
       id="path25390" />
    <path
       style="fill:#000000;fill-opacity:0;stroke:#ff0a00;stroke-width:0.7;stroke-linecap:round;stroke-linejoin:round;stroke-dasharray:none;stroke-opacity:1"
       d="m 97.768046,35.589969 c 0.420473,-0.680715 -0.256476,-1.59289 -0.97223,-1.036571 -0.498999,0.387844 -0.722196,1.284568 -0.647983,1.878848 0.01561,0.124958 0.122068,0.220835 0.194294,0.32399 0.209503,0.299226 0.248328,0.422191 0.648237,0.388843 0.285272,-0.02379 0.519748,-0.19584 0.712833,-0.388843 0.60298,-0.602718 0.452805,-1.491096 -0.129445,-2.073142 -0.110159,-0.11012 -0.23354,-0.247193 -0.388842,-0.259141 -0.569143,-0.04379 -0.69854,0.639903 -0.777933,1.036571"
       id="path26032" />
    <path
       style="fill:#000000;fill-opacity:0;stroke:#ff0a00;stroke-width:0.7;stroke-linecap:round;stroke-linejoin:round;stroke-dasharray:none;stroke-opacity:1"
       d="m 98.805123,36.69139 c -0.345691,0.388755 -0.691385,0.777512 -1.037077,1.166267"
       id="path26034" />
    <path
       style="fill:#000000;fill-opacity:0;stroke:#ff0a00;stroke-width:0.7;stroke-linecap:round;stroke-linejoin:round;stroke-dasharray:none;stroke-opacity:1"
       d="m 99.842202,34.877388 c 0.373178,-0.621483 0.223988,-0.594315 1.490768,-0.194294 0.0849,0.02682 -0.0336,0.175778 -0.0649,0.259143 -0.097,0.25849 -0.30493,0.477012 -0.51854,0.647732 -0.0478,0.03817 -0.1877,0.110363 -0.1297,0.129696 0.14355,0.04785 0.30416,-0.02141 0.45395,0 0.41176,0.05886 0.53938,0.284633 0.45369,0.712581 -0.0826,0.412721 -0.5392,0.792234 -0.97223,0.647983 -0.26804,-0.08929 -0.679343,-0.593503 -0.842786,-0.647983 -0.112414,-0.03747 -0.02527,0.259144 0.129698,0.259144"
       id="path26036" />
    <path
       style="fill:#000000;fill-opacity:0;stroke:#ff0a00;stroke-width:0.7;stroke-linecap:round;stroke-linejoin:round;stroke-dasharray:none;stroke-opacity:1"
       d="m 103.34228,35.84911 c -1.39536,0.01757 0.37951,0.859237 0.19429,1.231119 -0.0703,0.141116 -0.0507,-0.412443 0.0649,-0.712578 0.031,-0.0805 0.53704,-1.082945 0.71309,-0.907127 0.1722,0.171982 -0.0682,0.868844 0.38884,0.777428 0.0724,-0.01447 0.71308,-0.414954 0.71308,-0.323993 0,0.203687 -0.26839,0.491191 -0.19454,0.712833 0.1682,0.504817 0.78578,0.2672 1.10192,0.194294 0.45376,-0.104638 0.28784,0.03616 0.45369,-0.129696 0.46664,-0.07632 1.29618,-0.17092 1.29618,-0.842279 0,-0.203717 -0.0832,-0.457269 -0.25915,-0.582881 -0.31117,-0.222214 -0.95476,0.139441 -0.90738,0.518286 0.0263,0.21002 0.19268,0.43 0.324,0.583134 0.22537,0.26281 0.37672,0.258493 0.64823,0.0646 0.0879,-0.06274 0.19435,-0.107933 0.25915,-0.194294 0.0464,-0.06189 0.15662,-0.404681 0.19454,-0.518285"
       id="path26038" />
    <path
       style="fill:#000000;fill-opacity:0;stroke:#ff0a00;stroke-width:0.7;stroke-linecap:round;stroke-linejoin:round;stroke-dasharray:none;stroke-opacity:1"
       d="m 109.62934,33.516826 c -0.0432,0.799045 -0.0865,1.598089 -0.1297,2.397133"
       id="path26040" />
    <path
       style="fill:#000000;fill-opacity:0;stroke:#ff0a00;stroke-width:0.7;stroke-linecap:round;stroke-linejoin:round;stroke-dasharray:none;stroke-opacity:1"
       d="m 96.084757,70.964363 c -0.07806,-0.780806 -0.691412,-1.03618 -0.907381,-0.388839 -0.471255,1.412536 1.867413,2.421096 1.620467,0.32399 -0.04361,-0.370374 -0.241472,-1.121966 -0.713086,-1.230866 -0.55167,-0.127383 -1.178029,0.343895 -1.425919,0.777431 -0.06518,0.113998 -0.04323,0.259056 -0.06485,0.388586"
       id="path26042" />
    <path
       style="fill:#000000;fill-opacity:0;stroke:#ff0a00;stroke-width:0.7;stroke-linecap:round;stroke-linejoin:round;stroke-dasharray:none;stroke-opacity:1"
       d="m 98.288357,71.676944 c -0.453689,0.410372 -0.90738,0.820746 -1.361069,1.231117"
       id="path26044" />
    <path
       style="fill:#000000;fill-opacity:0;stroke:#ff0a00;stroke-width:0.7;stroke-linecap:round;stroke-linejoin:round;stroke-dasharray:none;stroke-opacity:1"
       d="m 99.649681,70.834665 c 0.194379,-0.712664 0.388759,-1.425327 0.583139,-2.137993 0.0536,-0.137191 -0.0604,-0.02111 -0.0646,0 -0.0559,0.280332 -0.0272,1.763591 0,2.008548 0.005,0.04149 0.133,0.90283 0.38884,0.647985"
       id="path26046" />
    <path
       style="fill:#000000;fill-opacity:0;stroke:#ff0a00;stroke-width:0.7;stroke-linecap:round;stroke-linejoin:round;stroke-dasharray:none;stroke-opacity:1"
       d="m 102.50152,69.927792 c 1.54707,0.341302 -0.11987,1.195713 0.0649,1.749152 0.0306,0.09159 0.11052,-0.164457 0.12944,-0.259143 0.0679,-0.33967 0.18382,-1.452018 0.51854,-1.619708 0.0193,-0.0097 -0.005,0.04388 0,0.06485 0.0356,0.142083 0.12978,0.820689 0.19455,0.842277 0.20742,0.06914 0.70803,-0.752459 0.77768,-0.647983 0.23281,0.349213 -0.10485,1.048755 0.38909,1.295968 0.14605,0.07309 0.42895,-0.129698 0.58314,-0.129698"
       id="path26048" />
    <path
       style="fill:#000000;fill-opacity:0;stroke:#ff0a00;stroke-width:0.7;stroke-linecap:round;stroke-linejoin:round;stroke-dasharray:none;stroke-opacity:1"
       d="m 106.19589,71.80664 c 0.21608,-0.302373 0.45437,-0.590049 0.64823,-0.907126 0.16369,-0.267706 -0.01,-0.66783 -0.32399,-0.712579 -0.3082,-0.04388 -0.64823,0.356881 -0.64823,0.64773 0,0.161245 0.21738,0.933219 0.32399,0.971975 0.47134,0.171353 0.68658,-0.421592 0.71308,-0.712832 0.0421,-0.462735 -0.0654,-1.282877 -0.58338,-1.490009 -0.33687,-0.134718 -0.71309,0.376423 -0.71309,0.647986"
       id="path26050" />
    <path
       style="fill:#000000;fill-opacity:0;stroke:#ff0a00;stroke-width:0.7;stroke-linecap:round;stroke-linejoin:round;stroke-dasharray:none;stroke-opacity:1"
       d="m 107.68666,68.761522 c -0.0424,0.771107 1.16984,2.721128 0.19454,2.721128"
       id="path26052" />
    <path
       style="fill:#000000;fill-opacity:0;stroke:#ff0a00;stroke-width:0.7;stroke-linecap:round;stroke-linejoin:round;stroke-dasharray:none;stroke-opacity:1"
       d="m 45.441957,56.775595 c -0.313161,-0.392266 -0.814441,-0.612203 -1.037077,0 -0.211423,0.581356 -0.164325,1.370992 0.06485,1.943698 0.265094,0.662472 0.792633,1.388825 1.296474,0.453438 0.251571,-0.46704 0.712002,-2.562535 0.06485,-2.915423 -0.811434,-0.442468 -1.903875,0.68434 -2.268701,1.230866"
       id="path26056" />
    <path
       style="fill:#000000;fill-opacity:0;stroke:#ff0a00;stroke-width:0.7;stroke-linecap:round;stroke-linejoin:round;stroke-dasharray:none;stroke-opacity:1"
       d="m 47.062424,58.978437 c -0.566992,0.850302 -0.215905,0.426048 -1.101929,1.230865"
       id="path26058" />
    <path
       style="fill:#000000;fill-opacity:0;stroke:#ff0a00;stroke-width:0.7;stroke-linecap:round;stroke-linejoin:round;stroke-dasharray:none;stroke-opacity:1"
       d="m 48.293795,57.22903 c 0,-0.129529 -0.01431,-0.25985 0,-0.388585 0.0402,-0.361461 0.375978,-0.60515 0.518538,-0.129699 0.139287,0.464529 0.137591,0.953021 0.06485,1.425411 -0.06184,0.401608 -0.164322,0.747488 -0.453689,1.036574 -0.07799,0.07791 -0.144822,0.194291 -0.259143,0.194291 -0.02162,0 -0.08016,0.01527 -0.06485,0 0.07378,-0.07348 0.359098,-0.111799 0.453692,-0.06459 0.0697,0.03478 0.124868,0.09463 0.194546,0.129445 0.282532,0.141173 0.657984,0.116189 0.90738,0.323993 0.08294,0.06911 0.117951,0.1828 0.194294,0.259143"
       id="path26062" />
    <path
       style="fill:#000000;fill-opacity:0;stroke:#ff0a00;stroke-width:0.7;stroke-linecap:round;stroke-linejoin:round;stroke-dasharray:none;stroke-opacity:1"
       d="m 50.497649,57.877016 c 1.549324,0.166209 -0.404566,1.47428 0.06485,1.943698 0.01529,0.01529 -0.0068,-0.04434 0,-0.06485 0.03681,-0.110353 0.08495,-0.216615 0.129699,-0.323993 0.193881,-0.465225 0.422753,-0.910103 0.647983,-1.360562 0.05633,-0.112673 0.06857,-0.323993 0.194548,-0.323993 0.175487,0 -0.04828,1.106866 0.129696,1.16627 0.172548,0.05759 0.702614,-0.831805 0.842531,-0.971722 0.01521,-0.01524 -0.0052,0.04371 0,0.0646 0.01659,0.06631 0.05001,0.12782 0.06485,0.194545 0.02851,0.128188 0.04328,0.259051 0.06485,0.388589 0.107947,0.648319 0.0013,0.134538 0.194294,0.777427 0.115681,0.385152 0.202038,0.44558 0.518538,0.129699"
       id="path26064" />
    <path
       style="fill:#000000;fill-opacity:0;stroke:#ff0a00;stroke-width:0.7;stroke-linecap:round;stroke-linejoin:round;stroke-dasharray:none;stroke-opacity:1"
       d="M 54.192019,58.719293 C 54.084021,58.3953 54.029982,58.04799 53.868026,57.747317 53.81286,57.6449 53.73833,57.954981 53.73833,58.07131 c 0,0.535972 0.148129,1.073433 0.388839,1.554856 0.0083,0.01651 0.151794,0.295034 0.259398,0.259143 0.102415,-0.03416 0.177143,-0.124063 0.25914,-0.194294 0.484797,-0.415229 0.722731,-1.191146 0.324247,-1.74915 -0.213309,-0.298698 -0.572317,-0.45407 -0.842785,-0.129698 -0.348901,0.418433 -0.354161,0.496332 -0.518284,0.907126"
       id="path26066" />
    <path
       style="fill:#000000;fill-opacity:0;stroke:#ff0a00;stroke-width:0.7;stroke-linecap:round;stroke-linejoin:round;stroke-dasharray:none;stroke-opacity:1"
       d="m 56.266175,55.220737 c 0.02162,1.360564 0.04323,2.721128 0.06485,4.08169 0.07658,0.306033 0.02503,0.338788 0.129699,0.129445"
       id="path26068" />
  </g>
</svg>
