<?xml version="1.0" encoding="UTF-8" standalone="no"?>
<!-- Created with Inkscape (http://www.inkscape.org/) -->

<svg
   width="217.30244mm"
   height="46.899879mm"
   viewBox="0 0 217.30244 46.899879"
   version="1.1"
   id="svg8288"
   inkscape:version="1.2.2 (b0a8486541, 2022-12-01)"
   sodipodi:docname="2-çözüm.svg"
   xmlns:inkscape="http://www.inkscape.org/namespaces/inkscape"
   xmlns:sodipodi="http://sodipodi.sourceforge.net/DTD/sodipodi-0.dtd"
   xmlns="http://www.w3.org/2000/svg"
   xmlns:svg="http://www.w3.org/2000/svg">
  <sodipodi:namedview
     id="namedview8290"
     pagecolor="#ffffff"
     bordercolor="#000000"
     borderopacity="0.25"
     inkscape:showpageshadow="2"
     inkscape:pageopacity="0.0"
     inkscape:pagecheckerboard="0"
     inkscape:deskcolor="#d1d1d1"
     inkscape:document-units="mm"
     showgrid="false"
     inkscape:zoom="0.46531891"
     inkscape:cx="385.75694"
     inkscape:cy="369.63896"
     inkscape:window-width="1916"
     inkscape:window-height="1026"
     inkscape:window-x="0"
     inkscape:window-y="0"
     inkscape:window-maximized="1"
     inkscape:current-layer="layer1" />
  <defs
     id="defs8285" />
  <g
     inkscape:label="Layer 1"
     inkscape:groupmode="layer"
     id="layer1"
     transform="translate(40.948353,1.0144941)">
    <path
       style="fill:#0000ff;stroke-width:0.264583"
       id="path9386"
       d="M 8.8468318,2.9403315 C 8.8372354,3.1026764 8.832195,3.2653549 8.8180451,3.4273664 8.7416213,4.3023456 8.6298557,5.2236803 8.5085223,6.0861196 8.3325093,7.3372212 8.1167966,8.684625 7.8702359,9.9236735 7.7597806,10.478747 7.6265187,11.029038 7.5046601,11.58172 c -0.470829,1.514238 -0.1956596,0.852526 -0.7620569,2.010347 -0.3066359,0.637161 0.594446,1.07081 0.9010819,0.433649 v 0 C 8.2715446,12.70258 7.9753229,13.438919 8.4812515,11.796823 8.6056199,11.231606 8.7415337,10.668807 8.8543568,10.101173 9.1036941,8.8467104 9.3226241,7.4787272 9.5005653,6.2120187 9.6220242,5.3473921 9.7412118,4.3684891 9.8164008,3.4846873 c 0.015407,-0.1810811 0.020288,-0.362904 0.030431,-0.5443558 0,-0.7071069 -1.0000001,-0.7071069 -1,0 z" />
    <path
       style="fill:#0000ff;stroke-width:0.264583"
       id="path10120"
       d="m 9.7469699,3.5535327 c 0.054777,-0.00639 0.109192,-0.02028 0.1643288,-0.019177 0.4926693,0.00985 0.8496703,0.1571617 1.2535123,0.4432755 0.175245,0.1241573 0.342655,0.2608419 0.496136,0.4110723 0.145082,0.1420093 0.264206,0.3083137 0.396309,0.4624705 0.06863,0.1433827 0.17536,0.2741456 0.205882,0.4301479 0.0524,0.2678044 -0.182371,0.4309822 -0.358332,0.5607524 C 11.385304,6.2252028 10.987415,6.4420307 10.359788,6.662544 10.050062,6.7713645 9.7250881,6.8306015 9.4077384,6.9146303 8.4719773,7.0060176 8.888119,7.0238146 8.1582682,6.9300846 7.4550253,6.8562642 7.3506276,7.8507996 8.0538703,7.9246202 v 0 C 9.0473775,8.0127844 8.5084678,8.0105966 9.669986,7.879631 10.587473,7.6247693 11.012733,7.5707207 11.848497,7.0753461 12.440595,6.7243975 13.008281,6.299183 13.198674,5.5906881 13.359317,4.9928975 13.066568,4.665868 12.808793,4.1914836 12.635757,3.9980179 12.478958,3.7886978 12.289684,3.6110862 11.571675,2.9373184 10.756854,2.4994406 9.7548294,2.5466733 9.6451525,2.5518432 9.5386889,2.585485 9.4306188,2.604891 8.7598275,2.8285852 9.0761787,3.7772273 9.7469699,3.5535327 Z" />
    <path
       style="fill:#0000ff;stroke-width:0.264583"
       id="path10126"
       d="m 13.763051,2.6337782 c 6.88e-4,0.171007 0.0074,0.3420948 0.0021,0.5130214 -0.04316,1.3938845 -0.19734,2.7815378 -0.353445,4.1662627 -0.169631,1.5047071 -0.182081,1.5506422 -0.369594,2.9698997 -0.197726,1.154516 -0.07367,0.655456 -0.324256,1.508286 -0.195615,0.679511 0.765359,0.956151 0.960973,0.276641 v 0 c 0.27559,-0.974104 0.14519,-0.42553 0.354673,-1.65398 0.18815,-1.4248547 0.202653,-1.4860001 0.372474,-2.9939486 0.160136,-1.4219508 0.318496,-2.8472281 0.359159,-4.2787559 0.0054,-0.1898833 -0.0027,-0.3799102 -0.004,-0.5698654 -0.04415,-0.705727 -1.0422,-0.643288 -0.998049,0.062439 z" />
    <path
       style="fill:#0000ff;stroke-width:0.264583"
       id="path10128"
       d="m 14.712496,9.6123372 c 0.470681,-0.3250366 0.987536,-0.6275961 1.573191,-0.6825519 0.491794,-0.046148 1.003739,0.067317 1.420438,0.3374437 0.209738,0.1359633 0.365741,0.3407897 0.548612,0.5111846 0.126056,0.2237914 0.289902,0.4301654 0.37817,0.6713744 0.273484,0.747345 0.143442,1.536588 -0.474697,2.074699 -0.605993,0.527538 -0.965563,0.496371 -1.730833,0.659389 -0.970703,-0.178826 -1.206183,-0.115486 -2.043814,-0.706729 -0.267444,-0.188777 -0.470905,-0.454863 -0.706358,-0.682294 -0.518869,-0.48039 -1.198243,0.253401 -0.679374,0.733792 v 0 c 0.314645,0.281872 0.590032,0.614954 0.943936,0.845617 1.13302,0.738464 1.412504,0.620023 2.722464,0.78116 1.046512,-0.279477 1.541358,-0.25459 2.326874,-1.077503 C 19.81693,12.212776 19.949156,11.002277 19.48802,9.9313467 19.345539,9.6004519 19.100488,9.3239033 18.906722,9.0201818 18.624746,8.7908671 18.377565,8.51043 18.060796,8.3322379 17.427894,7.9762114 16.728775,7.8759107 16.016606,7.9666676 c -0.71614,0.091263 -1.35194,0.4594725 -1.928755,0.8647612 -0.552186,0.4416912 0.07246,1.2225992 0.624645,0.7809084 z" />
    <path
       style="fill:#0000ff;stroke-width:0.264583"
       id="path10136"
       d="m 26.323363,2.423394 c -0.211937,9.83e-5 -0.425591,-0.026627 -0.635812,2.963e-4 -1.692101,0.2167048 -3.081443,1.1877254 -3.994576,2.6207172 -0.278768,0.4374737 -0.457105,0.9313616 -0.685658,1.3970426 -0.135294,0.5157062 -0.317522,1.0213337 -0.405881,1.5471187 -0.169365,1.0078093 -0.174109,2.0545422 0.07198,3.0521392 0.21148,0.857305 0.562368,1.607908 1.309597,2.130299 0.31866,0.222778 0.720847,0.291678 1.081271,0.437517 0.428121,-0.04572 0.871807,-0.01399 1.284364,-0.137174 0.885849,-0.264512 1.708726,-0.924831 2.315086,-1.591821 0.701474,-0.771618 1.278196,-1.723304 1.599858,-2.7182107 C 28.430989,8.6435523 28.47759,8.0942574 28.58459,7.560727 28.56977,7.0339926 28.6357,6.4987276 28.54013,5.9805237 28.36291,5.019575 27.879484,3.9591012 27.042996,3.3768541 26.615712,3.0794365 26.102734,2.8856126 25.58763,2.8101285 24.189293,2.605214 23.650881,3.0419504 22.437318,3.5732416 21.794555,3.8679547 22.211342,4.7769587 22.854105,4.4822457 v 0 C 23.796397,4.025264 24.170926,3.6912003 25.26147,3.755443 c 0.36054,0.021238 0.733005,0.1090133 1.042528,0.2951183 0.675842,0.4063588 1.085295,1.230993 1.236785,1.9661132 0.09129,0.4430003 0.04116,0.9036807 0.06174,1.3555213 -0.08368,0.4597214 -0.114139,0.9323927 -0.251037,1.3791646 -0.271663,0.886595 -0.754337,1.6927776 -1.360661,2.3884426 -0.500717,0.574497 -1.08356,1.054696 -1.794342,1.343192 -0.252657,0.10255 -0.531482,0.122202 -0.797223,0.183303 -0.234644,-0.06572 -0.493277,-0.07467 -0.703932,-0.197151 -0.60922,-0.354208 -0.856019,-0.901118 -1.031101,-1.563695 -0.232009,-0.878013 -0.232577,-1.7765968 -0.094,-2.6690109 0.07177,-0.4621906 0.225588,-0.9078526 0.338381,-1.3617789 0.188467,-0.4019228 0.334515,-0.8266203 0.565401,-1.2057682 0.732231,-1.2024259 1.834088,-2.0189687 3.227594,-2.2453025 0.148304,-0.024088 0.30033,-0.00998 0.450495,-0.01497 0.696661,0.1211017 0.867923,-0.8641236 0.171264,-0.9852251 z" />
    <path
       style="fill:#0000ff;stroke-width:0.264583"
       id="path10138"
       d="m 29.03924,11.449635 c 0.165854,-0.286483 0.240652,-0.432661 0.447675,-0.709115 0.104693,-0.139807 0.311833,-0.431846 0.516533,-0.500493 0.02328,-0.0078 0.045,0.06425 0.02127,0.07054 -0.109341,0.02899 -0.226057,0.0092 -0.339084,0.01373 -0.07943,0.276367 -0.146037,0.531296 -0.274064,0.799156 -0.364156,0.76189 -0.883639,1.435573 -1.512749,1.997126 -0.158499,0.141477 -0.337098,0.258676 -0.505648,0.388014 -0.115967,0.06415 -0.22732,0.137454 -0.347901,0.192439 -0.02059,0.0094 -0.04521,-0.0019 -0.06782,-0.0029 0.195533,0.248633 0.321789,0.572903 0.586598,0.745901 0.100372,0.06557 0.214463,-0.108725 0.327482,-0.148738 0.566534,-0.200572 0.618133,-0.174801 1.236253,-0.263222 0.868542,-0.06756 1.71346,0.224349 2.581933,0.150184 0.483148,-0.04126 0.580499,-0.105368 1.008481,-0.26082 0.660596,-0.252214 0.303911,-1.186439 -0.356685,-0.934225 v 0 c -0.265213,0.109219 -0.351385,0.163885 -0.660561,0.195084 -0.438505,0.04425 -0.697593,-0.01413 -1.145249,-0.06305 -1.005427,-0.10988 -0.521703,-0.08174 -1.577613,-0.07591 -0.679376,0.107523 -0.905229,0.101187 -1.534636,0.35796 -0.182909,0.07462 -0.488706,0.08333 -0.523499,0.277783 -0.27304,1.526068 0.580165,0.919052 1.087337,0.61869 0.201223,-0.158397 0.41434,-0.302756 0.60367,-0.475192 0.492832,-0.44885 0.916864,-0.940078 1.276006,-1.50359 0.295672,-0.46392 0.654844,-1.153384 0.725911,-1.721576 0.03135,-0.250664 -0.0344,-0.504062 -0.05159,-0.7560935 -0.212212,-0.1752576 -0.37651,-0.435856 -0.636636,-0.5257726 -0.169177,-0.05848 -0.360883,0.047626 -0.522202,0.1251972 -0.153451,0.073786 -0.279001,0.1979689 -0.399672,0.3180905 -0.129371,0.1287801 -0.237559,0.2776184 -0.346162,0.4243374 -0.231082,0.312184 -0.316233,0.477813 -0.50106,0.798358 -0.330973,0.624866 0.552722,1.092931 0.883692,0.468065 z" />
    <path
       style="fill:#0000ff;stroke-width:0.264583"
       id="path10140"
       d="m 35.766393,4.9625945 c -0.245869,0.1198981 0.116933,-0.1999459 0.0519,-0.1902817 -0.285027,0.042358 -0.564427,0.116482 -0.847137,0.172249 -0.03105,0.00613 -0.08536,-0.01705 -0.09399,0.013396 -0.04841,0.1708129 -0.03764,0.3531015 -0.05981,0.5292532 -0.03133,0.2490237 -0.06711,0.4974674 -0.100658,0.7462009 -0.0693,0.656027 -0.203335,1.3208436 -0.125074,1.9822959 0.103423,0.6995025 1.092668,0.5532416 0.989248,-0.1462612 v 0 c -0.03922,-0.1314979 -0.02673,-0.07761 -0.01278,-0.3560124 0.02408,-0.4813901 0.08051,-0.8604142 0.139674,-1.3465781 0.01551,-0.1153642 0.173961,-1.2324646 0.169399,-1.4133155 -0.0051,-0.2013157 0.08306,-0.5055486 -0.09668,-0.5963523 -0.271306,-0.1370582 -0.613568,0.0117 -0.90752,0.089049 -0.02585,0.0068 -0.09286,0.3514627 -0.09293,0.3518016 -0.116359,0.6974673 0.870008,0.8620228 0.986366,0.1645552 z" />
    <path
       style="fill:#0000ff;stroke-width:0.264583"
       id="path10142"
       d="m 33.606086,7.5500226 c 0.124748,-0.0018 0.249875,0.00444 0.374245,-0.00544 0.462198,-0.036708 0.974006,-0.1236938 1.427374,-0.200918 0.709563,-0.1208627 0.816933,-0.1463043 1.494888,-0.2800009 0.69373,-0.1368888 0.500139,-1.1179714 -0.19359,-0.9810826 v 0 c -0.677233,0.1337148 -0.749692,0.1521965 -1.46131,0.2739686 -0.391197,0.066941 -0.88388,0.1506265 -1.288259,0.1882513 -0.09184,0.00855 -0.184404,0.00545 -0.276606,0.00817 -0.705022,-0.054265 -0.781764,0.9427861 -0.07674,0.997051 z" />
    <path
       style="fill:#0000ff;stroke-width:0.264583"
       id="path10144"
       d="m 51.22854,1.6431495 c -0.204163,0.091015 -0.418547,0.1618987 -0.612487,0.2730441 -1.302837,0.7466495 -2.296639,1.738724 -3.15917,2.9687436 -0.37347,0.5325912 -0.719486,1.0878976 -1.008623,1.6705927 -0.283967,0.5722763 -0.469815,1.1882016 -0.704723,1.7823026 -0.173514,1.0888067 -0.531188,2.0618395 0.0235,3.1292755 0.550802,1.059949 1.460743,1.346684 2.594692,1.342794 1.409837,-0.0048 2.202413,-0.538529 3.438371,-1.109688 0.465355,-0.320314 0.930709,-0.640628 1.396064,-0.960942 0.580821,-0.403293 0.01048,-1.2247001 -0.570344,-0.821407 v 0 c -0.417364,0.2926 -0.834726,0.5852 -1.25209,0.8778 -1.187183,0.57226 -1.5665,0.890517 -2.87124,1.024194 -0.355814,0.03645 -0.731123,0.04708 -1.071121,-0.06398 -0.726112,-0.23718 -0.94961,-0.868099 -0.968385,-1.578545 -0.01313,-0.4966072 0.141219,-0.9834739 0.211833,-1.475211 0.210267,-0.5439622 0.374571,-1.1080046 0.630804,-1.6318867 0.265356,-0.5425358 0.585274,-1.0589086 0.928373,-1.5559413 0.787005,-1.1400986 1.625139,-1.9768317 2.801125,-2.6901473 0.138004,-0.083709 0.290602,-0.1405631 0.435906,-0.2108446 0.686001,-0.1714669 0.443511,-1.1416207 -0.24249,-0.9701536 z" />
    <path
       style="fill:#0000ff;stroke-width:0.264583"
       id="path10146"
       d="M 54.57726,9.990347 C 55.822879,8.8149366 56.756254,7.3521895 57.460345,5.7986472 57.645471,5.3901745 57.797422,4.9674642 57.965961,4.5518726 58.08011,4.1829503 58.211495,3.818926 58.308406,3.4451052 58.333833,3.3470162 58.595889,2.2471103 58.473419,2.004449 58.020907,1.1078517 57.586316,1.5280639 57.085118,2.197134 56.865956,2.4897038 56.791441,2.8666657 56.644606,3.2014313 56.197846,4.441403 55.986857,4.9678365 55.61322,6.2622551 55.456732,6.8043813 55.305475,7.348747 55.185452,7.9000942 c -0.15205,0.6984786 -0.36957,1.8469226 -0.243366,2.6050378 0.04793,0.287937 0.215911,0.542406 0.323866,0.813608 0.261281,0.139576 0.487944,0.404859 0.783846,0.418725 0.351346,0.01647 0.693492,-0.163584 1.000567,-0.335103 0.296786,-0.165771 0.536096,-0.420435 0.778606,-0.65866 0.507685,-0.498714 0.737192,-0.864818 1.139925,-1.4267691 0.410382,-0.5758357 -0.403971,-1.1562035 -0.814353,-0.580368 v 0 c -0.382299,0.539828 -0.511138,0.7607829 -0.984634,1.2550471 -0.174238,0.181883 -0.374925,0.336593 -0.556426,0.511232 -0.423318,0.407316 -0.101074,0.16448 -0.437875,0.40054 -0.07785,-0.135732 -0.205698,-0.253222 -0.233561,-0.407196 -0.125278,-0.692248 0.07482,-1.7149641 0.211047,-2.343766 0.336199,-1.5518876 0.865529,-3.0654577 1.409401,-4.5541569 0.537562,-1.2646718 0.533033,-0.5269849 0.136994,-1.1319465 -0.08991,-0.1373437 -0.07042,-0.3846329 -0.225777,-0.4376665 -0.116105,-0.039635 0.03337,0.2455182 0.02021,0.3674934 -0.07154,0.6631334 -0.255847,1.1294465 -0.455089,1.7809763 -0.157789,0.3917357 -0.300193,0.7900254 -0.473368,1.1752077 -0.645478,1.4357101 -1.499106,2.7910845 -2.642997,3.8822055 -0.53444,0.463005 0.120348,1.218817 0.654788,0.755812 z" />
    <path
       style="fill:#0000ff;stroke-width:0.264583"
       id="path10148"
       d="m 60.847358,2.8142888 c 0.615445,0.121489 1.245492,0.1195649 1.869715,0.1486979 0.299715,0.013989 0.188998,-1.381e-4 0.370481,0.028593 0.700489,0.096517 0.836985,-0.894124 0.136496,-0.9906407 v 0 C 62.524639,1.9120066 61.811526,1.973518 61.114969,1.8507619 60.433653,1.661532 60.16604,2.6250588 60.847358,2.8142888 Z" />
    <path
       style="fill:#0000ff;stroke-width:0.264583"
       id="path10150"
       d="m 67.16559,6.622289 c 0.491347,0.028019 0.667771,0.041712 1.238022,0.048976 1.709672,0.021778 3.423629,-0.025501 5.131409,-0.099082 0.810151,-0.034906 1.619631,-0.083964 2.429446,-0.1259454 2.205964,-0.1316127 4.409022,-0.3080371 6.616401,-0.4161025 0.404241,-0.019791 0.808847,-0.031277 1.213273,-0.046915 0.706575,-0.027364 0.667878,-1.0266151 -0.0387,-0.9992508 v 0 c -0.410081,0.015907 -0.820346,0.027636 -1.230247,0.047717 -2.206085,0.1080757 -4.407878,0.2840633 -6.612535,0.4158946 -0.803569,0.041717 -1.606807,0.090462 -2.410711,0.1251495 -1.686584,0.072774 -3.379314,0.119779 -5.067784,0.099001 -0.545614,-0.00672 -0.717953,-0.019735 -1.185823,-0.046013 -0.704683,-0.058513 -0.787432,0.9380575 -0.08275,0.9965706 z" />
    <path
       style="fill:#0000ff;stroke-width:0.264583"
       id="path10152"
       d="m 79.385651,4.9863893 c 0.06228,0.012274 0.125349,0.021072 0.186844,0.036819 0.62004,0.1587839 1.226383,0.3787582 1.83167,0.5842701 1.471835,0.4997273 0.234702,0.086765 1.668683,0.5621306 0.100472,0.032158 0.902798,0.2796297 1.095488,0.368069 0.01765,0.0081 -0.04874,0.032494 -0.05637,0.014642 -0.07758,-0.181392 -0.0033,-0.4738863 -0.178679,-0.5642401 -0.160901,-0.082896 -0.332245,0.1437306 -0.498459,0.2153827 -0.272934,0.1176562 -0.545989,0.2350275 -0.818983,0.3525414 -0.284139,0.1193551 -0.56828,0.23871 -0.852422,0.3580649 -0.65192,0.2738599 -0.264623,1.195815 0.387297,0.9219554 v 0 C 82.437607,7.7154994 82.724497,7.5949746 83.011387,7.47445 83.291978,7.3535524 83.574908,7.2379493 83.853154,7.1117573 84.086466,7.0059449 84.38848,6.9808246 84.545738,6.7785858 84.743257,6.5245665 84.839947,6.1775615 84.829646,5.8559499 84.825228,5.7183678 84.628759,5.6629609 84.507889,5.5970905 84.387739,5.5316106 83.402156,5.2250906 83.387485,5.2203961 81.955253,4.7456931 83.208431,5.1638827 81.723301,4.6597684 81.074762,4.4396276 80.424858,4.2027459 79.758349,4.0406299 c -0.08635,-0.021003 -0.174813,-0.03208 -0.262218,-0.04812 -0.702779,-0.07812 -0.813258,0.9157581 -0.11048,0.9938784 z" />
    <path
       style="fill:#0000ff;stroke-width:0.264583"
       id="path10187"
       d="m 103.29034,1.3784708 c -0.23593,0.028713 -0.4761,0.033147 -0.70779,0.086139 -0.40592,0.092842 -0.81257,0.1952929 -1.19915,0.3500214 -1.713955,0.6860063 -3.296721,1.7950071 -4.49417,3.2053148 -0.403426,0.4751403 -0.70912,1.0252752 -1.063683,1.5379126 -0.497581,1.2114551 -0.843164,1.7070043 -0.872323,3.01103 -0.0092,0.4109709 0.02381,0.8364014 0.166454,1.2219354 0.131511,0.355472 0.339268,0.705978 0.63467,0.94345 0.847494,0.681291 1.481158,0.458136 2.468893,0.410939 1.772398,-0.517058 0.916583,-0.189281 2.568719,-0.979995 0.63641,-0.308195 0.20056,-1.2082132 -0.43585,-0.900017 v 0 c -1.438624,0.705956 -0.701135,0.413154 -2.21063,0.88304 -0.420508,0.05089 -1.148599,0.237548 -1.591469,-0.01442 -0.509897,-0.2901 -0.611188,-0.893232 -0.611476,-1.4191095 -5.29e-4,-1.1121007 0.296992,-1.5469143 0.708313,-2.5921642 0.313026,-0.4630473 0.580674,-0.9602536 0.939078,-1.3891421 1.292109,-1.5462255 3.152364,-2.7982651 5.119014,-3.2768176 0.19,-0.046233 0.3876,-0.05208 0.5814,-0.07812 0.70711,0 0.70711,-1 0,-1.0000003 z" />
    <path
       style="fill:#0000ff;stroke-width:0.264583"
       id="path10189"
       d="m 104.19895,8.6908343 c 1.58889,-0.967849 2.92955,-2.3347662 3.9426,-3.8928207 0.23377,-0.3595494 0.42482,-0.7451418 0.63723,-1.1177127 0.19601,-0.4609237 0.53957,-1.1270172 0.57925,-1.6665589 0.0466,-0.6334318 -0.31265,-0.9558147 -1.14783,-0.5536222 -0.23689,0.1140784 -1.37808,2.0994711 -1.38452,2.110179 -0.90134,1.6555813 -1.85259,3.305466 -2.51752,5.0763971 -0.21695,0.5777966 -0.72216,2.0280841 -0.54104,2.7564081 0.0887,0.356611 0.40328,0.614413 0.60492,0.921619 0.42313,0.07148 0.84268,0.259895 1.26938,0.214444 0.49028,-0.05222 0.95052,-0.280094 1.3928,-0.498006 0.98254,-0.484096 1.54755,-1.029973 2.3692,-1.713657 0.54228,-0.4537965 -0.0995,-1.2206979 -0.64177,-0.7669015 v 0 c -0.31851,0.2682041 -0.62094,0.5567475 -0.95553,0.8046125 -0.80738,0.598131 -1.67456,1.116679 -2.67072,1.313536 -0.12311,-0.07657 -0.33008,-0.09014 -0.36934,-0.229704 -0.18179,-0.646219 0.27949,-1.9235926 0.45861,-2.4023386 0.64783,-1.7314799 1.5789,-3.343297 2.45847,-4.9618625 0.23729,-0.3961137 0.47125,-0.7942392 0.71187,-1.1883408 0.1273,-0.2085112 0.40895,-0.3756762 0.39182,-0.6193768 -0.0155,-0.2201083 -0.32852,-0.297127 -0.46825,-0.4679012 -0.0148,-0.018077 0.0684,-0.047101 0.0659,-0.02388 -0.0584,0.5406874 -0.26039,0.8855996 -0.47562,1.4018075 -0.19211,0.3410328 -0.36438,0.694028 -0.57633,1.0230985 -0.91993,1.4282952 -2.13913,2.6843977 -3.58066,3.5860958 -0.6325,0.3161453 -0.1854,1.2106309 0.4471,0.8944856 z" />
    <path
       style="fill:#0000ff;stroke-width:0.264583"
       id="path10191"
       d="m 115.23587,2.7271165 c -0.11095,-0.1145569 -0.19958,-0.2560787 -0.33285,-0.3436705 -0.41963,-0.2757981 -0.84509,-0.3503564 -1.33912,-0.1619026 -0.63843,0.2435352 -1.24725,0.8829618 -1.63944,1.4026706 -0.27745,0.3676537 -0.49405,0.777493 -0.74108,1.1662394 -0.64936,1.2358804 -1.21048,2.5523537 -1.29442,3.9674808 -0.0462,0.7785663 0.041,1.6886428 0.48383,2.3683008 0.20806,0.319311 0.54609,0.531767 0.81913,0.797651 0.38315,0.112473 0.75208,0.298052 1.14944,0.337418 1.72707,0.171097 3.32756,-1.031233 4.26032,-2.3738683 0.24759,-0.356398 0.4229,-0.7579263 0.63435,-1.1368892 0.13797,-0.4274947 0.31309,-0.8447371 0.41391,-1.2824838 0.29287,-1.2715648 0.35457,-2.7426666 -0.1229,-3.9827782 -0.13714,-0.3561876 -0.28827,-0.7341145 -0.56715,-0.9947018 -0.30522,-0.2852075 -0.74217,-0.3836713 -1.11325,-0.575507 -0.4532,0.038354 -0.92488,-0.018685 -1.35959,0.1150625 -1.01026,0.3108303 -1.74812,1.0236762 -2.42597,1.7874616 -0.29196,0.3289806 -0.52582,0.7052633 -0.78873,1.0578947 -0.42021,0.5687023 0.38406,1.1629712 0.80427,0.5942692 v 0 c 0.72768,-0.9948804 1.35936,-1.9385822 2.5457,-2.4488171 0.26198,-0.1126723 0.55692,-0.1230733 0.83537,-0.1846101 0.21436,0.055329 0.47089,0.026827 0.64306,0.1659861 0.2212,0.1787882 0.34696,0.4586784 0.45521,0.7216957 0.43852,1.065525 0.37739,2.3422078 0.14015,3.4437055 -0.0809,0.3755115 -0.22461,0.7346783 -0.33691,1.1020176 -0.1746,0.3250608 -0.31874,0.6684246 -0.5238,0.9751822 -0.72561,1.0854824 -1.89808,2.0334044 -3.25989,2.0441784 -0.24265,0.0019 -0.47948,-0.07508 -0.71921,-0.112621 -0.18548,-0.141695 -0.41703,-0.237875 -0.55643,-0.425086 -0.38244,-0.513653 -0.45214,-1.2279286 -0.42347,-1.8354252 0.0605,-1.2816755 0.57309,-2.4733242 1.15379,-3.5936134 0.54187,-0.8742095 0.57545,-1.0524892 1.25541,-1.737288 0.19994,-0.2013556 0.58685,-0.5977485 0.93531,-0.4703704 0.0538,0.019658 0.0939,0.065503 0.14091,0.098255 0.34354,0.6180465 1.21759,0.1322101 0.87405,-0.4858365 z" />
    <path
       style="fill:#0000ff;stroke-width:0.264583"
       id="path10193"
       d="m 119.3136,3.4603274 c 0.43108,0.063758 0.86486,0.1072198 1.29905,0.1431359 0.2557,0.021151 0.54767,0.049253 0.80661,0.032084 0.10273,-0.00681 0.2037,-0.030008 0.30555,-0.045012 0.0947,-0.041682 0.18944,-0.083364 0.28415,-0.1250466 0.61863,-0.3424828 0.13429,-1.2173605 -0.48434,-0.8748779 v 0 c 0.011,0.00467 0.022,0.00934 0.033,0.014003 -0.28497,0.061963 -0.566,0.026679 -0.85515,0.00289 -0.43098,-0.035458 -0.86138,-0.079359 -1.28931,-0.1422099 -0.70359,-0.070387 -0.80313,0.9246464 -0.0995,0.9950334 z" />
    <path
       style="fill:#0000ff;stroke-width:0.264583"
       id="path10195"
       d="m 125.83267,6.0862323 c 0.002,0.1783855 0.005,0.3567623 0.005,0.5351563 10e-4,0.3911775 -0.004,0.9034301 -0.008,1.2974285 -0.002,0.1668929 2e-5,0.3338926 -0.007,0.5006655 -0.0125,0.3157929 0.0361,0.3595754 -0.0484,0.2599365 -0.30772,0.6366414 0.59263,1.0718138 0.90035,0.4351721 v 0 c 0.0401,-0.108693 0.0956,-0.21287 0.12019,-0.3260786 0.036,-0.1658681 0.0331,-0.7425253 0.0344,-0.8604551 0.007,-0.6334837 0.0138,-1.2671409 7.9e-4,-1.9006011 -0.0416,-0.7058842 -1.03983,-0.6471083 -0.99827,0.058776 z" />
    <path
       style="fill:#0000ff;stroke-width:0.264583"
       id="path10197"
       d="m 125.13352,8.0159624 c 1.16129,0.00106 2.32214,-0.063638 3.47757,-0.178412 0.0855,-0.019656 0.17108,-0.039311 0.25662,-0.058967 0.68575,-0.1724639 0.44185,-1.1422639 -0.2439,-0.9698001 v 0 c -0.0373,0.011229 -0.0745,0.022458 -0.1118,0.033687 -1.12246,0.1120309 -2.25031,0.1743617 -3.37849,0.173492 -0.7071,0 -0.7071,0.9999999 0,1.0000001 z" />
    <path
       style="fill:#0000ff;stroke-width:0.264583"
       id="path10199"
       d="m 138.49482,2.5379747 c -0.0116,0.3370161 -0.012,0.6746093 -0.0349,1.0110485 -0.0719,1.0570601 -0.20354,2.1238942 -0.33852,3.1736929 -0.16624,1.2928719 -0.3571,2.5781076 -0.5946,3.8595519 -0.1581,0.534234 -0.0959,0.415027 -0.27344,0.790694 -0.013,0.02753 0.0234,-0.05623 0.0351,-0.08435 -0.50103,0.498969 0.20462,1.20753 0.70564,0.708561 v 0 c 0.0587,-0.07492 0.12959,-0.141718 0.17606,-0.224773 0.16116,-0.288031 0.25534,-0.713227 0.33998,-1.008148 0.24065,-1.3020967 0.43542,-2.6077406 0.60405,-3.9213762 0.13805,-1.0753534 0.27375,-2.1774793 0.34522,-3.2606077 0.0238,-0.3602723 0.0231,-0.7217408 0.0347,-1.0826111 -0.0271,-0.7065874 -1.02636,-0.6682697 -0.99927,0.038318 z" />
    <path
       style="fill:#0000ff;stroke-width:0.264583"
       id="path10201"
       d="m 139.46612,4.6972764 c 0.60395,-0.3165432 1.36961,-0.6477052 2.06967,-0.4968226 0.34637,0.074653 0.41042,0.2123424 0.63074,0.4492387 0.0628,0.1212921 0.13858,0.2367195 0.18848,0.3638764 0.10607,0.2702816 0.26442,0.848393 0.0688,1.1203638 -0.11179,0.1553946 -0.62356,0.2378051 -0.70085,0.2578775 -1.19575,0.2982491 -2.44421,0.1810842 -3.64249,0.4502036 -0.68864,0.1605547 -0.46158,1.1344359 0.22706,0.973881 v 0 c 0.55408,-0.1360977 1.11385,-0.1404242 1.68116,-0.1881831 1.263,-0.1063254 0.87246,-0.063839 2.08776,-0.3004624 0.29012,-0.1287928 0.61568,-0.196923 0.87037,-0.3863784 0.76716,-0.5706608 0.63092,-1.687221 0.26894,-2.4363908 -0.10288,-0.2129223 -0.25386,-0.399048 -0.38078,-0.5985721 -0.18899,-0.1548487 -0.35289,-0.3468122 -0.56698,-0.4645462 -0.90577,-0.4981019 -2.00776,-0.2191983 -2.88971,0.1754238 -0.1678,0.075086 -0.32379,0.1742128 -0.48569,0.2613192 -0.57924,0.4055596 -0.006,1.2247313 0.57355,0.8191716 z" />
    <path
       style="fill:#0000ff;stroke-width:0.264583"
       id="path10203"
       d="m 145.25183,1.4070748 c 0.0329,1.768829 -0.27821,3.524219 -0.48471,5.2753619 -0.15154,1.2851426 -0.1791,1.6498215 -0.29285,2.866962 1.00055,-0.657592 -0.50521,1.2592213 -0.113,1.1896543 1.35701,-0.240693 -0.11802,-0.668216 0.8342,-0.320588 -0.20552,-0.6765795 -1.16235,-0.385925 -0.95683,0.290655 v 0 c 0.15733,0.191984 0.22614,0.541734 0.47198,0.575953 0.66439,0.09248 0.66052,-0.480573 0.69362,-0.82766 0.0259,-0.27132 0.0438,-0.5433402 0.0657,-0.8150101 0.11199,-1.1995465 0.14,-1.5685791 0.28932,-2.8348154 0.18664,-1.5826644 0.45662,-3.1694775 0.49851,-4.7659661 0.008,-0.2866278 -0.0211,-0.5730658 -0.0316,-0.8595988 -0.15913,-0.68896712 -1.13348,-0.46391503 -0.97434,0.2250522 z" />
    <path
       style="fill:#0000ff;stroke-width:0.264583"
       id="path10205"
       d="m 147.08144,7.5607055 c 0.13542,-0.022828 0.26892,-0.067225 0.40623,-0.068488 0.80541,-0.00741 1.73169,0.4744974 2.23149,1.095433 0.10042,0.1247502 0.15267,0.2815582 0.229,0.4223371 -0.0569,0.053337 -0.10355,0.1204259 -0.17077,0.1600097 -0.11166,0.065757 -0.235,0.110803 -0.35805,0.1514113 -0.25231,0.08326 -0.50418,0.1757275 -0.76622,0.2195938 -0.68753,0.115094 -1.28886,0.1110771 -1.96806,-0.042428 -0.23777,-0.053736 -0.45838,-0.1660554 -0.68756,-0.2490833 -0.66856,-0.2302652 -0.99421,0.7152273 -0.32564,0.9454919 v 0 c 0.29922,0.09896 0.58891,0.233661 0.89766,0.296894 0.77873,0.159488 1.62052,0.172383 2.39874,-0.0018 0.64741,-0.144929 1.46944,-0.437274 1.78734,-1.1124183 0.1254,-0.2663214 0.0336,-0.587778 0.0503,-0.8816671 -0.1369,-0.2150422 -0.24377,-0.4524579 -0.41068,-0.6451264 -0.74708,-0.8623236 -1.95176,-1.4012254 -3.09318,-1.3412464 -0.19677,0.01034 -0.38621,0.078436 -0.57931,0.1176536 -0.66006,0.2536237 -0.30138,1.1870851 0.35867,0.9334613 z" />
    <path
       style="fill:#0000ff;stroke-width:0.264583"
       id="path10207"
       d="m 152.92625,1.8619413 c -0.62287,2.0285491 -0.87887,4.2006447 -0.52952,6.3074177 0.0574,0.3462526 0.16324,0.6827152 0.24487,1.0240727 0.16288,0.4152265 0.26065,0.8033777 0.55546,1.1432243 0.0825,0.09506 0.198,0.155385 0.29701,0.233078 0.60542,0.365334 1.12208,-0.490857 0.51666,-0.8561905 v 0 c 0.005,0.02086 0.029,0.078351 0.0145,0.062582 -0.23842,-0.2595801 -0.26445,-0.4585145 -0.41196,-0.8191778 -0.0741,-0.2985423 -0.17046,-0.5924317 -0.22236,-0.8956267 -0.33188,-1.9387018 -0.0966,-3.9380427 0.45693,-5.8111452 0.27453,-0.6516416 -0.64703,-1.0398766 -0.92156,-0.388235 z" />
    <path
       style="fill:#0000ff;stroke-width:0.264583"
       id="path10209"
       d="m 158.74566,1.863959 c -0.18091,-0.026145 -0.3601,-0.086027 -0.54273,-0.078435 -0.25613,0.010649 -0.51814,0.040861 -0.75756,0.1324925 -1.12653,0.4311518 -1.92955,1.463598 -2.43146,2.5194162 -0.20246,0.4258837 -0.31912,0.8874821 -0.47868,1.3312233 -0.0583,0.4607202 -0.16592,0.9178562 -0.17476,1.3821605 -0.0251,1.317203 0.48886,3.1860635 1.95243,3.5913925 0.30804,0.08531 0.63895,0.02024 0.95843,0.03035 0.3038,-0.128694 0.63224,-0.210239 0.91142,-0.386084 0.29045,-0.182947 0.54384,-0.4241055 0.77612,-0.67685 0.76767,-0.8353227 1.17944,-1.9404671 1.25735,-3.0648582 0.0281,-0.4059605 -0.0304,-0.8133006 -0.0456,-1.2199506 -0.2243,-0.7742743 -0.28645,-1.4558711 -0.96113,-2.0075287 -0.66834,-0.5464762 -1.41071,-0.6020892 -2.19,-0.2358003 -0.82678,0.3886104 -1.15263,1.0356765 -1.63973,1.732277 -0.39718,0.5850242 0.43017,1.1467121 0.82735,0.561688 v 0 c 0.36861,-0.5641708 0.87474,-1.4898727 1.6513,-1.5749606 0.89615,-0.098189 1.1375,0.9506997 1.31331,1.5711445 0.0196,0.3349693 0.0751,0.6697652 0.0587,1.0049076 -0.0564,1.1565598 -0.54463,2.2907902 -1.47635,3.0064487 -0.15596,0.1197965 -0.34251,0.1933641 -0.51376,0.2900463 -0.15996,0.024971 -0.31924,0.095037 -0.47988,0.074918 -0.43462,-0.054432 -0.73863,-0.3615235 -0.94998,-0.7234102 -0.57076,-0.9773108 -0.48872,-1.9538611 -0.33188,-3.024193 0.13125,-0.3833583 0.22657,-0.7809693 0.39376,-1.150075 0.39769,-0.8779549 1.17422,-2.0201331 2.22023,-2.1708628 0.0931,-0.013414 0.1879,0.00873 0.28185,0.013089 0.65659,0.2624802 1.02779,-0.6660715 0.3712,-0.9285516 z" />
    <path
       style="fill:#0000ff;stroke-width:0.264583"
       id="path10211"
       d="m 161.93396,2.1819669 c 0.0825,2.4932025 -0.0688,4.9913251 -0.26845,7.4760837 -0.14525,0.9833384 -0.0198,0.6039084 -0.24753,1.1730464 -0.24129,0.664662 0.69868,1.005909 0.93998,0.341248 v 0 c 0.26972,-0.791409 0.14233,-0.319568 0.30434,-1.4342764 0.12076,-1.5061502 0.21309,-3.0106541 0.263,-4.521101 0.0245,-0.7413495 0.0505,-1.7781286 0.0314,-2.5424807 -0.006,-0.229953 -0.0281,-0.459189 -0.0422,-0.6887835 -0.13878,-0.6933544 -1.11933,-0.4970908 -0.98055,0.1962635 z" />
    <path
       style="fill:#0000ff;stroke-width:0.264583"
       id="path10213"
       d="m 162.10222,7.6174131 c 1.265,-0.3072675 2.55242,-0.5338361 3.85117,-0.6301846 0.7051,-0.053333 0.62967,-1.0504847 -0.0754,-0.9971516 v 0 c -1.36182,0.104806 -2.71251,0.3361579 -4.03864,0.662509 -0.68223,0.185888 -0.41935,1.1507152 0.26289,0.9648272 z" />
    <path
       style="fill:#0000ff;stroke-width:0.264583"
       id="path10215"
       d="m 166.12045,1.2561661 c -0.1518,1.6663274 -0.34566,3.3288707 -0.45719,4.9987603 -0.0179,0.2687727 -0.10827,2.1091975 -0.12852,2.5176445 -0.0762,0.649605 0.0668,0.459299 -0.15199,0.6978761 -0.32201,0.629535 0.56829,1.084916 0.89029,0.4553813 v 0 c 0.27273,-0.6365314 0.1659,-0.2739261 0.26047,-1.1037369 0.0186,-0.3753107 0.11068,-2.2490742 0.12658,-2.48754 0.1114,-1.6708583 0.30616,-3.3342809 0.45741,-5.0016201 0.0543,-0.70502018 -0.94277,-0.78178549 -0.99705,-0.076765 z" />
    <path
       style="fill:#0000ff;stroke-width:0.264583"
       id="path10217"
       d="m 168.30417,1.5194486 c 0.0549,0.1401962 0.12481,0.2754082 0.1647,0.4205885 0.21624,0.7868373 0.27436,1.3269453 0.3093,2.1718871 0.0361,0.8736452 -0.004,1.8963343 -0.0744,2.7704131 -0.0293,0.3613314 -0.0801,0.7205962 -0.12011,1.0808941 -0.18098,0.8612079 -0.0289,0.5213305 -0.3435,1.0629741 -0.32458,0.6282058 0.56383,1.0872425 0.88842,0.459037 v 0 c 0.40168,-0.8353536 0.23604,-0.3699854 0.44903,-1.4122267 0.0415,-0.3782333 0.0943,-0.7553997 0.1246,-1.1346995 0.0728,-0.9122114 0.11456,-2.0066481 0.0719,-2.9166171 -0.0411,-0.8756531 -0.12121,-1.6478372 -0.38748,-2.4788304 -0.0714,-0.222735 -0.19546,-0.4249863 -0.29319,-0.63747943 -0.43421,-0.55809102 -1.22346,0.0559683 -0.78926,0.61405923 z" />
    <path
       style="fill:#0000ff;stroke-width:0.264583"
       id="path10219"
       d="m 171.70674,8.2987636 c 0.2407,-0.1612615 0.50739,-0.3913315 0.82191,-0.3612669 0.0397,0.0038 0.11128,0.020217 0.10388,0.059417 -0.008,0.040303 -0.0804,0.016391 -0.12012,0.026639 -0.0304,0.00784 -0.06,0.018396 -0.09,0.027593 -0.11109,0.169354 -0.25692,0.2968734 -0.41405,0.4200351 -0.0336,0.026313 -0.095,0.039019 -0.0986,0.081517 -0.0749,0.8757261 -0.16497,0.7048786 0.38004,0.9580113 0.0414,-0.073184 0.5093,0.3222323 0.33572,0.3463411 -0.0434,0.00602 -0.0696,-0.05354 -0.10758,-0.075433 -0.0451,-0.026027 -0.0889,-0.062305 -0.1407,-0.067863 -0.14324,-0.015378 -0.2881,0.00424 -0.43214,0.00637 -0.63649,-0.1317977 -0.70284,-0.1146673 -1.31732,-0.3713697 -0.47235,-0.1973292 -0.38364,-0.1197634 -0.57381,-0.3695684 -0.50685,-0.4930561 -1.20414,0.2237367 -0.69729,0.7167925 v 0 c 0.11702,0.1026776 0.21952,0.2247701 0.35106,0.3080324 0.18613,0.117812 0.38932,0.208089 0.59379,0.290026 0.827,0.331404 0.84918,0.280806 1.74882,0.420533 0.57369,-0.08862 1.0539,-0.02616 1.41129,-0.602148 0.11279,-0.1817768 0.12001,-0.4239753 0.0888,-0.6356073 -0.0705,-0.4774444 -0.5465,-0.7381804 -0.9314,-0.9103569 -0.11222,0.2424803 -0.11688,0.2416929 -0.0718,0.7567631 0.004,0.047628 0.0746,-0.05982 0.11048,-0.091471 0.44445,-0.3925877 0.6521,-0.6468882 0.76171,-1.2590608 -0.0462,-0.1963972 -0.0331,-0.4172061 -0.13857,-0.5891921 -0.31545,-0.5143484 -0.94685,-0.4895638 -1.43301,-0.3164731 -0.30114,0.1072136 -0.49931,0.2658715 -0.75488,0.4423539 -0.55818,0.4340881 0.0557,1.2234772 0.6139,0.7893891 z" />
    <path
       style="fill:#0000ff;stroke-width:0.264583"
       id="path10223"
       d="m 171.59264,2.8877572 c 1.13402,-0.1655932 2.25844,-0.4204399 3.41124,-0.4096875 0.15866,0.00148 0.31668,0.02042 0.47502,0.030629 0.0878,0.015401 0.17563,0.030801 0.26345,0.046202 0.69767,0.1151497 0.86051,-0.8715018 0.16284,-0.9866514 v 0 c -0.12213,-0.019252 -0.24426,-0.038503 -0.36639,-0.057754 -0.18902,-0.010636 -0.37774,-0.030805 -0.56705,-0.031909 -1.17192,-0.00683 -2.31779,0.2346191 -3.46968,0.4132807 -0.7042,0.064041 -0.61363,1.0599314 0.0906,0.9958903 z" />
    <path
       style="fill:#ff0000;stroke-width:0.264583"
       id="path10225"
       d="M 17.794019,0.19844181 C 17.486222,0.9405236 17.149722,1.6824025 16.945877,2.4625426 c -0.101059,0.3867653 -0.236381,0.9795349 -0.07871,1.3893771 0.07972,0.2072347 0.259787,0.3601652 0.389681,0.5402477 0.220504,0.063446 0.432108,0.1857248 0.661512,0.1903362 0.678045,0.013629 1.3724,-0.6516854 1.670197,-1.2130778 -0.321885,-0.083959 -0.634312,-0.2813894 -0.965653,-0.2518756 -0.119956,0.010684 -0.07103,0.2302457 -0.101004,0.346887 -0.131045,0.5099635 -0.237283,1.0350952 -0.287141,1.5595417 0.09205,0.1643134 0.184098,0.3286268 0.276147,0.4929399 0.611544,0.3549841 1.113567,-0.50987 0.502023,-0.8648541 v 0 c 0.07267,0.1530654 0.145343,0.3061309 0.218014,0.4591963 0.03488,-0.4579763 0.138604,-0.9238869 0.251408,-1.3683758 0.02627,-0.1035042 0.163319,-0.2313175 0.0888,-0.307803 -0.236198,-0.2424295 -0.58723,-0.3367595 -0.880845,-0.5051393 -0.0078,0.069209 -0.0029,0.04557 -0.09324,0.1611056 -0.149343,0.1910619 -0.21343,0.2375426 -0.406664,0.3859014 -0.05112,0.039245 -0.112372,0.066119 -0.157485,0.1121373 -0.02845,0.029022 -0.03849,0.071596 -0.05773,0.1073935 -0.191038,0.026421 -0.203866,0.068067 -0.18841,-0.3023637 0.0088,-0.2102805 0.05715,-0.4180049 0.109894,-0.6217536 0.193916,-0.7491747 0.518381,-1.4608717 0.813479,-2.17304406 0.283463,-0.64780288 -0.632669,-1.04868042 -0.916132,-0.40087753 z" />
    <path
       style="fill:#ff0000;stroke-width:0.264583"
       id="path10227"
       d="m 19.49197,1.8712469 c 0.0028,0.5638651 -0.01201,1.1278385 0.02082,1.6912406 0.01225,0.2102215 0.0432,0.7046108 0.132276,0.9352275 0.04131,0.1069512 0.118313,0.1964248 0.17747,0.2946373 0.458974,0.5379059 1.219687,-0.1111813 0.760714,-0.6490872 v 0 c 0.01201,0.042964 0.04563,0.1724645 0.03605,0.1288926 C 20.60128,4.1902217 20.5699,4.1111098 20.55793,4.0280754 20.47684,3.465763 20.49198,2.8904829 20.49198,2.3243548 c 0,-0.1510359 0,-0.3020719 0,-0.4531079 0,-0.7071068 -1,-0.7071068 -1,0 z" />
    <path
       style="fill:#ff0000;stroke-width:0.264583"
       id="path10229"
       d="m 19.106304,3.7498363 c 0.434398,-0.1304559 0.204553,-0.07533 0.691225,-0.1581689 0.695958,-0.1250731 0.519077,-1.1093056 -0.17688,-0.9842324 v 0 c -0.629442,0.1177011 -0.335156,0.042803 -0.885548,0.2138496 -0.656585,0.2624801 -0.285382,1.1910319 0.371203,0.9285517 z" />
    <path
       style="fill:#ff0000;stroke-width:0.264583"
       id="path10231"
       d="m 28.511915,2.9604972 c 0.206108,-0.3786891 0.430054,-0.7546479 0.71596,-1.079974 0.07655,-0.087106 0.155429,-0.1760025 0.252767,-0.239033 0.0322,-0.020849 -0.0085,0.099036 -0.04631,0.1053427 -0.135686,0.022616 -0.274437,-0.01934 -0.411657,-0.029011 -0.152805,0.6781246 -0.345112,1.3407329 -0.631003,1.9766433 -0.259315,0.5768007 -0.609758,1.1092672 -0.912947,1.662874 -0.02204,0.1277723 -0.139933,0.2767292 -0.06611,0.3833166 0.165105,0.2383706 0.418126,0.4360186 0.69446,0.523874 0.181144,0.057591 0.374557,-0.069886 0.556072,-0.1262915 C 29.130078,5.9931427 29.39721,5.8333576 29.833666,5.6116244 30.462975,5.2891767 30.006963,4.399202 29.377657,4.7216497 v 0 c -0.568905,0.2944055 -0.403918,0.2288127 -0.974738,0.4510418 -0.08462,0.032944 -0.257583,0.00183 -0.256189,0.092625 0.01291,0.8406423 0.429782,0.3160662 0.209315,0.5719201 0.173699,-0.3179619 0.3658,-0.6256639 0.538557,-0.9441394 0.365868,-0.6744755 0.560506,-1.0610987 0.797888,-1.8037442 0.09783,-0.3060769 0.194299,-0.6156703 0.239196,-0.9338509 0.03875,-0.2746192 0.0066,-0.5546398 0.01,-0.8319597 -0.21423,-0.1891687 -0.372374,-0.47472002 -0.642689,-0.56750625 -0.171415,-0.0588384 -0.361047,0.0765398 -0.516569,0.16958733 -0.141346,0.0845653 -0.242229,0.22425362 -0.34996,0.34884932 -0.333967,0.3862558 -0.597003,0.8302645 -0.83436,1.2799228 -0.287158,0.646174 0.62667,1.0522755 0.913828,0.4061016 z" />
    <path
       style="fill:#ff0000;stroke-width:0.264583"
       id="path10233"
       d="M 31.564513,2.963805 C 31.984669,2.8611801 31.77337,2.9118655 32.198421,2.8117993 32.8867,2.6497211 32.657489,1.676345 31.969207,1.8384232 v 0 c -0.426588,0.1004787 -0.219374,0.050636 -0.621713,0.1492147 -0.690255,0.1534565 -0.473233,1.1296236 0.217019,0.9761671 z" />
    <path
       style="fill:#ff0000;stroke-width:0.264583"
       id="path10239"
       d="m 117.6719,1.1489727 c 0.12579,-0.1140036 0.29747,-0.27723365 0.4379,-0.37366504 0.0425,-0.0291784 0.18816,-0.0826273 0.13852,-0.0687261 -0.0669,0.018724 -0.12299,0.0979717 -0.19086,0.0833851 -0.51372,-0.11039401 -0.25279,-0.39278811 -0.48638,-0.0110612 -0.0885,0.15993615 -0.16833,0.32503214 -0.2656,0.47980844 -0.57655,0.9173994 -1.27997,1.7871048 -2.10548,2.4912616 -0.32051,0.1681948 -0.38843,0.1891371 0.64457,0.7669998 0.10573,0.059147 0.2029,-0.1324774 0.30561,-0.1967282 0.4356,-0.2724949 0.87479,-0.4928492 1.34617,-0.6960844 0.36713,-0.1115994 0.7422,-0.1959792 1.11841,-0.2704814 0.6935,-0.138062 0.49825,-1.1188156 -0.19525,-0.9807538 v 0 c -0.44551,0.0891 -0.89043,0.1876466 -1.32128,0.3339044 -0.52639,0.2297795 -1.00221,0.4675606 -1.48948,0.7726683 -0.10726,0.067161 -0.33108,0.079622 -0.31916,0.2056095 0.0318,0.3358431 0.23513,0.6397437 0.42552,0.9182272 0.0314,0.045942 0.0914,-0.063538 0.13708,-0.095306 0.91045,-0.7887938 1.711,-1.7449842 2.33452,-2.7766176 0.1238,-0.2048311 0.222,-0.4240807 0.333,-0.6361211 0.0534,-0.21384854 0.2052,-0.42572618 0.16036,-0.64154574 -0.0525,-0.25243784 -0.21396,-0.50016781 -0.42756,-0.64457195 -0.38077,-0.25742472 -1.04948,0.41567787 -1.28752,0.63249406 -0.50014,0.49986035 0.20677,1.20716453 0.70691,0.70730413 z" />
    <path
       style="fill:#ff0000;stroke-width:0.264583"
       id="path10241"
       d="m 119.19247,1.4964192 c 0.39152,-0.032748 0.76331,-0.1516017 1.13321,-0.2749677 0.66965,-0.2270893 0.3485,-1.17411669 -0.32115,-0.94702739 v 0 c -0.32278,0.11180971 -0.64697,0.21305467 -0.99073,0.23808605 -0.69573,0.12633881 -0.51706,1.11024784 0.17867,0.98390904 z" />
    <path
       style="fill:#ff0000;stroke-width:0.264583"
       id="path10243"
       d="m 107.4533,0.10816834 c 0.0687,-0.03866258 0.13258,-0.08759901 0.20613,-0.11598775 0.28985,-0.11186994 0.27214,0.09766117 0.11541,0.03672977 -0.26182,-0.10178279 -0.0633,-0.18251514 -0.24637,-0.0744483 -0.15372,0.16299276 -0.82036,0.59168601 -0.7705,0.8386574 0.13544,0.67069044 0.29578,0.63358944 0.74602,0.78079644 0.0804,0.033078 0.41002,0.1368461 0.46743,0.2604641 0.0315,0.067783 -0.11945,0.00216 -0.22531,0.068899 -0.10834,0.068297 -0.20067,0.1591712 -0.30101,0.2387568 -0.1782,0.1111656 -0.35641,0.2223312 -0.53462,0.3334968 -0.47547,0.214465 -0.98993,0.485011 -1.53305,0.4305987 -0.0145,-0.00146 0.006,-0.052411 0.0149,-0.04114 0.34811,0.4240152 0.30149,0.3057316 0.37137,0.6190115 0.10622,-0.031096 0.21244,-0.062192 0.31866,-0.093289 0.67207,-0.2198434 0.36116,-1.1702842 -0.3109,-0.9504406 v 0 c -0.16837,0.058727 -0.33675,0.117455 -0.50512,0.1761825 -0.16635,0.1508045 -0.45575,0.2320967 -0.49904,0.4524136 -0.0499,0.2541262 0.10548,0.5270847 0.26675,0.7297333 0.0855,0.107514 0.26125,0.096729 0.39834,0.1060172 0.71704,0.048583 1.39848,-0.2929035 2.02195,-0.5898981 0.43436,-0.2895674 0.96533,-0.5601972 1.22532,-1.0529564 0.11085,-0.2101036 0.17461,-0.4605368 0.14964,-0.6967752 -0.0604,-0.57139163 -0.5909,-0.7806658 -1.03673,-0.94853543 -0.40831,-0.1029521 -0.0715,-0.0781495 -0.0791,0.47172903 -7.9e-4,0.058194 -0.17094,0.1536366 -0.11864,0.1280992 0.0734,-0.035828 0.12315,-0.1072481 0.18504,-0.1605205 0.44894,-0.38649827 0.21971,-0.15796585 0.64189,-0.65179801 0.0646,-0.16878851 0.18853,-0.32572563 0.19368,-0.50636554 0.019,-0.66537285 -0.44581,-0.98164705 -1.05232,-0.89927145 -0.33707,0.0457817 -0.49457,0.18448308 -0.76828,0.35724078 -0.53217,0.46561466 0.12631,1.21821412 0.65848,0.75259946 z" />
    <path
       style="fill:#ff0000;stroke-width:0.264583"
       id="path10245"
       d="m 110.39673,-0.36874389 c -0.007,0.17366115 -0.0134,0.347324 -0.0202,0.52098342 -0.005,0.13843439 -0.0492,1.23656797 -0.0517,1.37324737 -0.004,0.1984063 0.002,0.3968815 10e-4,0.5953189 -0.002,0.3816297 0.0438,0.4657515 -0.0235,0.3209371 0.23922,-0.089834 0.47845,-0.1796676 0.71768,-0.2695015 -0.52763,-0.4707607 -1.19338,0.2754086 -0.66576,0.7461694 v 0 c 0.29435,-0.040649 0.5887,-0.081298 0.88305,-0.1219473 0.0274,-0.1001757 0.0689,-0.1975339 0.0823,-0.3005276 0.0163,-0.1248875 0.006,-0.2518441 0.006,-0.3777896 8e-4,-0.1855147 -0.005,-0.371062 -0.002,-0.5565472 0.0119,-0.64373405 0.0567,-1.28671215 0.0726,-1.93034299 0,-0.70710671 -1,-0.70710671 -1,0 z" />
    <path
       style="fill:#ff0000;stroke-width:0.264583"
       id="path10247"
       d="m 109.36067,1.4711324 c 0.45955,-0.092404 0.92524,-0.1467057 1.3902,-0.2026796 0.70201,-0.084705 0.58222,-1.07750418 -0.11979,-0.99279914 v 0 c -0.50015,0.060479 -1.00109,0.11942775 -1.49505,0.22103825 -0.68904,0.15884843 -0.46439,1.13328899 0.22464,0.97444049 z" />
    <path
       style="fill:#ff0000;stroke-width:0.264583"
       id="path10251"
       d="m 152.10225,-0.02598008 c -0.0579,0.62829419 -0.12949,1.25856708 -0.12366,1.89069958 0.002,0.2230896 0.0282,0.8567309 0.12609,1.1095678 0.0531,0.137092 0.15639,0.2489851 0.23458,0.3734776 0.45519,0.541114 1.22044,-0.1026186 0.76525,-0.6437325 v 0 c -0.0444,0.1584555 -0.0382,0.1790607 -0.0906,-0.2523553 -0.0223,-0.1836518 -0.0338,-0.3688586 -0.0358,-0.5538494 -0.005,-0.4093661 0.0381,-0.9394647 0.0728,-1.34752708 0.014,-0.16456569 0.032,-0.32876974 0.048,-0.49315461 0.0588,-0.7046595 -0.93776,-0.7877856 -0.99654,-0.08312609 z" />
    <path
       style="fill:#ff0000;stroke-width:0.264583"
       id="path10253"
       d="m 152.58667,1.7465804 c 0.40033,-0.1699803 0.835,-0.2142611 1.26076,-0.2770296 0.69936,-0.1043575 0.55178,-1.09340707 -0.14759,-0.98904948 v 0 c -0.50189,0.0756933 -1.01263,0.13776489 -1.4845,0.33757742 -0.65655,0.26256866 -0.28522,1.19107026 0.37133,0.92850166 z" />
    <path
       style="fill:#ff0000;stroke-width:0.264583"
       id="path10259"
       d="m 49.271631,11.082678 c 0.04372,1.241517 0.155673,2.628555 0.667803,3.773907 0.700498,1.566631 1.676554,2.780902 3.15576,3.717082 0.968099,0.612705 2.080614,0.959969 3.120924,1.439953 1.42472,0.279202 2.829407,0.694557 4.274166,0.837605 3.73452,0.369764 7.618961,0.04391 11.30766,-0.509777 3.638722,-0.546183 7.831576,-1.549297 11.377882,-2.606615 1.367906,-0.407836 2.703126,-0.918209 4.054689,-1.377313 0.669473,-0.227606 0.347589,-1.174385 -0.321884,-0.946779 v 0 c -1.330142,0.452615 -2.644116,0.955865 -3.990425,1.357845 -3.500154,1.045073 -7.631639,2.035037 -11.223556,2.578211 -3.610697,0.546014 -7.360245,0.864396 -11.015167,0.52249 -1.368044,-0.127977 -2.700129,-0.51088 -4.050194,-0.76632 -0.957633,-0.426503 -1.977475,-0.734362 -2.872899,-1.27951 -1.307261,-0.795884 -2.226564,-1.871159 -2.855259,-3.240983 -0.488979,-1.065406 -0.572947,-2.279128 -0.632045,-3.428489 0.05042,-0.705307 -0.947033,-0.776614 -0.997455,-0.07131 z" />
    <path
       style="fill:#ff0000;stroke-width:0.264583"
       id="path10261"
       d="m 85.987852,14.241099 c 0.25336,0.02484 0.506463,0.0525 0.760084,0.07452 1.012645,0.08792 2.021218,0.135836 3.037888,0.117578 0.573513,-0.0103 0.895286,-0.05986 0.546227,-0.01026 -0.168048,-0.181563 -0.256823,-0.550906 -0.504143,-0.54469 -0.334658,0.0084 -0.556842,0.372731 -0.821285,0.578002 -0.797396,0.618975 -0.856305,0.723052 -1.524579,1.408532 -0.492353,0.507532 0.225406,1.203824 0.717759,0.696292 v 0 c 0.59309,-0.614751 0.66743,-0.731814 1.382366,-1.287053 0.262615,-0.203955 0.626208,-0.300938 0.815753,-0.574137 0.233743,-0.336908 0.261096,-0.777431 0.391644,-1.166147 -0.128805,-0.04193 -0.251627,-0.112347 -0.386416,-0.125798 -0.20615,-0.02057 -0.413869,0.02135 -0.621004,0.02526 -0.307282,0.0058 -0.614717,0.0097 -0.921996,0.0039 -0.925407,-0.01752 -1.847831,-0.09203 -2.767753,-0.190491 -0.703231,-0.07393 -0.807779,0.920595 -0.104545,0.99452 z" />
    <path
       style="fill:#ff0000;stroke-width:0.264583"
       id="path10263"
       d="m 74.715713,23.785596 c -0.190087,0.0843 -0.387892,0.152986 -0.570262,0.252888 -1.420532,0.778168 -2.963203,2.133503 -3.697343,3.590204 -0.193611,0.38417 -0.282397,0.812737 -0.423598,1.219105 0.0084,0.369641 -0.07906,0.754203 0.02524,1.108922 0.226896,0.771604 0.78972,1.183449 1.5851,1.24306 0.769268,0.05765 1.443246,-0.336939 2.104485,-0.634061 0.641953,-0.296474 0.222676,-1.204333 -0.419277,-0.907859 v 0 c -0.432179,0.206401 -1.935298,1.07575 -2.271779,0.244668 -0.09288,-0.229405 -0.05002,-0.492453 -0.07503,-0.738677 0.103801,-0.329092 0.160919,-0.676741 0.311406,-0.987272 0.388708,-0.802095 0.950773,-1.408673 1.600206,-2.005688 0.611266,-0.561926 1.297955,-1.051443 2.047959,-1.409143 0.69024,-0.15352 0.473131,-1.129667 -0.217112,-0.976147 z" />
    <path
       style="fill:#ff0000;stroke-width:0.264583"
       id="path10265"
       d="m 75.844703,28.830124 c 0.183576,-0.06624 0.374375,-0.115139 0.550731,-0.198726 1.342514,-0.63632 2.418722,-1.679016 3.24364,-2.901333 0.199263,-0.295258 0.362114,-0.613519 0.543171,-0.920278 0.160393,-0.346184 0.92568,-1.833024 -0.225901,-1.858021 -0.319963,-0.0069 -0.570489,0.308869 -0.797822,0.534132 -0.390186,0.386634 -0.956135,1.525513 -1.183785,1.944266 -0.528775,1.162866 -1.031153,2.366815 -1.223809,3.639932 -0.06616,0.437213 -0.175202,1.178036 0.375623,1.45587 0.291275,0.146918 0.651756,0.03026 0.977636,0.04539 1.140608,-0.615637 0.591703,-0.261696 1.643028,-1.067525 0.559279,-0.432675 -0.05262,-1.223616 -0.611897,-0.790937 v 0 c -0.851312,0.665678 -0.441097,0.379854 -1.217536,0.875988 -0.02339,0.0814 -0.02392,0.173257 -0.07019,0.244189 -0.02918,0.04473 -0.128506,0.130106 -0.13997,0.07795 -0.08483,-0.385945 0.160295,-1.343782 0.234087,-1.606921 0.29623,-1.056317 0.477422,-1.384165 0.912643,-2.398241 0.183865,-0.341946 0.353597,-0.691875 0.551593,-1.025838 0.143039,-0.241265 0.354965,-0.442076 0.470273,-0.697758 0.03337,-0.07399 -0.01781,-0.163358 -0.04793,-0.238726 -0.07146,-0.178801 -0.12473,-0.376398 -0.254688,-0.518481 -0.205844,-0.225048 0.617275,2.158631 -0.254032,0.878993 -0.160314,0.275542 -0.304729,0.560969 -0.480939,0.826624 -0.781682,1.178455 -1.845865,2.220097 -3.189814,2.718831 -0.693406,0.13852 -0.497511,1.119145 0.195895,0.980625 z" />
    <path
       style="fill:#ff0000;stroke-width:0.264583"
       id="path10269"
       d="m 82.225429,24.342322 c 0.919843,-0.103773 1.846564,-0.128342 2.764081,-0.253479 0.700448,-0.09682 0.563528,-1.087399 -0.136919,-0.990583 v 0 c -0.93672,0.131454 -1.885257,0.140942 -2.823131,0.263452 -0.693396,0.138571 -0.497427,1.119181 0.195969,0.98061 z" />
    <path
       style="fill:#ff0000;stroke-width:0.264583"
       id="path10271"
       d="m 87.336396,26.064617 c 0.939961,-0.218791 1.901063,-0.320366 2.859262,-0.419049 1.054478,-0.108598 2.215489,-0.212539 3.273182,-0.273705 0.490185,-0.02835 0.981183,-0.04018 1.471776,-0.06028 0.649753,-0.02623 1.300787,-0.0094 1.95063,-0.03396 0.150474,-0.0057 0.301903,-0.0082 0.450623,-0.03186 0.0966,-0.01534 0.233203,9.52e-4 0.281037,-0.08436 0.134512,-0.239905 0.142124,-0.531406 0.213188,-0.797109 -0.331964,-0.624339 -1.214913,-0.154871 -0.882948,0.469469 v 0 c 0.104748,-0.202344 0.205848,-0.406621 0.31425,-0.607032 0.0034,-0.0064 0.0096,0.0207 0.0024,0.02163 -0.131818,0.01703 -0.264832,0.02446 -0.397651,0.02944 -0.657177,0.02467 -1.315542,0.0076 -1.972611,0.03462 -0.501134,0.02069 -1.002678,0.03304 -1.503397,0.06208 -1.059982,0.06148 -2.255819,0.16797 -3.312851,0.277392 -0.986131,0.102083 -1.975114,0.207969 -2.942703,0.432074 -0.693418,0.138467 -0.497597,1.119107 0.19582,0.98064 z" />
    <path
       style="fill:#ff0000;stroke-width:0.264583"
       id="path10273"
       d="m 96.19776,23.090872 c 1.174626,0.364619 2.354493,0.730394 3.490513,1.205516 0.751697,0.314384 0.578447,0.131726 0.850247,0.543849 -0.0998,-0.108288 -0.15342,-0.305646 -0.29943,-0.324863 -0.2135,-0.0281 -0.407979,0.13802 -0.6127,0.20481 -1.172266,0.382452 -0.933498,0.303127 -2.108018,0.65348 -0.677577,0.202207 -0.391615,1.160448 0.285965,0.958241 v 0 c 0.43815,-0.130812 1.809379,-0.530672 2.213653,-0.691584 0.33668,-0.13401 0.74335,-0.197323 0.97902,-0.472601 0.2252,-0.263059 0.18775,-0.666644 0.28163,-0.999965 -0.15232,-0.148346 -0.27893,-0.328792 -0.45696,-0.445036 -0.23907,-0.156103 -0.51349,-0.250578 -0.77695,-0.360644 -1.15652,-0.483163 -2.357382,-0.855742 -3.552986,-1.227014 -0.67586,-0.207878 -0.969843,0.747932 -0.293984,0.955811 z" />
    <path
       style="fill:#ff0000;stroke-width:0.264583"
       id="path10275"
       d="m 107.85853,20.189663 c -0.28164,0.06948 -0.57726,0.09663 -0.84493,0.20844 -0.74164,0.309798 -1.59365,0.960477 -2.14917,1.498598 -0.73361,0.710631 -1.48755,1.63862 -1.87864,2.598518 -0.17647,0.43312 -0.21354,0.910679 -0.32031,1.366019 0.0911,0.410561 0.0654,0.8661 0.27327,1.231685 0.21807,0.383527 0.57256,0.693568 0.95066,0.920914 1.13865,0.684657 2.68432,0.489445 3.88697,0.142809 0.3415,-0.09843 0.66397,-0.253722 0.99595,-0.380582 0.65913,-0.256027 0.29706,-1.188175 -0.36207,-0.932148 v 0 c -0.28317,0.112085 -0.55815,0.247568 -0.8495,0.336251 -0.96154,0.292695 -2.06185,0.468577 -3.02549,0.07022 -0.23292,-0.09628 -0.47847,-0.216103 -0.63076,-0.416917 -0.16191,-0.213492 -0.17454,-0.50667 -0.26181,-0.760005 0.0705,-0.360726 0.0782,-0.739602 0.21138,-1.08218 0.49457,-1.272487 1.57351,-2.377332 2.65938,-3.164671 0.39963,-0.289767 0.74896,-0.448799 1.16647,-0.653028 0.69573,0.126295 0.87434,-0.857625 0.1786,-0.98392 z" />
    <path
       style="fill:#ff0000;stroke-width:0.264583"
       id="path10277"
       d="m 110.40736,25.113122 c 0.22489,-0.0646 0.45723,-0.107389 0.67468,-0.193797 1.40506,-0.558337 2.41249,-1.615684 3.2483,-2.84616 0.21097,-0.310586 0.38695,-0.643552 0.58042,-0.965328 0.17456,-0.354117 0.58511,-1.079186 0.63311,-1.526697 0.0712,-0.664232 -0.2843,-0.98448 -1.13348,-0.688395 -0.45496,0.158632 -1.43248,1.725994 -1.59011,1.95409 -0.86876,1.447196 -1.59654,2.977814 -2.06137,4.604297 -0.12581,0.440221 -0.43734,1.725352 -0.35599,2.280371 0.0387,0.26381 0.20997,0.49018 0.31496,0.735271 0.30258,0.104947 0.58749,0.318704 0.90773,0.314839 0.34194,-0.0041 0.66299,-0.184441 0.96879,-0.3375 0.85324,-0.427059 1.63611,-1.219967 2.30038,-1.892858 0.49573,-0.504237 -0.21736,-1.205302 -0.71309,-0.701066 v 0 c -0.5025,0.513466 -0.66684,0.712694 -1.25707,1.172802 -0.22942,0.178837 -0.47746,0.332406 -0.71618,0.49861 -0.15789,0.08866 -0.32949,0.156421 -0.47365,0.265988 -0.0647,0.04913 -0.0929,0.133228 -0.13928,0.199843 -0.0648,-0.06571 -0.18063,-0.105895 -0.19432,-0.197144 -0.0772,-0.514723 0.19291,-1.621525 0.30538,-2.019877 0.43464,-1.539467 1.12201,-2.987261 1.93869,-4.358415 0.24091,-0.355124 0.46823,-0.71986 0.72273,-1.065373 0.14212,-0.19294 0.43301,-0.310392 0.46553,-0.547808 0.026,-0.189577 -0.24286,-0.300196 -0.32578,-0.472641 -0.0128,-0.02667 0.0846,-0.06753 0.0801,-0.03828 -0.0722,0.467959 -0.33391,0.894161 -0.53541,1.306865 -0.1734,0.29198 -0.33092,0.593997 -0.52022,0.875938 -0.81063,1.207414 -1.80366,2.267796 -3.24869,2.650128 -0.70166,0.08758 -0.57781,1.07988 0.12385,0.992301 z" />
    <path
       style="fill:#ff0000;stroke-width:0.264583"
       id="path10279"
       d="m 116.06358,22.394643 c -0.17664,0.762426 -0.33088,1.531193 -0.41451,2.310111 -0.0312,0.290955 -0.0779,0.860639 -0.0366,1.186037 0.0143,0.112926 0.0596,0.219728 0.0894,0.329593 0.22743,0.669532 1.17429,0.347899 0.94686,-0.321635 v 0 c -0.0123,-0.01401 -0.0345,-0.02355 -0.0368,-0.04204 -0.0379,-0.303615 -0.001,-0.738431 0.0279,-1.016455 0.0796,-0.75421 0.23048,-1.498152 0.40156,-2.236172 0.1481,-0.691425 -0.82973,-0.900861 -0.97782,-0.209436 z" />
    <path
       style="fill:#ff0000;stroke-width:0.264583"
       id="path10281"
       d="m 115.33639,25.801461 c 0.55532,-0.181858 1.11889,-0.323698 1.68968,-0.445968 0.69116,-0.149298 0.48002,-1.126754 -0.21114,-0.977456 v 0 c -0.59166,0.128763 -1.17735,0.272336 -1.75315,0.46187 -0.67992,0.194182 -0.40531,1.155736 0.27461,0.961554 z" />
    <path
       style="fill:#ff0000;stroke-width:0.264583"
       id="path10283"
       d="m 121.14817,20.629219 c -0.45309,1.248913 -0.95147,2.482135 -1.35104,3.750025 -0.0917,0.291113 -0.19243,0.580825 -0.25366,0.879848 -0.0439,0.214328 -0.0402,0.435698 -0.0603,0.653547 0.16186,0.213079 0.24154,0.529495 0.48559,0.639237 0.48996,0.220322 1.30111,-0.112593 1.73795,-0.277532 0.26504,-0.100072 1.09627,-0.466262 1.38731,-0.59328 0.64806,-0.282874 0.24802,-1.19937 -0.40005,-0.916496 v 0 c -0.29223,0.127581 -1.0362,0.455114 -1.31623,0.565436 -0.14538,0.05728 -0.68894,0.161983 -0.83572,0.402499 -0.0458,0.07501 -0.0412,0.170861 -0.0617,0.256292 0.0368,-0.688729 -0.012,-0.411959 0.26445,-1.290067 0.39732,-1.262244 0.89467,-2.48941 1.34507,-3.73284 0.23807,-0.665828 -0.70356,-1.002497 -0.94162,-0.336669 z" />
    <path
       style="fill:#ff0000;stroke-width:0.264583"
       id="path10285"
       d="m 122.56768,23.542096 c -0.18368,1.468652 -0.6445,2.894304 -0.75637,4.373959 -0.0116,0.153202 10e-4,0.307274 0.002,0.460912 0.21404,0.162044 0.42809,0.324088 0.64213,0.486132 0.70602,-0.03922 0.65055,-1.037685 -0.0555,-0.998461 v 0 c 0.13775,0.166286 0.2755,0.332568 0.41325,0.498851 -0.014,-0.510849 -0.0257,-0.35542 0.0794,-1.056791 0.18296,-1.22114 0.50661,-2.41587 0.66769,-3.640448 0.0878,-0.701636 -0.90448,-0.82579 -0.99227,-0.124154 z" />
    <path
       style="fill:#ff0000;stroke-width:0.264583"
       id="path10287"
       d="m 126.03295,24.146685 c 0.18066,0.04179 0.35868,0.09733 0.54197,0.125369 0.92117,0.140912 2.11509,0.114203 2.89977,-0.465006 0.18368,-0.135575 0.31467,-0.330833 0.472,-0.496249 0.0662,-0.223942 0.20293,-0.438358 0.19849,-0.671827 -0.0175,-0.9212 -0.8671,-1.496105 -1.7314,-1.444161 -0.9362,0.05626 -1.29737,0.462755 -2.03878,0.971084 -0.28655,0.333402 -0.6123,0.636774 -0.85965,1.000207 -0.81076,1.191243 -1.50001,3.251236 -0.30125,4.451744 0.26422,0.264607 0.64557,0.377547 0.96836,0.566319 0.40475,0.02984 0.81015,0.127257 1.21424,0.08951 0.75187,-0.07023 1.61276,-0.444013 2.23161,-0.86529 0.28643,-0.194988 0.52163,-0.456253 0.78244,-0.684382 0.52627,-0.472264 -0.14161,-1.216531 -0.66788,-0.744267 v 0 c -0.19827,0.183839 -0.37506,0.393981 -0.59481,0.551518 -0.48549,0.348043 -1.12489,0.63899 -1.71633,0.743037 -0.26102,0.04592 -0.5299,0.01273 -0.79485,0.01908 -0.1965,-0.07613 -0.41821,-0.105641 -0.58951,-0.228386 -0.46813,-0.335447 -0.51579,-0.742665 -0.4727,-1.299723 0.0543,-0.702303 0.32904,-1.370298 0.70682,-1.95649 0.19311,-0.299647 0.45009,-0.552947 0.67513,-0.82942 0.24018,-0.181481 0.46121,-0.391571 0.72054,-0.544442 0.38891,-0.229257 0.90859,-0.403291 1.32447,-0.143489 0.0634,0.03959 0.12844,0.08802 0.16233,0.154623 0.0324,0.0636 0.0164,0.141775 0.0246,0.212662 -0.061,0.08839 -0.10097,0.195782 -0.18292,0.265176 -0.6624,0.560938 -1.84774,0.458436 -2.63112,0.282938 -0.66458,-0.241516 -1.00614,0.698345 -0.34156,0.939862 z" />
    <path
       style="fill:#ff0000;stroke-width:0.264583"
       id="path10289"
       d="m 125.66245,20.669019 c 1.05437,-0.07682 2.10928,-0.145791 3.16377,-0.221531 0.70529,-0.05066 0.63364,-1.04809 -0.0717,-0.997431 v 0 c -1.05427,0.07573 -2.10897,0.144709 -3.16313,0.221487 -0.70532,0.05021 -0.63431,1.047687 0.071,0.997475 z" />
    <path
       style="fill:#ff0000;stroke-width:0.264583"
       id="path10291"
       d="m 149.45692,0.87029651 c 0.11524,-0.0731256 0.54077,-0.384123 0.69679,-0.31263817 0.0231,0.0105712 -0.10749,0.0723235 -0.11925,0.18074227 -0.0115,0.10628982 0.002,0.21382032 0.002,0.32073049 -0.0778,0.4786678 -0.0801,0.6725043 -0.29156,1.1387716 -0.31726,0.6996851 -0.84415,1.2820086 -1.41723,1.7790292 -0.31409,0.3035943 -0.47579,0.3726995 0.34752,0.9849456 0.13416,0.099772 0.32365,-0.084066 0.48522,-0.1271008 0.63787,-0.1699043 1.27476,-0.3403108 1.90883,-0.5239525 0.18226,-0.062831 0.36453,-0.1256612 0.54679,-0.1884918 0.66824,-0.2311972 0.34128,-1.1762346 -0.32696,-0.9450374 v 0 c -0.16608,0.057688 -0.33216,0.1153771 -0.49824,0.1730655 -0.6327,0.1835568 -1.27218,0.3404634 -1.90504,0.522863 -0.0938,0.027023 -0.27823,-0.00663 -0.27825,0.090945 -7e-5,0.3026318 0.1433,0.593293 0.27804,0.8642726 0.0212,0.042644 0.068,-0.066741 0.10194,-0.1001117 0.11789,-0.1045562 0.24191,-0.2025769 0.35366,-0.3136689 0.75008,-0.745664 1.37982,-1.6502649 1.60158,-2.7011567 0.0541,-0.2561818 0.0571,-0.5205233 0.0857,-0.78078505 -0.0921,-0.50226324 -0.0503,-0.87712661 -0.52536,-1.20225143 -0.56524,-0.38683623 -1.19938,0.0383425 -1.66007,0.35027408 -0.5583,0.43393694 0.0554,1.2234921 0.61368,0.78955521 z" />
    <path
       style="fill:#ff0000;stroke-width:0.264583"
       id="path10293"
       d="m 73.232737,37.392131 c -0.387271,1.414653 -0.781529,2.827263 -1.13333,4.251346 -0.14877,0.60221 -0.445844,2.012733 -0.684747,2.678088 -0.07106,0.197917 -0.190905,0.374751 -0.286356,0.562129 -0.05619,0.03725 -0.112371,0.0745 -0.168555,0.111749 -0.518128,0.481193 0.16238,1.213932 0.680506,0.732743 v 0 c 0.128328,-0.134112 0.256656,-0.268222 0.384984,-0.402334 0.117227,-0.244043 0.260178,-0.477327 0.351674,-0.732136 0.241271,-0.671912 0.537197,-2.07848 0.690999,-2.701248 0.352986,-1.4293 0.749533,-2.846813 1.137198,-4.266901 0.165065,-0.68757 -0.807308,-0.921006 -0.972373,-0.233436 z" />
    <path
       style="fill:#ff0000;stroke-width:0.264583"
       id="path10295"
       d="m 73.068325,37.709004 c 1.089924,-0.937046 2.541841,-1.47577 3.983085,-1.131205 0.249901,0.05974 0.474398,0.197559 0.711594,0.296338 0.117795,0.127096 0.29101,0.219612 0.353383,0.381286 0.07296,0.189103 -0.48014,0.531532 -0.481471,0.532395 -0.798086,0.517596 -1.245282,0.733663 -2.152554,1.11525 -0.350094,0.147249 -0.710901,0.267605 -1.066353,0.401407 -0.198898,0.05761 -0.397793,0.115216 -0.596691,0.172824 -0.67872,0.198334 -0.398235,1.158192 0.280487,0.959858 v 0 c 0.223195,-0.06573 0.446387,-0.131466 0.669579,-0.1972 0.86492,-0.327795 1.655246,-0.595172 2.471549,-1.054229 0.915258,-0.514707 2.326947,-1.364306 1.559547,-2.659698 -0.151834,-0.256302 -0.450792,-0.389564 -0.676188,-0.584345 -0.327202,-0.119904 -0.640611,-0.287883 -0.981612,-0.359712 -1.554734,-0.327496 -3.060107,0.145902 -4.324884,1.044332 -0.181361,0.128831 -0.339172,0.287962 -0.508757,0.431943 -0.460155,0.536897 0.299133,1.187653 0.759286,0.650756 z" />
    <path
       style="fill:#ff0000;stroke-width:0.264583"
       id="path10297"
       d="m 79.706466,34.999543 c -0.193217,2.444623 -0.428696,4.890783 -0.782886,7.318103 0.04303,0.145867 -0.02201,0.420428 0.129088,0.437605 1.026004,0.116625 1.137687,-0.335534 1.662176,-0.920367 0.334253,-0.37271 0.625726,-0.747845 1.102098,-0.943679 0.120912,-0.04971 0.259937,-0.0282 0.389906,-0.0423 0.069,0.06724 0.150622,0.123586 0.207012,0.201702 0.476528,0.660117 0.798325,1.813854 0.282004,2.53895 -0.143272,0.201205 -0.374317,0.322381 -0.561473,0.483571 -0.287911,0.10642 -0.561646,0.264834 -0.863729,0.319262 -0.73378,0.132204 -2.197986,0.0401 -2.796503,-0.498113 -0.30466,-0.273965 0.184616,-0.287274 0.222337,-0.294325 0.302303,-0.639231 -0.601705,-1.066747 -0.904007,-0.427519 v 0 c -0.07413,0.304131 -0.268896,0.602832 -0.222388,0.912394 0.09886,0.658032 0.866733,0.984216 1.381858,1.13288 0.805342,0.232421 1.889427,0.298696 2.703571,0.09765 0.421288,-0.104032 0.791006,-0.357111 1.186511,-0.535668 0.268888,-0.295555 0.60938,-0.5392 0.806664,-0.886666 0.179562,-0.316257 0.261911,-0.688531 0.293404,-1.050841 0.07501,-0.862822 -0.367231,-2.186905 -1.110427,-2.700107 -0.238363,-0.164597 -0.550029,-0.181951 -0.825042,-0.272926 -0.247764,0.06309 -0.511397,0.0816 -0.743291,0.189265 -0.558583,0.259352 -0.910619,0.683077 -1.310471,1.128847 -0.180829,0.201597 -0.516916,0.348414 -0.526142,0.619075 -0.0093,0.271923 0.668475,0.29469 0.486394,0.655497 0.358092,-2.460834 0.598839,-4.940358 0.792392,-7.418821 0.03074,-0.706438 -0.968314,-0.749911 -0.999056,-0.04347 z" />
    <path
       style="fill:#ff0000;stroke-width:0.264583"
       id="path10299"
       d="m 85.753614,38.184084 c -0.120018,1.076931 -0.34716,2.152285 -0.294392,3.240048 0.03926,0.706017 1.037717,0.650497 0.998458,-0.05552 v 0 c -0.06779,-1.032092 0.198557,-2.056757 0.290428,-3.079737 0.0741,-0.703215 -0.920395,-0.808006 -0.994494,-0.104791 z" />
    <path
       style="fill:#ff0000;stroke-width:0.264583"
       id="path10301"
       d="m 84.786485,40.742105 c 0.528206,-0.104627 1.054878,-0.211659 1.585047,-0.306427 0.696024,-0.124704 0.519666,-1.10903 -0.176358,-0.984327 v 0 c -0.536731,0.09637 -1.070131,0.203925 -1.60488,0.310189 -0.693365,0.138727 -0.497174,1.119294 0.196191,0.980565 z" />
    <path
       style="fill:#ff0000;stroke-width:0.264583"
       id="path10303"
       d="m 90.814024,39.595083 c 0.02455,-0.199141 0.03086,-0.401386 0.07362,-0.597424 0.132588,-0.607779 0.412961,-1.42072 0.648081,-1.982078 0.129434,-0.309025 0.264517,-0.617424 0.432535,-0.907285 0.353015,-0.609024 0.217615,-0.607677 0.555424,-0.462447 -0.06111,0.09334 -0.175773,0.168709 -0.183335,0.280019 -0.01751,0.257651 0.07482,0.511045 0.112231,0.766567 0.0065,0.389525 0.04756,0.78001 0.01947,1.168574 -0.06062,0.838277 -0.268324,1.834999 -0.592926,2.614793 -0.147486,0.354306 -0.370623,0.672145 -0.555934,1.008216 -0.219252,0.219453 -0.412872,0.467926 -0.657754,0.658357 -0.456372,0.354888 -1.024218,0.538446 -1.594824,0.554305 -0.01146,2.64e-4 0.02638,-0.0273 0.03018,-0.01648 0.102376,0.290806 0.183269,0.588735 0.274905,0.883103 0.892665,-0.160642 1.796397,-0.112768 2.693739,-0.03081 0.251386,0.02297 0.501348,0.06252 0.753359,0.07717 0.252626,0.01468 0.506055,0.0071 0.759084,0.01071 0.851416,-0.121168 0.45656,-0.02829 1.189463,-0.25691 0.672378,-0.218879 0.362837,-1.169765 -0.309541,-0.950886 v 0 c -0.520755,0.179752 -0.23318,0.102873 -0.868497,0.207862 -0.222925,-0.0019 -0.446228,0.0075 -0.66878,-0.0056 -0.259535,-0.01524 -0.516966,-0.056 -0.775909,-0.07922 -1.042291,-0.09343 -2.096492,-0.144208 -3.125539,0.09191 -0.04058,0.344191 -0.168701,0.689192 -0.121748,1.032571 0.01215,0.0889 0.177631,0.03537 0.26728,0.03177 0.186936,-0.0075 0.375502,-0.02148 0.557495,-0.06485 0.617527,-0.147108 1.163717,-0.377145 1.660404,-0.791784 0.30643,-0.25581 0.544356,-0.583972 0.816533,-0.875958 0.210944,-0.397518 0.46378,-0.775497 0.632836,-1.19256 0.514257,-1.268682 0.777211,-2.916883 0.595198,-4.280582 -0.05306,-0.397515 -0.07606,-0.830509 -0.295293,-1.16632 -0.198231,-0.303636 -0.587957,-0.42458 -0.881936,-0.636871 -0.230433,0.101341 -0.49839,0.142295 -0.691303,0.304019 -0.375785,0.315027 -0.807048,1.3021 -0.965541,1.68397 -0.394028,0.949367 -0.731661,1.948775 -0.781246,2.982926 0.04156,0.705884 1.039833,0.64711 0.998273,-0.05877 z" />
    <path
       style="fill:#ff0000;stroke-width:0.264583"
       id="path10305"
       d="m 95.715803,39.761133 c 0.854406,-0.17276 1.727568,-0.28712 2.544482,-0.607909 0.177353,-0.06964 0.354314,-0.145275 0.515694,-0.246571 0.127609,-0.08009 0.229391,-0.195387 0.344085,-0.293081 0.0028,-0.251778 0.171122,-0.563203 0.0084,-0.75533 -0.192262,-0.226973 -0.560099,-0.253672 -0.85748,-0.247079 -0.314579,0.007 -0.613294,0.155477 -0.899584,0.286036 -0.657304,0.299754 -1.460307,0.859623 -1.962539,1.372153 -0.279929,0.285668 -0.494135,0.629044 -0.741203,0.943568 -0.248801,0.614016 -0.638228,1.18356 -0.344321,1.888074 0.317934,0.762111 0.951828,0.968714 1.71196,0.998776 0.819504,0.03241 1.427022,-0.266967 2.170771,-0.535173 1.071496,-0.57413 0.591571,-0.25324 1.456256,-0.937559 0.549776,-0.444682 -0.07909,-1.22219 -0.628875,-0.777507 v 0 c -0.671436,0.55862 -0.287417,0.288607 -1.174451,0.777227 -0.702786,0.268176 -1.441151,0.591193 -2.217835,0.482116 -0.114043,-0.01601 -0.254791,-0.02771 -0.324096,-0.119687 -0.279625,-0.371097 0.02802,-0.837938 0.143145,-1.166464 0.612386,-0.816456 0.55078,-0.856662 1.414126,-1.481693 0.261022,-0.18897 0.541584,-0.351165 0.827413,-0.499972 0.182965,-0.09526 0.417946,-0.09563 0.574535,-0.229907 0.187931,-0.161153 -0.46128,-0.689314 0.158279,-0.725631 -0.03243,0.04084 -0.05364,0.094 -0.09731,0.122521 -0.269748,0.17622 -0.672026,0.303313 -0.967031,0.386617 -0.617749,0.17444 -1.252439,0.260334 -1.879327,0.392099 -0.688989,0.159044 -0.464064,1.133422 0.224925,0.974376 z" />
    <path
       style="fill:#ff0000;stroke-width:0.264583"
       id="path10307"
       d="m 102.80672,38.643782 c 2.05512,-0.07541 4.10941,-0.186365 6.15201,-0.429684 0.70212,-0.08384 0.58355,-1.076782 -0.11856,-0.992946 v 0 c -2.02511,0.242411 -4.06223,0.348538 -6.09975,0.424828 -0.70555,0.04688 -0.63925,1.044678 0.0663,0.997802 z" />
    <path
       style="fill:#ff0000;stroke-width:0.264583"
       id="path10309"
       d="m 108.47535,35.90739 c 0.58919,0.420004 1.16825,0.875852 1.65648,1.413531 0.19003,0.209282 0.55365,0.580247 0.51133,0.937754 -0.01,0.08175 -0.10845,0.123868 -0.16268,0.185801 -0.52277,0.322565 -0.222,0.156319 -0.91514,0.47475 -0.63419,0.312743 -0.19191,1.209617 0.44228,0.896877 v 0 c 1.05688,-0.546979 0.58189,-0.196501 1.42169,-1.055849 0.0556,-0.26815 0.18375,-0.531111 0.16688,-0.80445 -0.032,-0.517744 -0.44875,-1.003517 -0.77004,-1.35455 -0.54144,-0.591547 -1.18195,-1.093097 -1.83644,-1.551437 -0.60639,-0.36371 -1.12076,0.493863 -0.51436,0.857573 z" />
    <path
       style="fill:#ff0000;stroke-width:0.264583"
       id="path10311"
       d="m 116.45939,33.118464 c -0.0656,1.899849 -0.3663,3.783232 -0.70086,5.651431 -0.10309,0.575631 -0.207,1.151367 -0.33115,1.722822 -0.0976,0.449384 -0.22262,0.892381 -0.33393,1.338572 -0.3824,0.868124 -0.14625,0.554844 -0.58029,1.023945 -0.45079,0.544777 0.31964,1.182301 0.77044,0.637524 v 0 c 0.59691,-0.769003 0.31103,-0.310814 0.78024,-1.419931 0.11519,-0.463812 0.24423,-0.924404 0.34558,-1.391436 0.12575,-0.579448 0.23107,-1.163217 0.33547,-1.74689 0.34903,-1.951363 0.66693,-3.920869 0.71039,-5.906638 -0.0641,-0.704196 -1.05995,-0.613598 -0.99589,0.0906 z" />
    <path
       style="fill:#ff0000;stroke-width:0.264583"
       id="path10313"
       d="m 116.7919,35.20709 c 0.58503,-0.453017 1.20179,-0.8695 1.88106,-1.170408 0.3849,-0.170511 0.87188,-0.389379 1.31974,-0.277847 0.0982,0.02445 0.15379,0.131459 0.23068,0.197186 -0.002,0.08884 0.0126,0.179798 -0.007,0.266536 -0.25018,1.120312 -1.55879,2.107965 -2.49711,2.618317 -0.32784,0.178308 -0.68927,0.286345 -1.0339,0.429519 -0.24435,0.04209 -0.4887,0.08418 -0.73305,0.126275 -0.69489,0.130895 -0.50977,1.113613 0.18511,0.982718 v 0 c 0.31308,-0.06291 0.62616,-0.125822 0.93924,-0.188732 0.4011,-0.173919 0.82161,-0.308568 1.20329,-0.521756 0.73838,-0.412427 1.66835,-1.128689 2.19495,-1.803471 0.42489,-0.544447 0.81067,-1.308256 0.65971,-2.038895 -0.0593,-0.287076 -0.29873,-0.504458 -0.44809,-0.756688 -0.24644,-0.103327 -0.47528,-0.268829 -0.73931,-0.309983 -0.59233,-0.09232 -1.22271,0.158793 -1.74031,0.391954 -0.74831,0.337082 -1.43003,0.798002 -2.07349,1.302493 -0.53229,0.465469 0.12598,1.218251 0.65827,0.752782 z" />
    <path
       style="fill:#ff0000;stroke-width:0.264583"
       id="path10315"
       d="m 123.12037,32.9659 c 0.0384,-0.118562 0.072,-0.238765 0.11515,-0.355687 0.0403,-0.109207 0.08,-0.219464 0.13485,-0.322106 0.0106,-0.01987 0.023,0.06166 0.001,0.06761 -0.2423,0.06628 -0.59396,-0.06848 -0.74142,0.134879 -0.18835,0.259747 -0.0242,0.641554 -0.0533,0.961078 -0.0479,0.525523 -0.11858,1.048726 -0.17787,1.57309 -0.13325,1.150184 -0.34448,2.289427 -0.49497,3.437134 -0.0523,0.399269 -0.12459,0.798345 -0.13052,1.200991 -0.003,0.229555 -0.0669,0.526383 0.10279,0.681032 0.86321,0.786728 1.19882,0.115171 1.80954,-0.391379 0.45674,-0.42685 1.03694,-1.024681 1.59548,-1.34021 0.25884,-0.146228 0.68124,-0.386244 0.90436,-0.02973 0.10421,0.166534 0.12102,0.985456 0.12506,1.051327 -0.0726,0.252005 -0.10859,0.51757 -0.21776,0.756015 -0.21659,0.473054 -0.52867,0.893487 -1.04452,1.068753 -0.4828,0.164039 -1.06297,0.03609 -1.51027,-0.148918 -0.22113,-0.09147 -0.41108,-0.245129 -0.61662,-0.367692 -0.23801,-0.33655 -0.33789,-0.280196 -0.1029,-0.328295 -0.0107,-0.707025 -1.01058,-0.691898 -0.99989,0.01513 v 0 c 0.16797,0.891178 -0.0272,0.490638 0.6157,1.186516 0.76339,0.405263 1.10765,0.699347 2.04139,0.692037 1.25696,-0.0098 2.15113,-0.734426 2.5888,-1.881294 0.13594,-0.356224 0.15869,-0.745868 0.23803,-1.118804 -0.13186,-0.77978 -0.0614,-1.392549 -0.83739,-1.884881 -0.25826,-0.163848 -0.59934,-0.192389 -0.90347,-0.160065 -0.90977,0.0967 -1.92585,1.176647 -2.55531,1.756246 -0.21834,0.244991 -0.78869,0.595498 -0.14632,0.946584 0.11856,0.0648 -0.0954,-0.259553 -0.0925,-0.394636 0.008,-0.389761 0.0749,-0.776246 0.12564,-1.162783 0.15206,-1.159148 0.36549,-2.309747 0.49942,-3.471495 0.0611,-0.547666 0.14065,-1.093586 0.18325,-1.643002 0.0307,-0.395747 0.20155,-0.829286 0.0364,-1.190252 -0.44443,-0.971581 -0.84789,-0.91694 -1.1663,-0.39692 -0.0974,0.159047 -0.23392,0.620025 -0.29053,0.796433 -0.18617,0.682157 0.77855,0.945449 0.96472,0.263293 z" />
    <path
       style="fill:#ff0000;stroke-width:0.264583"
       id="path10317"
       d="m 82.986786,32.299597 c -0.28085,0.432065 -0.590613,0.843638 -0.870077,1.276718 -0.123917,0.192032 -0.398745,0.601091 -0.433943,0.846265 -0.0254,0.176911 0.02342,0.356682 0.03511,0.535022 0.168703,0.156821 0.302924,0.361979 0.506111,0.470463 0.421857,0.225232 1.194972,0.07261 1.640178,-0.0088 0.69455,-0.132657 0.506947,-1.114901 -0.187605,-0.982245 v 0 c -0.443521,0.08957 -0.299977,0.07539 -0.750565,0.107379 -0.07167,0.0051 -0.159364,-0.03501 -0.215315,0.01008 -0.04651,0.03747 -0.01228,0.118824 -0.01842,0.178236 -0.02558,0.01678 -0.07883,0.08089 -0.07674,0.05037 0.01312,-0.191296 0.258797,-0.53662 0.332174,-0.650486 0.324215,-0.5031 0.281572,-0.409887 0.620972,-0.904788 0.07097,-0.103481 0.138253,-0.209441 0.20738,-0.314163 0.434205,-0.558091 -0.355055,-1.172149 -0.78926,-0.614058 z" />
    <path
       style="fill:#ff0000;stroke-width:0.264583"
       id="path10319"
       d="m 83.825941,33.987218 c -0.145441,0.640049 -0.252692,1.287693 -0.346387,1.937023 -0.10078,0.699889 0.889013,0.842409 0.989791,0.14252 v 0 c 0.09006,-0.626866 0.193818,-1.252029 0.334364,-1.869847 0.148278,-0.691383 -0.82949,-0.901081 -0.977768,-0.209696 z" />
    <path
       style="fill:#ff0000;stroke-width:0.264583"
       id="path10321"
       d="m 86.092439,33.346834 c -0.07907,0.792962 -0.232397,1.619345 -0.01842,2.403414 0.212524,0.674413 1.166289,0.373859 0.953765,-0.300553 v 0 c -0.06467,-0.09497 -0.06069,-0.538263 -0.06034,-0.593831 0.003,-0.47557 0.06958,-0.946663 0.120875,-1.418431 0.06406,-0.704199 -0.931825,-0.794798 -0.995889,-0.0906 z" />
    <path
       style="fill:#ff0000;stroke-width:0.264583"
       id="path10323"
       d="m 85.707708,35.048975 c 0.619914,-0.02867 0.303282,-0.01278 0.949878,-0.04797 0.706062,-0.03843 0.651714,-1.036949 -0.05435,-0.998521 v 0 c -0.623892,0.03397 -0.325374,0.01863 -0.89553,0.04649 -0.707106,0 -0.707106,1 0,1 z" />
    <path
       style="fill:#ff0000;stroke-width:0.264583"
       id="path10325"
       d="m 125.15617,32.509251 c 0.26381,-0.394753 0.73425,-1.253144 1.24674,-1.340409 0.0392,-0.0067 0.086,0.04713 0.082,0.0867 -0.005,0.04822 -0.0675,0.06959 -0.10122,0.104389 -0.0236,0.430212 -0.24792,0.817351 -0.61085,1.054317 -0.15824,0.103317 -0.32943,0.145632 -0.50537,0.199953 -0.37027,0.107702 -0.32167,0.07126 0.27808,0.973209 0.0507,0.07619 0.18131,-0.02495 0.2723,-0.0346 0.44241,-0.04692 0.88609,-0.06784 1.33031,-0.08832 0.54868,-0.04492 0.28674,-0.01177 0.78646,-0.09409 0.69711,-0.118486 0.52955,-1.104347 -0.16756,-0.985864 v 0 c -0.40235,0.07114 -0.18109,0.04062 -0.66516,0.08103 -0.4711,0.02191 -0.9414,0.04497 -1.41055,0.09528 -0.0983,0.01056 -0.27535,-0.05942 -0.29426,0.03765 -0.0635,0.326072 0.0284,0.666472 0.0936,0.9922 0.007,0.03386 0.0661,-0.01992 0.0992,-0.02989 0.3453,-0.124153 0.56182,-0.177721 0.87391,-0.423662 0.52982,-0.417518 0.93252,-1.093094 0.87581,-1.791954 -0.0184,-0.226655 -0.13898,-0.433043 -0.20847,-0.649565 -0.19445,-0.146034 -0.35208,-0.362966 -0.58336,-0.438097 -0.20268,-0.06584 -0.43445,-0.02183 -0.63796,0.04135 -0.69324,0.215244 -1.312,1.205889 -1.66401,1.796597 -0.29259,0.643734 0.61779,1.057513 0.91038,0.41378 z" />
    <path
       style="fill:#ff0000;stroke-width:0.264583"
       id="path10327"
       d="m 128.76085,30.652868 c -0.0496,0.56375 -0.1063,1.13329 -0.0966,1.700149 0.002,0.115205 0.0249,0.70096 0.12918,0.844695 0.10892,0.15008 0.2824,0.240414 0.4236,0.360622 0.21146,-0.115287 0.42292,-0.230571 0.63439,-0.345858 0.35481,-0.611645 -0.51018,-1.113427 -0.865,-0.501782 v 0 c 0.16687,-0.03841 0.33373,-0.07682 0.50059,-0.115224 0.0882,0.105347 0.15836,0.228915 0.26459,0.31604 0.0397,0.03253 -0.0462,-0.09325 -0.0546,-0.143849 -0.0211,-0.127013 -0.0309,-0.256098 -0.0332,-0.384828 -0.003,-0.180068 0.0342,-0.979789 0.0461,-1.148123 0.0121,-0.170508 0.0322,-0.340344 0.0484,-0.510516 0.0504,-0.705305 -0.94702,-0.776631 -0.99745,-0.07133 z" />
    <path
       style="fill:#ff0000;stroke-width:0.264583"
       id="path10329"
       d="m 128.64581,31.681533 c 0.71313,0.09413 1.4324,0.116552 2.14751,0.18904 0.70356,0.07078 0.80366,-0.924198 0.1001,-0.994979 v 0 c -0.70152,-0.07008 -1.40662,-0.09503 -2.10638,-0.184039 -0.70002,-0.09986 -0.84125,0.890114 -0.14123,0.989978 z" />
    <path
       style="fill:#00ff00;stroke-width:0.264583"
       id="path10331"
       d="m 69.076458,24.755792 c -1.490657,1.422969 -2.895944,2.932028 -4.329271,4.412089 -0.491916,0.507955 0.226443,1.203629 0.718359,0.695674 v 0 c 1.429542,-1.476158 2.83101,-2.981328 4.317823,-4.400459 0.500139,-0.49986 -0.206772,-1.207164 -0.706911,-0.707304 z" />
    <path
       style="fill:#00ff00;stroke-width:0.264583"
       id="path10333"
       d="m 69.626336,37.459605 c -1.655617,1.882793 -3.298155,3.7778 -5.019278,5.601276 -0.485293,0.514287 0.242015,1.200598 0.727311,0.686311 v 0 c 1.73473,-1.838814 3.391781,-3.748328 5.060079,-5.647272 0.452771,-0.543137 -0.315341,-1.183452 -0.768112,-0.640315 z" />
    <path
       style="fill:#00ff00;stroke-width:0.264583"
       id="path10335"
       d="m 65.956793,26.637514 c 0.138964,-0.791796 0.23844,-1.599618 0.197678,-2.405326 -0.0071,-0.140882 0.06323,-0.336568 -0.05038,-0.420176 -0.249118,-0.183325 -0.591807,-0.180107 -0.887709,-0.270159 -0.101883,0.282969 -0.242406,0.554881 -0.305652,0.848909 -0.06566,0.305223 -0.06574,0.621409 -0.07772,0.933383 -0.03941,1.025574 0.07456,2.047445 0.06869,3.072274 -0.0031,0.707102 0.996868,0.711518 0.99999,0.0044 v 0 c 0.0032,-0.999723 -0.103783,-1.997164 -0.07184,-2.997311 0.0087,-0.273332 0.0694,-0.544723 0.06175,-0.818088 -0.0024,-0.08302 -0.06076,-0.154586 -0.09115,-0.231879 -0.229386,-0.137915 -0.42468,-0.366662 -0.68816,-0.413744 -0.09886,-0.01767 0.03671,0.198037 0.0422,0.298315 0.04073,0.743715 -0.0531,1.489588 -0.181544,2.220377 -0.126576,0.695684 0.857271,0.874694 0.983848,0.179009 z" />
    <path
       style="fill:#00ff00;stroke-width:0.264583"
       id="path10337"
       d="m 66.898995,37.706022 c 0.09092,-0.706837 0.188961,-1.411804 0.228108,-2.123882 0.0062,-0.113173 0.119404,-0.303252 0.01212,-0.339818 -0.319683,-0.108958 -0.675484,-7.93e-4 -1.013224,-0.0013 -0.07701,1.252091 0.03968,2.504581 0.05992,3.756539 0.01114,0.689517 0.01754,0.529071 -0.03867,1.026072 -0.07387,0.703239 0.920663,0.807702 0.994529,0.104463 v 0 c 0.154102,-1.558263 -0.110339,-3.125674 -0.03587,-4.687599 -0.322022,-0.07768 -0.635818,-0.258905 -0.966066,-0.23305 -0.102915,0.0081 -0.0051,0.206422 -0.01061,0.309507 -0.03008,0.56679 -0.104447,1.12495 -0.17602,1.687568 -0.01656,0.130286 -0.03206,0.260707 -0.04809,0.391059 -0.07816,0.702776 0.915718,0.813303 0.993873,0.110527 z" />
    <path
       style="fill:#00ff00;stroke-width:0.264583"
       id="path10339"
       d="M 5.2298449,9.5954383 C 5.8518088,8.0395679 6.1438548,6.3801749 6.3823309,4.7292201 6.4453251,4.3736553 6.6396959,3.3616108 5.3532145,5.0810371 5.1322416,5.3763748 5.2931583,5.8162983 5.2645436,6.1840408 5.1508149,7.645638 5.0542039,9.1049551 4.9915987,10.56961 c -0.059854,0.587376 0.046963,1.213608 -0.1183701,1.79053 -0.1685335,0.686728 0.8026474,0.925071 0.9711812,0.238342 v 0 C 5.870585,12.481655 5.9082185,12.366816 5.9229336,12.248 5.977733,11.805526 5.9815377,11.001652 5.990691,10.612213 6.0524617,9.1600746 6.1486081,7.713252 6.2613293,6.2641553 6.2897093,5.8993145 6.5094341,5.4988814 6.3492625,5.1698532 5.5489559,3.5258467 5.4591976,4.1959757 5.3925543,4.5865936 5.1671886,6.1545223 4.8938796,7.7316445 4.3069015,9.2105026 4.0347108,9.8631223 4.9576542,10.248058 5.2298449,9.5954383 Z" />
    <path
       style="fill:#00ff00;stroke-width:0.264583"
       id="path10341"
       d="m 44.491841,7.7484945 c 0.519779,-0.9506399 0.775724,-2.020992 0.944253,-3.0842306 0.04669,-0.2945691 0.08924,-0.5906284 0.106563,-0.8883714 0.01225,-0.2105284 -0.01204,-0.4215966 -0.01807,-0.6323949 -0.10401,-0.1561251 -0.129754,-0.5127319 -0.312034,-0.4683755 -1.058087,0.2574783 -1.051475,1.0481324 -1.206754,1.8610464 -0.186938,0.9786588 -0.300894,1.8105958 -0.386513,2.8060096 -0.03699,0.430076 -0.05021,0.8618668 -0.07531,1.2928 -0.0024,0.1269965 -0.01408,1.2727614 -0.04489,1.5629939 -0.0071,0.06724 -0.113522,0.161293 -0.05504,0.195246 0.05749,0.03338 0.04603,-0.124742 0.06905,-0.187113 -0.541189,0.455098 0.102415,1.220456 0.643607,0.765358 v 0 c 0.08683,-0.116035 0.198932,-0.216903 0.260498,-0.348104 0.05491,-0.11702 0.06664,-0.25079 0.08082,-0.379273 0.03094,-0.2803821 0.04171,-1.404262 0.04429,-1.5514785 0.06659,-1.1646164 0.06059,-1.4388018 0.223647,-2.6314304 0.06,-0.4388295 0.135339,-0.8755701 0.216659,-1.3109525 0.0609,-0.3260413 0.304758,-0.6548369 0.209873,-0.9726549 -0.064,-0.2143583 -0.395796,-0.2086327 -0.593691,-0.3129492 -0.0245,-0.09431 -0.04899,-0.1886206 -0.07349,-0.2829308 0.0081,0.1588378 0.03305,0.3177106 0.02429,0.476514 -0.01511,0.2740615 -0.05341,0.5466498 -0.09564,0.8178594 -0.149632,0.9609788 -0.370348,1.9336123 -0.839803,2.7931861 -0.338878,0.6206141 0.538803,1.0998594 0.877681,0.4792453 z" />
    <path
       style="fill:#00ff00;stroke-width:0.264583"
       id="path10345"
       d="m 94.061557,6.0134372 c 0.214931,-0.6471261 0.37067,-1.3162968 0.418139,-1.9982468 0.01265,-0.1817452 0.10609,-0.4008802 -0.0033,-0.546545 -0.172484,-0.2296118 -0.470535,-0.5431041 -0.739399,-0.4421928 -0.317206,0.1190545 -0.317135,0.5988317 -0.475702,0.8982477 -0.34866,2.3069221 -0.313296,4.6585747 -0.118936,6.9784337 0.0077,0.102694 0.01532,0.205388 0.02297,0.308082 0.05263,0.705146 1.049859,0.630713 0.997225,-0.07443 v 0 c -0.0079,-0.105835 -0.01582,-0.21167 -0.02371,-0.317505 -0.186828,-2.2098653 -0.219472,-4.4484083 0.09169,-6.6484282 -0.164176,-0.1550051 -0.719137,-0.6819447 -0.754025,-0.6876251 -0.13512,-0.022 0.01916,0.2739247 0.01061,0.4105579 -0.03718,0.596201 -0.171723,1.1808664 -0.353915,1.7480137 -0.262789,0.6564612 0.665589,1.0281023 0.928378,0.3716409 z" />
    <path
       style="fill:#00ff00;stroke-width:0.264583"
       id="path10347"
       d="m 92.51136,11.989231 c 0.618279,-0.167151 1.230966,-0.353658 1.846779,-0.529587 0.679897,-0.194266 0.405164,-1.155786 -0.274733,-0.961521 v 0 c -0.59925,0.171247 -1.195718,0.351806 -1.796754,0.516682 -0.689022,0.158894 -0.464314,1.13332 0.224708,0.974426 z" />
    <path
       style="fill:#00ff00;stroke-width:0.264583"
       id="path10349"
       d="m 135.63459,7.4753395 c 0.26595,-0.8935461 0.44065,-1.8134518 0.56903,-2.7361173 0.0419,-0.3011022 0.0875,-0.6026743 0.10133,-0.906363 0.008,-0.1782051 0.11087,-0.4323681 -0.0358,-0.5339734 -0.27509,-0.1906251 -0.65902,-0.1172117 -0.98854,-0.1758177 -0.11769,0.3353435 -0.26028,0.6629617 -0.35307,1.0060305 -0.12317,0.4553778 -0.20596,0.9209082 -0.29351,1.3844553 -0.35595,1.8847463 -0.55507,3.7822692 -0.68524,5.6940741 -0.0511,0.569049 -0.10784,0.562803 0.15245,0.07794 -0.61647,0.346352 -0.12666,1.218178 0.48982,0.871825 v 0 c 0.4054,-0.548683 0.29901,-0.250105 0.35543,-0.881981 0.0888,-1.3094893 0.19841,-2.6161407 0.38843,-3.9157586 0.25269,-1.7282906 0.24429,-1.3834351 0.55447,-2.9569653 0.0372,-0.1887096 0.0633,-0.3794363 0.095,-0.5691545 -0.23721,-0.1500381 -0.43469,-0.4044265 -0.71162,-0.4501142 -0.11221,-0.018513 0.0436,0.2254269 0.0383,0.3390302 -0.0135,0.2868848 -0.0552,0.5719072 -0.0945,0.8564068 -0.11848,0.8576257 -0.27978,1.7124624 -0.51827,2.5452636 -0.24835,0.6620578 0.68794,1.0132816 0.93629,0.3512235 z" />
    <path
       style="fill:#ff00ff;stroke-width:0.264583"
       id="path10361"
       d="m -11.268113,6.4304301 c -0.09305,-0.6469518 -0.211131,-1.321372 -0.570908,-1.8846445 -0.142381,-0.2229131 -0.28822,-0.473365 -0.521457,-0.5981176 -0.302794,-0.1619581 -0.664424,-0.2483213 -1.006574,-0.2191912 -0.383077,0.032615 -0.721919,0.2647233 -1.082879,0.3970848 -0.351999,0.2972067 -0.742856,0.5537179 -1.055997,0.8916202 -1.459334,1.5747309 -2.43632,3.9773894 -2.067866,6.1405502 0.08182,0.480338 0.312566,0.923025 0.468849,1.384537 0.30425,0.359294 0.544881,0.784057 0.91275,1.077881 1.001505,0.79992 2.569844,1.099738 3.722042,0.431386 1.093642,-0.634384 1.205188,-1.296614 1.74344,-2.383342 0.428396,-1.617829 0.548605,-1.7134338 0.606376,-3.4278319 0.01914,-0.5680514 0.01931,-1.140678 -0.05438,-1.7042543 C -10.288719,5.6642629 -10.6109,4.4483385 -11.221961,3.7500597 -11.509596,3.421371 -11.932898,3.2424692 -12.288366,2.988674 -13.73193,2.97695 -13.949831,2.7244603 -15.149979,3.8323522 c -0.457093,0.4219567 -0.747317,0.9947085 -1.120975,1.4920627 -0.414839,0.5726332 0.394986,1.1593038 0.809825,0.5866706 v 0 c 0.286844,-0.4143875 0.518056,-0.8734247 0.860533,-1.2431622 0.726107,-0.7839035 0.867175,-0.6810825 1.766454,-0.8413184 0.247426,0.1388925 0.547257,0.2105761 0.742277,0.4166772 0.536407,0.5668852 0.81896,1.606645 0.917734,2.3270623 0.07149,0.521417 0.0722,1.0517129 0.05805,1.5778178 -0.04167,1.5495381 -0.146403,1.637134 -0.515071,3.0934238 -0.334032,0.755349 -0.458462,1.368317 -1.156197,1.86159 -0.767216,0.542392 -1.929062,0.362755 -2.658834,-0.148955 -0.282676,-0.19821 -0.477859,-0.49842 -0.716789,-0.74763 -0.13717,-0.361974 -0.336896,-0.706088 -0.411512,-1.085921 -0.372157,-1.8944691 0.503224,-3.9395628 1.727284,-5.3511095 0.233935,-0.2697668 0.526278,-0.4827321 0.789417,-0.7240982 0.200508,-0.1069906 0.392966,-0.2306746 0.601525,-0.3209721 0.114847,-0.049724 0.244301,-0.1367409 0.362819,-0.096548 0.152621,0.051757 0.255496,0.204148 0.346554,0.3371148 0.317422,0.4635162 0.405274,1.0353302 0.484896,1.5758996 0.07815,0.7027744 1.072027,0.5922481 0.993873,-0.1105262 z" />
    <path
       style="fill:#ff00ff;stroke-width:0.264583"
       id="path10363"
       d="m -10.039892,3.9537888 c 0.3608006,2.3697964 0.2718573,4.7814873 0.2097098,7.1696992 -0.029848,0.362479 -0.3379658,1.412398 0.7741288,0.408585 0.1579726,-0.142591 0.026686,-0.4256 0.062683,-0.635342 0.1639144,-0.955065 0.1775365,-0.834764 0.5762265,-1.7218177 0.3389469,-0.4679836 0.4233873,-0.7352379 0.9453047,-0.9715471 0.4517892,-0.2045573 1.0053574,-0.04402 1.4726573,-0.040024 0.1965568,0.00169 0.3926766,-0.018838 0.5890151,-0.028259 0.7060671,-0.038327 0.6518648,-1.0368569 -0.054202,-0.9985301 v 0 c -0.1557396,0.00969 -0.311186,0.030675 -0.4672184,0.029076 -0.4950974,-0.00507 -0.853131,-0.1087686 -1.3587881,-0.016658 -1.0751436,0.1958456 -1.4896639,0.7450611 -2.0431223,1.6255745 -0.405435,0.9502685 -0.5223131,1.0408809 -0.657639,2.0553914 -0.040506,0.303662 -0.2128084,0.664275 -0.041313,0.918126 0.2055252,0.304216 0.6235918,0.449403 0.9890271,0.484681 0.3662976,0.03536 -0.038003,-1.332314 0.2129044,-1.083278 C -8.766222,8.671617 -8.6734114,6.1671482 -9.0698054,3.711031 -9.2414618,3.0250762 -10.211548,3.2678348 -10.039892,3.9537899 Z" />
    <path
       style="fill:#ff00ff;stroke-width:0.264583"
       id="path10365"
       d="m -5.4194836,2.888317 c -0.5355471,2.8003524 -0.6830388,5.6502564 -0.6537423,8.495296 0.0018,0.195478 0.019029,0.391424 0.00538,0.586434 -0.00143,0.02036 -0.063036,0.05153 -0.04899,0.03673 0.1084112,-0.114283 0.221737,-0.223802 0.3326053,-0.335702 -0.7055138,-0.04744 -0.7725986,0.950311 -0.067085,0.997747 v 0 c 0.223851,-0.104304 0.4883237,-0.147336 0.6715532,-0.312913 0.1692132,-0.152911 0.1074706,-0.874657 0.1064779,-0.98277 -0.029548,-2.7702549 0.1126344,-5.5450562 0.6309706,-8.2723735 0.1502201,-0.690966 -0.826953,-0.9034094 -0.9771734,-0.2124435 z" />
    <path
       style="fill:#ff00ff;stroke-width:0.264583"
       id="path10367"
       d="m -2.7624648,3.9360033 c 0.6317266,0.1554956 0.3021567,0.08213 0.989485,0.2165871 0.6940995,0.1350034 0.88502309,-0.8466016 0.1909236,-0.981605 v 0 C -2.2097956,3.0496618 -1.9080863,3.1161884 -2.48785,2.974449 -3.1677715,2.780267 -3.4423863,3.7418213 -2.7624648,3.9360033 Z" />
    <path
       style="fill:#ff00ff;stroke-width:0.264583"
       id="path10369"
       d="M 0.68108901,5.730617 C 0.48874013,6.8388234 0.33296865,7.9529188 0.20339286,9.0701314 0.13757699,9.637601 0.09365338,10.386909 -0.05041644,10.964901 c -0.02778977,0.111489 -0.0900758,0.211411 -0.13511371,0.317117 0.0258248,-0.0639 0.0516497,-0.127806 0.0774746,-0.191709 -0.6454655,0.288746 -0.2371169,1.201572 0.40834858,0.912826 v 0 C 0.44870137,11.884394 0.59710975,11.765654 0.74551817,11.646914 0.80860095,11.476745 0.89103463,11.312545 0.93476655,11.136407 1.0817019,10.544601 1.1277466,9.78074 1.1957067,9.1938783 1.3241289,8.0849027 1.4790235,6.9791002 1.6700041,5.8790993 1.7749969,5.1798307 0.78608181,5.0313484 0.68108901,5.730617 Z" />
    <path
       style="fill:#ff00ff;stroke-width:0.264583"
       id="path10371"
       d="M -1.172325,9.2022564 C -0.16297738,8.9352082 0.85697646,8.7172127 1.883631,8.529368 2.5791588,8.4019275 2.3989306,7.4183027 1.7034028,7.5457433 v 0 C 0.66054726,7.7370865 -0.37589883,7.9573997 -1.401252,8.2288128 -2.0895806,8.3906885 -1.8606535,9.3641322 -1.172325,9.2022564 Z" />
    <path
       style="fill:#ff00ff;stroke-width:0.264583"
       id="path10373"
       d="m -22.427477,7.9708678 c 0.0046,1.1925901 0.01329,2.3867992 -0.02199,3.5791072 -0.0175,0.591341 0.05806,0.418086 -0.08235,0.67989 0.225044,-0.109201 0.450088,-0.218402 0.675133,-0.327603 -0.536431,-0.460698 -1.187956,0.297929 -0.651525,0.758627 v 0 c 0.308198,-0.03779 0.616397,-0.07557 0.924595,-0.11336 0.03382,-0.120024 0.08462,-0.236517 0.101466,-0.360073 0.03916,-0.287268 0.0435,-1.361763 0.04575,-1.542969 0.01173,-0.9417178 0.03195,-1.8843295 -0.0027,-2.8258104 -0.107616,-0.6988696 -1.095967,-0.5466784 -0.988351,0.1521912 z" />
    <path
       style="fill:#ff00ff;stroke-width:0.264583"
       id="path10375"
       d="m -23.99428,10.833985 c 0.09439,-0.03513 0.18576,-0.07977 0.283163,-0.105376 0.541958,-0.142462 1.127164,-0.17691 1.680747,-0.246702 0.701546,-0.08851 0.576379,-1.0806416 -0.125167,-0.9921353 v 0 c -0.781556,0.098666 -1.596613,0.1426202 -2.323966,0.469823 -0.618287,0.3431053 -0.133064,1.2174953 0.485223,0.8743903 z" />
    <path
       style="fill:#ff00ff;stroke-width:0.264583"
       id="path10377"
       d="m -40.084906,5.6875764 c 0.08005,2.7387319 -0.106077,5.4837686 -0.381548,8.2077376 -0.08849,0.625125 -0.13362,1.123152 -0.291013,1.717053 -0.02119,0.07999 -0.176953,0.230665 -0.09421,0.229682 0.261824,-0.0031 0.499184,-0.158308 0.748776,-0.237462 -0.544618,-0.450991 -1.182415,0.319213 -0.637799,0.770204 v 0 c 0.274389,-0.05862 0.580123,-0.03566 0.823169,-0.175856 0.116398,-0.06714 0.103957,-0.248754 0.138215,-0.378688 0.163539,-0.620264 0.217067,-1.180194 0.307801,-1.824497 0.04869,-0.483223 0.105661,-0.965685 0.146084,-1.44967 0.08029,-0.96129 0.168074,-2.534551 0.208973,-3.4840668 0.04247,-0.9859862 0.07597,-1.8974422 0.05211,-2.8775768 -0.0058,-0.2383793 -0.02961,-0.4759799 -0.04441,-0.7139699 -0.153522,-0.6902403 -1.129667,-0.4731303 -0.976148,0.2171099 z" />
    <path
       style="fill:#ff00ff;stroke-width:0.264583"
       id="path10379"
       d="m -39.020477,12.593762 c 1.104119,-0.352558 2.249323,-0.551473 3.383037,-0.782412 0.692877,-0.14114 0.493273,-1.121017 -0.199605,-0.979877 v 0 c -1.173125,0.238969 -2.357763,0.446268 -3.499567,0.813575 -0.670843,0.223541 -0.354708,1.172255 0.316135,0.948714 z" />
    <path
       style="fill:#ff00ff;stroke-width:0.264583"
       id="path10381"
       d="m -35.382671,5.849481 c -0.298542,2.260314 -0.622559,4.52154 -0.771916,6.798116 -0.02724,0.415244 -0.03631,0.831481 -0.05446,1.247222 1.098833,-0.649143 -0.390946,1.025338 -0.04991,1.021947 0.311912,-0.0031 0.597228,-0.180319 0.895842,-0.270478 -0.334245,-0.623121 -1.215472,-0.150426 -0.881226,0.472695 v 0 c 0.327081,-0.03709 0.678497,0.01797 0.981242,-0.111272 0.3283,-0.140152 -0.624642,-1.214794 0.05311,-1.069576 0.01733,-0.402706 0.02572,-0.805897 0.052,-1.208119 0.146627,-2.24424 0.46732,-4.472987 0.759156,-6.701465 0.126621,-0.6956771 -0.857216,-0.8747474 -0.983838,-0.17907 z" />
    <path
       style="fill:#ff00ff;stroke-width:0.264583"
       id="path10383"
       d="m -33.17898,13.145532 c 0.105249,-0.395125 0.391779,-1.243188 0.831721,-1.367228 0.03247,-0.0092 0.08083,0.05108 0.06265,0.0795 -0.03538,0.05531 -0.115559,0.06238 -0.173336,0.09357 -0.104495,0.24939 -0.125127,0.5271 -0.229846,0.775573 -0.337336,0.800422 -0.891202,1.551142 -1.506234,2.159418 -0.151556,0.149889 -0.327731,0.272646 -0.491595,0.408969 -0.10613,0.05203 -0.21226,0.104066 -0.318392,0.156099 -0.01881,-0.0071 -0.07038,-0.0358 -0.05641,-0.02133 0.187339,0.194095 0.378246,0.385338 0.580279,0.564089 0.02965,0.02623 0.07156,0.05767 0.109429,0.04614 0.178012,-0.05418 0.334373,-0.16413 0.506934,-0.233746 0.211794,-0.08544 0.430017,-0.153987 0.645025,-0.230981 0.770255,-0.216739 0.468281,-0.144301 1.180984,-0.301438 0.234436,-0.05169 0.526677,-0.09823 0.750869,-0.199466 0.116477,-0.0526 0.221178,-0.128125 0.331769,-0.192188 0.598442,-0.376648 0.06578,-1.222976 -0.532665,-0.846328 v 0 c -0.245782,0.189474 -0.461277,0.193876 -0.769728,0.262427 -0.773245,0.171849 -0.46532,0.09814 -1.301322,0.336601 -0.358169,0.130656 -1.019542,0.345328 -1.353632,0.56459 -0.186441,0.12236 -0.502393,0.21796 -0.503126,0.440964 -0.0042,1.264823 0.92184,0.68305 1.375868,0.418011 0.19849,-0.170232 0.411003,-0.325363 0.595473,-0.510696 0.44908,-0.451181 0.942227,-1.085871 1.26038,-1.630726 0.307211,-0.526113 0.650661,-1.214956 0.645999,-1.855455 -0.0019,-0.271055 -0.125021,-0.527512 -0.187531,-0.791268 -0.213614,-0.136496 -0.393338,-0.35467 -0.64084,-0.409491 -0.200983,-0.04452 -0.418944,0.04152 -0.602845,0.134022 -0.538514,0.270872 -0.92002,1.058138 -1.094047,1.597532 -0.05781,0.179184 -0.07722,0.368556 -0.115826,0.552834 0,0.707107 1,0.707107 1,0 z" />
    <path
       style="fill:#ff00ff;stroke-width:0.264583"
       id="path10385"
       d="m -29.291949,12.543225 c 0.716616,-0.810254 1.391878,-1.676372 1.919822,-2.6239743 0.133697,-0.2399686 0.26462,-0.4835599 0.361206,-0.7407182 0.08304,-0.2210909 0.116584,-0.4577278 0.174877,-0.6865919 -0.02827,-0.2284545 -0.0032,-0.4701135 -0.08479,-0.6853634 -0.306461,-0.8084434 -1.164611,-1.0854187 -1.937173,-0.7493294 -0.77256,0.3360878 -0.982335,0.8389102 -1.452669,1.49718 -0.557958,1.1033913 -0.85023,2.2940442 -0.834061,3.5330062 0.0074,0.564555 0.09871,1.298832 0.375965,1.815509 0.118403,0.220653 0.314986,0.389373 0.472479,0.58406 0.241345,0.09599 0.465376,0.26433 0.72403,0.287956 0.612457,0.05594 1.168392,-0.271779 1.581655,-0.683363 0.52941,-0.527259 0.914347,-1.298401 1.161331,-1.986292 0.146383,-0.407705 0.226192,-0.836326 0.339288,-1.25449 0.140897,-1.2009326 0.313133,-2.6299186 -0.423249,-3.7054999 -0.209592,-0.3061351 -0.484322,-0.5965293 -0.821814,-0.7506308 -0.351269,-0.1603925 -0.77058,-0.2269646 -1.148818,-0.1491792 -0.424664,0.087333 -0.762064,0.4136763 -1.143093,0.6205145 -0.818475,1.2321133 -0.960276,1.1593492 -1.186997,2.6731354 -0.06803,0.4542089 -0.03002,0.918059 -0.04503,1.377089 -0.01725,0.706896 0.982453,0.731289 0.999702,0.02439 v 0 c 0.0057,-0.38839 -0.02867,-0.779433 0.01701,-1.1651703 0.135205,-1.1420184 0.236003,-1.1270509 0.751708,-2.0654756 0.188471,-0.1551125 0.345908,-0.3585755 0.565414,-0.4653375 0.167572,-0.081501 0.373502,-0.127291 0.553432,-0.078837 0.211042,0.056833 0.405262,0.2003611 0.539197,0.373076 0.661109,0.8525283 0.467225,2.0796353 0.375917,3.0557204 -0.09508,0.367262 -0.162829,0.742708 -0.285242,1.101785 -0.194905,0.571733 -0.468291,1.136676 -0.859324,1.603239 -0.127661,0.152318 -0.461476,0.446022 -0.69496,0.514202 -0.08146,0.02379 -0.169666,0.0046 -0.2545,0.0068 -0.09211,-0.08463 -0.212143,-0.14653 -0.276331,-0.253892 -0.239675,-0.400885 -0.308723,-0.977647 -0.319534,-1.41993 -0.02577,-1.054657 0.207147,-2.07712 0.660548,-3.0268773 0.30426,-0.4694021 0.583568,-1.0528504 1.166622,-1.234344 0.160107,-0.049838 0.308366,-0.047693 0.415668,0.1054555 0.05476,0.078155 0.06306,0.1801384 0.09459,0.2702073 -0.03404,0.1606397 -0.04579,0.3276725 -0.102111,0.4819187 -0.161647,0.442721 -0.518708,1.014825 -0.770437,1.3925648 -0.407009,0.610744 -0.858732,1.19627 -1.3535,1.73836 -0.47312,0.525507 0.27006,1.1946 0.74318,0.669093 z" />
  </g>
</svg>
