<?xml version="1.0" encoding="UTF-8" standalone="no"?>
<!-- Created with Inkscape (http://www.inkscape.org/) -->

<svg
   width="192.3819mm"
   height="56.653255mm"
   viewBox="0 0 192.3819 56.653255"
   version="1.1"
   id="svg4300"
   inkscape:version="1.2.2 (b0a8486541, 2022-12-01)"
   sodipodi:docname="4-çözüm.svg"
   xmlns:inkscape="http://www.inkscape.org/namespaces/inkscape"
   xmlns:sodipodi="http://sodipodi.sourceforge.net/DTD/sodipodi-0.dtd"
   xmlns="http://www.w3.org/2000/svg"
   xmlns:svg="http://www.w3.org/2000/svg">
  <sodipodi:namedview
     id="namedview4302"
     pagecolor="#ffffff"
     bordercolor="#000000"
     borderopacity="0.25"
     inkscape:showpageshadow="2"
     inkscape:pageopacity="0.0"
     inkscape:pagecheckerboard="0"
     inkscape:deskcolor="#d1d1d1"
     inkscape:document-units="mm"
     showgrid="false"
     inkscape:zoom="0.86862945"
     inkscape:cx="857.09735"
     inkscape:cy="173.83707"
     inkscape:window-width="1916"
     inkscape:window-height="1026"
     inkscape:window-x="0"
     inkscape:window-y="0"
     inkscape:window-maximized="1"
     inkscape:current-layer="layer1" />
  <defs
     id="defs4297" />
  <g
     inkscape:label="Layer 1"
     inkscape:groupmode="layer"
     id="layer1"
     transform="translate(13.864523,9.4431129)">
    <path
       style="fill:#0000ff;stroke-width:0.264583"
       id="path6662"
       d="m 18.533837,9.4927141 c -0.06383,2.3123349 -0.09325,4.6249969 -0.0299,6.9376579 0.05085,1.856623 0.07471,0.777361 0.01929,2.138277 -0.02745,0.706573 0.971797,0.745392 0.999246,0.03882 v 0 c 0.05403,-1.454525 0.03294,-0.319187 -0.01874,-2.197222 -0.06346,-2.305962 -0.03296,-4.611888 0.0301,-6.9175319 0,-0.7071066 -1,-0.7071066 -1,0 z" />
    <path
       style="fill:#0000ff;stroke-width:0.264583"
       id="path6664"
       d="m 16.900446,18.899529 c 1.769798,-0.119791 3.545227,-0.07278 5.315391,0.01143 0.706311,0.03355 0.753752,-0.965328 0.04744,-0.998874 v 0 c -1.865757,-0.08847 -3.742171,-0.149621 -5.605034,0.01721 -0.686054,0.171262 -0.443853,1.141488 0.242201,0.970226 z" />
    <path
       style="fill:#0000ff;stroke-width:0.264583"
       id="path6666"
       d="m 16.590059,9.9891822 c 1.246687,0.2947408 2.524854,0.4132768 3.800265,0.4969748 0.705602,0.04611 0.770806,-0.9517655 0.0652,-0.9978718 v 0 C 19.24681,9.4096587 18.035484,9.2989301 16.853031,9.0243789 16.170812,8.8384294 15.90784,9.8032328 16.590059,9.9891822 Z" />
    <path
       style="fill:#0000ff;stroke-width:0.264583"
       id="path6668"
       d="m 23.454955,9.9749921 c 0.814991,0.2778579 1.666483,0.4448129 2.525875,0.4853419 0.706513,0.02899 0.747508,-0.9701697 0.041,-0.9991588 v 0 C 25.268134,9.436307 24.521515,9.2721482 23.805827,9.038569 23.143676,8.7904644 22.792803,9.7268875 23.454955,9.9749921 Z" />
    <path
       style="fill:#0000ff;stroke-width:0.264583"
       id="path6670"
       d="m 29.386998,12.001012 c 0.03638,0.960146 0.09966,1.918984 0.151156,2.878385 0.03485,0.649388 0.06178,1.286652 0.167561,1.928201 0.11766,0.697249 1.10372,0.530851 0.986057,-0.166398 v 0 c -0.104661,-0.602805 -0.122346,-1.205956 -0.155125,-1.816656 -0.05189,-0.966712 -0.115353,-1.932858 -0.152599,-2.900297 -0.05428,-0.70502 -1.051329,-0.628255 -0.99705,0.07676 z" />
    <path
       style="fill:#0000ff;stroke-width:0.264583"
       id="path6672"
       d="m 28.312615,14.082738 c 0.734134,0.09804 1.473965,0.145948 2.213036,0.187936 0.443733,0.02521 0.877117,0.03742 1.315204,0.111403 0.697833,0.11414 0.859253,-0.872746 0.161417,-0.986886 v 0 c -1.165416,-0.185882 -2.358303,-0.112866 -3.525208,-0.298838 -0.697479,-0.116284 -0.86193,0.870101 -0.164449,0.986385 z" />
    <path
       style="fill:#0000ff;stroke-width:0.264583"
       id="path6676"
       d="m 41.875334,17.97102 c 0.856699,-2.297489 1.451483,-4.699761 1.843519,-7.11967 0.0633,-0.390731 0.104042,-0.784784 0.156064,-1.1771759 0.02797,-0.1927328 0.27155,-0.5259837 0.08393,-0.5781985 -0.95199,-0.2649352 -0.709787,0.7912931 -0.656238,1.0952804 0.147844,0.83929 0.638786,2.883739 0.843063,3.62427 0.173979,0.630698 0.382275,1.251423 0.573415,1.877135 0.141986,0.355622 0.989918,3.17486 2.095717,2.425859 0.808503,-0.54763 0.870059,-2.114191 0.947058,-2.880431 0.06265,-0.623452 0.08556,-1.250259 0.128339,-1.875388 0.04147,-0.779982 0.08317,-2.130995 0.223647,-2.958618 0.111005,-0.6539973 0.04967,-0.5500253 0.34482,-0.8194508 0.428813,-0.5622457 -0.366323,-1.1686773 -0.795133,-0.6064316 v 0 c -0.10617,0.1590699 -0.245655,0.300383 -0.318506,0.4772094 -0.476144,1.155702 -0.31301,2.634945 -0.45253,3.839534 -0.04072,0.604428 -0.06664,1.210036 -0.122169,1.813284 -0.04382,0.476016 -0.152217,0.945825 -0.17577,1.423273 -0.0099,0.20052 0.05135,0.398231 0.07608,0.597464 0.01117,0.08982 0.101204,0.32755 0.03159,0.269698 C 46.189351,16.972428 45.871123,15.877807 45.67535,15.400161 45.076824,13.446064 45.104584,13.654134 44.632573,11.624845 44.505083,11.076739 44.415654,10.519958 44.278748,9.9741277 44.175584,9.5628242 44.247265,9.016571 43.91294,8.7557254 42.921001,7.9817972 42.924499,9.2606875 42.883521,9.5432887 c -0.04938,0.3756355 -0.08773,0.7528853 -0.148125,1.1269073 -0.378579,2.34447 -0.953114,4.671754 -1.776158,6.899865 -0.28352,0.647777 0.632576,1.048737 0.916096,0.400959 z" />
    <path
       style="fill:#0000ff;stroke-width:0.264583"
       id="path6678"
       d="M 54.172471,12.537505 C 54.020439,11.496851 53.733861,10.151844 53.00291,9.3532311 52.803948,9.1358542 52.576907,8.9111896 52.295877,8.8225274 51.98079,8.7231198 51.635093,8.8191487 51.3047,8.8174607 c -0.312465,0.2374318 -0.684803,0.4119541 -0.937398,0.7122951 -0.597884,0.7109002 -0.937709,1.8427462 -1.113776,2.7176352 -0.210244,1.04472 -0.26456,2.050544 -0.05479,3.102338 0.09065,0.454526 0.294055,0.879078 0.441082,1.318617 0.234823,0.334697 0.412292,0.718087 0.704466,1.004089 0.883206,0.864551 2.065721,0.956466 3.046275,0.181963 0.834504,-0.659145 0.901311,-1.249541 1.26425,-2.203451 0.06271,-0.472567 0.17738,-0.941111 0.188146,-1.417699 0.01937,-0.857299 -0.169421,-2.185361 -0.453271,-3.006737 -0.22882,-0.662133 -0.654712,-1.6437759 -1.513398,-1.767825 -0.448874,-0.064846 -0.884487,0.2011328 -1.32673,0.3016994 -0.352314,0.3453626 -0.704627,0.6907246 -1.056941,1.0360876 -0.487371,0.51232 0.237159,1.201563 0.724529,0.689244 v 0 c 0.225645,-0.262185 0.45129,-0.524369 0.676934,-0.786554 0.165119,-0.12233 0.292195,-0.336104 0.495361,-0.36699 0.618585,-0.09404 0.903769,0.777722 1.026784,1.123201 0.251654,0.706738 0.437817,1.910664 0.434335,2.654802 -0.0019,0.403418 -0.0912,0.801674 -0.1368,1.20251 -0.250214,0.752442 -0.260424,1.102169 -0.80659,1.666308 -0.49884,0.515256 -1.196991,0.600952 -1.754593,0.104657 -0.232738,-0.207147 -0.378531,-0.494993 -0.567798,-0.742489 -0.130053,-0.360717 -0.309293,-0.707329 -0.390163,-1.08215 -0.337105,-1.562396 -5.29e-4,-3.613694 0.835724,-4.980672 0.106603,-0.174275 0.263631,-0.3121585 0.395449,-0.4682378 0.101399,-0.054363 0.190005,-0.1771134 0.304202,-0.1630889 0.398386,0.048926 0.712496,0.5994497 0.852104,0.8692987 0.339402,0.656024 0.497356,1.39588 0.595349,2.120814 0.07044,0.70359 1.065467,0.60397 0.995024,-0.09962 z" />
    <path
       style="fill:#0000ff;stroke-width:0.264583"
       id="path6680"
       d="m 57.4174,16.216893 c 0.08598,-0.216571 0.2539,-1.016711 0.532313,-1.091559 0.06869,-0.01847 -0.06194,0.135907 -0.120727,0.175943 -0.08212,0.05592 -0.241554,0.007 -0.28149,0.09797 -0.07019,0.159878 0.0057,0.349169 0.0085,0.523753 -0.134874,0.945152 -0.444381,1.83462 -1.000075,2.617025 -0.274571,0.386591 -0.521279,0.649005 -0.927007,0.870347 -0.07621,0.04158 -0.166351,0.04976 -0.249529,0.07465 0.05557,-0.0213 0.123979,-0.105347 0.166699,-0.06392 0.165089,0.160102 0.202774,0.423896 0.368694,0.583137 0.05041,0.04837 0.138922,-0.01637 0.207391,-0.03024 0.200162,-0.04056 0.396877,-0.09796 0.598082,-0.132978 0.816568,-0.142131 0.906553,-0.119054 1.760961,-0.161652 0.09353,-3.97e-4 1.404279,-0.0044 1.578462,-0.01039 0.10699,-0.0037 0.662681,-0.01854 0.803566,-0.122809 0.143875,-0.10648 0.358381,-0.229669 0.348652,-0.408397 -0.01394,-0.255901 -0.270946,-0.435094 -0.406418,-0.652641 -0.645245,-0.289235 -1.054286,0.623281 -0.409041,0.912517 v 0 c -0.203036,-0.746501 -0.269499,-0.35598 0.162721,-0.804124 0.02358,-0.02444 -0.05835,0.03888 -0.09194,0.04386 -0.673151,0.09985 -1.36285,-0.0085 -2.037916,0.04334 -0.823159,0.04439 -1.148557,0.03131 -1.945008,0.188541 -0.27128,0.05356 -0.547246,0.102732 -0.803233,0.207289 -0.213902,0.08737 -0.513588,0.144495 -0.591023,0.362192 -0.104754,0.294499 -0.03905,0.666753 0.131963,0.928393 0.09352,0.143072 0.339971,0.03578 0.509958,0.05368 0.162134,-0.06754 0.33613,-0.111697 0.486402,-0.202622 1.138415,-0.688818 1.826713,-2.016097 2.148888,-3.264912 0.09341,-0.362058 0.123907,-0.737488 0.185862,-1.106233 -0.0702,-0.624608 0.0355,-1.244108 -0.736918,-1.545683 -0.767085,-0.299494 -1.243012,1.222175 -1.368988,1.673073 -0.171445,0.686007 0.798716,0.928469 0.970161,0.242461 z" />
    <path
       style="fill:#0000ff;stroke-width:0.264583"
       id="path6682"
       d="m 57.217209,10.239619 c 1.219501,0.301841 2.484255,0.331882 3.729349,0.214061 0.09983,-0.0055 0.199668,-0.01108 0.299501,-0.01662 0.705969,-0.04007 0.649295,-1.0384667 -0.05667,-0.9983929 v 0 c -0.11285,0.00654 -0.2257,0.013068 -0.33855,0.019603 -1.13166,0.1107892 -2.282531,0.083819 -3.391427,-0.1888792 -0.686054,-0.1712621 -0.928253,0.7989641 -0.242199,0.9702261 z" />
    <path
       style="fill:#0000ff;stroke-width:0.264583"
       id="path6698"
       d="m 73.476257,14.173709 c 4.162215,-0.140861 8.324976,-0.249139 12.484607,-0.456735 1.288566,-0.07455 1.750656,-0.08167 2.921955,-0.206681 0.312077,-0.03331 0.724816,-0.06125 1.01844,-0.223338 0.106955,-0.05904 0.187904,-0.156187 0.281855,-0.23428 0.470932,-0.527467 -0.275018,-1.193468 -0.745953,-0.666001 v 0 c 0.03356,-0.01044 0.128873,-0.0523 0.100669,-0.03134 -0.04909,0.03649 -0.105587,0.0667 -0.16541,0.07946 -0.190976,0.04074 -0.386223,0.05882 -0.580384,0.07963 -1.153414,0.12362 -1.605003,0.12995 -2.881032,0.203795 -4.143029,0.206903 -8.289176,0.314117 -12.434747,0.455492 -0.707107,0 -0.707107,1 0,1 z" />
    <path
       style="fill:#0000ff;stroke-width:0.264583"
       id="path6700"
       d="m 87.814451,10.838419 c 0.207031,0.06953 0.420208,0.122912 0.621093,0.208603 0.849551,0.362396 2.028492,1.135514 2.477778,1.970317 0.06252,0.116158 0.05915,0.257109 0.08872,0.385664 -0.591135,0.355997 -1.215573,0.597062 -1.855179,0.855201 -0.653537,0.269985 -0.271719,1.194223 0.381818,0.924237 v 0 c 0.639381,-0.26937 1.644491,-0.585131 2.112832,-1.180401 0.196385,-0.249606 0.209558,-0.599635 0.314339,-0.899453 -0.08427,-0.232912 -0.129699,-0.483818 -0.252828,-0.698736 C 91.56081,12.155616 91.36786,11.937823 91.170105,11.73109 90.32528,10.847907 89.238925,10.215045 88.072004,9.8721546 87.388752,9.6900372 87.131198,10.656302 87.814451,10.838419 Z" />
    <path
       style="fill:#0000ff;stroke-width:0.264583"
       id="path6706"
       d="m 101.62735,9.3875129 c 0.33577,2.4640861 0.69471,4.9249341 1.02713,7.3896071 0.005,0.03964 0.14304,1.061218 0.15859,1.232297 0.005,0.05242 -0.0516,0.172986 -10e-4,0.157898 0.29576,-0.0885 0.55476,-0.271033 0.83214,-0.406549 -0.39801,-0.584457 -1.22456,-0.02159 -0.82655,0.562867 v 0 c 0.33144,-0.05612 0.6868,-0.0326 0.99434,-0.168354 0.0817,-0.03606 0.002,-0.178854 -0.006,-0.267803 -0.0141,-0.160455 -0.15646,-1.216589 -0.1601,-1.244022 -0.33167,-2.459031 -0.68952,-4.914284 -1.02499,-7.3726631 -0.0825,-0.7022735 -1.0757,-0.5855515 -0.99316,0.116722 z" />
    <path
       style="fill:#0000ff;stroke-width:0.264583"
       id="path6708"
       d="m 100.77522,18.419397 c 1.4239,-0.06555 2.83162,-0.300577 4.24229,-0.490258 0.22074,-0.03101 0.44272,-0.05172 0.66383,-0.07965 0.0286,-0.0036 0.0812,0.01571 0.0854,-0.01278 0.0486,-0.328669 0.0424,-0.663136 0.0636,-0.994704 -0.60425,-0.367262 -1.12364,0.487277 -0.51939,0.854539 v 0 c 0.33836,-0.942832 0.57921,-0.879857 0.0133,-0.811868 -0.14668,0.01762 -0.29333,0.03559 -0.43999,0.05338 -1.36662,0.183795 -2.73011,0.410791 -4.10902,0.481338 -0.70711,0 -0.70711,0.999999 0,0.999999 z" />
    <path
       style="fill:#0000ff;stroke-width:0.264583"
       id="path6710"
       d="m 100.0854,9.9274848 c 1.56558,0.027929 3.11995,0.1781872 4.66747,0.4080762 0.29875,0.03278 0.59612,0.08025 0.89663,0.05778 0.69867,-0.108896 0.54467,-1.0969665 -0.154,-0.9880701 v 0 c 0.0236,1.598e-4 0.0946,0.00238 0.071,4.763e-4 -0.72862,-0.058709 0.5675,0.070281 -0.66675,-0.059345 -1.59615,-0.2368032 -3.19963,-0.390969 -4.81432,-0.4189172 -0.707105,0 -0.707105,1.0000001 0,1.0000001 z" />
    <path
       style="fill:#0000ff;stroke-width:0.264583"
       id="path6712"
       d="m 108.87377,16.886369 c 0.0404,-0.646919 0.16307,-1.643855 0.76732,-2.025765 0.0543,-0.03431 0.12478,-0.0304 0.18716,-0.0456 -0.0827,0.100138 -0.1528,0.149038 -0.15694,0.289527 -0.0198,0.670558 0.13284,0.175987 -0.0472,0.970277 -0.14214,0.626939 -0.2345,0.726598 -0.5203,1.309001 -0.28665,0.428917 -0.37904,0.608017 -0.71724,0.972962 -0.0746,0.0805 -0.16036,0.150091 -0.24509,0.219839 -0.0251,0.02065 -0.10591,0.02714 -0.0834,0.05053 0.68507,0.710486 0.46902,0.778144 0.86533,0.559921 0.35502,-0.234324 0.7403,-0.409119 1.15766,-0.496766 0.38755,-0.08139 0.7915,-0.08002 1.18373,-0.131402 0.33154,-0.09998 0.51654,-0.117184 0.78707,-0.354025 0.10472,-0.09167 0.17422,-0.217089 0.26133,-0.325634 0.39307,-0.587788 -0.43818,-1.143675 -0.83126,-0.555888 v 0 c 0.0201,0.16871 -0.24849,0.204264 -0.35033,0.244455 -0.48999,0.06787 -0.22264,0.03919 -0.80302,0.07652 -0.73326,0.08521 -1.41889,0.333378 -2.02524,0.758181 -0.4945,0.43539 -0.63719,0.362354 0.31904,1.0502 0.0657,0.04729 0.13611,-0.08868 0.19753,-0.14147 0.48847,-0.419832 0.8599,-0.9427 1.18556,-1.495071 0.12659,-0.269127 0.27527,-0.528929 0.37976,-0.80738 0.24799,-0.660834 0.4671,-1.66664 0.17879,-2.354825 -0.097,-0.231643 -0.22472,-0.477545 -0.43462,-0.615454 -0.20129,-0.132249 -0.47304,-0.09087 -0.70956,-0.136304 -0.16445,0.08629 -0.34739,0.144055 -0.49336,0.258869 -0.80946,0.636657 -0.99795,1.765336 -1.05273,2.725304 0,0.707106 1,0.707106 1,0 z" />
    <path
       style="fill:#0000ff;stroke-width:0.264583"
       id="path6714"
       d="m 117.05024,12.979555 c 0.22242,0.749531 0.38982,1.510663 0.63388,2.254433 0.22069,0.671784 1.17074,0.359677 0.95004,-0.312107 v 0 c -0.24505,-0.745027 -0.40722,-1.509296 -0.63536,-2.258925 -0.22386,-0.670733 -1.17242,-0.354134 -0.94856,0.316599 z" />
    <path
       style="fill:#0000ff;stroke-width:0.264583"
       id="path6716"
       d="m 117.50935,14.595522 c 1.05745,-0.328253 2.17625,-0.238789 3.25758,-0.411351 0.6977,-0.114928 0.53517,-1.101631 -0.16254,-0.986703 v 0 c -1.1296,0.193552 -2.30987,0.06922 -3.41108,0.449309 -0.67086,0.223476 -0.35482,1.172221 0.31604,0.948745 z" />
    <path
       style="fill:#0000ff;stroke-width:0.264583"
       id="path6718"
       d="m 130.89501,18.203791 c 0.93781,-1.585799 1.59028,-3.314846 2.04893,-5.096408 0.3689,-1.432961 0.47135,-2.251626 0.70212,-3.6758459 -1.75688,1.2605599 0.72505,-1.6353004 0.20103,-1.5710286 -0.3523,0.043211 -0.79972,0.1718961 -0.9416,0.4972529 -0.17782,0.4077724 0.0805,0.886568 0.1463,1.3265277 0.29464,1.9692159 0.322,1.8231109 0.87449,3.7870239 0.30601,0.749744 0.71683,2.109011 1.42587,2.697135 0.78265,0.649167 1.48902,0.390808 2.047,-0.458168 0.56726,-0.863081 0.67797,-2.781315 0.792,-3.688159 0.13185,-1.525099 0.13367,-3.0537579 0.0757,-4.5813686 -0.0272,-0.7065841 -1.02645,-0.668137 -0.99926,0.038447 v 0 c 0.0575,1.4742028 0.0549,2.9494646 -0.069,4.4214516 -0.33002,2.779812 -0.0286,0.950953 -0.54739,3.145922 -0.0398,0.168206 0.0217,0.382395 -0.0951,0.509722 -0.0892,0.09717 -0.29239,0.107089 -0.39498,0.02418 -0.65459,-0.528959 -0.99438,-1.707217 -1.27245,-2.381142 -0.53037,-1.867482 -0.56051,-1.741208 -0.84283,-3.6246954 -0.0654,-0.436381 0.0934,-0.9445897 -0.14517,-1.3157829 -1.01617,-1.5809624 -1.04204,-0.5821381 -1.09929,-0.1335754 -0.0488,0.382067 -0.095,0.7644593 -0.14243,1.1466888 -0.22032,1.3665529 -0.32192,2.1754379 -0.67262,3.5475899 -0.43788,1.71324 -1.06145,3.375487 -1.96538,4.898555 -0.34342,0.618109 0.53072,1.103785 0.87414,0.485675 z" />
    <path
       style="fill:#0000ff;stroke-width:0.264583"
       id="path6720"
       d="m 143.30528,10.106277 c -0.13355,-0.1496896 -0.24092,-0.3276997 -0.40064,-0.4490693 -0.78979,-0.6001539 -1.67958,-0.6623159 -2.45221,0.057155 -0.77892,0.7253273 -0.81292,1.3912813 -1.09422,2.3712153 -0.02,0.493362 -0.0871,0.987073 -0.0598,1.480084 0.0725,1.310828 0.50414,2.638717 1.35565,3.655386 0.21515,0.256879 0.45936,0.498643 0.74291,0.677177 0.26137,0.164564 0.57603,0.223075 0.86405,0.334613 0.33423,-0.06159 0.6979,-0.03443 1.0027,-0.184775 0.73453,-0.362318 1.28517,-1.214683 1.60713,-1.914687 0.44392,-0.965163 0.6625,-2.059012 0.72288,-3.112585 0.0326,-0.568992 -0.0279,-1.13951 -0.0419,-1.709266 -0.11307,-0.5051 -0.16122,-1.029259 -0.33919,-1.5152991 -0.2495,-0.6813976 -0.73835,-1.5722306 -1.61884,-1.6171434 -1.02162,-0.052111 -1.84584,0.7549703 -2.39648,1.473128 -0.32743,0.4270435 -0.53649,0.9329945 -0.80474,1.3994915 -0.17222,0.434222 -0.34443,0.868445 -0.51664,1.302667 -0.25846,0.658175 0.67234,1.023703 0.9308,0.365528 v 0 c 0.15258,-0.392842 0.30516,-0.785684 0.45774,-1.178526 0.61216,-1.121418 0.53525,-1.200813 1.41934,-2.0439314 0.15979,-0.1523852 0.32171,-0.3317685 0.53424,-0.3916304 0.99006,-0.278855 1.22963,1.8084368 1.33417,2.2341178 0.0169,0.515311 0.075,1.030925 0.0506,1.545934 -0.0448,0.944172 -0.2223,1.866481 -0.59274,2.738412 -0.20248,0.476597 -0.57906,1.111571 -1.0097,1.459069 -0.12038,0.09713 -0.27826,0.13518 -0.41739,0.202769 -0.1748,-0.04589 -0.3672,-0.04852 -0.52441,-0.137681 -0.46749,-0.265148 -0.88506,-0.828314 -1.1236,-1.279586 -0.58248,-1.101928 -0.71793,-2.296484 -0.61116,-3.523452 0.0882,-0.35819 0.135,-0.729231 0.26473,-1.074569 0.10008,-0.266428 0.44132,-0.889576 0.77396,-1.055098 0.25194,-0.125365 0.59177,-0.02797 0.8043,0.116517 0.11816,0.08033 0.19658,0.207403 0.29488,0.311105 0.37976,0.596471 1.2233,0.0594 0.84354,-0.53707 z" />
    <path
       style="fill:#ff0000;stroke-width:0.264583"
       id="path6978"
       d="m 109.54583,7.2063583 c -0.30275,-0.314877 -0.4777,-0.6100231 -0.98793,-0.6226286 -0.95615,-0.023622 -1.78241,0.7850907 -2.22425,1.5498386 -0.17199,0.2976946 -0.25886,0.6370307 -0.38829,0.9555462 -0.008,0.3334443 -0.087,0.672816 -0.0239,1.0003325 0.18667,0.96892 1.02674,1.701447 2.04275,1.558191 0.9121,-0.128606 1.04491,-0.559879 1.58653,-1.219127 0.11529,-0.354567 0.30458,-0.6931547 0.34586,-1.0637012 0.13264,-1.1906375 -0.48053,-2.3386426 -1.81071,-2.3549147 -0.357,-0.00437 -0.68315,0.2077646 -1.02473,0.3116469 -0.65892,0.2565709 -0.29607,1.1884199 0.36285,0.931849 v 0 c 0.29871,-0.1735455 0.57058,-0.431699 0.96141,-0.2704447 0.44818,0.1849205 0.56864,0.6659875 0.55217,1.0985045 -0.01,0.258486 -0.12713,0.5014836 -0.1907,0.7522252 -0.26578,0.433484 -0.27453,0.621726 -0.74581,0.814642 -0.46534,0.190482 -0.93834,-0.09966 -1.07968,-0.57022 -0.0606,-0.2018312 -0.0283,-0.4205289 -0.0424,-0.6307933 0.0832,-0.2356572 0.13244,-0.4861914 0.24953,-0.7069714 0.231,-0.4355899 0.52845,-0.7123975 0.8973,-1.0155174 0.23323,-0.1916628 0.38038,-0.2641057 0.62557,-0.071244 0.31622,0.6324558 1.21065,0.185242 0.89442,-0.4472135 z" />
    <path
       style="fill:#ff0000;stroke-width:0.264583"
       id="path6980"
       d="m 53.960003,7.365766 c 0.03018,-0.2425067 0.08114,-0.7255626 0.147807,-0.9598104 0.03252,-0.1142513 0.0773,-0.2273147 0.142388,-0.3266837 0.02883,-0.044021 0.105214,-0.1357236 0.130138,-0.089375 0.0057,0.010591 -0.143508,0.2299782 -0.163698,0.2601449 0.384818,0.8535795 -0.155437,1.5658097 -0.643215,2.2322674 -0.403667,0.461795 -0.954651,1.0797979 -0.137459,1.5730798 0.204165,0.12324 0.824785,-0.05246 1.027223,-0.097084 0.659363,-0.1856526 0.339397,-0.093814 0.960049,-0.274987 0.678773,-0.1981661 0.398523,-1.1580932 -0.280249,-0.9599274 v 0 c -0.596202,0.1740845 -0.295453,0.087393 -0.902272,0.2599756 -0.120705,0.028784 -0.246449,0.04141 -0.362114,0.086353 -0.129865,0.05046 0.0915,0.3972205 0.118843,0.5316561 0.0048,0.02368 -0.06626,0.067791 -0.05616,0.045838 0.03403,-0.073975 0.08071,-0.142019 0.130165,-0.2067115 0.09808,-0.1283139 0.207666,-0.2474061 0.311499,-0.3711091 C 55.037193,8.1602494 55.655426,7.1677675 55.18859,6.0047166 55.113808,5.8184031 54.976463,5.6638007 54.870402,5.4933426 54.673206,5.3776236 54.50482,5.1808215 54.278818,5.1461852 53.187549,4.9789405 53.040552,6.5793333 52.963463,7.28264 c -0.05878,0.7046595 0.93776,0.7877855 0.99654,0.083126 z" />
    <path
       style="fill:#ff0000;stroke-width:0.264583"
       id="path6982"
       d="m 56.425075,5.8247367 c -0.260643,0.1882888 -1.05529,0.6490813 -0.712012,1.1232671 0.301207,0.416075 0.750303,0.2961894 1.130628,0.2535737 0.156882,-0.017579 0.313767,-0.035156 0.470649,-0.052734 0.702709,-0.078738 0.591357,-1.0725187 -0.111353,-0.9937808 v 0 c -0.157813,0.017682 -0.315624,0.035367 -0.473434,0.05305 -0.117296,0.013875 -0.323337,-0.072987 -0.351883,0.041623 -0.03336,0.1339551 0.236699,0.1853142 0.261541,0.3211079 0.02864,0.1565561 -0.09548,0.3050797 -0.118171,0.4626086 -0.0047,0.03293 0.03839,-0.054955 0.06273,-0.077635 C 56.707727,6.8403147 56.841154,6.7544624 56.979653,6.6568706 57.56806,6.2647269 57.013483,5.432593 56.425078,5.824737 Z" />
    <path
       style="fill:#ff0000;stroke-width:0.264583"
       id="path6984"
       d="m 44.406486,5.360557 c -0.147992,0.5824114 -0.275749,1.2015596 0.345297,1.5914975 0.26946,0.1691876 0.945915,0.1995419 1.250032,0.2284323 0.215495,0.055164 1.047433,0.034437 1.123551,0.36415 0.01331,0.057666 -0.05005,0.107592 -0.06826,0.1639027 -0.247812,0.7661715 0.06108,0.00532 -0.35115,0.9299816 C 46.448151,9.0457233 45.996235,9.6349978 45.452675,9.2599877 45.194704,9.0820096 45.045704,8.7841922 44.882956,8.5324602 44.474825,7.9550264 43.658213,8.5322097 44.066343,9.1096435 v 0 c 0.392496,0.5250846 0.538107,0.8682029 1.186132,1.1300995 0.224613,0.09078 0.47869,0.118936 0.720088,0.09848 0.80772,-0.06844 1.269643,-0.6805929 1.655151,-1.3119387 0.202298,-0.5023366 0.469588,-0.980753 0.40132,-1.5530295 -0.129823,-1.0882802 -1.070158,-1.1838001 -1.936398,-1.2886381 -0.171863,-0.014901 -0.343326,-0.035563 -0.515594,-0.044702 -0.07826,-0.00415 -0.169391,-0.037892 -0.235063,0.00488 -0.04713,0.03069 0.02439,0.1457459 -0.02792,0.1663879 -0.04513,0.017809 -0.03581,-0.092293 -0.03692,-0.1408009 -0.0041,-0.1774388 0.05133,-0.3650498 0.09079,-0.53482 C 45.562387,4.9557191 44.600944,4.6807143 44.406486,5.360557 Z" />
    <path
       style="fill:#ff0000;stroke-width:0.264583"
       id="path6986"
       d="m 44.641926,5.8388345 c 0.625901,-0.2727516 1.28656,-0.3887494 1.959112,-0.4663816 0.702215,-0.083033 0.58479,-1.0761144 -0.117425,-0.9930815 v 0 c -0.751461,0.090697 -1.492289,0.2218396 -2.192962,0.5231905 -0.662043,0.2483879 -0.310769,1.1846607 0.351275,0.9362726 z" />
    <path
       style="fill:#ff0000;stroke-width:0.264583"
       id="path6988"
       d="m 48.199336,5.7125655 c 0.07029,0.7358171 0.216937,1.4595919 0.342246,2.1869241 0.120155,0.6968231 1.105612,0.5268957 0.985457,-0.1699273 v 0 C 49.401825,7.0040338 49.256185,6.2820197 49.185705,5.5480103 49.069347,4.850543 48.08298,5.0150982 48.199336,5.7125655 Z" />
    <path
       style="fill:#ff0000;stroke-width:0.264583"
       id="path6990"
       d="m 47.857497,7.2906225 c 0.664715,-0.084463 0.327773,-0.041489 1.010819,-0.128946 0.701381,-0.089804 0.574379,-1.0817066 -0.127002,-0.9919025 v 0 c -0.673399,0.086222 -0.345739,0.044299 -0.982975,0.1257768 -0.703623,0.070115 -0.604465,1.0651865 0.09916,0.9950717 z" />
    <path
       style="fill:#ff0000;stroke-width:0.264583"
       id="path6992"
       d="M 145.66097,6.0516065 C 145.94833,5.68619 146.2277,5.3129105 146.601,5.02847 c 0.0955,-0.07279 0.19428,-0.1469142 0.30678,-0.188966 0.0251,-0.00938 0.0889,0.050924 0.0621,0.051091 -0.1316,8.202e-4 -0.26116,-0.03269 -0.39174,-0.049035 -0.0609,0.065992 -0.1358,0.1214332 -0.1828,0.1979758 -0.13521,0.2201979 -0.24016,0.4576001 -0.36024,0.6864001 -0.16448,0.2596938 -0.32559,0.521557 -0.49346,0.7790815 -0.002,0.00238 -0.74959,1.108339 -0.81094,1.2200996 -0.0721,0.1313558 -0.11515,0.276684 -0.17273,0.4150262 0.0847,0.224463 0.0708,0.5186431 0.25412,0.6733884 0.28578,0.2412124 1.05382,0.1458814 1.38017,0.1111877 0.62489,-0.066433 0.81573,-0.1150342 1.42805,-0.2306214 0.69472,-0.1318218 0.50829,-1.1142911 -0.18642,-0.9824694 v 0 c -0.6115,0.1166802 -0.69673,0.1445422 -1.32063,0.2162162 -0.17576,0.02019 -0.35872,-0.00323 -0.5288,0.045478 -0.17206,0.049269 0.0245,0.614793 -0.0942,0.5285819 0.14011,-0.4156442 0.0393,-0.1800926 0.41266,-0.7420496 0.31397,-0.4725588 0.74877,-1.0925466 1.02286,-1.5792415 0.15727,-0.2792577 0.33092,-0.5552975 0.42935,-0.8603049 0.092,-0.2851692 0.0901,-0.5924965 0.13511,-0.8887447 -0.20367,-0.1789496 -0.3581,-0.4391922 -0.61102,-0.5368488 -0.16234,-0.062681 -0.3509,0.036876 -0.51173,0.1033388 -0.16146,0.066725 -0.30024,0.1805657 -0.43734,0.2888647 -0.44033,0.3478527 -0.78139,0.7900734 -1.11689,1.2343164 -0.37503,0.5994609 0.47273,1.1298322 0.84776,0.5303713 z" />
    <path
       style="fill:#ff0000;stroke-width:0.264583"
       id="path6994"
       d="m 149.80275,6.6301153 c 0.48702,-0.2223613 0.99619,-0.3901339 1.49997,-0.5692039 0.66626,-0.2368518 0.3313,-1.1790844 -0.33496,-0.9422328 v 0 c -0.51592,0.1834314 -1.03705,0.3561921 -1.53621,0.582885 -0.65659,0.2624801 -0.28538,1.1910319 0.3712,0.9285517 z" />
    <path
       style="fill:#ff0000;stroke-width:0.264583"
       id="path6996"
       d="m 136.26791,4.9329435 c 0.0982,-0.026337 0.19347,-0.068042 0.29453,-0.079007 0.1034,-0.011221 0.75428,-0.031776 0.71038,0.2323172 -0.007,0.043162 -0.0832,0.034081 -0.11383,0.065357 -0.0724,0.073997 -0.12683,0.1636435 -0.19025,0.2454651 -0.9168,1.1389595 -2.1686,1.8978938 -3.3499,2.7221868 0.10084,0.3059866 0.0675,0.6975609 0.30253,0.9179594 0.14183,0.1330198 0.38461,-0.058152 0.57566,-0.09431 0.23336,-0.044165 0.46411,-0.1013926 0.69727,-0.146598 0.79019,-0.1532014 1.58548,-0.2834875 2.38001,-0.4117226 0.53679,-0.1154528 0.72618,-0.1219936 1.21822,-0.3572997 0.1488,-0.071162 0.28169,-0.1716881 0.42254,-0.2575324 0.59696,-0.3789942 0.061,-1.2232257 -0.53598,-0.8442312 v 0 c -0.40077,0.2714307 -0.77232,0.4121023 -1.26418,0.47185 -0.81006,0.1308579 -1.6208,0.2639713 -2.42642,0.4203438 -0.23758,0.046115 -0.47579,0.090417 -0.71048,0.149471 -0.0718,0.018071 -0.20021,0.00756 -0.20676,0.081325 -0.0265,0.2983211 0.0803,0.5935771 0.1205,0.8903657 1.33273,-0.933355 2.74625,-1.7797306 3.69562,-3.1466916 0.0863,-0.2663304 0.25397,-0.5190638 0.25899,-0.7989914 0.0181,-1.0089832 -1.12126,-1.2294891 -1.87735,-1.0952459 -0.16819,0.029863 -0.32441,0.1071729 -0.48662,0.1607593 -0.61817,0.3433103 -0.13265,1.2175392 0.48552,0.8742295 z" />
    <path
       style="fill:#ff0000;stroke-width:0.264583"
       id="path6998"
       d="m 138.87947,4.5105592 c 0.039,0.5349642 0.0847,1.0708129 0.18092,1.5991549 0.0542,0.2978438 0.1712,0.624614 0.19454,0.9310481 0.0793,0.7026439 1.073,0.5904722 0.99369,-0.112172 v 0 c -0.0422,-0.3282921 -0.13925,-0.6415839 -0.19924,-0.9668584 -0.0951,-0.5158147 -0.13693,-1.0393783 -0.17603,-1.5616989 -0.0782,-0.7027746 -1.07203,-0.592248 -0.99388,0.1105263 z" />
    <path
       style="fill:#ff0000;stroke-width:0.264583"
       id="path7000"
       d="m 139.3138,6.1929189 c 0.33946,-0.1948542 0.51124,-0.3101829 0.92049,-0.4433908 0.19882,-0.064716 0.40803,-0.091546 0.61205,-0.1373191 0.6879,-0.1637101 0.45638,-1.1365399 -0.23152,-0.97283 v 0 c -0.26095,0.064885 -0.52854,0.1073079 -0.78286,0.1946545 -0.59749,0.2052082 -0.73194,0.3304614 -1.22504,0.6515483 -0.50016,0.4998374 0.20671,1.2071742 0.70688,0.7073371 z" />
    <path
       style="fill:#ff0000;stroke-width:0.264583"
       id="path7004"
       d="m 67.260784,34.987521 c 0.784077,-2.389138 1.428729,-4.821024 2.060469,-7.253941 0.06923,-0.196292 0.362596,-0.44984 0.207701,-0.588873 -0.145227,-0.130352 -0.331097,0.215913 -0.459267,0.363069 -0.414462,0.475853 -0.0882,1.177901 -0.01543,1.690971 0.273262,1.926735 0.211019,1.472927 0.61731,3.379486 0.147545,0.474493 0.421354,1.790462 0.958271,2.188395 0.801393,0.593952 1.304888,0.07193 1.675907,-0.698214 0.246764,-0.51222 0.44536,-2.5522 0.50214,-3.015115 0.04409,-0.541954 0.08819,-1.083908 0.132278,-1.625859 0.02455,-0.419145 0.0401,-0.838912 0.07366,-1.25743 0.05456,-0.68036 -0.138472,-0.694674 0.11965,-0.657664 0.343183,-0.618244 -0.531143,-1.10358 -0.874329,-0.485339 v 0 c -0.05262,0.120269 -0.129095,0.232717 -0.157864,0.360802 -0.05324,0.237053 -0.06623,0.481642 -0.08575,0.723818 -0.03312,0.411025 -0.04806,0.823312 -0.07209,1.234966 -0.04274,0.528622 -0.08548,1.057244 -0.128225,1.585868 -0.06285,0.520406 -0.113363,1.04245 -0.188534,1.561221 -0.05294,0.365348 -0.165359,0.722154 -0.195638,1.090076 -0.01119,0.135927 0.06723,0.266356 0.07279,0.40263 0.003,0.0741 0.01188,0.261844 -0.04746,0.217363 -0.18365,-0.137663 -0.312811,-0.346597 -0.40522,-0.556689 -0.179757,-0.408675 -0.267771,-0.851831 -0.401658,-1.277747 -0.400749,-1.871056 -0.331642,-1.390663 -0.603499,-3.298806 -0.0622,-0.436595 -0.144153,-2.156582 -0.676508,-2.516733 -0.722185,-0.488577 -0.938474,0.704646 -1.01614,0.928481 -0.629714,2.425237 -1.272678,4.84927 -2.054191,7.230896 -0.194005,0.679971 0.76762,0.954339 0.961626,0.274368 z" />
    <path
       style="fill:#ff0000;stroke-width:0.264583"
       id="path7006"
       d="m 73.57306,24.887424 c -0.234691,0.686855 -0.776666,1.886374 0.008,2.450143 0.183001,0.13149 0.427204,0.143571 0.640807,0.215355 0.185399,0.02405 1.417204,-0.02386 1.435849,0.263893 5.29e-4,0.0076 -0.190357,0.19834 -0.210534,0.218768 -0.412316,0.460637 -1.038926,0.677188 -1.578176,0.265052 -0.138967,-0.106209 -0.236448,-0.2578 -0.354674,-0.386699 -0.516795,-0.482622 -1.199322,0.24824 -0.682527,0.730858 v 0 c 0.23278,0.198893 0.4299,0.449421 0.698341,0.596678 0.797695,0.437586 1.744863,0.292245 2.413524,-0.303824 0.188211,-0.167777 0.305027,-0.401563 0.457541,-0.602345 0.04584,-0.244517 0.164293,-0.486219 0.137515,-0.733549 -0.112014,-1.034616 -1.372542,-1.022842 -2.126705,-1.030587 -0.03805,0.02304 -0.07837,0.0427 -0.114152,0.06913 -0.02596,0.01915 -0.04906,0.09143 -0.06995,0.06685 -0.187172,-0.220273 0.155181,-1.116559 0.239599,-1.37251 0.31623,-0.632455 -0.5782,-1.079669 -0.894427,-0.447213 z" />
    <path
       style="fill:#ff0000;stroke-width:0.264583"
       id="path7008"
       d="m 73.465766,25.34699 c 0.596662,-0.356469 1.282358,-0.617904 1.966677,-0.750268 0.175527,-0.03395 0.355589,-0.0375 0.533381,-0.05625 0.7024,-0.08145 0.587209,-1.074796 -0.115191,-0.993343 v 0 c -0.226632,0.02815 -0.455952,0.03968 -0.679895,0.08444 -0.789273,0.157766 -1.572942,0.467432 -2.259298,0.883116 -0.588526,0.391967 -0.0342,1.224267 0.554326,0.8323 z" />
    <path
       style="fill:#ff0000;stroke-width:0.264583"
       id="path7010"
       d="m 77.24768,25.730107 c 0.04865,0.607578 0.05784,1.216435 0.111133,1.823747 0.05317,0.605967 0.03841,0.214995 0.04792,0.569481 0.02466,0.706675 1.024057,0.671793 0.99939,-0.03489 v 0 c -0.01913,-0.472313 0.0064,0.0282 -0.05012,-0.609491 -0.05608,-0.633063 -0.06066,-1.268204 -0.119973,-1.901042 -0.107616,-0.69887 -1.095967,-0.546679 -0.988351,0.152191 z" />
    <path
       style="fill:#ff0000;stroke-width:0.264583"
       id="path7012"
       d="m 76.746623,27.727994 c 0.613225,-0.03144 1.226312,-0.06447 1.839658,-0.09359 0.706311,-0.03355 0.658866,-1.032423 -0.04744,-0.998874 v 0 c -0.597545,0.02839 -1.194908,0.05942 -1.792213,0.09247 -0.707107,0 -0.707107,1 0,1 z" />
    <path
       style="fill:#ff0000;stroke-width:0.264583"
       id="path7014"
       d="m 81.474899,28.624908 c -0.254804,0.706234 -0.413343,1.439008 -0.570727,2.171078 -0.04329,0.201359 -0.07519,0.405559 -0.130657,0.603909 -0.04003,0.143166 -0.10342,0.278749 -0.15513,0.418124 -0.239448,0.665329 0.701471,1.003961 0.940919,0.338629 v 0 c 0.06387,-0.181766 0.139612,-0.359785 0.1916,-0.545298 0.05586,-0.199319 0.08796,-0.404543 0.131308,-0.606952 0.145806,-0.68087 0.291415,-1.362657 0.525923,-2.020228 0.254037,-0.659897 -0.679202,-1.019159 -0.933236,-0.359262 z" />
    <path
       style="fill:#ff0000;stroke-width:0.264583"
       id="path7016"
       d="m 79.300431,30.909723 c 0.839772,-0.465342 1.792584,-0.630971 2.725058,-0.801079 0.695473,-0.127749 0.51481,-1.111295 -0.180663,-0.983547 v 0 c -1.065551,0.196967 -2.149401,0.399037 -3.09876,0.952352 -0.588508,0.391999 -0.03414,1.22427 0.554365,0.832274 z" />
    <path
       style="fill:#ff0000;stroke-width:0.264583"
       id="path7018"
       d="m 84.33364,27.890874 c 0.488116,-0.396605 1.27132,-0.884711 1.904751,-0.481369 0.08584,0.05466 0.129625,0.156916 0.194437,0.235373 -0.0054,0.08685 0.0069,0.176678 -0.01627,0.260567 -0.197307,0.714904 -0.879649,1.086025 -1.421714,1.508334 -0.06293,0.183766 -0.233776,0.362336 -0.188791,0.551299 0.100451,0.421944 0.62263,0.667131 0.920628,0.902078 0.196279,0.154753 0.396957,0.306959 0.56942,0.487874 0.562999,0.5906 0.482592,0.590751 0.74943,1.317146 -0.03351,0.197612 5.29e-4,0.419751 -0.100528,0.592836 -0.12132,0.207769 -0.328764,0.358597 -0.531067,0.488823 -0.971272,0.625226 -2.075759,0.775332 -3.174894,0.393843 -0.265086,-0.09201 -0.485045,-0.282266 -0.727567,-0.4234 -0.154358,-0.433644 -0.254751,-0.347551 0.106196,-0.382286 0.281768,-0.648541 -0.635408,-1.047025 -0.917176,-0.398483 v 0 c -0.235323,1.22134 -0.360071,0.670485 0.335989,1.66076 0.34616,0.17662 0.666512,0.417335 1.038479,0.529857 0.451398,0.136549 0.927939,0.21526 1.399474,0.207629 1.338623,-0.02167 2.949411,-0.627705 3.467322,-1.996294 0.123458,-0.326231 0.02117,-0.697299 0.03174,-1.045948 -0.133734,-0.313513 -0.225147,-0.648679 -0.401198,-0.940536 -0.327412,-0.542774 -0.782762,-0.925465 -1.269781,-1.309383 -0.144947,-0.11426 -0.272232,-0.280175 -0.45271,-0.318804 -0.172151,-0.03685 0.158197,0.684604 -0.23917,0.470894 0.212749,-0.166891 0.445249,-0.308549 0.650888,-0.484126 0.601623,-0.51366 1.200267,-1.213964 1.119286,-2.077096 -0.02516,-0.268282 -0.196493,-0.501822 -0.294738,-0.752731 -0.198358,-0.148598 -0.370039,-0.341945 -0.595077,-0.445796 -0.971778,-0.448452 -2.04787,0.06381 -2.797191,0.680431 -0.543417,0.452437 0.09642,1.220943 0.639839,0.768508 z" />
    <path
       style="fill:#ff0000;stroke-width:0.264583"
       id="path7020"
       d="m 89.953448,30.272304 c 0.830059,-0.490437 2.044737,-0.811236 2.710519,-1.517568 0.127606,-0.135376 0.21024,-0.306985 0.315359,-0.460478 0.0091,-0.209439 0.095,-0.429924 0.02727,-0.628319 -0.292968,-0.858147 -1.271643,-0.700961 -1.870493,-0.347395 -0.618157,0.364966 -0.800888,0.723765 -1.231691,1.286547 -0.152572,0.302884 -0.331716,0.593786 -0.457713,0.908656 -0.393012,0.982146 -0.744527,2.674069 0.281509,3.438768 0.258024,0.192304 0.59799,0.237993 0.896985,0.356989 0.363524,-0.0209 0.733242,0.0073 1.090572,-0.0627 0.974011,-0.190825 2.086089,-0.779481 2.833844,-1.431973 0.18841,-0.164406 0.338296,-0.368337 0.507442,-0.552502 0.470844,-0.527551 -0.27522,-1.193422 -0.746064,-0.665875 v 0 c -0.118184,0.137769 -0.219443,0.292095 -0.354558,0.413306 -0.645014,0.578644 -1.496444,1.019392 -2.331736,1.2412 -0.230597,0.06123 -0.472326,0.06788 -0.70849,0.101825 -0.141082,-0.01487 -0.292942,0.01151 -0.423241,-0.04459 -0.317656,-0.13675 -0.422683,-0.483966 -0.442479,-0.796266 -0.0519,-0.818799 0.288838,-1.604275 0.655873,-2.309437 0.367125,-0.510802 0.37528,-0.606362 0.840849,-0.972357 0.0942,-0.07405 0.210592,-0.115753 0.307366,-0.186415 0.128376,-0.09374 0.100624,-0.255103 0.272844,-0.27314 -0.03238,0.07019 -0.04617,0.152461 -0.09714,0.210577 -0.225313,0.256878 -0.579543,0.436856 -0.869831,0.589047 -0.556257,0.291637 -1.140605,0.526743 -1.692211,0.827712 -0.618289,0.343103 -0.133064,1.217493 0.485222,0.874389 z" />
    <path
       style="fill:#ff0000;stroke-width:0.264583"
       id="path7022"
       d="m 89.917097,27.209408 c 1.210762,-0.479448 2.513346,-0.674071 3.79739,-0.84782 0.70068,-0.09511 0.566182,-1.086019 -0.134501,-0.990913 v 0 c -1.401818,0.190836 -2.825009,0.406291 -4.137004,0.95827 -0.622583,0.33525 -0.148466,1.215714 0.474115,0.880463 z" />
    <path
       style="fill:#ff0000;stroke-width:0.264583"
       id="path7024"
       d="m 99.075818,29.548849 c 2.858342,-0.411136 5.741312,-0.6922 8.626532,-0.82632 0.54771,-0.02545 1.09618,-0.03032 1.64427,-0.04549 1.22527,0.03822 1.02519,0.372197 0.6591,-0.752443 -0.67626,0.206587 -0.38411,1.162957 0.29215,0.956373 v 0 c 0.13505,-0.344355 0.40024,-0.663204 0.40515,-1.033063 0.006,-0.464849 -1.95601,0.3824 -1.38422,-0.170479 -3.51417,0.09837 -7.02988,0.37215 -10.505867,0.90659 -0.682236,0.185886 -0.419351,1.150715 0.262885,0.964827 z" />
    <path
       style="fill:#ff0000;stroke-width:0.264583"
       id="path7026"
       d="m 107.3703,26.171895 c 0.78692,0.412568 1.61778,0.752928 2.37222,1.226397 0.22747,0.142753 0.46486,0.282215 0.64825,0.478396 0.0763,0.08162 0.17528,0.239223 0.0985,0.320405 -0.0993,0.104984 -0.28818,0.02167 -0.43227,0.03252 -1.38145,0.745085 -0.64672,0.386643 -2.21196,1.059264 -0.649,0.280707 -0.25202,1.198534 0.39698,0.917827 v 0 c 1.76687,-0.768776 0.90854,-0.327716 2.5737,-1.325674 0.18918,-0.377333 0.52936,-0.711626 0.56755,-1.131999 0.0238,-0.2624 -0.22192,-0.488563 -0.40291,-0.680048 -0.21409,-0.226512 -0.49353,-0.382492 -0.7577,-0.547888 -0.77593,-0.485793 -1.62942,-0.836515 -2.4387,-1.259633 -0.64377,-0.292499 -1.05743,0.617934 -0.41366,0.910433 z" />
    <path
       style="fill:#ff0000;stroke-width:0.264583"
       id="path7028"
       d="m 114.4429,32.802893 c 0.71872,-1.580586 1.34978,-3.209385 1.73826,-4.906063 0.31775,-1.387716 0.3187,-1.813564 0.44921,-3.168497 0.009,-0.302285 0.0186,-0.604571 0.0279,-0.906856 -0.002,-0.05456 0.0394,-0.191622 -0.007,-0.163666 -0.35861,0.21369 -0.84353,0.371749 -0.99471,0.760858 -0.18151,0.467164 0.0575,1.001347 0.11667,1.499022 0.2286,1.92141 0.27491,1.837079 0.76312,3.702916 0.20068,0.465362 0.33928,0.962744 0.60205,1.396087 0.36035,0.594264 0.97015,1.231196 1.77104,0.648814 0.36093,-0.262451 0.52298,-0.73728 0.67191,-1.157952 0.27226,-0.769006 0.46128,-2.739406 0.55374,-3.510317 0.0288,-0.291436 0.18881,-2.05547 0.27893,-2.560515 0.006,-0.03403 0.0438,-0.05351 0.0656,-0.08027 0.30258,-0.639098 -0.60125,-1.067009 -0.90382,-0.427911 v 0 c -0.0513,0.127912 -0.12676,0.248632 -0.15405,0.383737 -0.079,0.391139 -0.26651,2.433179 -0.27966,2.566526 -0.21583,1.820058 -0.14605,1.534433 -0.47187,3.216553 -0.042,0.216855 -0.11765,0.427458 -0.14455,0.646702 -0.0133,0.108197 0.13058,0.354016 0.0252,0.326052 -0.56502,-0.149974 -0.95237,-1.486286 -1.04753,-1.702073 -0.47256,-1.783802 -0.50983,-1.676855 -0.73325,-3.526819 -0.0572,-0.473624 0.10845,-1.004447 -0.11361,-1.42668 -1.20239,-2.286253 -1.01321,-0.05189 -1.02115,0.221061 -0.11942,1.271473 -0.12136,1.693582 -0.4172,2.99552 -0.37147,1.63476 -0.97919,3.203189 -1.66912,4.726419 -0.31633,0.632404 0.57803,1.079759 0.89436,0.447352 z" />
    <path
       style="fill:#ff0000;stroke-width:0.264583"
       id="path7030"
       d="m 122.17368,24.940142 c 0.0734,-0.58112 0.14849,-1.210515 0.51437,-1.696063 0.0722,-0.09588 0.16502,-0.198805 0.28254,-0.223375 0.0915,-0.01913 0.0748,0.200341 0.0756,0.354003 0.25975,1.250295 -0.46154,1.848018 -1.08586,2.779087 -0.0376,0.159984 -0.15095,0.320139 -0.11267,0.479952 0.0576,0.240356 0.18089,0.490342 0.3801,0.63662 0.21716,0.159446 0.51093,0.190018 0.77921,0.214606 0.70052,0.06421 1.65651,-0.226034 2.33398,-0.417584 0.1243,-0.04428 0.24859,-0.08856 0.37289,-0.132839 0.66541,-0.239218 0.3271,-1.180255 -0.33831,-0.941035 v 0 c -0.10283,0.03737 -0.20565,0.07474 -0.30848,0.112116 -0.54764,0.157226 -0.70812,0.217891 -1.29655,0.319291 -0.19788,0.0341 -0.39877,0.0477 -0.59786,0.07387 -0.0881,0.01159 -0.19356,-0.01513 -0.26377,0.03939 -0.1743,0.13539 0.0128,0.306255 -0.11562,0.16901 0.32129,-0.489161 0.73288,-0.908741 0.97598,-1.450634 0.24715,-0.550925 0.39767,-1.139839 0.29863,-1.750167 -0.0469,-0.289291 -0.2012,-0.550533 -0.30181,-0.8258 -0.22979,-0.170227 -0.4128,-0.437929 -0.68937,-0.510681 -0.25773,-0.0678 -0.55062,0.0048 -0.79022,0.121468 -0.21064,0.10257 -0.35815,0.309837 -0.49134,0.502582 -0.43422,0.628407 -0.54368,1.409126 -0.6214,2.146182 0,0.707107 1,0.707107 1,0 z" />
    <path
       style="fill:#ff0000;stroke-width:0.264583"
       id="path7032"
       d="m 83.695039,38.653521 c -0.248759,1.817584 -0.463762,3.63932 -0.63065,5.4663 -0.159735,1.7487 -0.02027,0.458599 -0.167508,1.759926 -0.19014,0.498835 -0.04222,0.07658 0.05711,-0.02666 0.04047,-0.04206 0.108331,-0.04348 0.162497,-0.06522 -0.668571,-0.230241 -0.994183,0.715261 -0.325612,0.945504 v 0 c 0.171476,0.01865 0.350305,0.109051 0.514424,0.05598 0.476281,-0.154022 0.469894,-0.418923 0.585274,-0.797481 0.119023,-1.057582 0.194347,-2.118645 0.304877,-3.177278 0.144235,-1.381484 0.184263,-1.652936 0.356769,-3.002182 0.04154,-0.324932 0.0838,-0.649771 0.125704,-0.974659 0.13027,-0.695002 -0.852615,-0.879234 -0.982885,-0.184229 z" />
    <path
       style="fill:#ff0000;stroke-width:0.264583"
       id="path7034"
       d="m 80.904246,46.26552 c 1.029258,-0.163557 2.054492,-0.348046 3.079117,-0.538104 0.53974,-0.100116 1.399847,-0.248119 1.95834,-0.389848 0.187862,-0.04767 0.370211,-0.114914 0.555318,-0.172368 0.566817,-0.438097 0.366932,-0.123944 0.252561,-1.088128 -0.464928,-0.532768 -1.218374,0.124743 -0.753446,0.657511 v 0 c 0.146709,-0.565164 -0.03523,-0.607902 0.201062,-0.523378 -0.785468,0.250478 -1.585904,0.382627 -2.396291,0.532998 -1.033619,0.191791 -2.068063,0.376563 -3.106039,0.543483 -0.691433,0.148053 -0.482055,1.125887 0.209378,0.977834 z" />
    <path
       style="fill:#ff0000;stroke-width:0.264583"
       id="path7036"
       d="m 83.000942,40.264746 c 0.89685,-0.603311 1.964433,-0.936754 3.034273,-1.046091 0.07139,0.0019 0.142785,0.0039 0.214177,0.0059 0.707065,0.0076 0.717873,-0.992299 0.0108,-0.999943 v 0 c -0.111357,-2e-6 -0.222713,-5e-6 -0.33407,-8e-6 -1.122437,0.129863 -2.284138,0.438013 -3.245014,1.055193 -0.158544,0.101833 -0.298794,0.229666 -0.448191,0.344501 -0.452853,0.543068 0.315163,1.1835 0.768016,0.640429 z" />
    <path
       style="fill:#ff0000;stroke-width:0.264583"
       id="path7038"
       d="m 89.061236,39.066044 c 0.504804,-0.01834 1.010004,0.01072 1.514747,0.0058 0.350161,-0.0034 0.694378,-0.02609 1.044287,-0.01116 0.706535,0.02837 0.746652,-0.97083 0.04011,-0.999194 v 0 c -0.358902,-0.01368 -0.712727,0.007 -1.071526,0.01042 -0.550243,0.0053 -1.101124,-0.02978 -1.651241,0.0019 -0.701683,0.08741 -0.578064,1.079741 0.123619,0.992328 z" />
    <path
       style="fill:#ff0000;stroke-width:0.264583"
       id="path7040"
       d="m 97.528577,39.52476 c 1.356752,-0.252876 2.750663,-0.104939 4.117183,-0.03993 1.79535,0.08542 1.28324,0.0644 2.95116,0.09688 0.28408,-5.29e-4 0.56816,-7.94e-4 0.85224,-0.0013 0.70711,-0.0011 0.70544,-1.001175 -0.002,-1 v 0 c -0.27707,5.29e-4 -0.55414,0.0011 -0.83121,0.0016 -1.65773,-0.03191 -1.12283,-0.01066 -2.91963,-0.09577 -1.51415,-0.07172 -3.071455,-0.247225 -4.562184,0.119562 -0.649877,0.278675 -0.25577,1.19774 0.394105,0.919065 z" />
    <path
       style="fill:#ff0000;stroke-width:0.264583"
       id="path7042"
       d="m 103.33469,37.259162 c 1.05635,0.438171 2.10036,0.919705 3.11291,1.452425 0.6337,0.333401 0.54514,0.124618 0.63303,0.488696 -0.11242,-0.0887 -0.19474,-0.279993 -0.33726,-0.2661 -0.24325,0.02371 -0.42456,0.242269 -0.63809,0.361178 -0.23224,0.129323 -0.46612,0.255672 -0.69917,0.38351 -0.61988,0.340223 -0.13873,1.216862 0.48115,0.876639 v 0 c 0.16512,-0.09068 1.44182,-0.779235 1.53231,-0.884605 0.24732,-0.287996 0.32793,-0.684758 0.49189,-1.027139 -0.12423,-0.153818 -0.21921,-0.336817 -0.37271,-0.461455 -0.20575,-0.167071 -1.34201,-0.711882 -1.4996,-0.788881 -0.7851,-0.383593 -1.57091,-0.771621 -2.38832,-1.082982 -0.67084,-0.223541 -0.98698,0.725172 -0.31614,0.948714 z" />
    <path
       style="fill:#ff0000;stroke-width:0.264583"
       id="path7044"
       d="m 114.11376,38.137285 c -0.28759,1.670129 -0.68405,3.318261 -1.06904,4.967763 -0.25485,1.091896 -0.10892,0.610788 -0.38438,1.413881 -0.14095,0.197196 -0.14604,0.219437 -0.0529,0.04348 -0.63828,0.30431 -0.20791,1.206968 0.43036,0.902655 v 0 c 0.47209,-0.341222 0.28384,-0.131051 0.56985,-0.625925 0.30002,-0.898763 0.1486,-0.383135 0.41072,-1.506209 0.38915,-1.667383 0.7894,-3.333485 1.0801,-5.02171 0.123,-0.696327 -0.86176,-0.870267 -0.98475,-0.173939 z" />
    <path
       style="fill:#ff0000;stroke-width:0.264583"
       id="path7046"
       d="m 111.22144,45.363336 c 1.58409,-0.658022 3.25515,-1.043178 4.91964,-1.432708 0.49911,-0.158332 0.27125,-0.03664 0.68256,-0.366985 0.45734,-0.539301 -0.30535,-1.186069 -0.76268,-0.646769 v 0 c 0.24299,-0.09354 0.19638,-0.07276 -0.14776,0.04007 -1.71789,0.402103 -3.44158,0.803317 -5.07607,1.483193 -0.6528,0.271754 -0.26849,1.194954 0.38431,0.923203 z" />
    <path
       style="fill:#ff0000;stroke-width:0.264583"
       id="path7048"
       d="m 112.59138,38.377891 c 1.45748,-0.363921 2.98156,-0.56339 4.48606,-0.530092 0.0707,0.01011 0.14139,0.02019 0.21208,0.03028 0.70133,0.09024 0.82895,-0.901583 0.12762,-0.991822 v 0 c -0.10692,-0.01275 -0.21384,-0.02553 -0.32076,-0.03828 -0.752,-0.01217 -1.4953,0.03759 -2.24376,0.117541 -0.64876,0.0693 -1.29058,0.153345 -1.92812,0.294682 -0.24186,0.05362 -0.47822,0.12963 -0.71733,0.194445 -0.65283,0.271677 -0.26862,1.194925 0.38421,0.923246 z" />
    <path
       style="fill:#ff0000;stroke-width:0.264583"
       id="path7050"
       d="m 121.54699,38.275635 c -0.13445,0.757187 -0.12935,1.53161 -0.13595,2.297827 -0.003,0.372049 0.0364,0.9941 -0.069,1.390851 -0.017,0.06412 -0.0801,0.105773 -0.12017,0.15866 -0.32796,0.626454 0.55798,1.090258 0.88594,0.463807 v 0 c 0.0758,-0.168373 0.18123,-0.326324 0.22732,-0.505116 0.10928,-0.423871 0.0724,-1.077196 0.0758,-1.492062 0.006,-0.69005 1.5e-4,-1.387377 0.10617,-2.071209 0.17165,-0.685953 -0.79843,-0.928711 -0.97009,-0.242758 z" />
    <path
       style="fill:#ff0000;stroke-width:0.264583"
       id="path7052"
       d="m 119.98863,41.561826 c 1.05282,-0.03225 2.10224,-0.132106 3.15224,-0.211619 0.70509,-0.05339 0.62957,-1.050541 -0.0755,-0.997145 v 0 c -1.0249,0.07762 -2.04921,0.174667 -3.07673,0.208764 -0.7071,0 -0.7071,1 0,1 z" />
    <path
       style="fill:#ff0000;stroke-width:0.264583"
       id="path7054"
       d="m 127.88657,40.250181 c -0.0997,-0.02278 -0.53078,-0.138213 -0.63852,-0.0946 -0.62644,0.253577 -0.76246,0.538512 -0.20306,1.1582 0.27278,0.302173 1.20973,0.379812 1.521,0.42998 1.01869,0.0011 2.00291,-0.172961 2.8337,-0.807519 0.47432,-0.362283 0.89576,-0.848831 0.91282,-1.490009 0.008,-0.296838 -0.15492,-0.573325 -0.23237,-0.859988 -0.26808,-0.203713 -0.48522,-0.503444 -0.80423,-0.611135 -0.37306,-0.125941 -0.79279,-0.131228 -1.17979,-0.05863 -1.50154,0.281672 -2.58771,1.624946 -3.1378,2.95848 -0.20024,0.485424 -0.26774,1.0155 -0.4016,1.523249 0.069,1.026552 -0.10539,1.800336 0.79558,2.548205 0.74661,0.619728 1.79292,0.63514 2.66179,0.360045 1.15233,-0.364842 1.55099,-0.918321 2.38855,-1.710423 0.24265,-0.334317 0.4853,-0.668634 0.72795,-1.002953 0.41158,-0.574977 -0.40156,-1.157042 -0.81314,-0.582063 v 0 c -0.20335,0.288748 -0.4067,0.577496 -0.61006,0.866244 -0.66359,0.659603 -0.95018,1.079542 -1.83871,1.439822 -0.38774,0.157221 -1.26782,0.313801 -1.69687,0.05626 -0.70319,-0.422095 -0.56664,-1.024771 -0.64545,-1.730627 0.10185,-0.427032 0.14902,-0.870942 0.30555,-1.281099 0.4534,-1.188019 1.50233,-2.572848 2.924,-2.532345 0.13598,0.0039 0.26075,0.07772 0.39112,0.11658 0.0655,0.08433 0.17172,0.149138 0.19656,0.253003 0.0926,0.387032 -0.18843,0.654418 -0.45631,0.878647 -0.62151,0.520229 -1.3908,0.653931 -2.17616,0.676849 -0.21363,-0.02721 -0.42907,-0.04283 -0.64091,-0.08164 -0.12085,-0.02214 -0.25358,-0.17069 -0.35457,-0.100708 -0.11769,0.08155 -0.007,0.309856 -0.10217,0.417221 -0.0979,0.110906 -0.28641,0.08682 -0.41179,0.165275 -0.12634,0.07906 0.85737,-0.174551 0.44224,0.06579 0.68598,0.171577 0.92862,-0.798536 0.24265,-0.970113 z" />
    <path
       style="fill:#ff0000;stroke-width:0.264583"
       id="path7056"
       d="m 127.71423,36.915693 c 0.77051,-0.367956 1.61348,-0.545134 2.43565,-0.754605 0.68512,-0.174953 0.4377,-1.14386 -0.24742,-0.968907 v 0 c -0.92403,0.236477 -1.87098,0.437862 -2.72517,0.879888 -0.59653,0.379669 -0.0596,1.223293 0.53694,0.843624 z" />
    <path
       style="fill:#00ff00;stroke-width:0.264583"
       id="path7064"
       d="m 66.823639,39.035749 c -0.08129,-0.115591 -0.121494,-0.276119 -0.243879,-0.346779 -0.230534,-0.133101 -0.501841,-0.284631 -0.763323,-0.234736 -0.914876,0.174572 -1.937681,1.333945 -2.470073,1.888054 -0.935411,0.973566 -2.14099,2.411108 -3.013694,3.429643 -1.586672,1.893652 -0.854494,1.033459 -2.190219,2.585936 -0.461163,0.53603 0.296897,1.188212 0.758061,0.652183 v 0 c 1.341757,-1.559685 0.609211,-0.698892 2.19158,-2.58752 0.946767,-1.105281 1.949948,-2.305663 2.952777,-3.364637 0.379479,-0.400722 0.778907,-0.782214 1.177404,-1.164032 0.161094,-0.154352 0.348863,-0.280667 0.500856,-0.443989 0.03824,-0.04108 0.0033,-0.151371 0.05907,-0.157663 0.06086,-0.0069 0.08146,0.09148 0.12219,0.137213 0.278368,0.650007 1.197618,0.256337 0.919249,-0.393673 z" />
    <path
       style="fill:#00ff00;stroke-width:0.264583"
       id="path7066"
       d="m 58.32163,39.501601 c 0.308366,-0.208304 0.636357,-0.548053 1.039386,-0.553932 0.04252,-5.29e-4 0.116491,0.03789 0.101254,0.07759 -0.0195,0.05078 -0.11412,0.01886 -0.152919,0.057 -0.04134,0.04063 -0.0453,0.106706 -0.06795,0.160062 -0.209293,0.554908 -0.443381,1.129805 -0.03885,1.671029 0.106039,0.141867 0.27727,0.220507 0.413364,0.333859 0.09459,0.07879 0.185724,0.161647 0.278585,0.24247 0.09793,0.179157 0.245451,0.353716 0.170804,0.582459 -0.03027,0.09275 -0.116567,0.158057 -0.188767,0.223668 -0.507947,0.461611 -0.990618,0.515194 -1.64433,0.630187 -0.198908,0.01252 -0.397819,0.02506 -0.596728,0.03758 -0.705419,0.04883 -0.636357,1.046445 0.06906,0.997611 v 0 c 0.239225,-0.01781 0.478451,-0.03561 0.717677,-0.05341 0.699643,-0.14488 1.151326,-0.165105 1.760029,-0.590714 0.726234,-0.507785 1.075023,-1.238943 0.709057,-2.084022 -0.08073,-0.18641 -0.230264,-0.334725 -0.345395,-0.502089 -0.119184,-0.10123 -0.230388,-0.212688 -0.357555,-0.303692 -0.0424,-0.03034 -0.09374,-0.05883 -0.145828,-0.05654 -0.03159,0.0013 -0.0525,0.09344 -0.06815,0.06597 -0.129749,-0.227735 0.324872,-0.97726 0.266804,-1.215234 -0.02844,-0.223846 0.01611,-0.469964 -0.0853,-0.671537 -0.566719,-1.126466 -1.831798,-0.337536 -2.485015,0.19239 -0.536895,0.460155 0.113861,1.21944 0.650759,0.759288 z" />
    <path
       style="fill:#00ff00;stroke-width:0.264583"
       id="path7068"
       d="m 63.681609,27.391328 c -0.251325,0.212945 -0.520134,0.406829 -0.753978,0.638836 -0.812143,0.805765 -1.405887,1.590453 -2.093319,2.51214 -0.819563,1.098838 -1.581926,2.230046 -2.304638,3.393807 -0.08829,0.171125 -0.176575,0.342252 -0.264863,0.513379 -0.322379,0.629344 0.567647,1.085255 0.890026,0.455912 v 0 c 0.07485,-0.147349 0.149699,-0.294696 0.224549,-0.442045 0.703975,-1.135509 1.448721,-2.23748 2.246607,-3.310117 0.675105,-0.907582 1.175123,-1.570403 1.954545,-2.365637 0.187992,-0.191807 0.403178,-0.354928 0.604766,-0.532395 0.610857,-0.356166 0.107162,-1.220046 -0.503695,-0.86388 z" />
    <path
       style="fill:#00ff00;stroke-width:0.264583"
       id="path7070"
       d="m 60.419432,29.568029 c 0.381489,-0.877742 0.74699,-1.835486 0.678825,-2.813058 -0.0113,-0.162066 -0.06269,-0.318812 -0.09404,-0.478217 -0.162457,-0.136047 -0.279881,-0.451129 -0.487373,-0.408142 -0.850212,0.176142 -0.869762,1.017801 -0.926682,1.638598 -0.09582,1.045004 0.01397,2.083414 0.141769,3.118575 0.05986,0.450977 0.208981,0.880025 0.299112,1.323753 0.143316,0.69243 1.122563,0.489751 0.979244,-0.202682 v 0 c -0.08758,-0.41711 -0.217705,-0.823073 -0.286055,-1.244907 -0.120097,-0.951248 -0.205401,-1.888704 -0.144674,-2.849496 0.01519,-0.240279 0.179959,-0.494575 0.08765,-0.716931 -0.09851,-0.237286 -0.749697,0.104897 -0.637291,-0.433509 0.02291,0.07523 0.06181,0.147357 0.06871,0.225695 0.07321,0.8314 -0.255683,1.646367 -0.573622,2.393109 -0.316227,0.632454 0.578199,1.079669 0.894427,0.447212 z" />
    <path
       style="fill:#00ff00;stroke-width:0.264583"
       id="path7074"
       d="m 61.172044,36.814379 c -0.184565,0.167256 -0.375822,0.327411 -0.553701,0.501763 -0.642962,0.630227 -1.62161,1.687984 -2.197553,2.298327 -1.392909,1.476116 -1.64439,1.739315 -3.015985,3.185057 -0.486672,0.512982 0.238792,1.20124 0.725464,0.688258 v 0 c 1.357196,-1.430565 1.641128,-1.72797 3.018575,-3.187793 0.644412,-0.682947 1.457526,-1.56424 2.144639,-2.246156 0.148145,-0.147026 0.306276,-0.283631 0.459414,-0.425445 0.575591,-0.410726 -0.0053,-1.224735 -0.580853,-0.814011 z" />
    <path
       style="fill:#00ff00;stroke-width:0.264583"
       id="path7076"
       d="m 55.027054,37.384373 c -1.074777,1.35605 -2.013167,3.022484 -1.938247,4.815007 0.01381,0.330282 0.119512,0.650247 0.179268,0.97537 0.372502,0.568505 0.476419,1.040207 1.304914,1.041122 0.957633,0.0011 1.747531,-1.124008 1.910713,-1.958091 0.05659,-0.289256 -0.01696,-0.589235 -0.02545,-0.883851 -0.232968,-0.223372 -0.386075,-0.590714 -0.69891,-0.67011 -0.861343,-0.218604 -1.595911,0.410876 -2.237841,0.802835 -0.597355,0.378373 -0.06225,1.223161 0.535101,0.844789 v 0 c 0.253582,-0.16835 0.509191,-0.333682 0.760744,-0.505048 0.139596,-0.0951 0.26734,-0.207954 0.412554,-0.29423 0.07129,-0.04236 0.1549,-0.05928 0.232349,-0.08892 0.03066,0.141888 0.110964,0.281749 0.09197,0.425667 -0.04879,0.369813 -0.42424,1.127146 -0.763428,1.35097 -0.0693,0.04573 -0.163346,0.10981 -0.238014,0.07349 -0.136284,-0.0663 -0.203118,-0.224986 -0.304676,-0.337479 -0.05394,-0.235188 -0.145872,-0.464799 -0.161816,-0.705567 -0.101912,-1.538909 0.747331,-3.004156 1.647722,-4.178691 0.50011,-0.499891 -0.206844,-1.207151 -0.706954,-0.707258 z" />
    <path
       style="fill:#00ff00;stroke-width:0.264583"
       id="path7078"
       d="m 58.759817,28.095913 c 0.247737,-0.520327 0.529807,-1.032991 0.914037,-1.46763 0.176255,-0.19938 0.459764,-0.519811 0.779294,-0.528274 0.05256,-0.0014 0.07935,0.06902 0.11902,0.103523 -0.213683,0.895241 -0.494152,1.568373 -1.072976,2.305914 -0.137001,0.17457 -0.296375,0.330362 -0.444561,0.495541 -0.129587,0.1201 -0.257267,0.242287 -0.38876,0.360299 -0.476615,0.427752 -0.829238,0.699683 0.104831,1.288659 0.140369,0.08851 1.240208,-0.1596 1.309616,-0.173186 0.820804,-0.191804 1.583412,-0.544581 2.342216,-0.899795 0.640035,-0.300588 0.214939,-1.205735 -0.425096,-0.905148 v 0 c -0.684926,0.322797 -1.37284,0.645036 -2.113007,0.824318 -0.200078,0.04091 -0.399508,0.08512 -0.600231,0.122732 -0.106323,0.01992 -0.29224,-0.05452 -0.320667,0.04985 -0.337008,1.237368 0.200109,0.59129 0.385125,0.42319 0.153876,-0.139808 0.302794,-0.284977 0.454194,-0.427466 0.606705,-0.69101 1.122677,-1.311278 1.438151,-2.200016 0.184322,-0.51926 0.344974,-1.206082 0.06605,-1.74322 -0.117123,-0.225545 -0.379159,-0.338515 -0.568735,-0.507772 -0.229468,-0.01084 -0.463561,-0.07962 -0.688401,-0.03252 -1.035608,0.216954 -1.875054,1.778211 -2.260182,2.668242 -0.171656,0.685954 0.79843,0.928714 0.970087,0.242758 z" />
    <path
       style="fill:#00ff00;stroke-width:0.264583"
       id="path7080"
       d="m 36.733421,14.005681 c 0.06311,-0.519661 0.28942,-1.012908 0.53829,-1.467804 0.107667,-0.196797 0.214982,-0.3966 0.355761,-0.571247 0.299236,-0.371218 0.2486,-0.355462 0.425556,-0.172956 -0.01336,0.0655 -0.04314,0.12972 -0.04005,0.196493 0.03463,0.748269 0.20651,0.159179 5.29e-4,1.164507 -0.153043,0.747067 -0.392382,1.297448 -0.785297,1.95845 -0.188449,0.317027 -0.422134,0.604881 -0.633201,0.907321 -0.502787,0.540878 -0.636023,0.754206 -1.222777,1.149454 -0.147373,0.09927 -0.313618,0.167171 -0.471297,0.2491 -0.117049,0.06082 -0.252134,0.09395 -0.352853,0.179129 -0.119904,0.101398 -0.327393,0.214529 -0.294122,0.367994 0.06805,0.313866 0.364011,0.529214 0.546016,0.793821 0.259342,0.01988 0.517943,0.05623 0.778023,0.05965 0.456303,0.006 1.53638,-0.07927 1.972479,-0.101023 0.839306,-0.04187 1.67916,-0.05357 2.519299,-0.05934 0.114242,0.0094 0.228484,0.01879 0.342725,0.02818 0.705014,0.05435 0.781873,-0.942695 0.07686,-0.997042 v 0 c -0.142174,-0.01037 -0.284345,-0.02074 -0.426516,-0.03112 -0.858589,0.006 -1.716778,0.01847 -2.574518,0.06124 -1.029295,0.05133 -0.895291,0.07306 -1.863164,0.100203 -0.160414,0.0045 -0.320958,1.19e-4 -0.481435,1.79e-4 0.0011,0.198386 0.04464,0.401122 0.0033,0.595156 -0.01135,0.05322 -0.194196,0.09831 -0.145762,0.07351 0.274355,-0.140487 0.780693,-0.389575 0.997255,-0.540054 0.683876,-0.475196 0.839305,-0.724608 1.419299,-1.360737 0.235812,-0.344566 0.498649,-0.672116 0.707435,-1.033698 0.422621,-0.73191 0.760528,-1.505997 0.886904,-2.348544 0.08772,-0.584797 0.107868,-1.417391 -0.299791,-1.931049 -0.181052,-0.228126 -0.487037,-0.319501 -0.730555,-0.479251 -0.23505,0.05318 -0.492707,0.04578 -0.705151,0.159554 -0.380402,0.203725 -0.724853,0.809637 -0.909273,1.155181 -0.350803,0.657291 -0.642604,1.353691 -0.610155,2.111846 0.153522,0.69024 1.129667,0.47313 0.976148,-0.21711 z" />
    <path
       style="fill:#00ff00;stroke-width:0.264583"
       id="path7082"
       d="m 12.712836,9.3323462 c -0.246862,0.081075 -0.511532,0.1205529 -0.740586,0.2432251 -0.766364,0.4104349 -1.280255,0.9973357 -1.764648,1.7198827 -0.6220959,0.927951 -1.1512834,2.085706 -1.471283,3.15373 -0.1518441,0.506792 -0.2191517,1.035157 -0.3287275,1.552735 0.00692,0.444833 -0.048146,0.894982 0.020762,1.3345 0.2088393,1.332083 1.2244895,2.499753 2.6690645,2.357245 0.317738,-0.03134 0.611503,-0.183914 0.917254,-0.275871 0.273859,-0.217736 0.585396,-0.395087 0.821576,-0.653207 0.8504,-0.929395 1.579017,-2.945083 0.615928,-4.049005 -0.220119,-0.252307 -0.570796,-0.350197 -0.856193,-0.525295 -1.052552,0.149907 -1.231377,-0.02267 -1.950116,0.889187 -0.233758,0.296569 -0.342199,0.673265 -0.513299,1.009898 -0.3017644,0.639483 0.6026,1.066243 0.904365,0.426761 v 0 c 0.293266,-0.69752 0.394033,-1.101166 1.124759,-1.425074 0.133518,0.02687 0.292852,-0.0027 0.400556,0.08062 0.390976,0.302618 0.378113,0.833361 0.316325,1.261561 -0.08244,0.571321 -0.332631,1.118768 -0.689611,1.569098 -0.142462,0.179715 -0.334566,0.313748 -0.501849,0.470622 -0.173918,0.07434 -0.336673,0.184046 -0.521754,0.223013 -0.916686,0.193 -1.5835492,-0.540162 -1.737329,-1.384986 -0.066056,-0.36289 -0.027545,-0.737192 -0.041317,-1.105788 0.094859,-0.467096 0.1506265,-0.943867 0.2845763,-1.401287 0.4339127,-1.481755 1.3100057,-3.408663 2.6513667,-4.291744 0.119614,-0.07875 0.260121,-0.119883 0.390181,-0.179824 0.707107,0 0.707107,-0.9999998 0,-0.9999998 z" />
    <path
       style="fill:#00ff00;stroke-width:0.264583"
       id="path7084"
       d="m 96.565351,12.188811 c 0.128265,-0.526289 0.379764,-1.356235 0.925497,-1.602672 0.324829,-0.146684 0.143811,0.101037 0.118626,0.148776 -0.03455,0.0508 -0.08072,0.0954 -0.103662,0.152393 -0.256304,0.636844 0.06619,0.172237 -0.35479,0.884794 -0.237969,0.402793 -0.563565,0.731523 -0.887743,1.062793 -0.23926,0.308767 -0.386062,0.394856 -0.0047,0.948757 0.003,0.0044 0.723427,0.282054 0.857652,0.3655 0.38171,0.237308 0.350573,0.288107 0.589942,0.671444 0.02397,0.172827 0.09159,0.34511 0.07193,0.518482 -0.05456,0.481248 -0.36373,0.797307 -0.733629,1.080321 -0.656264,0.502111 -1.320683,0.798083 -2.140524,0.959076 -0.44246,0.08689 -0.898932,0.07215 -1.348396,0.108228 -0.730678,-0.08451 -1.146794,-0.0067 -1.722964,-0.411838 -0.07031,-0.04944 -0.08759,-0.147918 -0.131379,-0.221877 -0.466002,-0.53183 -1.218123,0.127195 -0.752123,0.659025 v 0 c 0.160933,0.159686 0.289756,0.36017 0.482793,0.479057 0.77225,0.475607 1.299004,0.40021 2.21374,0.491568 0.525709,-0.05211 1.061,-0.04364 1.577126,-0.15634 1.500611,-0.327669 3.562268,-1.391845 3.532817,-3.198343 -0.0049,-0.303539 -0.15358,-0.587413 -0.23037,-0.88112 -0.444074,-0.592725 -0.391393,-0.65452 -1.003776,-1.011916 -0.147633,-0.08616 -0.307282,-0.153187 -0.470514,-0.203916 -0.03493,-0.01085 -0.09862,-0.01116 -0.106963,0.02445 -0.04398,0.187699 -0.04824,0.385085 -0.03403,0.577342 0.003,0.04038 0.04622,-0.0665 0.06933,-0.09975 0.581361,-0.598058 1.175134,-1.250181 1.396603,-2.081338 0.07033,-0.26396 0.139475,-0.543508 0.09843,-0.813576 -0.04127,-0.271555 -0.22428,-0.501479 -0.336418,-0.7522192 C 97.9119,9.8012942 97.701088,9.6415253 97.460003,9.632073 c -0.906495,-0.035541 -1.536449,1.209062 -1.76557,1.911668 -0.05877,0.180225 -0.08334,0.36986 -0.125003,0.554789 -0.06384,0.704219 0.93208,0.7945 0.995918,0.09028 z" />
    <path
       style="fill:#00ff00;stroke-width:0.264583"
       id="path7086"
       d="m 127.29933,12.249026 c 0.22352,-0.67025 0.721,-1.323342 1.39941,-1.586737 0.10425,-0.04047 0.2218,-0.02879 0.33269,-0.04318 0.0143,0.04099 0.0639,0.08502 0.0428,0.12298 -0.0348,0.0627 -0.11865,0.08051 -0.17797,0.120758 -0.0711,0.173271 -0.12863,0.352733 -0.21324,0.519813 -0.60982,1.204157 -1.44082,2.223998 -2.28386,3.268896 -0.65653,0.725451 -1.3509,1.421467 -2.17245,1.959638 -0.0933,0.06114 -0.19528,0.108029 -0.29172,0.164141 -0.0326,0.01897 -0.11462,0.02863 -0.0953,0.06104 0.17961,0.30143 0.42193,0.560765 0.63289,0.841148 1.27943,-0.256555 2.56012,0.0295 3.83655,0.125978 0.32654,0.02468 0.65441,0.02672 0.98161,0.04008 1.10425,-0.04925 2.2558,-0.258185 3.07848,-1.061952 0.12765,-0.124714 0.22011,-0.280966 0.33016,-0.421449 0.42018,-0.568732 -0.38413,-1.162945 -0.8043,-0.594213 v 0 c -0.0536,0.08103 -0.0949,0.171715 -0.16079,0.243093 -0.61124,0.661967 -1.5569,0.780441 -2.40408,0.8353 -0.30316,-0.01154 -0.60696,-0.0117 -0.90947,-0.03461 -0.31397,-0.02378 -0.62561,-0.07206 -0.9387,-0.105394 -1.08647,-0.115663 -2.18283,-0.213624 -3.26468,0.0063 0.0559,0.321313 0.0946,0.646089 0.1677,0.963937 0.004,0.01827 0.0305,-0.02182 0.0467,-0.03135 0.12446,-0.07344 0.25472,-0.137442 0.37505,-0.217483 0.20881,-0.138898 0.41662,-0.280499 0.61127,-0.438619 0.78744,-0.639638 1.02008,-0.936876 1.75982,-1.708197 0.68961,-0.857137 1.26368,-1.517519 1.84633,-2.456305 0.47803,-0.770216 1.34913,-2.145729 0.45329,-2.9956193 -0.16507,-0.1566082 -0.43798,-0.1236101 -0.65696,-0.1854149 -0.21438,0.055774 -0.44037,0.078139 -0.64313,0.1673238 -0.82776,0.3640834 -1.62073,1.2905384 -1.81951,2.1776594 -0.0392,0.174938 -0.0134,0.358302 -0.02,0.537454 0.19446,0.679843 1.1559,0.404838 0.96144,-0.275005 z" />
    <path
       style="fill:#ff00ff;stroke-width:0.264583"
       id="path7153"
       d="m 16.206361,5.2653273 c 2.9385,-1.1649318 6.080252,-1.7757957 9.192497,-2.2572233 4.49763,-0.69573 5.816707,-0.7237177 10.480676,-1.1230387 4.744395,-0.2032907 6.524403,-0.3695041 11.216714,-0.2265414 2.677239,0.081569 5.034129,0.2615579 7.639172,0.7178234 0.598995,0.1049122 1.182957,0.2825233 1.774436,0.4237852 0.687967,0.1633992 0.919049,-0.8095352 0.231079,-0.9729344 v 0 C 56.118196,1.6800712 55.5031,1.495676 54.87272,1.3858176 52.225064,0.92440378 49.818064,0.74075387 47.099984,0.65853087 42.369332,0.51542669 40.576084,0.68306939 35.794137,0.88871837 31.09823,1.2916444 29.749781,1.3215738 25.218617,2.0244817 22.051338,2.5158136 18.85577,3.1417154 15.864699,4.3255046 15.200144,4.5670967 15.541806,5.5069194 16.206361,5.2653273 Z" />
    <path
       style="fill:#ff00ff;stroke-width:0.264583"
       id="path7155"
       d="m 36.032008,-6.256244 c -0.04558,0.1588825 -0.116641,0.3125827 -0.136734,0.4766474 -0.112141,0.9156157 0.41569,1.7363731 0.793671,2.523197 0.115194,0.2397954 0.22647,0.4814539 0.339704,0.7221807 0.365445,0.9883719 0.68821,2.04751855 0.343394,3.09332795 -0.06845,0.2076092 -0.157673,0.41355957 -0.287522,0.58941945 -0.09482,0.1284142 -0.24742,0.2017529 -0.371129,0.3026293 -0.136824,0.00343 -0.278111,0.045147 -0.410466,0.0103 C 36.130857,1.4161549 35.9699,1.3252001 35.827874,1.218015 35.638999,1.075472 35.447814,0.92065865 35.321343,0.72066464 c -0.266306,-0.42111869 -0.37968,-1.0783672 -0.288809,-1.5636556 0.05045,-0.26941534 0.207489,-0.50741264 0.311232,-0.76111894 0.831509,-1.2972585 2.51211,-1.8109372 3.159797,-3.2541501 0.120888,-0.2693683 0.150313,-0.5710502 0.225468,-0.8565753 -0.117851,-0.3429453 -0.145138,-0.7320828 -0.353558,-1.0288357 -0.482039,-0.6863443 -1.317064,-1.0428288 -2.146578,-0.9734116 -0.427918,0.03581 -0.809074,0.2880775 -1.213614,0.4321161 -0.653061,0.2711252 -0.269632,1.1946956 0.383431,0.9235705 v 0 c 0.234469,-0.1212517 0.445741,-0.306441 0.703411,-0.363755 0.552685,-0.1229355 0.957249,0.043811 1.362178,0.3935045 0.12341,0.1065749 0.193238,0.2626995 0.289859,0.3940492 -0.0314,0.1807877 -0.0263,0.3718946 -0.09419,0.5423633 -0.319442,0.8019743 -1.107588,1.2454178 -1.730537,1.7708583 -0.281741,0.2376408 -0.57268,0.4684692 -0.820211,0.7415604 -0.264202,0.2914811 -0.471929,0.629553 -0.707892,0.9443296 -0.122412,0.3837201 -0.320771,0.7510769 -0.367242,1.15116032 -0.134025,1.15388275 0.413295,2.39841238 1.462561,2.94889048 0.309787,0.1625248 0.66204,0.2757848 1.011862,0.2785327 0.310428,0.00244 0.595495,-0.1757121 0.893241,-0.2635681 0.197239,-0.203696 0.43501,-0.3747888 0.59172,-0.611088 0.166478,-0.2510279 0.277645,-0.5387321 0.3625,-0.82774737 0.369131,-1.25724868 0.03084,-2.51675733 -0.422468,-3.69764433 -0.87639,-1.8622494 0.149661,0.3070344 -0.664377,-1.3826792 -0.213336,-0.4428283 -0.478316,-0.9099372 -0.368781,-1.4176324 0.35071,-0.6140038 -0.517621,-1.1099861 -0.868334,-0.4959824 z" />
    <path
       style="fill:#ff00ff;stroke-width:0.264583"
       id="path7157"
       d="m 39.869662,-2.6015143 c 0.928926,-0.079417 1.862448,-0.021825 2.793508,-0.024322 0.707105,-0.00204 0.704221,-1.0020348 -0.0029,-0.9999959 v 0 c -0.980717,0.00303 -1.964576,-0.060893 -2.942478,0.035915 -0.698908,0.1073785 -0.54705,1.0957812 0.151854,0.9884027 z" />
    <path
       style="fill:#ff00ff;stroke-width:0.264583"
       id="path7161"
       d="m 99.625244,6.3253381 c 2.977286,-1.1859792 6.106886,-1.9749889 9.240786,-2.6182338 1.75353,-0.3599201 3.5136,-0.6931964 5.28336,-0.9622091 1.89535,-0.2881024 3.80503,-0.4723109 5.70755,-0.7084663 5.44388,-0.4403423 10.98838,-0.6743438 16.38339,0.3735773 0.52436,0.1018501 1.03455,0.2664632 1.55182,0.3996947 0.68502,0.1753793 0.93304,-0.7933748 0.24803,-0.968754 v 0 c -0.54872,-0.139686 -1.09021,-0.3116654 -1.64615,-0.4190581 -5.4871,-1.0599669 -11.12418,-0.82962611 -16.66041,-0.3778268 -1.92117,0.2390122 -3.84959,0.4256257 -5.76352,0.7170364 -1.78614,0.2719545 -3.56252,0.6085468 -5.33224,0.9723832 -3.22512,0.663055 -6.45545,1.4713526 -9.50839,2.7234046 -0.614087,0.350565 -0.118313,1.2190166 0.495774,0.8684519 z" />
    <path
       style="fill:#ff00ff;stroke-width:0.264583"
       id="path7163"
       d="m 112.96378,-9.2095933 c -0.66699,0.9582788 -1.30598,1.9456654 -1.83035,2.9908704 -0.27738,0.5528945 -0.74912,1.5114005 -0.72701,2.1950656 0.009,0.2809999 0.17156,0.5354804 0.25735,0.8032207 0.31542,0.1358858 0.60511,0.3679611 0.94626,0.407657 0.32134,0.037392 0.64455,-0.087274 0.95239,-0.1867278 0.28651,-0.092565 0.55326,-0.2399744 0.81715,-0.3849597 0.54641,-0.3002026 0.96851,-0.6705426 1.37501,-1.1324244 -0.001,0.00997 0.007,0.031598 -0.003,0.029926 -0.23553,-0.039804 -0.46219,-0.1558348 -0.70096,-0.1489358 -0.0591,0.00172 -0.0387,0.1122773 -0.0484,0.1705883 -0.0263,0.1583822 -0.0372,0.3189613 -0.0592,0.4779899 -0.14816,1.0695371 -0.0383,0.106105 -0.15298,1.2063446 -0.005,0.2437023 -0.0406,0.6458675 0.0409,0.8991072 0.0396,0.1230298 0.12098,0.2284401 0.18147,0.3426602 0.41772,0.57053354 1.22458,-0.020214 0.80685,-0.5907477 v 0 c -6e-5,0.031515 0.0102,0.1243143 -1.8e-4,0.094544 -0.0235,-0.06762 -0.0364,-0.1394624 -0.0402,-0.2109426 -0.008,-0.1437452 0.004,-0.287874 0.006,-0.431811 0.0195,-0.1902563 0.0344,-0.3810423 0.0585,-0.5707692 0.0413,-0.3253324 0.13029,-0.7911954 0.15509,-1.127747 0.0131,-0.1771983 0.1248,-0.3938056 0.0142,-0.532847 -0.5583,-0.7017279 -0.64001,-0.5344295 -1.01387,-0.2616615 -0.47463,0.5620011 -0.99678,0.9074745 -1.67641,1.2010323 -0.16672,0.072013 -0.35101,0.099511 -0.51531,0.1768978 -0.0859,0.040439 -0.15099,0.1150033 -0.22649,0.1725049 -0.0634,-0.073838 -0.1845,-0.1243402 -0.19031,-0.2215124 -0.0362,-0.6060003 0.38021,-1.4159277 0.61721,-1.8898038 0.50508,-1.0099125 1.12181,-1.9637142 1.76546,-2.889313 0.41592,-0.5718453 -0.39279,-1.160051 -0.80871,-0.5882058 z" />
    <path
       style="fill:#ff00ff;stroke-width:0.264583"
       id="path7165"
       d="m 118.59646,-4.9603649 c 0.7763,-0.1355865 1.54844,-0.290757 2.31916,-0.4546285 0.69162,-0.1471644 0.4835,-1.1252671 -0.20812,-0.9781026 v 0 c -0.76663,0.1632495 -1.53484,0.316948 -2.30701,0.452121 -0.6934,0.1385708 -0.49743,1.1191809 0.19597,0.9806101 z" />
    <path
       style="fill:#ff00ff;stroke-width:0.264583"
       id="path7167"
       d="m 3.6931745,12.721272 c -0.055275,0.652507 0.044796,1.303219 0.060151,1.954179 0.00711,0.301325 0.00815,0.650192 -0.094649,0.943917 -0.023625,0.0675 -0.078068,0.119851 -0.1171014,0.179776 -0.3262805,0.627328 0.560896,1.088759 0.8871765,0.46143 v 0 c 0.070693,-0.151043 0.1628896,-0.29378 0.2120788,-0.453128 0.2967877,-0.961441 -0.037738,-1.983918 0.044667,-2.962497 0.087453,-0.701678 -0.9048699,-0.825355 -0.9923229,-0.123677 z" />
    <path
       style="fill:#ff00ff;stroke-width:0.264583"
       id="path7169"
       d="m 1.3815931,15.125883 c 0.5545148,0.03875 1.1008604,0.146411 1.647831,0.239951 0.1570715,0.02686 0.6551813,0.123952 0.8453623,0.116167 0.1304477,-0.0053 0.2573628,-0.0441 0.386044,-0.06615 0.6871821,-0.166676 0.4514667,-1.138498 -0.2357155,-0.971822 v 0 c -0.020026,0.01402 -0.035664,0.04087 -0.060081,0.04205 -0.176408,0.0085 -0.6481064,-0.08561 -0.7668974,-0.105913 -0.6025826,-0.102997 -1.2047162,-0.221127 -1.8165436,-0.254286 -0.70710682,0 -0.70710682,1 0,1 z" />
    <path
       style="fill:#ff00ff;stroke-width:0.264583"
       id="path7171"
       d="m -11.025256,9.9002166 c -0.809031,1.1531974 -1.497357,2.3875954 -2.122715,3.6484334 -0.157667,0.317887 -0.323629,0.632516 -0.458373,0.960776 -0.104081,0.25356 -0.171112,0.520792 -0.256668,0.781188 0.0216,0.235285 -0.04719,0.49781 0.06481,0.705855 0.50754,0.942817 1.695045,0.655884 2.52032,0.506669 0.730508,-0.13208 1.062363,-0.240759 1.7617062,-0.435451 0.6810348,-0.19024 0.4119951,-1.153369 -0.26904,-0.963129 v 0 c -0.8184122,0.229442 -1.5982832,0.407847 -2.4394522,0.534659 -0.148839,0.02244 -0.303591,0.01762 -0.447178,0.06277 -0.05942,0.01869 -0.08418,0.147179 -0.141291,0.1223 -0.07547,-0.03288 -0.06545,-0.151086 -0.09818,-0.226629 0.0692,-0.21927 0.120348,-0.445077 0.2076,-0.657809 0.131106,-0.319656 0.29267,-0.626018 0.445956,-0.93565 0.596632,-1.205171 1.253642,-2.384514 2.021637,-3.48976 0.4343231,-0.5579996 -0.354808,-1.172225 -0.789131,-0.6142254 z" />
    <path
       style="fill:#ff00ff;stroke-width:0.264583"
       id="path7173"
       d="m -10.217243,13.518573 c -0.437839,1.354612 -0.719227,2.757752 -0.906125,4.167773 -0.07139,0.538589 -0.120083,1.079955 -0.184358,1.61944 -0.04878,0.314414 -0.0633,0.38366 -0.02953,0.210189 -0.290888,0.644504 0.620577,1.055881 0.911465,0.411378 v 0 c 0.09672,-0.283892 0.05202,-0.11801 0.111042,-0.503294 0.06305,-0.529464 0.110851,-1.060758 0.18032,-1.589418 0.1746938,-1.329415 0.4402116,-2.65068 0.8402325,-3.931389 0.2720094,-0.652695 -0.6510408,-1.037374 -0.9230505,-0.384679 z" />
    <path
       style="fill:#ff00ff;stroke-width:0.264583"
       id="path7175"
       d="m -6.9972475,10.469403 c -0.1558382,2.720617 -0.2810803,5.443392 -0.379689,8.166778 -0.014917,0.193221 -0.023598,0.387025 -0.044751,0.579663 -0.042319,0.385379 -0.8343635,0.206329 0.9103972,-0.03602 -0.171376,-0.686025 -1.1415618,-0.443663 -0.9701861,0.242362 v 0 c 0.3342574,0.04068 0.668569,0.163179 1.0027724,0.122052 0.2903826,-0.03573 -0.4171598,-1.17627 0.1011129,-0.871876 0.098212,-2.71325 0.222998,-5.42589 0.3781256,-8.136386 0.047072,-0.7055389 -0.9507091,-0.7721096 -0.9977819,-0.06657 z" />
    <path
       style="fill:#ff00ff;stroke-width:0.264583"
       id="path7177"
       d="m -7.0490288,15.691156 c 0.9639522,-0.338717 2.0021587,-0.331859 3.0114057,-0.347095 0.7070214,-0.01099 0.691479,-1.010869 -0.015542,-0.999879 v 0 c -1.1391466,0.01819 -2.3078043,0.02434 -3.3895347,0.427723 -0.6500088,0.278368 -0.2563374,1.197619 0.393671,0.919251 z" />
    <path
       style="fill:#ff00ff;stroke-width:0.264583"
       id="path7179"
       d="m -3.6831952,9.6326861 c -0.063342,1.8284889 -0.2900987,3.6460309 -0.4239263,5.4697369 -0.093163,1.269559 -0.1071877,1.780391 -0.1589574,2.987694 0.1336357,0.388515 -0.094794,0.813669 -0.020923,1.210365 0.022818,0.122532 0.090823,0.232142 0.1362345,0.348213 0.4221634,0.567255 1.2243829,-0.02977 0.8022196,-0.597029 v 0 c 0.020516,0.08262 0.020293,0.322319 0.061545,0.247855 0.1884777,-0.340213 -0.4314394,-0.888104 0.02001,-1.166626 0.050669,-1.185191 0.064978,-1.701281 0.1563238,-2.946299 0.1358564,-1.851676 0.3672533,-3.697148 0.4274751,-5.5539099 0,-0.7071066 -0.9999999,-0.7071066 -0.9999999,0 z" />
    <path
       style="fill:#ff00ff;stroke-width:0.264583"
       id="path7181"
       d="M -0.99039131,7.8133264 C -1.2018572,8.5652958 -1.3331412,9.3315429 -1.4188461,10.107178 c -0.048058,0.434929 -0.1011754,1.00858 -0.082216,1.45807 0.00621,0.147123 0.037016,0.292172 0.055524,0.438259 0.3079348,0.550759 0.067762,0.336313 0.82794697,0.497528 0.66937886,-0.227886 0.34709965,-1.17453 -0.32227921,-0.946645 v 0 c 0.5138598,0.198517 0.46027781,0.01431 0.48465802,0.310355 -0.0876086,-0.545181 -0.0309598,-1.08202 0.0281668,-1.629774 0.0755306,-0.6997227 0.19390408,-1.3892261 0.37287012,-2.0702202 0.2484945,-0.662005 -0.6877218,-1.0134293 -0.93621591,-0.3514244 z" />
    <path
       style="fill:#ff00ff;stroke-width:0.264583"
       id="path7183"
       d="m -2.1850289,10.32779 c 0.938242,-0.253349 1.94445461,-0.3590476 2.91125847,-0.218784 -0.022035,-0.0024 -0.0440701,-0.0047 -0.0661051,-0.007 C 1.303999,10.394234 1.7173404,9.4836579 1.0734658,9.1913815 v 0 C 1.0028909,9.1669972 0.93231598,9.1426137 0.86174108,9.1182303 -0.27839363,8.9690894 -1.4559207,9.0706278 -2.5565446,9.3993633 -3.2130415,9.6620644 -2.8415255,10.590491 -2.1850289,10.32779 Z" />
    <path
       style="fill:#ff00ff;stroke-width:0.264583"
       id="path7185"
       d="m 153.10095,11.094844 c 0.0317,1.12001 0.0898,2.238436 0.17951,3.355313 0.0517,0.6437 0.0678,0.353908 0.0281,0.751436 0.0979,-0.144434 0.19582,-0.288868 0.29373,-0.433302 -0.6921,0.144905 -0.48718,1.123683 0.20492,0.978778 v 0 c 0.16632,-0.158757 0.33264,-0.317513 0.49895,-0.476269 0.0294,-0.562801 -0.0487,-1.117174 -0.087,-1.679559 -0.07,-1.02673 -0.0528,-0.812301 -0.0922,-1.836656 -0.008,-0.219922 -0.0173,-0.439827 -0.026,-0.659741 0,-0.707106 -1,-0.707106 -1,0 z" />
    <path
       style="fill:#ff00ff;stroke-width:0.264583"
       id="path7187"
       d="m 151.49324,13.852042 c 0.18701,-0.0208 0.37383,-0.04349 0.56105,-0.06241 1.15719,-0.116944 0.25611,-0.0088 1.43127,-0.149755 0.38682,-0.04641 0.76285,-0.102627 1.15216,-0.103978 0.70707,-0.0069 0.69729,-1.006873 -0.01,-0.999952 v 0 c -0.42487,0.0061 -0.83565,0.05986 -1.25775,0.11061 -1.13978,0.137049 -0.26592,0.03181 -1.4268,0.149244 -0.17795,0.018 -0.35549,0.0398 -0.53324,0.0597 -0.70466,0.05876 -0.62156,1.055301 0.0831,0.996541 z" />
    <path
       style="fill:#ff00ff;stroke-width:0.264583"
       id="path7189"
       d="m 163.27751,7.3564303 c -0.1356,2.7491267 -0.23698,5.4980747 -0.21473,8.2508147 -0.002,0.252529 -0.004,0.505059 -0.007,0.757589 -0.0242,0.05975 -0.13179,0.204625 -0.0725,0.179253 0.21062,-0.09018 0.37712,-0.260278 0.56568,-0.390416 -0.60667,-0.363261 -1.12039,0.494693 -0.51373,0.857953 v 0 c 0.30251,-0.06191 0.64573,-0.022 0.90752,-0.185726 0.34836,-0.21786 -0.17512,-1.102308 0.11957,-1.226797 -0.0226,-2.750068 0.0818,-5.496148 0.21476,-8.2426707 0,-0.7071066 -1,-0.7071066 -1,0 z" />
    <path
       style="fill:#ff00ff;stroke-width:0.264583"
       id="path7191"
       d="m 163.08511,13.022726 c 1.28539,-0.415966 2.62169,-0.658579 3.94509,-0.922087 0.69349,-0.138115 0.49816,-1.118854 -0.19532,-0.980739 v 0 c -1.40959,0.280797 -2.83754,0.532091 -4.19664,1.008224 -0.63258,0.31598 -0.18571,1.210582 0.44687,0.894602 z" />
    <path
       style="fill:#ff00ff;stroke-width:0.264583"
       id="path7193"
       d="m 166.54901,6.1312907 c 0.33381,1.4030076 0.20734,2.8747754 0.15696,4.3011773 -0.0698,1.975552 -0.058,1.00377 -0.0454,2.827575 0.0786,1.041104 0.007,0.599434 0.15868,1.332927 0.15051,0.690903 1.1276,0.478053 0.97709,-0.212851 v 0 c -0.13395,-0.573121 -0.0633,-0.201287 -0.1358,-1.127338 -0.0137,-1.794648 -0.0243,-0.806583 0.0449,-2.785705 0.0479,-1.3714527 0.13662,-2.755623 -0.0809,-4.1189982 -0.0331,-0.2076347 -0.1043,-0.4073853 -0.15644,-0.6110782 -0.27881,-0.6498209 -1.19779,-0.2555298 -0.91899,0.3942911 z" />
    <path
       style="fill:#ff00ff;stroke-width:0.264583"
       id="path7195"
       d="m 169.26894,14.329663 c 0.45708,-0.548935 0.91865,-1.093825 1.4034,-1.617819 0.0457,-0.04944 -0.0764,0.133991 -0.14325,0.142511 -0.16192,0.02065 -0.3238,-0.04154 -0.48569,-0.06231 -0.14677,0.884436 -0.3888,1.751284 -0.73573,2.578874 -0.21845,0.521123 -0.44999,1.056529 -0.87748,1.447842 -0.10681,0.09776 -0.25532,0.136621 -0.38298,0.204932 -0.13321,-0.05126 -0.31312,-0.08469 -0.3753,-0.244394 -0.0155,-0.0398 0.002,-0.122267 0.0449,-0.119998 0.0732,0.0039 0.10295,0.125488 0.17595,0.131751 0.0959,0.0082 0.17972,-0.07024 0.27314,-0.09322 0.1658,-0.04079 0.33521,-0.06511 0.50282,-0.09767 0.60401,-0.0223 1.21134,0.0042 1.79942,0.153679 0.15123,0.03844 0.2953,0.101366 0.44527,0.144495 0.68007,0.193657 0.95394,-0.768109 0.27387,-0.961766 v 0 c -0.17717,-0.04978 -0.34827,-0.120806 -0.52712,-0.16412 -0.72946,-0.176654 -1.47917,-0.206926 -2.22546,-0.144521 -0.45871,0.124114 -1.09452,0.199276 -1.40137,0.651885 -0.35136,0.518243 -0.31785,0.972685 0.14162,1.367283 0.1761,0.151236 0.40337,0.254614 0.63261,0.291122 0.25485,0.04059 0.51416,-0.04503 0.77125,-0.06755 0.21338,-0.145762 0.45547,-0.256533 0.64016,-0.437284 0.48421,-0.473889 0.77553,-1.110853 1.02914,-1.722598 0.40039,-0.965811 0.68808,-1.980068 0.78988,-3.02224 -0.18862,-0.277523 -0.27996,-0.656889 -0.56585,-0.83257 -0.15539,-0.09549 -0.36557,0.07026 -0.52196,0.164096 -0.13753,0.08252 -0.22563,0.228228 -0.33199,0.348278 -0.39335,0.443998 -0.76236,0.911069 -1.14901,1.360939 -0.42453,0.565486 0.37519,1.165862 0.79972,0.600375 z" />
    <path
       style="fill:#ff00ff;stroke-width:0.264583"
       id="path7197"
       d="m 174.16742,13.534041 c 0.69983,-0.246601 1.47252,-0.472504 1.98559,-1.049995 0.56882,-0.640236 0.55508,-0.919826 0.81329,-1.739697 0.0162,-0.393393 0.0791,-0.7876403 0.0486,-1.1801799 -0.10786,-1.3863076 -0.93363,-3.4082002 -2.72314,-2.9008204 -0.38805,0.110023 -0.68156,0.4315248 -1.02235,0.6472872 -0.24039,0.3776607 -0.54559,0.7211746 -0.72118,1.1329821 -0.73771,1.730134 -0.39855,3.918802 0.90726,5.290549 0.28054,0.294707 0.65234,0.486491 0.97851,0.729736 0.3475,0.08848 0.68423,0.280501 1.04249,0.265431 1.95714,-0.08233 2.91367,-2.578659 3.03218,-4.191577 0.04,-0.5447223 -0.0689,-1.0902056 -0.10335,-1.6353081 -0.22315,-0.4581602 -0.32933,-0.9949741 -0.66945,-1.3744808 -1.0397,-1.1600897 -2.9422,-1.3002643 -4.21316,-0.4643996 -0.92948,0.6112775 -0.97824,1.1600995 -1.3253,2.0950857 -0.22658,0.6698195 0.72069,0.9902628 0.94727,0.3204424 v 0 c 0.16859,-0.578186 0.2207,-1.0780326 0.74662,-1.4859365 0.75375,-0.5846212 2.22317,-0.7070479 2.95746,-0.00363 0.27311,0.2616324 0.37288,0.6581251 0.55932,0.9871876 0.04,0.4548521 0.14337,0.908541 0.12008,1.3645563 -0.0449,0.879712 -0.30566,1.712948 -0.76304,2.461214 -0.16825,0.275249 -0.67615,0.880852 -1.07894,0.949075 -0.22346,0.03785 -0.44812,-0.06819 -0.67219,-0.102284 -0.24866,-0.166025 -0.53186,-0.289406 -0.746,-0.498075 -1.10204,-1.073868 -1.35963,-2.781161 -0.85978,-4.1972568 0.10453,-0.296131 0.29612,-0.5538851 0.44418,-0.8308277 0.1418,-0.1250143 0.66,-0.6934726 0.98412,-0.6340139 0.20817,0.038188 0.38818,0.193321 0.5287,0.3515807 0.64292,0.7240736 0.69012,1.7109885 0.64198,2.6206597 -0.14244,0.530567 -0.1547,0.8285 -0.49426,1.254403 -0.41076,0.515198 -1.1141,0.6622 -1.69678,0.882017 -0.66204,0.248388 -0.31077,1.184661 0.35128,0.936273 z" />
    <path
       style="fill:#ff00ff;stroke-width:0.264583"
       id="path7985"
       d="m 157.50034,11.464599 c 0.15806,-0.631334 0.44031,-1.234866 0.76983,-1.7940669 0.13875,-0.2354458 0.27955,-0.4728268 0.45694,-0.6807102 0.37012,-0.4337286 0.30711,-0.4288237 0.50001,-0.2091574 -0.0378,0.099539 -0.11267,0.1921576 -0.11329,0.2986178 -0.002,0.259004 0.10069,0.5106847 0.10706,0.7696149 0.0282,1.1483038 -0.20356,2.3531738 -0.61706,3.4222828 -0.11458,0.296246 -0.27757,0.571416 -0.41636,0.857123 -0.27221,0.362464 -0.59617,0.883503 -1.10245,0.96289 -0.0339,0.0053 0.051,-0.08451 0.0796,-0.0655 0.85545,0.567972 0.19092,0.334077 0.56224,0.455564 0.51724,-0.232265 0.9296,-0.112055 1.41469,0.13046 0.13175,0.06587 0.25491,0.148738 0.38917,0.209327 0.15216,0.06867 0.31217,0.118412 0.46825,0.177618 0.53466,0.04386 0.59415,0.118021 1.11092,-0.139341 0.16023,-0.0798 0.28902,-0.211271 0.43354,-0.316906 0.55462,-0.43863 -0.0657,-1.222982 -0.62032,-0.784352 v 0 c -0.20456,0.190225 -0.28011,0.314105 -0.57804,0.3024 -0.11491,-0.04076 -0.23372,-0.07186 -0.34472,-0.122285 -0.47026,-0.213585 -0.54201,-0.349209 -1.07689,-0.488073 -0.71387,-0.185337 -1.21837,-0.08167 -1.84797,0.272393 -0.42055,0.485457 -0.78867,0.606125 -0.0623,1.291666 0.11396,0.107554 0.3179,0.03174 0.47007,-0.0057 0.36451,-0.08966 0.83265,-0.460717 1.06187,-0.709828 0.20709,-0.225077 0.3629,-0.49244 0.54435,-0.73866 0.15685,-0.33205 0.3404,-0.652753 0.47055,-0.996149 0.2969,-0.78341 0.51371,-1.725229 0.59921,-2.555775 0.0629,-0.610689 0.13397,-1.8333347 -0.18827,-2.4438274 -0.17021,-0.3224532 -0.50897,-0.522247 -0.76345,-0.7833706 -0.24537,0.043497 -0.51312,0.019264 -0.73612,0.1304906 -0.44258,0.2207411 -0.86829,0.9199213 -1.09029,1.301355 -0.40625,0.6980301 -0.7521,1.4496834 -0.88079,2.2518974 0,0.707107 1,0.707107 1,0 z" />
  </g>
</svg>
