<?xml version="1.0" encoding="UTF-8" standalone="no"?>
<!-- Created with Inkscape (http://www.inkscape.org/) -->

<svg
   width="152.44295mm"
   height="60.510151mm"
   viewBox="0 0 152.44295 60.510151"
   version="1.1"
   id="svg12018"
   inkscape:version="1.2.2 (b0a8486541, 2022-12-01)"
   sodipodi:docname="5-çözüm.svg"
   xmlns:inkscape="http://www.inkscape.org/namespaces/inkscape"
   xmlns:sodipodi="http://sodipodi.sourceforge.net/DTD/sodipodi-0.dtd"
   xmlns="http://www.w3.org/2000/svg"
   xmlns:svg="http://www.w3.org/2000/svg">
  <sodipodi:namedview
     id="namedview12020"
     pagecolor="#ffffff"
     bordercolor="#000000"
     borderopacity="0.25"
     inkscape:showpageshadow="2"
     inkscape:pageopacity="0.0"
     inkscape:pagecheckerboard="0"
     inkscape:deskcolor="#d1d1d1"
     inkscape:document-units="mm"
     showgrid="false"
     inkscape:zoom="0.80014115"
     inkscape:cx="251.83057"
     inkscape:cy="42.492503"
     inkscape:window-width="1916"
     inkscape:window-height="1026"
     inkscape:window-x="0"
     inkscape:window-y="0"
     inkscape:window-maximized="1"
     inkscape:current-layer="layer1"
     showguides="true">
    <sodipodi:guide
       position="149.44949,-69.748013"
       orientation="0,-1"
       id="guide17769"
       inkscape:locked="false" />
  </sodipodi:namedview>
  <defs
     id="defs12015" />
  <g
     inkscape:label="Layer 1"
     inkscape:groupmode="layer"
     id="layer1"
     transform="translate(49.586903,9.5633114)">
    <path
       style="fill:#0000ff;stroke-width:0.264583"
       id="path15045"
       d="m 9.9719192,5.8580443 c 0.00527,0.1896795 0.022609,0.379408 0.015798,0.5690383 C 9.9435435,7.657054 9.8234009,8.6595092 9.6492363,9.9122745 9.3186357,12.290285 8.8660371,14.646743 8.4088427,17.002705 c -0.1095225,0.476278 -0.2190446,0.952557 -0.328567,1.428836 -0.1583293,0.689153 0.8162803,0.913064 0.9746096,0.223911 v 0 C 9.1667681,18.168029 9.2786511,17.680607 9.3905339,17.193184 9.8522402,14.813324 10.309702,12.432872 10.642218,10.030541 10.820337,8.7436877 10.949041,7.6679361 10.98722,6.3955432 10.99384,6.1749579 10.971861,5.9544412 10.964183,5.7338901 10.876393,5.0322543 9.8841297,5.1564084 9.9719192,5.8580443 Z" />
    <path
       style="fill:#0000ff;stroke-width:0.264583"
       id="path15053"
       d="m 11.434243,6.9412624 c 0.177467,-0.1079772 0.333002,-0.1387398 0.523907,-0.029442 0.128449,0.07354 0.252431,0.1569431 0.364352,0.2537997 0.531333,0.4598183 0.58986,0.6169252 1.031871,1.2155506 0.25211,0.4199548 0.658546,1.0351801 0.815208,1.5187493 0.05351,0.165161 0.105873,0.348659 0.06331,0.516973 -0.02921,0.115517 -0.15827,0.181699 -0.256898,0.248558 -0.698184,0.473291 -1.23499,0.631422 -2.057715,0.974796 -0.477231,0.156477 -0.954462,0.312955 -1.431693,0.469433 -0.6716548,0.221087 -0.35899,1.170951 0.312665,0.949863 v 0 c 0.503278,-0.166274 1.006556,-0.332549 1.509834,-0.498823 0.795455,-0.342826 1.934481,-0.70174 2.543433,-1.413911 C 15.77682,10.065833 14.707094,8.7149915 14.154216,7.7809618 13.939262,7.4983778 13.746715,7.1972532 13.509355,6.9332093 13.131837,6.5132507 12.648714,6.0906011 12.091377,5.9207349 c -0.399982,-0.1219073 -0.7211,-0.057708 -1.07435,0.114328 -0.105391,0.051326 -0.19326,0.1327285 -0.289891,0.1990926 -0.5,0.5000001 0.207107,1.207107 0.707107,0.7071069 z" />
    <path
       style="fill:#0000ff;stroke-width:0.264583"
       id="path15057"
       d="m 19.089322,14.397588 c 0.09679,-0.02881 0.191887,-0.06404 0.290356,-0.08643 1.341922,-0.305127 2.73084,-0.456227 4.096501,-0.595141 1.774549,-0.180506 2.858884,-0.243855 4.643753,-0.370876 1.848136,-0.158357 3.707675,-0.124308 5.554573,-0.290443 0.704204,-0.06401 0.613682,-1.059904 -0.09052,-0.995895 v 0 c -1.839957,0.169117 -3.693943,0.125602 -5.535072,0.288863 -2.224339,0.158442 -4.447329,0.312049 -6.658985,0.606313 -0.557504,0.07418 -1.704141,0.244338 -2.331301,0.410117 -0.165926,0.04386 -0.322567,0.117351 -0.48385,0.176026 -0.606318,0.363838 -0.09177,1.221302 0.514545,0.857463 z" />
    <path
       style="fill:#0000ff;stroke-width:0.264583"
       id="path15067"
       d="m 31.538362,11.328382 c 0.628208,0.607778 1.387515,1.047541 2.183299,1.397719 1.201661,0.528779 0.08899,-0.0089 0.844622,0.362587 -0.100418,-0.09412 -0.178755,-0.219619 -0.301252,-0.282367 -0.0671,-0.03437 -0.158885,-0.0223 -0.225835,0.01237 -0.221457,0.114659 -0.411647,0.281616 -0.616538,0.423775 -0.530733,0.368239 -0.912291,0.626101 -1.413208,1.029535 -0.178758,0.143969 -0.347361,0.300106 -0.521041,0.450159 -0.113948,0.120842 -0.227896,0.241685 -0.341845,0.362527 -0.482182,0.517205 0.249256,1.199112 0.731438,0.681908 v 0 c 0.08842,-0.09623 0.176848,-0.19246 0.265272,-0.28869 0.157265,-0.136717 0.309655,-0.279256 0.471797,-0.410151 0.506081,-0.408552 0.837255,-0.626362 1.376939,-1.003193 0.302474,-0.211202 1.171247,-0.728396 1.267793,-1.156127 0.05604,-0.248254 -0.170942,-0.479436 -0.256415,-0.719154 -0.910609,-0.438447 0.300175,0.133679 -0.854245,-0.367201 -0.677881,-0.294118 -1.327763,-0.660099 -1.871067,-1.166615 -0.475826,-0.523057 -1.215541,0.149865 -0.739714,0.672921 z" />
    <path
       style="fill:#0000ff;stroke-width:0.264583"
       id="path15077"
       d="m 45.582895,6.4466882 c 0.0011,0.1863585 0.008,0.372777 0.0031,0.5590752 -0.02669,1.0242579 -0.07465,1.4988674 -0.16623,2.586543 -0.03192,0.379081 -0.252505,2.8828666 -0.301731,3.3058626 -0.05308,0.456123 -0.129196,0.909269 -0.193797,1.363903 -0.30204,1.255038 -0.123748,0.695904 -0.494882,1.689636 -0.244123,0.663629 0.694391,1.008873 0.938514,0.345244 v 0 c 0.412925,-1.137323 0.218901,-0.509335 0.546481,-1.894594 0.06642,-0.470055 0.144389,-0.938623 0.199253,-1.410166 0.04922,-0.423046 0.271319,-2.942972 0.303027,-3.3207839 0.09122,-1.0868988 0.145413,-1.6379528 0.169336,-2.6733269 0.0048,-0.2093397 -0.004,-0.4187722 -0.006,-0.6281582 -0.05428,-0.7050203 -1.05133,-0.6282549 -0.997048,0.076765 z" />
    <path
       style="fill:#0000ff;stroke-width:0.264583"
       id="path15079"
       d="m 45.708437,7.1574651 c 0.06682,-0.022548 0.130736,-0.057035 0.200451,-0.067645 0.748623,-0.1139396 1.456148,0.3571137 1.982671,0.8329263 0.187434,0.1693834 0.349835,0.3645617 0.524754,0.5468425 0.1578,0.2384636 0.49341,0.5986658 0.432789,0.9503629 -0.03722,0.2159569 -0.63764,0.5346025 -0.695272,0.5623769 -0.785569,0.3785733 -1.072028,0.3974723 -1.934657,0.6075723 -0.998268,0.169958 -0.558927,0.110902 -1.315119,0.197543 -0.702385,0.08159 -0.587002,1.074909 0.115382,0.993321 v 0 c 0.83466,-0.09814 0.353052,-0.03177 1.441701,-0.220578 0.396179,-0.100818 0.802034,-0.169264 1.188535,-0.302453 0.689075,-0.237456 1.511329,-0.576612 1.936162,-1.232434 0.35119,-0.5421363 0.269095,-1.0565228 0.0088,-1.5870037 C 49.475559,8.1955949 49.286607,7.993939 49.132587,7.7717607 48.919788,7.5560816 48.723671,7.3225641 48.494193,7.1247235 47.667978,6.4124109 46.654606,5.8863753 45.540263,6.1602453 c -0.135999,0.033423 -0.257567,0.1100388 -0.38635,0.1650584 -0.588428,0.3921141 -0.0339,1.2242758 0.554532,0.8321614 z" />
    <path
       style="fill:#0000ff;stroke-width:0.264583"
       id="path15081"
       d="m 51.50573,6.2930708 c 0.01119,0.2041147 0.03055,0.4079452 0.03355,0.6123438 0.02183,1.488418 -0.08414,2.9773337 -0.148407,4.4632824 -0.07736,1.788736 -0.06276,1.495778 -0.09965,3.154727 -0.0073,0.328955 -0.0043,0.658301 -0.02199,0.986864 -0.0074,0.138633 -0.0942,0.687537 -0.03149,0.284074 -0.434022,0.558232 0.355436,1.172036 0.789462,0.613804 v 0 c 0.06026,-0.116286 0.145907,-0.222613 0.180766,-0.348858 0.08687,-0.31458 0.07944,-1.353595 0.08301,-1.513708 0.03639,-1.644427 0.02188,-1.351481 0.09878,-3.129895 0.06574,-1.5202443 0.171773,-3.0424737 0.148005,-4.5651981 -0.0033,-0.2116963 -0.02334,-0.422801 -0.035,-0.6342012 -0.05428,-0.7050204 -1.05133,-0.628255 -0.997048,0.076765 z" />
    <path
       style="fill:#0000ff;stroke-width:0.264583"
       id="path15083"
       d="m 52.206453,12.100743 c 1.040627,-0.755343 2.368222,-0.893756 3.603702,-1.083662 0.698867,-0.107629 0.546655,-1.0959774 -0.152213,-0.988348 v 0 c -1.424082,0.219722 -2.934541,0.411055 -4.109759,1.319228 -0.532297,0.465467 0.125973,1.218249 0.65827,0.752782 z" />
    <path
       style="fill:#0000ff;stroke-width:0.264583"
       id="path15089"
       d="m 55.427625,5.6282438 c -0.04706,2.1306094 -0.04717,4.2612948 0.07545,6.3896942 0.0714,1.239283 0.140817,1.842842 0.256569,3.020095 0.02344,0.256159 0.04689,0.512318 0.07034,0.768477 0.06446,0.704162 1.060299,0.612997 0.995836,-0.09117 v 0 C 56.80216,15.456922 56.77849,15.1985 56.75483,14.940077 56.641242,13.787306 56.572315,13.187804 56.502161,11.975309 56.378912,9.8451253 56.383342,7.713024 56.426491,5.5806345 56.392821,4.8743295 55.39396,4.9219389 55.427625,5.6282438 Z" />
    <path
       style="fill:#0000ff;stroke-width:0.264583"
       id="path15091"
       d="m 59.047199,13.169228 c 0.02809,0.0052 0.100201,0.01627 0.116298,0.03293 0.02241,0.02319 0.02082,0.06158 0.03749,0.08917 0.08949,0.148084 0.165161,0.170288 0.169088,0.365535 0.0016,0.07442 -0.03361,0.145034 -0.05041,0.21755 -0.143759,0.281965 -0.113173,0.255335 -0.318966,0.514256 -0.277818,0.34954 -0.545799,0.523852 -0.227309,1.073155 0.08128,0.140184 0.278789,0.16525 0.418182,0.247875 0.09747,0.04383 0.200956,0.07622 0.29242,0.131504 0.150397,0.09091 0.499904,0.346095 0.291954,0.560621 -0.08526,0.08796 -0.575788,0.278686 -0.588086,0.283982 -0.613759,0.115513 -0.607902,0.158117 -1.24759,0.09617 -0.182859,-0.01771 -0.361556,-0.06544 -0.542335,-0.09816 -0.697238,-0.117726 -0.863727,0.868317 -0.166489,0.986043 v 0 c 0.234299,0.03737 0.466153,0.09646 0.702897,0.112097 0.901759,0.05955 0.879904,-0.0094 1.757686,-0.232553 0.244922,-0.163456 0.537493,-0.271765 0.734766,-0.490369 0.176408,-0.19548 0.302892,-0.44979 0.347797,-0.709242 0.112425,-0.649539 -0.389382,-1.130148 -0.881403,-1.421043 -0.102476,-0.06059 -0.21734,-0.09722 -0.326007,-0.145836 0.03205,0.313748 -0.0346,-0.386257 -0.02679,0.544611 2.51e-4,0.02991 0.02021,-0.05734 0.03835,-0.08114 0.0793,-0.104129 0.176178,-0.194385 0.252481,-0.30073 0.362024,-0.504559 0.285255,-0.437595 0.488341,-1.056863 -0.01267,-0.214445 0.0167,-0.435607 -0.03803,-0.643336 -0.146005,-0.554066 -0.650576,-0.980642 -1.216851,-1.038411 -0.318915,-0.03253 -0.476842,0.109034 -0.724588,0.255065 -0.499999,0.5 0.207108,1.207107 0.707107,0.707107 z" />
    <path
       style="fill:#0000ff;stroke-width:0.264583"
       id="path15093"
       d="m 63.010076,8.9484252 c 0.14633,1.0865068 0.275007,2.1754668 0.383532,3.2663978 0.07004,0.703629 1.065125,0.604575 0.995082,-0.09905 v 0 C 64.277848,11.002948 64.147038,9.8920365 63.996447,8.7838874 63.8801,8.086418 62.89373,8.2509557 63.010076,8.9484252 Z" />
    <path
       style="fill:#0000ff;stroke-width:0.264583"
       id="path15095"
       d="m 62.398428,11.159247 c 1.126513,-0.234336 2.279266,-0.223058 3.423454,-0.202113 0.70699,0.01275 0.725027,-0.9870841 0.01805,-0.9998375 v 0 c -1.240288,-0.022056 -2.49037,-0.028884 -3.709102,0.2384235 -0.681318,0.18923 -0.413705,1.152757 0.267611,0.963527 z" />
    <path
       style="fill:#0000ff;stroke-width:0.264583"
       id="path15103"
       d="m 74.391908,6.0116153 c 0.183269,2.1047495 0.344995,4.2152797 0.39551,6.3281857 0.01,0.417581 0.0041,0.83539 0.0062,1.253086 0.03012,0.669127 -0.08238,1.326852 -0.14927,1.988376 -0.007,0.0692 -0.06074,0.160964 -0.0099,0.20843 0.211111,0.197092 0.487428,0.309948 0.731144,0.464922 0.657688,-0.259704 0.290409,-1.189816 -0.367279,-0.930112 v 0 c 0.21181,0.167572 0.404196,0.363167 0.635431,0.502716 0.03363,0.0203 -0.0019,-0.07875 0.0024,-0.117814 0.07397,-0.705619 0.184076,-1.408355 0.157501,-2.121701 -0.0024,-0.4293 0.0033,-0.858717 -0.007,-1.2879 -0.05124,-2.134549 -0.214678,-4.2666977 -0.400217,-6.3929801 -0.0741,-0.7032135 -1.068594,-0.5984221 -0.994494,0.1047914 z" />
    <path
       style="fill:#0000ff;stroke-width:0.264583"
       id="path15105"
       d="m 75.398674,10.466691 c 1.081556,-0.130078 2.148668,-0.358946 3.232785,-0.4708114 0.266636,-0.027513 0.53476,-0.03797 0.802137,-0.056955 0.705279,-0.050803 0.633434,-1.0482191 -0.07185,-0.9974156 v 0 c -0.286412,0.020907 -0.573596,0.033077 -0.859237,0.062719 -1.066655,0.1106909 -2.117231,0.3313161 -3.18058,0.4654117 -0.705022,0.054265 -0.62828,1.0513163 0.07674,0.9970513 z" />
    <path
       style="fill:#0000ff;stroke-width:0.264583"
       id="path15107"
       d="m 78.54866,5.3312189 c 0.01146,0.1647822 0.02652,0.3293523 0.03433,0.4943467 0.02657,0.5618162 0.05886,1.8372288 0.07712,2.3172314 0.0542,1.4241576 0.137046,2.845453 0.237003,4.266998 0.03554,0.427662 0.09657,0.913536 0.08085,1.355205 -5.29e-4,0.01808 -0.03764,-0.04267 -0.02111,-0.05001 0.234973,-0.104375 0.483473,-0.175164 0.725207,-0.262746 -0.501986,-0.498005 -1.206273,0.211913 -0.704284,0.709917 v 0 c 0.303093,-0.02671 0.628118,0.03617 0.909283,-0.08013 0.106471,-0.04404 0.07997,-0.218819 0.09077,-0.333534 0.02818,-0.299442 -0.06823,-1.229182 -0.08318,-1.408887 -0.09918,-1.40858 -0.18133,-2.8169411 -0.235027,-4.2281206 -0.01553,-0.4083045 -0.05362,-1.8534914 -0.07927,-2.3584265 -0.0097,-0.1916414 -0.0289,-0.3826875 -0.04334,-0.5740312 -0.107623,-0.6988737 -1.095974,-0.5466824 -0.98836,0.1521872 z" />
    <path
       style="fill:#0000ff;stroke-width:0.264583"
       id="path15109"
       d="m 82.062629,12.9969 c -0.0032,-0.06729 -0.01233,-0.134561 -0.0097,-0.201882 0.01162,-0.299132 0.06624,-0.712099 0.311375,-0.923802 0.155157,-0.134 0.164357,-0.03198 0.209405,0.0605 0.01423,0.193661 0.02058,0.14471 -0.02878,0.393495 -0.03345,0.16856 -0.05447,0.341361 -0.112475,0.503121 -0.175477,0.489337 -0.408662,0.862613 -0.74776,1.258077 -0.149254,0.174063 -0.32844,0.320041 -0.492662,0.480062 -0.142322,0.104089 -0.278757,0.216744 -0.426966,0.312267 -0.0867,0.05588 -0.18088,0.0999 -0.275659,0.140591 -0.03074,0.0132 -0.131648,0.01678 -0.09835,0.01999 0.101648,0.0098 0.230431,-0.06824 0.306358,5e-5 0.229156,0.206107 0.25032,0.360278 0.287994,0.578084 0.04337,-0.02686 0.08255,-0.06215 0.130117,-0.08059 0.08108,-0.03144 0.166597,-0.05107 0.251981,-0.06757 0.790075,-0.152621 1.429427,-0.0037 2.202929,0.150757 0.391043,0.07531 0.682186,0.152529 1.07905,0.152613 0.13584,2.9e-5 0.270232,-0.02802 0.40535,-0.04203 0.701201,-0.09121 0.572211,-1.082855 -0.128987,-0.991647 v 0 c -0.06649,0.01221 -0.131877,0.03556 -0.19947,0.03664 -0.347321,0.0056 -0.614696,-0.06971 -0.96193,-0.136573 -1.053525,-0.206566 -2.228725,-0.445357 -3.233372,0.08638 -0.105516,0.05585 -0.189508,0.145248 -0.284263,0.217872 -0.0721,0.09946 -0.217011,0.175523 -0.216318,0.298364 0.0036,0.630324 0.13812,0.778553 0.651354,0.754438 0.164259,-0.0077 0.597882,-0.260182 0.68122,-0.315875 0.185883,-0.124221 0.356357,-0.270082 0.534532,-0.405122 0.201272,-0.203888 0.422241,-0.390049 0.603809,-0.611663 0.400068,-0.488311 0.757629,-1.068061 0.919884,-1.686166 0.145685,-0.554973 0.1802,-1.180774 -0.19218,-1.674462 -0.138954,-0.184223 -0.390607,-0.245789 -0.585909,-0.368684 -0.217384,0.01718 -0.447474,-0.02366 -0.652155,0.05155 -0.707938,0.260142 -0.94746,1.243161 -0.933567,1.904641 0.0028,0.132212 0.03155,0.262593 0.04732,0.393889 0.203162,0.677293 1.160999,0.38998 0.957836,-0.287313 z" />
    <path
       style="fill:#0000ff;stroke-width:0.264583"
       id="path15111"
       d="m 86.589607,6.1183596 c -0.03608,0.4963771 -0.04948,0.7390863 -0.125193,1.3112864 -0.0634,0.4791408 -0.424278,2.782211 -0.479097,3.147997 -0.218133,1.4555 -0.232391,1.596768 -0.416531,2.965646 -0.196239,1.044948 -0.04378,0.621849 -0.350247,1.302935 -0.273643,0.652012 0.648438,1.039003 0.922083,0.386992 v 0 c 0.36167,-0.905154 0.202205,-0.391995 0.419241,-1.55663 0.18266,-1.358311 0.197178,-1.501327 0.413763,-2.946477 0.06949,-0.46365 0.412959,-2.6461053 0.485336,-3.1961709 0.08472,-0.6438749 0.09333,-0.8584999 0.130643,-1.4155785 0,-0.7071069 -0.999998,-0.7071069 -0.999998,0 z" />
    <path
       style="fill:#0000ff;stroke-width:0.264583"
       id="path15113"
       d="m 86.856585,7.8755308 c 0.271737,-0.4670761 0.620718,-1.0463908 1.249764,-0.980617 0.390827,0.040865 0.569357,0.2096892 0.897835,0.413598 0.179416,0.1741731 0.903065,0.703713 0.625536,1.0633535 -0.06118,0.079287 -0.173514,0.100212 -0.26252,0.1461238 -0.777541,0.4010811 -0.528471,0.2740885 -1.459479,0.6105784 -0.945321,0.27017 -0.511055,0.150622 -1.301707,0.3625636 -0.682967,0.1831837 -0.423905,1.1490449 0.259061,0.9658609 v 0 c 0.831943,-0.223269 0.368171,-0.09497 1.389735,-0.390592 0.599964,-0.2264623 1.434989,-0.4667006 1.91018,-0.9454755 0.486267,-0.4899324 0.591701,-0.943705 0.34779,-1.561016 C 90.318221,7.0675052 89.868988,6.7632619 89.492203,6.4356784 88.877986,6.1153566 88.625036,5.8770501 87.896527,5.9171744 c -0.957789,0.052753 -1.506363,0.751209 -1.934311,1.5110261 -0.316309,0.6324143 0.578059,1.0797445 0.894369,0.4473303 z" />
    <path
       style="fill:#0000ff;stroke-width:0.264583"
       id="path15115"
       d="m 95.022111,5.6291768 c -0.164053,-0.075408 -0.316008,-0.1865958 -0.49216,-0.2262241 -0.566618,-0.1274691 -1.21204,-0.085676 -1.732714,0.1972432 -0.756576,0.4111024 -1.411263,1.1790108 -1.79738,1.9313535 -0.233569,0.4551037 -0.348732,0.961811 -0.523098,1.4427166 -0.04734,0.5247484 -0.165835,1.047903 -0.142038,1.574246 0.06358,1.406492 0.687538,3.038788 2.145458,3.554455 1.18224,0.418159 1.615639,0.0022 2.65974,-0.440327 0.347144,-0.382617 0.761148,-0.713861 1.041426,-1.14785 0.856306,-1.325914 1.122601,-3.2037502 0.527892,-4.6875682 C 96.52396,7.3649519 96.256307,6.9152002 95.889981,6.5778205 95.550637,6.2652925 95.070786,6.1532825 94.66119,5.9410134 c -1.795066,0.2859127 -0.993672,-0.039563 -2.426126,0.9205608 -0.575572,0.4107513 0.0053,1.2247332 0.58089,0.8139821 v 0 c 0.902708,-0.7030542 0.421222,-0.4362325 1.430927,-0.8244062 0.273759,0.098805 0.593847,0.1148046 0.821275,0.296414 0.288912,0.2307043 0.51272,0.5513258 0.663242,0.8890193 0.541612,1.215095 0.330951,2.7000206 -0.309555,3.8277016 -0.187452,0.330033 -0.471003,0.59531 -0.706506,0.892966 -0.586645,0.315716 -0.977697,0.67758 -1.697887,0.502307 -1.155586,-0.281236 -1.614413,-1.593465 -1.685896,-2.631531 -0.03038,-0.441135 0.05941,-0.8823609 0.08911,-1.3235412 0.134721,-0.4025828 0.220972,-0.8247787 0.404156,-1.207748 0.162637,-0.3400163 0.385059,-0.6515399 0.624444,-0.9426718 0.457753,-0.5567077 0.959982,-0.9024988 1.695894,-0.8281101 0.08822,0.00892 0.168222,0.056099 0.252333,0.084149 0.552201,0.4416734 1.176822,-0.3392549 0.624621,-0.7809283 z" />
    <path
       style="fill:#0000ff;stroke-width:0.264583"
       id="path15117"
       d="m 98.630644,13.407884 c -0.0086,-0.04834 -0.0232,-0.09598 -0.02569,-0.145009 -0.0109,-0.21444 0.04022,-0.475031 0.199017,-0.633831 0.02822,-0.02822 0.09547,-0.07621 0.11275,-0.04024 0.02043,0.04252 -0.04944,0.08036 -0.07416,0.120542 -0.04875,0.02694 -0.128546,0.02802 -0.146254,0.08083 -0.03021,0.09009 0.02522,0.189053 0.02389,0.284068 -0.0024,0.164111 7.93e-4,0.330903 -0.03472,0.491156 -0.10196,0.460868 -0.324893,0.910502 -0.591495,1.295506 -0.142679,0.20604 -0.321003,0.384962 -0.481502,0.577443 -0.309205,0.230885 -0.710004,0.644296 -1.154517,0.584332 -0.04805,-0.0065 0.11366,-0.06995 0.142163,-0.03073 0.152607,0.209994 0.20166,0.480286 0.334844,0.703107 0.688504,-0.09222 1.378735,0.01541 2.065895,0.05597 0.185188,0.01093 0.370904,0.02667 0.556226,0.01832 0.176313,-0.0079 0.350144,-0.04469 0.525219,-0.06704 0.15661,-0.06227 0.31323,-0.124547 0.46984,-0.186821 0.64695,-0.285411 0.24332,-1.200332 -0.40363,-0.914921 v 0 c -0.0689,0.03722 -0.13783,0.07444 -0.206743,0.111666 -0.117653,0.0192 -0.233895,0.05175 -0.35296,0.05761 -0.305488,0.01505 -0.82455,-0.04568 -1.113742,-0.06611 -0.61364,-0.04334 -1.231874,-0.08117 -1.840598,0.03752 -0.557191,0.280201 -0.967282,0.262565 -0.467421,1.152039 0.07579,0.134859 0.294484,0.114245 0.44916,0.116769 0.172005,0.0028 0.344339,-0.04255 0.506068,-0.101182 0.611394,-0.221647 0.748961,-0.415527 1.265084,-0.838451 0.194104,-0.242229 0.411528,-0.467489 0.582314,-0.726686 0.477805,-0.725154 0.856022,-1.634331 0.717801,-2.523193 -0.03657,-0.235175 -0.08777,-0.484338 -0.228042,-0.676611 -0.142658,-0.195548 -0.388133,-0.289337 -0.5822,-0.434006 -0.196982,0.0342 -0.410114,0.01733 -0.590949,0.102601 -0.152453,0.07189 -0.266409,0.212861 -0.366178,0.348712 -0.276564,0.376585 -0.355497,0.899261 -0.283665,1.350652 0.01873,0.117775 0.06662,0.229021 0.09993,0.343532 0.316476,0.632332 1.210728,0.184768 0.894252,-0.447563 z" />
    <path
       style="fill:#0000ff;stroke-width:0.264583"
       id="path15119"
       d="m 99.687479,6.9705989 c 0.710841,0.1126167 1.418971,0.251922 2.139041,0.2924426 0.16352,0.0092 0.3275,0.00604 0.49125,0.00906 0.70702,0.011245 0.72292,-0.9886272 0.0159,-0.9998733 v 0 c -0.14028,-0.00183 -0.28075,0.00201 -0.42085,-0.00545 -0.7017,-0.037423 -1.39102,-0.1786919 -2.083847,-0.2861127 -0.699992,-0.1000548 -0.841491,0.8898837 -0.141499,0.9899385 z" />
    <path
       style="fill:#ff0000;stroke-width:0.264583"
       id="path15123"
       d="m 17.841453,5.2556433 c -0.35246,-0.525949 -1.025095,-1.5216452 -1.7992,-1.2718388 -0.234547,0.075689 -0.400364,0.2875282 -0.600547,0.4312925 -0.112416,0.2472952 -0.256519,0.4825114 -0.337248,0.7418858 -0.158402,0.5089279 -0.219138,1.2382582 -0.173912,1.7654408 0.04527,0.5276918 0.181011,1.1142908 0.536553,1.533675 0.166847,0.1968076 0.409877,0.3135063 0.614816,0.4702595 0.253997,0.048435 0.503526,0.1527802 0.761992,0.1453039 1.080298,-0.031248 1.946955,-0.9759312 2.1847,-1.9724714 0.06339,-0.2656916 0.05198,-0.5438174 0.07797,-0.815726 -0.04965,-0.2693519 -0.0584,-0.5495647 -0.14894,-0.8080557 C 18.635466,4.5556175 17.959004,3.9859704 16.948134,4.0341801 16.665222,4.0476738 16.40283,4.1875733 16.130179,4.26427 15.459658,4.4887739 15.777154,5.4370332 16.447675,5.2125295 v 0 C 16.71708,5.09379 16.971399,4.9260521 17.288528,5.0003543 c 0.583197,0.1366409 0.719923,0.7183977 0.820511,1.2129963 -0.0057,0.1784432 0.0139,0.3594901 -0.01699,0.5353298 C 17.988586,7.3375233 17.567179,7.9300037 16.963018,8.078781 16.8568,8.104938 16.74445,8.088491 16.635166,8.093344 16.534037,8.046822 16.412419,8.030515 16.331781,7.9537774 16.054433,7.6898486 15.968389,7.2868252 15.930533,6.927714 c -0.0644,-0.6109425 0.03477,-1.2226023 0.216771,-1.8040009 -0.0079,-0.047744 -0.02043,-0.094949 -0.02356,-0.1432327 -0.002,-0.031199 -0.02305,-0.094853 0.0082,-0.093435 0.07678,0.00349 0.145615,0.055876 0.206198,0.1031682 0.246153,0.1921544 0.424496,0.4662926 0.609082,0.7129946 0.316475,0.6323317 1.210727,0.1847686 0.894252,-0.4475633 z" />
    <path
       style="fill:#ff0000;stroke-width:0.264583"
       id="path15127"
       d="m 48.517918,3.670895 c 0.22661,-0.418324 0.518133,-0.8701833 0.951177,-1.102946 0.249605,-0.1341641 0.223007,-0.1154984 0.355253,7.408e-4 -0.0427,0.02501 -0.10006,0.034257 -0.128103,0.075031 -0.03859,0.056111 -0.03886,0.1305429 -0.05819,0.1958407 -0.03824,0.1291238 -0.06685,0.2614861 -0.114549,0.3874244 -0.156308,0.4127166 -0.362511,0.7090044 -0.63133,1.0494147 -0.354404,0.3615005 -0.364993,0.4266494 0.157046,1.0447364 0.06558,0.077651 0.202531,0.018833 0.30299,0.034297 0.318866,0.049085 0.276829,0.051848 0.583571,0.1680453 0.05821,0.049782 0.135334,0.083597 0.174617,0.1493473 0.01627,0.027219 -0.0059,0.071394 -0.03183,0.089636 -0.02746,0.01932 -0.06768,-0.00268 -0.100674,0.00357 -0.06253,0.011851 -0.123764,0.030309 -0.184147,0.050409 -0.657085,0.2187339 -0.13352,0.1005501 -0.944372,0.2284166 -0.492768,0.00307 -0.597919,0.027723 -1.063887,-0.05376 -0.08652,-0.015129 -0.166635,-0.059216 -0.253598,-0.071519 -0.05579,-0.00789 0.144473,0.00359 0.158747,0.0581 0.05658,0.2160995 0.02117,0.4462687 0.03175,0.6694032 0.547354,-0.4476642 -0.08574,-1.22174 -0.633095,-0.7740761 v 0 c -0.04067,0.2650519 -0.171487,0.5316066 -0.122004,0.7951557 0.02347,0.1250154 0.196315,0.1671701 0.31243,0.2190999 0.12418,0.055536 0.261877,0.07633 0.396203,0.097815 0.597945,0.095639 0.719558,0.060346 1.35327,0.043481 C 49.561898,6.9216595 50.030363,6.8955821 50.479044,6.544701 50.888468,6.2245205 51.112869,5.8744926 50.988436,5.3475773 50.882478,4.8989019 50.606705,4.8030476 50.271857,4.5816445 49.825195,4.4287474 49.883938,4.4244617 49.447381,4.3599727 c -0.05266,-0.00778 -0.163804,-0.062952 -0.159375,-0.00991 0.08477,1.0155775 0.103815,0.8534376 0.393417,0.5404019 0.341744,-0.4443253 0.652304,-0.8910378 0.8162,-1.4374476 0.06798,-0.2266468 0.136364,-0.4599069 0.136972,-0.6965291 5.29e-4,-0.2395242 -0.01572,-0.4974619 -0.133382,-0.7060876 -0.116173,-0.2059625 -0.353684,-0.313965 -0.530526,-0.4709475 -0.192956,-0.00779 -0.388856,-0.057832 -0.578869,-0.023366 -0.722312,0.1310171 -1.34961,0.9043075 -1.684147,1.5081893 -0.06427,0.1160121 -0.106635,0.2428703 -0.159951,0.3643053 -0.171342,0.6860339 0.798856,0.9283462 0.970198,0.2423124 z" />
    <path
       style="fill:#ff0000;stroke-width:0.264583"
       id="path15129"
       d="m 51.482458,4.0953311 c 0.593587,-0.29001 1.263192,-0.2687682 1.906746,-0.2941193 0.706546,-0.02815 0.666737,-1.0273577 -0.03981,-0.9992071 v 0 c -0.798068,0.032192 -1.617962,0.036007 -2.34568,0.4153712 -0.620807,0.3385225 -0.142065,1.2164774 0.478743,0.8779552 z" />
    <path
       style="fill:#ff0000;stroke-width:0.264583"
       id="path15131"
       d="m 97.073994,6.1215439 c 0.04224,-0.08445 0.08264,-0.1698416 0.126704,-0.25335 0.101012,-0.1914191 0.198059,-0.3512153 0.30367,-0.5402508 0.03033,-0.054285 0.164047,-0.3118789 0.222353,-0.3882284 0.01622,-0.021227 -0.02278,0.048324 -0.03415,0.072485 -0.129374,0.033112 -0.263099,0.052398 -0.388126,0.099336 -0.05326,0.019995 0.06111,0.1305811 0.115835,0.2406623 0.180044,0.3621765 0.157051,0.5629156 0.132675,0.955198 -0.03884,0.1270087 -0.06265,0.2596237 -0.116509,0.3810259 -0.170421,0.3841271 -0.472869,0.7078728 -0.815681,0.9439386 -0.184119,0.1267878 -0.300339,0.1672508 -0.493327,0.2493322 0.275961,-0.2263098 -0.068,0.041193 0.467233,0.8248631 0.02254,0.033018 0.07694,-0.021812 0.115369,-0.032842 0.08675,-0.024897 0.17212,-0.05515 0.260173,-0.074938 0.21227,-0.0477 0.361514,-0.054527 0.578004,-0.074754 0.32122,-0.00715 0.636881,-0.01588 0.950989,-0.092725 0.105706,-0.02586 0.20742,-0.065943 0.311129,-0.098914 0.671234,-0.2223622 0.356766,-1.1716303 -0.314466,-0.9492681 v 0 c -0.154696,0.054636 -0.245506,0.095415 -0.412837,0.1161312 -0.0361,0.00447 -0.62353,0.029194 -0.632965,0.029604 -0.383633,0.039415 -0.759206,0.082987 -1.122982,0.2210972 -0.110035,0.041776 -0.318175,0.030231 -0.320627,0.1479032 -0.0069,0.3319798 0.129915,0.6641017 0.297749,0.9506172 0.03947,0.067389 0.152225,-0.035004 0.228338,-0.052505 0.103116,-0.046912 0.209804,-0.086657 0.309345,-0.1407374 0.693407,-0.3767188 1.276377,-0.9572873 1.560195,-1.7069141 0.07424,-0.1960856 0.100277,-0.4071723 0.150416,-0.6107586 0.0019,-0.1943108 0.02455,-0.3895124 0.0058,-0.5829321 -0.044,-0.4554307 -0.224941,-0.940417 -0.53504,-1.2846312 -0.09162,-0.1016995 -0.177599,-0.2319245 -0.308915,-0.2705603 -0.19386,-0.057037 -0.404153,8.732e-4 -0.606229,0.0013 -0.07803,0.072158 -0.164748,0.13593 -0.234085,0.2164749 -0.04752,0.055201 -0.210425,0.3653034 -0.238426,0.4154133 -0.155633,0.278528 -0.321757,0.551783 -0.456089,0.8417058 -0.316227,0.6324554 0.578199,1.079669 0.894427,0.4472135 z" />
    <path
       style="fill:#ff0000;stroke-width:0.264583"
       id="path15133"
       d="m 99.192206,5.6237846 c 0.386987,0.0055 0.773229,-0.00159 1.159934,-0.015179 0.70666,-0.025352 0.6708,-1.0247095 -0.0359,-0.9993572 v 0 c -0.374745,0.013748 -0.749051,0.019513 -1.124084,0.014536 -0.707107,0 -0.707107,1.0000001 0,1.0000001 z" />
    <path
       style="fill:#ff0000;stroke-width:0.264583"
       id="path15137"
       d="m 80.087535,4.1820285 c 0.08525,0.8273372 0.225989,1.6482369 0.306038,2.4759417 0.06879,0.703753 1.064043,0.6064723 0.995257,-0.097281 v 0 C 81.306023,5.7215029 81.166977,4.888784 81.078783,4.050017 80.985438,3.3490987 79.99419,3.4811102 80.087535,4.1820285 Z" />
    <path
       style="fill:#ff0000;stroke-width:0.264583"
       id="path15139"
       d="m 79.591859,5.895785 c 0.538936,-0.066417 1.077323,-0.1266333 1.619769,-0.1523709 0.706255,-0.034699 0.657183,-1.0334945 -0.04907,-0.9987955 v 0 c -0.576842,0.029202 -1.149864,0.089804 -1.722843,0.1628084 -0.698875,0.1075839 -0.546729,1.0959418 0.152146,0.988358 z" />
    <path
       style="fill:#ff0000;stroke-width:0.264583"
       id="path15169"
       d="m 33.471958,22.16643 c 0.108223,1.523481 0.07888,3.057563 -0.03004,4.580185 -0.09539,1.333487 -0.250701,2.791135 -0.543086,4.102574 -0.110131,0.493963 -0.283298,0.971732 -0.424948,1.457597 -0.548798,0.930156 -0.201993,0.657696 -0.852085,1.012193 -0.57903,0.405863 -0.0051,1.224735 0.573979,0.818869 v 0 c 0.97727,-0.770247 0.532524,-0.279601 1.238721,-1.553178 0.150027,-0.522417 0.332608,-1.036563 0.45008,-1.567251 0.298612,-1.348992 0.459105,-2.855373 0.556379,-4.226984 0.08937,-1.260139 0.116459,-2.488447 0.08157,-3.748301 -0.0096,-0.347274 -0.0428,-0.693494 -0.0642,-1.040242 -0.116345,-0.697469 -1.102717,-0.532931 -0.98637,0.164538 z" />
    <path
       style="fill:#ff0000;stroke-width:0.264583"
       id="path15171"
       d="m 33.508963,23.925339 c 0.707975,-0.580978 1.473673,-0.640448 2.335704,-0.349078 0.26796,0.09057 0.517393,0.22875 0.776092,0.343126 0.621747,0.398613 0.883663,0.507587 1.381654,1.051271 0.283734,0.30977 0.538766,0.577713 0.421421,1.019167 -0.109363,0.411432 -0.600419,0.766476 -0.862518,1.013986 -1.021474,0.738148 -2.084245,1.167143 -3.322087,1.392002 -0.32203,0.0585 -0.650973,0.06878 -0.976461,0.103174 -0.702839,0.07756 -0.593159,1.071523 0.10968,0.993969 v 0 c 0.369729,-0.04232 0.743667,-0.05706 1.109184,-0.126969 0.977178,-0.18688 1.775394,-0.440721 2.656022,-0.915228 0.400966,-0.216051 0.76108,-0.500573 1.141619,-0.750858 0.592275,-0.649229 1.075219,-0.931389 1.131869,-1.868894 0.04085,-0.67601 -0.312563,-1.151476 -0.743198,-1.606718 -0.603399,-0.637878 -0.909762,-0.760718 -1.654154,-1.224428 -0.323887,-0.134636 -0.635765,-0.302896 -0.971659,-0.40391 -1.060302,-0.318866 -2.174708,-0.236354 -3.055405,0.47628 -0.131834,0.106677 -0.234601,0.244955 -0.351904,0.367433 -0.343424,0.61811 0.530714,1.103785 0.874141,0.485675 z" />
    <path
       style="fill:#ff0000;stroke-width:0.264583"
       id="path15173"
       d="m 41.557178,27.160876 c 0.179747,0.0049 0.359603,0.0067 0.539244,0.01468 1.199182,0.05287 2.396083,0.127177 3.596518,0.155255 1.138873,0.02664 1.977647,0.0227 3.112739,0.02529 1.773123,-0.02899 0.744429,-0.01254 2.231726,-0.03569 0.17872,-0.0028 0.35742,-0.0089 0.536162,-0.0084 0.04448,1.17e-4 0.131048,0.05459 0.133064,0.01016 0.01508,-0.332536 -0.05893,-0.663144 -0.08839,-0.994716 -0.706588,0.0271 -0.668266,1.026363 0.03832,0.999264 v 0 c 0.03808,-0.33416 0.146794,-0.667742 0.114234,-1.002487 -0.0069,-0.07075 -0.14183,-0.01174 -0.212918,-0.01209 -0.916557,-0.0045 -1.83342,0.0475 -2.74995,0.04398 -1.116208,-0.0025 -1.962105,0.0014 -3.081282,-0.02472 -1.202713,-0.02804 -2.401863,-0.103239 -3.603355,-0.155462 -0.188592,-0.0082 -0.377409,-0.01002 -0.566115,-0.01504 -0.707107,0 -0.707107,1.000001 0,1.000001 z" />
    <path
       style="fill:#ff0000;stroke-width:0.264583"
       id="path15175"
       d="m 50.072615,25.625681 c 0.765413,0.457534 1.525601,0.934212 2.221404,1.494348 0.448604,0.361133 0.364035,0.203621 0.47411,0.539179 -0.05449,-0.08176 -0.06773,-0.223147 -0.16346,-0.245269 -0.114149,-0.02638 -0.220527,0.08052 -0.325646,0.132242 -0.15511,0.07632 -0.997466,0.541774 -1.163183,0.63292 -0.619564,0.340794 -0.137612,1.216991 0.481952,0.876197 v 0 c 0.184798,-0.101653 0.369149,-0.204121 0.55439,-0.304962 0.20792,-0.113188 0.422124,-0.215257 0.62508,-0.337118 0.221626,-0.133067 0.497764,-0.216152 0.64742,-0.426929 0.160451,-0.225984 0.149463,-0.533776 0.224195,-0.800664 -0.09383,-0.151794 -0.164246,-0.320852 -0.281493,-0.455385 -0.136806,-0.156975 -0.309571,-0.278894 -0.471993,-0.409182 -0.726369,-0.582654 -1.517912,-1.080669 -2.316022,-1.557469 -0.609592,-0.358328 -1.116344,0.503764 -0.506754,0.862092 z" />
    <path
       style="fill:#ff0000;stroke-width:0.264583"
       id="path15177"
       d="m 56.22935,22.927784 c 0.04258,0.216417 0.09457,0.431193 0.12773,0.649252 0.151979,0.999417 0.201695,1.711353 0.240781,2.761604 0.04629,1.243894 0.04485,2.578373 -0.02254,3.821126 -0.03148,0.580472 -0.09647,1.15864 -0.144703,1.737958 -0.260644,1.595501 -0.07628,0.909749 -0.464368,2.079083 -0.217752,0.672743 0.733653,0.980689 0.951402,0.307943 v 0 c 0.425784,-1.343879 0.231944,-0.581416 0.509553,-2.304484 0.04924,-0.597579 0.115599,-1.193998 0.14773,-1.792745 0.0679,-1.265372 0.06948,-2.643783 0.02103,-3.910352 -0.0395,-1.032549 -0.09772,-1.897814 -0.259109,-2.900208 -0.04235,-0.263013 -0.109699,-0.521384 -0.16455,-0.782077 -0.235397,-0.666775 -1.178359,-0.333875 -0.942962,0.3329 z" />
    <path
       style="fill:#ff0000;stroke-width:0.264583"
       id="path15179"
       d="m 56.921029,24.975883 c 0.127833,-0.310984 0.352486,-0.932675 0.660207,-1.104932 0.161816,-0.09058 0.287083,0.237813 0.315777,0.273995 0.134321,0.169372 0.283512,0.326397 0.425268,0.489596 0.295658,0.419458 0.648242,0.872 0.854678,1.348928 0.06902,0.159456 0.154472,0.332881 0.129715,0.504861 -0.0123,0.08549 -0.143415,0.09762 -0.2217,0.134097 -0.417473,0.194516 -0.751668,0.265729 -1.212869,0.400065 -0.640175,0.132133 -1.265155,0.317567 -1.87874,0.540089 -0.664191,0.242589 -0.321119,1.181896 0.343072,0.939308 v 0 c 0.597138,-0.219903 1.20885,-0.39202 1.831928,-0.52429 0.608184,-0.197634 1.375463,-0.340366 1.805522,-0.897097 0.186592,-0.241551 0.280328,-0.562207 0.294245,-0.867116 0.01151,-0.252056 -0.119454,-0.493079 -0.221633,-0.723782 -0.247211,-0.558153 -0.643419,-1.051073 -0.996111,-1.540527 -0.481844,-0.485027 -0.775677,-0.97604 -1.549099,-0.999796 -0.845838,-0.02598 -1.303623,1.123704 -1.541724,1.751667 -0.194408,0.679858 0.767056,0.954791 0.961464,0.274934 z" />
    <path
       style="fill:#ff0000;stroke-width:0.264583"
       id="path15181"
       d="m 61.90539,22.012518 c 0.06427,-0.04543 0.124605,-0.097 0.192807,-0.136282 0.07349,-0.04233 0.149352,-0.08317 0.230582,-0.107555 0.133241,-0.04 0.457986,-0.05313 0.579183,0.03523 0.01529,0.01115 -0.03604,0.01153 -0.05406,0.01729 -0.235037,-0.336961 -0.187063,-0.444401 -0.458539,-0.114749 -0.184965,0.224605 -0.369057,0.461871 -0.3263,0.788936 0.02762,0.211284 0.170265,0.390674 0.255394,0.586011 0.597744,0.508722 0.256681,0.263926 0.90392,0.644074 0.117703,0.06913 0.244216,0.125685 0.351557,0.210013 0.03818,0.03 0.112496,0.155634 0.07484,0.124973 -0.327805,-0.266954 -0.03114,-0.278385 -0.459938,-0.127884 -0.61491,0.286692 -1.273543,0.458176 -1.946029,0.538543 -0.142436,0.01702 -0.286285,0.02419 -0.429731,0.0231 -0.02201,-1.67e-4 -0.06864,-0.04722 -0.06036,-0.02682 0.102257,0.252095 0.232516,0.491904 0.348772,0.737855 0.433175,-0.55889 -0.357214,-1.171494 -0.79039,-0.612603 v 0 c 0.08538,0.285797 0.09806,0.604439 0.256122,0.857393 0.05459,0.08735 0.203099,0.04148 0.306101,0.04236 0.671505,0.0058 1.483596,-0.172251 2.107005,-0.39823 0.275058,-0.0997 0.534632,-0.237816 0.801952,-0.356723 0.204028,-0.184766 0.495514,-0.304942 0.612084,-0.554296 0.342964,-0.733628 -0.180946,-1.041647 -0.678622,-1.327505 -0.68516,-0.393547 -0.05862,-0.01478 -0.560559,-0.321874 -0.03199,0.01639 -0.06126,0.0398 -0.09596,0.04917 -0.02236,0.006 -0.07628,0.01755 -0.06932,-0.0045 0.03905,-0.124029 0.354529,-0.421204 0.391843,-0.47401 0.3816,-0.540049 0.267279,-0.389684 0.09361,-1.061859 -0.112091,-0.07004 -0.213643,-0.160793 -0.336267,-0.210113 -0.120632,-0.04852 -0.252492,-0.06757 -0.382029,-0.07879 -0.575546,-0.04985 -1.076071,0.149104 -1.515933,0.506097 -0.5323,0.465468 0.125973,1.218249 0.65827,0.752782 z" />
    <path
       style="fill:#ff0000;stroke-width:0.264583"
       id="path15183"
       d="m 65.239291,22.91591 c 0.813268,-0.03456 1.615056,-0.153258 2.413822,-0.303109 0.694865,-0.131008 0.509593,-1.113695 -0.185274,-0.982688 v 0 c -0.760921,0.14423 -1.524794,0.255953 -2.299835,0.288341 -0.705308,0.05041 -0.634021,1.047863 0.07129,0.997456 z" />
    <path
       style="fill:#ff0000;stroke-width:0.264583"
       id="path15185"
       d="m 18.918189,27.045658 c 0.03247,-0.02822 0.05699,-0.06995 0.09742,-0.08467 0.06895,-0.02511 -0.01788,0.063 0.0426,0.129903 0.611434,0.67627 -0.248283,-0.499192 0.568761,0.533225 0.111341,0.140692 0.194962,0.301255 0.292443,0.451879 0.112406,0.36036 0.230248,0.501666 0.08538,0.869853 -0.09272,0.235664 -0.39242,0.512849 -0.575295,0.662318 -0.113709,0.09294 -0.243853,0.164047 -0.360491,0.253283 -0.09804,0.07501 -0.188614,0.159305 -0.282921,0.238961 -0.03814,0.226417 -0.20319,0.467495 -0.114428,0.679254 0.100947,0.240829 0.382168,0.362336 0.606824,0.495451 0.202377,0.119917 0.440754,0.164793 0.658338,0.254198 0.217957,0.08956 0.441297,0.169413 0.647987,0.282573 0.513064,0.2809 0.437443,0.177752 0.490513,0.570462 -0.0934,0.03198 -0.193429,0.04884 -0.280195,0.09593 -0.231615,0.125701 -0.433976,0.302432 -0.669957,0.41973 -1.012999,0.503534 -2.213447,0.849728 -3.35411,0.8275 -0.217925,-0.0042 -0.428966,-0.07763 -0.643449,-0.116445 0.0129,-0.255876 -0.02831,-0.163537 0.288948,0.09236 0.344142,-0.61771 -0.529434,-1.1044 -0.873575,-0.486688 v 0 c -0.154402,1.187807 -0.379642,0.761309 0.428485,1.382064 0.294835,0.0417 0.586745,0.122674 0.884505,0.125098 1.223181,0.01 2.799629,-0.394706 3.852136,-1.01137 0.351992,-0.206235 0.723597,-0.424032 0.964746,-0.753089 0.204496,-0.279043 0.208307,-0.659804 0.312461,-0.989708 -0.126675,-0.219856 -0.206874,-0.474091 -0.380024,-0.659569 -0.28571,-0.306054 -0.942577,-0.562258 -1.311774,-0.713066 -0.186052,-0.076 -0.364346,-0.191434 -0.564205,-0.212587 -0.186547,-0.01974 -2.91e-4,0.730978 -0.294931,0.479293 0.0742,-0.06382 0.145457,-0.131226 0.222592,-0.191466 0.408695,-0.319175 0.694123,-0.452591 0.996618,-0.913069 0.340829,-0.518832 0.460622,-0.930445 0.354913,-1.54608 -0.0418,-0.243453 -0.173206,-0.462674 -0.259808,-0.69401 -0.140082,-0.201914 -0.26175,-0.417938 -0.420247,-0.605742 -0.142609,-0.168981 -0.303999,-0.323641 -0.478596,-0.459316 -0.35295,-0.274268 -0.657173,-0.449571 -1.121839,-0.400821 -0.280156,0.02939 -0.402315,0.185967 -0.577887,0.353981 -0.452818,0.543097 0.315239,1.183479 0.768057,0.640382 z" />
    <path
       style="fill:#ff0000;stroke-width:0.264583"
       id="path15187"
       d="m 23.131818,30.093602 c 1.162196,0.114091 2.387975,0.253839 3.51043,-0.167359 0.239725,-0.08996 0.452969,-0.238874 0.679455,-0.35831 0.337997,-0.445513 0.763098,-0.727765 0.283686,-1.385474 -0.398029,-0.546061 -1.257249,-0.566492 -1.820386,-0.47466 -0.973857,0.158805 -1.16722,0.43449 -1.948442,0.99188 -0.21534,0.289058 -0.487405,0.543497 -0.646021,0.867175 -0.453226,0.924872 -0.407184,2.138169 0.335125,2.911559 0.663429,0.691208 1.064515,0.59663 1.948926,0.726644 1.441635,-0.295913 0.763802,-0.05672 2.039078,-0.701566 0.625996,-0.32883 0.160962,-1.214123 -0.465035,-0.885294 v 0 c -0.933631,0.515028 -0.443984,0.318209 -1.468127,0.592487 -0.494682,-0.02103 -0.805823,0.05253 -1.215918,-0.276519 -0.519061,-0.416483 -0.603139,-1.203068 -0.358894,-1.78807 0.09934,-0.237926 0.285341,-0.429521 0.428012,-0.644284 0.216745,-0.170817 0.410734,-0.375351 0.650234,-0.51245 0.564305,-0.323027 0.753971,-0.278135 1.340387,-0.346991 0.0917,-0.01077 0.186818,-0.0088 0.274334,-0.03819 0.07221,-0.02426 0.130469,-0.160231 0.194834,-0.119475 0.06057,0.03835 -0.03683,0.138573 -0.05524,0.207859 -0.151175,0.08914 -0.290867,0.201523 -0.453526,0.267412 -0.971536,0.393547 -2.113289,0.234447 -3.128813,0.141362 -0.701641,-0.08775 -0.825735,0.904523 -0.124094,0.992269 z" />
    <path
       style="fill:#ff0000;stroke-width:0.264583"
       id="path15189"
       d="m 24.19748,26.766588 c 0.111292,-0.03361 0.219924,-0.07779 0.333875,-0.100822 0.856067,-0.17304 1.736667,-0.06213 2.595387,0.02601 0.703461,0.07171 0.804868,-0.92314 0.101407,-0.994846 v 0 c -0.997488,-0.101031 -2.018348,-0.216821 -3.007494,0.01834 -0.170523,0.04054 -0.331527,0.113912 -0.497291,0.170868 -0.622581,0.33525 -0.148465,1.215712 0.474116,0.880462 z" />
    <path
       style="fill:#ff0000;stroke-width:0.264583"
       id="path15191"
       d="m 29.695666,26.76643 c 0.03773,0.16292 0.08238,0.324392 0.113197,0.488759 0.04683,0.249822 0.08239,0.501653 0.119613,0.753086 0.09771,0.659966 0.182406,1.320403 0.239225,1.985045 0.06073,0.704495 1.057037,0.618606 0.996305,-0.08589 v 0 c -0.05984,-0.688879 -0.145357,-1.373954 -0.248209,-2.057881 -0.04155,-0.276312 -0.08023,-0.553297 -0.134469,-0.8274 -0.04044,-0.204388 -0.09958,-0.40463 -0.14937,-0.606945 -0.248354,-0.662058 -1.184646,-0.310835 -0.936292,0.351223 z" />
    <path
       style="fill:#ff0000;stroke-width:0.264583"
       id="path15193"
       d="m 29.420619,28.816935 c 0.695198,-0.09671 1.393404,-0.167587 2.09024,-0.25078 0.702114,-0.08387 0.583506,-1.07681 -0.118608,-0.992942 v 0 c -0.708027,0.08462 -1.417494,0.156414 -2.123781,0.255363 -0.698873,0.107585 -0.546727,1.095944 0.152149,0.988359 z" />
    <path
       style="fill:#ff0000;stroke-width:0.264583"
       id="path16699"
       d="m 89.880317,3.355269 c 0.08138,0.8070877 0.114128,1.6181208 0.161473,2.4276712 0.04128,0.7059006 1.039577,0.6475179 0.998294,-0.058383 v 0 C 90.990792,4.8816992 90.957859,4.0371175 90.867758,3.1972848 90.756046,2.499058 89.768605,2.6570424 89.880317,3.355269 Z" />
    <path
       style="fill:#ff0000;stroke-width:0.264583"
       id="path16701"
       d="m 88.708824,5.1737548 c 0.771274,-0.025773 1.524143,-0.2288416 2.27257,-0.396163 0.689975,-0.1546974 0.471202,-1.1304728 -0.218776,-0.9757751 v 0 c -0.676362,0.152101 -1.357336,0.3388359 -2.053794,0.3719382 -0.707107,0 -0.707107,0.9999999 0,0.9999999 z" />
    <path
       style="fill:#ff0000;stroke-width:0.264583"
       id="path16707"
       d="m 34.816933,37.882761 c -0.912815,3.467473 -1.728716,6.960409 -2.481627,10.465911 -0.06479,0.24833 -0.129588,0.49666 -0.194382,0.74499 -0.178109,0.684308 0.789649,0.936191 0.967759,0.251883 v 0 c 0.06811,-0.2623 0.13622,-0.5246 0.204332,-0.7869 0.746167,-3.47481 1.555941,-6.936721 2.457469,-10.374651 0.213005,-0.674261 -0.740545,-0.975495 -0.953551,-0.301233 z" />
    <path
       style="fill:#ff0000;stroke-width:0.264583"
       id="path16709"
       d="m 33.148127,40.461437 c 0.09179,-0.07324 0.176485,-0.156405 0.275386,-0.219725 1.051504,-0.673193 2.381406,-0.968823 3.623101,-0.857155 0.297947,0.02679 0.584621,0.127198 0.87693,0.190796 0.09907,0.120738 0.285422,0.206476 0.297222,0.362209 0.01125,0.148265 -0.153763,0.254982 -0.241353,0.375135 -0.537043,0.736706 -0.801058,1.077759 -1.569664,1.669126 -0.753819,0.579988 -1.055574,0.656413 -1.868575,1.002864 -0.648608,0.281614 -0.250344,1.198885 0.398267,0.91727 v 0 c 0.327588,-0.144496 0.66939,-0.260315 0.982768,-0.433488 0.847,-0.46805 1.669544,-1.063596 2.287487,-1.819182 0.577506,-0.706141 1.133824,-1.488821 0.681394,-2.453791 -0.137908,-0.294145 -0.512,-0.400021 -0.768,-0.60003 -0.364956,-0.07025 -0.724287,-0.182515 -1.094867,-0.21074 -1.205662,-0.09184 -2.437188,0.156614 -3.528907,0.665744 -0.247163,0.115266 -0.478374,0.263351 -0.705461,0.414369 -0.126601,0.08419 -0.235093,0.192863 -0.352637,0.289293 -0.500142,0.499862 0.206769,1.207164 0.706909,0.707305 z" />
    <path
       style="fill:#ff0000;stroke-width:0.264583"
       id="path16711"
       d="m 41.398316,43.363395 c 1.454103,-0.03371 2.902652,-0.154672 4.349004,-0.301424 0.703488,-0.07145 0.602441,-1.066331 -0.101047,-0.99488 v 0 c -0.907047,0.09222 -1.193919,0.128362 -2.122008,0.192891 -1.158248,0.08053 -0.775214,0.03876 -1.804305,0.08987 -0.172747,0.0086 -0.345223,0.02199 -0.517835,0.03298 -0.693364,0.138726 -0.497173,1.119293 0.196191,0.980564 z" />
    <path
       style="fill:#ff0000;stroke-width:0.264583"
       id="path16713"
       d="m 45.977458,40.481091 c 0.786889,0.413144 1.566558,0.841375 2.354532,1.25331 0.275283,0.143909 0.557522,0.274899 0.827683,0.428212 0.18424,0.10455 0.356015,0.229685 0.534024,0.344527 -0.04361,0.01738 -0.08721,0.03477 -0.130815,0.05215 -0.120933,-0.03312 -0.240848,-0.128485 -0.362802,-0.09936 -0.33315,0.07957 -0.624356,0.282327 -0.941803,0.410967 -0.368673,0.149394 -0.743958,0.281924 -1.115938,0.422886 -0.661028,0.251084 -0.305941,1.185916 0.355086,0.934834 v 0 c 0.390716,-0.148741 0.786895,-0.283848 1.172144,-0.446217 0.699461,-0.294799 1.628209,-0.573556 1.865601,-1.456897 0.06284,-0.233809 -0.201441,-0.440317 -0.302162,-0.660474 -0.204613,-0.130201 -0.402982,-0.27078 -0.613841,-0.390601 -0.267708,-0.152125 -0.547566,-0.281803 -0.820449,-0.424432 -0.294379,-0.153866 -0.58854,-0.308163 -0.881317,-0.465047 -0.269613,-0.144471 -1.070414,-0.598662 -1.410052,-0.73787 -0.171265,-0.0702 -0.353261,-0.11066 -0.529891,-0.165992 -0.707107,0 -0.707107,1.000001 0,1.000001 z" />
    <path
       style="fill:#ff0000;stroke-width:0.264583"
       id="path16715"
       d="m 55.242592,40.003266 c 0.0276,0.235834 0.06454,0.470763 0.08281,0.707504 0.08933,1.157637 0.09423,1.937912 0.102327,3.137376 0.01021,1.513647 -0.0034,3.026749 -0.05493,4.539449 -0.024,0.706699 0.975437,0.740624 0.999424,0.03393 v 0 c 0.05171,-1.529141 0.06621,-3.058671 0.05538,-4.588762 -0.0087,-1.225364 -0.01442,-2.052018 -0.109178,-3.239823 -0.02066,-0.259077 -0.062,-0.516088 -0.093,-0.774131 -0.130434,-0.694973 -1.113274,-0.510511 -0.982839,0.184462 z" />
    <path
       style="fill:#ff0000;stroke-width:0.264583"
       id="path16717"
       d="m 55.68579,42.002596 c 0.06634,-0.06287 0.123214,-0.137552 0.199017,-0.188622 0.520112,-0.350401 1.400992,-0.380627 1.960136,-0.114898 0.127305,0.0605 0.216236,0.180854 0.324353,0.27128 -0.02937,0.08558 -0.04209,0.17884 -0.08812,0.256728 -0.431049,0.729295 -1.201431,1.309378 -1.926614,1.712405 -0.251603,0.139829 -0.527402,0.230806 -0.791101,0.346212 -0.645351,0.289007 -0.236631,1.201669 0.408717,0.912659 v 0 c 0.313717,-0.143182 0.642435,-0.257241 0.941147,-0.429546 0.661617,-0.381635 1.520166,-1.007387 1.942965,-1.664197 0.207301,-0.322035 0.387818,-0.692563 0.405164,-1.075158 0.01408,-0.310462 -0.211113,-0.58461 -0.316669,-0.876914 -0.222086,-0.141936 -0.422526,-0.325496 -0.66626,-0.425805 -0.252228,-0.103806 -0.527402,-0.150542 -0.798851,-0.177172 -0.753116,-0.07389 -1.504011,0.09542 -2.10642,0.561776 -0.122258,0.09465 -0.212926,0.224242 -0.319389,0.336365 -0.392364,0.588259 0.43956,1.143148 0.831927,0.554887 z" />
    <path
       style="fill:#ff0000;stroke-width:0.264583"
       id="path16719"
       d="m 59.974215,36.879627 c -0.0056,0.895308 0.02606,1.789171 0.09605,2.681529 0.05573,0.704908 1.052618,0.626096 0.996889,-0.07881 v 0 c -0.07061,-0.885663 -0.09716,-1.77292 -0.09467,-2.661494 -0.04156,-0.705884 -1.039831,-0.647107 -0.99827,0.05878 z" />
    <path
       style="fill:#ff0000;stroke-width:0.264583"
       id="path16721"
       d="m 59.065355,38.763111 c 1.038931,-0.170743 2.09632,-0.109431 3.143303,-0.08475 1.235924,0.02913 0.508841,0.0033 1.548344,0.04641 0.706504,0.0292 0.7478,-0.969944 0.0413,-0.999146 v 0 c -1.054504,-0.04343 -0.334272,-0.01815 -1.564499,-0.04695 -1.167792,-0.02733 -2.352948,-0.10116 -3.504713,0.142672 -0.66593,0.237778 -0.329661,1.179544 0.336269,0.941765 z" />
    <path
       style="fill:#ff0000;stroke-width:0.264583"
       id="path16723"
       d="m 65.604979,43.240981 c 0.258077,-0.01577 0.287949,-0.02085 0.644369,-0.0077 0.922803,0.03413 1.84273,0.130675 2.765743,0.163658 0.336409,0.01201 0.673166,0.01045 1.00975,0.01569 0.278993,-0.0081 0.557985,-0.01619 0.83698,-0.02429 0.706795,-0.02093 0.677185,-1.020501 -0.02961,-0.999562 v 0 c -0.264081,0.008 -0.528159,0.01598 -0.792237,0.02397 -0.323284,-0.0048 -0.646737,-0.0028 -0.969848,-0.01429 -0.481889,-0.01717 -1.516354,-0.08929 -2.010979,-0.119102 -0.455028,-0.02743 -0.997707,-0.07476 -1.460855,-0.03502 -0.131066,0.01125 -0.25799,0.05157 -0.386985,0.07736 -0.65001,0.278365 -0.256339,1.197618 0.393671,0.91925 z" />
    <path
       style="fill:#ff0000;stroke-width:0.264583"
       id="path16725"
       d="m 70.038417,40.525882 c 0.532606,0.445918 1.087821,0.863846 1.625544,1.303435 0.265655,0.217173 0.79239,0.609069 0.976937,0.950042 0.04874,0.09006 0.02191,0.203629 0.03287,0.305441 -0.07912,0.05937 -0.159906,0.116588 -0.237374,0.178104 -0.868624,0.689761 -0.181443,0.19595 -1.237771,0.906843 -0.584549,0.397873 -0.02188,1.22455 0.562676,0.826678 v 0 c 0.462844,-0.318122 1.245773,-0.791321 1.565474,-1.2783 0.173574,-0.264393 0.207899,-0.597416 0.311846,-0.896123 -0.07984,-0.231558 -0.11647,-0.482896 -0.23953,-0.694674 -0.222676,-0.383201 -0.786133,-0.813752 -1.111359,-1.079619 -0.542358,-0.443367 -1.102233,-0.865044 -1.639673,-1.314503 -0.560509,-0.431083 -1.170149,0.361596 -0.609642,0.792676 z" />
    <path
       style="fill:#ff0000;stroke-width:0.264583"
       id="path16727"
       d="m 78.211184,41.269319 c 0.112795,-0.994788 0.128728,-2.003618 0.03428,-3.000907 -0.01603,-0.169426 -0.04351,-0.337574 -0.06526,-0.506359 -0.143274,-0.446432 -0.219051,-1.040289 -1.149374,-0.02817 -0.236741,0.257554 -0.120912,0.689393 -0.165057,1.036424 -0.212268,1.668581 -0.294566,3.349841 -0.387361,5.027972 -0.03698,1.22347 -0.05459,1.463228 -0.05541,2.593652 -1.66e-4,0.228161 0.0098,0.456263 0.009,0.684421 -5.29e-4,0.142682 -0.0245,0.455878 -0.0048,0.186463 -0.290975,0.644464 0.620435,1.055963 0.91141,0.411498 v 0 c 0.02669,-0.08857 0.06611,-0.174267 0.08006,-0.265713 0.02718,-0.178141 0.0042,-0.972608 0.0042,-1.007387 5.29e-4,-1.109896 0.01786,-1.345909 0.05393,-2.547779 0.07632,-1.382964 0.104748,-2.10235 0.226695,-3.485769 0.0427,-0.48445 0.09589,-0.967954 0.151431,-1.451099 0.03177,-0.276339 0.259517,-0.592278 0.110469,-0.827133 -0.143176,-0.225605 -1.046821,-0.576736 -0.77684,-0.197712 0.141528,1.064746 0.157559,2.14486 0.03617,3.213044 -0.116358,0.697468 0.870011,0.862023 0.98637,0.164555 z" />
    <path
       style="fill:#ff0000;stroke-width:0.264583"
       id="path16731"
       d="m 80.996284,44.078527 c 0.764013,-0.06872 1.535721,-0.263858 2.220068,-0.618593 0.203848,-0.105664 0.407265,-0.218099 0.585507,-0.362836 0.180073,-0.14622 0.320556,-0.335365 0.480833,-0.503047 0.09901,-0.21512 0.239297,-0.415693 0.297029,-0.645359 0.168352,-0.66974 -0.03969,-1.576864 -0.850554,-1.726835 -0.704376,-0.130273 -1.0425,0.261215 -1.556887,0.617408 -0.202936,0.278294 -0.43851,0.535501 -0.608804,0.834882 -0.358121,0.6296 -0.578813,1.358763 -0.659376,2.0764 -0.07036,0.626785 -0.05051,1.390195 0.247095,1.973006 0.135172,0.264715 0.377317,0.459367 0.565978,0.689049 0.287824,0.104656 0.557585,0.298913 0.863478,0.313968 1.361228,0.067 2.657949,-1.370269 3.203268,-2.474513 0.133998,-0.271341 0.205592,-0.569262 0.308388,-0.853893 0.03585,-0.227901 0.0717,-0.455803 0.107555,-0.683704 0.100693,-0.699902 -0.889116,-0.842301 -0.989808,-0.142402 v 0 c -0.02082,0.166106 -0.04166,0.332209 -0.0625,0.498314 -0.07234,0.220128 -0.118819,0.450511 -0.217011,0.660389 -0.240657,0.514374 -0.588949,0.978543 -1.003855,1.364859 -0.228685,0.212929 -0.734881,0.589452 -1.08435,0.665797 -0.126958,0.02774 -0.259342,-0.01709 -0.389012,-0.02564 -0.114988,-0.100589 -0.266575,-0.170635 -0.344966,-0.301768 -0.259517,-0.43412 -0.268343,-1.006745 -0.224229,-1.484627 0.0784,-0.849323 0.387971,-1.62819 0.890664,-2.312022 0.07015,-0.06129 0.436594,-0.388223 0.57368,-0.490812 0.03995,-0.0299 0.07893,-0.09575 0.12637,-0.08027 0.184182,0.06009 0.193509,0.384267 0.179703,0.502851 -0.01429,0.122716 -0.07506,0.23541 -0.112596,0.353118 -0.09137,0.109789 -0.165656,0.236411 -0.274106,0.329364 -0.50491,0.43276 -1.354225,0.687208 -2.001515,0.796401 -0.114509,0.01931 -0.231179,0.0223 -0.346771,0.03345 -0.705022,0.05425 -0.628303,1.051301 0.07672,0.997054 z" />
    <path
       style="fill:#ff0000;stroke-width:0.264583"
       id="path16733"
       d="m 83.340394,37.971502 c -0.05201,-0.03295 -0.105423,-0.0638 -0.156038,-0.09886 -0.04442,-0.03077 -0.09246,-0.05845 -0.128791,-0.09844 -0.0066,-0.0072 0.01923,-0.02484 0.02439,-0.01648 0.0435,0.07075 0.0921,0.144061 0.104527,0.226182 0.01095,0.07238 -0.0803,0.156948 -0.03755,0.216371 0.03981,0.05534 0.135985,0.01 0.203978,0.01497 0.8769,0.01003 1.768086,0.168709 2.641904,0.0186 0.100661,-0.0173 0.197512,-0.0521 0.29627,-0.07815 0.679138,-0.196903 0.400677,-1.157351 -0.278461,-0.960448 v 0 c -0.296841,0.104145 -0.634817,0.09662 -0.944507,0.09587 -0.611237,-0.0016 -1.217443,-0.0796 -1.828919,-0.06937 -0.191849,0.03473 -0.403698,0.01209 -0.575545,0.104188 -0.469178,0.251423 -0.564849,0.50579 -0.416531,0.982308 0.07339,0.23577 0.355957,0.3675 0.540954,0.495591 0.588526,0.391967 1.142852,-0.440333 0.554326,-0.8323 z" />
    <path
       style="fill:#00ff00;stroke-width:0.264583"
       id="path16735"
       d="m 25.651083,37.832588 c -0.120673,0.113297 -0.24437,0.223456 -0.362018,0.339889 -0.620564,0.614148 -1.284567,1.323914 -1.867219,1.947831 -1.83183,1.96156 -3.625839,3.957923 -5.440068,5.93572 -1.091871,1.165543 -1.900533,2.053048 -3.007946,3.155667 -0.290928,0.289669 -0.594718,0.566124 -0.892077,0.849183 -0.512026,0.48768 0.177655,1.211792 0.689681,0.724114 v 0 c 0.306117,-0.291716 0.618732,-0.576762 0.91835,-0.875152 1.115165,-1.110585 1.929899,-2.004612 3.028917,-3.177838 1.810991,-1.974287 3.601896,-3.96702 5.430312,-5.925236 0.602397,-0.645162 1.200849,-1.284771 1.825889,-1.906537 0.102924,-0.102383 0.210876,-0.199586 0.316314,-0.299379 0.543244,-0.452643 -0.09689,-1.220906 -0.640135,-0.768262 z" />
    <path
       style="fill:#00ff00;stroke-width:0.264583"
       id="path16737"
       d="m 15.767612,41.79657 c 0.3233,-0.493863 0.662417,-0.980985 1.060097,-1.418913 0.113363,-0.124833 0.230816,-0.247073 0.360266,-0.355134 0.06449,-0.05383 0.298614,-0.105151 0.217556,-0.127214 -0.09713,-0.02643 -0.18754,0.07324 -0.28131,0.10986 -0.119785,-0.06093 -0.238796,-0.242184 -0.359354,-0.182798 -0.147278,0.07255 -0.122288,0.304887 -0.191095,0.453951 -0.150139,0.325257 -0.44411,0.860988 -0.561344,1.203782 -0.05797,0.169495 -0.142444,0.346089 -0.120069,0.52382 0.02872,0.228113 0.177415,0.424225 0.266122,0.636339 0.90641,0.349877 0.435452,0.265705 1.335418,0.2633 0.175113,-5.29e-4 0.351872,-0.02233 0.525338,0.0016 0.08139,0.01125 0.269047,0.03296 0.224412,0.101934 -0.04878,0.07538 -0.180246,-0.05972 -0.266913,-0.03625 -0.102485,0.02775 -0.175316,0.119822 -0.262973,0.179735 -0.23418,0.190669 -0.455265,0.398655 -0.702539,0.572002 -0.844729,0.592188 -1.897734,1.190374 -2.92416,1.385792 -0.155162,0.02954 -0.315803,0.0078 -0.473704,0.01164 -0.706114,0.03745 -0.653148,1.036048 0.05297,0.998596 v 0 c 0.234147,-0.01691 0.472479,-0.0035 0.702441,-0.05074 0.775695,-0.159219 1.466525,-0.479071 2.156135,-0.864119 0.39234,-0.219064 0.778455,-0.453131 1.137993,-0.722672 0.323172,-0.242279 0.602196,-0.538438 0.903294,-0.807657 0.130969,-0.296529 0.393935,-0.565422 0.392907,-0.889584 -0.0021,-0.649883 -0.462207,-0.811422 -0.937147,-0.878674 -0.183168,-0.02593 -0.370038,-0.0056 -0.554984,-0.0013 -0.452783,0.01045 -0.333866,-0.07843 -0.509632,0.134808 -0.02864,0.05627 -0.07422,0.230854 -0.08592,0.168807 -0.04164,-0.220784 0.261158,-0.796824 0.304027,-0.889148 0.09149,-0.19703 0.588402,-1.14141 0.583316,-1.385607 -0.0063,-0.303072 -0.189113,-0.57603 -0.28367,-0.864047 -0.203829,-0.0046 -0.413542,-0.06268 -0.611488,-0.01386 -0.222135,0.0548 -0.696813,0.563774 -0.805854,0.684688 -0.434655,0.481981 -0.806845,1.016654 -1.158297,1.560724 -0.350915,0.613887 0.517253,1.110158 0.868169,0.496269 z" />
    <path
       style="fill:#00ff00;stroke-width:0.264583"
       id="path16739"
       d="m 15.289407,28.377853 c -0.185627,0.155591 -0.378551,0.302874 -0.556882,0.466778 -0.623841,0.573371 -1.469168,1.45124 -2.047807,2.026148 -1.130381,1.123092 -2.28401,2.216441 -3.4604922,3.290797 -0.5221166,0.476859 0.1522635,1.215242 0.67438,0.738383 v 0 c 1.1882422,-1.085387 2.3535902,-2.189779 3.4953912,-3.324251 0.545691,-0.542189 1.388768,-1.415558 1.982844,-1.966317 0.156697,-0.145272 0.326033,-0.276286 0.48905,-0.41443 0.577783,-0.407636 0.0013,-1.224743 -0.576484,-0.817108 z" />
    <path
       style="fill:#00ff00;stroke-width:0.264583"
       id="path16741"
       d="m 12.383191,29.648285 c 0.356219,-0.780434 0.561484,-1.633485 0.449642,-2.494884 -0.02349,-0.180914 -0.04675,-0.368943 -0.128633,-0.53196 -0.07586,-0.151019 -0.220889,-0.255832 -0.331334,-0.383747 -0.303265,0.187104 -0.697109,0.275405 -0.909795,0.561311 -0.17604,0.236644 -0.118992,0.578369 -0.155716,0.871016 -0.127892,1.019152 -0.119253,2.053511 -0.0148,3.073202 0.07346,0.703281 1.068047,0.599398 0.99459,-0.103883 v 0 c -0.09998,-0.93653 -0.08791,-1.871652 0.0073,-2.809145 0.02183,-0.214995 0.208472,-0.461447 0.08981,-0.642051 -0.114884,-0.174853 -0.406444,-0.09944 -0.609666,-0.149164 -0.01263,-0.05488 -0.05665,-0.217723 -0.03788,-0.164635 0.229265,0.648232 0.125569,1.278142 -0.08088,1.918047 -0.03952,0.122481 -0.09383,0.239681 -0.140748,0.359518 -0.350989,0.613847 0.51712,1.110221 0.86811,0.496375 z" />
    <path
       style="fill:#00ff00;stroke-width:0.264583"
       id="path16745"
       d="M 4.1354896,4.9860818 C 3.7737203,5.6781527 3.3675206,6.353594 3.0549717,7.0705087 2.8411283,7.5610153 2.5906727,8.1411034 2.6847466,8.7024421 2.7272173,8.9558653 2.8903308,9.1734448 2.9931227,9.4089465 3.2278174,9.5624342 3.4399228,9.757852 3.6972062,9.8694093 4.1205605,10.052975 4.6138666,10.043209 5.0617085,10.066207 5.7681806,10.09616 5.8105412,9.097058 5.1040693,9.0671046 v 0 C 4.9446505,9.0622177 4.7846731,9.0666548 4.6258133,9.0524414 4.3670299,9.0293009 4.1206896,8.9748623 3.8677196,8.9240959 3.8064569,8.8636675 3.7072974,8.8256281 3.6839313,8.7428103 3.567326,8.3295193 3.7993412,7.8628347 3.9506839,7.5151434 4.2507407,6.8257996 4.6415967,6.1768701 4.987051,5.5103368 5.357755,4.9081917 4.5061936,4.383937 4.1354896,4.9860821 Z" />
    <path
       style="fill:#00ff00;stroke-width:0.264583"
       id="path16747"
       d="m 5.1965208,8.5811452 c 0.1013976,1.4947298 0.1753828,2.9923078 0.2247609,4.4897428 0.039636,1.201979 0.0514,0.798959 -0.026307,1.721949 -0.021606,0.06292 -0.043214,0.125836 -0.06482,0.188754 -0.1957263,0.679479 0.7652015,0.956277 0.9609278,0.276799 v 0 c 0.033573,-0.128641 0.067145,-0.257281 0.1007168,-0.385922 0.018288,-0.240011 0.051119,-0.479356 0.054862,-0.720035 0.00736,-0.473497 -0.064905,-2.097568 -0.082203,-2.491369 C 6.3447188,11.211713 6.2738301,9.7048144 6.2425603,9.1815731 6.2289316,8.9535319 6.2095607,8.7258704 6.193061,8.4980189 6.134282,7.7933594 5.1377429,7.8764857 5.1965219,8.5811452 Z" />
    <path
       style="fill:#00ff00;stroke-width:0.264583"
       id="path16749"
       d="m 40.649905,6.1884043 c 0.0033,1.6119904 -0.0075,3.2241233 -0.03424,4.8359117 -0.0082,0.494625 -0.01124,0.989491 -0.03272,1.483718 -0.01492,0.343739 -0.05097,0.686235 -0.07645,1.029353 -0.05192,0.705198 0.94538,0.778625 0.997299,0.07343 v 0 c 0.0263,-0.36025 0.06324,-0.719882 0.07891,-1.080752 0.02162,-0.497675 0.02463,-0.995994 0.03289,-1.49407 0.02677,-1.6156801 0.03755,-3.2317056 0.03431,-4.8475877 0,-0.7071069 -1.000001,-0.7071069 -1.000001,0 z" />
    <path
       style="fill:#00ff00;stroke-width:0.264583"
       id="path16751"
       d="m 69.555253,8.2070831 c 0.170905,-0.474417 0.430025,-0.9335101 0.750626,-1.3236321 0.116612,-0.1418971 0.241895,-0.2816979 0.392776,-0.3864256 0.05507,-0.038226 0.261642,-0.050101 0.199586,-0.024736 -0.122716,0.05016 -0.256548,0.066967 -0.38482,0.1004502 -0.04685,0.1110747 -0.09897,0.220069 -0.140542,0.3332241 -0.416189,1.1328607 -0.120888,0.5227606 -0.69433,1.7173022 -0.125084,0.260559 -0.64725,1.2080206 -0.714174,1.5570871 -0.04263,0.222339 0.0122,0.452613 0.01828,0.67892 0.846063,0.866648 0.287356,0.479055 1.371171,0.889285 0.206587,0.07819 0.426331,0.134369 0.612127,0.253835 0.12097,0.07778 0.246303,0.18505 0.285597,0.323395 0.02949,0.103829 -0.05731,0.209787 -0.106926,0.305644 -0.09914,0.191555 -0.224756,0.368207 -0.337133,0.55231 -0.675452,0.719845 -0.962789,1.105487 -1.819605,1.665107 -0.58995,0.385318 -1.171779,0.684888 -1.892337,0.618279 -0.194636,-0.01799 -0.362257,-0.146955 -0.543386,-0.220432 -0.674883,-0.211028 -0.973322,0.743401 -0.298439,0.954429 v 0 c 0.327033,0.08542 0.643239,0.246436 0.981101,0.256256 1.337167,0.03887 2.616079,-0.888579 3.527288,-1.764091 0.344889,-0.331378 0.631547,-0.718462 0.947319,-1.077693 0.144219,-0.351802 0.388374,-0.67778 0.432652,-1.055408 0.0871,-0.742805 -0.229629,-1.126429 -0.795287,-1.482437 -0.209365,-0.131767 -0.453631,-0.19857 -0.686811,-0.281173 -0.521615,-0.184782 -0.369461,-0.212007 -0.683977,-0.05241 -0.164446,-0.384105 -0.129953,-0.178106 0.164833,-0.8195345 0.409239,-0.8904626 0.54624,-0.959382 0.90765,-1.9104993 0.128022,-0.3369112 0.271757,-0.6753738 0.321501,-1.0323391 0.04542,-0.3259669 -0.02678,-0.657688 -0.04017,-0.986532 C 71.069432,5.8419692 70.847505,5.5799878 70.548655,5.5353833 70.344601,5.5049276 70.15295,5.6726216 69.986699,5.7947961 69.48358,6.1645302 68.89901,7.107448 68.687695,7.6868225 c -0.06978,0.1913091 -0.08633,0.3980175 -0.129498,0.5970262 0.05428,0.7050202 1.051333,0.628255 0.997051,-0.076765 z" />
    <path
       style="fill:#ff00ff;stroke-width:0.264583"
       id="path16761"
       d="M 1.6941376,3.7043367 C 2.2396577,3.450032 2.6536872,3.2353533 3.2797257,3.0920594 5.4707247,2.5905624 7.7278427,2.6887148 9.944384,2.9209515 c 0.895273,0.093802 1.78405,0.2416906 2.676075,0.3625356 0.911216,0.1414441 3.389027,0.532938 4.416962,0.6691704 0.4269,0.056577 0.856038,0.094743 1.284057,0.142114 0.702835,0.07761 0.812592,-0.9163478 0.109757,-0.9939583 v 0 C 18.015054,3.0549641 17.597761,3.0182735 17.182691,2.9632656 16.159504,2.8276653 13.651786,2.4317248 12.754348,2.2924909 11.841638,2.1695056 10.932325,2.0179341 10.016217,1.9235348 7.6287785,1.6775241 5.3031159,1.5911848 2.949271,2.1482377 2.1617915,2.3345999 1.7644751,2.5688932 1.094221,2.9042741 0.52849134,3.3284792 1.1284079,4.1285419 1.6941376,3.7043367 Z" />
    <path
       style="fill:#ff00ff;stroke-width:0.264583"
       id="path16763"
       d="M 11.33401,-3.622294 C 11.216699,-3.7314978 11.11063,-3.8541901 10.982076,-3.9499053 10.78819,-4.0942646 10.593899,-4.2472369 10.370535,-4.3396529 9.7203796,-4.6086543 9.1193066,-4.6782537 8.4619652,-4.3066202 7.5162568,-3.771956 7.3916909,-3.1640433 6.9414638,-2.2524001 c -0.03459,0.4413698 -0.1734944,0.886911 -0.1037707,1.3241093 0.2253835,1.41325326 1.474369,2.2674732 2.8747543,1.92316802 1.1904506,-0.2926896 1.2784956,-0.82203118 1.8743166,-1.75191487 0.03284,-0.41903505 0.236058,-0.85992285 0.09852,-1.25710535 -0.38818,-1.1210356 -1.440522,-1.4630884 -2.5246225,-1.2681074 -0.5939303,0.1068213 -1.0921605,0.5136541 -1.6382407,0.7704813 -0.6287003,0.3236293 -0.1710193,1.2127458 0.457681,0.8891165 v 0 c 0.800962,-0.463402 1.1634295,-0.8887051 2.1131522,-0.7441791 0.222202,0.033814 0.481751,0.1262804 0.592506,0.3218584 0.129412,0.2285247 0.02365,0.5247138 0.03547,0.7870708 -0.313802,0.64283815 -0.320008,0.95751496 -1.0418881,1.25332762 -0.7697806,0.31544145 -1.6396245,-0.02375459 -1.8429251,-0.87336791 -0.07377,-0.30829121 0.00728,-0.63394711 0.010917,-0.95092071 0.269612,-0.6223195 0.3671793,-1.0866469 0.9086866,-1.5219709 0.6485628,-0.5213873 1.3335786,-0.085167 1.8253806,0.387019 0.465615,0.5321681 1.218215,-0.1263105 0.7526,-0.6584786 z" />
    <path
       style="fill:#ff00ff;stroke-width:0.264583"
       id="path16765"
       d="m 42.255503,2.191465 c 0.522282,-0.2958927 0.874919,-0.5163003 1.473274,-0.7339066 1.168591,-0.4249861 2.771341,-0.81076273 3.941506,-1.04128376 2.870472,-0.56547866 4.127325,-0.66052008 7.154944,-1.03710948 1.552782,-0.12552854 3.102825,-0.29143134 4.658342,-0.37658566 6.429806,-0.3519897 12.959966,-0.1821407 19.255388,1.29381984 1.206079,0.28276516 2.380207,0.68770648 3.570311,1.03155976 2.307553,0.8660367 2.692918,0.9492929 4.736795,1.9116402 0.394092,0.1855557 0.780288,0.3881739 1.160632,0.6004909 0.141703,0.079103 0.319207,0.4113321 0.403397,0.2725907 0.132943,-0.2190776 -0.07122,-0.5075439 -0.106828,-0.7613158 -0.589457,0.390565 -0.03712,1.2241824 0.552342,0.8336174 v 0 C 89.091978,3.883516 89.256271,3.5701067 89.164722,3.2805833 89.104649,3.0905958 88.839653,3.0486318 88.66561,2.9516096 88.267732,2.7298094 87.863298,2.5190082 87.451029,2.3252668 85.350272,1.3380384 84.957977,1.2544703 82.58626,0.36708664 81.36538,0.01592347 80.160698,-0.39744615 78.923617,-0.6864029 72.540285,-2.1774178 65.921582,-2.3524195 59.402889,-1.9941607 c -1.569841,0.086276 -3.134148,0.2539926 -4.701222,0.380989 -3.060859,0.3815231 -4.351697,0.4800336 -7.258547,1.05558982 -1.282494,0.25393367 -2.874391,0.64286444 -4.132337,1.10669042 -0.647327,0.2386806 -1.030256,0.47892576 -1.595919,0.80110176 -0.594857,0.3822894 -0.05422,1.2235442 0.540639,0.8412547 z" />
    <path
       style="fill:#ff00ff;stroke-width:0.264583"
       id="path16767"
       d="m 61.532137,-6.4372071 c 0.407133,-0.1678826 0.831064,-0.2996488 1.268698,-0.3598847 0.331206,-0.045587 0.800468,-0.047277 1.131065,-0.063165 0.189693,-0.00911 0.379142,-0.022773 0.568714,-0.034159 0.705826,-0.042559 0.645639,-1.040746 -0.06019,-0.9981872 v 0 c -0.181898,0.011012 -0.363677,0.024207 -0.545695,0.033037 -0.455692,0.022109 -0.84192,0.016367 -1.296506,0.083214 -0.487823,0.071735 -0.961975,0.2171864 -1.417362,0.4028713 -0.662046,0.2483881 -0.310772,1.1846607 0.351274,0.9362728 z" />
    <path
       style="fill:#ff00ff;stroke-width:0.264583"
       id="path16769"
       d="m 56.635488,-8.0435333 c 0.0019,-0.037166 -0.0069,-0.076476 0.0057,-0.111498 0.109895,-0.3058025 0.623494,-0.4127545 0.890956,-0.4276953 0.122695,-0.00686 0.245255,0.015947 0.367882,0.023918 0.05161,0.038994 0.153373,0.052313 0.154829,0.1169815 0.0011,0.051736 -0.105829,0.00975 -0.151427,0.034223 -0.06184,0.033187 -0.11748,0.080123 -0.162298,0.1341339 -0.10242,0.1234303 -0.182779,0.2636274 -0.276042,0.3941162 -0.100603,0.1407591 -0.226653,0.2656049 -0.305531,0.4195937 -0.08081,0.1577597 -0.1119,0.3363794 -0.167849,0.5045692 0.14749,0.2487527 0.217321,0.564765 0.442468,0.746258 0.218681,0.1762813 0.529924,0.1891549 0.802426,0.2572616 0.291142,0.072765 1.026729,0.1468207 1.346327,0.2807798 0.03331,0.013962 -0.06362,0.078365 -0.09242,0.056566 -0.11807,-0.089364 -0.189384,-0.2276848 -0.284073,-0.341527 -1.661361,0.7541619 -3.41976,1.259659 -5.158261,1.7994907 -0.675293,0.2097066 -0.378724,1.1647178 0.296572,0.9550112 v 0 c 0.786209,-0.2441692 2.267984,-0.6982701 3.016776,-0.9576181 0.482441,-0.1670958 0.965753,-0.3341333 1.435648,-0.5338083 0.378722,-0.1609328 0.737923,-0.3644037 1.106882,-0.5466053 0.125981,-0.3287086 0.397785,-0.6346613 0.377946,-0.9861254 -0.02304,-0.408282 -0.89232,-0.5312685 -1.095883,-0.5736756 -0.232023,-0.048336 -0.466524,-0.084134 -0.700638,-0.1210247 -0.135173,-0.021299 -0.280685,-0.1061032 -0.407013,-0.053511 -0.09165,0.038154 -0.07974,0.1818317 -0.119605,0.2727479 0.02125,-0.3732483 -0.02638,-0.07932 0.342151,-0.62953 0.133498,-0.1993162 0.29545,-0.3859927 0.382849,-0.6093992 0.09828,-0.2512187 0.205127,-0.5253524 0.165466,-0.79218 -0.09519,-0.6404025 -0.460907,-0.6501227 -0.925465,-0.8264442 -0.521042,4.498e-4 -0.761376,-0.050364 -1.263402,0.1690407 -0.598535,0.2615824 -0.986041,0.6981491 -1.010533,1.3663363 -0.0048,0.1308068 0.04793,0.2573647 0.07189,0.3860469 0.287393,0.6460699 1.201073,0.2396369 0.913683,-0.406433 z" />
    <path
       style="fill:#ff00ff;stroke-width:0.264583"
       id="path16791"
       d="m -2.2803714,7.4846957 c 0.00575,0.1679048 0.016615,0.3357123 0.017261,0.5037145 0.0027,0.7027754 -0.024395,1.2518782 -0.06625,1.9674742 -0.05672,0.9697326 -0.1414104,1.9342976 -0.2515281,2.8991676 -0.0257,0.09564 -0.0514,0.191283 -0.0771,0.286925 -0.1731762,0.685573 0.7963701,0.930481 0.9695462,0.244908 v 0 c 0.033709,-0.139548 0.067418,-0.279096 0.1011269,-0.418643 0.1121851,-0.986473 0.1992096,-1.972624 0.2567874,-2.964053 C -1.28798,9.2715529 -1.258799,8.6756339 -1.263767,7.952166 -1.265067,7.7630167 -1.27815,7.574132 -1.285341,7.385115 -1.355755,6.6815231 -2.3507847,6.7811038 -2.2803704,7.484696 Z" />
    <path
       style="fill:#ff00ff;stroke-width:0.264583"
       id="path16793"
       d="m -3.5736273,11.238371 c 0.8549026,-0.211108 1.7390468,-0.257096 2.61489196,-0.305045 0.70603873,-0.03885 0.65109703,-1.0373395 -0.0549417,-0.99849 v 0 c -0.9904809,0.054765 -1.9963423,0.103093 -2.9536217,0.384284 -0.6500088,0.278368 -0.2563373,1.197619 0.3936714,0.919251 z" />
    <path
       style="fill:#ff00ff;stroke-width:0.264583"
       id="path16795"
       d="m -19.509597,8.7988851 c 0.07403,-0.1815082 0.431618,-0.9046647 0.693931,-0.79297 0.04486,0.019103 0.02777,0.095442 0.05622,0.1350362 0.06209,0.086401 0.141457,0.1589719 0.212186,0.2384581 0.194702,0.300383 0.503,0.6937679 0.292671,1.0736532 -0.05524,0.099775 -0.147065,0.175524 -0.232818,0.2507107 -0.338893,0.2971327 -0.525272,0.3854377 -0.914844,0.6213257 -0.576989,0.323247 -1.02139,0.5743 -0.572245,1.371078 0.11112,0.197125 0.358659,0.276023 0.53875,0.413036 0.734588,0.558872 0.375398,0.228577 1.000097,0.906219 0.06907,0.174989 0.187137,0.337913 0.207215,0.524967 0.03906,0.363862 -0.175554,0.559685 -0.478114,0.691393 -0.951809,0.414332 -1.896559,0.03042 -2.827672,-0.222957 -0.677453,-0.290272 -1.286227,-0.49167 -1.873208,-0.939642 -0.114302,-0.08723 -0.182484,-0.222255 -0.273726,-0.333383 -0.475532,-0.523325 -1.215625,0.14918 -0.740093,0.672504 v 0 c 0.167115,0.173194 0.308778,0.375214 0.501343,0.519581 0.668314,0.501039 1.36478,0.726932 2.132272,1.048299 0.991814,0.251276 1.736144,0.555269 2.782244,0.370787 0.730261,-0.128784 1.403053,-0.56382 1.667429,-1.288587 0.267876,-0.734363 -0.0728,-1.121246 -0.369652,-1.728499 -0.580944,-0.606592 -0.502591,-0.590195 -1.157004,-1.041541 -0.09086,-0.06266 -0.188714,-0.209736 -0.288479,-0.162527 -0.120668,0.0571 -0.09113,0.251662 -0.151501,0.37073 -0.01059,0.02088 -0.01959,-0.05618 -8.47e-4,-0.07022 0.132408,-0.09924 0.285755,-0.166935 0.428633,-0.250402 0.661083,-0.414709 1.386312,-0.820702 1.618649,-1.638354 0.133036,-0.4681831 -0.0038,-0.9405443 -0.227104,-1.3474676 -0.11429,-0.2082843 -0.279333,-0.3843846 -0.418999,-0.5765769 -0.197708,-0.145879 -0.364191,-0.3484205 -0.593122,-0.4376369 -0.926882,-0.3612139 -1.487628,0.312911 -1.850569,1.0480905 -0.05663,0.1147188 -0.09192,0.2387941 -0.137876,0.358191 -0.153234,0.6903038 0.823003,0.9070097 0.976237,0.216706 z" />
    <path
       style="fill:#ff00ff;stroke-width:0.264583"
       id="path16797"
       d="m -13.871875,7.1846235 c -0.09401,-0.073189 -0.172233,-0.173324 -0.282035,-0.2195668 -0.456232,-0.1921412 -0.818661,-0.1818185 -1.243016,0.1579194 -0.537113,0.4300125 -0.853555,1.2473223 -1.015317,1.869856 -0.115208,0.4433728 -0.146872,0.9043442 -0.220307,1.3565159 0.0071,0.472906 -0.03985,0.949727 0.02129,1.418717 0.108772,0.834282 0.423248,1.80461 0.934307,2.492804 0.220321,0.296685 0.484423,0.578863 0.80562,0.761607 0.295756,0.16827 0.648368,0.286149 0.987525,0.258596 0.364535,-0.02961 0.675446,-0.280755 1.01317,-0.421132 0.237218,-0.316446 0.533361,-0.596319 0.711656,-0.949337 0.529879,-1.049145 0.562839,-2.528936 0.147211,-3.620386 -0.143008,-0.3755441 -0.34755,-0.7313219 -0.592403,-1.0499614 -0.230311,-0.2997137 -0.545291,-0.5235861 -0.817937,-0.7853791 -0.31695,-0.151574 -0.609596,-0.3711948 -0.950852,-0.4547214 -0.762078,-0.1865284 -1.322736,-0.030128 -1.885937,0.5247415 -0.234063,0.2306005 -0.344224,0.5597848 -0.516335,0.8396769 -0.342272,0.618749 0.532771,1.1027945 0.875043,0.4840454 v 0 c 0.110877,-0.2445848 0.266052,-0.7318716 0.559951,-0.8705067 0.477596,-0.2252858 0.808048,0.035933 1.239036,0.2108147 0.551374,0.4852231 0.81741,0.6117257 1.114927,1.3256451 0.365449,0.87693 0.339044,1.957344 -4.5e-4,2.83493 -0.08731,0.225682 -0.239609,0.420483 -0.359413,0.630725 -0.118001,0.105952 -0.204198,0.265811 -0.354003,0.317855 -0.45158,0.156887 -0.849406,-0.199806 -1.0981,-0.514575 -0.432917,-0.547939 -0.715926,-1.360243 -0.813221,-2.035809 -0.05916,-0.410807 -0.02197,-0.8298 -0.03296,-1.2447 0.148371,-1.0060106 0.09982,-1.1644788 0.470877,-2.0469113 0.06849,-0.1628707 0.175311,-0.3068172 0.263745,-0.4597771 0.02096,-0.036259 0.08928,-0.2103011 0.179812,-0.2138608 0.03329,-0.0013 0.0602,0.028568 0.09031,0.042851 0.453026,0.5429242 1.220837,-0.097753 0.76781,-0.6406767 z" />
    <path
       style="fill:#ff00ff;stroke-width:0.264583"
       id="path16799"
       d="m -10.016053,7.5753409 c -0.0617,1.1202059 -0.110859,2.2415119 -0.139286,3.3630941 -0.01952,0.770187 -0.0045,1.541349 -0.04023,2.310952 -0.0097,0.208325 -0.03794,0.41537 -0.05691,0.623055 -0.174937,-0.0068 -0.123201,0.02695 -0.0073,-0.185209 -0.707035,0.01005 -0.692821,1.00995 0.01421,0.999899 v 0 c 0.8648731,-0.246419 0.5444011,0.0076 0.9891233,-0.725704 0.020233,-0.231092 0.049864,-0.461553 0.060696,-0.693275 0.035742,-0.76462 0.020476,-1.530808 0.039841,-2.296018 0.027734,-1.0959545 0.076809,-2.1914916 0.1337268,-3.2862679 0.078154,-0.7027746 -0.9157192,-0.8133008 -0.9938731,-0.1105262 z" />
    <path
       style="fill:#ff00ff;stroke-width:0.264583"
       id="path16801"
       d="m -9.6418647,10.95056 c 0.6388832,0.04389 1.2825856,0.203054 1.9262722,0.136785 0.1923158,-0.0198 0.3786841,-0.07815 0.568026,-0.117231 0.6894986,-0.156817 0.4677254,-1.1319157 -0.2217732,-0.9750982 v 0 c -0.1178288,0.030785 -0.2325336,0.078153 -0.3534865,0.092355 -0.6032421,0.07083 -1.2092078,-0.096095 -1.8085597,-0.13069 -0.7027781,-0.07812 -0.8132571,0.915759 -0.1104788,0.993879 z" />
    <path
       style="fill:#ff00ff;stroke-width:0.264583"
       id="path16803"
       d="m -7.5116324,7.0447156 c 0.011131,0.1921891 0.028606,0.3841154 0.033389,0.5765673 0.023085,0.9287737 0.00225,1.4485569 -0.044499,2.4157031 -0.039248,0.811806 -0.1079535,1.893627 -0.1865982,2.715757 -0.027917,0.291833 -0.068559,0.582308 -0.1028391,0.873463 -0.081892,0.429555 0.057179,0.463963 -0.098358,0.418385 -0.3110161,0.635035 0.5870586,1.074878 0.8980747,0.439843 v 0 c 0.1654739,-0.404341 0.085939,-0.161536 0.1934681,-0.741681 0.035484,-0.303348 0.07743,-0.60601 0.1064517,-0.910045 0.079213,-0.829857 0.1499544,-1.940019 0.1891175,-2.758763 0.048494,-1.0138265 0.06859,-1.5367598 0.043494,-2.5107472 -0.00518,-0.2008026 -0.023439,-0.4010543 -0.035159,-0.6015812 -0.05876,-0.7046611 -1.0553015,-0.6215621 -0.9965417,0.083099 z" />
    <path
       style="fill:#ff00ff;stroke-width:0.264583"
       id="path16805"
       d="m -5.1213371,6.1016866 c 0.4059118,-0.1428763 0.825296,-0.214957 1.253269,-0.2382835 0.7057126,-0.044381 0.6429481,-1.0424093 -0.062764,-0.9980284 v 0 c -0.1227908,0.00849 -0.2461675,0.010774 -0.3683722,0.025458 -0.3879586,0.046613 -0.7668369,0.1424564 -1.1381129,0.2620883 -0.6708788,0.2234322 -0.3548981,1.1721976 0.3159801,0.9487656 z" />
    <path
       style="fill:#ff00ff;stroke-width:0.264583"
       id="path16807"
       d="m -28.483102,10.560166 c 0.231447,0.808877 0.370631,1.651465 0.45656,2.488258 0.07281,0.703348 1.067498,0.600373 0.994682,-0.102975 v 0 c -0.04458,-0.427556 -0.107857,-0.848723 -0.182028,-1.272396 -0.07474,-0.426941 -0.132569,-0.794221 -0.254674,-1.208766 -0.04015,-0.136283 -0.09755,-0.266875 -0.146326,-0.400312 -0.350861,-0.6139199 -1.219075,-0.1177288 -0.868214,0.496191 z" />
    <path
       style="fill:#ff00ff;stroke-width:0.264583"
       id="path16809"
       d="m -29.029374,12.379767 c 0.846286,-0.248379 1.705152,-0.461096 2.580676,-0.572929 0.701178,-0.09138 0.571951,-1.082992 -0.129227,-0.991614 v 0 c -0.932254,0.123571 -1.848617,0.341512 -2.749645,0.610038 -0.674936,0.210856 -0.37674,1.165361 0.298196,0.954505 z" />
    <path
       style="fill:#ff00ff;stroke-width:0.264583"
       id="path16813"
       d="m -46.634905,8.1778588 c 0.344893,-0.5779201 0.766342,-1.5137588 1.423956,-1.7905878 0.407993,-0.1717493 0.126254,0.1549074 0.100666,0.1949114 0.09537,0.8385146 0.127619,1.9508332 -0.510876,2.6042855 -0.06983,0.071467 -0.164425,0.113575 -0.246639,0.1703628 -0.443482,0.2717512 -0.673368,0.5788062 -0.431991,1.1560973 0.04973,0.118936 0.733727,0.744684 0.816922,0.848523 0.127667,0.159349 0.220274,0.343868 0.330412,0.515801 0.04742,0.220731 0.136866,0.43649 0.142267,0.662193 0.02799,1.169698 -0.876737,2.399307 -2.044563,2.629487 -0.254323,0.05013 -0.518091,-0.01888 -0.777134,-0.02832 -0.362995,-0.195446 -0.723844,-0.263715 -0.82155,-0.72482 -0.05595,-0.264036 0.248489,-0.46347 0.387689,-0.597043 0.391395,-0.588905 -0.441444,-1.142422 -0.83284,-0.553517 v 0 c -0.153503,0.284293 -0.398568,0.535785 -0.460512,0.85288 -0.1304,0.667501 0.211143,1.26212 0.746442,1.627136 0.295892,0.201767 0.666057,0.263464 0.999085,0.395196 0.393068,-0.02139 0.799407,0.03935 1.179201,-0.06416 1.609069,-0.438542 2.746729,-2.140926 2.592496,-3.786571 -0.03126,-0.33349 -0.185063,-0.643833 -0.277593,-0.96575 -0.425284,-0.623226 -0.372367,-0.636312 -0.881007,-1.091772 -0.05525,-0.04947 -0.116861,-0.15354 -0.184817,-0.123848 -0.08802,0.03846 -0.07114,0.180216 -0.125489,0.259429 -0.0082,0.0119 -0.02424,-0.01568 -0.03636,-0.02352 0.101872,-0.06928 0.203747,-0.138551 0.305623,-0.207826 0.148817,-0.128809 0.318963,-0.2364782 0.446452,-0.386429 0.506717,-0.5959906 0.702218,-1.405674 0.73234,-2.1700751 0.01167,-0.2962315 0.01667,-0.5979467 -0.04298,-0.8883457 -0.05932,-0.2887911 -0.206441,-0.5523206 -0.309663,-0.828481 -0.249163,-0.1470621 -0.463748,-0.3846098 -0.74749,-0.4411861 -0.217673,-0.043403 -0.446913,0.064307 -0.645512,0.1634286 -0.79316,0.3958749 -1.299464,1.4106189 -1.720966,2.1453067 -0.316228,0.6324555 0.578199,1.0796691 0.894426,0.4472136 z" />
    <path
       style="fill:#ff00ff;stroke-width:0.264583"
       id="path16815"
       d="m -42.571511,7.5024617 c 0.0085,0.1853528 0.02778,0.3705256 0.02548,0.5560589 -0.01151,0.9296304 -0.093,1.8947971 -0.198586,2.8132404 -0.126116,1.097063 -0.326324,2.431971 -0.545724,3.520759 -0.08968,0.44503 -0.206812,0.884085 -0.310216,1.326127 -0.339069,0.987028 -0.121161,0.617889 -0.517623,1.177201 -0.385334,0.592888 0.453136,1.137835 0.83847,0.544946 v 0 c 0.505362,-0.82087 0.261122,-0.335039 0.652991,-1.494914 0.107093,-0.460071 0.228198,-0.917103 0.321273,-1.380212 0.223605,-1.112554 0.428668,-2.481879 0.556662,-3.602718 0.09894,-0.866411 0.20447,-2.0610338 0.200893,-2.9653796 -0.0011,-0.2466004 -0.03569,-0.4919118 -0.05353,-0.7378676 -0.171656,-0.6859548 -1.141743,-0.4431962 -0.970087,0.2427589 z" />
    <path
       style="fill:#ff00ff;stroke-width:0.264583"
       id="path16817"
       d="m -42.419859,13.092231 c 1.009877,-0.398653 2.108123,-0.260587 3.165617,-0.320108 0.206658,-0.01163 0.411941,-0.04096 0.617911,-0.06144 0.703437,-0.07196 0.601676,-1.066765 -0.101761,-0.994809 v 0 c -0.178041,0.0188 -0.355373,0.04638 -0.534123,0.05641 -1.193839,0.06695 -2.428862,-0.07192 -3.561035,0.409392 -0.643858,0.29231 -0.23047,1.202864 0.413391,0.910555 z" />
    <path
       style="fill:#ff00ff;stroke-width:0.264583"
       id="path16819"
       d="m -39.086538,7.6990169 c -0.02408,0.3426706 -0.03953,0.6860577 -0.07225,1.0280118 -0.09553,0.998328 -0.255121,2.1778393 -0.399489,3.1613723 -0.111019,0.756354 -0.300249,1.980304 -0.469151,2.764779 -0.05305,0.246422 -0.128087,0.487594 -0.192132,0.731391 -0.03893,0.07727 -0.07785,0.154548 -0.11678,0.231822 -0.298267,0.641121 0.608415,1.062935 0.906683,0.421814 v 0 c 0.05923,-0.133723 0.118469,-0.267446 0.177702,-0.401169 0.0692,-0.266859 0.149651,-0.531049 0.207589,-0.800576 0.170902,-0.795041 0.364188,-2.044041 0.476745,-2.811674 0.145775,-0.994163 0.311549,-2.2191565 0.406453,-3.228807 0.0343,-0.3648914 0.04975,-0.7313094 0.07463,-1.0969641 0,-0.7071066 -1,-0.7071066 -1,0 z" />
    <path
       style="fill:#ff00ff;stroke-width:0.264583"
       id="path16821"
       d="m -37.771331,14.72768 c 0.261638,-0.536504 0.485137,-1.113773 0.857842,-1.587974 0.08675,-0.11038 0.187119,-0.214964 0.306449,-0.288928 0.02944,-0.01825 0.126939,0.02351 0.09616,0.03938 -0.107381,0.05539 -0.233759,0.06126 -0.350642,0.09189 -0.169074,1.450262 -1.138581,2.274556 -2.102347,3.246147 -0.08393,0.111923 -0.216064,0.200512 -0.251783,0.33577 -0.05523,0.209144 -0.10586,0.455851 -0.0083,0.648891 0.224589,0.44416 0.7976,0.529576 1.209807,0.58873 0.558732,0.08018 0.913567,0.05566 1.47818,0.05131 0.91925,-0.113848 0.480454,-0.01314 1.319152,-0.289806 0.66776,-0.232583 0.338838,-1.17694 -0.328923,-0.944358 v 0 c -0.597585,0.224522 -0.266938,0.135365 -1.00032,0.234215 -0.657059,0.0084 -0.648534,0.02675 -1.284896,-0.03444 -0.129792,-0.01248 -0.259948,-0.08027 -0.387522,-0.05331 -0.0506,0.01069 -0.02934,0.0997 -0.052,0.146183 -0.04057,0.0832 -0.194186,0.168699 -0.137052,0.241533 0.05528,0.07047 0.102381,-0.146982 0.15357,-0.220473 0.833202,-0.839966 1.71799,-1.644246 2.136672,-2.78916 0.104806,-0.286603 0.182962,-0.589087 0.197694,-0.893897 0.01347,-0.278548 -0.0763,-0.552503 -0.114449,-0.828754 -0.249179,-0.164381 -0.455776,-0.430009 -0.74754,-0.493141 -0.187254,-0.04052 -0.375192,0.106889 -0.532572,0.216148 -0.6507,0.451742 -1.04091,1.524983 -1.385602,2.212406 -0.262789,0.656461 0.665589,1.028102 0.928378,0.371641 z" />
    <path
       style="fill:#ff00ff;stroke-width:0.264583"
       id="path16823"
       d="m -33.183668,13.441289 c 0.864682,-0.622275 1.794311,-1.458375 1.887408,-2.599953 0.02357,-0.289243 -0.05103,-0.578159 -0.07655,-0.8672379 -0.130952,-0.2668699 -0.218815,-0.5596181 -0.392861,-0.8006099 -0.485447,-0.6721803 -1.375174,-1.1618957 -2.221957,-0.9118573 -0.838214,0.2475079 -0.956718,0.6523828 -1.447615,1.3189056 -0.135059,0.3697028 -0.30938,0.7273445 -0.40518,1.1091085 -0.35967,1.433287 -0.286991,3.234115 0.731586,4.404148 0.206496,0.237203 0.489751,0.394675 0.734626,0.592013 0.316489,0.06151 0.627581,0.202876 0.949468,0.184515 1.671288,-0.09534 2.589696,-2.033279 2.701523,-3.474241 0.03844,-0.495299 -0.05769,-0.991901 -0.08653,-1.487851 -0.159401,-0.462213 -0.247398,-0.9556185 -0.478205,-1.3866377 -0.401447,-0.7496861 -1.018387,-1.4013191 -1.909831,-1.528631 -0.3702,-0.05287 -0.738736,0.1167966 -1.108104,0.1751949 -0.687539,0.1651968 -0.453917,1.1375241 0.233624,0.9723273 v 0 c 0.171439,-0.071544 0.328583,-0.2112952 0.514324,-0.2146302 1.112149,-0.019971 1.478057,1.2440197 1.750721,2.0534717 0.03524,0.403151 0.123793,0.805169 0.105722,1.209453 -0.04117,0.921274 -0.574715,2.421273 -1.601078,2.689034 -0.151334,0.03948 -0.312727,0.0066 -0.469093,0.0099 -0.166341,-0.113124 -0.359077,-0.194867 -0.499023,-0.339371 -0.871709,-0.900108 -0.877242,-2.389515 -0.625552,-3.529267 0.0662,-0.299757 0.191408,-0.583358 0.287113,-0.875037 0.215619,-0.3581288 0.32753,-0.6854031 0.711605,-0.886479 0.450897,-0.2360604 0.954143,0.052413 1.251402,0.3900535 0.117036,0.1329362 0.187391,0.3006053 0.281086,0.4509085 0.03206,0.170088 0.09648,0.337182 0.09619,0.510266 -0.0013,0.878244 -0.813784,1.509002 -1.444712,1.984429 -0.599673,0.374687 -0.06979,1.222755 0.529889,0.848068 z" />
  </g>
</svg>
