<?xml version="1.0" encoding="UTF-8" standalone="no"?>
<!-- Created with Inkscape (http://www.inkscape.org/) -->

<svg
   width="183.95959mm"
   height="53.808979mm"
   viewBox="0 0 183.95959 53.808979"
   version="1.1"
   id="svg23758"
   inkscape:version="1.2.2 (b0a8486541, 2022-12-01)"
   sodipodi:docname="9-çözüm.svg"
   xmlns:inkscape="http://www.inkscape.org/namespaces/inkscape"
   xmlns:sodipodi="http://sodipodi.sourceforge.net/DTD/sodipodi-0.dtd"
   xmlns="http://www.w3.org/2000/svg"
   xmlns:svg="http://www.w3.org/2000/svg">
  <sodipodi:namedview
     id="namedview23760"
     pagecolor="#ffffff"
     bordercolor="#000000"
     borderopacity="0.25"
     inkscape:showpageshadow="2"
     inkscape:pageopacity="0.0"
     inkscape:pagecheckerboard="0"
     inkscape:deskcolor="#d1d1d1"
     inkscape:document-units="mm"
     showgrid="true"
     inkscape:zoom="0.53783866"
     inkscape:cx="216.60771"
     inkscape:cy="427.63754"
     inkscape:window-width="1916"
     inkscape:window-height="1026"
     inkscape:window-x="0"
     inkscape:window-y="0"
     inkscape:window-maximized="1"
     inkscape:current-layer="layer1">
    <inkscape:grid
       type="xygrid"
       id="grid28903"
       spacingx="0.52916667"
       spacingy="0.52916667"
       empspacing="1"
       originx="-17.569806"
       originy="1.3516567" />
  </sodipodi:namedview>
  <defs
     id="defs23755" />
  <g
     inkscape:label="Layer 1"
     inkscape:groupmode="layer"
     id="layer1"
     transform="translate(-17.569806,1.3516567)">
    <text
       xml:space="preserve"
       style="font-size:8.46667px;fill:#ff0000;stroke:#3000ff;stroke-width:0;stroke-linecap:round;stroke-linejoin:round"
       x="17.06131"
       y="11.922509"
       id="text28480"><tspan
         sodipodi:role="line"
         style="font-size:8.46667px;stroke-width:0"
         x="17.06131"
         y="11.922509"
         id="tspan28482">aCu + bHNO₃ → cCu(NO₃)₂ + dNO + eH₂O</tspan></text>
    <path
       style="fill:#0000ff;stroke:#3000ff;stroke-width:0;stroke-linecap:round;stroke-linejoin:round"
       id="path29924"
       d="m 41.111873,19.6808 c 0.114184,-0.61332 0.25522,-1.342947 -0.04812,-1.931333 -0.08706,-0.168866 -0.189241,-0.354616 -0.356519,-0.444691 -0.227443,-0.122474 -0.506063,-0.104031 -0.759097,-0.156047 -0.263493,0.132642 -0.554511,0.220889 -0.79048,0.397924 -1.186791,0.890392 -1.993035,2.856646 -2.148782,4.284826 -0.04502,0.412799 0.0038,0.830483 0.0057,1.245725 0.118687,0.352445 0.157972,0.74259 0.356063,1.057335 0.837856,1.331267 2.591194,1.233315 3.85558,0.690098 0.261453,-0.112329 0.493485,-0.283512 0.740224,-0.425268 0.608121,-0.360817 0.09785,-1.22083 -0.510272,-0.860013 v 0 c -0.180285,0.111613 -0.348401,0.245833 -0.540856,0.334839 -0.426302,0.197156 -0.997059,0.344613 -1.469046,0.348894 -0.393301,0.0036 -0.877279,-0.08185 -1.136187,-0.431256 -0.156126,-0.2107 -0.197075,-0.486046 -0.295611,-0.729069 -0.009,-0.341676 -0.05952,-0.684775 -0.0271,-1.025029 0.104624,-1.097906 0.534715,-2.18508 1.182907,-3.073301 0.219408,-0.300656 0.504163,-0.559211 0.773594,-0.815714 0.01834,-0.06857 0.02442,-0.291784 0.168502,-0.09122 0.2495,0.347339 0.0971,0.960416 0.03805,1.348292 -0.194458,0.679843 0.766985,0.954848 0.961443,0.275005 z" />
    <path
       style="fill:#0000ff;stroke:#3000ff;stroke-width:0;stroke-linecap:round;stroke-linejoin:round"
       id="path29926"
       d="m 42.351031,21.289551 c -0.302906,0.765765 -0.936337,2.328499 -0.09464,2.977366 0.199544,0.15383 0.475443,0.166971 0.713166,0.250456 0.254807,-0.07647 0.527439,-0.108528 0.764418,-0.229421 0.241994,-0.123451 0.44944,-0.308463 0.649732,-0.491995 0.758836,-0.695332 1.199888,-1.596725 1.588837,-2.528191 0.151783,-0.541495 0.512156,-1.197212 -0.771412,-0.984753 -0.171659,0.02841 -0.114559,0.329499 -0.151376,0.499554 -0.100041,0.46209 -0.07658,0.723257 -0.08316,1.206388 0.07063,0.728615 0.189391,1.973744 1.244182,1.882197 0.219413,-0.01904 0.398542,-0.187578 0.597812,-0.281367 0.598668,-0.376294 0.06651,-1.222938 -0.532159,-0.846644 v 0 c -0.01786,0.04269 -0.05877,0.08209 -0.05361,0.128083 0.007,0.06206 0.118576,0.11242 0.08667,0.166107 -0.02715,0.04569 -0.108945,-0.0393 -0.13425,-0.08604 -0.150542,-0.278071 -0.168362,-0.656916 -0.208677,-0.954617 8e-5,-0.179827 -0.01064,-0.359982 2.41e-4,-0.53948 0.0094,-0.15575 0.04916,-0.308555 0.06055,-0.464174 0.003,-0.04085 0.01699,-0.09978 -0.01767,-0.121599 -1.008655,-0.634952 -0.779978,-0.626052 -0.960659,0.01275 -0.147725,0.35776 -0.28864,0.728306 -0.48242,1.064795 -0.360556,0.626082 -0.838306,1.172725 -1.435434,1.581559 -0.03914,0.05307 -0.133763,0.262976 -0.23704,0.04916 -0.245083,-0.5074 0.205677,-1.398201 0.370499,-1.883551 0.287496,-0.646024 -0.626118,-1.052604 -0.913614,-0.406581 z" />
    <path
       style="fill:#0000ff;stroke:#3000ff;stroke-width:0;stroke-linecap:round;stroke-linejoin:round"
       id="path29940"
       d="m 74.311438,18.337682 c 0.384193,2.209757 0.509674,4.457086 0.571465,6.696387 -0.0071,0.137395 -0.0039,0.275708 -0.02127,0.412185 -0.02661,0.209075 -0.554017,-0.293691 0.200279,-0.233048 0.255579,0.02055 0.454287,0.237896 0.681429,0.356844 -0.05393,-0.705047 -1.051015,-0.628781 -0.997088,0.07627 v 0 c 0.230624,0.164474 0.412517,0.446532 0.691875,0.493422 0.422476,0.07091 0.44867,-0.97359 0.4444,-1.133353 -0.064,-2.30281 -0.193847,-4.614071 -0.59489,-6.885612 -0.153379,-0.690272 -1.129569,-0.473364 -0.976193,0.216908 z" />
    <path
       style="fill:#0000ff;stroke:#3000ff;stroke-width:0;stroke-linecap:round;stroke-linejoin:round"
       id="path29942"
       d="m 75.37206,23.182022 c 0.05361,-0.065 0.09426,-0.143342 0.160835,-0.19499 0.666379,-0.517028 1.87992,-0.455735 2.671241,-0.392167 0.705035,0.05407 0.781497,-0.943007 0.07646,-0.997073 v 0 c -1.205248,-0.08865 -2.631903,-0.113099 -3.560625,0.80687 -0.121348,0.120206 -0.189518,0.284225 -0.284279,0.426337 -0.248211,0.662111 0.688158,1.013134 0.936368,0.351023 z" />
    <path
       style="fill:#0000ff;stroke:#3000ff;stroke-width:0;stroke-linecap:round;stroke-linejoin:round"
       id="path29944"
       d="m 78.206184,17.513015 c 0.07886,2.33485 0.314772,4.663185 0.65709,6.973339 0.568124,-0.779798 -0.110858,1.226849 0.193865,1.045692 0.996167,-0.592221 -0.343072,-0.722286 0.850863,-0.45215 -0.265234,-0.655477 -1.192218,-0.280378 -0.926983,0.375099 v 0 c 0.220871,0.158372 0.392303,0.503362 0.662614,0.475116 0.57843,-0.06044 0.383273,-0.643896 0.33346,-0.911663 -0.04208,-0.226196 -0.0831,-0.452588 -0.124653,-0.678882 -0.336098,-2.261491 -0.565801,-4.540934 -0.646256,-6.826551 0,-0.707107 -1,-0.707107 -1,0 z" />
    <path
       style="fill:#0000ff;stroke:#3000ff;stroke-width:0;stroke-linecap:round;stroke-linejoin:round"
       id="path29946"
       d="m 108.60869,24.550969 c 0.8967,-1.618466 1.10107,-3.501253 1.36963,-5.302572 0.0343,-0.145641 0.25146,-0.418064 0.10302,-0.436922 -1.10344,-0.140178 -0.66558,1.246051 -0.60013,1.658898 0.19872,1.25339 0.17516,1.062804 0.44123,2.273713 0.10268,0.2659 0.14909,0.561104 0.30806,0.797701 0.40547,0.60349 0.90569,0.638555 1.49837,0.04779 0.27165,-0.27077 0.34908,-0.68532 0.47907,-1.046171 0.27624,-0.766886 0.45695,-1.742427 0.62664,-2.537223 0.33904,-0.333989 0.0352,-0.946526 0.28431,-1.324045 0.25871,-0.658082 -0.67196,-1.023947 -0.93067,-0.365866 v 0 c -0.17021,0.478408 -0.21067,0.990732 -0.33175,1.481812 -0.23979,1.131266 -0.24309,1.262354 -0.57327,2.364704 -0.0705,0.235446 -0.24053,0.451867 -0.23868,0.69764 10e-4,0.124555 0.20287,0.164395 0.24605,0.281228 0.0155,0.04191 -0.0866,0.022 -0.12991,0.033 -0.0872,-0.215224 -0.17442,-0.430448 -0.26163,-0.645672 -0.26031,-1.178779 -0.2322,-0.97068 -0.42824,-2.202605 -0.0281,-0.176602 -0.19508,-1.779831 -0.46058,-1.936121 -0.90075,-0.530247 -0.9342,0.331581 -1.02096,0.710698 -0.22409,1.503341 -0.39234,3.060521 -0.99377,4.472326 -0.0622,0.146018 -0.14585,0.281939 -0.21878,0.422909 -0.39229,0.588309 0.4397,1.143092 0.83199,0.554783 z" />
    <path
       style="fill:#0000ff;stroke:#3000ff;stroke-width:0;stroke-linecap:round;stroke-linejoin:round"
       id="path29950"
       d="m 34.392571,30.556403 c 0.452852,-0.696357 0.809603,-1.60982 0.500509,-2.441945 -0.063,-0.169619 -0.181213,-0.313248 -0.271822,-0.469874 -0.175601,-0.100507 -0.327567,-0.266287 -0.526807,-0.301521 -1.022289,-0.18079 -1.841307,1.009755 -2.178653,1.795621 -0.101145,0.235617 -0.156676,0.488296 -0.235013,0.732446 -0.02228,0.247076 -0.07678,0.49335 -0.06681,0.741227 0.02945,0.732166 0.39366,1.440053 1.145929,1.662568 0.684432,0.202449 0.96611,-0.01093 1.598093,-0.231558 0.240898,-0.179078 0.502352,-0.333399 0.722699,-0.537231 0.724644,-0.670335 1.424702,-1.782464 1.527395,-2.784237 -0.347917,-0.0041 -0.730655,-0.164002 -1.043752,-0.01225 -0.175575,0.08511 -0.08913,0.380539 -0.115044,0.573926 -0.08177,0.610246 -0.101624,1.519227 0.308205,2.03622 0.158446,0.199874 0.404771,0.310452 0.607156,0.46568 0.252269,0.02246 0.50478,0.09242 0.756809,0.0674 0.428201,-0.04251 0.8495,-0.284096 1.173331,-0.551045 0.124685,-0.102785 0.220679,-0.236106 0.331018,-0.35416 0.468762,-0.529397 -0.279921,-1.192327 -0.748684,-0.66293 v 0 c -0.2834,0.354685 -0.552987,0.53041 -0.997823,0.64334 -0.07124,-0.009 -0.161837,0.0226 -0.213712,-0.02705 -0.339288,-0.324752 -0.272494,-1.03547 -0.23214,-1.440164 0.01233,-0.123536 0.145047,-0.283244 0.05471,-0.368408 -0.235219,-0.221758 -0.586224,-0.272682 -0.879337,-0.409025 0.140195,5.29e-4 0.05046,-0.0049 -0.08838,0.362265 -0.06997,0.18505 -0.144732,0.369242 -0.238167,0.543626 -0.319016,0.595395 -0.740905,1.127117 -1.290794,1.523614 -0.274219,0.130278 -0.475903,0.275974 -0.786905,0.266287 -0.635318,-0.01979 -0.620662,-0.764331 -0.568368,-1.212911 0.150294,-0.512077 0.153723,-0.648404 0.441431,-1.112858 0.35287,-0.569651 0.224073,-0.270029 0.586531,-0.658681 0.05278,-0.05659 0.06587,-0.142724 0.124889,-0.195707 0.04234,0.04291 0.100227,0.07473 0.127032,0.128725 0.268856,0.541645 -0.05069,1.191641 -0.337331,1.647447 -0.410935,0.57544 0.40286,1.156594 0.813798,0.581152 z" />
    <path
       style="fill:#0000ff;stroke:#3000ff;stroke-width:0;stroke-linecap:round;stroke-linejoin:round"
       id="path29952"
       d="m 40.534259,28.633041 c 0.616172,-0.252108 1.267661,-0.405453 1.909651,-0.575741 0.683456,-0.181351 0.426987,-1.147903 -0.256468,-0.966552 v 0 c -0.778331,0.2066 -1.586775,0.372494 -2.293319,0.774031 -0.543242,0.452643 0.09689,1.220906 0.640136,0.768262 z" />
    <path
       style="fill:#0000ff;stroke:#3000ff;stroke-width:0;stroke-linecap:round;stroke-linejoin:round"
       id="path29954"
       d="m 39.84675,30.423754 c 1.29885,7.5e-5 2.596946,-0.06588 3.894859,-0.111148 0.706679,-0.02463 0.671822,-1.024038 -0.03486,-0.999392 v 0 c -1.286301,0.04486 -2.572782,0.110418 -3.860003,0.110543 -0.707107,0 -0.707107,0.999997 0,0.999997 z" />
    <path
       style="fill:#0000ff;stroke:#3000ff;stroke-width:0;stroke-linecap:round;stroke-linejoin:round"
       id="path29956"
       d="m 47.895861,28.784812 c 0.456727,-0.374455 1.036632,-1.136542 0.329356,-1.659605 -0.476747,-0.352578 -0.908208,-0.106256 -1.370713,0.03019 -0.212963,0.149322 -0.452488,0.266573 -0.638892,0.447971 -0.853133,0.830223 -1.289413,2.319171 -0.482751,3.342336 0.208063,0.263908 0.527254,0.416837 0.790879,0.625255 0.338754,0.08754 0.6678,0.231114 1.016259,0.262615 1.007407,0.09107 2.048913,-0.282213 2.872664,-0.837332 0.184009,-0.124005 0.365529,-0.260962 0.505486,-0.433152 0.107365,-0.132094 0.147225,-0.306967 0.220837,-0.460452 0.214672,-0.673732 -0.738132,-0.977323 -0.952801,-0.303591 v 0 c 0.206623,0.04508 0.170426,0.01733 -0.26901,0.328578 -0.623377,0.441537 -1.390949,0.735312 -2.162969,0.72916 -0.221221,-0.0019 -0.436994,-0.06933 -0.655489,-0.103997 -0.36422,-0.202967 -0.619461,-0.248986 -0.75674,-0.689769 -0.178012,-0.571574 0.09512,-1.233643 0.470894,-1.657604 0.107286,-0.121044 0.250312,-0.204925 0.375468,-0.307387 0.557858,-0.274828 0.188188,-0.10789 0.364252,-0.499896 0.0081,-0.01802 0.06314,-0.0045 0.0575,0.01442 -0.04213,0.141568 -0.197755,0.264329 -0.295082,0.358256 -0.575593,0.410723 0.0053,1.224732 0.58085,0.814009 z" />
    <path
       style="fill:#0000ff;stroke:#3000ff;stroke-width:0;stroke-linecap:round;stroke-linejoin:round"
       id="path29958"
       d="m 68.866922,26.364877 c -0.238879,0.0942 0.227717,-0.548758 0.07238,-0.491428 -0.08391,0.03097 -0.0281,0.211988 -0.111612,0.244018 -0.196871,0.07551 -0.469109,-0.09391 -0.631243,0.0409 -0.117613,0.09779 0.02871,0.304854 0.03148,0.457784 0.0045,0.246845 -0.0065,0.493725 -0.0098,0.740586 -0.05477,0.642358 -0.0664,0.898374 -0.15661,1.520881 -0.0208,0.143504 -0.07243,0.283136 -0.07749,0.428051 -0.0042,0.12052 -0.05808,0.304853 0.05002,0.358306 0.77886,0.385125 0.829422,0.229841 1.292305,-0.104195 0.236937,-0.07395 0.404916,-0.173652 0.657664,-0.07888 0.355145,0.133168 0.545539,0.696193 0.569711,1.020699 0.01291,0.173157 -0.0375,0.345244 -0.05625,0.517866 -0.0871,0.120135 -0.149288,0.263081 -0.261302,0.3604 -0.396499,0.344487 -0.980017,0.35682 -1.455632,0.21948 -0.43098,-0.12445 -0.404923,-0.05337 -0.370744,-0.287277 0.272364,0.368467 0.0935,0.305681 0.538662,0.18238 0.632539,-0.316058 0.185566,-1.210604 -0.446974,-0.894546 v 0 c -0.972746,0.5866 -0.663638,0.160539 -0.904869,1.294178 0.141014,0.1523 0.249134,0.343609 0.423047,0.456901 0.193778,0.126235 0.423535,0.196075 0.650153,0.242216 0.874366,0.178027 1.846297,0.0076 2.439672,-0.726176 0.186587,-0.230719 0.257956,-0.534456 0.386935,-0.801682 0.0026,-0.291597 0.05721,-0.587417 0.0077,-0.874795 -0.139004,-0.806865 -0.688289,-1.553665 -1.527288,-1.709618 -0.514446,-0.09563 -0.785726,0.08664 -1.235827,0.268065 -0.107315,0.07751 -0.370946,0.109554 -0.32195,0.232535 0.08665,0.217479 0.402127,0.245342 0.575162,0.403024 0.02487,0.02265 -0.03104,0.130757 -0.02588,0.09752 0.109214,-0.702738 0.228332,-1.404408 0.249756,-2.117926 5.29e-4,-0.176091 0.04958,-1.429751 -0.118441,-1.634959 -0.550199,-0.671998 -0.874911,-0.589794 -1.140032,-0.05638 -0.06353,0.127824 -0.08257,0.558161 -0.09271,0.692066 0,0.707106 1.000001,0.707106 1.000001,0 z" />
    <path
       style="fill:#0000ff;stroke:#3000ff;stroke-width:0;stroke-linecap:round;stroke-linejoin:round"
       id="path29960"
       d="m 72.800861,28.988921 c 0.840447,-0.213323 1.711762,-0.192127 2.570353,-0.264343 0.704586,-0.05966 0.62021,-1.056094 -0.08438,-0.996434 v 0 c -0.967873,0.08254 -1.955576,0.04896 -2.891931,0.346885 -0.646221,0.287052 -0.240265,1.200946 0.405953,0.913892 z" />
    <path
       style="fill:#0000ff;stroke:#3000ff;stroke-width:0;stroke-linecap:round;stroke-linejoin:round"
       id="path29962"
       d="m 73.481512,30.361553 c 0.843823,-0.186817 1.701779,-0.298863 2.551801,-0.4528 0.695748,-0.126227 0.517236,-1.110165 -0.178512,-0.983938 v 0 c -0.862653,0.156808 -1.733695,0.269402 -2.589906,0.460481 -0.690319,0.15317 -0.473702,1.129427 0.216617,0.976257 z" />
    <path
       style="fill:#0000ff;stroke:#3000ff;stroke-width:0;stroke-linecap:round;stroke-linejoin:round"
       id="path29964"
       d="m 79.494933,29.498808 c 0.199351,-0.480661 0.358495,-1.097008 0.79906,-1.425499 0.233683,-0.174238 0.217014,-0.112199 0.276747,0.03123 -0.02371,0.04997 -0.06223,0.09531 -0.07108,0.149899 -0.09984,0.61562 0.147511,0.195496 -0.182168,0.96369 -0.340778,0.794049 -0.940834,1.362728 -1.549657,1.949259 -0.512759,0.383355 -0.470598,0.402976 -0.982646,0.63182 -0.07281,0.03254 -0.292619,0.03322 -0.226335,0.07758 0.1564,0.104661 0.410419,0.0086 0.547595,0.137398 0.524301,0.492426 -0.309537,0.677023 0.513865,0.350626 1.441514,-0.493409 2.941545,-0.09132 4.401611,0.08894 0.185785,0.0089 0.371573,0.01775 0.557358,0.02663 0.706387,0.03185 0.751438,-0.967131 0.04505,-0.998984 v 0 c -0.16007,-0.0067 -0.32014,-0.01344 -0.480211,-0.02016 -1.657201,-0.203428 -3.298311,-0.619808 -4.928163,-0.01103 -0.442082,0.208344 -1.126315,0.361437 -0.922785,1.145853 0.05408,0.208425 0.392758,0.200453 0.607137,0.22062 0.123179,0.01159 0.235577,-0.07777 0.34734,-0.130834 0.634537,-0.301265 0.611706,-0.339122 1.217131,-0.801336 0.234029,-0.229192 0.483785,-0.443357 0.702085,-0.687578 0.65769,-0.735777 1.298387,-1.655561 1.311023,-2.690828 0.0035,-0.283072 -0.03159,-0.583306 -0.164676,-0.83316 -0.125071,-0.234796 -0.382884,-0.369445 -0.574326,-0.554169 -0.223247,-0.0043 -0.453123,-0.06721 -0.669742,-0.01304 -0.818515,0.204679 -1.28423,1.409184 -1.535653,2.118063 -0.194458,0.679842 0.766985,0.954847 0.961443,0.275006 z" />
    <path
       style="fill:#0000ff;stroke:#3000ff;stroke-width:0;stroke-linecap:round;stroke-linejoin:round"
       id="path29966"
       d="m 84.172941,30.368953 c 0.634566,-0.290816 1.364581,-0.250407 2.000512,-0.543822 0.155951,-0.07195 0.294039,-0.177575 0.441058,-0.266361 0.253362,-0.327951 0.573357,-0.564838 0.292192,-1.072449 -0.291756,-0.526727 -0.90365,-0.560805 -1.403305,-0.447931 -0.717134,0.161999 -0.897898,0.465275 -1.40825,0.9467 -0.142388,0.253542 -0.330136,0.486505 -0.427167,0.760629 -0.316129,0.893101 -0.139147,1.840588 0.808067,2.263476 0.669859,0.299064 1.286277,0.124841 1.961584,0.03684 1.080066,-0.345642 0.579236,-0.143333 1.510159,-0.587563 0.636326,-0.30837 0.200226,-1.208268 -0.436099,-0.899898 v 0 c -0.754513,0.372517 -0.350068,0.201903 -1.219068,0.49803 -0.303813,0.05118 -1.297255,0.277019 -1.599478,0.01413 -0.414887,-0.360881 -0.08821,-1.024827 0.109929,-1.379374 0.37582,-0.414586 0.308015,-0.424016 0.797357,-0.657704 0.09177,-0.04383 0.207282,-0.036 0.289779,-0.09548 0.398016,-0.286943 -0.368361,-0.03347 0.194797,-0.323302 0.03089,-0.0159 -0.0083,0.06898 -0.01243,0.103465 -0.07305,0.05312 -0.137795,0.12011 -0.219136,0.159369 -0.704271,0.339916 -1.561195,0.229844 -2.234809,0.658929 -0.588525,0.391967 -0.0342,1.224267 0.554324,0.8323 z" />
    <path
       style="fill:#0000ff;stroke:#3000ff;stroke-width:0;stroke-linecap:round;stroke-linejoin:round"
       id="path29974"
       d="m 99.543752,25.442267 c 0.03371,0.152145 0.09124,0.300913 0.101116,0.456433 0.0342,0.538637 -0.07084,1.516721 -0.13612,2.001723 -0.143785,1.068229 -0.376306,2.118125 -0.62888,3.164605 -0.05209,0.140642 -0.104188,0.281286 -0.156282,0.421928 -0.01209,-0.0091 -0.05044,-0.02199 -0.03627,-0.02726 0.162695,-0.06058 0.326515,-0.142795 0.500105,-0.145449 0.07833,-0.0013 0.117126,0.113475 0.192495,0.134863 0.02511,0.0071 0.01841,-0.04963 0.03399,-0.07059 0.02845,-0.03828 0.06452,-0.07025 0.09678,-0.105367 0.600914,-0.665197 1.424874,-1.259385 2.361604,-1.258859 0.17754,1.01e-4 0.35142,0.05075 0.52713,0.07612 0.14252,0.07684 0.30012,0.130625 0.42755,0.230513 0.48776,0.382355 0.93046,1.263108 0.52945,1.850694 -0.0783,0.114697 -0.21475,0.176107 -0.32212,0.26416 -0.89874,0.295193 -1.82645,0.11457 -2.73238,-0.03606 -0.743083,-0.123555 -0.418823,-0.06807 -0.302713,-0.04813 -0.661186,-0.250663 -1.01568,0.684395 -0.354491,0.935059 v 0 c 0.338851,0.102441 0.895044,0.179586 1.208164,0.217988 0.62212,0.0763 1.35291,0.15617 1.97383,0.0033 0.33325,-0.08205 0.63234,-0.26703 0.94851,-0.400544 0.18448,-0.233934 0.42879,-0.43121 0.55345,-0.7018 0.48848,-1.060349 -0.1659,-2.39803 -1.07634,-2.989667 -0.22589,-0.146788 -0.49493,-0.21291 -0.74239,-0.319365 -0.26363,-0.02347 -0.52647,-0.08223 -0.79088,-0.07043 -1.0262,0.0458 -2.012466,0.603824 -2.717052,1.326911 -0.137123,0.140722 -0.250671,0.302628 -0.376004,0.453943 -0.06902,0.157073 -0.164873,0.304917 -0.207055,0.471218 -0.06438,0.253825 -0.01225,0.765157 0.26475,0.899938 0.776269,0.377693 1.003869,-0.376825 1.168334,-0.878816 0.262417,-1.090618 0.505307,-2.185014 0.651677,-3.298666 0.0926,-0.704739 0.1845,-1.614241 0.11348,-2.335514 -0.0212,-0.215257 -0.10641,-0.419302 -0.15962,-0.628952 -0.28716,-0.646174 -1.200982,-0.240072 -0.913825,0.406101 z" />
    <path
       style="fill:#0000ff;stroke:#3000ff;stroke-width:0;stroke-linecap:round;stroke-linejoin:round"
       id="path29976"
       d="m 106.20976,28.815622 c 0.47029,-0.09232 0.9454,-0.09427 1.42167,-0.08127 0.70692,0.01627 0.72992,-0.983475 0.023,-0.999736 v 0 c -0.54391,-0.01056 -1.08681,-0.0086 -1.62368,0.09716 -0.69568,0.12658 -0.51667,1.110428 0.17901,0.983848 z" />
    <path
       style="fill:#0000ff;stroke:#3000ff;stroke-width:0;stroke-linecap:round;stroke-linejoin:round"
       id="path29978"
       d="m 106.50776,30.553059 c 0.52891,-0.0066 1.04997,-0.09095 1.57011,-0.177139 0.69742,-0.116604 0.53252,-1.102915 -0.16491,-0.986308 v 0 c -0.46545,0.0786 -0.93174,0.155258 -1.4052,0.163446 -0.70711,0 -0.70711,1.000001 0,1.000001 z" />
    <path
       style="fill:#0000ff;stroke:#3000ff;stroke-width:0;stroke-linecap:round;stroke-linejoin:round"
       id="path29980"
       d="m 111.80745,29.092871 c 0.42681,-0.507156 0.8798,-1.092496 1.40987,-1.494422 0.28745,-0.217964 0.24036,-0.241321 0.33393,-0.0858 -0.0586,0.02516 -0.13871,0.02357 -0.17569,0.0755 -0.0503,0.07062 -0.034,0.170265 -0.0585,0.253402 -0.0541,0.183211 -0.0975,0.371467 -0.1774,0.544981 -0.23657,0.51354 -0.6177,1.065477 -0.98392,1.487569 -0.20423,0.23539 -0.44034,0.441109 -0.6605,0.661663 -0.48398,0.412509 -0.9912,0.810019 -1.62727,0.942869 -0.0879,0.01836 -0.17881,0.02135 -0.26853,0.01947 -0.0124,-2.62e-4 -0.0303,-0.03766 -0.027,-0.02569 0.0809,0.292195 0.17408,0.580856 0.26112,0.871283 1.38705,-0.08147 2.77431,0.0275 4.15407,0.16391 0.36725,0.02209 0.61255,0.06646 0.97011,-0.01561 0.12529,-0.02875 0.2405,-0.09084 0.36075,-0.136265 0.6473,-0.284613 0.2448,-1.200031 -0.4025,-0.915419 v 0 c -0.23846,0.167492 -0.56308,0.08516 -0.83009,0.07213 -0.82085,-0.08097 -1.63806,-0.151132 -2.46289,-0.178702 -0.47006,-0.01572 -1.18778,-0.0415 -1.67183,0.01265 -0.20103,0.02249 -0.39675,0.07913 -0.59513,0.118692 0.0132,0.330539 -0.0678,0.678783 0.0397,0.991613 0.0342,0.09941 0.2083,0.03892 0.31336,0.03539 0.15631,-0.0052 0.31345,-0.02349 0.46516,-0.06151 0.78712,-0.197191 1.43242,-0.661877 2.03224,-1.191932 0.25022,-0.255503 0.51902,-0.494057 0.75067,-0.766511 0.41848,-0.492197 0.91522,-1.215906 1.14859,-1.827626 0.1762,-0.461862 0.34507,-1.196305 0.0528,-1.678299 -0.12941,-0.213421 -0.39723,-0.302311 -0.59584,-0.453464 -0.18784,0.02193 -0.38453,0.0048 -0.56352,0.06584 -0.30662,0.104577 -0.68161,0.475541 -0.8977,0.686758 -0.42146,0.411962 -0.81735,0.852464 -1.16211,1.330997 -0.35111,0.613773 0.51689,1.110329 0.86801,0.496557 z" />
    <path
       style="fill:#0000ff;stroke:#3000ff;stroke-width:0;stroke-linecap:round;stroke-linejoin:round"
       id="path29982"
       d="m 117.8785,28.982095 c 0.0173,-0.09289 0.0673,-0.185427 0.0519,-0.278659 -0.0847,-0.514424 -0.25275,-0.791054 -0.9083,-0.681844 -0.25479,0.04245 -0.46034,0.240723 -0.66365,0.400042 -0.53081,0.415957 -0.69705,0.739756 -1.08296,1.286806 -0.21578,0.553638 -0.5032,0.994294 -0.29538,1.622833 0.23598,0.713663 0.74256,0.972089 1.45026,1.08622 0.71052,0.114586 1.46264,-0.09891 2.14577,-0.234717 1.21523,-0.391769 0.65199,-0.162928 1.69845,-0.664636 0.63586,-0.309338 0.19839,-1.208569 -0.43747,-0.899231 v 0 c -0.8833,0.43725 -0.39966,0.233878 -1.46156,0.584192 -0.75411,0.159652 -0.93584,0.239709 -1.67703,0.25102 -0.13803,0.0021 -0.60411,0.0029 -0.72091,-0.193423 -0.20096,-0.337738 0.0146,-0.671896 0.12004,-0.983012 0.48313,-0.714399 0.2533,-0.446122 0.83495,-1.037307 0.0765,-0.07779 0.2334,-0.120118 0.23369,-0.229238 2.7e-4,-0.111476 -0.18598,-0.13912 -0.23241,-0.240466 -0.0335,-0.07316 0.0324,-0.163364 0.0117,-0.241155 -0.0154,-0.05795 -0.0191,0.11838 -0.0286,0.17757 -0.19446,0.679844 0.76698,0.954847 0.96144,0.275005 z" />
    <path
       style="fill:#0000ff;stroke:#3000ff;stroke-width:0;stroke-linecap:round;stroke-linejoin:round"
       id="path29984"
       d="m 121.50027,28.314517 c 0.0271,0.58814 -0.0487,1.184725 0.026,1.770838 0.0141,0.110874 0.0217,0.227079 0.0698,0.327972 0.0605,0.126939 0.16595,0.227074 0.24893,0.340609 0.53659,0.460502 1.18784,-0.29836 0.65124,-0.758865 v 0 c 0.0245,0.06334 0.0243,0.143177 0.0734,0.190008 0.0409,0.03897 -0.038,-0.107294 -0.0454,-0.163303 -0.0158,-0.119232 -0.0205,-0.239803 -0.0239,-0.360029 -0.0128,-0.448713 0.009,-0.89842 0,-1.34723 0,-0.707107 -1,-0.707107 -1,0 z" />
    <path
       style="fill:#0000ff;stroke:#3000ff;stroke-width:0;stroke-linecap:round;stroke-linejoin:round"
       id="path29986"
       d="m 120.19927,30.056941 c 0.99484,0.07402 2.00162,0.07561 2.98719,-0.08726 0.69699,-0.119198 0.52842,-1.104887 -0.16857,-0.985689 v 0 c -0.88674,0.158189 -1.79839,0.134461 -2.69452,0.08068 -0.70165,-0.08775 -0.82574,0.904523 -0.1241,0.992272 z" />
    <path
       style="fill:#0000ff;stroke:#3000ff;stroke-width:0;stroke-linecap:round;stroke-linejoin:round"
       id="path29988"
       d="m 128.28113,30.464043 c 0.10163,-0.0934 0.21806,-0.172911 0.30491,-0.280202 0.53189,-0.657122 0.78261,-1.562095 0.47726,-2.377191 -0.0751,-0.200547 -0.21362,-0.37124 -0.32043,-0.556861 -0.17694,-0.131686 -0.32686,-0.311113 -0.53082,-0.39506 -1.02661,-0.422521 -2.07862,0.400246 -2.68385,1.146834 -0.16852,0.207886 -0.29438,0.446992 -0.44158,0.670488 -0.0827,0.233122 -0.20296,0.456155 -0.24799,0.699366 -0.13301,0.718245 0.11785,1.433898 0.73725,1.84854 0.52553,0.351798 0.80572,0.294238 1.41062,0.342339 0.74594,-0.13444 0.85695,-0.08622 1.5292,-0.491379 0.22071,-0.133022 0.40838,-0.314415 0.61257,-0.471625 0.55386,-0.439592 -0.0678,-1.222864 -0.62167,-0.78327 v 0 c -0.4984,0.412391 -0.80173,0.662649 -1.47202,0.74743 -0.32045,0.0013 -0.49964,0.04094 -0.79263,-0.08939 -0.59185,-0.263266 -0.49353,-0.753496 -0.31378,-1.261827 0.10712,-0.172694 0.19758,-0.356904 0.32136,-0.518078 0.24475,-0.318701 0.54018,-0.585309 0.87829,-0.800505 0.0993,-0.06321 0.39435,-0.208793 0.54716,-0.195387 0.0786,0.0069 0.14756,0.05589 0.22135,0.08384 0.0654,0.08828 0.14605,0.167105 0.19627,0.264837 0.22633,0.440457 0.0931,1.022146 -0.19112,1.407938 -0.0555,0.07532 -0.13434,0.130244 -0.20151,0.195366 -0.57543,0.410937 0.006,1.224732 0.58116,0.813795 z" />
    <path
       style="fill:#0000ff;stroke:#3000ff;stroke-width:0;stroke-linecap:round;stroke-linejoin:round"
       id="path29990"
       d="m 129.53589,24.286673 c -0.1097,0.247119 -0.23531,0.487772 -0.32909,0.741357 -0.58148,1.572212 -0.86902,3.300653 -0.79648,4.977498 0.0138,0.319836 0.0733,0.636058 0.11,0.954087 0.54433,-0.397515 -0.0774,0.785143 0.19526,0.794967 0.33295,0.01199 0.65602,-0.116813 0.98404,-0.175223 0.0892,-0.701455 -0.90279,-0.827627 -0.99201,-0.126172 v 0 c 1.2287,7.94e-4 1.02928,0.305218 0.91752,-0.133858 -0.0404,-0.158789 -0.0746,-0.319095 -0.11191,-0.478641 -0.0343,-0.274627 -0.0897,-0.547434 -0.10296,-0.823876 -0.0846,-1.762135 0.26523,-3.619282 0.98932,-5.226111 0.3564,-0.610719 -0.50729,-1.114747 -0.86369,-0.504028 z" />
    <path
       style="fill:#0000ff;stroke:#3000ff;stroke-width:0;stroke-linecap:round;stroke-linejoin:round"
       id="path29992"
       d="m 36.370585,37.894741 c 0.456012,-1.228722 0.858769,-2.475132 1.201192,-3.740192 0.176086,-0.650544 0.149167,-0.435586 0.177377,-0.835523 -0.372052,0.13316 -0.840242,0.116586 -1.116161,0.399474 -0.220077,0.225636 -0.127068,0.617593 -0.179059,0.928467 -0.113289,0.677426 -0.211262,1.470062 -0.285718,2.155262 -0.128276,1.180441 -0.01302,0.450196 -0.168389,1.33224 -0.02773,0.0673 -0.05546,0.13461 -0.0832,0.201915 -0.244572,0.663461 0.693706,1.00934 0.938279,0.345879 v 0 c 0.04341,-0.125691 0.08683,-0.251381 0.130236,-0.377069 0.196374,-1.150024 0.260316,-2.317379 0.450898,-3.469912 0.04796,-0.29006 0.288144,-0.599395 0.1651,-0.866407 -0.147241,-0.319511 -0.567759,-0.415594 -0.851639,-0.62339 0.06702,-0.308253 -0.0159,0.07767 -0.140679,0.539385 -0.08679,0.321172 -0.17404,0.642286 -0.268927,0.961157 -0.273127,0.917837 -0.37605,1.195194 -0.688153,2.086141 -0.07816,0.223124 -0.157964,0.44567 -0.236947,0.668507 -0.207936,0.675841 0.74785,0.969907 0.955786,0.294066 z" />
    <path
       style="fill:#0000ff;stroke:#3000ff;stroke-width:0;stroke-linecap:round;stroke-linejoin:round"
       id="path29996"
       d="m 50.322143,35.979401 c 0.238586,-0.557151 0.428109,-1.133491 0.604568,-1.712756 0.04582,-0.150408 0.08211,-0.303737 0.13194,-0.452861 0.01185,-0.03546 0.08988,-0.09909 0.05249,-0.09912 -0.304011,-1.74e-4 -0.604459,0.06575 -0.90669,0.09863 5.3e-4,1.146935 0.03527,2.294028 0.146619,3.435954 0.07588,0.778137 0.118012,0.419751 0.03681,0.873699 0.01905,-0.07453 0.03808,-0.149056 0.05712,-0.223584 -0.536655,0.460441 0.114506,1.219383 0.651158,0.758942 v 0 c 0.09498,-0.139684 0.18996,-0.279369 0.28494,-0.419053 0.01315,-0.151233 0.04422,-0.301966 0.03948,-0.453694 -0.0065,-0.207989 -0.05266,-0.412893 -0.07301,-0.619987 -0.02847,-0.289677 -0.05486,-0.579644 -0.07343,-0.870125 -0.05651,-0.884142 -0.0573,-1.769716 -0.08471,-2.65485 -0.328318,-0.115922 -0.638415,-0.314 -0.984956,-0.347766 -0.08749,-0.0085 -0.07739,0.158348 -0.105968,0.241469 -0.0488,0.14192 -0.08209,0.288727 -0.125722,0.432322 -0.16064,0.528698 -0.333341,1.054449 -0.544926,1.565285 -0.316425,0.632357 0.577864,1.079852 0.894289,0.447495 z" />
    <path
       style="fill:#0000ff;stroke:#3000ff;stroke-width:0;stroke-linecap:round;stroke-linejoin:round"
       id="path29998"
       d="m 104.48952,34.87476 c 0.0131,0.916157 -0.10887,1.825189 -0.25619,2.727042 -0.0491,0.300644 -0.10785,0.599636 -0.16209,0.899398 -0.0366,0.201991 -0.0884,0.401752 -0.11028,0.605859 -0.0133,0.124309 0.004,0.25001 0.005,0.375018 0.32799,0.08792 0.64698,0.305546 0.98397,0.263747 0.23403,-0.02903 0.35391,-0.312634 0.54328,-0.453186 0.53212,-0.394951 1.23919,-0.870365 1.94969,-0.754055 0.11755,0.01924 0.20388,0.123217 0.30582,0.184825 0.0246,0.07622 0.086,0.1495 0.0738,0.22865 -0.0158,0.102442 -0.39287,0.395195 -0.40962,0.404696 -0.69109,0.391936 -1.34571,0.354762 -2.10859,0.34815 0.79622,1.520494 -0.90807,-0.447855 -0.84659,-0.166873 0.0515,0.235588 0.20047,0.438685 0.30071,0.658029 0.42047,-0.568515 -0.38353,-1.163145 -0.804,-0.594632 v 0 c 0.048,0.289951 0.002,0.612735 0.14405,0.869849 0.19879,0.359008 1.11822,-0.104386 1.20873,0.233622 0.78438,-0.0096 1.28924,0.05336 2.04411,-0.239448 0.84605,-0.32817 1.68121,-1.090128 1.27841,-2.103654 -0.0936,-0.2354 -0.33814,-0.377264 -0.5072,-0.565894 -0.25966,-0.08412 -0.50703,-0.228973 -0.77897,-0.252372 -0.9229,-0.07942 -1.79601,0.464163 -2.49695,0.986271 -0.14933,0.111231 -0.44665,0.180795 -0.4225,0.365424 0.033,0.252045 0.36043,0.358529 0.54065,0.537792 -0.0486,-0.351581 -0.0288,-0.09532 0.0903,-0.754721 0.23518,-1.3022 0.47365,-2.614983 0.42405,-3.944806 -0.0999,-0.700013 -1.08986,-0.558747 -0.98997,0.141269 z" />
    <path
       style="fill:#0000ff;stroke:#3000ff;stroke-width:0;stroke-linecap:round;stroke-linejoin:round"
       id="path30000"
       d="m 109.83023,37.821772 c 0.65436,-0.271709 1.35437,-0.320697 2.05311,-0.328441 0.70701,-0.01169 0.69048,-1.011552 -0.0165,-0.999866 v 0 c -0.92327,0.01945 -1.74331,0.08464 -2.59095,0.496033 -0.5885,0.391996 -0.0341,1.22427 0.55437,0.832274 z" />
    <path
       style="fill:#0000ff;stroke:#3000ff;stroke-width:0;stroke-linecap:round;stroke-linejoin:round"
       id="path30002"
       d="m 109.58173,39.634242 c 0.56825,-0.134843 1.15314,-0.187251 1.73142,-0.260642 0.70147,-0.08907 0.57551,-1.081106 -0.12597,-0.992036 v 0 c -0.64261,0.08164 -1.29309,0.138906 -1.92143,0.303911 -0.67088,0.223432 -0.3549,1.172199 0.31598,0.948767 z" />
    <path
       style="fill:#0000ff;stroke:#3000ff;stroke-width:0;stroke-linecap:round;stroke-linejoin:round"
       id="path30004"
       d="m 114.74353,39.385187 c 0.15954,0.01662 0.31825,0.05319 0.47862,0.04984 1.11483,-0.02328 2.135,-0.608299 2.71306,-1.571745 0.15503,-0.258397 0.23271,-0.555937 0.34906,-0.833903 0.0219,-0.596879 0.17801,-1.104132 -0.33786,-1.581576 -0.54793,-0.507116 -1.1704,-0.436292 -1.79078,-0.124682 -0.70236,0.352785 -1.04559,0.926637 -1.50807,1.51737 -0.14463,0.312375 -0.32758,0.609719 -0.43388,0.937125 -0.27311,0.841195 -0.22743,1.809641 0.66611,2.26595 0.63403,0.323789 1.06102,0.132529 1.70024,0.01344 0.25525,-0.117398 0.5105,-0.234799 0.76575,-0.352197 0.63786,-0.305186 0.20626,-1.207254 -0.4316,-0.902068 v 0 c -0.18399,0.09276 -0.36798,0.185518 -0.55198,0.278278 -0.16895,0.04825 -0.33364,0.115287 -0.50686,0.144754 -0.0611,0.0104 -0.55094,0.03861 -0.64934,-0.05754 -0.44683,-0.436565 0.0648,-1.313984 0.23554,-1.719792 0.40108,-0.53867 0.7816,-1.110377 1.41274,-1.406562 0.18688,-0.0877 0.3645,-0.120314 0.46128,0.140833 0.056,0.151045 0.0251,0.321191 0.0377,0.481785 -0.0688,0.194606 -0.10918,0.401801 -0.20656,0.583819 -0.36268,0.677944 -1.05705,1.153382 -1.82869,1.191318 -0.11954,0.0059 -0.23849,-0.02045 -0.35773,-0.03068 -0.69031,-0.153233 -0.90701,0.823005 -0.21671,0.976239 z" />
    <path
       style="fill:#0000ff;stroke:#3000ff;stroke-width:0;stroke-linecap:round;stroke-linejoin:round"
       id="path30006"
       d="m 119.06361,33.53617 c -0.43936,1.023948 -0.76712,2.088367 -0.9881,3.180506 -0.14217,0.702633 -0.25918,1.478624 -0.24208,2.202304 0.006,0.249145 0.0601,0.494797 0.0901,0.742193 0.1298,0.323943 0.19259,0.698141 0.58692,0.834385 0.18215,0.06294 0.38542,-0.0034 0.57813,-0.005 0.67404,-0.213717 0.3718,-1.16695 -0.30224,-0.95323 v 0 c 0.0802,0.03399 0.17426,0.04555 0.24062,0.101983 0.0397,0.03375 -0.0314,0.502206 -0.11203,-0.108979 -0.0275,-0.188563 -0.0767,-0.375221 -0.0825,-0.565692 -0.0207,-0.668237 0.086,-1.36534 0.21562,-2.015009 0.20518,-1.028237 0.512,-2.029973 0.92351,-2.994281 0.29639,-0.641996 -0.61153,-1.061141 -0.90791,-0.419145 z" />
    <path
       style="fill:#0000ff;stroke:#3000ff;stroke-width:0;stroke-linecap:round;stroke-linejoin:round"
       id="path30008"
       d="m 121.06785,36.896368 c -0.11857,0.657397 -0.30546,1.331489 -0.24176,2.006737 0.0108,0.11389 0.0484,0.223626 0.0725,0.335439 0.17956,0.683929 1.14679,0.429993 0.96722,-0.253937 v 0 c -0.18383,-0.426624 0.11006,-1.409234 0.17824,-1.871442 0.1533,-0.69029 -0.82292,-0.907087 -0.97622,-0.216797 z" />
    <path
       style="fill:#0000ff;stroke:#3000ff;stroke-width:0;stroke-linecap:round;stroke-linejoin:round"
       id="path30010"
       d="m 120.73688,38.161327 c 0.49362,-0.189055 0.99925,-0.34517 1.50101,-0.510818 0.67146,-0.221673 0.35797,-1.171262 -0.31349,-0.949589 v 0 c -0.54738,0.180708 -1.10032,0.348165 -1.63456,0.565891 -0.63252,0.316105 -0.18548,1.210619 0.44704,0.894516 z" />
    <path
       style="fill:#0000ff;stroke:#3000ff;stroke-width:0;stroke-linecap:round;stroke-linejoin:round"
       id="path30012"
       d="m 124.73782,36.545895 c 0.26836,-0.499821 0.65645,-0.92139 1.07288,-1.302107 0.16279,-0.148825 0.32538,-0.301016 0.51032,-0.421201 0.41572,-0.270147 0.35039,-0.28988 0.4902,-0.06657 -0.10057,0.02614 -0.23836,-0.0039 -0.30172,0.07842 -0.13512,0.175689 -0.14111,0.421386 -0.23655,0.621432 -0.16077,0.336989 -0.33646,0.667539 -0.53054,0.986504 -0.35956,0.590921 -0.98545,1.45791 -1.43594,1.996303 -0.20117,0.240424 -0.42591,0.460097 -0.63886,0.690147 -0.15517,0.134964 -0.30233,0.279728 -0.46551,0.404892 -0.23114,0.177294 -1.42779,-0.125241 0.62211,0.59631 0.10324,0.03634 0.17313,-0.134419 0.26517,-0.193646 0.56698,-0.364839 0.4286,-0.27378 1.0705,-0.50137 1.08042,-0.252777 2.10516,0.416351 3.19257,0.292809 0.236,-0.02681 0.45832,-0.124936 0.68748,-0.187401 0.67469,-0.211633 0.3754,-1.165794 -0.2993,-0.954162 v 0 c -0.12078,0.0473 -0.23387,0.124016 -0.36235,0.141896 -0.4066,0.05659 -0.87617,-0.05556 -1.26573,-0.131392 -0.53301,-0.103748 -0.96983,-0.238728 -1.52339,-0.22071 -0.26236,0.0085 -0.51869,0.08117 -0.77803,0.121748 -0.64416,0.248375 -0.82956,0.265774 -1.37715,0.683305 -0.17364,0.132395 -0.49361,0.232085 -0.47627,0.449744 0.12803,1.606299 1.03348,0.535152 1.44517,0.175749 0.23204,-0.252695 0.47648,-0.49454 0.69612,-0.758086 0.46997,-0.563915 1.16299,-1.522632 1.52843,-2.140583 0.26746,-0.452278 0.93656,-1.638003 0.86383,-2.26364 -0.0383,-0.329578 -0.32349,-0.579405 -0.48524,-0.869108 -0.23239,-0.01246 -0.46943,-0.08527 -0.69717,-0.03738 -0.41534,0.08735 -0.92177,0.536287 -1.20997,0.803635 -0.49087,0.45535 -0.94075,0.962718 -1.25549,1.557253 -0.31622,0.632457 0.5782,1.079669 0.89443,0.447214 z" />
    <path
       style="fill:#0000ff;stroke:#3000ff;stroke-width:0;stroke-linecap:round;stroke-linejoin:round"
       id="path30014"
       d="m 147.87011,23.300965 c 0.0309,-0.05964 0.23309,-0.436727 0.25019,-0.519366 0.10893,-0.526397 -0.0537,-0.838106 -0.97141,-0.531433 -0.22291,0.07449 -0.90047,1.448985 -0.94009,1.523482 -0.1436,0.351917 -0.31277,0.694456 -0.43081,1.055752 -0.42504,1.300972 -0.6674,2.987277 0.44222,4.045206 0.21987,0.209629 0.51685,0.319397 0.77527,0.479094 0.28368,0.05169 0.56273,0.149707 0.85102,0.15507 0.97459,0.01815 2.16098,-0.552847 2.45639,-1.551734 0.0661,-0.223509 0.0345,-0.464878 0.0518,-0.697317 -0.10986,-0.233098 -0.1594,-0.505786 -0.32956,-0.699297 -0.70601,-0.802865 -2.12965,-0.83293 -2.97415,-0.260828 -0.19029,0.12891 -0.32301,0.327072 -0.48451,0.490606 -0.20292,0.559027 -0.33552,0.629674 -0.13108,1.227952 0.0573,0.167601 0.18631,0.301279 0.27946,0.451917 0.41104,0.57537 1.22473,-0.0059 0.8137,-0.581287 v 0 c -0.15898,-0.143664 -0.25588,-0.19924 -0.21197,-0.437267 0.0567,-0.08393 0.0928,-0.18624 0.16999,-0.251777 0.37441,-0.317863 0.88909,-0.331618 1.34531,-0.242067 0.11385,0.02236 0.22994,0.05109 0.33066,0.108669 0.0782,0.04473 0.1281,0.126807 0.19215,0.190212 0.0163,0.08787 0.0591,0.174844 0.0487,0.263596 -0.0729,0.624967 -0.87756,0.95707 -1.41538,0.998683 -0.16874,0.01304 -0.33748,-0.02595 -0.50622,-0.03892 -0.15558,-0.07071 -0.33087,-0.10845 -0.46672,-0.212111 -0.92292,-0.704205 -0.60604,-2.140093 -0.31036,-3.062616 0.10585,-0.33023 0.25908,-0.643349 0.38862,-0.965023 0.13503,-0.258466 0.26325,-0.520608 0.40509,-0.775399 0.0808,-0.145163 0.32288,-0.268953 0.26247,-0.423723 -0.0919,-0.235467 -0.44297,-0.262745 -0.60587,-0.456027 -0.0452,-0.0536 0.11331,-0.176023 0.0492,-0.204442 -0.14308,-0.06346 -0.0171,0.552944 -0.20213,0.423843 -0.35112,0.613772 0.51688,1.110329 0.868,0.496557 z" />
    <path
       style="fill:#0000ff;stroke:#3000ff;stroke-width:0;stroke-linecap:round;stroke-linejoin:round"
       id="path30016"
       d="m 150.49392,27.257189 c 0.95333,0.136412 2.14156,0.15643 3.01742,-0.308027 0.17587,-0.09326 0.32421,-0.231082 0.48631,-0.346623 0.10631,-0.168638 0.25879,-0.315849 0.31891,-0.505914 0.2243,-0.709073 -0.28065,-1.319272 -0.97687,-1.428173 -0.57538,-0.09 -0.92172,0.111267 -1.43809,0.300191 -0.22294,0.157406 -0.4643,0.291522 -0.66882,0.472217 -0.58348,0.51551 -1.14064,1.301956 -1.2622,2.0898 -0.0396,0.25676 -0.0624,0.532924 0.0206,0.779119 0.0911,0.270502 0.32051,0.472432 0.48076,0.708646 0.273,0.116377 0.52833,0.28923 0.81898,0.349134 0.49353,0.101719 1.15574,-0.0066 1.63266,-0.160962 0.16978,-0.05497 0.32317,-0.151466 0.48476,-0.227198 0.63318,-0.31478 0.18801,-1.210228 -0.44517,-0.895447 v 0 c -0.092,0.05032 -0.17736,0.115247 -0.27593,0.150973 -0.46678,0.169191 -0.97016,0.234969 -1.45791,0.130535 -0.0803,-0.04276 -0.19532,-0.04954 -0.24079,-0.128296 -0.16147,-0.27966 -0.0117,-0.709134 0.0958,-0.951905 0.25209,-0.569365 0.67656,-1.031654 1.18077,-1.38503 0.33514,-0.143343 0.44428,-0.217537 0.77977,-0.276217 0.0637,-0.01115 0.13016,0.003 0.19392,-0.0079 0.0346,-0.0059 0.17004,-0.11111 0.19257,0.01529 0.0105,0.05889 -0.026,0.116778 -0.0391,0.175167 -0.0832,0.071 -0.15506,0.157976 -0.24958,0.213008 -0.67433,0.39262 -1.72257,0.361329 -2.47022,0.253697 -0.69574,-0.126295 -0.87435,0.857625 -0.17861,0.983921 z" />
    <path
       style="fill:#0000ff;stroke:#3000ff;stroke-width:0;stroke-linecap:round;stroke-linejoin:round"
       id="path30018"
       d="m 155.93657,25.923373 c 1.03816,0.02007 2.07491,-0.03463 3.11122,-0.08842 0.70616,-0.03666 0.65431,-1.035316 -0.0518,-0.998655 v 0 c -1.01906,0.05292 -2.0385,0.107276 -3.05938,0.08707 -0.7071,0 -0.7071,1 0,1 z" />
    <path
       style="fill:#0000ff;stroke:#3000ff;stroke-width:0;stroke-linecap:round;stroke-linejoin:round"
       id="path30020"
       d="m 155.80727,27.344706 c 0.93284,0.0021 1.86515,-0.05198 2.79561,-0.113813 0.70554,-0.04705 0.63901,-1.044829 -0.0665,-0.997785 v 0 c -0.9083,0.06077 -1.81844,0.113445 -2.72908,0.111598 -0.70711,0 -0.70711,1 0,1 z" />
    <path
       style="fill:#0000ff;stroke:#3000ff;stroke-width:0;stroke-linecap:round;stroke-linejoin:round"
       id="path30024"
       d="m 164.76649,22.252911 c -0.006,-0.519307 0.0647,-1.298142 -0.58861,-1.511064 -0.22395,-0.07299 -0.48793,-0.05055 -0.70553,0.03963 -0.26694,0.110641 -0.45454,0.356921 -0.68182,0.535381 -0.19244,0.251177 -0.40381,0.488928 -0.57734,0.753532 -0.74541,1.136673 -1.44602,2.752198 -1.42123,4.134876 0.006,0.306638 0.0916,0.606501 0.13738,0.90975 0.13281,0.255196 0.22723,0.534374 0.39841,0.765583 0.46109,0.622784 1.19942,0.931312 1.96411,0.851463 0.6705,-0.07001 0.8028,-0.244316 1.35907,-0.594611 0.16633,-0.199149 0.36697,-0.374076 0.49899,-0.597448 0.41932,-0.709393 0.43855,-1.58553 -0.21685,-2.174136 -0.57244,-0.514102 -0.92597,-0.387802 -1.63366,-0.399848 -0.27789,0.09528 -0.57034,0.15559 -0.83366,0.285828 -0.75853,0.375176 -1.8329,1.372529 -1.32467,2.338133 0.11833,0.224822 0.35414,0.364382 0.5312,0.546571 0.20967,0.09218 0.41934,0.184362 0.62901,0.276543 0.65642,0.262895 1.02821,-0.665422 0.37179,-0.928317 v 0 c -0.12284,-0.04099 -0.24568,-0.08197 -0.36851,-0.12296 -0.0407,-0.01066 -0.30044,-0.04772 -0.31891,-0.149529 -0.0798,-0.439656 0.53889,-0.85496 0.83161,-1.024259 0.16346,-0.09454 0.34723,-0.148506 0.52085,-0.222759 0.15118,-0.02243 0.30081,-0.07289 0.45355,-0.06729 0.1463,0.0054 0.50798,0.116866 0.60608,0.268507 0.25451,0.393416 -0.0778,0.846065 -0.30528,1.14143 -0.12398,0.09288 -0.23538,0.205509 -0.37195,0.278638 -0.49911,0.267263 -1.12964,0.243112 -1.52207,-0.197768 -0.11618,-0.130527 -0.18881,-0.294098 -0.28321,-0.441146 -0.0425,-0.216836 -0.11889,-0.429712 -0.12751,-0.650504 -0.0473,-1.212136 0.59232,-2.623202 1.22516,-3.626348 0.13473,-0.213568 0.29825,-0.407556 0.44738,-0.611333 0.0842,-0.102444 0.18909,-0.190916 0.25258,-0.30733 0.0153,-0.02816 -0.0549,-0.312712 -0.0342,-0.312314 0.064,0.0012 0.053,0.118086 0.0641,0.181191 0.0314,0.179512 0.0237,0.450158 0.0237,0.631904 0,0.707107 1,0.707107 1,0 z" />
    <path
       style="fill:#0000ff;stroke:#3000ff;stroke-width:0;stroke-linecap:round;stroke-linejoin:round"
       id="path30026"
       d="m 167.3625,24.718775 c -0.0349,0.514257 -0.0873,1.029206 -0.0634,1.545481 0.0594,1.283052 0.0402,-0.04777 0.0472,0.68572 0.0124,0.706996 1.01229,0.689399 0.99984,-0.01759 v 0 c -0.0297,-1.267982 0.0275,0.799716 -0.047,-0.671814 -0.0244,-0.481744 0.0272,-0.962233 0.0584,-1.442171 0.0704,-0.703589 -0.92459,-0.803209 -0.99503,-0.09962 z" />
    <path
       style="fill:#0000ff;stroke:#3000ff;stroke-width:0;stroke-linecap:round;stroke-linejoin:round"
       id="path30028"
       d="m 166.55259,26.768345 c 0.7193,-0.153503 1.41961,-0.382491 2.12666,-0.58314 0.68025,-0.19306 0.40722,-1.155066 -0.27302,-0.962006 v 0 c -0.68175,0.193509 -1.3569,0.414405 -2.0499,0.564596 -0.69335,0.138779 -0.49709,1.11933 0.19626,0.98055 z" />
    <path
       style="fill:#0000ff;stroke:#3000ff;stroke-width:0;stroke-linecap:round;stroke-linejoin:round"
       id="path30042"
       d="m 172.3193,24.76406 c 0.0648,-0.135229 0.11823,-0.276514 0.19438,-0.40569 0.19653,-0.333394 0.45681,-0.694383 0.76732,-0.934112 0.19874,-0.153437 0.52449,-0.330982 0.57449,-0.107802 0.0185,0.08262 -0.0621,0.15754 -0.0932,0.236309 -0.007,0.189002 0.0148,0.381445 -0.0219,0.567004 -0.23801,1.205336 -0.96777,2.487718 -1.9017,3.290003 -0.14951,0.128434 -0.33205,0.212463 -0.49807,0.318696 0.46036,0.126955 -0.70697,0.09324 -0.53892,0.02904 0.0703,-0.02684 0.18223,-0.02625 0.22254,0.03725 0.0973,0.153238 0.0121,0.394493 0.13581,0.527298 0.0736,0.07896 0.21465,-0.0227 0.32172,-0.03615 0.24129,-0.03031 0.48221,-0.06343 0.72331,-0.09514 1.12891,-0.05316 0.5683,-0.03925 1.68181,-0.04285 0.7071,-0.0027 0.70324,-1.00272 -0.004,-0.999992 v 0 c -1.1882,0.0053 -0.58327,-0.01109 -1.81471,0.05224 -0.21967,0.03154 -1.37357,0.139322 -1.57934,0.380498 -0.47884,0.561258 -0.34775,0.986724 0.22666,1.173136 0.42152,0.136797 0.79974,-0.06746 1.1814,-0.194427 0.22257,-0.153985 0.46491,-0.282728 0.6677,-0.461959 1.01734,-0.899147 2.06992,-2.676857 2.17355,-4.042398 0.0261,-0.344181 -0.0836,-0.685265 -0.12534,-1.027898 -0.22542,-0.235784 -0.38185,-0.566882 -0.67625,-0.707353 -0.2254,-0.107545 -0.50944,-0.04407 -0.74873,0.02745 -0.23508,0.07026 -0.43819,0.228514 -0.62797,0.384028 -0.56247,0.4609 -0.93676,1.107006 -1.20547,1.769437 -0.18623,0.682141 0.77846,0.945519 0.9647,0.263378 z" />
    <path
       style="fill:#0000ff;stroke:#3000ff;stroke-width:0;stroke-linecap:round;stroke-linejoin:round"
       id="path30044"
       d="m 175.06345,27.473505 c 0.99711,0.11457 2.05066,0.292817 3.04073,0.02458 0.21091,-0.05714 0.40649,-0.160494 0.60973,-0.240739 0.1564,-0.147733 0.35694,-0.259668 0.46921,-0.443196 0.43417,-0.709777 0.0668,-1.441515 -0.68666,-1.700893 -0.67266,-0.23156 -1.0358,0.02603 -1.66315,0.244777 -0.25321,0.170434 -0.52614,0.314725 -0.75963,0.511302 -0.76598,0.644874 -1.61567,1.949844 -0.57545,2.805345 0.2492,0.204941 0.59315,0.254096 0.88973,0.381146 0.97017,0.189148 1.91455,0.0049 2.86633,-0.17082 0.6951,-0.129781 0.51156,-1.112796 -0.18354,-0.983012 v 0 c -0.778,0.147005 -1.55817,0.313277 -2.35525,0.208994 -0.15225,-0.02854 -0.30575,-0.05108 -0.45675,-0.08562 -0.0754,-0.01725 -0.17609,-0.0068 -0.22141,-0.06951 -0.27171,-0.375775 0.39277,-1.072626 0.60669,-1.265121 0.1702,-0.153149 0.37102,-0.268389 0.55653,-0.402584 0.54429,-0.259449 0.35065,-0.230984 0.8506,-0.279518 0.051,-0.0049 0.42516,-0.05282 0.39502,0.129549 -0.0124,0.07521 -0.0782,0.130856 -0.11736,0.196284 -0.13129,0.05935 -0.25567,0.137257 -0.39386,0.178035 -0.90919,0.268316 -1.94893,0.04372 -2.87151,-0.03901 -0.7071,0 -0.7071,1 0,1 z" />
    <path
       style="fill:#0000ff;stroke:#3000ff;stroke-width:0;stroke-linecap:round;stroke-linejoin:round"
       id="path30046"
       d="m 181.15808,25.923373 c 0.88702,-0.0706 0.43252,-0.02376 1.36313,-0.144088 0.7012,-0.09122 0.57219,-1.082863 -0.12901,-0.991644 v 0 c -0.85641,0.112133 -0.44486,0.0685 -1.23412,0.135732 -0.70711,0 -0.70711,1 0,1 z" />
    <path
       style="fill:#0000ff;stroke:#3000ff;stroke-width:0;stroke-linecap:round;stroke-linejoin:round"
       id="path30048"
       d="m 184.76509,26.063631 c 0.56209,-0.660312 1.17728,-1.374784 2.00022,-1.716246 0.49639,-0.205965 0.4441,-0.186339 0.36839,0.05543 -0.066,0.03194 -0.15182,0.03882 -0.19789,0.09582 -0.1162,0.143811 -0.18048,0.322745 -0.27072,0.484118 -0.19618,0.251064 -0.37701,0.514922 -0.58854,0.753193 -0.67279,0.757824 -1.46607,1.384764 -2.24808,2.0225 -0.39245,0.291444 -1.45358,0.853305 -0.53049,1.528956 0.25197,0.184422 0.62652,0.04144 0.93672,0.0058 0.44499,-0.05113 2.19478,-0.51232 2.52861,-0.596873 1.42029,-0.378632 2.85891,-0.692907 4.26566,-1.120371 0.6764,-0.206139 0.38487,-1.162702 -0.29152,-0.956564 v 0 c -1.3908,0.425202 -2.81575,0.730208 -4.21987,1.107597 -0.45357,0.115077 -0.90564,0.236296 -1.36072,0.345238 -0.34126,0.08169 -0.68955,0.134028 -1.02801,0.226592 -0.41831,0.114401 -0.48001,0.261189 -0.36487,0.810165 0.0618,0.294841 0.77354,-1.878621 0.69667,-0.575715 0.84086,-0.6864 1.7063,-1.363041 2.41348,-2.194111 0.37909,-0.445502 1.03647,-1.271956 1.05726,-1.934456 0.01,-0.302959 -0.19219,-0.574943 -0.28829,-0.862415 -0.23877,-0.08404 -0.46344,-0.240805 -0.71632,-0.252134 -0.22881,-0.01025 -0.45074,0.09779 -0.66019,0.190468 -0.96161,0.425486 -1.69637,1.24906 -2.34504,2.045938 -0.37976,0.596471 0.46377,1.13354 0.84354,0.53707 z" />
    <path
       style="fill:#0000ff;stroke:#3000ff;stroke-width:0;stroke-linecap:round;stroke-linejoin:round"
       id="path30052"
       d="m 152.93328,19.201598 c 0.0523,-0.189369 0.12608,-0.374087 0.157,-0.568106 0.14251,-0.894368 0.0146,-1.848248 -0.52159,-2.605704 -0.1815,-0.256366 -0.39886,-0.50342 -0.66908,-0.663551 -0.27736,-0.164358 -0.61692,-0.187534 -0.92538,-0.281301 -0.33484,0.08837 -0.70003,0.100158 -1.00454,0.265098 -0.31876,0.17266 -0.58486,0.440077 -0.81479,0.720356 -0.68583,0.836032 -0.89015,1.980048 -0.61637,3.015931 0.0842,0.318454 0.26521,0.603038 0.39781,0.904557 0.20526,0.233128 0.37427,0.504052 0.61578,0.699382 0.76148,0.615876 1.75894,0.713071 2.65865,0.360684 0.79085,-0.309747 0.97613,-0.618381 1.56421,-1.204919 0.17258,-0.312071 0.39548,-0.601217 0.51776,-0.936214 0.1225,-0.335604 0.20486,-0.694205 0.20776,-1.051455 0.005,-0.65898 -0.24487,-1.480297 -0.81038,-1.895141 -0.86286,-0.632981 -1.44909,-0.431484 -2.42455,-0.382543 -0.39472,0.153664 -0.81553,0.25236 -1.18416,0.460991 -0.85803,0.485614 -1.80906,1.463741 -1.61301,2.561133 0.0546,0.305766 0.28076,0.554147 0.42114,0.831221 0.37858,0.597229 1.22319,0.06185 0.84461,-0.535384 v 0 c -0.0889,-0.0846 -0.21768,-0.141286 -0.26663,-0.253805 -0.29389,-0.675524 0.52181,-1.383319 0.99439,-1.678383 0.27232,-0.170031 0.58746,-0.259188 0.88118,-0.388782 0.42416,-0.04953 1.12482,-0.216871 1.56613,0.01021 0.18278,0.09405 0.32476,0.267761 0.42402,0.447764 0.41159,0.746394 0.0925,1.449156 -0.27555,2.113613 -0.41254,0.442919 -0.54252,0.672588 -1.09124,0.932006 -0.54113,0.255827 -1.17548,0.284355 -1.68089,-0.07075 -0.17109,-0.120207 -0.29569,-0.295719 -0.44353,-0.443578 -0.10407,-0.204063 -0.24241,-0.394012 -0.31219,-0.61219 -0.30364,-0.949372 -0.0174,-2.024443 0.76471,-2.658938 0.1328,-0.107735 0.30356,-0.157567 0.45533,-0.23635 0.15652,0.01328 0.32653,-0.02513 0.46954,0.03983 0.6057,0.275127 0.8793,1.06497 0.9343,1.669383 0.0403,0.442932 -0.0354,0.632054 -0.13412,1.028508 -0.2874,0.64607 0.62628,1.052503 0.91368,0.406433 z" />
    <path
       style="fill:#0000ff;stroke:#3000ff;stroke-width:0;stroke-linecap:round;stroke-linejoin:round"
       id="path30054"
       d="m 157.57863,18.28948 c 0.26337,-0.250071 0.58239,-0.450701 0.96376,-0.334703 0.42819,0.130241 0.90777,0.77961 1.18509,1.089124 0.58456,0.644418 1.3136,1.327325 2.24572,1.332913 0.13508,8.2e-4 0.2797,-0.0078 0.39894,-0.07124 0.1457,-0.07755 0.24302,-0.223406 0.36453,-0.335109 0.34464,-0.61743 -0.52854,-1.104832 -0.87318,-0.487403 v 0 c 0.0863,-0.04859 0.16971,-0.102629 0.25884,-0.145783 0.02,-0.0097 -0.0277,0.04097 -0.0496,0.04449 -0.0763,0.01224 -0.15686,0.01971 -0.23171,6.62e-4 -0.57329,-0.145828 -0.99335,-0.584118 -1.37106,-1.008455 -0.31864,-0.350951 -0.78062,-0.912584 -1.19922,-1.152678 -0.70372,-0.403621 -1.44993,-0.334617 -2.10428,0.109249 -0.14572,0.09885 -0.25846,0.239197 -0.38769,0.358795 -0.42436,0.565619 0.37555,1.165744 0.7999,0.600125 z" />
    <path
       style="fill:#0000ff;stroke:#3000ff;stroke-width:0;stroke-linecap:round;stroke-linejoin:round"
       id="path30058"
       d="m 160.00077,17.367164 c 0.36769,0.439884 0.73581,0.880639 1.12615,1.300839 0.32239,0.347056 0.66404,0.67034 0.96815,1.033809 -0.0234,-0.04612 -0.15302,-0.435576 -0.3277,-0.416695 -0.23546,0.02545 -0.45763,0.123091 -0.68275,0.196687 -0.58925,0.192642 -1.20544,0.414619 -1.75004,0.71684 -0.22278,0.123626 -0.42265,0.284633 -0.63397,0.42695 -0.11992,0.118249 -0.23983,0.236498 -0.35974,0.354747 -0.49397,0.505954 0.22155,1.204539 0.71553,0.698586 v 0 c 0.07,-0.07625 0.13995,-0.152492 0.20993,-0.228738 0.16436,-0.115425 0.31807,-0.247741 0.49308,-0.346274 0.49903,-0.280963 1.06377,-0.484597 1.60495,-0.662034 0.39646,-0.12999 1.24587,-0.276379 1.50358,-0.687954 0.12322,-0.196775 -0.005,-0.464305 -0.008,-0.696457 -0.67449,-0.795938 -1.45861,-1.496451 -2.09098,-2.330687 -0.45282,-0.543099 -1.22088,0.09728 -0.76806,0.640381 z" />
    <path
       style="fill:#0000ff;stroke:#3000ff;stroke-width:0;stroke-linecap:round;stroke-linejoin:round"
       id="path30060"
       d="m 191.74288,24.678576 c 0.0999,0.250768 0.42014,0.838885 0.30719,1.08824 -0.0813,0.702418 0.91206,0.817403 0.99337,0.114985 v 0 c 0.006,-0.108906 0.0266,-0.217871 0.0192,-0.32672 -0.0278,-0.411926 -0.21955,-0.966096 -0.44068,-1.308475 -0.0982,-0.152109 -0.23282,-0.277399 -0.34923,-0.416098 -0.59968,-0.374687 -1.12956,0.473381 -0.52989,0.848068 z" />
    <path
       style="fill:#0000ff;stroke:#3000ff;stroke-width:0;stroke-linecap:round;stroke-linejoin:round"
       id="path30062"
       d="m 191.07374,25.66325 c 0.35527,0 0.71054,0 1.0658,0 0.70711,0 0.70711,-1 0,-1 v 0 c -0.35526,0 -0.71053,0 -1.0658,0 -0.7071,0 -0.7071,1 0,1 z" />
    <path
       style="fill:#0000ff;stroke:#3000ff;stroke-width:0;stroke-linecap:round;stroke-linejoin:round"
       id="path30064"
       d="m 195.45067,24.543547 c 1.04738,0.379068 2.22337,0.386394 3.13134,-0.346185 0.20299,-0.163778 0.35281,-0.384239 0.52921,-0.576359 0.10346,-0.242919 0.24376,-0.473265 0.31037,-0.728757 0.10421,-0.399725 0.14216,-1.065154 -0.28334,-1.352963 -0.26602,-0.179932 -0.623,-0.253218 -0.94087,-0.207402 -0.81826,0.117941 -1.29704,0.81723 -1.80683,1.351063 -0.18097,0.356127 -0.4293,0.685407 -0.54292,1.068381 -0.37778,1.273426 0.10422,2.291557 1.42157,2.659672 0.90027,0.251571 1.6884,0.0085 2.56344,-0.148919 0.59965,-0.246066 1.20796,-0.349191 1.55527,-0.964638 0.11592,-0.205424 0.094,-0.462285 0.14104,-0.693427 0.0249,-0.706666 -0.97443,-0.74195 -0.99937,-0.03528 v 0 c 0.0381,0.02014 0.12541,0.01871 0.11443,0.06042 -0.11246,0.426937 -0.70116,0.52052 -0.99753,0.650409 -0.81757,0.164331 -1.14706,0.297866 -1.96958,0.21832 -0.2061,-0.01993 -0.4265,-0.04602 -0.60081,-0.157786 -0.15382,-0.09863 -0.27882,-0.262754 -0.32905,-0.438442 -0.17918,-0.626656 0.12987,-0.996538 0.38007,-1.542336 1.48505,-1.704567 -0.15962,0.08376 1.06733,-1.027439 0.0605,-0.05481 0.0663,-0.160492 0.13521,-0.204234 0.0435,-0.02763 0.13471,-0.02691 0.15324,0.02121 0.0464,0.120563 0.0239,0.259875 0.004,0.387554 -0.0228,0.147372 -0.0867,0.285349 -0.13008,0.428024 -0.25763,0.322146 -0.33683,0.495306 -0.72533,0.680432 -0.58524,0.278878 -1.2462,0.16693 -1.82968,-0.03759 -0.66204,-0.248388 -1.01332,0.687885 -0.35128,0.936272 z" />
    <path
       style="fill:#0000ff;stroke:#3000ff;stroke-width:0;stroke-linecap:round;stroke-linejoin:round"
       id="path30068"
       d="m 159.28083,34.709713 c 0.0711,-0.09963 0.13221,-0.207303 0.21344,-0.298899 0.35388,-0.399034 0.84009,-0.794002 1.4128,-0.774277 0.38628,0.01331 0.2955,0.111046 0.2461,0.322257 -0.3654,1.000861 -1.23667,1.780434 -2.25439,2.090134 -0.11541,0.03512 -0.23928,0.03091 -0.35892,0.04637 0.0751,-0.0019 0.18986,-0.07166 0.2254,-0.0055 0.12685,0.23631 0.0296,0.567486 0.1912,0.781558 0.0812,0.107611 0.27014,-0.0049 0.40439,0.0076 0.20146,0.01868 0.4074,0.02654 0.60089,0.08566 0.52673,0.160956 0.56966,0.281895 0.93435,0.638468 0.0292,0.124971 0.10603,0.247928 0.0875,0.374915 -0.0157,0.107357 -0.10175,0.196652 -0.18157,0.270121 -0.4252,0.391345 -1.07333,0.402738 -1.60539,0.302816 -0.22852,-0.04292 -0.44429,-0.137343 -0.66643,-0.206013 -0.16658,-0.07064 -0.33541,-0.136165 -0.49971,-0.211926 -0.4574,-0.210907 -0.0533,-0.400309 -0.4665,0.855263 0.66209,0.248283 1.01321,-0.688049 0.35113,-0.936328 v 0 c -0.17546,0.288229 -0.43897,0.538771 -0.52637,0.864687 -0.0821,0.306075 1.36713,-0.03701 0.86703,0.389916 0.74291,0.199076 1.12827,0.385366 1.92512,0.247661 0.96847,-0.16736 1.86814,-0.840981 1.73457,-1.938975 -0.0337,-0.276879 -0.23578,-0.505561 -0.35367,-0.758341 -0.21371,-0.179835 -0.40168,-0.395716 -0.64113,-0.539501 -0.51618,-0.309957 -1.02082,-0.42749 -1.61274,-0.437028 -0.71137,-0.01146 -1.18838,-0.0081 -1.06102,1.064646 0.0188,0.158591 0.30621,0.09089 0.45931,0.136332 0.19531,-0.03769 0.39744,-0.04951 0.58593,-0.113054 1.10326,-0.371925 2.47873,-1.431862 2.73735,-2.630157 0.064,-0.296653 -0.0192,-0.60666 -0.0287,-0.909992 -0.1894,-0.212664 -0.32145,-0.495826 -0.5682,-0.637998 -0.22198,-0.127894 -0.50234,-0.140501 -0.75813,-0.126185 -0.80861,0.04527 -1.55311,0.596101 -2.02673,1.214549 -0.13328,0.174035 -0.22106,0.378603 -0.33159,0.567904 -0.18618,0.682157 0.77854,0.945449 0.96471,0.26329 z" />
    <path
       style="fill:#0000ff;stroke:#3000ff;stroke-width:0;stroke-linecap:round;stroke-linejoin:round"
       id="path30070"
       d="m 162.89555,37.806706 c 1.09132,-0.05891 2.26962,-0.252404 3.1336,-0.985837 0.17645,-0.149784 0.35236,-0.318278 0.45173,-0.527307 0.10085,-0.212124 0.0856,-0.461891 0.12833,-0.692835 -0.15814,-0.217318 -0.24301,-0.515266 -0.47442,-0.651955 -0.24614,-0.145386 -0.56315,-0.154974 -0.84784,-0.129063 -0.92318,0.08402 -1.76902,0.852056 -2.16579,1.644512 -0.13516,0.269965 -0.1813,0.575964 -0.27195,0.863944 0.0399,0.296929 -0.006,0.618794 0.11955,0.890786 0.60274,1.305301 2.29786,1.110313 3.41724,0.812268 0.23572,-0.06276 0.46115,-0.15921 0.69172,-0.238815 0.56205,-0.296329 0.32622,-0.12468 0.72767,-0.48599 0.49741,-0.502571 -0.21333,-1.206021 -0.71075,-0.70345 v 0 c -0.0996,0.174104 -0.0171,0.05819 -0.34876,0.246105 -0.67403,0.242485 -1.23612,0.413858 -1.96672,0.411125 -0.19847,-7.94e-4 -0.66855,-0.02735 -0.82931,-0.234812 -0.0907,-0.116991 -0.0929,-0.281049 -0.13938,-0.421571 0.13072,-0.532448 0.11183,-0.710465 0.48932,-1.153478 0.32018,-0.375756 0.54017,-0.442365 0.96005,-0.630992 0.0785,-0.03525 0.1696,-0.04754 0.23805,-0.09962 0.0534,-0.04066 0.075,-0.1114 0.11248,-0.1671 0.14735,0.192378 0.17375,0.149992 -0.13554,0.435954 -0.68646,0.634656 -1.69078,0.760023 -2.57928,0.818134 -0.70711,0 -0.70711,1 0,1 z" />
    <path
       style="fill:#0000ff;stroke:#3000ff;stroke-width:0;stroke-linecap:round;stroke-linejoin:round"
       id="path30072"
       d="m 168.80728,35.065022 c 0.52818,-0.109479 1.06146,-0.143388 1.5991,-0.150235 0.70703,-0.01011 0.69274,-1.010002 -0.0143,-0.999898 v 0 c -0.57394,0.009 -1.14492,0.04182 -1.7089,0.157864 -0.70164,0.08775 -0.57754,1.080018 0.1241,0.992269 z" />
    <path
       style="fill:#0000ff;stroke:#3000ff;stroke-width:0;stroke-linecap:round;stroke-linejoin:round"
       id="path30074"
       d="m 167.6817,36.745838 c 1.05441,-0.103931 2.10153,-0.267946 3.14704,-0.437266 0.698,-0.113078 0.53808,-1.100209 -0.15992,-0.987131 v 0 c -1.02546,0.166179 -2.05247,0.327339 -3.08666,0.429365 -0.70359,0.07039 -0.60405,1.065419 0.0995,0.995032 z" />
    <path
       style="fill:#0000ff;stroke:#3000ff;stroke-width:0;stroke-linecap:round;stroke-linejoin:round"
       id="path30076"
       d="m 174.65107,32.355501 c -0.41178,0.701003 -0.90617,1.346875 -1.37216,2.011122 -0.16002,0.228105 -0.57907,0.804262 -0.66693,1.116883 -0.0462,0.16437 -0.0218,0.340778 -0.0327,0.511167 0.16954,0.176435 0.29069,0.418042 0.50862,0.529304 0.27265,0.1392 0.90548,0.01193 1.18003,-0.04899 0.52537,-0.116588 1.03467,-0.310089 1.54301,-0.483124 0.15398,-0.06781 0.30797,-0.135633 0.46195,-0.203451 0.64596,-0.287642 0.23917,-1.201163 -0.40679,-0.913522 v 0 c -0.12581,0.05678 -0.25162,0.113552 -0.37743,0.170329 -0.46409,0.158011 -0.92664,0.329189 -1.40334,0.446582 -0.12815,0.03156 -0.25967,0.04817 -0.38785,0.07957 -0.0568,0.01392 -0.14764,7.94e-4 -0.16636,0.05619 -0.0324,0.09602 0.0306,0.200358 0.0459,0.300537 -0.20151,-0.01405 -0.12374,0.0123 0.11622,-0.389863 0.20624,-0.345642 0.71892,-1.024255 0.92713,-1.321528 0.17542,-0.250463 0.34777,-0.503142 0.51565,-0.75873 0.13584,-0.206811 0.26358,-0.418835 0.39537,-0.628253 0.33533,-0.622538 -0.54508,-1.096764 -0.8804,-0.474226 z" />
    <path
       style="fill:#0000ff;stroke:#3000ff;stroke-width:0;stroke-linecap:round;stroke-linejoin:round"
       id="path30078"
       d="m 175.88504,34.325258 c -0.12568,0.819661 -0.0877,1.650471 -0.11995,2.475436 -0.0142,0.361858 -0.0174,0.820539 -0.16413,1.171168 -0.23531,0.666808 0.7077,0.99958 0.943,0.332774 v 0 c 0.40367,-1.233299 0.11719,-2.56245 0.32943,-3.827187 0.10761,-0.698868 -0.88074,-0.851061 -0.98835,-0.152191 z" />
    <path
       style="fill:#0000ff;stroke:#3000ff;stroke-width:0;stroke-linecap:round;stroke-linejoin:round"
       id="path30080"
       d="m 163.81095,46.273201 c 0.17905,0.09938 0.35005,0.214929 0.53718,0.29814 0.88325,0.392766 2.13792,0.619935 3.00104,0.03756 0.20784,-0.140235 0.34801,-0.361029 0.52201,-0.541544 0.0624,-0.243517 0.18867,-0.479155 0.18735,-0.730549 -0.005,-0.90256 -0.74734,-1.495483 -1.61946,-1.465281 -0.79478,0.02753 -1.05229,0.37815 -1.64181,0.831665 -0.19471,0.274021 -0.42299,0.527045 -0.58411,0.822063 -0.54819,1.003728 -0.87707,2.760551 0.34976,3.465735 0.33737,0.193915 0.75237,0.19903 1.12856,0.298545 1.33539,-0.0053 2.60983,-0.345353 3.83179,-0.863177 0.30729,-0.130222 0.59932,-0.293891 0.89898,-0.440835 0.63413,-0.312862 0.19167,-1.209654 -0.44245,-0.896792 v 0 c -0.26956,0.133895 -0.53223,0.282675 -0.80868,0.401682 -1.04671,0.450578 -2.14516,0.755984 -3.28725,0.817806 -0.28903,-0.02167 -0.78766,0.04001 -1.00338,-0.27487 -0.10461,-0.152689 -0.14078,-0.348541 -0.15548,-0.533038 -0.0603,-0.756978 0.28147,-1.432988 0.70874,-2.02583 0.14914,-0.137337 0.28066,-0.296714 0.44743,-0.412009 0.36633,-0.253267 0.98611,-0.405193 1.18933,0.120079 0.0293,0.07566 0.0238,0.160501 0.0357,0.240749 -0.0542,0.0905 -0.0824,0.202912 -0.1625,0.271497 -0.66467,0.568915 -1.86044,0.155287 -2.51908,-0.211148 -0.5583,-0.433938 -1.17197,0.355619 -0.61367,0.789554 z" />
    <path
       style="fill:#0000ff;stroke:#3000ff;stroke-width:0;stroke-linecap:round;stroke-linejoin:round"
       id="path30082"
       d="m 170.6658,44.211642 c 0.7821,-0.115041 1.56371,-0.237705 2.35327,-0.284036 0.7058,-0.04296 0.64505,-1.041114 -0.0608,-0.998151 v 0 c -0.81321,0.05106 -1.61906,0.168952 -2.42448,0.290933 -0.70093,0.09332 -0.56895,1.084575 0.13197,0.991254 z" />
    <path
       style="fill:#0000ff;stroke:#3000ff;stroke-width:0;stroke-linecap:round;stroke-linejoin:round"
       id="path30084"
       d="m 171.07567,45.366868 c 0.73461,-0.09941 1.46471,-0.227576 2.19719,-0.340947 0.69878,-0.108204 0.54575,-1.096426 -0.15302,-0.988224 v 0 c -0.75378,0.116766 -1.50544,0.246303 -2.26079,0.352914 -0.69032,0.15317 -0.4737,1.129427 0.21662,0.976257 z" />
    <path
       style="fill:#0000ff;stroke:#3000ff;stroke-width:0;stroke-linecap:round;stroke-linejoin:round"
       id="path30086"
       d="m 176.87307,41.119311 c -0.23045,0.349779 -0.52723,0.761328 -0.67156,1.156123 -0.25825,0.706427 -0.26844,1.568215 0.5133,1.970974 0.2413,0.124322 0.5342,0.0968 0.8013,0.145195 0.24255,-0.04508 0.49306,-0.05888 0.72765,-0.135228 0.53258,-0.173339 1.11322,-0.555885 1.39365,-1.057085 0.0631,-0.112702 0.16652,-0.246541 0.12194,-0.367747 -0.0896,-0.243543 -0.32137,-0.407527 -0.48205,-0.611288 -0.21122,0.140526 -0.46979,0.227907 -0.63365,0.421582 -0.1222,0.144447 -0.13209,0.355375 -0.17881,0.538726 -0.15288,0.600012 -0.19776,1.23539 -0.23771,1.851499 -0.0587,-0.116899 -0.0228,-0.02204 0.15835,-0.259864 -0.6463,0.286864 -0.24061,1.200875 0.40569,0.914011 v 0 c 0.41953,-0.370308 0.29904,-0.157958 0.4339,-0.590094 0.0348,-0.548463 0.0945,-1.092383 0.19886,-1.63244 0.0186,-0.09656 0.14168,-0.225986 0.0651,-0.287745 -0.10034,-0.08096 -0.25713,0.01939 -0.38569,0.02909 -0.10728,-0.194331 -0.22758,-0.382029 -0.32185,-0.582996 -0.006,-0.01371 0.0504,-0.0217 0.0448,-0.0076 -0.18426,0.456946 -0.7903,0.680887 -1.22368,0.780989 -0.0793,0.01389 -0.42874,0.08812 -0.47122,0.0524 -0.4204,-0.353529 0.31916,-1.396924 0.52243,-1.703636 0.44181,-0.552096 -0.33897,-1.176904 -0.78078,-0.624809 z" />
    <path
       style="fill:#0000ff;stroke:#3000ff;stroke-width:0;stroke-linecap:round;stroke-linejoin:round"
       id="path30088"
       d="m 180.52848,43.741006 c -0.86141,0.84287 -1.7746,1.630479 -2.6671,2.439614 -0.8434,0.764622 -1.67015,1.543045 -2.54031,2.277214 -0.46059,0.456438 -0.28417,0.134286 0.11459,1.095899 0.70187,0.08585 0.82329,-0.906746 0.12141,-0.992601 v 0 c 0.2532,0.923682 0.0267,1.049335 0.40915,0.660752 0.87724,-0.741296 1.712,-1.525455 2.56282,-2.2968 0.90586,-0.821238 1.83262,-1.620737 2.70638,-2.476796 0.50012,-0.49988 -0.20681,-1.207159 -0.70694,-0.707282 z" />
    <path
       style="fill:#0000ff;stroke:#3000ff;stroke-width:0;stroke-linecap:round;stroke-linejoin:round"
       id="path30090"
       d="m 180.03091,48.96709 c 0.14342,-0.53541 0.42174,-1.092716 0.87642,-1.43519 0.0582,-0.04384 0.13897,-0.109309 0.20445,-0.07734 0.0573,0.02799 -0.11017,0.06432 -0.16526,0.09648 -0.099,-0.04478 -0.18887,-0.145026 -0.297,-0.134334 -0.0603,0.006 -0.042,0.11371 -0.0643,0.170055 -0.0857,0.216583 -0.34064,0.660863 -0.19357,0.899441 0.11631,0.188685 0.33514,0.290184 0.50271,0.435276 0.14186,0.08973 0.57517,-0.06198 0.68071,0.124021 0.0146,0.02564 -0.0153,0.05758 -0.0156,0.08706 -0.004,0.435459 0.0634,-0.100423 -0.0412,0.502576 -0.0569,0.138308 -0.0935,0.286834 -0.17069,0.414924 -0.5465,0.906823 -1.59072,1.292694 -2.59637,1.391984 -0.32513,0.0321 -0.65334,0.01037 -0.98001,0.01556 -0.39296,-0.04231 -1.04179,-0.07706 -1.44971,-0.225377 -0.035,-0.01273 -0.0374,-0.06439 -0.0561,-0.09659 -0.56654,-0.42313 -1.16494,0.378068 -0.5984,0.801201 v 0 c 0.14549,0.09044 0.2761,0.211116 0.43648,0.271327 0.43709,0.164089 1.28553,0.208923 1.69137,0.249158 0.9495,-0.02871 1.3947,0.02671 2.31534,-0.282755 0.90857,-0.305411 1.73243,-0.920358 2.17698,-1.782132 0.10952,-0.212321 0.15206,-0.452967 0.22809,-0.67945 0.007,-0.217924 0.0515,-0.43783 0.0214,-0.653773 -0.1038,-0.742532 -0.65489,-1.132271 -1.36416,-1.09828 0.0678,0.116213 0.16056,0.221105 0.20346,0.348639 0.0142,0.04206 -0.0588,0.16746 -0.0439,0.125672 0.11274,-0.315627 0.39116,-0.907164 0.29475,-1.230577 -0.0698,-0.234228 -0.26736,-0.409234 -0.40104,-0.613852 -0.19207,-0.0077 -0.3892,-0.06752 -0.57619,-0.02302 -0.32695,0.07782 -0.68973,0.472594 -0.87686,0.71097 -0.3896,0.496316 -0.65592,1.061617 -0.74178,1.688325 0,0.707107 1,0.707107 1,0 z" />
    <path
       style="fill:#00ff00;stroke:#3000ff;stroke-width:0;stroke-linecap:round;stroke-linejoin:round"
       id="path30100"
       d="m 175.01889,1.3378044 c 0.0268,-0.059262 0.12551,-0.1310431 0.0803,-0.1777872 -0.23295,-0.24087405 -0.48472,-0.54743898 -0.81773,-0.58471649 -0.2257,-0.0252651 -0.3578,0.28058466 -0.52487,0.43442509 -0.21958,0.2021861 -0.97766,0.9873343 -1.15196,1.2111168 -0.16545,0.2124309 -0.29452,0.4508498 -0.44178,0.6762747 -0.0429,0.2339359 -0.19399,0.4730838 -0.12877,0.7018073 0.0824,0.288943 0.27679,0.5724086 0.53563,0.7249801 0.64149,0.3781197 2.05042,0.025114 2.70555,-0.2009545 0.21084,-0.072754 0.40953,-0.1768219 0.61429,-0.2652326 0.12463,-0.09099 0.24926,-0.1819805 0.37389,-0.2729707 0.55685,-0.4358036 -0.0595,-1.2232999 -0.61631,-0.7874963 v 0 c -0.0535,0.048401 -0.10696,0.096802 -0.16043,0.1452031 -0.53112,0.2394106 -0.54923,0.2748934 -1.17739,0.4196916 -0.23305,0.053721 -0.47103,0.083273 -0.70711,0.121561 -0.13562,0.021995 -0.27982,0.00951 -0.40788,0.059269 -0.0725,0.028154 -0.0983,0.2017924 -0.16607,0.1637321 -0.0788,-0.044249 -0.0156,-0.1800802 -0.0234,-0.2701206 0.44156,-0.7064639 0.24895,-0.4702852 0.88996,-1.1473004 0.17077,-0.1803589 0.34844,-0.3540586 0.52373,-0.5300191 0.0916,-0.091954 0.307,-0.1474375 0.27697,-0.2737133 -0.31094,-1.30734406 -0.42733,-0.94461045 -0.54484,-0.64394103 -0.35086,0.61391953 0.51735,1.11011063 0.86821,0.49619113 z" />
    <path
       style="fill:#00ff00;stroke:#3000ff;stroke-width:0;stroke-linecap:round;stroke-linejoin:round"
       id="path30102"
       d="m 175.34236,2.3614324 c -0.34852,0.8329012 -0.69619,1.6669607 -0.88372,2.5532696 -0.0765,0.361546 -0.0462,0.5429986 -0.0725,0.3585872 0.4602,-0.3070014 0.56809,-0.1780895 0.36385,-0.3492056 -0.61103,-0.3558669 -1.1143,0.5082614 -0.50327,0.8641281 v 0 c 0.52337,0.2733651 0.19203,0.1882511 1.02506,-0.050537 0.036,-0.087138 0.0833,-0.1704067 0.10786,-0.2614149 0.0774,-0.2867165 0.0325,-0.5999938 0.17776,-0.8730086 0.19008,-0.6404242 0.46766,-1.2508479 0.71342,-1.8704906 0.26257,-0.6565499 -0.66593,-1.027878 -0.9285,-0.3713282 z" />
    <path
       style="fill:#00ff00;stroke:#3000ff;stroke-width:0;stroke-linecap:round;stroke-linejoin:round"
       id="path30106"
       d="m 19.677786,4.4428036 c 0.840682,-0.5514964 1.354196,-1.422541 1.525486,-2.4099287 0.117955,-0.6799487 0.0494,-0.9671008 -0.01453,-1.62332009 -0.04224,-0.16779507 -0.04813,-0.34922641 -0.126708,-0.50338519 -0.340424,-0.66788285 -0.715838,-0.37958384 -1.124149,0.42370068 -0.135723,0.26701117 -0.0289,0.59840981 -0.03625,0.8978452 -0.01701,0.6933656 -0.01334,1.5619699 -0.01379,2.2538601 0.02815,0.9659151 0.01255,1.0067231 0.09698,1.9104501 0.02196,0.2349897 0.138011,0.7855863 0.08829,1.0583135 -0.06247,0.7043422 0.933625,0.7926821 0.99609,0.08834 v 0 c 0.02429,-0.4176284 -0.04791,-0.8073263 -0.0874,-1.224298 -0.08203,-0.8661503 -0.06631,-0.8972272 -0.09396,-1.8321885 4.49e-4,-0.7711882 -0.0032,-1.4471087 0.01308,-2.2169111 0.0056,-0.26623723 0.191487,-0.58858407 0.02752,-0.79841683 -0.143985,-0.18426213 -0.47937,0.0197851 -0.698901,-0.0607753 -0.08748,-0.0321006 -0.105805,-0.3337056 -0.1345,-0.24505423 -0.03773,0.11657656 0.06617,0.2359595 0.09926,0.35393924 0.02278,0.19480024 0.06176,0.38838362 0.06833,0.58440082 0.03151,0.9393902 -0.248873,1.8756868 -1.031894,2.448914 -0.632517,0.3161041 -0.185479,1.2106188 0.447039,0.8945144 z" />
    <path
       style="fill:#00ff00;stroke:#3000ff;stroke-width:0;stroke-linecap:round;stroke-linejoin:round"
       id="path30108"
       d="m 86.783417,2.4533823 c 0.413218,-0.6895833 0.687551,-1.447297 0.925785,-2.21159331 0.02003,-0.064267 0.319849,-1.09669279 0.348382,-1.30800939 0.01275,-0.094419 -0.0099,-0.1902905 -0.01495,-0.2854358 -0.367908,0.1856183 -0.835215,0.2442665 -1.10373,0.55685505 -0.223655,0.26036354 -0.16713,0.66605225 -0.235659,1.00237628 -0.171318,0.84075427 -0.278067,1.54042607 -0.347901,2.39520727 -0.03835,0.4694492 -0.04788,1.1774464 -0.05832,1.6754837 -0.08654,0.8185724 -0.03577,0.162963 -0.01971,0.124233 0.01913,-0.0461 0.06847,-0.07263 0.102704,-0.1089448 -0.706938,0.015433 -0.68511,1.0151962 0.02183,0.9997617 v 0 c 0.169965,-0.039278 0.365225,-0.020362 0.509897,-0.1178348 0.38163,-0.2571255 0.339778,-0.5009079 0.385064,-0.8764402 0.01879,-0.9126046 0.04763,-1.8107436 0.177961,-2.7168723 0.05522,-0.3839082 0.124767,-0.76581628 0.201978,-1.14591193 0.0665,-0.32737004 0.351663,-0.66493793 0.228994,-0.97565595 -0.118766,-0.30082577 -0.546232,-0.34646058 -0.819348,-0.51969082 -5.3e-4,-0.080173 0.03451,-0.3123033 -0.0013,-0.2405187 -0.07143,0.1436035 -0.07086,0.31291941 -0.111927,0.46795852 -0.247113,0.93291229 -0.532355,1.86650988 -1.008925,2.71133378 -0.405664,0.5791673 0.413401,1.152866 0.819068,0.5736987 z" />
    <path
       style="fill:#00ff00;stroke:#3000ff;stroke-width:0;stroke-linecap:round;stroke-linejoin:round"
       id="path30112"
       d="m 50.863235,1.1378198 c -0.54863,-0.46167829 -1.213996,-0.7595044 -1.941383,-0.75418379 -0.164349,0.001201 -0.332187,0.0120973 -0.489389,0.0600503 -0.163275,0.0498047 -0.305377,0.15264093 -0.458065,0.22896139 -0.108339,0.15013453 -0.265801,0.27498701 -0.32502,0.4504036 -0.239657,0.7098977 0.293735,1.3103656 0.72498,1.7893143 0.148169,0.1645626 0.949084,0.9635926 1.10454,1.1194615 0.316357,0.3772527 0.841973,0.846785 0.626933,1.4110166 -0.213411,0.5599546 -0.813848,0.8047159 -1.300644,1.0464035 -0.562901,0.1021874 -0.719257,0.2011183 -1.274194,0.041137 -0.146524,-0.042241 -0.301609,-0.099888 -0.405773,-0.211256 -0.135178,-0.1445258 0.197615,-0.2868761 0.221692,-0.3072458 0.14148,-0.1196914 0.270383,-0.2535008 0.405574,-0.3802513 0.837785,-0.7182516 1.768335,-1.3201586 2.613229,-2.0291938 0.444979,-0.3734265 1.201751,-1.0061507 1.423617,-1.599566 0.11194,-0.2993995 0.0625,-0.6362206 0.09374,-0.9543309 C 51.56215,0.7482819 51.316305,0.33835951 50.920297,0.14776511 50.058978,-0.26677704 48.805089,-0.09592677 47.938271,0.09492989 47.493549,0.19284914 47.072526,0.37768405 46.639654,0.51906114 45.968774,0.74249189 46.284753,1.6912581 46.955633,1.4678274 v 0 c 0.375084,-0.1277064 0.740449,-0.2886504 1.125251,-0.3831189 0.412422,-0.10124935 0.83361,-0.18400509 1.257898,-0.2019427 0.516856,-0.0218509 1.028179,0.1416686 1.544376,0.1531777 0.02553,0.1361894 0.119089,0.2766913 0.07658,0.4085682 -0.166884,0.5176436 -0.848905,1.0672279 -1.207077,1.367889 -0.889093,0.7463305 -1.874846,1.3719124 -2.740835,2.1473548 -0.42832,0.5185519 -0.911407,0.8416679 -0.74763,1.6188526 0.186965,0.8872172 1.366763,1.0697239 2.078725,1.010493 0.31714,-0.026384 0.619974,-0.1439746 0.92996,-0.2159619 C 49.922567,7.0136786 50.333608,6.8881664 50.76744,6.2471318 51.300808,5.4590251 51.206317,4.6968288 50.702736,3.94043 50.55449,3.7177596 50.35886,3.5305698 50.186923,3.3256397 50.056012,3.1943958 49.283019,2.4220899 49.13817,2.2669291 48.955131,2.0708593 48.802006,1.8475242 48.612678,1.6575199 c -0.02397,-0.024056 -0.06165,-0.031138 -0.08565,-0.055161 -0.01921,-0.019234 -0.02688,-0.047274 -0.04031,-0.070911 0.03018,-0.032765 0.04931,-0.081395 0.09052,-0.098296 0.512429,-0.2101486 1.178073,0.1028409 1.578893,0.4117754 0.499999,0.5 1.207106,-0.2071068 0.707107,-0.7071068 z" />
    <path
       style="fill:#00ff00;stroke:#3000ff;stroke-width:0;stroke-linecap:round;stroke-linejoin:round"
       id="path30114"
       d="m 144.27731,-0.86547853 c -0.19038,0.15533433 -0.39483,0.29485309 -0.57112,0.466003 -1.2118,1.17646472 -2.0817,2.74672353 -2.46749,4.39146723 -0.0814,0.3470117 -0.0952,0.7064783 -0.14275,1.0597174 0.0571,0.460193 -0.003,1.1392029 0.57449,1.3805664 0.70006,0.2926409 1.21056,-0.1107358 1.64872,-0.575602 0.56176,-0.595992 0.57015,-0.8770843 0.8228,-1.6208277 -0.0596,-0.2804269 0.0154,-0.630327 -0.17869,-0.8412803 -1.00272,-1.0896194 -2.56482,-0.2405002 -3.60811,0.1829255 -0.65296,0.2713567 -0.26921,1.1947911 0.38376,0.9234347 v 0 c 1.77513,-0.7583 0.31954,-0.2058183 1.90507,-0.6520185 0.12693,-0.035723 0.23956,-0.1611969 0.3698,-0.140511 0.0942,0.014965 0.11626,0.1512989 0.17439,0.2269483 -0.18935,0.6765197 -0.0994,0.5760166 -0.53362,1.1741348 -0.0915,0.1260671 -0.23313,0.2148922 -0.30799,0.3515061 -0.0363,0.066272 0.033,0.163572 -0.009,0.2265402 -0.10464,0.1576946 -0.93044,-0.3460483 -0.2498,-0.5098574 0.0347,-0.2945132 0.0387,-0.5942732 0.10399,-0.88354 0.37204,-1.6480981 1.27233,-3.2036903 2.57085,-4.28537784 0.61817,-0.34331024 0.13266,-1.21753916 -0.48552,-0.87422889 z" />
  </g>
</svg>
