<?xml version="1.0" encoding="UTF-8" standalone="no"?>
<!-- Created with Inkscape (http://www.inkscape.org/) -->

<svg
   width="31.56868mm"
   height="48.997036mm"
   viewBox="0 0 31.56868 48.997036"
   version="1.1"
   id="svg11971"
   inkscape:version="1.2.2 (b0a8486541, 2022-12-01)"
   sodipodi:docname="aktiflik-ag-zn.svg"
   xmlns:inkscape="http://www.inkscape.org/namespaces/inkscape"
   xmlns:sodipodi="http://sodipodi.sourceforge.net/DTD/sodipodi-0.dtd"
   xmlns="http://www.w3.org/2000/svg"
   xmlns:svg="http://www.w3.org/2000/svg">
  <sodipodi:namedview
     id="namedview11973"
     pagecolor="#ffffff"
     bordercolor="#000000"
     borderopacity="0.25"
     inkscape:showpageshadow="2"
     inkscape:pageopacity="0.0"
     inkscape:pagecheckerboard="0"
     inkscape:deskcolor="#d1d1d1"
     inkscape:document-units="mm"
     showgrid="false"
     inkscape:zoom="2.3244999"
     inkscape:cx="94.859114"
     inkscape:cy="75.715211"
     inkscape:window-width="956"
     inkscape:window-height="1026"
     inkscape:window-x="0"
     inkscape:window-y="0"
     inkscape:window-maximized="1"
     inkscape:current-layer="layer1" />
  <defs
     id="defs11968" />
  <g
     inkscape:label="Layer 1"
     inkscape:groupmode="layer"
     id="layer1"
     transform="translate(-5.6240804,-105.99117)">
    <path
       style="fill:#ff0000;fill-opacity:0;stroke:#000000;stroke-width:1;stroke-linecap:round;stroke-linejoin:round;stroke-dasharray:none;stroke-opacity:1"
       d="M 6.430819,115.87528 6.12408,154.4882 36.322099,154.33483 36.628237,115.56855"
       id="path9430" />
    <path
       style="fill:#ff0000;fill-opacity:0;stroke:#01ff00;stroke-width:1;stroke-linecap:round;stroke-linejoin:round;stroke-dasharray:none;stroke-opacity:1"
       d="m 7.043692,126.14139 c 1.402736,-1.52518 1.408268,0.30613 1.992593,0.30613 0.154165,0 0.986845,-0.94322 1.07298,-1.07238 0.08959,-0.13434 0.03911,-0.3454 0.153369,-0.4595 0.451718,-0.45113 0.61568,0.66493 0.766842,0.76564 0.237942,0.15852 0.795414,-0.0926 1.07298,0 0.214154,0.0715 0.787871,0.43374 0.919613,0.46011 0.282953,0.0566 1.231696,-0.0781 1.532487,-0.15337 0.07014,-0.0175 0.08478,-0.13051 0.153369,-0.15337 0.40691,-0.13564 0.960821,0.0838 1.379717,0 0.112091,-0.0224 0.193979,-0.13456 0.306737,-0.15337 0.961395,-0.16034 1.572376,0.61287 1.685853,0.61287 0.184039,0 2.025201,-1.21488 2.452699,-1.07238 0.626506,0.20884 0.243866,1.09488 0.766844,1.22575 0.790244,0.19776 1.716061,-0.58205 2.452098,-0.76624 0.450386,-0.11271 0.926282,0.52247 1.379717,0.61287 0.700492,0.13966 1.22582,-0.56177 1.839822,-0.76564 0.296559,-0.0985 0.573733,1.14249 1.072981,1.22575 1.026478,0.17119 1.983565,-0.76343 2.912205,-1.07298 0.159242,-0.0531 0.565947,0.27141 0.919613,0.15337 0.346363,-0.11561 0.937445,-0.83401 1.379717,-0.61288 0.504486,0.25225 0.39797,1.05684 1.072978,1.22575 0.114681,0.0287 2.452698,-0.6088 2.452698,-0.61287 0,-0.0511 -0.104876,0.0162 -0.153368,0 -0.108265,-0.0361 -0.204092,-0.10224 -0.306136,-0.15337"
       id="path9434" />
    <path
       style="fill:#ff0000;fill-opacity:0;stroke:#000dff;stroke-width:3;stroke-linecap:square;stroke-linejoin:round;stroke-dasharray:none;stroke-opacity:1"
       d="m 14.554556,115.56855 0.153369,19.61319"
       id="path9690" />
    <path
       style="fill:#ff0000;fill-opacity:0;stroke:#000dff;stroke-width:1;stroke-linecap:round;stroke-linejoin:round;stroke-opacity:1"
       d="m 15.374687,113.556 c 0.683739,-2.00912 1.650584,-4.01644 1.934114,-6.1407 0.07826,-0.58633 -0.11497,-0.9097 0.113824,-0.9097 0.0677,0 0.40195,1.08541 0.45485,1.25073 0.193692,0.60531 0.349779,1.22319 0.568675,1.81984 0.198856,0.54204 0.46077,1.05886 0.682942,1.59176 0.157121,0.37687 0.26122,0.77787 0.454851,1.13735 0.02422,0.045 0.455295,0.63341 0.455295,0.34102"
       id="path13990" />
    <path
       style="fill:#0300ff;fill-opacity:0;stroke:#000dff;stroke-width:1;stroke-linecap:round;stroke-linejoin:round;stroke-opacity:1"
       d="m 16.96733,110.94073 c 0.417206,-0.18956 0.834411,-0.37912 1.251617,-0.56868"
       id="path15315" />
    <path
       style="fill:#0300ff;fill-opacity:0;stroke:#000dff;stroke-width:1;stroke-linecap:round;stroke-linejoin:round;stroke-opacity:1"
       d="m 21.631881,111.16793 c 0.157179,-0.94184 0.422333,-1.2873 -1.251617,-1.70558 -0.235493,-0.0588 -0.346268,0.35158 -0.45485,0.56867 -0.310753,0.62131 -0.364378,1.65341 0.227203,2.16043 0.11878,0.1018 0.300068,0.0944 0.455295,0.11383 0.979467,0.12249 0.823229,-0.4849 1.023969,-1.13735 0.106703,-0.34681 0.572176,-1.24418 0.341027,-1.70558 -0.09143,-0.18251 -0.198359,0.3666 -0.227203,0.56867 -0.05382,0.37705 -0.188517,0.76344 -0.113824,1.13691 0.08313,0.41563 0.393263,0.75148 0.568674,1.13735 0.372259,0.81888 1.223469,2.47017 1.137793,3.4116 -0.133343,1.46522 -2.266533,-0.24516 -2.616612,-0.6825 -0.218407,-0.27285 0.523391,-0.46375 0.796321,-0.68205 0.369998,-0.29594 0.975333,-1.04289 1.251173,-1.36456"
       id="path15317" />
    <path
       style="fill:#0300ff;fill-opacity:0;stroke:#01ff00;stroke-width:1;stroke-linecap:round;stroke-linejoin:round;stroke-opacity:1"
       d="m 11.734105,145.10742 c 0.378668,-0.15147 0.860012,-0.35701 1.251616,-0.45485 0.118016,-0.0295 1.706468,-0.20113 1.706468,-0.22765 0,-0.10335 -0.185025,0.10673 -0.341472,0.34147 -0.245127,0.36781 -0.484648,0.74165 -0.682498,1.13691 -0.64185,1.28226 -0.935903,2.73553 -1.364996,4.09409 -0.133624,0.42308 -0.455295,0.80706 -0.455295,1.25073 0,0.0126 0.401067,0.0299 0.796322,-0.11382 0.313073,-0.11382 1.968835,-0.86845 2.047939,-0.9097 0.374645,-0.19538 1.858192,-0.94761 2.275141,-1.36455"
       id="path15672" />
    <path
       style="fill:#0300ff;fill-opacity:0;stroke:#01ff00;stroke-width:1;stroke-linecap:round;stroke-linejoin:round;stroke-opacity:1"
       d="m 11.847928,147.83652 c 0.568823,-0.15162 1.137645,-0.30323 1.706468,-0.45485"
       id="path15674" />
    <path
       style="fill:#0300ff;fill-opacity:0;stroke:#01ff00;stroke-width:1;stroke-linecap:round;stroke-linejoin:round;stroke-opacity:1"
       d="m 16.739682,146.47197 c 0.417206,0.64441 0.937428,1.23279 1.251617,1.93323 0.188732,0.42074 0.157467,0.90878 0.227648,1.36455 0.0058,0.0375 0.02683,0.14065 0,0.11382 -0.786119,-0.78612 -0.158239,-4.98847 0.910145,-5.34483 1.20828,-0.40302 0.840175,2.74206 1.592644,2.95675 0.150294,0.0429 0.303233,-0.0759 0.45485,-0.11382"
       id="path15676" />
    <path
       style="fill:#0300ff;fill-opacity:0;stroke:#01ff00;stroke-width:1;stroke-linecap:round;stroke-linejoin:round;stroke-opacity:1"
       d="m 20.607912,141.80964 c 0,-0.95833 -0.187817,-0.60806 0.341471,-1.13735 0.485132,-0.48513 0.682498,0.90293 0.682498,1.13735 0,0.72436 -0.16127,0.81811 -0.341471,1.47838 -0.0509,0.18649 -0.0179,0.40083 -0.113824,0.56867 -0.08574,0.15002 -0.829472,0.53553 -1.023969,0.34103 -0.144476,-0.14448 0.37264,-0.17159 0.569119,-0.22765 0.598944,-0.17089 0.149691,-0.0744 0.910145,-0.45485 0.354836,-0.1775 0.441959,-0.0462 0.796322,-0.34103 0.14567,-0.1212 0.207293,-0.32059 0.341027,-0.45485"
       id="path15684" />
    <path
       style="fill:#0300ff;fill-opacity:0;stroke:#01ff00;stroke-width:1;stroke-linecap:round;stroke-linejoin:round;stroke-opacity:1"
       d="m 23.224525,140.21744 c 0.303381,0.68235 0.606763,1.3647 0.910145,2.04705"
       id="path15686" />
    <path
       style="fill:#0300ff;fill-opacity:0;stroke:#01ff00;stroke-width:1;stroke-linecap:round;stroke-linejoin:round;stroke-opacity:1"
       d="m 22.76923,141.58199 c -0.05187,-0.47515 1.479264,-0.22248 1.479264,-0.56867"
       id="path15688" />
  </g>
</svg>
