<?xml version="1.0" encoding="UTF-8" standalone="no"?>
<!-- Created with Inkscape (http://www.inkscape.org/) -->

<svg
   width="31.568771mm"
   height="48.996986mm"
   viewBox="0 0 31.568771 48.996986"
   version="1.1"
   id="svg5"
   inkscape:version="1.2.2 (b0a8486541, 2022-12-01)"
   sodipodi:docname="aktiflik-zn-h.svg"
   xmlns:inkscape="http://www.inkscape.org/namespaces/inkscape"
   xmlns:sodipodi="http://sodipodi.sourceforge.net/DTD/sodipodi-0.dtd"
   xmlns="http://www.w3.org/2000/svg"
   xmlns:svg="http://www.w3.org/2000/svg">
  <sodipodi:namedview
     id="namedview7"
     pagecolor="#ffffff"
     bordercolor="#000000"
     borderopacity="0.25"
     inkscape:showpageshadow="2"
     inkscape:pageopacity="0.0"
     inkscape:pagecheckerboard="0"
     inkscape:deskcolor="#d1d1d1"
     inkscape:document-units="mm"
     showgrid="true"
     inkscape:zoom="1.6877233"
     inkscape:cx="33.477052"
     inkscape:cy="22.51554"
     inkscape:window-width="1916"
     inkscape:window-height="1026"
     inkscape:window-x="0"
     inkscape:window-y="0"
     inkscape:window-maximized="1"
     inkscape:current-layer="layer1">
    <inkscape:grid
       type="xygrid"
       id="grid2140"
       units="mm"
       spacingx="2"
       spacingy="2"
       empcolor="#e50047"
       empopacity="0.30196078"
       originx="-29.53686"
       originy="-10.777539" />
  </sodipodi:namedview>
  <defs
     id="defs2" />
  <g
     inkscape:label="Layer 1"
     inkscape:groupmode="layer"
     id="layer1"
     transform="translate(-29.53686,-10.777539)">
    <path
       style="fill:#ff0000;fill-opacity:0;stroke:#000000;stroke-width:1;stroke-linecap:round;stroke-linejoin:round;stroke-dasharray:none;stroke-opacity:1"
       d="M 30.343599,20.661612 30.03686,59.274527 60.234879,59.12116 60.541017,20.354876"
       id="path9430" />
    <path
       style="fill:#ff0000;fill-opacity:0;stroke:#ff0000;stroke-width:1;stroke-linecap:round;stroke-linejoin:round;stroke-dasharray:none;stroke-opacity:1"
       d="m 30.956472,30.927717 c 1.402736,-1.525172 1.408268,0.306136 1.992593,0.306136 0.154165,0 0.986845,-0.943218 1.07298,-1.07238 0.08959,-0.134342 0.03911,-0.3454 0.153369,-0.459507 0.451718,-0.451128 0.61568,0.664935 0.766842,0.765646 0.237942,0.158522 0.795414,-0.09264 1.07298,0 0.214154,0.07148 0.787871,0.433734 0.919613,0.460105 0.282953,0.05663 1.231696,-0.0781 1.532487,-0.153368 0.07014,-0.01754 0.08478,-0.130506 0.153369,-0.153369 0.40691,-0.135638 0.960821,0.08384 1.379717,0 0.112091,-0.02244 0.193979,-0.134564 0.306737,-0.153368 0.961395,-0.160338 1.572376,0.612873 1.685853,0.612873 0.184039,0 2.025201,-1.21488 2.452699,-1.07238 0.626506,0.208835 0.243866,1.094877 0.766844,1.225748 0.790244,0.197755 1.716061,-0.582054 2.452098,-0.766241 0.450386,-0.112707 0.926282,0.52247 1.379717,0.612873 0.700492,0.13966 1.22582,-0.561774 1.839822,-0.765644 0.296559,-0.09847 0.573733,1.142487 1.072981,1.225749 1.026478,0.171193 1.983565,-0.763432 2.912205,-1.072978 0.159242,-0.05308 0.565947,0.271409 0.919613,0.153368 0.346363,-0.115607 0.937445,-0.834011 1.379717,-0.612875 0.504486,0.252243 0.39797,1.056833 1.072978,1.225748 0.114681,0.0287 2.452698,-0.608798 2.452698,-0.612873 0,-0.05112 -0.104876,0.01619 -0.153368,0 -0.108265,-0.03614 -0.204092,-0.102245 -0.306136,-0.153368"
       id="path9434" />
    <path
       style="fill:#ff0000;fill-opacity:0;stroke:#00a3ff;stroke-width:3;stroke-linecap:square;stroke-linejoin:round;stroke-dasharray:none;stroke-opacity:1"
       d="m 38.467336,20.354875 0.153369,19.613194"
       id="path9690" />
    <path
       style="fill:#ff0000;fill-opacity:0;stroke:#00a3ff;stroke-width:1;stroke-linecap:round;stroke-linejoin:round;stroke-dasharray:none;stroke-opacity:1"
       d="m 35.537952,14.669285 c -0.321162,-0.565408 -0.227166,-1.174691 0.156752,-1.692657 0.230931,-0.311562 0.432147,-0.566493 0.815383,-0.689637 0.311957,-0.100241 0.57033,0.0067 0.878009,0.03125 0.32454,0.02592 0.600387,-0.01326 0.909386,-0.15663 0.19268,-0.0894 0.421952,-0.35499 0.53313,-0.532885 0.04218,-0.0675 0.07975,-0.141193 0.094,-0.219502 0.0077,-0.04238 -0.0074,-0.161218 -0.03125,-0.125377 -0.06051,0.09079 -0.06575,0.208149 -0.09412,0.313504 -0.04481,0.166386 -0.08438,0.334144 -0.125378,0.50151 -0.08442,0.344605 -0.17021,0.688893 -0.250878,1.034395 -0.363027,1.554843 -0.633521,3.146685 -1.379887,4.576584 -0.302443,0.579423 -0.481581,0.792135 -0.94076,1.285149 -0.08575,0.09207 -0.193149,0.161801 -0.282131,0.250755 -0.03696,0.03695 -0.146383,0.125377 -0.09412,0.125377 0.07536,0 0.122692,-0.088 0.188129,-0.125377 0.381714,-0.218032 0.778539,-0.408869 1.160261,-0.626887 0.912762,-0.521318 1.844056,-1.044998 2.696903,-1.661405 1.008626,-0.728999 0.903235,-0.649478 1.505141,-1.191147"
       id="path10521" />
    <path
       style="fill:#ff0000;fill-opacity:0;stroke:#00a3ff;stroke-width:1;stroke-linecap:round;stroke-linejoin:round;stroke-dasharray:none;stroke-opacity:1"
       d="m 36.698213,15.42155 c 0.771232,-0.557748 1.526241,-1.145874 2.257777,-1.755407"
       id="path10525" />
    <path
       style="fill:#ff0000;fill-opacity:0;stroke:#00a3ff;stroke-width:1;stroke-linecap:round;stroke-linejoin:round;stroke-dasharray:none;stroke-opacity:1"
       d="m 42.405524,12.537746 c 0.985385,0.773838 0.371814,0.171247 1.191636,2.288291"
       id="path10527" />
    <path
       style="fill:#ff0000;fill-opacity:0;stroke:#00a3ff;stroke-width:1;stroke-linecap:round;stroke-linejoin:round;stroke-dasharray:none;stroke-opacity:1"
       d="m 43.095407,12.537746 c 0.449157,-0.905064 0.475393,-0.895583 1.850144,-0.28213 0.15884,0.07088 0.162134,0.313084 0.282252,0.438882 0.239937,0.25128 0.472347,0.280311 0.783886,0.376133"
       id="path10529" />
    <path
       style="fill:#ff0000;fill-opacity:0;stroke:#ff0000;stroke-width:1;stroke-linecap:round;stroke-linejoin:round;stroke-dasharray:none;stroke-opacity:1"
       d="m 41.817364,44.532039 c 0.06271,-0.167172 0.07926,-0.359998 0.188129,-0.50151 0.03185,-0.0414 0.111628,0.04361 0.125378,0.094 0.08366,0.306589 0.115586,0.62529 0.156874,0.940393 0.173456,1.323819 0.226444,2.082067 0.313505,3.416689 0.02522,0.386376 0.03184,0.773932 0.06275,1.159893 0.03108,0.38821 0.163584,0.508342 0.03138,0.376135"
       id="path10531" />
    <path
       style="fill:#ff0000;fill-opacity:0;stroke:#ff0000;stroke-width:1;stroke-linecap:round;stroke-linejoin:round;stroke-dasharray:none;stroke-opacity:1"
       d="m 42.789377,46.788956 c 0.491296,-0.09404 0.982593,-0.188087 1.47389,-0.282131"
       id="path10740" />
    <path
       style="fill:#ff0000;fill-opacity:0;stroke:#ff0000;stroke-width:1;stroke-linecap:round;stroke-linejoin:round;stroke-dasharray:none;stroke-opacity:1"
       d="m 44.42002,43.999152 c 0.846148,1.831671 0.153357,0.262004 1.285761,4.984091"
       id="path10742" />
    <path
       style="fill:#ff0000;fill-opacity:0;stroke:#ff0000;stroke-width:1;stroke-linecap:round;stroke-linejoin:round;stroke-dasharray:none;stroke-opacity:1"
       d="m 46.238911,43.779773 c 0.02593,0.404347 -0.05145,0.796589 -0.1255,1.191149"
       id="path10744" />
    <path
       style="fill:#ff0000;fill-opacity:0;stroke:#ff0000;stroke-width:1;stroke-linecap:round;stroke-linejoin:round;stroke-dasharray:none;stroke-opacity:1"
       d="m 45.298153,44.626164 c 0.58596,-0.418451 0.136017,-0.123375 1.473888,-0.658264"
       id="path10746" />
    <path
       style="fill:#ff0000;fill-opacity:0;stroke:#ff0000;stroke-width:1;stroke-linecap:round;stroke-linejoin:round;stroke-dasharray:none;stroke-opacity:1"
       d="m 47.555927,47.478592 c -0.06271,0.114919 -0.152664,0.218737 -0.188129,0.344758 -0.189704,0.674134 -0.18266,1.845294 0.125378,2.476418 0.08757,0.179429 0.271836,0.292507 0.407752,0.438761"
       id="path10779" />
    <path
       style="fill:#ff0000;fill-opacity:0;stroke:#ff0000;stroke-width:1;stroke-linecap:round;stroke-linejoin:round;stroke-dasharray:none;stroke-opacity:1"
       d="m 50.033327,47.165087 c -0.140412,-0.07011 -0.238914,-0.163896 -0.407752,-0.06263 -0.506685,0.303905 -1.096206,2.179539 -0.376256,2.350918 0.142356,0.03389 0.300175,0.04627 0.439004,0 0.1871,-0.06235 0.348216,-0.189736 0.501756,-0.313505 0.268949,-0.2168 0.4239,-0.414351 0.627132,-0.658262"
       id="path10785" />
    <path
       style="fill:#ff0000;fill-opacity:0;stroke:#ff0000;stroke-width:1;stroke-linecap:round;stroke-linejoin:round;stroke-dasharray:none;stroke-opacity:1"
       d="m 50.127328,46.788956 c 0.459923,0.553799 0.919845,1.107601 1.379765,1.661403"
       id="path10787" />
    <path
       style="fill:#ff0000;fill-opacity:0;stroke:#ff0000;stroke-width:1;stroke-linecap:round;stroke-linejoin:round;stroke-dasharray:none;stroke-opacity:1"
       d="m 53.231861,45.785936 c -0.09828,-0.207409 -0.197016,-0.642943 -0.470381,-0.721013 -0.254958,-0.07282 -0.360516,0.133069 -0.470379,0.313505 -0.247282,0.406132 -0.424847,0.897588 -0.40763,1.379151 0.01863,0.521345 0.211521,1.228791 0.878009,1.159896 0.174297,-0.01802 0.35021,-0.06879 0.501756,-0.156752 0.470995,-0.273381 0.487143,-0.43892 0.721257,-0.877644"
       id="path10793" />
    <path
       style="fill:#ff0000;fill-opacity:0;stroke:#ff0000;stroke-width:1;stroke-linecap:round;stroke-linejoin:round;stroke-dasharray:none;stroke-opacity:1"
       d="m 53.012358,45.347053 c 0.964081,1.13959 1.614217,2.492238 2.195147,3.855572 0.299897,0.703805 0.230804,0.504161 0.344879,0.846389"
       id="path10803" />
    <path
       style="fill:#ff0000;fill-opacity:0;stroke:#ff0000;stroke-width:1;stroke-linecap:round;stroke-linejoin:round;stroke-dasharray:none;stroke-opacity:1"
       d="m 53.921744,44.469409 c 0.479129,0.368231 0.839115,0.946031 1.191636,1.410528"
       id="path10805" />
  </g>
</svg>
