<?xml version="1.0" encoding="UTF-8" standalone="no"?>
<!-- Created with Inkscape (http://www.inkscape.org/) -->

<svg
   width="114.58458mm"
   height="103.2693mm"
   viewBox="0 0 114.58458 103.2693"
   version="1.1"
   id="svg32567"
   inkscape:version="1.2.2 (b0a8486541, 2022-12-01)"
   sodipodi:docname="derişim-elektrotu.svg"
   xmlns:inkscape="http://www.inkscape.org/namespaces/inkscape"
   xmlns:sodipodi="http://sodipodi.sourceforge.net/DTD/sodipodi-0.dtd"
   xmlns="http://www.w3.org/2000/svg"
   xmlns:svg="http://www.w3.org/2000/svg">
  <sodipodi:namedview
     id="namedview32569"
     pagecolor="#ffffff"
     bordercolor="#000000"
     borderopacity="0.25"
     inkscape:showpageshadow="2"
     inkscape:pageopacity="0.0"
     inkscape:pagecheckerboard="0"
     inkscape:deskcolor="#d1d1d1"
     inkscape:document-units="mm"
     showgrid="true"
     inkscape:zoom="0.72814814"
     inkscape:cx="390.71719"
     inkscape:cy="-82.400814"
     inkscape:window-width="1916"
     inkscape:window-height="1026"
     inkscape:window-x="0"
     inkscape:window-y="0"
     inkscape:window-maximized="1"
     inkscape:current-layer="layer1">
    <inkscape:grid
       type="xygrid"
       id="grid34870"
       spacingx="5"
       spacingy="5"
       empspacing="1"
       units="mm"
       originx="-35.289351"
       originy="-48.141029" />
  </sodipodi:namedview>
  <defs
     id="defs32564" />
  <g
     inkscape:label="Layer 1"
     inkscape:groupmode="layer"
     id="layer1"
     transform="translate(-35.28935,-48.14103)">
    <path
       style="fill:#ff0000;fill-opacity:0.00961142;stroke:#000000;stroke-width:1;stroke-linecap:round;stroke-linejoin:round;stroke-dasharray:none"
       d="m 35.78935,80.606894 0.667423,70.015376 H 81.817985 V 80.940607"
       id="path1505" />
    <path
       style="fill:#ff0000;fill-opacity:0.00961142;stroke:#000000;stroke-width:1;stroke-linecap:round;stroke-linejoin:round;stroke-dasharray:none"
       d="m 94.269221,80.89498 0.667423,70.01535 H 140.29785 V 81.228693"
       id="path1505-3" />
    <path
       style="fill:#ff0000;fill-opacity:0.00961142;stroke:#002aff;stroke-width:1;stroke-linecap:round;stroke-linejoin:round;stroke-dasharray:none;stroke-opacity:1"
       d="m 37.20917,94.959493 c 0.666215,-0.01913 1.529225,0.302604 2.216973,0.130501 0.06032,-0.01511 0.27088,-0.190812 0.391501,-0.130501 0.345186,0.172593 0.740685,0.178666 1.173993,0.130501 0.735759,-0.08179 0.333349,-0.154586 1.04349,-0.390991 0.08239,-0.02743 0.178129,0.02749 0.260491,0 0.05835,-0.01947 0.06898,-0.1305 0.1305,-0.1305 0.0435,0 -0.01378,0.08924 0,0.1305 0.01998,0.05985 0.149294,0.353753 0.261001,0.390991 0.425871,0.141957 0.957104,-0.0868 1.304494,-0.260493 0.05502,-0.02751 0.06898,-0.130498 0.1305,-0.130498 0.09712,0 0.165262,0.111437 0.26049,0.130498 0.127961,0.02561 0.263515,-0.02551 0.391499,0 0.01865,0.0037 0.503121,0.255894 0.521491,0.260493 0.216958,0.05429 0.88509,0.02728 1.043493,-0.130501 0.0307,-0.03058 -0.04333,-0.129992 0,-0.129992 0.10609,0 0.559538,0.476867 0.782492,0.521491 0.28149,0.05634 0.88401,0.05922 1.043493,-0.260998 0.01939,-0.03894 -0.03076,-0.09974 0,-0.130501 0.05416,-0.05416 0.582504,0.243483 0.652499,0.261001 0.466831,0.116822 0.798613,-0.203668 1.173994,-0.390993 0.120763,-0.06026 0.44169,0.938538 1.303983,0.651484 0.215603,-0.07178 0.840406,-0.876192 0.912989,-0.912482 0.163222,-0.08161 0.135359,0.1774 0.261001,0.260998 0.216903,0.14432 0.806516,0.248018 1.043493,0.129992 0.154594,-0.077 0.482238,-0.410657 0.521491,-0.39099 0.21712,0.108773 0.401847,0.307546 0.6525,0.39099 1.294654,0.430988 1.961488,-0.0021 2.999975,-0.521491 0.168325,-0.08416 0.133075,0.08797 0.260493,0.130501 0.425027,0.141859 1.616419,0.07957 1.956483,-0.260493 0.03076,-0.03076 -0.03076,-0.09974 0,-0.130498 0.123031,-0.123031 0.146047,0.333513 0.261001,0.390991 0.153111,0.07655 1.077695,0.02747 1.17399,0 0.139864,-0.03991 0.734166,-0.610905 0.912993,-0.521491 0.490016,0.245007 1.226507,0.671359 1.825984,0.521491 0.353031,-0.08826 0.738344,-0.368919 1.043491,-0.521491 0.132445,-0.06622 1.2144,-0.09009 1.304493,0 0.03076,0.03076 -0.03076,0.09974 0,0.1305 0.06034,0.06034 0.312187,-0.03948 0.390991,0 0.348327,0.174503 0.756759,0.382413 1.173991,0.521491 0.425259,0.141753 0.745254,-0.273415 1.173993,-0.1305 0.116723,0.03891 0.150931,0.206018 0.261001,0.260998 0.31007,0.154884 0.832236,0.333997 1.17399,0.390993 0.693066,0.115586 1.358064,-0.321757 1.956486,-0.521491 0.266086,-0.08881 0.63814,0.04584 0.912989,0 0.412615,-0.06882 0.792147,-0.133723 1.173483,-0.261001 0.203158,-0.06781 0.591815,0.391499 0.912992,0.391499 0.65872,0 1.2039,-0.391499 1.826493,-0.391499 0.160878,0 0.936755,-0.106738 1.043493,0 0.03076,0.03076 -0.0307,0.09968 0,0.130501 0.08231,0.08263 0.413208,-0.05414 0.521491,0 0.05502,0.02751 0.07214,0.111045 0.130501,0.1305 0.257577,0.08586 0.514556,-0.1305 0.782492,-0.1305 0.708191,0 0.333359,0.355065 1.304491,-0.130501"
       id="path11266" />
    <path
       style="fill:#ff0000;fill-opacity:0.00961142;stroke:#002aff;stroke-width:1;stroke-linecap:round;stroke-linejoin:round;stroke-dasharray:none;stroke-opacity:1"
       d="m 95.251177,94.699003 c 0.327867,-0.06557 1.129864,-0.233243 1.434992,-0.261001 0.389723,-0.03545 0.787993,-0.06437 1.173993,0 0.536797,0.08952 0.976088,0.359148 1.564982,0.261001 0.47445,-0.07908 0.862386,-0.374123 1.304496,-0.521491 0.40928,-0.136427 0.85951,0.03626 1.30398,-0.1305 0.27314,-0.102479 0.49127,-0.390991 0.783,-0.390991 0.0433,0 -0.0193,0.09122 0,0.12999 0.0907,0.181697 0.6265,1.173482 0.91299,1.173482 0.18771,0 0.95381,-0.303053 1.17348,-0.39099 0.14552,-0.05826 0.23475,-0.260493 0.3915,-0.260493 0.0433,0 -0.0307,0.09941 0,0.129992 0.0308,0.0307 0.0997,-0.03076 0.1305,0 0.174,0.174001 -0.27683,0.125222 0.1305,0.261001 0.23342,0.07781 0.6635,0.172109 0.91299,0.130498 0.1477,-0.02463 0.87541,-0.298582 1.0435,-0.130498 0.18391,0.183909 -0.15502,0.369351 0.39099,0.26049 0.61341,-0.122298 1.21081,-0.398258 1.82649,-0.521491 0.81254,-0.162636 0.50356,0.48431 1.56498,0.130501 0.26716,-0.08905 1.00002,-0.804532 1.3045,-0.651992 0.39482,0.197795 0.39311,0.678434 0.91299,0.782492 0.47672,0.09542 1.02498,-0.05705 1.43448,-0.261001 0.055,-0.02737 0.0691,-0.129992 0.1305,-0.129992 0.10595,0 0.89438,0.521491 1.04349,0.521491 0.0973,0 0.16664,-0.106886 0.261,-0.130498 0.19998,-0.05004 0.45682,0.06506 0.65199,0 0.63601,-0.212002 1.14885,-0.697809 1.82599,-0.782492 0.74218,-0.09282 0.73674,0.332981 1.30449,0.521491 0.5702,0.189326 1.29648,-0.15459 1.82598,-0.26049 0.42736,-0.08547 0.50249,0.03717 0.78249,0.130498 0.23432,0.07811 0.54222,-0.05989 0.7825,0 0.0943,0.02352 0.16668,0.106505 0.261,0.129992 0.48333,0.120359 0.98249,-0.147365 1.43499,-0.26049 0.32744,-0.08186 0.71213,0.06632 1.04349,0 0.13473,-0.02697 0.25627,-0.103534 0.39099,-0.1305 0.86307,-0.172749 1.20985,0.726868 1.82598,0.521491 0.32316,-0.10772 0.80139,-0.577297 1.174,-0.390991 0.4527,0.226351 0.36858,0.487461 1.04349,0.390991 0.28685,-0.041 1.47349,-0.501989 1.69548,-0.390991 0.20208,0.101034 0.4615,0.457782 0.6525,0.521491 0.32996,0.110056 0.70606,0.0844 1.04349,0 0.0435,-0.01087 1.05954,-0.635886 1.17349,-0.521491 0.0951,0.09545 0.0432,0.434369 0.261,0.521491 0.42096,0.168384 1.41802,0.306266 1.82598,0 0.0156,-0.01169 0.21802,-0.563798 0.3915,-0.390993 0.0307,0.03058 -0.0307,0.09941 0,0.129992 0.23966,0.238718 1.82599,0.03517 1.82599,0 0,-0.137559 -0.29424,0.03323 -0.3915,0.130501"
       id="path11268" />
    <path
       style="fill:#ff0000;fill-opacity:0.00961142;stroke:#ff0025;stroke-width:5.2;stroke-linecap:square;stroke-linejoin:round;stroke-dasharray:none;stroke-opacity:1"
       d="m 69.987173,112.39043 c 0,0 -0.726366,-31.641169 10.102888,-40.245551 3.439414,-2.732786 9.642126,-2.84547 13.176612,-0.236812 11.334207,8.365312 11.727637,40.601073 11.727637,40.601073"
       id="path11337"
       sodipodi:nodetypes="caac" />
    <path
       style="fill:#ff7c00;fill-opacity:0;stroke:#ff7c00;stroke-width:1;stroke-linecap:butt;stroke-linejoin:round;stroke-dasharray:none;stroke-opacity:1"
       d="M 43.242301,67.096718 V 48.641031 l 83.699689,-10e-7 -0.17525,17.752647"
       id="path12906" />
    <rect
       style="fill:#ff7c00;fill-opacity:1;stroke:#000000;stroke-width:1.0239;stroke-linecap:round;stroke-linejoin:round;stroke-opacity:0.00522545"
       id="rect46835"
       width="8.9667645"
       height="48.626701"
       x="122.79802"
       y="64.810631" />
    <rect
       style="fill:#ff7c00;fill-opacity:1;stroke:#000000;stroke-width:1.0239;stroke-linecap:round;stroke-linejoin:round;stroke-opacity:0.00522545"
       id="rect46835-5"
       width="8.9667645"
       height="48.626701"
       x="39.119728"
       y="64.47464" />
    <path
       style="fill:#ff7c00;fill-opacity:0;stroke:#000000;stroke-width:1;stroke-linecap:round;stroke-linejoin:round;stroke-opacity:0.00522545"
       d="m 50.574334,67.550857 c 0.159393,0.279056 0.199122,0.996559 0.478178,0.837166 0.279054,-0.159393 -0.497067,-0.516353 -0.478178,-0.837166 0.02619,-0.444693 0.497633,-0.761164 0.597839,-1.195213 0.1437,-0.622445 0.05758,-1.276921 0.119663,-1.912715 0.09753,-0.998812 0.244933,-1.992146 0.358984,-2.989204 0.0455,-0.397804 0.09466,-0.795599 0.11966,-1.195216 0.01492,-0.238699 0.03384,-0.48074 0,-0.717502 -0.008,-0.05584 -0.13073,-0.174972 -0.11966,-0.11966 0.158387,0.791321 0.54201,1.520597 0.837163,2.271702 0.231637,0.589465 0.880507,2.336733 1.315344,2.988735 0.224189,0.336151 1.076486,1.057458 1.076486,0.478179"
       id="path48982" />
    <path
       style="fill:#ff7c00;fill-opacity:0;stroke:#ff7c00;stroke-width:1;stroke-linecap:round;stroke-linejoin:round;stroke-opacity:1"
       d="m 49.737168,67.550857 c 1.199965,-1.954352 2.024597,-4.0968 2.511491,-6.335987 0.09466,-0.435322 0.184015,-0.872832 0.239324,-1.314876 0.02474,-0.197739 -0.141187,-0.738479 0,-0.597842 0.123796,0.123312 0.445286,4.193008 0.478179,4.423275 0.158702,1.110916 0.291819,1.684639 0.71797,2.749878 0.120523,0.301268 0.580745,0.700408 0.358519,0.478181 -0.302244,-0.302244 -0.18895,-0.138377 -0.358519,-0.478181"
       id="path49835" />
    <path
       style="fill:#ff7c00;fill-opacity:0;stroke:#ff7c00;stroke-width:1;stroke-linecap:round;stroke-linejoin:round;stroke-opacity:1"
       d="m 51.411496,64.681784 c 0.351928,0.269352 1.029267,-0.238855 1.435005,-0.238855"
       id="path49839" />
    <path
       style="fill:#ff7c00;fill-opacity:0;stroke:#ff7c00;stroke-width:1;stroke-linecap:round;stroke-linejoin:round;stroke-opacity:1"
       d="m 56.075963,62.769067 c -0.54338,-0.325856 -0.465537,-0.484646 -0.956826,-0.239324 -0.944105,0.47144 -0.179581,2.295385 0.358984,2.510557 0.896628,0.358233 1.128136,-1.157838 0.95636,-1.673392 -0.07345,-0.220453 -0.302318,-0.823309 -0.358518,-0.597841 -0.08887,0.356528 0.193704,0.711424 0.239323,1.07602 0.03463,0.276741 -0.01543,0.558226 0,0.836697 0.05927,1.069965 0.590466,4.47289 0,5.260438 -0.313338,0.41792 -1.931918,-2.133774 -1.793991,-2.271702 0.29014,-0.290136 0.729832,-0.377584 1.076021,-0.597842 0.676307,-0.430289 1.345917,-0.866801 1.913652,-1.434536"
       id="path49843" />
    <path
       style="fill:#ff7c00;fill-opacity:0;stroke:#ff7c00;stroke-width:1;stroke-linecap:round;stroke-linejoin:round;stroke-opacity:1"
       d="m 59.931778,60.863831 c -0.445222,2.520611 -0.560528,1.441156 0.119661,3.706238 0.0091,0.03024 0.304617,1.195682 0.597842,1.195682 0.07977,0 -0.03989,-0.119663 -0.119661,-0.119663"
       id="path49845" />
    <path
       style="fill:#ff7c00;fill-opacity:0;stroke:#ff7c00;stroke-width:1;stroke-linecap:round;stroke-linejoin:round;stroke-opacity:1"
       d="m 62.203946,63.254725 c -0.159393,-1.035976 -0.290661,-2.076672 -0.478179,-3.107931 -0.02851,-0.156821 -0.02257,0.320392 0,0.478179 0.200192,1.399773 0.513302,2.808804 0.837165,4.183952 0.07775,0.330123 0.236736,0.715745 0,0.597839 -0.322267,-0.160502 0.46717,-3.097403 0.837163,-3.466915 0.400471,-0.399947 0.08837,0.976998 -0.11966,1.434539 -0.06437,0.141568 -0.841497,1.06784 -0.717503,1.315342 0.122629,0.244779 0.764583,0.119195 0.956826,0.119195 0.318942,0 0.641088,-0.04511 0.956824,0 0.489259,0.06989 0.597841,0.242636 0.597841,-0.358519"
       id="path49847" />
    <path
       style="fill:#ff7c00;fill-opacity:0;stroke:#ff7c00;stroke-width:1;stroke-linecap:round;stroke-linejoin:round;stroke-opacity:1"
       d="m 64.596245,59.309632 c 0.358828,0.358671 0.775475,0.667612 1.076486,1.076018 0.563824,0.764989 1.353603,2.746734 1.315344,3.706241 -0.04054,1.016772 -0.625316,2.420059 -0.956826,3.347251"
       id="path49851" />
    <path
       style="fill:#ff7c00;fill-opacity:0;stroke:#ff7c00;stroke-width:1;stroke-linecap:round;stroke-linejoin:round;stroke-opacity:1"
       d="m 133.72467,66.841303 c 1.28151,-2.990744 0.40776,-0.746136 1.31535,-7.89019 0.0201,-0.158123 -0.11271,-0.590886 0,-0.478179 0.17827,0.178277 0.15534,0.47978 0.23932,0.717503 0.15536,0.439793 0.30534,0.88184 0.47865,1.314876 0.40443,1.010531 0.9185,1.975196 1.31534,2.988736 0.18378,0.469397 0.31921,0.95632 0.47865,1.434536 0.0797,0.239133 0.15917,0.478356 0.23885,0.717503 0.0398,0.119528 0.24565,0.358518 0.11966,0.358518 -0.26147,0 -0.23932,-0.323567 -0.23932,-0.478179"
       id="path49853" />
    <path
       style="fill:#ff7c00;fill-opacity:0;stroke:#ff7c00;stroke-width:1;stroke-linecap:round;stroke-linejoin:round;stroke-opacity:1"
       d="m 133.60501,63.374388 c 0.75739,-0.07962 1.51478,-0.159239 2.27217,-0.238858"
       id="path49855" />
    <path
       style="fill:#ff7c00;fill-opacity:0;stroke:#ff7c00;stroke-width:1;stroke-linecap:round;stroke-linejoin:round;stroke-opacity:1"
       d="m 140.06347,63.852567 c -0.0399,-0.239011 0.003,-0.508204 -0.11966,-0.717037 -2.05402,-3.489983 -1.89393,1.076021 -0.83717,1.076021 0.96271,0 1.07047,-0.46056 1.31535,-1.195681 0.0178,-0.05352 -0.0974,0.06781 -0.11967,0.11966 -0.0992,0.231564 -0.25682,0.465754 -0.23885,0.717037 0.0811,1.134539 2.06025,3.512656 0.47818,4.304078 -0.45107,0.225644 -1.79399,-0.05248 -1.79399,-0.717503 0,-0.199342 0.30955,-0.252947 0.47864,-0.358515 0.82811,-0.517012 1.63798,-1.117442 2.5115,-1.5542"
       id="path49857" />
    <path
       style="fill:#ff7c00;fill-opacity:0;stroke:#ff7c00;stroke-width:1;stroke-linecap:round;stroke-linejoin:round;stroke-opacity:1"
       d="m 143.53178,61.581333 c -0.69054,1.122638 -0.88213,2.70528 0.11967,3.70577 0.0229,0.02283 0.15121,0.207645 0.23885,0.119661 0.11877,-0.119237 -0.16199,-0.401309 -0.23885,-0.478179"
       id="path49859" />
    <path
       style="fill:#ff7c00;fill-opacity:0;stroke:#ff7c00;stroke-width:1;stroke-linecap:round;stroke-linejoin:round;stroke-opacity:1"
       d="m 145.32578,63.374388 c 0.1195,0.438447 0.23368,0.87838 0.35851,1.315342 0.0346,0.121139 0.0891,0.236299 0.11966,0.358518 0.01,0.03869 -0.0399,0.119661 0,0.119661 0.40279,0 0.3581,-1.052132 0.59831,-1.628519 0.0692,-0.166161 0.26291,-0.251335 0.35852,-0.40386 0.067,-0.106873 0.0497,-0.254034 0.11966,-0.358984 0.0313,-0.04693 0.14063,0.06729 0.11966,0.119661 -0.0662,0.165476 -0.17668,0.311309 -0.23932,0.478181 -0.0577,0.153826 -0.0529,0.328028 -0.11966,0.478179 -0.007,0.01588 -1.13652,1.67386 -0.59784,1.67386 0.46579,0 1.12557,-0.358518 1.67432,-0.358518 0.0798,0 0.19343,0.06525 0.23933,0 0.0917,-0.130376 0,-0.318786 0,-0.478179"
       id="path49861" />
    <path
       style="fill:#ff7c00;fill-opacity:0;stroke:#ff7c00;stroke-width:1;stroke-linecap:round;stroke-linejoin:round;stroke-opacity:1"
       d="m 147.95693,61.015744 c 1.30359,4.264308 2.23171,3.025299 0.35898,4.630344"
       id="path49863" />
    <path
       style="fill:#ff7c00;fill-opacity:0;stroke:#ff7c00;stroke-width:1;stroke-linecap:round;stroke-linejoin:round;stroke-opacity:1"
       d="m 45.687837,140.17425 c 0.92856,-1.91216 1.888363,-3.74716 2.27217,-5.85828 0.06455,-0.35506 0.11966,-0.71514 0.11966,-1.07602 0,-0.20323 0.08357,-0.59784 -0.11966,-0.59784 -0.203235,0 -0.09594,0.396 -0.119663,0.59784 -0.056,0.47655 -0.08379,0.95602 -0.119192,1.43454 -0.1127,1.52308 -0.119663,3.01778 -0.119663,4.54293 0,0.50857 0.153804,1.70847 -0.239324,1.31535"
       id="path49869" />
    <path
       style="fill:#ff7c00;fill-opacity:0;stroke:#ff7c00;stroke-width:1;stroke-linecap:round;stroke-linejoin:round;stroke-opacity:1"
       d="m 49.156156,140.53277 c 0.518221,-1.95276 1.080437,-3.89438 1.554666,-5.85828 0.08467,-0.35065 0.08967,-0.71607 0.11966,-1.07556 0.01326,-0.15899 0.05046,-0.63 0,-0.47864 -0.269796,0.80938 0.229904,4.31279 0.956826,3.58657 0.398256,-0.39786 0.129405,-2.87881 0.239323,-2.98873 0.029,-0.029 0.144704,0.17735 0.238856,0.83716 0.05098,0.35727 0.08372,0.71693 0.119663,1.07602 0.06125,0.61191 0.301202,3.64752 0.717968,4.06429 0.271669,0.27167 -0.119661,-0.2731 -0.119661,-0.47818"
       id="path49871" />
    <path
       style="fill:#ff7c00;fill-opacity:0;stroke:#ff7c00;stroke-width:1;stroke-linecap:round;stroke-linejoin:round;stroke-opacity:1"
       d="m 55.494949,140.4131 c 0.99151,-1.66286 1.315317,-3.70582 1.435004,-5.61895 0.01741,-0.27836 0,-0.5578 0,-0.8367 0,-0.0399 -0.0282,-0.14786 0,-0.11966 0.321263,0.32126 0.243335,0.87551 0.358987,1.31488 0.221551,0.84168 0.495832,1.6689 0.717502,2.51055 0.08373,0.31793 0.112887,0.65335 0.239321,0.95683 0.297014,0.71292 0.91426,0.82048 0.119663,-0.23933"
       id="path49875" />
    <path
       style="fill:#ff7c00;fill-opacity:0;stroke:#ff7c00;stroke-width:1;stroke-linecap:round;stroke-linejoin:round;stroke-opacity:1"
       d="m 55.614612,138.73924 c 0.538826,0.25865 2.128861,-1.0977 2.750814,-0.47818"
       id="path49877" />
    <path
       style="fill:#ff7c00;fill-opacity:0;stroke:#ff7c00;stroke-width:1;stroke-linecap:round;stroke-linejoin:round;stroke-opacity:1"
       d="m 60.996581,140.05459 c 0.558339,1.77127 0.05433,-3.91925 -1.07649,-3.46692 -0.49449,0.1978 -0.570404,1.54357 -0.478178,1.91272 0.06987,0.27964 1.299506,1.64696 1.554668,1.5542 1.138941,-0.41405 0.58039,-0.92389 0.478178,-1.43454 -0.01566,-0.0782 0.05652,-0.29562 0,-0.23933 -0.260302,0.25929 -0.14224,0.72155 -0.238855,1.07603 -0.05645,0.2071 -0.251891,0.38355 -0.239323,0.59784 0.02886,0.49204 0.319174,0.94322 0.358515,1.43453 0.04147,0.51793 -0.06754,1.03719 -0.119192,1.5542 -0.02225,0.22268 -0.07116,1.08485 -0.358987,1.31488 -0.578074,0.46201 -2.211239,-1.31832 -1.913651,-1.91272 0.398915,-0.79679 1.952677,-0.44616 2.631154,-0.7175 0.462547,-0.18498 0.54588,-0.30666 0.837165,-0.59737"
       id="path49879" />
    <path
       style="fill:#ff7c00;fill-opacity:0;stroke:#ff7c00;stroke-width:1;stroke-linecap:round;stroke-linejoin:round;stroke-opacity:1"
       d="m 63.029893,134.07711 c 0,0.91647 0,1.83295 0,2.74942"
       id="path49881" />
    <path
       style="fill:#ff7c00;fill-opacity:0;stroke:#ff7c00;stroke-width:1;stroke-linecap:round;stroke-linejoin:round;stroke-opacity:1"
       d="m 61.953406,135.75051 c 0.717503,0 1.435005,0 2.152508,0"
       id="path49883" />
    <path
       style="fill:#ff7c00;fill-opacity:0;stroke:#ff7c00;stroke-width:1;stroke-linecap:round;stroke-linejoin:round;stroke-opacity:1"
       d="m 111.5868,137.30471 c 0.0212,-0.93622 0.0723,-2.47453 -0.95682,-2.98874 -0.47688,-0.23829 -0.77601,0.59199 -0.83716,0.8367 -0.25098,1.00424 -0.29224,4.06475 1.31581,4.06475 2.32935,0 1.50035,-5.14031 -0.11967,-5.14031 -0.80536,0 -1.14494,1.17923 -1.19614,1.79306 -0.0369,0.44243 0.30359,0.96522 0.47864,1.31487"
       id="path49891" />
    <path
       style="fill:#ff7c00;fill-opacity:0;stroke:#ff7c00;stroke-width:1;stroke-linecap:round;stroke-linejoin:round;stroke-opacity:1"
       d="m 113.85944,138.73924 c -0.87913,0.48891 -1.57004,1.21059 -2.27264,1.91319"
       id="path49895" />
    <path
       style="fill:#ff7c00;fill-opacity:0;stroke:#ff7c00;stroke-width:1;stroke-linecap:round;stroke-linejoin:round;stroke-opacity:1"
       d="m 115.05559,139.09823 c 0.27905,-1.47458 0.58452,-2.94441 0.83716,-4.42374 0.0329,-0.19251 0.053,-0.54502 -0.11966,-0.71704 -0.0283,-0.0281 0,0.0798 0,0.11966 0,0.19913 0,0.39825 0,0.59738 0,0.35867 0,0.71734 0,1.07602 0,0.89088 -0.11966,1.73933 -0.11966,2.63021 0,0.21336 0.32079,1.11454 0.11966,1.31488 -0.0283,0.0281 -0.0798,0 -0.11966,0 -0.0399,0.0399 -0.0798,0.0798 -0.11966,0.11966"
       id="path49897" />
    <path
       style="fill:#ff7c00;fill-opacity:0;stroke:#ff7c00;stroke-width:1;stroke-linecap:round;stroke-linejoin:round;stroke-opacity:1"
       d="m 117.56708,139.93492 c 0.583,-1.8287 1.79399,-4.04754 1.79399,-6.09713 0,-0.0399 0,0.0798 0,0.11966 0,0.23901 -0.0183,0.47873 0,0.71704 0.0659,0.85631 0.2135,2.14997 0.7175,2.86954 0.10222,0.14593 0.30138,0.21683 0.47818,0.23886 1.0707,0.13337 1.14763,-2 1.19615,-2.63022 0.0153,-0.19854 0,-0.39825 0,-0.59738 0,-0.0399 0,-0.15954 0,-0.11966 0,1.3179 0.12977,2.52776 0.35898,3.82543 0.049,0.2776 0.0455,0.5652 0.11967,0.83717 0.24326,0.89247 0.46477,0.34511 0.23885,0.11919"
       id="path49899" />
    <path
       style="fill:#ff7c00;fill-opacity:0;stroke:#ff7c00;stroke-width:1;stroke-linecap:round;stroke-linejoin:round;stroke-opacity:1"
       d="m 124.8627,140.89128 c 0.47834,-1.79321 1.00982,-3.57308 1.43501,-5.37963 0.0611,-0.25964 -0.12988,-0.7073 0.11966,-0.95636 0.12616,-0.12591 0.1961,0.30526 0.23932,0.47818 0.0797,0.31878 0.16757,0.63561 0.23886,0.95636 0.20736,0.93303 0.2389,1.49249 0.5983,2.39089 0.29064,0.72649 1.84191,1.92633 0.95683,0.59785"
       id="path49901" />
    <path
       style="fill:#ff7c00;fill-opacity:0;stroke:#ff7c00;stroke-width:1;stroke-linecap:round;stroke-linejoin:round;stroke-opacity:1"
       d="m 124.62338,138.62005 c 2.37863,-0.92511 1.39312,-0.7106 2.87047,-0.95683"
       id="path49903" />
    <path
       style="fill:#ff7c00;fill-opacity:0;stroke:#ff7c00;stroke-width:1;stroke-linecap:round;stroke-linejoin:round;stroke-opacity:1"
       d="m 130.48353,139.09823 c -0.43845,-0.71735 -0.72079,-1.55763 -1.31535,-2.15204 -0.24813,-0.24807 -0.95682,1.1188 -0.95682,1.31487 0,0.64249 1.0878,0.53467 1.435,0.59784 0.28555,0.052 0.61419,0.42512 0.83717,0.23933 0.21656,-0.18045 -0.11967,-0.55528 -0.11967,-0.83717 0,-0.0227 0.33074,-0.5242 0,-0.35851 -0.35812,0.17941 0.13873,0.79558 0.11967,1.19568 -0.0253,0.53107 -0.2634,1.0311 -0.35852,1.5542 -0.0645,0.35491 -0.0634,0.71924 -0.11966,1.07555 -0.0635,0.40148 -0.11076,0.81008 -0.23933,1.19568 -0.064,0.1921 -0.75183,1.86763 -1.19615,1.79352 -0.35799,-0.0597 -0.57968,-0.28771 -0.7175,-0.59784 -0.39113,-0.88014 -0.31816,-1.65238 0.47865,-2.2717 0.8675,-0.67426 1.94979,-0.75318 2.75081,-1.5542"
       id="path49905" />
    <path
       style="fill:#ff7c00;fill-opacity:0;stroke:#ff7c00;stroke-width:1;stroke-linecap:round;stroke-linejoin:round;stroke-opacity:1"
       d="m 131.919,135.15267 c 0.12187,2.19186 0.83811,2.15204 0,2.15204"
       id="path49907" />
    <path
       style="fill:#ff7c00;fill-opacity:0;stroke:#ff7c00;stroke-width:1;stroke-linecap:round;stroke-linejoin:round;stroke-opacity:1"
       d="m 131.20149,136.22869 c 1.4031,0.25528 0.91675,0.43862 1.55467,0.11966"
       id="path49909" />
    <path
       style="fill:#ff7c00;fill-opacity:0;stroke:#00ff49;stroke-width:1;stroke-linecap:round;stroke-linejoin:round;stroke-opacity:1"
       d="m 67.333505,123.64739 c 0.991081,-1.85549 1.193398,-4.06197 1.554665,-6.09714 0.275987,-1.55474 0.585592,-3.10371 0.837165,-4.66259 0.437317,-2.70987 0.748618,-5.6333 0.358984,-8.36837"
       id="path50553" />
    <path
       style="fill:#ff7c00;fill-opacity:0;stroke:#00ff49;stroke-width:1;stroke-linecap:round;stroke-linejoin:round;stroke-opacity:1"
       d="m 68.88817,108.22553 c 0.797856,-0.97918 0.623276,-1.62025 0.717502,-2.74988 0.01365,-0.16374 0.09926,-0.31515 0.119663,-0.47818 0.01979,-0.15816 -0.0387,-0.32356 0,-0.47818 0.0282,-0.11271 0.387591,0.099 0.717503,0.95636 0.32635,0.84815 0.409585,1.7752 0.717502,2.63022 0.151003,0.41931 0.389702,0.80184 0.598308,1.19568 0.427381,0.80688 0.264866,0.62338 0.597839,0.95636"
       id="path50557" />
    <path
       style="fill:#ff7c00;fill-opacity:0;stroke:#00ff49;stroke-width:1;stroke-linecap:round;stroke-linejoin:round;stroke-opacity:1"
       d="m 58.839867,120.78018 c 0.478477,0.68544 0.966962,1.32501 1.555133,1.91272 0.0399,0.0399 0.07977,0.15955 0.119661,0.11966 0.05641,-0.0564 0,-0.15955 0,-0.23932"
       id="path50561" />
    <path
       style="fill:#ff7c00;fill-opacity:0;stroke:#00ff49;stroke-width:1;stroke-linecap:round;stroke-linejoin:round;stroke-opacity:1"
       d="m 57.763846,119.22598 c -0.398936,-0.47404 -0.478647,-0.96429 -0.478647,-1.55419"
       id="path50563" />
    <path
       style="fill:#ff7c00;fill-opacity:0;stroke:#00ff49;stroke-width:1;stroke-linecap:round;stroke-linejoin:round;stroke-opacity:1"
       d="m 59.677498,118.86747 c 0.345662,0.24201 1.234194,1.11632 1.793988,0.83669 0.565775,-0.28261 -0.609353,-2.51055 -1.196149,-2.51055 -0.359635,0 0.09611,0.37919 0.358518,0.59784 0.306271,0.25519 0.643263,0.47132 0.956826,0.7175 0.244877,0.19225 0.484463,0.39146 0.717971,0.59737 0.44441,0.3919 0.90846,0.76495 1.315342,1.19569 0.48039,0.50855 2.595872,3.88391 1.196149,4.3036 -0.560189,0.16798 -1.90519,-0.3417 -2.152975,-0.83669 -0.126114,-0.25193 -0.141288,-0.55579 -0.119661,-0.8367 0.08123,-1.05509 1.896396,-2.66586 1.555134,-3.34772 -0.06433,-0.12853 -0.257353,-0.13722 -0.358984,-0.23886"
       id="path50567" />
    <path
       style="fill:#ff7c00;fill-opacity:0;stroke:#00ff49;stroke-width:1;stroke-linecap:round;stroke-linejoin:round;stroke-opacity:1"
       d="m 62.786831,115.63941 c -0.318942,0.0798 -0.768263,-0.03 -0.956826,0.23932 -0.172109,0.24582 0.09853,1.24436 0.478647,1.43454 0.146942,0.0735 0.320175,0.0746 0.478179,0.11966 0.981969,0.28017 1.497033,0.1228 0.956826,-0.95636 -0.104053,-0.20786 -0.184047,-0.44478 -0.358987,-0.59784 -0.161549,-0.14135 -0.446056,-0.0875 -0.597839,-0.23932 -0.227148,-0.22715 -0.227283,-0.6361 -0.478179,-0.8367 -0.498322,-0.39842 -1.555136,0.0667 -1.555136,0.71704 0,0.56795 0.542303,0.54114 0.837165,0.83716"
       id="path50569" />
    <path
       style="fill:#ff7c00;fill-opacity:0;stroke:#00ff49;stroke-width:1;stroke-linecap:round;stroke-linejoin:round;stroke-opacity:1"
       d="m 63.38467,113.24851 c 5.447855,3.48828 0.577421,0.68532 0,0 -0.310229,-0.3682 -0.473776,-0.84966 -0.597839,-1.31487 -0.04234,-0.15876 0.03811,-0.33554 0.11966,-0.47818 0.476102,-0.83272 1.690029,-0.50934 2.27217,0 0.387676,0.33919 0.476883,0.83605 0.956824,1.07555"
       id="path50571" />
    <path
       style="fill:#ff7c00;fill-opacity:0;stroke:#00ff49;stroke-width:1;stroke-linecap:round;stroke-linejoin:round;stroke-opacity:1"
       d="m 83.853352,70.210057 c 1.637644,-0.372255 3.250989,-0.237553 4.90379,-0.11966 1.797386,0.128204 3.318889,0.36395 4.544804,1.79352 0.223139,0.260207 0.380756,0.571424 0.597842,0.836697 0.142758,0.174448 0.366376,0.282443 0.478179,0.478179 0.05935,0.103907 0,0.239324 0,0.358984"
       id="path50575" />
    <path
       style="fill:#ff7c00;fill-opacity:0;stroke:#00ff49;stroke-width:1;stroke-linecap:round;stroke-linejoin:round;stroke-opacity:1"
       d="m 91.986136,72.959938 c 1.070364,0.534136 1.908934,0.970502 3.228996,1.314876 0.100359,0.02619 -0.01294,-0.586682 -0.238858,-1.076021 -0.0058,-0.01249 -0.951452,-1.660504 -0.956826,-1.673391 -0.208632,-0.500624 -0.19404,-0.791882 0.119663,-0.478179"
       id="path50577" />
    <path
       style="fill:#ff7c00;fill-opacity:0;stroke:#00ff49;stroke-width:1;stroke-linecap:round;stroke-linejoin:round;stroke-opacity:1"
       d="m 105.26156,104.99934 c 0.53996,3.20667 0.61681,6.43319 0.83717,9.68371"
       id="path50579" />
    <path
       style="fill:#ff7c00;fill-opacity:0;stroke:#00ff49;stroke-width:1;stroke-linecap:round;stroke-linejoin:round;stroke-opacity:1"
       d="m 104.18508,113.12885 c 2.58679,2.15529 2.75584,2.96157 3.22946,0.35852 0.0943,-0.51807 0.13581,-0.47818 -0.11966,-0.47818"
       id="path50581" />
  </g>
</svg>
