<?xml version="1.0" encoding="UTF-8" standalone="no"?>
<!-- Created with Inkscape (http://www.inkscape.org/) -->

<svg
   width="130.72276mm"
   height="150.57564mm"
   viewBox="0 0 130.72276 150.57564"
   version="1.1"
   id="svg5"
   inkscape:version="1.2.2 (b0a8486541, 2022-12-01)"
   sodipodi:docname="elektorlit-elektrot.svg"
   xmlns:inkscape="http://www.inkscape.org/namespaces/inkscape"
   xmlns:sodipodi="http://sodipodi.sourceforge.net/DTD/sodipodi-0.dtd"
   xmlns="http://www.w3.org/2000/svg"
   xmlns:svg="http://www.w3.org/2000/svg">
  <sodipodi:namedview
     id="namedview7"
     pagecolor="#ffffff"
     bordercolor="#000000"
     borderopacity="0.25"
     inkscape:showpageshadow="2"
     inkscape:pageopacity="0.0"
     inkscape:pagecheckerboard="0"
     inkscape:deskcolor="#d1d1d1"
     inkscape:document-units="mm"
     showgrid="true"
     inkscape:zoom="0.81697744"
     inkscape:cx="113.22222"
     inkscape:cy="275.4054"
     inkscape:window-width="1916"
     inkscape:window-height="1026"
     inkscape:window-x="0"
     inkscape:window-y="0"
     inkscape:window-maximized="1"
     inkscape:current-layer="layer1">
    <inkscape:grid
       type="xygrid"
       id="grid1927"
       originx="-20.661232"
       originy="18.348735" />
  </sodipodi:namedview>
  <defs
     id="defs2">
    <inkscape:path-effect
       effect="bspline"
       id="path-effect2420"
       is_visible="true"
       lpeversion="1"
       weight="33.333333"
       steps="2"
       helper_size="0"
       apply_no_weight="true"
       apply_with_weight="true"
       only_selected="false" />
    <inkscape:path-effect
       effect="bspline"
       id="path-effect1480"
       is_visible="true"
       lpeversion="1"
       weight="33.333333"
       steps="2"
       helper_size="0"
       apply_no_weight="true"
       apply_with_weight="true"
       only_selected="false" />
    <inkscape:path-effect
       effect="bspline"
       id="path-effect1480-3"
       is_visible="true"
       lpeversion="1"
       weight="33.333333"
       steps="2"
       helper_size="0"
       apply_no_weight="true"
       apply_with_weight="true"
       only_selected="false" />
  </defs>
  <g
     inkscape:label="Layer 1"
     inkscape:groupmode="layer"
     id="layer1"
     transform="translate(-20.661232,18.348736)">
    <path
       style="fill:#0035ff;fill-opacity:0;stroke:#2200ff;stroke-width:1;stroke-linecap:round;stroke-linejoin:round;stroke-dasharray:none;stroke-opacity:1"
       d="m 21.161232,46.231478 c 0,0 0.379147,67.047002 0.379147,67.047002 0,0 54.946851,-0.75829 54.946851,-0.75829 0,0 0,-66.667859 0,-66.667859"
       id="path1478"
       inkscape:path-effect="#path-effect1480"
       inkscape:original-d="m 21.161232,46.231478 0.379147,67.047002 54.946851,-0.75829 V 45.852331" />
    <path
       style="fill:#0035ff;fill-opacity:0;stroke:#2200ff;stroke-width:1;stroke-linecap:round;stroke-linejoin:round;stroke-dasharray:none;stroke-opacity:1"
       d="m 150.33301,46.067083 c 0,0 -0.37914,67.047007 -0.37914,67.047007 0,0 -54.94684,-0.75829 -54.94684,-0.75829 0,0 0,-66.667862 0,-66.667862"
       id="path1478-6"
       inkscape:path-effect="#path-effect1480-3"
       inkscape:original-d="M 150.33301,46.067083 149.95387,113.11409 95.00703,112.3558 V 45.687938" />
    <path
       style="fill:#0035ff;fill-opacity:0;stroke:#2200ff;stroke-width:1;stroke-linecap:round;stroke-linejoin:round;stroke-dasharray:none;stroke-opacity:1"
       d="M 68.609927,92.157926 V 41.901752 m 0,0 c 0,0 8.992022,-11.652044 15.634589,-11.798127 6.642566,-0.146077 16.708124,11.491404 16.708124,11.491404 l -0.15336,51.175746"
       id="path2418"
       sodipodi:nodetypes="ccczcc" />
    <path
       style="fill:#0035ff;fill-opacity:0;stroke:#2200ff;stroke-width:1;stroke-linecap:round;stroke-linejoin:round;stroke-dasharray:none;stroke-opacity:1"
       d="M 60.026418,92.618012 59.719697,40.829414 c 0,0 1.643413,-5.001799 3.218815,-7.048684 3.829889,-4.976088 8.691157,-9.722255 14.561649,-11.950893 3.728715,-1.415545 8.140313,-1.619429 11.956283,-0.459489 5.983449,1.818788 10.795706,6.567556 15.175096,11.031915 1.87539,1.911773 4.59848,6.587999 4.59848,6.587999 l 0.30613,54.240002"
       id="path2422"
       sodipodi:nodetypes="ccaaaacc" />
    <path
       style="fill:#0035ff;fill-opacity:0;stroke:#00ff23;stroke-width:1;stroke-linecap:round;stroke-linejoin:round;stroke-dasharray:none;stroke-opacity:1"
       d="m 62.172295,87.714604 c 0.326186,-1.269449 0.646514,-2.51512 0.766219,-3.83047 0.02357,-0.259398 0.107099,-0.766212 -0.153363,-0.766212 -0.05109,0 0.01251,0.103763 0,0.153362 -0.09024,0.360662 -0.212091,0.712808 -0.306721,1.072341 -0.153165,0.612851 -0.306328,1.225703 -0.459491,1.838552 0.05109,0.510809 0.254113,1.029051 0.153363,1.532429 -0.206934,1.033835 -1.520233,3.383168 -1.072937,3.83047 0.115724,0.115725 0.473605,-0.250443 0.766216,-0.91898 0.692669,-1.582587 1.291242,-3.22648 1.685789,-4.903403 0.144848,-0.615602 0.343984,-1.53183 0.460084,-1.53183 0.102051,0 0,0.204082 0,0.306125 0,0.306527 0.02195,0.61383 0,0.919577 -0.09215,1.289122 -0.927842,4.021778 -0.306723,5.056171 0.242547,0.403931 0.726739,-0.643318 0.920176,-1.072938 0.14127,-0.313777 1.229105,-3.202319 1.379061,-3.677105 0.126852,-0.401614 0.231311,-0.811345 0.306728,-1.225705 0.02741,-0.150686 0,-0.612648 0,-0.459485 0,1.73651 0,3.473022 0,5.209532 0,1.072612 -0.123954,1.312725 0.153363,2.144674 0.01602,0.0483 -0.02283,-0.107231 0,-0.15277 0.03239,-0.06463 0.102249,-0.102249 0.153362,-0.153363 0.102249,-0.204278 0.228679,-0.398161 0.306726,-0.612851 0.07084,-0.194886 0.639387,-2.271506 0.459491,-2.451402 -0.0807,-0.0807 -0.110962,0.200152 -0.153363,0.306124 -0.473519,1.183572 -0.382463,0.917915 -0.612849,1.83855"
       id="path2473" />
    <path
       style="fill:#0035ff;fill-opacity:0;stroke:#00ff23;stroke-width:1;stroke-linecap:round;stroke-linejoin:round;stroke-dasharray:none;stroke-opacity:1"
       d="m 102.79179,89.247032 c 1.58745,-6.170592 1.51492,-3.452778 1.2263,-7.201451 -0.004,-0.05098 0.0162,-0.201843 0,-0.153363 -0.42136,1.262453 -0.53973,2.682864 -0.76621,3.983831 -0.29754,1.709134 -0.36392,1.641525 -0.46009,3.370981 -0.0312,0.560863 0,1.123457 0,1.68519 0,0.102249 0,0.408966 0,0.306723 0,-1.14039 -0.0256,-2.238919 0.15336,-3.370981 0.0813,-0.514555 0.22542,-1.017867 0.30673,-1.532422 0.0722,-0.456853 0.11785,-0.917911 0.15336,-1.379068 0.0239,-0.309642 0.0662,-1.138577 -0.15336,-0.918973 -0.1806,0.180598 0,0.510808 0,0.76621 0,0.559407 -0.0714,4.289954 0.61285,4.289954 0.11432,0 0.0927,-0.209809 0.15336,-0.306721 0.19535,-0.312238 0.47318,-0.578435 0.61346,-0.91898 0.40976,-0.994779 1.07293,-3.466912 1.07293,-4.596682 0,-0.05109 0.008,0.102951 0,0.153363 -0.0429,0.256917 -0.1105,0.509294 -0.15336,0.766212 -0.0594,0.35616 -0.11114,0.713735 -0.15336,1.07234 -0.19324,1.641007 -0.30673,3.251136 -0.30673,4.902804 0,0.357646 -0.0777,0.723823 0,1.07294 0.0314,0.141007 0.17257,0.252568 0.30673,0.306128 1.03703,0.414001 2.417,-4.114963 2.29924,-5.056171 -0.0283,-0.226675 -0.0783,-0.612851 -0.30673,-0.612851 -0.1849,0 -0.43695,2.719468 -0.45949,2.910893 -0.0511,0.408768 -0.10225,0.81753 -0.15336,1.2263 -0.0511,0.255204 -0.11651,0.507962 -0.15336,0.765613 -0.0145,0.101218 0.10225,0.306728 0,0.306728 -0.11432,0 -0.082,-0.217447 -0.15336,-0.306728 -0.13531,-0.169142 -0.35677,-0.268786 -0.4595,-0.459485 -0.5101,-0.947008 -1.53211,-5.453966 -2.14647,-5.822387 -0.84104,-0.504359 -2.64348,4.675749 -2.14588,5.66902"
       id="path3042" />
    <rect
       style="fill:#0035ff;fill-opacity:0;stroke:#ff00a7;stroke-width:1;stroke-linecap:round;stroke-linejoin:round;stroke-dasharray:1, 3;stroke-dashoffset:0;stroke-opacity:1"
       id="rect3848"
       width="63.73151"
       height="84.589149"
       x="52.833984"
       y="13.681852" />
    <path
       style="fill:#0035ff;fill-opacity:0;stroke:#ff00a7;stroke-width:1;stroke-linecap:round;stroke-linejoin:round;stroke-dasharray:none;stroke-dashoffset:0;stroke-opacity:1"
       d="m 66.195802,9.7560388 c -0.113813,0.1794576 -1.086062,1.6980132 -0.77755,2.1094962 0.271992,0.362773 0.418743,0.19091 0.77755,0.11114 0.594992,-0.132278 1.048631,-0.320999 1.332814,-0.888254"
       id="path3984" />
    <path
       style="fill:#0035ff;fill-opacity:0;stroke:#ff00a7;stroke-width:1;stroke-linecap:round;stroke-linejoin:round;stroke-dasharray:none;stroke-dashoffset:0;stroke-opacity:1"
       d="M 66.528788,8.6455037 C 66.750924,8.3123721 66.97306,7.9792406 67.195196,7.6461087"
       id="path3986" />
    <path
       style="fill:#0035ff;fill-opacity:0;stroke:#ff00a7;stroke-width:1;stroke-linecap:round;stroke-linejoin:round;stroke-dasharray:none;stroke-dashoffset:0;stroke-opacity:1"
       d="m 70.972232,9.0896309 c -0.629507,0.2960849 -1.291934,0.530443 -1.888519,0.8882547 -1.047613,0.6283224 0.513363,1.8409634 1.22211,1.7765094 0.269523,-0.02451 2.054143,-0.611055 1.555097,-1.110102"
       id="path3988" />
    <path
       style="fill:#0035ff;fill-opacity:0;stroke:#ff00a7;stroke-width:1;stroke-linecap:round;stroke-linejoin:round;stroke-dasharray:none;stroke-dashoffset:0;stroke-opacity:1"
       d="m 70.527668,10.97728 c -0.0046,0.928947 -0.55273,1.756239 -0.666406,2.664764 -0.0013,0.01093 0.22228,-0.06605 0.22228,-0.221847"
       id="path3990" />
    <path
       style="fill:#0035ff;fill-opacity:0;stroke:#ff00a7;stroke-width:1;stroke-linecap:round;stroke-linejoin:round;stroke-dasharray:none;stroke-dashoffset:0;stroke-opacity:1"
       d="m 77.081911,11.865535 c 0.259183,-0.851208 0.591053,-1.683595 0.777549,-2.5536234 0.03956,-0.1845678 -0.01744,-0.3914002 -0.11114,-0.5552675 -0.407276,-0.712333 -1.49197,0.1748464 -1.777379,0.5552675 -0.174053,0.2319959 -0.495416,0.8104934 -0.555267,1.1101014 -0.207558,1.039005 0.58969,2.076581 1.666237,1.443522 0.408612,-0.240282 0.740357,-0.59217 1.110535,-0.888255"
       id="path3992" />
    <path
       style="fill:#0035ff;fill-opacity:0;stroke:#ff00a7;stroke-width:1;stroke-linecap:round;stroke-linejoin:round;stroke-dasharray:none;stroke-dashoffset:0;stroke-opacity:1"
       d="m 78.414728,5.3143321 c -0.07409,0.4072253 -0.173876,0.810605 -0.222282,1.2216757 -0.09992,0.8485635 -0.144952,1.7027033 -0.222281,2.5536231 -0.05734,0.6309471 -0.221845,1.2541021 -0.221845,1.8876491 0,0.09496 0.05002,1.336224 0.555267,0.999395 0.137745,-0.09183 0.14813,-0.296114 0.222279,-0.444127"
       id="path3994" />
    <path
       style="fill:#0035ff;fill-opacity:0;stroke:#ff00a7;stroke-width:1;stroke-linecap:round;stroke-linejoin:round;stroke-dasharray:none;stroke-dashoffset:0;stroke-opacity:1"
       d="m 79.636402,10.089026 c 0.522483,0.578836 1.230355,0.767225 1.777378,0.11114 0.357828,-0.4291695 0.644576,-2.250077 -0.444127,-1.8876491 -0.536098,0.1784662 -0.522689,0.7100355 -0.777549,1.1101009 -0.155401,0.2439402 -0.517446,0.3797157 -0.555702,0.6664082 -0.04645,0.348097 0.259781,0.656021 0.333423,0.999395 0.07597,0.354258 -0.09126,0.966567 0.33342,1.221241 0.494855,0.296759 2.134645,-0.649207 2.554925,-0.999395 0.127135,-0.105932 0.147841,-0.296114 0.221848,-0.444127"
       id="path3996" />
    <path
       style="fill:#0035ff;fill-opacity:0;stroke:#ff00a7;stroke-width:1;stroke-linecap:round;stroke-linejoin:round;stroke-dasharray:none;stroke-dashoffset:0;stroke-opacity:1"
       d="m 82.968877,9.4226178 c 0.704043,-0.2753006 1.114536,2.2179372 1.55553,1.7769432 0.34212,-0.342119 0.480822,-1.6870103 0.77755,-2.2210704 0.170325,-0.3065611 0.666406,-1.0857926 0.666406,-0.6659737"
       id="path3998" />
    <path
       style="fill:#0035ff;fill-opacity:0;stroke:#ff00a7;stroke-width:1;stroke-linecap:round;stroke-linejoin:round;stroke-dasharray:none;stroke-dashoffset:0;stroke-opacity:1"
       d="m 86.301351,10.200166 c 0.21191,0.634905 0.305015,0.85704 0.444561,1.554229 0.02297,0.114739 -0.111141,-0.215972 -0.111141,-0.332987 0,-0.117015 0.08096,-0.219931 0.111141,-0.332987 0.06825,-0.255668 0.596223,-2.2510573 0.999829,-2.5540576 0.457904,-0.3437626 0.938281,0.2018239 1.332817,0.333421 0.175578,0.058565 0.370179,0 0.555268,0"
       id="path4000" />
    <path
       style="fill:#0035ff;fill-opacity:0;stroke:#ff00a7;stroke-width:1;stroke-linecap:round;stroke-linejoin:round;stroke-dasharray:none;stroke-dashoffset:0;stroke-opacity:1"
       d="m 90.633655,8.7566441 c 0.402209,0.4018171 0.38822,0.5971037 0.999828,0.4441272 0.621255,-0.1553898 1.310609,-1.7765091 0.222279,-1.7765091 -0.133492,0 -0.232031,0.1350074 -0.33342,0.2218465 -0.299219,0.2562844 -0.75358,0.7503634 -0.888687,1.1105354 -0.06226,0.165972 -0.483672,2.4716729 0,2.6647639 0.637238,0.254398 2.238089,-0.825547 2.554925,-1.332382 0.120134,-0.1921767 0.111141,-0.3614077 0.111141,-0.5552679"
       id="path4002" />
    <path
       style="fill:#0035ff;fill-opacity:0;stroke:#2200ff;stroke-width:1;stroke-linecap:round;stroke-linejoin:round;stroke-dasharray:none;stroke-dashoffset:0;stroke-opacity:1"
       d="m 90.486007,25.482146 c 0.244549,-0.195448 0.457993,-0.437953 0.733644,-0.586343 0.3678,-0.197995 0.795745,-0.26141 1.173261,-0.440188 1.047215,-0.495924 2.034243,-1.112452 3.079591,-1.6123 1.094708,-0.523452 2.386261,-1.319416 3.665934,-1.319416"
       id="path4762" />
    <path
       style="fill:#0035ff;fill-opacity:0;stroke:#2200ff;stroke-width:1;stroke-linecap:round;stroke-linejoin:round;stroke-dasharray:none;stroke-dashoffset:0;stroke-opacity:1"
       d="m 96.938649,19.764869 c 1.368896,-0.04891 2.737591,-0.189534 4.106691,-0.146729 0.21846,0.0068 0.50526,0.0905 0.58635,0.293458 0.0408,0.102191 -2.346523,2.079717 -2.346523,3.225175"
       id="path4764" />
    <path
       style="fill:#0035ff;fill-opacity:0;stroke:#2200ff;stroke-width:1;stroke-linecap:round;stroke-linejoin:round;stroke-dasharray:none;stroke-dashoffset:0;stroke-opacity:1"
       d="m 105.15147,18.298724 c 0.0489,-0.244166 0.39089,-0.683589 0.14672,-0.732499 -0.79419,-0.159088 0.0805,0.833236 0.14673,1.75903 0.0453,0.633925 -0.66411,1.986789 0.29289,2.345373 0.58017,0.217386 2.93343,-1.045392 2.93343,-1.319416 0,-0.146729 -0.29345,0 -0.44018,0"
       id="path4766" />
    <path
       style="fill:#0035ff;fill-opacity:0;stroke:#2200ff;stroke-width:1;stroke-linecap:round;stroke-linejoin:round;stroke-dasharray:none;stroke-dashoffset:0;stroke-opacity:1"
       d="m 103.39186,20.497942 c 1.64551,-1.054208 2.68846,-1.466145 4.39958,-1.466145"
       id="path4768" />
    <path
       style="fill:#0035ff;fill-opacity:0;stroke:#2200ff;stroke-width:1;stroke-linecap:round;stroke-linejoin:round;stroke-dasharray:none;stroke-dashoffset:0;stroke-opacity:1"
       d="m 110.72431,18.298724 c -0.33108,0.974605 -0.90662,2.648402 0.44018,3.225175 0.18521,0.07932 0.38643,0.171743 0.58635,0.146729 1.02753,-0.128567 1.39242,-1.822413 1.46671,-2.638831 0.0266,-0.29187 0,-0.586152 0,-0.879228 0,-0.04891 0.0219,-0.190459 0,-0.14673 -0.37017,0.7389 -0.0586,1.583752 0,2.345373 0.0225,0.292402 -0.0292,0.587992 0,0.879802 0.0284,0.283349 0.23816,0.933759 0.43962,0.732499 0.47022,-0.469762 0.78684,-1.071499 1.17326,-1.612301"
       id="path4770" />
    <path
       style="fill:#0035ff;fill-opacity:0;stroke:#2200ff;stroke-width:1;stroke-linecap:round;stroke-linejoin:round;stroke-dasharray:none;stroke-dashoffset:0;stroke-opacity:1"
       d="m 116.44387,16.833153 c 0.44,-0.342177 0.80767,-0.806982 1.31999,-1.026531 0.32053,-0.137358 2.49883,0.674682 2.19979,1.172687 -0.30592,0.509468 -3.61405,2.750237 -2.34651,3.225174 0.9957,0.373085 2.47639,-0.559066 3.37304,-0.879228 0.29115,-0.103958 0.5973,-0.167911 0.87981,-0.293458 0.1609,-0.07151 0.28209,-0.214201 0.43961,-0.292885 0.0438,-0.02186 0.18124,0.03465 0.14673,0 -0.1898,-0.190544 -0.35439,-0.146729 -0.58634,-0.146729"
       id="path4772" />
    <path
       style="fill:#0035ff;fill-opacity:0;stroke:#2200ff;stroke-width:1;stroke-linecap:round;stroke-linejoin:round;stroke-dasharray:none;stroke-dashoffset:0;stroke-opacity:1"
       d="m 115.71023,18.885068 c 1.62351,-0.226277 3.20843,-0.439614 4.83977,-0.439614"
       id="path4774" />
    <path
       style="fill:#0035ff;fill-opacity:0;stroke:#2200ff;stroke-width:1;stroke-linecap:round;stroke-linejoin:round;stroke-dasharray:none;stroke-dashoffset:0;stroke-opacity:1"
       d="m 107.49798,24.16273 c 1.02575,1.617788 0.27811,2.877623 0,4.54459 -0.0241,0.14454 -0.14653,0.439614 0,0.439614 0.17619,0 0.19241,-0.295286 0.29346,-0.439614 0.003,-0.0041 1.46274,-2.048404 1.46615,-2.052486 0.47294,-0.567195 1.56745,-1.382675 1.46672,-0.879803 -0.31944,1.594694 -3.01116,2.468575 -3.37305,3.371903 -0.19313,0.48207 0.76483,0.302466 1.46671,0.14673 0.25523,-0.05663 1.09737,-0.293458 1.31942,-0.293458 0.37237,0 0.77697,0.146728 1.17326,0.146728"
       id="path4776" />
    <path
       style="fill:#0035ff;fill-opacity:0;stroke:#2200ff;stroke-width:1;stroke-linecap:round;stroke-linejoin:round;stroke-dasharray:none;stroke-dashoffset:0;stroke-opacity:1"
       d="m 114.26863,26.749547 c 0.0593,-0.289825 0.13032,-0.840989 -0.13154,-1.08531 -0.45273,-0.422417 -1.29205,-0.327365 -1.67778,0.131662 -0.36845,0.438466 -0.54444,1.116941 -0.49348,1.677013 0.0761,0.836692 0.92578,1.467586 1.74349,1.24963 0.84889,-0.226269 1.30098,-1.031457 1.01986,-1.87438 -0.0652,-0.195387 -0.14505,-0.39033 -0.26319,-0.559046 -0.15578,-0.222467 -0.58309,-0.568761 -0.82237,-0.723496 -0.17473,-0.11299 -0.16458,-0.116772 -0.16458,-0.03292"
       id="path4784" />
    <path
       style="fill:#0035ff;fill-opacity:0;stroke:#2200ff;stroke-width:1;stroke-linecap:round;stroke-linejoin:round;stroke-dasharray:none;stroke-dashoffset:0;stroke-opacity:1"
       d="m 116.60446,26.091752 c -0.0856,-1.187613 0.13154,-2.845053 0,2.499255 -0.008,0.320844 -0.0934,0.635122 -0.13166,0.953775 -0.0394,0.328097 -0.0732,0.656961 -0.0986,0.986433 -0.003,0.04372 0.0311,0.162475 0,0.131535 -0.0372,-0.03708 -0.0329,-0.166894 -0.0329,-0.23015"
       id="path4786" />
    <path
       style="fill:#0035ff;fill-opacity:0;stroke:#2200ff;stroke-width:1;stroke-linecap:round;stroke-linejoin:round;stroke-dasharray:none;stroke-dashoffset:0;stroke-opacity:1"
       d="m 116.01224,27.505829 c 0.011,-0.06575 0.004,-0.137022 0.0329,-0.197236 0.27966,-0.589063 0.46985,-1.24278 0.8882,-1.742973 0.26579,-0.317798 0.89877,-0.359083 1.21723,-0.09862 0.20993,0.17171 0.42606,0.661286 0.46068,0.920731 0.12969,0.971773 -0.93259,1.452762 -1.74361,1.381161 -0.39023,-0.03445 -0.53891,-0.122473 -0.85542,-0.263065 z"
       id="path4788" />
    <path
       style="fill:#0035ff;fill-opacity:0;stroke:#2200ff;stroke-width:1;stroke-linecap:round;stroke-linejoin:round;stroke-dasharray:none;stroke-dashoffset:0;stroke-opacity:1"
       d="m 119.72975,25.861601 c 0.14255,0.756368 0.30415,1.509394 0.42765,2.269105 0.0193,0.118999 -0.009,0.24143 0,0.361683 0.002,0.03457 0.0174,0.129603 0.0329,0.09862 0.0449,-0.08966 -0.0679,-1.138158 -0.0658,-1.249627 0.0162,-0.876107 0.032,-1.730402 0.49347,-2.499256 0.0802,-0.133599 0.16978,-0.270485 0.29612,-0.361684 0.29791,-0.215057 0.69161,0.131823 0.95403,0.230151 0.13969,0.05234 0.28304,0.09536 0.42777,0.131533 0.38902,0.09724 0.44737,0.06583 0.8882,0.06583"
       id="path4790" />
    <path
       style="fill:#0035ff;fill-opacity:0;stroke:#2200ff;stroke-width:1;stroke-linecap:round;stroke-linejoin:round;stroke-dasharray:none;stroke-dashoffset:0;stroke-opacity:1"
       d="m 123.94074,25.401171 c 0.11015,0.672907 -0.36402,1.472918 -0.16445,2.104658 0.0672,0.212669 0.20563,0.38091 0.46056,0.295981 0.7879,-0.262485 1.26776,-1.691185 1.41459,-2.400639 0.0336,-0.162421 0.0493,-0.328178 0.0658,-0.493216 0.009,-0.08725 0,-0.350755 0,-0.263066 0,0.516565 -0.0658,1.029699 -0.0658,1.545609 0,0.286173 -0.002,0.819835 0.19736,1.085181 0.0738,0.09841 0.2267,-0.03266 0.2632,-0.06583 0.26407,-0.240046 0.39746,-0.565759 0.52639,-0.887817"
       id="path4792" />
    <path
       style="fill:#0035ff;fill-opacity:0;stroke:#2200ff;stroke-width:1;stroke-linecap:round;stroke-linejoin:round;stroke-dasharray:none;stroke-dashoffset:0;stroke-opacity:1"
       d="m 128.80965,24.875039 c 0.0768,-0.131533 0.3652,-0.323962 0.23028,-0.394599 -0.58095,-0.304151 -0.94864,-0.05063 -1.18432,0.361684 -0.0637,0.111411 -0.13153,0.233486 -0.13153,0.361812 0,0.741408 1.83989,0.766126 1.67779,1.446863 -0.0375,0.157461 -0.12198,0.307221 -0.23028,0.427514 -0.0957,0.106272 -0.23589,0.162766 -0.36194,0.23028 -0.38503,0.206221 -1.203,0.584562 -1.64487,0.328768 -0.54935,-0.318013 0.1368,-0.777324 0.39472,-0.887814 0.33343,-0.142838 0.37544,-0.131535 0.62514,-0.131535"
       id="path4794" />
    <path
       style="fill:#0035ff;fill-opacity:0;stroke:#2200ff;stroke-width:1;stroke-linecap:round;stroke-linejoin:round;stroke-dasharray:none;stroke-dashoffset:0;stroke-opacity:1"
       d="m 131.01382,24.94087 c -0.24142,-0.604264 -0.0645,-0.240241 -0.26319,1.249628 -0.0248,0.185984 -0.0431,0.372779 -0.0657,0.559049 -0.0177,0.145817 -0.23636,1.019347 0.19737,1.019347 0.30779,0 0.75017,-0.365938 0.92112,-0.526132 0.50474,-0.472993 1.18026,-1.398444 1.1186,-2.137572 -0.0121,-0.145709 -0.0633,-0.285545 -0.0987,-0.427386 -0.008,-0.03366 -0.002,-0.08323 -0.0329,-0.09875 -0.0219,-0.01097 -0.0289,0.04163 -0.0329,0.06583 -0.0181,0.108636 -0.0287,0.218712 -0.0329,0.328768 -0.007,0.17529 -0.01,0.351127 0,0.52626 0.0294,0.513983 0.0251,1.212046 0.52639,1.512694 0.49004,0.29391 0.90624,-0.271208 1.11861,-0.624878"
       id="path4796" />
    <path
       style="fill:#0035ff;fill-opacity:0;stroke:#2200ff;stroke-width:1;stroke-linecap:round;stroke-linejoin:round;stroke-dasharray:none;stroke-dashoffset:0;stroke-opacity:1"
       d="m 124.23685,23.395261 c 0.40574,-0.02195 0.81148,-0.04389 1.21723,-0.06583"
       id="path4798" />
    <path
       style="fill:#0035ff;fill-opacity:0;stroke:#2200ff;stroke-width:1;stroke-linecap:round;stroke-linejoin:round;stroke-dasharray:none;stroke-dashoffset:0;stroke-opacity:1"
       d="m 130.58618,22.967747 c 1.09985,-0.183428 0.2699,-0.01879 2.40153,-0.822114"
       id="path4800" />
    <path
       style="fill:#0035ff;fill-opacity:0;stroke:#2200ff;stroke-width:1;stroke-linecap:round;stroke-linejoin:round;stroke-dasharray:none;stroke-dashoffset:0;stroke-opacity:1"
       d="m 112.65667,23.921393 c -0.11122,0.624506 0.89378,0.286836 1.25014,0.263066 0.0451,-0.003 0.0877,0.02194 0.13154,0.03291"
       id="path4802" />
    <path
       style="fill:#0035ff;fill-opacity:0;stroke:#2200ff;stroke-width:1;stroke-linecap:round;stroke-linejoin:round;stroke-dasharray:none;stroke-dashoffset:0;stroke-opacity:1"
       d="m 95.65602,58.581115 c 0.09681,0.306953 0.982105,-1.667124 1.171581,-1.351579 0.24385,0.406098 0.157305,1.621753 0.811228,1.621753 0.623096,0 0.869553,-1.511835 1.081405,-1.441403 0.243282,0.08088 0.130217,0.220041 0.270529,0.360352 0.02368,0.02368 0.430249,0.270174 0.450524,0.270174 0.06721,0 0.120211,-0.06016 0.180353,-0.09018 0.62917,-0.313971 0.09018,-0.637813 0.09018,-0.450175"
       id="path4804" />
    <path
       style="fill:#0035ff;fill-opacity:0;stroke:#2200ff;stroke-width:1;stroke-linecap:round;stroke-linejoin:round;stroke-dasharray:none;stroke-dashoffset:0;stroke-opacity:1"
       d="m 110.16692,57.950237 c 0.5743,-0.532379 -0.60792,0.219609 -0.45088,0.18035 1.27748,-0.319368 2.45653,-1.010189 3.78562,-1.171228 0.82673,-0.100169 2.0584,0.02167 2.88386,0.180353 0.33642,0.06467 0.65397,0.212035 0.99158,0.270174 0.94495,0.162735 1.76953,0.26303 2.70386,0.09018 1.23313,-0.228132 2.44951,-0.73133 3.6951,-0.901052 1.36875,-0.186505 2.80699,0.210127 4.23614,0 1.41724,-0.208375 2.87313,-0.601292 4.32632,-0.540703 1.15241,0.04805 2.01276,0.75292 3.06422,1.081405 1.44052,0.450033 2.93668,0.202875 4.41649,0.270174 0.66792,0.03038 1.58907,0.03784 2.25299,0.179999 0.68328,0.146309 1.3946,0.280847 2.07298,0.450527 0.32638,0.08163 0.65455,0.232857 0.99158,0.270174 0.57201,0.06334 1.12706,-0.173146 1.71229,-0.08982 0.36469,0.05192 0.80288,0.232751 1.17193,0.180001 0.10397,-0.01487 0.60345,-0.238686 0.72105,-0.180001 0.0379,0.01892 0.0496,0.07646 0.0898,0.08982 0.18164,0.06039 0.66002,-0.119465 0.81123,-0.179999 0.0395,-0.01579 0.13269,-0.09017 0.0902,-0.09017 -0.20148,0 -0.36046,0.180139 -0.5407,0.270174"
       id="path4808" />
    <path
       style="fill:#0035ff;fill-opacity:0;stroke:#2200ff;stroke-width:1;stroke-linecap:round;stroke-linejoin:round;stroke-dasharray:none;stroke-dashoffset:0;stroke-opacity:1"
       d="m 69.29547,59.569524 c 0.157675,-0.575895 0.495069,-0.630878 1.081756,-0.630878 0.579176,0 0.673315,0.604393 1.081405,0.721056 0.510784,0.146018 0.837023,-0.308951 1.261756,-0.450527 0.143354,-0.04778 0.618598,0.313184 0.901406,0.360349 0.415867,0.06936 1.802458,-0.434718 1.802458,-0.180351"
       id="path4810" />
    <path
       style="fill:#0035ff;fill-opacity:0;stroke:#2200ff;stroke-width:1;stroke-linecap:round;stroke-linejoin:round;stroke-dasharray:none;stroke-dashoffset:0;stroke-opacity:1"
       d="m 21.16664,62.812681 c 0.210292,-0.330293 0.305034,-0.773753 0.630877,-0.990876 1.263122,-0.841671 2.996086,-0.42241 4.326322,-0.09017 0.814644,0.203462 1.033267,0.351017 1.802458,0.270174 1.197956,-0.125907 2.009068,-0.758743 3.064565,-1.261052 0.29209,-0.139004 0.582502,-0.304109 0.901055,-0.360349 0.85235,-0.150484 1.468503,0.611391 2.163159,0.9007 0.122761,0.05112 1.04263,0.18035 1.081757,0.18035 1.099291,0 2.472335,-0.3372 3.604916,-0.450524 0.401201,-0.04014 1.017617,-0.146804 1.442106,-0.09018 0.711589,0.09493 0.599565,0.169804 1.17158,0.360352 0.632484,0.21069 1.404599,0.360349 2.072987,0.360349 1.30919,0 2.554907,-0.600609 3.875794,-0.270174 0.325763,0.08149 0.595286,0.311708 0.901054,0.450527 0.294643,0.133768 0.583044,0.302424 0.901404,0.36035 0.479893,0.08731 0.70662,-0.05642 1.17158,-0.180351 0.415608,-0.110778 0.853684,-0.134239 1.261756,-0.270174 0.191254,-0.06371 0.354962,-0.192672 0.541054,-0.270177 0.498806,-0.20774 0.530503,-0.1301 0.99123,-0.360349 0.09694,-0.04845 0.167717,-0.14606 0.270526,-0.180353 0.170974,-0.05703 0.362281,0.02551 0.540702,0 0.641387,-0.09168 1.248725,-0.37895 1.892634,-0.450525 0.408754,-0.04544 0.769551,-0.0097 1.17158,-0.08982 0.50668,-0.101021 0.922287,0.397042 1.351931,0.540348 0.153553,0.05122 0.293851,0.141057 0.450879,0.180353 0.242808,0.06076 0.333047,-0.180353 0.540702,-0.180353 0.04251,0 -0.05481,0.0666 -0.09018,0.09018 -0.167643,0.11176 -0.360458,0.180139 -0.540702,0.270174"
       id="path4812" />
    <path
       style="fill:#0035ff;fill-opacity:0;stroke:#2200ff;stroke-width:1;stroke-linecap:round;stroke-linejoin:round;stroke-dasharray:none;stroke-dashoffset:0;stroke-opacity:1"
       d="m 74.8057,108.90868 c 1.00705,0.62922 0.703615,0.31917 1.531933,1.53158 2.070616,3.03078 4.039462,6.26378 5.497901,9.64 0.502637,1.16358 0.898723,2.39277 1.261756,3.60351 0.01931,0.0644 0.09018,0.11313 0.09018,0.18035 0,0.24044 -0.179999,-0.43021 -0.179999,-0.63088"
       id="path4822" />
    <path
       style="fill:#0035ff;fill-opacity:0;stroke:#2200ff;stroke-width:1;stroke-linecap:round;stroke-linejoin:round;stroke-dasharray:none;stroke-dashoffset:0;stroke-opacity:1"
       d="m 101.5738,106.02588 c -3.743577,3.42765 -8.893059,9.61523 -10.635097,15.22561 -0.02135,0.0687 -0.296505,1.64738 -0.450879,1.80175"
       id="path4824" />
    <path
       style="fill:#0035ff;fill-opacity:0;stroke:#2200ff;stroke-width:1;stroke-linecap:round;stroke-linejoin:round;stroke-dasharray:none;stroke-dashoffset:0;stroke-opacity:1"
       d="m 73.183242,128.18868 c 0.991465,0.15017 1.973005,0.50325 2.97439,0.45052 0.845436,-0.0445 0.449707,-1.69706 -0.180351,-1.8021 -1.359749,-0.2267 -2.268556,1.34901 -2.523511,2.43263 -0.07169,0.30471 -0.243919,0.93988 0.180351,1.17123 0.68064,0.37114 2.373582,-0.12046 2.974038,-0.54071 0.0013,-0.001 0.4499,-0.44955 0.540703,-0.54035"
       id="path4826" />
    <path
       style="fill:#0035ff;fill-opacity:0;stroke:#2200ff;stroke-width:1;stroke-linecap:round;stroke-linejoin:round;stroke-dasharray:none;stroke-dashoffset:0;stroke-opacity:1"
       d="m 77.329212,129.81043 c 1.247913,-1.66388 0.139089,-0.12036 2.072987,-4.86526 0.0507,-0.12439 0.130431,-0.23565 0.18035,-0.36035 0.01117,-0.0279 0.01344,-0.11706 0,-0.0902 -0.852715,1.70543 -1.468786,4.0584 -1.712634,5.94632 -0.0272,0.21056 0.0291,0.42718 0.09018,0.63052 0.283215,0.94294 1.348922,-0.62602 1.532284,-0.9007"
       id="path4828" />
    <path
       style="fill:#0035ff;fill-opacity:0;stroke:#2200ff;stroke-width:1;stroke-linecap:round;stroke-linejoin:round;stroke-dasharray:none;stroke-dashoffset:0;stroke-opacity:1"
       d="m 79.672725,129.17955 c 0.841171,-0.0901 1.692923,-0.10954 2.523511,-0.27017 0.544502,-0.1053 0.548023,-1.31957 0,-1.44141 -0.818169,-0.18189 -1.529858,0.80824 -1.982809,1.26106 -0.165912,0.16586 -0.499896,0.2195 -0.540702,0.45052 -0.03128,0.17709 0.485579,2.10698 0.721053,2.34246 0.894434,0.89443 2.907458,-1.2889 3.424917,-1.89193"
       id="path4830" />
    <path
       style="fill:#0035ff;fill-opacity:0;stroke:#2200ff;stroke-width:1;stroke-linecap:round;stroke-linejoin:round;stroke-dasharray:none;stroke-dashoffset:0;stroke-opacity:1"
       d="m 83.998694,125.48587 c 0.09018,-0.39041 -0.04584,-1.41712 0.270528,-1.17123 1.07092,0.83237 0.337249,3.94682 0.180351,5.04526 -0.05113,0.35797 -0.0502,0.72167 -0.09017,1.08106 -0.02019,0.18149 -0.06432,0.35958 -0.09018,0.54034 -0.0043,0.0298 0.01347,0.11706 0,0.0902 -0.249354,-0.49773 0.149045,-1.01879 0.36035,-1.4414"
       id="path4832" />
    <path
       style="fill:#0035ff;fill-opacity:0;stroke:#2200ff;stroke-width:1;stroke-linecap:round;stroke-linejoin:round;stroke-dasharray:none;stroke-dashoffset:0;stroke-opacity:1"
       d="m 86.432382,127.01745 c -0.690994,0.60058 -1.425427,1.15457 -2.072984,1.80175 -0.516819,0.51652 -0.897486,1.71193 0.270174,1.71193 0.805053,0 1.67582,-0.63088 2.523863,-0.63088"
       id="path4834" />
    <path
       style="fill:#0035ff;fill-opacity:0;stroke:#2200ff;stroke-width:1;stroke-linecap:round;stroke-linejoin:round;stroke-dasharray:none;stroke-dashoffset:0;stroke-opacity:1"
       d="m 89.136246,124.31464 c -0.03006,1.3814 -0.0441,2.76325 -0.09018,4.14421 -0.01847,0.55335 -0.350438,1.4407 0.270174,1.89193 0.759928,0.55253 2.526937,-1.25183 2.433687,-1.53158 -0.02125,-0.0638 -0.120234,-0.0601 -0.18035,-0.0902"
       id="path4836" />
    <path
       style="fill:#0035ff;fill-opacity:0;stroke:#2200ff;stroke-width:1;stroke-linecap:round;stroke-linejoin:round;stroke-dasharray:none;stroke-dashoffset:0;stroke-opacity:1"
       d="m 87.423611,128.45885 c 0.231233,0.35796 2.519453,-0.7207 3.33474,-0.7207"
       id="path4838" />
    <path
       style="fill:#0035ff;fill-opacity:0;stroke:#2200ff;stroke-width:1;stroke-linecap:round;stroke-linejoin:round;stroke-dasharray:none;stroke-dashoffset:0;stroke-opacity:1"
       d="m 92.20046,127.10763 c 0.188925,3.30291 0.18035,2.10026 0.18035,3.6035 0,0.06 -0.006,-0.1203 0,-0.18 0.05288,-0.52816 0.15648,-1.21173 0.270174,-1.71193 0.07589,-0.33386 0.129963,-0.67868 0.270529,-0.99087 0.181371,-0.40284 0.86229,-1.48178 1.351929,-1.62176 0.33505,-0.0958 1.27703,0.31235 1.62246,0.45053"
       id="path4840" />
    <path
       style="fill:#0035ff;fill-opacity:0;stroke:#2200ff;stroke-width:1;stroke-linecap:round;stroke-linejoin:round;stroke-dasharray:none;stroke-dashoffset:0;stroke-opacity:1"
       d="m 96.887132,127.5578 c -0.25574,-0.63924 1.30499,1.32053 1.71263,0.81087 0.60583,-0.75743 0.14173,-1.86962 -0.3607,-2.52245 -0.12953,-0.16831 -0.2523,-0.3743 -0.45053,-0.45053 -0.22433,-0.0863 -0.48602,-0.0503 -0.72105,0 -0.19702,0.0422 -0.40451,0.1217 -0.5407,0.27018 -0.63546,0.69279 -1.07005,2.1851 -0.63088,3.06316 0.61831,1.23622 2.30155,0.84678 3.06421,0 0.83302,-0.92489 0.50388,-1.80861 -0.18035,-2.70281 -0.2706,-0.35364 -0.57083,-0.8498 -1.0814,-0.9007 -0.83403,-0.0831 -0.81123,0.80561 -0.81123,1.35123"
       id="path4842" />
    <path
       style="fill:#0035ff;fill-opacity:0;stroke:#2200ff;stroke-width:1;stroke-linecap:round;stroke-linejoin:round;stroke-dasharray:none;stroke-dashoffset:0;stroke-opacity:1"
       d="m 101.21345,123.68412 c 0.0422,0.2634 0.37442,-1.34252 0.36035,-0.99123 -0.0739,1.84519 -0.56312,3.73012 -0.27017,5.58596 0.11402,0.72233 0.67633,1.29834 1.17158,0.45018 0.12938,-0.2216 0.18035,-0.48047 0.27052,-0.72071"
       id="path4844" />
    <path
       style="fill:#0035ff;fill-opacity:0;stroke:#2200ff;stroke-width:1;stroke-linecap:round;stroke-linejoin:round;stroke-dasharray:none;stroke-dashoffset:0;stroke-opacity:1"
       d="m 103.55661,125.75605 c -0.003,0.0217 -0.4517,2.06291 -0.36035,2.79298 0.0821,0.65579 0.59521,-0.37927 0.63088,-0.45053"
       id="path4846" />
    <path
       style="fill:#0035ff;fill-opacity:0;stroke:#2200ff;stroke-width:1;stroke-linecap:round;stroke-linejoin:round;stroke-dasharray:none;stroke-dashoffset:0;stroke-opacity:1"
       d="m 103.55661,123.68412 c 1.58668,-0.74629 0.96785,-0.72071 1.71263,-0.72071"
       id="path4848" />
    <path
       style="fill:#0035ff;fill-opacity:0;stroke:#2200ff;stroke-width:1;stroke-linecap:round;stroke-linejoin:round;stroke-dasharray:none;stroke-dashoffset:0;stroke-opacity:1"
       d="m 107.25206,123.05324 c 0.0601,-0.27029 0.20544,-1.08664 0.18035,-0.81088 -0.11511,1.26498 -0.19815,2.53905 -0.45088,3.78386 -0.17007,0.83769 -0.60978,1.60193 -0.81123,2.43263 -0.0431,0.17758 -0.056,0.43108 0.0902,0.5407 0.4464,0.33474 3.41901,-0.94813 2.43369,-1.44175"
       id="path4850" />
    <path
       style="fill:#0035ff;fill-opacity:0;stroke:#2200ff;stroke-width:1;stroke-linecap:round;stroke-linejoin:round;stroke-dasharray:none;stroke-dashoffset:0;stroke-opacity:1"
       d="m 104.09766,127.10763 c 1.74439,-0.69831 0.29013,-0.15945 4.5965,-0.72071"
       id="path4852" />
    <rect
       style="fill:#ff0000;fill-opacity:1;stroke:none;stroke-width:1;stroke-linecap:round;stroke-linejoin:round;stroke-dasharray:none;stroke-dashoffset:0;stroke-opacity:1"
       id="rect4908"
       width="8.696785"
       height="58.643955"
       x="26.479334"
       y="38.072712" />
    <rect
       style="fill:#ff0000;fill-opacity:1;stroke:none;stroke-width:1;stroke-linecap:round;stroke-linejoin:round;stroke-dasharray:none;stroke-dashoffset:0;stroke-opacity:1"
       id="rect4908-7"
       width="8.696785"
       height="58.643955"
       x="136.60966"
       y="39.443588" />
    <path
       style="fill:#ff0000;fill-opacity:0;stroke:#ff0000;stroke-width:1;stroke-linecap:round;stroke-linejoin:round;stroke-dasharray:none;stroke-dashoffset:0;stroke-opacity:1"
       d="M 30.76245,38.85553 31.038675,-1.1604705 H 140.91921 l 0.27622,41.6717365"
       id="path5266"
       sodipodi:nodetypes="cccc" />
    <circle
       style="fill:#ff0000;fill-rule:evenodd;stroke-width:0.264583"
       id="path5387"
       cx="86.805191"
       cy="-1.1602007"
       r="5.1055851" />
    <path
       style="fill:#ff0000;fill-opacity:0;stroke:#000000;stroke-width:1;stroke-linecap:round;stroke-linejoin:round;stroke-dasharray:none;stroke-dashoffset:0;stroke-opacity:1"
       d="m 84.826011,-2.900014 c 0.02408,-0.060102 0.02246,-0.1388962 0.07223,-0.1803075 0.221694,-0.1844548 0.443862,0.4395922 0.541488,0.8298655 0.202819,0.8108071 0.213707,1.6490932 0.433274,2.45376032 0.09762,0.35775963 0.219752,0.619956 0.324779,0.54120428 0.203477,-0.15257634 0.465968,-0.74180701 0.541485,-0.93807801 0.359519,-0.93439209 0.235511,-0.80698769 0.541486,-1.76822559 0.0087,-0.027407 0.350316,-0.9775713 0.433274,-1.1185265 0.158353,-0.2690558 0.347268,-0.203273 0.469251,-0.3247789 0.0085,-0.0085 -0.02445,-0.00291 -0.03612,0 -0.127402,0.031757 -0.09571,0.01098 -0.14433,0.1082127"
       id="path5452" />
    <path
       style="fill:#ff0000;fill-opacity:0;stroke:#fd0000;stroke-width:1;stroke-linecap:round;stroke-linejoin:round;stroke-dasharray:none;stroke-dashoffset:0;stroke-opacity:1"
       d="m 88.14646,-5.183061 c 0,-0.060149 -0.03254,-0.1298577 0,-0.1804482 0.08283,-0.1287991 0.216609,-0.2165212 0.324919,-0.3247792 0.192532,-0.1924426 0.379095,-0.391051 0.577604,-0.5773221 0.391284,-0.3671591 0.784588,-0.7325924 1.191326,-1.0825496 1.562116,-1.3440328 3.188221,-2.5679508 4.945473,-3.6445229 1.499941,-0.91893 0.913722,-0.492696 0.64984,-0.360755"
       id="path5781" />
    <path
       style="fill:#ff0000;fill-opacity:0;stroke:#fd0000;stroke-width:1;stroke-linecap:round;stroke-linejoin:round;stroke-dasharray:none;stroke-dashoffset:0;stroke-opacity:1"
       d="m 94.355495,-11.678218 c 0.167924,-0.368584 -0.433133,-0.01991 -0.433133,-0.180448 0,-0.01204 0.02424,0.002 0.03612,0 0.06051,-0.01009 0.119105,-0.03612 0.180449,-0.03612 0.120946,0 0.240196,0.03108 0.361037,0.03612 0.168309,0.007 0.336912,0 0.505367,0 0.192535,0 0.385562,0.01372 0.577607,0 0.315706,-0.02256 0.625856,-0.09501 0.938501,-0.144331 0.09802,-0.01546 0.189568,-0.07223 0.2888,-0.07223 0.02516,0 -0.01005,0.05638 -0.07209,0.180448 -0.160356,0.320622 -0.250873,0.472113 -0.361037,0.830007 -0.12236,0.397498 -0.208312,0.845374 -0.180449,1.2628565 0.0083,0.1244886 0.113356,0.3090238 0.07209,0.4331327 -0.05029,0.1512615 -0.180449,-0.056001 -0.180449,-0.1443304"
       id="path8114" />
    <path
       style="fill:#ff0000;fill-opacity:0;stroke:#fd0000;stroke-width:1;stroke-linecap:round;stroke-linejoin:round;stroke-dasharray:none;stroke-dashoffset:0;stroke-opacity:1"
       d="m 96.783013,-17.523957 c 0.716494,0.840186 0.997146,1.961107 1.299538,2.995105 0.244888,0.837361 0.43112,1.691426 0.685819,2.525855 0.06783,0.222221 0.127135,0.454148 0.252825,0.649559 0.09673,0.150389 0.218334,0.367632 0.397015,0.360755 0.223618,-0.0086 0.399928,-0.223549 0.541486,-0.396873 0.346124,-0.423809 0.603684,-0.912827 0.902524,-1.371211 0.39907,-0.612134 0.80737,-1.218507 1.19118,-1.84032 0.43106,-0.698343 1.34778,-1.997918 1.29969,-2.958988 -0.005,-0.09906 -0.0482,-0.192441 -0.0722,-0.288661"
       id="path8118" />
    <path
       style="fill:#ff0000;fill-opacity:0;stroke:#fd0000;stroke-width:1;stroke-linecap:round;stroke-linejoin:round;stroke-dasharray:none;stroke-dashoffset:0;stroke-opacity:1"
       d="m 104.76084,-11.930902 c -0.27986,-0.895373 -0.14636,-1.016539 -1.69656,-1.082408 -0.15624,-0.0066 -0.14264,0.281283 -0.18059,0.432991 -0.23425,0.936623 0.0774,1.713664 0.90253,2.201076 0.0983,0.05807 0.21276,0.087 0.32492,0.108354 0.14232,0.0271 0.2913,0.06552 0.43313,0.03598 0.70285,-0.146385 0.98762,-1.033735 0.86641,-1.659872 -0.0673,-0.347838 -0.34299,-0.889546 -0.61372,-1.118526 -0.67155,-0.56798 -1.13902,-0.140956 -1.51611,0.505086 -0.10745,0.184092 -0.16875,0.400612 -0.18059,0.61344 -0.0292,0.525592 0.0799,0.634558 0.2888,1.010455"
       id="path8120" />
    <path
       style="fill:#ff0000;fill-opacity:0;stroke:#fd0000;stroke-width:1;stroke-linecap:round;stroke-linejoin:round;stroke-dasharray:none;stroke-dashoffset:0;stroke-opacity:1"
       d="m 106.92678,-16.766187 c 0.50879,0.185344 -0.54149,4.502772 -0.10821,5.629174 0.0999,0.259712 0.33814,0.02289 0.43313,-0.0721"
       id="path8122" />
    <path
       style="fill:#ff0000;fill-opacity:0;stroke:#fd0000;stroke-width:1;stroke-linecap:round;stroke-linejoin:round;stroke-dasharray:none;stroke-dashoffset:0;stroke-opacity:1"
       d="m 109.2372,-16.54962 c -0.1587,-1.110298 0.0318,0.119782 -0.10835,2.201076 -0.0403,0.598735 -0.44295,2.254528 -0.18045,2.850775 0.0689,0.156478 0.18522,0.298311 0.32492,0.396874 0.35515,0.250562 1.15107,-0.358944 1.37177,-0.541205 0.10498,-0.08669 0.19723,-0.188061 0.28881,-0.288802 0.0292,-0.03207 0.0826,-0.06617 0.0721,-0.108212 -0.009,-0.03689 -0.0721,-0.02408 -0.10821,-0.03612"
       id="path8124" />
    <path
       style="fill:#ff0000;fill-opacity:0;stroke:#fd0000;stroke-width:1;stroke-linecap:round;stroke-linejoin:round;stroke-dasharray:none;stroke-dashoffset:0;stroke-opacity:1"
       d="m 108.19035,-13.302113 c -0.319,-1.025944 1.61664,-0.829865 2.41863,-0.829865"
       id="path8126" />
    <path
       style="fill:#ff0000;fill-opacity:0;stroke:#fd0000;stroke-width:1;stroke-linecap:round;stroke-linejoin:round;stroke-dasharray:none;stroke-dashoffset:0;stroke-opacity:1"
       d="m 112.01687,-13.807199 c 0.0962,1.07051 0.19244,2.141021 0.28866,3.211531 0,0.168362 -0.009,0.336984 0,0.505087 0.003,0.04952 10e-4,0.1793752 0.0361,0.1443301 0.0619,-0.061872 0.0492,-0.1680781 0.0722,-0.2525431 0.0492,-0.180126 0.0966,-0.360734 0.14447,-0.541205 0.25617,-0.965198 0.50373,-1.931367 0.90239,-2.850775 0.0644,-0.148479 0.19322,-0.454807 0.32492,-0.360756 0.26186,0.187 0.16037,1.274049 0.25268,1.587636 0.0245,0.08325 0.058,0.208708 0.14447,0.216567 0.10308,0.0094 0.17764,-0.109172 0.25269,-0.180449 0.40897,-0.388432 0.57141,-0.64894 0.9385,-1.082549 0.10457,-0.123517 0.21047,-0.246338 0.32492,-0.360756 0.0425,-0.04253 0.0865,-0.09182 0.14433,-0.108354 0.17123,-0.04895 0.14272,0.248503 0.14447,0.288661 0.008,0.192306 0.0187,0.385887 0,0.577464 -0.0251,0.257518 -0.44291,1.815589 0.0361,1.948533 0.46209,0.12824 1.05289,-0.694768 1.26342,-1.010455 0.25876,-0.388003 0.25269,-0.269873 0.25269,-0.46911"
       id="path8128" />
    <path
       style="fill:#ff0000;fill-opacity:0;stroke:#fd0000;stroke-width:1;stroke-linecap:round;stroke-linejoin:round;stroke-dasharray:none;stroke-dashoffset:0;stroke-opacity:1"
       d="m 118.16072,-11.78643 c -1.02308,0.340583 0.48432,-0.146551 1.80491,-1.046573 0.17101,-0.11655 0.25453,-0.327646 0.36104,-0.505086 0.0748,-0.124637 0.16597,-0.252371 0.18045,-0.397015 0.0398,-0.397948 -0.40946,-0.57867 -0.72194,-0.541204 -0.5488,0.0658 -1.19501,0.367265 -1.48013,0.865983 -0.32189,0.563042 -0.31975,1.537058 0.0361,2.092863 0.10563,0.164967 0.25114,0.302555 0.39716,0.433133 0.84777,0.75815 2.1513,-0.175897 2.52698,-1.010455 0.0455,-0.101121 0.0481,-0.216519 0.0721,-0.324779"
       id="path8130" />
    <path
       style="fill:#ff0000;fill-opacity:0;stroke:#fd0000;stroke-width:1;stroke-linecap:round;stroke-linejoin:round;stroke-dasharray:none;stroke-dashoffset:0;stroke-opacity:1"
       d="m 122.81753,-15.683637 c -0.012,-0.09622 -0.0241,-0.192441 -0.0361,-0.288661 0,-0.120299 0.0109,-0.241093 0,-0.360897 -0.002,-0.01692 -0.0346,-0.0529 -0.0361,-0.03598 -0.078,0.876618 -0.10854,1.75693 -0.18045,2.634068 -0.0146,0.17861 -0.18059,1.956235 -0.18059,2.237335 0,0.213733 0.0168,1.118526 0.46939,1.118526 0.47622,0 1.04677,-0.919947 1.26342,-1.262857 0.0725,-0.114759 0.3426,-0.433965 0.25269,-0.61344"
       id="path8132" />
    <path
       style="fill:#ff0000;fill-opacity:0;stroke:#fd0000;stroke-width:1;stroke-linecap:round;stroke-linejoin:round;stroke-dasharray:none;stroke-dashoffset:0;stroke-opacity:1"
       d="m 121.12084,-12.688672 c 0.32663,-0.0079 2.03973,-1.163717 2.70743,-0.829866"
       id="path8134" />
    <path
       style="fill:#ff0000;fill-opacity:0;stroke:#fd0000;stroke-width:1;stroke-linecap:round;stroke-linejoin:round;stroke-dasharray:none;stroke-dashoffset:0;stroke-opacity:1"
       d="m 124.33364,-13.95153 c 0.028,0.845612 0.55825,2.251377 0.72208,2.706304 0.0678,0.188363 0.21133,0.340265 0.32477,0.505227 0.0246,0.03575 0.10836,0.115478 0.10836,0.07209 0,-0.0916 -0.0848,-0.164032 -0.10836,-0.252543 -0.0316,-0.118535 -0.0555,-0.239345 -0.0721,-0.360897 -0.10712,-0.785863 -0.0539,-1.708918 0.0721,-2.489737 0.01,-0.0617 0.11308,-0.605249 0.21671,-0.721794 0.22914,-0.257686 0.95177,0.168711 1.19119,0.216567 0.17629,0.03524 0.46876,-0.01347 0.64984,-0.03612"
       id="path8136" />
    <path
       style="fill:#ff0000;fill-opacity:0;stroke:#fd0000;stroke-width:1;stroke-linecap:round;stroke-linejoin:round;stroke-dasharray:none;stroke-dashoffset:0;stroke-opacity:1"
       d="m 128.01583,-13.879435 c 0.34895,0.02408 0.70586,0.150145 1.04686,0.07224 0.31981,-0.07307 0.26262,-0.746519 0.18045,-0.938219 -0.13855,-0.323218 -0.4091,-0.324928 -0.64984,-0.07224 -0.4983,0.523037 -0.35051,0.439131 -0.57747,0.938219 -0.33371,0.733845 -0.48055,0.711445 -0.43327,1.443447 0.0111,0.171834 0.0444,0.345221 0.10835,0.505086 0.38288,0.95666 1.25131,0.848217 1.94938,0.324779 0.33825,-0.253628 0.42783,-0.477842 0.61358,-0.865983 0.104,-0.217306 0.14563,-0.357424 0.0722,-0.577322"
       id="path8138" />
    <rect
       style="fill:#ff0000;fill-opacity:0;stroke:#fda100;stroke-width:1;stroke-linecap:round;stroke-linejoin:round;stroke-dasharray:2, 4;stroke-dashoffset:0;stroke-opacity:1"
       id="rect8257"
       width="128.84311"
       height="13.984978"
       x="22.04088"
       y="-7.709971" />
    <path
       style="fill:#ff0000;fill-opacity:0;stroke:#fda100;stroke-width:1;stroke-linecap:round;stroke-linejoin:round;stroke-dasharray:none;stroke-dashoffset:0;stroke-opacity:1"
       d="m 26.552916,-11.670389 c -0.107914,-0.614626 -0.208454,-1.45015 -1.017438,-1.47626 -0.91002,-0.02937 -2.285649,1.212108 -2.198932,2.165198 0.06374,0.70056 0.471165,1.3636334 1.148786,1.6074795 0.125215,0.04506 0.261659,0.081519 0.393789,0.065674 0.647469,-0.077644 0.992093,-0.7811225 1.247169,-1.2794925 0.662912,-1.295205 0.828407,-2.416138 0.853381,-3.838352 0.0099,-0.567378 0.03182,-0.833676 -0.06567,-1.345039 -0.01297,-0.06796 -0.04666,-0.130373 -0.06568,-0.196894 -0.003,-0.01053 0,-0.04378 0,-0.03284 0,0.712543 0.01379,1.418619 0.03284,2.132489 0.03147,1.178756 0.07846,2.358803 0.36108,3.510365 0.07586,0.30911 0.250211,0.9768034 0.590685,1.1809816 0.05294,0.031746 0.03364,-0.1904349 0,-0.459335"
       id="path8328" />
    <path
       style="fill:#ff0000;fill-opacity:0;stroke:#fda100;stroke-width:1;stroke-linecap:round;stroke-linejoin:round;stroke-dasharray:none;stroke-dashoffset:0;stroke-opacity:1"
       d="m 29.276987,-12.392165 c 0.01095,-0.08748 0.02188,-0.17496 0.03284,-0.26244 0,-0.01095 0.0013,-0.0437 0,-0.03284 -0.123516,0.987167 -0.197684,1.994505 -0.06567,2.985484 0.0622,0.4669102 -0.0062,0.046744 0.06567,0.2624405 0.0035,0.010385 -0.01095,0.032837 0,0.032837 0.01548,0 0.01815,-0.027942 0.03284,-0.032837 0.02077,-0.00692 0.04378,0 0.06567,0"
       id="path8330" />
    <path
       style="fill:#ff0000;fill-opacity:0;stroke:#fda100;stroke-width:1;stroke-linecap:round;stroke-linejoin:round;stroke-dasharray:none;stroke-dashoffset:0;stroke-opacity:1"
       d="m 32.46052,-12.752988 c -0.426628,0.17496 -0.930397,0.224078 -1.27988,0.524881 -0.234,0.201407 0.174659,0.585559 0.295278,0.688938 0.08306,0.07119 0.164713,0.147986 0.26257,0.196894 0.259701,0.129801 1.134731,0.284947 1.214331,0.623264 0.07097,0.301632 -0.147682,0.598845 -0.295277,0.8201586 -0.187529,0.2811899 -0.375108,0.5393457 -0.689325,0.6889382 -0.398909,0.1899155 -0.988438,-0.1108652 -1.115819,-0.5248807 -0.05805,-0.1886791 0.08119,-0.3816151 0.295405,-0.3281151 0.404082,0.1009219 0.639291,0.9585513 0.754869,1.2794935 0.02021,0.056126 0.124971,0.4637588 0.26257,0.524881 0.19485,0.086554 0.272153,-0.2162837 0.328115,-0.3279865"
       id="path8332" />
    <path
       style="fill:#ff0000;fill-opacity:0;stroke:#fda100;stroke-width:1;stroke-linecap:round;stroke-linejoin:round;stroke-dasharray:none;stroke-dashoffset:0;stroke-opacity:1"
       d="m 39.422374,-11.804047 c 0.02188,-0.09838 0.06063,-0.194486 0.06567,-0.295149 0.01228,-0.245492 -0.06946,-0.570003 -0.164055,-0.787449 -0.05088,-0.11695 -0.09802,-0.247582 -0.197025,-0.327987 -0.227303,-0.184609 -0.649642,-0.07213 -0.853252,0.03271 -0.208129,0.107171 -0.38699,0.266595 -0.557974,0.426498 -0.677511,0.633607 -1.009928,1.474877 -0.820415,2.394929 0.17407,0.8450735 0.793385,1.1657916 1.444064,0.4920437 0.545428,-0.5647667 0.648356,-0.7244057 0.984602,-1.4105857 0.407572,-0.831737 0.448638,-0.948493 0.62352,-1.870048 0.16719,-0.881027 0.156596,-1.672583 0.131347,-2.558858 -0.004,-0.142108 0.0089,-0.284609 0,-0.426498 -0.0021,-0.03455 -0.0084,-0.07404 -0.03284,-0.09851 -0.0057,-0.0057 -0.103388,0.106729 -0.131347,0.229732 -0.03908,0.171933 -0.04223,0.350109 -0.06555,0.52488 -0.155887,1.168797 -0.327377,2.334735 -0.426754,3.510365 -0.02953,0.349357 -0.07243,0.699228 -0.06555,1.049762 0.0021,0.107303 0.0047,0.9936057 0.426627,0.852996 0.231521,-0.07715 0.337818,-0.567293 0.4923,-0.721776"
       id="path8338" />
    <path
       style="fill:#ff0000;fill-opacity:0;stroke:#fda100;stroke-width:1;stroke-linecap:round;stroke-linejoin:round;stroke-dasharray:none;stroke-dashoffset:0;stroke-opacity:1"
       d="m 40.80089,-12.099196 c 1.106506,0.20104 1.055007,0.503545 1.706634,-0.459335 0.247814,-0.366186 0.185931,-1.278922 -0.426755,-1.246656 -0.117631,0.0062 -0.235121,0.05892 -0.328115,0.13122 -0.568383,0.441921 -0.94194,1.06605 -1.083111,1.771537 -0.157022,0.784702 -0.113959,1.9565706 0.590812,2.4933126 0.10514,0.080075 0.229211,0.1535115 0.36095,0.1640573 0.928444,0.074322 1.787712,-1.4985789 2.067713,-2.1980349"
       id="path8340" />
    <path
       style="fill:#ff0000;fill-opacity:0;stroke:#fda100;stroke-width:1;stroke-linecap:round;stroke-linejoin:round;stroke-dasharray:none;stroke-dashoffset:0;stroke-opacity:1"
       d="m 43.393611,-13.247469 c 0.131307,0.776418 0.192325,1.568054 0.393919,2.329255 0.09642,0.364093 0.29585,0.695698 0.4923,1.0170528 0.121161,0.1981986 0.317108,0.2268138 0.459462,0.032709 0.157017,-0.2140988 0.245579,-1.0594578 0.26257,-1.1481448 0.115972,-0.605348 0.271031,-1.20805 0.426625,-1.804374 0.05767,-0.221024 0.06862,-0.459335 0.328245,-0.459335"
       id="path8342" />
    <path
       style="fill:#ff0000;fill-opacity:0;stroke:#fda100;stroke-width:1;stroke-linecap:round;stroke-linejoin:round;stroke-dasharray:none;stroke-dashoffset:0;stroke-opacity:1"
       d="m 46.052007,-11.508769 c 0.164102,0.579609 0.328202,1.159219 0.492302,1.7388279 0.04378,0.032795 0.08444,0.1265277 0.131347,0.098383 0.07049,-0.042296 0.01053,-0.9340589 0,-1.0497609 -0.04903,-0.538948 -0.257061,-1.354953 0.03284,-1.870049 0.303297,-0.538902 1.312865,-0.410612 1.805017,-0.426497 0.308523,-0.01 0.611076,-0.06555 0.919054,-0.06555"
       id="path8344" />
    <path
       style="fill:#ff0000;fill-opacity:0;stroke:#fda100;stroke-width:1;stroke-linecap:round;stroke-linejoin:round;stroke-dasharray:none;stroke-dashoffset:0;stroke-opacity:1"
       d="m 49.563784,-12.755425 c 0.569672,0.427184 0.696338,0.601905 1.837981,0.229731 0.233971,-0.07627 -0.202991,-0.789721 -0.26257,-0.852995 -0.09155,-0.09723 -0.203771,-0.181332 -0.328242,-0.229732 -0.234143,-0.09104 -0.56085,0.127828 -0.689194,0.262569 -0.111374,0.116924 -0.168937,0.276902 -0.229733,0.426498 -0.287658,0.707816 -0.299342,1.2135 -0.06567,1.935594 0.140052,0.432791 0.317585,0.885704 0.853382,0.885704 0.135297,0 0.266631,-0.05216 0.39379,-0.09838 0.685583,-0.249207 1.244002,-0.586301 1.673794,-1.18111 0.03225,-0.04464 0.251227,-0.334534 0.26257,-0.459206 0.006,-0.06626 -0.02188,-0.131263 -0.03284,-0.196895"
       id="path8346" />
  </g>
</svg>
