<?xml version="1.0" encoding="UTF-8" standalone="no"?>
<!-- Created with Inkscape (http://www.inkscape.org/) -->

<svg
   width="129.78419mm"
   height="111.56187mm"
   viewBox="0 0 129.78419 111.56187"
   version="1.1"
   id="svg5"
   inkscape:version="1.2.2 (b0a8486541, 2022-12-01)"
   sodipodi:docname="galvanik-pil.svg"
   xmlns:inkscape="http://www.inkscape.org/namespaces/inkscape"
   xmlns:sodipodi="http://sodipodi.sourceforge.net/DTD/sodipodi-0.dtd"
   xmlns="http://www.w3.org/2000/svg"
   xmlns:svg="http://www.w3.org/2000/svg">
  <sodipodi:namedview
     id="namedview7"
     pagecolor="#ffffff"
     bordercolor="#000000"
     borderopacity="0.25"
     inkscape:showpageshadow="2"
     inkscape:pageopacity="0.0"
     inkscape:pagecheckerboard="0"
     inkscape:deskcolor="#d1d1d1"
     inkscape:document-units="mm"
     showgrid="true"
     inkscape:zoom="1"
     inkscape:cx="342.5"
     inkscape:cy="229"
     inkscape:window-width="1916"
     inkscape:window-height="1026"
     inkscape:window-x="0"
     inkscape:window-y="0"
     inkscape:window-maximized="1"
     inkscape:current-layer="layer1">
    <inkscape:grid
       type="xygrid"
       id="grid4780"
       spacingx="5"
       spacingy="5"
       empspacing="1"
       units="mm"
       originx="-15.885868"
       originy="-40.226517" />
  </sodipodi:namedview>
  <defs
     id="defs2" />
  <g
     inkscape:label="Layer 1"
     inkscape:groupmode="layer"
     id="layer1"
     transform="translate(-15.885869,-40.226516)">
    <path
       style="fill:#ff0000;fill-opacity:0.00961142;stroke:#000000;stroke-width:1;stroke-linecap:round;stroke-linejoin:round;stroke-dasharray:none"
       d="M 32.616267,80.984942 33.28369,151.00032 H 78.644902 V 81.318655"
       id="path1505" />
    <path
       style="fill:#ff0000;fill-opacity:0.00961142;stroke:#000000;stroke-width:1;stroke-linecap:round;stroke-linejoin:round;stroke-dasharray:none"
       d="m 91.096138,81.273028 0.667423,70.015352 H 137.12477 V 81.606741"
       id="path1505-3" />
    <path
       style="fill:#ff0000;fill-opacity:0.00961142;stroke:#002aff;stroke-width:1;stroke-linecap:round;stroke-linejoin:round;stroke-dasharray:none;stroke-opacity:1"
       d="m 34.036087,95.337541 c 0.666215,-0.01913 1.529225,0.302604 2.216973,0.130501 0.06032,-0.01511 0.27088,-0.190812 0.391501,-0.130501 0.345186,0.172593 0.740685,0.178666 1.173993,0.130501 0.735759,-0.08179 0.333349,-0.154586 1.04349,-0.390991 0.08239,-0.02743 0.178129,0.02749 0.260491,0 0.05835,-0.01947 0.06898,-0.1305 0.1305,-0.1305 0.0435,0 -0.01378,0.08924 0,0.1305 0.01998,0.05985 0.149294,0.353753 0.261001,0.390991 0.425871,0.141957 0.957104,-0.0868 1.304494,-0.260493 0.05502,-0.02751 0.06898,-0.130498 0.1305,-0.130498 0.09712,0 0.165262,0.111437 0.26049,0.130498 0.127961,0.02561 0.263515,-0.02551 0.391499,0 0.01865,0.0037 0.503121,0.255894 0.521491,0.260493 0.216958,0.05429 0.88509,0.02728 1.043493,-0.130501 0.0307,-0.03058 -0.04333,-0.129992 0,-0.129992 0.10609,0 0.559538,0.476867 0.782492,0.521491 0.28149,0.05634 0.88401,0.05922 1.043493,-0.260998 0.01939,-0.03894 -0.03076,-0.09974 0,-0.130501 0.05416,-0.05416 0.582504,0.243483 0.652499,0.261001 0.466831,0.116822 0.798613,-0.203668 1.173994,-0.390993 0.120763,-0.06026 0.44169,0.938538 1.303983,0.651484 0.215603,-0.07178 0.840406,-0.876192 0.912989,-0.912482 0.163222,-0.08161 0.135359,0.1774 0.261001,0.260998 0.216903,0.14432 0.806516,0.248018 1.043493,0.129992 0.154594,-0.077 0.482238,-0.410657 0.521491,-0.39099 0.21712,0.108773 0.401847,0.307546 0.6525,0.39099 1.294654,0.430988 1.961488,-0.0021 2.999975,-0.521491 0.168325,-0.08416 0.133075,0.08797 0.260493,0.130501 0.425027,0.141859 1.616419,0.07957 1.956483,-0.260493 0.03076,-0.03076 -0.03076,-0.09974 0,-0.130498 0.123031,-0.123031 0.146047,0.333513 0.261001,0.390991 0.153111,0.07655 1.077695,0.02747 1.17399,0 0.139864,-0.03991 0.734166,-0.610905 0.912993,-0.521491 0.490016,0.245007 1.226507,0.671359 1.825984,0.521491 0.353031,-0.08826 0.738344,-0.368919 1.043491,-0.521491 0.132445,-0.06622 1.2144,-0.09009 1.304493,0 0.03076,0.03076 -0.03076,0.09974 0,0.1305 0.06034,0.06034 0.312187,-0.03948 0.390991,0 0.348327,0.174503 0.756759,0.382413 1.173991,0.521491 0.425259,0.141753 0.745254,-0.273415 1.173993,-0.1305 0.116723,0.03891 0.150931,0.206018 0.261001,0.260998 0.31007,0.154884 0.832236,0.333997 1.17399,0.390993 0.693066,0.115586 1.358064,-0.321757 1.956486,-0.521491 0.266086,-0.08881 0.63814,0.04584 0.912989,0 0.412615,-0.06882 0.792147,-0.133723 1.173483,-0.261001 0.203158,-0.06781 0.591815,0.391499 0.912992,0.391499 0.65872,0 1.2039,-0.391499 1.826493,-0.391499 0.160878,0 0.936755,-0.106738 1.043493,0 0.03076,0.03076 -0.0307,0.09968 0,0.130501 0.08231,0.08263 0.413208,-0.05414 0.521491,0 0.05502,0.02751 0.07214,0.111045 0.130501,0.1305 0.257577,0.08586 0.514556,-0.1305 0.782492,-0.1305 0.708191,0 0.333359,0.355065 1.304491,-0.130501"
       id="path11266" />
    <path
       style="fill:#ff0000;fill-opacity:0.00961142;stroke:#002aff;stroke-width:1;stroke-linecap:round;stroke-linejoin:round;stroke-dasharray:none;stroke-opacity:1"
       d="m 92.078094,95.077051 c 0.327867,-0.06557 1.129864,-0.233243 1.434992,-0.261001 0.389723,-0.03545 0.787993,-0.06437 1.173993,0 0.536797,0.08952 0.976088,0.359148 1.564982,0.261001 0.47445,-0.07908 0.86239,-0.374123 1.304493,-0.521491 0.409282,-0.136427 0.859515,0.03626 1.303983,-0.1305 0.27314,-0.102479 0.491271,-0.390991 0.783,-0.390991 0.04333,0 -0.01934,0.09122 0,0.12999 0.09067,0.181697 0.626503,1.173482 0.912993,1.173482 0.18771,0 0.95381,-0.303053 1.17348,-0.39099 0.14552,-0.05826 0.23475,-0.260493 0.3915,-0.260493 0.0433,0 -0.0307,0.09941 0,0.129992 0.0308,0.0307 0.0997,-0.03076 0.1305,0 0.174,0.174001 -0.27683,0.125222 0.1305,0.261001 0.23342,0.07781 0.6635,0.172109 0.91299,0.130498 0.1477,-0.02463 0.87541,-0.298582 1.0435,-0.130498 0.18391,0.183909 -0.15502,0.369351 0.39099,0.26049 0.61341,-0.122298 1.21081,-0.398258 1.82649,-0.521491 0.81254,-0.162636 0.50356,0.48431 1.56498,0.130501 0.26716,-0.08905 1.00002,-0.804532 1.3045,-0.651992 0.39482,0.197795 0.39311,0.678434 0.91299,0.782492 0.47672,0.09542 1.02498,-0.05705 1.43448,-0.261001 0.055,-0.02737 0.0691,-0.129992 0.1305,-0.129992 0.10595,0 0.89438,0.521491 1.04349,0.521491 0.0973,0 0.16664,-0.106886 0.261,-0.130498 0.19998,-0.05004 0.45682,0.06506 0.65199,0 0.63601,-0.212002 1.14885,-0.697809 1.82599,-0.782492 0.74218,-0.09282 0.73674,0.332981 1.30449,0.521491 0.5702,0.189326 1.29648,-0.15459 1.82598,-0.26049 0.42736,-0.08547 0.50249,0.03717 0.78249,0.130498 0.23432,0.07811 0.54222,-0.05989 0.7825,0 0.0943,0.02352 0.16668,0.106505 0.261,0.129992 0.48333,0.120359 0.98249,-0.147365 1.43499,-0.26049 0.32744,-0.08186 0.71213,0.06632 1.04349,0 0.13473,-0.02697 0.25627,-0.103534 0.39099,-0.1305 0.86307,-0.172749 1.20985,0.726868 1.82598,0.521491 0.32316,-0.10772 0.80139,-0.577297 1.174,-0.390991 0.4527,0.226351 0.36858,0.487461 1.04349,0.390991 0.28685,-0.041 1.47349,-0.501989 1.69548,-0.390991 0.20208,0.101034 0.4615,0.457782 0.6525,0.521491 0.32996,0.110056 0.70606,0.0844 1.04349,0 0.0435,-0.01087 1.05954,-0.635886 1.17349,-0.521491 0.0951,0.09545 0.0432,0.434369 0.261,0.521491 0.42096,0.168384 1.41802,0.306266 1.82598,0 0.0156,-0.01169 0.21802,-0.563798 0.3915,-0.390993 0.0307,0.03058 -0.0307,0.09941 0,0.129992 0.23966,0.238718 1.82599,0.03517 1.82599,0 0,-0.137559 -0.29424,0.03323 -0.3915,0.130501"
       id="path11268" />
    <path
       style="fill:#ff0000;fill-opacity:0.00961142;stroke:#ff0025;stroke-width:5.2;stroke-linecap:square;stroke-linejoin:round;stroke-dasharray:none;stroke-opacity:1"
       d="m 66.81409,112.76848 c 0,0 -0.726366,-31.641171 10.102888,-40.245553 3.439414,-2.732786 9.642126,-2.84547 13.176612,-0.236812 11.33421,8.365312 11.72764,40.601075 11.72764,40.601075"
       id="path11337"
       sodipodi:nodetypes="caac" />
    <path
       style="fill:#ff0000;fill-opacity:0.00961142;stroke:#ff0025;stroke-width:1;stroke-linecap:round;stroke-linejoin:round;stroke-dasharray:none;stroke-opacity:1"
       d="m 77.205878,52.99513 c -0.0511,0.47239 -2.16699,5.38389 0.51336,5.000771 0.3993,-0.05708 0.66545,-0.460817 1.02622,-0.641202"
       id="path11473" />
    <path
       style="fill:#ff0000;fill-opacity:0.00961142;stroke:#ff0025;stroke-width:1;stroke-linecap:round;stroke-linejoin:round;stroke-dasharray:none;stroke-opacity:1"
       d="m 74.127708,56.457317 c 3.67136,-1.552543 2.20484,-0.986282 4.36107,-1.795264"
       id="path11475" />
    <path
       style="fill:#ff0000;fill-opacity:0.00961142;stroke:#ff0025;stroke-width:1;stroke-linecap:round;stroke-linejoin:round;stroke-dasharray:none;stroke-opacity:1"
       d="m 79.515008,55.303255 c -0.0428,0.384688 -0.10074,0.767987 -0.12835,1.154062 -0.1869,2.614422 1.15054,0.01291 1.41125,-0.769544 0.0727,-0.218212 0.0262,-0.640699 0.25618,-0.640699 0.30852,0 -0.25618,2.092902 -0.25618,2.307625 0,0.565099 0.4492,0.447675 0.6412,-0.128342"
       id="path11497" />
    <path
       style="fill:#ff0000;fill-opacity:0.00961142;stroke:#ff0025;stroke-width:1;stroke-linecap:round;stroke-linejoin:round;stroke-dasharray:none;stroke-opacity:1"
       d="m 82.080308,55.687773 c 1.07691,-0.717703 0.38881,-0.512439 1.53959,-0.384518 2.79845,0.311073 -1.94701,2.182272 -0.51336,3.205506 0.60857,0.434358 1.59376,0.584451 2.30912,0.51286 0.13446,-0.01347 0.25344,-0.09554 0.38452,-0.128341 0.0415,-0.0104 0.12834,0.04278 0.12834,0 0,-0.157911 -0.17983,-0.127839 -0.25618,-0.127839"
       id="path11501" />
    <path
       style="fill:#ff0000;fill-opacity:0.00961142;stroke:#ff0025;stroke-width:1;stroke-linecap:round;stroke-linejoin:round;stroke-dasharray:none;stroke-opacity:1"
       d="m 75.410108,59.791165 c -0.17095,0.940326 -0.25396,1.900975 -0.51286,2.820984 -0.12944,0.459984 -0.40733,0.865476 -0.6417,1.281901 -0.22678,0.402937 -0.44239,0.827334 -0.76954,1.154063 -0.0956,0.09548 -0.19401,-0.266425 -0.12834,-0.384519 0.59534,-1.070692 1.48651,-1.417683 2.43746,-2.051445 0.34776,-0.231764 0.31117,-0.513363 0.76955,-0.513363 0.1815,0 -0.234,0.284359 -0.38503,0.385022 -0.53466,0.356365 -2.33302,1.195935 -2.43696,1.923103 -0.14328,1.002379 2.9999,0.385024 3.46319,0.385024"
       id="path11503" />
    <path
       style="fill:#ff0000;fill-opacity:0.00961142;stroke:#ff0025;stroke-width:1;stroke-linecap:round;stroke-linejoin:round;stroke-dasharray:none;stroke-opacity:1"
       d="m 79.900028,65.817656 c 0.25651,-0.769374 0.68002,-1.502071 0.76954,-2.308125 0.004,-0.03231 -0.21395,-1.410745 -0.76954,-1.410745 -0.19132,0 -0.35111,0.155305 -0.51337,0.256683 -1.07776,0.673402 -1.25473,2.373371 -0.12833,3.077165 0.21155,0.132181 0.41856,0.496536 0.6417,0.385022 0.0727,-0.03634 0.97499,-2.077101 0.89788,-2.308125 -0.0558,-0.167314 -0.34603,0.07256 -0.51336,0.128339"
       id="path11505" />
    <path
       style="fill:#ff0000;fill-opacity:0.00961142;stroke:#ff0025;stroke-width:1;stroke-linecap:round;stroke-linejoin:round;stroke-dasharray:none;stroke-opacity:1"
       d="m 78.617118,60.945227 c 0.47025,0.04261 0.9405,0.08523 1.41075,0.127839"
       id="path11507" />
    <path
       style="fill:#ff0000;fill-opacity:0.00961142;stroke:#ff0025;stroke-width:1;stroke-linecap:round;stroke-linejoin:round;stroke-dasharray:none;stroke-opacity:1"
       d="m 80.925748,68.12528 c 0.0427,0.04278 0.0678,0.128339 0.12834,0.128339 0.0428,0 -0.0136,-0.08776 0,-0.128339 0.0302,-0.0906 0.10514,-0.16353 0.12834,-0.25618 0.0631,-0.252278 0.0698,-0.516157 0.12834,-0.769543 0.07,-0.303141 0.22468,-0.587912 0.25668,-0.897382 0.0969,-0.936294 0.0855,-1.880656 0.12834,-2.820985 0.2993,-0.256347 0.55189,-0.580425 0.89789,-0.76904 0.43223,-0.235624 2.21264,0.35216 1.53908,1.025722 -0.57389,0.573889 -2.69365,0.168897 -2.69365,1.281902"
       id="path11509" />
    <path
       style="fill:#ff0000;fill-opacity:0.00961142;stroke:#ff0025;stroke-width:1;stroke-linecap:round;stroke-linejoin:round;stroke-dasharray:none;stroke-opacity:1"
       d="m 85.158978,63.252849 c -1.81854,-0.13629 0.43478,1.488828 0,1.923605 -0.1912,0.191206 -0.29783,-0.502285 -0.25668,-0.769543 0.1657,-1.076069 0.53123,-2.117659 1.41125,-2.820985 0.31215,-0.249481 0.97638,0.641202 1.2829,0.641202"
       id="path11511" />
    <path
       style="fill:#ff0000;fill-opacity:0.00961142;stroke:#ff0025;stroke-width:1;stroke-linecap:round;stroke-linejoin:round;stroke-dasharray:none;stroke-opacity:1"
       d="m 88.494328,63.38119 c -0.0428,0.470249 -0.12834,0.938554 -0.12834,1.410745 0,1.362289 1.52658,-0.773025 1.66743,-1.026223 0.30488,-0.548082 0.29241,-1.116968 0.51286,-0.897382 0.0701,0.06987 -0.53642,1.456295 -0.25618,1.923605 0.28749,0.479393 0.68424,-0.470929 0.76954,-0.641202"
       id="path11513" />
    <path
       style="fill:#ff0000;fill-opacity:0.00961142;stroke:#ff0025;stroke-width:1;stroke-linecap:round;stroke-linejoin:round;stroke-dasharray:none;stroke-opacity:1"
       d="m 88.494328,61.714267 c 0.51303,-0.256346 1.02606,-0.512693 1.53909,-0.76904"
       id="path11515" />
    <path
       style="fill:#ff0000;fill-opacity:0.00961142;stroke:#ff0025;stroke-width:1;stroke-linecap:round;stroke-linejoin:round;stroke-dasharray:none;stroke-opacity:1"
       d="m 92.214198,62.227128 c -0.2139,0.384688 -0.70856,0.719013 -0.6417,1.154062 0.0386,0.251344 1.39003,0.437518 1.15457,1.025721 -0.27685,0.691576 -1.39939,0.944369 -2.05245,1.025723 -0.12719,0.01585 -0.26294,-0.04058 -0.38452,0 -0.0406,0.01355 0,0.08556 0,0.128342"
       id="path11517" />
    <path
       style="fill:#ff0000;fill-opacity:0.00961142;stroke:#ff0025;stroke-width:1;stroke-linecap:round;stroke-linejoin:round;stroke-dasharray:none;stroke-opacity:1"
       d="m 92.983748,63.63787 c 0.24539,0.406014 -0.10375,1.691929 0.51286,1.794764 0.83371,0.139044 1.83321,-1.367089 2.18079,-1.923103 0.12203,-0.19522 0.18387,-0.422793 0.25668,-0.641201 0.0135,-0.04059 0,-0.171122 0,-0.128342 0,0.546307 -0.2988,0.949553 -0.25668,1.538584 0.0162,0.226457 0.75319,2.324454 1.2829,1.795264 0.15942,-0.159263 0.3078,-0.666636 0.38452,-0.897382"
       id="path11519" />
    <path
       style="fill:#ff0000;fill-opacity:0.00961142;stroke:#ff0025;stroke-width:1;stroke-linecap:round;stroke-linejoin:round;stroke-dasharray:none;stroke-opacity:1"
       d="m 93.112088,61.458087 c 0.59859,-0.213733 1.19717,-0.427469 1.79576,-0.641202"
       id="path11521" />
    <g
       id="path12251">
      <path
         style="color:#000000;fill:#ff0000;fill-opacity:0.00961142;stroke-linejoin:round;-inkscape-stroke:none"
         d="m 41.416906,65.025555 v 26.02907 l 0.256681,29.106235"
         id="path12261" />
      <path
         style="color:#000000;fill:#ff7c00;fill-opacity:1;stroke-linejoin:round;-inkscape-stroke:none"
         d="m 35.209843,64.959004 c 0.300695,11.308416 -0.440363,23.417474 -2.59e-4,34.721599 l 2.513933,20.352637 4.450311,-0.01 2.860563,-20.2826 5.19e-4,-34.781896 z"
         id="path12263"
         sodipodi:nodetypes="ccccccc" />
    </g>
    <g
       id="path12251-6"
       transform="translate(88.936073,0.12094219)">
      <path
         style="color:#000000;fill:#ff0000;fill-opacity:0.00961142;stroke-linejoin:round;-inkscape-stroke:none"
         d="m 41.416906,65.025555 v 26.02907 l 0.256681,29.106235"
         id="path12261-7" />
      <path
         style="color:#000000;fill:#ff7c00;fill-opacity:1;stroke-linejoin:round;-inkscape-stroke:none"
         d="m 29.556733,64.665474 c 0.300695,11.308416 -0.440363,23.417474 -2.59e-4,34.721599 l -5.341084,20.426087 20.30754,0.0637 -5.141649,-20.4298 5.19e-4,-34.781896 z"
         id="path12263-5"
         sodipodi:nodetypes="ccccccc" />
    </g>
    <path
       style="fill:#ff7c00;fill-opacity:0;stroke:#ff7c00;stroke-width:1;stroke-linecap:butt;stroke-linejoin:round;stroke-dasharray:none;stroke-opacity:1"
       d="M 40.069218,67.474766 V 49.019079 l 83.699692,-10e-7 -0.17525,17.752647"
       id="path12906" />
    <path
       style="fill:#ff7c00;fill-opacity:0;stroke:#001cff;stroke-width:1;stroke-linecap:round;stroke-linejoin:round;stroke-dasharray:none;stroke-opacity:1"
       d="m 54.373602,129.16354 c 0.164978,-0.98859 -0.0908,-0.0679 0.513374,-0.94019 0.387749,-0.55981 0.623027,-1.29422 0.684165,-1.96626 0.01032,-0.1135 0,-0.45589 0,-0.34192 0,1.68925 -0.353947,3.30774 -0.684165,4.95828 -0.005,0.025 -0.493424,1.83471 -0.342249,2.13706 0.09337,0.18673 0.08556,-0.48348 0.08556,-0.51304"
       id="path16586" />
    <path
       style="fill:#ff7c00;fill-opacity:0;stroke:#001cff;stroke-width:1;stroke-linecap:round;stroke-linejoin:round;stroke-dasharray:none;stroke-opacity:1"
       d="m 56.169745,132.32668 c 0.542395,-1.1749 0.568049,-1.21106 1.111644,-2.47897 0.231505,-0.53999 0.477837,-1.07426 0.684165,-1.62436 0.136109,-0.36288 0.241125,-0.73707 0.341915,-1.1113 0.09887,-0.36711 0.186555,-0.73765 0.256686,-1.11131 0.01577,-0.084 0.06042,-0.19593 0,-0.25636 -0.04502,-0.045 -0.06879,0.10937 -0.08556,0.17079 -0.0692,0.25346 -0.137115,0.50888 -0.171125,0.7694 -0.05178,0.39661 -0.08556,0.79689 -0.08556,1.19687 0,0.74285 0.147849,2.8713 0.940853,3.33393 0.172349,0.10054 0.42342,0.0955 0.598604,0 0.461568,-0.25169 1.178724,-2.46071 1.282768,-2.90645 0.09803,-0.41998 0.102926,-0.8566 0.171125,-1.28244 0.04594,-0.28687 0.123317,-0.56805 0.171125,-0.85462 0.0094,-0.0563 0,-0.22817 0,-0.17112 0,0.97688 -0.01884,0.0325 0.08523,1.28243 0.03554,0.42684 0.03448,0.85684 0.08556,1.2821 0.08369,0.6968 0.342249,1.43135 0.342249,2.13706"
       id="path16592" />
    <path
       style="fill:#ff7c00;fill-opacity:0;stroke:#001cff;stroke-width:1;stroke-linecap:round;stroke-linejoin:round;stroke-dasharray:none;stroke-opacity:1"
       d="m 51.744895,141.55873 c 2.288768,-5.12539 2.137725,-3.03956 2.137725,-5.89846 0,-0.14238 0.04508,-0.29209 0,-0.42714 -0.02016,-0.0604 -0.08027,0.10733 -0.08556,0.17079 -0.02368,0.28399 -0.01188,0.57022 0,0.85495 0.02958,0.70909 0.0066,2.24202 0.513377,2.82089 0.770879,0.88064 1.088599,-1.56494 1.111641,-1.79514 0.02556,-0.25519 0,-0.51293 0,-0.76939 0,-0.11397 -0.113972,-0.34192 0,-0.34192 0.07887,0 0.14133,2.00657 0.171128,2.22262 0.218778,1.58643 0.156223,1.18134 0.51304,2.39341 0.130558,0.44349 0.152794,0.77848 0.341916,0.68383 0.128325,-0.0642 0.324183,-0.6387 0.342249,-0.68383"
       id="path16594" />
    <path
       style="fill:#ff7c00;fill-opacity:0;stroke:#001cff;stroke-width:1;stroke-linecap:round;stroke-linejoin:round;stroke-dasharray:none;stroke-opacity:1"
       d="m 59.184817,140.19107 c 0.08556,-0.59838 0.306935,-1.19277 0.256688,-1.79514 -0.01659,-0.19887 -0.610507,-0.33593 -0.769728,-0.25635 -0.492138,0.24594 -0.722725,1.04179 -0.598602,1.53845 0.04029,0.16119 0.138838,0.31002 0.256353,0.42748 0.54919,0.54892 1.160793,-0.0586 1.539457,-0.51271 0.15559,-0.1866 0.262128,-1.48075 0.08556,-0.5986 -0.06254,0.31245 -0.148403,0.62267 -0.171125,0.94052 -0.03454,0.48317 0.02766,0.9696 0,1.45322 -0.02291,0.4006 -0.288033,3.63409 -0.855289,3.84663 -0.14373,0.0539 -0.301726,-0.0831 -0.42748,-0.17112 -0.261212,-0.18279 -0.623594,-0.60728 -0.684165,-0.94018 -0.161081,-0.88531 1.96749,-1.15437 2.565538,-1.45323 0.205552,-0.10272 0.400074,-0.2262 0.598601,-0.34191 0.41016,-0.23908 0.555395,-0.21434 0.256688,-0.51304"
       id="path16596" />
    <path
       style="fill:#ff7c00;fill-opacity:0;stroke:#001cff;stroke-width:1;stroke-linecap:round;stroke-linejoin:round;stroke-dasharray:none;stroke-opacity:1"
       d="m 63.033123,135.23313 c -0.99129,1.59318 -1.03769,2.03077 -0.940853,3.6755 0.0034,0.0584 0.16877,1.02609 0.256689,1.02609 0.429839,0 -0.344279,-0.25669 0.08556,-0.25669 0.111073,0 0.145617,0.0856 0.256689,0.0856"
       id="path16598" />
    <path
       style="fill:#ff7c00;fill-opacity:0;stroke:#001cff;stroke-width:1;stroke-linecap:round;stroke-linejoin:round;stroke-dasharray:none;stroke-opacity:1"
       d="m 64.059204,141.13125 c 0.541674,-1.73809 1.115007,-3.46664 1.625018,-5.21429 0.191526,-0.6563 0.171124,-0.76363 0.171124,-1.28244 0,-0.057 -0.0051,0.11432 0,0.17113 0.02328,0.25698 0.0629,0.51233 0.08523,0.76939 0.06376,0.73391 0.128304,4.24558 0.684168,4.61603 0.28657,0.19098 0.324614,-0.33079 0.42781,-0.76939 0.174143,-0.74015 0.379251,-1.47413 0.513043,-2.22262 0.08084,-0.45228 -0.06517,-0.97364 0.171124,-1.36766 0.07915,-0.13198 0.224041,0.0532 0.256352,0.0856"
       id="path16600" />
    <path
       style="fill:#ff7c00;fill-opacity:0;stroke:#001cff;stroke-width:1;stroke-linecap:round;stroke-linejoin:round;stroke-dasharray:none;stroke-opacity:1"
       d="m 69.78888,139.16532 c 0.112472,-0.89889 0.340776,-1.98883 -0.51304,-2.73566 -0.288634,-0.25246 -0.569746,0.52777 -0.769728,0.85496 -0.411753,0.67367 -0.23327,2.70757 0.598937,3.07724 0.292243,0.12982 0.656698,-0.0781 0.854956,-0.25635 0.90392,-0.81279 1.134152,-2.43415 0.598604,-3.50472 -0.258278,-0.5163 -0.549143,-0.75434 -1.111644,-0.34192 -0.262054,0.19214 -0.433785,0.48935 -0.598604,0.7694 -0.123495,0.20983 -0.171125,0.45589 -0.256686,0.68383"
       id="path16602" />
    <path
       style="fill:#ff7c00;fill-opacity:0;stroke:#001cff;stroke-width:1;stroke-linecap:round;stroke-linejoin:round;stroke-dasharray:none;stroke-opacity:1"
       d="m 71.242774,139.93472 c 0.442423,-0.58977 0.547743,-1.40614 1.282768,-0.85496 0.101966,0.0765 0.130789,0.22102 0.171125,0.34192 0.172479,0.51698 -0.143637,1.19687 -0.769728,1.19687 -0.117486,0 -0.228955,-0.0533 -0.341916,-0.0856 -0.08672,-0.0248 -0.320461,-0.0218 -0.256688,-0.0856 0.262929,-0.26293 1.469268,0.36605 1.282768,1.11131 -0.02495,0.0997 -0.08131,0.20647 -0.171124,0.25636 -0.59178,0.32865 -1.403022,0.0758 -1.966934,-0.1708 -0.188301,-0.0823 -0.345794,-0.22248 -0.51304,-0.34191 -0.03282,-0.0234 -0.08556,-0.1259 -0.08556,-0.0856 0,5.3e-4 0.17086,0.34139 0.171128,0.34192"
       id="path16604" />
    <path
       style="fill:#ff7c00;fill-opacity:0;stroke:#001cff;stroke-width:1;stroke-linecap:round;stroke-linejoin:round;stroke-dasharray:none;stroke-opacity:1"
       d="m 73.295268,135.062 c 0.615728,4.00121 0.981853,2.25087 -0.171124,4.78715 -0.126241,0.27771 -0.323348,0.59827 0.08556,0.59827"
       id="path16606" />
    <path
       style="fill:#ff7c00;fill-opacity:0;stroke:#001cff;stroke-width:1;stroke-linecap:round;stroke-linejoin:round;stroke-dasharray:none;stroke-opacity:1"
       d="m 75.005516,140.44742 c -1.162304,0.17516 0.806728,-1.97403 1.197206,-1.45322 0.564697,0.75317 -0.888611,2.46424 -1.367997,2.90645 -0.163679,0.15098 -0.335216,0.29388 -0.513373,0.42748 -0.06837,0.0513 -0.294569,0.0764 -0.256355,0 0.02852,-0.057 0.112501,-0.0605 0.171124,-0.0856 0.379704,-0.16261 0.856398,-0.35095 1.282769,-0.25635 0.124375,0.0276 0.222623,0.12607 0.341916,0.17079 0.340638,0.1277 0.305615,0.0493 0.51304,0.25669"
       id="path16608" />
    <path
       style="fill:#ff7c00;fill-opacity:0;stroke:#001cff;stroke-width:1;stroke-linecap:round;stroke-linejoin:round;stroke-dasharray:none;stroke-opacity:1"
       d="m 112.98823,128.82864 c 0.44471,-0.22235 0.34928,-0.11491 0.68416,-0.59827 0.51508,-0.74343 0.7708,-1.47991 1.11198,-2.30818 0.20671,-0.50184 0.47525,-0.76939 0.25635,-0.76939 -0.0901,0 -0.0667,0.16827 -0.0856,0.25635 -0.0667,0.31157 -0.1058,0.62859 -0.17079,0.94052 -0.16642,0.7988 -0.34693,1.59462 -0.51338,2.39341 -0.0784,0.37617 -0.39494,1.20858 -0.25635,1.62435 0.0544,0.16333 0.17112,-0.15622 0.17112,-0.25669"
       id="path16616" />
    <path
       style="fill:#ff7c00;fill-opacity:0;stroke:#001cff;stroke-width:1;stroke-linecap:round;stroke-linejoin:round;stroke-dasharray:none;stroke-opacity:1"
       d="m 116.66574,130.79491 c 1.10651,-1.65949 0.73492,-0.97023 1.79581,-3.59062 0.13525,-0.33407 0.20801,-0.69113 0.34191,-1.02574 0.0947,-0.23665 0.24749,-0.4472 0.34226,-0.68383 0.0212,-0.0529 0,-0.22773 0,-0.1708 0,0.19943 0.0209,0.39995 0,0.59827 -0.0687,0.65177 -0.67041,2.96345 0.25635,3.33393 0.91139,0.36435 1.67411,-2.40005 1.88137,-2.90645 0.10632,-0.25978 0.21664,-0.51837 0.34225,-0.76939 0.018,-0.0361 0.0856,-0.1259 0.0856,-0.0856 0,0.4919 -0.18453,0.96663 -0.25669,1.45322 -0.16672,1.12424 -0.2839,1.47715 0,2.56453 0.20786,0.79611 0.96699,1.95217 0.68417,0.25636"
       id="path16618" />
    <path
       style="fill:#ff7c00;fill-opacity:0;stroke:#001cff;stroke-width:1;stroke-linecap:round;stroke-linejoin:round;stroke-dasharray:none;stroke-opacity:1"
       d="m 111.27798,135.58173 c -0.057,-0.17091 -0.0327,-0.39738 -0.17113,-0.51271 -0.044,-0.0367 -0.77731,0.22895 -0.94051,0.34192 -1.13604,0.78627 -2.07748,3.66645 -1.62502,4.95794 0.55119,1.57331 2.80915,0.26537 3.59195,-0.25635 0.0293,-0.0196 0.62552,-0.42748 0.17079,-0.42748"
       id="path16620" />
    <path
       style="fill:#ff7c00;fill-opacity:0;stroke:#001cff;stroke-width:1;stroke-linecap:round;stroke-linejoin:round;stroke-dasharray:none;stroke-opacity:1"
       d="m 114.18576,138.31739 c 0.0325,0.58802 0.13217,-1.13749 0.0852,-0.85496 -0.0469,0.28252 0.002,0.58205 -0.0852,0.85496 -0.34136,1.0725 -0.75347,0.71695 -0.34224,1.53845 0.0638,0.12744 0.13582,0.2664 0.25668,0.34191 0.6588,0.41163 1.63355,-0.50697 1.96694,-0.94018 0.11653,-0.15143 0.17626,-0.33923 0.25635,-0.51271 0.091,-0.19711 0.18245,-0.39458 0.25669,-0.5986 0.0402,-0.1104 0.0625,-0.22671 0.0856,-0.34191 0.006,-0.028 0.0127,-0.11108 0,-0.0856 -0.28356,0.56711 -0.40288,2.11311 0,2.6501 0.34083,0.4543 1.47575,-0.38654 1.62468,-0.68383"
       id="path16622" />
    <path
       style="fill:#ff7c00;fill-opacity:0;stroke:#001cff;stroke-width:1;stroke-linecap:round;stroke-linejoin:round;stroke-dasharray:none;stroke-opacity:1"
       d="m 121.02709,135.58173 c -1.37657,0.41313 -0.99741,0.0357 -1.36833,2.13705 -0.0595,0.33682 -0.0484,0.6875 0,1.02608 0.048,0.33577 0.3832,1.45289 0.94085,1.45289 0.17663,0 0.0689,-0.25635 -0.0856,-0.25635"
       id="path16624" />
    <path
       style="fill:#ff7c00;fill-opacity:0;stroke:#001cff;stroke-width:1;stroke-linecap:round;stroke-linejoin:round;stroke-dasharray:none;stroke-opacity:1"
       d="m 121.9676,140.28332 c 1.00286,-1.36754 1.39519,-2.92715 1.79615,-4.53047 0.0855,-0.3419 0.17087,-0.68384 0.25635,-1.02575 0.0285,-0.11397 0.0329,-0.44695 0.0856,-0.34191 0.0765,0.1528 0.0101,0.3421 0,0.51271 -0.084,1.42631 -0.13093,2.70801 0.25669,4.10332 0.0867,0.31211 0.1198,0.63679 0.51304,0.34191 0.59933,-0.44942 1.01559,-3.08455 1.19721,-3.84663 0.10523,-0.44157 0.19588,-0.74509 0.25668,-0.68417 0.0979,0.2949 0.0214,0.19307 0.17079,0.34192"
       id="path16626" />
    <path
       style="fill:#ff7c00;fill-opacity:0;stroke:#001cff;stroke-width:1;stroke-linecap:round;stroke-linejoin:round;stroke-dasharray:none;stroke-opacity:1"
       d="m 129.15117,137.29164 c 0.008,-1.04598 -0.214,-1.67789 -1.7958,-1.28244 -0.31179,0.078 -0.65303,1.56643 -0.68417,1.70958 -0.0713,0.32774 -0.27727,1.59624 -0.25669,1.96627 0.08,1.43895 1.59094,1.65851 2.48031,0.76939 0.72089,-0.72069 1.19829,-1.80798 1.28277,-2.82089 0.0216,-0.25891 -0.0489,-1.27004 -0.34225,-1.53878 -0.72908,-0.66783 -1.75599,-0.22705 -2.22329,0.5127 -0.28669,0.45386 -0.25668,0.82479 -0.25668,1.28244"
       id="path16628" />
    <path
       style="fill:#ff7c00;fill-opacity:0;stroke:#001cff;stroke-width:1;stroke-linecap:round;stroke-linejoin:round;stroke-dasharray:none;stroke-opacity:1"
       d="m 130.77619,139.25757 c 0.437,-0.56346 0.98928,-0.65993 1.62468,-0.34192 0.521,0.26075 -1.7586,0.76051 -0.94051,1.11131 0.13355,0.0573 0.29255,0.0316 0.42747,0.0856 0.47619,0.19043 1.19125,0.74032 0.76973,1.2821 -0.53622,0.68921 -1.26261,0.77624 -2.05249,0.51304 -0.21835,-0.0728 -0.50816,-0.27576 -0.76973,-0.17113 -0.24237,0.097 0.0576,0.38563 0.0856,0.42748"
       id="path16632" />
    <path
       style="fill:#ff7c00;fill-opacity:0;stroke:#001cff;stroke-width:1;stroke-linecap:round;stroke-linejoin:round;stroke-dasharray:none;stroke-opacity:1"
       d="m 133.08504,135.41094 c 0.86523,1.44092 0.66119,0.96007 0.5986,4.27411 -0.005,0.26877 -0.29407,0.45045 -0.42747,0.68383 -0.0949,0.16601 -0.17113,0.34202 -0.25669,0.51304"
       id="path16634" />
    <path
       style="fill:#ff7c00;fill-opacity:0;stroke:#001cff;stroke-width:1;stroke-linecap:round;stroke-linejoin:round;stroke-dasharray:none;stroke-opacity:1"
       d="m 135.47945,140.54 c 0.37066,-0.37043 0.67592,-0.82068 1.11198,-1.11131 0.18735,-0.12486 0.26218,0.50072 0.0852,0.85463 -0.11949,0.23897 -0.63432,0.74449 -0.7694,0.85495 -0.0669,0.0547 -0.85528,0.53439 -0.85528,0.68383 0,0.0638 0.1098,-0.068 0.17112,-0.0856 0.13972,-0.0399 0.28288,-0.0711 0.42748,-0.0856 0.62245,-0.0623 1.28129,0.11428 1.88137,-0.0852"
       id="path16636" />
    <path
       style="fill:#ff7c00;fill-opacity:0;stroke:#ff7c00;stroke-width:1;stroke-linecap:round;stroke-linejoin:round;stroke-dasharray:none;stroke-opacity:1"
       d="m 46.518567,70.448981 c 1.035606,-1.291598 1.197206,-2.9381 1.197206,-4.530465 0,-0.01217 0,-0.610439 0,-0.598268 0,0.862221 0.173167,3.248363 1.453893,3.248363 0.57612,0 0.854956,-2.550728 0.854956,-2.992011 0,-0.05693 -0.0047,0.114059 0,0.170791 0.02381,0.285417 0.07193,0.568873 0.08556,0.854956 0.04955,1.03968 0.01884,2.19025 0.684165,3.077239 0.509375,0.679096 1.026413,0.389205 1.026413,-0.341913"
       id="path16644" />
    <path
       style="fill:#ff7c00;fill-opacity:0;stroke:#ff7c00;stroke-width:1;stroke-linecap:round;stroke-linejoin:round;stroke-dasharray:none;stroke-opacity:1"
       d="m 53.188761,68.226362 c 0.443225,-1.606894 -1.675299,-1.838285 -1.539121,-0.341915 0.03482,0.382621 0.31791,0.562324 0.51304,0.854956 0.07071,0.106037 0.09703,0.238217 0.171125,0.341915 0.187214,0.262012 0.62625,0.451422 0.854956,0.08556 0.690269,-1.104215 -0.162526,0.03368 0,-0.94052 0.03781,-0.226615 0.276161,-0.378229 0.342252,-0.598268 0.0259,-0.08628 -0.005,-0.29664 -0.08556,-0.256354 -0.105082,0.05254 -0.05177,0.229396 -0.08556,0.341915 -0.05183,0.172556 -0.171124,0.332537 -0.171124,0.512707 0,0.431269 0.121647,0.854014 0.171124,1.282436 0.106223,0.919755 0.08556,0.804722 0.08556,1.624015 0,0.176022 0.104204,1.02608 -0.341916,1.02608 -0.366157,0 -0.738693,-0.387913 -0.684165,-0.769395 0.08039,-0.56244 1.359353,-1.180518 1.795809,-1.453224 0.135644,-0.08475 0.681816,-0.528341 0.769729,-0.598601"
       id="path16717" />
    <path
       style="fill:#ff7c00;fill-opacity:0;stroke:#ff7c00;stroke-width:1;stroke-linecap:round;stroke-linejoin:round;stroke-dasharray:none;stroke-opacity:1"
       d="m 43.867469,114.78103 c 2.238618,-0.72308 2.634374,3.28515 3.2497,5.12873"
       id="path16719" />
    <path
       style="fill:#ff7c00;fill-opacity:0;stroke:#ff7c00;stroke-width:1;stroke-linecap:round;stroke-linejoin:round;stroke-dasharray:none;stroke-opacity:1"
       d="m 45.663278,119.22593 c 1.175827,0.94658 1.364895,1.38036 1.795806,-0.17079 0.124156,-0.44692 0.256689,-0.90382 0.256689,-1.36767 0,-0.11748 -0.08556,0.22443 -0.08556,0.34192"
       id="path16721" />
    <path
       style="fill:#ff7c00;fill-opacity:0;stroke:#ff7c00;stroke-width:1;stroke-linecap:round;stroke-linejoin:round;stroke-dasharray:none;stroke-opacity:1"
       d="m 47.886897,115.29373 c 0.395528,-0.47438 0.55504,-0.55111 0.684165,-1.19687 0.06728,-0.33643 0.07037,-0.68297 0.08523,-1.02575 0.01357,-0.3131 0,-0.62679 0,-0.94018 0,-0.19942 0,-0.39884 0,-0.59827 0,-0.057 0,-0.22817 0,-0.17112 0,0.58726 -0.105603,2.65009 0.769726,2.65009 0.498597,0 0.810141,-1.39415 0.855292,-1.70991 0.04436,-0.31024 0,-0.62679 0,-0.94018 0,-0.19943 0,-0.39885 0,-0.59827 0,-0.0856 0,-0.34225 0,-0.25669 0,1.06742 0.09728,2.39217 0.341916,3.41949 0.06263,0.26301 0.152614,0.51987 0.256685,0.76939 0.03955,0.0948 0.125143,0.16448 0.171128,0.25636 0.01275,0.0255 -0.02016,0.10573 0,0.0856 0.167423,-0.16743 0.01056,-0.35218 0.170788,-0.51304"
       id="path16723" />
    <path
       style="fill:#ff7c00;fill-opacity:0;stroke:#ff7c00;stroke-width:1;stroke-linecap:round;stroke-linejoin:round;stroke-dasharray:none;stroke-opacity:1"
       d="m 52.932409,114.09686 c -0.08556,-0.71235 -0.0953,-1.43797 -0.256688,-2.13706 -0.04668,-0.2022 -0.471133,0.007 -0.598602,0.17113 -0.327064,0.4202 -0.32544,1.01973 0,1.45323 0.06433,0.0857 0.792713,0.57525 0.85529,0.5127 0.2253,-0.22519 0.104391,-0.62871 0.171124,-0.94018 0.04045,-0.1888 0.153427,-0.30765 0.08523,-0.51304 -0.0684,-0.20601 -0.230968,0.38303 -0.256352,0.5986 -0.03332,0.28292 0.01238,0.57002 0,0.85462 -0.04198,0.9645 -0.128879,1.94889 -0.256688,2.90645 -0.0049,0.0372 -0.0067,0.64848 -0.256353,0.68416 -0.589594,0.0843 -1.112012,-1.06873 -1.026416,-1.36799 0.12251,-0.4283 1.120312,-0.62115 1.453893,-0.76939 0.501769,-0.22299 0.980395,-0.55225 1.368332,-0.94019"
       id="path16725" />
    <path
       style="fill:#ff7c00;fill-opacity:0;stroke:#ff7c00;stroke-width:1;stroke-linecap:round;stroke-linejoin:round;stroke-dasharray:none;stroke-opacity:1"
       d="m 54.215177,111.01962 c -0.482443,-0.75112 0.974051,-2.27204 1.539121,-1.36766 0.0755,0.12084 0.02548,0.28728 0,0.42748 -0.03219,0.17723 -0.08,0.35712 -0.170791,0.5127 -0.285734,0.48963 -1.722152,1.50517 -0.342249,1.36766 0.14469,-0.0144 0.283289,-0.0692 0.427813,-0.0852 0.246835,-0.0273 0.520734,0 0.769392,0"
       id="path16727" />
    <path
       style="fill:#ff7c00;fill-opacity:0;stroke:#ff7c00;stroke-width:1;stroke-linecap:round;stroke-linejoin:round;stroke-dasharray:none;stroke-opacity:1"
       d="m 57.293755,109.82275 c -0.145661,-0.1859 0.0141,1.95216 0.427477,1.53879"
       id="path16729" />
    <path
       style="fill:#ff7c00;fill-opacity:0;stroke:#ff7c00;stroke-width:1;stroke-linecap:round;stroke-linejoin:round;stroke-dasharray:none;stroke-opacity:1"
       d="m 56.352902,110.16466 c 1.540479,-0.19227 0.914935,-0.0952 1.881704,-0.25635"
       id="path16731" />
    <path
       style="fill:#ff7c00;fill-opacity:0;stroke:#ff7c00;stroke-width:1;stroke-linecap:round;stroke-linejoin:round;stroke-dasharray:none;stroke-opacity:1"
       d="m 133.53959,61.996346 c -3.52236,-0.772012 -3.03539,6.955581 -0.0856,4.274113 0.40716,-0.370117 0.43667,-0.438954 0.76973,-0.854622"
       id="path16733" />
    <path
       style="fill:#ff7c00;fill-opacity:0;stroke:#ff7c00;stroke-width:1;stroke-linecap:round;stroke-linejoin:round;stroke-dasharray:none;stroke-opacity:1"
       d="m 135.3354,63.962613 c -0.0625,0.499491 -0.157,0.725953 0,1.196535 0.20706,0.620633 0.70455,0.728409 1.02608,0.08556 0.0582,-0.116396 0.37351,-0.997982 0.42781,-1.196872 0.0383,-0.140083 0.0617,-0.283914 0.0856,-0.427143 0.005,-0.02813 -0.0285,-0.08556 0,-0.08556 0.3131,0 -0.26611,1.677506 0.42747,1.538788 0.0884,-0.01767 0.1874,-0.02783 0.25669,-0.08556 0.21893,-0.182417 0.34196,-0.455943 0.51304,-0.683832"
       id="path16735" />
    <path
       style="fill:#ff7c00;fill-opacity:0;stroke:#ff7c00;stroke-width:1;stroke-linecap:round;stroke-linejoin:round;stroke-dasharray:none;stroke-opacity:1"
       d="m 139.44039,61.226953 c -0.0865,0.467874 -0.42422,2.823073 0.42748,3.248367 0.26499,0.132318 0.23667,-0.08556 0.42748,-0.08556"
       id="path16737" />
    <path
       style="fill:#ff7c00;fill-opacity:0;stroke:#ff7c00;stroke-width:1;stroke-linecap:round;stroke-linejoin:round;stroke-dasharray:none;stroke-opacity:1"
       d="m 141.40733,61.483305 c 0.0284,0.826437 0.0595,1.652784 0.0852,2.479308 0.004,0.113916 0,0.455887 0,0.341915 0,-0.628544 1.19719,-2.679215 2.05249,-2.393743 0.13512,0.0451 -0.14511,0.252939 -0.25635,0.341915 -0.29279,0.234183 -2.1043,1.435436 -1.88137,1.880704 0.41806,0.835043 2.43969,-0.814181 2.82189,-1.196872"
       id="path16739" />
    <path
       style="fill:#ff7c00;fill-opacity:0;stroke:#ff7c00;stroke-width:1;stroke-linecap:round;stroke-linejoin:round;stroke-dasharray:none;stroke-opacity:1"
       d="m 143.45949,60.372331 c 0.45611,0.05693 0.97605,-0.06878 1.36833,0.170791 0.22422,0.136937 0.13012,0.509884 0.17112,0.769395 0.0806,0.509765 0.17113,1.022694 0.17113,1.538785 0,0.33732 -0.0856,0.682135 -0.0856,1.025747"
       id="path16741" />
    <path
       style="fill:#ff7c00;fill-opacity:0;stroke:#ff7c00;stroke-width:1;stroke-linecap:round;stroke-linejoin:round;stroke-dasharray:none;stroke-opacity:1"
       d="m 55.92509,66.86906 c -0.492528,1.040149 -0.566897,1.620886 -0.171125,2.649763 0.04575,0.118954 0.0895,0.244033 0.171125,0.341916 0.280392,0.336253 0.769728,0.168859 0.769728,-0.256353"
       id="path16743" />
    <path
       style="fill:#ff7c00;fill-opacity:0;stroke:#ff7c00;stroke-width:1;stroke-linecap:round;stroke-linejoin:round;stroke-dasharray:none;stroke-opacity:1"
       d="m 57.550107,67.723683 c 0.520155,-0.04954 -0.277174,-1.196538 0,-1.196538 0.223214,0 -0.04771,0.719928 0,1.196538 0.153861,1.537116 0.341916,0.0721 0.341916,1.367663 0,0.343215 -0.194095,0.700479 -0.08556,1.026081 0.04593,0.137797 0.172003,-0.326658 0.427479,-0.684165 0.137282,-0.192111 1.175962,-1.560449 1.282769,-1.453227 0.25605,0.257056 -1.818365,1.574763 -1.367997,2.137392 0.0734,0.0917 0.227952,0.05678 0.341913,0.08523 0.565968,0.141285 0.223899,0.10015 1.026084,0 0.496792,-0.06202 0.87168,-0.08523 1.368329,-0.08523"
       id="path16747" />
    <path
       style="fill:#ff7c00;fill-opacity:0;stroke:#ff7c00;stroke-width:1;stroke-linecap:round;stroke-linejoin:round;stroke-dasharray:none;stroke-opacity:1"
       d="m 61.056162,66.697936 c 0.471503,1.902619 0.838314,2.854171 0.08556,4.359674"
       id="path16749" />
    <path
       style="fill:#ff7c00;fill-opacity:0;stroke:#ff7c00;stroke-width:1;stroke-linecap:round;stroke-linejoin:round;stroke-dasharray:none;stroke-opacity:1"
       d="m 103.55637,121.67106 c 0.025,-0.1497 0.003,-0.3155 0.0749,-0.4491 0.22354,-0.41477 1.20179,-1.17176 1.42249,-1.34672 0.78265,-0.62042 1.56532,-1.2096 2.4702,-1.64631 0.85536,-0.41281 1.81755,-0.38096 2.69519,-0.6735"
       id="path17565" />
    <path
       style="fill:#ff7c00;fill-opacity:0;stroke:#ff7c00;stroke-width:1;stroke-linecap:round;stroke-linejoin:round;stroke-dasharray:none;stroke-opacity:1"
       d="m 108.94645,116.20842 c 0.72363,0.0499 1.45658,0.0238 2.1709,0.1498 0.49954,0.0881 0.43172,0.31679 0.22469,0.5237 -0.70987,0.70948 -1.75316,1.09376 -2.32069,1.94562"
       id="path17567" />
    <path
       style="fill:#ff7c00;fill-opacity:0;stroke:#ff7c00;stroke-width:1;stroke-linecap:round;stroke-linejoin:round;stroke-dasharray:none;stroke-opacity:1"
       d="m 100.71197,125.93648 c 0.10242,-0.39445 0.23829,-0.65077 0,-1.0477 -0.28373,-0.47263 -0.796412,-0.4585 -1.197793,-0.1498 -1.115869,0.85821 -1.595355,3.1016 -0.898493,4.34033 0.103767,0.18445 0.259784,0.3542 0.449101,0.44881 0.388596,0.19419 1.871595,0.1032 1.871595,-0.52371"
       id="path17571" />
    <path
       style="fill:#ff7c00;fill-opacity:0;stroke:#ff7c00;stroke-width:1;stroke-linecap:round;stroke-linejoin:round;stroke-dasharray:none;stroke-opacity:1"
       d="m 101.98437,126.9839 c -0.0932,0.48824 -0.21263,2.52673 0.8236,2.31981 0.79312,-0.15837 1.4222,-1.98316 1.4222,-2.69401 0,-0.025 0.007,0.0509 0,0.0749 -0.0433,0.15172 -0.12868,0.2927 -0.14951,0.4491 -0.0559,0.4201 -0.0866,1.44029 0.22441,1.79581 0.47036,0.5376 1.03207,-0.33145 0.82359,-0.7484"
       id="path17573" />
    <path
       style="fill:#ff7c00;fill-opacity:0;stroke:#0eff00;stroke-width:1;stroke-linecap:round;stroke-linejoin:round;stroke-dasharray:none;stroke-opacity:1"
       d="m 22.075837,63.933736 c -0.1497,0.124732 -0.340994,0.212085 -0.4491,0.3742 -0.229427,0.344051 -0.402296,1.091237 -0.4491,1.496513 -0.111135,0.962297 -0.168799,1.757902 0.4491,2.54422 0.369338,0.470005 0.640986,0.598604 1.197796,0.598604"
       id="path20379" />
    <path
       style="fill:#ff7c00;fill-opacity:0;stroke:#0eff00;stroke-width:1;stroke-linecap:round;stroke-linejoin:round;stroke-dasharray:none;stroke-opacity:1"
       d="m 25.145225,66.25355 c 0.723632,0 1.447262,0 2.170895,0"
       id="path20381" />
    <path
       style="fill:#ff7c00;fill-opacity:0;stroke:#0eff00;stroke-width:1;stroke-linecap:round;stroke-linejoin:round;stroke-dasharray:none;stroke-opacity:1"
       d="m 29.561914,64.15814 c 1.043215,1.738466 0.8831,1.136446 0.0749,4.714234 -0.03757,0.166307 -0.904777,0.865963 -1.122897,1.047705"
       id="path20383" />
    <path
       style="fill:#ff7c00;fill-opacity:0;stroke:#0eff00;stroke-width:1;stroke-linecap:round;stroke-linejoin:round;stroke-dasharray:none;stroke-opacity:1"
       d="m 107.00084,64.607238 c -0.0999,-0.04993 -0.18794,-0.149796 -0.2996,-0.149796 -0.41532,0 -0.61369,0.45154 -0.74869,0.748403 -0.50315,1.106387 -0.56853,2.166138 -0.524,3.367227 0.008,0.22573 -0.004,0.462026 0.0749,0.673505 0.0754,0.200919 0.23706,0.358878 0.37449,0.523706 0.18322,0.219728 0.66359,0.683718 0.9731,0.3742"
       id="path20387" />
    <path
       style="fill:#ff7c00;fill-opacity:0;stroke:#0eff00;stroke-width:1;stroke-linecap:round;stroke-linejoin:round;stroke-dasharray:none;stroke-opacity:1"
       d="m 109.54594,65.954248 c -0.0101,0.996013 0.55083,2.605405 -0.524,3.142824"
       id="path20389" />
    <path
       style="fill:#ff7c00;fill-opacity:0;stroke:#0eff00;stroke-width:1;stroke-linecap:round;stroke-linejoin:round;stroke-dasharray:none;stroke-opacity:1"
       d="m 108.42304,68.049367 c 1.77168,-0.07707 1.14732,-0.0749 1.87159,-0.0749"
       id="path20391" />
    <path
       style="fill:#ff7c00;fill-opacity:0;stroke:#0eff00;stroke-width:1;stroke-linecap:round;stroke-linejoin:round;stroke-dasharray:none;stroke-opacity:1"
       d="m 112.39063,64.53234 c 1.36864,1.340236 0.64604,3.997862 -0.5989,5.237943"
       id="path20393" />
    <path
       style="fill:#ff7c00;fill-opacity:0;stroke:#0eff00;stroke-width:1;stroke-linecap:round;stroke-linejoin:round;stroke-dasharray:none;stroke-opacity:1"
       d="m 16.385869,76.506201 c 3.200448,-3.446817 2.276985,-2.894435 2.91959,-5.462346 0.0121,-0.04834 0.0033,0.09978 0,0.149505 -0.02166,0.324506 -0.0552,0.648176 -0.0749,0.972807 -0.07316,1.206039 -0.152099,1.670971 0.0749,2.843522 0.06448,0.333084 0.167609,0.660138 0.299303,0.972807 0.01044,0.02479 0.319174,0.598604 0.523999,0.598604 0.05574,0 -0.04993,-0.09967 -0.0749,-0.149506"
       id="path20395" />
    <path
       style="fill:#ff7c00;fill-opacity:0;stroke:#0eff00;stroke-width:1;stroke-linecap:round;stroke-linejoin:round;stroke-dasharray:none;stroke-opacity:1"
       d="m 17.433867,74.635486 c 1.650122,0.235863 1.069639,0.0579 1.796693,0.299305"
       id="path20397" />
    <path
       style="fill:#ff7c00;fill-opacity:0;stroke:#0eff00;stroke-width:1;stroke-linecap:round;stroke-linejoin:round;stroke-dasharray:none;stroke-opacity:1"
       d="m 21.176759,74.485981 c 0.3179,-0.95308 0.162519,-0.666388 0.224696,1.19721 0.01208,0.361974 -0.04201,0.697209 0.0749,1.047708 0.04602,0.137969 0.174711,-0.237511 0.224404,-0.374203 0.314364,-0.864733 0.299025,-1.33087 0.823594,-2.170017 0.05823,-0.09315 0.329306,-0.598686 0.598898,-0.374201 0.171454,0.142767 0.299303,1.206014 0.299303,1.421615 0,0.548626 -0.209283,0.689327 0.149797,1.047705"
       id="path20399" />
    <path
       style="fill:#ff7c00;fill-opacity:0;stroke:#0eff00;stroke-width:1;stroke-linecap:round;stroke-linejoin:round;stroke-dasharray:none;stroke-opacity:1"
       d="m 24.695247,75.83299 c -1.483812,-2.586413 1.919952,0.816883 2.320693,0.149506 0.33025,-0.549987 -0.41561,-1.654366 -0.748696,-2.020512 -0.294001,-0.323183 -0.798041,-0.0959 -0.973099,0.224695 -0.382807,0.701063 -0.02484,1.888905 0.748695,2.170017 0.144318,0.05245 0.504181,0.141327 0.673798,0 0.232526,-0.193747 0.337058,-0.544941 0.3742,-0.823301 0.0264,-0.197782 0.03917,-0.402953 0,-0.598604 -0.404043,-2.018115 -2.395284,-0.222346 -1.871592,0.299302"
       id="path20401" />
    <path
       style="fill:#ff7c00;fill-opacity:0;stroke:#0eff00;stroke-width:1;stroke-linecap:round;stroke-linejoin:round;stroke-dasharray:none;stroke-opacity:1"
       d="m 28.962432,71.642461 c 0,0.598604 -0.02299,1.197653 0,1.795815 0.02688,0.699632 0.0446,1.402873 0.149505,2.095119 0.0218,0.143851 0.128892,0.264702 0.224695,0.374202 0.08215,0.09389 0.175805,0.207042 0.299302,0.224695 0.248081,0.03546 0.5989,-0.565052 0.5989,-0.748403"
       id="path20403" />
    <path
       style="fill:#ff7c00;fill-opacity:0;stroke:#0eff00;stroke-width:1;stroke-linecap:round;stroke-linejoin:round;stroke-dasharray:none;stroke-opacity:1"
       d="m 27.165736,75.009689 c 3.491503,-0.620429 2.228205,-0.598607 3.742894,-0.598607"
       id="path20405" />
    <path
       style="fill:#ff7c00;fill-opacity:0;stroke:#0eff00;stroke-width:1;stroke-linecap:round;stroke-linejoin:round;stroke-dasharray:none;stroke-opacity:1"
       d="m 102.28309,73.588075 c 0.0749,-0.349237 0.11427,-0.708028 0.2247,-1.047708 0.21483,-0.660821 0.58003,-2.619766 0.7484,-1.945613 0.15828,0.633737 -1.06125,4.033213 -1.3473,5.013539 -0.0576,0.197453 -0.12931,0.393941 -0.1498,0.598606 -0.006,0.05555 0.0354,0.189273 0.0749,0.149797 0.23664,-0.236636 0.29928,-0.598662 0.4491,-0.897909"
       id="path20407" />
    <path
       style="fill:#ff7c00;fill-opacity:0;stroke:#0eff00;stroke-width:1;stroke-linecap:round;stroke-linejoin:round;stroke-dasharray:none;stroke-opacity:1"
       d="m 105.95138,71.717359 c 0.0816,-0.117398 0.062,-0.823301 -0.0749,-0.823301 -0.84543,0 -1.84513,1.694455 -2.39559,2.244916 -0.11295,0.112942 -0.24422,0.206478 -0.3742,0.299302 -0.0643,0.04588 -0.30365,0.0749 -0.2247,0.0749 0.75738,0 1.99685,0.02548 2.62,0.523708 0.72373,0.578652 0.16279,1.340803 1.34759,0.748403"
       id="path20413" />
    <path
       style="fill:#ff7c00;fill-opacity:0;stroke:#0eff00;stroke-width:1;stroke-linecap:round;stroke-linejoin:round;stroke-dasharray:none;stroke-opacity:1"
       d="m 108.72117,74.261577 c 0.0998,-0.673502 0.32362,-1.340094 0.2993,-2.020512 -0.0137,-0.382614 -0.58594,0.05979 -0.59889,0.0749 -0.42841,0.499581 -0.891,2.589972 0.14979,2.693726 0.7919,0.07894 1.24784,-1.08844 1.4222,-1.646312 0.0452,-0.144764 0.0581,-0.298066 0.0749,-0.448807 0.008,-0.07444 0,-0.299596 0,-0.224697 0,0.644683 0.0165,0.34604 -0.0749,1.122605 -0.0479,0.406657 -0.19658,1.188133 0.4494,0.972807"
       id="path20415" />
    <path
       style="fill:#ff7c00;fill-opacity:0;stroke:#0eff00;stroke-width:1;stroke-linecap:round;stroke-linejoin:round;stroke-dasharray:none;stroke-opacity:1"
       d="m 112.46406,70.295452 c 0.18667,1.223938 -0.11044,2.393407 -0.22469,3.591925 -0.0158,0.166081 -0.15139,0.804026 0.22469,0.897908 0.3647,0.09104 1.05741,-0.381251 1.3476,-0.598606"
       id="path20417" />
    <path
       style="fill:#ff7c00;fill-opacity:0;stroke:#0eff00;stroke-width:1;stroke-linecap:round;stroke-linejoin:round;stroke-dasharray:none;stroke-opacity:1"
       d="m 111.11647,73.213872 c 2.12041,-0.530029 1.37603,-0.523999 2.17089,-0.523999"
       id="path20419" />
    <path
       style="fill:#ff7c00;fill-opacity:0;stroke:#0eff00;stroke-width:1;stroke-linecap:round;stroke-linejoin:round;stroke-dasharray:none;stroke-opacity:1"
       d="m 114.78475,73.363377 c 0.49904,-0.02487 1.0813,0.202444 1.4971,-0.07461 0.71941,-0.479335 -0.30255,-1.992207 -1.04799,-1.72121 -0.95172,0.345985 -0.61956,1.057357 -0.44911,1.795817 0.0451,0.195451 0.21563,1.552088 0.82331,1.496806 0.99423,-0.09045 1.3816,-1.734891 0.97339,-2.469612 -0.14788,-0.266158 -0.35513,-0.144815 -0.44939,0.0749 -0.0393,0.09169 0,0.199535 0,0.299304"
       id="path20421" />
    <path
       style="fill:#ff7c00;fill-opacity:0;stroke:#0eff00;stroke-width:1;stroke-linecap:round;stroke-linejoin:round;stroke-dasharray:none;stroke-opacity:1"
       d="m 118.52765,69.846353 c -0.23201,1.340755 -0.4491,2.679481 -0.4491,4.041024 0,0.229986 -0.0802,0.673504 0.1498,0.673504 0.22603,0 0.39412,-0.394123 0.52399,-0.523999"
       id="path20423" />
    <path
       style="fill:#ff7c00;fill-opacity:0;stroke:#0eff00;stroke-width:1;stroke-linecap:round;stroke-linejoin:round;stroke-dasharray:none;stroke-opacity:1"
       d="m 117.10545,72.465469 c 2.89971,-0.457486 1.98574,-0.877441 2.99419,-0.3742"
       id="path20425" />
    <path
       style="fill:#ff7c00;fill-opacity:0;stroke:#0eff00;stroke-width:1;stroke-linecap:round;stroke-linejoin:round;stroke-dasharray:none;stroke-opacity:1"
       d="m 79.737968,48.284566 c 0.158228,-0.336891 0.182393,-0.576136 0.0749,-0.8982 -0.01765,-0.05291 -0.202737,-0.09218 -0.149797,-0.07461 0.09767,0.03243 0.21023,0.02358 0.299596,0.07461 0.139732,0.07981 0.456496,0.531427 0.523999,0.598898 0.237318,0.237215 0.490572,0.458467 0.748401,0.673211 0.277238,0.23091 0.815983,0.441648 1.048292,0.673505 0.01767,0.01765 -0.05349,-0.01286 -0.0749,0 -0.107043,0.06423 -0.186248,0.1724 -0.299596,0.224695 -0.760137,0.35071 -1.671592,0.463904 -2.395593,0.897908 -0.04274,0.02561 0,0.09967 0,0.149506"
       id="path20427" />
    <path
       style="fill:#ff7c00;fill-opacity:0;stroke:#0eff00;stroke-width:1;stroke-linecap:round;stroke-linejoin:round;stroke-dasharray:none;stroke-opacity:1"
       d="m 78.989274,44.468237 c 0.723728,-0.02498 1.458703,0.05462 2.171186,-0.0749 0.298966,-0.05435 0.678492,-1.087242 0,-1.272109 -0.170328,-0.04641 -0.351176,-0.109495 -0.524293,-0.0749 -1.031245,0.206087 -1.287706,1.610757 -0.748403,2.394712 0.141391,0.205531 0.375746,0.337288 0.5989,0.44881 0.888032,0.443799 1.981267,0.09891 2.769791,-0.374203"
       id="path20429" />
    <path
       style="fill:#ff7c00;fill-opacity:0;stroke:#0eff00;stroke-width:1;stroke-linecap:round;stroke-linejoin:round;stroke-dasharray:none;stroke-opacity:1"
       d="m 78.839768,41.325413 c 0.873331,-0.199631 1.746663,-0.399264 2.619994,-0.598897"
       id="path20431" />
    <path
       style="fill:#ff7c00;fill-opacity:0;stroke:#0eff00;stroke-width:1;stroke-linecap:round;stroke-linejoin:round;stroke-dasharray:none;stroke-opacity:1"
       d="m 65.287471,117.84127 c -0.04993,-0.1496 -0.132977,-0.29199 -0.149796,-0.44881 -0.159682,-1.4889 -0.11303,-2.99283 -0.149506,-4.48983 -0.04542,-1.86404 -0.143499,-3.74697 0,-5.61214 0.03734,-0.48526 0.186225,-2.91505 0.598607,-3.74143"
       id="path20445" />
    <path
       style="fill:#ff7c00;fill-opacity:0;stroke:#0eff00;stroke-width:1;stroke-linecap:round;stroke-linejoin:round;stroke-dasharray:none;stroke-opacity:1"
       d="m 63.93988,104.22227 c 1.281903,-1.63027 0.408111,-0.48584 1.197795,-1.57141 0.07339,-0.10089 0.155432,-0.19555 0.224697,-0.2993 0.03095,-0.0464 0.01916,-0.14951 0.0749,-0.14951 0.01027,0 0.175088,0.35934 0.224404,0.52371 0.277545,0.92503 0.423802,1.93458 0.748694,2.84352 0.02376,0.0665 0.09101,0.18891 0.149799,0.14979 0.08562,-0.057 0.04993,-0.19953 0.0749,-0.2993"
       id="path20447" />
    <path
       style="fill:#ff7c00;fill-opacity:0;stroke:#0eff00;stroke-width:1;stroke-linecap:round;stroke-linejoin:round;stroke-dasharray:none;stroke-opacity:1"
       d="m 63.356196,97.404138 c 0.432075,-0.503983 0.715658,3.035182 0.149796,2.46932"
       id="path20453" />
    <path
       style="fill:#ff7c00;fill-opacity:0;stroke:#0eff00;stroke-width:1;stroke-linecap:round;stroke-linejoin:round;stroke-dasharray:none;stroke-opacity:1"
       d="m 62.008601,99.050447 c 0.460354,-0.785558 1.871882,-0.29959 2.470491,-0.898199"
       id="path20455" />
    <path
       style="fill:#ff7c00;fill-opacity:0;stroke:#0eff00;stroke-width:1;stroke-linecap:round;stroke-linejoin:round;stroke-dasharray:none;stroke-opacity:1"
       d="m 65.07799,96.880139 c -0.224599,-0.224404 -0.41212,-0.493413 -0.673796,-0.673211 -0.149727,-0.102878 -0.346374,-0.111715 -0.523999,-0.149799 -0.955945,-0.20496 -2.1243,0.217971 -2.694895,1.047705 -0.244091,0.354949 -0.551966,1.171453 -0.673796,1.571413 -0.720532,2.365453 0.560673,3.721913 2.91959,3.816333 0.727361,0.0291 1.91943,-0.12288 2.470197,-0.67351 0.338236,-0.33815 0.585306,-1.03671 0.673796,-1.49681 0.439423,-2.284706 -0.386246,-5.565545 -3.443589,-4.938633 -1.404371,0.287967 -1.784562,1.396179 -2.545096,2.469319"
       id="path20459" />
    <path
       style="fill:#ff7c00;fill-opacity:0;stroke:#0eff00;stroke-width:1;stroke-linecap:round;stroke-linejoin:round;stroke-dasharray:none;stroke-opacity:1"
       d="m 102.43289,117.61599 c -0.0249,-0.32427 -0.0829,-0.64769 -0.0746,-0.97281 0.0774,-3.01695 0.29931,-1.02799 0.29931,-4.56444 0,-1.58233 -0.17743,-3.74074 -0.524,-5.31313 -0.0601,-0.27278 -0.8573,-2.78399 -1.048,-3.29233 -0.23587,-0.62874 -0.2247,-0.25824 -0.2247,-0.524"
       id="path20465" />
    <path
       style="fill:#ff7c00;fill-opacity:0;stroke:#0eff00;stroke-width:1;stroke-linecap:round;stroke-linejoin:round;stroke-dasharray:none;stroke-opacity:1"
       d="m 99.513592,105.2691 c 0.199634,-1.14738 0.418344,-2.2916 0.598898,-3.44213 0.0193,-0.12323 -0.0557,-0.26261 0,-0.3742 0.003,-0.007 0.14704,0.012 0.4491,0.3742 0.82271,0.98667 0.0817,0.20477 0.8982,1.27211 0.16112,0.21063 0.35827,0.39159 0.524,0.5986 0.13412,0.16754 0.23854,0.35765 0.37449,0.52371 0.0853,0.10415 0.61604,0.4491 0.22441,0.4491"
       id="path20467" />
    <path
       style="fill:#ff7c00;fill-opacity:0;stroke:#0eff00;stroke-width:1;stroke-linecap:round;stroke-linejoin:round;stroke-dasharray:none;stroke-opacity:1"
       d="m 104.90338,98.908551 c 0.0374,1.830119 -0.34743,2.879619 0.2996,4.265429 0.10865,0.23271 0.3742,0.41668 0.3742,0.6735 0,0.0353 -0.0396,-0.0749 -0.0749,-0.0749 -0.0558,0 -0.0999,0.0499 -0.1498,0.0749"
       id="path20469" />
    <path
       style="fill:#ff7c00;fill-opacity:0;stroke:#0eff00;stroke-width:1;stroke-linecap:round;stroke-linejoin:round;stroke-dasharray:none;stroke-opacity:1"
       d="m 106.55028,101.37787 c -3.1254,0.43747 2.39739,-0.97461 1.87159,-0.44881"
       id="path20471" />
    <path
       style="fill:#ff7c00;fill-opacity:0;stroke:#0eff00;stroke-width:1;stroke-linecap:round;stroke-linejoin:round;stroke-dasharray:none;stroke-opacity:1"
       d="m 109.61966,98.534348 c 2.0456,2.179442 1.30801,1.355715 0.74841,3.591922"
       id="path20473" />
  </g>
</svg>
