<?xml version="1.0" encoding="UTF-8" standalone="no"?>
<!-- Created with Inkscape (http://www.inkscape.org/) -->

<svg
   width="138.21786mm"
   height="92.354095mm"
   viewBox="0 0 138.21786 92.354095"
   version="1.1"
   id="svg24287"
   inkscape:version="1.2.2 (b0a8486541, 2022-12-01)"
   sodipodi:docname="standart-hidrojen-elektrodu.svg"
   xml:space="preserve"
   xmlns:inkscape="http://www.inkscape.org/namespaces/inkscape"
   xmlns:sodipodi="http://sodipodi.sourceforge.net/DTD/sodipodi-0.dtd"
   xmlns="http://www.w3.org/2000/svg"
   xmlns:svg="http://www.w3.org/2000/svg"><sodipodi:namedview
     id="namedview24289"
     pagecolor="#ffffff"
     bordercolor="#000000"
     borderopacity="0.25"
     inkscape:showpageshadow="2"
     inkscape:pageopacity="0.0"
     inkscape:pagecheckerboard="0"
     inkscape:deskcolor="#d1d1d1"
     inkscape:document-units="mm"
     showgrid="false"
     inkscape:zoom="0.83349898"
     inkscape:cx="521.29638"
     inkscape:cy="350.33036"
     inkscape:window-width="956"
     inkscape:window-height="1026"
     inkscape:window-x="0"
     inkscape:window-y="0"
     inkscape:window-maximized="1"
     inkscape:current-layer="layer1" /><defs
     id="defs24284" /><g
     inkscape:label="Layer 1"
     inkscape:groupmode="layer"
     id="layer1"
     transform="translate(4.9762958,14.702831)"><path
       style="fill:#000000;fill-opacity:0;stroke:#000000;stroke-width:1;stroke-linecap:round;stroke-linejoin:round;stroke-dasharray:none;stroke-opacity:1"
       d="m 21.684656,17.540435 -0.314643,42.332582 h 34.27846 L 55.333831,17.540435"
       id="path16588-3" /><path
       style="fill:#1000ff;fill-opacity:0;stroke:#1000ff;stroke-width:1;stroke-linecap:round;stroke-linejoin:round;stroke-opacity:0.921569"
       d="m 22.129192,30.197181 c 0.950133,-0.716902 2.062766,-1.185309 3.260238,-0.786498 0.476309,0.158631 1.021359,0.719924 1.573876,0.561973 0.530744,-0.151726 0.926235,-0.653084 1.461397,-0.78694 0.731285,-0.182909 1.413005,0.561975 2.136288,0.561975 0.865566,0 1.541386,-0.693925 2.360819,-0.898983 0.337283,-0.0844 1.37437,0.583767 2.248331,0.44949 1.023305,-0.157218 2.187607,-0.888981 3.260238,-0.674454 0.593257,0.118652 0.09339,0.08828 0.674458,0.337447 0.336394,0.144251 0.867336,0.27056 1.236869,0.224525 1.025744,-0.127778 0.112765,-0.04468 1.124386,-0.44949 0.177366,-0.07097 0.378981,-0.05761 0.561972,-0.112482 0.558671,-0.167513 0.972834,-0.299694 1.57388,-0.224526 0.884354,0.110599 1.456086,0.827096 2.248334,1.123948 0.743526,0.278595 1.225476,-0.25381 1.911323,-0.449493 0.802624,-0.228999 0.902639,0.33701 1.349351,0.33701 0.47411,0 1.270667,-0.260619 1.686362,-0.449492 0.648076,-0.294455 0.382667,-0.37116 1.011465,-0.44949 0.06561,-0.0082 0.779071,-0.06012 0.899419,0 0.427212,0.213397 0.28824,0.373054 0.899422,0.44949 0.442132,0.0553 0.850524,-0.144653 1.236869,-0.337447 0.04735,-0.02363 0.136152,-0.159377 0.112482,-0.112043 -0.245782,0.491564 -0.224964,0.167695 -0.224964,0.44949"
       id="path26637" /><path
       style="fill:#1000ff;fill-opacity:0;stroke:#1000ff;stroke-width:1;stroke-linecap:round;stroke-linejoin:round;stroke-opacity:0.921569"
       d="m 52.933165,35.703996 c -1.081891,-4.544372 5.606495,-0.447132 7.307414,-2.359937 0.126947,-0.142762 0.07499,-0.37465 0.112482,-0.561975"
       id="path28277" /><path
       style="fill:#1000ff;fill-opacity:0;stroke:#1000ff;stroke-width:1;stroke-linecap:round;stroke-linejoin:round;stroke-opacity:0.921569"
       d="m 59.116631,31.995147 c 0.26628,-0.0434 2.135852,0.18991 2.135852,0.44949 0,0.05091 -2.134275,2.191853 -1.124387,1.685919"
       id="path28283" /><path
       style="fill:#1000ff;fill-opacity:0;stroke:#1000ff;stroke-width:1;stroke-linecap:round;stroke-linejoin:round;stroke-opacity:0.921569"
       d="m 62.713877,31.883104 c 0.187471,-0.22482 0.399939,-0.430959 0.562414,-0.674458 0.14023,-0.210164 0.337008,-0.88674 0.337008,-1.123947 0,-0.154451 -0.08706,-0.297148 -0.112482,-0.44949 -0.01849,-0.110805 0,-0.449345 0,-0.337011 0,1.016257 -0.01847,-0.689509 0.112482,1.011466 0.02014,0.261392 0,0.524332 0,0.7865 0.03749,0.412144 0.06674,0.825119 0.112482,1.23643 0.02927,0.26321 0.09047,0.522581 0.112483,0.7865 0.01558,0.186674 0,0.374647 0,0.561972 0,0.03749 0.02653,0.138978 0,0.112483 -0.132564,-0.132393 -0.224965,-0.299662 -0.337447,-0.44949"
       id="path28289" /><path
       style="fill:#1000ff;fill-opacity:0;stroke:#1000ff;stroke-width:1;stroke-linecap:round;stroke-linejoin:round;stroke-opacity:0.921569"
       d="m 62.03942,34.580049 c -1.889795,-1.943423 2.810748,0.523658 2.810748,-0.449493"
       id="path28291" /><path
       style="fill:#1000ff;fill-opacity:0;stroke:#1000ff;stroke-width:1;stroke-linecap:round;stroke-linejoin:round;stroke-opacity:0.921569"
       d="m 66.086598,34.018074 c 0.374795,-1.348473 0.807204,-2.682243 1.124386,-4.045418 0.05945,-0.255487 0,-0.524627 0,-0.78694 0,-0.07484 -0.02365,-0.295526 0,-0.224525 0.317032,0.951097 0.08108,2.668246 1.348912,2.921913 0.151588,0.03033 0.32625,-0.01974 0.449929,-0.112485 0.602928,-0.45212 0.659683,-1.338197 0.561975,-2.022928 -0.04363,-0.305768 -0.169322,-0.59509 -0.224525,-0.898983 -0.02008,-0.110527 -0.05008,-0.437562 0,-0.337007 0.255429,0.51286 0.204184,1.128141 0.337008,1.68548 0.179019,0.751181 0.349803,1.504958 0.561975,2.247456 0.05544,0.194011 0.169502,0.367969 0.224964,0.561972 0.02061,0.0721 0,0.299955 0,0.224967 0,-0.262313 0,-0.524626 0,-0.786939"
       id="path28293" /><path
       style="fill:#1000ff;fill-opacity:0;stroke:#1000ff;stroke-width:1;stroke-linecap:round;stroke-linejoin:round;stroke-opacity:0.921569"
       d="m 74.63088,29.073673 c 0,1.177822 -0.05924,-0.111363 0.337449,1.573001 0.06923,0.293955 0.07716,0.599056 0.112483,0.89898 0.03967,0.336907 0.05677,0.676839 0.112482,1.011465 0.139359,0.836978 0.09775,0.166095 0,-0.224525 0.06772,-0.20356 -0.182166,-0.209214 -0.224965,-0.337447 -0.05302,-0.158848 0.09612,-0.577416 0.224965,-0.674018 0.09475,-0.07104 0.22212,-0.08375 0.337008,-0.112483 1.094814,-0.273836 1.269928,-0.179194 1.798843,-1.23599"
       id="path28295" /><path
       style="fill:#1000ff;fill-opacity:0;stroke:#1000ff;stroke-width:1;stroke-linecap:round;stroke-linejoin:round;stroke-opacity:0.921569"
       d="m 77.329145,28.174254 c 1.018347,5.087757 0.05952,0.481076 0.674455,3.146875 0.04294,0.186152 0.05995,0.378298 0.112482,0.561975 0.02302,0.08048 0.08601,0.303937 0.112483,0.224525 0.05924,-0.177713 0,-0.37465 0,-0.561975"
       id="path28297" /><path
       style="fill:#1000ff;fill-opacity:0;stroke:#1000ff;stroke-width:1;stroke-linecap:round;stroke-linejoin:round;stroke-opacity:0.921569"
       d="m 80.589381,28.511701 c -0.337301,0.03735 -0.713939,-0.05039 -1.011902,0.112043 -0.718579,0.391721 -0.08845,3.728519 1.461834,3.146875 0.511516,-0.191911 0.841026,-0.498809 1.011465,-1.011463"
       id="path28299" /><path
       style="fill:#1000ff;fill-opacity:0;stroke:#1000ff;stroke-width:1;stroke-linecap:round;stroke-linejoin:round;stroke-opacity:0.921569"
       d="m 82.725672,27.500236 c 0.07484,0.486984 0.105008,0.982969 0.224525,1.460955 0.0692,0.276757 0.241403,0.517874 0.33745,0.7865 0.08638,0.241602 0.250407,1.488628 0.674454,1.573438 0.619321,0.123864 1.203331,-0.977924 1.57388,-1.348473"
       id="path28301" /><path
       style="fill:#1000ff;fill-opacity:0;stroke:#ff6b00;stroke-width:1;stroke-linecap:round;stroke-linejoin:round;stroke-opacity:0.921569"
       d="m 19.205963,14.014628 5.396528,-0.224526 0.224526,19.441474"
       id="path29191" /><path
       style="fill:#1000ff;fill-opacity:0;stroke:#ff6b00;stroke-width:1;stroke-linecap:round;stroke-linejoin:round;stroke-opacity:0.921569"
       d="m 18.756472,9.9692088 5.283606,-0.3370082 c 0.09364,-0.020802 0.07559,-3.3008177 0.01776,-5.5539806 -0.05784,-2.2531629 5.430638,-1.7641484 5.491254,-0.2898415 0.06062,1.4743069 0.105116,29.5505575 0.112483,29.5556795"
       id="path29195"
       sodipodi:nodetypes="cczzc" /><path
       style="fill:#1000ff;fill-opacity:0;stroke:#ff6b00;stroke-width:1;stroke-linecap:round;stroke-linejoin:round;stroke-opacity:0.921569"
       d="m 8.5194001,12.455699 c 1.5398809,-0.01893 3.0763939,-0.106472 4.6143139,-0.177428 0.455385,-0.02101 0.911191,-0.0321 1.366572,-0.0532 2.203977,-0.10211 0.558485,-0.04875 1.916752,-0.08871"
       id="path29199" /><path
       style="fill:#1000ff;fill-opacity:0;stroke:#ff6b00;stroke-width:1;stroke-linecap:round;stroke-linejoin:round;stroke-opacity:0.921569"
       d="m 14.837524,10.734895 c 0.236476,0.236373 0.09408,0.122719 0.44364,0.319274 0.09466,0.05322 0.186403,0.11199 0.283969,0.159671 0.434668,0.212427 0.892872,0.364737 1.331059,0.567729 0.01705,0.0079 0.415924,0.198486 0.461466,0.28383 0.0698,0.130812 -0.175078,0.305853 -0.213011,0.33703 -0.417744,0.343331 -0.669616,0.497969 -1.082604,0.816045 -0.203453,0.156696 -0.399636,0.322697 -0.603381,0.479015 -0.174516,0.133893 -0.159741,0.165585 -0.159741,0.0532"
       id="path29203" /><path
       style="fill:#1000ff;fill-opacity:0;stroke:#ff6a00;stroke-width:1;stroke-linecap:round;stroke-linejoin:round;stroke-opacity:1"
       d="M 4.3470036,7.8627694 C 4.341958,7.2408004 4.7540854,6.6642096 5.1972275,6.2602927 5.3276145,6.1414471 5.6729619,5.8813575 5.9016338,5.8718248 6.6432596,5.8409088 6.5956814,6.9573777 6.4846204,7.4014877 6.4299181,7.6202306 6.3478319,7.8338639 6.2416856,8.0327954 5.8744439,8.7210521 4.9623323,9.3438825 4.2741894,9.7080863 4.1651938,9.7657728 4.044448,9.798678 3.934138,9.8538092 c -0.046377,0.023177 -0.1338877,0.084773 -0.097212,0.12142 0.1809244,0.1807828 0.5537575,0.1103568 0.7773151,0.1456278 0.1960734,0.03093 0.3901384,0.07439 0.5829863,0.12142 0.4538441,0.11067 0.8837896,0.291351 1.3602068,0.291351 0.1144982,0 0.2267011,-0.03234 0.3400518,-0.04851"
       id="path29853" /><path
       style="fill:#1000ff;fill-opacity:0;stroke:#ff6a00;stroke-width:1;stroke-linecap:round;stroke-linejoin:round;stroke-opacity:1"
       d="m 7.9663419,5.9446387 c 0.191775,0.5652878 0.024207,1.1068751 0.024207,1.6996888 0,0.029209 0.049045,-0.031764 0.072909,-0.048606 0.1138,-0.080314 0.2197272,-0.1726776 0.3400518,-0.2428398 C 8.6341552,7.2183905 9.1170769,6.9536862 9.4237592,6.988717 10.018274,7.0566255 10.036159,7.8066354 9.9824428,8.2270292 9.9024701,8.8529085 9.4287212,9.7678569 8.7192579,9.8538092 8.5963039,9.8687053 8.4579644,9.8496817 8.3549034,9.7809951 8.0433499,9.573353 7.9294627,9.0551745 7.8205228,8.7612198"
       id="path29855" /><path
       style="fill:#1000ff;fill-opacity:0;stroke:#ff6a00;stroke-width:1;stroke-linecap:round;stroke-linejoin:round;stroke-opacity:1"
       d="M 7.7234073,6.4545265 C 9.1751982,5.461581 8.2883702,5.926815 10.492522,5.2891232"
       id="path29857" /><path
       style="fill:#1000ff;fill-opacity:0;stroke:#ff6a00;stroke-width:1;stroke-linecap:round;stroke-linejoin:round;stroke-opacity:1"
       d="m 11.998451,4.7306296 c -0.06474,0.089016 -0.145001,0.1686009 -0.194234,0.2670479 -0.18415,0.3682283 0.0506,0.9904484 0.534381,0.6556105 0.05199,-0.035983 0.105242,-0.072852 0.145723,-0.12142 0.128026,-0.1536012 0.379283,-0.6816896 0.0243,-0.7527274 -0.111146,-0.022244 -0.233627,-0.039015 -0.340051,0 -0.147599,0.05411 -0.259105,0.1780953 -0.388658,0.2671427"
       id="path29861" /><path
       style="fill:#1000ff;fill-opacity:0;stroke:#ff6a00;stroke-width:1;stroke-linecap:round;stroke-linejoin:round;stroke-opacity:1"
       d="m 14.864777,5.3619373 c -0.437232,0.4289409 -0.914621,0.8204599 -1.311695,1.286823 -0.341643,0.4012588 -1.04498,1.4414126 -0.704407,2.0881567 0.328211,0.6232676 1.281718,0.6555155 1.87038,0.6555155 0.136959,0 0.803803,-0.038128 1.020155,-0.1213249 0.257245,-0.098923 0.462956,-0.3423865 0.218631,-0.6070047 -0.0453,-0.049058 -0.129552,-0.032404 -0.194329,-0.048606"
       id="path29863" /><path
       style="fill:#1000ff;fill-opacity:0;stroke:#ff6a00;stroke-width:1;stroke-linecap:round;stroke-linejoin:round;stroke-opacity:1"
       d="m 4.4928213,17.558704 c 0.2721382,-0.997603 0.11855,-0.332436 0.3157487,-1.942528 0.00891,-0.07275 -0.015206,0.145809 -0.024302,0.218536 -0.023307,0.186293 -0.041519,0.373393 -0.072909,0.558494 -0.1574044,0.928188 -0.3926748,1.841354 -0.5586834,2.767975 -0.031691,0.176894 -0.067973,0.354546 -0.072814,0.534191 -0.0033,0.12242 0.014047,0.246678 0.048606,0.364165 0.079551,0.0531 0.072814,0.07779 0.072814,0.0243"
       id="path29865" /><path
       style="fill:#1000ff;fill-opacity:0;stroke:#ff6a00;stroke-width:1;stroke-linecap:round;stroke-linejoin:round;stroke-opacity:1"
       d="m 8.4521166,17.121631 c -0.1133507,0 -0.2321989,-0.03487 -0.3400518,0 -0.1758439,0.05686 -0.3314988,0.165443 -0.4858694,0.267047 -0.1785218,0.117501 -0.3610742,0.235255 -0.5100775,0.388468 -0.4843523,0.498037 -0.6741303,1.301859 -0.291446,1.918226 0.066414,0.106969 0.1588635,0.202791 0.2671429,0.267048 0.156486,0.09286 0.3293827,0.173583 0.5101725,0.194234 0.117121,0.01338 0.238102,-0.03794 0.3400518,-0.09712 0.5375817,-0.31207 0.8589206,-0.912311 1.0444578,-1.481057 0.079912,-0.244962 0.1425262,-0.834849 0.170026,-1.068382 0.00951,-0.08079 0.018058,-0.161729 0.024302,-0.24284 0.00185,-0.0242 -0.010853,-0.09452 0,-0.07281 0.076096,0.152191 0.024302,0.339732 0.024302,0.509887 0,0.211341 -0.00809,0.906381 0.024302,1.116893 0.00529,0.03439 0.094554,0.53419 0.2914457,0.53419 0.1233199,0 0.2267011,-0.09715 0.3400518,-0.145723"
       id="path29869" /><path
       style="fill:#1000ff;fill-opacity:0;stroke:#ff6a00;stroke-width:1;stroke-linecap:round;stroke-linejoin:round;stroke-opacity:1"
       d="m 11.53698,15.130591 c 0.462738,1.089065 -0.273364,2.184183 -0.218632,3.277863 0.0078,0.155506 0.0073,0.32016 0.07291,0.461376 0.218763,0.471072 0.882773,0.121192 1.14167,-0.07291 0.09203,-0.069 0.145691,-0.178032 0.218536,-0.267048"
       id="path29871" /><path
       style="fill:#1000ff;fill-opacity:0;stroke:#ff6a00;stroke-width:1;stroke-linecap:round;stroke-linejoin:round;stroke-opacity:1"
       d="m 10.103864,17.655821 c 3.001077,-0.680683 1.90255,-0.65561 3.230586,-0.65561"
       id="path29873" /><path
       style="fill:#1000ff;fill-opacity:0;stroke:#ff6a00;stroke-width:1;stroke-linecap:round;stroke-linejoin:round;stroke-opacity:1"
       d="m 14.281791,16.563137 c 0.200017,1.199063 0.07658,0.274239 -0.0243,2.743672 -9.79e-4,0.02428 -0.01719,0.09008 0,0.07291 0.03843,-0.03838 0.05214,-0.09554 0.07291,-0.145723 0.07644,-0.184684 0.142573,-0.373516 0.218537,-0.558398 0.508631,-1.237915 0.147384,-0.367556 0.704501,-1.505455 0.02026,-0.04138 0.157605,-0.480518 0.291446,-0.534096 0.01679,-0.0067 0.0233,0.03045 0.0243,0.04851 0.0072,0.129289 0,0.258978 0,0.388468 0,0.18809 -0.05964,0.400549 0.170026,0.509887 0.344673,0.164094 0.705303,-0.149239 0.971644,-0.315654 0.04002,-0.02501 0.07486,-0.06508 0.12142,-0.07281 0.0462,-0.0077 0.01089,0.14822 0.0243,0.315653 0.01599,0.199674 0.06227,0.504738 0.170025,0.679819 0.09658,0.156907 0.408451,0.438825 0.582987,0.509888 0.106049,0.04318 0.225549,0.0486 0.340051,0.0486 0.07466,0 0.155942,-0.0081 0.218632,-0.0486 0.08184,-0.05292 0.129553,-0.145628 0.194329,-0.218442"
       id="path29875" /><path
       style="fill:#1000ff;fill-opacity:0;stroke:#ff6a00;stroke-width:1;stroke-linecap:round;stroke-linejoin:round;stroke-opacity:1"
       d="m -4.0868859,11.608654 c 0.2214571,1.991166 0.1381276,0.570996 -0.3885626,4.200521 -0.00707,0.04873 0.024209,-0.09648 0.024209,-0.145723 0,-0.08132 -0.01614,-0.161829 -0.024209,-0.242744"
       id="path29877" /><path
       style="fill:#1000ff;fill-opacity:0;stroke:#ff6a00;stroke-width:1;stroke-linecap:round;stroke-linejoin:round;stroke-opacity:1"
       d="m -4.4512404,13.648205 c 0.6699226,-0.377245 1.5508724,-0.218398 2.3319457,-0.267048"
       id="path29879" /><path
       style="fill:#1000ff;fill-opacity:0;stroke:#ff6a00;stroke-width:1;stroke-linecap:round;stroke-linejoin:round;stroke-opacity:1"
       d="m -1.3905854,11.390117 c 0.2129244,1.370144 -0.053186,2.872968 -0.2672377,4.176219 -0.01058,0.06442 -0.1295526,-0.0162 -0.1943288,-0.0243"
       id="path29881" /><path
       style="fill:#1000ff;fill-opacity:0;stroke:#ff6a00;stroke-width:1;stroke-linecap:round;stroke-linejoin:round;stroke-opacity:1"
       d="m 0.1639501,16.17334 c -0.21286591,-0.49678 -0.16795567,-0.28047 0.36435465,-1.238312 0.0278085,-0.05004 0.11962212,-0.05135 0.17002583,-0.02421 0.1377714,0.07419 0.25409144,0.469087 0.26723771,0.558399 0.088758,0.602999 -0.20822968,1.25264 -0.68019829,1.62678 -0.13723121,0.108786 -0.28649916,0.202101 -0.43716861,0.291351 -0.06861,0.04064 -0.14533469,0.06571 -0.21863178,0.09712 -0.0400714,0.01717 -0.090593,0.01778 -0.12141991,0.04861 -0.0485743,0.04857 0.0788957,0.129815 0.14572286,0.145722 0.36140224,0.08603 0.43696942,0.0269 0.82582625,0.04851 0.24373644,0.01355 0.4855963,0.05074 0.72870929,0.07281 0.08299,0.0075 0.2963765,0.05271 0.3886576,0 0.021076,-0.01204 0,-0.04854 0,-0.07281"
       id="path29883" /><path
       style="fill:#1000ff;fill-opacity:0;stroke:#000000;stroke-width:1;stroke-linecap:round;stroke-linejoin:round;stroke-opacity:1"
       d="m 27.430457,32.914762 c -0.03027,-0.20002 -0.09376,-0.779958 -0.461473,-0.607005 -0.180835,0.08506 -0.336656,0.446836 -0.388657,0.582798 -0.08768,0.229232 -0.18487,0.547738 -0.09712,0.801238 0.127667,0.368797 0.588698,0.464404 0.922944,0.364164 0.681915,-0.204504 0.78228,-1.097798 0.340145,-1.578173 -0.277458,-0.301456 -0.771549,-0.428501 -0.971642,0.04851 -0.06092,0.145217 -0.05925,0.650981 -0.02429,0.82554 0.01712,0.0855 0.06481,0.161893 0.09721,0.24284"
       id="path29885" /><path
       style="fill:#1000ff;fill-opacity:0;stroke:#000000;stroke-width:1;stroke-linecap:round;stroke-linejoin:round;stroke-opacity:1"
       d="M 27.721197,33.413472 27.344007,-1.1527542 43.138179,-1.7654313"
       id="path30143" /><path
       style="fill:#1000ff;fill-opacity:0;stroke:#000000;stroke-width:1;stroke-linecap:round;stroke-linejoin:round;stroke-opacity:1"
       d="m 29.229947,-2.4722671 c 0.48334,-0.9097175 1.089731,-1.783973 1.838769,-2.49788 0.783455,-0.7467102 1.753804,-1.3046429 2.687304,-1.8378468"
       id="path30147" /><path
       style="fill:#1000ff;fill-opacity:0;stroke:#000000;stroke-width:1;stroke-linecap:round;stroke-linejoin:round;stroke-opacity:1"
       d="m 32.247268,-7.9861766 c -0.446963,-0.1298909 3.228941,-0.673775 3.158834,0.3770037 -0.02932,0.4394391 -0.468238,0.8568002 -0.707205,1.1310112 -0.226393,0.2597827 -0.478224,0.4965025 -0.707205,0.7540075 -0.736708,0.828481 -0.101811,0.2363292 -0.801362,0.8483504"
       id="path30149" /><path
       style="fill:#1000ff;fill-opacity:0;stroke:#000000;stroke-width:1;stroke-linecap:round;stroke-linejoin:round;stroke-opacity:1"
       d="m 37.527714,-10.86106 c 0.843333,1.4741837 0.127627,0.115498 0.518702,4.2415679 0.01805,0.1902545 0.154847,0.3842293 0.09434,0.5655056 -0.05403,0.1618689 -0.223893,-0.3883239 -0.235857,-0.4241752"
       id="path30151" /><path
       style="fill:#1000ff;fill-opacity:0;stroke:#000000;stroke-width:1;stroke-linecap:round;stroke-linejoin:round;stroke-opacity:1"
       d="m 37.433556,-11.70941 c 0.778262,-0.423553 1.840011,-0.469219 2.404457,0.330016 0.08923,0.126338 0.170082,0.270423 0.188502,0.423991 0.12354,1.0298586 -0.619006,1.9123432 -1.461579,2.4035366 -0.15888,0.092622 -0.337577,0.2213859 -0.51852,0.1885019 -0.210299,-0.03822 -0.3458,-0.2513359 -0.518702,-0.3770037"
       id="path30155" /><path
       style="fill:#1000ff;fill-opacity:0;stroke:#000000;stroke-width:1;stroke-linecap:round;stroke-linejoin:round;stroke-opacity:1"
       d="m 41.016565,-13.358756 c 0.790075,1.579028 0.641223,3.3813803 1.084392,5.042563 0.0704,0.2638991 0.330018,1.0218793 0.330018,0.6598486"
       id="path30157" /><path
       style="fill:#1000ff;fill-opacity:0;stroke:#000000;stroke-width:1;stroke-linecap:round;stroke-linejoin:round;stroke-opacity:1"
       d="m 45.542821,-10.389713 c -0.09435,-0.09428 -0.167206,-0.216706 -0.28303,-0.282845 -0.727625,-0.415496 -1.380485,0.591544 -1.320064,1.2253538 0.005,0.052375 0.150545,0.7251369 0.235672,0.8953378 0.456232,0.9121688 1.143241,-0.1382995 1.41441,-0.6126771 0.05893,-0.1031038 0.199091,-0.3897995 0.235857,-0.518334 0.0086,-0.030176 0,-0.1255451 0,-0.094159 0,0.3867247 0.503333,1.4954482 0.895705,1.6023576 0.284622,0.07755 0.5974,-0.6287405 0.707204,-0.8483504"
       id="path30161" /><path
       style="fill:#1000ff;fill-opacity:0;stroke:#000000;stroke-width:1;stroke-linecap:round;stroke-linejoin:round;stroke-opacity:1"
       d="m 48.465798,-13.924445 c -0.03139,-0.0785 -0.103111,-0.319553 -0.09416,-0.235489 0.08727,0.819582 0.233084,1.632028 0.330017,2.450524 0.156829,1.324273 0.02455,0.83897 0.188503,2.0265325 0.01598,0.1157004 0.05585,0.6314225 0.282844,0.7070203 0.36372,0.1211353 1.115693,-1.3351918 1.178735,-1.4610278"
       id="path30163" /><path
       style="fill:#1000ff;fill-opacity:0;stroke:#000000;stroke-width:1;stroke-linecap:round;stroke-linejoin:round;stroke-opacity:1"
       d="m 48.230123,-10.908231 c 2.201325,-0.782337 1.424643,-0.475547 2.357286,-0.848167"
       id="path30165" /><path
       style="fill:#1000ff;fill-opacity:0;stroke:#000000;stroke-width:1;stroke-linecap:round;stroke-linejoin:round;stroke-opacity:1"
       d="m 51.624632,-12.604748 c 0.05974,0.320977 0.2361,1.885645 0.565872,2.544867 0.06192,0.1237776 0.175011,0.2828449 0.330017,0.2828449"
       id="path30167" /><path
       style="fill:#1000ff;fill-opacity:0;stroke:#000000;stroke-width:1;stroke-linecap:round;stroke-linejoin:round;stroke-opacity:1"
       d="m 51.436129,-14.065776 c 0.410112,-0.153667 0.257098,-0.201376 0.47153,-0.09416"
       id="path30169" /><path
       style="fill:#1000ff;fill-opacity:0;stroke:#000000;stroke-width:1;stroke-linecap:round;stroke-linejoin:round;stroke-opacity:1"
       d="m 53.133384,-13.217425 c 0.188624,1.052515 0.380796,2.104399 0.565872,3.157544 0.01924,0.1093777 0.03597,0.2193258 0.04699,0.3298319 0.0047,0.046939 -0.02111,0.1836897 0,0.1415148 0.148434,-0.2962875 0.05962,-0.6601157 0.09434,-0.9896807 0.0923,-0.875998 0.162914,-1.216975 0.37719,-2.073705 0.05551,-0.221929 0.116329,-0.442827 0.188685,-0.659848 0.02222,-0.06663 0.02527,-0.174769 0.09416,-0.188502 0.133424,-0.0266 0.206123,0.315276 0.235857,0.612677 0.07619,0.762131 -0.01331,0.88567 0.14133,1.555186 0.209902,0.908754 0.484005,1.027048 1.225907,0.471347"
       id="path30171" /><path
       style="fill:#1000ff;fill-opacity:0;stroke:#000000;stroke-width:1;stroke-linecap:round;stroke-linejoin:round;stroke-opacity:1"
       d="m 42.808162,-3.9804662 c 5.29e-4,-1.355e-4 1.383747,-0.039016 1.650267,-0.5183341 0.248595,-0.4470826 -0.217136,-1.0522932 -0.707205,-0.8483505 -0.418486,0.174153 -0.612021,0.7975044 -0.707205,1.1781827 -0.133675,0.5346139 -0.190711,1.3653968 0.330018,1.7438725 0.49611,0.3605826 1.700768,-0.2030093 2.121612,-0.5185183 0.224583,-0.1683724 0.392771,-0.3964876 0.565689,-0.6126771"
       id="path30173" /><path
       style="fill:#1000ff;fill-opacity:0;stroke:#000000;stroke-width:1;stroke-linecap:round;stroke-linejoin:round;stroke-opacity:1"
       d="m 45.778494,-7.4678425 c 1.128969,3.9494017 -0.205203,-0.8578268 0.895707,3.6288908 0.05391,0.2197015 0.239416,0.7525512 0.47153,0.8953378 0.421155,0.2590758 0.747958,-0.5175456 0.895889,-0.7540075"
       id="path30175" /><path
       style="fill:#1000ff;fill-opacity:0;stroke:#000000;stroke-width:1;stroke-linecap:round;stroke-linejoin:round;stroke-opacity:1"
       d="m 47.852935,-4.8286323 c 0.487193,-0.1256681 0.98833,-0.2061694 1.46158,-0.3770037 0.581303,-0.2098389 0.204861,-1.0251966 -0.235673,-1.2253542 -0.07299,-0.033165 -0.164139,-0.083013 -0.235857,-0.047172 -0.11471,0.057328 -0.280395,0.6469901 -0.282845,0.6598486 -0.06476,0.3396588 -0.06109,0.8425024 0,1.1781827 0.09607,0.5278951 0.708417,1.7893892 1.367237,0.9896805 0.134014,-0.1626721 0.188563,-0.3770037 0.282845,-0.5655053"
       id="path30177" /><path
       style="fill:#1000ff;fill-opacity:0;stroke:#000000;stroke-width:1;stroke-linecap:round;stroke-linejoin:round;stroke-opacity:1"
       d="m 50.210222,-8.5988537 c 0.633489,1.1249223 0.360791,2.6056801 0.943062,3.7702214 0.02532,0.050631 0.04046,0.1592522 0.09416,0.1413301 0.0131,-0.00437 0.07149,-0.3100176 0.09434,-0.4241752"
       id="path30179" /><path
       style="fill:#1000ff;fill-opacity:0;stroke:#000000;stroke-width:1;stroke-linecap:round;stroke-linejoin:round;stroke-opacity:1"
       d="m 51.860489,-7.0908388 c -0.267184,0.4870093 -0.604898,0.9415148 -0.801547,1.4610276 -0.0373,0.098545 0.07403,0.2017334 0.141515,0.2826604 0.489556,0.5871231 1.43882,0.5556576 1.932927,0 0.05623,-0.063234 0.0565,-0.1599882 0.09434,-0.2356734"
       id="path30181" /><path
       style="fill:#1000ff;fill-opacity:0;stroke:#000000;stroke-width:1;stroke-linecap:round;stroke-linejoin:round;stroke-opacity:1"
       d="m 53.227726,-9.0702005 c -0.443368,-1.3292335 0.0645,0.2082962 1.03722,2.6392103 0.2154,0.5383019 0.203623,0.5412147 0.518519,0.8953378 0.04433,0.049852 0.08431,0.1071922 0.141515,0.1415145 0.05078,0.030466 0.180047,0.038533 0.09434,-0.047172"
       id="path30183" /><path
       style="fill:#1000ff;fill-opacity:0;stroke:#000000;stroke-width:1;stroke-linecap:round;stroke-linejoin:round;stroke-opacity:1"
       d="m 53.180553,-6.1483295 c 0.890355,-1.146471 1.44139,-1.4848689 2.734474,-1.7436883"
       id="path30185" /><path
       style="fill:#1000ff;fill-opacity:0;stroke:#000000;stroke-width:1;stroke-linecap:round;stroke-linejoin:round;stroke-opacity:1"
       d="m 56.622232,-7.8920178 c 0.257641,0.2573878 0.301866,0.2660542 0.471533,0.7070201 0.165912,0.4312068 0.299738,0.8746128 0.42436,1.3195131 0.01527,0.054543 -0.06721,-0.091609 -0.09434,-0.1413304 -0.0673,-0.1233334 -0.149151,-0.2421255 -0.1885,-0.3770037 -0.07164,-0.2455481 -0.111601,-0.5001622 -0.141515,-0.7541916 -0.05182,-0.4400232 -0.215974,-1.4121267 0.377187,-1.6493453 0.06198,-0.024789 0.46581,0.1658999 0.518517,0.1885019"
       id="path30187" /><path
       style="fill:#1000ff;fill-opacity:0;stroke:#000000;stroke-width:1;stroke-linecap:round;stroke-linejoin:round;stroke-opacity:1"
       d="m 59.356891,-7.8448463 c -0.161276,-0.1484484 1.062628,0.5836521 1.367237,0.2356734 0.06545,-0.074769 0.08104,-0.1843458 0.09416,-0.2828449 0.01865,-0.1401542 0.03599,-0.2874409 0,-0.4241752 -0.106592,-0.4049517 -0.810154,-1.4522402 -1.320067,-0.9425093 -0.104812,0.1047758 -0.194947,0.2345073 -0.235672,0.3770037 -0.155374,0.5436598 0.07793,1.2688573 0.42436,1.6967009 0.247015,0.3050652 1.004255,0.6927049 1.367237,0.3298323 0.273651,-0.2735691 0.27432,-0.6422197 0.235672,-0.9896809 -0.0615,-0.5529175 -0.08544,-0.9233214 -0.56569,-1.2725257 -0.626903,-0.4558389 -1.201663,-0.2319144 -1.320249,0.5185183 -0.01977,0.1250955 0.03145,0.2513359 0.04717,0.3770037"
       id="path30189" /><path
       style="fill:#1000ff;fill-opacity:0;stroke:#000000;stroke-width:1;stroke-linecap:round;stroke-linejoin:round;stroke-opacity:1"
       d="m 62.232695,-11.473737 c 0.550315,0.08803 0.463635,2.5597024 0.943063,3.251887 0.324413,0.4683773 0.82441,-0.281578 0.942879,-0.5185182"
       id="path30191" /><path
       style="fill:#1000ff;fill-opacity:0;stroke:#000000;stroke-width:1;stroke-linecap:round;stroke-linejoin:round;stroke-opacity:1"
       d="m 61.478506,-8.9288701 c 2.620923,-1.6121489 1.541401,-1.2047049 3.017319,-1.6965169"
       id="path30193" /><path
       style="fill:#1000ff;fill-opacity:0;stroke:#000000;stroke-width:1;stroke-linecap:round;stroke-linejoin:round;stroke-opacity:1"
       d="m 30.298149,66.193045 c 0.151482,0.30267 0.372284,0.579673 0.454448,0.908013 0.437311,1.74753 0.397243,4.314568 0.454007,6.129305 0.0021,0.07016 0.09971,2.361306 0,2.610869 -0.181121,0.453334 -0.837885,-0.269915 -0.908455,-0.340394"
       id="path30199" /><path
       style="fill:#1000ff;fill-opacity:0;stroke:#000000;stroke-width:1;stroke-linecap:round;stroke-linejoin:round;stroke-opacity:1"
       d="m 30.638985,71.868344 c -0.02564,-0.434578 4.256908,-0.168632 5.109901,-1.021625"
       id="path30201" /><path
       style="fill:#1000ff;fill-opacity:0;stroke:#000000;stroke-width:1;stroke-linecap:round;stroke-linejoin:round;stroke-opacity:1"
       d="m 35.181267,66.987443 c 0.767697,2.510782 0.720365,4.794954 1.135237,7.605382 0.02974,0.201482 0.171217,0.371361 0.227227,0.567176 0.176421,0.616786 -0.517133,-0.289808 -0.567621,-0.340394"
       id="path30203" /><path
       style="fill:#1000ff;fill-opacity:0;stroke:#000000;stroke-width:1;stroke-linecap:round;stroke-linejoin:round;stroke-opacity:1"
       d="m 39.723104,75.046831 c 0.03787,-0.189206 -0.04247,-0.45417 0.113613,-0.567618 1.394166,-1.01331 1.954786,0.484436 1.476076,1.362019 -0.141341,0.259106 -0.818238,0.812998 -1.135238,0.908013 -0.181382,0.05436 -0.37965,-0.01884 -0.568063,0 -0.192,0.01921 -0.37466,0.113612 -0.567618,0.113612 -0.05356,0 -0.07574,-0.151485 -0.113612,-0.113612 -0.144209,0.144206 0.364958,0.208754 0.568063,0.227224 0.565433,0.05142 1.136782,-0.03764 1.703297,0 0.277527,0.01844 1.978642,0.502566 1.248852,-0.227224"
       id="path30205" /><path
       style="fill:#1000ff;fill-opacity:0;stroke:#000000;stroke-width:1;stroke-linecap:round;stroke-linejoin:round;stroke-opacity:1"
       d="m 42.562086,70.392712 c 1.310929,0.06764 2.564347,-0.456149 3.860607,-0.567174 0.678892,-0.05815 1.363006,0.01842 2.044136,0 0.719836,-0.01947 1.43754,-0.09179 2.157307,-0.113612 0.441333,-0.01339 3.116638,0.176348 3.520213,-0.227227"
       id="path30209" /><path
       style="fill:#1000ff;fill-opacity:0;stroke:#000000;stroke-width:1;stroke-linecap:round;stroke-linejoin:round;stroke-opacity:1"
       d="m 53.122723,68.236295 c 0.832716,0.529746 1.686621,1.02757 2.498143,1.589243 1.024586,0.709139 0.399135,0.663411 -0.227224,1.021181 -1.260623,0.720056 0.413459,-0.0059 -1.022069,0.567618"
       id="path30211" /><path
       style="fill:#1000ff;fill-opacity:0;stroke:#000000;stroke-width:1;stroke-linecap:round;stroke-linejoin:round;stroke-opacity:1"
       d="m 59.481473,69.825538 c 0.719251,-1.135089 1.362893,-2.321779 2.157751,-3.405269 0.236284,-0.322083 0.612834,0.24775 0.681231,0.794401 0.04254,0.339989 -0.03048,0.689221 -0.113612,1.021625 -0.545457,2.180907 -1.205788,3.737708 -2.498143,5.561687 -0.3644,0.514297 -1.045133,1.603007 -1.930527,1.248849 -0.603954,-0.241583 0.592262,-0.555696 0.794845,-0.567618 1.351624,-0.07954 2.741999,0.01024 4.087831,0.113612 1.385549,0.10642 2.799633,0.467661 3.747437,-0.794843"
       id="path30213" /><path
       style="fill:#1000ff;fill-opacity:0;stroke:#000000;stroke-width:1;stroke-linecap:round;stroke-linejoin:round;stroke-opacity:1"
       d="m 67.884362,66.874275 c 0.151482,0.454007 0.381608,0.888982 0.454451,1.36202 0.231653,1.504397 -0.167767,3.563128 -0.227227,5.10768 -0.01601,0.415976 0,0.832567 0,1.24885 0,0.525385 0.122002,0.977164 0,0.794401 -0.229245,-0.343422 -0.142028,-0.822818 -0.454448,-1.135238"
       id="path30219" /><path
       style="fill:#1000ff;fill-opacity:0;stroke:#000000;stroke-width:1;stroke-linecap:round;stroke-linejoin:round;stroke-opacity:1"
       d="m 68.111586,70.960331 c 1.134592,-0.785172 2.810208,0.823619 3.747439,-0.113612"
       id="path30221" /><path
       style="fill:#1000ff;fill-opacity:0;stroke:#000000;stroke-width:1;stroke-linecap:round;stroke-linejoin:round;stroke-opacity:1"
       d="m 72.199417,66.760663 c 0.407715,5.023689 -0.02016,2.797477 0.908458,6.35653 0.07405,0.283819 0.180234,0.647478 0.113612,0.680789 -0.181764,0.09088 -0.567267,-0.453655 -0.681231,-0.567619"
       id="path30223" /><path
       style="fill:#1000ff;fill-opacity:0;stroke:#000000;stroke-width:1;stroke-linecap:round;stroke-linejoin:round;stroke-opacity:1"
       d="m 75.719629,64.944637 c 0.302821,1.09722 0.600128,2.195973 0.908458,3.291658 0.0092,0.03283 0.317802,0.975995 0,0.340394"
       id="path30225" /><path
       style="fill:#1000ff;fill-opacity:0;stroke:#000000;stroke-width:1;stroke-linecap:round;stroke-linejoin:round;stroke-opacity:1"
       d="m 75.152011,67.782288 c 0.722609,-0.477779 1.395709,-0.02892 2.157307,-0.113612 1.088461,-0.121047 0.279725,-0.113612 0.68123,-0.113612"
       id="path30229" /><path
       style="fill:#1000ff;fill-opacity:0;stroke:#000000;stroke-width:1;stroke-linecap:round;stroke-linejoin:round;stroke-opacity:1"
       d="m 78.672223,69.825538 c 0.189207,0.908013 0.378413,1.816024 0.567619,2.724037 0,0.151336 0.107011,0.561017 0,0.454006 -0.13644,-0.136443 -0.07574,-0.378412 -0.113612,-0.567618"
       id="path30231" /><path
       style="fill:#1000ff;fill-opacity:0;stroke:#000000;stroke-width:1;stroke-linecap:round;stroke-linejoin:round;stroke-opacity:1"
       d="m 77.876936,71.073943 c 2.952504,0.118158 1.891898,0.113615 3.179821,0.113615"
       id="path30233" /><path
       style="fill:#1000ff;fill-opacity:0;stroke:#000000;stroke-width:1;stroke-linecap:round;stroke-linejoin:round;stroke-opacity:1"
       d="m 84.008906,69.144308 c 0.302818,-0.454007 0.61187,-0.903917 0.908455,-1.36202 0.199363,-0.307932 0.558125,-1.068922 1.022069,-1.135237 0.877229,-0.125388 1.289593,1.439405 1.249294,2.04325 -0.02077,0.311312 -0.100467,0.622917 -0.227224,0.908011 -0.766519,1.724014 -2.298036,3.455291 -3.520212,4.880901 -0.187929,0.219209 -0.891355,0.994656 -1.362464,0.680788 -0.469035,-0.312486 0.0013,-0.606123 0.340394,-0.794401 0.89902,-0.499107 1.878568,-0.282953 2.838982,-0.113612 1.459071,0.257265 3.416001,0.903216 4.769061,0"
       id="path30235" /><path
       style="fill:#1000ff;fill-opacity:0;stroke:#000000;stroke-width:1;stroke-linecap:round;stroke-linejoin:round;stroke-opacity:1"
       d="m 91.049331,71.641562 c 1.198607,0.07054 1.590569,0.416041 2.384531,-0.113612 0.624139,-0.416362 0.216918,-1.11446 -0.340395,-1.362017 -1.004093,-0.446024 -1.804167,0.635968 -2.044136,1.475629 -0.57159,2.000011 0.07726,3.398554 2.270919,2.724038 0.610536,-0.187729 0.906306,-0.337801 1.362905,-0.7944"
       id="path30237" /><path
       style="fill:#1000ff;fill-opacity:0;stroke:#000000;stroke-width:1;stroke-linecap:round;stroke-linejoin:round;stroke-opacity:1"
       d="m 90.595325,68.349907 c -1.545458,-2.435924 2.838537,0.868844 2.838537,-0.113612"
       id="path30239" /><path
       style="fill:#1000ff;fill-opacity:0;stroke:#000000;stroke-width:1;stroke-linecap:round;stroke-linejoin:round;stroke-opacity:1"
       d="m 109.46299,68.236295 c -0.18921,-0.2648 -0.36155,-0.542499 -0.56762,-0.794401 -0.46301,-0.565997 -0.35893,-0.435197 -1.02207,-0.567619 -0.18922,-0.03778 -0.37583,-0.134858 -0.56762,-0.113612 -1.43625,0.1591 -1.91847,2.993687 -0.34083,3.518882 0.0836,0.02784 0.42934,0.182255 0.56806,0.113167 0.24798,-0.123504 -0.79281,-0.487521 -1.24929,-0.226779 -0.69574,0.397393 -0.90602,1.593239 -0.56763,2.27003 0.12204,0.244075 0.26101,0.488314 0.45401,0.68123 0.44619,0.446 3.5862,1.145985 3.74744,0.340395 0.0297,-0.148392 0,-0.302671 0,-0.454007"
       id="path30276" /><path
       style="fill:#1000ff;fill-opacity:0;stroke:#000000;stroke-width:1;stroke-linecap:round;stroke-linejoin:round;stroke-opacity:1"
       d="m 111.84796,65.966262 c -0.22722,0.416137 -0.60364,0.780741 -0.68167,1.248408 -0.0618,0.370401 0.41431,1.186447 0.90846,1.021625 0.86387,-0.288145 1.08821,-1.398085 1.13568,-2.156862 0.0465,-0.743797 0.0567,-2.022298 -1.13568,-1.588802 -0.20114,0.07312 -0.34778,0.268213 -0.45401,0.454006 -0.52202,0.912961 -0.45988,1.183783 -0.56762,2.156421"
       id="path30278" /><path
       style="fill:#1000ff;fill-opacity:0;stroke:#000000;stroke-width:1;stroke-linecap:round;stroke-linejoin:round;stroke-opacity:1"
       d="m 116.16302,68.463074 c 1.35818,-0.193376 0.52781,-0.13091 2.49815,0"
       id="path30280" /><path
       style="fill:#1000ff;fill-opacity:0;stroke:#000000;stroke-width:1;stroke-linecap:round;stroke-linejoin:round;stroke-opacity:1"
       d="m 116.16302,70.052318 c 1.08107,-0.215376 2.03325,-0.22678 3.06576,-0.22678"
       id="path30282" /><path
       style="fill:#1000ff;fill-opacity:0;stroke:#000000;stroke-width:1;stroke-linecap:round;stroke-linejoin:round;stroke-opacity:1"
       d="m 124.4523,68.122683 c 0.49232,-0.609616 0.18407,-3.347998 -1.02207,-2.383645 -0.25083,0.200541 -0.52373,0.401373 -0.68123,0.681231 -0.82898,1.472933 -1.16235,5.964899 1.47607,5.788914 1.62344,-0.108286 2.64176,-2.194616 2.49815,-3.632494 -0.0357,-0.357171 -0.19457,-0.693637 -0.3404,-1.021625 -0.1583,-0.356042 -0.25379,-0.791287 -0.56806,-1.021625 -1.14019,-0.835681 -2.33869,0.395894 -2.72537,1.362461 -0.0994,0.248338 -0.0754,0.529601 -0.11317,0.794401"
       id="path30286" /><path
       style="fill:#1000ff;fill-opacity:0;stroke:#000000;stroke-width:1;stroke-linecap:round;stroke-linejoin:round;stroke-opacity:1"
       d="m 128.08612,67.101058 c 0.30282,0.60534 0.64812,1.191233 0.90846,1.816023 0.12004,0.288102 0.12808,0.612362 0.22678,0.908457 0.0652,0.195506 0.7972,1.921349 1.13568,0.794399 0.3442,-1.146003 0.0333,-4.577639 1.7033,-4.880899 0.22651,-0.04113 0.45415,0.07574 0.68123,0.113612"
       id="path30288" /></g></svg>
