<?xml version="1.0" encoding="UTF-8" standalone="no"?>
<!-- Created with Inkscape (http://www.inkscape.org/) -->

<svg
   width="210mm"
   height="297mm"
   viewBox="0 0 210 297"
   version="1.1"
   id="svg5"
   inkscape:version="1.2.2 (b0a8486541, 2022-12-01)"
   sodipodi:docname="fonksiyonların-gösterimi.svg"
   xmlns:inkscape="http://www.inkscape.org/namespaces/inkscape"
   xmlns:sodipodi="http://sodipodi.sourceforge.net/DTD/sodipodi-0.dtd"
   xmlns="http://www.w3.org/2000/svg"
   xmlns:svg="http://www.w3.org/2000/svg">
  <sodipodi:namedview
     id="namedview7"
     pagecolor="#ffffff"
     bordercolor="#000000"
     borderopacity="0.25"
     inkscape:showpageshadow="2"
     inkscape:pageopacity="0.0"
     inkscape:pagecheckerboard="0"
     inkscape:deskcolor="#d1d1d1"
     inkscape:document-units="mm"
     showgrid="false"
     inkscape:zoom="1.0229369"
     inkscape:cx="353.88301"
     inkscape:cy="401.7843"
     inkscape:window-width="1916"
     inkscape:window-height="1026"
     inkscape:window-x="0"
     inkscape:window-y="0"
     inkscape:window-maximized="1"
     inkscape:current-layer="layer1" />
  <defs
     id="defs2" />
  <g
     inkscape:label="Layer 1"
     inkscape:groupmode="layer"
     id="layer1">
    <path
       style="fill:#ff2a2a;stroke-width:0.264583"
       id="path203"
       d="m 10.598558,20.183654 c 0.119027,-0.199039 0.245286,-0.393928 0.35708,-0.597118 0.396387,-0.720444 0.954946,-1.851162 1.290897,-2.551026 0.564173,-1.175307 0.98767,-2.082276 1.467738,-3.291722 0.190472,-0.479861 0.356237,-0.969164 0.534356,-1.453747 0.210573,-0.66888 0.406426,-1.199055 0.532384,-1.873051 0.02737,-0.146433 0.192798,-0.4524868 0.04403,-0.4447295 -0.339147,0.017685 -0.753812,0.1796165 -0.89378,0.4890395 -0.130131,0.287677 0.168015,0.608807 0.260625,0.91066 0.137563,0.448375 0.28654,0.893169 0.42981,1.339755 0.777563,2.332467 1.524767,4.713632 2.812245,6.827344 0.13552,0.222488 0.291255,0.432015 0.436882,0.648023 0.01541,0.02528 0.728742,0.955518 0.907863,0.743262 0.612448,-0.725741 0.473624,-0.761362 0.142664,-1.116551 -0.484855,-0.5147 -1.21275,0.170989 -0.727896,0.685688 v 0 c 0.370614,0.387445 -0.104394,-0.0207 0.629692,-0.568148 0.159721,-0.119112 0.436439,0.331819 0.151245,0.02311 -0.09691,-0.104905 -0.18371,-0.21872 -0.275565,-0.32808 -0.131478,-0.193186 -0.272408,-0.380269 -0.394436,-0.57956 -1.256838,-2.052612 -1.970518,-4.37483 -2.730546,-6.640722 -0.140289,-0.436781 -0.285655,-0.871963 -0.420865,-1.310342 -0.08666,-0.28097 -0.02763,-0.649121 -0.244676,-0.847478 -0.280208,-0.2560826 -0.700498,-0.3413671 -1.079498,-0.3626838 -0.100347,-0.00564 -0.0026,0.2019568 -0.02084,0.3007958 -0.117772,0.638555 -0.297467,1.11963 -0.498071,1.75902 -0.172228,0.469659 -0.332341,0.943938 -0.516684,1.408975 -0.472871,1.192897 -0.886937,2.07882 -1.443618,3.238991 -0.372511,0.776344 -0.836511,1.711093 -1.255214,2.48501 -0.09009,0.166513 -0.1900559,0.327487 -0.285084,0.49123 -0.4342053,0.558091 0.355054,1.172151 0.78926,0.614059 z" />
    <path
       style="fill:#ff2a2a;stroke-width:0.264583"
       id="path205"
       d="m 12.276576,17.540919 c 0.678795,-0.07648 1.363328,-0.09364 2.045627,-0.110831 0.419532,-0.01057 1.133687,-0.02786 1.568619,-0.0046 0.171104,0.0091 0.340733,0.03663 0.5111,0.05494 0.07223,0.02353 0.144452,0.04705 0.216677,0.07058 0.679467,0.195768 0.956325,-0.765143 0.276858,-0.960911 v 0 c -0.130145,-0.03478 -0.26029,-0.06956 -0.390435,-0.10434 -0.1998,-0.02005 -0.398872,-0.04964 -0.5994,-0.06016 -0.446053,-0.02341 -1.182566,-0.006 -1.615519,0.005 -0.476924,0.01212 -1.172423,0.03421 -1.65607,0.07097 -0.184978,0.01406 -0.36895,0.03916 -0.553426,0.05874 -0.693396,0.138571 -0.497427,1.119181 0.195969,0.98061 z" />
    <path
       style="fill:#ff2a2a;stroke-width:0.264583"
       id="path207"
       d="m 21.912395,15.679568 c 1.791939,0.02238 3.578071,-0.125025 5.356071,-0.33258 0.8997,-0.143505 1.812779,-0.140461 2.717054,-0.235722 0.255008,-0.02686 0.517887,-0.06809 0.7722,-0.105794 0.230565,-0.02919 0.461906,-0.07867 0.695197,-0.07041 -0.154635,-0.186513 -0.309274,-0.373026 -0.463909,-0.559538 -0.140621,0.692983 0.839404,0.891851 0.980024,0.198868 v 0 C 31.819635,14.36205 31.670241,14.14971 31.520844,13.93737 c -0.305567,-0.01629 -0.608626,0.03536 -0.91005,0.07895 -0.216152,0.03217 -0.498274,0.07609 -0.710891,0.09861 -0.914312,0.09685 -1.837795,0.09328 -2.747507,0.238809 -1.739437,0.203492 -3.486861,0.348046 -5.240001,0.325821 -0.707107,0 -0.707107,1 0,1 z" />
    <path
       style="fill:#ff2a2a;stroke-width:0.264583"
       id="path209"
       d="m 30.635829,13.52137 c 0.522155,0.181816 1.058844,0.318666 1.583377,0.492795 0.312068,0.103597 0.730806,0.240932 1.016059,0.429351 0.07366,0.04866 0.124282,0.125417 0.186422,0.188125 -0.06673,-0.02663 -0.12914,-0.0905 -0.200205,-0.07988 -0.0954,0.01425 -0.169992,0.09203 -0.249248,0.147012 -0.193489,0.13423 -0.373909,0.286744 -0.568076,0.419991 -0.46038,0.315936 -0.772951,0.531245 -1.28407,0.719647 -0.111472,0.04109 -0.231881,0.05186 -0.347822,0.0778 -0.685916,0.17181 -0.442941,1.141842 0.242975,0.970033 v 0 c 0.175705,-0.04712 0.35733,-0.07604 0.527111,-0.141357 0.549325,-0.211341 0.987076,-0.488369 1.468051,-0.830842 0.369814,-0.263321 1.082598,-0.755232 1.206098,-1.262597 0.06142,-0.252326 -0.08752,-0.511962 -0.131273,-0.767943 -0.134239,-0.111466 -0.255545,-0.24067 -0.40272,-0.334397 -0.169322,-0.107831 -0.355131,-0.18845 -0.540239,-0.266122 -0.700416,-0.293893 -1.450504,-0.447689 -2.164776,-0.701434 -0.664557,-0.241592 -1.006218,0.698231 -0.341664,0.939823 z" />
    <path
       style="fill:#ff2a2a;stroke-width:0.264583"
       id="path244"
       d="m 28.749379,6.965063 c -0.03793,-0.1219814 -0.06271,-0.2488628 -0.113806,-0.3659446 -0.249417,-0.5715556 -0.71206,-0.9716167 -1.3902,-0.5915068 -0.535625,0.3002286 -0.792499,1.1270025 -1.010223,1.6091919 -0.438907,1.2821203 -0.701127,2.6169975 -0.899762,3.9549885 -0.135262,0.763161 -0.164048,1.539824 -0.274764,2.305954 -0.0357,0.247015 -0.0928,0.49046 -0.139204,0.73569 -0.26319,0.497939 -0.09329,0.320664 -0.448839,0.584106 -0.515304,0.484212 0.169475,1.212963 0.684779,0.728751 v 0 c 0.614433,-0.640361 0.357633,-0.269421 0.746956,-1.128693 0.05001,-0.269319 0.110751,-0.536866 0.150028,-0.807959 0.1083,-0.747501 0.136555,-1.5053 0.266881,-2.250145 0.185773,-1.258341 0.429832,-2.5140436 0.830721,-3.7233363 0.105468,-0.2539089 0.206129,-0.5098692 0.316405,-0.7617272 0.04801,-0.1096491 0.148968,-0.2030055 0.15826,-0.3223437 0.0052,-0.066359 -0.101187,-0.095398 -0.120782,-0.1590088 -0.0071,-0.022971 0.04008,-0.056123 0.05906,-0.041371 0.101907,0.079231 0.155575,0.2749627 0.196141,0.3855448 0.107616,0.6988698 1.095967,0.5466786 0.988351,-0.1521913 z" />
    <path
       style="fill:#ff2a2a;stroke-width:0.264583"
       id="path246"
       d="m 24.848388,11.691865 c 0.696371,-0.325857 1.429943,-0.608763 2.200794,-0.688091 0.114258,-0.01176 0.229582,-0.0081 0.344374,-0.01208 0.289732,0.01924 0.160903,0.0081 0.386733,0.03045 0.70385,0.0678 0.79974,-0.927587 0.09589,-0.995391 v 0 c -0.299189,-0.02817 -0.123632,-0.01447 -0.527167,-0.034061 -0.152707,0.0079 -0.306176,0.00654 -0.458121,0.023699 -0.910831,0.102852 -1.784499,0.43172 -2.597121,0.843378 -0.588387,0.392173 -0.03377,1.224279 0.554617,0.832106 z" />
    <path
       style="fill:#ff2a2a;stroke-width:0.264583"
       id="path248"
       d="m 37.977336,10.817734 c 0.02551,0.196314 0.0615,0.391548 0.0765,0.588942 0.114171,1.502466 0.01693,3.005139 -0.105732,4.503869 -0.09311,1.137584 -0.2056,2.109696 -0.328055,3.234454 -0.03837,0.363896 -0.151032,1.211313 -0.134479,1.659117 0.0038,0.102899 0.0384,0.202327 0.0576,0.30349 0.179948,0.683827 1.147027,0.429341 0.967078,-0.254485 v 0 c -0.486034,-0.226456 0.850903,-1.597716 0.103929,-1.599923 0.184436,-1.695059 0.376084,-3.391254 0.455335,-5.09547 0.05053,-1.086709 0.06419,-1.833734 -0.02487,-2.886362 -0.02019,-0.238611 -0.06737,-0.474165 -0.101061,-0.711248 -0.18216,-0.6832398 -1.148408,-0.425624 -0.966247,0.257616 z" />
    <path
       style="fill:#ff2a2a;stroke-width:0.264583"
       id="path250"
       d="m 39.298901,10.990061 c 0.326408,-0.15676 0.433919,-0.249656 0.828079,-0.244927 0.589574,0.0071 1.334847,0.373626 1.767724,0.752883 0.171728,0.150456 0.297251,0.346626 0.445878,0.519939 0.07529,0.188531 0.190826,0.365632 0.225875,0.565592 0.114716,0.654412 -0.268607,1.284035 -0.674452,1.752933 -0.269846,0.311767 -0.511225,0.479349 -0.825203,0.723714 -0.375965,0.273057 -0.555676,0.312463 0.30961,1.008031 0.121494,0.09767 0.298577,-0.09234 0.451979,-0.120053 0.187635,-0.03389 0.377788,-0.06928 0.568394,-0.06425 0.635252,0.01676 0.611524,0.09115 1.128205,0.404658 0.255749,0.381187 0.476567,0.587832 0.475519,1.083504 -7.93e-4,0.369934 -0.249568,0.821505 -0.517427,1.057675 -0.486944,0.429339 -0.847968,0.419722 -1.471006,0.562323 -1.013111,-0.01064 -1.003046,0.04603 -1.984881,-0.18547 -0.269822,-0.06362 -0.530563,-0.160953 -0.795848,-0.241429 -0.677532,-0.202361 -0.963713,0.755814 -0.286181,0.958175 v 0 c 0.304091,0.08958 0.602843,0.199822 0.912273,0.26874 1.188201,0.264642 1.16341,0.188972 2.408854,0.167131 0.924951,-0.266282 1.379995,-0.253413 2.058162,-0.989015 0.71887,-0.77975 0.846587,-1.885599 0.320164,-2.803055 -0.165777,-0.288918 -0.432168,-0.507007 -0.64825,-0.76051 -0.284221,-0.139637 -0.549304,-0.328051 -0.85266,-0.41891 -0.542626,-0.162523 -1.03854,-0.101239 -1.575961,-0.005 -0.124847,0.02236 -0.355386,-0.02531 -0.366845,0.10101 -0.02878,0.317299 0.10346,0.64679 0.274637,0.915501 0.0467,0.07332 0.140362,-0.102589 0.210543,-0.153884 0.151151,-0.120505 0.310832,-0.231028 0.453453,-0.361517 0.685874,-0.627515 1.284563,-1.375464 1.402863,-2.337905 0.107892,-0.877755 -0.102775,-1.053496 -0.459457,-1.797989 -0.215553,-0.230196 -0.403857,-0.48934 -0.64666,-0.690587 -0.235741,-0.195398 -0.502938,-0.35351 -0.777224,-0.489612 -0.562827,-0.2792787 -1.094893,-0.4393916 -1.728126,-0.4032153 -0.599077,0.034225 -0.771387,0.18538 -1.256676,0.4446123 -0.552188,0.441691 0.07246,1.222599 0.624645,0.780908 z" />
    <path
       style="fill:#ff2a2a;stroke-width:0.264583"
       id="path252"
       d="m 10.415658,37.017282 c 0.129676,-0.175339 0.269658,-0.343506 0.389027,-0.526021 0.413335,-0.631978 0.708751,-1.208264 1.013775,-1.909812 0.337535,-0.776325 0.626724,-1.571644 0.811678,-2.399462 0.07946,-0.355639 0.111898,-0.720177 0.167847,-1.080264 -0.149027,0.02299 0.199328,-1.314831 -0.25938,-1.357514 -1.297942,-0.120769 -1.327889,0.808951 -1.580976,1.728878 -0.387045,1.406842 -0.533008,2.499984 -0.782429,3.955523 -0.102073,0.754666 -0.2041465,1.509334 -0.3062201,2.264 -0.08617,0.731105 -0.1637234,1.463278 -0.2585114,2.193316 -0.085694,0.660001 -0.1611339,1.322171 -0.2828933,1.97648 -0.1772637,0.952577 -0.4326123,2.006127 -0.8794927,2.883641 -0.1397328,0.274384 -0.3516987,0.505526 -0.5275482,0.758291 -0.3960667,0.585774 0.4323426,1.145897 0.8284093,0.560122 v 0 c 0.2102036,-0.318201 0.4602734,-0.613394 0.6306103,-0.9546 0.47259,-0.946658 0.7474071,-2.080345 0.9379441,-3.105846 0.123085,-0.662467 0.19933,-1.332873 0.2861,-2.001068 0.09407,-0.72441 0.170918,-1.450956 0.256376,-2.176433 0.100307,-0.743117 0.200613,-1.486233 0.300919,-2.22935 0.303492,-1.778651 0.328354,-2.155449 0.749684,-3.820943 0.0898,-0.354984 0.363521,-0.691465 0.31034,-1.053746 -0.03368,-0.229409 -0.365441,-0.287004 -0.530988,-0.449352 -0.02354,-0.02307 0.06413,0.01532 0.0962,0.02297 0.0077,0.218546 0.01545,0.437089 0.02317,0.655635 -0.04713,0.319357 -0.07238,0.642723 -0.141405,0.958077 -0.170523,0.779076 -0.435741,1.507752 -0.750948,2.238896 -0.327381,0.759383 -0.710287,1.498857 -1.2082795,2.161363 -0.5000816,0.49992 0.20691,1.20714 0.7069915,0.707223 z" />
    <path
       style="fill:#ff2a2a;stroke-width:0.264583"
       id="path254"
       d="m 9.2593789,39.363462 c 0.9205871,-0.437034 1.8924931,-0.757166 2.8909471,-0.959546 0.535286,-0.108498 0.701512,-0.118026 1.20549,-0.175157 0.105598,-0.01077 0.211196,-0.02151 0.316793,-0.03227 0.703458,-0.07174 0.601995,-1.066583 -0.101462,-0.994839 v 0 c -0.109796,0.01122 -0.219592,0.02244 -0.329388,0.03363 -0.548222,0.06366 -0.740224,0.07569 -1.318873,0.194842 -1.081751,0.222753 -2.1352454,0.571158 -3.1312455,1.04947 -0.6249884,0.330739 -0.1572501,1.214606 0.4677384,0.883867 z" />
    <path
       style="fill:#ff2a2a;stroke-width:0.264583"
       id="path256"
       d="m 17.054281,31.93207 c -0.02165,0.208677 -0.05666,0.41592 -0.01946,0.626695 0.07446,0.421854 0.289064,0.769704 0.719021,0.903578 0.116755,0.03635 0.244202,0.01336 0.366303,0.02006 0.119472,-0.05296 0.263193,-0.06937 0.358417,-0.158875 0.11247,-0.105709 0.198381,-0.24902 0.235073,-0.398946 0.08914,-0.364223 -0.170719,-0.802413 -0.523972,-0.90976 -0.12475,-0.03791 -0.260758,0.0019 -0.391137,0.0028 -0.687141,0.166849 -0.451181,1.138611 0.235959,0.971762 v 0 c -0.21024,-0.04293 -0.21382,-0.0011 -0.335781,-0.18596 -0.0069,-0.0104 0.0069,-0.024 0.01099,-0.03576 0.0603,-0.172529 0.143545,-0.300386 0.348123,-0.28326 0.03185,0.02962 0.08844,0.07138 0.07962,0.124981 -0.0027,0.01638 -0.03627,-7.94e-4 -0.04828,-0.01236 -0.02484,-0.02373 -0.0471,-0.05353 -0.05552,-0.08684 -0.03007,-0.11893 -0.0084,-0.263009 0.0012,-0.381717 0.138832,-0.693343 -0.841705,-0.88968 -0.980536,-0.196336 z" />
    <path
       style="fill:#ff2a2a;stroke-width:0.264583"
       id="path258"
       d="m 18.756738,38.857676 c 0.04647,-0.409096 0.06604,-1.065646 -0.179246,-1.419757 -0.07578,-0.109402 -0.153556,-0.260701 -0.285341,-0.279257 -0.24113,-0.03395 -0.478238,0.09205 -0.717356,0.138078 -0.06408,0.152935 -0.157656,0.296633 -0.192246,0.458801 -0.101412,0.47544 0.261552,1.213525 0.805582,1.229551 0.168913,0.005 0.327252,-0.08445 0.490878,-0.126672 0.09035,-0.119997 0.223191,-0.21761 0.271051,-0.359987 0.09248,-0.275127 0.02077,-0.607224 -0.13951,-0.840198 -0.0721,-0.104796 -0.148914,-0.236302 -0.272258,-0.267393 -0.215905,-0.05442 -0.461398,-0.05423 -0.667277,0.03057 -0.136842,0.05636 -0.178276,0.236281 -0.267415,0.35442 -0.318794,0.631167 0.57381,1.082009 0.892604,0.450842 v 0 c -0.232478,0.111133 -0.15465,0.103201 -0.566329,-0.04221 -0.01984,-0.007 -0.02448,-0.05377 -0.0055,-0.0629 0.01973,-0.0095 0.0317,0.05005 0.05153,0.04075 0.08078,-0.03786 0.06564,-0.202645 0.205584,-0.171342 0.07815,0.0068 0.159982,-0.0043 0.234447,0.0204 0.03881,0.01286 0.06751,0.130595 0.0282,0.119356 -0.02772,-0.0079 -0.04098,-0.04172 -0.05438,-0.06725 -0.01532,-0.02917 0.0017,-0.08628 -0.03033,-0.09408 -0.03938,-0.0096 -0.07011,0.04071 -0.105169,0.06106 -0.162552,-0.01341 -0.556649,0.104908 -0.583816,-0.171555 -0.0034,-0.03496 0.04703,0.05459 0.05809,0.08793 0.07608,0.229161 0.06915,0.477946 0.04768,0.714505 -0.138831,0.693343 0.841705,0.88968 0.980537,0.196336 z" />
    <path
       style="fill:#ff2a2a;stroke-width:0.264583"
       id="path260"
       d="m 23.632935,38.233783 c 0.91928,-1.602065 1.673856,-3.30378 2.161811,-5.088625 0.365783,-1.337958 0.389459,-1.781241 0.57717,-3.104692 -1.320863,0.562512 0.638499,-1.450099 0.140569,-1.492628 -0.299319,-0.02556 -0.661684,0.122261 -0.817657,0.379005 -0.123619,0.203485 0.108382,0.463695 0.165255,0.694896 0.329493,1.339448 0.330406,1.313654 0.710052,2.740745 0.396502,1.392155 0.850765,2.769967 1.400202,4.109836 0.236053,0.575643 0.496789,1.126532 0.822431,1.655246 0.404362,0.346906 0.334256,0.420908 1.000704,-0.26888 0.06704,-0.06939 -0.01201,-0.192595 -0.01799,-0.288893 -0.07276,-0.703352 -1.067453,-0.600453 -0.99469,0.102899 v 0 c 0.0064,0.02381 -0.0046,0.07788 0.01929,0.07146 0.842701,-0.227274 0.55658,-0.491066 0.841872,-0.144722 -0.296867,-0.471323 -0.52714,-0.972232 -0.738928,-1.487855 -0.5364,-1.305938 -0.97953,-2.649109 -1.366483,-4.006207 -0.13231,-0.497213 -0.264618,-0.994428 -0.396928,-1.491641 -0.104177,-0.415618 -0.203007,-0.832615 -0.312531,-1.246857 -0.08308,-0.31423 -0.0021,-0.747422 -0.265223,-0.938324 -1.07461,-0.779843 -1.060538,0.01513 -1.10474,0.485945 -0.03083,0.32839 -0.05028,0.657748 -0.07542,0.986623 -0.173943,1.24638 -0.197259,1.677855 -0.538839,2.937679 -0.462235,1.704822 -1.181291,3.329443 -2.055219,4.860732 -0.37778,0.597731 0.46754,1.131993 0.845319,0.534262 z" />
    <path
       style="fill:#ff2a2a;stroke-width:0.264583"
       id="path262"
       d="m 24.543578,36.470378 c 1.136778,-0.541965 2.263386,-1.192908 3.522765,-1.404782 0.156584,-0.02635 0.316638,-0.02434 0.474954,-0.0365 0.277122,0.02297 0.246917,-0.06492 0.276069,0.03887 0.675203,0.21001 0.972198,-0.744871 0.296997,-0.954879 v 0 c -0.376015,-0.0935 -0.157382,-0.05556 -0.66086,-0.08013 -0.206404,0.01998 -0.41502,0.02379 -0.619218,0.05994 -1.313156,0.232396 -2.500095,0.88053 -3.684378,1.458229 -0.650009,0.278369 -0.256337,1.197621 0.393671,0.919253 z" />
    <path
       style="fill:#ff2a2a;stroke-width:0.264583"
       id="path264"
       d="m 33.572444,32.913992 c 1.456648,-0.207 2.928467,-0.274651 4.39225,-0.414251 0.937916,-0.08945 1.976528,-0.208631 2.915476,-0.313184 0.510312,-0.05652 1.31826,-0.143807 1.866632,-0.211069 0.125514,-0.0154 0.25217,-0.02482 0.375976,-0.05057 0.07389,-0.01537 0.20247,0.0024 0.21458,-0.07222 0.05056,-0.311017 -0.03291,-0.629343 -0.04937,-0.944015 -0.633614,-0.313906 -1.077542,0.582158 -0.443931,0.896062 v 0 c 0.03281,-0.290264 0.0504,-0.582655 0.09844,-0.870789 0.0026,-0.01537 0.06217,-0.0024 0.04676,-8.9e-5 -0.736208,0.114048 -1.481732,0.160461 -2.219769,0.258831 -0.92124,0.1026 -1.97145,0.223044 -2.891118,0.310774 -1.492173,0.142349 -2.992737,0.210426 -4.477195,0.425291 -0.696658,0.121103 -0.525396,1.106326 0.171265,0.985227 z" />
    <path
       style="fill:#ff2a2a;stroke-width:0.264583"
       id="path266"
       d="m 41.821451,30.07111 c 0.850879,0.30775 1.654234,0.763331 2.35638,1.335296 0.158789,0.12935 0.314645,0.264335 0.451614,0.416603 0.07831,0.08706 0.126214,0.197278 0.18932,0.29592 -0.04983,-0.02809 -0.09344,-0.07289 -0.1495,-0.08427 -0.332266,-0.06749 -0.62892,0.165852 -0.915763,0.275482 -0.243795,0.09318 -0.492286,0.173569 -0.738431,0.260355 -0.666562,0.23599 -0.332822,1.178655 0.333743,0.942663 v 0 c 0.342826,-0.121838 1.306055,-0.442897 1.609133,-0.638606 0.256987,-0.165947 0.544528,-0.339125 0.684768,-0.610992 0.109034,-0.211376 -0.0011,-0.475679 -0.0016,-0.713518 -0.112421,-0.155112 -0.207692,-0.324239 -0.337267,-0.465338 -0.163118,-0.177623 -0.348319,-0.334511 -0.536157,-0.485752 -0.652716,-0.525552 -1.389599,-0.966237 -2.159246,-1.297593 -0.189055,-0.08139 -0.387411,-0.139208 -0.581117,-0.208812 -0.691949,-0.145621 -0.89789,0.832946 -0.205939,0.978567 z" />
    <path
       style="fill:#ff2a2a;stroke-width:0.264583"
       id="path268"
       d="m 49.700428,27.178796 c 0.01588,0.225108 0.0447,0.449678 0.04765,0.675328 0.01564,1.195263 -0.05615,2.099289 -0.158944,3.326196 -0.174043,2.077191 -0.410188,4.149907 -0.639968,6.221471 -0.198753,1.735841 -0.08132,0.784082 -0.25967,2.129927 -0.06221,0.469456 -0.05027,0.286052 -0.06105,0.602142 -0.01154,0.707011 0.988319,0.723341 0.999868,0.01632 v 0 c -0.0065,-0.206597 -0.0052,-0.05142 0.05235,-0.485907 0.180211,-1.36116 0.06372,-0.416952 0.262398,-2.152253 0.231238,-2.084967 0.469606,-4.171177 0.643626,-6.261904 0.102515,-1.231683 0.183366,-2.256335 0.158501,-3.471831 -0.0055,-0.266078 -0.04282,-0.530543 -0.06423,-0.795811 -0.138816,-0.693348 -1.119357,-0.497036 -0.980543,0.196313 z" />
    <path
       style="fill:#ff2a2a;stroke-width:0.264583"
       id="path270"
       d="m 50.067582,30.774073 c 0.328396,-0.628449 0.729062,-1.504151 1.552964,-1.5577 0.416134,-0.02705 0.630103,0.161264 0.980557,0.351206 0.156961,0.155853 0.338259,0.290533 0.470881,0.467558 0.413242,0.551588 0.575244,1.253845 0.426379,1.928347 -0.08983,0.407027 -0.252291,0.587856 -0.473207,0.916228 -0.363204,0.520158 -0.552694,0.838102 0.11331,1.356392 0.160825,0.125153 0.393764,0.105346 0.589241,0.162938 0.728212,0.214546 0.447794,0.09922 1.092821,0.510255 0.286494,0.350096 0.569487,0.589078 0.620461,1.074324 0.07551,0.718863 -0.601887,1.373116 -1.195691,1.628153 -0.343549,0.147553 -0.723472,0.189162 -1.085205,0.283745 -0.420986,0.0072 -0.844169,0.06521 -1.262957,0.02167 -0.701831,-0.07298 -1.401564,-0.304046 -1.983134,-0.709525 -0.467759,-0.326131 -0.454697,-0.280299 -0.276566,-0.481454 -0.115162,-0.697667 -1.101812,-0.534802 -0.98665,0.162864 v 0 c 0.06677,0.212013 0.0765,0.451429 0.200298,0.63604 0.155879,0.232455 0.377579,0.42187 0.611836,0.575029 0.726027,0.474689 1.603835,0.747237 2.46413,0.8166 0.503375,0.04058 1.009187,-0.04095 1.513779,-0.06143 0.46885,-0.148365 0.969836,-0.219009 1.406547,-0.445092 1.04608,-0.54155 1.748012,-1.617192 1.514477,-2.816471 -0.14252,-0.731896 -0.550868,-1.029238 -1.024091,-1.540288 -0.754417,-0.438526 -0.606652,-0.426757 -1.380932,-0.627806 -0.09945,-0.02582 -0.240059,-0.127429 -0.304564,-0.04745 -0.08211,0.101798 0.03219,0.260733 0.02712,0.391424 -5.29e-4,0.01431 -0.02797,-0.0061 -0.04196,-0.0092 0.07731,-0.114919 0.154628,-0.229838 0.231939,-0.344758 0.324112,-0.531458 0.520272,-0.749548 0.627865,-1.404765 0.158406,-0.964676 -0.11498,-1.961975 -0.746324,-2.710016 -0.207891,-0.246319 -0.483838,-0.425992 -0.725757,-0.63899 -0.708745,-0.301159 -0.956141,-0.533561 -1.752547,-0.383085 -1.08022,0.204102 -1.67395,1.184759 -2.116932,2.084814 -0.290197,0.644813 0.621708,1.055216 0.911905,0.410403 z" />
    <path
       style="fill:#ff0000;stroke-width:0.264583"
       id="path568"
       d="M 100.25171,10.265076 C 99.830021,9.9932375 99.432379,9.6798542 98.986638,9.4495616 98.294916,9.0921828 97.589296,8.7496093 96.849389,8.5072592 95.905009,8.1979359 94.938851,7.9262451 93.953046,7.8008527 91.665207,7.5098446 89.274678,7.6496848 87.092892,8.4651174 c -1.138047,0.4253392 -2.133481,1.1629768 -3.20022,1.7444656 -0.840539,0.819496 -1.814811,1.521202 -2.521617,2.458489 -3.016697,4.000421 -3.267077,9.641979 -1.120825,14.086952 0.546259,1.131321 1.383321,2.097516 2.074984,3.146271 0.923896,0.826177 1.740104,1.791525 2.771693,2.478529 4.770464,3.176971 11.127994,3.140745 16.325903,1.096561 1.36544,-0.536991 2.59149,-1.376723 3.88723,-2.065084 0.97987,-0.944618 2.14051,-1.732081 2.93959,-2.833857 0.72459,-0.999061 1.29796,-2.153448 1.55329,-3.36091 0.53887,-2.548347 -0.23283,-4.975291 -1.65298,-7.071887 C 106.2575,15.350804 104.32219,14.364806 101.6163,12.44653 98.466004,10.860552 96.974915,9.8634768 93.550665,9.0648162 92.41442,8.7998026 91.233515,8.7892447 90.074939,8.6514592 89.372534,8.5700504 89.257406,9.5634007 89.959809,9.6448096 v 0 c 1.092036,0.12306 2.205159,0.1226793 3.276102,0.3691804 3.30604,0.760958 4.760293,1.726802 7.803959,3.249686 2.57267,1.805396 4.37282,2.713382 6.2059,5.308151 2.07669,2.9396 2.45918,6.248601 0.30638,9.289017 -0.73314,1.035429 -1.80919,1.779125 -2.71379,2.668688 -1.22615,0.660675 -2.38502,1.465305 -3.67843,1.982023 -4.869428,1.945333 -10.885542,2.064065 -15.39976,-0.880115 -0.966925,-0.630632 -1.735167,-1.523074 -2.602751,-2.284611 -0.652748,-0.969084 -1.440178,-1.859965 -1.958248,-2.907254 -2.019001,-4.081457 -1.871154,-9.330197 0.873737,-13.059179 0.642577,-0.872953 1.535543,-1.530331 2.303314,-2.295497 0.977413,-0.547764 1.886365,-1.2413807 2.932237,-1.6432926 2.031849,-0.7808079 4.270684,-0.9278104 6.410155,-0.6686211 0.928593,0.1124958 1.839172,0.3642963 2.729744,0.6503389 0.691827,0.2222077 1.351391,0.5398124 1.999382,0.8686078 0.404574,0.205285 0.766196,0.486036 1.149294,0.729054 0.534516,0.462925 1.189186,-0.292985 0.654676,-0.75591 z" />
    <path
       style="fill:#ff0000;stroke-width:0.264583"
       id="path570"
       d="m 88.940398,48.96322 c 1.744708,-2.253647 3.108034,-4.760794 4.199128,-7.38868 0.300284,-0.723226 0.543221,-1.469039 0.828024,-2.1985 0.190929,-0.489027 0.399344,-0.971042 0.599017,-1.456563 0.104502,-0.05186 0.302908,-0.271762 0.31351,-0.15558 0.02074,0.227237 -0.291661,0.401732 -0.270314,0.628914 0.04889,0.520346 0.314134,0.996956 0.469945,1.495825 0.603583,1.932535 1.210103,3.860458 1.862068,5.777285 0.503653,1.578367 0.301136,0.864664 0.633677,2.133521 0.179801,0.683863 1.146932,0.429588 0.967132,-0.254278 v 0 c -0.349306,-1.324568 -0.139213,-0.588489 -0.65409,-2.201307 -0.709673,-2.085753 -0.527314,-1.512189 -1.232196,-3.752805 -0.210574,-0.669351 -0.411014,-1.341884 -0.625107,-2.010116 -0.305882,-0.954723 -0.435729,-2.365251 -1.760189,-2.610152 -0.277981,-0.0514 -0.419557,0.378987 -0.629337,0.568481 -0.203365,0.494906 -0.415645,0.98624 -0.610093,1.484718 -0.276878,0.709784 -0.512286,1.435724 -0.803727,2.139656 -1.052134,2.54127 -2.36551,4.966129 -4.046646,7.148719 -0.460227,0.536834 0.298969,1.187696 0.759198,0.650862 z" />
    <path
       style="fill:#ff0000;stroke-width:0.264583"
       id="path572"
       d="m 90.497513,46.111212 c 1.231517,-0.758597 2.646725,-1.200081 4.099505,-1.216927 0.337836,-0.0039 0.672978,0.06078 1.009467,0.09116 0.704734,0.0579 0.786622,-0.938736 0.08189,-0.996643 v 0 c -0.396827,-0.02987 -0.792625,-0.09821 -1.190482,-0.0896 -1.661861,0.03596 -3.279838,0.555469 -4.664543,1.464413 -0.528627,0.469633 0.135535,1.217224 0.664162,0.747588 z" />
    <path
       style="fill:#ff0000;stroke-width:0.264583"
       id="path578"
       d="m 108.17492,12.461839 c 0.26109,-0.229175 0.49819,-0.488985 0.78327,-0.687524 2.79792,-1.948568 6.55896,-3.0192918 9.94996,-3.0174579 1.02096,5.556e-4 2.03254,0.1956133 3.04881,0.2934202 2.48448,0.4792409 4.77509,1.4796077 6.94392,2.7538007 0.65547,0.385088 1.50118,0.9449 2.10106,1.466357 0.12359,0.107431 0.22205,0.240735 0.33308,0.361103 -0.0188,0.140807 -0.003,0.105553 -0.0655,-0.09612 -0.20249,0.677494 0.75563,0.963854 0.95812,0.28636 v 0 c 0.0419,-0.617082 0.0988,-0.325059 -0.16571,-0.877 -0.14888,-0.154721 -0.28416,-0.323784 -0.44663,-0.464165 -0.63337,-0.547264 -1.54668,-1.151459 -2.23698,-1.555215 -2.28867,-1.3386378 -4.70683,-2.3799741 -7.32841,-2.8707963 -1.07887,-0.097746 -2.15333,-0.2975586 -3.23661,-0.2932382 -3.58433,0.014295 -7.58678,1.1663878 -10.52037,3.2663515 -0.33013,0.236324 -0.60277,0.544077 -0.90416,0.816115 -0.437,0.555909 0.34917,1.173914 0.78617,0.618006 z" />
    <path
       style="fill:#ff0000;stroke-width:0.264583"
       id="path580"
       d="m 131.05944,10.369387 c 0.20391,0.08241 0.41559,0.147726 0.61173,0.247232 1.06181,0.538696 2.23891,1.498483 2.59046,2.688024 0.0554,0.187486 0.0164,0.390662 0.0245,0.585993 -0.11355,0.06165 -0.21879,0.142012 -0.34066,0.184948 -0.59838,0.210823 -1.5182,0.356029 -2.0904,0.46202 -2.03853,0.377609 -0.71921,0.104691 -2.58443,0.511789 -0.6908,0.150969 -0.4773,1.127912 0.2135,0.976943 v 0 c 2.10766,-0.461228 0.18198,-0.05461 2.56228,-0.50721 0.70864,-0.134744 2.05487,-0.313638 2.67259,-0.809791 0.27957,-0.224555 0.37484,-0.611426 0.56227,-0.917138 -0.042,-0.312126 -0.0272,-0.637367 -0.12606,-0.936377 -0.46583,-1.408369 -1.8289,-2.53315 -3.11385,-3.1681405 -0.23084,-0.1140759 -0.47917,-0.1886882 -0.71875,-0.2830325 -0.68218,-0.1861135 -0.94538,0.778627 -0.26321,0.96474 z" />
    <path
       style="fill:#ff0000;stroke-width:0.264583"
       id="path586"
       d="m 122.68182,-2.1041634 c -0.34847,-0.5160756 -0.60741,-1.1599805 -1.12372,-1.5449789 -0.18565,-0.1384361 -0.39234,-0.315396 -0.62374,-0.3059935 -1.03677,0.042129 -1.17558,0.6373955 -1.69854,1.3770779 -1.17946,2.57873210595 -1.22471,5.4334711 -1.58952,8.193266 -0.0502,0.3798924 -0.12086,0.7568038 -0.18129,1.1352059 -0.15864,0.5198517 -0.13533,0.7720745 -0.51235,1.1171862 -0.0625,0.057212 -0.15281,0.073278 -0.22921,0.1099171 -0.58962,0.3903224 -0.0376,1.224167 0.552,0.833845 v 0 c 0.16555,-0.1235311 0.35819,-0.2173047 0.49664,-0.3705926 0.47799,-0.5292056 0.47921,-0.8484651 0.68048,-1.5331295 0.0625,-0.3939423 0.13531,-0.786394 0.18759,-1.1818273 0.34464,-2.6067107 0.38702,-5.2995927 1.43321,-7.7575166 0.13492,-0.2349354 0.28767,-0.460498 0.40477,-0.7048063 0.0438,-0.091283 -0.0107,-0.2392685 0.0742,-0.2944765 0.0795,-0.05171 0.19858,0.012369 0.27662,0.066204 0.46291,0.3192949 0.66788,0.9053193 0.97873,1.3462939 0.34343,0.6181099 1.21757,0.1324347 0.87414,-0.4856751 z" />
    <path
       style="fill:#ff0000;stroke-width:0.264583"
       id="path588"
       d="m 117.24762,3.6471751 c 1.5859,-0.036754 3.16808,0.1248765 4.74663,0.2561169 0.70468,0.058582 0.78752,-0.9379799 0.0829,-0.9965621 v 0 c -1.63358,-0.1357947 -3.27134,-0.3033263 -4.91255,-0.2560984 -0.70467,0.058741 -0.62159,1.0552845 0.0831,0.9965436 z" />
    <path
       style="fill:#ff0000;stroke-width:0.264583"
       id="path590"
       d="m 154.01716,13.275901 c -0.35455,-0.186631 -0.69123,-0.412075 -1.06363,-0.559893 -2.19,-0.86928 -4.58683,-1.219994 -6.93203,-0.899764 -0.93019,0.127014 -1.86207,0.326606 -2.73524,0.671526 -0.86682,0.342414 -1.62436,0.914298 -2.43654,1.371447 -0.63204,0.730536 -1.4072,1.358472 -1.89611,2.191607 -1.63837,2.791841 -1.67281,6.417192 -0.45498,9.365739 0.43681,1.057584 1.0367,2.061204 1.76292,2.945455 0.73963,0.900581 1.72484,1.567587 2.58727,2.351381 1.1064,0.477473 2.15131,1.135568 3.31921,1.432423 5.11033,1.298926 10.65771,-1.010021 13.87626,-5.058294 0.77764,-0.978113 1.25095,-2.163529 1.87642,-3.245293 0.21979,-1.165698 0.66726,-2.310883 0.65937,-3.497095 -0.0255,-3.8315 -2.52698,-7.186382 -5.85422,-8.89513 -3.00331,-1.5423877 -4.18534,-1.187635 -7.37347,-1.202007 -0.70711,0.0012 -0.70542,1.001195 0.002,0.999998 v 0 c 2.91662,-0.02463 4.0103,-0.362227 6.77619,1.005302 2.9932,1.479914 5.38028,4.479912 5.46566,7.914484 0.0267,1.074611 -0.36245,2.119114 -0.54367,3.178671 -0.56655,1.006284 -0.98986,2.107921 -1.69964,3.018853 -2.93981,3.772969 -8.04985,5.988396 -12.7953,4.859398 -1.06672,-0.253786 -2.02698,-0.836962 -3.04048,-1.255443 -0.8002,-0.708794 -1.71109,-1.309502 -2.4006,-2.126382 -2.53134,-2.998956 -3.36208,-7.624279 -1.39964,-11.145658 0.41483,-0.744368 1.0863,-1.313251 1.62945,-1.969876 0.7275,-0.423126 1.40274,-0.952751 2.18251,-1.269378 0.80477,-0.326776 1.66566,-0.518297 2.52535,-0.642254 2.17126,-0.313069 4.40015,-0.0023 6.43664,0.786663 0.33515,0.129833 0.63833,0.330522 0.9575,0.495784 0.58142,0.402419 1.15053,-0.419844 0.5691,-0.822264 z" />
    <path
       style="fill:#ff0000;stroke-width:0.264583"
       id="path592"
       d="m 147.33732,35.983605 c 0.0223,0.308293 0.0541,0.616043 0.0669,0.924875 0.0533,1.292842 0.052,2.884228 0.0684,4.146177 0.0296,2.284741 0.0894,4.562443 0.20899,6.844107 0.003,0.657807 0.102,1.352372 -0.14311,1.988801 -0.0336,0.08735 -0.12811,0.13652 -0.19216,0.204782 -0.4037,0.580536 0.4173,1.151462 0.821,0.570924 v 0 c 0.11704,-0.192149 0.2757,-0.36448 0.35111,-0.576451 0.25781,-0.724664 0.1661,-1.49348 0.16179,-2.240494 -0.11924,-2.267593 -0.17819,-4.531273 -0.20767,-6.80194 -0.0171,-1.316262 -0.0147,-2.871428 -0.071,-4.208415 -0.0135,-0.321551 -0.0469,-0.641958 -0.0704,-0.962938 -0.0782,-0.702773 -1.07205,-0.592198 -0.99387,0.110572 z" />
    <path
       style="fill:#ff0000;stroke-width:0.264583"
       id="path594"
       d="m 147.98077,39.136317 c 0.1081,-0.182732 0.19623,-0.378846 0.32428,-0.548198 0.58215,-0.769943 1.50281,-1.293551 2.49172,-1.040736 0.20383,0.05211 0.37899,0.182793 0.56849,0.27419 0.0942,0.150662 0.22924,0.28252 0.28276,0.451988 0.22621,0.716328 -0.34307,1.495044 -0.68965,2.052219 -0.7517,1.208464 -0.24461,0.230931 -0.77046,1.316705 0.0374,0.24543 -0.0284,0.531775 0.11233,0.736295 0.35193,0.511398 1.16501,0.660826 1.66972,0.880748 0.73846,0.321773 1.12561,0.467109 1.54914,1.192091 0.17052,0.29188 0.22815,0.63642 0.34222,0.95463 -0.0307,0.383095 0.004,0.777091 -0.092,1.149289 -0.25075,0.97442 -0.88232,2.036312 -1.49646,2.807115 -0.51373,0.644766 -1.22249,1.43125 -2.11335,1.581587 -0.2929,0.04943 -0.58528,-0.10182 -0.87793,-0.152728 -1.04805,-0.631799 -0.56843,-0.277321 -1.44719,-1.052071 -0.53639,-0.460735 -1.18797,0.297844 -0.65157,0.758581 v 0 c 1.15811,0.974048 0.49983,0.527167 2.00866,1.289421 0.46975,0.01807 0.95105,0.159332 1.40924,0.0542 1.03589,-0.237689 1.90199,-1.151885 2.51099,-1.934628 0.70663,-0.908233 1.42791,-2.157524 1.65672,-3.309366 0.10136,-0.510265 0.0148,-1.040366 0.0222,-1.56055 -0.18019,-0.422608 -0.28646,-0.885081 -0.54056,-1.26783 -0.5637,-0.849061 -1.06286,-1.068808 -1.93604,-1.44866 -0.4023,-0.175011 -0.79183,-0.384249 -1.22278,-0.249335 0.0723,-0.156385 0.12955,-0.32066 0.21693,-0.469149 0.40072,-0.680998 0.77909,-1.031288 1.07617,-1.798717 0.29195,-0.754203 0.43744,-1.401395 0.0452,-2.15365 -0.15565,-0.298511 -0.451,-0.499943 -0.6765,-0.749914 -0.3064,-0.117258 -0.59673,-0.291375 -0.91919,-0.351771 -1.36774,-0.256183 -2.60808,0.464886 -3.39256,1.536054 -0.14966,0.204348 -0.25313,0.438806 -0.37969,0.658209 -0.27858,0.649915 0.64053,1.043895 0.91912,0.393981 z" />
    <path
       style="fill:#ff0000;stroke-width:0.264583"
       id="path596"
       d="m 87.235677,21.599415 c 0.586573,0.09789 1.171842,0.04371 1.672455,-0.308373 0.125085,-0.08797 0.250743,-0.191817 0.321252,-0.327514 0.08086,-0.155624 0.160975,-0.34386 0.115626,-0.513274 -0.05539,-0.206935 -0.259866,-0.340635 -0.389798,-0.510953 -0.149016,-0.02791 -0.295516,-0.08852 -0.447045,-0.08373 -0.208442,0.0066 -0.538599,0.147489 -0.641337,0.352016 -0.07088,0.141103 -0.078,0.307679 -0.08964,0.465154 -0.004,0.05424 0.01405,0.202816 0.04365,0.157201 0.03348,-0.05157 -0.01818,-0.121625 -0.02727,-0.182437 -0.04308,-0.376826 0.02424,0.40664 0.03282,0.30481 0.02851,-0.338342 -0.1802,0.240718 0.105439,-0.379317 -0.580573,0.403654 -0.0097,1.224706 0.570852,0.821051 v 0 c 0.09736,-0.127636 0.224255,-0.237411 0.292084,-0.382909 0.03739,-0.0802 0.01125,-0.176789 0.01008,-0.265267 -2.64e-4,-0.02315 -0.0036,-0.08841 -0.01445,-0.06795 -0.01677,0.03162 -0.0042,0.07146 -0.0063,0.107188 -0.0049,-0.09073 -0.0099,-0.181458 -0.01479,-0.272187 -5.29e-4,0.0072 7.94e-4,0.01486 -0.0016,0.02164 -0.04821,0.130004 -0.159239,0.539085 -0.343185,0.252231 -0.05668,-0.22645 -0.170056,-0.324594 0.04364,-0.471625 0.03,-0.02064 -0.01648,0.07555 -0.04314,0.100375 -0.238987,0.222708 -0.562951,0.257833 -0.873247,0.235104 -0.67088,-0.223432 -0.986858,0.725333 -0.315981,0.948765 z" />
    <path
       style="fill:#ff0000;stroke-width:0.264583"
       id="path598"
       d="m 93.267031,21.720637 c 0.09937,-0.251711 0.311312,-1.393039 0.649087,-1.458716 0.06616,-0.01286 -0.02098,0.136954 -0.0039,0.202146 0.02888,0.110188 0.08024,0.214558 0.138745,0.312298 0.141589,0.236557 0.30647,0.458369 0.459703,0.687553 0.604578,0.947776 1.061434,1.976638 1.593956,2.963909 0.161526,0.299457 0.585708,1.135491 0.927494,1.374647 0.188537,0.131923 0.434322,0.152198 0.651481,0.228296 0.696939,0.119483 0.865913,-0.866138 0.168974,-0.98562 v 0 c -0.139462,0.240019 -0.07629,0.208603 -0.409451,-0.285047 -0.16964,-0.251357 -0.30585,-0.523859 -0.449797,-0.790764 -0.552143,-1.023792 -1.026001,-2.090804 -1.657818,-3.070792 -0.3164,-0.452478 -0.757476,-1.26692 -1.375646,-1.433344 -1.151789,-0.310085 -1.425564,1.245484 -1.648534,1.961106 -0.208121,0.675785 0.747583,0.970113 0.955704,0.294328 z" />
    <path
       style="fill:#ff0000;stroke-width:0.264583"
       id="path600"
       d="m 97.15298,19.668361 c -0.179835,0.238403 -0.375253,0.465812 -0.539499,0.715209 -0.7465,1.133514 -1.299051,2.378448 -1.875485,3.601925 -0.869723,1.845979 -0.276418,0.553742 -1.061477,2.285457 -0.117956,0.28973 -0.235913,0.579459 -0.353872,0.869188 -0.266364,0.655021 0.659974,1.031714 0.926338,0.376696 v 0 c 0.112781,-0.277683 0.22556,-0.555366 0.338341,-0.833049 0.784974,-1.732121 0.176993,-0.406926 1.056444,-2.274529 0.644901,-1.369515 1.25744,-2.776696 2.173372,-3.993308 0.528625,-0.469634 -0.135538,-1.217222 -0.664162,-0.747589 z" />
    <path
       style="fill:#ff0000;stroke-width:0.264583"
       id="path602"
       d="m 145.91352,21.524865 c 0.22132,-0.382086 0.70119,-1.408269 0.34146,-1.823212 -0.14493,-0.167177 -0.34779,-0.334742 -0.56893,-0.341911 -0.23043,-0.0075 -0.41439,0.20221 -0.62159,0.303316 -0.0881,0.159934 -0.21296,0.304552 -0.26414,0.479801 -0.17459,0.597843 0.089,1.183935 0.65313,1.446101 0.14681,0.06823 0.3162,0.104703 0.47737,0.08941 0.16969,-0.0161 0.31907,-0.120084 0.4786,-0.180125 0.0721,-0.205026 0.24605,-0.399754 0.21644,-0.615077 -0.0684,-0.497683 -0.60365,-0.593301 -0.9793,-0.612518 -0.7071,-0.0019 -0.70977,0.998111 -0.003,0.999997 v 0 c 0.20384,-0.118378 -0.36006,-0.611354 0.22876,-0.616135 0.0504,0.0094 0.11233,-0.0053 0.15116,0.02819 0.0211,0.01818 -0.0491,0.02646 -0.0745,0.03787 -0.0281,0.01262 -0.0554,0.0387 -0.0858,0.03414 -0.0993,-0.01487 -0.14406,-0.111405 -0.15261,-0.198436 -0.005,-0.04983 0.0141,-0.09914 0.0212,-0.148707 -0.0714,-0.02069 -0.15706,-0.01447 -0.21414,-0.06205 -0.0867,-0.0723 -0.14548,-0.175773 -0.1936,-0.277904 -0.008,-0.0171 0.0481,-0.04306 0.0512,-0.0244 0.0553,0.338685 -0.17009,0.667673 -0.30997,0.951587 -0.37482,0.599593 0.47314,1.129666 0.84796,0.530074 z" />
    <path
       style="fill:#ff0000;stroke-width:0.264583"
       id="path604"
       d="m 149.58745,19.282217 c 0.0168,0.202121 0.007,0.408219 0.0504,0.606362 0.15914,0.728383 0.59947,1.49371 1.46873,1.483213 0.79401,-0.0096 1.05515,-0.451775 1.56959,-0.941439 0.49698,-0.672111 0.79787,-1.424207 0.78644,-2.267473 -0.002,-0.133035 0.0616,-0.36304 -0.068,-0.393307 -1.27413,-0.297655 -1.02646,0.178506 -1.07231,0.975902 0.0931,2.042582 0.0854,4.088617 -0.28641,6.107014 -0.24177,1.312357 -0.40016,1.681793 -0.79205,2.901352 -0.17951,0.362453 -0.38655,1.077286 -0.87692,1.25766 -0.10276,0.0378 -0.21728,-0.04328 -0.31527,-0.09212 -0.30801,-0.153546 -0.63896,-0.437073 -0.83914,-0.709486 -0.10506,-0.142962 -0.1623,-0.315531 -0.24345,-0.473297 -0.0139,-0.143854 -0.0682,-0.289518 -0.0416,-0.431562 0.0511,-0.272637 0.439,-0.706567 0.59661,-0.861055 0.70036,-0.686503 1.55298,-1.129103 2.40368,-1.595677 1.21652,-0.640042 0.63456,-0.332906 1.74608,-0.921044 0.625,-0.33071 0.15731,-1.214601 -0.46769,-0.88389 v 0 c -1.11501,0.589987 -0.52824,0.280252 -1.7605,0.928824 -1.28095,0.707077 -3.4242,1.793521 -3.50445,3.498006 -0.0122,0.258315 0.10527,0.506378 0.1579,0.759565 0.14153,0.235024 0.24829,0.494856 0.42457,0.70507 0.37245,0.444148 0.99239,0.920575 1.59711,0.982152 1.21101,0.123314 1.683,-0.949889 2.07547,-1.858381 0.41328,-1.296699 0.576,-1.675304 0.83027,-3.069661 0.37426,-2.052357 0.39331,-4.133852 0.29522,-6.210669 -0.004,-0.790433 0.17594,-0.632876 -0.90269,-0.788884 -0.0394,-0.0057 0.0435,0.07074 0.0455,0.110528 0.0183,0.351314 -0.0364,0.715613 -0.17124,1.041835 -0.0868,0.209948 -0.22381,0.395405 -0.33571,0.593108 -0.0942,0.1118 -0.61477,0.815618 -0.8946,0.713971 -0.37878,-0.13759 -0.45135,-0.740901 -0.4805,-1.06742 0.0701,-0.703619 -0.92493,-0.802815 -0.99507,-0.0992 z" />
    <path
       style="fill:#ff0000;stroke-width:0.264583"
       id="path612"
       d="m 104.05492,23.208887 c 3.37232,-0.871135 6.88879,-0.782217 10.34317,-0.752259 4.08219,0.09318 8.16581,0.04274 12.24849,0.01628 1.59055,-0.04014 3.2072,0.03085 4.78196,-0.241533 0.49093,-0.09659 0.99061,-0.150256 1.48881,-0.199226 0.74783,-0.07982 1.49529,-0.02462 2.24306,-0.0028 0.99186,0.03676 1.97496,-0.07575 2.95104,-0.238066 0.63858,-0.11206 1.28633,-0.113069 1.92902,-0.188909 0.42427,-0.10125 0.82092,-0.009 1.23941,0.05192 0.1584,0.0058 0.30827,0.04641 0.45837,0.09379 0.0173,0.0055 0.0534,0.03976 0.05,0.02188 -0.15985,-0.844089 0.0711,-0.836069 -0.29753,-0.796125 -0.66488,0.24069 -0.3245,1.180976 0.34038,0.940285 v 0 c 0.12273,-0.05278 0.33061,-0.03015 0.36817,-0.158353 0.29021,-0.990605 -0.12514,-1.010781 -0.77588,-1.091127 -0.5012,-0.07233 -0.9941,-0.166327 -1.50051,-0.05533 -0.65802,0.07819 -1.32209,0.07587 -1.97561,0.19554 -0.9128,0.152044 -1.83159,0.260272 -2.75941,0.224875 -0.78971,-0.02018 -1.57942,-0.07999 -2.36898,0.0073 -0.52271,0.05203 -1.04708,0.109922 -1.56262,0.209317 -1.5184,0.268958 -3.08281,0.177919 -4.61618,0.226604 -4.07764,0.02643 -8.15622,0.07688 -12.23338,-0.01626 -3.5641,-0.03053 -7.19276,-0.115435 -10.66794,0.803514 -0.67084,0.223554 -0.35469,1.172262 0.31615,0.948707 z" />
    <path
       style="fill:#ff0000;stroke-width:0.264583"
       id="path614"
       d="m 140.94474,20.195207 c 0.41868,0.575195 0.93515,1.070921 1.47903,1.526367 0.17485,0.146419 0.68077,0.4985 0.86001,0.71691 0.0347,0.04229 0.0332,0.104255 0.0497,0.156382 -0.0488,-0.03952 -0.085,-0.131979 -0.14635,-0.118548 -0.12702,0.02782 -0.21493,0.146411 -0.32143,0.220996 -0.2306,0.161485 -0.46223,0.321563 -0.68986,0.4872 -0.69416,0.505101 -0.73496,0.547063 -1.35553,1.040237 -0.55345,0.440107 0.069,1.222802 0.62241,0.782694 v 0 c 0.63067,-0.501847 0.59747,-0.484686 1.31298,-1.008215 0.29786,-0.217941 1.1567,-0.759389 1.35566,-1.14107 0.1137,-0.21814 0.0709,-0.486855 0.10638,-0.730284 -0.086,-0.142066 -0.15196,-0.298335 -0.25791,-0.426198 -0.20023,-0.241644 -0.64248,-0.536707 -0.87142,-0.727226 -0.47968,-0.399175 -0.9388,-0.831402 -1.31173,-1.334029 -0.39229,-0.588309 -1.22428,-0.03353 -0.83199,0.554784 z" />
    <path
       style="fill:#ff0000;stroke-width:0.264583"
       id="path616"
       d="m 31.326082,92.896459 c 1.450805,-2.87759 1.923708,-6.141027 2.012066,-9.331524 -0.122918,-0.168513 -0.219943,-0.651692 -0.368753,-0.505539 -1.148887,1.128382 -1.034264,3.124626 -1.183378,4.490394 -0.140993,1.291411 -0.275886,2.583511 -0.424725,3.87404 -0.402354,3.48865 -0.600755,4.951505 -1.04068,8.379206 -0.158316,1.118324 -0.503989,3.956854 -0.856903,5.264394 -0.0862,0.31936 -0.26747,0.60511 -0.401204,0.90767 -0.278519,0.64994 0.640641,1.04383 0.91916,0.39389 v 0 c 0.154535,-0.37014 0.358809,-0.72325 0.463605,-1.11042 0.353817,-1.30717 0.708623,-4.2078 0.867207,-5.328238 0.441346,-3.43898 0.639117,-4.896794 1.042858,-8.397523 0.148881,-1.290894 0.283837,-2.583359 0.424846,-3.87514 0.09959,-0.912312 0.358397,-1.821466 0.296942,-2.737138 -0.03498,-0.521206 -0.6364,-0.86763 -0.738621,-1.382147 -0.07687,3.03212 -0.521899,6.140403 -1.890173,8.878959 -0.338783,0.620665 0.538969,1.099781 0.877753,0.479116 z" />
    <path
       style="fill:#ff0000;stroke-width:0.264583"
       id="path618"
       d="m 29.550402,96.712279 c 2.157518,-0.732599 4.286263,-1.703496 6.558751,-2.019551 0.03969,0.0071 0.07937,0.0141 0.11906,0.02117 0.705048,0.05394 0.781327,-0.943147 0.07628,-0.997085 v 0 c -0.112747,-0.0046 -0.225497,-0.0092 -0.338244,-0.01381 -2.361086,0.351538 -4.58258,1.308171 -6.821805,2.095396 -0.646221,0.287052 -0.240265,1.200947 0.405956,0.913892 z" />
    <path
       style="fill:#ff0000;stroke-width:0.264583"
       id="path620"
       d="m 43.482868,87.91718 c 0.17903,-0.631026 0.223676,-1.278104 0.164838,-1.929548 -0.01384,-0.153032 -0.01717,-0.311488 -0.07074,-0.455506 -0.05222,-0.140412 -0.09361,-0.348129 -0.24,-0.379979 -0.281406,-0.06122 -0.568109,0.0949 -0.852163,0.142354 -0.0445,0.205634 -0.135786,0.406516 -0.133514,0.616897 0.0085,0.785003 0.826884,1.590873 1.623957,1.165111 0.182894,-0.09769 0.279945,-0.305948 0.419918,-0.458922 0.04529,-0.192718 0.135967,-0.380185 0.135869,-0.578152 -2.46e-4,-0.494959 -0.392065,-1.313894 -1.031267,-1.220097 -0.642887,0.09434 -0.711687,0.494313 -0.940892,0.958411 -0.129659,0.641734 -0.0992,0.351382 -0.122939,0.867164 -0.02154,0.706779 0.978,0.737235 0.999535,0.03046 v 0 c 0.0011,-0.296151 -0.0078,-0.128188 0.04217,-0.502812 0.02566,-0.08799 0.102883,-0.176045 0.07698,-0.263961 -0.02318,-0.07871 -0.41017,-0.112289 -0.235645,-0.236453 0.07618,-0.05419 0.276235,0.301022 0.259572,0.368274 0.0057,0.03697 -0.0016,0.07848 0.01717,0.110916 0.02574,0.04478 0.106294,0.05802 0.109546,0.109556 0.0021,0.03458 -0.06929,0.03791 -0.101106,0.02418 -0.290097,-0.125294 -0.04088,-0.137983 -0.25347,-0.338752 -0.02721,-0.02569 -0.07477,0.0036 -0.112155,0.0054 -0.209698,-0.03783 -0.431278,-0.03427 -0.629092,-0.113477 -0.04567,-0.01828 -0.02913,-0.19453 -0.01961,-0.146267 0.125412,0.636047 0.115514,1.281049 -0.05568,1.909124 -0.22352,0.670849 0.725204,0.986952 0.948724,0.316103 z" />
    <path
       style="fill:#ff0000;stroke-width:0.264583"
       id="path624"
       d="m 43.299409,94.003851 c 0.17413,-0.06358 0.409432,-0.118205 0.499983,-0.313365 0.191217,-0.41212 0.130585,-0.679082 -0.243031,-0.940085 -0.278296,-0.194413 -0.538199,-0.11429 -0.835284,-0.08231 -0.133403,0.07822 -0.288724,0.127495 -0.400206,0.234672 -0.40372,0.388131 -0.356894,0.963827 0.07392,1.311894 0.288676,0.233228 0.521919,0.19638 0.856953,0.21449 0.212371,-0.0431 0.479483,-0.06309 0.649677,-0.227655 0.297415,-0.287581 0.344651,-0.524796 0.127256,-0.917657 -0.125235,-0.226317 -0.396877,-0.271534 -0.61042,-0.336434 -0.0915,-7.94e-4 -0.186171,-0.02609 -0.274505,-0.0021 -0.486029,0.131376 -0.517808,0.349064 -0.313333,0.9399 0.04611,0.133231 0.50601,0.21268 0.644139,0.238014 0.379328,0.07216 0.04989,0.02735 0.162898,-0.984012 -0.699788,-0.101462 -0.843277,0.88819 -0.143486,0.989653 v 0 c 0.22343,-0.99835 0.547233,-0.916027 0.158168,-0.989748 -0.03162,-0.0056 -0.06319,-0.01146 -0.09486,-0.01672 -0.02604,-0.0043 -0.07219,-0.03779 -0.07824,-0.01209 -0.0074,0.03152 0.06411,0.04083 0.06385,0.07321 -0.0049,0.601845 0.114472,0.66099 -0.318606,0.75856 -0.01373,0.0031 -0.02424,-0.01429 -0.03635,-0.02143 0.07613,-0.02744 -2.14e-4,0.0123 -0.004,-0.101605 -0.0037,-0.108257 -0.01786,-0.223687 0.0226,-0.324173 0.02698,-0.06704 0.104806,-0.100523 0.164642,-0.141052 0.0091,-0.0061 -0.003,0.0217 -0.0045,0.03256 -0.03845,0.01431 -0.0769,0.0286 -0.115353,0.0429 -0.05473,0.01037 -0.133217,0.0019 -0.163298,0.06477 -0.01376,0.02871 -0.0084,0.0642 -0.0222,0.09289 -0.04157,0.08644 -0.108501,0.201409 -0.166812,0.06534 0.02117,-0.01371 0.04912,-0.0204 0.06351,-0.0411 0.01032,-0.01482 0.0064,-0.03645 0.0027,-0.05411 -0.01492,-0.06978 -0.06843,-0.135361 -0.05825,-0.205986 0.03157,-0.219134 0.06892,-0.311854 0.240911,-0.355119 0.01169,-0.0029 -0.01799,0.01609 -0.02701,0.0241 -0.695735,0.126296 -0.517128,1.110218 0.17861,0.983922 z" />
    <path
       style="fill:#ff0000;stroke-width:0.264583"
       id="path626"
       d="m 51.995091,87.777864 c 0.182313,-0.760376 0.390525,-1.514459 0.587509,-2.271197 0.1934,-0.742968 0.08806,-0.443589 0.323858,-1.005781 0.07861,0.230571 -0.336097,0.300622 -0.304294,0.490336 0.053,0.316137 0.269208,0.581896 0.397322,0.875729 0.187931,0.431032 0.365527,0.866502 0.550741,1.298709 0.726175,1.694569 0.518202,1.214385 1.275535,2.85995 0.43376,0.850914 0.645575,1.313321 1.123796,2.096982 0.0475,0.07784 0.477877,0.774181 0.670534,0.884388 0.14964,0.0856 0.349009,0.230897 0.497107,0.142661 0.235373,-0.140232 0.289674,-0.465135 0.434509,-0.697704 -0.07359,-0.703267 -1.068162,-0.599193 -0.994571,0.104072 v 0 c 1.14414,-0.987859 -0.05869,-0.199435 0.783706,-0.242224 0.07964,-0.004 -0.122846,-0.103677 -0.17113,-0.167132 -0.126817,-0.166661 -0.24272,-0.341754 -0.352022,-0.520393 -0.460955,-0.753366 -0.664676,-1.198329 -1.083554,-2.018808 -0.753351,-1.636146 -0.537488,-1.139277 -1.263353,-2.832401 -0.189813,-0.442749 -0.368168,-0.890458 -0.564767,-1.330235 -0.270237,-0.604504 -0.53776,-1.519579 -1.357381,-1.678887 -0.219681,-0.0427 -0.378823,0.238381 -0.568235,0.357571 -0.06578,0.16506 -0.14274,0.326091 -0.197348,0.495178 -0.03566,0.110432 -0.330956,1.272397 -0.350977,1.348457 -0.08395,0.318947 -0.256329,0.934074 -0.337442,1.268889 -0.03463,0.14297 -0.06228,0.287544 -0.09342,0.431316 -0.07816,0.702773 0.91572,0.8133 0.993873,0.110524 z" />
    <path
       style="fill:#ff0000;stroke-width:0.264583"
       id="path628"
       d="m 55.527849,85.299472 c -0.09039,0.130813 -0.184546,0.259099 -0.271163,0.392438 -0.260308,0.400725 -1.038561,1.666817 -1.217695,1.953969 -0.568788,0.911762 -1.222417,1.950548 -1.805828,2.849044 -0.283404,0.436457 -0.573427,0.868582 -0.86014,1.302872 -0.625877,0.909354 -0.612015,0.899432 -1.178594,1.691336 -0.03256,0.04551 -0.400603,0.527634 -0.452226,0.665855 -0.04064,0.108794 -0.0458,0.227706 -0.0687,0.341559 0.0141,0.706967 1.013904,0.687025 0.999802,-0.01995 v 0 c -0.02392,0.06325 -0.13594,0.168548 -0.07173,0.189741 0.06556,0.02164 0.06522,-0.122013 0.10414,-0.179041 0.09739,-0.142724 0.203827,-0.279067 0.304353,-0.419603 0.57573,-0.804875 0.561845,-0.795102 1.197514,-1.718982 0.936726,-1.419082 0.865778,-1.297895 1.811272,-2.789639 0.292147,-0.460934 0.581461,-0.923663 0.870302,-1.386676 0.185144,-0.296786 0.925819,-1.501508 1.191823,-1.914324 0.07296,-0.113223 0.151789,-0.222557 0.227685,-0.333836 0.44178,-0.552116 -0.339029,-1.176885 -0.78081,-0.624771 z" />
    <path
       style="fill:#ff0000;stroke-width:0.264583"
       id="path632"
       d="m 60.711622,88.519584 c 2.814452,-0.300609 5.625973,-0.627944 8.439041,-0.941197 2.15682,-0.22909 2.31239,-0.24756 4.346009,-0.456796 0.807672,-0.0831 1.618104,-0.183859 2.430677,-0.209343 0.706718,-0.02344 0.673563,-1.022895 -0.03316,-0.99945 v 0 c -0.836787,0.02907 -1.668278,0.128481 -2.500731,0.214132 -2.037434,0.209632 -2.19193,0.227997 -4.353473,0.4576 -2.848755,0.31723 -5.696746,0.641826 -8.545478,0.958908 -0.690239,0.153519 -0.47313,1.129667 0.21711,0.976146 z" />
    <path
       style="fill:#ff0000;stroke-width:0.264583"
       id="path634"
       d="m 73.751032,84.919195 c 0.519356,0.25129 1.038666,0.504179 1.548889,0.773678 0.244599,0.129196 0.49122,0.255276 0.728448,0.39756 0.211177,0.126659 0.423733,0.254053 0.615514,0.408514 0.129293,0.104135 0.227763,0.241594 0.341645,0.36239 -0.01416,0.05116 0.0085,0.138845 -0.04251,0.15349 -0.06746,0.01937 -0.122644,-0.09605 -0.192129,-0.08615 -0.171911,0.0245 -0.323176,0.127575 -0.487728,0.183034 -0.800161,0.269682 -0.896353,0.276254 -1.747123,0.493646 -0.68494,0.17566 -0.43652,1.144313 0.248422,0.968653 v 0 c 0.532697,-0.137086 1.411285,-0.341273 1.926514,-0.55843 0.606777,-0.255746 1.127154,-0.465142 1.227492,-1.22098 0.02949,-0.222128 -0.147019,-0.423352 -0.22053,-0.635029 -0.167688,-0.165045 -0.318924,-0.348679 -0.503069,-0.495139 -0.214664,-0.170733 -0.45231,-0.31102 -0.687646,-0.451895 -0.245378,-0.146886 -0.500391,-0.277119 -0.75328,-0.410657 -0.520536,-0.274865 -1.050324,-0.532797 -1.580232,-0.788966 -0.640836,-0.298879 -1.063516,0.607401 -0.422679,0.90628 z" />
    <path
       style="fill:#ff0000;stroke-width:0.264583"
       id="path636"
       d="m 85.606616,86.23107 c -0.07387,-0.368975 0.0029,0.02312 -0.06948,-0.375504 -0.07215,-0.397201 -0.101526,-0.854009 -0.847563,-0.675564 -0.205103,0.04906 -0.204695,0.368776 -0.307044,0.553165 -0.103352,0.658423 -0.09322,1.317762 0.134927,1.954027 0.08723,0.243266 0.19458,0.484375 0.345974,0.693819 0.145339,0.201065 0.311375,0.406924 0.531876,0.520629 0.247343,0.127548 0.544272,0.116425 0.816409,0.174636 0.289169,-0.123077 0.611206,-0.18736 0.867508,-0.369229 0.545658,-0.387194 0.997082,-1.143722 1.299644,-1.710145 0.275913,-0.51653 0.545124,-1.183288 0.726649,-1.749319 0.04731,-0.147513 0.07473,-0.300678 0.112099,-0.451017 -0.294558,-0.144571 -0.576154,-0.548166 -0.883669,-0.433716 -0.296585,0.110382 -0.257061,0.58143 -0.336375,0.887789 -0.182645,0.705493 -0.370944,2.410804 -0.456118,3.03431 -0.330944,2.422668 -0.187103,1.5211 -0.693298,3.940561 -0.477994,1.481215 -0.885249,3.172291 -2.210581,4.164468 -0.587814,0.440055 -1.262023,0.617439 -1.983322,0.455533 -0.323043,-0.07251 -0.599871,-0.280374 -0.899808,-0.42056 -0.187698,-0.238641 -0.450112,-0.434116 -0.563097,-0.715923 -0.253328,-0.631852 0.02331,-1.242981 0.404638,-1.73935 0.575352,-0.74894 1.510906,-1.42395 2.311823,-1.882632 0.465921,-0.26683 0.969587,-0.461542 1.45438,-0.692314 1.195041,-0.416708 1.232416,-0.462719 2.360388,-0.747377 0.224933,-0.05677 0.453416,-0.0984 0.680122,-0.147605 0.690856,-0.150728 0.477697,-1.127744 -0.213159,-0.977019 v 0 c -0.244554,0.05361 -0.49103,0.09913 -0.733666,0.160845 -1.210416,0.307891 -1.23885,0.354682 -2.526847,0.809842 -0.529431,0.256654 -1.080905,0.472091 -1.588294,0.769962 -1.32198,0.776097 -3.053416,2.08009 -3.194648,3.772617 -0.03789,0.454011 0.08182,0.932005 0.295283,1.334492 0.211058,0.397944 0.621101,0.652573 0.931654,0.978863 0.440031,0.165134 0.8549,0.428355 1.32009,0.495403 1.583849,0.228288 2.89501,-0.693936 3.737621,-1.951347 0.717053,-1.070044 1.003123,-2.258468 1.396333,-3.463615 0.141991,-0.682112 0.305335,-1.360126 0.425977,-2.046333 0.219736,-1.249855 0.314896,-2.409621 0.499131,-3.658915 0.05917,-0.401259 0.14665,-0.797978 0.206891,-1.199078 0.02045,-0.136118 0.116874,-0.300808 0.03499,-0.411451 -0.184465,-0.249267 -0.498938,-0.368385 -0.748409,-0.55258 -0.02704,0.115911 -0.04521,0.234257 -0.08113,0.347731 -0.165653,0.523349 -0.394023,1.090224 -0.643811,1.574351 -0.28218,0.546907 -0.501173,0.904372 -0.911812,1.341035 -0.09101,0.09678 -0.203671,0.170622 -0.305506,0.255934 -0.07987,0.0258 -0.15906,0.100992 -0.239618,0.07741 -0.126243,-0.03695 -0.230941,-0.137155 -0.313719,-0.239379 -0.113117,-0.139692 -0.19518,-0.304472 -0.261842,-0.4714 -0.189227,-0.473843 -0.201348,-0.969989 -0.136438,-1.467856 -0.457099,0.19707 0.01193,0.05163 -0.866232,-0.262964 -0.03573,-0.01281 0.02008,0.07324 0.02801,0.11035 0.04264,0.199329 0.06799,0.401807 0.11253,0.600755 0.138832,0.693343 1.119367,0.497006 0.980537,-0.196337 z" />
    <path
       style="fill:#ff0000;stroke-width:0.264583"
       id="path638"
       d="m 100.78913,83.306083 c 0.40175,0.04045 0.80241,0.09378 1.20525,0.121346 3.52718,0.241318 7.07248,0.0336 10.59536,-0.181706 0.30767,-0.01775 0.61534,-0.03551 0.92301,-0.05326 0.70594,-0.04073 0.64833,-1.039074 -0.0576,-0.998339 v 0 c -0.30881,0.01783 -0.61762,0.03565 -0.92644,0.05347 -3.46972,0.212289 -6.96085,0.4172 -10.43503,0.184783 -0.38107,-0.02551 -0.76014,-0.07513 -1.14022,-0.112694 -0.69749,-0.116195 -0.86181,0.870214 -0.16432,0.986406 z" />
    <path
       style="fill:#ff0000;stroke-width:0.264583"
       id="path640"
       d="m 102.0762,86.933766 c 3.61708,-0.160401 7.23857,-0.223692 10.85498,-0.399719 0.7328,-0.03567 1.46478,-0.08653 2.19717,-0.129797 0.57243,-0.06288 1.14487,-0.125753 1.7173,-0.188629 0.70286,-0.07747 0.5933,-1.071446 -0.10955,-0.993981 v 0 c -0.55559,0.06145 -1.11118,0.122901 -1.66677,0.184353 -0.7259,0.04295 -1.45139,0.09348 -2.1777,0.128837 -3.60326,0.175416 -7.21156,0.237818 -10.81543,0.398936 -0.7071,0 -0.7071,1 0,1 z" />
    <path
       style="fill:#ff0000;stroke-width:0.264583"
       id="path642"
       d="m 110.35216,80.67091 c 2.51424,1.14292 5.02071,2.314112 7.41974,3.685481 0.18613,0.12141 0.38057,0.23095 0.5584,0.364228 0.0522,0.0391 0.12385,0.214263 0.12656,0.149122 0.008,-0.190928 -0.0566,-0.379105 -0.10937,-0.562755 -0.0106,-0.03679 -0.0395,-0.09306 -0.077,-0.08521 -0.50741,0.106259 -1.03761,0.45326 -1.47,0.691755 -0.28079,0.213149 -0.5799,0.404091 -0.84235,0.639445 -0.9859,0.884106 -1.79393,2.081282 -2.38149,3.263604 -0.0848,0.170598 -0.15091,0.349851 -0.22637,0.524775 -0.0297,0.117493 -0.0595,0.234984 -0.0892,0.352475 -0.15884,0.689036 0.8156,0.913672 0.97444,0.224636 v 0 c 0.0115,-0.06156 0.023,-0.12311 0.0346,-0.184666 0.50746,-1.205137 1.33184,-2.502691 2.2966,-3.387285 0.22461,-0.205949 0.48154,-0.373605 0.7223,-0.560406 0.22868,-0.130281 0.44928,-0.275876 0.68602,-0.390843 0.0956,-0.0464 1.11243,-0.401606 1.15064,-0.460179 0.50699,-0.777142 -0.40693,-1.147651 -0.85776,-1.447041 -0.32673,-0.186465 -0.64939,-0.380238 -0.98018,-0.559392 -2.1298,-1.153483 -4.33439,-2.164903 -6.53483,-3.17396 -0.64786,-0.283329 -1.04855,0.632883 -0.40069,0.916215 z" />
    <path
       style="fill:#ff0000;stroke-width:0.264583"
       id="path644"
       d="m 126.44857,90.350439 c 1.19262,-1.297302 2.37545,-2.613623 3.24323,-4.159268 0.69726,-1.241933 0.71441,-1.482638 1.14731,-2.775741 -0.75374,0.541377 0.64924,-1.443908 0.15576,-1.475232 -1.49806,-0.0951 -1.28206,0.830617 -1.49123,1.929842 -0.14394,0.75647 -0.26912,1.516417 -0.3961,2.275916 -0.14766,0.883121 -0.2852,1.767901 -0.42779,2.651853 -0.35698,1.974149 -0.61542,3.611152 -1.11101,5.551527 -0.27236,1.06639 -0.76137,2.792923 -1.35096,3.818858 -0.15253,0.265409 -0.40711,0.457258 -0.61066,0.685887 -0.45766,0.539031 0.30464,1.186249 0.7623,0.647222 v 0 c 0.2553,-0.311815 0.56632,-0.585333 0.76589,-0.935443 0.30092,-0.527902 0.51962,-1.100939 0.72157,-1.67404 0.90422,-2.565995 1.32581,-5.269494 1.81011,-7.934764 0.2548,-1.579787 0.52139,-3.300634 0.81528,-4.881353 0.0863,-0.46413 0.39423,-0.927939 0.28515,-1.38725 -0.077,-0.324033 -0.48501,-0.463 -0.76674,-0.64062 -0.0527,-0.03321 0.0267,0.121658 0.0401,0.182488 -0.0503,0.290166 -0.10057,0.580332 -0.15086,0.870501 -0.39045,1.191233 -0.40118,1.401847 -1.04191,2.553721 -0.83388,1.499097 -1.98733,2.766579 -3.13925,4.023119 -0.47573,0.523148 0.26412,1.195927 0.73984,0.672777 z" />
    <path
       style="fill:#ff0000;stroke-width:0.264583"
       id="path646"
       d="m 126.16296,92.920665 c 2.05918,-1.076412 4.22911,-1.915009 6.41737,-2.685912 0.66688,-0.235077 0.33443,-1.178198 -0.33245,-0.943121 v 0 c -2.27766,0.803336 -4.54366,1.671291 -6.67299,2.820223 -0.57191,0.415827 0.0161,1.22464 0.58807,0.80881 z" />
    <path
       style="fill:#ff0000;stroke-width:0.264583"
       id="path648"
       d="m 138.84667,77.49909 c -0.1755,0.410668 -0.38312,0.809048 -0.5265,1.232 -0.48807,1.439789 -0.80254,2.964255 -1.03095,4.462021 -0.26486,1.736828 -0.38645,3.232658 -0.39035,4.98248 -10e-4,0.628729 0.0532,1.256331 0.0798,1.884497 0.0579,0.433822 0.0959,0.870768 0.17372,1.301467 0.0452,0.25033 0.1033,0.500489 0.19465,0.737899 0.0491,0.127728 0.0855,0.353166 0.22214,0.345282 1.10652,-0.06385 0.92619,-0.294037 0.88092,-0.932265 -0.0788,-0.702699 -1.07259,-0.591222 -0.99376,0.111477 v 0 c 0.10529,0.511042 -0.0344,0.213979 0.89526,0.198035 0.0142,-2.43e-4 -0.0343,0.03055 -0.039,0.01714 -0.0699,-0.199572 -0.13096,-0.403447 -0.16917,-0.611433 -0.0736,-0.40064 -0.11044,-0.807178 -0.16565,-1.210766 -0.0265,-0.601554 -0.0801,-1.20252 -0.0796,-1.804656 0.002,-1.704089 0.11784,-3.140424 0.37359,-4.833218 0.23064,-1.526656 0.50231,-2.811674 0.97181,-4.264176 0.11381,-0.352107 0.27578,-0.686789 0.41367,-1.030184 0.41408,-0.573185 -0.39653,-1.158777 -0.8106,-0.585594 z" />
    <path
       style="fill:#ff0000;stroke-width:0.264583"
       id="path650"
       d="m 141.03066,87.299807 c 0.19243,-0.771681 0.49442,-1.510535 0.85834,-2.216425 0.1569,-0.304327 0.39365,-0.78594 0.69319,-1.019223 0.0438,-0.03415 0.11067,-0.0104 0.16601,-0.01561 -0.0491,0.07002 -0.16062,0.12555 -0.14739,0.210052 0.0325,0.207217 0.18335,0.377362 0.26933,0.568669 0.15753,0.350481 0.30503,0.70539 0.46111,1.056516 0.46107,1.037257 0.71535,1.605351 1.23092,2.621859 0.1904,0.375394 0.39437,0.743755 0.59155,1.115629 0.2,0.330846 0.59251,1.04597 0.90462,1.36185 0.10992,0.111255 0.23005,0.250883 0.38558,0.267346 0.23649,0.02503 0.46458,-0.101844 0.69688,-0.152765 0.54488,-0.450668 -0.0925,-1.221251 -0.63735,-0.770583 v 0 c 0.1473,0.01937 0.29472,0.03781 0.44188,0.05814 0.0308,0.0043 -0.0713,0.01249 -0.0929,-0.0099 -0.30706,-0.318622 -0.60656,-0.878676 -0.81532,-1.22269 -0.19206,-0.361823 -0.39077,-0.720193 -0.57619,-1.085469 -0.52443,-1.033129 -0.74285,-1.529651 -1.21392,-2.585137 -0.14194,-0.318043 -0.69714,-1.720824 -1.03748,-2.016816 -0.23155,-0.201374 -0.57171,-0.223195 -0.85757,-0.334791 -0.17695,0.09505 -0.37695,0.156076 -0.53086,0.285137 -0.34357,0.288096 -0.64445,0.865692 -0.83647,1.241144 -0.40205,0.786125 -0.73334,1.609233 -0.93874,2.469407 -0.12284,0.696354 0.86196,0.870074 0.98479,0.17372 z" />
    <path
       style="fill:#ff0000;stroke-width:0.264583"
       id="path652"
       d="m 147.45863,82.5493 c -1.4309,1.819942 -2.73345,3.73188 -3.86346,5.75336 -0.5983,1.070297 -0.91752,1.754857 -1.43568,2.816103 -0.38998,0.767678 -0.16939,0.534675 -0.48494,0.831482 -0.46665,0.531257 0.28466,1.191202 0.75131,0.659942 v 0 c 0.43299,-0.532394 0.19787,-0.197278 0.63232,-1.05283 0.50399,-1.033134 0.81829,-1.707202 1.39918,-2.748115 1.11033,-1.989638 2.39308,-3.869577 3.80118,-5.659816 0.42435,-0.565619 -0.37555,-1.165744 -0.79991,-0.600126 z" />
    <path
       style="fill:#ff0000;stroke-width:0.264583"
       id="path654"
       d="m 150.36175,79.995608 c 1.07042,1.689992 1.36824,3.618741 1.49919,5.583904 0.057,0.855086 0.0697,1.713794 0.0478,2.570496 -0.0198,0.775973 -0.11507,1.548178 -0.1726,2.322267 -0.27269,1.566682 -0.19857,1.627216 -0.67428,2.931162 -0.0581,0.159287 -0.15486,0.302184 -0.21847,0.459354 -0.0236,0.05828 0.0652,-0.107495 0.0978,-0.161242 -0.61268,0.353017 -0.11344,1.21948 0.49924,0.86646 v 0 c 0.10317,-0.09441 0.23202,-0.166812 0.30952,-0.283218 0.11793,-0.177123 0.19389,-0.380156 0.26556,-0.580514 0.50401,-1.408954 0.43389,-1.50208 0.71792,-3.158808 0.0584,-0.805013 0.156,-1.60814 0.17508,-2.41504 0.0384,-1.624388 -0.055,-3.666125 -0.37437,-5.267785 -0.18937,-0.949595 -0.6718,-2.470952 -1.31184,-3.297904 -0.19135,-0.247227 -0.50006,-0.375336 -0.75009,-0.563005 -0.70277,-0.07815 -0.8133,0.915721 -0.11053,0.993873 z" />
    <path
       style="fill:#ff0000;stroke-width:0.264583"
       id="path656"
       d="m 155.24931,85.331362 c 1.16182,-0.01431 2.31077,-0.211854 3.46279,-0.338701 1.29693,-0.142803 1.28829,-0.129254 2.49679,-0.204779 0.70572,-0.04429 0.64308,-1.042332 -0.0626,-0.998035 v 0 c -1.24156,0.07826 -1.22889,0.06417 -2.55567,0.210225 -1.08837,0.119814 -2.17339,0.302781 -3.26998,0.333835 -0.70531,-0.05041 -0.7766,0.94705 -0.0713,0.997455 z" />
    <path
       style="fill:#ff0000;stroke-width:0.264583"
       id="path658"
       d="m 156.30667,88.209111 c 1.0598,-0.03826 2.10884,-0.208944 3.15244,-0.385593 0.86921,-0.147135 1.59474,-0.274998 2.44545,-0.482457 0.28078,-0.06847 0.55689,-0.154874 0.83534,-0.23231 0.68107,-0.190087 0.41225,-1.153276 -0.26883,-0.963189 v 0 c -0.26015,0.07288 -0.51802,0.154453 -0.78045,0.218652 -0.83668,0.204676 -1.53288,0.326427 -2.38973,0.471897 -0.99134,0.168304 -1.98766,0.332031 -2.99422,0.373002 -0.7071,0 -0.7071,0.999998 0,0.999998 z" />
    <path
       style="fill:#ff0000;stroke-width:0.264583"
       id="path660"
       d="m 164.80484,87.839792 c 1.33749,-1.743495 1.80564,-3.915299 2.28143,-6.012727 0.0356,-0.113581 0.22525,-0.330886 0.10665,-0.340744 -0.29465,-0.0245 -0.65492,0.0505 -0.84176,0.279646 -0.1328,0.162878 0.0596,0.416605 0.1072,0.621289 0.17292,0.742845 0.40553,1.565971 0.72824,2.258351 0.16283,0.349351 0.38144,0.669886 0.57216,1.004827 0.24604,0.220993 0.43659,0.527166 0.73813,0.662982 1.91545,0.862701 3.0006,-2.018553 3.51139,-3.314409 0.0349,0.408872 -0.0646,-0.933685 -0.93906,0.215906 -0.27676,0.363855 -0.14352,0.902975 -0.21729,1.35414 -0.11081,0.677751 -0.2116,1.357289 -0.33644,2.032598 -0.49147,2.658607 -0.44013,2.246156 -1.16909,4.905819 -0.71551,1.858418 -0.88101,2.600749 -1.95062,4.238675 -0.32205,0.493176 -0.67625,0.973678 -1.09947,1.38334 -0.45298,0.438462 -1.21264,0.980945 -1.92806,0.7728 -0.23484,-0.06833 -0.3758,-0.313129 -0.5637,-0.469693 -0.159,-0.292378 -0.3512,-0.569005 -0.477,-0.877131 -0.24596,-0.602459 -0.48664,-1.614919 -0.52621,-2.270054 -0.0178,-0.294499 -0.0266,-0.600723 0.0586,-0.883168 0.17483,-0.579028 0.62754,-0.675852 1.10488,-0.930466 0.4541,-0.139631 0.9032,-0.296653 1.36228,-0.418896 0.61026,-0.162502 1.23076,-0.283996 1.844,-0.434872 1.22594,-0.301622 2.62018,-0.642771 3.8107,-1.080979 1.419,-0.522298 1.47827,-0.628271 2.67276,-1.351888 0.86234,-0.772253 0.53013,-0.368687 1.05623,-1.15909 0.37449,-0.599794 -0.47375,-1.129408 -0.84824,-0.529611 v 0 c -0.29983,0.539136 -0.0886,0.235868 -0.72922,0.835285 -1.0852,0.668821 -1.13786,0.766278 -2.45141,1.251328 -1.17393,0.433498 -2.53268,0.763786 -3.74112,1.061834 -2.73239,0.673912 -1.06366,0.1735 -3.50772,0.979987 -0.35666,0.247055 -0.7777,0.420526 -1.06998,0.741167 -0.55141,0.604903 -0.60249,1.317112 -0.54861,2.081247 0.0513,0.726897 0.34834,1.99282 0.66212,2.633493 0.2131,0.435123 0.53981,0.804725 0.80972,1.207087 0.4039,0.201986 0.76518,0.538422 1.2117,0.605957 0.97091,0.146852 1.95554,-0.526182 2.58351,-1.145186 0.45875,-0.452202 0.84122,-0.980905 1.19108,-1.521769 1.1169,-1.726652 1.29306,-2.508565 2.03829,-4.455501 0.74305,-2.720658 0.69095,-2.300248 1.19112,-5.00642 0.12512,-0.676963 0.22624,-1.358146 0.33725,-2.037564 0.2018,-1.23512 0.58901,-1.516364 -0.56607,-2.35744 -0.0885,-0.06445 -0.13056,0.175818 -0.19585,0.263729 -0.33856,0.866775 -0.63562,1.593495 -1.18725,2.359591 -0.0917,0.12736 -0.44002,0.655809 -0.7475,0.556615 -0.20737,-0.0669 -0.34513,-0.266095 -0.51769,-0.39914 -0.5442,-0.929243 -0.5549,-0.839092 -0.90585,-1.916552 -0.11049,-0.339228 -0.19504,-0.686578 -0.27831,-1.033494 -0.065,-0.270722 0.0471,-0.639633 -0.16622,-0.818528 -0.99179,-0.831689 -1.01173,-0.274291 -1.16355,0.223747 -0.43827,1.933284 -0.84863,3.943779 -2.05364,5.569559 -0.46975,0.528523 0.2777,1.192847 0.74745,0.664323 z" />
    <path
       style="fill:#ff0000;stroke-width:0.264583"
       id="path666"
       d="m 46.001058,143.93083 c 0.246073,-0.14979 0.502135,-0.28429 0.738222,-0.44937 1.845405,-1.29038 3.505457,-2.96971 4.620292,-4.93821 0.273645,-0.48319 0.467061,-1.0076 0.70059,-1.5114 0.107077,-0.46178 0.27106,-0.91397 0.321233,-1.38535 0.03897,-0.36613 0.08282,-0.76227 -0.05635,-1.10316 -0.452027,-1.10721 -1.326009,-0.67335 -2.006007,0.0737 -0.821378,0.90237 -1.938419,3.98464 -2.291461,4.84816 -1.296977,3.52911 -2.25942,7.16588 -3.383079,10.75037 -0.609999,1.9459 -1.188495,3.81348 -2.041824,5.66321 -0.234608,0.50856 -0.544237,0.97903 -0.816356,1.46854 -0.342209,0.61878 0.532882,1.10274 0.875091,0.48396 v 0 c 0.289497,-0.526 0.617477,-1.03258 0.86849,-1.57799 0.863772,-1.87682 1.453761,-3.77684 2.072142,-5.74942 1.114266,-3.55444 2.069031,-7.16054 3.351578,-10.66126 0.377105,-0.92832 0.754208,-1.85664 1.131311,-2.78496 0.304575,-0.56902 0.650748,-1.11765 0.913727,-1.70705 0.08657,-0.19403 0.04013,-0.43064 0.126659,-0.62469 0.03142,-0.0705 0.17358,-0.18434 0.202174,-0.11268 0.245567,0.61544 -0.05598,1.44051 -0.176131,2.0014 -0.208142,0.45826 -0.378695,0.93554 -0.624427,1.3748 -1.034042,1.84841 -2.58817,3.42309 -4.309409,4.63894 -0.21205,0.14979 -0.44232,0.27195 -0.663477,0.40793 -0.632526,0.31609 -0.185513,1.21061 0.447012,0.89453 z" />
    <path
       style="fill:#ff0000;stroke-width:0.264583"
       id="path668"
       d="m 43.155298,145.84013 c 1.836589,-0.5447 3.657076,-1.15245 5.538031,-1.53142 0.338822,-0.0683 0.681969,-0.11299 1.022953,-0.16948 0.6975,-0.11616 0.53322,-1.10258 -0.16428,-0.98641 v 0 c -0.360328,0.0603 -0.7229,0.10845 -1.080982,0.18091 -1.902534,0.38499 -3.745147,0.99615 -5.602829,1.5485 -0.677336,0.20302 -0.390229,1.16092 0.287107,0.9579 z" />
    <path
       style="fill:#ff0000;stroke-width:0.264583"
       id="path670"
       d="m 60.903132,130.97641 c -0.03757,-0.2051 -0.122819,-0.75286 -0.221982,-0.92552 -0.313545,-0.54595 -0.746149,-0.81683 -1.439392,-0.30898 -0.771266,0.56502 -1.649344,2.82547 -1.927736,3.42564 -0.337928,0.94728 -0.720844,1.87969 -1.013785,2.84184 -0.309327,1.01596 -0.571079,2.04729 -0.791117,3.08626 -0.478235,2.25811 -0.779788,4.62833 -0.322475,6.91951 0.07903,0.39594 0.24574,0.76919 0.368613,1.15378 0.373052,0.64569 0.643892,1.3279 1.512308,0.66883 0.06497,-0.0493 0.224221,-0.64367 0.279323,-0.79676 0.236455,-0.66641 -0.705975,-1.0008 -0.94243,-0.3344 v 0 c -0.03224,0.0918 -0.132935,0.36801 -0.144047,0.4505 -0.0026,0.019 0.01529,0.044 0.03432,0.0461 0.17068,0.0187 0.345115,-0.0113 0.514917,0.0142 0.02135,0.003 -0.01752,0.0394 -0.02627,0.0591 -0.09264,-0.13974 -0.185285,-0.27949 -0.277928,-0.41923 -0.108784,-0.32159 -0.25758,-0.63233 -0.326351,-0.96478 -0.447931,-2.16538 -0.150392,-4.41392 0.298874,-6.54915 0.212381,-1.00938 0.465275,-2.01139 0.764362,-2.99856 0.28297,-0.93398 0.653315,-1.83923 0.979975,-2.75884 0.307223,-0.67203 0.591447,-1.35506 0.921673,-2.01609 0.162306,-0.3249 0.430403,-0.59666 0.55413,-0.93811 0.03734,-0.10306 -0.109614,-0.20378 -0.10078,-0.31304 0.0034,-0.0418 0.103315,-0.0204 0.124828,0.0156 0.0839,0.14037 0.155953,0.58877 0.187108,0.75264 0.07816,0.70278 1.072028,0.59225 0.993873,-0.11052 z" />
    <path
       style="fill:#ff0000;stroke-width:0.264583"
       id="path672"
       d="m 59.718693,145.32666 c 1.886651,-2.85958 3.406664,-5.94748 4.71314,-9.10995 0.28965,-0.70113 0.551934,-1.41326 0.827899,-2.11989 -0.17477,-0.94451 0.809395,-1.54761 0.93285,-2.39561 0.02114,-0.14523 -0.214543,0.20722 -0.283776,0.33662 -0.09063,0.16939 -0.194678,0.35286 -0.187828,0.54484 0.01902,0.53314 0.174799,1.05255 0.263609,1.57858 0.110263,0.65311 0.222404,1.30589 0.333608,1.95883 0.36562,1.90695 0.8416,3.78951 1.461799,5.62953 0.123738,0.36711 0.267976,0.72702 0.397457,1.09214 0.206838,0.58327 0.356392,0.45561 0.165876,0.5999 0.576929,-0.5906 0.698312,-0.35757 0.362976,-0.6997 -0.533167,-0.46447 -1.190027,0.28954 -0.65686,0.75401 v 0 c 0.637498,0.51572 0.23104,0.37097 1.293776,-0.0397 -0.0078,-0.1187 0.0039,-0.24034 -0.02342,-0.35611 -0.04862,-0.20566 -0.132093,-0.40153 -0.202771,-0.6007 -0.125016,-0.35228 -0.264594,-0.6994 -0.384276,-1.05353 -0.606761,-1.79536 -1.070821,-3.6328 -1.42876,-5.49372 -0.111059,-0.6521 -0.222679,-1.30411 -0.333182,-1.95632 -0.09918,-0.58534 -0.259212,-2.47076 -0.902041,-2.94515 -0.223629,-0.16503 -0.593768,0.0614 -0.79419,0.25391 -0.626522,0.60192 -0.208298,1.93431 -0.94639,2.42856 -0.271383,0.69548 -0.529347,1.39636 -0.814152,2.08647 -1.279621,3.10061 -2.767725,6.12849 -4.614521,8.93346 -0.405562,0.57924 0.413609,1.15279 0.819171,0.57355 z" />
    <path
       style="fill:#ff0000;stroke-width:0.264583"
       id="path674"
       d="m 62.483642,141.77443 c 1.771579,-0.52737 3.616722,-0.8599 5.468432,-0.89704 0.220747,-0.004 0.441375,0.0135 0.662062,0.0202 0.510045,0.1512 -0.0056,0.0461 -0.175697,-0.49702 -0.02924,-0.0934 0.08525,-0.17621 0.127871,-0.26431 -0.684663,0.17674 -0.434711,1.145 0.249951,0.96826 v 0 c 0.189167,-0.12594 0.519039,-0.15578 0.567495,-0.3778 0.164055,-0.75166 -0.349864,-0.74429 -0.741635,-0.82874 -0.248108,-0.006 -0.496195,-0.0246 -0.744329,-0.0192 -1.946539,0.0425 -3.885885,0.39286 -5.746914,0.95257 -0.666808,0.2353 -0.334044,1.17831 0.332764,0.94301 z" />
    <path
       style="fill:#ff0000;stroke-width:0.264583"
       id="path676"
       d="m 70.643934,131.2266 c 0.113038,0.14774 0.246044,0.28216 0.339117,0.44323 0.196524,0.3401 0.388218,0.68662 0.526253,1.05437 0.736288,1.96156 0.939398,4.10615 0.896094,6.18697 -0.01585,0.76203 -0.114766,1.52008 -0.172151,2.28012 -0.187788,1.48172 -0.453766,2.95601 -0.948452,4.36835 -0.09614,0.27449 -0.274148,0.62004 -0.135533,0.34654 -0.449995,0.54544 0.321371,1.18183 0.771366,0.63639 v 0 c 0.303213,-0.4664 0.512223,-1.21237 0.643324,-1.7099 0.388406,-1.474 0.417624,-1.9701 0.666554,-3.56737 0.0581,-0.79607 0.159824,-1.59014 0.174313,-2.38819 0.0283,-1.55883 -0.100806,-3.2348 -0.437843,-4.76146 -0.236665,-1.07202 -0.611158,-2.17385 -1.226129,-3.09831 -0.168175,-0.25282 -0.412274,-0.44589 -0.618411,-0.66883 -0.6209,-0.33835 -1.099402,0.53973 -0.478502,0.87809 z" />
    <path
       style="fill:#ff0000;stroke-width:0.264583"
       id="path678"
       d="m 89.505879,132.98504 c -0.236546,-0.0902 -0.467826,-0.1956 -0.709639,-0.2705 -1.95058,-0.60426 -4.060801,-0.85044 -6.053235,-0.28022 -0.526024,0.15055 -1.015241,0.40835 -1.52286,0.61252 -0.44572,0.3303 -0.931042,0.61297 -1.337157,0.9909 -1.036002,0.96412 -1.840777,2.33367 -1.695241,3.80187 0.118304,1.19345 0.515869,1.49265 1.179696,2.42854 0.364008,0.29106 0.685371,0.64547 1.092025,0.87318 1.72942,0.9684 3.784645,0.75979 5.629201,0.33489 0.325061,-0.0749 0.643339,-0.17664 0.965012,-0.26497 -0.214799,-0.46369 0.848347,-0.04 0.898644,-0.35851 0.04913,-0.31115 -0.06699,-0.62644 -0.100484,-0.93966 -0.647779,-0.28352 -1.048734,0.63258 -0.400954,0.9161 v 0 c 0.01847,-0.29048 0.09601,-0.58323 0.05538,-0.87144 -0.03605,-0.25574 -1.064335,1.42544 -0.718638,0.28955 -1.479584,0.41063 -3.03544,0.79845 -4.578413,0.48225 -0.390801,-0.0801 -0.781468,-0.19397 -1.135682,-0.37747 -0.333888,-0.17296 -0.601099,-0.45197 -0.901647,-0.67795 -0.506878,-0.65185 -0.856091,-0.92111 -0.986338,-1.76824 -0.181811,-1.18254 0.488231,-2.2824 1.300856,-3.07071 0.336889,-0.32681 0.741794,-0.57527 1.112689,-0.86291 0.442879,-0.18505 0.868905,-0.41719 1.328637,-0.55515 1.806996,-0.54223 3.738116,-0.31014 5.513573,0.23232 0.22179,0.0678 0.433864,0.16399 0.650796,0.24599 0.643733,0.29258 1.057513,-0.61779 0.413779,-0.91038 z" />
    <path
       style="fill:#ff0000;stroke-width:0.264583"
       id="path680"
       d="m 94.218433,131.13172 c 0.166492,3.47264 0.05487,6.95023 0.08501,10.42518 0.01304,1.50317 0.04712,3.00609 0.06961,4.50915 -0.0024,0.34518 -0.0046,0.69035 -0.0069,1.03553 -0.0046,0.70709 0.995365,0.71362 0.99998,0.007 v 0 c 0.0024,-0.35235 0.0045,-0.70469 0.0068,-1.05703 -0.02244,-1.49897 -0.05648,-2.99779 -0.0695,-4.49687 -0.03042,-3.50255 0.08326,-7.00787 -0.08866,-10.50798 -0.06045,-0.70451 -1.056788,-0.61903 -0.996339,0.0855 z" />
    <path
       style="fill:#ff0000;stroke-width:0.264583"
       id="path682"
       d="m 94.592663,136.09134 c 0.07135,-0.73256 0.359079,-1.47382 0.963893,-1.93182 0.161594,-0.12236 0.350409,-0.20386 0.525613,-0.30579 0.201096,-0.0352 0.39947,-0.1173 0.60329,-0.10561 1.08554,0.0623 1.827466,1.32399 2.023655,2.26035 0.06672,0.31844 0.04901,0.64886 0.07352,0.97329 -0.108572,0.888 -0.383932,1.52898 -0.979464,2.19123 -0.10397,0.11562 -0.228409,0.21116 -0.346696,0.31208 -0.0544,0.0464 -0.187487,0.06 -0.170964,0.12957 0.07574,0.31891 0.275739,0.59476 0.413608,0.89214 0.930605,-0.2376 2.010812,-0.42817 2.886422,0.12167 0.70464,0.44248 0.74245,0.81591 1.06606,1.53369 -0.0153,0.32097 0.0526,0.65709 -0.0461,0.9629 -0.25563,0.79241 -0.91272,1.27285 -1.671846,1.54158 -1.07156,0.37933 -2.404475,0.40583 -3.50896,0.23918 -0.514297,-0.0776 -1.000866,-0.28348 -1.501299,-0.42522 -0.273888,-0.1959 -0.547777,-0.3918 -0.821666,-0.5877 -0.58574,-0.39611 -1.145934,0.43225 -0.560194,0.82836 v 0 c 0.372539,0.24127 0.74508,0.48253 1.117621,0.72379 0.576757,0.15339 1.138894,0.37986 1.730272,0.46015 2.233893,0.30328 5.617952,-0.0797 6.216062,-2.78528 0.10099,-0.45684 -0.0388,-0.93493 -0.0582,-1.40239 -0.21006,-0.39607 -0.34856,-0.83939 -0.63019,-1.18821 -1.0411,-1.28952 -2.762392,-1.49454 -4.252229,-1.02193 0.07744,0.29945 0.06084,0.64094 0.232326,0.89835 0.05648,0.0848 0.164618,-0.12063 0.240508,-0.1886 0.159317,-0.14269 0.325364,-0.28022 0.4644,-0.44274 0.42868,-0.50108 0.785241,-1.06995 0.977196,-1.7081 0.114705,-0.38134 0.132625,-0.78531 0.198937,-1.17796 -0.0445,-0.41093 -0.0344,-0.83153 -0.133508,-1.23281 -0.360995,-1.46166 -1.535655,-2.93248 -3.176022,-2.88362 -0.313261,0.009 -0.607644,0.15379 -0.911465,0.23068 -0.240099,0.15418 -0.500407,0.2807 -0.720291,0.46255 -0.690499,0.57105 -1.14853,1.49253 -1.216832,2.38464 -0.01421,0.18564 0.01595,0.37203 0.02392,0.55805 0.223779,0.67077 1.172382,0.35429 0.9486,-0.31647 z" />
  </g>
</svg>
