<?xml version="1.0" encoding="UTF-8" standalone="no"?>
<!-- Created with Inkscape (http://www.inkscape.org/) -->

<svg
   width="84.952934mm"
   height="139.91786mm"
   viewBox="0 0 84.952934 139.91786"
   version="1.1"
   id="svg1149"
   inkscape:version="1.2.2 (b0a8486541, 2022-12-01)"
   sodipodi:docname="1-çözüm.svg"
   xmlns:inkscape="http://www.inkscape.org/namespaces/inkscape"
   xmlns:sodipodi="http://sodipodi.sourceforge.net/DTD/sodipodi-0.dtd"
   xmlns="http://www.w3.org/2000/svg"
   xmlns:svg="http://www.w3.org/2000/svg">
  <sodipodi:namedview
     id="namedview1151"
     pagecolor="#ffffff"
     bordercolor="#000000"
     borderopacity="0.25"
     inkscape:showpageshadow="2"
     inkscape:pageopacity="0.0"
     inkscape:pagecheckerboard="0"
     inkscape:deskcolor="#d1d1d1"
     inkscape:document-units="mm"
     showgrid="false"
     inkscape:zoom="1.2614024"
     inkscape:cx="130.41041"
     inkscape:cy="329.39529"
     inkscape:window-width="1916"
     inkscape:window-height="1029"
     inkscape:window-x="0"
     inkscape:window-y="49"
     inkscape:window-maximized="1"
     inkscape:current-layer="layer1" />
  <defs
     id="defs1146" />
  <g
     inkscape:label="Layer 1"
     inkscape:groupmode="layer"
     id="layer1"
     transform="translate(-65.186805,-119.47544)">
    <path
       style="fill:#ff0075;fill-opacity:0;stroke:#030303;stroke-width:0.7;stroke-linecap:round;stroke-linejoin:round"
       d="m 68.1032,131.04328 c -0.93912,0.1341 -0.607362,-0.0608 -1.330725,0.85512 -0.634036,0.80279 -0.788461,0.93143 -1.045569,1.80525 -0.08242,0.28012 -0.190101,0.56312 -0.190101,0.85512 0,0.42269 0.558311,1.1995 0.950516,1.33018 0.509585,0.16979 1.917155,-0.05 1.996085,-0.76011 0.107204,-0.96443 -2.091134,-1.7282 -2.091134,-0.38005"
       id="path789" />
    <path
       style="fill:#ff0075;fill-opacity:0;stroke:#030303;stroke-width:0.7;stroke-linecap:round;stroke-linejoin:round"
       d="m 76.372694,122.01703 c -0.752076,0.25059 -1.442345,0.42631 -2.091137,0.95013 -1.946733,1.57172 -3.803513,4.84132 -2.946601,7.41103 0.705913,2.11688 1.789887,3.04047 4.087222,2.56535 1.076169,-0.22256 1.452822,-0.5191 2.281238,-1.14016 0.07169,-0.0538 0.25347,-0.12668 0.190103,-0.19002 -0.02773,-0.0277 -0.958887,0.43174 -1.235673,0.57008"
       id="path791" />
    <path
       style="fill:#ff0075;fill-opacity:0;stroke:#030303;stroke-width:0.7;stroke-linecap:round;stroke-linejoin:round"
       d="m 91.010647,125.4375 c 0.905487,-1.76424 1.887503,-3.63788 2.281238,-5.60578 0.01389,-0.0695 -0.07147,0.12325 -0.09505,0.19003 -0.16673,0.47221 -0.328864,0.94629 -0.475258,1.4252 -0.202207,0.66151 -0.421404,1.31976 -0.570306,1.99527 -0.26343,1.19508 -0.570257,2.39044 -0.665364,3.61051 -0.09603,1.23184 0.01632,2.47244 0.09505,3.70551 0.01664,0.26064 0.121362,0.50814 0.190109,0.7601 0.02635,0.0966 0.126732,0.19003 0.09505,0.28504 -0.09463,0.28377 -0.502652,-0.33981 -0.570306,-0.47506"
       id="path797" />
    <path
       style="fill:#ff0075;fill-opacity:0;stroke:#030303;stroke-width:0.7;stroke-linecap:round;stroke-linejoin:round"
       d="m 97.759316,128.19288 c 0.04533,-0.30457 0.175374,-0.72397 0.09505,-1.04514 -0.121393,-0.48538 -1.747692,1.41626 -1.710928,1.71023 0.133985,1.07141 3.904352,0.98686 3.136702,2.8504 -0.137557,0.33394 -0.380233,0.63344 -0.665359,0.85512 -1.059923,0.82405 -3.01571,0.98758 -4.087222,0.095 -0.230868,-0.19231 -0.369967,-0.56687 -0.285152,-0.85512 0.101163,-0.34382 0.506939,-0.50674 0.76041,-0.76011"
       id="path799" />
    <path
       style="fill:#ff0075;fill-opacity:0;stroke:#030303;stroke-width:0.7;stroke-linecap:round;stroke-linejoin:round"
       d="m 99.660347,124.77241 c -0.385037,-0.20506 0.625583,-1.27494 0.855463,-1.04515 0.51245,0.51225 -0.554594,2.02512 -0.950514,2.47035 -0.122754,0.13804 -0.344609,0.41563 -0.475258,0.28503 -0.237096,-0.237 1.064642,-0.59613 1.425772,-0.19002 0.0343,0.0386 0.29967,1.01105 0.66537,0.95013 0.28628,-0.0477 0.453,-0.28504 0.76041,-0.28504"
       id="path801" />
    <path
       style="fill:#ff0075;fill-opacity:0;stroke:#030303;stroke-width:0.7;stroke-linecap:round;stroke-linejoin:round"
       d="m 109.26057,125.62753 c 0.21134,-1.48353 1.16222,-3.57141 2.37628,-4.46562 0.16134,-0.11883 0.46526,0.0194 0.57031,0.19002 0.31035,0.50412 0.17477,2.32395 0.0951,2.66037 -0.62297,2.62929 -2.07973,4.23802 -3.99217,5.98583 -0.5114,0.46738 -1.58048,1.40429 -2.37629,1.71024 -0.10413,0.04 -0.54985,0.10673 -0.3802,-0.19003 0.59798,-1.04605 3.75216,-1.95015 4.65753,-1.04514 0.26124,0.26114 0.25353,0.76014 0.57031,0.95013 0.35257,0.21146 1.61588,-1.0214 1.61588,-1.33018"
       id="path803" />
    <path
       style="fill:#ff0075;fill-opacity:0;stroke:#030303;stroke-width:0.7;stroke-linecap:round;stroke-linejoin:round"
       d="m 117.53006,127.33776 c -1.13416,-0.10306 -1.01961,-0.34698 -1.80598,0.57008 -0.16623,0.19386 -0.3068,0.42051 -0.38021,0.6651 -0.0835,0.27834 0.50848,0.62576 0.57031,0.66509 0.17932,0.11407 0.39099,0.17097 0.57031,0.28504 1.00455,0.639 1.19313,1.72275 0.38021,2.66037 -1.04985,1.21087 -3.77343,1.45382 -4.94269,0.28503 -0.14346,-0.1434 0.29626,-0.28462 0.47526,-0.38005 0.30111,-0.16052 0.63368,-0.25337 0.95051,-0.38005"
       id="path805" />
    <path
       style="fill:#ff0075;fill-opacity:0;stroke:#030303;stroke-width:0.7;stroke-linecap:round;stroke-linejoin:round"
       d="m 119.43109,125.4375 c -0.38532,-0.93866 1.14259,-2.21243 1.99609,-1.61522 1.10622,0.77404 -0.83094,2.18486 -1.33073,2.47034 -0.20983,0.11986 -0.61941,0.095 -0.85546,0.095 -0.0317,0 -0.12339,-0.0142 -0.0951,0 0.39655,0.1982 1.11191,0.28504 1.52082,0.28504 0.18831,0 1.27949,-0.21564 1.52083,-0.095 0.0401,0.02 -0.0503,0.095 -0.0951,0.095 -0.0708,0 -0.12673,-0.0633 -0.1901,-0.095"
       id="path807" />
    <path
       style="fill:#ff0075;fill-opacity:0;stroke:#030303;stroke-width:0.7;stroke-linecap:round;stroke-linejoin:round"
       d="m 131.12245,124.67739 c -0.21503,-0.84578 1.36517,-3.79414 1.90103,-3.32546 0.91147,0.79722 0.13395,3.61585 0.0951,3.80053 -0.47018,2.23246 -1.7766,4.38371 -3.13671,6.17586 -0.87152,1.14836 -0.7508,1.15662 -1.99609,1.61522 -0.24517,0.0903 -0.49915,0.19003 -0.76042,0.19003 -0.0896,0 -0.26007,-0.13407 -0.1901,-0.19003 0.25834,-0.20658 0.6367,-0.18047 0.95052,-0.28504 0.47526,-0.15835 0.95051,-0.31671 1.42578,-0.47506 0.0951,0 0.19262,0.0217 0.28515,0 1.10763,-0.26052 1.30971,-0.62904 2.37629,-0.19003 0.89839,0.36977 0.34255,0.3932 0.76042,0.95013 0.0951,0.1267 0.22181,0.28504 0.3802,0.28504 0.13944,0 0.72706,-0.86544 0.85547,-1.04514"
       id="path809" />
    <path
       style="fill:#ff0075;fill-opacity:0;stroke:#030303;stroke-width:0.7;stroke-linecap:round;stroke-linejoin:round"
       d="m 136.5404,128.19288 c 0.23717,0.82977 0.28467,0.76539 0.1901,1.80525 -0.15838,1.74139 -0.51702,3.11236 -0.95052,4.84567 -0.14356,0.57401 -0.3317,1.13624 -0.47526,1.71024 -0.0784,0.31334 -0.11745,0.63542 -0.19011,0.95013 -0.0225,0.0976 -0.0242,0.35585 -0.095,0.28505 -0.11422,-0.11418 -0.0634,-0.31672 -0.0951,-0.47507"
       id="path811" />
    <path
       style="fill:#ff0075;fill-opacity:0;stroke:#030303;stroke-width:0.7;stroke-linecap:round;stroke-linejoin:round"
       d="m 136.16018,130.09315 c 0.34917,-0.58171 0.43565,-0.79224 1.04557,-1.33019 2.94294,-2.59566 3.77298,3.19021 1.33072,3.80053 -0.76012,0.18995 -2.33954,-0.32468 -3.04164,-0.47507"
       id="path813" />
    <path
       style="fill:#ff0075;fill-opacity:0;stroke:#030303;stroke-width:0.7;stroke-linecap:round;stroke-linejoin:round"
       d="m 140.0573,124.20233 c 0.11527,-0.42085 0.35028,-0.77357 0.57031,-1.14016 0.2503,-0.417 1.23954,-2.08857 2.09113,-1.71024 0.16377,0.0727 0.32353,0.21006 0.38022,0.38006 0.278,0.83366 -0.36374,2.206 -1.04557,2.66036 -0.18869,0.12574 -0.55467,0.095 -0.76042,0.095 -0.23065,0 0.43918,0.14481 0.66536,0.19003 0.33373,0.0667 2.09114,0.15918 2.09114,-0.28504"
       id="path815" />
    <circle
       style="fill:#ff0075;fill-opacity:0;stroke:#030303;stroke-width:0.7;stroke-linecap:round;stroke-linejoin:round"
       id="path869"
       cx="89.109619"
       cy="148.43829"
       r="4.7525821" />
    <circle
       style="fill:#ff0075;fill-opacity:0;stroke:#030303;stroke-width:0.7;stroke-linecap:round;stroke-linejoin:round"
       id="circle871"
       cx="89.109619"
       cy="148.43829"
       r="4.7525821" />
    <path
       style="fill:#ff0075;fill-opacity:0;stroke:#030303;stroke-width:0.7;stroke-linecap:round;stroke-linejoin:round"
       d="m 84.452084,143.40259 9.029907,9.12127"
       id="path883" />
    <path
       style="fill:#ff0075;fill-opacity:0;stroke:#030303;stroke-width:0.7;stroke-linecap:round;stroke-linejoin:round"
       d="m 94.052293,143.21257 -9.695265,9.88137"
       id="path887" />
    <circle
       style="fill:#ff0075;fill-opacity:0;stroke:#030303;stroke-width:0.7;stroke-linecap:round;stroke-linejoin:round"
       id="circle889"
       cx="103.93768"
       cy="148.43829"
       r="4.7525821" />
    <circle
       style="fill:#ff0075;fill-opacity:0;stroke:#030303;stroke-width:0.7;stroke-linecap:round;stroke-linejoin:round"
       id="circle891"
       cx="103.93768"
       cy="148.43829"
       r="4.7525821" />
    <path
       style="fill:#ff0075;fill-opacity:0;stroke:#030303;stroke-width:0.7;stroke-linecap:round;stroke-linejoin:round"
       d="m 99.280144,143.40259 9.029906,9.12127"
       id="path893" />
    <path
       style="fill:#ff0075;fill-opacity:0;stroke:#030303;stroke-width:0.7;stroke-linecap:round;stroke-linejoin:round"
       d="m 108.88035,143.21257 -9.695262,9.88137"
       id="path895" />
    <circle
       style="fill:#ff0075;fill-opacity:0;stroke:#030303;stroke-width:0.7;stroke-linecap:round;stroke-linejoin:round"
       id="circle897"
       cx="119.241"
       cy="148.43829"
       r="4.7525821" />
    <circle
       style="fill:#ff0075;fill-opacity:0;stroke:#030303;stroke-width:0.7;stroke-linecap:round;stroke-linejoin:round"
       id="circle899"
       cx="119.241"
       cy="148.43829"
       r="4.7525821" />
    <path
       style="fill:#ff0075;fill-opacity:0;stroke:#030303;stroke-width:0.7;stroke-linecap:round;stroke-linejoin:round"
       d="m 114.58346,143.40259 9.0299,9.12127"
       id="path901" />
    <circle
       style="fill:#ff0075;fill-opacity:0;stroke:#030303;stroke-width:0.7;stroke-linecap:round;stroke-linejoin:round"
       id="circle905"
       cx="129.60162"
       cy="148.43829"
       r="4.7525821" />
    <circle
       style="fill:#ff0075;fill-opacity:0;stroke:#030303;stroke-width:0.7;stroke-linecap:round;stroke-linejoin:round"
       id="circle907"
       cx="129.60162"
       cy="148.43829"
       r="4.7525821" />
    <path
       style="fill:#ff0075;fill-opacity:0;stroke:#030303;stroke-width:0.7;stroke-linecap:round;stroke-linejoin:round"
       d="m 124.94409,143.40259 9.02991,9.12127"
       id="path909" />
    <circle
       style="fill:#ff0075;fill-opacity:0;stroke:#030303;stroke-width:0.7;stroke-linecap:round;stroke-linejoin:round"
       id="circle913"
       cx="140.0573"
       cy="148.43829"
       r="4.7525821" />
    <circle
       style="fill:#ff0075;fill-opacity:0;stroke:#030303;stroke-width:0.7;stroke-linecap:round;stroke-linejoin:round"
       id="circle915"
       cx="140.0573"
       cy="148.43829"
       r="4.7525821" />
    <path
       style="fill:#ff0075;fill-opacity:0;stroke:#030303;stroke-width:0.7;stroke-linecap:round;stroke-linejoin:round"
       d="m 106.78922,154.32911 c 0.0317,0.2217 0.002,0.46123 0.0951,0.66509 0.74866,1.64639 2.34777,3.20265 3.61196,4.27559 4.3523,3.69385 10.69327,1.76575 15.58848,0.38005 3.82378,-1.0824 7.60631,-2.26445 11.4062,-3.42047"
       id="path927" />
    <path
       style="fill:#ff0075;fill-opacity:0;stroke:#030303;stroke-width:0.7;stroke-linecap:round;stroke-linejoin:round"
       d="m 134.92451,154.42412 c 0.64453,0.0586 1.76888,0.16754 2.37629,0.19003 0.41161,0.0152 0.82378,0 1.23567,0 0.19011,0 0.38996,-0.0601 0.57032,0 0.15007,0.05 -0.25255,0.67513 -0.47526,0.95013 -0.13998,0.17285 -2.48816,2.41441 -1.42578,2.94541"
       id="path929" />
    <circle
       style="fill:#ff0075;fill-opacity:0;stroke:#030303;stroke-width:0.7;stroke-linecap:round;stroke-linejoin:round"
       id="circle931"
       cx="89.109619"
       cy="172.76166"
       r="4.7525821" />
    <circle
       style="fill:#ff0075;fill-opacity:0;stroke:#030303;stroke-width:0.7;stroke-linecap:round;stroke-linejoin:round"
       id="circle933"
       cx="89.109619"
       cy="172.76166"
       r="4.7525821" />
    <path
       style="fill:#ff0075;fill-opacity:0;stroke:#030303;stroke-width:0.7;stroke-linecap:round;stroke-linejoin:round"
       d="m 84.452084,167.72597 9.029907,9.12126"
       id="path935" />
    <path
       style="fill:#ff0075;fill-opacity:0;stroke:#030303;stroke-width:0.7;stroke-linecap:round;stroke-linejoin:round"
       d="m 94.052293,167.53594 -9.695265,9.88137"
       id="path937" />
    <circle
       style="fill:#ff0075;fill-opacity:0;stroke:#030303;stroke-width:0.7;stroke-linecap:round;stroke-linejoin:round"
       id="circle939"
       cx="103.93768"
       cy="172.76166"
       r="4.7525821" />
    <circle
       style="fill:#ff0075;fill-opacity:0;stroke:#030303;stroke-width:0.7;stroke-linecap:round;stroke-linejoin:round"
       id="circle941"
       cx="103.93768"
       cy="172.76166"
       r="4.7525821" />
    <path
       style="fill:#ff0075;fill-opacity:0;stroke:#030303;stroke-width:0.7;stroke-linecap:round;stroke-linejoin:round"
       d="m 99.280144,167.72597 9.029906,9.12126"
       id="path943" />
    <circle
       style="fill:#ff0075;fill-opacity:0;stroke:#030303;stroke-width:0.7;stroke-linecap:round;stroke-linejoin:round"
       id="circle947"
       cx="119.241"
       cy="172.76166"
       r="4.7525821" />
    <circle
       style="fill:#ff0075;fill-opacity:0;stroke:#030303;stroke-width:0.7;stroke-linecap:round;stroke-linejoin:round"
       id="circle949"
       cx="119.241"
       cy="172.76166"
       r="4.7525821" />
    <path
       style="fill:#ff0075;fill-opacity:0;stroke:#030303;stroke-width:0.7;stroke-linecap:round;stroke-linejoin:round"
       d="m 114.58346,167.72597 9.0299,9.12126"
       id="path951" />
    <circle
       style="fill:#ff0075;fill-opacity:0;stroke:#030303;stroke-width:0.7;stroke-linecap:round;stroke-linejoin:round"
       id="circle953"
       cx="129.60162"
       cy="172.76166"
       r="4.7525821" />
    <circle
       style="fill:#ff0075;fill-opacity:0;stroke:#030303;stroke-width:0.7;stroke-linecap:round;stroke-linejoin:round"
       id="circle955"
       cx="129.60162"
       cy="172.76166"
       r="4.7525821" />
    <path
       style="fill:#ff0075;fill-opacity:0;stroke:#030303;stroke-width:0.7;stroke-linecap:round;stroke-linejoin:round"
       d="m 124.94409,167.72597 9.02991,9.12126"
       id="path957" />
    <circle
       style="fill:#ff0075;fill-opacity:0;stroke:#030303;stroke-width:0.7;stroke-linecap:round;stroke-linejoin:round"
       id="circle959"
       cx="140.0573"
       cy="172.76166"
       r="4.7525821" />
    <circle
       style="fill:#ff0075;fill-opacity:0;stroke:#030303;stroke-width:0.7;stroke-linecap:round;stroke-linejoin:round"
       id="circle961"
       cx="140.0573"
       cy="172.76166"
       r="4.7525821" />
    <path
       style="fill:#ff0075;fill-opacity:0;stroke:#030303;stroke-width:0.7;stroke-linecap:round;stroke-linejoin:round"
       d="m 135.39977,167.72597 9.02991,9.12126"
       id="path963" />
    <circle
       style="fill:#ff0075;fill-opacity:0;stroke:#030303;stroke-width:0.7;stroke-linecap:round;stroke-linejoin:round"
       id="circle1487"
       cx="103.18485"
       cy="208.7326"
       r="4.7525821" />
    <circle
       style="fill:#ff0075;fill-opacity:0;stroke:#030303;stroke-width:0.7;stroke-linecap:round;stroke-linejoin:round"
       id="circle1489"
       cx="103.18485"
       cy="208.7326"
       r="4.7525821" />
    <path
       style="fill:#ff0075;fill-opacity:0;stroke:#030303;stroke-width:0.7;stroke-linecap:round;stroke-linejoin:round"
       d="m 98.52731,203.69691 9.02991,9.12126"
       id="path1491" />
    <circle
       style="fill:#ff0075;fill-opacity:0;stroke:#030303;stroke-width:0.7;stroke-linecap:round;stroke-linejoin:round"
       id="circle1493"
       cx="118.48817"
       cy="208.7326"
       r="4.7525821" />
    <circle
       style="fill:#ff0075;fill-opacity:0;stroke:#030303;stroke-width:0.7;stroke-linecap:round;stroke-linejoin:round"
       id="circle1495"
       cx="118.48817"
       cy="208.7326"
       r="4.7525821" />
    <path
       style="fill:#ff0075;fill-opacity:0;stroke:#030303;stroke-width:0.7;stroke-linecap:round;stroke-linejoin:round"
       d="m 113.83063,203.69691 9.0299,9.12126"
       id="path1497" />
    <circle
       style="fill:#ff0075;fill-opacity:0;stroke:#030303;stroke-width:0.7;stroke-linecap:round;stroke-linejoin:round"
       id="circle1499"
       cx="128.84879"
       cy="208.7326"
       r="4.7525821" />
    <circle
       style="fill:#ff0075;fill-opacity:0;stroke:#030303;stroke-width:0.7;stroke-linecap:round;stroke-linejoin:round"
       id="circle1501"
       cx="128.84879"
       cy="208.7326"
       r="4.7525821" />
    <path
       style="fill:#ff0075;fill-opacity:0;stroke:#030303;stroke-width:0.7;stroke-linecap:round;stroke-linejoin:round"
       d="m 124.19126,203.69691 9.02991,9.12126"
       id="path1503" />
    <circle
       style="fill:#ff0075;fill-opacity:0;stroke:#030303;stroke-width:0.7;stroke-linecap:round;stroke-linejoin:round"
       id="circle1505"
       cx="139.30446"
       cy="208.7326"
       r="4.7525821" />
    <circle
       style="fill:#ff0075;fill-opacity:0;stroke:#030303;stroke-width:0.7;stroke-linecap:round;stroke-linejoin:round"
       id="circle1507"
       cx="139.30446"
       cy="208.7326"
       r="4.7525821" />
    <path
       style="fill:#ff0075;fill-opacity:0;stroke:#030303;stroke-width:0.7;stroke-linecap:round;stroke-linejoin:round"
       d="m 134.64694,203.69691 9.02991,9.12126"
       id="path1509" />
    <path
       style="fill:#ff0075;fill-opacity:0;stroke:#030303;stroke-width:0.7;stroke-linecap:round;stroke-linejoin:round"
       d="m 145.44777,178.90416 c 4.05418,3.44594 5.28225,9.97564 3.61362,14.9001 -1.3695,4.04165 -3.34985,5.80198 -6.02268,9.03035"
       id="path1515" />
    <path
       style="fill:#ff0075;fill-opacity:0;stroke:#030303;stroke-width:0.7;stroke-linecap:round;stroke-linejoin:round"
       d="m 144.09268,195.61033 c 0,1.22667 0.0689,1.20235 -0.30114,2.5586 -0.16704,0.61224 -0.3665,1.21688 -0.60227,1.80607 -0.15196,0.37974 -1.10206,2.26385 -1.05396,2.40809 0.17996,0.53969 1.7477,0.14852 2.55963,-0.1505 0.63507,-0.23388 1.82496,-1.11973 2.55964,-0.75253"
       id="path1517" />
    <circle
       style="fill:#ff0075;fill-opacity:0;stroke:#ff0000;stroke-width:0.7;stroke-linecap:round;stroke-linejoin:round;stroke-opacity:1"
       id="circle1519"
       cx="-103.18485"
       cy="220.47208"
       r="4.7525821"
       transform="scale(-1,1)" />
    <circle
       style="fill:#ff0075;fill-opacity:0;stroke:#ff0000;stroke-width:0.7;stroke-linecap:round;stroke-linejoin:round;stroke-opacity:1"
       id="circle1521"
       cx="-103.18485"
       cy="220.47208"
       r="4.7525821"
       transform="scale(-1,1)" />
    <path
       style="fill:#ff0075;fill-opacity:0;stroke:#ff0000;stroke-width:0.7;stroke-linecap:round;stroke-linejoin:round;stroke-opacity:1"
       d="m 107.8424,215.43639 -9.029915,9.12126"
       id="path1523" />
    <circle
       style="fill:#ff0075;fill-opacity:0;stroke:#ff0000;stroke-width:0.7;stroke-linecap:round;stroke-linejoin:round;stroke-opacity:1"
       id="circle1525"
       cx="-139.30446"
       cy="220.47208"
       r="4.7525821"
       transform="scale(-1,1)" />
    <circle
       style="fill:#ff0075;fill-opacity:0;stroke:#ff0000;stroke-width:0.7;stroke-linecap:round;stroke-linejoin:round;stroke-opacity:1"
       id="circle1527"
       cx="-139.30446"
       cy="220.47208"
       r="4.7525821"
       transform="scale(-1,1)" />
    <path
       style="fill:#ff0075;fill-opacity:0;stroke:#ff0000;stroke-width:0.7;stroke-linecap:round;stroke-linejoin:round;stroke-opacity:1"
       d="m 143.962,215.43639 -9.0299,9.12126"
       id="path1529" />
    <circle
       style="fill:#ff0075;fill-opacity:0;stroke:#ff0000;stroke-width:0.7;stroke-linecap:round;stroke-linejoin:round;stroke-opacity:1"
       id="circle1531"
       cx="-128.94385"
       cy="220.47208"
       r="4.7525821"
       transform="scale(-1,1)" />
    <circle
       style="fill:#ff0075;fill-opacity:0;stroke:#ff0000;stroke-width:0.7;stroke-linecap:round;stroke-linejoin:round;stroke-opacity:1"
       id="circle1533"
       cx="-128.94385"
       cy="220.47208"
       r="4.7525821"
       transform="scale(-1,1)" />
    <path
       style="fill:#ff0075;fill-opacity:0;stroke:#ff0000;stroke-width:0.7;stroke-linecap:round;stroke-linejoin:round;stroke-opacity:1"
       d="m 133.60137,215.43639 -9.02991,9.12126"
       id="path1535" />
    <circle
       style="fill:#ff0075;fill-opacity:0;stroke:#ff0000;stroke-width:0.7;stroke-linecap:round;stroke-linejoin:round;stroke-opacity:1"
       id="circle1537"
       cx="-118.48817"
       cy="220.47208"
       r="4.7525821"
       transform="scale(-1,1)" />
    <circle
       style="fill:#ff0075;fill-opacity:0;stroke:#ff0000;stroke-width:0.7;stroke-linecap:round;stroke-linejoin:round;stroke-opacity:1"
       id="circle1539"
       cx="-118.48817"
       cy="220.47208"
       r="4.7525821"
       transform="scale(-1,1)" />
    <path
       style="fill:#ff0075;fill-opacity:0;stroke:#ff0000;stroke-width:0.7;stroke-linecap:round;stroke-linejoin:round;stroke-opacity:1"
       d="m 123.14569,215.43639 -9.02991,9.12126"
       id="path1541" />
    <path
       style="fill:#ff0018;fill-opacity:1;stroke:#ff0000;stroke-width:0.7;stroke-linecap:round;stroke-linejoin:round;stroke-opacity:1"
       d="m 100.27769,228.11963 c -0.297994,3.2766 -0.13048,-0.0399 0.15056,3.61214 0.05,0.65027 0,1.30439 0,1.95659 0,2.47905 0.5677,1.8406 -0.15056,2.5586"
       id="path2168" />
    <path
       style="fill:#ff0018;fill-opacity:1;stroke:#ff0000;stroke-width:0.7;stroke-linecap:round;stroke-linejoin:round;stroke-opacity:1"
       d="m 99.976555,232.78531 c 0.704315,-0.22864 3.012985,-0.15212 3.914735,-1.05354"
       id="path2170" />
    <path
       style="fill:#ff0018;fill-opacity:1;stroke:#ff0000;stroke-width:0.7;stroke-linecap:round;stroke-linejoin:round;stroke-opacity:1"
       d="m 102.83733,227.21659 c -0.0848,2.72401 0.60226,5.40442 0.60226,8.12733"
       id="path2172" />
    <path
       style="fill:#ff0018;fill-opacity:1;stroke:#ff0000;stroke-width:0.7;stroke-linecap:round;stroke-linejoin:round;stroke-opacity:1"
       d="m 115.18382,227.51761 c 0.21023,1.08193 0.87501,5.77602 0.30113,6.92328 -0.002,0.004 0.14836,-0.4471 0.15057,-0.45153"
       id="path2174" />
    <path
       style="fill:#ff0018;fill-opacity:1;stroke:#ff0000;stroke-width:0.7;stroke-linecap:round;stroke-linejoin:round;stroke-opacity:1"
       d="m 115.03325,230.97924 c 2.53715,0.12465 3.73371,0.63247 5.26985,-0.90303"
       id="path2176" />
    <path
       style="fill:#ff0018;fill-opacity:1;stroke:#ff0000;stroke-width:0.7;stroke-linecap:round;stroke-linejoin:round;stroke-opacity:1"
       d="m 119.39969,226.61457 c 0.22842,4.56664 0.0859,2.00758 0.4517,7.6758"
       id="path2178" />
    <path
       style="fill:#ff0018;fill-opacity:1;stroke:#ff0000;stroke-width:0.7;stroke-linecap:round;stroke-linejoin:round;stroke-opacity:1"
       d="m 126.62691,227.51761 c 0,0.35118 0.0195,0.7029 0,1.05354 -0.10531,1.89477 -0.18894,3.68005 0,5.56872 0.015,0.14976 -0.0673,0.31692 0,0.45152 0.0317,0.0635 0.10037,-0.10034 0.15056,-0.1505"
       id="path2180" />
    <path
       style="fill:#ff0018;fill-opacity:1;stroke:#ff0000;stroke-width:0.7;stroke-linecap:round;stroke-linejoin:round;stroke-opacity:1"
       d="m 126.47634,231.73177 c 1.70484,-0.1124 2.96932,-0.20477 4.36644,-0.90303"
       id="path2182" />
    <path
       style="fill:#ff0018;fill-opacity:1;stroke:#ff0000;stroke-width:0.7;stroke-linecap:round;stroke-linejoin:round;stroke-opacity:1"
       d="m 130.69222,225.41052 c -0.62605,3.12901 -0.13648,0.37326 0.15056,7.97682 0.009,0.25067 -0.0492,0.50656 0,0.75253 0.0139,0.0696 0.15057,-0.0795 0.15057,-0.15051"
       id="path2184" />
    <path
       style="fill:#ff0018;fill-opacity:1;stroke:#ff0000;stroke-width:0.7;stroke-linecap:round;stroke-linejoin:round;stroke-opacity:1"
       d="m 137.31717,228.11963 c 0.35995,2.35869 0,4.71239 0,7.07379"
       id="path2194" />
    <path
       style="fill:#ff0018;fill-opacity:1;stroke:#ff0000;stroke-width:0.7;stroke-linecap:round;stroke-linejoin:round;stroke-opacity:1"
       d="m 136.7149,232.03278 c 3.49175,-0.47595 2.38516,0.16648 3.76417,-0.75253"
       id="path2196" />
    <path
       style="fill:#ff0018;fill-opacity:1;stroke:#ff0000;stroke-width:0.7;stroke-linecap:round;stroke-linejoin:round;stroke-opacity:1"
       d="m 140.02737,227.66811 c -0.43079,3.44475 -0.15956,0.79967 0,7.97683"
       id="path2198" />
    <path
       style="fill:#ff0018;fill-opacity:0;stroke:#000000;stroke-width:0.7;stroke-linecap:round;stroke-linejoin:round;stroke-opacity:1"
       d="m 97.490715,203.40469 c 0.08623,-0.34477 0.241917,-0.57656 0,-0.89899 -0.270515,-0.36054 -1.134295,-0.0807 -1.413272,0.12843 -0.05654,0.0424 0.156605,0.24426 0.321199,0.38528 0.273892,0.23467 1.052042,0.79457 0.449678,1.15584 -0.447111,0.26816 -0.786857,0.26922 -1.28479,0.19264 -0.107918,-0.0166 -0.212016,-0.0642 -0.321201,-0.0642 -0.07719,0 0.07389,0.13808 0.128479,0.19264"
       id="path2907" />
    <path
       style="fill:#ff0018;fill-opacity:0;stroke:#000000;stroke-width:0.7;stroke-linecap:round;stroke-linejoin:round;stroke-opacity:1"
       d="m 112.20158,201.02879 c 0.33302,1.36909 0.16369,2.59377 -0.19272,3.91703 -0.06,0.22261 -0.25696,0.87268 -0.25696,0.64213"
       id="path3289" />
    <path
       style="fill:#ff0018;fill-opacity:0;stroke:#000000;stroke-width:0.7;stroke-linecap:round;stroke-linejoin:round;stroke-opacity:1"
       d="m 111.81615,201.99199 c 0.63105,-1.10583 1.90548,-0.59792 1.67022,0.57793 -0.0596,0.29796 -1.64719,0.28766 -1.86294,0.25685 -0.15432,-0.022 -0.29979,-0.0856 -0.44968,-0.12843"
       id="path3291" />
    <path
       style="fill:#ff0018;fill-opacity:0;stroke:#000000;stroke-width:0.7;stroke-linecap:round;stroke-linejoin:round;stroke-opacity:1"
       d="m 123.44351,201.79935 c 0.19413,0.97917 0.0653,1.92097 -0.12848,2.88961 -0.0726,0.36307 0.0449,0.32107 -0.19272,0.32107"
       id="path3293" />
    <path
       style="fill:#ff0018;fill-opacity:0;stroke:#000000;stroke-width:0.7;stroke-linecap:round;stroke-linejoin:round;stroke-opacity:1"
       d="m 122.80111,201.92778 c 0.3212,-0.23545 0.59752,-0.54952 0.9636,-0.70635 0.47256,-0.20244 1.0937,1.05871 0.77087,1.22006 -0.52479,0.26229 -1.53779,-0.45742 -1.86295,0.19264"
       id="path3295" />
    <path
       style="fill:#ff0018;fill-opacity:0;stroke:#000000;stroke-width:0.7;stroke-linecap:round;stroke-linejoin:round;stroke-opacity:1"
       d="m 133.6576,205.3311 c 0.51192,-0.51156 0.46632,-3.322 0.51392,-3.85282 0.21413,-0.25685 0.38965,-0.5516 0.6424,-0.77056 0.0825,-0.0715 0.21201,-0.0642 0.3212,-0.0642 0.48302,0 0.83959,0.49803 0.70663,0.9632 -0.1239,0.43349 -1.34903,0.10402 -1.34903,0.57793"
       id="path3297" />
    <path
       style="fill:#ff0018;fill-opacity:0;stroke:#ff1407;stroke-width:0.7;stroke-linecap:round;stroke-linejoin:round;stroke-opacity:1"
       d="m 98.261589,225.42995 c -0.364024,0 -0.734276,-0.0671 -1.09207,0 -0.134731,0.0252 0.145397,0.24142 0.256956,0.32107 0.142655,0.10186 1.447569,1.00062 1.220554,1.28427 -0.474742,0.59319 -2.089618,0.0888 -2.762303,0.25686 -0.14542,0.0363 0.315601,0.067 0.449678,0"
       id="path3299" />
    <path
       style="fill:#ff0018;fill-opacity:0;stroke:#ff1407;stroke-width:0.7;stroke-linecap:round;stroke-linejoin:round;stroke-opacity:1"
       d="m 113.74333,225.10889 c 0.10774,-0.26924 0.19743,-0.31166 0.0642,-0.57793 -0.23178,-0.46337 -1.07019,-0.26857 -0.77087,0.4495 0.11602,0.27834 1.26046,1.09381 0.83511,1.4127 -0.43115,0.32323 -0.97402,-0.0657 -1.41327,-0.12843 -0.31966,-0.0456 -0.56186,0.009 -0.51392,0.12843 0.1604,0.40082 0.64706,0.0627 0.83512,0"
       id="path4563" />
    <path
       style="fill:#ff0018;fill-opacity:0;stroke:#ff1407;stroke-width:0.7;stroke-linecap:round;stroke-linejoin:round;stroke-opacity:1"
       d="m 125.56341,225.1731 c -0.20267,-0.40518 -0.0815,-0.41624 -0.51391,-0.4495 -0.40627,-0.0312 -1.44086,0.0733 -1.09207,0.77056 0.01,0.0192 0.0475,-0.0134 0.0642,0 0.0946,0.0756 0.1658,0.17713 0.25695,0.25686 0.24491,0.21421 1.37511,0.84686 1.15632,1.28427 -0.29918,0.59811 -1.22063,0.009 -1.54176,-0.12843 -0.21197,-0.0908 -0.42714,-0.17409 -0.64239,-0.25685 -0.0632,-0.0243 -0.25696,-0.0856 -0.19272,-0.0642 0.8115,0.27039 0.50003,0.25685 0.89936,0.25685"
       id="path4567" />
    <path
       style="fill:#ff0018;fill-opacity:0;stroke:#ff1407;stroke-width:0.7;stroke-linecap:round;stroke-linejoin:round;stroke-opacity:1"
       d="m 135.90599,224.91624 c -0.19272,0.10703 -0.39471,0.19883 -0.57815,0.32107 -0.20915,0.13937 0.54574,0.60975 0.64239,0.70635 0.11825,0.11821 0.22529,0.24832 0.3212,0.38528 0.38549,0.55049 -0.006,1.22889 -0.51392,1.54113 -0.11094,0.0682 -0.25519,0.0642 -0.38544,0.0642 -0.6848,0 -1.15774,-0.11939 -1.60599,-0.64213 -0.0312,-0.0363 -0.0794,-0.083 -0.0642,-0.12843 0.0186,-0.0557 0.56861,-0.18734 0.57816,-0.19264 0.0675,-0.0375 0.0856,-0.12843 0.12848,-0.19264"
       id="path4569" />
    <rect
       style="fill:#ff0018;fill-opacity:0;stroke:#000000;stroke-width:0.7;stroke-linecap:round;stroke-linejoin:round;stroke-opacity:0.465395"
       id="rect4765"
       width="14.903583"
       height="40.968273"
       x="94.021767"
       y="197.05016"
       ry="2.6013389" />
    <path
       id="rect4769"
       style="fill:#ff0018;fill-opacity:0;stroke:#000000;stroke-width:0.7;stroke-linecap:round;stroke-linejoin:round;stroke-dasharray:none;stroke-opacity:0.465395"
       d="m 126.27537,196.45931 c -1.58221,0.11469 -2.78877,1.82569 -2.60211,3.52755 0.0118,11.94673 -0.0238,23.89528 0.0178,35.84088 0.13076,1.71025 1.68028,2.99484 3.2157,2.79499 1.67441,-0.046 3.36091,0.0928 5.0279,-0.0703 1.47429,-0.30507 2.45027,-1.97431 2.26481,-3.57095 -0.0119,-11.91336 0.0238,-23.82856 -0.0177,-35.74079 -0.1313,-1.70883 -1.68028,-2.99654 -3.2157,-2.79304 -1.56342,0.008 -3.12758,-0.016 -4.69059,0.0117 z" />
    <path
       id="path5117"
       style="fill:#ff0018;fill-opacity:0;stroke:#000000;stroke-width:0.7;stroke-linecap:round;stroke-linejoin:round;stroke-dasharray:none;stroke-opacity:0.465395"
       d="m 115.80432,196.45931 c -1.58221,0.11469 -2.78877,1.82569 -2.60211,3.52755 0.0118,11.94673 -0.0238,23.89528 0.0178,35.84088 0.13076,1.71025 1.68028,2.99484 3.2157,2.79499 1.67441,-0.046 3.36091,0.0928 5.0279,-0.0703 1.47429,-0.30507 2.45027,-1.97431 2.26481,-3.57095 -0.0119,-11.91336 0.0238,-23.82856 -0.0177,-35.74079 -0.1313,-1.70883 -1.68028,-2.99654 -3.2157,-2.79304 -1.56342,0.008 -3.12758,-0.016 -4.69059,0.0117 z" />
    <path
       id="path5119"
       style="fill:#ff0018;fill-opacity:0;stroke:#000000;stroke-width:0.7;stroke-linecap:round;stroke-linejoin:round;stroke-dasharray:none;stroke-opacity:0.465395"
       d="m 136.81066,196.45931 c -1.58221,0.11469 -2.78877,1.82569 -2.60211,3.52755 0.0118,11.94673 -0.0238,23.89528 0.0178,35.84088 0.13076,1.71025 1.68028,2.99484 3.2157,2.79499 1.67441,-0.046 3.36091,0.0928 5.0279,-0.0703 1.47429,-0.30507 2.45027,-1.97431 2.26481,-3.57095 -0.0119,-11.91336 0.0238,-23.82856 -0.0177,-35.74079 -0.1313,-1.70883 -1.68028,-2.99654 -3.2157,-2.79304 -1.56342,0.008 -3.12758,-0.016 -4.69059,0.0117 z" />
    <path
       style="fill:#ff0018;fill-opacity:0;stroke:#000000;stroke-width:0.7;stroke-linecap:round;stroke-linejoin:round;stroke-dasharray:none;stroke-opacity:1"
       d="m 102.93583,239.68731 c 0.007,-0.80197 -2.15669,0.3446 -1.73447,0.70635 0.12383,0.1061 0.29781,0.13324 0.44968,0.19265 0.0421,0.0165 2.71497,0.80638 1.34903,1.28427 -0.57729,0.20197 -1.21223,0.11917 -1.79871,0.0642 -0.38612,-0.0362 -0.7701,-0.0933 -1.15632,-0.12843 -0.0853,-0.008 -0.256947,-0.0857 -0.256947,0 0,0.10705 0.1713,0.12843 0.256947,0.19264"
       id="path5184" />
    <path
       style="fill:#ff0018;fill-opacity:0;stroke:#000000;stroke-width:0.7;stroke-linecap:round;stroke-linejoin:round;stroke-dasharray:none;stroke-opacity:1"
       d="m 116.4414,240.2807 c -0.0803,0.53273 0.10398,-0.77374 0.12847,-0.57792 0.27468,2.19656 0.14638,2.47734 0,4.62337 -0.0311,0.4558 -0.0214,0.98461 -0.19272,0.899 -0.16079,-0.0804 -0.51459,-0.54667 -0.64239,-0.70636"
       id="path5312" />
    <path
       style="fill:#ff0018;fill-opacity:0;stroke:#000000;stroke-width:0.7;stroke-linecap:round;stroke-linejoin:round;stroke-dasharray:none;stroke-opacity:1"
       d="m 116.1202,240.34491 c 0.66354,-1.80059 2.23902,-1.31443 3.34045,-0.51371 0.005,0.003 0.76023,0.51118 0.38544,0.77057 -0.2641,0.18278 -0.58818,0.26626 -0.89935,0.34583 -0.61279,0.1567 -1.23931,0.25503 -1.86295,0.36051 -0.99782,0.16877 -0.72294,0.20463 -1.28479,0.0642"
       id="path5314" />
    <path
       style="fill:#ff0018;fill-opacity:0;stroke:#000000;stroke-width:0.7;stroke-linecap:round;stroke-linejoin:round;stroke-dasharray:none;stroke-opacity:1"
       d="m 128.00452,239.44592 c 0.54571,1.65092 0.1318,3.34263 -0.57815,4.88023"
       id="path5320" />
    <path
       style="fill:#ff0018;fill-opacity:0;stroke:#000000;stroke-width:0.7;stroke-linecap:round;stroke-linejoin:round;stroke-dasharray:none;stroke-opacity:1"
       d="m 128.133,239.76699 c 0.4925,-0.27826 0.92438,-0.7163 1.47751,-0.83478 0.17787,-0.0381 0.84386,1.50246 0.44968,1.79798 -0.32788,0.24581 -1.31358,-0.10296 -1.67023,-0.12842 -0.0881,-0.006 -0.17131,0.0428 -0.25696,0.0642"
       id="path5322" />
    <path
       style="fill:#ff0018;fill-opacity:0;stroke:#000000;stroke-width:0.7;stroke-linecap:round;stroke-linejoin:round;stroke-dasharray:none;stroke-opacity:1"
       d="m 138.21861,243.61981 c 0.22622,-1.19848 1.02228,-3.26611 0.44968,-4.6876 0.37478,-0.24975 0.71491,-0.68218 1.22055,-0.5137 0.52923,0.17634 1.28479,0.62705 1.28479,1.28427 0,0.49062 -0.8663,0.85277 -1.15631,0.9632 -0.32288,0.12296 -1.05632,0.34251 -1.41327,0.12843 -0.16419,-0.0985 -0.1713,-0.34247 -0.25695,-0.51371"
       id="path5324" />
    <path
       style="fill:#ff0018;fill-opacity:0;stroke:#000000;stroke-width:0.7;stroke-linecap:round;stroke-linejoin:round;stroke-dasharray:none;stroke-opacity:1"
       d="m 99.595603,252.22946 c -0.284017,0.0203 -0.577707,-0.0153 -0.852064,0.0608 -0.373437,0.10369 -0.340537,0.6149 -0.18259,0.85173 0.23731,0.35582 0.23761,0.15459 0.547757,0.42587 0.461507,0.40365 1.156624,0.97292 0.791207,1.70346 -0.11225,0.22441 -2.375611,0.60789 -2.860531,0.4867 -0.11131,-0.0278 0.16788,-0.15701 0.24345,-0.24335 0.0779,-0.089 0.12173,-0.20279 0.18259,-0.30419"
       id="path5328" />
    <path
       style="fill:#ff0018;fill-opacity:0;stroke:#000000;stroke-width:0.7;stroke-linecap:round;stroke-linejoin:round;stroke-dasharray:none;stroke-opacity:1"
       d="m 101.72579,251.86444 c 0.7098,2.33849 -0.52527,4.78628 -0.79121,7.17887"
       id="path5330" />
    <path
       style="fill:#ff0018;fill-opacity:0;stroke:#000000;stroke-width:0.7;stroke-linecap:round;stroke-linejoin:round;stroke-dasharray:none;stroke-opacity:1"
       d="m 101.42148,252.89868 c 0.0812,-0.26363 0.0871,-0.56362 0.24345,-0.79089 0.53623,-0.77966 1.71592,0.84443 2.4345,1.46011 0.0555,0.0476 0.16855,0.12634 0.12172,0.18251 -0.21804,0.26156 -0.87259,0.18188 -1.09552,0.24335 -0.86148,0.23756 -0.96468,0.34413 -1.58243,0.73006"
       id="path5332" />
    <path
       style="fill:#ff0018;fill-opacity:0;stroke:#000000;stroke-width:0.7;stroke-linecap:round;stroke-linejoin:round;stroke-dasharray:none;stroke-opacity:1"
       d="m 104.95151,250.10013 c -0.15788,-0.6472 0.84958,-0.7367 1.03466,-0.24335 0.1042,0.27776 -0.13766,0.71267 -0.30431,0.91257 -0.1038,0.12451 -0.23257,0.0109 -0.18259,0.0608 0.20394,0.20386 1.16716,0.42936 0.9738,0.91257 -0.30917,0.77261 -1.20231,-0.14694 -1.4607,-0.0608 -0.0536,0.0179 0.10743,0.16823 0.30431,0.36503"
       id="path5336" />
    <path
       style="fill:#ff0018;fill-opacity:0;stroke:#000000;stroke-width:0.7;stroke-linecap:round;stroke-linejoin:round;stroke-dasharray:none;stroke-opacity:1"
       d="m 111.88984,249.91762 c 0.12172,0.99369 0.30721,1.98163 0.36517,2.98106 0.0366,0.63054 -0.14055,1.25578 -0.18258,1.88597 -0.0264,0.39564 -0.0609,0.23205 -0.0609,0.0608"
       id="path5338" />
    <path
       style="fill:#ff0018;fill-opacity:0;stroke:#000000;stroke-width:0.7;stroke-linecap:round;stroke-linejoin:round;stroke-dasharray:none;stroke-opacity:1"
       d="m 112.19415,253.93292 c 0.82835,2.33308 0.27923,-2.19016 1.09553,-2.19016 0.35104,0 0.99631,0.99361 1.09552,1.21676 0.26675,0.59995 -0.28058,1.20337 -0.12172,1.52095"
       id="path5340" />
    <path
       style="fill:#ff0018;fill-opacity:0;stroke:#000000;stroke-width:0.7;stroke-linecap:round;stroke-linejoin:round;stroke-dasharray:none;stroke-opacity:1"
       d="m 116.02849,252.41198 c -0.16493,0.36923 -0.24492,0.81174 -0.18259,1.21676 0.0264,0.17125 0.15409,0.31578 0.18259,0.4867 0.01,0.06 -0.0192,0.1248 0,0.18251 0.0462,0.13839 0.41647,-0.17295 0.60863,-0.36503"
       id="path5348" />
    <path
       style="fill:#ff0018;fill-opacity:0;stroke:#000000;stroke-width:0.7;stroke-linecap:round;stroke-linejoin:round;stroke-dasharray:none;stroke-opacity:1"
       d="m 116.02849,251.07354 0.18259,0.42587"
       id="path5350" />
    <path
       style="fill:#ff0018;fill-opacity:0;stroke:#000000;stroke-width:0.7;stroke-linecap:round;stroke-linejoin:round;stroke-dasharray:none;stroke-opacity:1"
       d="m 118.40213,249.67427 c 0.2789,1.6948 -0.14192,3.40873 -0.0609,5.11038 0.006,0.12154 0.0626,0.46936 0,0.36503 -0.066,-0.10997 -0.0811,-0.24335 -0.12173,-0.36503"
       id="path5352" />
    <path
       style="fill:#ff0018;fill-opacity:0;stroke:#000000;stroke-width:0.7;stroke-linecap:round;stroke-linejoin:round;stroke-dasharray:none;stroke-opacity:1"
       d="m 118.03696,253.02035 c 0.10016,-1.44987 3.53453,-1.57655 3.04312,0.0608 -0.073,0.2434 -0.155,0.52637 -0.36517,0.66922 -0.37362,0.25396 -1.79541,0.58812 -2.31278,0.24335 -0.11321,-0.0754 -0.12173,-0.24335 -0.18259,-0.36502"
       id="path5354" />
    <path
       style="fill:#ff0018;fill-opacity:0;stroke:#000000;stroke-width:0.7;stroke-linecap:round;stroke-linejoin:round;stroke-dasharray:none;stroke-opacity:1"
       d="m 122.47992,253.26371 c -0.10144,0.44614 -0.21096,0.89052 -0.30431,1.33843 -0.008,0.0397 0.0287,0.093 0,0.12168 -0.0493,0.0493 -0.054,-0.0742 -0.12172,-0.24335 -0.0574,-0.1434 -0.14512,-0.27603 -0.18259,-0.42587 -0.10085,-0.40323 -0.0438,-1.72943 0.42603,-1.88597 0.42594,-0.14192 0.86411,0.48001 1.21726,0.60837 0.0763,0.0277 0.1623,0 0.24345,0"
       id="path5356" />
    <path
       style="fill:#ff0018;fill-opacity:0;stroke:#000000;stroke-width:0.7;stroke-linecap:round;stroke-linejoin:round;stroke-dasharray:none;stroke-opacity:1"
       d="m 125.15787,252.10779 c -0.86164,-0.17257 0.35552,2.12933 -0.0609,2.12933"
       id="path5358" />
    <path
       style="fill:#ff0018;fill-opacity:0;stroke:#000000;stroke-width:0.7;stroke-linecap:round;stroke-linejoin:round;stroke-dasharray:none;stroke-opacity:1"
       d="m 124.7927,251.56025 c 0.12172,-0.26363 0.24345,-0.52727 0.36517,-0.7909"
       id="path5360" />
    <path
       style="fill:#ff0018;fill-opacity:0;stroke:#000000;stroke-width:0.7;stroke-linecap:round;stroke-linejoin:round;stroke-dasharray:none;stroke-opacity:1"
       d="m 126.13168,252.35114 c 0.0203,-0.14196 0.0383,-0.28425 0.0609,-0.42587 0.11947,-0.75069 0.24954,-1.4997 0.36517,-2.251 0.006,-0.0401 0,-0.0811 0,-0.12168 0,-0.0203 0,0.0406 0,0.0608 0,0.18252 0.0135,0.36553 0,0.54754 -0.0271,0.36627 -0.0516,0.73457 -0.12172,1.09509 -0.0723,0.37189 -0.27284,0.71753 -0.30431,1.09508 -0.0305,0.366 0.0811,0.73005 0.12172,1.09508 0.0203,0.18252 0.0224,0.36798 0.0609,0.54754 0.2108,0.98336 0.73683,0.26956 1.33897,-0.12167 0.3217,-0.20903 0.30431,-0.0615 0.30431,-0.24335"
       id="path5362" />
    <path
       style="fill:#ff0018;fill-opacity:0;stroke:#000000;stroke-width:0.7;stroke-linecap:round;stroke-linejoin:round;stroke-dasharray:none;stroke-opacity:1"
       d="m 125.70564,252.59449 c 0.71006,-0.18251 1.42013,-0.36503 2.13019,-0.54754"
       id="path5364" />
    <path
       style="fill:#ff0018;fill-opacity:0;stroke:#000000;stroke-width:0.7;stroke-linecap:round;stroke-linejoin:round;stroke-dasharray:none;stroke-opacity:1"
       d="m 129.11394,252.777 c 0.28403,-0.68949 0.64714,-1.3515 0.85208,-2.06849 0.0836,-0.29247 0.016,-0.6088 0,-0.91257 -0.004,-0.0835 -0.0445,-0.16136 -0.0609,-0.24335 -0.004,-0.0199 0,-0.0811 0,-0.0608 0,0.62196 0.0167,0.0313 -0.12173,1.03424 -0.13344,0.96703 -0.31637,2.06907 -0.12173,3.0419 0.13319,0.66568 0.60707,1.11056 1.21726,0.54754 0.14062,-0.12975 0.20287,-0.32447 0.30431,-0.4867"
       id="path5366" />
    <path
       style="fill:#ff0018;fill-opacity:0;stroke:#000000;stroke-width:0.7;stroke-linecap:round;stroke-linejoin:round;stroke-dasharray:none;stroke-opacity:1"
       d="m 131.30499,252.59449 c 0.46927,0.15636 0.65909,0.34611 1.09553,0.18251 0.69893,-0.26199 -0.0791,-2.18229 -0.79121,-1.39927 -0.33561,0.36902 -0.2514,0.75837 -0.30432,1.21676 -0.0352,0.30486 -0.27965,0.64945 -0.12172,0.91257 0.37494,0.62467 1.09004,0.28758 1.64329,0.12168"
       id="path5368" />
    <path
       style="fill:#ff0018;fill-opacity:0;stroke:#000000;stroke-width:0.7;stroke-linecap:round;stroke-linejoin:round;stroke-dasharray:none;stroke-opacity:1"
       d="m 134.28726,251.43857 c -0.0812,0.18251 -0.25878,0.34839 -0.24345,0.54754 0.003,0.0382 0.94773,0.74311 1.03466,0.85173 0.15559,0.1944 0.14747,0.39195 0.0609,0.60838 -0.26887,0.6719 -1.47863,0.74436 -2.06933,0.54754 -0.0192,-0.006 0.0408,0.003 0.0609,0 0.12216,-0.0174 0.24228,-0.0497 0.36518,-0.0608 0.15665,-0.0142 0.534,5.3e-4 0.66948,0.0608 0.26257,0.11665 0.29192,0.54868 0.24345,0.79089 -0.0293,0.14626 -0.12172,0.20475 -0.12172,0.36503"
       id="path5370" />
    <path
       style="fill:#ff0018;fill-opacity:0;stroke:#000000;stroke-width:0.7;stroke-linecap:round;stroke-linejoin:round;stroke-dasharray:none;stroke-opacity:1"
       d="m 135.86969,252.10779 c 0.37776,0.41075 -0.0477,1.54737 0.24345,2.12933 0.009,0.0181 -0.005,-0.0412 0,-0.0609 0.0358,-0.14322 0.0811,-0.2839 0.12172,-0.42586 0.41908,-1.46617 0.0388,-0.24535 0.60862,-1.7643 0.0676,-0.18013 0.10443,-0.37174 0.18259,-0.54754 0.0261,-0.0586 0.15731,0.002 0.18259,0.0608 0.18224,0.42504 -0.16672,1.05011 0.18259,1.39927 0.44557,0.4454 0.92038,-0.9215 1.21725,-1.2776 0.12589,-0.151 0.18259,-0.0169 0.18259,0.12168 0,0.2464 -0.24165,1.44478 -0.12173,1.58179 0.32884,0.37566 0.48252,-0.11292 0.54776,-0.24336"
       id="path5372" />
    <path
       style="fill:#ff0018;fill-opacity:0;stroke:#000000;stroke-width:0.7;stroke-linecap:round;stroke-linejoin:round;stroke-dasharray:none;stroke-opacity:1"
       d="m 139.70403,251.49941 c 0.54776,0.34474 1.03872,0.80318 1.64329,1.03424 0.52158,0.19935 1.35418,-1.86485 0,-1.33843 -0.23691,0.0921 -0.46755,0.21067 -0.66949,0.36503 -0.14857,0.11356 -0.27715,0.26088 -0.36518,0.42586 -0.099,0.18563 -0.15039,0.56166 -0.12172,0.79089 0.028,0.22411 0.51092,1.0708 0.73035,1.03425 0.36911,-0.0615 0.55309,-0.30952 0.79121,-0.54754"
       id="path5374" />
    <path
       style="fill:#ff0018;fill-opacity:0;stroke:#000000;stroke-width:0.7;stroke-linecap:round;stroke-linejoin:round;stroke-dasharray:none;stroke-opacity:1"
       d="m 143.72095,251.0127 c -0.1623,0.0203 -0.34391,-0.0186 -0.4869,0.0608 -0.0731,0.0406 -0.0692,0.16015 -0.0609,0.24335 0.0496,0.49573 0.53732,0.83226 0.91294,1.09509 0.0969,0.0678 0.22066,0.0989 0.30431,0.18251 0.0454,0.0453 0.0896,0.12516 0.0609,0.18251 -0.12033,0.24057 -1.24805,0.60849 -1.46071,0.66922 -0.43891,0.12535 -0.9131,0.2435 -0.73034,0.0608"
       id="path5376" />
    <path
       style="fill:#ff0018;fill-opacity:0;stroke:#000000;stroke-width:0.7;stroke-linecap:round;stroke-linejoin:round;stroke-dasharray:none;stroke-opacity:1"
       d="m 145.18179,251.25606 c -0.12679,2.02777 -0.12173,1.2966 -0.12173,2.19016 0,0.0406 -0.0385,0.1345 0,0.12168 0.14804,-0.0493 0.24811,-0.31351 0.30431,-0.42587"
       id="path5378" />
    <path
       style="fill:#ff0018;fill-opacity:0;stroke:#000000;stroke-width:0.7;stroke-linecap:round;stroke-linejoin:round;stroke-dasharray:none;stroke-opacity:1"
       d="m 144.87748,250.16097 c 0,-0.63013 -0.11474,-0.60139 0.30431,-0.18251"
       id="path5380" />
  </g>
</svg>
