<?xml version="1.0" encoding="UTF-8" standalone="no"?>
<!-- Created with Inkscape (http://www.inkscape.org/) -->

<svg
   width="51.436012mm"
   height="91.666405mm"
   viewBox="0 0 51.436012 91.666403"
   version="1.1"
   id="svg5"
   inkscape:version="1.1.2 (0a00cf5339, 2022-02-04)"
   sodipodi:docname="2-çözüm.svg"
   xmlns:inkscape="http://www.inkscape.org/namespaces/inkscape"
   xmlns:sodipodi="http://sodipodi.sourceforge.net/DTD/sodipodi-0.dtd"
   xmlns="http://www.w3.org/2000/svg"
   xmlns:svg="http://www.w3.org/2000/svg">
  <sodipodi:namedview
     id="namedview7"
     pagecolor="#ffffff"
     bordercolor="#999999"
     borderopacity="1"
     inkscape:pageshadow="0"
     inkscape:pageopacity="0"
     inkscape:pagecheckerboard="0"
     inkscape:document-units="mm"
     showgrid="true"
     inkscape:zoom="2.1200603"
     inkscape:rotation="-10"
     inkscape:cx="106.8695"
     inkscape:cy="184.572"
     inkscape:window-width="1916"
     inkscape:window-height="1033"
     inkscape:window-x="0"
     inkscape:window-y="23"
     inkscape:window-maximized="1"
     inkscape:current-layer="layer1">
    <inkscape:grid
       type="xygrid"
       id="grid268"
       originx="-132.45968"
       originy="-98.319142" />
  </sodipodi:namedview>
  <defs
     id="defs2" />
  <g
     inkscape:label="Layer 1"
     inkscape:groupmode="layer"
     id="layer1"
     transform="translate(-132.45969,-98.319142)">
    <circle
       style="fill:#ff0075;fill-opacity:0;stroke:#030303;stroke-width:0.7;stroke-linecap:round;stroke-linejoin:round"
       id="circle1487"
       cx="141.97278"
       cy="154.43274"
       r="4.7525821" />
    <circle
       style="fill:#ff0075;fill-opacity:0;stroke:#030303;stroke-width:0.7;stroke-linecap:round;stroke-linejoin:round"
       id="circle1489"
       cx="141.97278"
       cy="154.43274"
       r="4.7525821" />
    <path
       style="fill:#ff0075;fill-opacity:0;stroke:#030303;stroke-width:0.7;stroke-linecap:round;stroke-linejoin:round"
       d="m 137.31523,149.39704 9.02991,9.12126"
       id="path1491" />
    <circle
       style="fill:#ff0075;fill-opacity:0;stroke:#030303;stroke-width:0.7;stroke-linecap:round;stroke-linejoin:round"
       id="circle1493"
       cx="157.27609"
       cy="154.43274"
       r="4.7525821" />
    <circle
       style="fill:#ff0075;fill-opacity:0;stroke:#030303;stroke-width:0.7;stroke-linecap:round;stroke-linejoin:round"
       id="circle1495"
       cx="157.27609"
       cy="154.43274"
       r="4.7525821" />
    <path
       style="fill:#ff0075;fill-opacity:0;stroke:#030303;stroke-width:0.7;stroke-linecap:round;stroke-linejoin:round"
       d="m 152.61855,149.39704 9.0299,9.12126"
       id="path1497" />
    <circle
       style="fill:#ff0075;fill-opacity:0;stroke:#030303;stroke-width:0.7;stroke-linecap:round;stroke-linejoin:round"
       id="circle1499"
       cx="167.6367"
       cy="154.43274"
       r="4.7525821" />
    <circle
       style="fill:#ff0075;fill-opacity:0;stroke:#030303;stroke-width:0.7;stroke-linecap:round;stroke-linejoin:round"
       id="circle1501"
       cx="167.6367"
       cy="154.43274"
       r="4.7525821" />
    <path
       style="fill:#ff0075;fill-opacity:0;stroke:#030303;stroke-width:0.7;stroke-linecap:round;stroke-linejoin:round"
       d="m 162.97918,149.39704 9.02991,9.12126"
       id="path1503" />
    <circle
       style="fill:#ff0075;fill-opacity:0;stroke:#030303;stroke-width:0.7;stroke-linecap:round;stroke-linejoin:round"
       id="circle1505"
       cx="178.09238"
       cy="154.43274"
       r="4.7525821" />
    <circle
       style="fill:#ff0075;fill-opacity:0;stroke:#030303;stroke-width:0.7;stroke-linecap:round;stroke-linejoin:round"
       id="circle1507"
       cx="178.09238"
       cy="154.43274"
       r="4.7525821" />
    <path
       style="fill:#ff0075;fill-opacity:0;stroke:#030303;stroke-width:0.7;stroke-linecap:round;stroke-linejoin:round"
       d="m 173.43486,149.39704 9.02991,9.12126"
       id="path1509" />
    <circle
       style="fill:#ff0075;fill-opacity:0;stroke:#ff0000;stroke-width:0.7;stroke-linecap:round;stroke-linejoin:round;stroke-opacity:1"
       id="circle1519"
       cx="-141.97278"
       cy="166.17221"
       r="4.7525821"
       transform="scale(-1,1)" />
    <circle
       style="fill:#ff0075;fill-opacity:0;stroke:#ff0000;stroke-width:0.7;stroke-linecap:round;stroke-linejoin:round;stroke-opacity:1"
       id="circle1521"
       cx="-141.97278"
       cy="166.17221"
       r="4.7525821"
       transform="scale(-1,1)" />
    <path
       style="fill:#ff0075;fill-opacity:0;stroke:#ff0000;stroke-width:0.7;stroke-linecap:round;stroke-linejoin:round;stroke-opacity:1"
       d="m 146.63032,161.13652 -9.02992,9.12126"
       id="path1523" />
    <circle
       style="fill:#ff0075;fill-opacity:0;stroke:#ff0000;stroke-width:0.7;stroke-linecap:round;stroke-linejoin:round;stroke-opacity:1"
       id="circle1531"
       cx="-167.73177"
       cy="166.17221"
       r="4.7525821"
       transform="scale(-1,1)" />
    <circle
       style="fill:#ff0075;fill-opacity:0;stroke:#ff0000;stroke-width:0.7;stroke-linecap:round;stroke-linejoin:round;stroke-opacity:1"
       id="circle1533"
       cx="-167.73177"
       cy="166.17221"
       r="4.7525821"
       transform="scale(-1,1)" />
    <path
       style="fill:#ff0075;fill-opacity:0;stroke:#ff0000;stroke-width:0.7;stroke-linecap:round;stroke-linejoin:round;stroke-opacity:1"
       d="m 172.38929,161.13652 -9.02991,9.12126"
       id="path1535" />
    <path
       style="fill:#ff0018;fill-opacity:1;stroke:#ff0000;stroke-width:0.7;stroke-linecap:round;stroke-linejoin:round;stroke-opacity:1"
       d="m 139.06561,173.81976 c -0.29799,3.2766 -0.13048,-0.0399 0.15056,3.61214 0.05,0.65027 0,1.30439 0,1.95659 0,2.47905 0.5677,1.8406 -0.15056,2.5586"
       id="path2168" />
    <path
       style="fill:#ff0018;fill-opacity:1;stroke:#ff0000;stroke-width:0.7;stroke-linecap:round;stroke-linejoin:round;stroke-opacity:1"
       d="m 138.76447,178.48544 c 0.70432,-0.22864 3.01299,-0.15212 3.91474,-1.05354"
       id="path2170" />
    <path
       style="fill:#ff0018;fill-opacity:1;stroke:#ff0000;stroke-width:0.7;stroke-linecap:round;stroke-linejoin:round;stroke-opacity:1"
       d="m 141.62525,172.91672 c -0.0848,2.72401 0.60226,5.40442 0.60226,8.12733"
       id="path2172" />
    <path
       style="fill:#ff0018;fill-opacity:1;stroke:#ff0000;stroke-width:0.7;stroke-linecap:round;stroke-linejoin:round;stroke-opacity:1"
       d="m 165.41483,173.21774 c 0,0.35118 0.0195,0.7029 0,1.05354 -0.10531,1.89477 -0.18894,3.68005 0,5.56872 0.015,0.14976 -0.0673,0.31692 0,0.45152 0.0317,0.0635 0.10037,-0.10034 0.15056,-0.1505"
       id="path2180" />
    <path
       style="fill:#ff0018;fill-opacity:1;stroke:#ff0000;stroke-width:0.7;stroke-linecap:round;stroke-linejoin:round;stroke-opacity:1"
       d="m 165.26426,177.4319 c 1.70484,-0.1124 2.96932,-0.20477 4.36644,-0.90303"
       id="path2182" />
    <path
       style="fill:#ff0018;fill-opacity:1;stroke:#ff0000;stroke-width:0.7;stroke-linecap:round;stroke-linejoin:round;stroke-opacity:1"
       d="m 169.48014,171.11065 c -0.62605,3.12901 -0.13648,0.37326 0.15056,7.97682 0.009,0.25067 -0.0492,0.50656 0,0.75253 0.0139,0.0696 0.15057,-0.0795 0.15057,-0.15051"
       id="path2184" />
    <path
       style="fill:#ff0018;fill-opacity:0;stroke:#000000;stroke-width:0.7;stroke-linecap:round;stroke-linejoin:round;stroke-opacity:1"
       d="m 136.27863,149.10482 c 0.0862,-0.34477 0.24192,-0.57656 0,-0.89899 -0.27051,-0.36054 -1.13429,-0.0807 -1.41327,0.12843 -0.0565,0.0424 0.15661,0.24426 0.3212,0.38528 0.27389,0.23467 1.05204,0.79457 0.44968,1.15584 -0.44711,0.26816 -0.78686,0.26922 -1.28479,0.19264 -0.10792,-0.0166 -0.21202,-0.0642 -0.3212,-0.0642 -0.0772,0 0.0739,0.13808 0.12848,0.19264"
       id="path2907" />
    <path
       style="fill:#ff0018;fill-opacity:0;stroke:#000000;stroke-width:0.7;stroke-linecap:round;stroke-linejoin:round;stroke-opacity:1"
       d="m 150.9895,146.72892 c 0.33302,1.36909 0.16369,2.59377 -0.19272,3.91703 -0.06,0.22261 -0.25696,0.87268 -0.25696,0.64213"
       id="path3289" />
    <path
       style="fill:#ff0018;fill-opacity:0;stroke:#000000;stroke-width:0.7;stroke-linecap:round;stroke-linejoin:round;stroke-opacity:1"
       d="m 150.60407,147.69212 c 0.63105,-1.10583 1.90548,-0.59792 1.67022,0.57793 -0.0596,0.29796 -1.64719,0.28766 -1.86294,0.25685 -0.15432,-0.022 -0.29979,-0.0856 -0.44968,-0.12843"
       id="path3291" />
    <path
       style="fill:#ff0018;fill-opacity:0;stroke:#000000;stroke-width:0.7;stroke-linecap:round;stroke-linejoin:round;stroke-opacity:1"
       d="m 162.23143,147.49948 c 0.19413,0.97917 0.0653,1.92097 -0.12848,2.88961 -0.0726,0.36307 0.0449,0.32107 -0.19272,0.32107"
       id="path3293" />
    <path
       style="fill:#ff0018;fill-opacity:0;stroke:#000000;stroke-width:0.7;stroke-linecap:round;stroke-linejoin:round;stroke-opacity:1"
       d="m 161.58903,147.62791 c 0.3212,-0.23545 0.59752,-0.54952 0.9636,-0.70635 0.47256,-0.20244 1.0937,1.05871 0.77087,1.22006 -0.52479,0.26229 -1.53779,-0.45742 -1.86295,0.19264"
       id="path3295" />
    <path
       style="fill:#ff0018;fill-opacity:0;stroke:#000000;stroke-width:0.7;stroke-linecap:round;stroke-linejoin:round;stroke-opacity:1"
       d="m 172.44552,151.03123 c 0.51192,-0.51156 0.46632,-3.322 0.51392,-3.85282 0.21413,-0.25685 0.38965,-0.5516 0.6424,-0.77056 0.0825,-0.0715 0.21201,-0.0642 0.3212,-0.0642 0.48302,0 0.83959,0.49803 0.70663,0.9632 -0.1239,0.43349 -1.34903,0.10402 -1.34903,0.57793"
       id="path3297" />
    <path
       style="fill:#ff0018;fill-opacity:0;stroke:#ff1407;stroke-width:0.7;stroke-linecap:round;stroke-linejoin:round;stroke-opacity:1"
       d="m 137.04951,171.13008 c -0.36403,0 -0.73428,-0.0671 -1.09207,0 -0.13473,0.0252 0.1454,0.24142 0.25695,0.32107 0.14266,0.10186 1.44757,1.00062 1.22056,1.28427 -0.47474,0.59319 -2.08962,0.0888 -2.7623,0.25686 -0.14542,0.0363 0.3156,0.067 0.44967,0"
       id="path3299" />
    <path
       style="fill:#ff0018;fill-opacity:0;stroke:#ff1407;stroke-width:0.7;stroke-linecap:round;stroke-linejoin:round;stroke-opacity:1"
       d="m 164.35133,170.87323 c -0.20267,-0.40518 -0.0815,-0.41624 -0.51391,-0.4495 -0.40627,-0.0312 -1.44086,0.0733 -1.09207,0.77056 0.01,0.0192 0.0475,-0.0134 0.0642,0 0.0946,0.0756 0.1658,0.17713 0.25695,0.25686 0.24491,0.21421 1.37511,0.84686 1.15632,1.28427 -0.29918,0.59811 -1.22063,0.009 -1.54176,-0.12843 -0.21197,-0.0908 -0.42714,-0.17409 -0.64239,-0.25685 -0.0632,-0.0243 -0.25696,-0.0856 -0.19272,-0.0642 0.8115,0.27039 0.50003,0.25685 0.89936,0.25685"
       id="path4567" />
    <rect
       style="fill:#ff0018;fill-opacity:0;stroke:#000000;stroke-width:0.7;stroke-linecap:round;stroke-linejoin:round;stroke-opacity:0.465395"
       id="rect4765"
       width="14.903583"
       height="40.968273"
       x="132.80969"
       y="147.51273"
       ry="2.6013389" />
    <path
       id="rect4769"
       style="fill:#ff0018;fill-opacity:0;stroke:#000000;stroke-width:0.7;stroke-linecap:round;stroke-linejoin:round;stroke-dasharray:none;stroke-opacity:0.465395"
       d="m 165.06329,147.45114 c -1.58221,0.11469 -2.78877,1.82569 -2.60211,3.52755 0.0118,11.94673 -0.0238,23.89528 0.0178,35.84088 0.13076,1.71025 1.68028,2.99484 3.2157,2.79499 1.67441,-0.046 3.36091,0.0928 5.0279,-0.0703 1.47429,-0.30507 2.45027,-1.97431 2.26481,-3.57095 -0.0119,-11.91336 0.0238,-23.82856 -0.0177,-35.74079 -0.1313,-1.70883 -1.68028,-2.99654 -3.2157,-2.79304 -1.56342,0.008 -3.12758,-0.016 -4.69059,0.0117 z" />
    <g
       id="g3923"
       transform="translate(0,27.387756)">
      <circle
         style="fill:#ff0075;fill-opacity:0;stroke:#030303;stroke-width:0.7;stroke-linecap:round;stroke-linejoin:round"
         id="circle1136"
         cx="141.97278"
         cy="107.09296"
         r="4.7525821" />
      <circle
         style="fill:#ff0075;fill-opacity:0;stroke:#030303;stroke-width:0.7;stroke-linecap:round;stroke-linejoin:round"
         id="circle1138"
         cx="141.97278"
         cy="107.09296"
         r="4.7525821" />
      <path
         style="fill:#ff0075;fill-opacity:0;stroke:#030303;stroke-width:0.7;stroke-linecap:round;stroke-linejoin:round"
         d="m 137.31523,102.05726 9.02991,9.12126"
         id="path1140" />
      <circle
         style="fill:#ff0075;fill-opacity:0;stroke:#030303;stroke-width:0.7;stroke-linecap:round;stroke-linejoin:round"
         id="circle1142"
         cx="157.27609"
         cy="107.09296"
         r="4.7525821" />
      <circle
         style="fill:#ff0075;fill-opacity:0;stroke:#030303;stroke-width:0.7;stroke-linecap:round;stroke-linejoin:round"
         id="circle1144"
         cx="157.27609"
         cy="107.09296"
         r="4.7525821" />
      <path
         style="fill:#ff0075;fill-opacity:0;stroke:#030303;stroke-width:0.7;stroke-linecap:round;stroke-linejoin:round"
         d="m 152.61855,102.05726 9.0299,9.12126"
         id="path1146" />
      <circle
         style="fill:#ff0075;fill-opacity:0;stroke:#030303;stroke-width:0.7;stroke-linecap:round;stroke-linejoin:round"
         id="circle1148"
         cx="167.6367"
         cy="107.09296"
         r="4.7525821" />
      <circle
         style="fill:#ff0075;fill-opacity:0;stroke:#030303;stroke-width:0.7;stroke-linecap:round;stroke-linejoin:round"
         id="circle1150"
         cx="167.6367"
         cy="107.09296"
         r="4.7525821" />
      <path
         style="fill:#ff0075;fill-opacity:0;stroke:#030303;stroke-width:0.7;stroke-linecap:round;stroke-linejoin:round"
         d="m 162.97918,102.05726 9.02991,9.12126"
         id="path1152" />
      <circle
         style="fill:#ff0075;fill-opacity:0;stroke:#030303;stroke-width:0.7;stroke-linecap:round;stroke-linejoin:round"
         id="circle1154"
         cx="178.09238"
         cy="107.09296"
         r="4.7525821" />
      <circle
         style="fill:#ff0075;fill-opacity:0;stroke:#030303;stroke-width:0.7;stroke-linecap:round;stroke-linejoin:round"
         id="circle1156"
         cx="178.09238"
         cy="107.09296"
         r="4.7525821" />
      <path
         style="fill:#ff0075;fill-opacity:0;stroke:#030303;stroke-width:0.7;stroke-linecap:round;stroke-linejoin:round"
         d="m 173.43486,102.05726 9.02991,9.12126"
         id="path1158" />
      <circle
         style="fill:#ff0075;fill-opacity:0;stroke:#ff0000;stroke-width:0.7;stroke-linecap:round;stroke-linejoin:round;stroke-opacity:1"
         id="circle1160"
         cx="-141.97278"
         cy="95.393723"
         r="4.7525821"
         transform="scale(-1,1)" />
      <circle
         style="fill:#ff0075;fill-opacity:0;stroke:#ff0000;stroke-width:0.7;stroke-linecap:round;stroke-linejoin:round;stroke-opacity:1"
         id="circle1162"
         cx="-141.97278"
         cy="95.393723"
         r="4.7525821"
         transform="scale(-1,1)" />
      <path
         style="fill:#ff0075;fill-opacity:0;stroke:#ff0000;stroke-width:0.7;stroke-linecap:round;stroke-linejoin:round;stroke-opacity:1"
         d="m 146.63032,90.358034 -9.02992,9.121259"
         id="path1164" />
      <circle
         style="fill:#ff0075;fill-opacity:0;stroke:#ff0000;stroke-width:0.7;stroke-linecap:round;stroke-linejoin:round;stroke-opacity:1"
         id="circle1172"
         cx="-167.8394"
         cy="95.432823"
         r="4.7525821"
         transform="scale(-1,1)" />
      <path
         style="fill:#ff0075;fill-opacity:0;stroke:#ff0000;stroke-width:0.7;stroke-linecap:round;stroke-linejoin:round;stroke-opacity:1"
         d="m 172.36701,90.519033 -9.02991,9.12126"
         id="path1176" />
      <path
         style="fill:#ff0018;fill-opacity:1;stroke:#ff0000;stroke-width:0.7;stroke-linecap:round;stroke-linejoin:round;stroke-opacity:1"
         d="m 139.06561,81.388514 c -0.29799,3.2766 -0.13048,-0.0399 0.15056,3.61214 0.05,0.65027 0,1.30439 0,1.95659 0,2.479048 0.5677,1.8406 -0.15056,2.558598"
         id="path1184" />
      <path
         style="fill:#ff0018;fill-opacity:1;stroke:#ff0000;stroke-width:0.7;stroke-linecap:round;stroke-linejoin:round;stroke-opacity:1"
         d="m 138.76447,86.054194 c 0.70432,-0.22864 3.01299,-0.15212 3.91474,-1.05354"
         id="path1186" />
      <path
         style="fill:#ff0018;fill-opacity:1;stroke:#ff0000;stroke-width:0.7;stroke-linecap:round;stroke-linejoin:round;stroke-opacity:1"
         d="m 141.62525,80.485474 c -0.0848,2.72401 0.60226,5.40442 0.60226,8.12733"
         id="path1188" />
      <path
         style="fill:#ff0018;fill-opacity:1;stroke:#ff0000;stroke-width:0.7;stroke-linecap:round;stroke-linejoin:round;stroke-opacity:1"
         d="m 165.39255,77.851562 c 0,0.351185 0.0195,0.702905 0,1.053545 -0.10531,1.89477 -0.18894,3.68005 0,5.56872 0.015,0.14976 -0.0673,0.31692 0,0.45152 0.0317,0.0635 0.10037,-0.10034 0.15056,-0.1505"
         id="path1196" />
      <path
         style="fill:#ff0018;fill-opacity:1;stroke:#ff0000;stroke-width:0.7;stroke-linecap:round;stroke-linejoin:round;stroke-opacity:1"
         d="m 165.24198,82.065727 c 1.70484,-0.1124 2.96932,-0.20477 4.36644,-0.90303"
         id="path1198" />
      <path
         style="fill:#ff0018;fill-opacity:1;stroke:#ff0000;stroke-width:0.7;stroke-linecap:round;stroke-linejoin:round;stroke-opacity:1"
         d="m 169.45786,75.744472 c -0.62605,3.129015 -0.13648,0.37326 0.15056,7.976825 0.009,0.25067 -0.0492,0.50656 0,0.75253 0.0139,0.0696 0.15057,-0.0795 0.15057,-0.15051"
         id="path1200" />
      <path
         style="fill:#ff0018;fill-opacity:0;stroke:#000000;stroke-width:0.7;stroke-linecap:round;stroke-linejoin:round;stroke-opacity:1"
         d="m 136.27863,111.5251 c 0.0862,-0.34477 0.24192,-0.57656 0,-0.89899 -0.27051,-0.36054 -1.13429,-0.0807 -1.41327,0.12843 -0.0565,0.0424 0.15661,0.24426 0.3212,0.38528 0.27389,0.23467 1.05204,0.79457 0.44968,1.15584 -0.44711,0.26816 -0.78686,0.26922 -1.28479,0.19264 -0.10792,-0.0166 -0.21202,-0.0642 -0.3212,-0.0642 -0.0772,0 0.0739,0.13808 0.12848,0.19264"
         id="path1208" />
      <path
         style="fill:#ff0018;fill-opacity:0;stroke:#000000;stroke-width:0.7;stroke-linecap:round;stroke-linejoin:round;stroke-opacity:1"
         d="m 150.9895,99.389141 c 0.33302,1.369089 0.16369,2.593769 -0.19272,3.917029 -0.06,0.22261 -0.25696,0.87268 -0.25696,0.64213"
         id="path1210" />
      <path
         style="fill:#ff0018;fill-opacity:0;stroke:#000000;stroke-width:0.7;stroke-linecap:round;stroke-linejoin:round;stroke-opacity:1"
         d="m 150.60407,100.35234 c 0.63105,-1.105829 1.90548,-0.597919 1.67022,0.57793 -0.0596,0.29796 -1.64719,0.28766 -1.86294,0.25685 -0.15432,-0.022 -0.29979,-0.0856 -0.44968,-0.12843"
         id="path1212" />
      <path
         style="fill:#ff0018;fill-opacity:0;stroke:#000000;stroke-width:0.7;stroke-linecap:round;stroke-linejoin:round;stroke-opacity:1"
         d="m 162.23143,111.64284 c 0.19413,0.97917 0.0653,1.92097 -0.12848,2.88961 -0.0726,0.36307 0.0449,0.32107 -0.19272,0.32107"
         id="path1214" />
      <path
         style="fill:#ff0018;fill-opacity:0;stroke:#000000;stroke-width:0.7;stroke-linecap:round;stroke-linejoin:round;stroke-opacity:1"
         d="m 161.58903,111.77127 c 0.3212,-0.23545 0.59752,-0.54951 0.9636,-0.70634 0.47256,-0.20244 1.0937,1.0587 0.77087,1.22005 -0.52479,0.26229 -1.53779,-0.45742 -1.86295,0.19264"
         id="path1216" />
      <path
         style="fill:#ff0018;fill-opacity:0;stroke:#000000;stroke-width:0.7;stroke-linecap:round;stroke-linejoin:round;stroke-opacity:1"
         d="m 172.44552,103.69145 c 0.51192,-0.51156 0.46632,-3.322 0.51392,-3.852819 0.21413,-0.25685 0.38965,-0.5516 0.6424,-0.77056 0.0825,-0.0715 0.21201,-0.0642 0.3212,-0.0642 0.48302,0 0.83959,0.49803 0.70663,0.9632 -0.1239,0.433489 -1.34903,0.104019 -1.34903,0.577929"
         id="path1218" />
      <path
         style="fill:#ff0018;fill-opacity:0;stroke:#ff1407;stroke-width:0.7;stroke-linecap:round;stroke-linejoin:round;stroke-opacity:1"
         d="m 137.04951,89.348544 c -0.36403,0 -0.73428,-0.0671 -1.09207,0 -0.13473,0.0252 0.1454,0.24142 0.25695,0.32107 0.14266,0.10186 1.44757,1.00062 1.22056,1.28427 -0.47474,0.59319 -2.08962,0.0888 -2.7623,0.25686 -0.14542,0.0363 0.3156,0.067 0.44967,0"
         id="path1220" />
      <path
         style="fill:#ff0018;fill-opacity:0;stroke:#ff1407;stroke-width:0.7;stroke-linecap:round;stroke-linejoin:round;stroke-opacity:1"
         d="m 164.32905,84.539276 c -0.20267,-0.40518 -0.0815,-0.41624 -0.51391,-0.4495 -0.40627,-0.0312 -1.44086,0.0733 -1.09207,0.77056 0.01,0.0192 0.0475,-0.0134 0.0642,0 0.0946,0.0756 0.1658,0.17713 0.25695,0.25686 0.24491,0.21421 1.37511,0.84686 1.15632,1.28427 -0.29918,0.59811 -1.22063,0.009 -1.54176,-0.12843 -0.21197,-0.0908 -0.42714,-0.17409 -0.64239,-0.25685 -0.0632,-0.0243 -0.25696,-0.0856 -0.19272,-0.0642 0.8115,0.27039 0.50003,0.25685 0.89936,0.25685"
         id="path1224" />
      <rect
         style="fill:#ff0018;fill-opacity:0;stroke:#000000;stroke-width:0.7;stroke-linecap:round;stroke-linejoin:round;stroke-opacity:0.465395"
         id="rect1228"
         width="14.903583"
         height="40.968273"
         x="132.80969"
         y="71.971802"
         ry="2.6013389" />
      <path
         id="path1230"
         style="fill:#ff0018;fill-opacity:0;stroke:#000000;stroke-width:0.7;stroke-linecap:round;stroke-linejoin:round;stroke-dasharray:none;stroke-opacity:0.465395"
         d="m 165.06329,71.31472 c -1.58221,0.11469 -2.78877,1.82569 -2.60211,3.52755 0.0118,11.946729 -0.0238,23.895279 0.0178,35.84088 0.13076,1.71025 1.68028,2.99484 3.2157,2.79499 1.67441,-0.046 3.36091,0.0928 5.0279,-0.0703 1.47429,-0.30507 2.45027,-1.97431 2.26481,-3.57095 -0.0119,-11.913361 0.0238,-23.828561 -0.0177,-35.74079 -0.1313,-1.70883 -1.68028,-2.99654 -3.2157,-2.79304 -1.56342,0.008 -3.12758,-0.016 -4.69059,0.0117 z" />
      <path
         id="path1232"
         style="fill:#ff0018;fill-opacity:0;stroke:#000000;stroke-width:0.7;stroke-linecap:round;stroke-linejoin:round;stroke-dasharray:none;stroke-opacity:0.465395"
         d="m 154.59224,94.819661 c -1.58221,0.11469 -2.78877,1.82569 -2.60211,3.52755 0.0118,11.946729 -0.0238,23.895279 0.0178,35.840879 0.13076,1.71025 1.68028,2.99484 3.2157,2.79499 1.67441,-0.046 3.36091,0.0928 5.0279,-0.0703 1.47429,-0.30507 2.45027,-1.97431 2.26481,-3.57095 -0.0119,-11.91336 0.0238,-23.82856 -0.0177,-35.740789 -0.1313,-1.70883 -1.68028,-2.99654 -3.2157,-2.79304 -1.56342,0.008 -3.12758,-0.016 -4.69059,0.0117 z" />
      <path
         id="path1234"
         style="fill:#ff0018;fill-opacity:0;stroke:#000000;stroke-width:0.7;stroke-linecap:round;stroke-linejoin:round;stroke-dasharray:none;stroke-opacity:0.465395"
         d="m 175.59858,94.819661 c -1.58221,0.11469 -2.78877,1.82569 -2.60211,3.52755 0.0118,11.946729 -0.0238,23.895279 0.0178,35.840879 0.13076,1.71025 1.68028,2.99484 3.2157,2.79499 1.67441,-0.046 3.36091,0.0928 5.0279,-0.0703 1.47429,-0.30507 2.45027,-1.97431 2.26481,-3.57095 -0.0119,-11.91336 0.0238,-23.82856 -0.0177,-35.740789 -0.1313,-1.70883 -1.68028,-2.99654 -3.2157,-2.79304 -1.56342,0.008 -3.12758,-0.016 -4.69059,0.0117 z" />
    </g>
  </g>
</svg>
