<?xml version="1.0" encoding="UTF-8" standalone="no"?>
<!-- Created with Inkscape (http://www.inkscape.org/) -->

<svg
   width="64.052467mm"
   height="17.718931mm"
   viewBox="0 0 64.052467 17.718931"
   version="1.1"
   id="svg5"
   inkscape:version="1.1.2 (0a00cf5339, 2022-02-04)"
   sodipodi:docname="3-soru.svg"
   xmlns:inkscape="http://www.inkscape.org/namespaces/inkscape"
   xmlns:sodipodi="http://sodipodi.sourceforge.net/DTD/sodipodi-0.dtd"
   xmlns="http://www.w3.org/2000/svg"
   xmlns:svg="http://www.w3.org/2000/svg">
  <sodipodi:namedview
     id="namedview7"
     pagecolor="#ffffff"
     bordercolor="#999999"
     borderopacity="1"
     inkscape:pageshadow="0"
     inkscape:pageopacity="0"
     inkscape:pagecheckerboard="0"
     inkscape:document-units="mm"
     showgrid="true"
     inkscape:zoom="2.5939887"
     inkscape:rotation="-4"
     inkscape:cx="66.8155"
     inkscape:cy="128.97786"
     inkscape:window-width="1916"
     inkscape:window-height="1033"
     inkscape:window-x="0"
     inkscape:window-y="23"
     inkscape:window-maximized="1"
     inkscape:current-layer="layer1">
    <inkscape:grid
       type="xygrid"
       id="grid824"
       originx="-115.40482"
       originy="-129.89988" />
  </sodipodi:namedview>
  <defs
     id="defs2" />
  <g
     inkscape:label="Layer 1"
     inkscape:groupmode="layer"
     id="layer1"
     transform="translate(-115.40482,-129.89989)">
    <path
       style="fill:#000000;fill-opacity:0;stroke:#000000;stroke-width:0.7;stroke-linecap:round;stroke-miterlimit:4;stroke-dasharray:none;stroke-opacity:1"
       d="m 115.75482,142.60816 c 0.0524,-0.50808 0.22498,-0.9939 0.29961,-1.49744 0.044,-0.2968 0.14731,-0.66385 0,-0.95836 -0.009,-0.0179 -0.002,0.0401 0,0.0599 0.0175,0.14009 0.0408,0.2794 0.0599,0.41928 0.0408,0.29937 0.0898,0.59783 0.11984,0.89847 0.20047,2.0039 0.0799,0.93651 0.11985,2.81518 0.0106,0.49943 0.0448,0.99812 0.0599,1.49744 0.005,0.15965 0,0.31945 0,0.47917 0,0.0599 0.0424,0.22204 0,0.1797 -0.0947,-0.0947 -0.11985,-0.23959 -0.17977,-0.35939"
       id="path1104" />
    <path
       style="fill:#000000;fill-opacity:0;stroke:#000000;stroke-width:0.7;stroke-linecap:round;stroke-miterlimit:4;stroke-dasharray:none;stroke-opacity:1"
       d="m 116.35404,144.1655 c 0.0599,-0.13977 0.0676,-0.31655 0.17976,-0.41929 0.46651,-0.42746 1.28192,-0.35938 1.85757,-0.35938"
       id="path1106" />
    <path
       style="fill:#000000;fill-opacity:0;stroke:#000000;stroke-width:0.7;stroke-linecap:round;stroke-miterlimit:4;stroke-dasharray:none;stroke-opacity:1"
       d="m 118.09176,140.69144 c 0.0599,0.41928 0.12628,0.8377 0.17977,1.25785 0.13732,1.07848 0.28455,2.15568 0.41945,3.23446 0.0298,0.23857 0.0318,0.48 0.0599,0.71877 0.0317,0.26934 0.12168,0.42297 0,0.17969"
       id="path1108" />
    <path
       style="fill:#000000;fill-opacity:0;stroke:#000000;stroke-width:0.7;stroke-linecap:round;stroke-miterlimit:4;stroke-dasharray:none;stroke-opacity:1"
       d="m 120.42871,145.36344 c -0.59302,-0.62348 0.44131,-0.98008 0.89883,-0.59897 0.0553,0.0461 0.0689,0.12879 0.11984,0.17969 0.0141,0.0141 0.0599,-0.02 0.0599,0 0,0.0631 -0.0475,0.11778 -0.0599,0.17969 -0.094,0.47007 -0.42562,0.66504 -0.71906,0.95836 -0.0141,0.0141 0.0401,0.002 0.0599,0 0.17998,-0.018 0.35883,-0.0719 0.5393,-0.0599 0.30946,0.0206 0.65591,0.28335 0.71906,0.59897 0.2746,1.37244 -1.97741,0.1652 -1.97741,-0.17969 0,-0.0384 0.17169,0.0518 0.35952,0.23959"
       id="path1112" />
    <path
       style="fill:#000000;fill-opacity:0;stroke:#000000;stroke-width:0.7;stroke-linecap:round;stroke-miterlimit:4;stroke-dasharray:none;stroke-opacity:1"
       d="m 125.16253,140.75134 c -0.11984,-0.0799 -0.21584,-0.23001 -0.35953,-0.23959 -0.44391,-0.0296 -1.14492,0.62589 -1.31828,0.83856 -0.33828,0.415 -0.69785,1.16477 -0.71906,1.73703 -0.0321,0.8657 0.40049,2.20989 1.31828,2.51569 0.74954,0.24975 1.43477,-0.19989 1.97741,-0.65887 0.11321,-0.0957 0.29961,-0.23777 0.29961,-0.41928 0,-0.17164 -0.20627,-0.14629 -0.29961,-0.23959"
       id="path1114" />
    <path
       style="fill:#000000;fill-opacity:0;stroke:#000000;stroke-width:0.7;stroke-linecap:round;stroke-miterlimit:4;stroke-dasharray:none;stroke-opacity:1"
       d="m 128.75783,142.36857 c 0.8705,0.11744 1.75871,0.0599 2.63656,0.0599 0.4325,0 1.23063,-0.0921 0.95875,0.17969"
       id="path1118" />
    <path
       style="fill:#000000;fill-opacity:0;stroke:#000000;stroke-width:0.7;stroke-linecap:round;stroke-miterlimit:4;stroke-dasharray:none;stroke-opacity:1"
       d="m 137.56632,140.75134 c -0.17976,0 -0.37849,-0.0804 -0.53929,0 -0.46964,0.23472 -0.88898,1.13022 -1.07859,1.49744 -0.40105,0.77672 -0.90147,1.8281 -0.41945,2.69538 0.55103,0.99146 1.95126,0.29299 2.63655,-0.0599 0.0216,-0.0111 0.91389,-0.50428 1.07859,-0.77867 0.0987,-0.1645 -0.5173,0.1143 -0.53929,0.11979"
       id="path1120" />
    <path
       style="fill:#000000;fill-opacity:0;stroke:#000000;stroke-width:0.7;stroke-linecap:round;stroke-miterlimit:4;stroke-dasharray:none;stroke-opacity:1"
       d="m 141.22155,141.35031 c 0.15979,-0.0399 0.31723,-0.0909 0.47937,-0.11979 0.79847,-0.14253 1.59757,-0.28153 2.39687,-0.41928 0.17825,-0.0307 0.35932,-0.0779 0.5393,-0.0599 0.0444,0.004 0.0599,0.0752 0.0599,0.11979 0,0.02 -0.04,0 -0.0599,0"
       id="path1122" />
    <path
       style="fill:#000000;fill-opacity:0;stroke:#000000;stroke-width:0.7;stroke-linecap:round;stroke-miterlimit:4;stroke-dasharray:none;stroke-opacity:1"
       d="m 141.52116,142.72796 c 0.43458,-0.14513 2.91895,-0.87001 3.23577,-0.65887 0.047,0.0313 -0.0634,0.11979 -0.11984,0.11979"
       id="path1124" />
    <path
       style="fill:#000000;fill-opacity:0;stroke:#000000;stroke-width:0.7;stroke-linecap:round;stroke-miterlimit:4;stroke-dasharray:none;stroke-opacity:1"
       d="m 141.52116,144.64468 c 0.98018,-0.47922 2.15766,-0.61389 3.23577,-0.47918 0.10106,0.0126 0.19915,0.0431 0.29961,0.0599 0.0197,0.003 0.0799,0 0.0599,0 -0.0999,0 -0.19974,0 -0.29961,0"
       id="path1126" />
    <path
       style="fill:#000000;fill-opacity:0;stroke:#000000;stroke-width:0.7;stroke-linecap:round;stroke-miterlimit:4;stroke-dasharray:none;stroke-opacity:1"
       d="m 149.85696,141.17062 c -0.21971,-0.0599 -0.44051,-0.24343 -0.65914,-0.17969 -1.11401,0.32479 -1.98572,2.62741 -1.43812,3.65375 0.46341,0.86852 2.0162,0.49354 2.69648,0.17969 0.14621,-0.0675 0.28289,-0.15428 0.41945,-0.23959 0.10466,-0.0654 0.0607,-0.2404 -0.0599,-0.1198"
       id="path1128" />
    <path
       style="fill:#000000;fill-opacity:0;stroke:#000000;stroke-width:0.7;stroke-linecap:round;stroke-miterlimit:4;stroke-dasharray:none;stroke-opacity:1"
       d="m 152.91297,143.02744 c 0.10833,-0.0722 0.35612,-0.28284 0.53929,-0.29948 0.61623,-0.056 1.31561,0.007 1.9175,0.11979 0.72697,0.13625 0.17106,0.1198 0.59922,0.1198 0.02,0 0.0599,0.02 0.0599,0 0,-0.0788 -0.18254,-0.1198 -0.23969,-0.1198"
       id="path1130" />
    <path
       style="fill:#000000;fill-opacity:0;stroke:#000000;stroke-width:0.7;stroke-linecap:round;stroke-miterlimit:4;stroke-dasharray:none;stroke-opacity:1"
       d="m 160.58295,141.11072 c -0.13982,-0.0998 -0.24799,-0.28877 -0.41945,-0.29948 -0.19633,-0.0123 -0.37561,0.13051 -0.5393,0.23959 -0.97566,0.65017 -1.38329,1.91872 -0.89882,2.99487 0.1027,0.22814 0.18258,0.48199 0.35953,0.65887 0.58018,0.57995 1.559,0.152 2.15718,-0.11979 0.0813,-0.0369 0.15675,-0.0866 0.23968,-0.1198 0.0185,-0.007 0.0599,0.02 0.0599,0 0,-0.0282 -0.04,-0.0399 -0.0599,-0.0599"
       id="path1132" />
    <path
       style="fill:#000000;fill-opacity:0;stroke:#000000;stroke-width:0.7;stroke-linecap:round;stroke-miterlimit:4;stroke-dasharray:none;stroke-opacity:1"
       d="m 159.80846,137.0377 c 0.0903,-0.31388 -0.0599,-0.59415 -0.0599,-0.89847 0,-0.02 -0.002,0.0401 0,0.0599 0.0175,0.14009 0.0443,0.27897 0.0599,0.41928 0.0244,0.21919 0.0336,0.43992 0.0599,0.65888 0.0585,0.48747 0.14277,1.01302 0.23969,1.49743 0.02,0.0998 0.13193,0.22752 0.0599,0.29949 -0.0388,0.0388 -0.12651,-0.0599 -0.17977,-0.0599"
       id="path1134" />
    <path
       style="fill:#000000;fill-opacity:0;stroke:#000000;stroke-width:0.7;stroke-linecap:round;stroke-miterlimit:4;stroke-dasharray:none;stroke-opacity:1"
       d="m 157.7112,130.90876 c -0.0632,1.25794 0.22985,2.4817 0.41946,3.71365 0.027,0.17549 0.17976,0.53315 0.17976,0.71877 0,0.02 -0.041,-0.006 -0.0599,0 -0.0424,0.0141 -0.0883,0.0915 -0.11984,0.0599 -0.0706,-0.0706 0,-0.19966 0,-0.29949"
       id="path1136" />
    <path
       style="fill:#000000;fill-opacity:0;stroke:#000000;stroke-width:0.7;stroke-linecap:round;stroke-miterlimit:4;stroke-dasharray:none;stroke-opacity:1"
       d="m 158.19058,133.36456 c 0.0599,-0.15973 0.0508,-0.36748 0.17976,-0.47918 0.34789,-0.30138 1.67653,-0.62853 2.15718,-0.77867 0.18887,-0.059 0.40737,-0.072 0.29961,-0.17969"
       id="path1138" />
    <path
       style="fill:#000000;fill-opacity:0;stroke:#000000;stroke-width:0.7;stroke-linecap:round;stroke-miterlimit:4;stroke-dasharray:none;stroke-opacity:1"
       d="m 159.6287,130.24989 c 0.49974,0.99478 0.50339,2.11857 0.77898,3.17457 0.0431,0.16506 0.12145,0.31885 0.17977,0.47917 0.0216,0.0593 0.003,0.15147 0.0599,0.1797 0.0736,0.0368 0.0599,-0.15727 0.0599,-0.23959"
       id="path1140" />
    <path
       style="fill:#000000;fill-opacity:0;stroke:#000000;stroke-width:0.7;stroke-linecap:round;stroke-miterlimit:4;stroke-dasharray:none;stroke-opacity:1"
       d="m 163.28515,142.30247 c 1.1447,-0.0856 2.26367,0.12794 3.41553,0"
       id="path1142" />
    <path
       style="fill:#000000;fill-opacity:0;stroke:#000000;stroke-width:0.7;stroke-linecap:round;stroke-miterlimit:4;stroke-dasharray:none;stroke-opacity:1"
       d="m 163.64468,144.0395 c 1.10469,-0.39752 2.31389,-0.50452 3.47546,-0.35939"
       id="path1144" />
    <path
       style="fill:#000000;fill-opacity:0;stroke:#000000;stroke-width:0.7;stroke-linecap:round;stroke-miterlimit:4;stroke-dasharray:none;stroke-opacity:1"
       d="m 171.97379,141.28421 c -0.0799,-0.13976 -0.0858,-0.37195 -0.23968,-0.41928 -0.42937,-0.13205 -1.17697,0.79492 -1.25836,0.89846 -0.53016,0.67448 -1.29601,2.32574 -0.65914,3.17457 0.49828,0.6641 1.26635,0.54953 1.9175,0.23959 0.38386,-0.18272 0.7949,-0.36316 0.89882,-0.77867"
       id="path1146" />
    <path
       style="fill:#000000;fill-opacity:0;stroke:#000000;stroke-width:0.7;stroke-linecap:round;stroke-miterlimit:4;stroke-dasharray:none;stroke-opacity:1"
       d="m 173.29207,141.52381 c 0.0599,0.23959 0.15925,0.47265 0.17977,0.71877 0.0466,0.55885 -0.17557,2.46524 0.0599,2.99487 0.14184,0.31901 0.31977,-0.1916 0.35953,-0.29949 0.25143,-0.68218 0.23969,-0.52689 0.23969,-0.89846"
       id="path1148" />
    <path
       style="fill:#000000;fill-opacity:0;stroke:#000000;stroke-width:0.7;stroke-linecap:round;stroke-miterlimit:4;stroke-dasharray:none;stroke-opacity:1"
       d="m 173.6516,142.78165 c 0.47158,-0.1337 0.96315,0.008 1.43812,-0.0599 0.25011,-0.0357 0.47938,-0.15972 0.71906,-0.23958"
       id="path1150" />
    <path
       style="fill:#000000;fill-opacity:0;stroke:#000000;stroke-width:0.7;stroke-linecap:round;stroke-miterlimit:4;stroke-dasharray:none;stroke-opacity:1"
       d="m 175.74887,139.78678 c 0.11705,1.49669 -0.30934,2.956 0.0599,4.43241 0.0457,0.18275 0.13111,0.5634 0.29962,0.47918 0.14036,-0.0702 -0.17978,-0.32944 -0.23969,-0.35938"
       id="path1152" />
    <path
       style="fill:#000000;fill-opacity:0;stroke:#000000;stroke-width:0.7;stroke-linecap:round;stroke-miterlimit:4;stroke-dasharray:none;stroke-opacity:1"
       d="m 178.02589,145.05776 c -0.28581,-0.005 0.0316,-1.40599 0.35953,-1.07816 0.51689,0.51668 -0.27055,1.81187 -0.59921,2.21621 -0.10689,0.13149 -0.23199,0.24782 -0.35954,0.35938 -0.0542,0.0474 -0.23067,0.0689 -0.17977,0.1198 0.02,0.02 0.0331,-0.051 0.0599,-0.0599 0.1747,-0.0582 0.36459,-0.0616 0.53929,-0.1198 0.42174,-0.14052 0.842,-0.28055 1.25836,-0.41928 0.0268,-0.009 -0.04,0.0399 -0.0599,0.0599"
       id="path1154" />
    <path
       style="fill:#000000;fill-opacity:0;stroke:#ff0000;stroke-width:0.7;stroke-linecap:round;stroke-miterlimit:4;stroke-dasharray:none;stroke-opacity:1"
       d="m 127.44911,140.62642 c -0.0795,-0.47058 -0.17381,-0.93889 -0.2384,-1.41174 -0.0191,-0.13995 -0.0223,-0.28267 -0.0123,-0.42357 0.008,-0.11302 0.009,0.22652 0.0183,0.33945 0.0477,0.58053 0.0187,0.98057 0.23245,1.49586 z"
       id="path1259" />
    <path
       style="fill:#000000;fill-opacity:0;stroke:#ff0000;stroke-width:0.7;stroke-linecap:round;stroke-miterlimit:4;stroke-dasharray:none;stroke-opacity:1"
       d="m 138.34804,139.66456 c 0.0364,-0.18388 0.2568,-0.83764 0.58865,-0.55012 0.29366,0.25443 0.0868,0.92912 -0.0412,1.18061 -0.13056,0.25638 -0.59604,0.79114 -0.78968,1.00086 -0.054,0.0584 -0.17459,0.077 -0.18021,0.15632 -0.003,0.0444 0.0866,-0.0205 0.1292,-0.0331 0.0853,-0.0252 0.17441,-0.0371 0.25841,-0.0662 0.69894,-0.24262 -0.0113,-0.0941 1.04255,-0.39119 0.12476,-0.0352 0.25696,-0.0349 0.38463,-0.0573 0.10081,-0.0177 0.19827,-0.0578 0.30048,-0.0633 0.0198,-0.001 0.0405,0.0252 0.0391,0.045 -0.001,0.014 -0.028,-0.002 -0.0421,-0.003"
       id="path1393" />
    <path
       style="fill:#000000;fill-opacity:0;stroke:#ff0000;stroke-width:0.7;stroke-linecap:round;stroke-miterlimit:4;stroke-dasharray:none;stroke-opacity:1"
       d="m 149.83952,139.33638 c 0.0319,-0.18799 0.29534,-0.5849 0.54359,-0.51103 0.25666,0.0764 0.36778,0.37507 0.29494,0.61263 -0.0682,0.22235 -0.17542,0.3272 -0.33024,0.48387 -0.0356,0.036 -0.14363,0.11664 -0.0931,0.12022 0.12931,0.009 0.25501,-0.0565 0.38464,-0.0573 0.31652,-0.002 0.71077,-0.009 1.00683,0.11351 0.33288,0.13772 0.36781,0.51027 0.0756,0.72393 -0.43172,0.31571 -1.07762,0.34577 -1.59251,0.39455"
       id="path1395" />
    <path
       style="fill:#000000;fill-opacity:0;stroke:#ff0000;stroke-width:0.7;stroke-linecap:round;stroke-miterlimit:4;stroke-dasharray:none;stroke-opacity:1"
       d="m 162.2581,139.03154 c -0.0721,0.0231 -0.17547,0.005 -0.21633,0.0692 -0.0685,0.10687 -0.10062,0.82447 -0.10457,0.88025 -0.01,0.1402 -0.0413,0.28051 -0.0298,0.42059 0.028,0.34003 0.59981,0.008 0.72421,-0.0756 0.0601,-0.0521 0.12014,-0.10422 0.18021,-0.15632 0.016,-0.0271 0.0243,-0.0606 0.048,-0.0812 0.03,-0.026 0.0723,0.0507 0.0782,0.0901 0.0805,0.53926 -0.0297,0.0515 -0.003,0.63385 0.015,0.32216 0.0986,0.99664 0.15044,0.26426"
       id="path1397" />
    <path
       style="fill:#000000;fill-opacity:0;stroke:#ff0000;stroke-width:0.7;stroke-linecap:round;stroke-miterlimit:4;stroke-dasharray:none;stroke-opacity:1"
       d="m 177.59359,138.6372 c -0.28526,0.13405 -0.4585,0.46909 -0.35107,0.77827 0.19625,0.56482 1.24152,-0.67256 1.43949,-0.0249 0.16458,0.53837 -0.2727,0.92543 -0.63626,1.22305 -0.49499,0.40521 -1.02004,0.67075 -0.95583,-0.23671"
       id="path1399" />
    <path
       style="fill:#000000;fill-opacity:0;stroke:#ff0000;stroke-width:0.7;stroke-linecap:round;stroke-miterlimit:4;stroke-dasharray:none;stroke-opacity:1"
       d="m 177.03768,138.72467 c 0.4696,-0.34064 1.02164,-0.48794 1.56828,-0.64988"
       id="path1401" />
  </g>
</svg>
