<?xml version="1.0" encoding="UTF-8" standalone="no"?>
<!-- Created with Inkscape (http://www.inkscape.org/) -->

<svg
   width="64.052467mm"
   height="30.461283mm"
   viewBox="0 0 64.052467 30.461283"
   version="1.1"
   id="svg2402"
   inkscape:version="1.1.2 (0a00cf5339, 2022-02-04)"
   sodipodi:docname="3-çözüm.svg"
   xmlns:inkscape="http://www.inkscape.org/namespaces/inkscape"
   xmlns:sodipodi="http://sodipodi.sourceforge.net/DTD/sodipodi-0.dtd"
   xmlns="http://www.w3.org/2000/svg"
   xmlns:svg="http://www.w3.org/2000/svg">
  <sodipodi:namedview
     id="namedview2404"
     pagecolor="#ffffff"
     bordercolor="#999999"
     borderopacity="1"
     inkscape:pageshadow="0"
     inkscape:pageopacity="0"
     inkscape:pagecheckerboard="0"
     inkscape:document-units="mm"
     showgrid="false"
     inkscape:zoom="0.64052329"
     inkscape:cx="102.26014"
     inkscape:cy="163.14785"
     inkscape:window-width="956"
     inkscape:window-height="1033"
     inkscape:window-x="960"
     inkscape:window-y="23"
     inkscape:window-maximized="1"
     inkscape:current-layer="layer1" />
  <defs
     id="defs2399" />
  <g
     inkscape:label="Layer 1"
     inkscape:groupmode="layer"
     id="layer1"
     transform="translate(-78.264448,-105.38688)">
    <path
       style="fill:#000000;fill-opacity:0;stroke:#000000;stroke-width:0.7;stroke-linecap:round;stroke-miterlimit:4;stroke-dasharray:none;stroke-opacity:1"
       d="m 78.614448,118.09515 c 0.0524,-0.50808 0.22498,-0.9939 0.29961,-1.49744 0.044,-0.2968 0.14731,-0.66385 0,-0.95836 -0.009,-0.0179 -0.002,0.0401 0,0.0599 0.0175,0.14009 0.0408,0.2794 0.0599,0.41928 0.0408,0.29937 0.0898,0.59783 0.11984,0.89847 0.20047,2.0039 0.0799,0.93651 0.11985,2.81518 0.0106,0.49943 0.0448,0.99812 0.0599,1.49744 0.005,0.15965 0,0.31945 0,0.47917 0,0.0599 0.0424,0.22204 0,0.1797 -0.0947,-0.0947 -0.11985,-0.23959 -0.17977,-0.35939"
       id="path1104-3" />
    <path
       style="fill:#000000;fill-opacity:0;stroke:#000000;stroke-width:0.7;stroke-linecap:round;stroke-miterlimit:4;stroke-dasharray:none;stroke-opacity:1"
       d="m 79.213668,119.65249 c 0.0599,-0.13977 0.0676,-0.31655 0.17976,-0.41929 0.46651,-0.42746 1.28192,-0.35938 1.85757,-0.35938"
       id="path1106-6" />
    <path
       style="fill:#000000;fill-opacity:0;stroke:#000000;stroke-width:0.7;stroke-linecap:round;stroke-miterlimit:4;stroke-dasharray:none;stroke-opacity:1"
       d="m 80.951388,116.17843 c 0.0599,0.41928 0.12628,0.8377 0.17977,1.25785 0.13732,1.07848 0.28455,2.15568 0.41945,3.23446 0.0298,0.23857 0.0318,0.48 0.0599,0.71877 0.0317,0.26934 0.12168,0.42297 0,0.17969"
       id="path1108-7" />
    <path
       style="fill:#000000;fill-opacity:0;stroke:#000000;stroke-width:0.7;stroke-linecap:round;stroke-miterlimit:4;stroke-dasharray:none;stroke-opacity:1"
       d="m 83.288338,120.85043 c -0.59302,-0.62348 0.44131,-0.98008 0.89883,-0.59897 0.0553,0.0461 0.0689,0.12879 0.11984,0.17969 0.0141,0.0141 0.0599,-0.02 0.0599,0 0,0.0631 -0.0475,0.11778 -0.0599,0.17969 -0.094,0.47007 -0.42562,0.66504 -0.71906,0.95836 -0.0141,0.0141 0.0401,0.002 0.0599,0 0.17998,-0.018 0.35883,-0.0719 0.5393,-0.0599 0.30946,0.0206 0.65591,0.28335 0.71906,0.59897 0.2746,1.37244 -1.97741,0.1652 -1.97741,-0.17969 0,-0.0384 0.17169,0.0518 0.35952,0.23959"
       id="path1112-5" />
    <path
       style="fill:#000000;fill-opacity:0;stroke:#000000;stroke-width:0.7;stroke-linecap:round;stroke-miterlimit:4;stroke-dasharray:none;stroke-opacity:1"
       d="m 88.022158,116.23833 c -0.11984,-0.0799 -0.21584,-0.23001 -0.35953,-0.23959 -0.44391,-0.0296 -1.14492,0.62589 -1.31828,0.83856 -0.33828,0.415 -0.69785,1.16477 -0.71906,1.73703 -0.0321,0.8657 0.40049,2.20989 1.31828,2.51569 0.74954,0.24975 1.43477,-0.19989 1.97741,-0.65887 0.11321,-0.0957 0.29961,-0.23777 0.29961,-0.41928 0,-0.17164 -0.20627,-0.14629 -0.29961,-0.23959"
       id="path1114-3" />
    <path
       style="fill:#000000;fill-opacity:0;stroke:#000000;stroke-width:0.7;stroke-linecap:round;stroke-miterlimit:4;stroke-dasharray:none;stroke-opacity:1"
       d="m 91.617458,117.85556 c 0.8705,0.11744 1.75871,0.0599 2.63656,0.0599 0.4325,0 1.23063,-0.0921 0.95875,0.17969"
       id="path1118-5" />
    <path
       style="fill:#000000;fill-opacity:0;stroke:#000000;stroke-width:0.7;stroke-linecap:round;stroke-miterlimit:4;stroke-dasharray:none;stroke-opacity:1"
       d="m 100.42595,116.23833 c -0.17976,0 -0.37849,-0.0804 -0.539292,0 -0.46964,0.23472 -0.88898,1.13022 -1.07859,1.49744 -0.40105,0.77672 -0.90147,1.8281 -0.41945,2.69538 0.55103,0.99146 1.951262,0.29299 2.636552,-0.0599 0.0216,-0.0111 0.91389,-0.50428 1.07859,-0.77867 0.0987,-0.1645 -0.5173,0.1143 -0.53929,0.11979"
       id="path1120-6" />
    <path
       style="fill:#000000;fill-opacity:0;stroke:#000000;stroke-width:0.7;stroke-linecap:round;stroke-miterlimit:4;stroke-dasharray:none;stroke-opacity:1"
       d="m 104.08118,116.8373 c 0.15979,-0.0399 0.31723,-0.0909 0.47937,-0.11979 0.79847,-0.14253 1.59757,-0.28153 2.39687,-0.41928 0.17825,-0.0307 0.35932,-0.0779 0.5393,-0.0599 0.0444,0.004 0.0599,0.0752 0.0599,0.11979 0,0.02 -0.04,0 -0.0599,0"
       id="path1122-2" />
    <path
       style="fill:#000000;fill-opacity:0;stroke:#000000;stroke-width:0.7;stroke-linecap:round;stroke-miterlimit:4;stroke-dasharray:none;stroke-opacity:1"
       d="m 104.38079,118.21495 c 0.43458,-0.14513 2.91895,-0.87001 3.23577,-0.65887 0.047,0.0313 -0.0634,0.11979 -0.11984,0.11979"
       id="path1124-9" />
    <path
       style="fill:#000000;fill-opacity:0;stroke:#000000;stroke-width:0.7;stroke-linecap:round;stroke-miterlimit:4;stroke-dasharray:none;stroke-opacity:1"
       d="m 104.38079,120.13167 c 0.98018,-0.47922 2.15766,-0.61389 3.23577,-0.47918 0.10106,0.0126 0.19915,0.0431 0.29961,0.0599 0.0197,0.003 0.0799,0 0.0599,0 -0.0999,0 -0.19974,0 -0.29961,0"
       id="path1126-1" />
    <path
       style="fill:#000000;fill-opacity:0;stroke:#000000;stroke-width:0.7;stroke-linecap:round;stroke-miterlimit:4;stroke-dasharray:none;stroke-opacity:1"
       d="m 112.71659,116.65761 c -0.21971,-0.0599 -0.44051,-0.24343 -0.65914,-0.17969 -1.11401,0.32479 -1.98572,2.62741 -1.43812,3.65375 0.46341,0.86852 2.0162,0.49354 2.69648,0.17969 0.14621,-0.0675 0.28289,-0.15428 0.41945,-0.23959 0.10466,-0.0654 0.0607,-0.2404 -0.0599,-0.1198"
       id="path1128-2" />
    <path
       style="fill:#000000;fill-opacity:0;stroke:#000000;stroke-width:0.7;stroke-linecap:round;stroke-miterlimit:4;stroke-dasharray:none;stroke-opacity:1"
       d="m 115.7726,118.51443 c 0.10833,-0.0722 0.35612,-0.28284 0.53929,-0.29948 0.61623,-0.056 1.31561,0.007 1.9175,0.11979 0.72697,0.13625 0.17106,0.1198 0.59922,0.1198 0.02,0 0.0599,0.02 0.0599,0 0,-0.0788 -0.18254,-0.1198 -0.23969,-0.1198"
       id="path1130-7" />
    <path
       style="fill:#000000;fill-opacity:0;stroke:#000000;stroke-width:0.7;stroke-linecap:round;stroke-miterlimit:4;stroke-dasharray:none;stroke-opacity:1"
       d="m 123.44258,116.59771 c -0.13982,-0.0998 -0.24799,-0.28877 -0.41945,-0.29948 -0.19633,-0.0123 -0.37561,0.13051 -0.5393,0.23959 -0.97566,0.65017 -1.38329,1.91872 -0.89882,2.99487 0.1027,0.22814 0.18258,0.48199 0.35953,0.65887 0.58018,0.57995 1.559,0.152 2.15718,-0.11979 0.0813,-0.0369 0.15675,-0.0866 0.23968,-0.1198 0.0185,-0.007 0.0599,0.02 0.0599,0 0,-0.0282 -0.04,-0.0399 -0.0599,-0.0599"
       id="path1132-0" />
    <path
       style="fill:#000000;fill-opacity:0;stroke:#000000;stroke-width:0.7;stroke-linecap:round;stroke-miterlimit:4;stroke-dasharray:none;stroke-opacity:1"
       d="m 122.66809,112.52469 c 0.0903,-0.31388 -0.0599,-0.59415 -0.0599,-0.89847 0,-0.02 -0.002,0.0401 0,0.0599 0.0175,0.14009 0.0443,0.27897 0.0599,0.41928 0.0244,0.21919 0.0336,0.43992 0.0599,0.65888 0.0585,0.48747 0.14277,1.01302 0.23969,1.49743 0.02,0.0998 0.13193,0.22752 0.0599,0.29949 -0.0388,0.0388 -0.12651,-0.0599 -0.17977,-0.0599"
       id="path1134-9" />
    <path
       style="fill:#000000;fill-opacity:0;stroke:#000000;stroke-width:0.7;stroke-linecap:round;stroke-miterlimit:4;stroke-dasharray:none;stroke-opacity:1"
       d="m 120.57083,106.39575 c -0.0632,1.25794 0.22985,2.4817 0.41946,3.71365 0.027,0.17549 0.17976,0.53315 0.17976,0.71877 0,0.02 -0.041,-0.006 -0.0599,0 -0.0424,0.0141 -0.0883,0.0915 -0.11984,0.0599 -0.0706,-0.0706 0,-0.19966 0,-0.29949"
       id="path1136-3" />
    <path
       style="fill:#000000;fill-opacity:0;stroke:#000000;stroke-width:0.7;stroke-linecap:round;stroke-miterlimit:4;stroke-dasharray:none;stroke-opacity:1"
       d="m 121.05021,108.85155 c 0.0599,-0.15973 0.0508,-0.36748 0.17976,-0.47918 0.34789,-0.30138 1.67653,-0.62853 2.15718,-0.77867 0.18887,-0.059 0.40737,-0.072 0.29961,-0.17969"
       id="path1138-6" />
    <path
       style="fill:#000000;fill-opacity:0;stroke:#000000;stroke-width:0.7;stroke-linecap:round;stroke-miterlimit:4;stroke-dasharray:none;stroke-opacity:1"
       d="m 122.48833,105.73688 c 0.49974,0.99478 0.50339,2.11857 0.77898,3.17457 0.0431,0.16506 0.12145,0.31885 0.17977,0.47917 0.0216,0.0593 0.003,0.15147 0.0599,0.1797 0.0736,0.0368 0.0599,-0.15727 0.0599,-0.23959"
       id="path1140-0" />
    <path
       style="fill:#000000;fill-opacity:0;stroke:#000000;stroke-width:0.7;stroke-linecap:round;stroke-miterlimit:4;stroke-dasharray:none;stroke-opacity:1"
       d="m 126.14478,117.78946 c 1.1447,-0.0856 2.26367,0.12794 3.41553,0"
       id="path1142-6" />
    <path
       style="fill:#000000;fill-opacity:0;stroke:#000000;stroke-width:0.7;stroke-linecap:round;stroke-miterlimit:4;stroke-dasharray:none;stroke-opacity:1"
       d="m 126.50431,119.52649 c 1.10469,-0.39752 2.31389,-0.50452 3.47546,-0.35939"
       id="path1144-2" />
    <path
       style="fill:#000000;fill-opacity:0;stroke:#000000;stroke-width:0.7;stroke-linecap:round;stroke-miterlimit:4;stroke-dasharray:none;stroke-opacity:1"
       d="m 134.83342,116.7712 c -0.0799,-0.13976 -0.0858,-0.37195 -0.23968,-0.41928 -0.42937,-0.13205 -1.17697,0.79492 -1.25836,0.89846 -0.53016,0.67448 -1.29601,2.32574 -0.65914,3.17457 0.49828,0.6641 1.26635,0.54953 1.9175,0.23959 0.38386,-0.18272 0.7949,-0.36316 0.89882,-0.77867"
       id="path1146-6" />
    <path
       style="fill:#000000;fill-opacity:0;stroke:#000000;stroke-width:0.7;stroke-linecap:round;stroke-miterlimit:4;stroke-dasharray:none;stroke-opacity:1"
       d="m 136.1517,117.0108 c 0.0599,0.23959 0.15925,0.47265 0.17977,0.71877 0.0466,0.55885 -0.17557,2.46524 0.0599,2.99487 0.14184,0.31901 0.31977,-0.1916 0.35953,-0.29949 0.25143,-0.68218 0.23969,-0.52689 0.23969,-0.89846"
       id="path1148-1" />
    <path
       style="fill:#000000;fill-opacity:0;stroke:#000000;stroke-width:0.7;stroke-linecap:round;stroke-miterlimit:4;stroke-dasharray:none;stroke-opacity:1"
       d="m 136.51123,118.26864 c 0.47158,-0.1337 0.96315,0.008 1.43812,-0.0599 0.25011,-0.0357 0.47938,-0.15972 0.71906,-0.23958"
       id="path1150-8" />
    <path
       style="fill:#000000;fill-opacity:0;stroke:#000000;stroke-width:0.7;stroke-linecap:round;stroke-miterlimit:4;stroke-dasharray:none;stroke-opacity:1"
       d="m 138.6085,115.27377 c 0.11705,1.49669 -0.30934,2.956 0.0599,4.43241 0.0457,0.18275 0.13111,0.5634 0.29962,0.47918 0.14036,-0.0702 -0.17978,-0.32944 -0.23969,-0.35938"
       id="path1152-7" />
    <path
       style="fill:#000000;fill-opacity:0;stroke:#000000;stroke-width:0.7;stroke-linecap:round;stroke-miterlimit:4;stroke-dasharray:none;stroke-opacity:1"
       d="m 140.88552,120.54475 c -0.28581,-0.005 0.0316,-1.40599 0.35953,-1.07816 0.51689,0.51668 -0.27055,1.81187 -0.59921,2.21621 -0.10689,0.13149 -0.23199,0.24782 -0.35954,0.35938 -0.0542,0.0474 -0.23067,0.0689 -0.17977,0.1198 0.02,0.02 0.0331,-0.051 0.0599,-0.0599 0.1747,-0.0582 0.36459,-0.0616 0.53929,-0.1198 0.42174,-0.14052 0.842,-0.28055 1.25836,-0.41928 0.0268,-0.009 -0.04,0.0399 -0.0599,0.0599"
       id="path1154-9" />
    <path
       style="fill:#000000;fill-opacity:0;stroke:#ff0000;stroke-width:0.7;stroke-linecap:round;stroke-miterlimit:4;stroke-dasharray:none;stroke-opacity:1"
       d="m 90.308738,116.11341 c -0.0795,-0.47058 -0.17381,-0.93889 -0.2384,-1.41174 -0.0191,-0.13995 -0.0223,-0.28267 -0.0123,-0.42357 0.008,-0.11302 0.009,0.22652 0.0183,0.33945 0.0477,0.58053 0.0187,0.98057 0.23245,1.49586 z"
       id="path1259-2" />
    <path
       style="fill:#000000;fill-opacity:0;stroke:#ff0000;stroke-width:0.7;stroke-linecap:round;stroke-miterlimit:4;stroke-dasharray:none;stroke-opacity:1"
       d="m 101.20767,115.15155 c 0.0364,-0.18388 0.2568,-0.83764 0.58865,-0.55012 0.29366,0.25443 0.0868,0.92912 -0.0412,1.18061 -0.13056,0.25638 -0.59604,0.79114 -0.78968,1.00086 -0.054,0.0584 -0.17459,0.077 -0.18021,0.15632 -0.003,0.0444 0.0866,-0.0205 0.1292,-0.0331 0.0853,-0.0252 0.17441,-0.0371 0.25841,-0.0662 0.69894,-0.24262 -0.0113,-0.0941 1.04255,-0.39119 0.12476,-0.0352 0.25696,-0.0349 0.38463,-0.0573 0.10081,-0.0177 0.19827,-0.0578 0.30048,-0.0633 0.0198,-0.001 0.0405,0.0252 0.0391,0.045 -0.001,0.014 -0.028,-0.002 -0.0421,-0.003"
       id="path1393-0" />
    <path
       style="fill:#000000;fill-opacity:0;stroke:#ff0000;stroke-width:0.7;stroke-linecap:round;stroke-miterlimit:4;stroke-dasharray:none;stroke-opacity:1"
       d="m 112.69915,114.82337 c 0.0319,-0.18799 0.29534,-0.5849 0.54359,-0.51103 0.25666,0.0764 0.36778,0.37507 0.29494,0.61263 -0.0682,0.22235 -0.17542,0.3272 -0.33024,0.48387 -0.0356,0.036 -0.14363,0.11664 -0.0931,0.12022 0.12931,0.009 0.25501,-0.0565 0.38464,-0.0573 0.31652,-0.002 0.71077,-0.009 1.00683,0.11351 0.33288,0.13772 0.36781,0.51027 0.0756,0.72393 -0.43172,0.31571 -1.07762,0.34577 -1.59251,0.39455"
       id="path1395-2" />
    <path
       style="fill:#000000;fill-opacity:0;stroke:#ff0000;stroke-width:0.7;stroke-linecap:round;stroke-miterlimit:4;stroke-dasharray:none;stroke-opacity:1"
       d="m 125.11773,114.51853 c -0.0721,0.0231 -0.17547,0.005 -0.21633,0.0692 -0.0685,0.10687 -0.10062,0.82447 -0.10457,0.88025 -0.01,0.1402 -0.0413,0.28051 -0.0298,0.42059 0.028,0.34003 0.59981,0.008 0.72421,-0.0756 0.0601,-0.0521 0.12014,-0.10422 0.18021,-0.15632 0.016,-0.0271 0.0243,-0.0606 0.048,-0.0812 0.03,-0.026 0.0723,0.0507 0.0782,0.0901 0.0805,0.53926 -0.0297,0.0515 -0.003,0.63385 0.015,0.32216 0.0986,0.99664 0.15044,0.26426"
       id="path1397-3" />
    <path
       style="fill:#000000;fill-opacity:0;stroke:#ff0000;stroke-width:0.7;stroke-linecap:round;stroke-miterlimit:4;stroke-dasharray:none;stroke-opacity:1"
       d="m 140.45322,114.12419 c -0.28526,0.13405 -0.4585,0.46909 -0.35107,0.77827 0.19625,0.56482 1.24152,-0.67256 1.43949,-0.0249 0.16458,0.53837 -0.2727,0.92543 -0.63626,1.22305 -0.49499,0.40521 -1.02004,0.67075 -0.95583,-0.23671"
       id="path1399-7" />
    <path
       style="fill:#000000;fill-opacity:0;stroke:#ff0000;stroke-width:0.7;stroke-linecap:round;stroke-miterlimit:4;stroke-dasharray:none;stroke-opacity:1"
       d="m 139.89731,114.21166 c 0.4696,-0.34064 1.02164,-0.48794 1.56828,-0.64988"
       id="path1401-5" />
    <path
       style="fill:#000000;fill-opacity:0;stroke:#3300ff;stroke-width:0.7;stroke-linecap:round;stroke-miterlimit:4;stroke-dasharray:none;stroke-opacity:1"
       d="m 89.401868,121.32928 c 0.16399,0.0678 0.38481,0.0621 0.49199,0.20353 0.18578,0.2452 0.24941,0.56642 0.3185,0.86618 0.15565,0.67527 0.2184,1.50372 0.1395,2.20335 -0.0474,0.42028 -0.295,1.18731 -0.32874,1.66403"
       id="path2078" />
    <path
       style="fill:#000000;fill-opacity:0;stroke:#3300ff;stroke-width:0.7;stroke-linecap:round;stroke-miterlimit:4;stroke-dasharray:none;stroke-opacity:1"
       d="m 89.149028,124.30632 c 0.21856,0.75242 0.35124,1.52603 0.68535,2.24196 0.0252,0.0539 0.0696,0.17076 0.11706,0.13483 0.12503,-0.0947 0.15526,-0.27268 0.23964,-0.40486 0.21626,-0.33878 0.4098,-0.69484 0.66209,-1.00771 1.26677,-1.5709 0.58606,-0.43579 0.8661,-0.90891"
       id="path2080" />
    <path
       style="fill:#000000;fill-opacity:0;stroke:#3300ff;stroke-width:0.7;stroke-linecap:round;stroke-miterlimit:4;stroke-dasharray:none;stroke-opacity:1"
       d="m 86.584118,129.54329 c -0.18591,0.0431 -0.38253,0.0536 -0.55774,0.12927 -0.2216,0.0957 -0.43877,0.21594 -0.61754,0.37812 -0.88653,0.80425 0.11795,0.87367 0.72355,1.10575 0.1317,0.0505 0.55464,0.14634 0.3482,0.44646 -0.27262,0.39632 -1.08517,0.6403 -1.44503,0.7414 -0.23591,0.0663 -0.48262,0.0864 -0.7257,0.11738 -0.0989,0.0126 -0.27206,-0.0614 -0.081,-0.0479"
       id="path2082" />
    <path
       style="fill:#000000;fill-opacity:0;stroke:#3300ff;stroke-width:0.7;stroke-linecap:round;stroke-miterlimit:4;stroke-dasharray:none;stroke-opacity:1"
       d="m 87.907388,130.52274 c -0.0209,0.0969 -0.0617,0.19167 -0.0628,0.29084 -0.0267,2.4943 0.16989,1.09581 -0.11755,3.45062 -0.0342,0.27984 -0.0712,0.56098 -0.14337,0.8335 -0.008,0.0303 -0.0805,0.0667 -0.087,0.036 -0.0232,-0.1098 0.0158,-0.22386 0.0238,-0.33578"
       id="path2084" />
    <path
       style="fill:#000000;fill-opacity:0;stroke:#3300ff;stroke-width:0.7;stroke-linecap:round;stroke-miterlimit:4;stroke-dasharray:none;stroke-opacity:1"
       d="m 87.728378,131.85991 c -0.0353,-0.759 -0.21168,-0.84468 0.55988,-1.3524 0.27261,-0.17939 0.58596,-0.33411 0.91147,-0.35733 0.42568,-0.0304 1.01222,0.52972 0.81643,0.98578 -0.20769,0.4838 -0.76944,0.78115 -1.20794,0.96908 -0.20266,0.0868 -0.87085,0.37962 -0.83384,-0.14336"
       id="path2086" />
    <path
       style="fill:#000000;fill-opacity:0;stroke:#3300ff;stroke-width:0.7;stroke-linecap:round;stroke-miterlimit:4;stroke-dasharray:none;stroke-opacity:1"
       d="m 91.351808,128.36207 c 0.18601,-0.45956 1.43582,-0.034 0.98398,0.40708 -0.17279,0.16867 -0.52292,0.2031 -0.6625,0.41713 -0.18836,0.28881 0.77651,0.42947 0.59123,0.5902 -0.37992,0.32957 -0.96754,0.39187 -1.43019,0.53154 -0.13228,0.0399 -0.25423,0.11431 -0.38978,0.14115 -0.0308,0.006 -0.054,-0.0319 -0.081,-0.0479"
       id="path2088" />
    <path
       style="fill:#000000;fill-opacity:0;stroke:#3300ff;stroke-width:0.7;stroke-linecap:round;stroke-miterlimit:4;stroke-dasharray:none;stroke-opacity:1"
       d="m 100.06286,121.54278 c -0.0677,1.06743 -0.128822,2.14445 0.0262,3.2077 0.0173,0.11859 0.0814,0.22667 0.10221,0.34469 0.002,0.0138 -0.0328,0.008 -0.042,-0.003 -0.149542,-0.17224 0.02,-0.12513 -0.201042,-0.14078"
       id="path2090" />
    <path
       style="fill:#000000;fill-opacity:0;stroke:#3300ff;stroke-width:0.7;stroke-linecap:round;stroke-miterlimit:4;stroke-dasharray:none;stroke-opacity:1"
       d="m 99.242948,124.18442 c 0.0323,0.45156 -0.0123,0.26766 0.2375,0.81827 0.15394,0.33926 0.27457,0.65508 0.34227,0.5304 0.180202,-0.33189 0.219282,-0.72468 0.371132,-1.07047 0.0661,-0.1506 0.22566,-0.41819 0.33847,-0.60879"
       id="path2092" />
    <path
       style="fill:#000000;fill-opacity:0;stroke:#3300ff;stroke-width:0.7;stroke-linecap:round;stroke-miterlimit:4;stroke-dasharray:none;stroke-opacity:1"
       d="m 99.573668,129.64932 c -0.0181,-0.45117 0.0947,-0.59185 -0.63322,-0.59317 -0.30503,-5.3e-4 -1.5615,0.65406 -1.33688,1.00214 0.085,0.13181 0.26009,0.17961 0.40504,0.23957 0.55231,0.2285 2.225022,0.4358 1.96837,1.40474 -0.0419,0.15813 -0.14213,0.31648 -0.28163,0.4019 -0.5366,0.32856 -1.56941,0.24148 -2.05747,-0.14558 -0.10368,-0.0822 -0.16765,-0.2196 -0.18618,-0.35063 -0.0534,-0.37756 0.60909,-0.37705 0.83045,-0.40524"
       id="path2094" />
    <path
       style="fill:#000000;fill-opacity:0;stroke:#3300ff;stroke-width:0.7;stroke-linecap:round;stroke-miterlimit:4;stroke-dasharray:none;stroke-opacity:1"
       d="m 100.96524,129.66342 c 0.0112,0.23982 0.0453,0.47968 0.0335,0.71947 -0.0208,0.42049 -0.0892,0.83727 -0.13108,1.25619 -0.0544,0.54446 -0.0944,1.09044 -0.15782,1.63394 -0.044,0.37717 -0.11301,0.75103 -0.16416,1.1273 -0.008,0.0556 -0.0158,0.22385 -0.0119,0.16789 0.0318,-0.44909 -0.007,-0.25603 0.0836,-0.58464"
       id="path2096" />
    <path
       style="fill:#000000;fill-opacity:0;stroke:#3300ff;stroke-width:0.7;stroke-linecap:round;stroke-miterlimit:4;stroke-dasharray:none;stroke-opacity:1"
       d="m 100.84604,130.75172 c 0.30065,-1.0548 0.98944,-0.9942 1.79621,-0.33691 0.124,0.10103 0.22956,0.2431 0.26719,0.39855 0.263,1.08628 -1.46961,1.2876 -2.15249,1.19753 -0.17595,-0.0232 -0.32799,-0.1357 -0.49199,-0.20355"
       id="path2098" />
    <path
       style="fill:#000000;fill-opacity:0;stroke:#3300ff;stroke-width:0.7;stroke-linecap:round;stroke-miterlimit:4;stroke-dasharray:none;stroke-opacity:1"
       d="m 112.35887,121.31606 c 0.0321,0.14288 0.0729,0.28408 0.0963,0.42863 0.19964,1.23284 0.0395,0.74169 0.33418,1.83748 0.0751,0.27935 0.182,0.3912 0.0661,0.25777"
       id="path2100" />
    <path
       style="fill:#000000;fill-opacity:0;stroke:#3300ff;stroke-width:0.7;stroke-linecap:round;stroke-miterlimit:4;stroke-dasharray:none;stroke-opacity:1"
       d="m 111.86515,122.92623 c 0.49308,0.34924 0.87696,0.79067 1.39835,1.11131 0.0986,0.0606 0.2294,0.16492 0.32997,0.10771 0.1825,-0.10381 -0.0667,-0.38436 -0.14123,-0.38963"
       id="path2102" />
    <path
       style="fill:#000000;fill-opacity:0;stroke:#3300ff;stroke-width:0.7;stroke-linecap:round;stroke-miterlimit:4;stroke-dasharray:none;stroke-opacity:1"
       d="m 111.60249,129.02406 c -0.15317,-0.26906 -0.14204,-0.43004 -0.57299,-0.25145 -0.23076,0.0956 -0.45268,0.2351 -0.62052,0.42009 -0.17708,0.19518 -0.29302,0.44332 -0.3864,0.68976 -0.0179,0.0473 0.0419,0.0937 0.0751,0.13186 0.26547,0.30577 0.58199,0.45889 0.97209,0.57496 0.20572,0.0612 0.43189,0.0688 0.62093,0.17049 0.33194,0.17848 0.18567,0.38725 -0.0386,0.54563 -0.64849,0.45798 -2.44634,1.08604 -3.1038,0.32876 -0.27735,-0.31945 0.39815,-0.76049 0.47928,-0.80973 0.18496,-0.11225 0.49585,-0.15982 0.73163,-0.20133"
       id="path2104" />
    <path
       style="fill:#000000;fill-opacity:0;stroke:#3300ff;stroke-width:0.7;stroke-linecap:round;stroke-miterlimit:4;stroke-dasharray:none;stroke-opacity:1"
       d="m 113.77701,129.30447 c 0.33718,1.23939 -0.0109,3.32939 -0.0688,4.5508 -0.0193,0.40726 0.006,0.8155 -0.002,1.22313 -0.003,0.14023 0.11021,0.42962 -0.0297,0.41972 -0.15069,-0.0107 -0.10628,-0.28395 -0.13826,-0.4316 -0.0425,-0.19627 -0.0563,-0.39768 -0.0844,-0.59652"
       id="path2106" />
    <path
       style="fill:#000000;fill-opacity:0;stroke:#3300ff;stroke-width:0.7;stroke-linecap:round;stroke-miterlimit:4;stroke-dasharray:none;stroke-opacity:1"
       d="m 113.47798,130.54877 c 0.14774,-0.29888 0.21391,-0.65464 0.44324,-0.89665 0.48077,-0.50735 1.66334,-0.14257 1.90773,0.47245 0.38902,0.97897 -1.40067,1.46991 -2.04434,1.45827 -0.0627,-0.001 -0.10802,-0.0639 -0.16202,-0.0958"
       id="path2108" />
    <path
       style="fill:#000000;fill-opacity:0;stroke:#3300ff;stroke-width:0.7;stroke-linecap:round;stroke-miterlimit:4;stroke-dasharray:none;stroke-opacity:1"
       d="m 123.20132,121.49268 c 0.0191,0.12789 0.0485,0.25467 0.0572,0.38368 0.11921,1.76533 -0.0504,0.64046 0.14288,2.75196 0.0416,0.45479 0.22559,0.64215 0.13826,0.4316"
       id="path2110" />
    <path
       style="fill:#000000;fill-opacity:0;stroke:#3300ff;stroke-width:0.7;stroke-linecap:round;stroke-miterlimit:4;stroke-dasharray:none;stroke-opacity:1"
       d="m 122.48915,123.80449 c -0.023,-0.0719 0.003,-0.23885 -0.0691,-0.21581 -0.0719,0.0231 0.044,0.14459 0.0691,0.21581 0.0921,0.26051 0.17661,0.52405 0.28246,0.77926 0.0866,0.20892 0.17303,0.42048 0.29433,0.61138 0.0958,0.1507 0.17844,0.35929 0.35117,0.40449 0.49196,0.12872 0.67035,-1.63986 0.20277,-1.67295"
       id="path2112" />
    <path
       style="fill:#000000;fill-opacity:0;stroke:#3300ff;stroke-width:0.7;stroke-linecap:round;stroke-miterlimit:4;stroke-dasharray:none;stroke-opacity:1"
       d="m 123.24866,129.17318 c -0.42062,-0.61187 -1.63891,0.11356 -1.19309,0.75922 0.32881,0.47622 1.19274,0.46598 1.54212,0.8684 0.25051,0.28854 -0.0484,0.57244 -0.26043,0.69867 -0.56119,0.33409 -1.41437,0.48314 -2.03923,0.19317 -0.31545,-0.14639 -0.67659,-0.63076 -0.15352,-0.81232 0.12003,-0.0417 0.25391,-0.0102 0.38087,-0.0152"
       id="path2114" />
    <path
       style="fill:#000000;fill-opacity:0;stroke:#3300ff;stroke-width:0.7;stroke-linecap:round;stroke-miterlimit:4;stroke-dasharray:none;stroke-opacity:1"
       d="m 124.56814,129.01345 c 0.0211,0.0999 0.054,0.19805 0.0632,0.29974 0.0216,0.23857 0.14157,2.36545 0.15476,2.58406 0.042,0.69612 0.16444,1.85079 0.10682,2.66504 -0.001,0.0198 -0.0344,-0.0256 -0.039,-0.0449 -0.10012,-0.4231 -0.10796,-0.52026 -0.15055,-0.8543"
       id="path2116" />
    <path
       style="fill:#000000;fill-opacity:0;stroke:#3300ff;stroke-width:0.7;stroke-linecap:round;stroke-miterlimit:4;stroke-dasharray:none;stroke-opacity:1"
       d="m 124.41883,129.93089 c -0.26232,-1.87794 3.1144,-0.28832 1.86575,0.46947 -0.43278,0.26265 -1.19904,0.37201 -1.67618,0.42977 -0.13999,0.017 -0.28368,0.0349 -0.42286,0.0123 -0.031,-0.005 -0.0645,-0.0737 -0.036,-0.0869 0.18904,-0.0881 0.41,-0.0884 0.60269,-0.16827"
       id="path2118" />
    <path
       style="fill:#000000;fill-opacity:0;stroke:#3300ff;stroke-width:0.7;stroke-linecap:round;stroke-miterlimit:4;stroke-dasharray:none;stroke-opacity:1"
       d="m 126.98486,128.25644 c -0.0857,-0.15889 -0.14112,-0.5157 0.006,-0.67453 0.0535,-0.058 0.50606,-0.48586 0.57853,-0.42306 0.22057,0.1911 -0.10658,1.0134 -0.21507,1.25024 -0.0846,0.18479 -0.5056,0.58525 -0.51533,0.72282 -10e-4,0.0198 0.0266,-0.0314 0.045,-0.039 0.19482,-0.0807 0.56428,-0.20869 0.77659,-0.24033 0.43269,-0.0645 0.83548,0.0591 1.25967,0.0891"
       id="path2120" />
    <path
       style="fill:#000000;fill-opacity:0;stroke:#3300ff;stroke-width:0.7;stroke-linecap:round;stroke-miterlimit:4;stroke-dasharray:none;stroke-opacity:1"
       d="m 135.38338,121.08916 c 0.89883,0.87628 0.55898,0.4705 1.53999,2.09153 0.51852,0.85682 0.58678,1.47988 0.12761,2.37123"
       id="path2126" />
    <path
       style="fill:#000000;fill-opacity:0;stroke:#3300ff;stroke-width:0.7;stroke-linecap:round;stroke-miterlimit:4;stroke-dasharray:none;stroke-opacity:1"
       d="m 136.45934,124.37114 c 0.66875,1.31665 0.066,0.0515 0.25532,0.56643 0.0909,0.24735 0.17653,0.49731 0.28542,0.7373 0.2864,0.63119 0.46151,0.29116 0.56665,-0.25519 0.0821,-0.42673 -0.0353,-0.80395 0.1404,-0.79152"
       id="path2128" />
    <path
       style="fill:#000000;fill-opacity:0;stroke:#3300ff;stroke-width:0.7;stroke-linecap:round;stroke-miterlimit:4;stroke-dasharray:none;stroke-opacity:1"
       d="m 136.0788,129.15298 c 0.036,-1.13948 -1.48051,-0.31504 -1.20836,0.37851 0.14026,0.35744 0.60747,0.68016 0.90932,0.8658 0.12872,0.0792 0.28696,0.10713 0.40801,0.1976 0.19819,0.14811 0.22,0.30329 -0.0297,0.41971 -0.51331,0.23934 -1.54582,0.29592 -2.08122,0.1902 -0.1176,-0.0232 -0.24256,-0.0646 -0.327,-0.14968 -0.23134,-0.23314 0.45882,-0.308 0.65657,-0.33318"
       id="path2130" />
    <path
       style="fill:#000000;fill-opacity:0;stroke:#3300ff;stroke-width:0.7;stroke-linecap:round;stroke-miterlimit:4;stroke-dasharray:none;stroke-opacity:1"
       d="m 136.94275,129.46721 c 0.0469,-0.067 0.0592,-0.20673 0.14081,-0.20095 0.0896,0.006 0.14378,0.1324 0.15311,0.22174 0.0424,0.4055 0.0324,0.81688 -0.002,1.22313 -0.05,0.58846 -0.18102,1.16746 -0.25069,1.75392 -0.0347,0.29248 -0.0533,0.58701 -0.0624,0.88141 -0.002,0.0578 0.026,0.22854 0.0301,0.17086 0.014,-0.19728 -0.0144,-0.3933 -5.3e-4,-0.59058"
       id="path2132" />
    <path
       style="fill:#000000;fill-opacity:0;stroke:#3300ff;stroke-width:0.7;stroke-linecap:round;stroke-miterlimit:4;stroke-dasharray:none;stroke-opacity:1"
       d="m 136.47493,129.51847 c 0.42569,-0.2511 0.79658,-0.63759 1.27708,-0.75329 0.4777,-0.11502 0.83404,1.14907 0.84357,1.19861 0.16015,0.8324 -1.72168,0.82098 -2.15884,0.69089 -0.0672,-0.02 0.11206,-0.0872 0.17686,-0.11403"
       id="path2134" />
    <path
       style="fill:#000000;fill-opacity:0;stroke:#3300ff;stroke-width:0.7;stroke-linecap:round;stroke-miterlimit:4;stroke-dasharray:none;stroke-opacity:1"
       d="m 139.46977,127.74781 c 0.0199,-0.083 0.01,-0.1799 0.0598,-0.24886 0.0892,-0.12253 0.60517,-0.20324 0.58785,0.0416 -0.0351,0.49578 -0.50467,0.83487 -0.7219,1.25657 -0.0144,0.0279 -0.0457,0.0497 -0.0479,0.081 -0.001,0.014 0.028,0.004 0.042,0.003 0.11303,-0.005 0.2265,-0.005 0.33888,-0.0182 0.23986,-0.0276 0.95143,-0.21187 1.0527,0.0323"
       id="path2136" />
  </g>
</svg>
