<?xml version="1.0" encoding="UTF-8" standalone="no"?>
<!-- Created with Inkscape (http://www.inkscape.org/) -->

<svg
   width="45.864735mm"
   height="38.730751mm"
   viewBox="0 0 45.864735 38.730751"
   version="1.1"
   id="svg65581"
   inkscape:version="1.2.2 (b0a8486541, 2022-12-01)"
   sodipodi:docname="4-çözüm.svg"
   xmlns:inkscape="http://www.inkscape.org/namespaces/inkscape"
   xmlns:sodipodi="http://sodipodi.sourceforge.net/DTD/sodipodi-0.dtd"
   xmlns="http://www.w3.org/2000/svg"
   xmlns:svg="http://www.w3.org/2000/svg">
  <sodipodi:namedview
     id="namedview65583"
     pagecolor="#ffffff"
     bordercolor="#000000"
     borderopacity="0.25"
     inkscape:showpageshadow="2"
     inkscape:pageopacity="0.0"
     inkscape:pagecheckerboard="0"
     inkscape:deskcolor="#d1d1d1"
     inkscape:document-units="mm"
     showgrid="true"
     inkscape:zoom="2.9298302"
     inkscape:cx="52.392114"
     inkscape:cy="79.526792"
     inkscape:window-width="1920"
     inkscape:window-height="1080"
     inkscape:window-x="0"
     inkscape:window-y="0"
     inkscape:window-maximized="1"
     inkscape:current-layer="layer1">
    <inkscape:grid
       type="xygrid"
       id="grid66089"
       units="mm"
       spacingx="5"
       spacingy="5"
       empspacing="1"
       originx="-24.56772"
       originy="-16.973032" />
  </sodipodi:namedview>
  <defs
     id="defs65578" />
  <g
     inkscape:label="Layer 1"
     inkscape:groupmode="layer"
     id="layer1"
     transform="translate(-24.56772,-16.973032)">
    <circle
       style="fill:#000000;fill-opacity:0;stroke:#000000;stroke-width:0.7;stroke-linecap:round;stroke-linejoin:round"
       id="path66199"
       cx="30.000185"
       cy="25.068903"
       r="4.6845751" />
    <path
       style="fill:#000000;fill-opacity:0;stroke:#000000;stroke-width:0.7;stroke-linecap:round;stroke-linejoin:round"
       d="m 25.446042,29.973479 9.597885,-9.63801"
       id="path67656" />
    <path
       style="fill:#000000;fill-opacity:0;stroke:#000000;stroke-width:0.7;stroke-linecap:round;stroke-linejoin:round"
       d="M 24.91772,20.071414 34.999898,30.193522"
       id="path67664" />
    <circle
       style="fill:#000000;fill-opacity:0;stroke:#000000;stroke-width:0.7;stroke-linecap:round;stroke-linejoin:round"
       id="circle67666"
       cx="44.705196"
       cy="25.068903"
       r="4.6845751" />
    <circle
       style="fill:#000000;fill-opacity:0;stroke:#000000;stroke-width:0.7;stroke-linecap:round;stroke-linejoin:round"
       id="circle67672"
       cx="55.05154"
       cy="25.068903"
       r="4.6845751" />
    <circle
       style="fill:#000000;fill-opacity:0;stroke:#000000;stroke-width:0.7;stroke-linecap:round;stroke-linejoin:round"
       id="circle67678"
       cx="65.397881"
       cy="25.068903"
       r="4.6845751" />
    <circle
       style="fill:#000000;fill-opacity:0;stroke:#000000;stroke-width:0.7;stroke-linecap:round;stroke-linejoin:round"
       id="circle67724"
       cx="30.000185"
       cy="39.944004"
       r="4.6845751" />
    <path
       style="fill:#000000;fill-opacity:0;stroke:#000000;stroke-width:0.7;stroke-linecap:round;stroke-linejoin:round"
       d="m 25.446042,44.84858 9.597885,-9.63801"
       id="path67726" />
    <circle
       style="fill:#000000;fill-opacity:0;stroke:#000000;stroke-width:0.7;stroke-linecap:round;stroke-linejoin:round"
       id="circle67730"
       cx="44.705196"
       cy="39.944004"
       r="4.6845751" />
    <path
       style="fill:#000000;fill-opacity:0;stroke:#000000;stroke-width:0.7;stroke-linecap:round;stroke-linejoin:round"
       d="M 40.151055,44.84858 49.74894,35.21057"
       id="path67732" />
    <circle
       style="fill:#000000;fill-opacity:0;stroke:#000000;stroke-width:0.7;stroke-linecap:round;stroke-linejoin:round"
       id="circle67736"
       cx="55.05154"
       cy="39.944004"
       r="4.6845751" />
    <circle
       style="fill:#000000;fill-opacity:0;stroke:#000000;stroke-width:0.7;stroke-linecap:round;stroke-linejoin:round"
       id="circle67742"
       cx="65.397881"
       cy="39.944004"
       r="4.6845751" />
    <path
       style="fill:#000000;fill-opacity:0;stroke:#000000;stroke-width:0.7;stroke-linecap:round;stroke-linejoin:round"
       d="m 32.189372,19.814566 c 0.0587,-0.132028 0.06408,-0.304835 0.176107,-0.396083 0.554892,-0.45195 1.489067,-0.777348 2.157325,-0.968201 1.733873,-0.495192 4.070845,-1.167911 5.547399,0.308064"
       id="path67754" />
    <path
       style="fill:#000000;fill-opacity:0;stroke:#000000;stroke-width:0.7;stroke-linecap:round;stroke-linejoin:round"
       d="m 39.101611,17.482079 c 0.600663,-0.30021 0.259263,-0.233968 1.100672,0.704147 0.119579,0.133322 0.195231,0.30112 0.308192,0.440092 0.07853,0.09661 0.176107,0.176037 0.26416,0.264055 0.02935,0.02934 0.08805,0.04652 0.08805,0.08802 0,0.09212 -0.460087,0.02125 -0.748459,0.04401 -0.339341,0.02678 -0.679984,0.05975 -1.012619,0.132028 -1.02666,0.223095 -1.012623,-0.04104 -1.012623,0.352073"
       id="path67756" />
    <path
       style="fill:#000000;fill-opacity:0;stroke:#000000;stroke-width:0.7;stroke-linecap:round;stroke-linejoin:round"
       d="m 35.0071,49.846052 c 0.377081,3.894952 0.322686,1.528218 0.176106,3.652763 -0.0081,0.117079 0.01662,0.235898 0,0.352074 -0.01468,0.10269 -0.04402,-0.204335 -0.04402,-0.308065"
       id="path67758" />
    <path
       style="fill:#000000;fill-opacity:0;stroke:#000000;stroke-width:0.7;stroke-linecap:round;stroke-linejoin:round"
       d="m 34.875017,51.958493 c 0.968595,0 1.937189,0 2.905784,0"
       id="path67760" />
    <path
       style="fill:#000000;fill-opacity:0;stroke:#000000;stroke-width:0.7;stroke-linecap:round;stroke-linejoin:round"
       d="m 38.088988,49.581998 c 0.188047,1.879618 0.09155,0.796607 0.132082,4.929029 1.43e-4,0.01468 -0.04047,0.01423 -0.04403,0 -0.0287,-0.114737 -0.02935,-0.234715 -0.04403,-0.352073"
       id="path67762" />
    <path
       style="fill:#000000;fill-opacity:0;stroke:#000000;stroke-width:0.7;stroke-linecap:round;stroke-linejoin:round"
       d="m 40.862689,52.310566 c 1.10118,-0.04939 2.200878,-0.04401 3.302023,-0.04401"
       id="path67764" />
    <path
       style="fill:#000000;fill-opacity:0;stroke:#000000;stroke-width:0.7;stroke-linecap:round;stroke-linejoin:round"
       d="m 46.410088,50.418174 c 0.0587,1.276265 0.117407,2.55253 0.17611,3.828796 -0.04403,0.05868 -0.06154,0.15589 -0.13208,0.176038 -0.0631,0.01802 -0.117404,-0.05868 -0.176107,-0.08802"
       id="path67766" />
    <path
       style="fill:#000000;fill-opacity:0;stroke:#000000;stroke-width:0.7;stroke-linecap:round;stroke-linejoin:round"
       d="m 46.630224,51.034301 c 0.48921,-0.559784 0.780286,-1.160759 1.408864,-0.4841 0.146407,0.157604 0.482714,0.707308 0.352216,0.9682 -0.02737,0.05472 -0.334663,0.343302 -0.440269,0.396084 -0.05413,0.02705 -0.116774,0.03215 -0.176109,0.04401 -0.01439,0.0029 -0.05826,-0.0036 -0.04403,0 0.622189,0.155488 1.4449,0.212133 1.540946,1.012211 0.02453,0.204433 0.03439,0.425749 -0.04403,0.616128 -0.531918,1.29128 -1.062971,1.095184 -2.069266,0.572122 -0.163145,-0.0848 -0.319826,-0.181857 -0.484296,-0.264057 -0.07069,-0.03533 -0.141111,-0.08802 -0.220136,-0.08802 -0.0415,0 0.05177,0.06787 0.08805,0.08802 0.24234,0.134577 0.288745,0.12814 0.528325,0.176038"
       id="path67768" />
    <path
       style="fill:#000000;fill-opacity:0;stroke:#000000;stroke-width:0.7;stroke-linecap:round;stroke-linejoin:round"
       d="m 50.37252,52.794667 c 0.601702,-0.05868 1.212278,-0.05752 1.805104,-0.176036 0.506592,-0.101277 0.716994,-0.880184 0.04403,-0.880184 -0.195791,0 -0.395705,0.04758 -0.572349,0.132027 -0.527886,0.252368 -1.474126,1.594316 -0.748461,2.112442 0.711985,0.508354 1.298442,0.281027 1.981216,0 0.333303,-0.137189 0.226321,-0.07747 0.440269,-0.220046"
       id="path67770" />
    <path
       style="fill:#000000;fill-opacity:0;stroke:#000000;stroke-width:0.7;stroke-linecap:round;stroke-linejoin:round"
       d="m 55.699784,52.750658 c 1.329661,-0.631055 2.207246,-0.264054 3.434106,-0.264054"
       id="path67772" />
    <path
       style="fill:#000000;fill-opacity:0;stroke:#000000;stroke-width:0.7;stroke-linecap:round;stroke-linejoin:round"
       d="m 60.454698,50.198128 c 0.339892,1.868556 0.08538,0.409091 0.572352,4.70898 0.117684,1.03913 -0.170807,-0.01222 -0.220136,-0.308062"
       id="path67774" />
    <path
       style="fill:#000000;fill-opacity:0;stroke:#000000;stroke-width:0.7;stroke-linecap:round;stroke-linejoin:round"
       d="m 60.63081,53.366786 c 1.177105,-0.207344 1.395952,-0.46277 2.465509,-1.188247"
       id="path67776" />
    <path
       style="fill:#000000;fill-opacity:0;stroke:#000000;stroke-width:0.7;stroke-linecap:round;stroke-linejoin:round"
       d="m 62.920215,49.53799 c 0.156919,2.039294 0.01156,-0.171463 -0.176112,4.752991 -0.0056,0.147322 -0.04809,0.324985 0.04403,0.440089 0.05345,0.06679 0.102836,-0.13965 0.132083,-0.220043 0.0305,-0.08386 0.07453,-0.1802 0.04402,-0.264057 -0.03547,-0.0975 -0.146756,-0.146696 -0.220133,-0.220046"
       id="path67778" />
  </g>
</svg>
