<?xml version="1.0" encoding="UTF-8" standalone="no"?>
<!-- Created with Inkscape (http://www.inkscape.org/) -->

<svg
   width="45.864735mm"
   height="56.106667mm"
   viewBox="0 0 45.864735 56.106667"
   version="1.1"
   id="svg70166"
   inkscape:version="1.2.2 (b0a8486541, 2022-12-01)"
   sodipodi:docname="5-çözüm.svg"
   xmlns:inkscape="http://www.inkscape.org/namespaces/inkscape"
   xmlns:sodipodi="http://sodipodi.sourceforge.net/DTD/sodipodi-0.dtd"
   xmlns="http://www.w3.org/2000/svg"
   xmlns:svg="http://www.w3.org/2000/svg">
  <sodipodi:namedview
     id="namedview70168"
     pagecolor="#ffffff"
     bordercolor="#000000"
     borderopacity="0.25"
     inkscape:showpageshadow="2"
     inkscape:pageopacity="0.0"
     inkscape:pagecheckerboard="0"
     inkscape:deskcolor="#d1d1d1"
     inkscape:document-units="mm"
     showgrid="false"
     inkscape:zoom="2.2646676"
     inkscape:cx="29.364132"
     inkscape:cy="150.57397"
     inkscape:window-width="1920"
     inkscape:window-height="1080"
     inkscape:window-x="0"
     inkscape:window-y="0"
     inkscape:window-maximized="1"
     inkscape:current-layer="layer1" />
  <defs
     id="defs70163" />
  <g
     inkscape:label="Layer 1"
     inkscape:groupmode="layer"
     id="layer1"
     transform="translate(-132.02415,-106.36689)">
    <circle
       style="fill:#000000;fill-opacity:0;stroke:#000000;stroke-width:0.7;stroke-linecap:round;stroke-linejoin:round"
       id="path66199"
       cx="137.45662"
       cy="114.46276"
       r="4.6845751" />
    <path
       style="fill:#000000;fill-opacity:0;stroke:#000000;stroke-width:0.7;stroke-linecap:round;stroke-linejoin:round"
       d="m 133.08466,119.18523 9.59789,-9.63801"
       id="path67656" />
    <path
       style="fill:#000000;fill-opacity:0;stroke:#000000;stroke-width:0.7;stroke-linecap:round;stroke-linejoin:round"
       d="m 132.37415,109.46527 10.08218,10.12211"
       id="path67664" />
    <circle
       style="fill:#000000;fill-opacity:0;stroke:#000000;stroke-width:0.7;stroke-linecap:round;stroke-linejoin:round"
       id="circle67666"
       cx="152.16162"
       cy="114.46276"
       r="4.6845751" />
    <circle
       style="fill:#000000;fill-opacity:0;stroke:#000000;stroke-width:0.7;stroke-linecap:round;stroke-linejoin:round"
       id="circle67672"
       cx="162.69016"
       cy="114.59934"
       r="4.6845751" />
    <circle
       style="fill:#000000;fill-opacity:0;stroke:#000000;stroke-width:0.7;stroke-linecap:round;stroke-linejoin:round"
       id="circle67678"
       cx="172.85431"
       cy="114.46276"
       r="4.6845751" />
    <circle
       style="fill:#000000;fill-opacity:0;stroke:#000000;stroke-width:0.7;stroke-linecap:round;stroke-linejoin:round"
       id="circle67724"
       cx="137.45662"
       cy="129.33786"
       r="4.6845751" />
    <path
       style="fill:#000000;fill-opacity:0;stroke:#000000;stroke-width:0.7;stroke-linecap:round;stroke-linejoin:round"
       d="m 132.90247,134.24244 9.59789,-9.63801"
       id="path67726" />
    <circle
       style="fill:#000000;fill-opacity:0;stroke:#000000;stroke-width:0.7;stroke-linecap:round;stroke-linejoin:round"
       id="circle67730"
       cx="152.16162"
       cy="129.33786"
       r="4.6845751" />
    <path
       style="fill:#000000;fill-opacity:0;stroke:#000000;stroke-width:0.7;stroke-linecap:round;stroke-linejoin:round"
       d="m 147.56193,134.24244 9.59789,-9.63801"
       id="path67732" />
    <circle
       style="fill:#000000;fill-opacity:0;stroke:#000000;stroke-width:0.7;stroke-linecap:round;stroke-linejoin:round"
       id="circle67736"
       cx="162.50797"
       cy="129.33786"
       r="4.6845751" />
    <circle
       style="fill:#000000;fill-opacity:0;stroke:#000000;stroke-width:0.7;stroke-linecap:round;stroke-linejoin:round"
       id="circle67742"
       cx="172.85431"
       cy="129.33786"
       r="4.6845751" />
    <path
       style="fill:#000000;fill-opacity:0;stroke:#000000;stroke-width:0.7;stroke-linecap:round;stroke-linejoin:round"
       d="m 139.6458,109.20843 c 0.0587,-0.13203 0.0641,-0.30484 0.17611,-0.39609 0.55489,-0.45195 1.48907,-0.77735 2.15732,-0.9682 1.73388,-0.49519 4.07085,-1.16791 5.5474,0.30807"
       id="path67754" />
    <path
       style="fill:#000000;fill-opacity:0;stroke:#000000;stroke-width:0.7;stroke-linecap:round;stroke-linejoin:round"
       d="m 146.55804,106.87594 c 0.60066,-0.30021 0.25926,-0.23397 1.10067,0.70414 0.11958,0.13333 0.19523,0.30113 0.30819,0.4401 0.0785,0.0966 0.17611,0.17603 0.26416,0.26405 0.0293,0.0293 0.088,0.0465 0.088,0.088 0,0.0921 -0.46008,0.0213 -0.74845,0.044 -0.33935,0.0268 -0.67999,0.0598 -1.01262,0.13203 -1.02666,0.2231 -1.01263,-0.041 -1.01263,0.35207"
       id="path67756" />
    <path
       style="fill:#000000;fill-opacity:0;stroke:#000000;stroke-width:0.7;stroke-linecap:round;stroke-linejoin:round"
       d="m 147.15856,119.18523 9.59789,-9.63801"
       id="path71848" />
    <path
       style="fill:#000000;fill-opacity:0;stroke:#000000;stroke-width:0.7;stroke-linecap:round;stroke-linejoin:round"
       d="m 157.80991,134.24244 9.59789,-9.63801"
       id="path71850" />
    <path
       style="fill:#000000;fill-opacity:0;stroke:#000000;stroke-width:0.7;stroke-linecap:round;stroke-linejoin:round"
       d="m 153.2788,139.65363 c 0.1704,0.87535 0.28374,1.75772 0.40991,2.64063 0.0961,0.67232 0.0911,0.34592 0.0911,0.6374 0,0.0152 -0.0107,-0.0348 0,-0.0455 0.024,-0.024 0.0607,-0.0304 0.0911,-0.0455 0.0304,-0.0303 0.0607,-0.0607 0.0911,-0.0911"
       id="path71852" />
    <path
       style="fill:#000000;fill-opacity:0;stroke:#000000;stroke-width:0.7;stroke-linecap:round;stroke-linejoin:round"
       d="m 153.59762,141.3837 c 0.41955,-0.0344 0.80743,-0.11546 1.22976,-0.18212 0.045,-0.007 0.0943,0.0169 0.13664,0 0.47488,-0.18987 0.59569,-0.30754 1.00202,-0.59186"
       id="path71854" />
    <path
       style="fill:#000000;fill-opacity:0;stroke:#000000;stroke-width:0.7;stroke-linecap:round;stroke-linejoin:round"
       d="m 155.9205,139.10729 c -0.022,0.95995 0.15124,1.926 0.31882,2.86827 0.0516,0.29012 0.11302,0.5786 0.18219,0.86504 0.0372,0.15402 0.0865,0.30497 0.13664,0.45528 0.0107,0.0322 0.0152,0.10624 0.0455,0.0911 0.0303,-0.0152 -0.0318,-0.0601 -0.0455,-0.0911 -0.20002,-0.44986 -0.0703,-0.18597 -0.18218,-0.40975"
       id="path71856" />
    <path
       style="fill:#000000;fill-opacity:0;stroke:#000000;stroke-width:0.7;stroke-linecap:round;stroke-linejoin:round"
       d="m 155.37394,145.29912 c -0.0799,0.72686 0.0543,1.76324 0.13664,2.50405 0.0204,0.18349 0.0441,0.36779 0.0911,0.54634 0.0294,0.11177 0.153,0.20427 0.13664,0.31869 -0.009,0.0601 -0.12145,0 -0.18218,0"
       id="path71858" />
    <path
       style="fill:#000000;fill-opacity:0;stroke:#000000;stroke-width:0.7;stroke-linecap:round;stroke-linejoin:round"
       d="m 155.05516,153.22099 c 0.0113,0.15835 0.1052,0.89963 0.0455,1.1382 -0.005,0.0209 -0.0405,-0.0245 -0.0455,-0.0455 -0.0266,-0.11943 -0.0416,-0.24194 -0.0456,-0.36422 -0.0332,-0.99433 -0.0332,-2.01933 0.0911,-3.00486 0.15182,-0.0759 0.30991,-0.14034 0.45547,-0.22764 0.0833,-0.05 0.13552,-0.15139 0.22773,-0.18211 0.32024,-0.1067 0.59434,-0.0621 0.86539,0.13658 0.26644,0.19532 0.47118,0.61227 0.0911,0.81951 -0.0714,0.0389 -0.43586,0.12078 -0.54656,0.13658 -0.0301,0.004 -0.11825,-0.0136 -0.0911,0 0.056,0.028 0.1252,0.0196 0.18218,0.0455 0.27815,0.12638 0.54421,0.27798 0.81984,0.40976 0.43212,0.20658 1.00551,0.33116 0.6832,1.09267 -0.0954,0.22542 -0.41368,0.26546 -0.63765,0.36423 -0.62822,0.27704 -1.01799,0.3841 -1.68522,0.40975 -0.26005,0.01 -0.59478,0.046 -0.36438,-0.3187 0.13807,-0.21852 0.33401,-0.39457 0.50101,-0.59186"
       id="path71860" />
    <path
       style="fill:#000000;fill-opacity:0;stroke:#000000;stroke-width:0.7;stroke-linecap:round;stroke-linejoin:round"
       d="m 152.73659,155.19214 c -1.00965,0.88936 -2.01051,1.79854 -3.09718,2.59511 -0.0519,0.0381 0.0971,-0.0858 0.13665,-0.13659 0.0672,-0.0864 0.12145,-0.18211 0.18218,-0.27317"
       id="path71862" />
    <path
       style="fill:#000000;fill-opacity:0;stroke:#000000;stroke-width:0.7;stroke-linecap:round;stroke-linejoin:round"
       d="m 144.81148,158.15147 c 0.10151,0.91717 0.17687,1.81276 0.0455,2.73169 -0.0392,0.27415 -0.0823,0.54795 -0.13664,0.81951 -0.0217,0.10834 -0.0671,0.21084 -0.0911,0.31869 -0.007,0.0296 -0.006,0.12082 0,0.0911 0.0211,-0.10522 0.0304,-0.21246 0.0455,-0.3187"
       id="path71864" />
    <path
       style="fill:#000000;fill-opacity:0;stroke:#000000;stroke-width:0.7;stroke-linecap:round;stroke-linejoin:round"
       d="m 144.76593,161.01975 c 0.31802,-0.86043 0.15293,-0.48926 0.6832,-0.40976 0.42568,0.0638 1.45823,-0.0922 1.73077,-0.50081 0.0429,-0.0644 0.0304,-0.15176 0.0455,-0.22764"
       id="path71866" />
    <path
       style="fill:#000000;fill-opacity:0;stroke:#000000;stroke-width:0.7;stroke-linecap:round;stroke-linejoin:round"
       d="m 147.13435,158.33359 c -0.0759,0.13658 -0.19585,0.25677 -0.22773,0.40975 -0.0464,0.22285 0,0.45528 0,0.68292 0,1.90892 -0.0455,0.003 -0.0455,1.91218 0,0.21301 0.0207,0.42585 0.0455,0.6374 0.006,0.0477 0.0455,0.0886 0.0455,0.13658 0,0.0152 -0.0408,0.0144 -0.0455,0 -0.0285,-0.0853 0.0281,-0.24883 0.0455,-0.3187"
       id="path71868" />
    <path
       style="fill:#000000;fill-opacity:0;stroke:#000000;stroke-width:0.7;stroke-linecap:round;stroke-linejoin:round"
       d="m 159.2042,155.05556 c 0.55867,0.18614 0.0311,-0.0437 0.6832,0.59187 0.69923,0.68147 1.18103,1.14017 1.91296,1.63901 0.16355,0.11147 0.34643,0.19508 0.50101,0.31869 0.14241,0.11389 0.36437,0.52855 0.36437,0.3187"
       id="path71870" />
    <path
       style="fill:#000000;fill-opacity:0;stroke:#000000;stroke-width:0.7;stroke-linecap:round;stroke-linejoin:round"
       d="m 164.98862,156.69457 c 0.0304,0.10623 0.0832,0.20849 0.0911,0.3187 0.0802,1.12178 -0.0821,2.25163 -0.13664,3.36908 -0.0192,0.39411 0.0649,0.79453 0,1.18373 -0.007,0.0423 -0.0554,0.0673 -0.0911,0.0911 -0.11255,0.075 -0.164,-0.50097 -0.18219,-0.59187"
       id="path71872" />
    <path
       style="fill:#000000;fill-opacity:0;stroke:#000000;stroke-width:0.7;stroke-linecap:round;stroke-linejoin:round"
       d="m 164.57869,159.69943 c 0.44975,-0.2171 0.95841,-0.3187 1.4575,-0.3187 0.39554,0 0.4646,0.143 0.86538,-0.0455 0.12664,-0.0596 0.21255,-0.18211 0.31883,-0.27317"
       id="path71874" />
    <path
       style="fill:#000000;fill-opacity:0;stroke:#000000;stroke-width:0.7;stroke-linecap:round;stroke-linejoin:round"
       d="m 167.12931,157.01327 c 0.0304,0.3187 0.0843,0.63602 0.0911,0.95609 0.022,1.03358 -0.17473,2.06286 -0.0455,3.09591 0.0119,0.0952 2e-5,0.30352 0.0911,0.27317 0.1018,-0.0339 0.0455,-0.21138 0.0455,-0.31869 0,-0.19788 -0.0304,-0.39458 -0.0455,-0.59187"
       id="path71876" />
  </g>
</svg>
