<?xml version="1.0" encoding="UTF-8" standalone="no"?>
<!-- Created with Inkscape (http://www.inkscape.org/) -->

<svg
   width="45.864735mm"
   height="59.83807mm"
   viewBox="0 0 45.864735 59.83807"
   version="1.1"
   id="svg72045"
   inkscape:version="1.2.2 (b0a8486541, 2022-12-01)"
   sodipodi:docname="6-çözüm.svg"
   xmlns:inkscape="http://www.inkscape.org/namespaces/inkscape"
   xmlns:sodipodi="http://sodipodi.sourceforge.net/DTD/sodipodi-0.dtd"
   xmlns="http://www.w3.org/2000/svg"
   xmlns:svg="http://www.w3.org/2000/svg">
  <sodipodi:namedview
     id="namedview72047"
     pagecolor="#ffffff"
     bordercolor="#000000"
     borderopacity="0.25"
     inkscape:showpageshadow="2"
     inkscape:pageopacity="0.0"
     inkscape:pagecheckerboard="0"
     inkscape:deskcolor="#d1d1d1"
     inkscape:document-units="mm"
     showgrid="false"
     showguides="true"
     inkscape:zoom="4.1374438"
     inkscape:cx="105.13738"
     inkscape:cy="168.58235"
     inkscape:window-width="1916"
     inkscape:window-height="1029"
     inkscape:window-x="0"
     inkscape:window-y="49"
     inkscape:window-maximized="1"
     inkscape:current-layer="layer1" />
  <defs
     id="defs72042" />
  <g
     inkscape:label="Layer 1"
     inkscape:groupmode="layer"
     id="layer1"
     transform="translate(48.75845,-54.861999)">
    <circle
       style="fill:#000000;fill-opacity:0;stroke:#000000;stroke-width:0.7;stroke-linecap:round;stroke-linejoin:round"
       id="path66199"
       cx="-43.325981"
       cy="62.957867"
       r="4.6845751" />
    <path
       style="fill:#000000;fill-opacity:0;stroke:#000000;stroke-width:0.7;stroke-linecap:round;stroke-linejoin:round"
       d="m -47.69794,67.680337 9.59789,-9.63801"
       id="path67656" />
    <path
       style="fill:#000000;fill-opacity:0;stroke:#000000;stroke-width:0.7;stroke-linecap:round;stroke-linejoin:round"
       d="m -48.40845,57.960377 10.08218,10.12211"
       id="path67664" />
    <circle
       style="fill:#000000;fill-opacity:0;stroke:#000000;stroke-width:0.7;stroke-linecap:round;stroke-linejoin:round"
       id="circle67666"
       cx="-28.620979"
       cy="62.957867"
       r="4.6845751" />
    <circle
       style="fill:#000000;fill-opacity:0;stroke:#000000;stroke-width:0.7;stroke-linecap:round;stroke-linejoin:round"
       id="circle67672"
       cx="-18.092445"
       cy="63.094448"
       r="4.6845751" />
    <circle
       style="fill:#000000;fill-opacity:0;stroke:#000000;stroke-width:0.7;stroke-linecap:round;stroke-linejoin:round"
       id="circle67678"
       cx="-7.9282908"
       cy="62.957867"
       r="4.6845751" />
    <circle
       style="fill:#000000;fill-opacity:0;stroke:#000000;stroke-width:0.7;stroke-linecap:round;stroke-linejoin:round"
       id="circle67724"
       cx="-43.325981"
       cy="77.83297"
       r="4.6845751" />
    <path
       style="fill:#000000;fill-opacity:0;stroke:#000000;stroke-width:0.7;stroke-linecap:round;stroke-linejoin:round"
       d="m -47.88013,82.737547 9.59789,-9.63801"
       id="path67726" />
    <circle
       style="fill:#000000;fill-opacity:0;stroke:#000000;stroke-width:0.7;stroke-linecap:round;stroke-linejoin:round"
       id="circle67730"
       cx="-28.620979"
       cy="77.83297"
       r="4.6845751" />
    <path
       style="fill:#000000;fill-opacity:0;stroke:#000000;stroke-width:0.7;stroke-linecap:round;stroke-linejoin:round"
       d="m -33.22067,82.737547 9.59789,-9.63801"
       id="path67732" />
    <circle
       style="fill:#000000;fill-opacity:0;stroke:#000000;stroke-width:0.7;stroke-linecap:round;stroke-linejoin:round"
       id="circle67736"
       cx="-18.274635"
       cy="77.83297"
       r="4.6845751" />
    <circle
       style="fill:#000000;fill-opacity:0;stroke:#000000;stroke-width:0.7;stroke-linecap:round;stroke-linejoin:round"
       id="circle67742"
       cx="-7.9282908"
       cy="77.83297"
       r="4.6845751" />
    <path
       style="fill:#000000;fill-opacity:0;stroke:#000000;stroke-width:0.7;stroke-linecap:round;stroke-linejoin:round"
       d="m -41.1368,57.703537 c 0.0587,-0.13203 0.0641,-0.30484 0.17611,-0.39609 0.55489,-0.45195 1.48907,-0.77735 2.15732,-0.9682 1.73388,-0.49519 4.07085,-1.16791 5.5474,0.30807"
       id="path67754" />
    <path
       style="fill:#000000;fill-opacity:0;stroke:#000000;stroke-width:0.7;stroke-linecap:round;stroke-linejoin:round"
       d="m -34.22456,55.371047 c 0.60066,-0.30021 0.25926,-0.23397 1.10067,0.70414 0.11958,0.13333 0.19523,0.30113 0.30819,0.4401 0.0785,0.0966 0.17611,0.17603 0.26416,0.26405 0.0293,0.0293 0.088,0.0465 0.088,0.088 0,0.0921 -0.46008,0.0213 -0.74845,0.044 -0.33935,0.0268 -0.67999,0.0598 -1.01262,0.13203 -1.02666,0.2231 -1.01263,-0.041 -1.01263,0.35207"
       id="path67756" />
    <path
       style="fill:#000000;fill-opacity:0;stroke:#000000;stroke-width:0.7;stroke-linecap:round;stroke-linejoin:round"
       d="m -33.62404,67.680337 9.59789,-9.63801"
       id="path71848" />
    <path
       style="fill:#000000;fill-opacity:0;stroke:#000000;stroke-width:0.7;stroke-linecap:round;stroke-linejoin:round"
       d="m -22.97269,82.84144 9.59789,-9.63801"
       id="path71850" />
    <path
       style="fill:#000000;fill-opacity:0;stroke:#000000;stroke-width:0.7;stroke-linecap:round;stroke-linejoin:round"
       d="m -23.230149,67.680337 9.59789,-9.63801"
       id="path72691" />
    <path
       style="fill:#000000;fill-opacity:0;stroke:#000000;stroke-width:0.7;stroke-linecap:round;stroke-linejoin:round"
       d="m -13.20243,82.84144 9.59789,-9.63801"
       id="path72693" />
    <path
       style="fill:#000000;fill-opacity:0;stroke:#000000;stroke-width:0.7;stroke-linecap:round;stroke-linejoin:round"
       d="m -38.863565,102.33905 c 0.02043,0.81086 -0.185913,1.61493 -0.127829,2.42776 0.0158,0.22116 0.110325,0.51111 0.06392,0.51111 -0.185502,0 0.127829,-0.51275 0.127829,-0.575 0.482214,-0.8567 0.868417,-1.19131 1.72568,-1.40554 0.320801,-0.0802 0.376027,0.26301 0.639141,0"
       id="path72713" />
    <path
       style="fill:#000000;fill-opacity:0;stroke:#000000;stroke-width:0.7;stroke-linecap:round;stroke-linejoin:round"
       d="m -36.818308,101.57239 c 0.251573,0.92175 0.249632,1.86728 0.319571,2.81109 0.01582,0.21344 -0.0038,0.43585 0.06391,0.63889 0.151046,0.45296 0.06391,-0.47283 0.06391,-0.70277"
       id="path72715" />
    <path
       style="fill:#000000;fill-opacity:0;stroke:#000000;stroke-width:0.7;stroke-linecap:round;stroke-linejoin:round"
       d="m -31.641254,110.58066 c -0.188467,0.82348 0.09701,1.67097 0.19174,2.49164 0.02941,0.25475 0.03559,0.51179 0.06392,0.76666 0.03555,0.31981 0.132124,0.51111 0,0.51111 -0.111838,0 -0.341478,-0.5549 -0.383488,-0.63889"
       id="path72717" />
    <path
       style="fill:#000000;fill-opacity:0;stroke:#000000;stroke-width:0.7;stroke-linecap:round;stroke-linejoin:round"
       d="m -31.705172,112.49731 c 0.339047,-0.0678 0.672194,-0.17782 1.02263,-0.12778 0.192237,0.0275 0.958712,0.31935 0.958712,-0.12778"
       id="path72719" />
    <path
       style="fill:#000000;fill-opacity:0;stroke:#000000;stroke-width:0.7;stroke-linecap:round;stroke-linejoin:round"
       d="m -29.659916,109.94177 c 0.178761,0.9251 0.54996,3.06589 0.191743,3.96108 -0.04163,0.10403 -0.127826,-0.2381 -0.127826,-0.31944"
       id="path72721" />
    <path
       style="fill:#000000;fill-opacity:0;stroke:#000000;stroke-width:0.7;stroke-linecap:round;stroke-linejoin:round"
       d="m -16.813154,102.6585 c -0.04261,0.14907 -0.107764,0.29347 -0.127825,0.44721 -0.01929,0.14776 -0.128955,2.19907 -0.127831,2.2361 0.0091,0.30104 0.07145,0.59859 0.127831,0.89444 0.06263,0.32867 0.133183,0.57231 0.255654,0.5111 0.127026,-0.0635 -0.440058,-1.13531 -0.447398,-1.14999"
       id="path72723" />
    <path
       style="fill:#000000;fill-opacity:0;stroke:#000000;stroke-width:0.7;stroke-linecap:round;stroke-linejoin:round"
       d="m -16.877066,104.8307 c 0.61323,0.10981 1.100002,-0.51261 1.661766,-0.57499 0.174016,-0.0193 0.337632,0.12777 0.511315,0.12777"
       id="path72725" />
    <path
       style="fill:#000000;fill-opacity:0;stroke:#000000;stroke-width:0.7;stroke-linecap:round;stroke-linejoin:round"
       d="m -14.384413,102.01961 c 0,0.23426 -0.01019,0.46874 0,0.70277 0.03171,0.72901 0.09912,1.03258 0.255656,1.78888 0.05937,0.28682 0.309663,0.93079 0.127831,0.89444 -0.415878,-0.0831 -0.49701,-0.5607 -0.766972,-0.83055"
       id="path72727" />
    <path
       style="fill:#000000;fill-opacity:0;stroke:#000000;stroke-width:0.7;stroke-linecap:round;stroke-linejoin:round"
       d="m -28.38163,86.494738 c -0.136281,0.665088 -0.03688,1.31686 0,1.980541 0.01418,0.255159 0,0.511106 0,0.766659 0,0.0213 0,0.08519 0,0.06389 0,-0.21296 0,-0.425923 0,-0.638884"
       id="path72729" />
    <path
       style="fill:#000000;fill-opacity:0;stroke:#000000;stroke-width:0.7;stroke-linecap:round;stroke-linejoin:round"
       d="m -28.445543,87.644728 c 0.397271,-0.161779 0.835187,-0.383328 1.278283,-0.383328 0.268752,0 0.469628,0.180557 0.703059,0.06389"
       id="path72731" />
    <path
       style="fill:#000000;fill-opacity:0;stroke:#000000;stroke-width:0.7;stroke-linecap:round;stroke-linejoin:round"
       d="m -26.400288,85.472526 c 0,0.170367 0.0074,0.340897 0,0.511106 -0.01391,0.319849 -0.06391,0.638175 -0.06391,0.958326 0,0.40014 0.06391,0.74985 0.06391,1.14999 0,0.174628 0,0.366292 0,0.191664"
       id="path72733" />
    <path
       style="fill:#000000;fill-opacity:0;stroke:#000000;stroke-width:0.7;stroke-linecap:round;stroke-linejoin:round;stroke-dasharray:0.7, 1.4;stroke-dashoffset:0"
       d="M -37.457453,100.55018 -29.91557,88.603054"
       id="path72735" />
    <path
       style="fill:#000000;fill-opacity:0;stroke:#000000;stroke-width:0.7;stroke-linecap:round;stroke-linejoin:round;stroke-dasharray:0.7, 1.4;stroke-dashoffset:0"
       d="m -36.115253,106.74735 3.195712,3.25831"
       id="path72741" />
    <path
       style="fill:#000000;fill-opacity:0;stroke:#000000;stroke-width:0.7;stroke-linecap:round;stroke-linejoin:round;stroke-dasharray:0.7, 1.4;stroke-dashoffset:0"
       d="m -27.550744,111.53898 8.947994,-5.62217"
       id="path72743" />
    <path
       style="fill:#000000;fill-opacity:0;stroke:#000000;stroke-width:0.7;stroke-linecap:round;stroke-linejoin:round;stroke-dasharray:0.7, 1.4;stroke-dashoffset:0"
       d="m -25.377662,88.028059 9.33148,11.947125"
       id="path72747" />
    <path
       style="fill:#000000;fill-opacity:0;stroke:#000000;stroke-width:0.7;stroke-linecap:round;stroke-linejoin:round;stroke-dasharray:0.7, 1.4;stroke-dashoffset:0"
       d="m -34.133911,102.59461 14.444618,0.44722"
       id="path72796" />
    <path
       style="fill:#000000;fill-opacity:0;stroke:#000000;stroke-width:0.7;stroke-linecap:round;stroke-linejoin:round;stroke-dasharray:none;stroke-dashoffset:0"
       d="m -27.231173,97.483537 c -0.06107,-0.152598 -0.09621,-0.415322 -0.319571,-0.447217 -0.389089,-0.05556 -0.746533,0.519649 -0.894799,0.766659 -0.636309,1.060088 -0.569697,2.105777 0.958712,2.172205 0.499975,0.02172 0.914987,-0.477488 1.150457,-0.830545"
       id="path73161" />
    <path
       style="fill:#000000;fill-opacity:0;stroke:#000000;stroke-width:0.7;stroke-linecap:round;stroke-linejoin:round;stroke-dasharray:none;stroke-dashoffset:0"
       d="m -34.581313,101.95573 3.707027,-2.427765"
       id="path73165" />
    <path
       style="fill:#000000;fill-opacity:0;stroke:#000000;stroke-width:0.7;stroke-linecap:round;stroke-linejoin:round;stroke-dasharray:none;stroke-dashoffset:0"
       d="m -28.445543,100.9974 -2.109173,7.53883"
       id="path73167" />
    <path
       style="fill:#000000;fill-opacity:0;stroke:#000000;stroke-width:0.7;stroke-linecap:round;stroke-linejoin:round;stroke-dasharray:none;stroke-dashoffset:0"
       d="m -24.994174,98.63353 6.583162,3.19442"
       id="path73179" />
    <path
       style="fill:#000000;fill-opacity:0;stroke:#000000;stroke-width:0.7;stroke-linecap:round;stroke-linejoin:round;stroke-dasharray:none;stroke-dashoffset:0"
       d="m -27.231173,91.605808 v 3.96108"
       id="path73181" />
  </g>
</svg>
