<?xml version="1.0" encoding="UTF-8" standalone="no"?>
<!-- Created with Inkscape (http://www.inkscape.org/) -->

<svg
   width="24.565199mm"
   height="26.111429mm"
   viewBox="0 0 24.565199 26.111429"
   version="1.1"
   id="svg74840"
   inkscape:version="1.2.2 (b0a8486541, 2022-12-01)"
   sodipodi:docname="7-çözüm.svg"
   xmlns:inkscape="http://www.inkscape.org/namespaces/inkscape"
   xmlns:sodipodi="http://sodipodi.sourceforge.net/DTD/sodipodi-0.dtd"
   xmlns="http://www.w3.org/2000/svg"
   xmlns:svg="http://www.w3.org/2000/svg">
  <sodipodi:namedview
     id="namedview74842"
     pagecolor="#ffffff"
     bordercolor="#000000"
     borderopacity="0.25"
     inkscape:showpageshadow="2"
     inkscape:pageopacity="0.0"
     inkscape:pagecheckerboard="0"
     inkscape:deskcolor="#d1d1d1"
     inkscape:document-units="mm"
     showgrid="false"
     inkscape:zoom="3.8824344"
     inkscape:cx="123.89134"
     inkscape:cy="66.839507"
     inkscape:window-width="1916"
     inkscape:window-height="1029"
     inkscape:window-x="0"
     inkscape:window-y="49"
     inkscape:window-maximized="1"
     inkscape:current-layer="layer1" />
  <defs
     id="defs74837" />
  <g
     inkscape:label="Layer 1"
     inkscape:groupmode="layer"
     id="layer1"
     transform="translate(-137.34211,-43.574153)">
    <path
       style="fill:#000000;fill-opacity:0;stroke:#000000;stroke-width:0.7;stroke-linecap:round;stroke-linejoin:round"
       d="m 147.36406,48.565823 c 0.12518,-0.755869 0.51403,-1.436386 0.68112,-2.178711 0.11066,-0.491612 0.13983,-0.998098 0.20434,-1.497865 0.0263,-0.203821 0.051,-0.407961 0.0681,-0.612764 0.006,-0.06785 -0.0482,-0.252383 0,-0.204253 0.0864,0.08641 0.0998,0.223769 0.13623,0.340424 0.0772,0.24698 0.13809,0.498787 0.20433,0.748932 0.1161,0.438425 0.3351,1.729343 0.74924,2.246796 0.0732,0.0915 0.51729,0.533168 0.74923,0.272341 0.65205,-0.733255 0.44903,-2.067605 0.47679,-2.927643 0.009,-0.273143 0.0681,-0.543735 0.0681,-0.81702 0,-0.07177 -0.0681,0.132484 -0.0681,0.204255 0,0.07177 0.0454,0.136171 0.0681,0.204256"
       id="path75497" />
    <path
       style="fill:#000000;fill-opacity:0;stroke:#000000;stroke-width:0.7;stroke-linecap:round;stroke-linejoin:round"
       d="m 137.69211,56.667907 0.0681,3.199985"
       id="path75501" />
    <path
       style="fill:#000000;fill-opacity:0;stroke:#000000;stroke-width:0.7;stroke-linecap:round;stroke-linejoin:round"
       d="m 137.82834,58.642366 c 0.90611,-0.452882 0.53266,-0.466442 1.22602,-0.340424 0.1139,0.02069 0.22824,0.04002 0.34055,0.06809 0.19518,0.04877 0.35014,0.145736 0.27246,0.06808 -0.0359,-0.03589 -0.0908,-0.04539 -0.13623,-0.06808"
       id="path75503" />
    <path
       style="fill:#000000;fill-opacity:0;stroke:#000000;stroke-width:0.7;stroke-linecap:round;stroke-linejoin:round"
       d="m 139.39491,56.327484 c 0.0995,0.992161 0.27734,1.964809 0.5449,2.927643 0.0384,0.138301 0.0624,0.285438 0.13622,0.408509 0.0165,0.02753 0.0618,-0.03661 0.0681,-0.06808 0.0403,-0.201517 0.0454,-0.408509 0.0681,-0.612762"
       id="path75505" />
    <path
       style="fill:#000000;fill-opacity:0;stroke:#000000;stroke-width:0.7;stroke-linecap:round;stroke-linejoin:round"
       d="m 148.7263,64.429565 c 0,0.113475 -0.0187,0.228494 0,0.340424 0.0725,0.434665 0.19529,0.859758 0.27245,1.293614 0.10454,0.58779 0.17154,1.181777 0.27245,1.770202 0.0429,0.25009 0.24974,0.522002 0.13623,0.748933 -0.0102,0.02032 -0.0454,0 -0.0681,0 -0.36696,0 -0.33229,-0.375457 -0.40867,-0.680847"
       id="path75507" />
    <path
       style="fill:#000000;fill-opacity:0;stroke:#000000;stroke-width:0.7;stroke-linecap:round;stroke-linejoin:round"
       d="m 148.99875,66.404026 c 0.73819,-0.231023 1.67958,-0.15353 2.38393,-0.544679 0.0595,-0.03305 0,-0.13617 0,-0.204253"
       id="path75509" />
    <path
       style="fill:#000000;fill-opacity:0;stroke:#000000;stroke-width:0.7;stroke-linecap:round;stroke-linejoin:round"
       d="m 151.65513,64.633821 c 0.29809,1.514342 -0.15409,2.890591 0.27245,4.425511 0.0336,0.121097 0.18351,0.303736 0.34056,0.272335 0.16994,-0.03397 0.21848,-0.394372 0.13623,-0.476591 -0.21108,-0.210989 -1.18134,-0.136168 -1.29414,-0.136168"
       id="path75511" />
    <path
       style="fill:#000000;fill-opacity:0;stroke:#000000;stroke-width:0.7;stroke-linecap:round;stroke-linejoin:round"
       d="m 158.73881,56.395569 c -0.35096,-0.877147 -0.35377,-0.04258 -0.34056,0.340424 0.0259,0.751617 0.0432,1.686078 0.20434,2.451052 0.0488,0.231862 0.13921,0.453022 0.20433,0.680847 0.0318,0.111268 0.17163,0.392163 0.0681,0.340423 -0.0574,-0.0287 -0.0908,-0.09078 -0.13623,-0.136173 -0.25982,-0.25972 -0.0681,0.0098 -0.0681,-0.408506 0,-0.115723 -0.0454,-0.226949 -0.0681,-0.340423 0.18163,-0.204254 0.29605,-0.499694 0.54489,-0.612761 0.72164,-0.327883 1.90716,0.339651 1.90716,-0.953189"
       id="path75513" />
    <path
       style="fill:#000000;fill-opacity:0;stroke:#000000;stroke-width:0.7;stroke-linecap:round;stroke-linejoin:round"
       d="m 160.98652,56.259399 c 0.0272,0.840102 0.33366,1.62847 0.47678,2.451052 0.0352,0.20247 0.051,0.407961 0.0681,0.612762 0.006,0.06785 0.0305,0.143364 0,0.204255 -0.0319,0.06372 -0.21632,-0.296283 -0.34056,-0.544679"
       id="path75515" />
    <path
       style="fill:#000000;fill-opacity:0;stroke:#000000;stroke-width:0.7;stroke-linecap:round;stroke-linejoin:round"
       d="m 140.48471,55.510466 5.78955,-6.263796"
       id="path75521" />
    <path
       style="fill:#000000;fill-opacity:0;stroke:#000000;stroke-width:0.7;stroke-linecap:round;stroke-linejoin:round"
       d="m 151.58702,49.723264 5.58521,5.855288"
       id="path75523" />
    <path
       style="fill:#000000;fill-opacity:0;stroke:#000000;stroke-width:0.7;stroke-linecap:round;stroke-linejoin:round"
       d="m 149.54365,50.404111 0.47679,11.914831"
       id="path75525" />
    <path
       style="fill:#000000;fill-opacity:0;stroke:#000000;stroke-width:0.7;stroke-linecap:round;stroke-linejoin:round;stroke-dasharray:0.7, 2.1;stroke-dashoffset:0"
       d="m 141.5064,60.480654 4.69974,4.561678"
       id="path75531" />
    <path
       style="fill:#000000;fill-opacity:0;stroke:#000000;stroke-width:0.7;stroke-linecap:round;stroke-linejoin:round;stroke-dasharray:0.7, 2.1;stroke-dashoffset:0"
       d="m 141.57451,58.370024 15.18905,-0.06809"
       id="path75896" />
    <path
       style="fill:#000000;fill-opacity:0;stroke:#000000;stroke-width:0.7;stroke-linecap:round;stroke-linejoin:round;stroke-dasharray:0.7, 2.1;stroke-dashoffset:0"
       d="m 153.63039,65.450838 4.22296,-4.289337"
       id="path75898" />
  </g>
</svg>
