<?xml version="1.0" encoding="UTF-8" standalone="no"?>
<!-- Created with Inkscape (http://www.inkscape.org/) -->

<svg
   width="18.71804mm"
   height="13.532093mm"
   viewBox="0 0 18.71804 13.532093"
   version="1.1"
   id="svg77449"
   inkscape:version="1.2.2 (b0a8486541, 2022-12-01)"
   sodipodi:docname="8-çözüm.svg"
   xmlns:inkscape="http://www.inkscape.org/namespaces/inkscape"
   xmlns:sodipodi="http://sodipodi.sourceforge.net/DTD/sodipodi-0.dtd"
   xmlns="http://www.w3.org/2000/svg"
   xmlns:svg="http://www.w3.org/2000/svg">
  <sodipodi:namedview
     id="namedview77451"
     pagecolor="#ffffff"
     bordercolor="#000000"
     borderopacity="0.25"
     inkscape:showpageshadow="2"
     inkscape:pageopacity="0.0"
     inkscape:pagecheckerboard="0"
     inkscape:deskcolor="#d1d1d1"
     inkscape:document-units="mm"
     showgrid="false"
     inkscape:zoom="4.6397095"
     inkscape:cx="18.535643"
     inkscape:cy="13.686202"
     inkscape:window-width="1916"
     inkscape:window-height="1029"
     inkscape:window-x="0"
     inkscape:window-y="49"
     inkscape:window-maximized="1"
     inkscape:current-layer="layer1" />
  <defs
     id="defs77446" />
  <g
     inkscape:label="Layer 1"
     inkscape:groupmode="layer"
     id="layer1"
     transform="translate(-111.99041,-75.296049)">
    <path
       style="fill:#000000;fill-opacity:0;stroke:#000000;stroke-width:0.7;stroke-linecap:round;stroke-linejoin:round;stroke-dasharray:none"
       d="m 121.83636,78.179059 c -0.10189,-0.339479 -0.22179,-1.0883 -0.73047,-1.156097 -2.30071,-0.306639 -1.67386,2.348799 -0.66958,3.285749 0.1196,0.111585 0.26849,0.28715 0.4261,0.243387 0.47644,-0.132291 0.83693,-0.699389 0.91308,-1.156094 0.0668,-0.400627 0.26799,-0.867571 0.0609,-1.216945 -0.6568,-1.107898 -2.18763,-0.06071 -2.43487,0.730165 -0.0326,0.104256 0.0812,0.202824 0.12174,0.304236"
       id="path78471" />
    <path
       style="fill:#000000;fill-opacity:0;stroke:#000000;stroke-width:0.7;stroke-linecap:round;stroke-linejoin:round;stroke-dasharray:none"
       d="m 112.52297,83.83785 c 0.17604,3.871421 0,-0.962541 0,2.494735 0,0.264449 0.0494,0.526812 0.0609,0.791012 0.009,0.202631 -0.0156,0.406244 0,0.60847 0.0109,0.14165 0.17846,0.360937 0.0609,0.243393 -0.0755,-0.07547 -0.23523,-0.322286 -0.30436,-0.425934"
       id="path78479" />
    <path
       style="fill:#000000;fill-opacity:0;stroke:#000000;stroke-width:0.7;stroke-linecap:round;stroke-linejoin:round;stroke-dasharray:none"
       d="m 112.58384,85.663264 c 0.52162,-0.08126 1.68368,0.142422 2.19138,-0.365083"
       id="path78481" />
    <path
       style="fill:#000000;fill-opacity:0;stroke:#000000;stroke-width:0.7;stroke-linecap:round;stroke-linejoin:round;stroke-dasharray:none"
       d="m 114.71435,83.716153 c 0.29621,1.427215 -0.0757,2.933509 0.12175,4.381 0.0173,0.127105 0.10064,0.238545 0.12174,0.365082 0.012,0.07214 -0.12174,-0.109402 -0.12174,-0.182539 0,-0.350416 0.0482,-0.497088 0.12174,-0.791016"
       id="path78483" />
    <path
       style="fill:#000000;fill-opacity:0;stroke:#000000;stroke-width:0.7;stroke-linecap:round;stroke-linejoin:round;stroke-dasharray:none"
       d="m 127.43657,83.046834 c 0.34791,1.261612 0.0615,2.560259 0.24348,3.833373 0.0182,0.126992 0.002,0.410112 0.12175,0.365085 0.31981,-0.119877 0.37064,-0.574654 0.4261,-0.85186"
       id="path78485" />
    <path
       style="fill:#000000;fill-opacity:0;stroke:#000000;stroke-width:0.7;stroke-linecap:round;stroke-linejoin:round;stroke-dasharray:none"
       d="m 127.86267,85.176489 c 0.50976,-0.03846 1.08603,-0.221499 1.58267,-0.304237 0.10007,-0.01667 0.20593,0.02461 0.30436,0 0.19949,-0.04986 0.18261,-0.07158 0.18261,-0.182544"
       id="path78487" />
    <path
       style="fill:#000000;fill-opacity:0;stroke:#000000;stroke-width:0.7;stroke-linecap:round;stroke-linejoin:round;stroke-dasharray:none"
       d="m 129.93231,83.229378 c 0.20929,1.46437 -0.0569,-0.432472 0.36524,3.2249 0.0142,0.12256 0.0609,0.24171 0.0609,0.365083 0,0.07314 -0.0986,-0.11316 -0.12174,-0.182542 -0.006,-0.01924 0,-0.04056 0,-0.06084 -0.0812,-0.101412 -0.16232,-0.202825 -0.24348,-0.304237"
       id="path78489" />
    <path
       style="fill:#000000;fill-opacity:0;stroke:#000000;stroke-width:0.7;stroke-linecap:round;stroke-linejoin:round;stroke-dasharray:none"
       d="m 115.07958,82.560058 3.8958,-2.312196"
       id="path78493" />
    <path
       style="fill:#000000;fill-opacity:0;stroke:#000000;stroke-width:0.7;stroke-linecap:round;stroke-linejoin:round;stroke-dasharray:none"
       d="m 122.99292,79.578543 3.53057,2.068806"
       id="path78495" />
    <path
       style="fill:#000000;fill-opacity:0;stroke:#000000;stroke-width:0.7;stroke-linecap:round;stroke-linejoin:round;stroke-dasharray:none"
       d="m 118.47501,76.785495 c 0.076,-0.09495 0.15198,-0.189907 0.22798,-0.284861"
       id="path78497" />
    <path
       style="fill:#000000;fill-opacity:0;stroke:#000000;stroke-width:0.7;stroke-linecap:round;stroke-linejoin:round;stroke-dasharray:none"
       d="m 119.44393,75.759994 0.28497,-0.113945"
       id="path78499" />
    <path
       style="fill:#000000;fill-opacity:0;stroke:#000000;stroke-width:0.7;stroke-linecap:round;stroke-linejoin:round;stroke-dasharray:none"
       d="m 121.78074,76.215773 0.51295,0.398804"
       id="path78501" />
    <path
       style="fill:#000000;fill-opacity:0;stroke:#000000;stroke-width:0.7;stroke-linecap:round;stroke-linejoin:round;stroke-dasharray:none"
       d="m 122.80665,77.867967 0.22798,0.113943"
       id="path78503" />
  </g>
</svg>
