<?xml version="1.0" encoding="UTF-8" standalone="no"?>
<!-- Created with Inkscape (http://www.inkscape.org/) -->

<svg
   width="87.401474mm"
   height="23.433498mm"
   viewBox="0 0 87.401474 23.433498"
   version="1.1"
   id="svg5"
   inkscape:version="1.2.2 (b0a8486541, 2022-12-01)"
   sodipodi:docname="amettallerin-levis-gösterimi.svg"
   xmlns:inkscape="http://www.inkscape.org/namespaces/inkscape"
   xmlns:sodipodi="http://sodipodi.sourceforge.net/DTD/sodipodi-0.dtd"
   xmlns="http://www.w3.org/2000/svg"
   xmlns:svg="http://www.w3.org/2000/svg">
  <sodipodi:namedview
     id="namedview7"
     pagecolor="#ffffff"
     bordercolor="#000000"
     borderopacity="0.25"
     inkscape:showpageshadow="2"
     inkscape:pageopacity="0.0"
     inkscape:pagecheckerboard="0"
     inkscape:deskcolor="#d1d1d1"
     inkscape:document-units="mm"
     showgrid="false"
     inkscape:zoom="2.0468441"
     inkscape:cx="249.16407"
     inkscape:cy="129.4676"
     inkscape:window-width="1916"
     inkscape:window-height="1026"
     inkscape:window-x="0"
     inkscape:window-y="0"
     inkscape:window-maximized="1"
     inkscape:current-layer="layer1" />
  <defs
     id="defs2" />
  <g
     inkscape:label="Layer 1"
     inkscape:groupmode="layer"
     id="layer1"
     transform="translate(-21.317635,-19.574748)">
    <path
       style="fill:#0000ff;stroke-width:0.264583"
       id="path122"
       d="m 22.252194,38.520155 c 0.07722,-0.07195 0.142251,-0.159768 0.231666,-0.21585 0.277957,-0.174336 0.635853,-0.222676 0.948352,-0.261823 0.756502,-0.09477 1.522857,-0.08167 2.283524,-0.09814 0.182092,-0.02098 0.366187,-0.02879 0.546275,-0.06293 0.345478,-0.0655 0.835217,-0.263355 0.870613,-0.68894 0.01283,-0.154303 0.0419,-0.37637 -0.0912,-0.455467 -0.238927,-0.141978 -0.552519,-0.06081 -0.828779,-0.09122 -0.120158,0.196284 -0.259225,0.382177 -0.360473,0.588851 -0.13237,0.270201 -0.23565,0.554032 -0.338027,0.836959 -0.425197,1.17507 -0.694272,2.37789 -0.889914,3.609163 -0.0095,0.07103 -0.09875,0.671187 0.01272,0.738883 0.217898,0.132326 0.54213,0.06618 0.724835,0.24397 0.14863,0.144629 -0.413032,-0.06072 -0.608298,-0.130569 -0.03984,-0.01426 -0.04244,-0.07321 -0.06366,-0.10981 -0.0012,0.723844 -0.185638,0.516765 0.932344,0.240416 -0.243669,-0.663797 -1.182419,-0.319196 -0.938749,0.344599 v 0 c 0.332895,-0.02334 0.669444,-0.01556 0.998686,-0.06999 0.04032,-0.0067 -0.0087,-0.631849 -0.006,-0.680323 -0.03088,-0.09425 -0.0096,-0.228518 -0.09264,-0.282739 -0.193669,-0.12646 -0.607816,-0.434663 -0.661466,-0.209672 -0.0544,0.228119 0.446295,0.157239 0.643827,0.283641 0.03956,0.02532 0.0082,0.09381 0.01787,0.13978 0.0049,0.02344 -0.0024,-0.04785 -0.0036,-0.07178 0.01061,-0.09336 0.02122,-0.186719 0.03184,-0.28008 0.12676,-0.804297 0.274899,-1.6021 0.501128,-2.385851 0.392183,-1.358689 0.214771,-0.607423 0.631572,-1.76548 0.02651,-0.07365 0.03522,-0.152535 0.05282,-0.228801 -0.210079,-0.07812 -0.458101,-0.09082 -0.630233,-0.234368 -0.122192,-0.101899 -0.001,-0.340233 0.09786,-0.403657 0.02428,-0.01558 0.111427,-0.01995 0.08637,-0.0057 -0.06406,0.03659 -0.135812,0.06076 -0.20816,0.07521 -0.147976,0.02956 -0.299473,0.03739 -0.44921,0.05609 -1.210939,0.02622 -2.897632,-0.09145 -3.914802,0.650103 -0.139012,0.101346 -0.23939,0.247131 -0.359085,0.370694 -0.392291,0.588312 0.439704,1.143096 0.831995,0.554784 z" />
    <path
       style="fill:#0000ff;stroke-width:0.264583"
       id="path124"
       d="m 24.412451,40.461202 c 0.843901,-0.126624 1.68786,-0.253897 2.52291,-0.430099 0.691724,-0.146687 0.484275,-1.124934 -0.207449,-0.978244 v 0 c -0.816228,0.174035 -1.642379,0.294482 -2.467317,0.419942 -0.698907,0.107378 -0.547051,1.09578 0.151856,0.988401 z" />
    <path
       style="fill:#0000ff;stroke-width:0.264583"
       id="path126"
       d="m 29.697285,37.129606 c 1.076656,-2.457178 1.525699,-5.135864 1.767044,-7.791511 0.01683,-0.161936 0.209934,-0.45285 0.0505,-0.485809 -0.300218,-0.06206 -0.680736,0.07136 -0.863029,0.317841 -0.147187,0.199012 0.04744,0.49294 0.08213,0.738026 0.138123,0.975992 0.34331,2.169779 0.548402,3.119861 0.116332,0.538893 0.259064,1.071745 0.388596,1.607619 0.12043,0.358568 0.476898,1.718646 0.901144,2.066083 0.765305,0.626751 1.270159,0.164825 1.71532,-0.592182 0.438008,-0.74485 0.558509,-2.410211 0.65781,-3.15296 0.185195,-1.890099 0.159975,-3.788323 0.157189,-5.684139 -0.0011,-0.707107 -1.00104,-0.705633 -0.999998,0.0016 v 0 c 0.0027,1.852144 0.02876,3.706604 -0.148801,5.553406 -0.07,0.552429 -0.139997,1.104858 -0.209992,1.657286 -0.09725,0.358505 -0.229585,0.70929 -0.291754,1.075513 -0.02355,0.138679 0.04428,0.279773 0.03783,0.420288 -0.0032,0.06917 -0.01423,0.242729 -0.06614,0.196895 -0.174795,-0.154374 -0.283912,-0.375388 -0.377714,-0.588899 -0.168204,-0.38286 -0.268642,-0.792041 -0.402966,-1.188061 -0.391427,-1.614279 -0.40418,-1.556811 -0.697272,-3.22394 -0.08305,-0.4724 -0.143431,-0.94856 -0.223462,-1.421482 -0.06085,-0.359563 0.08052,-0.841698 -0.199133,-1.075748 -1.068409,-0.894173 -1.018747,0.223485 -1.054585,0.568875 -0.203517,2.262751 -0.573167,4.520954 -1.34331,6.6679 -0.09355,0.260807 -0.214757,0.510852 -0.322136,0.766275 -0.316352,0.632394 0.577988,1.079783 0.894339,0.44739 z" />
    <path
       style="fill:#0000ff;stroke-width:0.264583"
       id="path128"
       d="m 43.944823,35.780075 c 0.104232,-0.09374 0.584279,-0.489093 0.746204,-0.244912 0.06451,0.09729 -0.156252,0.174953 -0.218324,0.273815 -0.105656,0.168291 -0.171235,0.358635 -0.256855,0.537951 -0.410112,0.69918 -0.926758,1.330772 -1.502605,1.899734 -0.175324,0.173231 -0.450009,0.4327 -0.679953,0.558073 -0.0245,-0.992754 0.532895,0.716351 0.857597,0.592621 0.167362,-0.06377 0.319055,-0.162827 0.478583,-0.244242 0.232095,-0.09622 0.461026,-0.200456 0.696288,-0.288652 0.606986,-0.227552 1.018337,-0.338704 1.638427,-0.52369 0.293418,-0.08727 0.903232,-0.257543 1.214827,-0.386191 0.118835,-0.04906 0.2287,-0.117523 0.343053,-0.176284 0.623702,-0.333155 0.152551,-1.215207 -0.471154,-0.882052 v 0 c -0.426003,0.242419 -0.907857,0.341789 -1.373034,0.486389 -0.851421,0.254825 -1.698035,0.507833 -2.506988,0.881827 -0.192312,0.08891 -0.387506,0.176003 -0.563726,0.293632 -0.17285,0.115379 -0.516332,0.197106 -0.477216,0.401214 0.06142,0.320532 0.458441,0.464635 0.687663,0.696952 0.777859,-0.500361 1.51689,-1.331113 2.04508,-2.072714 0.194292,-0.272796 0.356976,-0.566774 0.535467,-0.850162 0.241377,-0.630462 0.576643,-1.093848 0.212815,-1.796383 -0.105921,-0.204531 -0.346938,-0.324115 -0.565314,-0.397351 -0.586087,-0.196549 -1.133877,0.184147 -1.54777,0.533146 -0.500124,0.499877 0.206811,1.207156 0.706935,0.707279 z" />
    <path
       style="fill:#0000ff;stroke-width:0.264583"
       id="path130"
       d="m 46.643072,28.450339 c 0.09617,0.148224 0.210082,0.286345 0.288497,0.444679 0.507476,1.024718 0.73483,2.162212 0.939194,3.276981 0.169026,0.92201 0.198919,1.21806 0.315468,2.094363 0.443614,-0.792972 -0.110924,0.971878 0.08125,0.789876 0.119521,-0.113189 0.05558,-0.382381 0.206233,-0.448709 0.194892,-0.08581 0.422637,0.05253 0.633954,0.07879 -0.383002,-0.594397 -1.223607,-0.05275 -0.840605,0.54165 v 0 c 0.243922,0.07686 0.483968,0.293846 0.731764,0.230587 0.459309,-0.117261 0.185645,-1.109348 0.178639,-1.324293 -0.117952,-0.883462 -0.15529,-1.236633 -0.326562,-2.160561 -0.229794,-1.239604 -0.485924,-2.524834 -1.09564,-3.645714 -0.122518,-0.225232 -0.298688,-0.41683 -0.448032,-0.625245 -0.528624,-0.469633 -1.192787,0.277955 -0.664163,0.747591 z" />
    <path
       style="fill:#0000ff;stroke-width:0.264583"
       id="path132"
       d="m 53.457075,33.554794 c 0.152228,0.471093 0.259919,0.954855 0.392594,1.431285 0.06027,0.216423 0.163883,0.665731 0.381344,0.806082 0.193672,0.124997 0.439674,0.138644 0.659511,0.207965 0.213373,-0.06727 0.431054,-0.122155 0.640119,-0.201811 0.494806,-0.188526 1.467721,-0.768932 1.979997,-0.287287 0.07251,0.06817 0.08226,0.181255 0.123388,0.271883 0.005,0.132723 0.03664,0.267123 0.015,0.398164 -0.08757,0.530296 -0.44168,1.180237 -0.921565,1.453975 -0.351801,0.200676 -0.574164,0.07258 -0.930241,-0.01072 -0.697391,-0.346535 -0.371448,-0.14261 -0.97972,-0.608735 -0.569505,-0.419126 -1.162235,0.386276 -0.592733,0.8054 v 0 c 0.873496,0.623919 0.394745,0.352121 1.44738,0.795483 0.314139,0.02207 0.631134,0.113829 0.942419,0.06617 1.154099,-0.17671 2.044959,-1.580496 2.017059,-2.687315 -0.0073,-0.289279 -0.146045,-0.560011 -0.219065,-0.840017 -0.189751,-0.195776 -0.337954,-0.442979 -0.569248,-0.587325 -0.859517,-0.536395 -2.12761,-0.02061 -2.90763,0.433163 0.02954,0.06072 0.08866,0.114636 0.08861,0.182157 -2.6e-5,0.03635 -0.07345,-0.03044 -0.0887,-0.06343 -0.05596,-0.121128 -0.08164,-0.254135 -0.117398,-0.382685 -0.587714,-2.113089 0.336819,1.11692 -0.284364,-1.063535 -0.04142,-0.145396 -0.08539,-0.290055 -0.128079,-0.435083 -0.223608,-0.67082 -1.17229,-0.354592 -0.948683,0.316227 z" />
    <path
       style="fill:#0000ff;stroke-width:0.264583"
       id="path134"
       d="m 54.05198,34.490374 c 1.05633,-0.295074 2.1517,-0.389933 3.223831,-0.602491 0.693383,-0.138639 0.497322,-1.11923 -0.196061,-0.980593 v 0 c -1.07564,0.21713 -2.177188,0.305739 -3.237151,0.60525 -0.691433,0.148053 -0.482055,1.125887 0.209381,0.977834 z" />
    <path
       style="fill:#0000ff;stroke-width:0.264583"
       id="path136"
       d="m 58.551947,28.473225 c 0.09973,0.15186 0.21322,0.295526 0.299183,0.455583 0.638426,1.188728 0.967629,2.565048 1.07869,3.903734 0.02029,0.244483 0.01106,0.490522 0.01659,0.73578 -0.126463,-0.07647 0.04196,0.494019 -0.138714,0.557062 -0.03393,0.01183 0.0065,-0.08917 0.04083,-0.09979 0.165388,-0.05118 0.342905,-0.048 0.514358,-0.072 -0.616268,-0.346721 -1.106604,0.524814 -0.490337,0.871532 v 0 c 0.201388,-0.0072 0.413015,0.04233 0.604166,-0.02148 0.366291,-0.122251 0.457747,-0.994418 0.469349,-1.261518 -0.0082,-0.279749 -2.64e-4,-0.560437 -0.02469,-0.83925 -0.126585,-1.451446 -0.513678,-3.074805 -1.248172,-4.343453 -0.129501,-0.223673 -0.301649,-0.419772 -0.452472,-0.629658 -0.525701,-0.472906 -1.194488,0.270547 -0.668787,0.743453 z" />
    <path
       style="fill:#0000ff;stroke-width:0.264583"
       id="path138"
       d="m 64.54532,31.165159 c 1.939743,-0.214656 3.872458,-0.485542 5.81057,-0.713607 2.034543,-0.239411 0.637644,-0.05578 2.264646,-0.277974 0.70059,-0.09578 0.565139,-1.086562 -0.135451,-0.990783 v 0 c -1.59517,0.218313 -0.220313,0.0372 -2.249532,0.276024 -1.936885,0.227962 -3.868389,0.498602 -5.806903,0.713171 -0.702279,0.0825 -0.585608,1.075669 0.11667,0.993169 z" />
    <path
       style="fill:#0000ff;stroke-width:0.264583"
       id="path140"
       d="m 70.364452,28.529266 c 1.288132,0.169027 2.584506,0.334653 3.846412,0.653344 0.869003,0.219464 0.645081,0.114154 1.175748,0.507984 -0.07534,-0.01032 -0.150633,-0.04086 -0.226026,-0.03092 -0.413774,0.05451 -0.780809,0.374562 -1.12413,0.544168 -0.275947,0.136321 -0.566182,0.241583 -0.849273,0.362373 -0.649255,0.28012 -0.253108,1.198306 0.396148,0.918187 v 0 c 0.558138,-0.243163 1.424678,-0.572043 1.894189,-0.977604 0.272796,-0.235641 0.58539,-0.491429 0.683027,-0.838433 0.07575,-0.269208 -0.146169,-0.539885 -0.219252,-0.809829 -0.205132,-0.127992 -0.393261,-0.288491 -0.615395,-0.383979 -0.289274,-0.124346 -0.599929,-0.192886 -0.905285,-0.269698 -1.30116,-0.32731 -2.637438,-0.498898 -3.965596,-0.67148 -0.704202,-0.06404 -0.794768,0.931849 -0.09057,0.995891 z" />
    <path
       style="fill:#0000ff;stroke-width:0.264583"
       id="path142"
       d="m 87.751128,34.122786 c 0.416724,-2.383335 0.473593,-4.821238 0.458978,-7.236085 -1.292254,0.959046 0.351467,-1.060174 0.01672,-1.013705 -0.313142,0.04347 -0.684617,0.102371 -0.881644,0.34961 -0.128003,0.160626 0.08055,0.402809 0.121671,0.604043 0.306176,1.498518 0.148797,0.791213 0.57332,2.461892 0.371475,1.370224 0.853729,2.702367 1.507379,3.963588 0.264012,0.509408 0.556152,1.013561 0.919419,1.460611 0.10232,0.125921 0.226963,0.231921 0.340445,0.347882 0.166566,0.0547 0.332833,0.217866 0.4997,0.164092 0.672439,-0.216688 0.747945,-0.706715 0.852162,-1.285687 0.05885,-0.326956 0.08711,-0.658947 0.114716,-0.99001 0.04043,-0.484883 0.103523,-2.007753 0.124073,-2.467647 0.01183,-1.069919 0.09882,-2.137016 0.139766,-3.205673 0.0078,-0.202345 0.01643,-0.40499 0.01042,-0.607396 -0.0035,-0.118613 0.02841,-0.256156 -0.03894,-0.353857 -0.130363,-0.189118 -0.345419,-0.302861 -0.518131,-0.454292 -0.691684,-0.146866 -0.899384,0.831327 -0.2077,0.978191 v 0 c -0.08886,-0.133625 -0.140899,-0.30109 -0.266573,-0.400876 -0.05652,-0.04488 0.02943,0.142072 0.03148,0.214213 0.0054,0.190286 -0.0019,0.380794 -0.0092,0.571016 -0.0412,1.071448 -0.127937,2.141352 -0.140179,3.214057 -0.01966,0.440582 -0.08144,1.922159 -0.118824,2.400695 -0.02278,0.291703 -0.05479,0.582787 -0.09441,0.872685 -0.02191,0.16033 -0.154927,0.328806 -0.09002,0.477039 0.0599,0.136805 0.40119,-0.08179 0.416771,0.164401 -0.48334,-0.461547 -0.751318,-0.934399 -1.064368,-1.533985 -0.626573,-1.200073 -1.083712,-2.470343 -1.438926,-3.775686 -0.507423,-1.990572 -0.185513,-0.641538 -0.564362,-2.423549 -0.05412,-0.254555 0.04573,-0.615538 -0.169285,-0.762159 -1.011997,-0.690105 -1.061175,-0.225898 -1.069917,0.252564 -0.0048,0.261379 0.0029,0.522837 0.0044,0.784256 0.01537,2.337277 -0.03981,4.696526 -0.433332,7.004656 -0.159181,0.688957 0.815152,0.914072 0.974334,0.225116 z" />
    <path
       style="fill:#0000ff;stroke-width:0.264583"
       id="path144"
       d="m 83.798094,31.556819 c -0.361431,0.629312 -0.602596,0.736039 0.601972,1.007026 0.03638,0.0082 0.182568,-0.395399 0.187352,-0.407792 0.345164,-0.774361 -0.8225,-1.343133 -1.121707,-0.426871 -0.04502,0.137875 0.0098,0.289917 0.01466,0.434875 0.150696,0.24394 0.207209,0.4246 0.476417,0.552995 0.403217,0.192309 0.942496,0.135805 1.120735,-0.359651 0.05811,-0.161526 -0.01733,-0.342882 -0.02598,-0.514324 -0.02685,-0.06841 -0.422196,-0.662736 -0.585139,-0.591759 -0.256844,0.111882 -0.408374,0.414227 -0.674701,0.501148 -0.121333,0.0396 0.205894,-0.25735 0.130167,-0.360085 -0.697143,0.118292 -0.529849,1.104201 0.167291,0.985906 v 0 c 0.120637,-0.03155 0.262842,-0.01892 0.361905,-0.09466 0.146494,-0.111984 0.513826,-0.38895 0.336394,-0.439144 -1.561754,-0.441812 -0.304723,0.633899 -0.768329,0.271462 -0.01976,-0.01545 0.08016,0.06133 0.07415,0.01302 0.02429,-0.06102 0.02735,-0.135705 0.07284,-0.183076 0.158919,-0.165492 0.380055,-0.162065 0.360138,-0.05084 -0.0051,0.0283 -0.132898,-0.08696 -0.07012,0.05021 -0.189987,0.473729 -0.576916,0.407445 -0.817092,-0.03681 -0.02368,-0.0438 0.0081,-0.09927 0.01384,-0.148733 0.0019,-0.01519 -0.0013,0.03052 -0.0021,0.04578 -0.159933,0.451704 -0.06561,0.1842 0.779346,0.686842 0.0074,0.0044 0.0031,-0.01725 0.0068,-0.02508 0.02487,-0.05303 0.05046,-0.105797 0.07867,-0.157128 0.04153,-0.07557 0.08698,-0.148932 0.130468,-0.223399 0.374687,-0.599673 -0.473382,-1.129562 -0.848069,-0.529886 z" />
    <path
       style="fill:#0000ff;stroke-width:0.264583"
       id="path146"
       d="m 83.764997,28.813598 c 0.616099,0.316365 1.001239,0.685417 1.142479,-0.58203 0.0073,-0.06573 -0.337108,-0.192125 -0.439457,-0.232032 0.05289,0.03024 0.126677,0.03887 0.158681,0.09071 0.06644,0.107614 0.05414,0.460308 0.127553,0.357327 0.130022,-0.182385 0.01593,-0.564695 -0.07019,-0.666178 -0.117057,-0.137938 -0.348144,-0.09855 -0.522216,-0.147823 -0.434213,0.236207 -0.242157,0.116176 -0.503672,0.45861 -0.03029,0.03967 0.04632,-0.08843 0.06948,-0.132651 -0.443315,0.550883 0.335751,1.177824 0.779066,0.626941 v 0 c 0.03194,-0.05513 0.154289,-0.190704 0.09582,-0.165389 -0.06811,0.02949 -0.0946,0.115435 -0.130487,0.180396 -0.01307,0.02368 0.04041,-0.03595 0.06062,-0.05392 -0.06349,0.0232 -0.126986,0.04641 -0.190481,0.06962 -0.610225,-0.256151 -0.337516,-0.0011 -0.445617,-0.690121 -0.0035,-0.02238 -0.02093,0.0402 -0.03038,0.06078 -0.196574,0.427808 -0.166899,0.677424 0.238887,0.943515 0.03907,0.01521 0.08197,0.06829 0.117219,0.0456 0.02863,-0.01842 -0.08053,-0.0523 -0.06222,-0.08101 0.1671,-0.262046 0.394565,-0.480624 0.579588,-0.73034 0.007,-0.0095 -0.02413,-2.2e-4 -0.03523,-0.0043 -0.06103,-0.02273 -0.121308,-0.04771 -0.180062,-0.0758 -0.07798,-0.03728 -0.153199,-0.08008 -0.229798,-0.120121 -0.599805,-0.374475 -1.129395,0.473779 -0.529588,0.848254 z" />
    <path
       style="fill:#0000ff;stroke-width:0.264583"
       id="path148"
       d="m 87.87999,22.603888 c 0.107501,0.5638 0.613683,1.731862 1.396786,1.015047 0.129887,-0.118893 0.08995,-0.340491 0.134927,-0.510737 -0.05423,-0.146458 -0.08822,-0.302102 -0.162703,-0.439373 -0.170563,-0.314342 -0.552476,-0.617525 -0.930404,-0.592439 -0.143227,0.0095 -0.303216,0.04149 -0.40702,0.140631 -0.135419,0.129335 -0.174035,0.331622 -0.261053,0.497433 0.04123,0.153078 0.04667,0.320671 0.123695,0.459234 0.221311,0.398113 0.918522,0.68634 1.34081,0.455262 0.142299,-0.07787 0.234146,-0.224552 0.351222,-0.336828 0.0108,-0.186961 0.0765,-0.378883 0.03238,-0.560884 -0.09286,-0.383049 -0.508114,-0.58773 -0.845646,-0.682435 -0.04937,-0.01385 -0.119576,-0.0694 -0.151085,-0.02895 -0.192582,0.24727 -0.309004,0.545378 -0.463507,0.818066 0.395499,0.586159 1.224452,0.02684 0.828952,-0.559318 v 0 c -0.174617,0.242876 -0.353041,0.48306 -0.523853,0.728626 -0.0035,0.005 0.01222,-0.0027 0.01826,-0.0018 0.02672,0.004 0.05237,0.01564 0.07938,0.01642 0.149093,0.0043 0.03024,-0.271284 0.191169,-0.281599 0.144011,-0.05186 0.238636,-0.104546 0.235101,-0.02476 -0.0024,0.05615 -0.111159,-0.02274 -0.167328,-0.02075 -0.06311,0.0022 -0.02156,0.245522 -0.0623,0.178893 -0.07113,0.06729 -0.126661,0.156423 -0.213389,0.201869 -0.07438,0.03897 -0.253587,0.01576 -0.242697,-0.0675 0.01413,-0.107938 0.208754,0.228894 0.230021,0.09901 0.04484,-0.05699 0.06597,-0.147337 0.134533,-0.170966 0.157083,-0.05414 0.330874,-0.0621 0.496287,-0.04644 0.04142,0.0039 0.08555,0.06043 0.0741,0.100427 -0.01037,0.03629 -0.06,-0.04817 -0.07988,-0.08025 -0.08654,-0.139627 -0.114401,-0.262101 -0.162891,-0.416487 -0.07819,-0.702771 -1.072055,-0.592197 -0.993867,0.110573 z" />
    <path
       style="fill:#0000ff;stroke-width:0.264583"
       id="path150"
       d="m 90.626844,22.657201 c 0.101571,0.389875 0.387882,1.095922 0.908238,1.066803 0.168717,-0.0094 0.358751,-0.05887 0.472406,-0.183915 0.122565,-0.134852 0.111784,-0.34689 0.167674,-0.520335 -0.04522,-0.116643 -0.06505,-0.24666 -0.135662,-0.349928 -0.288388,-0.421754 -0.78975,-0.448819 -1.121974,0.0074 -0.186973,0.256766 0.04182,0.531655 0.154075,0.723052 0.100018,0.06552 0.187312,0.15674 0.300051,0.196568 0.441134,0.155844 0.877554,-0.148114 0.866994,-0.629848 -0.0072,-0.330794 -0.21885,-0.441827 -0.428823,-0.622195 -0.495385,-0.192662 -0.771292,-0.158946 -0.996913,0.413751 -0.03251,0.08251 0.03078,0.38162 0.0871,0.474985 0.05015,0.08313 0.122105,0.150972 0.183158,0.226458 0.139313,0.03428 0.278627,0.06855 0.417941,0.102829 0.703447,-0.07184 0.601853,-1.066665 -0.101595,-0.994826 v 0 c 0.103849,0.0379 0.207695,0.0758 0.311544,0.113695 0.03773,0.05667 0.07889,0.111191 0.113181,0.170003 0.04996,0.08569 -0.41361,0.602574 -0.577535,0.319481 -0.06381,-0.39176 0.326943,-0.765579 0.610851,-0.389184 0.108559,0.560976 -0.710292,0.789426 -0.681476,0.280593 0.167121,-0.262438 0.301439,-0.549508 0.644615,-0.224112 0.0098,0.0093 -0.03102,0.0081 -0.04032,-0.0016 -0.118954,-0.124192 -0.124661,-0.229026 -0.1774,-0.396917 -0.153583,-0.690226 -1.12971,-0.473026 -0.976128,0.2172 z" />
    <path
       style="fill:#0000ff;stroke-width:0.264583"
       id="path152"
       d="m 94.262979,28.847602 c -0.0079,0.03139 -0.116372,0.462998 -0.140158,0.546225 -0.0083,0.02915 -0.05635,0.100542 -0.02977,0.08595 0.177035,-0.09722 0.305943,-0.284432 0.499041,-0.343646 0.09165,-0.02811 0.173752,0.134617 0.266129,0.109 0.06347,-0.01759 -0.0889,-0.09721 -0.13335,-0.145822 -0.09959,-0.05246 -0.186217,-0.15812 -0.298776,-0.157372 -0.448651,0.003 -0.660506,0.152268 -0.691044,0.589222 -0.02609,0.373494 0.269089,0.604039 0.531754,0.787911 0.126582,0.02466 0.25249,0.09488 0.379746,0.07398 0.418653,-0.06877 0.535266,-0.289608 0.571717,-0.691256 0.01974,-0.21754 -0.136067,-0.439065 -0.230608,-0.620985 -0.03793,-0.04834 -0.07586,-0.09669 -0.113784,-0.145034 -0.506415,-0.493501 -1.20433,0.222679 -0.697915,0.71618 v 0 c -0.02445,-0.03521 -0.04889,-0.07041 -0.07333,-0.105614 0.155649,0.293568 0.0648,0.05809 0.26647,-0.07804 0.219702,-0.148302 0.256016,-0.08912 0.41934,-0.0024 -0.0749,0.0083 -0.02784,0.08659 -0.05673,0.146928 -0.13857,0.289399 -0.478954,0.445193 -0.728234,0.179004 0.126752,0.112419 0.376521,0.33637 0.444908,0.333917 0.650039,-0.02331 0.653838,-0.528979 0.763196,-0.961668 0.223782,-0.670761 -0.724818,-0.987237 -0.9486,-0.316476 z" />
    <path
       style="fill:#0000ff;stroke-width:0.264583"
       id="path154"
       d="m 94.512841,33.120308 c 0.05854,0.085 0.11717,0.16994 0.17563,0.254995 0.340762,0.495795 -0.02559,0.07392 0.101981,-0.07463 0.413028,-0.480907 0.869704,-0.233776 0.480727,-0.4088 -0.109432,-0.01884 -0.217361,-0.06137 -0.328295,-0.0565 -0.427546,0.01876 -0.813025,0.283157 -0.853782,0.742272 -0.01236,0.139216 0.02389,0.289719 0.09937,0.407347 0.08482,0.132189 0.2389,0.203965 0.358349,0.305949 0.107455,0.02679 0.21214,0.06967 0.322365,0.08037 0.338852,0.03291 0.726295,-0.112678 0.863,-0.454866 0.08792,-0.22007 0.04658,-0.368557 0.01011,-0.564994 -0.01342,-0.04349 -0.02685,-0.08698 -0.04028,-0.130469 -0.23513,-0.666869 -1.178224,-0.334343 -0.943094,0.332526 v 0 c 5.29e-4,-0.0038 0.0011,-0.0075 0.0019,-0.0113 0.03549,0.168352 -0.009,0.02977 0.08456,-0.08762 0.0065,-0.0081 0.285623,-0.200406 0.167471,-0.04852 0.02822,0.05395 0.07202,0.10229 0.08466,0.16185 0.01992,0.09391 -0.06582,0.364858 -0.207036,0.298773 -0.04372,-0.02045 -0.0343,-0.0314 -0.0291,-0.06274 0.324993,0.145936 0.408861,0.224067 0.890368,-0.227185 0.216239,-0.202655 -0.284808,-0.832001 -0.390784,-0.986554 -0.374819,-0.599594 -1.222772,-0.06952 -0.847953,0.530071 z" />
    <path
       style="fill:#0000ff;stroke-width:0.264583"
       id="path156"
       d="m 87.621458,37.584451 c 0.06465,0.406456 0.239784,1.163764 0.817227,1.121238 0.190378,-0.01402 0.376025,-0.11974 0.514866,-0.250751 0.101782,-0.09604 0.107688,-0.258339 0.161533,-0.387511 0.0037,-0.109742 0.02535,-0.220374 0.01093,-0.329227 -0.06406,-0.483272 -0.469241,-0.789432 -0.967536,-0.567997 -0.32562,0.144704 -0.312343,0.452052 -0.361781,0.728298 0.03309,0.115848 0.03782,0.243911 0.09927,0.347541 0.25935,0.437351 0.977887,0.642456 1.30134,0.132852 0.07813,-0.123092 0.06141,-0.285043 0.09212,-0.427564 -0.09846,-0.373803 -0.186203,-0.44214 -0.532715,-0.56724 -0.700654,-0.09531 -0.835443,0.895564 -0.134787,0.990872 v 0 c -0.172931,-0.06917 -0.329731,-0.129928 -0.329543,-0.34681 0.03526,-0.08346 0.04391,-0.184192 0.105772,-0.250389 0.178387,-0.190873 0.475247,-0.114366 0.39815,0.148678 -0.140022,0.177794 -0.33107,0.199871 -0.559485,0.08433 -0.145187,-0.07344 -0.137028,-0.236995 -0.110371,-0.243091 0.01593,-0.0037 0.01463,0.02925 0.02193,0.04388 0.130305,-0.06114 0.249259,-0.123698 0.413771,-0.09823 0.07876,0.0122 0.13285,0.09056 0.186825,0.149193 0.0092,0.01 -0.0073,0.04987 -0.01429,0.03823 -0.07158,-0.118523 -0.0936,-0.300199 -0.119335,-0.426834 -0.07815,-0.702773 -1.072028,-0.592246 -0.993876,0.110527 z" />
    <path
       style="fill:#0000ff;stroke-width:0.264583"
       id="path158"
       d="m 91.224861,38.119526 c 0.06693,0.248192 0.117266,0.321966 0.07566,0.575371 -0.01087,0.06623 -0.03592,0.130926 -0.06984,0.18883 -0.01521,0.02596 -0.08939,0.07874 -0.07238,0.05393 0.191307,-0.27899 0.170141,-0.167494 0.559107,-0.115321 0.03036,0.01881 0.05573,0.06149 0.09108,0.0564 0.02724,-0.0039 0.02551,-0.04892 0.03534,-0.07463 0.06834,-0.178782 0.119843,-0.316204 0.271319,-0.440169 0.01373,0.0016 0.05218,-0.0038 0.04119,0.0046 -0.133226,0.101409 -0.188762,0.0746 -0.354573,0.01762 -0.03275,-0.01125 -0.05237,-0.05759 -0.08699,-0.05678 -0.02005,5.29e-4 -0.0088,0.07893 -0.01167,0.05907 -0.0056,-0.03805 0.0024,-0.07687 0.0034,-0.11531 0.378182,-0.377339 0.08648,-0.214054 0.670094,-0.185902 0.01582,7.94e-4 -0.01736,-0.02728 -0.02999,-0.03682 -0.239261,-0.180777 -0.170302,-0.134437 -0.443807,-0.220001 -0.688991,-0.159038 -0.913906,0.81534 -0.224915,0.974378 v 0 c -0.02527,-0.0254 -0.09687,-0.10537 -0.0706,-0.08102 0.502867,0.466024 0.564814,0.334568 1.000143,-0.01667 0.03187,-0.102232 0.07941,-0.200848 0.0956,-0.306702 0.03111,-0.203324 -0.05022,-0.55404 -0.169103,-0.695373 -0.347779,-0.413459 -0.749088,-0.30997 -1.122891,-0.05116 -0.07077,0.075 -0.148331,0.144124 -0.212307,0.224991 -0.203428,0.257128 -0.42013,0.780331 -0.384149,1.110147 0.01797,0.164621 0.09184,0.318209 0.137766,0.477314 0.197204,0.09124 0.374441,0.266506 0.591611,0.273732 0.167113,0.0056 0.318087,-0.125822 0.440817,-0.239384 0.103862,-0.0961 0.164304,-0.234117 0.214069,-0.36658 0.177141,-0.471509 0.107677,-0.961181 -0.06015,-1.420633 -0.287158,-0.646173 -1.200983,-0.240072 -0.913829,0.406101 z" />
    <path
       style="fill:#0000ff;stroke-width:0.264583"
       id="path160"
       d="m 84.694394,23.997447 c -0.842013,-0.167824 -1.687095,-0.231751 -2.540198,-0.132797 -0.286896,0.0064 -0.564269,0.152487 -0.850826,0.158273 -0.0066,1.32e-4 0.01566,-0.0119 0.01087,-0.0164 -0.01175,-0.01108 -0.03041,-0.01089 -0.04562,-0.01634 -0.428299,-0.172381 -0.524592,0.130915 -0.730491,0.648342 -0.0086,0.02164 0.156385,0.282862 0.174255,0.359169 0.18302,0.630712 0.262885,1.292707 0.351734,1.943057 0.05757,0.422214 0.148916,0.842902 0.172977,1.269413 0.02183,0.387024 -0.0213,0.77408 -0.06593,1.157419 -0.06332,0.570474 -0.159137,1.142617 -0.16591,1.71808 -0.0033,0.27858 0.02188,0.51712 0.04401,0.7933 0.08243,0.714103 0.08995,1.432836 0.09255,2.150679 0.03895,0.582041 0.109146,1.160341 0.12623,1.743755 0.04258,0.297405 -0.08985,0.580305 -0.107022,0.872498 -0.0045,0.07685 0.0024,0.153945 0.0035,0.23092 -0.01127,0.103781 -0.02307,0.184828 0.07022,0.298241 0.09805,0.119182 0.229087,0.221515 0.375156,0.271339 0.168042,0.05732 0.780237,-0.09429 0.957434,-0.129707 0.511776,-0.137673 1.039096,-0.05021 1.558457,-0.110101 0.701998,-0.08484 0.582014,-1.077616 -0.119983,-0.992775 v 0 c -0.542034,0.07005 -1.101339,-0.04355 -1.635329,0.122441 -0.103693,0.02093 -0.207063,0.04354 -0.311084,0.06278 -0.08574,0.01585 -0.176379,0.01212 -0.258122,0.04249 -0.01916,0.0071 0.03513,0.02125 0.05059,0.03459 0.09303,0.08036 0.204343,0.145336 0.274548,0.246253 0.03848,0.05531 0.008,0.137401 0.03522,0.199028 0.01603,0.0363 8.2e-5,-0.07936 1.24e-4,-0.119034 -0.06034,0.01402 -0.01624,0.0082 0.0095,-0.13979 0.05277,-0.303717 0.122066,-0.608337 0.0964,-0.919064 -0.01752,-0.574622 -0.07932,-1.144852 -0.125788,-1.71754 -0.0028,-0.743659 -0.0113,-1.488244 -0.09583,-2.228075 -0.01394,-0.168682 -0.04406,-0.481811 -0.04237,-0.654754 0.0055,-0.556971 0.10079,-1.11062 0.161179,-1.662729 0.100846,-0.908013 0.08337,-1.777997 -0.109913,-2.67536 -0.09886,-0.719924 -0.188209,-1.451979 -0.402201,-2.147747 -0.02898,-0.07266 -0.09563,-0.272042 -0.16219,-0.349241 -0.01058,-0.01228 0.01696,0.03536 0.007,0.04815 -0.158547,0.203201 -0.31391,0.412057 -0.502833,0.587373 -0.02551,0.02366 -0.131239,-0.044 -0.100737,-0.02727 0.04021,0.02205 0.08699,0.02906 0.130489,0.04359 0.47084,0.105954 0.789832,-0.02037 1.250879,-0.102605 0.775975,-0.100732 1.543039,-0.0093 2.309085,0.134078 0.702812,0.07782 0.812866,-0.916107 0.110053,-0.993925 z" />
    <path
       style="fill:#0000ff;stroke-width:0.264583"
       id="path164"
       d="m 94.658959,25.34908 c 0.49461,-0.09825 0.987166,-0.208988 1.471224,-0.351174 0.348546,-0.102381 0.682405,-0.237798 1.038619,-0.30975 0.286607,-0.03308 0.42445,0.12303 0.07417,-0.131967 0.04699,0.06449 0.658193,0.916182 0.433538,0.23856 -0.06942,-0.209386 -0.272979,-0.394979 -0.487114,-0.447963 -0.106862,-0.02644 0.0056,0.220108 0.01066,0.330076 0.0136,0.297549 0.03179,0.594875 0.04564,0.892413 0.04158,1.152744 0.138057,2.301822 0.168807,3.455209 0.0593,0.87928 0.12042,1.757786 0.134403,2.639137 0.0322,0.827373 -0.03421,1.650331 -0.09292,2.474574 0.01579,0.692862 -0.0039,1.400678 0.118022,2.085649 0.08506,0.235218 0.104064,0.470316 0.106717,0.717254 -0.0056,0.302948 -7.93e-4,0.342397 0.739051,-0.333682 0.0493,-0.04505 -0.0987,-0.09123 -0.155504,-0.12636 -0.399973,-0.247388 -0.377444,-0.192891 -0.88692,-0.308631 -0.816983,-0.07445 -1.597515,0.143965 -2.38025,0.33391 -0.321249,0.07795 -0.2799,0.164245 -0.3224,0.02125 0.03,-0.0021 0.06001,-0.0043 0.09001,-0.0064 -0.539605,-0.456977 -1.185865,0.306139 -0.646261,0.763117 v 0 c 0.120801,0.07477 0.241604,0.149532 0.362405,0.2243 0.1378,0.0136 0.275079,0.04723 0.413401,0.04081 0.132596,-0.0061 0.68689,-0.166505 0.786471,-0.190664 0.494189,-0.119896 0.995656,-0.211813 1.506538,-0.204576 0.174704,0.02278 0.2981,0.01439 0.446569,0.1031 0.0533,0.03184 0.08324,0.126775 0.144605,0.117382 0.893339,-0.136728 0.899512,-0.0046 0.902205,-0.446479 -0.0044,-0.304038 -0.02437,-0.605975 -0.125124,-0.895762 -0.04855,-0.210394 -0.04823,-0.431192 -0.06162,-0.64619 -0.02442,-0.391821 -0.04774,-0.784182 -0.04043,-1.177009 0.06075,-0.853183 0.127616,-1.705324 0.09532,-2.56168 -0.01439,-0.884894 -0.07301,-1.767139 -0.134633,-2.649844 -0.03122,-1.159992 -0.127095,-2.315697 -0.169532,-3.475009 -0.0034,-0.07386 -0.01696,-0.99152 -0.06109,-1.067883 -0.134448,-0.232675 -0.399579,-0.398299 -0.464163,-0.659149 -0.03212,-0.129722 0.233045,0.13087 0.349567,0.196305 0.0021,0.0033 0.0042,0.0066 0.0063,0.0099 -0.08531,-0.07477 -0.165968,-0.155216 -0.255932,-0.224319 -0.176622,-0.135669 -0.663895,-0.086 -0.861115,-0.06694 -0.832784,0.186985 -1.626079,0.53826 -2.478199,0.65464 -0.695693,0.126534 -0.516747,1.110393 0.178946,0.983859 z" />
    <path
       style="fill:#0000ff;stroke-width:0.264583"
       id="path166"
       d="m 99.845605,20.65721 c 0.260405,-0.0581 1.476075,-0.218106 1.546155,0.165432 0.007,0.03931 -0.0431,0.06734 -0.0646,0.101014 -0.22529,0.645875 -0.67136,1.156018 -1.21183,1.558399 -0.306758,0.245094 -0.334176,0.221019 0.20662,0.965954 0.0676,0.0931 0.22995,-0.0088 0.34498,-0.01078 0.43475,-0.0075 0.56375,0.0076 0.96633,0.171876 0.11676,0.102057 0.25908,0.172918 0.26671,0.350329 0.007,0.164335 -0.31916,0.56003 -0.40693,0.640434 -0.0991,0.09077 -0.21861,0.156295 -0.32791,0.234443 -0.88099,0.393995 -1.841258,0.217753 -2.759889,0.08407 -0.699786,-0.101474 -0.843293,0.888175 -0.143508,0.98965 v 0 c 0.941938,0.136127 1.919957,0.293316 2.854677,0.0093 0.23232,-0.07058 0.44372,-0.197323 0.66558,-0.295985 0.42187,-0.34916 0.63913,-0.451274 0.88433,-0.958908 0.28203,-0.58386 0.23335,-1.21741 -0.23911,-1.683419 -0.12953,-0.127763 -0.29998,-0.205951 -0.44998,-0.308927 -0.16975,-0.05802 -0.33468,-0.132779 -0.50926,-0.17407 -0.27278,-0.06452 -0.59343,-0.0705 -0.87364,-0.05619 -0.0361,0.0019 -0.10846,-0.01401 -0.10615,0.02205 0.0188,0.295047 0.0838,0.587009 0.16324,0.871791 0.007,0.0269 0.0435,-0.03508 0.0652,-0.05262 0.63802,-0.484015 1.3064,-1.172548 1.50756,-1.973813 0.0551,-0.219681 0.0393,-0.451283 0.059,-0.676925 -0.093,-0.199444 -0.1405,-0.427409 -0.27914,-0.598332 -0.50877,-0.627252 -1.78976,-0.474437 -2.474436,-0.323577 -0.670878,0.223432 -0.354897,1.172198 0.315981,0.948766 z" />
    <path
       style="fill:#0000ff;stroke-width:0.264583"
       id="path168"
       d="m 105.16892,22.53776 c 0.97195,-0.127125 1.94868,-0.01009 2.92244,-0.02348 0.0945,-0.02606 0.189,-0.05211 0.2835,-0.07817 0.65655,-0.262561 0.28523,-1.191067 -0.37132,-0.928506 v 0 c 0.0237,0.0023 0.0473,0.0045 0.071,0.0068 -1.00438,0.02074 -2.01354,-0.110731 -3.01609,0.02946 -0.70278,0.07812 -0.5923,1.071999 0.11048,0.993879 z" />
  </g>
</svg>
