<?xml version="1.0" encoding="UTF-8" standalone="no"?>
<!-- Created with Inkscape (http://www.inkscape.org/) -->

<svg
   width="124.37294mm"
   height="64.673676mm"
   viewBox="0 0 124.37294 64.673675"
   version="1.1"
   id="svg5"
   inkscape:version="1.2.2 (b0a8486541, 2022-12-01)"
   sodipodi:docname="levis.svg"
   xmlns:inkscape="http://www.inkscape.org/namespaces/inkscape"
   xmlns:sodipodi="http://sodipodi.sourceforge.net/DTD/sodipodi-0.dtd"
   xmlns="http://www.w3.org/2000/svg"
   xmlns:svg="http://www.w3.org/2000/svg">
  <sodipodi:namedview
     id="namedview7"
     pagecolor="#ffffff"
     bordercolor="#000000"
     borderopacity="0.25"
     inkscape:showpageshadow="2"
     inkscape:pageopacity="0.0"
     inkscape:pagecheckerboard="0"
     inkscape:deskcolor="#d1d1d1"
     inkscape:document-units="mm"
     showgrid="false"
     inkscape:zoom="2.071332"
     inkscape:cx="288.22033"
     inkscape:cy="136.14428"
     inkscape:window-width="1916"
     inkscape:window-height="1026"
     inkscape:window-x="0"
     inkscape:window-y="0"
     inkscape:window-maximized="1"
     inkscape:current-layer="layer1" />
  <defs
     id="defs2" />
  <g
     inkscape:label="Layer 1"
     inkscape:groupmode="layer"
     id="layer1"
     transform="translate(-41.171812,-9.0315001)">
    <path
       style="fill:#0000ff;stroke-width:0.264583"
       id="path5878"
       d="m 42.802778,13.049226 c 0.625583,-0.860179 1.291655,-1.802499 1.460746,-2.881104 0.01838,-0.11721 8.99e-4,-0.2372816 0.0013,-0.3559226 -0.364822,0.032097 -0.803188,-0.1257048 -1.094466,0.096292 -0.2677,0.2040276 -0.211755,0.6394436 -0.297822,0.9648406 -0.486973,1.84113 -0.723597,3.719298 -0.893199,5.611431 -0.0085,0.150944 -0.105738,1.205055 -0.0094,1.477563 0.06381,0.180558 0.21954,0.313835 0.32931,0.470753 0.542832,0.453137 1.183665,-0.314544 0.640832,-0.767681 v 0 c 0.0089,0.07273 0.03091,0.291345 0.02675,0.218188 -0.05352,-0.942376 -0.0706,0.117636 0.0086,-1.309856 0.124949,-1.403959 0.286582,-2.785835 0.568587,-4.168895 0.08504,-0.417045 0.181993,-0.831724 0.286457,-1.244331 0.06785,-0.268006 0.341167,-0.543505 0.23031,-0.796768 -0.124804,-0.285123 -0.529386,-0.32747 -0.794079,-0.4912049 0.08503,0.1784079 0.05332,0.082304 -0.07351,0.4755729 -0.241531,0.748901 -0.675138,1.417006 -1.142855,2.042462 -0.465743,0.532055 0.286697,1.190716 0.75244,0.65866 z" />
    <path
       style="fill:#0000ff;stroke-width:0.264583"
       id="path5880"
       d="m 45.767057,18.543237 c 0.941677,-1.804837 1.377854,-3.809154 1.803523,-5.783618 0.04235,-0.200079 0.0847,-0.400157 0.127057,-0.600235 0.0098,0.01246 0.04448,0.03308 0.02925,0.03739 -0.244907,0.0693 -0.598002,-0.04217 -0.745467,0.165287 -0.129678,0.18243 0.10839,0.43434 0.16537,0.65079 0.292185,1.109928 0.251862,0.939899 0.593798,2.093797 0.316206,0.82095 0.533881,1.709486 1.006451,2.463963 0.06152,0.09822 0.108038,0.276168 0.223523,0.266341 0.314061,-0.02673 0.58298,-0.239851 0.874471,-0.359777 0.09926,-0.700105 -0.89084,-0.840479 -0.990099,-0.140373 v 0 c 0.282982,-0.05991 0.571807,-0.0969 0.848945,-0.179736 0.02847,-0.0085 -0.05642,-0.02722 -0.07207,-0.05248 -0.09031,-0.145733 -0.171022,-0.297809 -0.241793,-0.45397 -0.289161,-0.638055 -0.454291,-1.158487 -0.690678,-1.828216 -0.425835,-1.435564 -0.216266,-0.695542 -0.585449,-2.063944 -0.07129,-0.264256 -0.0183,-0.601629 -0.214329,-0.792649 -1.046886,-1.020163 -1.161047,-0.1075 -1.306536,0.583116 -0.402524,1.867943 -0.808073,3.76506 -1.683435,5.479774 -0.363838,0.606318 0.493625,1.120863 0.857463,0.514545 z" />
    <path
       style="fill:#0000ff;stroke-width:0.264583"
       id="path5882"
       d="m 46.360982,17.472934 c 0.590598,-0.06054 1.181755,-0.07031 1.774096,-0.04028 0.706255,0.03468 0.755299,-0.964118 0.04904,-0.998797 v 0 c -0.645393,-0.03079 -1.289834,-0.02195 -1.933191,0.04515 -0.702812,0.07782 -0.592759,1.071745 0.110052,0.993926 z" />
    <path
       style="fill:#0000ff;stroke-width:0.264583"
       id="path5884"
       d="m 64.510516,12.431646 c 0.122246,-0.2683 0.232698,-0.706534 0.498554,-0.87994 0.02096,-0.01367 0.06315,0.0439 0.04443,0.06049 -0.342313,0.303473 -0.269248,-0.124119 -0.229635,0.45393 -0.0081,0.25641 0.0019,0.514032 -0.02424,0.76923 -0.106672,1.04005 -0.424508,2.54988 -1.269256,3.262671 -0.110821,0.09351 -0.256995,0.13437 -0.385493,0.201555 -0.238077,0.01389 -0.366392,0.04596 -0.594675,-0.03035 -0.04424,-0.01479 -0.149796,-0.111142 -0.113696,-0.0816 0.08612,0.07049 0.194561,0.117459 0.263882,0.204519 0.04722,0.0593 0.0029,0.182836 0.07099,0.216055 0.08058,0.03929 0.1758,-0.03526 0.263703,-0.05289 0.695751,-0.156692 1.198575,0.147562 1.823093,0.393086 0.667218,0.26231 0.535866,0.206286 1.221917,0.382209 0.489352,0.05721 1.004744,0.144436 1.483429,-0.0326 0.1227,-0.04538 0.228769,-0.126978 0.343151,-0.190467 0.594879,-0.382255 0.05429,-1.223541 -0.540589,-0.841287 v 0 c -0.22783,0.278527 -0.750549,0.08635 -1.041955,0.09459 -0.170196,-0.04185 -0.343191,-0.07363 -0.510588,-0.125556 -0.617008,-0.191401 -1.187879,-0.539966 -1.825815,-0.665736 -0.58664,-0.115656 -0.719373,-0.04492 -1.290728,0.04465 -0.426469,0.182789 -0.949924,0.268697 -0.989615,0.895983 -0.04316,0.682028 0.827121,0.834536 1.286589,0.793891 0.227174,-0.0201 0.445251,-0.099 0.667874,-0.148494 0.211363,-0.138064 0.448808,-0.242704 0.634082,-0.414191 0.970357,-0.898145 1.417354,-2.632511 1.503696,-3.902733 0.02397,-0.352822 -0.01212,-0.707168 -0.01818,-1.060751 -0.104595,-0.262516 -0.11815,-0.583635 -0.313788,-0.787549 -0.188034,-0.195986 -0.478041,-0.304456 -0.749175,-0.320375 -0.566235,-0.03325 -1.017784,1.06129 -1.165712,1.4741 -0.203333,0.677241 0.754433,0.964795 0.957765,0.287554 z" />
    <path
       style="fill:#0000ff;stroke-width:0.264583"
       id="path5890"
       d="m 69.808652,16.555514 c 1.365109,-1.705569 2.20985,-3.738739 2.919005,-5.785142 0.03647,-0.08864 0.204367,-0.252982 0.109394,-0.265935 -0.295857,-0.04035 -0.658772,-0.03848 -0.881261,0.160661 -0.15036,0.134586 0.01357,0.403417 0.02604,0.604828 0.04781,0.7726 0.112533,1.573524 0.207997,2.340343 0.05138,0.412724 0.120555,0.823038 0.180832,1.234557 0.06562,0.344453 0.12041,0.691145 0.19685,1.033359 0.05488,0.245697 0.123132,0.488436 0.196853,0.729153 0.03884,0.12681 0.05291,0.272637 0.140462,0.372253 0.125434,0.142717 0.309708,0.424302 0.470077,0.322402 0.734825,-0.466909 0.46586,-0.83803 0.274889,-1.306104 -0.270473,-0.653333 -1.194427,-0.270827 -0.923954,0.382506 v 0 c 0.304141,0.721274 -0.125656,-0.0083 0.730531,-0.07308 0.164549,-0.01244 0.21844,0.291555 0.381759,0.315184 0.09779,0.01415 -0.07958,-0.18133 -0.108842,-0.275698 -0.06697,-0.215975 -0.130005,-0.433545 -0.17952,-0.654178 -0.07366,-0.3282 -0.126478,-0.660731 -0.189716,-0.991096 -0.0585,-0.397289 -0.125712,-0.793392 -0.175498,-1.191866 -0.123508,-0.988472 -0.132422,-1.337961 -0.20473,-2.30109 -0.02061,-0.274562 0.129014,-0.627731 -0.06462,-0.823473 -0.87218,-0.8816698 -0.953949,-0.379893 -1.132511,0.06009 -0.664017,1.919487 -1.447017,3.829928 -2.713887,5.439548 -0.475726,0.523149 0.26412,1.195927 0.739844,0.672778 z" />
    <path
       style="fill:#0000ff;stroke-width:0.264583"
       id="path5892"
       d="m 70.019038,15.942599 c 0.941027,-0.0811 1.884042,-0.07218 2.827036,-0.07331 0.707104,-9.79e-4 0.705704,-1.000989 -0.0013,-0.999999 v 0 c -0.972624,0.0016 -1.945333,-0.007 -2.915849,0.07739 -0.704223,0.06379 -0.614008,1.059715 0.09022,0.995922 z" />
    <path
       style="fill:#0000ff;stroke-width:0.264583"
       id="path5894"
       d="m 86.720027,11.616361 c 0.274648,-0.28799 1.16032,-0.991533 1.520592,-0.461142 0.03938,0.05797 0.03555,0.135577 0.05333,0.203365 -0.07356,0.57215 -0.379759,1.037024 -0.798544,1.42236 -0.145635,0.134003 -0.315616,0.238862 -0.472541,0.359449 0.258646,0.24592 0.463013,0.56614 0.775936,0.73776 0.110395,0.06055 0.235879,-0.09279 0.359841,-0.114854 0.357876,-0.0637 0.658416,0.01011 0.781045,0.385475 0.03953,0.120993 0.03883,0.251592 0.05825,0.377388 -0.02674,0.151512 -0.02347,0.311535 -0.08021,0.454534 -0.302607,0.762375 -1.238641,0.836036 -1.930088,0.690601 -0.285527,-0.06006 -0.556918,-0.174279 -0.835379,-0.261418 -0.521751,-0.245632 -1.550191,-0.589884 -1.907612,-1.097506 -0.02074,-0.02946 0.04267,-0.07632 0.07863,-0.07415 0.05046,0.003 0.0831,0.05761 0.12464,0.08642 0.379188,-0.59684 -0.464873,-1.13309 -0.844058,-0.53625 v 0 c -0.08446,0.227147 -0.250584,0.439116 -0.253389,0.681442 -0.0055,0.477707 0.420857,0.807786 0.757624,1.035633 0.613236,0.414896 1.073264,0.569262 1.760514,0.863334 0.809236,0.228514 1.230339,0.441183 2.080239,0.329911 0.924496,-0.121039 1.722323,-0.692443 1.9641,-1.620366 0.06982,-0.267968 0.03052,-0.552989 0.04578,-0.829483 -0.09038,-0.254641 -0.12541,-0.536391 -0.27115,-0.763925 -0.437881,-0.683636 -1.100514,-0.819457 -1.838373,-0.672561 -0.153657,0.03059 -0.416512,-0.0063 -0.446278,0.14747 -0.06333,0.327277 0.152916,0.648923 0.229375,0.973385 0.155382,-0.119467 0.513874,-0.392649 0.603208,-0.47979 0.503523,-0.491168 0.972206,-1.152375 1.003332,-1.885377 0.01095,-0.258223 -0.07641,-0.511233 -0.114615,-0.76685 -0.150231,-0.18248 -0.260483,-0.407125 -0.450694,-0.547442 -0.178202,-0.131459 -0.400137,-0.206946 -0.618858,-0.241563 -0.85385,-0.1351403 -1.587143,0.431394 -2.134542,1.004021 -0.424352,0.565619 0.375555,1.165745 0.799907,0.600125 z" />
    <path
       style="fill:#0000ff;stroke-width:0.264583"
       id="path5898"
       d="m 92.429227,15.767025 c 0.856274,-0.962414 1.571496,-2.044272 2.168703,-3.184313 0.274886,-0.524746 0.508852,-1.066872 0.750273,-1.607039 0.0664,-0.151743 0.1328,-0.303486 0.199197,-0.45523 0.02376,-0.03591 0.114292,-0.106989 0.07125,-0.107726 -0.285136,-0.0049 -0.614362,-0.06578 -0.85031,0.09439 -0.131119,0.08901 0.0036,0.317004 0.01111,0.475306 0.03625,0.765868 0.07703,1.20205 0.138157,1.982396 0.08929,0.870759 0.150654,1.750819 0.365699,2.602695 0.03381,0.133952 0.175054,0.682446 0.398598,0.703146 0.269713,0.02497 0.521269,-0.147501 0.781904,-0.221251 0.08853,-0.56506 0.107942,-0.306204 -0.0079,-0.77871 -0.205859,-0.676478 -1.162542,-0.385351 -0.956686,0.291127 v 0 c 0.05904,0.09149 0.02212,0.07334 0.116144,-0.04174 0.224025,-0.01507 0.45031,-0.08035 0.672079,-0.04522 0.05818,0.0092 0.08209,0.220109 0.06912,0.162645 -0.02159,-0.09564 -0.07084,-0.18334 -0.09522,-0.278308 -0.207621,-0.808529 -0.25943,-1.645862 -0.346821,-2.472565 -0.113848,-1.450194 -0.05394,-0.604176 -0.136181,-1.950747 -0.01389,-0.227663 0.115935,-0.519181 -0.04285,-0.68292 -0.929868,-0.9588609 -1.039704,-0.2647073 -1.300369,0.314915 -0.222097,0.497638 -0.458822,1.045118 -0.709221,1.525361 -0.55943,1.072947 -1.229384,2.092153 -2.033633,2.997839 -0.477969,0.521099 0.258975,1.197052 0.736947,0.675953 z" />
    <path
       style="fill:#0000ff;stroke-width:0.264583"
       id="path5900"
       d="m 93.207438,14.638199 c 0.746329,-0.1224 1.492854,0.0416 2.238608,0.0288 0.706803,-0.02072 0.677495,-1.020294 -0.02931,-0.999571 v 0 c -0.270044,0.01385 -0.06927,0.0094 -0.518565,-0.02366 -0.614198,-0.04522 -1.229325,-0.07461 -1.842881,0.0061 -0.698875,0.107584 -0.546729,1.095942 0.152146,0.988358 z" />
    <path
       style="fill:#0000ff;stroke-width:0.264583"
       id="path5902"
       d="m 110.21044,10.219996 c -0.4729,1.015848 -0.95697,2.028431 -1.55011,2.981061 -0.11428,0.183545 -0.46775,0.692306 -0.61919,0.911671 -0.21534,0.390615 -0.39404,0.554044 0.4978,0.939565 0.18414,0.0796 0.3777,-0.135657 0.56358,-0.211122 0.21207,-0.0861 0.41712,-0.188957 0.62985,-0.273406 0.62334,-0.247459 0.75777,-0.272021 1.39296,-0.460098 0.44112,-0.129028 0.91448,-0.11936 1.34688,-0.283189 0.10103,-0.03828 0.19269,-0.09781 0.28903,-0.14672 0.61641,-0.346462 0.12644,-1.218201 -0.48997,-0.871739 v 0 c -0.34075,0.265172 -1.04406,0.164374 -1.43109,0.343164 -0.72788,0.217487 -1.43306,0.452751 -2.12467,0.769915 -0.0908,0.04164 -0.27624,0.03784 -0.2664,0.137237 0.0271,0.273772 0.20157,0.516514 0.35386,0.745629 0.0251,0.03769 0.0408,-0.08081 0.0612,-0.121215 0.17995,-0.260803 0.51506,-0.742443 0.65903,-0.974246 0.60917,-0.980848 1.10885,-2.021965 1.59517,-3.067362 0.29638,-0.6419957 -0.61154,-1.0611404 -0.90792,-0.419145 z" />
    <path
       style="fill:#0000ff;stroke-width:0.264583"
       id="path5904"
       d="m 111.10303,12.173814 c -0.38319,1.330666 -0.89631,2.65283 -1.03771,4.039434 0.40872,0.59266 0.35258,0.890886 1.05615,0.02601 0.0757,-0.093 0.0103,-0.239552 0.0154,-0.359328 0.007,-0.707075 -0.99328,-0.716527 -0.99996,-0.0095 v 0 c 0.004,0.04717 -0.0363,0.146511 0.0107,0.141501 0.90545,-0.09645 0.41952,-0.553326 0.91301,0.297761 0.0414,-0.459484 0.1476,-0.892389 0.2638,-1.339786 0.21959,-0.845495 0.46828,-1.683111 0.73793,-2.513934 0.19955,-0.678366 -0.7598,-0.960568 -0.95935,-0.282202 z" />
    <path
       style="fill:#0000ff;stroke-width:0.264583"
       id="path5906"
       d="m 114.86456,16.552242 c 0.84652,-0.640568 1.57744,-1.417474 2.17757,-2.293833 0.71563,-1.045019 1.24497,-2.205264 1.78841,-3.343984 -0.5885,-0.459752 0.71114,-0.73243 0.56321,-1.1247641 -0.0407,-0.1078717 -0.14193,0.2096516 -0.2546,0.2340881 -0.17045,0.03697 -0.40413,-0.1975089 -0.51904,-0.066293 -0.15307,0.174799 -0.0205,0.464255 -0.0327,0.696286 -0.0185,0.352047 -0.0396,0.703953 -0.0594,1.05593 -0.0478,1.165124 -0.0731,2.334783 0.0153,3.498916 0.0293,0.386231 0.0871,0.949404 0.21352,1.339662 0.0417,0.128641 0.11431,0.245096 0.17147,0.367644 0.44779,0.294605 0.49836,0.500051 1.05539,0.05986 0.25122,-0.19853 0.24461,-0.616814 0.27587,-0.884862 0.0486,-0.705436 -0.94905,-0.774146 -0.99764,-0.06871 v 0 c 0.003,0.05676 -0.004,0.115308 0.0102,0.170289 0.0447,0.169453 0.58802,-0.119545 0.5466,0.268257 -0.22812,-0.362965 -0.24534,-0.895245 -0.27656,-1.300469 -0.087,-1.129342 -0.0617,-2.264179 -0.0157,-3.39454 0.02,-0.357617 0.0438,-0.715046 0.0601,-1.072849 0.0129,-0.280889 0.11928,-0.577275 0.0276,-0.8430975 -0.27332,-0.7926126 -0.54195,-1.0744494 -1.08985,-0.5543952 -0.3215,0.3051632 -0.27338,0.9032067 -0.59649,1.1885247 -0.51191,1.073788 -1.00745,2.173058 -1.67628,3.161984 -0.53776,0.795135 -1.19367,1.501741 -1.95622,2.084092 -0.58143,0.402419 -0.0123,1.224683 0.5691,0.822263 z" />
    <path
       style="fill:#0000ff;stroke-width:0.264583"
       id="path5908"
       d="m 115.85664,14.922789 c 0.85915,-0.06813 1.71933,-0.121023 2.57967,-0.171185 0.21816,-0.01272 0.43694,-0.01706 0.6545,-0.03762 0.10888,-0.01029 0.26257,0.03602 0.32348,-0.05481 0.16385,-0.244335 0.1837,-0.558967 0.27554,-0.838451 -0.42854,-0.562451 -1.22397,0.0436 -0.79542,0.606051 v 0 c 0.1139,-0.250533 0.28891,-0.481501 0.34172,-0.7516 0.0132,-0.06762 -0.13409,0.03421 -0.20271,0.04046 -0.2181,0.01985 -0.43731,0.02495 -0.65594,0.03771 -0.84734,0.04943 -0.96328,0.05483 -1.81754,0.114881 -0.25408,0.01786 -0.50803,0.03753 -0.76204,0.0563 -0.70589,0.04154 -0.64714,1.039815 0.0587,0.998273 z" />
    <path
       style="fill:#0000ff;stroke-width:0.264583"
       id="path5910"
       d="m 45.477501,29.676908 c 0.149222,-0.576113 0.199343,-1.176537 0.341254,-1.753591 0.02394,-0.09733 0.202309,-0.305554 0.104933,-0.281795 -0.14082,0.03436 -0.180218,0.228761 -0.287423,0.326321 -0.07395,0.0673 -0.16749,0.109247 -0.251235,0.163871 0.520367,1.45796 0.960884,2.94277 1.483166,4.400064 0.182071,0.508024 0.423804,1.126609 0.623081,1.642359 0.362861,0.841809 0.114751,0.663345 1.219335,0.362784 0.195773,-0.679466 -0.765137,-0.956329 -0.960909,-0.276863 v 0 c 1.025204,-0.0759 0.944074,0.189455 0.674353,-0.446371 -0.191738,-0.496128 -0.436654,-1.123085 -0.610678,-1.608452 -0.537356,-1.498734 -0.982367,-3.028639 -1.534637,-4.522165 -0.230643,-0.238001 -0.373307,-0.622788 -0.691929,-0.714004 -0.706953,-0.202388 -0.793718,1.013658 -0.855561,1.338531 -0.08479,0.445431 -0.150706,0.763963 -0.240127,1.204808 -0.116321,0.697474 0.870056,0.861977 0.986377,0.164503 z" />
    <path
       style="fill:#0000ff;stroke-width:0.264583"
       id="path5912"
       d="m 48.365395,27.567804 c -1.175666,1.764263 -2.408769,3.492119 -3.53663,5.28806 -0.299973,0.47766 -0.584956,0.96457 -0.877434,1.446853 -0.22534,0.383878 -0.456463,0.764418 -0.676021,1.151633 -0.06871,0.121179 -0.528053,0.967007 -0.647006,1.231056 -0.03081,0.06838 -0.13499,0.170225 -0.07322,0.212767 0.954394,0.657284 0.82399,0.575866 1.186065,-0.0131 0.352993,-0.612695 -0.51349,-1.111903 -0.866483,-0.499205 v 0 c -0.242987,0.48232 -0.197127,0.218726 0.635226,0.809517 0.01698,0.01206 0.0034,-0.04239 0.0121,-0.0613 0.06408,-0.138716 0.134515,-0.27445 0.205508,-0.409758 0.13427,-0.255908 0.267701,-0.512384 0.410227,-0.763788 0.217188,-0.383107 0.44582,-0.759609 0.66873,-1.139413 0.28711,-0.473726 0.566807,-0.952026 0.861332,-1.42118 1.104104,-1.758736 2.316823,-3.446009 3.456715,-5.181191 0.460303,-0.536769 -0.298804,-1.187735 -0.759106,-0.650966 z" />
    <path
       style="fill:#0000ff;stroke-width:0.264583"
       id="path5914"
       d="m 47.780418,25.236097 c 0.04278,-0.07899 0.08556,-0.157979 0.128346,-0.236968 0.334217,-0.623137 -0.547032,-1.095791 -0.881248,-0.472654 v 0 c -0.03168,0.05985 -0.06337,0.119699 -0.09505,0.179549 -0.374819,0.599592 0.473133,1.129665 0.847952,0.530073 z" />
    <path
       style="fill:#0000ff;stroke-width:0.264583"
       id="path5916"
       d="m 66.683621,26.298076 c 0.02831,-0.05295 0.194519,-0.396109 0.277598,-0.443046 0.04699,-0.02655 -0.03641,0.104064 -0.0709,0.145581 -0.03592,0.04324 -0.14282,0.04609 -0.134522,0.101686 0.01918,0.128534 0.138009,0.220463 0.199657,0.334867 0.123515,0.22921 0.237048,0.46366 0.355573,0.69549 0.599197,1.362955 1.27553,2.683646 2.181397,3.870517 0.458899,0.601249 0.668692,0.803599 1.166083,1.339449 0.165917,0.16292 0.329427,0.328327 0.49775,0.488757 0.09693,0.09238 0.859906,0.838483 1.078849,0.676299 0.698481,-0.517406 0.529569,-0.615326 0.331536,-1.14095 -0.06562,-0.136559 -0.131252,-0.273116 -0.196877,-0.409673 -0.307792,-0.636603 -1.208084,-0.201321 -0.900295,0.435282 v 0 c 0.05677,0.116591 0.113536,0.23318 0.170302,0.349771 0.222443,0.484511 -0.02746,0.127278 0.638686,-0.233489 0.051,-0.02762 0.195342,0.121049 0.154707,0.07966 -0.05633,-0.05737 -0.141269,-0.07856 -0.203547,-0.129408 -0.130638,-0.106661 -0.251026,-0.225359 -0.373271,-0.341545 -0.157433,-0.149633 -0.310428,-0.303864 -0.465643,-0.455793 -0.60737,-0.651452 -1.184571,-1.311963 -1.673804,-2.060286 -0.495049,-0.757222 -0.664263,-1.134574 -1.061244,-1.957932 -0.155374,-0.322255 -0.304636,-0.64742 -0.456957,-0.97113 -0.166428,-0.316912 -0.537104,-1.135302 -0.871543,-1.390582 -0.804902,-0.614389 -1.236339,-0.05652 -1.557364,0.610376 -0.287157,0.646173 0.626671,1.052275 0.913829,0.406101 z" />
    <path
       style="fill:#0000ff;stroke-width:0.264583"
       id="path5918"
       d="m 70.008775,25.641062 c -0.209918,0.228573 -0.431798,0.446711 -0.629756,0.685717 -1.502278,1.813785 -2.745063,3.820808 -3.935077,5.846343 -0.16878,0.332113 -0.850167,1.256493 -0.003,1.519473 0.243599,0.07562 0.459983,-0.220572 0.689975,-0.330861 0.470357,-0.527981 -0.276321,-1.193165 -0.746678,-0.665184 v 0 c 0.699714,0.0829 0.08841,-0.09592 0.602355,0.662673 0.140407,0.207246 -0.04772,-1.860927 0.319609,-0.679582 1.286097,-2.189479 2.631477,-4.37081 4.33578,-6.264572 0.547307,-0.447725 -0.08587,-1.221731 -0.633177,-0.774007 z" />
    <path
       style="fill:#0000ff;stroke-width:0.264583"
       id="path5920"
       d="m 69.112671,23.462565 c 0.117575,-0.658501 0.423404,-2.070617 -0.792935,-1.826282 -0.154774,0.03109 -0.226743,0.219708 -0.340114,0.329562 -0.03601,0.14298 -0.110575,0.281519 -0.108017,0.428941 0.0093,0.537772 0.423363,0.823825 0.932543,0.759204 0.256392,-0.03254 0.410609,-0.209705 0.588737,-0.364837 0.319278,-0.450161 0.199782,-0.159259 -0.811109,-0.481908 -0.217292,0.672892 0.734322,0.98019 0.951614,0.307298 v 0 c -0.878414,-0.529926 -1.153853,-0.343616 -0.836745,-0.543198 -0.08203,0.139553 0.01714,0.0624 0.138269,0.180757 0.09254,0.09042 0.0777,0.23697 -0.03671,0.28813 -0.250457,0.06495 -0.237894,0.09263 -0.572944,-0.182578 -0.03945,-0.03241 -0.01529,-0.203632 -0.01048,-0.152807 0.03251,0.341651 -5.29e-4,0.679127 -0.07221,1.014959 -0.171657,0.685955 0.79843,0.928714 0.970086,0.242759 z" />
    <path
       style="fill:#0000ff;stroke-width:0.264583"
       id="path5922"
       d="m 74.668799,30.887868 c 0.283297,-0.272168 0.451405,-0.579002 0.533146,-0.95975 0.01294,-0.06022 0.01262,-0.122589 0.02215,-0.183437 0.0024,-0.01601 0.01619,-0.06263 0.01386,-0.04659 -0.0053,0.03636 -0.01516,0.0719 -0.02276,0.107844 0.311815,-0.477281 0.221539,-0.50086 -0.672949,-0.825261 -0.122997,-0.04461 -0.328649,0.468263 -0.331758,0.47899 -0.196474,0.679263 0.764148,0.95712 0.960623,0.277857 v 0 c 0.04721,-0.163499 -0.06698,0.154311 -0.120015,0.104008 -0.622359,-0.590331 -0.783178,-0.379531 -0.593614,-0.704045 0.0095,-0.0162 -0.01828,0.03276 -0.02743,0.04914 -0.05587,0.09716 -0.122131,0.189046 -0.167608,0.291485 -0.01844,0.04152 -0.03899,0.183751 -0.03956,0.246349 -2.01e-4,0.02226 0.01164,0.04515 0.0056,0.06657 -0.04368,0.153311 -0.110051,0.208572 -0.20996,0.337179 -0.537173,0.459833 0.113131,1.219508 0.650301,0.759675 z" />
    <path
       style="fill:#0000ff;stroke-width:0.264583"
       id="path5924"
       d="m 87.62219,26.815673 c 0.172866,-0.564437 0.321032,-1.136045 0.484217,-1.703201 0.0447,-0.155371 0.08138,-0.313805 0.141097,-0.464048 0.02669,-0.06716 0.179244,-0.218259 0.116109,-0.183092 -0.09866,0.05496 -0.154344,0.164918 -0.231518,0.247377 -0.06715,0.04357 -0.205785,0.05077 -0.201451,0.130698 0.01206,0.222412 0.166944,0.413133 0.242295,0.622738 0.121859,0.338975 0.232688,0.681814 0.349207,1.022661 0.41084,1.201796 0.837005,2.391745 1.301084,3.574009 0.274698,0.653802 0.568354,1.304013 0.923261,1.919178 0.08276,0.143446 0.283808,0.506836 0.497826,0.495559 0.238655,-0.01257 0.439008,-0.189018 0.658511,-0.28353 0.145119,-0.45919 0.102569,-0.239826 0.146696,-0.654111 0.06638,-0.703984 -0.929206,-0.797859 -0.995585,-0.09388 v 0 c -0.01344,0.182304 -0.06248,0.142895 0.02064,0.18763 0.175842,-0.02997 0.350186,-0.10915 0.527523,-0.08992 0.07457,0.0081 0.11393,0.227106 0.154244,0.163852 0.04298,-0.06743 -0.09028,-0.132187 -0.130304,-0.201413 -0.335174,-0.579743 -0.613119,-1.192374 -0.872017,-1.808917 -0.459073,-1.168361 -0.878927,-2.344771 -1.285766,-3.532307 -0.04845,-0.141424 -0.538594,-1.648343 -0.705319,-1.875889 -0.174283,-0.237859 -0.447878,-0.383682 -0.671819,-0.575524 -0.199871,0.08749 -0.429652,0.125666 -0.599615,0.262473 -0.154535,0.124388 -0.308213,0.728549 -0.349355,0.871484 -0.163391,0.567666 -0.311738,1.139797 -0.484651,1.704788 -0.186237,0.68214 0.778455,0.945519 0.964692,0.263379 z" />
    <path
       style="fill:#0000ff;stroke-width:0.264583"
       id="path5926"
       d="m 91.980198,23.632658 c -1.627389,1.871237 -2.81863,4.077567 -3.925864,6.283107 -0.138684,0.297852 -0.274571,0.597023 -0.416055,0.893557 -0.15934,0.333966 -0.322214,0.666331 -0.49199,0.995117 -0.02683,0.05197 -0.141388,0.130754 -0.08703,0.152358 0.970695,0.385799 0.857199,0.462944 1.059643,-0.0094 0.123243,-0.260075 0.211333,-0.530904 0.289806,-0.806831 0.188513,-0.681515 -0.775296,-0.948112 -0.963809,-0.266597 v 0 c -0.0631,0.237876 -0.145568,0.467335 -0.249936,0.690887 -0.223303,0.552494 -0.311142,0.480588 0.734743,0.884167 0.0717,0.02767 0.07752,-0.13281 0.112837,-0.20107 0.173731,-0.335748 0.339616,-0.675563 0.502383,-1.016763 0.137242,-0.287695 0.268835,-0.578051 0.403254,-0.867076 1.058204,-2.111173 2.195666,-4.222538 3.738975,-6.024231 0.500108,-0.499892 -0.206846,-1.207152 -0.706953,-0.707261 z" />
    <path
       style="fill:#0000ff;stroke-width:0.264583"
       id="path5928"
       d="m 90.474568,22.083517 c -0.07878,-0.451833 -0.223436,-1.207822 -0.913032,-1.045282 -0.402268,0.09482 -0.383911,0.411353 -0.42717,0.692137 0.150593,0.65451 0.574056,0.774849 1.08155,0.33541 0.111435,-0.09649 0.218657,-0.396924 0.228428,-0.540632 0.0072,-0.106413 -0.02072,-0.212309 -0.03108,-0.318463 -0.125402,-0.126886 -0.209849,-0.316221 -0.376201,-0.380657 -0.37629,-0.145756 -0.783817,0.205046 -0.939202,0.505319 -0.05248,0.101415 -0.139303,0.2126 -0.11245,0.323587 0.05448,0.225177 0.225147,0.404971 0.337719,0.607456 0.21666,-6.61e-4 0.433319,-0.0013 0.649978,-0.002 0.690581,-0.151977 0.475652,-1.128607 -0.214929,-0.97663 v 0 c 0.02748,0.04097 0.05496,0.08195 0.08244,0.122919 0.07348,0.293977 0.06619,0.68554 0.125196,0.411787 0.01212,-0.05627 -0.178126,0.02317 -0.295527,-0.06215 -0.107196,-0.0779 -0.154069,-0.215635 -0.231105,-0.323452 0.0073,-0.03005 0.0081,-0.06248 0.02193,-0.09015 0.0068,-0.01356 0.0146,0.03655 0.02961,0.03449 0.08784,-0.01206 0.173858,-0.08867 0.258551,-0.06245 0.394255,0.122097 0.356251,0.172923 0.384998,0.428392 -0.06752,0.131301 -0.116936,0.266642 -0.33246,0.265763 -0.155691,-6.35e-4 -0.295106,-0.103244 -0.432332,-0.176797 -0.01725,-0.0092 -0.01564,-0.07563 -0.0064,-0.05837 0.07556,0.141266 0.08537,0.261827 0.117615,0.420322 0.07819,0.70277 1.072055,0.592197 0.993868,-0.110574 z" />
    <path
       style="fill:#0000ff;stroke-width:0.264583"
       id="path5932"
       d="m 94.031798,28.306134 c 0.01386,0.324288 0.128561,0.618858 0.252206,0.91341 0.285904,0.64673 1.200518,0.242402 0.914614,-0.404327 v 0 c -0.112387,-0.231665 -0.177747,-0.465269 -0.190674,-0.726193 -0.153519,-0.690241 -1.129665,-0.47313 -0.976146,0.21711 z" />
    <path
       style="fill:#0000ff;stroke-width:0.264583"
       id="path5938"
       d="m 89.93822,35.415385 c 0.302956,0.08389 1.210834,0.328049 1.297263,-0.248486 0.09673,-0.645226 -0.242009,-0.636932 -0.60253,-0.732192 -0.341495,0.01931 -0.652555,0.169158 -0.754089,0.52661 -0.0308,0.108424 -0.04718,0.230106 -0.01408,0.337844 0.04228,0.137562 0.113585,0.280893 0.230166,0.365268 0.119965,0.08683 0.286544,0.07493 0.429813,0.112393 0.455695,-0.396881 0.728051,-0.539343 0.141547,-1.026589 -0.55861,-0.433538 -1.171726,0.356452 -0.613116,0.789993 v 0 c 0.34291,0.151283 -0.70276,-1.190458 0.359949,-0.757156 0.111281,0.04106 0.244253,0.04544 0.333841,0.123172 0.216061,0.187465 0.07716,0.604819 -0.212889,0.523568 -0.206764,-0.132167 -0.360775,-0.19616 -0.231902,-0.62208 0.04516,-0.149255 0.247962,-0.189614 0.378418,-0.27504 0.0064,-0.0042 0.02289,0.01749 0.01521,0.01728 -0.160427,-0.0045 -0.283527,-0.04503 -0.441264,-0.08323 -0.670793,-0.223694 -0.987142,0.724948 -0.316352,0.948643 z" />
    <path
       style="fill:#0000ff;stroke-width:0.264583"
       id="path5940"
       d="m 112.79329,24.101739 c 0.19513,-0.62036 0.29957,-1.268752 0.51046,-1.884432 0.0469,-0.136991 0.0885,-0.280891 0.1731,-0.39844 0.023,-0.03191 0.0559,0.08248 0.0319,0.113537 -0.0686,0.08839 -0.18153,0.130851 -0.27229,0.196276 0.0732,0.174609 0.1549,0.345867 0.21948,0.523828 0.20054,0.552609 0.51236,1.590906 0.66997,2.113657 0.345,1.144261 0.68708,2.28793 1.05172,3.426152 0.0779,0.258423 0.15435,0.517271 0.23361,0.77527 0.0464,0.150857 0.51776,2.281808 1.30173,0.958194 0.35997,-0.60862 -0.50075,-1.117702 -0.86072,-0.509082 v 0 c -0.16182,0.274085 -0.0414,0.04515 0.80532,0.09685 0.006,3.97e-4 -0.0136,-0.0048 -0.016,-0.01075 -0.0373,-0.09256 -0.0704,-0.18681 -0.10173,-0.281531 -0.0596,-0.179938 -0.11549,-0.361097 -0.17116,-0.542291 -0.081,-0.263507 -0.15917,-0.527855 -0.23875,-0.791782 -0.36341,-1.134053 -0.70386,-2.27367 -1.04782,-3.413703 -0.1101,-0.364924 -0.55763,-1.861021 -0.72846,-2.261542 -0.12145,-0.284745 -0.29277,-0.545527 -0.43916,-0.818291 -0.28812,-0.116634 -0.55363,-0.357908 -0.86436,-0.349901 -0.41545,0.01071 -0.61523,0.628476 -0.70854,0.901185 -0.20826,0.608628 -0.31322,1.248973 -0.50406,1.86273 -0.20794,0.675842 0.74784,0.969908 0.95578,0.294065 z" />
    <path
       style="fill:#0000ff;stroke-width:0.264583"
       id="path5942"
       d="m 116.64845,22.866813 c -1.85837,1.317853 -3.36125,3.083344 -4.67923,4.926685 -0.27692,0.387299 -0.53249,0.789423 -0.79873,1.184134 -0.18506,0.307675 -0.38275,0.608102 -0.55519,0.923023 -0.31474,0.574814 -0.90943,1.674331 0.20999,1.872362 0.15082,0.02668 0.27792,-0.128815 0.41688,-0.193224 0.29352,-0.266711 0.51257,-0.596874 0.72954,-0.925212 0.38875,-0.590659 -0.44657,-1.140427 -0.83531,-0.549768 v 0 c -0.1518,0.231749 -0.30734,0.459922 -0.48812,0.67044 0.30311,-0.0039 0.2362,-0.04063 0.5396,0.376493 0.0209,0.02874 -0.0365,0.13687 -0.0325,0.101554 0.0719,-0.637015 0.56641,-1.176343 0.84437,-1.716839 0.25642,-0.380897 0.50261,-0.768877 0.76925,-1.142692 1.23899,-1.737044 2.64772,-3.403155 4.38301,-4.663004 0.6109,-0.35608 0.10733,-1.220033 -0.50358,-0.863952 z" />
    <path
       style="fill:#0000ff;stroke-width:0.264583"
       id="path5944"
       d="m 108.54315,26.679075 c 0.0364,-0.273199 0.18616,-1.170189 -0.24203,-1.291084 -0.68237,-0.192661 -0.66954,0.107701 -0.80866,0.497402 -0.031,0.498997 0.12927,1.242253 0.85105,1.09653 0.16667,-0.03365 0.24646,-0.234303 0.3697,-0.351455 0.0912,-0.263282 0.10492,-0.532448 -0.0245,-0.786495 -0.0294,-0.0577 -0.0683,-0.204186 -0.11343,-0.157731 -0.81481,0.838872 -0.78499,0.750096 -0.25922,0.915129 0.0221,0.0061 0.086,0.03004 0.0663,0.01821 -0.44432,-0.267744 -0.27035,0.186063 0.10133,-0.966692 -0.70485,-0.05646 -0.78469,0.940349 -0.0798,0.996807 v 0 c 0.38426,-0.719026 0.77037,-0.861001 0.0984,-1.030838 0.32739,0.235663 0.22006,0.125729 -0.63623,0.772331 -0.042,0.03168 -0.15562,-0.22508 -0.0433,-0.215681 0.091,-0.05414 0.16733,-0.167645 0.27312,-0.162425 0.1595,0.0079 0.29692,0.119876 0.43651,0.197435 0.0147,0.0082 0.0216,0.06036 0.008,0.04979 -0.062,-0.04996 -0.0568,-0.177785 -0.057,-0.243609 -0.17023,0.252545 -0.20633,0.391191 -0.72174,0.213556 -0.11991,-0.04133 -0.10945,-0.229823 -0.17996,-0.335252 -0.0161,-0.02413 0.0119,0.05706 0.0133,0.08605 0.011,0.23227 -0.003,0.250955 -0.0328,0.501678 -0.13883,0.693344 0.8417,0.889681 0.98054,0.196337 z" />
    <path
       style="fill:#0000ff;stroke-width:0.264583"
       id="path5946"
       d="m 114.10677,20.207995 c 0.13599,0.07165 0.26229,0.165883 0.40796,0.214947 0.48652,0.163866 1.19335,0.108416 1.35587,-0.515177 0.13363,-0.512749 -0.14832,-0.737975 -0.4087,-1.08084 -0.13165,-0.09628 -0.25284,-0.208797 -0.39494,-0.28885 -0.4737,-0.266858 -1.2114,-0.364147 -1.42117,0.301327 -0.0413,0.130881 0.0155,0.274022 0.0232,0.411032 0.15515,0.540268 0.54223,1.009394 1.17356,0.837687 0.11908,-0.03239 0.21307,-0.124575 0.31961,-0.186863 0.35888,-0.433392 0.50778,-0.675651 -0.14179,-1.105364 -0.0419,-0.0277 -0.4066,0.04178 -0.49072,0.05641 -0.69663,0.121268 -0.52513,1.106452 0.1715,0.985185 v 0 c 0.0661,-0.01151 0.1358,-0.01 0.19821,-0.03453 0.018,-0.0071 -0.0414,-0.0073 -0.0535,-0.02241 -0.13184,-0.163961 -0.27704,-0.321811 -0.37362,-0.508734 -0.0546,-0.105717 0.0295,-0.159959 0.0961,-0.1752 0.0767,0.03658 0.19961,0.05144 0.21682,0.155631 0.0169,0.10235 -0.22783,-0.307635 -0.14471,-0.238814 -0.0622,0.192272 -0.18168,0.357678 -0.40907,0.312519 -0.0278,-0.0055 0.056,-0.01684 0.0841,-0.01284 0.18478,0.02634 0.22691,0.07381 0.3909,0.169006 0.34872,0.266069 0.0925,-0.06825 0.44045,-0.03256 0.0237,0.0024 -0.003,0.0587 -0.025,0.06683 -0.0544,0.01979 -0.11666,0.01599 -0.17358,0.0054 -0.0669,-0.01244 -0.12716,-0.04873 -0.19075,-0.0731 -0.53689,-0.460154 -1.18765,0.299132 -0.65076,0.759286 z" />
    <path
       style="fill:#0000ff;stroke-width:0.264583"
       id="path5948"
       d="m 119.47877,25.880566 c -0.32375,0.310765 -0.6399,0.630085 -0.8287,1.04222 -0.019,0.04155 -0.0813,0.159832 -0.0481,0.128392 0.0654,-0.06199 0.1,-0.149952 0.14997,-0.224928 -0.62309,0.334302 -0.15032,1.215485 0.47277,0.881182 v 0 c 0.10569,-0.104861 0.21745,-0.203945 0.31708,-0.314583 0.0244,-0.02706 0.0186,-0.09475 0.036,-0.123572 0.15822,-0.261778 0.39974,-0.462624 0.6079,-0.681406 0.50014,-0.499861 -0.20677,-1.207165 -0.70691,-0.707305 z" />
    <path
       style="fill:#0000ff;stroke-width:0.264583"
       id="path5950"
       d="m 114.05657,33.279705 c -0.34006,0.04603 -0.65965,0.166225 -0.98144,0.277601 -0.0159,0.0055 0.0321,-0.02318 0.0476,-0.01667 0.17219,0.07225 0.33503,0.165024 0.50254,0.247537 7.9e-4,0.14406 0.0115,0.28843 0.002,0.432183 -0.002,0.02625 -0.045,0.04636 -0.035,0.07074 0.0154,0.03798 0.062,-0.04252 0.18816,-0.04396 0.0191,-2.19e-4 0.006,0.04165 -0.005,0.0571 -0.29695,-0.134411 -0.0226,0.01476 -0.20871,-0.146262 -0.0457,-0.03952 -0.0742,0.09297 -0.0264,-0.09115 0.0278,-0.107045 0.062,-0.04278 0.008,-0.110054 0.12145,-0.141364 0.25375,0.189132 0.26403,0.266415 0.005,0.0357 -0.0225,0.07297 -0.0118,0.10737 0.005,0.01461 0.0314,-0.0026 0.0458,0.0024 0.0112,0.0039 0.0182,0.01519 0.0272,0.02278 -0.11869,0.145293 -0.013,0.03401 -0.37413,-0.268438 0.22616,0.669964 1.17363,0.350131 0.94748,-0.319834 v 0 c -0.45405,-0.437078 -0.20263,-0.338042 -0.70324,-0.403257 -0.25134,0.05259 -0.42784,0.05322 -0.62818,0.237829 -0.39348,0.362582 -0.42463,0.829702 -0.0176,1.21022 0.0856,0.08004 0.21601,0.09099 0.32402,0.136485 0.3351,0.01492 0.49041,0.07408 0.79544,-0.145692 0.31883,-0.229717 0.45492,-0.725295 0.27274,-1.080919 -0.0678,-0.132294 -0.20093,-0.219098 -0.30139,-0.328649 -0.10744,-0.03739 -0.20994,-0.09447 -0.32232,-0.112176 -0.28138,-0.04433 -0.6255,0.03898 -0.86152,0.201015 -0.0846,0.05807 -0.18891,0.113538 -0.22565,0.209333 -0.0631,0.164626 -0.0376,0.350631 -0.0563,0.525947 0.17806,0.104693 0.34344,0.234786 0.53417,0.314076 0.0343,0.01423 0.21652,-0.05334 0.25742,-0.06841 0.24727,-0.09114 0.49703,-0.17194 0.7599,-0.207397 0.69024,-0.153521 0.47313,-1.129667 -0.21711,-0.976148 z" />
    <path
       style="fill:#0000ff;stroke-width:0.264583"
       id="path5952"
       d="m 43.949966,46.591279 c -0.189551,0.469815 -0.304234,0.735777 -0.46926,1.226587 -0.15846,0.471281 -0.433548,1.208664 0.0042,1.647515 0.164437,0.16487 0.411953,0.217215 0.617929,0.325824 0.323344,0.06933 0.711456,0.126098 1.007764,0.291642 0.482653,0.269653 0.850982,0.790433 0.901876,1.346862 0.01683,0.183994 -0.03899,0.367461 -0.05849,0.551193 -0.100517,0.156366 -0.165735,0.34218 -0.30155,0.469096 -0.371526,0.347181 -0.854159,0.433445 -1.342963,0.453996 -0.542787,0.02283 -1.319249,-0.07798 -1.836717,-0.260655 -0.182437,-0.0644 -0.336588,-0.190873 -0.504883,-0.28631 0.332543,-0.245584 0.139404,-0.08643 0.550688,-0.510324 0.370413,-0.602323 -0.481402,-1.126164 -0.851815,-0.52384 v 0 c -0.635172,1.303949 -0.624067,0.662112 -0.165364,1.918689 0.251618,0.126021 0.48791,0.288994 0.754855,0.378064 0.34197,0.114104 0.699378,0.185237 1.057495,0.22665 1.142116,0.132072 2.435808,0.04124 3.223152,-0.929633 0.206492,-0.254624 0.277404,-0.594082 0.416106,-0.891124 0.0023,-0.305173 0.05951,-0.614889 0.007,-0.915517 -0.151072,-0.864851 -0.748928,-1.569405 -1.510083,-1.967822 -0.350986,-0.183722 -0.668771,-0.2276 -1.040641,-0.302861 -0.08509,0.123566 -0.125422,0.193863 -0.14439,0.140134 -0.0831,-0.235413 0.102908,-0.662435 0.155466,-0.819269 0.152228,-0.454255 0.263711,-0.716092 0.437592,-1.149752 0.29638,-0.641996 -0.611539,-1.061141 -0.907919,-0.419145 z" />
    <path
       style="fill:#0000ff;stroke-width:0.264583"
       id="path5954"
       d="m 44.268217,49.159555 c 1.185215,-0.347737 2.422707,-0.328319 3.644417,-0.364937 0.706789,-0.02119 0.676822,-1.020742 -0.02997,-0.999551 v 0 c -1.304527,0.03912 -2.624493,0.02892 -3.889065,0.402934 -0.679921,0.19418 -0.405307,1.155734 0.274615,0.961554 z" />
    <path
       style="fill:#0000ff;stroke-width:0.264583"
       id="path5956"
       d="m 48.022951,54.938708 c 0.855476,-1.388843 1.677028,-2.802757 2.372465,-4.279781 0.421452,-0.895114 0.483781,-1.103577 0.808602,-1.962097 0.05887,-0.176823 0.116508,-0.354062 0.176608,-0.530471 0.110849,-0.325366 0.428628,-0.90134 -0.878082,-0.08032 -0.134026,0.08421 0.01957,0.316733 0.04822,0.472403 0.138726,0.753671 0.228458,0.928175 0.478408,1.67068 0.30977,0.801362 0.773569,1.52677 1.327051,2.180741 0.105744,0.124944 0.471537,0.519305 0.658633,0.635656 0.09247,0.0575 0.200266,0.08557 0.300399,0.128349 0.796522,-0.5017 0.80019,-0.406302 0.424797,-1.167654 -0.318572,-0.631277 -1.211334,-0.18075 -0.892761,0.45053 v 0 c 0.03068,0.0587 0.02956,0.154115 0.09204,0.17611 0.04263,0.015 0.02831,-0.08584 0.04247,-0.128763 0.201684,-0.09754 0.403369,-0.195087 0.605054,-0.292634 0.02088,0.02043 0.08654,0.07802 0.06263,0.06125 C 53.463755,52.14242 53.289454,51.964196 53.145772,51.796175 52.901268,51.510256 52.507788,50.97579 52.3305,50.658647 52.195459,50.417077 52.094264,50.15809 51.976147,49.90781 51.7802,49.33536 51.652671,49.038902 51.54554,48.456343 c -0.03058,-0.166307 0.08214,-0.401728 -0.05206,-0.504606 -1.062447,-0.814493 -1.001249,-0.25451 -1.225015,0.391901 -0.306951,0.814948 -0.366945,1.015974 -0.767646,1.868411 -0.676809,1.43982 -1.477801,2.817373 -2.309821,4.17181 -0.392339,0.588277 0.439611,1.143127 0.83195,0.554849 z" />
    <path
       style="fill:#0000ff;stroke-width:0.264583"
       id="path5958"
       d="m 48.420729,53.1275 c 0.16978,0.0114 0.339266,0.02875 0.509341,0.0342 0.433057,0.01386 1.135245,0.0033 1.561641,-0.0032 0.676053,-0.01032 1.266035,-0.02598 1.932885,-0.12891 0.12644,-0.06941 0.25288,-0.138814 0.37932,-0.20822 0.57253,-0.414983 -0.01434,-1.22466 -0.586873,-0.80968 v 0 c 0.01672,0.01013 0.03344,0.02024 0.05015,0.03037 -0.595811,0.09871 -1.183409,0.107204 -1.787246,0.116512 -0.365345,0.0056 -1.102597,0.01662 -1.483863,0.0053 -0.15522,-0.0046 -0.30992,-0.02016 -0.46488,-0.03026 -0.702779,-0.07812 -0.813257,0.915757 -0.110479,0.993878 z" />
    <path
       style="fill:#0000ff;stroke-width:0.264583"
       id="path5960"
       d="m 67.818601,45.335937 c -0.151558,0.182769 -0.318661,0.353689 -0.454673,0.548304 -0.884671,1.265846 -1.447943,2.78539 -1.772258,4.286289 -0.07883,0.364811 -0.119401,0.736846 -0.179105,1.105268 -0.01416,0.762445 -0.100422,1.749325 0.729369,2.17361 0.463955,0.237226 1.029251,0.129731 1.483122,-0.03631 0.224637,-0.08218 0.425437,-0.218768 0.638154,-0.328152 0.171476,-0.13167 0.359913,-0.243792 0.514429,-0.395004 0.498211,-0.487548 0.730629,-1.081421 0.585322,-1.778061 -0.117464,-0.563147 -0.326826,-0.747099 -0.655862,-1.196496 -0.163473,-0.146421 -0.309579,-0.314923 -0.490416,-0.439256 -0.683683,-0.470064 -1.798,-0.6496 -2.290038,0.20801 -0.08993,0.156752 -0.07681,0.353179 -0.115218,0.529767 -0.04354,0.705766 0.954561,0.767342 0.998104,0.06158 v 0 c -0.215569,0.02315 -0.147294,-0.145841 0.07266,-0.195304 0.416801,-0.09373 0.749279,0.185039 1.031997,0.444547 0.225888,0.272738 0.516255,0.59317 0.525364,0.977122 0.0098,0.414571 -0.359727,0.682617 -0.649605,0.902169 -0.550735,0.314809 -0.269454,0.190058 -0.823669,0.37869 -0.07178,0.02442 -0.139972,0.06433 -0.215222,0.07362 -0.06297,0.0078 -0.151461,0.02753 -0.188841,-0.02373 -0.222576,-0.305229 -0.15666,-0.897922 -0.162182,-1.198999 0.05289,-0.336151 0.08802,-0.675582 0.158673,-1.008451 0.290073,-1.366576 0.79448,-2.74478 1.579904,-3.908563 0.105206,-0.155893 0.234992,-0.293703 0.352488,-0.440555 0.523328,-0.47553 -0.149177,-1.215626 -0.672502,-0.740095 z" />
    <path
       style="fill:#0000ff;stroke-width:0.264583"
       id="path5962"
       d="m 70.256996,53.594432 c 0.88469,-0.825286 1.650421,-1.77337 2.229906,-2.839538 0.502324,-0.9242 0.860785,-1.895901 1.168122,-2.898259 0.122812,-0.40055 0.212101,-0.810619 0.318148,-1.215929 -1.549045,0.877562 0.585124,-1.03863 0.238607,-1.014405 -0.308973,0.02159 -0.687248,0.04202 -0.886169,0.279421 -0.142965,0.170627 0.06205,0.44091 0.09863,0.660488 0.136919,0.821875 0.244416,1.342522 0.406355,2.176295 0.196479,1.084609 0.437528,2.160352 0.670099,3.237588 0.05706,0.264308 0.189754,0.707268 0.18946,1.011462 0.976741,-0.371885 1.044877,-0.05649 0.787019,-0.563592 -0.320508,-0.630298 -1.211881,-0.177032 -0.891376,0.453266 v 0 c 0.263443,0.518073 0.03062,0.232841 1.103019,0.05858 -0.02769,-0.39854 -0.125907,-0.778243 -0.210153,-1.168461 -0.231272,-1.07124 -0.471186,-2.14095 -0.666422,-3.219553 -0.168558,-0.867381 -0.256802,-1.289508 -0.399455,-2.1365 -0.04214,-0.25018 0.06799,-0.578459 -0.11702,-0.752057 -0.887677,-0.832924 -1.010091,-0.541441 -1.133654,-0.02069 -0.05867,0.247261 -0.104437,0.497408 -0.156655,0.746114 -0.09881,0.381265 -0.182092,0.766897 -0.296431,1.143796 -0.276707,0.912109 -0.614006,1.843098 -1.065755,2.685511 -0.521481,0.972441 -1.213289,1.837824 -2.010794,2.595448 -0.552257,0.441603 0.07227,1.222611 0.62452,0.781008 z" />
    <path
       style="fill:#0000ff;stroke-width:0.264583"
       id="path5964"
       d="m 70.977107,52.314552 c 0.736616,-0.03461 1.474063,-0.07756 2.211684,-0.08376 0.554879,-0.0047 1.101519,0.04235 1.655257,0.01035 0.106625,-0.03614 0.213249,-0.07227 0.319874,-0.10841 0.646101,-0.287322 0.239768,-1.201047 -0.406332,-0.913728 v 0 c 0.0072,0.0081 0.01437,0.01617 0.02156,0.02424 -0.543981,0.04074 -0.08397,0.01783 -0.872141,-0.0024 -1.00108,-0.0258 -2.001694,0.0245 -3.001195,0.07634 -0.705308,0.05041 -0.634021,1.047863 0.07129,0.997455 z" />
    <path
       style="fill:#0000ff;stroke-width:0.264583"
       id="path5966"
       d="m 90.18777,46.901511 c 0.05828,-0.729695 0.08989,-1.517097 0.414774,-2.189435 0.155281,-0.321347 0.109426,-0.287534 0.327628,-0.270595 0.281512,0.174662 0.606425,0.264954 0.897208,0.423844 0.01794,0.0098 -0.04738,-0.0011 -0.05855,-0.01831 -0.06568,-0.100761 -0.10878,-0.214559 -0.163171,-0.321837 -0.02908,0.10354 -0.06352,0.205719 -0.08724,0.310619 -0.410895,1.817658 -0.624374,3.740197 -0.859514,5.588949 -0.04044,0.258141 -0.07073,0.518078 -0.12133,0.77442 -0.02339,0.118422 -0.069,0.231378 -0.100246,0.347975 -0.0122,0.04552 -0.003,-0.124802 0.04309,-0.134663 0.759862,-0.162594 0.798224,0.242602 0.664871,-0.239958 -0.206936,-0.676151 -1.163156,-0.383501 -0.95622,0.29265 v 0 c 0.166018,0.51289 0.108588,0.658897 0.997874,0.654995 0.1242,-5.3e-4 0.16365,-0.19153 0.213841,-0.305139 0.127815,-0.289309 0.215281,-1.040911 0.250135,-1.264134 0.146388,-1.151478 0.158284,-1.28038 0.331279,-2.482361 0.142513,-0.990168 0.279625,-1.989987 0.500266,-2.966982 0.02947,-0.130503 0.07011,-0.258228 0.105167,-0.387342 -0.03804,-0.192235 -0.03524,-0.397317 -0.114107,-0.576704 -0.05037,-0.114551 -0.328996,-0.230711 -0.432895,-0.278003 -0.540737,-0.246126 -0.94415,-0.425844 -1.563828,-0.309343 -0.172103,0.112885 -0.371972,0.191926 -0.51631,0.338653 -0.253654,0.25785 -0.442257,0.829173 -0.525519,1.149382 -0.173452,0.667068 -0.246462,1.37224 -0.227742,2.059654 0.138832,0.693346 1.119367,0.497007 0.980535,-0.196336 z" />
    <path
       style="fill:#0000ff;stroke-width:0.264583"
       id="path5968"
       d="m 89.997127,50.114844 c 0.594754,-0.09512 1.184333,-0.217155 1.773449,-0.341575 0.69182,-0.146246 0.484997,-1.124625 -0.206822,-0.978379 v 0 c -0.575006,0.121669 -1.150519,0.240731 -1.731076,0.333568 -0.697481,0.116285 -0.53303,1.10267 0.164449,0.986386 z" />
    <path
       style="fill:#0000ff;stroke-width:0.264583"
       id="path5970"
       d="m 94.683522,52.273746 c 1.977242,-1.830221 3.120176,-4.304702 4.09447,-6.768762 0.07295,-0.189899 0.331134,-0.400073 0.218837,-0.569698 -0.09204,-0.139022 -0.230011,0.255503 -0.383064,0.321633 -0.157782,0.06817 -0.431684,-0.08732 -0.511535,0.06489 -0.160719,0.306329 -0.04876,0.690195 -0.0659,1.035701 -0.07687,1.549821 -0.05536,1.298313 -0.04287,2.893817 0.06538,1.058939 0.109339,2.137743 0.404373,3.164919 0.0416,0.144822 0.09952,0.284906 0.162171,0.421942 0.03388,0.07412 0.0474,0.229272 0.12641,0.209285 0.32317,-0.08175 0.590174,-0.310134 0.885262,-0.465201 -0.04933,-0.109919 -0.09866,-0.219837 -0.147993,-0.329758 -0.310985,-0.635048 -1.209079,-0.195247 -0.898093,0.439801 v 0 c 0.0245,0.04085 0.04901,0.08171 0.07351,0.122563 0.306517,-0.10727 0.616979,-0.203878 0.919554,-0.321813 0.01206,-0.0047 -0.02405,-0.01336 -0.02968,-0.02503 -0.044,-0.09117 -0.08901,-0.182906 -0.117539,-0.280037 -0.280326,-0.95436 -0.312592,-1.960385 -0.37801,-2.944863 -0.01331,-1.55235 -0.03421,-1.306028 0.04091,-2.822406 0.03224,-0.650859 0.277503,-1.651031 -0.410083,-2.163751 -0.446262,-0.33277 -0.752475,0.818507 -0.776383,0.880763 -0.904589,2.294467 -1.953159,4.603978 -3.764264,6.335945 -0.565729,0.424207 0.03419,1.224267 0.599916,0.800063 z" />
    <path
       style="fill:#0000ff;stroke-width:0.264583"
       id="path5972"
       d="m 94.817274,51.528785 c 0.94542,-0.283628 1.903048,-0.523095 2.869145,-0.724842 0.565779,-0.118152 1.146791,-0.181615 1.6989,-0.35405 0.671281,-0.222215 0.357023,-1.171551 -0.314259,-0.949338 v 0 c -0.349808,0.128278 -0.06438,0.0339 -0.73638,0.159502 -0.288663,0.05395 -0.577461,0.107457 -0.864894,0.167632 -0.999707,0.209285 -1.990765,0.457366 -2.968739,0.752414 -0.670822,0.223604 -0.354592,1.172289 0.316227,0.948682 z" />
    <path
       style="fill:#0000ff;stroke-width:0.264583"
       id="path5974"
       d="m 112.07079,44.854361 c -0.12475,0.171733 -0.27637,0.32685 -0.37425,0.515194 -0.42756,0.822737 -0.30285,1.659937 0.12405,2.459328 0.35156,0.658307 0.81918,1.090367 1.31991,1.630484 0.88872,0.917253 1.5847,1.864596 1.32693,3.211312 -0.0501,0.261562 -0.13145,0.520859 -0.25299,0.757817 -0.10701,0.208634 -0.28247,0.374335 -0.4237,0.561501 -0.16612,0.0981 -0.31083,0.248997 -0.49836,0.294296 -0.36277,0.08763 -0.73783,-0.159991 -0.9712,-0.392237 -0.40617,-0.404209 -0.65472,-0.882986 -0.80118,-1.43628 -0.0758,-0.286255 -0.0795,-0.586875 -0.1192,-0.880311 0.035,-0.276108 0.0332,-0.559403 0.10488,-0.828323 0.30673,-1.15053 1.36766,-1.851639 2.24164,-2.55021 0.13307,-0.140052 0.28634,-0.263366 0.39921,-0.420156 0.38704,-0.537649 0.44317,-1.134112 0.1987,-1.746774 -0.0714,-0.179035 -0.15834,-0.359891 -0.29101,-0.499729 -0.16376,-0.172601 -0.38605,-0.278214 -0.57907,-0.417322 -0.60269,-0.369826 -1.1257,0.482497 -0.52302,0.852324 v 0 c 0.3066,0.113027 0.25712,0.04004 0.43654,0.356253 0.26884,0.473816 0.10023,0.737455 -0.26574,1.09429 -0.5727,0.457827 -1.20105,0.899089 -1.67687,1.462911 -0.45213,0.535757 -0.77668,1.06889 -0.93476,1.762588 -0.0808,0.354481 -0.0659,0.724143 -0.0989,1.086212 0.16009,0.95119 0.13032,1.358749 0.67593,2.199577 0.59931,0.923586 1.63025,1.611902 2.76135,1.187476 0.29266,-0.109815 0.50633,-0.366694 0.7595,-0.55004 0.18688,-0.280254 0.41975,-0.534794 0.56064,-0.840761 0.14838,-0.322244 0.24665,-0.670827 0.29709,-1.021987 0.23721,-1.651267 -0.50805,-2.788841 -1.59565,-3.92503 -0.54837,-0.582108 -1.13565,-1.129964 -1.38565,-1.915118 -0.0512,-0.160811 -0.0931,-0.330457 -0.0854,-0.499047 0.0128,-0.279545 0.1567,-0.489256 0.28461,-0.718978 0.55809,-0.434205 -0.056,-1.223465 -0.61406,-0.78926 z" />
    <path
       style="fill:#0000ff;stroke-width:0.264583"
       id="path5976"
       d="m 115.97811,54.067621 c 1.62249,-1.672654 2.65537,-3.776848 3.3659,-5.975591 0.1198,-0.370732 0.21172,-0.749903 0.31758,-1.124852 0.0634,-0.230257 0.12685,-0.46051 0.19027,-0.690764 0.0185,-0.02741 0.0881,-0.08675 0.0554,-0.08221 -0.29942,0.04146 -0.68252,-0.02721 -0.88515,0.197101 -0.17081,0.18909 0.004,0.509744 0.0167,0.764265 0.0547,1.139193 0.0961,1.374318 0.21673,2.549758 0.15217,1.046758 0.18654,1.513266 0.45606,2.517283 0.1234,0.459692 0.32184,1.086025 0.60671,1.500598 0.0815,0.118663 0.16263,0.312062 0.30641,0.304432 0.30412,-0.01614 0.55835,-0.243435 0.83752,-0.365152 -0.0455,-0.210915 -0.091,-0.42183 -0.13643,-0.632745 -0.25732,-0.658622 -1.18876,-0.294707 -0.93143,0.363915 v 0 c 0.0358,-0.003 0.0715,-0.006 0.10725,-0.0091 0.25572,-0.04064 0.51284,-0.07328 0.76716,-0.121915 0.0229,-0.0044 -0.0556,0.0075 -0.069,-0.01161 -0.0937,-0.13445 -0.1762,-0.27827 -0.23849,-0.429815 -0.42016,-1.022086 -0.56344,-2.133145 -0.71106,-3.218305 -0.12191,-1.18143 -0.15438,-1.33446 -0.21182,-2.474028 -0.0149,-0.294749 0.14655,-0.646446 -0.0273,-0.884947 -1.02602,-1.407795 -1.13685,-0.153098 -1.31228,0.452443 -0.099,0.353547 -0.18496,0.711044 -0.29715,1.060646 -0.6534,2.036087 -1.59372,3.990747 -3.07847,5.554752 -0.53444,0.463005 0.12035,1.218819 0.65479,0.755814 z" />
    <path
       style="fill:#0000ff;stroke-width:0.264583"
       id="path5978"
       d="m 116.6716,52.595455 c 0.22075,0.0081 0.4415,0.01622 0.66225,0.02434 0.94668,0.03479 0.8021,0.02209 1.7439,0.08605 0.4721,0.03206 0.93843,0.07652 1.41155,0.07476 0.70709,-0.0048 0.70033,-1.004756 -0.007,-0.999977 v 0 c -0.44964,0.0048 -0.89459,-0.04254 -1.34302,-0.07287 -0.82197,-0.05558 -1.6445,-0.08749 -2.46792,-0.112292 -0.70711,0 -0.70711,0.999998 0,0.999998 z" />
    <path
       style="fill:#0000ff;stroke-width:0.264583"
       id="path5980"
       d="m 46.20091,60.789355 c 0.01868,-0.253656 -0.01895,-0.509413 0,-0.763061 0.0036,-0.0476 0.07703,-0.166624 0.03899,-0.137787 -0.730057,0.553516 -0.433098,0.688372 -0.112202,1.525227 0.724815,2.059461 1.27671,4.209582 2.329658,6.137545 0.09835,0.180081 0.216757,0.348459 0.325135,0.522687 0.362464,0.486495 0.315505,0.608177 1.073759,-0.24879 0.05957,-0.06732 -0.06345,-0.168233 -0.09369,-0.252889 -0.03961,-0.110884 -0.07722,-0.222467 -0.115832,-0.3337 -0.23213,-0.66792 -1.17671,-0.339641 -0.944581,0.328279 v 0 c 0.04124,0.118525 0.08134,0.23745 0.123719,0.355571 0.02402,0.06694 0.0055,0.21237 0.07545,0.199564 1.13424,-0.207637 1.031811,-0.180332 0.728334,-0.579371 -0.492173,-0.777121 -0.798728,-1.473811 -1.137638,-2.339845 -0.534932,-1.366938 -0.961165,-2.769823 -1.434945,-4.158197 -0.121357,-0.297045 -0.501147,-1.608249 -1.059864,-1.722303 -0.994414,-0.202991 -0.789122,0.990217 -0.796297,1.46707 0,0.707107 1,0.707107 1,0 z" />
    <path
       style="fill:#0000ff;stroke-width:0.264583"
       id="path5982"
       d="m 49.843506,60.396634 c -0.241998,0.162414 -0.500402,0.302717 -0.725994,0.487243 -1.842068,1.506736 -3.241157,3.788273 -4.47024,5.802043 -0.146231,0.266062 -0.302055,0.527071 -0.438693,0.798184 -0.271186,0.538078 -0.507614,1.146294 0.227508,1.498283 0.157191,0.07527 0.34829,-0.01376 0.522435,-0.02064 0.690559,-0.15208 0.475485,-1.128678 -0.215074,-0.976598 v 0 c 0.151863,0.140671 0.14368,0.109905 0.211587,0.428381 0.004,0.01852 -0.06139,0.009 -0.0561,-0.0092 0.09836,-0.338704 0.473524,-0.963221 0.602048,-1.197721 0.757196,-1.24206 1.526157,-2.478323 2.427457,-3.623638 0.521278,-0.662408 1.104468,-1.325856 1.752542,-1.87302 0.181621,-0.153342 0.390267,-0.27146 0.585401,-0.407191 0.640772,-0.299016 0.2179,-1.205206 -0.422873,-0.90619 z" />
    <path
       style="fill:#0000ff;stroke-width:0.264583"
       id="path5984"
       d="m 68.591449,61.634908 c 0.167691,-0.49448 0.35628,-0.981766 0.574919,-1.456098 0.06129,-0.132966 0.262334,-0.603258 0.42745,-0.731612 0.05495,-0.04271 -0.06447,0.123359 -0.09671,0.185039 -0.06403,0.05064 -0.190678,0.07029 -0.192096,0.15191 -0.0042,0.24175 0.12963,0.466318 0.177231,0.703371 0.08147,0.40572 0.138478,0.815978 0.209725,1.223619 0.164359,0.940368 0.336301,2.030962 0.603586,2.950887 0.121891,0.41951 0.295651,0.822177 0.443476,1.233263 0.155514,0.301961 0.285483,0.618508 0.466542,0.905877 0.284422,0.451424 1.317176,1.651895 1.803758,0.565333 0.07724,-0.172482 -0.08025,-0.369358 -0.12037,-0.554038 -0.07288,-0.09224 -0.145756,-0.184472 -0.218636,-0.276709 -0.458822,-0.538035 -1.219718,0.110837 -0.760896,0.648872 v 0 c 0.03022,0.02866 0.06044,0.05732 0.09065,0.08598 0.09305,-0.341786 0.02818,-0.308036 0.562621,-0.466275 0.03876,-0.01148 0.127095,0.0986 0.09128,0.07985 -0.505701,-0.264792 -0.735116,-0.859729 -0.974863,-1.329817 -0.136525,-0.37298 -0.298235,-0.737682 -0.409577,-1.118936 -0.267949,-0.91752 -0.426532,-1.958811 -0.592376,-2.895716 -0.07008,-0.395862 -0.272777,-1.899383 -0.556464,-2.334046 -0.165073,-0.252923 -0.469463,-0.380111 -0.704196,-0.570167 -0.211688,0.07619 -0.450062,0.100545 -0.635061,0.228574 -0.136054,0.09416 -0.200634,0.264208 -0.283739,0.407278 -0.371512,0.639588 -0.59553,1.3594 -0.85498,2.04746 -0.22352,0.670851 0.725204,0.986954 0.948724,0.316106 z" />
    <path
       style="fill:#0000ff;stroke-width:0.264583"
       id="path5986"
       d="m 72.183872,59.635682 c -2.0975,2.356596 -3.733313,5.074618 -5.24356,7.831359 -0.05762,0.122068 -0.978882,1.699533 -0.516094,1.95988 0.714338,0.40186 0.87502,0.08407 1.251506,-0.279493 0.491765,-0.508103 -0.226801,-1.203563 -0.718566,-0.69546 v 0 c -0.324673,0.387409 -0.06446,-0.03936 0.338219,0.48395 0.116557,0.151476 -0.287922,0.777851 0.100026,-0.1211 0.12741,-0.295233 0.281334,-0.578302 0.422003,-0.867455 1.458692,-2.664658 3.037744,-5.289637 5.04867,-7.580519 0.517009,-0.482391 -0.165192,-1.213553 -0.682204,-0.731162 z" />
    <path
       style="fill:#0000ff;stroke-width:0.264583"
       id="path5988"
       d="m 92.456919,61.167254 c 0.02933,-0.138316 0.0555,-0.277336 0.08798,-0.414946 0.04866,-0.206182 0.122901,-0.549889 0.246136,-0.742807 0.02974,-0.04656 0.1211,-0.156639 0.130498,-0.102196 0.01222,0.07086 -0.09516,0.112779 -0.116837,0.181341 -0.02053,0.06498 -0.0034,0.136255 -0.0051,0.204382 0.539914,1.344734 0.697775,2.799358 1.103289,4.184327 0.292602,0.999337 0.382238,1.134457 0.774843,2.034712 0.244117,0.485262 0.559212,0.906188 0.989568,1.236755 0.0428,0.03288 0.09105,0.116716 0.136321,0.08734 0.269322,-0.174713 0.478785,-0.427779 0.71818,-0.641668 -0.165735,-0.687411 -1.137881,-0.453027 -0.972146,0.234384 v 0 c 0.254548,-0.151027 0.510403,-0.299876 0.763646,-0.45308 0.0037,-0.0021 -0.0094,0.0016 -0.01294,-0.0011 -0.04918,-0.0355 -0.09886,-0.07081 -0.143513,-0.111866 -0.33461,-0.307681 -0.26535,-0.280561 -0.563263,-0.752292 -0.362231,-0.821574 -0.451723,-0.959919 -0.721313,-1.87874 -0.322923,-1.100606 -0.323352,-1.404744 -0.600344,-2.527102 -0.09739,-0.394612 -0.186902,-0.792718 -0.32184,-1.176118 -0.110603,-0.314266 -0.275,-0.606927 -0.412501,-0.910391 -0.224888,-0.175956 -0.39964,-0.45107 -0.674664,-0.527873 -1.006797,-0.281162 -1.258644,1.256845 -1.386546,1.880571 -0.138832,0.693346 0.841706,0.889683 0.980535,0.196339 z" />
    <path
       style="fill:#0000ff;stroke-width:0.264583"
       id="path5990"
       d="m 96.126457,59.603421 c -1.076077,1.802111 -2.204451,3.574076 -3.232317,5.404744 -0.600615,1.069716 -0.811863,1.513877 -1.335633,2.553438 -0.137541,0.301781 -0.431731,0.900544 -0.538199,1.267767 -0.03175,0.109506 -0.09531,0.230627 -0.05559,0.3375 0.342077,0.920385 0.842073,0.628523 1.461727,0.248023 0.593342,-0.384641 0.04938,-1.223751 -0.543962,-0.839113 v 0 c -0.06725,0.04805 -0.18062,0.06424 -0.201745,0.144151 -0.01543,0.05839 0.104042,0.07146 0.130376,0.125801 0.068,0.14034 0.08329,0.301691 0.145968,0.444487 0.01495,0.03402 -0.01026,-0.07583 2.15e-4,-0.111477 0.04295,-0.146169 0.09911,-0.288388 0.15852,-0.428675 0.105468,-0.249053 0.223874,-0.492427 0.335811,-0.73864 0.509596,-1.012164 0.722757,-1.459852 1.306679,-2.500051 1.020475,-1.817878 2.141258,-3.577145 3.209163,-5.366938 0.382559,-0.594683 -0.458451,-1.135703 -0.841009,-0.541017 z" />
    <path
       style="fill:#0000ff;stroke-width:0.264583"
       id="path5992"
       d="m 113.90551,62.060588 c 0.0277,-0.106778 0.0408,-0.218411 0.083,-0.320331 0.0239,-0.05781 0.13608,-0.208407 0.11192,-0.150688 -0.0343,0.08207 -0.2584,0.370332 -0.24935,0.412294 0.0492,0.228018 0.19163,0.425353 0.28575,0.638781 0.14434,0.327314 0.28643,0.655622 0.42964,0.983433 0.44839,1.017513 0.9723,2.006084 1.65505,2.887792 0.28847,0.372536 0.58651,0.701932 0.97404,0.970351 0.12576,0.0871 0.26994,0.143989 0.40491,0.215982 0.15787,0.0149 0.31863,0.07816 0.47363,0.04464 0.36872,-0.07972 0.59239,-0.322005 0.72931,-0.6541 0.0657,-0.159274 0.0759,-0.336092 0.11386,-0.50414 0.12327,-0.69628 -0.86142,-0.870603 -0.98469,-0.174323 v 0 c -0.004,0.06991 -0.009,0.139814 -0.0125,0.209743 -0.002,0.03175 -0.0268,0.07246 -0.005,0.09528 0.16316,0.168209 0.10934,-0.07906 0.13279,0.08875 -0.45908,-0.202597 -0.69338,-0.464243 -1.00976,-0.86887 -0.6454,-0.825426 -1.13472,-1.755897 -1.55575,-2.711702 -0.0708,-0.161784 -0.71634,-1.685755 -0.87714,-1.877904 -0.19329,-0.230976 -0.43654,-0.472138 -0.73224,-0.52937 -0.65027,-0.125862 -0.85014,0.626607 -0.94845,1.048483 -0.13852,0.693407 0.84211,0.889301 0.98063,0.195895 z" />
    <path
       style="fill:#0000ff;stroke-width:0.264583"
       id="path5994"
       d="m 117.9016,60.822171 c -1.37883,1.849567 -2.69093,3.756046 -3.86836,5.741233 -0.22531,0.379876 -0.43415,0.769279 -0.65123,1.153917 -0.13974,0.278061 -0.28582,0.553022 -0.41922,0.834181 -0.0929,0.195834 -0.56785,1.04525 0.10553,1.148615 0.32656,0.05013 0.5722,-0.330494 0.85829,-0.49574 0.41433,-0.573 -0.39601,-1.158951 -0.81034,-0.585951 v 0 c 0.56989,0.266769 0.33272,0.04353 0.56618,0.796335 0.3875,0.218363 -0.0881,-2.061861 0.57058,-1.206196 0.21048,-0.373457 0.41285,-0.751602 0.63144,-1.120373 1.14746,-1.935853 2.42818,-3.792278 3.76441,-5.601517 0.46988,-0.52841 -0.27741,-1.192914 -0.74728,-0.664504 z" />
    <path
       style="fill:#0000ff;stroke-width:0.264583"
       id="path5996"
       d="m 47.243894,57.703535 c 0.0287,-0.665697 0.05599,-0.162229 -0.09376,-0.09103 -0.179797,0.08548 -0.402682,0.02249 -0.590763,0.08776 -0.04074,0.01413 0.06312,0.05953 0.09949,0.08271 0.07361,0.04691 0.152776,0.08449 0.229163,0.126738 0.09329,0.01937 0.184693,0.06254 0.279865,0.05809 0.461328,-0.02159 0.761655,-0.410308 0.608421,-0.864934 -0.09195,-0.272807 -0.261567,-0.30766 -0.48427,-0.422069 -0.433698,-0.06921 -0.660038,0.0625 -0.837759,0.472729 -0.280076,0.649274 0.638136,1.045361 0.918212,0.396086 v 0 c 0.117965,-0.274383 -0.133857,0.2485 -0.388127,0.08268 -0.0356,-0.0292 -0.07977,-0.05034 -0.106812,-0.08762 -0.195914,-0.270105 0.145303,-0.726945 0.443748,-0.536218 -0.107163,0.02405 0.203043,-0.03907 -0.134224,-0.08663 -0.242172,-0.03415 -0.499009,-0.09758 -0.733202,-0.0271 -0.217816,0.06555 -0.194795,0.534821 -0.203857,0.698296 -0.07815,0.702776 0.915719,0.813303 0.993873,0.110527 z" />
    <path
       style="fill:#0000ff;stroke-width:0.264583"
       id="path5998"
       d="m 50.480687,57.922425 c -0.07449,-0.283588 -0.175819,-0.579112 -0.369809,-0.806654 -0.04322,-0.05069 -0.09675,-0.182091 -0.145643,-0.13685 -0.771509,0.713862 -0.802072,0.605192 -0.46876,0.93549 0.477793,0.374123 1.220414,0.706887 1.50859,-0.141568 0.05266,-0.155046 -0.02019,-0.326866 -0.03029,-0.490302 -0.119873,-0.304988 -0.137119,-0.455486 -0.403466,-0.680524 -0.392714,-0.331812 -0.974596,-0.335807 -1.201319,0.224864 -0.05818,0.143883 0.02967,0.308983 0.04451,0.463473 0.105715,0.226859 0.271281,0.370142 0.469729,0.508529 0.583591,0.399278 1.148253,-0.426045 0.564662,-0.825323 v 0 c -0.04326,-0.02834 -0.04738,-0.03184 -0.09434,-0.02423 -0.05385,0.264718 -0.01112,0.319942 -0.371381,0.431591 -0.26852,0.08322 -0.167931,-0.179488 -0.06716,-0.05993 0.03453,0.04096 0.05013,0.0947 0.07519,0.142047 0.206051,0.0227 -0.169508,-0.0057 0.321867,-0.163119 0.05733,-0.01836 0.119347,0.01659 0.178235,0.02909 0.02,0.0042 -0.04185,0.0024 -0.06119,-0.0043 -0.08145,-0.02798 -0.156862,-0.07734 -0.230258,-0.121135 -0.354984,-0.350686 0.03399,-0.03531 -0.808218,0.594464 -0.03692,0.02761 -0.05984,-0.07058 -0.09447,-0.101016 -0.01947,-0.01712 0.03414,0.03919 0.0486,0.0607 0.02842,0.0423 0.06025,0.08334 0.07982,0.130397 0.03373,0.0811 0.05264,0.1676 0.07896,0.251402 0.15352,0.690239 1.129667,0.473128 0.976147,-0.217112 z" />
    <path
       style="fill:#0000ff;stroke-width:0.264583"
       id="path6000"
       d="m 52.291359,65.444804 c 0.240948,-0.180496 0.65082,-0.428863 0.740939,-0.742309 0.126284,-0.43924 0.03711,-0.608854 -0.366867,-0.856486 -0.09219,-0.05651 -0.213799,-0.03249 -0.320699,-0.04874 -0.100187,0.02233 -0.227092,-0.0047 -0.30056,0.067 -0.150941,0.14728 -0.304125,0.333139 -0.324637,0.543028 -0.03452,0.353274 0.47965,0.697611 0.775432,0.739661 0.130089,0.01849 0.26258,-0.01061 0.393871,-0.0159 0.130258,-0.101044 0.307663,-0.160763 0.390774,-0.303135 0.176735,-0.302755 0.09524,-0.598903 -0.02964,-0.88079 -0.03896,-0.08793 -0.09924,-0.164799 -0.150944,-0.245896 -0.02328,-0.03651 -0.04884,-0.07152 -0.07393,-0.10682 -0.0086,-0.01214 0.01637,0.0249 0.02455,0.03734 -0.195087,0.239782 -0.390175,0.479566 -0.585262,0.719349 0.0063,0.01892 0.06896,0.218168 0.09439,0.08349 0.05427,-0.287536 0.04267,-0.583668 0.064,-0.875503 -0.697772,0.114514 -0.535824,1.101314 0.161949,0.9868 v 0 c 0.119081,-0.307877 0.243301,-0.613815 0.357243,-0.923629 0.0019,-0.0052 -0.01031,-0.0044 -0.01469,-0.0078 -0.05425,-0.04202 -0.0989,-0.157477 -0.16101,-0.128291 -0.302719,0.142251 -0.542769,0.391022 -0.814154,0.586534 0.02167,0.03874 0.198198,0.312959 0.218408,0.300879 0.615846,-0.368086 -0.506024,0.06157 0.329659,-0.224568 0.02997,0.01416 0.0678,0.01781 0.08992,0.04249 0.0102,0.0114 -0.03014,0.0094 -0.0453,0.0073 -0.02081,-0.0028 -0.05672,-0.04241 -0.05922,-0.02154 -0.0093,0.07778 0.06702,0.161528 0.03395,0.23254 -0.19819,0.425529 -0.187089,0.397108 -0.432772,0.385757 -0.221144,-0.409808 -0.250098,-0.190997 -0.121835,-0.590754 0.0067,-0.02098 -6.08e-4,0.04711 -0.01403,0.06456 -0.11086,0.143939 -0.243276,0.22126 -0.389421,0.327348 -0.599674,0.374684 -0.06979,1.222753 0.529888,0.848066 z" />
    <path
       style="fill:#0000ff;stroke-width:0.264583"
       id="path6002"
       d="m 47.641609,72.653454 c -0.128226,-0.406146 -0.354321,-1.510464 -1.034035,-1.358903 -0.611554,0.136361 -0.505619,0.600321 -0.517698,1.002266 0.108023,0.430688 0.526159,1.704898 1.250136,1.345149 0.185824,-0.09234 0.241457,-0.337529 0.362185,-0.506293 -0.0501,-0.02032 -0.0044,-0.59341 -0.08599,-0.681093 -0.02684,-0.02885 0.03159,0.08184 0.01445,0.117321 -0.06422,0.132959 -0.124317,0.286623 -0.248283,0.366829 -0.09871,0.06387 -0.234704,0.01439 -0.352056,0.02159 -0.392195,-0.518771 -0.359981,-0.238485 -0.03329,-0.84574 -0.649871,0.278688 -0.255745,1.197745 0.394126,0.919056 v 0 c 0.456302,-0.662717 0.461172,-0.335489 0.06123,-0.979884 -0.156015,-0.0108 -0.326129,-0.09811 -0.468044,-0.0324 -0.366055,0.169484 -0.382223,0.435872 -0.325704,0.735208 0.03492,0.18492 -0.02927,0.174326 0.06505,0.172921 0.101888,-0.07935 0.178749,-0.214169 0.305663,-0.238043 0.476718,-0.08968 0.429106,0.302713 0.259692,-5.29e-4 -0.04626,-0.08282 -0.07868,-0.172651 -0.116781,-0.259527 -0.029,-0.06613 -0.05633,-0.132971 -0.08449,-0.199459 -0.169437,-0.245541 0.145224,0.156036 -0.417128,0.06073 -0.141471,-0.02397 -0.209734,-0.207902 -0.343804,-0.25903 -0.06046,-0.02304 0.07272,0.107664 0.100331,0.166182 0.129313,0.274064 0.160459,0.420727 0.249756,0.717122 0.186236,0.68214 1.150929,0.418761 0.964692,-0.26338 z" />
    <path
       style="fill:#0000ff;stroke-width:0.264583"
       id="path6004"
       d="m 43.365074,64.082362 c -0.04812,-0.394304 -0.139973,-0.792618 -0.379886,-1.119521 -0.06328,-0.08622 -0.127236,-0.184791 -0.224529,-0.229206 -0.157214,-0.07177 -0.349255,-0.17407 -0.507706,-0.105072 -0.209521,0.09124 -0.297488,0.346978 -0.446233,0.520465 0.0143,0.149117 0.0086,0.301522 0.04289,0.447355 0.08712,0.3708 0.399386,0.77057 0.801325,0.825727 0.420441,0.05769 0.511454,-0.08353 0.80932,-0.295605 0.06692,-0.109712 0.165066,-0.205685 0.200772,-0.329137 0.128948,-0.445839 -0.102027,-0.861173 -0.551229,-0.974299 -0.104602,-0.02635 -0.218918,-0.02992 -0.323581,-0.0038 -0.112646,0.02809 -0.205735,0.107635 -0.308603,0.161451 -0.211065,0.359304 -0.174631,0.568476 -0.136631,0.936649 0.07324,0.703302 1.067864,0.59972 0.994621,-0.103582 v 0 c -0.02249,-0.213791 0.03786,-0.5179 -0.194251,-0.0851 -0.0727,0.02705 -0.141348,0.06998 -0.218111,0.08115 -0.154761,0.02252 -0.235219,-0.196252 -0.231372,-0.305517 0.0053,-0.151596 0.03499,-0.135303 0.108488,-0.129146 0.101585,0.129151 -0.143239,-0.172878 0.137384,0.08897 0.01932,0.01802 0.04556,0.05413 0.02823,0.07407 -0.06343,0.073 -0.114775,-0.258648 -0.191093,-0.138848 -0.439199,0.259424 -0.258,0.286465 -0.67879,0.08152 -0.0103,-0.005 0.02641,-0.0072 0.03437,0.0011 0.0379,0.03933 0.07131,0.08426 0.09518,0.133389 0.10588,0.217927 0.103628,0.322834 0.144407,0.566637 0.07041,0.703593 1.065444,0.604012 0.99503,-0.09958 z" />
    <path
       style="fill:#0000ff;stroke-width:0.264583"
       id="path6006"
       d="m 64.22357,63.093124 c 0.0088,0.112898 0.01495,0.226034 0.02638,0.338696 0.0122,0.120306 0.03795,0.317714 0.07104,0.444077 0.0074,0.02809 -0.0393,-0.0763 -0.01204,-0.08627 0.938519,-0.343311 0.834022,-0.543907 0.963477,-0.138833 -0.03166,0.103508 -0.06332,0.207013 -0.09497,0.310518 0.441402,-0.552416 -0.339834,-1.176652 -0.781235,-0.624234 v 0 c -0.04109,0.115311 -0.08218,0.230624 -0.123275,0.345937 0.08668,0.52428 -0.01191,0.418658 1.034942,0.152726 0.05366,-0.01363 -0.0019,-0.110903 -0.0084,-0.165889 -0.01265,-0.1076 -0.07283,-0.207422 -0.053,-0.320672 -0.0095,-0.08517 -0.01529,-0.170704 -0.02294,-0.256056 0,-0.707107 -1.000001,-0.707107 -1.000001,0 z" />
    <path
       style="fill:#0000ff;stroke-width:0.264583"
       id="path6008"
       d="m 69.053441,56.88787 c -0.01199,0.562282 0.141182,1.186177 0.723614,1.420796 0.114094,0.04596 0.244949,0.09146 0.364001,0.06054 0.172826,-0.04488 0.306654,-0.183015 0.459983,-0.274524 0.02703,-0.646154 0.142484,-0.468749 -0.183391,-0.875924 -0.07705,-0.09628 -0.175768,-0.170534 -0.280447,-0.234222 -0.03492,-0.02125 -0.09894,-0.08928 -0.111763,-0.05047 -0.104685,0.316804 -0.130611,0.654396 -0.195916,0.981596 -0.195559,0.0048 0.537533,0.04351 0.412282,-0.01323 -0.07226,-0.03273 -0.181346,0.05961 -0.237945,0.004 -0.514917,-0.505666 -0.156967,-0.713179 -0.379939,-0.578064 -0.376571,0.598493 0.469826,1.131046 0.846396,0.532553 v 0 c 0.205008,-0.362796 0.266129,-0.347445 -0.199429,-0.918178 -0.0593,-0.0727 -0.18763,-0.0036 -0.281348,-0.008 -0.03455,-0.0016 0.111649,-0.01334 0.102526,0.01595 -0.133553,0.308631 -0.24312,0.628788 -0.400661,0.925888 -0.01752,0.03304 -0.16434,-0.128672 -0.09804,-0.0706 0.146601,0.12841 0.04894,0.116858 0.205719,-0.308735 0.100113,-0.03653 0.332068,-0.223147 0.450673,-0.06985 0.02384,0.03082 -0.0953,0.02775 -0.116819,-0.0047 -0.07924,-0.11964 -0.07455,-0.291918 -0.08563,-0.424305 0.07815,-0.702773 -0.915718,-0.8133 -0.993873,-0.110524 z" />
    <path
       style="fill:#0000ff;stroke-width:0.264583"
       id="path6010"
       d="m 73.168836,57.915025 c 0.230219,0.105087 0.436071,0.256418 0.627544,0.420632 0.0241,0.02069 0.08065,0.09755 0.06444,0.07023 -0.194902,-0.328607 -0.161991,0.119652 0.03901,-0.656997 0.05142,-0.07158 0.02898,-0.03041 -0.136009,0.0359 -0.655235,0.265833 -0.279289,1.192475 0.375946,0.92664 v 0 c 0.186389,-0.07661 0.07446,-0.02954 0.334582,-0.144052 0.07943,-0.200311 0.215069,-0.386702 0.238278,-0.600933 0.0109,-0.100623 -0.08503,-0.185105 -0.144232,-0.267197 -0.200173,-0.277564 -0.704424,-0.537355 -0.993463,-0.698053 -0.646173,-0.287155 -1.052277,0.626671 -0.406101,0.913829 z" />
    <path
       style="fill:#0000ff;stroke-width:0.264583"
       id="path6012"
       d="m 75.639515,62.298459 c -0.498673,-0.149596 -1.143809,-0.275564 -1.414592,0.318677 -0.04471,0.09812 -0.01336,0.215241 -0.02003,0.322861 0.08766,0.559435 0.452983,0.768815 0.978527,0.816972 0.781487,0.06545 0.967904,-0.921266 0.124958,-1.094044 -0.693129,-0.139901 -0.890982,0.84033 -0.197853,0.980234 v 0 c 0.229986,0.04535 -0.123706,-0.01296 -0.191003,-0.192813 -0.05534,-0.147894 -0.06465,-0.333923 0.0089,-0.473644 0.06647,-0.126225 0.509018,-0.236204 0.367331,-0.219601 -0.01487,0.0019 -0.02988,0.0013 -0.04482,0.0021 -0.08285,7.94e-4 -0.0786,-0.01058 -0.04933,0.04957 0.01093,0.02244 0.03522,0.153127 -0.0021,0.0269 -0.0132,0.04543 -0.01029,0.09913 -0.0396,0.136279 -0.09324,0.11824 -0.259924,0.262102 -0.303289,0.212109 -0.01299,-0.01498 0.0361,-0.02014 0.05591,-0.02019 0.05803,-1.48e-4 0.11611,0.0081 0.172985,0.01961 0.08052,0.01632 0.15872,0.04246 0.238082,0.0637 0.67088,0.223433 0.986859,-0.725334 0.315981,-0.948764 z" />
    <path
       style="fill:#0000ff;stroke-width:0.264583"
       id="path6014"
       d="m 74.500942,66.563198 c 0.120205,0.114385 0.920459,0.731636 1.114364,0.565745 0.648682,-0.554958 0.515271,-0.553283 0.237503,-0.991981 -0.09489,-0.057 -0.177641,-0.142745 -0.284668,-0.171005 -0.443238,-0.117041 -0.836117,0.09902 -0.896665,0.578945 -0.03126,0.247751 0.120727,0.394719 0.248598,0.56402 0.116699,0.122823 0.04439,0.05445 0.226237,0.194829 0.582726,0.400539 1.149173,-0.423561 0.566446,-0.824098 v 0 c 0.0099,0.04304 0.0072,0.01934 -0.05493,-0.0458 0.09611,0.310187 -0.30108,0.704903 -0.538882,0.382408 -0.09788,-0.341437 -0.118806,-0.261475 0.426688,-0.684885 0.04569,-0.03546 0.109667,0.04009 0.167138,0.04663 0.03589,0.0041 -0.06919,-0.02212 -0.101063,-0.03911 -0.187939,-0.100261 -0.230511,-0.146931 -0.403659,-0.2828 -0.499999,-0.499999 -1.207106,0.207105 -0.707107,0.707107 z" />
    <path
       style="fill:#0000ff;stroke-width:0.264583"
       id="path6016"
       d="m 69.816303,71.934891 c 0.456333,0.07395 1.447319,0.163253 1.590511,-0.476158 0.03442,-0.153678 -0.0411,-0.312274 -0.06165,-0.46841 -0.252736,-0.04478 -0.506217,-0.183153 -0.758209,-0.134348 -0.130821,0.02535 -0.170976,0.207214 -0.231365,0.325999 -0.125537,0.24693 -0.122494,0.632137 -0.04378,0.890188 0.03116,0.10215 0.09013,0.19364 0.135199,0.290459 0.106601,0.08439 0.19186,0.207174 0.319802,0.253177 0.345297,0.124146 0.807633,-0.03391 0.923721,-0.40768 0.03754,-0.120888 0.06502,-0.273201 -0.0033,-0.379738 -0.102053,-0.159049 -0.304165,-0.224343 -0.45625,-0.336513 -0.188963,0.14878 -0.377926,0.297564 -0.566889,0.446344 -0.147666,0.691515 0.830287,0.900348 0.977953,0.208833 v 0 c -0.18111,0.112011 -0.362222,0.224023 -0.543332,0.336037 -0.118288,-0.107662 -0.280607,-0.181317 -0.354859,-0.322982 -0.15788,-0.301218 0.196934,-0.637485 0.466553,-0.440548 0.04854,0.03546 0.06986,0.09784 0.104788,0.146765 -0.06789,0.05204 -0.05972,-0.161113 -0.05927,-0.183221 5.29e-4,-0.03052 0.04213,-0.09258 0.01164,-0.09082 -0.05371,0.0031 -0.08572,0.06503 -0.12858,0.09754 -0.21994,-0.06649 -0.43988,-0.132988 -0.65982,-0.199483 -0.0033,-0.126341 -0.04742,-0.258294 -0.01003,-0.379029 0.02453,-0.07925 0.112789,-0.123388 0.180446,-0.171391 0.01146,-0.0081 0.0518,0.0097 0.03908,0.01564 -0.199432,0.09289 -0.451736,0.01524 -0.655714,0.0031 -0.690319,-0.15317 -0.906933,0.823085 -0.216617,0.976257 z" />
    <path
       style="fill:#0000ff;stroke-width:0.264583"
       id="path6018"
       d="m 93.428447,56.436827 c -0.531698,-0.09053 -1.145439,-0.08014 -1.418121,0.488788 -0.06016,0.125508 -0.081,0.273622 -0.06711,0.412105 0.0136,0.135665 0.09783,0.254539 0.146738,0.381812 0.161628,0.08146 0.305609,0.219467 0.484883,0.244377 0.428757,0.05958 0.740669,-0.402585 0.797552,-0.757925 0.04877,-0.30466 -0.02622,-0.373735 -0.141708,-0.644374 -0.08079,-0.07395 -0.135845,-0.196361 -0.242358,-0.221848 -0.408131,-0.09766 -0.706665,-0.042 -0.842444,0.368863 -0.08359,0.252947 0.0374,0.473435 0.152498,0.677836 0.08097,0.07472 0.161948,0.149445 0.242924,0.224168 0.587717,0.393179 1.143754,-0.43798 0.556035,-0.831156 v 0 c 0.0222,0.03541 0.04442,0.07082 0.06663,0.10623 -0.12586,-0.203928 0.04645,0.284705 -0.275484,0.350351 -0.392748,0.08009 -0.390454,0.02125 -0.523111,-0.17321 0.0019,-0.02432 -0.0034,-0.0502 0.0055,-0.07292 0.01124,-0.029 0.04694,-0.0074 0.06209,-0.0089 0.0894,-0.0094 0.152538,-0.06439 0.253799,-0.01079 0.0978,0.05178 0.166926,0.14532 0.250388,0.21798 0.0044,0.113583 0.01498,0.29128 -0.17423,0.266459 -0.01601,-0.0021 -0.0024,-0.04099 0.01259,-0.04679 0.054,-0.02077 0.11403,-0.02535 0.171868,-0.02413 0.09571,0.0021 0.190145,0.02249 0.285221,0.03373 0.693404,0.13852 0.889301,-0.842105 0.195894,-0.980625 z" />
    <path
       style="fill:#0000ff;stroke-width:0.264583"
       id="path6020"
       d="m 96.015429,57.255024 c -0.358616,0.344697 -0.861271,1.085628 -0.22535,1.501013 0.372173,0.243105 0.651613,0.01357 0.947303,-0.138885 0.26575,-0.217466 0.817184,-0.762696 0.630537,-1.174059 -0.07466,-0.164545 -0.198348,-0.324459 -0.359932,-0.405329 -0.13517,-0.06765 -0.302307,-0.0011 -0.453464,-0.0019 -0.33356,0.171522 -0.648417,0.396701 -0.526645,0.8577 0.06676,0.252735 0.322824,0.407535 0.554445,0.456597 0.09381,0.01987 0.191598,0.0082 0.287398,0.01236 0.379982,-0.100597 0.171424,1.72e-4 0.536975,-0.441034 0.164769,-0.687642 -0.807702,-0.920663 -0.972471,-0.233021 v 0 c 0.320008,-0.338662 0.155729,-0.310798 0.380294,-0.324419 0.206261,0.114358 0.298762,0.639286 -0.0145,0.641215 -0.28647,-0.08215 -0.528813,-0.176938 -0.373248,-0.549384 0.0051,-0.0123 0.01,0.02782 0.0041,0.0398 -0.0541,0.110615 -0.133135,0.180081 -0.216286,0.268851 -0.118946,0.167976 0.0096,-0.05913 0.172342,0.18904 0.07109,0.108439 0.08553,0.24597 0.10831,0.373621 0.0024,0.01381 -0.04328,0.01183 -0.04201,-0.0021 0.01148,-0.125886 0.142044,-0.231709 0.212918,-0.310896 0.536898,-0.460153 -0.113858,-1.219441 -0.650756,-0.759285 z" />
    <path
       style="fill:#0000ff;stroke-width:0.264583"
       id="path6022"
       d="m 98.274183,61.428578 c -0.110202,0.577458 -0.301138,1.429959 0.339579,1.795264 0.131842,0.07517 0.295595,0.06896 0.443392,0.103438 0.126521,-0.03091 0.259516,-0.04221 0.379565,-0.09272 0.373904,-0.157335 0.646841,-0.580933 0.595861,-0.99142 -0.0103,-0.08303 -0.04272,-0.161796 -0.06408,-0.242695 -0.319434,0.07809 -0.659336,0.09732 -0.958302,0.234273 -0.06021,0.02758 0.0041,0.132733 0.01429,0.198178 0.0063,0.04043 0.02371,0.157062 0.03484,0.117695 0.04075,-0.144061 0.03857,-0.296929 0.05786,-0.445395 -0.455023,0.541253 0.310425,1.184752 0.765447,0.643499 v 0 c 0.04088,-0.174146 0.0794,-0.348864 0.122635,-0.522441 0.01,-0.04012 0.0389,0.116372 -0.002,0.124034 -0.308869,0.05823 -0.626584,0.05056 -0.939871,0.07584 -0.01032,-0.05744 -0.02402,-0.114382 -0.03099,-0.172329 -0.0016,-0.0122 0.02437,0.0052 0.03662,0.0042 0.01725,-0.0013 0.03863,-0.0204 0.0512,-0.0085 0.01931,0.01826 -0.05403,0.05833 -0.0063,0.07946 0.04864,0.04844 0.140714,0.109828 0.108159,0.201888 -0.0079,0.02241 -0.04322,-0.02908 -0.04855,-0.05224 -0.01632,-0.07085 -0.01579,-0.145021 -0.0136,-0.217697 0.0068,-0.226777 0.04779,-0.391192 0.09019,-0.615169 0.15352,-0.69024 -0.822629,-0.907352 -0.976148,-0.21711 z" />
    <path
       style="fill:#0000ff;stroke-width:0.264583"
       id="path6024"
       d="m 99.52867,67.614319 c 0.286872,-0.165434 0.8638,-0.337153 0.83747,-0.784543 -0.0217,-0.369456 -0.23592,-0.48846 -0.463815,-0.656968 -0.03024,-0.02437 -0.651433,-0.479362 -0.687972,-0.388811 -0.125455,0.310899 -0.103719,0.66244 -0.155578,0.993662 0.667123,0.234402 0.998615,-0.709055 0.331497,-0.943457 v 0 c -0.101259,0.313862 -0.143272,0.653489 -0.303776,0.941589 -0.03164,0.0568 -0.117854,-0.06246 -0.182573,-0.06862 -0.03691,-0.0035 0.391991,0.222123 0.405873,0.27119 0.04756,0.03475 0.128744,0.161473 0.142669,0.104244 0.029,-0.119195 -0.104913,-0.238821 -0.08066,-0.359074 0.02339,-0.116033 0.153689,-0.182108 0.210709,-0.285835 0.01704,-0.03099 -0.05653,0.04275 -0.08697,0.06074 -0.06345,0.03749 -0.470363,0.253722 -0.496755,0.267819 -0.599676,0.374687 -0.06979,1.222756 0.529886,0.848069 z" />
    <path
       style="fill:#0000ff;stroke-width:0.264583"
       id="path6026"
       d="m 93.210751,72.060843 c 0.06593,-0.0678 0.127063,-0.140618 0.1978,-0.203385 0.04651,-0.04127 0.09676,-0.07986 0.152484,-0.107448 0.03365,-0.01667 -0.04743,0.07595 -0.08492,0.074 -0.142306,-0.0074 -0.277635,-0.06446 -0.415647,-0.09994 -0.02365,-0.0061 -0.04873,-0.03825 -0.06902,-0.02463 -0.02938,0.01971 -0.02702,0.0654 -0.04053,0.0981 -0.01328,0.0063 -0.04971,0.02993 -0.03985,0.019 0.06464,-0.07152 0.11357,-0.175765 0.206068,-0.202919 0.244444,-0.07176 0.360273,0.0011 0.486857,0.153752 0.0154,0.01857 0.03148,0.04108 0.0314,0.06521 -1.64e-4,0.04931 -0.02141,0.09627 -0.03209,0.144407 -0.02774,0.03308 -0.04565,0.07798 -0.08323,0.09924 -0.06001,0.03396 -0.134051,0.03412 -0.198001,0.05991 -0.06229,0.02514 0.20056,0.297698 0.03019,0.08694 0.509995,-0.679992 0.376399,-0.93313 0.735663,-0.520792 -0.200633,-0.678045 -1.159536,-0.394304 -0.9589,0.283741 v 0 c 0.436594,0.741958 0.360751,0.522246 1.141592,-0.158707 -0.236125,-0.415018 -0.621427,-0.799743 -1.155821,-0.665282 -0.113792,0.02863 -0.196308,0.128593 -0.294463,0.192889 -0.05754,0.107104 -0.13993,0.204206 -0.172636,0.321308 -0.05951,0.213069 -0.009,0.579501 0.177549,0.725728 0.374542,0.2936 0.640374,0.229722 0.943883,-0.07187 0.0819,-0.08138 0.104322,-0.206012 0.156485,-0.309017 0.04195,-0.23363 0.154408,-0.615529 -0.02215,-0.834906 -0.535622,-0.665559 -1.046514,-0.218922 -1.452007,0.223911 -0.460155,0.536896 0.299133,1.187652 0.759286,0.650756 z" />
    <path
       style="fill:#0000ff;stroke-width:0.264583"
       id="path6028"
       d="m 97.2009,72.145983 c 0.271436,-0.1212 0.560242,-0.188793 0.846818,-0.261678 0.03943,-0.01003 0.07853,-0.02138 0.118155,-0.03062 0.0044,-0.0011 0.01783,0.0016 0.0136,-7.4e-5 -0.156157,-0.06111 -0.31352,-0.119084 -0.470278,-0.178626 -0.479248,-0.118821 0.158499,-0.863004 0.338214,-0.733956 0.183407,0.131699 0.321466,0.317158 0.482198,0.475736 0.118962,-0.697029 -0.866785,-0.865264 -0.985745,-0.168235 v 0 c 0.148498,0.230269 0.256262,0.492649 0.445492,0.690811 0.04534,0.04748 0.135774,0.0071 0.196017,-0.01902 0.476639,-0.206344 0.311084,-0.256313 0.341484,-0.821039 -0.169436,-0.07755 -0.33238,-0.171236 -0.508309,-0.232641 -0.01767,-0.0062 -0.206163,0.04567 -0.215945,0.04817 -0.32925,0.08414 -0.660093,0.16645 -0.97291,0.30262 -0.656585,0.26248 -0.285382,1.191033 0.371205,0.928553 z" />
    <path
       style="fill:#0000ff;stroke-width:0.264583"
       id="path6030"
       d="m 88.614756,64.020968 c 0.106349,-0.10935 0.232825,-0.269433 0.386897,-0.326213 0.02344,-0.0087 0.06769,0.0026 0.06977,0.02743 0.0057,0.06849 -0.154013,0.06028 -0.165653,0.06697 -0.01929,0.01109 -0.01765,0.04085 -0.02649,0.06127 -0.03807,-0.04714 -0.02027,0.182375 -0.06679,0.152263 -0.0213,-0.01378 -0.0054,-0.07968 0.01924,-0.07362 0.312957,0.07699 0.6076,0.216625 0.917781,0.304123 0.01873,0.0053 0.0312,-0.02413 0.0493,-0.03133 0.01469,-0.0058 0.03126,-0.0046 0.04689,-0.0069 -0.03038,0.02612 -0.0527,0.06707 -0.09115,0.07833 -0.113056,0.03309 -0.366061,0.008 -0.376378,-0.164132 -0.0059,-0.09896 0.105969,-0.223192 0.03765,-0.295037 -0.05916,-0.06221 -0.0587,0.161354 -0.08805,0.242031 -0.140047,0.693099 0.840144,0.891153 0.980191,0.198053 v 0 c -0.169659,0.320067 0.04782,-0.0706 0.05817,-0.29982 0.0045,-0.09963 -0.03709,-0.200679 -0.08963,-0.285448 -0.278868,-0.449938 -0.601859,-0.445212 -1.045041,-0.263086 -0.03188,0.0285 -0.518819,0.417698 -0.43761,0.532876 0.508577,0.721299 0.748498,0.882756 0.969169,0.374616 0.03906,-0.08995 0.06638,-0.186071 0.07939,-0.283263 0.01773,-0.132395 0.0081,-0.267028 0.01217,-0.400543 -0.121179,-0.376486 -0.11411,-0.578815 -0.516797,-0.797631 -0.566542,-0.307853 -1.129972,0.14297 -1.48231,0.538305 -0.460155,0.536898 0.299133,1.187654 0.759285,0.650756 z" />
    <path
       style="fill:#0000ff;stroke-width:0.264583"
       id="path6032"
       d="m 111.69547,64.107494 c -0.009,-0.144663 -0.012,-0.289713 -0.0256,-0.433988 -0.015,-0.15875 -0.0408,-0.316291 -0.0601,-0.474572 -0.0129,-0.10609 -0.0282,-0.211984 -0.0365,-0.318537 -0.002,-0.01929 0.0238,-0.06762 0.007,-0.05758 -0.6906,0.41884 -0.66604,0.194516 -0.68164,0.516482 0.0465,0.06523 0.094,0.129784 0.13955,0.195683 0.0296,0.04281 0.0588,0.08596 0.0859,0.130395 0.14907,0.244335 0.30628,-0.484481 0.47986,-0.712052 0.012,-0.01572 0.0749,0.0078 0.0592,-0.0042 -0.0614,-0.04705 -0.13703,-0.0719 -0.20554,-0.107852 -0.41345,-0.16187 -1.11591,-0.212628 -1.18516,0.434371 -0.0351,0.328211 0.14863,0.467072 0.32899,0.645158 0.21121,0.185721 0.0879,0.0906 0.37905,0.273264 0.61089,0.356113 1.11451,-0.507812 0.50363,-0.863925 v 0 c -0.12781,-0.05828 -0.0602,-0.01791 -0.1942,-0.134594 -0.17348,-0.148804 0.0556,0.0226 -0.0336,0.258815 -0.0861,0.228018 -0.20316,0.289637 -0.39116,0.273339 -0.0445,-0.0039 0.31218,-0.09072 0.13387,0.0021 0.0757,0.03809 0.41832,0.211403 0.42521,0.207137 0.86611,-0.536516 0.64109,-0.68014 0.28675,-1.180872 -0.40254,-0.474096 -0.26164,-0.499311 -1.13021,0.034 -0.058,0.03563 -0.006,0.136335 -0.001,0.204261 0.0256,0.372359 0.11852,0.738103 0.11564,1.113055 0,0.707107 1,0.707107 1,0 z" />
    <path
       style="fill:#0000ff;stroke-width:0.264583"
       id="path6034"
       d="m 110.16028,68.203829 c 0.0796,-0.04644 0.1567,-0.09734 0.23871,-0.139308 0.0709,-0.03631 0.14382,-0.06975 0.21938,-0.09511 0.35851,-0.120359 -0.25032,0.21704 -0.23132,-0.133282 0.016,-0.295566 0.21664,-0.550939 0.32495,-0.826407 0.0907,0.008 0.17499,0.03172 0.23089,-0.05192 0.0193,-0.02893 0.0231,-0.06835 0.0479,-0.09278 0.0318,-0.0313 0.11221,-0.03401 0.15177,-0.03853 -0.006,0.02138 -0.001,0.04998 -0.0186,0.06411 -0.13349,0.109701 -0.32093,-0.08988 -0.32681,-0.217546 -0.008,-0.173096 0.047,-0.204017 0.13931,-0.304313 0.35112,-0.184888 0.10896,-0.05712 -0.60568,0.482738 -0.003,0.707098 0.99685,0.711549 0.99999,0.0044 v 0 c -0.23401,0.12637 -0.4789,0.234407 -0.70204,0.37911 -0.0216,0.01402 0.0467,0.02233 0.0713,0.02993 0.30517,0.09424 0.19725,0.06349 0.57343,0.04529 0.28209,-0.155742 0.44624,-0.172252 0.51986,-0.549556 0.0902,-0.462475 -0.30761,-0.860298 -0.75341,-0.866558 -0.15457,-0.0021 -0.3018,0.06715 -0.4527,0.100732 -0.31364,0.24773 -0.44372,0.280692 -0.58089,0.694537 -0.13422,0.404961 -0.0208,0.937824 0.34595,1.188434 0.10561,0.07216 0.24022,0.08792 0.36033,0.131882 0.14398,-0.275492 0.39748,-0.517541 0.43194,-0.826471 0.0138,-0.123299 -0.20024,-0.154636 -0.31821,-0.193059 -0.4404,-0.143441 -0.91476,0.215178 -1.26596,0.413594 -0.56572,0.42422 0.0342,1.224267 0.59993,0.800047 z" />
    <path
       style="fill:#0000ff;stroke-width:0.264583"
       id="path6036"
       d="m 114.60502,71.971329 c -0.0941,0.183401 -0.14217,0.446437 -0.32771,0.570471 -0.007,0.005 -0.0157,-0.02553 -0.007,-0.02596 0.17683,-0.0083 0.36785,-0.06711 0.53108,0.0013 0.11403,0.04787 0.13768,0.205478 0.20652,0.308218 0.11913,-0.196175 0.13307,-0.238482 0.29701,-0.418565 0.0576,-0.06322 0.11547,-0.128008 0.18532,-0.177303 0.0238,-0.0168 0.10191,-0.03895 0.0863,-0.01434 -0.0915,0.143894 -0.25686,0.02747 -0.35822,-0.0047 -0.16013,0.04405 -0.0612,-0.177564 -0.13852,-0.209875 -0.0195,-0.0081 -0.0375,0.01955 -0.0565,0.0289 -0.0144,0.0071 -0.0595,0.02389 -0.0438,0.02043 0.1233,-0.02716 0.2567,-0.152281 0.3675,-0.09174 0.18143,0.09914 0.24825,0.330692 0.37238,0.496038 -0.14182,0.299038 -0.0576,0.208764 -0.17961,0.323951 0.67645,-0.205957 0.38518,-1.162598 -0.29127,-0.956641 v 0 c -0.39652,0.167301 -0.20301,0.03207 -0.51788,0.483113 0.11796,0.206156 0.15644,0.486418 0.35386,0.618469 0.30239,0.202256 0.77235,-0.255855 0.88899,-0.473869 0.0683,-0.127672 0.13521,-0.266644 0.13949,-0.411374 0.005,-0.155397 -0.076,-0.301511 -0.11394,-0.452265 -0.13646,-0.09702 -0.24934,-0.241848 -0.40937,-0.291058 -0.69719,-0.214373 -1.27429,0.712674 -1.5272,1.205061 0.0184,0.249097 -0.1036,0.554529 0.0553,0.747289 0.14362,0.174292 0.44,0.140454 0.66546,0.127304 0.10334,-0.006 0.17771,-0.109222 0.25245,-0.180832 0.25671,-0.245938 0.38839,-0.584023 0.51779,-0.905568 0.22387,-0.670735 -0.72469,-0.987332 -0.94856,-0.3166 z" />
    <path
       style="fill:#0000ff;stroke-width:0.264583"
       id="path6038"
       d="m 119.14139,71.471081 c 0.0887,-0.251621 0.0233,-0.639686 0.21643,-0.85666 0.0187,-0.02101 0.006,0.06965 -0.0189,0.08223 -0.3718,0.185822 -0.31179,0.163417 -0.57509,0.03485 -0.36444,-0.379698 0.91392,-0.828439 0.79001,0.187439 -0.26764,0.363847 -0.49974,0.09178 -0.69415,-0.126645 -0.0192,-0.02162 -0.0489,-0.05621 -0.0329,-0.08031 0.0335,-0.05045 0.0771,-0.09341 0.11561,-0.140118 0.59303,-0.111975 0.28752,-0.167013 0.70299,0.610774 0.33203,-0.624302 -0.55087,-1.093864 -0.8829,-0.469561 v 0 c 0.35805,0.891683 0.0355,0.810744 0.6948,0.716047 0.077,-0.06981 0.16661,-0.127868 0.23103,-0.209441 0.0904,-0.114472 0.19776,-0.435118 0.16183,-0.565185 -0.13184,-0.477236 -0.30587,-0.636674 -0.79825,-0.54429 -0.11429,0.02146 -0.19232,0.13077 -0.28848,0.196157 -0.20457,0.417968 -0.45731,0.642043 0.30589,0.996273 0.2534,0.11761 0.5309,-0.253077 0.59227,-0.433785 0.0357,-0.105092 0.0529,-0.219032 0.0459,-0.329795 -0.007,-0.111903 -0.0585,-0.216503 -0.0877,-0.324757 -0.10978,-0.110903 -0.18013,-0.28701 -0.32933,-0.332709 -0.90825,-0.278169 -1.03989,0.826294 -1.1328,1.410425 -0.12662,0.695677 0.85721,0.874747 0.98384,0.17907 z" />
    <path
       style="fill:#0000ff;stroke-width:0.264583"
       id="path6040"
       d="m 122.48353,65.89426 c -0.38164,-0.423685 -0.86995,-1.118558 -1.45491,-0.246891 -0.17602,0.262298 0.24892,0.797581 0.3629,0.972749 0.3786,0.396113 1.02512,1.037378 1.58946,0.443119 0.26894,-0.283186 0.14523,-0.616995 0.0893,-0.921724 -0.0465,-0.108945 -0.0918,-0.218406 -0.13956,-0.326832 -0.038,-0.08628 -0.11233,-0.252894 -0.16995,-0.336764 -0.0183,-0.0266 0.0698,0.07134 0.0418,0.08735 -0.86149,0.492247 -0.70848,0.666197 -0.93649,0.367999 0.0525,0.705157 1.04971,0.630954 0.99724,-0.0742 v 0 c -0.0945,-0.554156 0.01,-0.502057 -1.03117,-0.05235 -0.0253,0.01093 0.2562,0.551005 0.26677,0.572222 0.0153,0.02995 0.0126,0.09498 0.0458,0.08984 0.0588,-0.0091 0.0895,-0.07848 0.13431,-0.117727 0.11824,-0.0098 0.23648,-0.0195 0.35473,-0.02926 0.013,1.8e-5 -0.0133,0.03469 -0.0254,0.02974 -0.0683,-0.02802 -0.12923,-0.07231 -0.18776,-0.117224 -0.0746,-0.05723 -0.1401,-0.125412 -0.21015,-0.188116 -0.0486,-0.05963 -0.0756,-0.147637 -0.14585,-0.1789 -0.0343,-0.01524 -0.046,0.06511 -0.0813,0.07788 -0.2213,0.08003 -0.45165,0.132403 -0.67802,0.196736 -0.0108,0.0031 0.0225,-0.02005 0.0311,-0.01288 0.0724,0.06058 0.13252,0.134522 0.19688,0.203592 0.0824,0.0884 0.16216,0.179165 0.24324,0.268748 0.5,0.499999 1.20711,-0.207108 0.70711,-0.707107 z" />
    <path
       style="fill:#0000ff;stroke-width:0.264583"
       id="path6042"
       d="m 121.17821,61.867918 c 0.0777,0.111673 0.13803,0.237781 0.23321,0.335016 0.43917,0.448643 0.95278,0.447159 1.36503,-0.06368 0.24031,-0.297781 0.18958,-0.586237 0.19434,-0.928833 -0.044,-0.125971 -0.0411,-0.280228 -0.13199,-0.377907 -0.40257,-0.432604 -0.65861,-0.398097 -1.09387,-0.0061 -0.26843,0.241753 -0.26847,0.816054 -0.2577,1.139063 0.10595,0.468249 0.006,0.07663 0.12677,0.448331 0.0106,0.03261 -0.0254,-0.0637 -0.0381,-0.09556 -0.0387,0.706046 0.95975,0.760839 0.9985,0.05479 v 0 c -0.0173,-0.209193 -0.012,-0.308938 -0.0897,-0.478449 -0.0305,-0.170328 -0.0281,-0.0956 -0.008,-0.293563 0.004,-0.03614 0.0486,-0.09754 0.0138,-0.108077 -0.10317,-0.03126 -0.22474,0.05855 -0.32308,0.01439 -0.095,-0.04266 -0.37241,-0.358447 -0.19513,-0.243961 0.0122,0.037 0.0291,0.07278 0.0366,0.111014 0.007,0.03773 -0.0215,0.08993 0.008,0.115072 0.0392,0.03386 0.10619,0.003 0.15342,0.02416 0.21999,0.09881 0.0796,0.198395 -0.0777,-0.05181 -0.28716,-0.646173 -1.20099,-0.240072 -0.91383,0.406101 z" />
    <path
       style="fill:#0000ff;stroke-width:0.264583"
       id="path6044"
       d="m 114.44684,59.182667 c 0.3402,0.176649 0.71165,0.315855 1.10299,0.274831 0.0926,-0.0097 0.20218,-0.0072 0.27034,-0.07074 0.14443,-0.134509 0.33416,-0.292899 0.33199,-0.490247 -0.002,-0.213521 -0.22887,-0.360563 -0.34331,-0.540845 -0.1043,-0.02363 -0.20633,-0.07989 -0.31289,-0.07088 -0.42956,0.03628 -0.60278,0.268417 -0.54647,0.764569 0.0154,0.135442 0.18243,0.202599 0.27364,0.303897 0.58601,0.395722 1.14564,-0.433017 0.55963,-0.828738 v 0 c 0.0368,0.06452 0.12036,0.119999 0.11026,0.193566 -0.051,0.372126 -0.20711,0.706962 -0.5776,0.507376 -0.0525,-0.145158 -0.18842,-0.284221 -0.15757,-0.435475 0.031,-0.151932 0.20065,-0.237757 0.31603,-0.341344 0.0136,-0.0122 0.0698,-1.51e-4 0.0541,0.0091 -0.0724,0.04251 -0.26769,-0.0079 -0.30618,-0.01971 -0.0847,-0.02611 -0.16335,-0.06896 -0.24503,-0.103434 -0.59967,-0.374687 -1.12956,0.473382 -0.52988,0.848069 z" />
    <path
       style="fill:#0000ff;stroke-width:0.264583"
       id="path6046"
       d="m 118.74435,58.788613 c 0.16272,-0.212609 0.63963,-1.056714 0.22726,-1.280181 -0.65022,-0.352354 -0.71371,-0.106493 -1.00391,0.244139 -0.25832,0.529865 -0.28868,1.070459 0.40677,1.300022 0.24617,0.08126 0.53039,-0.08318 0.73945,-0.174628 0.0878,-0.07185 0.18793,-0.130857 0.26345,-0.215537 0.27254,-0.305605 0.30519,-0.762389 -0.0537,-1.034511 -0.22244,-0.168682 -0.40599,-0.121621 -0.63965,-0.101774 -0.18795,0.04898 -0.52004,0.103595 -0.51542,0.393012 0.004,0.247504 0.23,0.438687 0.3569,0.651224 0.0172,0.02882 0.0787,0.02286 0.0242,0.0249 0.54564,0.449752 1.18168,-0.321902 0.63604,-0.771652 v 0 c -0.17991,-0.129511 -0.31427,-0.232836 -0.30512,-0.188071 0.0433,0.211924 0.25575,0.389591 0.23495,0.604896 -0.0106,0.110209 -0.46461,0.373486 -0.29933,0.276902 0.0961,-0.05182 -0.0226,0.02334 -0.12971,-0.118689 -0.0517,-0.06857 -0.0907,-0.152728 -0.0979,-0.238308 -0.0176,-0.210859 0.10528,-0.233129 0.10785,-0.230354 0.0122,0.01323 -0.0145,0.033 -0.0217,0.0495 -0.0292,0.01966 -0.073,0.02694 -0.0876,0.05897 -0.008,0.01852 0.0274,0.03018 0.0396,0.04648 0.0642,0.08587 0.14074,0.164378 0.1894,0.259898 0.03,0.05897 -0.0528,0.108415 -0.0488,0.06608 0.004,-0.04144 0.0277,-0.07849 0.0416,-0.117734 -0.22307,0.007 -0.38286,0.01823 -0.62795,-0.172432 -0.25471,-0.198135 0.0728,-0.482584 -0.0933,-0.15241 -0.0296,0.05882 -0.0682,0.112696 -0.10222,0.169045 -0.46048,0.53662 0.29842,1.187831 0.7589,0.651208 z" />
    <path
       style="fill:#0000ff;stroke-width:0.264583"
       id="path6048"
       d="m 146.1403,34.502085 c -0.31109,2.501271 -0.73032,4.993794 -0.72669,7.52057 0.0493,0.578019 -0.0587,0.638403 1.05079,0.369544 0.10366,-0.02511 0.0687,-0.201944 0.10313,-0.302917 0.21217,-0.674523 -0.74175,-0.974584 -0.95392,-0.300061 v 0 c -0.0124,0.04766 -0.0796,0.118131 -0.0371,0.14297 0.95897,0.560311 0.88722,0.594329 0.83712,0.08821 -0.008,-2.495749 0.42352,-4.956675 0.72259,-7.427701 0.0641,-0.704196 -0.93181,-0.794814 -0.99589,-0.09061 z" />
    <path
       style="fill:#0000ff;stroke-width:0.264583"
       id="path6050"
       d="m 146.89978,39.143525 c 1.45897,-0.175194 2.9293,0.02141 4.3925,0.03337 0.54948,-0.05644 0.2784,0.02096 0.8061,-0.255849 0.57527,-0.411184 -0.006,-1.22473 -0.5815,-0.813549 v 0 c 0.14105,0.08161 0.0834,0.03204 -0.21727,0.06942 -1.53086,-0.0098 -3.07054,-0.225341 -4.5958,-0.014 -0.6934,0.138571 -0.49743,1.11918 0.19597,0.98061 z" />
    <path
       style="fill:#0000ff;stroke-width:0.264583"
       id="path6052"
       d="m 151.82061,34.316851 c -0.79016,2.305187 -1.27448,4.705572 -1.66174,7.10766 -0.0273,0.271087 -0.13427,1.016413 0.0964,1.270953 0.31215,0.344392 0.51734,0.386866 0.93999,0.195299 0.11998,-0.05438 0.19728,-0.174611 0.29593,-0.261916 0.49391,-0.506013 -0.2217,-1.204513 -0.71561,-0.6985 v 0 c -0.0532,0.159192 -0.0122,-0.03245 0.19256,0.104929 0.0819,0.05493 0.13351,0.146065 0.18878,0.227716 0.005,0.008 -0.0184,0.02914 -0.0212,0.01987 -0.0192,-0.06314 -0.0331,-0.129357 -0.0321,-0.195336 0.002,-0.168588 0.0283,-0.336021 0.0425,-0.504029 0.37474,-2.329677 0.84395,-4.657281 1.60289,-6.895137 0.2627,-0.656497 -0.66572,-1.028012 -0.92842,-0.371517 z" />
    <path
       style="fill:#0000ff;stroke-width:0.264583"
       id="path6054"
       d="m 153.6537,39.546475 c 0.3995,0.222848 0.66057,0.398037 1.12459,0.513017 0.82182,0.203636 1.73387,0.167576 2.4973,-0.22769 0.24933,-0.129093 0.45487,-0.329253 0.68231,-0.493877 0.29394,-0.43021 0.70502,-0.80985 0.52811,-1.41325 -0.19965,-0.680988 -0.76025,-0.933935 -1.41955,-0.934294 -0.90004,-5.3e-4 -1.25238,0.385693 -1.96916,0.850976 -0.25938,0.301133 -0.55455,0.574813 -0.77813,0.903399 -0.4484,0.658976 -0.75903,1.435185 -0.87865,2.224048 -0.10019,0.660717 -0.093,1.384342 0.35569,1.941626 0.19847,0.246494 0.5182,0.363416 0.77729,0.545124 0.31792,0.03879 0.63356,0.123179 0.95377,0.116369 0.72589,-0.01545 2.07005,-0.469906 2.66122,-0.940202 0.10154,-0.08078 0.18057,-0.186373 0.27085,-0.279559 0.46878,-0.529386 -0.27989,-1.192334 -0.74866,-0.662948 v 0 c -0.18346,0.27504 -0.55601,0.40377 -0.84482,0.520067 -0.57474,0.231439 -1.16685,0.415521 -1.79429,0.379133 -0.12581,-0.03937 -0.27744,-0.0322 -0.37743,-0.118113 -0.37306,-0.320572 -0.34168,-0.811443 -0.28589,-1.2495 0.12541,-0.984753 0.59237,-1.831983 1.25409,-2.55438 0.21808,-0.160774 0.41657,-0.352227 0.65423,-0.482322 0.40421,-0.221264 0.57299,-0.19738 0.96896,-0.241623 0.067,-0.0075 0.14712,-0.06791 0.20053,-0.02674 0.22355,0.172341 -0.0849,0.532069 -0.13576,0.627946 -0.14017,0.116602 -0.26325,0.257548 -0.42051,0.349805 -0.53063,0.311293 -1.21017,0.360876 -1.80163,0.229201 -0.37862,-0.08429 -0.59264,-0.228711 -0.92009,-0.40849 -0.58851,-0.391996 -1.14288,0.440277 -0.55437,0.832273 z" />
    <path
       style="fill:#0000ff;stroke-width:0.264583"
       id="path6056"
       d="m 164.73076,41.049462 c 0.10234,-0.472543 0.29018,-1.597919 -0.42873,-1.761763 -0.23193,-0.05286 -0.49543,0.02617 -0.69725,0.152086 -0.17325,0.108092 -0.23407,0.334676 -0.3511,0.502015 -0.0332,0.193661 -0.10314,0.38454 -0.0994,0.58098 0.0108,0.570947 0.35418,1.140092 0.90697,1.336108 0.42345,0.150152 0.58241,0.04163 0.97217,-0.07255 0.12653,-0.125928 0.2871,-0.225097 0.37959,-0.377788 0.23029,-0.380201 0.13621,-0.909923 -0.14781,-1.231743 -0.073,-0.08268 -0.15188,-0.197967 -0.26208,-0.201838 -0.22778,-0.008 -0.44164,0.112903 -0.66246,0.169357 -0.0373,0.121156 -0.0746,0.242314 -0.11186,0.363472 -0.0112,0.707017 0.98863,0.722921 0.99988,0.0159 v 0 c -0.0367,0.08298 -0.0734,0.165952 -0.11005,0.248925 -0.19722,0.02723 -0.39268,0.08819 -0.59166,0.0817 -0.0438,-0.0013 -0.0636,-0.0633 -0.0807,-0.103611 -0.007,-0.01765 0.0315,0.02244 0.0493,0.02947 0.0616,0.02429 0.13222,0.03205 0.19023,0.06852 -0.0547,0.04128 -0.0984,0.109384 -0.16589,0.121582 -0.28755,0.05199 -0.39037,-0.345387 -0.3883,-0.549675 -0.0215,-0.302228 0.0429,0.07696 -0.27204,-0.23613 -0.0598,-0.05944 -0.0592,-0.157906 -0.0872,-0.237447 -0.0187,-0.05325 0.0524,0.102563 0.0594,0.15857 0.0314,0.249457 -0.0164,0.410482 -0.0588,0.656306 -0.20333,0.677241 0.75444,0.964796 0.95777,0.287552 z" />
    <path
       style="fill:#0000ff;stroke-width:0.264583"
       id="path6058"
       d="m 163.15982,36.927002 c 0.11287,0.103302 0.21164,0.224526 0.33861,0.309907 0.5475,0.368152 1.43401,0.512445 1.87554,-0.116613 0.10178,-0.145013 0.11385,-0.335547 0.17078,-0.503322 -0.0263,-0.15948 -0.015,-0.329922 -0.0788,-0.478446 -0.2408,-0.560977 -0.8107,-0.676037 -1.32069,-0.407855 -0.35311,0.185687 -0.39535,0.373594 -0.57683,0.700074 -0.0241,0.12791 -0.097,0.255929 -0.0723,0.383728 0.0975,0.504812 0.30454,0.692711 0.8301,0.694283 0.44493,0.0013 0.76338,-0.407202 0.99689,-0.718384 0.0367,-0.123312 0.1216,-0.241808 0.11003,-0.369938 -0.0453,-0.501404 -0.25872,-0.635915 -0.76224,-0.608081 -0.11423,0.0063 -0.19804,0.114586 -0.29706,0.171879 -0.56554,0.42446 0.0347,1.224253 0.60027,0.799793 v 0 c -0.1968,0.0013 -0.85633,-0.251587 -0.47087,-0.566203 -0.0294,0.05122 -0.18918,0.250724 -0.16413,0.291015 0.18327,0.294822 0.15946,-0.0024 0.14929,0.42963 -7.9e-4,0.02867 -0.009,-0.05661 -0.0138,-0.08492 0.005,-0.03596 0.003,-0.07341 0.0145,-0.107881 0.0184,-0.05602 0.0802,-0.0966 0.0526,-0.163536 -0.0188,-0.04557 -0.068,-0.07708 -0.0787,-0.125183 -0.0193,-0.08685 0.0919,-0.03336 0.1001,-0.0309 0.008,0.0029 0.15131,0.0502 0.14273,0.06821 -0.0203,0.04266 -0.0799,0.05517 -0.12618,0.06462 -0.24197,0.04936 -0.4511,-0.07376 -0.61983,-0.231812 -0.42422,-0.565719 -1.22426,0.03422 -0.80004,0.599937 z" />
  </g>
</svg>
