<?xml version="1.0" encoding="UTF-8" standalone="no"?>
<!-- Created with Inkscape (http://www.inkscape.org/) -->

<svg
   width="124.72264mm"
   height="46.355606mm"
   viewBox="0 0 124.72264 46.355606"
   version="1.1"
   id="svg5"
   sodipodi:docname="molekül-örneği.svg"
   inkscape:version="1.2.2 (b0a8486541, 2022-12-01)"
   xmlns:inkscape="http://www.inkscape.org/namespaces/inkscape"
   xmlns:sodipodi="http://sodipodi.sourceforge.net/DTD/sodipodi-0.dtd"
   xmlns="http://www.w3.org/2000/svg"
   xmlns:svg="http://www.w3.org/2000/svg">
  <sodipodi:namedview
     id="namedview7"
     pagecolor="#ffffff"
     bordercolor="#000000"
     borderopacity="0.25"
     inkscape:showpageshadow="2"
     inkscape:pageopacity="0.0"
     inkscape:pagecheckerboard="0"
     inkscape:deskcolor="#d1d1d1"
     inkscape:document-units="mm"
     showgrid="false"
     inkscape:zoom="2.071332"
     inkscape:cx="288.22033"
     inkscape:cy="136.14428"
     inkscape:window-width="1916"
     inkscape:window-height="1026"
     inkscape:window-x="0"
     inkscape:window-y="0"
     inkscape:window-maximized="1"
     inkscape:current-layer="layer1" />
  <defs
     id="defs2" />
  <g
     inkscape:label="Layer 1"
     inkscape:groupmode="layer"
     id="layer1"
     transform="translate(-35.635725,-5.1655092)">
    <path
       style="fill:#0000ff;stroke-width:0.264583"
       id="path493"
       d="m 39.66126,23.808301 c -0.873476,0.355973 -1.63034,0.84327 -1.580217,1.936182 0.05055,1.102211 1.264662,2.540321 1.879504,3.407969 0.201928,0.360541 0.45052,0.698663 0.605784,1.081622 0.525724,1.296691 0.234083,2.856027 -0.937257,3.710079 -0.226818,0.165379 -0.51186,0.230619 -0.76779,0.345929 -0.250936,6.51e-4 -0.508968,0.06122 -0.752806,0.002 -0.978872,-0.237905 -1.202926,-1.486471 -0.847902,-2.29225 0.08797,-0.199665 0.258206,-0.351781 0.387309,-0.527672 1.525573,-1.088688 3.742891,-1.201669 5.105803,-2.532158 0.304252,-0.297015 0.490564,-0.69462 0.735846,-1.04193 -0.0079,-0.471451 0.166953,-0.983083 -0.02367,-1.414352 -0.892447,-2.019142 -3.590054,-2.503303 -5.510521,-2.319767 -0.655449,0.06264 -1.277252,0.320592 -1.915877,0.480888 -0.684103,0.178896 -0.431105,1.146363 0.252998,0.967467 v 0 c 0.546225,-0.14955 1.076496,-0.380232 1.638677,-0.448648 1.353214,-0.164685 2.395849,-0.02025 3.601075,0.620523 0.362057,0.192491 0.698452,0.462943 0.938268,0.795548 0.153391,0.21274 0.124326,0.509599 0.186489,0.764399 -0.157296,0.257753 -0.259951,0.558176 -0.471891,0.773258 -0.268957,0.272946 -0.606937,0.47259 -0.940902,0.660487 -1.439952,0.810152 -3.204011,0.970029 -4.436975,2.152746 -0.177387,0.299899 -0.418163,0.570441 -0.532162,0.899698 -0.36057,1.041416 -0.09132,2.366195 0.832029,3.04496 0.828914,0.609347 1.272719,0.395286 2.20183,0.30907 0.354247,-0.190128 0.750218,-0.317463 1.06274,-0.570385 1.485398,-1.202124 1.768669,-3.171534 1.066097,-4.870396 -0.171153,-0.413859 -0.44096,-0.779644 -0.66144,-1.169465 -0.241499,-0.34041 -1.167114,-1.624702 -1.406881,-2.035781 -0.09529,-0.163369 -0.447246,-0.813479 -0.33689,-1.107484 0.145351,-0.387236 0.663004,-0.53705 0.970389,-0.682669 0.664555,-0.241592 0.322893,-1.181414 -0.341662,-0.939823 z" />
    <path
       style="fill:#0000ff;stroke-width:0.264583"
       id="path495"
       d="m 49.834524,10.159859 c -0.179022,0.257581 -0.379357,0.501589 -0.537066,0.772743 -1.317025,2.264397 -2.169064,4.877698 -2.423309,7.486113 -0.06897,0.707573 -0.03613,1.421393 -0.0542,2.13209 0.09706,0.657405 0.126682,1.328365 0.291184,1.972214 0.390467,1.528254 1.286986,3.174905 2.851651,3.7764 1.304431,0.501454 1.789081,0.165773 3.091384,-0.145946 0.539694,-0.340738 1.128972,-0.613358 1.619082,-1.022215 1.67653,-1.398591 2.961265,-3.648177 3.244745,-5.821281 0.299413,-2.295217 -0.12436,-2.986577 -0.725038,-5.144641 -0.467175,-0.681968 -0.792046,-1.487452 -1.401525,-2.045904 -1.342287,-1.229907 -2.968633,-1.601902 -4.736597,-1.183796 -1.929739,0.456365 -3.063059,1.645053 -4.518178,2.834388 -0.545237,0.45024 0.0915,1.221322 0.636737,0.771081 v 0 c 1.229646,-1.026863 2.303825,-2.139848 3.908608,-2.605838 1.391649,-0.4041 2.775398,-0.205853 3.890785,0.758464 0.542706,0.469202 0.839018,1.163945 1.258529,1.745918 0.554712,1.893518 0.960509,2.57523 0.725172,4.595546 -0.231471,1.987139 -1.336269,3.948098 -2.828176,5.257586 -0.401174,0.352122 -0.885875,0.595776 -1.328813,0.893664 -0.912335,0.269038 -1.365895,0.567147 -2.310121,0.262857 -1.3192,-0.425132 -2.060997,-1.835805 -2.389526,-3.076063 -0.155431,-0.586783 -0.186779,-1.199585 -0.280169,-1.799377 0.01363,-0.663652 -0.0214,-1.330093 0.04089,-1.990955 0.232355,-2.465081 1.029862,-4.934839 2.259679,-7.081971 0.138645,-0.242059 0.315583,-0.460074 0.473375,-0.690111 0.460303,-0.536769 -0.298804,-1.1877355 -0.759107,-0.650966 z" />
    <path
       style="fill:#0000ff;stroke-width:0.264583"
       id="path497"
       d="m 67.983823,21.124961 c 0.539639,-0.337322 1.811464,-1.471373 2.512464,-1.172163 0.171162,0.07306 0.0763,0.556376 0.07271,0.605396 -0.06279,0.232333 -0.09959,0.473304 -0.188368,0.696999 -0.433477,1.092245 -1.20805,2.277622 -2.401295,2.627015 -0.158739,0.04648 -0.32925,0.03211 -0.493874,0.04816 -0.09216,-0.0195 -0.289163,-0.151837 -0.276468,-0.0585 0.01413,0.103921 0.255513,0.03029 0.286269,0.130557 0.07349,0.239597 -0.177872,0.560644 -0.01566,0.75168 0.141124,0.1662 0.436206,-0.0077 0.654095,2.06e-4 0.802918,0.02908 1.037865,0.07408 1.857693,0.169667 0.970327,0.170926 1.922042,0.0589 2.882495,-0.08867 0.698497,-0.110007 0.542925,-1.097832 -0.155572,-0.987825 v 0 c -0.871482,0.141103 -1.729807,0.243321 -2.61184,0.08314 -0.85126,-0.09803 -1.136698,-0.149766 -1.975406,-0.176308 -0.692118,-0.0219 -1.179594,-0.141545 -1.456856,0.818966 -0.0938,0.324934 0.965641,0.356531 0.953447,0.346926 0.260466,-0.04501 0.531429,-0.04911 0.781399,-0.135038 1.408864,-0.484304 2.517082,-1.947485 2.951279,-3.329521 0.113429,-0.361049 0.122327,-0.746945 0.183491,-1.120417 -0.109828,-0.313844 -0.124822,-0.679474 -0.329483,-0.941531 -0.990581,-1.268378 -2.93602,0.308544 -3.803703,0.911833 -0.579424,0.405302 -0.0062,1.224729 0.573183,0.819427 z" />
    <path
       style="fill:#0000ff;stroke-width:0.264583"
       id="path503"
       d="m 74.435767,10.314697 c 0.370758,2.372657 0.640336,4.94525 0.355687,7.338818 -0.05709,0.480046 -0.178255,0.950284 -0.26738,1.425426 -0.305049,0.985189 -0.825767,2.486913 -2.119281,2.437937 -0.106537,-0.004 -0.208534,-0.0445 -0.312798,-0.06675 -0.186632,-0.06826 -0.38191,-0.132607 -0.559107,-0.224602 -0.03544,-0.0184 -0.119462,-0.103719 -0.09641,-0.07111 0.049,0.06931 0.162184,0.100168 0.176138,0.183893 0.02688,0.161296 -0.11712,0.331515 -0.06443,0.486315 0.02341,0.06878 0.135072,-0.05358 0.202607,-0.08037 0.648433,-0.282023 0.249592,-1.199043 -0.398841,-0.91702 v 0 c -0.407889,0.186415 -0.61981,0.195167 -0.688657,0.825384 -0.04456,0.407859 1.048819,0.716385 1.287116,0.787434 0.202678,0.02165 0.404428,0.07453 0.608036,0.06495 1.209159,-0.05687 2.065147,-0.986961 2.534708,-2.029536 0.175689,-0.390083 0.276172,-0.809849 0.414258,-1.214773 0.09411,-0.516211 0.221528,-1.027447 0.282321,-1.548633 0.244534,-2.096438 0.07707,-4.592973 -0.215548,-6.686855 -0.04678,-0.334722 -0.120369,-0.665146 -0.180557,-0.997719 -0.203086,-0.6773149 -1.160954,-0.3901044 -0.957865,0.28721 z" />
    <path
       style="fill:#0000ff;stroke-width:0.264583"
       id="path505"
       d="m 84.107409,17.033551 c -1.286756,0.956458 -2.710773,2.43068 -3.156939,4.012192 -0.08294,0.294011 -0.08392,0.605183 -0.125876,0.907775 0.08531,0.28461 0.09964,0.601135 0.255934,0.85383 0.702188,1.135337 2.358991,1.205092 3.485018,0.827172 0.29991,-0.100657 0.568309,-0.278097 0.852463,-0.417145 0.204404,-0.190863 0.471321,-0.331598 0.613209,-0.57259 0.516078,-0.876541 0.140063,-1.905774 -0.676844,-2.431021 -0.704585,-0.453027 -1.101714,-0.352657 -1.885248,-0.366197 -0.599268,0.178033 -0.895422,0.189088 -1.366023,0.580156 -0.127892,0.106279 -0.212603,0.255749 -0.318905,0.383624 -0.414922,0.572572 0.394817,1.159362 0.809742,0.58679 v 0 c 0.146063,-0.350809 0.563763,-0.432565 0.885428,-0.550623 0.486174,-0.02511 0.744127,-0.09954 1.201737,0.105647 0.251989,0.11299 0.805733,0.626052 0.6477,0.979853 -0.07317,0.163823 -0.244327,0.262817 -0.366493,0.394226 -0.201898,0.109783 -0.390498,0.2487 -0.605697,0.32935 -0.631621,0.23671 -1.342729,0.26502 -1.973138,0.01742 -0.130702,-0.05133 -0.268195,-0.109155 -0.364302,-0.211536 -0.100402,-0.106958 -0.134356,-0.260829 -0.201534,-0.391244 0.01947,-0.215643 0.0041,-0.437334 0.05841,-0.64693 0.360011,-1.389111 1.621882,-2.656378 2.716871,-3.516516 0.618175,-0.34331 0.13266,-1.217539 -0.485513,-0.874229 z" />
    <path
       style="fill:#0000ff;stroke-width:0.264583"
       id="path507"
       d="m 87.656218,10.870706 c 0.907047,2.200425 1.387827,4.647 0.980421,7.021879 -0.07537,0.439328 -0.233833,0.860279 -0.35075,1.290418 -0.327597,0.661393 -0.40359,0.986171 -0.905804,1.476838 -0.101147,0.09882 -0.229179,0.167532 -0.354533,0.232977 -0.05433,0.02837 -0.237858,0.03094 -0.178242,0.04518 0.590002,0.140843 -0.178478,-0.870038 0.568891,0.686463 0.07183,-0.05401 0.143663,-0.10801 0.215492,-0.162016 0.560959,-0.430497 -0.04786,-1.223809 -0.608814,-0.793312 v 0 c -0.09802,0.07634 -0.196043,0.152691 -0.294063,0.229036 0.02733,0.323697 -0.05675,0.677364 0.082,0.971091 0.0907,0.192008 0.791689,-0.160615 0.801195,-0.166458 0.845926,-0.519873 1.276782,-1.36956 1.640332,-2.262949 0.126873,-0.487191 0.298951,-0.964801 0.380622,-1.461572 0.424648,-2.58301 -0.09778,-5.243866 -1.11928,-7.622116 -0.363839,-0.6063183 -1.221301,-0.09177 -0.857464,0.514545 z" />
    <path
       style="fill:#0000ff;stroke-width:0.264583"
       id="path511"
       d="m 124.0845,10.222667 c -0.57392,-0.84574 -1.29839,-1.5344247 -2.35345,-1.7214145 -0.41721,-0.073943 -0.85902,-0.1002173 -1.27113,-0.00175 -1.31297,0.3137003 -1.67878,0.9172164 -2.62434,1.8172085 -1.2183,1.679706 -1.95054,3.611379 -2.30614,5.649991 -0.17618,1.010004 -0.29883,2.496159 -0.0522,3.536242 0.11221,0.473168 0.37631,0.896831 0.56447,1.345246 0.31389,0.317647 0.56772,0.708854 0.94168,0.952942 1.7182,1.121472 4.05554,0.474282 5.61391,-0.596677 0.43907,-0.301744 0.80309,-0.700279 1.20463,-1.050418 0.30974,-0.458759 0.69515,-0.874671 0.92923,-1.376274 0.95494,-2.046328 0.95609,-5.325749 -0.43296,-7.193394 -0.34776,-0.467573 -0.87409,-0.770852 -1.31113,-1.156278 -1.63529,-0.411318 -1.73732,-0.6917191 -3.40226,-0.08706 -0.49514,0.179819 -0.91462,0.522942 -1.37193,0.784413 -0.60833,0.360461 -0.0986,1.220772 0.50977,0.860311 v 0 c 1.44817,-0.896295 1.85909,-1.234565 3.62163,-0.791615 0.35188,0.276557 0.77751,0.479039 1.05564,0.829673 1.20878,1.523849 1.25112,4.47817 0.49676,6.202909 -0.18725,0.428129 -0.50548,0.786079 -0.75822,1.179118 -0.33848,0.30608 -0.64386,0.653312 -1.01543,0.918241 -1.17254,0.836016 -3.06456,1.523903 -4.44859,0.754249 -0.27889,-0.155093 -0.47848,-0.422374 -0.71772,-0.633561 -0.16118,-0.343916 -0.39054,-0.663498 -0.48353,-1.03175 -0.23825,-0.943427 -0.12731,-2.29624 0.0277,-3.209198 0.31455,-1.852623 0.9624,-3.624205 2.0343,-5.17261 0.6433,-0.652079 1.04692,-1.2502909 1.9489,-1.5319973 0.29162,-0.091079 0.61127,-0.088442 0.91491,-0.054683 0.81998,0.091166 1.36609,0.6231463 1.81133,1.2638183 0.34343,0.61811 1.21757,0.132435 0.87414,-0.485675 z" />
    <path
       style="fill:#0000ff;stroke-width:0.264583"
       id="path519"
       d="m 112.40371,12.919151 c 0.0476,-0.213217 0.0866,-0.478404 -0.0553,-0.672366 -0.18922,-0.258618 -0.42134,-0.370991 -0.74744,-0.263845 -0.12715,0.04178 -0.2092,0.166986 -0.31379,0.250478 -0.0427,0.10843 -0.11303,0.209734 -0.12825,0.325288 -0.0611,0.463963 0.31379,0.993276 0.815,0.959434 0.13928,-0.0094 0.26327,-0.09296 0.39491,-0.139441 0.0833,-0.107157 0.1927,-0.198351 0.24975,-0.321472 0.13139,-0.283569 0.0717,-0.675756 -0.10867,-0.924604 -0.055,-0.07595 -0.11402,-0.159234 -0.19899,-0.198965 -0.12897,-0.0603 -0.27843,-0.05958 -0.41765,-0.08937 -0.14252,0.140044 -0.32699,0.247483 -0.42757,0.420134 -0.0659,0.113151 0.0189,0.337159 0.0669,0.4524 0.0105,0.0252 0.0163,0.08947 0.0378,0.07264 0.25564,-0.20029 0.47644,-0.441453 0.71466,-0.66218 -0.53912,-0.457542 -1.18618,0.304895 -0.64706,0.762437 v 0 c 0.26944,-0.194231 0.53782,-0.38995 0.80833,-0.582694 0.002,-0.0012 7.9e-4,0.004 10e-4,0.006 0.002,0.01347 0.007,0.02681 0.006,0.04041 -0.003,0.05349 0.016,0.119329 -0.0194,0.159648 -0.11313,0.129118 -0.26819,0.21438 -0.40228,0.321569 -0.22613,-0.07176 -0.30689,-0.02245 -0.38649,-0.199145 -0.008,-0.0173 0.0206,0.0025 0.0434,-0.01017 0.0551,-0.03049 0.0857,-0.09895 0.15973,-0.100653 0.0582,-0.0018 0.11791,-0.01846 0.17464,-0.0053 0.0738,0.01714 0.14338,0.06215 0.15441,0.139077 0.002,0.01296 -0.007,0.0251 -0.0118,0.03746 -0.0109,0.03105 -0.0166,0.06466 -0.0338,0.09273 -0.0179,0.02926 -0.0462,0.05066 -0.0694,0.076 -0.17376,0.0763 -0.23636,0.142121 -0.44898,0.02312 -0.0727,-0.0407 -0.11929,-0.119593 -0.15931,-0.192701 -0.0194,-0.03547 -0.0127,-0.08026 -0.0122,-0.1207 6e-5,-0.0052 0.0134,-0.01286 0.0137,-0.0076 10e-4,0.02184 -0.007,0.04326 -0.01,0.06489 -0.20333,0.677242 0.75443,0.964796 0.95777,0.287554 z" />
    <path
       style="fill:#0000ff;stroke-width:0.264583"
       id="path521"
       d="m 111.68025,18.871946 c -0.0961,0.132302 -0.2391,0.277675 -0.22689,0.463051 0.0257,0.39071 0.16399,0.593404 0.61616,0.615323 0.30731,0.0149 0.42562,-0.253413 0.56119,-0.447144 0.0231,-0.0986 0.0605,-0.19492 0.0694,-0.295806 0.0335,-0.378298 -0.17385,-0.750493 -0.61362,-0.780567 -0.38067,-0.02603 -0.46779,0.248363 -0.61195,0.487921 -0.0148,0.09698 -0.0475,0.192902 -0.0443,0.290951 0.0121,0.370625 0.2799,0.718642 0.69002,0.678294 0.33615,-0.03307 0.37099,-0.185269 0.51515,-0.413449 0.005,-0.111214 0.0378,-0.224402 0.0162,-0.333645 -0.0353,-0.179038 -0.1711,-0.334743 -0.33088,-0.413551 -0.073,-0.036 -0.15478,-0.06487 -0.23611,-0.06204 -0.19662,0.0068 -0.42338,0.140525 -0.30934,0.07408 -0.62908,0.322883 -0.17246,1.212542 0.45663,0.889658 v 0 c 0.0121,-0.0065 0.05,-0.02141 0.0363,-0.01954 -0.21148,0.02911 -0.2508,0.102318 -0.42347,-0.0027 -0.0426,-0.02587 -0.0816,-0.06105 -0.10788,-0.103334 -0.10786,-0.173474 -0.0645,-0.203805 -0.0309,-0.398102 0.0368,-0.04461 0.0604,-0.104845 0.11043,-0.133826 0.0797,-0.04615 0.17159,-0.08607 0.26364,-0.08276 0.17552,0.0063 0.41219,0.175996 0.34853,0.377254 -0.005,0.01443 -0.0199,0.02285 -0.0298,0.03428 -0.0288,0.02434 -0.0508,0.06049 -0.0864,0.07303 -0.0896,0.03161 -0.18878,0.08417 -0.27956,0.05603 -0.17497,-0.05424 -0.34952,-0.155889 -0.34101,-0.335139 5.3e-4,-0.01334 0.0448,-0.04032 0.0489,-0.04326 0.0803,-0.05431 0.17083,-0.130368 0.28318,-0.09561 0.13543,0.04189 0.27782,0.106214 0.3653,0.217764 0.0908,0.115803 0.0899,0.298552 0.005,0.410866 -0.0164,0.02161 -0.0421,0.03416 -0.0632,0.05125 0.5369,-0.460154 -0.11386,-1.219441 -0.65075,-0.759287 z" />
    <path
       style="fill:#0000ff;stroke-width:0.264583"
       id="path523"
       d="m 120.52158,25.0568 c -0.0186,-0.178614 -0.0112,-0.347631 -0.13448,-0.499462 -0.1864,-0.229669 -0.42329,-0.366625 -0.73661,-0.24444 -0.35422,0.138136 -0.32795,0.341517 -0.3859,0.632114 0.0605,0.231599 0.054,0.358951 0.2461,0.523507 0.31043,0.265985 0.67763,0.243187 0.95822,-0.06778 0.072,-0.07983 0.0814,-0.199065 0.12205,-0.298597 0.001,-0.07792 0.0176,-0.157198 0.003,-0.233756 -0.0385,-0.202681 -0.17455,-0.483609 -0.42479,-0.508612 -0.18484,-0.01847 -0.37891,0.05546 -0.5349,0.156333 -0.15974,0.103293 -0.15481,0.339498 -0.1694,0.4967 10e-4,0.01023 0.0321,0.334559 0.0823,0.311482 0.30095,-0.13824 0.58345,-0.331731 0.81443,-0.569079 0.01,-0.0098 -0.26416,-0.210863 -0.0809,-0.07484 -0.49398,-0.505947 -1.2095,0.192649 -0.71551,0.698596 v 0 c 0.0363,0.03137 0.0651,0.07459 0.10896,0.0941 0.0365,0.01625 -0.11668,-0.05837 -0.0858,-0.08381 0.24038,-0.19823 0.88231,-0.909183 0.87653,-0.377502 -0.0222,0.07687 -0.0444,0.182921 -0.13025,0.218145 -0.14487,0.05947 -0.30814,0.113636 -0.46207,0.08486 -0.19041,-0.03559 -0.26561,-0.208621 -0.27521,-0.364255 -0.001,-0.02197 0.0114,-0.04254 0.0171,-0.06381 0.0277,-0.04082 0.0426,-0.09438 0.0832,-0.122458 0.0783,-0.05421 0.16763,-0.09826 0.26125,-0.115896 0.056,-0.01054 0.11577,0.01079 0.16724,0.03519 0.12976,0.06153 0.14716,0.156502 0.13829,0.280536 -0.0208,0.04672 -0.0261,0.104194 -0.0625,0.140159 -0.17049,0.168529 -0.31085,0.224271 -0.54373,0.11061 -0.0669,-0.03264 -0.10453,-0.107421 -0.14432,-0.170301 -0.0276,-0.04363 -0.009,-0.05629 0.0119,-0.07838 -0.0641,0.704197 0.9318,0.794829 0.99588,0.09063 z" />
    <path
       style="fill:#0000ff;stroke-width:0.264583"
       id="path525"
       d="m 129.10771,15.236049 c -0.07,0.01118 -0.14183,0.01445 -0.21014,0.03355 -0.14696,0.04111 -0.37191,0.147541 -0.43587,0.29621 -0.15583,0.362212 -0.11421,0.64022 0.25172,0.845246 0.12055,0.06754 0.27439,0.03292 0.41159,0.04939 0.25849,-0.07667 0.34039,-0.07029 0.54964,-0.259551 0.0702,-0.06353 0.15056,-0.131488 0.17666,-0.222529 0.0461,-0.160661 0.11153,-0.354201 0.0306,-0.500467 -0.24666,-0.446108 -0.47425,-0.350874 -0.81389,-0.312985 -0.11219,0.04867 -0.32009,0.118102 -0.40699,0.225504 -0.22344,0.276164 -0.28731,0.470086 -0.0327,0.819507 0.14318,0.19651 0.37423,0.167365 0.5688,0.169733 0.0624,-0.01441 0.12632,-0.02307 0.18705,-0.04322 0.0806,-0.02675 0.29852,-0.134925 0.3182,-0.21943 0.0465,-0.199533 0.12574,-0.447552 0.007,-0.614576 -0.23716,-0.333881 -0.44239,-0.231105 -0.65786,-0.145356 0.16868,-0.06438 0.0404,-0.02653 0.40088,0.01668 -0.61333,-0.351873 -1.11096,0.51552 -0.49762,0.867393 v 0 c 0.42481,0.0737 0.25966,0.104923 0.50337,0.02953 -0.69764,0.208225 -0.61443,-0.431868 -0.53776,-0.777076 0.0121,-0.05465 0.0856,-0.07264 0.13255,-0.103121 0.0283,-0.01836 0.0463,-0.01212 0.0744,-0.0084 0.26934,0.08966 0.3516,0.273696 0.31561,0.583777 -0.01,0.08358 -0.0987,0.136427 -0.15222,0.201353 -0.006,0.007 -0.0145,-0.03599 -0.011,-0.02498 -0.14589,-0.0756 -0.27791,-0.137713 -0.34427,-0.341452 -0.0386,-0.118539 0.0388,-0.247258 0.0765,-0.366098 0.005,-0.01619 0.0293,-0.02173 0.0463,-0.02129 0.0169,4.5e-4 0.0124,0.05923 -0.009,0.04991 0.15752,0.07696 0.28792,0.109076 0.31476,0.349572 0.0295,0.2642 -0.065,0.348643 -0.23997,0.441441 -0.0249,0.01322 -0.0171,-0.01322 -0.0164,-0.01828 0.70711,0 0.70711,-1 0,-1 z" />
    <path
       style="fill:#0000ff;stroke-width:0.264583"
       id="path527"
       d="m 118.61983,6.5558792 c 0.16476,-0.044217 0.25109,-0.051628 0.3937,-0.1529609 0.0643,-0.045683 0.13018,-0.09462 0.17432,-0.1599803 0.16908,-0.2503355 0.21799,-0.5337122 -0.0662,-0.7898315 -0.12031,-0.1084236 -0.31706,-0.06627 -0.47559,-0.099404 -0.0808,0.039754 -0.16856,0.067712 -0.2424,0.1192582 -0.0591,0.041254 -0.11591,0.091948 -0.15061,0.1551094 -0.14815,0.2696289 -0.16918,0.4705217 0.0453,0.7417064 0.18669,0.2360242 0.39869,0.1681745 0.64258,0.1572049 0.0788,-0.039947 0.16645,-0.065918 0.23646,-0.1198378 0.29722,-0.2289333 0.36599,-0.6095576 0.10278,-0.9124156 -0.18382,-0.2115026 -0.35499,-0.1597289 -0.57962,-0.1486667 -0.0709,0.033888 -0.15153,0.052366 -0.21275,0.1016635 -0.0727,0.058573 -0.23546,0.2447687 -0.23512,0.3727873 1.7e-4,0.066016 0.0479,0.7854897 0.39015,0.6146827 0.26955,-0.1345222 0.37759,-0.4695032 0.56639,-0.7042547 -0.0317,-0.049231 -0.0633,-0.098459 -0.095,-0.1476904 -0.44509,-0.549447 -1.22213,0.080007 -0.77704,0.6294543 v 0 c -0.0159,-0.029766 -0.0318,-0.059531 -0.0477,-0.089297 0.19494,-0.2203529 0.31696,-0.5393637 0.58482,-0.6610588 0.338,-0.1535615 0.35566,0.4958847 0.3547,0.5745639 -0.001,0.08781 -0.13495,0.2076556 -0.1813,0.2393897 -0.038,0.026035 -0.0869,0.030649 -0.13034,0.045977 -0.15011,-0.00945 -0.26472,0.00955 -0.37256,-0.149897 -0.13376,-0.1977813 -0.15185,-0.4774195 0.0803,-0.5988764 0.0258,-0.013494 0.0567,-0.013017 0.085,-0.019526 0.13483,0.01995 0.26042,0.011113 0.34297,0.1597607 0.13427,0.2417842 0.11222,0.3396324 -0.0175,0.536911 -0.014,0.021325 -0.0391,0.034057 -0.0625,0.044323 -0.04,0.017568 -0.0836,0.025453 -0.12534,0.038166 -0.12531,-0.039976 -0.28838,-0.021749 -0.37592,-0.1199304 -0.14444,-0.1619779 -0.23845,-0.5668459 0.0336,-0.6716051 0.008,-0.00291 0.006,0.024051 0.0148,0.019235 -0.70359,0.070387 -0.60405,1.0654188 0.0995,0.9950344 z" />
    <path
       style="fill:#0000ff;stroke-width:0.264583"
       id="path529"
       d="m 123.15637,6.427641 c 0.0639,-0.035303 0.13209,-0.063833 0.19177,-0.1059127 0.249,-0.1755616 0.47589,-0.5224013 0.29001,-0.8457142 -0.21558,-0.3749595 -0.41031,-0.307848 -0.72429,-0.3026198 -0.15712,0.058854 -0.33125,0.096769 -0.43791,0.2455571 -0.16715,0.2331747 -0.22869,0.4599623 -0.0548,0.7243181 0.14182,0.2155587 0.27849,0.2169636 0.47653,0.255905 0.70327,0.073581 0.80733,-0.9209908 0.10406,-0.9945714 v 0 c 0.11666,0.038142 0.18933,0.050692 0.26457,0.2041551 0.11173,0.2278804 0.0498,0.3523245 -0.0914,0.5253064 -0.0376,0.046037 -0.0689,0.034367 -0.11047,0.027921 -0.16196,-0.046739 -0.25727,-0.056549 -0.34556,-0.2922217 -0.0695,-0.1854491 -0.0199,-0.3126555 0.10028,-0.4122367 0.008,-0.00651 0.007,0.046686 -0.004,0.03029 -0.66455,0.2415937 -0.32289,1.1814148 0.34167,0.9398238 z" />
    <path
       style="fill:#0000ff;stroke-width:0.264583"
       id="path531"
       d="m 56.851154,42.69476 c 0.06101,-0.158532 0.131953,-0.313589 0.183023,-0.475595 0.332787,-1.055672 0.564268,-2.563719 -0.265444,-3.472405 -0.252624,-0.276671 -0.620307,-0.420343 -0.93046,-0.630515 -0.424893,-0.04756 -0.848052,-0.170687 -1.274679,-0.142664 -0.459311,0.03017 -0.9216,0.133108 -1.344564,0.31471 -1.498547,0.643411 -2.758549,2.041325 -3.396262,3.522069 -0.222947,0.517673 -0.312043,1.083232 -0.468065,1.624849 -0.0037,0.540355 -0.08095,1.085222 -0.01116,1.621064 0.173899,1.335275 0.885339,2.709284 2.072351,3.413623 0.32245,0.191333 0.684496,0.338777 1.056416,0.386289 0.39573,0.05055 0.79516,-0.06598 1.19274,-0.09896 0.391893,-0.203388 0.817485,-0.35201 1.175679,-0.610165 0.386017,-0.278207 0.728792,-0.618879 1.03499,-0.983091 0.962308,-1.144625 1.549308,-2.622985 1.619118,-4.119116 0.02201,-0.471565 -0.07157,-0.941439 -0.107355,-1.412158 -0.175871,-0.403073 -0.270872,-0.852169 -0.527608,-1.209217 -0.562507,-0.782289 -1.245601,-1.068329 -2.177971,-1.161116 -0.400354,-0.03984 -0.802748,0.05549 -1.204122,0.08323 -0.704373,0.06211 -0.61654,1.058243 0.08783,0.996135 v 0 c 0.572102,-0.06499 1.152101,-0.210104 1.718953,0.02085 0.748466,0.304953 0.763817,0.672465 1.106616,1.356093 0.03855,0.390616 0.127326,0.779509 0.115634,1.171848 -0.04974,1.669355 -0.84691,3.332093 -2.150778,4.381855 -0.247052,0.198905 -0.542775,0.328311 -0.814162,0.492465 -0.251176,0.04753 -0.498169,0.154489 -0.753527,0.142604 -0.256312,-0.01193 -0.513054,-0.09233 -0.739968,-0.212113 -0.962065,-0.507861 -1.541717,-1.603415 -1.704851,-2.643827 -0.06964,-0.444156 -0.0169,-0.899007 -0.02534,-1.348511 0.123517,-0.464176 0.188568,-0.948008 0.370552,-1.392528 0.505159,-1.233918 1.559397,-2.469589 2.775779,-3.052769 0.757978,-0.363403 1.092794,-0.286224 1.86153,-0.282596 0.191259,0.08888 0.413844,0.129148 0.573776,0.266628 0.376213,0.323402 0.434697,0.79205 0.441129,1.25219 0.0086,0.615232 -0.17263,1.217634 -0.397717,1.781703 -0.296379,0.641996 0.61154,1.06114 0.907921,0.419145 z" />
    <path
       style="fill:#0000ff;stroke-width:0.264583"
       id="path535"
       d="m 59.142784,48.331778 c 0.135993,-0.14611 0.29269,-0.283576 0.505285,-0.286452 0.04736,-6.35e-4 0.12168,-0.0057 0.136568,0.03928 0.0259,0.07823 -0.139285,0.05282 -0.25822,0.04485 -0.545053,0.848673 -1.322354,1.524347 -2.204435,2.007277 -0.15893,0.08701 -0.327493,0.15513 -0.491241,0.232696 -0.438875,0.154942 -0.229108,0.10459 -0.545579,0.158742 -0.0294,0.005 0.07666,-0.0417 0.08835,-0.01426 0.123044,0.289013 0.09482,0.649395 0.287628,0.897378 0.07154,0.09202 0.223153,-0.06804 0.336693,-0.09438 0.167254,-0.03881 0.336741,-0.06729 0.505111,-0.100929 1.168363,-0.133392 2.349066,-0.0258 3.510357,0.126142 0.506608,0.05266 0.608377,0.118985 0.964679,-0.486242 0.05474,-0.09299 0.0011,-0.215822 0.0016,-0.323733 -0.03861,-0.706052 -1.037119,-0.651447 -0.998508,0.05461 v 0 c 0.09332,0.198184 0.01532,0.07255 0.455408,-0.219312 0.01273,-0.0084 -0.02981,0.0091 -0.04506,0.0083 -0.08323,-0.0048 -0.165875,-0.01679 -0.248814,-0.02518 -1.270265,-0.165298 -2.562231,-0.27867 -3.838657,-0.114562 -0.193998,0.03991 -0.389501,0.07311 -0.581999,0.119732 -0.143256,0.03469 -0.368842,-0.01249 -0.424442,0.124021 -0.603292,1.481206 0.302824,1.015758 0.965904,0.791223 0.194704,-0.0945 0.395158,-0.17797 0.584115,-0.283492 0.723392,-0.403972 1.40984,-0.927539 1.951742,-1.55796 0.17744,-0.206427 0.351969,-0.420437 0.48003,-0.660641 0.116272,-0.218091 0.163484,-0.466481 0.245224,-0.699721 -0.06462,-0.229385 -0.05469,-0.494706 -0.193871,-0.688155 -0.115469,-0.160494 -0.323299,-0.244006 -0.514096,-0.295857 -0.162758,-0.04423 -0.341024,-0.018 -0.505637,0.01873 -0.343686,0.07668 -0.629777,0.265969 -0.863206,0.522941 -0.09819,0.108098 -0.163216,0.242217 -0.244824,0.363325 -0.241591,0.664555 0.69823,1.006217 0.939824,0.341662 z" />
    <path
       style="fill:#0000ff;stroke-width:0.264583"
       id="path537"
       d="m 67.396845,42.444753 c -0.240787,0.704428 -0.437582,1.42407 -0.595853,2.151443 -0.03942,0.18118 -0.0791,0.362766 -0.103002,0.54664 -0.0122,0.09396 -0.09601,0.257948 -0.005,0.284208 0.343964,0.09921 0.715793,0.01604 1.07369,0.02406 0.441203,-0.816288 0.859753,-1.644957 1.332698,-2.443809 0.179403,-0.303033 0.458142,-0.807695 0.758436,-1.064812 0.03109,-0.02662 0.08127,-0.0098 0.121899,-0.01474 -0.06672,0.03664 -0.152519,0.05054 -0.200155,0.109904 -0.02252,0.02807 0.0057,0.07623 0.02839,0.104161 0.07833,0.09642 0.162126,0.193555 0.267247,0.259751 0.379423,0.238928 0.625065,0.286473 1.072481,0.193041 0.17054,-0.03561 0.322342,-0.132309 0.483513,-0.198464 -0.699535,-0.0028 0.685726,-0.259 0.496564,-0.292066 -0.137239,-0.02399 -0.278839,0.04988 -0.416832,0.0307 -0.08726,-0.01213 -0.174112,-0.185139 -0.234813,-0.121292 -0.102375,0.107687 -0.04684,0.293461 -0.0686,0.440443 -0.03142,0.212211 -0.06063,0.424744 -0.09095,0.637116 -0.08655,0.906289 -0.208767,2.1891 0.890966,2.568869 0.559072,0.193063 1.006954,-0.01804 1.524638,-0.166289 0.197154,-0.102921 0.394305,-0.205842 0.591457,-0.308762 0.622239,-0.335885 0.147227,-1.215864 -0.475012,-0.87998 v 0 c -0.138078,0.07804 -0.276156,0.156074 -0.414234,0.234111 -0.19323,0.06805 -0.529386,0.199546 -0.753311,0.240146 -0.0656,0.01189 -0.148217,0.05275 -0.199721,0.01042 -0.355621,-0.292252 -0.193392,-1.187693 -0.174818,-1.557208 0.03004,-0.210438 0.06004,-0.420881 0.09011,-0.631314 0.05711,-0.399592 0.210992,-0.942793 -0.132832,-1.299528 -0.340426,-0.353212 -0.786021,0.0098 -1.051846,0.18676 -0.05711,0.03364 -0.351628,0.244098 -0.444317,0.19182 -0.08006,-0.04516 -0.134403,-0.125444 -0.200578,-0.189241 -0.53749,-0.51817 -0.191532,-0.3358 -1.027681,-0.460927 -0.146672,0.08695 -0.31192,0.148313 -0.440016,0.260848 -0.32662,0.28694 -0.668006,0.882085 -0.870497,1.224396 -0.462489,0.781837 -0.87643,1.590586 -1.301782,2.392746 0.255244,0.166685 0.499285,0.351929 0.765725,0.500057 0.02384,0.01326 -0.01572,-0.05396 -0.01193,-0.08099 0.02339,-0.167622 0.05708,-0.333756 0.09291,-0.499167 0.149466,-0.690003 0.335256,-1.372791 0.562793,-2.041179 0.241734,-0.664503 -0.698016,-1.006366 -0.93975,-0.341863 z" />
    <path
       style="fill:#0000ff;stroke-width:0.264583"
       id="path539"
       d="m 76.861316,44.830464 c 0.667723,-0.760479 1.149209,-1.706078 1.159716,-2.741522 0.0029,-0.28808 -0.01397,-0.58631 -0.112943,-0.856872 -0.09782,-0.267415 -0.30871,-0.478554 -0.463065,-0.717831 -0.267751,-0.125493 -0.509519,-0.342411 -0.803249,-0.376479 -1.404173,-0.162862 -2.654792,1.379177 -2.981759,2.583822 -0.09193,0.33869 -0.07766,0.697578 -0.116491,1.046367 0.08094,0.323095 0.102042,0.667417 0.242817,0.969284 0.438131,0.939491 1.415621,1.435837 2.431391,1.373415 0.873773,-0.05369 1.125648,-0.323905 1.833819,-0.756792 0.199014,-0.246091 0.457501,-0.454203 0.597043,-0.738273 0.145727,-0.296664 0.233135,-0.632004 0.238402,-0.962486 0.01561,-0.978389 -0.603588,-2.041286 -1.528826,-2.414925 -0.260175,-0.105066 -0.556286,-0.07395 -0.834427,-0.110923 -0.244363,0.106328 -0.488727,0.212656 -0.733091,0.318984 -0.618128,0.343395 -0.132496,1.217558 0.485632,0.874163 v 0 c 0.06386,-0.0649 0.12772,-0.129807 0.191582,-0.19471 0.11747,-0.01484 0.23785,-0.07442 0.352409,-0.0445 0.720119,0.188084 1.297173,1.222016 1.030859,1.931026 -0.0709,0.188774 -0.226727,0.333538 -0.34009,0.500307 -0.440454,0.303228 -0.649301,0.523818 -1.198824,0.602605 -0.340167,0.04877 -0.880766,-0.03344 -1.177391,-0.233124 -0.157935,-0.10632 -0.29156,-0.255295 -0.387101,-0.419972 -0.107167,-0.184711 -0.138732,-0.403936 -0.208098,-0.605905 0.01408,-0.249015 -0.01333,-0.503906 0.04226,-0.747046 0.174987,-0.765415 0.661506,-1.41077 1.310494,-1.835228 0.127117,-0.08314 0.26348,-0.162756 0.411965,-0.194735 0.111014,-0.02391 0.226049,0.02199 0.339074,0.03299 0.09219,0.09129 0.222697,0.155851 0.276582,0.273879 0.08064,0.176624 0.104711,0.377974 0.109633,0.572072 0.02069,0.816044 -0.357643,1.562657 -0.875329,2.165209 -0.500071,0.49993 0.206938,1.207136 0.707009,0.707206 z" />
    <path
       style="fill:#0000ff;stroke-width:0.264583"
       id="path541"
       d="m 79.87306,42.501723 c 1.156597,-1.159026 2.125985,-2.504915 2.925146,-3.932274 0.165894,-0.296296 0.310322,-0.60411 0.465481,-0.906165 -0.714772,0.330019 0.636495,-0.854388 0.318127,-0.92548 -0.369517,-0.08251 -0.809394,-0.152765 -1.135142,0.04022 -0.282056,0.167099 -0.290335,0.58798 -0.427698,0.885656 -0.629164,1.363452 -0.668439,1.509329 -1.271704,2.982704 -0.443386,1.293433 -0.733931,1.950119 -0.950775,3.282007 -0.06615,0.406276 -0.143116,0.822882 -0.09263,1.2314 0.09554,0.773051 0.506347,1.231504 1.366766,1.165065 0.385945,-0.0298 0.706914,-0.315658 1.060368,-0.473487 0.914853,-0.742437 0.93508,-0.693313 1.698771,-1.563435 0.198538,-0.226207 0.373928,-0.471727 0.56089,-0.707591 0.438026,-0.555098 -0.347001,-1.174559 -0.785027,-0.61946 v 0 c -0.167513,0.213356 -0.324884,0.435077 -0.502536,0.640067 -0.649025,0.748899 -0.68499,0.729669 -1.436473,1.36478 -0.177176,0.120403 -0.366628,0.224473 -0.531527,0.361206 -0.07726,0.06406 -0.08991,0.25721 -0.187849,0.235298 -0.134466,-0.03008 -0.228758,-0.195596 -0.245843,-0.332324 -0.04463,-0.357142 0.0132,-0.722044 0.06967,-1.077507 0.201311,-1.26741 0.478978,-1.890254 0.901679,-3.127239 0.613839,-1.500438 0.612167,-1.545466 1.247291,-2.927824 0.126786,-0.275944 0.458772,-0.524811 0.393893,-0.821476 -0.0706,-0.322844 -0.474683,-0.460243 -0.722098,-0.67933 -0.01193,-0.01057 0.0054,0.03141 0.0081,0.04712 -0.07543,0.187895 -0.15087,0.375789 -0.226306,0.563683 -0.144362,0.282607 -0.278519,0.570664 -0.433088,0.84782 -0.746305,1.338196 -1.651223,2.59985 -2.725807,3.693787 -0.532296,0.465467 0.125974,1.218249 0.658273,0.752782 z" />
    <path
       style="fill:#0000ff;stroke-width:0.264583"
       id="path543"
       d="m 83.811523,42.855377 c 1.010288,0.181565 2.082649,0.193906 3.040647,-0.231995 0.244017,-0.108484 0.48174,-0.241183 0.687255,-0.411703 0.196662,-0.163173 0.336376,-0.384781 0.504563,-0.577172 0.07807,-0.24097 0.212233,-0.470565 0.234217,-0.722912 0.08045,-0.923376 -0.553055,-1.598779 -1.472094,-1.656654 -0.881501,-0.05551 -1.278583,0.314106 -2.013471,0.722136 -0.294788,0.270533 -0.620289,0.511012 -0.884362,0.811599 -0.514863,0.586052 -0.988642,1.362722 -1.176488,2.13049 -0.08701,0.355623 -0.146812,0.733946 -0.08597,1.094968 0.05883,0.349054 0.189243,0.713399 0.433853,0.969261 0.274828,0.287469 0.696233,0.384623 1.044348,0.576935 1.223174,0.02096 1.450102,0.140918 2.626111,-0.311903 0.424373,-0.163405 0.805167,-0.422947 1.207751,-0.634421 0.622726,-0.33498 0.148993,-1.215648 -0.473733,-0.880668 v 0 c -0.33074,0.182999 -0.642779,0.404884 -0.992217,0.548997 -0.839338,0.346153 -1.118185,0.304189 -1.964976,0.362766 -0.18814,-0.04378 -0.402645,-0.02578 -0.564422,-0.131337 -0.422503,-0.275681 -0.390459,-0.807971 -0.300696,-1.227161 0.137295,-0.641164 0.51535,-1.274282 0.930177,-1.768199 0.209833,-0.249838 0.470466,-0.452168 0.705699,-0.678252 0.235336,-0.147785 0.454988,-0.324137 0.706006,-0.443357 0.256212,-0.121688 0.936104,-0.330659 1.190572,-0.02523 0.180435,0.216569 0.104235,0.384746 0.07418,0.631617 -0.08616,0.12005 -0.149807,0.260025 -0.258485,0.360152 -0.137618,0.126788 -0.299611,0.228592 -0.468341,0.309485 -0.772348,0.370277 -1.652038,0.350946 -2.475717,0.215463 -0.683842,-0.179892 -0.938247,0.787206 -0.254405,0.967097 z" />
    <path
       style="fill:#0000ff;stroke-width:0.264583"
       id="path545"
       d="m 89.663357,39.912378 c 0.37949,-0.715439 0.702776,-1.458461 1.0535,-2.187824 0.102394,-0.212941 0.204226,-0.42638 0.31705,-0.633984 0.05258,-0.09675 0.279929,-0.234979 0.178541,-0.277937 -0.286679,-0.121465 -0.622075,-0.02785 -0.933114,-0.04177 -0.562687,1.689628 -1.163333,3.365913 -1.679665,5.070793 -0.324509,1.071494 -0.348586,1.197243 -0.599975,2.16574 -0.0036,0.156932 -0.140485,0.382281 -0.01085,0.470797 1.018828,0.695657 1.198475,0.117595 1.819669,-0.545713 0.297161,-0.317307 0.583663,-0.644431 0.874794,-0.967279 1.223698,-1.357006 0.537073,-0.61871 1.694701,-1.838035 -1.238308,-0.460553 1.111108,-0.474774 0.845167,-0.737646 -0.208063,-0.205664 -0.51276,-0.319989 -0.803413,-0.353303 -0.122293,-0.01402 -0.198913,0.145738 -0.290562,0.227913 -0.232765,0.208702 -0.447448,0.437116 -0.68185,0.643976 -0.302699,0.26713 -0.619167,0.518243 -0.928748,0.777365 -0.252537,0.201872 -1.512703,1.204069 -1.806612,1.457415 -0.1777,0.153173 -0.387202,0.283619 -0.513485,0.481334 -0.455232,0.71273 0.07175,0.907847 0.920858,0.928807 0.330637,0.0082 0.62593,-0.213923 0.938893,-0.320885 0.89962,-0.294905 1.78454,-0.70732 2.736397,-0.814132 0.250219,-0.02808 0.532323,-0.04019 0.747395,0.118546 0.04211,0.03108 0.05581,0.08855 0.08371,0.132827 0.03172,0.07474 0.148426,0.356706 0.182224,0.39956 0.237638,0.301298 0.436983,0.464613 0.845138,0.489858 0.449228,0.02779 0.775123,-0.163213 1.171553,-0.328345 0.648306,-0.282315 0.249053,-1.199155 -0.399253,-0.91684 v 0 c -0.128678,0.05967 -0.256329,0.121614 -0.386035,0.179015 -0.06747,0.02986 -0.139565,0.0492 -0.205309,0.08268 -0.0075,0.0038 -0.09191,0.104398 -0.126579,0.05674 -0.159544,-0.219343 -0.171038,-0.529479 -0.409591,-0.703085 -0.145868,-0.113472 -0.272346,-0.257696 -0.437605,-0.340416 -0.391142,-0.195785 -0.840907,-0.201719 -1.262698,-0.150932 -0.995518,0.11987 -1.925338,0.534292 -2.866313,0.84949 -1.356683,0.475938 -0.652076,-0.07702 -0.684014,0.858349 -0.003,0.08792 -0.233373,0.260665 -0.163571,0.207122 0.167431,-0.128428 0.300369,-0.296922 0.460219,-0.434669 0.291296,-0.251012 1.578396,-1.275188 1.817135,-1.466113 0.455618,-0.38256 1.312021,-1.066182 1.729475,-1.539302 0.195548,-0.221625 0.570053,-0.429598 0.517004,-0.72036 -0.203007,-1.112684 -0.821793,-0.62252 -1.141629,-0.343728 -0.213887,0.186437 -0.408813,0.393568 -0.61322,0.590353 -0.270264,0.284844 -0.544618,0.565861 -0.810789,0.854531 -0.593881,0.644082 -1.171911,1.302603 -1.759913,1.952056 -0.18745,0.20704 -0.541727,0.342009 -0.563052,0.620484 -0.01519,0.198168 0.638503,0.971842 0.448739,0.392607 0.31815,-1.227821 0.673126,-2.441195 1.066834,-3.647357 0.31383,-0.961443 0.669174,-1.909101 0.977545,-2.872307 0.09773,-0.305252 0.177544,-0.615952 0.266317,-0.923927 -0.303782,-0.17877 -0.562785,-0.48388 -0.911342,-0.536308 -0.14179,-0.02133 -0.159136,0.239022 -0.227629,0.36499 -0.49581,0.911862 -0.862041,1.889523 -1.359733,2.800786 -0.330973,0.624866 0.552722,1.092931 0.883695,0.468065 z" />
    <path
       style="fill:#0000ff;stroke-width:0.264583"
       id="path547"
       d="m 96.051904,40.26649 c -0.432855,0.749127 -0.900469,1.501321 -1.129567,2.345815 -0.131069,0.483135 -0.262818,1.203097 0.06332,1.671666 0.169646,0.243728 0.476779,0.354134 0.715169,0.531201 0.336515,-0.02396 0.684715,0.01923 1.009544,-0.07189 0.710285,-0.199252 1.361681,-0.778057 1.859709,-1.277569 0.578143,-0.579865 1.023151,-1.192028 1.456721,-1.882083 0.16896,-0.268905 0.31202,-0.553236 0.46802,-0.829855 0.0924,-0.201688 0.19102,-0.40067 0.2773,-0.605066 0.14288,-0.338469 0.38623,-0.93599 -0.49698,-0.975696 -0.26072,-0.01172 -0.368352,0.375237 -0.508377,0.595486 -0.133099,0.209352 -0.555469,1.395907 -0.601377,1.519772 -0.329986,0.980639 -1.175634,3.409927 0.640075,3.540463 0.282599,0.02032 0.551979,-0.12814 0.827969,-0.19221 0.9903,-0.535269 0.51956,-0.235959 1.41387,-0.89535 0.56693,-0.422598 -0.0307,-1.224359 -0.59765,-0.801761 v 0 c -0.72552,0.54786 -0.3552,0.303047 -1.10705,0.740336 -0.11721,0.05545 -0.24324,0.09517 -0.351614,0.166345 -0.05031,0.03305 -0.05426,0.137085 -0.114398,0.139723 -0.06857,0.003 -0.142343,-0.06174 -0.161578,-0.127618 -0.05012,-0.171656 -0.04693,-0.35731 -0.03202,-0.535509 0.05223,-0.62425 0.235284,-1.088835 0.42031,-1.687542 0.10316,-0.279568 0.20038,-0.561399 0.30948,-0.838705 0.0778,-0.197682 0.22965,-0.374444 0.25093,-0.585804 0.007,-0.06468 -0.1402,-0.01229 -0.18608,-0.05834 -0.19999,-0.200785 -0.29783,-0.503782 -0.532337,-0.662902 -0.231487,-0.157069 0.144587,1.480816 -0.32244,0.774818 -0.140978,0.252344 -0.270425,0.511485 -0.422931,0.757033 -0.529497,0.852548 -1.219216,1.753916 -2.024198,2.366391 -0.326675,0.248554 -0.654097,0.378299 -1.015333,0.539397 -0.243932,0.04874 -0.355938,0.146327 -0.389189,-0.287591 -0.01736,-0.226381 0.03004,-0.455808 0.08728,-0.675521 0.203185,-0.780007 0.641165,-1.469789 1.037003,-2.160425 0.379717,-0.596503 -0.463865,-1.133504 -0.843582,-0.537002 z" />
    <path
       style="fill:#0000ff;stroke-width:0.264583"
       id="path549"
       d="m 96.744864,38.506708 c 0.438206,-0.154703 0.916996,-0.111293 1.359554,-0.242299 0.06975,-0.02065 0.136067,-0.0515 0.204099,-0.07726 0.03885,0.08211 0.104799,-0.09062 0.162494,-0.07529 0.01408,0.0037 0.02204,0.02379 0.03661,0.02384 0.04211,1.4e-4 0.533223,-0.04331 0.580453,-0.0474 0.704467,-0.06105 0.61813,-1.057315 -0.08634,-0.996266 v 0 c -0.178398,0.01547 -0.357164,0.02683 -0.535358,0.04451 -0.203351,0.02018 -0.372393,0.01342 -0.541276,0.127026 -0.126413,0.07307 -0.301895,0.07836 -0.439852,0.09639 -0.330112,0.04315 -0.662807,0.07846 -0.982699,0.176545 -0.686033,0.171341 -0.44372,1.141539 0.242313,0.970198 z" />
    <path
       style="fill:#0000ff;stroke-width:0.264583"
       id="path551"
       d="m 102.93137,42.871782 c 0.93355,-1.799489 1.85611,-3.604068 2.73913,-5.429063 -0.62496,-0.170948 0.77698,-0.85253 0.48192,-1.141561 -0.24403,-0.239046 -0.61841,-0.472352 -0.94909,-0.386641 -0.28345,0.07347 -0.31264,0.495518 -0.45602,0.750837 -0.63791,1.135927 -0.83721,1.603931 -1.4319,2.83574 -0.59039,1.39456 -0.83582,1.844342 -1.23696,3.278994 -0.1187,0.424549 -0.22866,0.854355 -0.28338,1.291779 -0.0474,0.379115 -0.0987,1.286924 0.34851,1.582351 0.26042,0.172019 0.61189,0.123385 0.91783,0.185078 0.28476,-0.140362 0.58483,-0.253184 0.85426,-0.421086 0.44914,-0.27989 1.20719,-0.952858 1.58232,-1.310426 0.4979,-0.474591 0.97466,-0.987543 1.41042,-1.519958 0.18737,-0.228934 0.35828,-0.470861 0.53742,-0.706292 0.32581,-0.485261 0.38167,-0.532614 0.62477,-1.009243 0.0459,-0.08992 0.0948,-0.179789 0.12301,-0.276712 0.0262,-0.08992 0.12505,-0.242668 0.0384,-0.27831 -1.02751,-0.422872 -0.92605,-0.276298 -1.26781,0.330928 -0.34913,0.653677 -0.69146,1.327723 -0.88907,2.046249 -0.0943,0.342865 -0.23511,0.931284 0.002,1.276857 0.14638,0.213521 0.41213,0.313415 0.61819,0.470123 0.27514,-0.01177 0.55643,0.02376 0.8254,-0.03532 0.5334,-0.117163 1.19146,-0.524353 1.62985,-0.818498 0.51083,-0.34275 0.98482,-0.726694 1.42966,-1.151087 0.17914,-0.170914 0.34158,-0.358532 0.51237,-0.537798 0.24247,-0.303742 0.73501,-0.815694 0.51442,-1.274929 -0.0794,-0.165253 -0.26749,-0.250775 -0.40124,-0.376162 -0.6449,-0.290005 -1.05503,0.622023 -0.41013,0.912028 v 0 c -0.28676,-0.501047 -0.10777,-0.0397 -0.0855,-0.47696 0.0107,-0.209715 -0.35339,1.45055 -0.34341,0.528132 -0.14967,0.158869 -0.29176,0.325249 -0.44903,0.476607 -0.58639,0.56434 -1.25128,1.079643 -1.96658,1.471221 -0.19313,0.105722 -0.59889,0.270419 -0.84337,0.371801 -0.0239,0.0526 -0.0138,0.157485 -0.0716,0.157806 -0.0623,3.44e-4 -0.0999,-0.09459 -0.10149,-0.156846 -0.004,-0.171036 0.0399,-0.341085 0.0843,-0.506306 0.17918,-0.666132 0.49801,-1.289825 0.82125,-1.894481 0.35898,-0.671546 0.2031,-0.109577 -0.60677,-0.761504 -0.0466,-0.0375 0.0953,-0.204398 0.0439,-0.173945 -0.0617,0.03652 -0.0523,0.133762 -0.0844,0.19792 -0.0614,0.122865 -0.1237,0.245628 -0.19565,0.362616 -0.10945,0.177952 -0.23198,0.347516 -0.34797,0.521274 -0.16513,0.218189 -0.32249,0.442479 -0.49538,0.654569 -0.90693,1.112557 -1.96225,2.116474 -3.16029,2.910038 -0.008,0.08303 0.0429,0.1992 -0.0239,0.249094 -0.0533,0.03976 -0.15404,-0.03991 -0.16984,-0.104471 -0.0557,-0.227469 -0.0557,-0.469518 -0.0276,-0.70201 0.0488,-0.403845 0.14793,-0.801066 0.25658,-1.193071 0.38241,-1.379768 0.61763,-1.807541 1.1872,-3.155486 0.74597,-1.546966 0.64252,-1.386104 1.39216,-2.761528 0.10749,-0.197211 0.40354,-0.37194 0.33366,-0.585391 -0.0998,-0.304774 -0.42811,-0.519027 -0.73035,-0.626244 -0.35626,-0.126382 0.27997,1.817655 -0.44119,1.044706 -0.88098,1.821019 -1.80192,3.6214 -2.73321,5.417022 -0.31648,0.632332 0.57778,1.079895 0.89425,0.447563 z" />
    <path
       style="fill:#0000ff;stroke-width:0.264583"
       id="path553"
       d="m 110.28906,39.065615 c -0.43476,0.750679 -0.78836,1.548544 -0.98659,2.396063 -0.0565,0.241684 -0.11025,0.486279 -0.12506,0.734043 -0.013,0.218336 0.028,0.436553 0.042,0.65483 0.14818,0.205325 0.22967,0.482027 0.44456,0.615976 0.554,0.34534 1.19616,0.192234 1.75219,0.0051 0.46321,-0.155877 1.11014,-0.507186 1.48092,-0.838517 0.18864,-0.168564 0.32915,-0.384254 0.49372,-0.576382 0.0892,-0.210184 0.17839,-0.420369 0.26758,-0.630553 0.25193,-0.660706 -0.68245,-1.016985 -0.93438,-0.356279 v 0 c -0.036,0.118261 -0.0721,0.236521 -0.10812,0.354781 -0.0987,0.130604 -0.17676,0.279657 -0.29597,0.391812 -0.31132,0.292884 -0.76618,0.527911 -1.15469,0.687136 -0.17322,0.07099 -0.35764,0.11087 -0.53517,0.17027 -0.0848,0.02837 -0.16415,0.0743 -0.25158,0.09297 -0.0531,0.01135 -0.10863,-0.003 -0.16295,-0.0044 -0.0172,-0.134465 -0.0578,-0.267982 -0.0516,-0.403396 0.01,-0.208712 0.0528,-0.415175 0.099,-0.61895 0.1758,-0.776174 0.50183,-1.503464 0.90027,-2.188825 0.34342,-0.61811 -0.53072,-1.103785 -0.87414,-0.485676 z" />
    <path
       style="fill:#0000ff;stroke-width:0.264583"
       id="path557"
       d="m 109.19398,38.179962 c 0.51542,-0.121278 1.03816,0.04345 1.5473,0.119051 0.62766,0.0932 0.56147,0.07391 1.17549,0.09347 0.70683,0.01974 0.73475,-0.979866 0.0279,-0.99961 v 0 c -0.52999,-0.01232 -0.47017,0.0044 -1.03134,-0.07894 -0.68436,-0.101626 -1.37636,-0.288206 -2.06103,-0.07379 -0.66455,0.241592 -0.32289,1.181414 0.34166,0.939822 z" />
    <path
       style="fill:#0000ff;stroke-width:0.264583"
       id="path559"
       d="m 138.28722,39.443884 c 0.038,-0.188856 0.10153,-0.374331 0.11404,-0.566568 0.0191,-0.29408 0.0308,-0.593531 -0.0196,-0.883887 -0.12925,-0.744303 -0.46785,-1.580052 -0.98444,-2.143183 -0.32591,-0.355268 -0.71741,-0.655211 -1.13433,-0.897315 -0.42745,-0.248225 -0.91567,-0.372665 -1.37351,-0.558998 -1.28454,-0.12642 -1.73506,-0.320723 -2.98974,0.158911 -1.49087,0.569925 -2.6309,1.867741 -3.24034,3.312169 -0.2068,0.490139 -0.29463,1.022353 -0.44194,1.53353 -0.0305,0.504049 -0.13416,1.008982 -0.0915,1.512146 0.1743,2.055267 1.53584,3.806185 3.50798,4.438379 0.50865,0.163052 1.05324,0.178669 1.57986,0.268004 0.56764,-0.06208 1.14984,-0.04419 1.70292,-0.186228 0.58375,-0.149913 1.14844,-0.387721 1.67485,-0.681211 1.08067,-0.602514 1.94122,-1.382181 2.47781,-2.520414 0.24824,-0.526575 0.44043,-1.106167 0.44702,-1.688284 0.007,-0.62577 -0.27142,-1.221835 -0.40714,-1.832753 -0.44498,-0.557051 -0.80357,-1.195821 -1.33496,-1.671153 -1.44293,-1.290705 -3.70099,-2.144362 -5.64282,-2.123986 -0.41731,0.0044 -0.82273,0.140612 -1.23409,0.210919 -0.69502,0.130196 -0.51089,1.113099 0.18413,0.982902 v 0 c 0.31737,-0.06621 0.62803,-0.189759 0.95211,-0.198619 1.73496,-0.04744 3.64198,0.67783 4.9739,1.770703 0.43981,0.360878 0.75521,0.851074 1.13281,1.27661 0.13493,0.44913 0.38663,0.878781 0.40479,1.347389 0.018,0.463817 -0.11653,0.933396 -0.29985,1.359829 -0.42835,0.996437 -1.12094,1.625725 -2.04021,2.164567 -0.44133,0.258689 -0.91566,0.471567 -1.40794,0.610677 -0.46248,0.130692 -0.95272,0.127347 -1.42908,0.19102 -1.10634,-0.154579 -1.46521,-0.07806 -2.41884,-0.692748 -1.01672,-0.65535 -1.69812,-1.769534 -1.82463,-2.973106 -0.0452,-0.430081 0.0374,-0.864091 0.0562,-1.296136 0.11735,-0.438352 0.18407,-0.89351 0.35207,-1.315057 0.47302,-1.186887 1.38103,-2.314842 2.58335,-2.822848 0.9979,-0.421634 1.36817,-0.274368 2.40807,-0.204302 0.85355,0.319787 1.37598,0.403662 2.03241,1.066935 0.41023,0.414507 0.70601,1.072202 0.82578,1.638079 0.0456,0.215652 0.0442,0.439971 0.0366,0.660271 -0.005,0.14119 -0.049,0.278269 -0.0734,0.417403 -0.23784,0.665907 0.7039,1.002261 0.94174,0.336353 z" />
    <path
       style="fill:#0000ff;stroke-width:0.264583"
       id="path561"
       d="m 153.43052,34.522482 c -0.30071,-0.150038 -0.50055,-0.272718 -0.85815,-0.322115 -0.99841,-0.137915 -1.85606,0.204056 -2.61165,0.859943 -0.32616,0.283126 -0.58144,0.638823 -0.87216,0.958235 -0.24314,0.407136 -0.52125,0.795327 -0.72941,1.221409 -0.82254,1.683696 -1.16548,3.747661 -0.32582,5.501308 0.19182,0.400625 0.4996,0.734565 0.7494,1.101847 0.35861,0.268186 0.67724,0.600472 1.07583,0.804557 0.40615,0.207957 0.85449,0.339956 1.30469,0.414308 0.98857,0.163265 1.82233,0.02097 2.72035,-0.430723 1.18389,-0.595479 1.38342,-1.048278 2.21374,-2.045562 0.20527,-0.492917 0.50406,-0.956625 0.61582,-1.47875 0.40921,-1.911847 -0.36649,-3.617459 -1.85601,-4.822858 -1.26208,-1.021342 -1.838,-0.989386 -3.32637,-1.338964 -1.83697,0.237012 -1.01379,-0.02403 -2.49751,0.688792 -0.63057,0.319956 -0.17809,1.211727 0.45249,0.891771 v 0 c 1.06478,-0.58068 0.46459,-0.353384 1.82804,-0.604386 0.46745,0.09688 0.95482,0.124473 1.40235,0.290652 1.4298,0.530925 2.72672,1.636221 3.0595,3.187778 0.24699,1.151573 -0.0623,1.523649 -0.45393,2.55476 -0.67654,0.854555 -0.80662,1.197837 -1.76987,1.733401 -0.71148,0.39558 -1.30164,0.512378 -2.10526,0.415071 -0.34449,-0.04171 -0.68974,-0.125217 -1.00585,-0.268352 -0.30807,-0.139491 -0.56051,-0.378523 -0.84076,-0.567783 -0.20506,-0.277763 -0.45695,-0.526425 -0.61518,-0.833287 -0.76402,-1.481704 -0.44386,-3.2463 0.23631,-4.686608 0.17489,-0.370326 0.40978,-0.709211 0.61468,-1.063817 0.22962,-0.265656 0.43314,-0.55633 0.68885,-0.796969 0.47689,-0.448765 1.10198,-0.78453 1.77368,-0.724058 0.25035,0.02254 0.39096,0.107598 0.60232,0.208468 0.59967,0.374687 1.12956,-0.473381 0.52988,-0.848068 z" />
    <path
       style="fill:#0000ff;stroke-width:0.264583"
       id="path565"
       d="m 141.3812,42.07593 c 0.25909,0.122622 0.51036,0.260916 0.76615,0.389917 0.0701,0.03537 0.13816,0.07669 0.21273,0.101365 0.0845,0.02796 0.18191,0.09588 0.26121,0.05546 0.21641,-0.11032 0.37029,-0.314499 0.55543,-0.471749 -0.0442,-0.165564 -0.0626,-0.340208 -0.13245,-0.496691 -0.0482,-0.107982 -0.13612,-0.194048 -0.215,-0.282134 -0.24437,-0.2729 -0.61136,-0.558674 -1.00505,-0.535357 -0.15842,0.0094 -0.30482,0.08841 -0.45723,0.132609 -0.1082,0.1239 -0.25318,0.223521 -0.32461,0.3717 -0.27647,0.573522 0.0663,1.361235 0.65508,1.574969 0.14543,0.0528 0.30749,0.03454 0.46124,0.05181 0.14985,-0.06829 0.32546,-0.09661 0.44956,-0.204865 0.43355,-0.378226 0.40079,-1.099723 0.0258,-1.499619 -0.0729,-0.07777 -0.17027,-0.128356 -0.25541,-0.192534 -0.61548,0.0023 -0.37428,-0.09061 -0.76032,0.152225 -0.56604,0.423788 0.0333,1.224292 0.59933,0.800505 v 0 c -0.1284,-0.03548 -0.0185,-0.0054 -0.33166,-0.0825 -0.0171,-0.02569 -0.0447,-0.04693 -0.0515,-0.07708 -0.0218,-0.0976 0.0314,0.03257 0.0806,0.05915 0.0676,0.03654 0.16915,-0.02946 0.2268,0.04487 0.005,0.02078 0.0461,0.10976 -0.0417,0.08597 -0.14971,-0.04057 -0.0961,-0.235011 -0.30351,-0.181646 -0.22981,-0.108876 0.0181,-0.06582 0.0899,-0.01814 0.0605,0.0402 0.11123,0.09372 0.16323,0.144466 0.15299,0.149266 0.0941,0.193248 0.14782,-0.05136 0.17459,-0.10652 0.3394,-0.231035 0.52377,-0.31956 0.0228,-0.01097 0.0903,0.04592 0.067,0.03591 -0.3288,-0.141567 -0.63307,-0.336504 -0.96016,-0.482173 -0.63251,-0.316129 -1.07958,0.578369 -0.44708,0.894497 z" />
    <path
       style="fill:#0000ff;stroke-width:0.264583"
       id="path567"
       d="m 146.04969,42.722373 c -0.0392,-0.466611 -0.10441,-1.684051 -0.9264,-1.461277 -0.20048,0.05433 -0.28411,0.303083 -0.42616,0.454625 -0.0216,0.130266 -0.0546,0.259147 -0.0647,0.390797 -0.0284,0.36775 0.0311,0.844432 0.30598,1.122249 0.11651,0.117752 0.25607,0.23248 0.41753,0.269482 0.19018,0.04358 0.3893,-0.02665 0.58395,-0.03998 0.15228,-0.122721 0.33235,-0.217322 0.45683,-0.368164 0.40867,-0.495214 0.52435,-1.535974 0.0454,-2.029386 -0.1299,-0.133818 -0.31764,-0.195522 -0.47647,-0.293283 -0.17145,0.0029 -0.35077,-0.04265 -0.51437,0.0087 -0.51656,0.162286 -0.76268,0.72027 -0.55076,1.209876 0.11776,0.272051 0.28366,0.341009 0.50278,0.478173 0.02,0.01226 0.0665,0.05929 0.06,0.03676 -0.23368,-0.806396 -0.44645,-0.435416 0.29632,-0.908197 -0.6844,-0.177753 -0.93578,0.790135 -0.25138,0.967888 v 0 c 0.22412,-0.09535 0.56055,-0.06967 0.67236,-0.286051 0.21201,-0.410281 -0.0812,-0.558083 -0.29362,-0.685655 -0.0116,-7.14e-4 -0.0292,-0.01228 -0.0347,-0.0021 -0.0121,0.02226 0.003,0.05183 -0.005,0.07583 -0.0321,0.09469 -0.13268,0.187091 -0.22992,0.09967 -0.0198,-0.01781 -0.0236,-0.04779 -0.0354,-0.07168 0.007,-0.0287 -0.008,-0.08478 0.0215,-0.08609 0.11573,-0.0051 0.15984,0.273514 0.16203,0.296147 0.0262,0.271748 -0.0286,0.247969 -0.0824,0.489379 -0.008,0.03362 -0.003,0.06881 -0.005,0.103208 0.0621,0.06397 0.16516,0.146032 0.0877,0.172696 -0.0282,0.0097 -0.0575,-0.02665 -0.0724,-0.05248 -0.0902,-0.156672 -0.0553,-0.341438 -0.0729,-0.511978 -0.098,0.04628 -0.18628,0.150185 -0.29408,0.138832 -0.15648,-0.01648 -0.28668,-0.131641 -0.42068,-0.214104 -0.011,-0.0068 0.009,-0.04821 0.0137,-0.03632 0.0983,0.228354 0.096,0.49104 0.13102,0.732388 0,0.707106 1.00001,0.707106 1.00001,0 z" />
    <path
       style="fill:#0000ff;stroke-width:0.264583"
       id="path569"
       d="m 143.62078,37.920673 c -0.20019,-0.378507 -0.42728,-0.768961 -0.76557,-1.043174 -0.0765,-0.06204 -0.15395,-0.132352 -0.2485,-0.16007 -0.14003,-0.04105 -0.29059,-0.02704 -0.43588,-0.04056 -0.13525,0.205161 -0.34214,0.378128 -0.40575,0.615483 -0.0366,0.136474 0.0693,0.276345 0.13293,0.402487 0.14985,0.296982 0.49765,0.624122 0.78384,0.792725 0.0943,0.05558 0.19939,0.09054 0.29909,0.135805 0.13542,0.0021 0.28214,0.06061 0.40626,0.0064 0.54334,-0.237203 0.61749,-0.759548 0.33879,-1.222412 -0.19845,-0.329581 -0.35216,-0.350454 -0.67644,-0.515393 -0.13751,-0.01211 -0.2767,-0.0609 -0.41254,-0.03632 -0.40409,0.07312 -0.6296,0.303877 -0.62568,0.757886 0.001,0.16416 0.14447,0.294841 0.2167,0.442261 0.42823,0.562691 1.22399,-0.04292 0.79577,-0.605605 v 0 c -0.004,0.04693 0.0102,0.09962 -0.0127,0.140798 -0.0935,0.168077 -0.16635,0.330677 -0.36362,0.264606 -0.0139,-0.0047 0.0112,-0.02721 0.0169,-0.04081 0.028,-6.3e-5 0.0564,-0.0053 0.0838,-1.89e-4 0.0248,0.0046 0.0906,0.05112 0.12711,0.02543 0.0289,-0.02036 0.0399,-0.06182 0.0707,-0.07916 0.27558,-0.154905 0.20737,-0.147994 0.40658,-0.06592 -0.0283,-0.006 -0.0595,-0.0042 -0.0849,-0.0179 -0.10296,-0.05544 -0.26254,-0.190848 -0.34503,-0.269942 -0.0402,-0.03854 -0.0678,-0.0904 -0.11287,-0.123175 -0.0122,-0.0089 -0.0297,0.0057 -0.0446,0.0085 -0.13524,0.12215 -0.27048,0.2443 -0.40572,0.366451 -0.0843,-0.02523 -0.16871,-0.05027 -0.25299,-0.07567 -0.0191,-0.0058 0.0413,0.005 0.0575,0.01672 0.0513,0.03739 0.098,0.08122 0.1409,0.127972 0.17345,0.189036 0.30757,0.411557 0.42163,0.639934 0.31623,0.632455 1.21065,0.185241 0.89443,-0.447214 z" />
    <path
       style="fill:#0000ff;stroke-width:0.264583"
       id="path571"
       d="m 146.33004,38.465809 c -0.0603,-0.292925 -0.1488,-0.69318 -0.48249,-0.811888 -0.36598,-0.130191 -0.67007,-0.03874 -0.87555,0.290835 -0.0784,0.125676 -0.0692,0.288 -0.10384,0.432 0.029,0.121061 0.0303,0.252396 0.0871,0.363185 0.26541,0.517889 0.76177,0.563343 1.22459,0.265849 0.27337,-0.175713 0.3697,-0.429357 0.51727,-0.69751 0.0346,-0.12082 0.09,-0.237546 0.10382,-0.362461 0.0415,-0.374667 -0.0593,-0.66073 -0.49674,-0.81196 -0.32877,-0.113663 -0.64013,0.141934 -0.88649,0.288809 -0.0696,0.04149 -0.14029,0.08109 -0.21043,0.121631 -0.61122,0.355535 -0.10842,1.219937 0.5028,0.864402 v 0 c 0.0848,-0.04957 0.17194,-0.09531 0.25435,-0.148719 0.048,-0.03113 0.13025,-0.04754 0.13629,-0.104453 0.005,-0.04606 -0.0897,-0.03731 -0.11729,-0.07451 -0.0771,-0.103956 -0.14112,-0.218895 -0.18948,-0.338966 -0.007,-0.01675 0.0352,-0.05747 0.037,-0.03951 0.005,0.05138 -0.017,0.10189 -0.0254,0.152835 -0.0251,0.05995 -0.0479,0.12091 -0.0753,0.179856 -0.0175,0.03769 -0.065,0.06856 -0.0592,0.109724 0.004,0.03111 0.0564,0.02853 0.0812,0.04784 0.0471,0.03676 0.0996,0.07044 0.1336,0.11964 0.0446,0.06468 0.0119,0.08741 -0.0195,0.126728 -0.0275,0.02985 -0.0475,0.06893 -0.0824,0.08954 -0.20265,0.119522 -0.44027,0.08928 -0.52739,-0.150629 -0.0231,-0.06366 0.24366,0.355061 0.0786,0.187351 0.0704,0.70359 1.06547,0.60397 0.99503,-0.09962 z" />
    <path
       style="fill:#0000ff;stroke-width:0.264583"
       id="path573"
       d="m 132.28136,32.288993 c -0.0762,-0.502062 -0.17689,-1.111335 -1.00483,-0.75755 -0.31408,0.134208 -0.1358,0.603511 -0.0855,0.799291 0.0692,0.09767 0.11659,0.215319 0.20766,0.293014 0.41574,0.354662 1.08543,0.277961 1.3432,-0.230616 0.0572,-0.11277 0.0633,-0.244816 0.0949,-0.367224 -0.035,-0.126253 -0.0402,-0.264907 -0.10508,-0.378761 -0.23151,-0.406545 -0.7321,-0.451078 -1.06272,-0.122235 -0.24689,0.245565 -0.14682,0.455548 -0.1039,0.738107 0.24757,0.662349 1.18427,0.312221 0.9367,-0.350127 v 0 c -0.005,0.06075 0.008,0.125632 -0.0147,0.182261 -0.13676,0.343571 -0.75652,0.235015 -0.64619,-0.159824 0.0235,-0.03307 0.0401,-0.07232 0.0705,-0.09921 0.0785,-0.06944 0.27111,0.05097 0.22626,0.172249 -0.12753,0.01485 -0.02,-0.0041 -0.19152,0.265825 -0.24588,0.02995 -0.4869,-0.09295 -0.72693,-0.154084 -0.01,-0.0026 -0.004,-0.04053 4e-5,-0.03103 0.0426,0.09871 0.0483,0.182729 0.0662,0.290196 0.0638,0.704219 1.05976,0.613939 0.99592,-0.09028 z" />
    <path
       style="fill:#0000ff;stroke-width:0.264583"
       id="path575"
       d="m 135.88264,32.54572 c 0.027,-0.210969 0.0551,-0.325003 0.0214,-0.544526 -0.0812,-0.527888 -0.41081,-0.82196 -0.99154,-0.60033 -0.1427,0.05446 -0.20977,0.22206 -0.31466,0.33309 -0.0443,0.123102 -0.11192,0.240176 -0.13302,0.369307 -0.077,0.471229 0.14279,0.928628 0.61645,1.086452 0.35149,0.117117 0.53819,4.6e-4 0.85213,-0.106615 0.10663,-0.08004 0.22721,-0.144265 0.3199,-0.240109 0.31578,-0.326542 0.38934,-0.819298 0.0365,-1.164574 -0.25624,-0.250776 -0.48364,-0.192789 -0.79211,-0.191066 -0.40103,0.151229 -0.2335,0.06084 -0.51599,0.244725 -0.58107,0.402941 -0.0112,1.224693 0.56984,0.821753 v 0 c 0.053,-0.04593 0.0468,-0.01919 0.0416,-0.07104 0.0398,-0.08757 0.002,0.02184 -0.0425,-0.130852 -0.0195,-0.06635 -0.0383,-0.136936 -0.0289,-0.205442 0.006,-0.04206 0.0382,-0.07919 0.0717,-0.105296 0.0111,-0.0086 0.0159,0.02732 0.0113,0.04061 -0.01,0.02905 -0.0344,0.05093 -0.0516,0.0764 -0.0256,0.01947 -0.0605,0.03068 -0.0768,0.05841 -0.004,0.0065 0.0265,0.144993 0.0255,0.152955 -0.0182,0.139376 -0.11071,-0.0336 -0.0852,-0.06169 -0.15617,-0.0026 -0.28501,0.0016 -0.4433,-0.09773 -0.0618,-0.03879 -0.07,-0.128169 -0.10032,-0.194503 -0.008,-0.01736 0.0275,0.02863 0.0328,0.04697 0.0284,0.09817 0.0107,0.164949 5.3e-4,0.265992 -0.15352,0.69024 0.82262,0.90735 0.97614,0.21711 z" />
    <path
       style="fill:#0000ff;stroke-width:0.264583"
       id="path577"
       d="m 125.60741,38.068156 c -0.11518,0.0036 -0.23376,-0.0172 -0.34553,0.01083 -0.48195,0.120838 -0.82305,0.565137 -0.57169,1.073025 0.18891,0.381697 0.46297,0.35614 0.8061,0.42303 0.14569,-0.04138 0.30232,-0.055 0.43707,-0.124134 0.36887,-0.189246 0.62488,-0.635131 0.56722,-1.052491 -0.0194,-0.140424 -0.059,-0.288343 -0.14792,-0.398716 -0.10193,-0.126469 -0.26596,-0.186546 -0.39894,-0.279818 -0.15073,0.004 -0.30518,-0.02151 -0.45219,0.012 -0.44867,0.102273 -0.88336,0.671666 -0.64017,1.131362 0.0656,0.123986 0.19827,0.198465 0.29741,0.297697 0.11784,0.01898 0.23745,0.08471 0.35353,0.05694 0.59823,-0.14315 0.46787,-0.514129 0.12206,-1.009331 -0.0586,-0.08387 -0.20317,-0.02416 -0.30475,-0.03625 -0.70699,0.01312 -0.68843,1.01295 0.0185,0.999828 v 0 c -0.69196,-0.28472 -0.24796,-1.221171 0.30082,-0.882786 0.11752,0.172196 0.27705,0.326069 0.0399,0.500241 -0.0215,0.01577 0.0349,-0.06033 0.0154,-0.07846 -0.0307,-0.02851 -0.0742,-0.03905 -0.11127,-0.05857 -0.0316,-0.04633 -0.17883,-0.169051 -0.0924,-0.257159 0.003,-0.0026 0.0588,0.03361 0.0638,0.06963 0.003,0.02076 -0.008,0.04106 -0.0127,0.06159 0.004,0.01693 0.009,0.03387 0.0134,0.0508 0.0117,0.06649 0.0539,0.128639 0.0507,0.196061 -0.004,0.0817 -0.0165,0.168379 -0.0592,0.238145 -0.0343,0.05596 -0.16027,0.121486 -0.18695,0.06155 -0.005,-0.01081 0.0138,-0.01924 0.0207,-0.02886 0.69024,0.15352 0.90735,-0.822627 0.21711,-0.976147 z" />
    <path
       style="fill:#0000ff;stroke-width:0.264583"
       id="path579"
       d="m 124.20757,43.136596 c -0.0705,0.06482 -0.15335,0.118363 -0.2115,0.194461 -0.31038,0.406198 -0.25374,0.897772 0.27013,1.110024 0.33959,0.137589 0.54694,-0.04381 0.8227,-0.184104 0.0912,-0.10642 0.19963,-0.200207 0.27357,-0.31926 0.17539,-0.282385 0.27026,-0.7466 0.14216,-1.06725 -0.0457,-0.114333 -0.0882,-0.2571 -0.19877,-0.311309 -0.18876,-0.09256 -0.41595,-0.06142 -0.62392,-0.09213 -0.11018,0.134002 -0.24951,0.248614 -0.33055,0.402006 -0.14322,0.271069 0.0308,0.947965 0.31918,1.090117 0.14445,0.07121 0.3131,0.07556 0.46965,0.113334 0.14302,-0.102532 0.32277,-0.16734 0.42905,-0.307595 0.22044,-0.290909 0.0532,-0.862662 -0.26478,-1.016932 -0.37045,-0.179748 -0.47932,-0.0717 -0.7866,0.05608 -0.61766,0.344242 -0.13082,1.217738 0.48683,0.873495 v 0 c -0.10755,-0.01507 -0.16836,-0.01705 -0.27586,-0.111862 -0.10044,-0.08858 -0.10705,-0.287856 0.0158,-0.366522 0.0914,-0.05854 0.20127,-0.08151 0.3019,-0.122268 0.01,0.0046 0.31025,0.06238 0.30732,0.193562 -0.001,0.05783 -0.0386,-0.05007 -0.0743,-0.02935 -0.0808,0.04688 -0.15485,0.104533 -0.23227,0.156799 -0.1564,-0.05095 -0.32743,-0.06943 -0.46919,-0.152857 -0.0457,-0.02692 -0.0393,-0.09941 -0.0484,-0.15171 -0.003,-0.0179 0.0242,0.02831 0.03,0.04551 0.0327,0.09627 0.002,0.188324 -0.0204,0.282666 0.0939,0.144171 0.21299,0.07652 0.26014,0.319951 0.0176,0.09073 -0.0174,0.185423 -0.0454,0.273502 -0.005,0.01649 -0.0395,0.03522 -0.0478,0.02007 -0.01,-0.01729 0.0208,-0.03357 0.0312,-0.05036 0.59967,-0.374687 0.0698,-1.222755 -0.52989,-0.848068 z" />
    <path
       style="fill:#0000ff;stroke-width:0.264583"
       id="path583"
       d="m 150.79957,32.675311 c 0.0348,0.06655 0.0587,0.14008 0.10438,0.199655 0.32052,0.417635 0.72796,0.547638 1.16606,0.151497 0.23946,-0.216537 0.21443,-0.485421 0.24097,-0.765534 -0.0281,-0.114544 -0.0304,-0.23872 -0.0842,-0.343632 -0.21931,-0.42706 -0.63969,-0.576489 -1.06804,-0.325591 -0.24918,0.145952 -0.27334,0.355502 -0.35455,0.596775 0.004,0.110428 -0.0218,0.226497 0.0134,0.331283 0.15934,0.475321 0.58663,0.671787 1.04391,0.437873 0.26835,-0.137269 0.29801,-0.321888 0.39957,-0.566845 0.005,-0.09255 0.0384,-0.188012 0.0148,-0.277647 -0.13349,-0.507846 -0.35164,-0.534576 -0.94291,-0.321571 -0.0918,0.03308 -0.14565,0.294389 -0.17241,0.403759 -0.15717,0.689418 0.81781,0.911692 0.97498,0.222274 v 0 c 0.0194,-0.111978 -0.003,0.05606 -0.0773,0.06239 -0.22672,0.01938 -0.47076,0.05013 -0.68174,-0.03511 -0.20087,-0.08116 -0.11751,-0.238025 -0.0734,-0.341051 0.23596,-0.129809 0.48789,-0.01581 0.50365,0.269275 0.001,0.01771 -0.0195,0.02968 -0.0292,0.04453 -0.0409,0.0075 -0.0769,0.03558 -0.11823,0.03975 -0.17697,0.01785 -0.37291,0.002 -0.38152,-0.22467 -5.3e-4,-0.01163 0.0222,0.0068 0.0334,0.01026 0.01,0.01599 0.0115,0.04088 0.0288,0.04797 0.0198,0.0082 0.0423,-0.0078 0.0636,-0.01002 0.0783,-0.008 0.15869,-0.03869 0.23533,-0.02063 0.0651,0.01533 0.1168,0.06789 0.1644,0.114823 0.008,0.0083 -0.008,0.04095 -0.0156,0.03192 -0.0338,-0.03979 -0.0496,-0.09188 -0.0743,-0.137818 -0.28715,-0.646174 -1.20098,-0.240072 -0.91382,0.406102 z" />
    <path
       style="fill:#0000ff;stroke-width:0.264583"
       id="path585"
       d="m 155.96977,33.220212 c -0.14656,-0.606846 -0.77873,-0.915671 -1.18872,-0.268245 -0.16783,0.26502 -0.0277,0.478875 0.0599,0.719538 0.11503,0.08592 0.20958,0.210318 0.3451,0.257772 0.43242,0.151422 0.8404,-0.180346 1.00997,-0.548325 0.13575,-0.294603 0.10908,-0.417018 0.11478,-0.721264 -0.0721,-0.253951 -0.09,-0.511062 -0.39045,-0.636346 -0.37765,-0.15746 -0.6234,-0.04594 -0.86632,0.227933 -0.20557,0.23175 -0.13138,0.402573 -0.11886,0.692762 0.39785,0.923922 1.89698,0.202758 0.99004,-0.622996 -0.13465,-0.122596 -0.36404,0.01087 -0.54605,0.0163 -0.0794,0.04304 -0.15888,0.08609 -0.23832,0.129134 -0.61216,0.353917 -0.11164,1.219645 0.50052,0.865727 v 0 c 0.0272,-0.01861 0.0544,-0.03721 0.0816,-0.05582 -0.4157,-0.118523 -0.46123,-0.04084 -0.41151,-0.750365 0.0107,-0.15298 0.29598,-0.151241 0.3752,-0.131953 0.13553,0.033 0.15897,0.172173 0.21092,0.278322 -0.0141,0.06746 -0.0179,0.137913 -0.0423,0.202376 -0.007,0.01771 -0.029,0.0255 -0.0465,0.03257 -0.24431,0.09842 -0.43881,0.04081 -0.52615,-0.220823 -0.003,-0.0091 0.019,-0.0033 0.0285,-0.005 0.005,0.03422 0.0255,0.151236 0.0231,0.192232 -0.002,0.02532 -0.0357,0.05798 -0.0163,0.07431 0.0278,0.02345 0.0737,-0.0043 0.10913,0.0038 0.18218,0.04199 0.15708,0.07002 0.28392,0.226431 0.002,0.04447 0.017,0.08998 0.007,0.133403 -0.0112,0.04942 -0.029,0.103849 -0.0684,0.135823 -0.26086,0.212089 -0.35763,0.198304 -0.65044,0.0054 -0.0353,-0.02328 -0.0293,-0.07943 -0.0433,-0.11936 -0.0122,-0.03469 0.0252,0.06909 0.0378,0.103638 0.15352,0.690241 1.12966,0.473131 0.97615,-0.217109 z" />
    <path
       style="fill:#0000ff;stroke-width:0.264583"
       id="path587"
       d="m 158.96446,37.795425 c 0.21132,-0.138326 0.33278,-0.188515 0.4787,-0.410779 0.25029,-0.381227 0.25323,-0.975336 -0.36756,-1.079401 -0.17883,-0.02998 -0.3296,0.151269 -0.49441,0.226904 -0.0563,0.124953 -0.14229,0.240415 -0.1689,0.374859 -0.0934,0.471971 0.30603,1.049799 0.79187,1.092176 0.14118,0.01231 0.2807,-0.03923 0.42106,-0.05885 0.10597,-0.09645 0.24451,-0.16629 0.3179,-0.289356 0.19334,-0.324165 0.10115,-0.832938 -0.14893,-1.102052 -0.0525,-0.05651 -0.12031,-0.09658 -0.18047,-0.144877 -0.93687,0.279143 -0.55655,-0.02334 -0.74371,0.31965 -0.0134,0.02457 0.0354,-0.085 0.0283,-0.08669 -0.0175,-0.0042 -0.0332,0.01387 -0.0498,0.0208 -0.62153,0.337191 -0.14467,1.21617 0.47687,0.878979 v 0 c 0.16011,-0.09259 0.23506,-0.120605 0.36538,-0.269441 0.0448,-0.05113 0.0722,-0.115167 0.10804,-0.172925 0.005,-0.0087 -0.007,0.02323 -0.0168,0.02587 -0.21864,0.05801 -0.44062,0.102625 -0.66094,0.153938 -0.059,-0.05585 -0.14111,-0.114199 -0.1185,-0.139954 0.0147,-0.01671 0.0249,0.06496 0.0425,0.05137 0.33798,-0.260842 -0.22854,0.0222 0.24705,-0.188186 0.0536,0.01104 0.11049,0.01155 0.16077,0.03313 0.0879,0.03773 -0.009,0.05132 -0.0123,0.05505 -0.0121,0.01219 -0.0131,0.03212 -0.0235,0.04579 -0.0201,0.02643 -0.11617,0.09715 -0.12489,0.103954 -0.40469,0.07686 -0.40577,0.17353 -0.6913,-0.314022 -0.10257,-0.175148 0.15031,-0.236955 0.043,-0.110688 -0.0239,0.02817 -0.0569,0.04724 -0.0853,0.07086 -0.64622,0.287054 -0.24027,1.200947 0.40595,0.913894 z" />
    <path
       style="fill:#0000ff;stroke-width:0.264583"
       id="path589"
       d="m 159.7438,42.502372 c 0.0804,-0.536197 0.14128,-0.691014 -0.9673,-0.326171 -0.0934,0.03073 -1e-4,0.208116 0.0546,0.289798 0.0939,0.140208 0.2148,0.279764 0.37041,0.344999 0.13876,0.05817 0.30091,-3.17e-4 0.45137,-4.76e-4 0.10958,-0.06676 0.2307,-0.117509 0.32876,-0.200273 0.17992,-0.151855 0.40448,-0.541748 0.37391,-0.790224 -0.0167,-0.135805 -0.0232,-0.300478 -0.12619,-0.390609 -0.14905,-0.130493 -0.37128,-0.138301 -0.55692,-0.207451 -0.3505,0.171051 -0.4944,0.251658 -0.55543,0.647332 -0.009,0.06 -0.0598,0.179629 8e-4,0.182123 0.0606,0.0025 -0.008,-0.124928 0.0137,-0.181524 0.03,-0.07755 0.0914,-0.138917 0.13708,-0.208375 -0.0128,0.002 -0.0255,0.0039 -0.0382,0.0059 -0.65749,0.260212 -0.2895,1.19004 0.36799,0.929828 v 0 c 0.0678,-0.02992 0.13564,-0.05984 0.20346,-0.08975 0.34132,-0.370721 0.23678,-0.150756 0.31128,-0.553275 0.005,-0.02547 -0.001,0.0525 -0.009,0.07715 -0.043,0.132819 -0.18651,0.148754 -0.3036,0.182402 -0.13381,-0.07583 -0.29838,-0.113307 -0.40143,-0.227479 -0.0588,-0.06511 -0.0325,-0.17277 -0.0388,-0.260256 -5.3e-4,-0.0067 0.0175,-0.0093 0.0199,-0.0031 0.0127,0.03227 -0.0372,0.07357 -0.018,0.102488 0.0112,0.01695 0.0398,0.0081 0.0597,0.01217 0.23727,0.07667 0.22981,0.03063 0.35939,0.315838 0.014,0.03073 0.0262,0.10152 -0.008,0.100962 -1.17512,-0.01943 -0.937,-0.452402 -1.00579,0.03084 -0.15351,0.690241 0.82263,0.907351 0.97615,0.21711 z" />
  </g>
</svg>
